<?xml version="1.0" encoding="UTF-8"?>
<!DOCTYPE svg PUBLIC "-//W3C//DTD SVG 1.1//EN" "http://www.w3.org/Graphics/SVG/1.1/DTD/svg11.dtd">
<!-- Creator: CorelDRAW 2018 (64-Bit) -->
<svg xmlns="http://www.w3.org/2000/svg" xml:space="preserve" width="0.319287in" height="0.368988in" version="1.1" style="shape-rendering:geometricPrecision; text-rendering:geometricPrecision; image-rendering:optimizeQuality; fill-rule:evenodd; clip-rule:evenodd"
viewBox="0 0 1.93 2.23"
 xmlns:xlink="http://www.w3.org/1999/xlink">
 <defs>
  <style type="text/css">
   <![CDATA[
    .str0 {stroke:white;stroke-width:0.04;stroke-miterlimit:2.61313}
    .fil0 {fill:none}
    .fil2 {fill:black;fill-rule:nonzero}
    .fil6 {fill:#C5C5C5;fill-rule:nonzero}
    .fil4 {fill:#F87925;fill-rule:nonzero}
    .fil5 {fill:#FFAA77;fill-rule:nonzero}
    .fil3 {fill:#FFC6A3;fill-rule:nonzero}
    .fil1 {fill:white;fill-rule:nonzero}
   ]]>
  </style>
 </defs>
 <g id="Layer_x0020_1">
  <metadata id="CorelCorpID_0Corel-Layer"/>
  <g id="_789273536">
   <g>
    <path class="fil0 str0" d="M1.87 0.48c0,0.04 0.01,0.07 0.02,0.11 0.01,0.06 0.02,0.12 -0,0.18 -0.02,0.06 -0.07,0.11 -0.12,0.14 0.04,0.11 0.04,0.24 0.02,0.36 -0.02,-0.03 -0.04,-0.06 -0.07,-0.09 0,0.04 0,0.09 -0,0.13 -0,0.02 -0.01,0.05 -0.02,0.07 -0.01,-0.01 -0.03,-0.03 -0.04,-0.04 0,0.06 -0.01,0.12 -0.04,0.18 -0.02,-0.02 -0.03,-0.05 -0.05,-0.07 -0.01,0.03 -0.03,0.05 -0.05,0.08 0.11,0.01 0.23,0.02 0.34,0.03 -0.12,-0 -0.25,-0 -0.37,-0 -0.01,0 -0.02,0.01 -0.02,0.01 0,0.02 -0,0.04 -0,0.05 0.11,0.02 0.21,0.04 0.32,0.06 0.05,0.01 0.1,0.02 0.15,0.03 -0.16,-0.02 -0.32,-0.05 -0.48,-0.07 -0.01,0.02 -0.01,0.04 -0.03,0.06 0.11,0.05 0.21,0.09 0.32,0.14 -0.11,-0.04 -0.22,-0.08 -0.34,-0.12 -0.02,0.03 -0.05,0.05 -0.08,0.05 -0.03,0.1 -0.07,0.19 -0.1,0.29 -0.01,0.05 -0.05,0.09 -0.09,0.11 -0.05,0.03 -0.11,0.04 -0.17,0.04 -0.06,0 -0.13,-0.01 -0.18,-0.05 -0.04,-0.03 -0.07,-0.06 -0.08,-0.11 -0.03,-0.1 -0.07,-0.19 -0.1,-0.29 -0.03,-0 -0.06,-0.02 -0.08,-0.05 -0.11,0.04 -0.22,0.08 -0.34,0.12 0.11,-0.05 0.21,-0.09 0.32,-0.14 -0.01,-0.02 -0.02,-0.04 -0.03,-0.06 -0.15,0.02 -0.3,0.04 -0.45,0.06 -0.01,0 -0.01,0 -0.02,0 0.15,-0.03 0.31,-0.06 0.46,-0.09 -0,-0.02 -0,-0.04 -0,-0.05 -0.01,-0 -0.02,-0.01 -0.03,-0.01 -0.08,0 -0.16,0 -0.24,0 -0.04,0 -0.09,0 -0.13,0 0.11,-0.01 0.23,-0.02 0.34,-0.03 -0.02,-0.02 -0.04,-0.05 -0.06,-0.08 -0.02,0.02 -0.03,0.05 -0.05,0.07 -0.04,-0.05 -0.04,-0.12 -0.04,-0.18 -0.01,0.01 -0.03,0.03 -0.04,0.04 -0.01,-0.02 -0.02,-0.04 -0.02,-0.07 -0.01,-0.04 -0,-0.09 -0,-0.13 -0.02,0.03 -0.04,0.06 -0.07,0.09 -0.02,-0.12 -0.02,-0.24 0.02,-0.36 -0.05,-0.03 -0.09,-0.08 -0.12,-0.13 -0.02,-0.04 -0.02,-0.08 -0.02,-0.12 0,-0.05 0.02,-0.1 0.03,-0.14 0.01,-0.03 0.01,-0.06 0.01,-0.09 0,-0.05 0.01,-0.11 0.02,-0.16 -0,-0.05 0,-0.11 0.02,-0.16 0.01,-0.03 0.03,-0.06 0.06,-0.07 0.03,-0.02 0.06,-0.01 0.09,-0 0.05,0.02 0.09,0.05 0.13,0.09 0.08,0.07 0.16,0.15 0.24,0.22 0.07,-0.02 0.15,-0.03 0.23,-0.04 0.04,-0 0.08,-0 0.12,-0.01 0.07,0 0.14,0.01 0.21,0.01 0.05,0.01 0.1,0.01 0.15,0.03 0.08,-0.08 0.17,-0.16 0.26,-0.23 0.03,-0.03 0.07,-0.06 0.12,-0.08 0.03,-0.01 0.07,-0.01 0.09,0 0.03,0.02 0.05,0.05 0.06,0.08 0.01,0.05 0.02,0.1 0.02,0.15 0,0.01 0,0.03 0,0.04 0.01,0.06 0.01,0.12 0.02,0.18z"/>
   </g>
   <g id="_789276192">
    <path class="fil1" d="M0.86 0.36c0.02,-0 0.04,-0 0.06,-0 0.05,-0 0.1,0 0.15,0 0.02,0.01 0.03,0.01 0.05,0.01 0.07,0.02 0.15,0.03 0.22,0.06 -0.03,0.02 -0.06,0.03 -0.08,0.05 0.1,0.02 0.2,0.06 0.28,0.12 0.03,0.02 0.06,0.04 0.09,0.07 -0.03,0 -0.06,0 -0.09,0 0.04,0.04 0.07,0.09 0.09,0.14 0.03,0.08 0.05,0.16 0.07,0.25 -0.03,-0.02 -0.05,-0.04 -0.08,-0.06 0.02,0.06 0.03,0.13 0.03,0.19 -0.03,-0.01 -0.05,-0.03 -0.08,-0.04 0.02,0.05 0.02,0.11 0.02,0.16 -0.03,-0.03 -0.05,-0.07 -0.08,-0.11 0.01,0.04 0.02,0.09 -0,0.13 -0.03,-0.02 -0.05,-0.04 -0.08,-0.06 0,0.01 0,0.01 0,0.02 -0.02,-0.03 -0.04,-0.05 -0.07,-0.08 0.02,0.06 0.04,0.12 0.05,0.19 0,0.03 0.01,0.06 0,0.09 -0.05,-0 -0.11,-0.01 -0.16,-0.01 -0,-0 -0.01,0 -0.01,0 0,-0.06 -0.02,-0.12 -0.05,-0.18 -0.03,-0.05 -0.04,-0.11 -0.05,-0.17 -0,0 -0,0 -0,0.01 -0.01,0.04 -0.02,0.07 -0.03,0.11 -0.01,0.03 -0.01,0.06 -0.01,0.08 -0.02,-0.02 -0.04,-0.03 -0.07,-0.04 -0.03,-0.01 -0.05,-0.01 -0.08,-0.01 -0.04,0 -0.09,0.01 -0.13,0.05 0,-0.04 -0,-0.07 -0.01,-0.1 -0.01,-0.03 -0.02,-0.06 -0.03,-0.09 -0,-0 -0,-0 -0,-0.01 -0,0.06 -0.02,0.11 -0.04,0.16 -0.03,0.06 -0.05,0.12 -0.05,0.19 -0,-0 -0.01,-0 -0.01,-0 -0.05,0 -0.11,0.01 -0.16,0.01 -0,-0.01 -0,-0.03 -0,-0.04 0.01,-0.08 0.03,-0.15 0.05,-0.23 -0.02,0.02 -0.05,0.05 -0.07,0.07 -0,-0 -0,-0.01 -0,-0.01 -0.03,0.02 -0.05,0.04 -0.08,0.06 -0.02,-0.04 -0.01,-0.09 -0,-0.13 -0.03,0.04 -0.06,0.07 -0.08,0.11 0,-0.05 -0,-0.11 0.02,-0.16 -0.03,0.01 -0.05,0.03 -0.08,0.04 -0,-0.07 0.02,-0.13 0.03,-0.19 -0.03,0.02 -0.05,0.04 -0.08,0.06 0.01,-0.07 0.03,-0.13 0.05,-0.2 0.02,-0.07 0.05,-0.14 0.1,-0.19 -0.03,-0 -0.06,-0 -0.09,-0 0.06,-0.06 0.13,-0.1 0.2,-0.14 0.05,-0.03 0.11,-0.04 0.17,-0.06 -0.03,-0.02 -0.05,-0.03 -0.08,-0.05 0.01,-0 0.01,-0.01 0.02,-0.01 0.08,-0.03 0.16,-0.04 0.23,-0.06 0.01,-0 0.01,-0 0.02,-0.01zm-0.43 0.34l0 0c-0,0.02 -0,0.05 0,0.07 -0,0.01 -0,0.03 0,0.04 0.01,0.06 0.02,0.13 0.05,0.19 0.01,0.03 0.02,0.05 0.04,0.08 0.05,-0.03 0.11,-0.04 0.17,-0.04 0.01,-0 0.02,0.01 0.03,0.01 0.01,0.01 0.03,0.02 0.04,0.03l-0 -0c0.01,0.01 0.01,0.02 0.02,0.03 0.01,-0.03 0,-0.06 -0,-0.08 -0.01,-0.05 -0.04,-0.09 -0.07,-0.13 -0.04,-0.01 -0.07,-0.01 -0.11,-0.02 -0.03,-0.01 -0.05,-0.02 -0.07,-0.03 -0.02,-0.01 -0.03,-0.03 -0.05,-0.04 -0.02,-0.03 -0.03,-0.07 -0.05,-0.1zm1.02 0.12l0 0c-0.03,0.03 -0.06,0.05 -0.1,0.06 -0.04,0.01 -0.08,0.02 -0.12,0.02 -0.02,0.03 -0.05,0.06 -0.06,0.1 -0.01,0.03 -0.02,0.07 -0.01,0.11 0.01,-0.01 0.01,-0.01 0.01,-0.02 0.01,-0 0.02,-0.01 0.02,-0.02 0.01,-0.01 0.03,-0.02 0.04,-0.03 0.06,-0 0.12,0.01 0.18,0.04 0.04,-0.05 0.06,-0.11 0.07,-0.17 0.01,-0.05 0.02,-0.11 0.02,-0.16 0,-0.02 0,-0.04 -0,-0.05 -0.02,0.04 -0.03,0.08 -0.06,0.12z"/>
    <path class="fil1" d="M0.5 0.87c0.02,0.02 0.05,0.03 0.07,0.04l0.09 0.03c0.02,0.01 0.03,0.02 0.04,0.04 -0.05,-0.01 -0.1,-0.02 -0.15,0 -0.03,-0.03 -0.04,-0.07 -0.05,-0.12z"/>
    <path class="fil1" d="M1.35 0.91c0.03,-0.01 0.05,-0.02 0.07,-0.04 -0.01,0.04 -0.02,0.08 -0.05,0.12 -0.05,-0.02 -0.1,-0.01 -0.15,-0 0.01,-0.02 0.02,-0.03 0.04,-0.04l0.09 -0.03z"/>
    <path class="fil1" d="M1.13 1.59c0.04,-0.01 0.07,-0.03 0.09,-0.07 0.01,0.01 0.01,0.01 0.02,0.01 0.05,0 0.09,0 0.14,0 -0.01,0.02 -0.02,0.03 -0.02,0.05 -0.05,-0.01 -0.09,-0.02 -0.14,-0.03 -0.01,-0 -0.02,0 -0.03,0.02 0,0.01 0.01,0.02 0.02,0.02 0.04,0.01 0.08,0.01 0.12,0.02 -0.01,0.01 -0.02,0.02 -0.03,0.03 -0.02,-0.01 -0.04,-0.02 -0.07,-0.03 -0.01,0 -0.02,0 -0.03,0.01 -0.01,0 -0,0.01 0,0.02 0.01,0.02 0.03,0.02 0.05,0.02 -0.01,0.01 -0.03,0.01 -0.05,0.01 -0.07,0.01 -0.14,-0 -0.2,-0.04 0.02,-0 0.04,-0.01 0.05,-0.01 0.02,-0.01 0.03,-0.02 0.04,-0.04z"/>
    <path class="fil1" d="M0.67 1.53c0.01,0 0.02,-0 0.03,-0.01 0.01,0.01 0.02,0.02 0.03,0.03 0.02,0.02 0.04,0.03 0.07,0.04 0.01,0.01 0.01,0.02 0.02,0.03 0.02,0.02 0.05,0.02 0.07,0.03 -0.07,0.04 -0.15,0.05 -0.23,0.03 -0.01,-0 -0.01,-0 -0.02,-0.01 0.02,-0.01 0.04,-0.01 0.05,-0.02 0,-0.01 0.01,-0.01 0,-0.02 -0.01,-0 -0.02,-0.01 -0.03,-0.01 -0.02,0.01 -0.04,0.02 -0.06,0.03 -0.01,-0.01 -0.02,-0.02 -0.03,-0.03 0.04,-0.01 0.08,-0.01 0.12,-0.02 0.01,-0 0.02,-0.01 0.02,-0.02 0,-0.01 -0.01,-0.02 -0.02,-0.02 -0.05,0.01 -0.09,0.02 -0.14,0.03 -0.01,-0.02 -0.02,-0.03 -0.02,-0.05 -0.01,-0 -0.01,-0 -0.02,-0 0.01,-0 0.01,-0 0.02,-0 0.04,-0 0.09,-0 0.13,-0z"/>
    <path class="fil1" d="M0.87 1.75c0.03,-0 0.05,-0.01 0.08,-0.02 0,0.03 0,0.06 0,0.09 -0.02,0.01 -0.04,0.01 -0.06,0 -0,-0.01 -0.01,-0.02 -0.01,-0.03 -0,-0.01 -0,-0.03 -0.01,-0.04z"/>
    <path class="fil1" d="M0.98 1.73c0.02,0.01 0.05,0.02 0.08,0.02 -0,0.01 -0,0.03 -0.01,0.04 -0,0.01 -0.01,0.02 -0.01,0.03 -0.02,0.01 -0.04,0.01 -0.05,0 -0,-0 -0.01,-0 -0.01,-0.01 0,-0.03 0,-0.06 0,-0.09z"/>
    <path class="fil1" d="M0.68 1.8c0.01,-0 0.03,-0.01 0.04,-0.01 0.01,0.05 0.03,0.1 0.05,0.15 0.01,0.02 0.02,0.04 0.03,0.06 0.01,0.02 0.03,0.03 0.04,0.04 0.05,0.03 0.1,0.03 0.15,0.02 0.04,-0.01 0.07,-0.02 0.1,-0.05 0.02,-0.04 0.05,-0.08 0.07,-0.13 0.01,-0.03 0.02,-0.06 0.03,-0.09 0.01,0 0.03,0 0.04,0.01 -0.02,0.06 -0.04,0.11 -0.06,0.17 -0.02,0.04 -0.04,0.07 -0.06,0.1 -0.04,0.04 -0.09,0.06 -0.15,0.06 -0.06,0 -0.11,-0.02 -0.15,-0.06 -0.03,-0.03 -0.05,-0.06 -0.06,-0.1 -0.02,-0.05 -0.05,-0.11 -0.06,-0.17z"/>
    <path class="fil1" d="M0.89 1.89c0,-0 0,-0.01 0,-0.01 0.02,0 0.04,0 0.05,0 -0,0.04 -0,0.08 -0,0.12 -0.02,-0 -0.05,-0 -0.06,-0.02 -0,-0 -0.01,-0 -0.01,-0.01 0,-0.03 0.02,-0.06 0.02,-0.09z"/>
    <path class="fil1" d="M0.97 1.88c0.02,-0 0.04,-0 0.05,-0 0,0 0,0.01 0,0.01l-0 0c-0,0.01 0,0.03 0.01,0.04 0,0.01 0.01,0.03 0.01,0.04 0,0.01 -0,0.01 -0.01,0.01 -0.02,0.01 -0.04,0.01 -0.07,0.02 -0,-0.04 -0,-0.08 -0,-0.12z"/>
    <path class="fil2" d="M0.15 0.03c0.03,-0.02 0.06,-0.01 0.09,-0 0.05,0.02 0.09,0.05 0.13,0.09 0.08,0.07 0.16,0.15 0.24,0.22 0.07,-0.02 0.15,-0.03 0.23,-0.04 0.04,-0 0.08,-0 0.12,-0.01 0.07,0 0.14,0.01 0.21,0.01 0.05,0.01 0.1,0.01 0.15,0.03 0.08,-0.08 0.17,-0.16 0.26,-0.23 0.03,-0.03 0.07,-0.06 0.12,-0.08 0.03,-0.01 0.07,-0.01 0.09,0 0.03,0.02 0.05,0.05 0.06,0.08 0.01,0.05 0.02,0.1 0.02,0.15 0,0.01 0,0.03 0,0.04 0.01,0.06 0.01,0.12 0.02,0.18 0,0.04 0.01,0.07 0.02,0.11 0.01,0.06 0.02,0.12 -0,0.18 -0.02,0.06 -0.07,0.11 -0.12,0.14 0.04,0.11 0.04,0.24 0.02,0.36 -0.02,-0.03 -0.04,-0.06 -0.07,-0.09 0,0.04 0,0.09 -0,0.13 -0,0.02 -0.01,0.05 -0.02,0.07 -0.01,-0.01 -0.03,-0.03 -0.04,-0.04 0,0.06 -0.01,0.12 -0.04,0.18 -0.02,-0.02 -0.03,-0.05 -0.05,-0.07 -0.01,0.03 -0.03,0.05 -0.05,0.08 0.11,0.01 0.23,0.02 0.34,0.03 -0.12,-0 -0.25,-0 -0.37,-0 -0.01,0 -0.02,0.01 -0.02,0.01 0,0.02 -0,0.04 -0,0.05 0.11,0.02 0.21,0.04 0.32,0.06 0.05,0.01 0.1,0.02 0.15,0.03 -0.16,-0.02 -0.32,-0.05 -0.48,-0.07 -0.01,0.02 -0.01,0.04 -0.03,0.06 0.11,0.05 0.21,0.09 0.32,0.14 -0.11,-0.04 -0.22,-0.08 -0.34,-0.12 -0.02,0.03 -0.05,0.05 -0.08,0.05 -0.03,0.1 -0.07,0.19 -0.1,0.29 -0.01,0.05 -0.05,0.09 -0.09,0.11 -0.05,0.03 -0.11,0.04 -0.17,0.04 -0.06,0 -0.13,-0.01 -0.18,-0.05 -0.04,-0.03 -0.07,-0.06 -0.08,-0.11 -0.03,-0.1 -0.07,-0.19 -0.1,-0.29 -0.03,-0 -0.06,-0.02 -0.08,-0.05 -0.11,0.04 -0.22,0.08 -0.34,0.12 0.11,-0.05 0.21,-0.09 0.32,-0.14 -0.01,-0.02 -0.02,-0.04 -0.03,-0.06 -0.15,0.02 -0.3,0.04 -0.45,0.06 -0.01,0 -0.01,0 -0.02,0 0.15,-0.03 0.31,-0.06 0.46,-0.09 -0,-0.02 -0,-0.04 -0,-0.05 -0.01,-0 -0.02,-0.01 -0.03,-0.01 -0.08,0 -0.16,0 -0.24,0 -0.04,0 -0.09,0 -0.13,0 0.11,-0.01 0.23,-0.02 0.34,-0.03 -0.02,-0.02 -0.04,-0.05 -0.06,-0.08 -0.02,0.02 -0.03,0.05 -0.05,0.07 -0.04,-0.05 -0.04,-0.12 -0.04,-0.18 -0.01,0.01 -0.03,0.03 -0.04,0.04 -0.01,-0.02 -0.02,-0.04 -0.02,-0.07 -0.01,-0.04 -0,-0.09 -0,-0.13 -0.02,0.03 -0.04,0.06 -0.07,0.09 -0.02,-0.12 -0.02,-0.24 0.02,-0.36 -0.05,-0.03 -0.09,-0.08 -0.12,-0.13 -0.02,-0.04 -0.02,-0.08 -0.02,-0.12 0,-0.05 0.02,-0.1 0.03,-0.14 0.01,-0.03 0.01,-0.06 0.01,-0.09 0,-0.05 0.01,-0.11 0.02,-0.16 -0,-0.05 0,-0.11 0.02,-0.16 0.01,-0.03 0.03,-0.06 0.06,-0.07zm0.03 0.09l0 0 -0 -0c-0.02,0.02 -0.03,0.06 -0.03,0.09 -0.01,0.07 -0.01,0.14 -0.02,0.21 -0,0.03 -0.01,0.06 -0.01,0.1 -0.01,0.05 -0.02,0.09 -0.02,0.14 -0,0.03 0,0.07 0.02,0.1 0.02,0.04 0.05,0.07 0.09,0.09 0.01,-0.02 0.02,-0.03 0.03,-0.05 -0.03,-0.01 -0.05,-0.01 -0.08,-0.02 0.01,-0.02 0.02,-0.05 0.04,-0.07 0.03,-0.04 0.06,-0.07 0.1,-0.1 -0.01,-0.01 -0.02,-0.03 -0.03,-0.05 -0,-0.02 0.01,-0.05 0.03,-0.06 0.01,-0.01 0.02,-0.01 0.03,-0.01 -0,-0.09 -0.03,-0.19 -0.07,-0.27 -0,-0.01 -0.01,-0.02 -0.01,-0.02 0.05,0.03 0.09,0.08 0.11,0.13 0.03,0.06 0.04,0.13 0.05,0.2 0.03,-0.01 0.06,-0.03 0.09,-0.04 -0.03,-0.02 -0.05,-0.04 -0.08,-0.06 0.03,-0.01 0.06,-0.02 0.09,-0.03 0.02,-0.01 0.04,-0.01 0.06,-0.02 -0.07,-0.06 -0.13,-0.15 -0.21,-0.2 -0.03,-0.02 -0.06,-0.04 -0.1,-0.05 -0.02,-0 -0.04,-0 -0.05,0.01zm1.42 0.03l0 0c-0.08,0.06 -0.14,0.14 -0.21,0.21 0.02,0.01 0.04,0.01 0.06,0.02 0.03,0.01 0.06,0.02 0.09,0.03 -0.03,0.02 -0.05,0.04 -0.08,0.06 0.03,0.01 0.06,0.03 0.09,0.04 0.01,-0.07 0.02,-0.14 0.06,-0.21 0.02,-0.05 0.06,-0.09 0.11,-0.12 -0,0.01 -0.01,0.02 -0.01,0.02 -0.01,0.02 -0.02,0.04 -0.03,0.07 -0.03,0.06 -0.04,0.13 -0.04,0.2 0.02,-0 0.05,0.01 0.05,0.04 0.01,0.03 -0,0.06 -0.02,0.09 0.02,0.02 0.05,0.05 0.07,0.07 0.03,0.03 0.05,0.06 0.07,0.1 -0.03,0.01 -0.05,0.01 -0.08,0.02 0.01,0.02 0.02,0.03 0.03,0.05 0.03,-0.02 0.06,-0.04 0.07,-0.07 0.02,-0.04 0.03,-0.08 0.03,-0.12 -0,-0.06 -0.01,-0.11 -0.02,-0.16 -0.01,-0.07 -0.02,-0.14 -0.02,-0.22 -0,-0.03 -0.01,-0.07 -0.01,-0.1 -0,-0.02 -0.01,-0.04 -0.03,-0.05 -0.01,-0.01 -0.03,-0.01 -0.05,-0.01 -0.04,0 -0.07,0.02 -0.1,0.04zm-0.74 0.21l0 0c-0.03,0 -0.07,0.01 -0.1,0.01 -0.09,0.01 -0.17,0.03 -0.25,0.05 0.03,0.02 0.06,0.04 0.08,0.06 -0.15,0.03 -0.28,0.12 -0.37,0.24 0.04,-0 0.07,-0 0.11,-0 -0.04,0.08 -0.09,0.17 -0.11,0.25 -0.02,0.06 -0.03,0.12 -0.03,0.18 0.03,-0.02 0.06,-0.04 0.08,-0.06 -0.01,0.05 -0.02,0.1 -0.02,0.16 0,0.02 0,0.04 0.01,0.06 0.02,-0.02 0.04,-0.04 0.06,-0.06 0,0.05 -0,0.1 0.01,0.15 0,0.01 0,0.03 0.01,0.04 0.02,-0.03 0.03,-0.06 0.05,-0.1 0.02,0.06 0.05,0.11 0.1,0.14 -0.01,-0.06 -0,-0.13 0.04,-0.18l-0 -0c0.02,-0.03 0.04,-0.05 0.07,-0.07 -0.02,0.08 -0.05,0.15 -0.05,0.23 -0,0.01 -0,0.03 0,0.04 0.05,-0 0.11,-0.01 0.16,-0.01 0,-0 0.01,0 0.01,0 0.01,0.01 0.01,0.02 0.01,0.03 -0.01,0.01 -0.02,0.01 -0.03,0.01 -0.04,0 -0.09,0 -0.13,0 -0.01,0 -0.01,-0 -0.02,0 0,0.02 0.01,0.04 0.01,0.05 0.01,-0 0.02,-0 0.02,-0 0.05,-0.01 0.09,-0.02 0.14,-0.03 0.01,0 0.02,0.01 0.02,0.02 -0,0.01 -0.01,0.02 -0.02,0.02 -0.04,0.01 -0.08,0.01 -0.12,0.02 -0.01,0 -0.02,0 -0.03,0 0.01,0.01 0.02,0.03 0.03,0.04 0.01,-0 0.02,-0.01 0.03,-0.01 0.02,-0.01 0.04,-0.02 0.06,-0.03 0.01,-0 0.02,0 0.03,0.01 0.01,0 0,0.01 -0,0.02 -0.01,0.02 -0.03,0.02 -0.05,0.02 -0.02,0.01 -0.04,0.01 -0.05,0.02 0.03,0.02 0.06,0.02 0.09,0.03 0.07,0 0.14,-0 0.21,-0.03 0.03,-0.01 0.06,-0.03 0.07,-0.06 0.01,0.03 0.04,0.05 0.07,0.06 0.06,0.02 0.12,0.03 0.19,0.03 0.03,-0 0.07,-0.01 0.1,-0.02 0,-0 0.01,-0 0.01,-0.01 -0.02,-0.01 -0.04,-0.01 -0.05,-0.02 -0.02,-0.01 -0.04,-0.01 -0.05,-0.02 -0,-0 -0.01,-0.01 -0,-0.02 0.01,-0.01 0.02,-0.01 0.03,-0.01 0.02,0.01 0.04,0.02 0.07,0.03 0.01,0.01 0.02,0.01 0.03,0.01 0.01,-0.01 0.02,-0.03 0.03,-0.04 -0.01,-0 -0.02,-0 -0.03,-0 -0.04,-0.01 -0.08,-0.01 -0.12,-0.02 -0.01,-0 -0.02,-0.01 -0.02,-0.02 0,-0.01 0.01,-0.02 0.03,-0.02 0.05,0.01 0.09,0.02 0.14,0.03 0.01,0 0.02,0 0.02,0 0.01,-0.02 0.01,-0.04 0.01,-0.05 -0,-0 -0.01,-0 -0.01,-0 -0.05,-0 -0.09,-0 -0.14,-0 -0.01,-0 -0.02,-0.01 -0.02,-0.01 -0,-0.01 0,-0.02 0.01,-0.03 0,-0 0.01,-0 0.01,-0 0.05,0 0.11,0.01 0.16,0.01 0,-0.03 -0,-0.06 -0,-0.09 -0.01,-0.06 -0.03,-0.12 -0.05,-0.19 0.03,0.02 0.05,0.05 0.07,0.08 0.03,0.05 0.04,0.12 0.03,0.18 0.04,-0.03 0.07,-0.07 0.09,-0.12 0,-0.01 0,-0.02 0.01,-0.02 0.02,0.03 0.03,0.06 0.05,0.09 0.01,-0.01 0.01,-0.03 0.01,-0.05 0.01,-0.05 0,-0.09 0,-0.14 0.02,0.02 0.04,0.04 0.06,0.06 0,-0.01 0,-0.03 0.01,-0.04 0,-0.06 -0,-0.12 -0.02,-0.17 0.03,0.02 0.06,0.04 0.08,0.06 0,-0.05 -0.01,-0.1 -0.02,-0.15 -0.03,-0.1 -0.07,-0.19 -0.12,-0.28 0.04,0 0.07,0 0.11,0 -0.03,-0.03 -0.06,-0.07 -0.09,-0.09 -0.08,-0.07 -0.18,-0.12 -0.28,-0.14 0.03,-0.02 0.06,-0.04 0.08,-0.06 -0.12,-0.03 -0.24,-0.05 -0.36,-0.06 -0.05,-0 -0.1,-0.01 -0.15,-0 -0.02,0 -0.04,0 -0.06,0zm-0.01 1.37l0 0c0.01,0.02 0.02,0.04 0.03,0.06 0,0.01 0.01,0.02 0.01,0.03 0.02,0.01 0.04,0.01 0.06,-0 -0,-0.03 -0,-0.06 -0,-0.09 0,-0.01 -0,-0.02 -0,-0.02 -0.03,0.01 -0.07,0.03 -0.1,0.03zm0.13 -0.03l0 0c-0,0.01 -0,0.02 -0,0.02 -0,0.03 -0,0.06 -0,0.09 -0,0.01 0.01,0.01 0.01,0.01 0.02,0.01 0.03,0 0.05,-0 0,-0.01 0.01,-0.02 0.01,-0.03 0.01,-0.02 0.02,-0.04 0.03,-0.06 -0.04,-0 -0.07,-0.01 -0.1,-0.03zm-0.21 0.06l0 0c0.01,0.06 0.03,0.13 0.06,0.18 -0,-0.03 -0.01,-0.05 -0.01,-0.08 -0.01,-0.03 -0.01,-0.07 -0.01,-0.1 -0.01,0 -0.03,-0 -0.04,0zm0.36 0l0 0c0,0.03 -0,0.07 -0.01,0.1 -0,0.03 -0.01,0.05 -0.01,0.08 0.01,-0.01 0.01,-0.03 0.02,-0.04 0.02,-0.05 0.04,-0.09 0.04,-0.14 -0.01,-0 -0.03,-0 -0.04,0zm-0.46 0.01l0 0c0.02,0.08 0.05,0.15 0.08,0.23 0.01,0.02 0.01,0.04 0.03,0.06 0.03,0.05 0.08,0.08 0.14,0.09 0.04,0.01 0.09,0.01 0.13,-0 0.05,-0.01 0.1,-0.04 0.13,-0.09 0.01,-0.02 0.02,-0.04 0.03,-0.06 0.03,-0.07 0.06,-0.15 0.08,-0.23 -0.02,0 -0.04,-0 -0.06,0 -0,0.01 -0,0.01 -0.01,0.02 -0.01,0.03 -0.02,0.06 -0.03,0.09 -0.02,0.05 -0.04,0.09 -0.07,0.13 -0.02,0.03 -0.06,0.04 -0.1,0.05 -0.05,0.01 -0.11,0.01 -0.15,-0.02 -0.02,-0.01 -0.03,-0.02 -0.04,-0.04 -0.01,-0.02 -0.02,-0.04 -0.03,-0.06 -0.02,-0.05 -0.04,-0.1 -0.05,-0.15 -0,-0.01 -0,-0.01 -0.01,-0.02 -0.02,0 -0.04,0 -0.06,0zm0.23 0.12l0 0c-0.02,0.03 -0.03,0.07 -0.04,0.1 0.02,0.01 0.03,0.02 0.05,0.02 0.02,0 0.03,0 0.05,0 -0,-0.01 -0,-0.01 -0,-0.02 0,-0.04 0,-0.08 0,-0.12 -0.02,-0 -0.04,-0 -0.05,-0 -0,0 -0,0.01 -0,0.01zm0.09 -0.01l0 0c0,0.04 0,0.08 0,0.12 0,0.01 0,0.01 0,0.02 0.02,0 0.04,0 0.05,-0 0.02,-0 0.03,-0.02 0.05,-0.02 -0.01,-0.03 -0.03,-0.07 -0.04,-0.1l0 -0c-0,-0 -0,-0.01 -0,-0.01 -0.02,0 -0.04,0 -0.05,0z"/>
    <path class="fil2" d="M0.42 0.7c0.02,0.03 0.03,0.07 0.05,0.1 0.01,0.02 0.03,0.03 0.05,0.04 0.02,0.02 0.05,0.03 0.07,0.03 0.04,0.01 0.07,0.01 0.11,0.02 0.03,0.04 0.06,0.08 0.07,0.13 0.01,0.03 0.01,0.06 0,0.08 -0.01,-0.01 -0.01,-0.02 -0.02,-0.03 -0.01,-0.03 -0.03,-0.05 -0.06,-0.07 -0.06,0 -0.12,0.01 -0.16,0.04 -0.03,-0.03 -0.05,-0.07 -0.07,-0.11 -0.02,-0.05 -0.04,-0.11 -0.04,-0.16 -0,-0.02 -0,-0.05 -0,-0.07zm0.08 0.17l0 0c0.01,0.04 0.02,0.08 0.05,0.12 0.05,-0.02 0.1,-0.01 0.15,-0 -0.01,-0.02 -0.02,-0.03 -0.04,-0.04l-0.09 -0.03c-0.03,-0.01 -0.05,-0.02 -0.07,-0.04z"/>
    <path class="fil2" d="M1.44 0.82c0.03,-0.03 0.04,-0.08 0.06,-0.12 0,0.02 0,0.04 0,0.05 -0,0.07 -0.02,0.13 -0.05,0.19 -0.02,0.04 -0.04,0.08 -0.06,0.11 -0.05,-0.03 -0.11,-0.03 -0.16,-0.04 -0.03,0.02 -0.04,0.05 -0.06,0.07 -0,0.01 -0.01,0.02 -0.01,0.02 -0.01,-0.04 -0,-0.08 0.01,-0.11 0.01,-0.04 0.04,-0.07 0.06,-0.1 0.04,-0.01 0.08,-0.01 0.12,-0.02 0.04,-0.01 0.07,-0.03 0.1,-0.06zm-0.09 0.09l0 0 -0.09 0.03c-0.02,0.01 -0.03,0.02 -0.04,0.04 0.05,-0.01 0.1,-0.02 0.15,0 0.03,-0.03 0.04,-0.07 0.05,-0.12 -0.02,0.02 -0.05,0.03 -0.07,0.04z"/>
    <path class="fil2" d="M0.78 1.18c0,-0.01 -0,-0.02 0,-0.03 0.01,0.03 0.02,0.06 0.03,0.09 0.01,0.03 0.02,0.07 0.01,0.1 0.03,-0.03 0.08,-0.04 0.13,-0.05 0.03,0 0.05,0.01 0.08,0.01 0.03,0.01 0.05,0.02 0.07,0.04 -0,-0.03 0,-0.06 0.01,-0.08 0.01,-0.04 0.02,-0.07 0.03,-0.11 0,0 0,0 0,0.01 0,0.02 0,0.05 0,0.07 0.01,0.06 0.03,0.12 0.05,0.18 0.01,0.03 0.02,0.07 0,0.1 -0.02,0.03 -0.05,0.04 -0.09,0.05 -0,0.01 -0.01,0.02 -0.02,0.03 -0.03,0.02 -0.06,0.02 -0.09,0.03 -0.05,0 -0.1,0 -0.15,-0.02 -0.02,-0.01 -0.04,-0.02 -0.04,-0.04 -0.02,-0.01 -0.05,-0.01 -0.07,-0.03 -0.02,-0.01 -0.03,-0.04 -0.03,-0.06 -0,-0.03 0.01,-0.06 0.02,-0.09 0.01,-0.03 0.02,-0.06 0.03,-0.09 0.01,-0.04 0.01,-0.07 0.01,-0.11zm0.1 0.17l0 0c-0.03,0.01 -0.05,0.02 -0.07,0.05 -0.01,-0.02 -0.01,-0.03 -0.02,-0.05 -0.01,0.01 -0.01,0.02 -0.02,0.04 -0.01,0.03 -0.02,0.06 -0.01,0.09 0.01,0.03 0.03,0.04 0.06,0.05 -0,-0.01 -0,-0.03 0,-0.04 0.01,-0.01 0.02,-0 0.03,0 -0,0.02 -0,0.05 0.02,0.07 0.02,0.02 0.05,0.02 0.08,0.02 0.03,-0 0.06,-0 0.08,-0.02 0.02,-0.02 0.02,-0.05 0.02,-0.07 0.01,-0 0.02,-0.01 0.03,-0 0.01,0.01 0,0.03 0,0.04 0.02,-0.01 0.05,-0.03 0.06,-0.05 0.01,-0.03 0.01,-0.06 -0.01,-0.09 -0,-0.01 -0.01,-0.03 -0.02,-0.04 -0.01,0.02 -0.01,0.03 -0.02,0.05 -0.02,-0.03 -0.07,-0.05 -0.11,-0.05 -0.04,-0.01 -0.08,-0 -0.12,0.01z"/>
    <path class="fil3" d="M0.18 0.12c0.02,-0.01 0.04,-0.01 0.05,-0.01 0.04,0 0.07,0.02 0.1,0.05 0.08,0.06 0.14,0.14 0.21,0.2 -0.02,0.01 -0.04,0.01 -0.06,0.02 -0.01,-0.02 -0.02,-0.03 -0.04,-0.05 -0.03,-0.04 -0.07,-0.08 -0.1,-0.12 -0.02,-0.02 -0.04,-0.04 -0.06,-0.05 -0.03,-0.02 -0.06,-0.03 -0.09,-0.04 -0.01,-0 -0.01,-0 -0.02,-0z"/>
    <path class="fil3" d="M1.6 0.15c0.03,-0.02 0.06,-0.04 0.1,-0.04 0.02,-0 0.04,-0 0.05,0.01 -0.01,0 -0.01,0 -0.02,0 -0.03,0.01 -0.06,0.02 -0.08,0.03 -0.02,0.01 -0.03,0.02 -0.04,0.04 -0.06,0.06 -0.11,0.12 -0.16,0.19 -0.02,-0.01 -0.04,-0.01 -0.06,-0.02 0.07,-0.07 0.13,-0.15 0.21,-0.21z"/>
    <path class="fil4" d="M0.18 0.12l0 0c0.01,0 0.01,0 0.02,0 -0.03,0.08 -0.04,0.16 -0.04,0.25 -0,0.06 -0.01,0.11 -0.02,0.16 -0.01,0.03 -0.01,0.06 -0.01,0.1 0,0.03 0,0.07 0.01,0.1 0.01,-0.03 0.03,-0.07 0.05,-0.09 0.01,-0.02 0.03,-0.03 0.05,-0.04 -0.01,-0.03 -0.02,-0.07 -0.01,-0.1 0.01,-0.02 0.03,-0.04 0.04,-0.05 -0,-0.08 -0.02,-0.16 -0.04,-0.24 0.04,0.08 0.07,0.18 0.07,0.27 -0.01,-0 -0.02,-0 -0.03,0.01 -0.02,0.01 -0.03,0.04 -0.03,0.06 0,0.02 0.01,0.04 0.03,0.05 -0.03,0.03 -0.07,0.07 -0.1,0.1 -0.02,0.02 -0.03,0.04 -0.04,0.07 0.03,0.01 0.05,0.01 0.08,0.02 -0.01,0.02 -0.02,0.03 -0.03,0.05 -0.04,-0.02 -0.07,-0.05 -0.09,-0.09 -0.01,-0.03 -0.02,-0.06 -0.02,-0.1 0,-0.05 0.01,-0.1 0.02,-0.14 0.01,-0.03 0.01,-0.06 0.01,-0.1 0.01,-0.07 0.01,-0.14 0.02,-0.21 0,-0.03 0.01,-0.06 0.03,-0.09z"/>
    <path class="fil4" d="M1.75 0.12c0.02,0.01 0.02,0.03 0.03,0.05 0.01,0.03 0.01,0.07 0.01,0.1 0.01,0.07 0.01,0.14 0.02,0.22 0.01,0.05 0.02,0.11 0.02,0.16 0,0.04 -0.01,0.08 -0.03,0.12 -0.02,0.03 -0.04,0.05 -0.07,0.07 -0.01,-0.02 -0.02,-0.03 -0.03,-0.05 0.03,-0.01 0.05,-0.01 0.08,-0.02 -0.01,-0.04 -0.04,-0.07 -0.07,-0.1 -0.02,-0.02 -0.05,-0.05 -0.07,-0.07 0.02,-0.02 0.03,-0.06 0.02,-0.09 -0.01,-0.02 -0.03,-0.04 -0.05,-0.04 0,-0.07 0.02,-0.14 0.04,-0.2 0.01,-0.02 0.02,-0.05 0.03,-0.07 -0.02,0.08 -0.04,0.16 -0.04,0.24 0.02,0.01 0.04,0.02 0.04,0.04 0.01,0.03 0,0.07 -0.01,0.1 0.02,0.02 0.05,0.04 0.06,0.06 0.01,0.02 0.02,0.05 0.03,0.07 0.01,-0.04 0.01,-0.07 0.01,-0.11 -0,-0.03 -0,-0.06 -0.01,-0.08 -0.01,-0.04 -0.02,-0.08 -0.02,-0.12 -0,-0.03 -0,-0.07 -0,-0.1 -0,-0.06 -0.01,-0.13 -0.04,-0.19 0.01,-0 0.01,-0 0.02,-0z"/>
    <path class="fil4" d="M0.77 1.47c-0.01,-0.03 -0,-0.06 0.01,-0.09 -0,0.02 -0,0.04 0.01,0.06 0.01,0.01 0.02,0.02 0.03,0.02 0.01,-0 0.02,-0.02 0.03,-0.02 0.01,0 0.03,0.01 0.04,0.02 0.01,0.01 0.01,0.03 0.01,0.04 0.01,0.02 0.03,0.03 0.04,0.03 0.02,0.01 0.04,-0 0.06,-0.01 0.02,-0.01 0.02,-0.03 0.03,-0.05 0,-0.02 0.02,-0.03 0.04,-0.03 0.01,-0 0.02,0.01 0.03,0.01 0.01,0 0.03,-0.01 0.03,-0.02 0.01,-0.02 0.01,-0.04 0.01,-0.06 0.01,0.03 0.02,0.06 0.01,0.09 -0.01,0.02 -0.03,0.04 -0.06,0.05 0,-0.01 0.01,-0.03 -0,-0.04 -0.01,-0.01 -0.02,-0 -0.03,0 0,0.02 0,0.05 -0.02,0.07 -0.02,0.02 -0.05,0.02 -0.08,0.02 -0.03,-0 -0.06,-0 -0.08,-0.02 -0.02,-0.02 -0.02,-0.05 -0.02,-0.07 -0.01,-0 -0.02,-0.01 -0.03,-0 -0.01,0.01 -0,0.03 -0,0.04 -0.02,-0.01 -0.05,-0.03 -0.06,-0.05z"/>
    <path class="fil5" d="M0.2 0.12c0.03,0.01 0.06,0.02 0.09,0.04 0.02,0.01 0.04,0.03 0.06,0.05 0.04,0.04 0.07,0.08 0.1,0.12 0.01,0.02 0.03,0.03 0.04,0.05 -0.03,0.01 -0.06,0.02 -0.09,0.03 0.03,0.02 0.05,0.04 0.08,0.06 -0.03,0.01 -0.06,0.03 -0.09,0.04 -0.01,-0.07 -0.02,-0.13 -0.05,-0.2 -0.02,-0.05 -0.06,-0.1 -0.11,-0.13 0,0.01 0.01,0.02 0.01,0.02 0.02,0.08 0.04,0.16 0.04,0.24 -0.02,0.01 -0.04,0.02 -0.04,0.05 -0.01,0.03 -0,0.07 0.01,0.1 -0.02,0.01 -0.03,0.02 -0.05,0.04 -0.02,0.03 -0.04,0.06 -0.05,0.09 -0.01,-0.03 -0.01,-0.07 -0.01,-0.1 0,-0.03 0,-0.06 0.01,-0.1 0.01,-0.05 0.02,-0.11 0.02,-0.16 0,-0.08 0.01,-0.17 0.04,-0.25z"/>
    <path class="fil5" d="M1.64 0.16c0.03,-0.02 0.05,-0.03 0.08,-0.03 0.03,0.06 0.04,0.13 0.04,0.19 0,0.03 -0,0.07 0,0.1 0,0.04 0.01,0.08 0.02,0.12 0.01,0.03 0.01,0.06 0.01,0.08 0,0.04 -0,0.07 -0.01,0.11 -0.01,-0.02 -0.02,-0.05 -0.03,-0.07 -0.02,-0.03 -0.04,-0.05 -0.06,-0.06 0.01,-0.03 0.02,-0.07 0.01,-0.1 -0.01,-0.02 -0.02,-0.04 -0.04,-0.04 0,-0.08 0.02,-0.16 0.04,-0.24 0,-0.01 0.01,-0.02 0.01,-0.02 -0.05,0.03 -0.09,0.07 -0.11,0.12 -0.03,0.06 -0.05,0.14 -0.06,0.21 -0.03,-0.01 -0.06,-0.03 -0.09,-0.04 0.03,-0.02 0.05,-0.04 0.08,-0.06 -0.03,-0.01 -0.06,-0.02 -0.09,-0.03 0.05,-0.07 0.1,-0.13 0.16,-0.19 0.01,-0.01 0.03,-0.03 0.04,-0.04z"/>
    <path class="fil5" d="M0.88 1.34c0.04,-0.01 0.08,-0.01 0.12,-0.01 0.04,0.01 0.08,0.02 0.11,0.05 0.01,-0.02 0.01,-0.03 0.02,-0.05 0.01,0.01 0.01,0.03 0.02,0.04 -0,0.02 -0,0.04 -0.01,0.06 -0.01,0.01 -0.02,0.02 -0.03,0.02 -0.01,-0 -0.02,-0.02 -0.03,-0.01 -0.02,0.01 -0.04,0.01 -0.04,0.03 -0,0.02 -0.01,0.04 -0.03,0.05 -0.02,0.01 -0.04,0.02 -0.06,0.01 -0.02,-0 -0.04,-0.01 -0.04,-0.03 -0.01,-0.01 -0.01,-0.03 -0.01,-0.04 -0.01,-0.01 -0.02,-0.02 -0.04,-0.02 -0.01,-0 -0.02,0.01 -0.03,0.02 -0.01,0 -0.03,-0.01 -0.03,-0.02 -0.01,-0.02 -0.01,-0.04 -0.01,-0.06 0,-0.01 0.01,-0.02 0.02,-0.04 0.01,0.02 0.01,0.03 0.02,0.05 0.02,-0.02 0.04,-0.04 0.07,-0.05z"/>
    <path class="fil5" d="M0.76 1.76c0.01,-0 0.03,-0 0.04,-0 -0,0.03 0,0.07 0.01,0.1 0,0.03 0.01,0.05 0.01,0.08 -0.03,-0.06 -0.05,-0.12 -0.06,-0.18z"/>
    <path class="fil5" d="M1.12 1.76c0.01,-0 0.03,-0 0.04,0 -0.01,0.05 -0.02,0.1 -0.04,0.14 -0.01,0.01 -0.01,0.03 -0.02,0.04 0,-0.03 0.01,-0.05 0.01,-0.08 0.01,-0.03 0.01,-0.07 0.01,-0.1z"/>
    <path class="fil6" d="M0.75 0.37c0.03,-0 0.07,-0.01 0.1,-0.01 -0.01,0 -0.01,0 -0.02,0.01 -0.08,0.02 -0.16,0.04 -0.23,0.06 -0.01,0 -0.01,0.01 -0.02,0.01 0.03,0.02 0.06,0.03 0.08,0.05 -0.06,0.01 -0.11,0.03 -0.17,0.06 -0.07,0.04 -0.14,0.08 -0.2,0.14 0.03,0 0.06,0 0.09,0 -0.05,0.05 -0.08,0.12 -0.1,0.19 -0.02,0.06 -0.04,0.13 -0.05,0.2 0.03,-0.02 0.05,-0.04 0.08,-0.06 -0.02,0.06 -0.03,0.13 -0.03,0.19 0.03,-0.01 0.05,-0.03 0.08,-0.04 -0.02,0.05 -0.02,0.11 -0.02,0.16 0.03,-0.04 0.06,-0.07 0.08,-0.11 -0.01,0.04 -0.02,0.09 0,0.13 0.03,-0.02 0.05,-0.04 0.08,-0.06 0,0 0,0.01 0,0.01l0 0c-0.04,0.05 -0.04,0.12 -0.04,0.18 -0.05,-0.03 -0.08,-0.09 -0.1,-0.14 -0.02,0.03 -0.03,0.06 -0.05,0.1 -0.01,-0.01 -0.01,-0.03 -0.01,-0.04 -0.01,-0.05 -0,-0.1 -0.01,-0.15 -0.02,0.02 -0.04,0.04 -0.06,0.06 -0.01,-0.02 -0.01,-0.04 -0.01,-0.06 -0,-0.05 0.01,-0.11 0.02,-0.16 -0.03,0.02 -0.06,0.04 -0.08,0.06 -0,-0.06 0.01,-0.12 0.03,-0.18 0.03,-0.09 0.07,-0.17 0.11,-0.25 -0.04,0 -0.07,0 -0.11,0 0.09,-0.12 0.23,-0.2 0.37,-0.24 -0.03,-0.02 -0.06,-0.04 -0.08,-0.06 0.08,-0.02 0.17,-0.04 0.25,-0.05z"/>
    <path class="fil6" d="M1.07 0.36c0.12,0.01 0.24,0.03 0.36,0.06 -0.03,0.02 -0.06,0.04 -0.08,0.06 0.1,0.03 0.2,0.08 0.28,0.14 0.03,0.03 0.06,0.06 0.09,0.09 -0.04,-0 -0.07,-0 -0.11,-0 0.05,0.09 0.1,0.18 0.12,0.28 0.01,0.05 0.02,0.1 0.02,0.15 -0.03,-0.02 -0.05,-0.04 -0.08,-0.06 0.01,0.06 0.02,0.11 0.02,0.17 -0,0.01 -0,0.03 -0.01,0.04 -0.02,-0.02 -0.04,-0.04 -0.06,-0.06 -0,0.05 0,0.09 -0,0.14 -0,0.02 -0,0.03 -0.01,0.05 -0.02,-0.03 -0.03,-0.06 -0.05,-0.09 -0.01,0.01 -0.01,0.02 -0.01,0.02 -0.02,0.05 -0.05,0.09 -0.09,0.12 0.01,-0.06 0,-0.12 -0.03,-0.18 -0,-0.01 -0,-0.01 -0,-0.02 0.03,0.02 0.05,0.04 0.08,0.06 0.02,-0.04 0.01,-0.09 0,-0.13 0.03,0.03 0.05,0.07 0.08,0.11 0,-0.05 0,-0.11 -0.02,-0.16 0.03,0.01 0.05,0.03 0.08,0.04 0,-0.07 -0.02,-0.13 -0.03,-0.19 0.03,0.02 0.05,0.04 0.08,0.06 -0.02,-0.08 -0.04,-0.17 -0.07,-0.25 -0.02,-0.05 -0.05,-0.1 -0.09,-0.14 0.03,-0 0.06,-0 0.09,-0 -0.03,-0.03 -0.06,-0.05 -0.09,-0.07 -0.08,-0.06 -0.18,-0.1 -0.28,-0.12 0.03,-0.02 0.06,-0.03 0.08,-0.05 -0.07,-0.03 -0.14,-0.04 -0.22,-0.06 -0.02,-0 -0.03,-0.01 -0.05,-0.01z"/>
    <path class="fil6" d="M1.45 0.94c0.03,-0.06 0.04,-0.12 0.05,-0.19 0,0.05 -0.01,0.11 -0.02,0.16 -0.02,0.06 -0.04,0.12 -0.07,0.17 -0.05,-0.03 -0.12,-0.05 -0.18,-0.04 -0.02,0.01 -0.03,0.02 -0.04,0.03 -0.01,0.01 -0.01,0.01 -0.02,0.02 0.02,-0.03 0.03,-0.05 0.06,-0.07 0.06,0 0.12,0.01 0.16,0.04 0.03,-0.03 0.05,-0.07 0.06,-0.11z"/>
    <path class="fil6" d="M0.42 0.78c0.01,0.06 0.02,0.11 0.04,0.16 0.02,0.04 0.04,0.08 0.07,0.11 0.05,-0.03 0.11,-0.03 0.16,-0.04 0.02,0.02 0.04,0.04 0.06,0.07l0 0c-0.01,-0.01 -0.03,-0.02 -0.04,-0.03 -0.01,-0.01 -0.02,-0.01 -0.03,-0.01 -0.06,-0 -0.12,0.01 -0.17,0.04 -0.02,-0.02 -0.03,-0.05 -0.04,-0.08 -0.03,-0.06 -0.04,-0.12 -0.05,-0.19 -0,-0.01 -0,-0.03 -0,-0.04z"/>
    <path class="fil6" d="M1.14 1.14c0,0.06 0.02,0.12 0.05,0.17 0.03,0.06 0.05,0.12 0.05,0.18 -0.01,0.01 -0.01,0.02 -0.01,0.03 -0.02,0.03 -0.06,0.06 -0.09,0.07 -0.01,0.02 -0.02,0.03 -0.04,0.04 -0.02,0.01 -0.04,0.01 -0.05,0.01 0.06,0.03 0.13,0.04 0.2,0.04 0.02,-0 0.03,-0 0.05,-0.01 0.02,0.01 0.04,0.01 0.05,0.02 -0,0.01 -0.01,0.01 -0.01,0.01 -0.03,0.01 -0.07,0.02 -0.1,0.02 -0.06,0 -0.13,-0.01 -0.19,-0.03 -0.03,-0.01 -0.06,-0.03 -0.07,-0.06 -0.01,0.03 -0.04,0.05 -0.07,0.06 -0.07,0.03 -0.14,0.03 -0.21,0.03 -0.03,-0 -0.07,-0.01 -0.09,-0.03 0.02,-0.01 0.04,-0.01 0.05,-0.02 0,0 0.01,0.01 0.02,0.01 0.08,0.02 0.16,0.01 0.23,-0.03 -0.03,-0 -0.05,-0.01 -0.07,-0.03 -0.01,-0.01 -0.02,-0.02 -0.02,-0.03 -0.03,-0 -0.05,-0.02 -0.07,-0.04 -0.01,-0.01 -0.02,-0.02 -0.03,-0.03 0,-0.01 -0,-0.02 -0.01,-0.03 -0,-0.07 0.02,-0.13 0.05,-0.19 0.02,-0.05 0.04,-0.11 0.04,-0.16 0,0 0,0 0,0.01 -0,0.01 -0,0.02 -0,0.03 -0,0.04 -0,0.07 -0.01,0.11 -0.01,0.03 -0.02,0.06 -0.03,0.09 -0.01,0.03 -0.02,0.06 -0.02,0.09 0,0.02 0.01,0.04 0.03,0.06 0.02,0.01 0.04,0.02 0.07,0.03 0,0.02 0.02,0.03 0.04,0.04 0.05,0.02 0.1,0.02 0.15,0.02 0.03,-0 0.06,-0.01 0.09,-0.03 0.01,-0.01 0.02,-0.02 0.02,-0.03 0.03,-0.01 0.07,-0.02 0.09,-0.05 0.02,-0.03 0.01,-0.07 -0,-0.1 -0.02,-0.06 -0.05,-0.12 -0.05,-0.18 -0,-0.02 -0,-0.05 -0,-0.07 -0,-0 -0,-0 -0,-0.01 0,-0 0,-0 0,-0.01z"/>
    <path class="fil6" d="M0.52 1.54c0,0 0.01,0 0.02,0 0.01,0.02 0.01,0.03 0.02,0.05 -0.01,0 -0.02,0 -0.02,0 -0.01,-0.02 -0.01,-0.04 -0.01,-0.05z"/>
    <path class="fil6" d="M1.39 1.54c0,0 0.01,0 0.01,0 -0,0.02 -0.01,0.04 -0.01,0.05 -0.01,-0 -0.02,-0 -0.02,-0 0.01,-0.02 0.02,-0.03 0.02,-0.05z"/>
    <path class="fil6" d="M0.55 1.62c0.01,-0 0.02,-0 0.03,-0 0.01,0.01 0.02,0.02 0.03,0.03 -0.01,0.01 -0.02,0.01 -0.03,0.01 -0.01,-0.01 -0.02,-0.03 -0.03,-0.04z"/>
    <path class="fil6" d="M1.34 1.61c0.01,0 0.02,0 0.03,0 -0.01,0.01 -0.02,0.03 -0.03,0.04 -0.01,-0 -0.02,-0.01 -0.03,-0.01 0.01,-0.01 0.02,-0.02 0.03,-0.03z"/>
    <path class="fil6" d="M0.84 1.73c0.04,-0 0.07,-0.01 0.1,-0.03 0,0.01 0,0.02 0,0.02 -0.03,0.01 -0.05,0.02 -0.08,0.02 0,0.01 0.01,0.03 0.01,0.04 -0.01,-0.02 -0.02,-0.04 -0.03,-0.06z"/>
    <path class="fil6" d="M0.98 1.7c0.03,0.01 0.07,0.03 0.1,0.03 -0.01,0.02 -0.02,0.04 -0.03,0.06 0,-0.01 0,-0.03 0.01,-0.04 -0.03,-0 -0.05,-0.01 -0.08,-0.02 0,-0.01 0,-0.02 0,-0.02z"/>
    <path class="fil6" d="M0.66 1.77c0.02,-0 0.04,0 0.06,-0 0,0.01 0,0.01 0.01,0.02 -0.01,0 -0.03,0 -0.04,0.01 0.02,0.06 0.04,0.11 0.06,0.17 0.02,0.04 0.04,0.07 0.06,0.1 0.04,0.04 0.1,0.06 0.15,0.06 0.05,0 0.11,-0.02 0.15,-0.06 0.03,-0.03 0.05,-0.06 0.06,-0.1 0.03,-0.05 0.05,-0.11 0.06,-0.17 -0.01,-0 -0.03,-0.01 -0.04,-0.01 0,-0.01 0,-0.01 0.01,-0.02 0.02,-0 0.04,-0 0.06,-0 -0.02,0.08 -0.05,0.15 -0.08,0.23 -0.01,0.02 -0.01,0.04 -0.03,0.06 -0.03,0.04 -0.08,0.07 -0.13,0.09 -0.04,0.01 -0.09,0.01 -0.13,0 -0.05,-0.01 -0.11,-0.04 -0.14,-0.09 -0.01,-0.02 -0.02,-0.04 -0.03,-0.06 -0.03,-0.07 -0.06,-0.15 -0.08,-0.23z"/>
    <path class="fil6" d="M0.89 1.89c-0,0.03 -0.01,0.06 -0.02,0.09 0,0 0,0.01 0.01,0.01 0.02,0.01 0.04,0.01 0.06,0.02 0,0.01 0,0.01 0,0.02 -0.02,0 -0.03,0 -0.05,-0 -0.02,-0 -0.03,-0.02 -0.05,-0.02 0.02,-0.03 0.03,-0.07 0.04,-0.1z"/>
    <path class="fil6" d="M1.04 1.93c-0,-0.01 -0.01,-0.03 -0.01,-0.04 0.02,0.03 0.03,0.07 0.04,0.1 -0.02,0.01 -0.03,0.02 -0.05,0.02 -0.02,0.01 -0.04,0.01 -0.05,0 -0,-0.01 -0,-0.01 -0,-0.02 0.02,-0 0.05,-0 0.07,-0.02 0,-0 0.01,-0.01 0.01,-0.01 -0,-0.01 -0.01,-0.03 -0.01,-0.04z"/>
   </g>
  </g>
 </g>
</svg>
