<?xml version="1.0" encoding="UTF-8"?>
<!DOCTYPE svg PUBLIC "-//W3C//DTD SVG 1.1//EN" "http://www.w3.org/Graphics/SVG/1.1/DTD/svg11.dtd">
<!-- Creator: CorelDRAW 2018 (64-Bit) -->
<svg xmlns="http://www.w3.org/2000/svg" xml:space="preserve" width="8.52381in" height="8.23831in" version="1.1" style="shape-rendering:geometricPrecision; text-rendering:geometricPrecision; image-rendering:optimizeQuality; fill-rule:evenodd; clip-rule:evenodd"
viewBox="0 0 5931.64 5732.97"
 xmlns:xlink="http://www.w3.org/1999/xlink">
 <defs>
  <style type="text/css">
   <![CDATA[
    .fil7 {fill:#016FBC}
    .fil8 {fill:#29ABDF}
    .fil1 {fill:#111111;fill-rule:nonzero}
    .fil4 {fill:gray;fill-rule:nonzero}
    .fil5 {fill:#B3B3B3;fill-rule:nonzero}
    .fil3 {fill:#CACCC8;fill-rule:nonzero}
    .fil0 {fill:#E7E7E7;fill-rule:nonzero}
    .fil2 {fill:#F8F8F8;fill-rule:nonzero}
    .fil6 {fill:#F9F9F9;fill-rule:nonzero}
   ]]>
  </style>
 </defs>
 <g id="Layer_x0020_1">
  <metadata id="CorelCorpID_0Corel-Layer"/>
  <g id="_790381760">
   <path class="fil0" d="M1369.46 0c428.94,378.16 907.87,719.1 1456.5,897.62 57.72,24.29 119.37,-6.47 178.98,2.99 102.03,21.76 206.43,7.25 309.57,10.88 66.7,2.21 133.57,1.1 199.49,-10.88 478.14,26.18 971.58,133.89 1368.98,414.28 216.84,158.8 425.95,331.64 597.83,539.33 239.55,280.39 379.74,636.47 422.64,1001.07 77.27,566.61 0,1167.28 -284.65,1669.08 -92.25,153.92 -210.06,296.79 -363.81,392.51 -230.72,145.87 -497.23,223.15 -763.89,271.4 7.57,-222.2 9.62,-449.76 -53.93,-665.02 -25.39,-78.38 -65.76,-166.21 -149.34,-195.54 -78.53,-26.02 -165.58,14.19 -212.1,79.01 -79.64,104.08 -97.45,238.12 -119.38,363.18 -4.42,7.88 -13.4,23.81 -17.82,31.85 -12.46,86.42 -4.26,174.1 -8.2,261.15 -2.99,42.1 6.78,83.1 23.02,121.74 20.5,183.72 42.26,368.7 88.63,548.32 -214.15,-275.81 -445.34,-538.22 -690.25,-787.07 -232.13,-232.29 -476.56,-455.91 -755.53,-631.27 -350.25,-214.47 -723.21,-404.5 -1127.39,-491.86 -227.72,-51.57 -462.05,-62.76 -694.66,-57.08 318.23,-169.84 671.17,-287.64 1034.35,-294.27l0.63 -14.03c-423.9,-77.28 -857.41,-110.87 -1287.45,-76.8 -175.99,18.13 -352.61,44.16 -521.67,98.09 182.46,-219.99 385.26,-422.47 598.94,-612.03 256.1,-224.56 533.18,-428.62 839.11,-580.49 193.02,-93.52 398.82,-165.27 612.82,-188.77 -241.28,-202.8 -430.52,-479.87 -485.09,-794.17 -0.63,-10.09 -1.89,-30.28 -2.52,-40.37 -26.97,-141.77 -2.68,-286.7 28.07,-425.63 -98.4,-233.87 -201.7,-471.99 -228.82,-726.83 -5.99,-36.9 2.68,-73.8 6.94,-110.39zm286.53 477.35l0 0c82.79,222.2 237.02,409.7 402.92,575.6 202.96,205.01 436.82,376.43 677.31,534.28 -102.98,-10.88 -202.64,-41.31 -300.26,-75.06 -247.9,-91.62 -478.3,-224.88 -694.19,-376.27 8.2,125.21 54.56,243.49 114.65,352.3 158.81,283.23 382.42,523.25 611.72,750.64 -297.42,33.75 -586.01,124.27 -857.88,247.9 -401.66,187.03 -772.09,443.92 -1084.65,758.05 300.41,-57.24 609.98,-60.71 913.23,-26.02 408.91,55.35 815.14,186.87 1155.93,423.42 -361.6,-61.35 -740.55,-67.81 -1094.27,39.43 351.98,52.51 681.89,195.54 1001.07,347.09 229.76,104.08 431.93,258.78 622.9,421.53 232.29,203.27 452.6,420.58 654.61,654.13 -22.39,-195.07 -13.88,-395.98 39.11,-585.69 38.32,-130.26 109.92,-262.88 235.13,-327.22 130.58,-69.86 306.72,-69.55 424.05,27.44 86.57,69.54 135.93,173.63 167.95,277.55 46.99,160.38 61.82,328.96 53.62,495.65 93.67,-19.08 186.56,-44.31 272.82,-85.79 210.69,-96.67 378.79,-270.46 491.7,-470.57 139.4,-246.96 217.47,-523.56 267.77,-801.11 58.19,-393.46 7.88,-796.22 -94.94,-1178 -45.89,-182.93 -149.97,-344.1 -265.25,-490.6 -246.96,-315.24 -577.33,-566.45 -951.4,-710.91 -260.2,-97.77 -536.02,-149.34 -812.46,-170.63 -24.13,-33.43 -67.18,-24.13 -102.5,-26.49 -85.32,1.42 -171.11,-4.73 -255.79,8.83l18.45 18.13c-122.06,11.51 -244.43,26.96 -362.87,60.09 -25.86,5.68 -53.61,20.97 -79,5.04 -229.77,-95.56 -445.81,-220.46 -660.13,-346.14 -172.05,-105.19 -343.94,-211.16 -509.36,-326.6zm2845.04 4696.1l0 0 11.35 -1.1c-1.58,-126.63 4.26,-253.58 -7.1,-379.89 -10.25,126.63 -1.42,254.06 -4.25,381z"/>
   <path class="fil1" d="M1655.99 477.35c165.43,115.44 337.32,221.41 509.36,326.6 214.32,125.68 430.36,250.58 660.13,346.14 25.39,15.93 53.15,0.64 79,-5.04 118.43,-33.12 240.81,-48.57 362.87,-60.09 113.07,-7.41 226.61,-8.36 339.84,-0.47 276.44,21.29 552.26,72.85 812.46,170.63 374.06,144.45 704.44,395.67 951.4,710.91 115.28,146.5 219.36,307.67 265.25,490.6 102.82,381.79 153.13,784.55 94.94,1178 -50.31,277.55 -128.37,554.15 -267.77,801.11 -112.91,200.12 -281.02,373.9 -491.7,470.57 -86.26,41.47 -179.15,66.7 -272.82,85.79 8.2,-166.69 -6.62,-335.27 -53.62,-495.65 -32.02,-103.92 -81.38,-208.01 -167.95,-277.55 -117.33,-96.99 -293.48,-97.3 -424.05,-27.44 -125.21,64.34 -196.81,196.96 -235.13,327.22 -52.99,189.71 -61.5,390.62 -39.11,585.69 -202.01,-233.55 -422.32,-450.86 -654.61,-654.13 -190.98,-162.75 -393.14,-317.45 -622.9,-421.53 -319.19,-151.55 -649.09,-294.58 -1001.07,-347.09 353.72,-107.24 732.67,-100.77 1094.27,-39.43 -340.78,-236.55 -747.02,-368.07 -1155.93,-423.42 -303.26,-34.69 -612.82,-31.22 -913.23,26.02 312.56,-314.13 682.99,-571.02 1084.65,-758.05 277.06,-125.41 555.02,-212.32 857.81,-247.93 -232.71,-231.95 -448.83,-462.33 -611.65,-750.62 -60.08,-108.81 -106.44,-227.09 -114.65,-352.3 215.89,151.39 446.29,284.65 694.19,376.27 97.62,33.75 197.28,64.18 300.26,75.06 -240.49,-157.85 -474.36,-329.27 -677.31,-534.28 -165.9,-165.9 -320.13,-353.4 -402.92,-575.6zm298.21 2168.67c-207.53,86.26 -403.23,203.59 -580.01,342.68 238.12,6.46 477.35,-6.31 713.9,25.7 359.24,34.06 718.47,118.91 1036.86,292.69 126.63,74.59 246.64,163.53 345.04,274.08 -16.4,-64.02 -52.67,-120.8 -94.3,-171.26 -29.3,-34.92 -143.89,-139.04 -149.5,-149.81 -165.27,-116.07 -349.14,-203.27 -544.53,-255.16 28.07,-1.1 56.3,-1.58 84.53,-1.89 98.48,14.49 185.69,35.35 262.25,65.92 138.34,38.56 332.47,134.04 425.63,196.81 69.55,63.87 152.34,111.33 223.46,173.94 125.05,112.12 242.38,234.34 337.47,373.43 3.31,5.68 9.78,17.03 13.09,22.71 7.25,-104.87 16.08,-214.78 70.65,-307.35 31.54,-56.14 96.99,-90.05 161.17,-82.48 125.37,12.62 234.81,83.74 331.96,159.43 10.09,-10.56 20.34,-20.97 30.75,-31.22 107.39,-114.17 181.51,-258.94 226.61,-407.96 45.42,-96.36 40.53,-211.16 21.45,-313.5l1.26 -3.31c-22.71,-112.6 -77.75,-214.79 -144.77,-306.88l21.61 -1.1c25.39,12.62 49.36,30.91 78.06,35.48 26.97,40.68 62.29,75.22 88.16,116.85 74.28,108.65 100.45,242.85 101.08,372.64 -55.83,85.47 -103.92,190.81 -74.28,294.42 18.14,68.91 81.37,108.81 135.93,147.13l8.52 -1.73c51.73,19.08 69.23,74.12 107.08,109.44 20.03,50 64.18,84.85 108.65,112.28 -67.18,-126.31 -82.32,-274.87 -64.34,-415.06 38.48,-136.05 111.24,-301.09 134.61,-433.78 5.34,-30.31 4.09,-23.55 9.72,-54.61 25.7,-141.65 3.48,-264.68 -51.32,-396.23 -19.76,-45.64 -30.08,-80.53 -54.38,-127.38 -49.06,-94.53 -118.87,-190.5 -178.65,-279.64 -48.92,-72.95 -134.52,-153.71 -203.67,-207.52 -127.42,-99.15 -270.37,-173.02 -417.67,-237.72 25.07,45.25 66.7,77.75 95.25,120.64 101.87,140.99 128.52,327.23 89.1,494.86 -18.45,-15.3 -33.91,-35.48 -56.3,-44.63 -71.13,-77.27 -158.17,-137.67 -244.75,-196.18 -222.38,-139.33 -462.49,-238.02 -716.88,-302.25 -37.57,-9.48 -71.99,-11.01 -112.64,-21.37 -109.16,-27.82 -197.63,-38.47 -310.01,-42.4l0 0c72.03,27.08 218.07,103.56 269.06,159.36 28.05,30.7 64.45,59.85 95.09,92.38 88.2,93.63 140.82,185.52 187.16,304.93 -12.46,-5.36 -24.12,-11.04 -36.74,-15.61 -34.13,-60.68 -116.42,-88.59 -180.46,-105.75 -198.45,-50.03 -323.58,-23.81 -516.58,-32.18 -218.97,-9.49 -511.78,-170.87 -701.27,-281.12 -31.69,-18.48 -63.08,-36.52 -95.41,-53.89 24.13,51.09 55.2,98.4 92.1,141.14 295.5,305.15 706.94,462.32 1105.37,583.18 65.25,19.79 69.18,17.02 -1.7,19.07 -106.43,3.08 -217.25,-3.64 -325.22,-3.11 -121.22,0.59 -208.95,-5.85 -331.55,12.68 -95.75,14.47 -204.82,36.93 -299.91,57.62 -22.53,4.9 -44.02,10.39 -66.23,16.53 -155.33,44.06 -314.83,94.18 -459.55,166.07zm2310.76 864.5l0 0c-11.36,54.73 -28.39,110.87 -15.93,167 20.35,129.95 112.44,237.18 217.15,310.98 103.92,75.06 250.9,67.34 339.84,166.84 122.69,117.8 142.24,296.47 137.04,457.64 -22.39,57.24 -25.7,119.85 -42.1,178.99 165.11,-139.4 309.72,-313.5 381,-520.09 49.05,-137.35 46.05,-293.48 -14.51,-426.73 -7.1,112.92 -20.03,235.44 -101.87,321.7 15.3,-117.33 27.28,-242.22 -19.4,-354.35 -25.39,-62.76 -90.84,-104.55 -158.64,-99.82 -124.11,2.68 -248.22,2.37 -372.49,3.94 -75.7,-5.2 -155.33,-8.04 -223.78,-44.47 -62.29,-34.38 -99.66,-97.93 -126.31,-161.64z"/>
   <path class="fil2" d="M3004.94 900.61c169.37,-14.51 339.52,-12.46 509.05,0 -65.92,11.98 -132.78,13.09 -199.49,10.88 -103.13,-3.62 -207.53,10.88 -309.56,-10.88z"/>
   <path class="fil2" d="M3248.91 1066.83c84.68,-13.56 170.47,-7.41 255.79,-8.84 35.32,2.37 78.38,-6.94 102.5,26.5 -113.22,-7.88 -226.77,-6.94 -339.84,0.47l-18.45 -18.13z"/>
   <path class="fil3" d="M4941.8 3360.87c-29.65,-103.61 18.45,-208.95 74.28,-294.42 4.73,46.36 11.35,92.41 20.02,138.3 8.2,59.45 21.45,118.27 39.43,175.67 8.67,31.22 18.92,62.13 32.33,91.78l35.85 81.01c-23.68,-12.22 -36.53,-26.96 -65.98,-45.21 -54.56,-38.32 -117.8,-78.22 -135.93,-147.13z"/>
   <path class="fil4" d="M4264.96 3510.52c26.65,63.71 64.03,127.26 126.32,161.64 68.44,36.43 148.08,39.27 223.77,44.47 163.85,122.53 339.06,260.67 403.08,463.63 50.62,146.5 -2.84,303.57 -75.06,432.72 5.2,-161.17 -14.35,-339.84 -137.04,-457.64 -88.94,-99.51 -235.92,-91.78 -339.84,-166.85 -104.71,-73.8 -196.81,-181.04 -217.15,-310.98 -12.46,-56.14 4.57,-112.28 15.93,-167z"/>
   <path class="fil5" d="M4615.04 3716.63c124.27,-1.58 248.38,-1.26 372.49,-3.94 67.81,-4.73 133.25,37.06 158.64,99.82 46.68,112.13 34.69,237.02 19.4,354.35 81.84,-86.26 94.78,-208.79 101.87,-321.7 60.55,133.25 63.55,289.37 14.51,426.73 -71.28,206.58 -215.89,380.69 -381,520.09 16.4,-59.14 19.71,-121.74 42.1,-178.99 72.22,-129.15 125.69,-286.22 75.06,-432.72 -64.02,-202.96 -239.23,-341.1 -403.08,-463.63z"/>
   <path class="fil6" d="M3938.52 4801.76c4.42,-8.04 13.4,-23.97 17.82,-31.85 -10.88,137.99 -10.56,276.6 -2.99,414.75 -16.25,-38.64 -26.02,-79.64 -23.03,-121.74 3.94,-87.05 -4.25,-174.73 8.2,-261.15z"/>
   <path class="fil6" d="M4501.03 5173.45c2.84,-126.94 -5.99,-254.37 4.26,-381 11.35,126.32 5.52,253.26 7.1,379.89l-11.36 1.1z"/>
   <path class="fil7" d="M2958.47 2862.1c-232.22,-91.8 -446.6,-142.16 -689.47,-193.59 -75.95,-16.08 -264.26,-42.28 -334.96,-13.99 -200.05,85.4 -388.8,199.61 -559.85,334.18 238.12,6.46 477.35,-6.31 713.9,25.7 359.24,34.06 718.47,118.91 1036.86,292.69 126.63,74.59 246.64,163.53 345.04,274.08 -16.4,-64.02 -52.67,-120.8 -94.3,-171.26 -29.3,-34.92 -143.89,-139.04 -149.5,-149.81 -165.27,-116.07 -349.14,-203.27 -544.53,-255.16 28.07,-1.1 56.3,-1.58 84.53,-1.89 98.48,14.49 185.69,35.35 262.25,65.92 138.34,38.56 332.47,134.04 425.63,196.81 69.55,63.87 152.34,111.33 223.46,173.94 125.05,112.12 242.38,234.34 337.47,373.43 -28.07,-58.35 -47.46,-120.64 -78.06,-177.88l-5.28 -9.5c-107.29,-193.17 -263.53,-351.58 -441.4,-480.94 -174.09,-126.6 -332.99,-203.61 -531.8,-282.71z"/>
   <path class="fil7" d="M4914.99 2693.81c74.28,108.65 100.45,242.85 101.08,372.64 4.73,46.36 11.36,92.41 20.03,138.3 8.2,59.45 21.45,118.27 39.43,175.67 8.67,31.22 18.92,62.13 32.33,91.78l35.85 81.01c16.1,21 30.17,44.35 49.61,62.49 -15.93,-46.83 -32.01,-93.67 -44.79,-141.45 -32.01,-184.19 -38.32,-371.86 -66.39,-556.52 -18.92,-120.79 -68.6,-245.22 -170.94,-318.55 -23.97,-19.08 -55.98,-17.03 -84.37,-22.24 26.97,40.68 62.29,75.22 88.16,116.85z"/>
   <path class="fil8" d="M4871.93 2849.46c-22.71,-112.6 -77.75,-214.79 -144.77,-306.88l21.61 -1.1c25.39,12.62 49.36,30.91 78.06,35.48 28.39,5.21 60.4,3.15 84.37,22.24 102.34,73.33 152.02,197.75 170.94,318.55 28.07,184.66 34.38,372.33 66.39,556.52 12.78,47.78 28.86,94.62 44.79,141.45 20.03,50 64.18,84.85 108.65,112.28 -67.18,-126.31 -82.32,-274.87 -64.34,-415.06 38.48,-136.05 111.24,-301.09 134.61,-433.78 5.34,-30.31 4.09,-23.55 9.72,-54.61 25.7,-141.65 3.48,-264.68 -51.32,-396.23 -19.76,-45.64 -30.08,-80.53 -54.38,-127.38 -49.06,-94.53 -118.87,-190.5 -178.65,-279.64 -48.92,-72.95 -134.52,-153.71 -203.67,-207.52 -127.42,-99.15 -270.37,-173.02 -417.67,-237.72 25.07,45.25 66.7,77.75 95.25,120.64 101.87,140.99 128.52,327.23 89.1,494.86 -18.45,-15.3 -33.91,-35.48 -56.3,-44.63 -71.13,-77.27 -158.17,-137.67 -244.75,-196.18 -222.38,-139.33 -462.49,-238.02 -716.88,-302.25 -37.57,-9.48 -71.99,-11.01 -112.64,-21.37 -109.16,-27.82 -197.63,-38.47 -310.01,-42.4 72.03,27.08 218.07,103.56 269.06,159.36 28.05,30.7 64.45,59.85 95.09,92.38 88.2,93.63 140.82,185.52 187.16,304.93 -12.46,-5.36 -24.12,-11.04 -36.74,-15.61 -34.13,-60.68 -116.42,-88.59 -180.46,-105.75 -198.45,-50.03 -323.58,-23.81 -516.58,-32.18 -218.97,-9.49 -511.78,-170.87 -701.27,-281.12 -31.69,-18.48 -63.08,-36.52 -95.41,-53.89 24.13,51.09 55.2,98.4 92.1,141.14 295.5,305.15 706.94,462.32 1105.37,583.18 65.25,19.79 69.18,17.02 -1.7,19.07 -106.43,3.08 -217.25,-3.64 -325.22,-3.11 -121.22,0.59 -208.95,-5.85 -331.55,12.68 -95.75,14.47 -204.82,36.93 -299.91,57.62 -22.53,4.9 -44.02,10.39 -66.23,16.53 -155.33,44.06 -314.83,94.18 -459.55,166.07 -6.74,2.8 -13.45,5.63 -20.16,8.5 70.7,-28.29 259.02,-2.09 334.96,13.99 242.87,51.43 457.25,101.79 689.47,193.59 198.81,79.1 357.7,156.11 531.8,282.71 177.87,129.36 334.1,287.77 441.4,480.94l5.28 9.5c30.59,57.24 49.99,119.54 78.06,177.88 3.31,5.68 9.78,17.03 13.09,22.71 7.25,-104.87 16.08,-214.78 70.65,-307.35 31.54,-56.14 96.99,-90.05 161.17,-82.48 125.37,12.62 234.81,83.74 331.96,159.43 10.09,-10.56 20.34,-20.97 30.75,-31.22 107.39,-114.17 181.51,-258.94 226.61,-407.96 45.42,-96.36 40.53,-211.16 21.45,-313.5l1.26 -3.31z"/>
  </g>
 </g>
</svg>
