<?xml version="1.0" encoding="UTF-8"?>
<!DOCTYPE svg PUBLIC "-//W3C//DTD SVG 1.1//EN" "http://www.w3.org/Graphics/SVG/1.1/DTD/svg11.dtd">
<!-- Creator: CorelDRAW 2018 (64-Bit) -->
<svg xmlns="http://www.w3.org/2000/svg" xml:space="preserve" width="0.402843in" height="0.470161in" version="1.1" style="shape-rendering:geometricPrecision; text-rendering:geometricPrecision; image-rendering:optimizeQuality; fill-rule:evenodd; clip-rule:evenodd"
viewBox="0 0 3.08 3.59"
 xmlns:xlink="http://www.w3.org/1999/xlink">
 <defs>
  <style type="text/css">
   <![CDATA[
    .str0 {stroke:white;stroke-width:0.05;stroke-miterlimit:2.61313}
    .fil5 {fill:none}
    .fil1 {fill:#FEFEFE;fill-rule:nonzero}
    .fil2 {fill:#898989;fill-rule:nonzero}
    .fil3 {fill:#BC6A56;fill-rule:nonzero}
    .fil4 {fill:#984C37;fill-rule:nonzero}
    .fil0 {fill:#222223;fill-rule:nonzero}
   ]]>
  </style>
 </defs>
 <g id="Layer_x0020_1">
  <metadata id="CorelCorpID_0Corel-Layer"/>
  <g id="_1011781552">
   <g>
    <path class="fil0" d="M2.51 2.03c0,-0.02 0.01,-0.03 0.01,-0.05 0.02,-0 0.03,-0 0.05,0 0.03,0.01 0.06,0.01 0.09,0.03 -0.05,0.01 -0.1,0.02 -0.15,0.01zm-0.05 -0.41c-0,-0 -0.01,-0.01 -0.01,-0.01 -0.01,-0.01 -0.02,-0.02 -0.04,-0.03 0.01,0.05 0.03,0.11 0.03,0.16 0.01,0.07 -0.01,0.15 -0.03,0.22 -0.01,0.03 -0.03,0.06 -0.05,0.08 -0,-0.02 -0,-0.05 -0.01,-0.07 -0,-0.04 -0.01,-0.07 -0.02,-0.1 -0.01,-0.07 -0.04,-0.13 -0.07,-0.19 -0.03,-0.06 -0.07,-0.11 -0.11,-0.16 0.05,-0.02 0.1,-0.06 0.11,-0.11 -0.03,0.01 -0.06,0.03 -0.09,0.03 -0.02,0 -0.05,0 -0.07,-0 0.03,-0.01 0.05,-0.02 0.08,-0.04 0.02,-0.01 0.04,-0.03 0.05,-0.04 0.03,-0.03 0.05,-0.06 0.07,-0.1 0.01,-0.02 0.02,-0.05 0.01,-0.08 -0.01,-0.02 -0.04,-0.03 -0.06,-0.05 0.03,-0.02 0.06,-0 0.09,0 -0.02,-0.06 -0.08,-0.09 -0.13,-0.1 -0.04,-0.01 -0.09,0.01 -0.13,0.02 -0.1,0.04 -0.18,0.1 -0.27,0.15 -0.03,0.01 -0.07,0.03 -0.11,0.02 -0.03,-0.01 -0.05,-0.04 -0.08,-0.07 -0,0.05 0.01,0.09 0.02,0.13 -0.02,0 -0.05,0.01 -0.07,0.01 -0.05,-0 -0.1,0 -0.14,-0 0.01,-0.05 0.03,-0.09 0.01,-0.14 -0,0 -0.01,0.01 -0.01,0.01 -0.02,0.03 -0.05,0.06 -0.09,0.06 -0.06,-0.01 -0.1,-0.03 -0.15,-0.06 -0.07,-0.04 -0.13,-0.08 -0.2,-0.11 -0.05,-0.02 -0.11,-0.03 -0.16,-0.02 -0.05,0.02 -0.09,0.05 -0.11,0.1 0.03,-0.01 0.07,-0.02 0.1,-0.01 -0.02,0.02 -0.04,0.03 -0.05,0.05 -0.01,0.01 -0.01,0.04 -0,0.05 0.02,0.05 0.05,0.1 0.09,0.14 0.03,0.03 0.06,0.04 0.09,0.07 -0.02,0 -0.04,0 -0.06,-0.01 -0.02,-0.01 -0.05,-0.02 -0.07,-0.03 0,0.03 0.02,0.06 0.05,0.09 0.02,0.02 0.04,0.03 0.07,0.04 -0.01,0.02 -0.03,0.04 -0.05,0.06 -0.07,0.1 -0.12,0.22 -0.13,0.34 -0.01,0.03 -0,0.07 -0.01,0.1 -0.02,-0 -0.03,-0.02 -0.04,-0.03 -0,-0.01 -0.01,-0.01 -0.01,-0.02 -0.02,-0.05 -0.03,-0.09 -0.04,-0.14 -0.01,-0.05 -0,-0.1 0.01,-0.14 0.01,-0.04 0.02,-0.07 0.02,-0.11 -0.04,0.03 -0.06,0.07 -0.09,0.1 -0.04,-0.04 -0.05,-0.09 -0.06,-0.14 -0.03,-0.14 0,-0.28 0.06,-0.41 0.03,-0.06 0.06,-0.13 0.1,-0.18 0.05,-0.05 0.08,-0.11 0.12,-0.18 0.01,-0.03 0.02,-0.06 0.05,-0.08 0.07,-0.04 0.13,-0.11 0.16,-0.18 0.01,-0.03 -0.01,-0.06 -0.03,-0.09 -0.03,-0.04 -0.07,-0.07 -0.12,-0.06 -0.05,0.02 -0.1,0.06 -0.11,0.12 0.02,-0 0.04,-0.01 0.06,-0.01 -0.03,0.09 -0.07,0.18 -0.12,0.27 -0.03,0.04 -0.05,0.08 -0.09,0.12 -0.02,0.02 -0.04,0.04 -0.07,0.04 -0.03,-0.02 -0.04,-0.06 -0.05,-0.09 -0.03,-0.1 -0.04,-0.2 -0.04,-0.3 0,-0.03 0.01,-0.05 0.01,-0.08 -0,0 -0,0 -0,0 0,-0 0,-0 0,-0 0,-0 0,-0 0,-0 0,-0 0,-0.01 0,-0.01 0,-0 0,-0 0,-0 0,-0 0,-0.01 0,-0.01 0,-0 0,-0 0,-0 0,-0 0,-0.01 0,-0.01 0,-0 0,-0 0,-0 0,-0 0,-0.01 0.01,-0.01 0,-0 0,-0 0,-0 0,-0 0,-0.01 0.01,-0.01 0,-0 0,-0 0,-0 0,-0 0,-0.01 0.01,-0.01 0,-0 0,-0 0,-0 0,-0 0,-0.01 0.01,-0.01 0,-0 0,-0 0,-0 0,-0 0.01,-0.01 0.01,-0.01 0,-0 0,-0 0,-0 0,-0 0.01,-0 0.01,-0.01 0.04,-0.03 0.09,-0.03 0.13,-0.02 -0,0.02 -0,0.04 -0,0.05l0 0c-0,0.02 -0,0.04 -0,0.05 0,0.01 0,0.03 0.01,0.04 0.02,-0.03 0.02,-0.06 0.04,-0.09 0,-0.01 0.01,-0.01 0.01,-0.02 0,0 0,0 -0,0 0,-0 0,-0 0,-0 0,-0 0,-0.01 0.01,-0.01 0,-0 0,-0 0,-0 0,-0 0,-0.01 0.01,-0.01 0,-0 0,-0 0,-0 0,-0 0,-0.01 0.01,-0.01 0,-0 0,-0 0,-0 0,-0 0,-0.01 0.01,-0.01 0,-0 0,-0 0,-0 0,-0 0.01,-0.01 0.01,-0.01 0,-0 0,-0 0,-0 0,-0 0.01,-0.01 0.01,-0.01 0,-0 0,-0 0,-0 0,-0 0.01,-0.01 0.01,-0.01 0,-0 0,-0 0,-0 0,-0 0.01,-0.01 0.01,-0.01 0.04,-0.03 0.1,-0.04 0.15,-0.03 0,0 0.01,0 0.01,0 0,0 0,0 0,0 0,0 0,0 0.01,0 0,0 0,0 0,0 0,0 0,0 0.01,0 0,0 0,0 0,0 0,0 0,0 0.01,0 0,0 0,0 0,0 0,0 0,0 0.01,0 0,0 0,0 0,0 0,0 0.01,0 0.01,0 0,0 0,0 0,0 0,0 0,0 0.01,0 0,0 0,0 0,0 0,0 0,0 0,0 0,0 0,0 0,0 0,0 0,0 0,0 0,0 0,0 0,0 0,0 0,0 0.01,0 0,0 0,0 0,0 0,0 0,0 0.01,0.01 0,0 0,0 0,0 0,0 0,0 0.01,0.01 0,0 0,0 0,0 0,0 0,0 0,0 0,0 0,0 0,0 0,0 0,0 0,0 -0,-0 -0,-0 -0,-0 0.01,0.01 0.01,0.01 0.02,0.02 0.01,0.01 0.02,0.03 0.03,0.02 0.02,-0.01 0.04,-0.03 0.06,-0.04 0.07,-0.04 0.16,-0.07 0.24,-0.08 0.06,-0.01 0.12,-0.01 0.18,-0.01 0.08,0 0.15,0.02 0.22,0.04 0.06,0.02 0.11,0.04 0.16,0.08 0,0 0,0 0.01,0 0,0 0,0 0,0 0,0 0,0 0,0 0,0 0,0 0.01,0 0,0 0,0 0,0 0,0 0,0 0,0 0,0 0.01,0 0.01,0.01 0.02,-0.01 0.03,-0.02 0.04,-0.04 0.01,-0.01 0.01,-0.01 0.02,-0.02 0,0 0,0 -0,0 0,-0 0,-0 0,-0 0,-0 0,-0 0,-0 0,-0 0.01,-0 0.01,-0.01 0,-0 0,-0 0,-0 0,-0 0,-0 0.01,-0.01 0,-0 0,-0 0,-0 0,-0 0.01,-0.01 0.01,-0.01 0,-0 0,-0 0,-0 0,-0 0.01,-0 0.01,-0.01 0,-0 0,-0 0,-0 0,-0 0.01,-0 0.01,-0 0,-0 0,-0 0,-0 0,-0 0.01,-0 0.01,-0.01 0.05,-0.03 0.12,-0.02 0.17,0.01 0,0 0.01,0 0.01,0.01 0,0 0,0 0,0 0,0 0.01,0.01 0.01,0.01 0,0 0,0 0,0 0,0 0.01,0.01 0.01,0.01 0,0 0,0 0,0 0,0 0.01,0.01 0.01,0.01 0,0 0,0 0,0 0,0 0.01,0.01 0.01,0.01 0,0 0,0 0,0 0,0 0.01,0.01 0.01,0.01 0,0 0,0 0,0 0,0 0,0.01 0.01,0.01 0,0 0,0 0,0 0,0 0,0.01 0.01,0.01 0,0 0,0 0,0 -0,0 -0,0 -0,0 0,0.01 0.01,0.01 0.01,0.02 0.02,0.03 0.03,0.07 0.05,0.11 0.02,-0.03 0.01,-0.07 0.01,-0.11 0,0 0,0 0,0 -0,-0 -0,-0 -0,-0 -0,-0.01 -0,-0.01 -0,-0.02 -0,-0 -0,-0 -0,-0 -0,-0.01 -0,-0.01 -0,-0.02 0.05,-0.02 0.11,-0.01 0.15,0.03 0,0 0.01,0.01 0.01,0.01 0,0 0,0 0,0 0,0 0,0 0.01,0.01 0,0 0,0 0,0 0,0 0,0 0,0.01 0,0 0,0 0,0 0,0 0,0 0,0.01 0,0 0,0 0,0 0,0 0,0 0,0.01 0,0 0,0 0,0 0,0 0,0.01 0,0.01 0,0 0,0 0,0 0,0 0,0.01 0,0.01 -0,-0 -0,-0 -0,-0 0.01,0.04 0.02,0.08 0.02,0.12 0,0.1 -0.02,0.21 -0.05,0.3 -0.01,0.02 -0.02,0.04 -0.03,0.06 -0.02,0 -0.03,-0.01 -0.04,-0.02 -0.03,-0.02 -0.05,-0.06 -0.08,-0.09 -0.05,-0.07 -0.1,-0.15 -0.13,-0.24 -0.01,-0.03 -0.02,-0.05 -0.03,-0.08 0.02,-0.01 0.04,0 0.06,0 -0.01,-0.06 -0.07,-0.12 -0.13,-0.12 -0.04,0.01 -0.08,0.03 -0.1,0.07 -0.02,0.02 -0.04,0.06 -0.03,0.09 0.03,0.07 0.08,0.13 0.14,0.17 0.01,0.01 0.03,0.02 0.04,0.03 0.01,0.02 0.02,0.05 0.04,0.07 0.02,0.03 0.04,0.07 0.06,0.1 0.03,0.05 0.07,0.08 0.1,0.13 0.03,0.05 0.05,0.1 0.07,0.15 0.02,0.05 0.03,0.1 0.04,0.16 0.02,0.1 0.01,0.21 -0.02,0.3 -0.01,0.02 -0.02,0.04 -0.04,0.06 -0.01,-0.02 -0.03,-0.04 -0.05,-0.06zm-0.02 0.64c-0.01,0.02 -0.03,0.04 -0.04,0.06 -0.04,-0.01 -0.07,-0.02 -0.11,-0.01 0.01,-0.02 0.01,-0.04 0.02,-0.05 0.02,-0.02 0.04,-0.03 0.06,-0.05 0.01,-0.01 0.03,-0.03 0.04,-0.04 0.02,-0.01 0.04,-0.01 0.07,-0.01 -0.01,0.04 -0.03,0.07 -0.05,0.1zm-0.01 0.4c-0.05,-0.04 -0.1,-0.08 -0.15,-0.11 -0.02,-0.02 -0.04,-0.03 -0.06,-0.05 0,-0.01 0,-0.02 0.01,-0.02 0,0 0.01,0.01 0.01,0.01 0.02,0.02 0.05,0.04 0.08,0.04 -0.01,-0.02 -0.02,-0.04 -0.04,-0.05 -0.01,-0.01 -0.02,-0.02 -0.03,-0.04 0.02,-0.02 0.05,-0.03 0.08,-0.02 0.02,0.02 0.03,0.05 0.04,0.08 0.03,0.06 0.05,0.11 0.08,0.17 -0.01,-0 -0.02,-0 -0.02,-0.01zm-0.57 -1.34c0.03,-0.02 0.07,-0.04 0.1,-0.06 0.04,-0.02 0.07,-0.04 0.11,-0.06 0.04,-0 0.08,-0.01 0.12,0.01 -0,0.02 -0.01,0.04 -0.03,0.05 -0.02,0.02 -0.04,0.05 -0.07,0.06 -0.06,0.03 -0.13,0.03 -0.19,0.01 -0.01,-0 -0.03,-0.01 -0.04,-0.02zm-0.92 -0.07c-0.01,-0.01 -0.02,-0.03 -0.02,-0.04 0.03,-0.01 0.07,-0.01 0.1,-0.01 0.01,0 0.02,-0 0.03,0 0.04,0.02 0.08,0.05 0.12,0.07 0.03,0.02 0.05,0.03 0.08,0.05 -0.02,0.01 -0.04,0.02 -0.06,0.02 -0.04,0 -0.08,0 -0.12,-0 -0.06,-0.01 -0.1,-0.05 -0.13,-0.09zm1.24 0.94c-0.02,0.03 -0.04,0.06 -0.08,0.08 -0.03,0.01 -0.07,-0 -0.1,-0.01 -0.09,-0.02 -0.17,-0.06 -0.24,-0.11 -0.06,-0.04 -0.11,-0.09 -0.14,-0.15 -0.01,-0.01 -0.01,-0.03 -0.01,-0.04 0.01,-0.01 0.03,-0.02 0.04,-0.03 0.01,-0.02 0.02,-0.04 0.03,-0.06 0.02,-0.03 0.04,-0.06 0.07,-0.08 0.02,-0 0.02,0.02 0.03,0.04 0,0 0.01,0 0.01,0 0.02,-0.02 0.04,-0.05 0.05,-0.08 0,-0.04 -0.01,-0.08 -0.02,-0.12 -0.02,-0.03 -0.05,-0.04 -0.09,-0.06 -0.09,-0.03 -0.18,-0.03 -0.26,-0.02 -0.05,0.01 -0.1,0.02 -0.14,0.04 -0.02,0.01 -0.03,0.03 -0.04,0.05 -0.01,0.03 -0.02,0.06 -0.01,0.09 0.02,0.03 0.03,0.06 0.06,0.08 0.01,-0.01 0.01,-0.03 0.03,-0.04 0.01,0 0.02,0.01 0.02,0.01 0.03,0.02 0.05,0.05 0.06,0.08 0.01,0.02 0.01,0.03 0.02,0.05 0.01,0.01 0.03,0.02 0.04,0.03 0,0.02 -0.01,0.03 -0.01,0.05 -0.03,0.06 -0.08,0.1 -0.13,0.14 -0.09,0.06 -0.2,0.11 -0.31,0.13 -0.03,0.01 -0.06,-0.01 -0.08,-0.03 -0.03,-0.03 -0.05,-0.08 -0.06,-0.12 -0.01,-0.05 -0.01,-0.09 -0.01,-0.14 0,-0.03 0.01,-0.07 0.02,-0.1 0.01,-0.05 0.03,-0.1 0.05,-0.14 0.04,-0.09 0.11,-0.16 0.19,-0.22 0.03,-0.02 0.06,-0.04 0.1,-0.05 -0.03,0.04 -0.07,0.07 -0.09,0.12 -0.01,0.01 -0,0.02 -0,0.03 0.02,-0.01 0.04,-0.03 0.06,-0.05 0.1,-0.07 0.22,-0.1 0.33,-0.1 0.09,0 0.19,0.02 0.27,0.07 0.04,0.02 0.08,0.05 0.11,0.07 -0,-0.01 0,-0.02 -0,-0.02 -0.02,-0.05 -0.06,-0.08 -0.09,-0.12 0.02,0.01 0.05,0.01 0.07,0.03 0.08,0.05 0.15,0.12 0.2,0.2 0.03,0.06 0.06,0.11 0.07,0.18 0.02,0.04 0.02,0.08 0.02,0.13 0,0.06 -0.01,0.13 -0.03,0.19zm-0.76 -0.53c0,-0.01 0.01,-0.02 0.01,-0.02 0.01,-0.01 0.03,-0.02 0.05,-0.02l0 -0c0.02,-0.01 0.05,-0.01 0.07,-0.01 0.02,0 0.05,0 0.07,0.01 0.02,0.01 0.04,0.02 0.05,0.03 0,0.01 0.01,0.02 0.01,0.02 -0.02,0 -0.04,0 -0.05,-0 -0.04,-0 -0.08,-0 -0.11,-0 -0.03,-0 -0.07,0.01 -0.1,0.01zm0.21 0.56c0.09,0.04 0.17,0.11 0.26,0.16 0.01,0.01 0.04,0.01 0.04,0.03 -0.03,0.01 -0.06,0.01 -0.09,0 -0.04,-0 -0.08,-0.02 -0.11,-0.03 -0,0 -0,0.01 -0.01,0.01 0.01,0.02 0.01,0.03 0.02,0.05 -0.07,-0.01 -0.13,-0.03 -0.2,-0.03 -0.06,0 -0.12,0.02 -0.17,0.03 0.01,-0.02 0.01,-0.04 0.02,-0.06 -0.04,0.01 -0.07,0.03 -0.11,0.04 -0.03,0 -0.07,0.01 -0.1,-0.01 0.03,-0.02 0.07,-0.03 0.1,-0.05 0.08,-0.05 0.15,-0.12 0.24,-0.14 0.04,-0.01 0.07,-0 0.11,0.01zm0.47 0.31c0,0.01 0,0.02 0,0.03 -0.01,0.01 -0.03,0.02 -0.04,0.03 -0.06,0.03 -0.12,0.05 -0.18,0.07 -0.02,0.01 -0.04,0 -0.05,-0.01 -0.08,-0.06 -0.18,-0.09 -0.27,-0.09 -0.09,0 -0.18,0.03 -0.26,0.09 -0.01,0.01 -0.03,0.02 -0.04,0.02 -0.06,-0.02 -0.11,-0.04 -0.17,-0.07 -0.02,-0.01 -0.04,-0.02 -0.06,-0.04 -0.01,-0.01 -0,-0.02 -0,-0.03 0,-0.02 -0,-0.04 -0,-0.07 0.03,0.01 0.06,0.02 0.09,0.04 0.05,0.03 0.11,0.06 0.18,0.05 0.07,-0 0.15,-0.03 0.22,-0.03 0.04,-0 0.07,-0 0.11,-0 0.09,0.01 0.18,0.04 0.27,0.03 0.05,-0 0.1,-0.02 0.14,-0.05 0.03,-0.02 0.06,-0.03 0.09,-0.03 -0,0.02 -0.01,0.04 -0,0.06zm-0.39 0.23c-0.02,0.06 -0.04,0.12 -0.06,0.17 -0.01,0.04 -0.03,0.07 -0.04,0.11 -0.02,0.05 -0.03,0.09 -0.05,0.13l-0.02 -0.05c-0.04,-0.08 -0.11,-0.3 -0.12,-0.33 -0.01,-0.02 -0.02,-0.04 -0.02,-0.06 0.03,-0.02 0.07,-0.04 0.1,-0.04 0.01,0.06 0.03,0.13 0.04,0.19 0,0.01 0,0.02 0.01,0.03 0,-0 0.01,-0 0.01,0 0,-0.02 0.01,-0.04 0.01,-0.06 0.01,-0.05 0.02,-0.11 0.04,-0.16 0.04,-0.01 0.07,0.02 0.1,0.03 -0,0.01 0,0.02 -0,0.03zm-1.08 -0.59c0.02,0 0.04,-0 0.06,0.01 0.02,0.01 0.03,0.03 0.05,0.04 0.02,0.01 0.04,0.03 0.05,0.04 0.01,0.01 0.01,0.03 0.02,0.05 -0.03,0 -0.06,0.01 -0.1,0.01 -0.02,-0.01 -0.03,-0.03 -0.04,-0.05 -0.02,-0.03 -0.04,-0.06 -0.04,-0.1zm0.25 0.34l-0.23 0.16c0.03,-0.06 0.06,-0.12 0.09,-0.18 0.01,-0.02 0.02,-0.05 0.03,-0.07 0.03,-0.01 0.06,0 0.08,0.02 -0.02,0.03 -0.05,0.05 -0.06,0.08 0.03,-0.01 0.06,-0.03 0.09,-0.05 0,0.01 0.01,0.02 -0,0.03zm-0.31 -0.47c-0.04,-0.01 -0.09,-0.01 -0.13,-0.02 0.03,-0.01 0.06,-0.02 0.09,-0.03 0.01,-0 0.03,-0 0.05,-0 0,0.01 0.01,0.03 0.01,0.04 -0,0.01 -0.02,0.01 -0.03,0.01zm2.39 -0.02c-0.03,-0.01 -0.07,-0.03 -0.1,-0.04 -0.04,-0.02 -0.07,-0.04 -0.11,-0.06 -0.03,-0.02 -0.07,-0.04 -0.1,-0.06 -0,-0.03 -0.02,-0.06 -0.01,-0.09 0.03,-0.06 0.07,-0.12 0.08,-0.19 0.01,-0.04 0.01,-0.08 0.02,-0.11 -0,-0.12 -0.03,-0.24 -0.08,-0.35 -0.01,-0.03 -0.03,-0.05 -0.04,-0.08 0.05,-0.04 0.08,-0.09 0.1,-0.15 0.02,-0.07 0.03,-0.15 0.05,-0.22 0.01,-0.05 0,-0.1 0,-0.15 -0.01,-0.09 -0.03,-0.17 -0.07,-0.25 -0.03,-0.05 -0.08,-0.09 -0.13,-0.11 -0.06,-0.02 -0.12,-0.01 -0.18,-0 -0.02,-0.02 -0.03,-0.04 -0.05,-0.06 -0.03,-0.03 -0.07,-0.06 -0.12,-0.07 -0.04,-0.01 -0.08,0 -0.11,0.01 -0.06,0.02 -0.1,0.07 -0.15,0.11 -0.09,-0.05 -0.19,-0.1 -0.3,-0.11 -0.07,-0.02 -0.15,-0.02 -0.22,-0 -0.11,0.01 -0.22,0.06 -0.31,0.11 -0.03,-0.02 -0.05,-0.05 -0.08,-0.07 -0.03,-0.03 -0.07,-0.05 -0.12,-0.05 -0.05,-0.01 -0.09,0 -0.13,0.03 -0.04,0.02 -0.07,0.06 -0.09,0.1 -0.03,-0.01 -0.07,-0.01 -0.1,-0.01 -0.07,-0 -0.15,0.03 -0.19,0.09 -0.06,0.08 -0.08,0.18 -0.09,0.27 0,0.06 -0.01,0.13 0.01,0.19 0.01,0.03 0.02,0.06 0.02,0.09 0.01,0.07 0.03,0.15 0.08,0.21 0.01,0.01 0.03,0.02 0.04,0.04 -0.04,0.09 -0.09,0.19 -0.1,0.29 -0.01,0.03 -0.01,0.07 -0.01,0.11 -0,0.03 0,0.06 0.01,0.09 0.01,0.07 0.03,0.15 0.07,0.21 0.01,0.01 0.02,0.02 0.02,0.03 -0,0.03 -0.01,0.05 -0.01,0.08 -0,0.01 -0.01,0.03 -0.02,0.04l-0.36 0.18 0.32 0.08c0.03,0.04 0.05,0.08 0.08,0.11 0.02,0.03 0.05,0.06 0.07,0.09 0.02,0.04 0.04,0.07 0.07,0.11 0.01,0.02 0,0.03 -0,0.05l-0.16 0.43 0.38 -0.25c0.01,-0.01 0.03,-0 0.04,0 0.05,0.03 0.09,0.06 0.14,0.09 0.05,0.03 0.1,0.05 0.15,0.07 0.03,0.01 0.06,0.02 0.1,0.03 0.02,0 0.04,0.01 0.04,0.02 0.01,0.02 0.02,0.03 0.02,0.05l0.2 0.56c0,0.01 0.01,0.03 0.02,0.04 0.02,-0.03 0.02,-0.06 0.03,-0.09l0.18 -0.52c0.01,-0.02 0.03,-0.03 0.05,-0.04 0.09,-0.04 0.19,-0.08 0.28,-0.12 0.03,-0.01 0.05,-0.03 0.07,-0.05 0.02,-0.01 0.04,-0.03 0.06,-0.04 0.01,-0 0.02,-0.01 0.03,-0 0.03,0.02 0.06,0.04 0.09,0.06 0.09,0.06 0.17,0.12 0.26,0.18 0.01,0.01 0.02,0.01 0.03,0.02 -0,-0.03 -0.02,-0.05 -0.02,-0.08 -0.05,-0.12 -0.09,-0.24 -0.13,-0.36 -0.01,-0.02 -0.01,-0.04 -0,-0.05 0.02,-0.03 0.05,-0.07 0.07,-0.1 0.02,-0.03 0.04,-0.06 0.06,-0.09 0.03,-0.04 0.06,-0.07 0.08,-0.11 0.01,-0.01 0.01,-0.02 0.03,-0.02 0.1,-0.02 0.2,-0.04 0.3,-0.06 -0.02,-0.02 -0.05,-0.03 -0.07,-0.04z"/>
    <path class="fil0" d="M1.49 0.92c0.04,0.03 0.09,0.03 0.13,0 0.03,-0.02 0.04,-0.06 0.06,-0.09 0.02,-0.04 0.03,-0.08 0.05,-0.12 0.01,-0.02 0.02,-0.03 0.03,-0.05 -0.02,-0 -0.05,-0 -0.07,0.01 -0.04,0.03 -0.06,0.09 -0.1,0.13 -0.02,0.02 -0.06,0.02 -0.08,0 -0.02,-0.02 -0.04,-0.05 -0.05,-0.08 -0.01,-0.02 -0.03,-0.04 -0.05,-0.06 -0.02,-0.01 -0.04,-0.01 -0.06,-0.01 0.01,0.02 0.03,0.04 0.04,0.06 0.02,0.04 0.02,0.08 0.04,0.11 0.02,0.03 0.03,0.06 0.06,0.09z"/>
    <path class="fil0" d="M1.2 0.78c-0.03,-0.04 -0.09,-0.05 -0.13,-0.03 -0.03,0.01 -0.05,0.04 -0.07,0.07 0.03,0 0.07,-0 0.1,0 0.03,0 0.06,0.02 0.09,0.04 0.03,0.02 0.05,0.05 0.07,0.07 0,-0.01 0.01,-0.02 0,-0.03 -0.01,-0.05 -0.03,-0.09 -0.07,-0.13z"/>
    <path class="fil0" d="M1.97 0.82c0.04,-0.01 0.08,-0.01 0.12,-0.01 -0.02,-0.03 -0.04,-0.05 -0.07,-0.06 -0.03,-0.01 -0.07,-0.01 -0.1,0.01 -0.05,0.03 -0.08,0.09 -0.09,0.14 -0,0.01 0,0.02 0,0.03 0.03,-0.05 0.08,-0.09 0.14,-0.11z"/>
    <path class="fil0" d="M1.16 1.92c-0.02,0.01 -0.04,0.02 -0.04,0.04 0,0.02 0.02,0.03 0.04,0.03 0.02,0 0.05,-0.02 0.06,-0.04 -0,-0.03 -0.03,-0.04 -0.06,-0.03z"/>
    <path class="fil0" d="M1.98 1.96c-0,-0.03 -0.04,-0.05 -0.07,-0.04 -0.01,0 -0.02,0.02 -0.02,0.03 0,0.02 0.03,0.04 0.05,0.04 0.02,0 0.04,-0.01 0.04,-0.03z"/>
    <path class="fil0" d="M1.26 2.06c0.01,0.02 0.04,0.02 0.06,0.02 0.03,-0.01 0.04,-0.04 0.02,-0.07 -0.02,-0.01 -0.04,-0.01 -0.06,-0 -0.02,0.01 -0.03,0.03 -0.02,0.05z"/>
    <path class="fil0" d="M1.77 2.01c-0.02,0.01 -0.03,0.03 -0.02,0.04 0.01,0.03 0.05,0.04 0.08,0.02 0.01,-0.01 0.01,-0.03 0,-0.04 -0.01,-0.03 -0.05,-0.03 -0.07,-0.02z"/>
    <path class="fil0" d="M1.08 2.07c-0.01,0.01 -0.03,0.02 -0.03,0.04 0,0.03 0.04,0.03 0.06,0.02 0.02,-0.01 0.03,-0.03 0.03,-0.06 -0.01,-0.02 -0.04,-0.02 -0.06,-0.01z"/>
    <path class="fil0" d="M2.03 2.08c-0.02,-0.01 -0.05,-0.01 -0.07,-0.01 -0,0.02 -0.01,0.04 0.01,0.05 0.02,0.02 0.05,0.02 0.07,0.01 0.02,-0.02 0.01,-0.04 -0.01,-0.06z"/>
    <path class="fil1" d="M1.63 1.65c0.02,0 0.04,0 0.05,0 -0,-0.01 -0.01,-0.02 -0.01,-0.02 -0.02,-0.01 -0.03,-0.02 -0.05,-0.03 -0.02,-0.01 -0.05,-0.01 -0.07,-0.01 -0.02,0 -0.05,-0 -0.07,0.01l-0 0c-0.02,0 -0.03,0.01 -0.05,0.02 -0,0.01 -0.01,0.02 -0.01,0.02 0.03,0 0.07,-0.01 0.1,-0.01 0.04,0 0.08,-0 0.11,0z"/>
    <path class="fil2" d="M2.37 2.22c-0.02,0.02 -0.05,0.03 -0.06,0.05 -0.01,0.01 -0.02,0.03 -0.02,0.05 0.04,-0.01 0.07,-0 0.11,0.01 0.02,-0.02 0.03,-0.04 0.04,-0.06 0.02,-0.03 0.04,-0.06 0.05,-0.1 -0.02,0 -0.05,0 -0.07,0.01 -0.02,0.01 -0.03,0.03 -0.04,0.04z"/>
    <path class="fil2" d="M0.7 2.31c0.03,0 0.06,-0 0.1,-0.01 -0,-0.02 -0.01,-0.03 -0.02,-0.05 -0.02,-0.02 -0.03,-0.03 -0.05,-0.04 -0.02,-0.01 -0.03,-0.03 -0.05,-0.04 -0.02,-0.01 -0.04,-0.01 -0.06,-0.01 0,0.04 0.03,0.07 0.04,0.1 0.01,0.02 0.02,0.04 0.04,0.05z"/>
    <path class="fil2" d="M2 2.51c-0.04,0.03 -0.09,0.05 -0.14,0.05 -0.09,0.01 -0.18,-0.03 -0.27,-0.03 -0.04,-0 -0.07,-0 -0.11,0 -0.07,0.01 -0.15,0.03 -0.22,0.03 -0.06,0 -0.12,-0.02 -0.18,-0.05 -0.03,-0.02 -0.06,-0.03 -0.09,-0.04 0,0.02 0.01,0.04 0,0.07 -0,0.01 -0.01,0.03 0,0.03 0.02,0.02 0.04,0.03 0.06,0.04 0.06,0.03 0.11,0.05 0.17,0.07 0.02,0.01 0.03,-0.01 0.04,-0.02 0.07,-0.06 0.17,-0.08 0.26,-0.09 0.1,0 0.2,0.03 0.27,0.09 0.01,0.01 0.03,0.02 0.05,0.01 0.06,-0.02 0.12,-0.04 0.18,-0.07 0.02,-0.01 0.03,-0.02 0.04,-0.03 0,-0.01 -0,-0.02 -0,-0.03 -0,-0.02 0,-0.04 0,-0.06 -0.03,0.01 -0.06,0.02 -0.09,0.03z"/>
    <path class="fil3" d="M1.43 0.88c-0.01,-0.01 -0.01,-0.03 -0.01,-0.05 -0.02,-0.04 -0.02,-0.08 -0.04,-0.11 -0.01,-0.02 -0.03,-0.04 -0.04,-0.06 0.02,-0 0.05,-0.01 0.06,0.01 0.02,0.02 0.03,0.04 0.05,0.06 0.02,0.03 0.03,0.06 0.05,0.08 0.02,0.02 0.06,0.02 0.08,-0 0.04,-0.04 0.05,-0.1 0.1,-0.13 0.02,-0.02 0.04,-0.02 0.07,-0.01 -0.01,0.02 -0.02,0.03 -0.03,0.05 -0.02,0.04 -0.03,0.08 -0.05,0.12 0,0.01 0,0.03 -0.01,0.04 -0.01,0.03 -0.02,0.06 -0.05,0.08 -0.02,0.02 -0.05,0.04 -0.08,0.04 -0.02,-0 -0.04,-0.02 -0.06,-0.03 -0.03,-0.02 -0.04,-0.05 -0.05,-0.08zm-0.17 0.05c-0.02,-0.02 -0.04,-0.05 -0.07,-0.07 -0.03,-0.02 -0.06,-0.04 -0.09,-0.04 -0.03,-0 -0.07,0 -0.1,-0 0.02,-0.03 0.04,-0.05 0.07,-0.07 0.04,-0.02 0.1,-0.01 0.13,0.03 0.04,0.03 0.06,0.08 0.07,0.13 0,0.01 -0,0.02 -0,0.03zm0.57 -0.03c0.01,-0.06 0.04,-0.11 0.09,-0.14 0.03,-0.02 0.07,-0.02 0.1,-0.01 0.03,0.01 0.05,0.04 0.07,0.06 -0.04,0 -0.08,-0 -0.12,0.01 -0.06,0.02 -0.1,0.06 -0.14,0.11 -0,-0.01 -0.01,-0.02 -0,-0.03zm-0.35 0.3c0.02,0.02 0.05,0.02 0.08,0.02 0.02,-0 0.04,-0.01 0.05,-0.02 0.01,-0.02 0.01,-0.05 0.02,-0.07 0.01,0.02 0.02,0.04 0.05,0.05 0.03,0.01 0.06,-0 0.09,-0.01 0.07,-0.04 0.13,-0.1 0.19,-0.15 0.06,-0.05 0.12,-0.1 0.19,-0.11 0.04,-0.01 0.09,0 0.13,0 -0.01,-0.03 -0.03,-0.07 -0.03,-0.1 -0,-0.03 -0,-0.06 -0.01,-0.09 -0,-0.02 -0.01,-0.04 -0.03,-0.05 -0.06,-0.04 -0.12,-0.1 -0.14,-0.17 -0.01,-0.03 0.01,-0.06 0.03,-0.09 0.02,-0.03 0.06,-0.06 0.1,-0.07 0.04,-0.01 0.07,0 0.1,0.02 0.03,0.02 0.06,0.05 0.07,0.09 0.05,0.09 0.07,0.18 0.11,0.27 0.01,0.03 0.03,0.06 0.06,0.08 0.01,0.01 0.03,0.01 0.05,0.01 0.03,-0.1 0.05,-0.2 0.05,-0.3 -0,-0.04 -0.01,-0.08 -0.02,-0.12 -0.05,-0.06 -0.11,-0.08 -0.19,-0.08 0,0.04 0.01,0.08 -0.01,0.11 -0.02,-0.03 -0.03,-0.07 -0.05,-0.11 -0,-0.01 -0.01,-0.01 -0.01,-0.02 -0.08,-0.06 -0.18,-0.08 -0.31,-0.04 -0.01,0.01 -0.01,0.01 -0.02,0.02 -0.01,0.01 -0.02,0.03 -0.04,0.04 -0,-0 -0.01,-0 -0.01,-0.01 0,0 0,0 0,0 -0.29,-0.09 -0.58,-0.09 -0.89,0 -0.01,0.01 -0.02,-0.01 -0.03,-0.02 -0.01,-0.01 -0.01,-0.01 -0.02,-0.02 -0.1,-0.06 -0.21,-0.05 -0.33,0.04 -0,0.01 -0.01,0.01 -0.01,0.02 -0.01,0.03 -0.02,0.06 -0.04,0.09 -0.01,-0.01 -0.01,-0.03 -0.01,-0.04 -0,-0.02 0,-0.04 0,-0.05 -0.07,-0.02 -0.13,-0 -0.19,0.07 -0.01,0.03 -0.01,0.05 -0.01,0.08 -0.01,0.1 0.01,0.21 0.04,0.3 0.01,0.01 0.02,0.03 0.02,0.04 0.05,-0.01 0.07,-0.06 0.09,-0.1 0.05,-0.1 0.07,-0.22 0.14,-0.32 0.03,-0.04 0.08,-0.06 0.13,-0.06 0.05,-0 0.09,0.03 0.12,0.06 0.02,0.03 0.04,0.06 0.03,0.09 -0.03,0.08 -0.09,0.14 -0.16,0.18 -0.01,0.04 -0.01,0.08 -0.02,0.12 -0,0.04 -0.02,0.08 -0.04,0.12 0.04,-0.01 0.09,-0.02 0.13,-0.01 0.07,0.01 0.12,0.04 0.17,0.09 0.06,0.04 0.1,0.1 0.16,0.14 0.03,0.03 0.07,0.05 0.12,0.05 0.02,0 0.04,-0.01 0.06,-0.02 0,-0 0.01,-0.01 0.01,-0.01 0,-0 0.01,-0.01 0.01,-0.01 0.01,0.02 0.01,0.04 0.02,0.06z"/>
    <path class="fil3" d="M1.85 1.85c0.01,0.02 0.02,0.05 0.03,0.06 0.03,0 0.05,-0.01 0.08,0 0.02,0.01 0.03,0.03 0.03,0.06 -0,0.01 -0.02,0.03 -0.02,0.04 0.04,0.05 0.11,0.05 0.16,0.04 0.03,-0.01 0.07,-0.04 0.06,-0.07 -0,-0.04 -0.01,-0.07 -0.01,-0.11 -0.01,-0.06 -0.04,-0.12 -0.07,-0.18 -0.05,-0.08 -0.12,-0.15 -0.2,-0.2 -0.02,-0.01 -0.04,-0.02 -0.07,-0.03 0.03,0.04 0.07,0.08 0.09,0.12 0,0.01 0,0.01 0,0.02 -0.04,-0.03 -0.07,-0.06 -0.11,-0.07 -0.08,-0.05 -0.18,-0.07 -0.27,-0.07 -0.12,0 -0.24,0.03 -0.33,0.1 -0.02,0.02 -0.04,0.03 -0.06,0.05 -0,-0.01 -0,-0.02 0,-0.03 0.02,-0.04 0.06,-0.08 0.09,-0.12 -0.04,0.01 -0.07,0.03 -0.1,0.05 -0.08,0.06 -0.14,0.13 -0.19,0.22 -0.02,0.05 -0.04,0.09 -0.05,0.14 -0,0.04 -0.01,0.07 -0.01,0.11 0,0.04 0.04,0.06 0.08,0.07 0.04,0.01 0.08,0 0.12,-0.01 0.01,-0.01 0.03,-0.01 0.03,-0.03 -0,-0.02 -0.01,-0.03 -0.02,-0.04 0,-0.02 0.01,-0.04 0.03,-0.05 0.02,-0.01 0.04,-0.01 0.06,-0.01 0.01,0 0.02,0 0.03,-0.01 0.03,-0.05 0.04,-0.11 0.04,-0.17 -0,-0.03 0,-0.06 0.01,-0.09 0.01,-0.02 0.02,-0.04 0.04,-0.05 0.04,-0.03 0.09,-0.03 0.14,-0.04 0.09,-0.01 0.18,-0.01 0.26,0.02 0.03,0.01 0.07,0.02 0.09,0.06 0.02,0.04 0.03,0.08 0.02,0.12 -0,0.04 0,0.08 0.01,0.11z"/>
    <path class="fil3" d="M1.55 2.31c0.06,0 0.13,0.03 0.19,0.03 -0,-0.01 0,-0.03 -0.01,-0.04 -0.02,-0.03 -0.06,-0.04 -0.09,-0.06 -0.03,-0.02 -0.06,-0.03 -0.09,-0.03 -0.04,-0 -0.08,0.02 -0.11,0.03 -0.03,0.02 -0.05,0.03 -0.08,0.05 -0.01,0.01 -0.01,0.03 -0.01,0.04 0.07,-0 0.13,-0.03 0.2,-0.03z"/>
    <path class="fil4" d="M2.55 0.8c-0.03,-0.02 -0.04,-0.05 -0.06,-0.08 -0.04,-0.09 -0.06,-0.18 -0.11,-0.27 -0.02,-0.04 -0.04,-0.07 -0.07,-0.09 -0.03,-0.02 -0.07,-0.03 -0.1,-0.02 0.07,0 0.12,0.06 0.13,0.12 -0.02,-0 -0.04,-0.01 -0.06,-0 0,0.03 0.02,0.05 0.03,0.08 0.03,0.08 0.08,0.16 0.13,0.24 0.02,0.03 0.05,0.06 0.08,0.09 0.01,0.01 0.03,0.02 0.04,0.02 0.02,-0.01 0.03,-0.04 0.03,-0.06 -0.02,0 -0.04,0 -0.05,-0.01z"/>
    <path class="fil4" d="M0.75 0.4c-0.07,0.09 -0.09,0.21 -0.14,0.32 -0.02,0.04 -0.04,0.09 -0.09,0.1 -0.01,-0.01 -0.02,-0.02 -0.02,-0.04 0.01,0.03 0.02,0.07 0.05,0.09 0.03,-0 0.05,-0.02 0.07,-0.04 0.03,-0.03 0.06,-0.07 0.09,-0.12 0.05,-0.08 0.1,-0.17 0.12,-0.27 -0.02,0 -0.04,0 -0.06,0.01 0.01,-0.06 0.06,-0.1 0.11,-0.12 -0.05,0 -0.1,0.02 -0.13,0.06z"/>
    <path class="fil4" d="M2.56 1.31c-0.01,-0.05 -0.02,-0.1 -0.04,-0.16 -0.02,-0.05 -0.05,-0.1 -0.07,-0.15 -0.03,-0.05 -0.07,-0.09 -0.1,-0.13 -0.02,-0.03 -0.04,-0.07 -0.06,-0.1 -0.01,-0.02 -0.02,-0.05 -0.04,-0.07 -0.01,-0.01 -0.02,-0.02 -0.04,-0.03 0.01,0.01 0.03,0.03 0.03,0.05 0,0.03 0,0.06 0.01,0.09 0,0.04 0.02,0.07 0.03,0.1 -0.05,-0 -0.09,-0.01 -0.13,-0 -0.07,0.01 -0.14,0.06 -0.19,0.11 -0.06,0.05 -0.12,0.11 -0.19,0.15 -0.03,0.01 -0.06,0.02 -0.09,0.01 -0.02,-0.01 -0.03,-0.03 -0.05,-0.05 -0.01,0.02 -0.01,0.05 -0.02,0.07 -0.01,0.02 -0.03,0.02 -0.05,0.02 -0.03,0 -0.06,-0 -0.08,-0.02 -0.01,-0.02 -0.01,-0.04 -0.02,-0.06 -0,0 -0.01,0.01 -0.01,0.01 0.02,0.05 -0,0.09 -0.01,0.14 0.05,0 0.1,0 0.14,0 0.02,0 0.05,-0 0.07,-0.01 -0.01,-0.04 -0.02,-0.09 -0.02,-0.13 0.02,0.02 0.04,0.06 0.08,0.07 0.04,0.01 0.08,-0.01 0.11,-0.02 0.09,-0.05 0.17,-0.11 0.27,-0.15 0.04,-0.02 0.09,-0.03 0.13,-0.02 0.06,0.01 0.11,0.05 0.13,0.1 -0.03,-0 -0.07,-0.02 -0.09,-0 0.02,0.02 0.04,0.03 0.06,0.05 0.01,0.03 -0,0.05 -0.01,0.08 -0.02,0.04 -0.04,0.07 -0.07,0.1 -0.02,0.01 -0.04,0.03 -0.05,0.04 -0.02,0.02 -0.05,0.03 -0.08,0.04 0.02,0.01 0.05,0.01 0.07,0 0.03,-0 0.06,-0.02 0.09,-0.03 -0.01,0.06 -0.06,0.09 -0.11,0.11 0.03,0.05 0.08,0.1 0.11,0.16 0.03,0.06 0.05,0.12 0.07,0.19 0.01,0.03 0.01,0.07 0.02,0.1 0,0.02 0,0.05 0.01,0.07 0.03,-0.02 0.04,-0.05 0.05,-0.08 0.02,-0.07 0.04,-0.14 0.03,-0.22 -0,-0.06 -0.02,-0.11 -0.03,-0.16 0.01,0.01 0.03,0.02 0.04,0.03 0,0 0.01,0.01 0.01,0.01 0.02,0.02 0.03,0.04 0.05,0.06 0.02,-0.02 0.03,-0.04 0.04,-0.06 0.03,-0.1 0.04,-0.2 0.02,-0.3z"/>
    <path class="fil4" d="M1.39 1.18c-0.04,-0 -0.08,-0.02 -0.12,-0.05 -0.06,-0.04 -0.1,-0.1 -0.16,-0.14 -0.05,-0.04 -0.11,-0.08 -0.17,-0.09 -0.04,-0.01 -0.09,0 -0.13,0.01 0.01,-0.04 0.03,-0.08 0.04,-0.12 0,-0.04 0,-0.08 0.02,-0.12 -0.02,0.02 -0.03,0.06 -0.05,0.08 -0.03,0.06 -0.07,0.13 -0.12,0.18 -0.04,0.06 -0.07,0.12 -0.1,0.18 -0.05,0.13 -0.08,0.27 -0.06,0.41 0.01,0.05 0.02,0.1 0.06,0.14 0.03,-0.03 0.05,-0.08 0.09,-0.1 0,0.04 -0.02,0.07 -0.02,0.11 -0.01,0.05 -0.01,0.1 -0.01,0.14 0.01,0.05 0.02,0.1 0.04,0.14 0,0.01 0.01,0.02 0.01,0.02 0.01,0.01 0.02,0.03 0.04,0.03 0.01,-0.03 0,-0.07 0.01,-0.1 0.02,-0.12 0.06,-0.24 0.13,-0.34 0.02,-0.02 0.03,-0.04 0.05,-0.06 -0.02,-0.01 -0.05,-0.03 -0.07,-0.04 -0.03,-0.02 -0.04,-0.05 -0.05,-0.09 0.02,0.01 0.05,0.02 0.07,0.03 0.02,0.01 0.04,0.01 0.06,0.01 -0.03,-0.02 -0.06,-0.04 -0.09,-0.07 -0.04,-0.04 -0.07,-0.09 -0.09,-0.14 -0,-0.02 -0.01,-0.04 0,-0.05 0.02,-0.02 0.04,-0.03 0.05,-0.05 -0.03,-0.01 -0.07,-0 -0.1,0.01 0.02,-0.05 0.06,-0.08 0.11,-0.1 0.05,-0.02 0.11,-0 0.16,0.02 0.07,0.03 0.13,0.07 0.2,0.11 0.05,0.03 0.1,0.06 0.15,0.06 0.04,0 0.07,-0.02 0.09,-0.06 -0.02,0.01 -0.04,0.03 -0.06,0.02z"/>
    <path class="fil4" d="M1.48 0.96c0.02,0.01 0.04,0.03 0.06,0.03 0.03,0 0.06,-0.02 0.08,-0.04 0.03,-0.02 0.04,-0.05 0.05,-0.08 0.01,-0.01 0.01,-0.03 0.01,-0.04 -0.02,0.03 -0.04,0.07 -0.06,0.09 -0.04,0.03 -0.09,0.02 -0.13,-0 -0.03,-0.02 -0.04,-0.06 -0.06,-0.09 -0,0.02 -0,0.03 0.01,0.05 0.01,0.03 0.02,0.06 0.05,0.08z"/>
    <path class="fil4" d="M1.34 2.01c0.02,0.02 0,0.06 -0.02,0.07 -0.02,0.01 -0.05,0.01 -0.06,-0.02 -0.01,-0.02 0.01,-0.04 0.02,-0.05 0.02,-0.01 0.04,-0.01 0.06,0zm-0.18 -0.02c-0.02,0 -0.03,-0.01 -0.04,-0.03 0,-0.02 0.02,-0.03 0.04,-0.04 0.02,-0.01 0.05,0 0.06,0.03 -0,0.03 -0.03,0.04 -0.06,0.04zm-0.04 0.15c-0.02,0.01 -0.06,0.01 -0.06,-0.02 -0,-0.02 0.01,-0.03 0.03,-0.04 0.02,-0.01 0.05,-0.01 0.06,0.01 0.01,0.02 -0,0.05 -0.03,0.06zm0.11 -0.23c-0.01,0.01 -0.02,0.01 -0.03,0.01 -0.02,-0 -0.04,-0.01 -0.06,0.01 -0.01,0.01 -0.03,0.03 -0.03,0.05 0,0.02 0.01,0.03 0.02,0.04 -0,0.01 -0.02,0.02 -0.03,0.03 -0.04,0.01 -0.08,0.02 -0.12,0.01 -0.03,-0.01 -0.07,-0.03 -0.08,-0.07 -0,-0.04 0.01,-0.07 0.01,-0.11 -0.01,0.03 -0.02,0.06 -0.02,0.1 -0.01,0.05 -0,0.1 0.01,0.14 0.01,0.04 0.03,0.09 0.06,0.12 0.02,0.02 0.05,0.04 0.08,0.03 0.11,-0.02 0.22,-0.07 0.31,-0.13 0.05,-0.04 0.1,-0.08 0.13,-0.14 0.01,-0.02 0.01,-0.03 0.01,-0.05 -0.01,-0.01 -0.03,-0.02 -0.04,-0.03 -0.01,-0.01 -0.01,-0.03 -0.02,-0.05 -0.01,-0.03 -0.04,-0.06 -0.06,-0.08 -0.01,-0.01 -0.01,-0.01 -0.02,-0.01 -0.02,0 -0.02,0.03 -0.03,0.04 -0.03,-0.01 -0.04,-0.05 -0.06,-0.08 0,0.06 -0.01,0.12 -0.04,0.17z"/>
    <path class="fil4" d="M2.04 2.13c-0.02,0.01 -0.05,0.01 -0.07,-0.01 -0.02,-0.01 -0.01,-0.04 -0.01,-0.05 0.02,-0 0.05,-0.01 0.07,0.01 0.02,0.01 0.03,0.04 0.01,0.06zm-0.1 -0.14c-0.02,0 -0.05,-0.02 -0.05,-0.04 0,-0.01 0.01,-0.02 0.02,-0.03 0.03,-0.01 0.07,0.01 0.07,0.04 -0,0.02 -0.02,0.03 -0.04,0.03zm-0.1 0.08c-0.03,0.02 -0.07,0.01 -0.08,-0.02 -0.01,-0.02 0,-0.04 0.02,-0.04 0.02,-0.01 0.06,-0 0.07,0.02 0.01,0.01 0.01,0.03 -0,0.04zm0.35 -0.2c0,0.04 0.01,0.07 0.01,0.11 0,0.04 -0.03,0.06 -0.06,0.07 -0.06,0.02 -0.12,0.01 -0.16,-0.04 0.01,-0.01 0.02,-0.02 0.02,-0.04 0,-0.02 -0.01,-0.05 -0.03,-0.06 -0.03,-0.01 -0.05,-0 -0.08,-0 -0.02,-0.02 -0.02,-0.04 -0.03,-0.06 -0.01,-0.04 -0.02,-0.07 -0.01,-0.11 -0.01,0.03 -0.03,0.05 -0.05,0.08 -0,-0 -0.01,-0 -0.01,-0 -0.01,-0.01 -0.01,-0.04 -0.03,-0.04 -0.03,0.02 -0.05,0.05 -0.07,0.08 -0.01,0.02 -0.02,0.04 -0.03,0.06 -0.01,0.01 -0.03,0.02 -0.04,0.03 -0.01,0.01 0,0.03 0.01,0.04 0.03,0.06 0.08,0.11 0.14,0.15 0.07,0.05 0.16,0.09 0.24,0.11 0.03,0.01 0.07,0.02 0.1,0.01 0.04,-0.01 0.06,-0.04 0.08,-0.08 0.03,-0.06 0.04,-0.13 0.03,-0.19 -0,-0.04 -0,-0.09 -0.02,-0.13z"/>
    <path class="fil4" d="M1.37 2.3c0.02,-0.02 0.05,-0.03 0.08,-0.05 0.03,-0.02 0.07,-0.04 0.11,-0.03 0.03,0 0.07,0.01 0.09,0.03 0.03,0.02 0.06,0.03 0.09,0.06 0.01,0.01 0.01,0.02 0.01,0.04 -0.06,-0 -0.13,-0.03 -0.19,-0.03 -0.07,-0 -0.13,0.03 -0.2,0.03 0,-0.02 -0,-0.03 0.01,-0.04zm-0.2 0.11c0.03,0.01 0.07,0.01 0.1,0.01 0.04,-0 0.07,-0.02 0.11,-0.04 -0.01,0.02 -0.01,0.04 -0.02,0.06 0.06,-0.01 0.11,-0.02 0.17,-0.03 0.07,-0 0.13,0.02 0.2,0.03 -0,-0.02 -0.01,-0.03 -0.02,-0.05 0,-0 0,-0.01 0.01,-0.01 0.04,0.02 0.07,0.03 0.11,0.03 0.03,0 0.06,0 0.09,-0 -0.01,-0.02 -0.03,-0.02 -0.04,-0.03 -0.09,-0.04 -0.16,-0.12 -0.26,-0.16 -0.03,-0.01 -0.07,-0.02 -0.11,-0.01 -0.09,0.03 -0.16,0.09 -0.24,0.14 -0.03,0.02 -0.07,0.03 -0.1,0.05z"/>
    <path class="fil1" d="M1.18 1.34c0.02,-0 0.04,-0.01 0.06,-0.02 -0.02,-0.02 -0.05,-0.03 -0.08,-0.05 -0.04,-0.02 -0.08,-0.05 -0.12,-0.08 -0.01,-0.01 -0.02,-0 -0.03,-0 -0.03,-0 -0.07,-0 -0.1,0.01 0,0.02 0.01,0.03 0.02,0.04 0.03,0.05 0.08,0.08 0.13,0.09 0.04,0 0.08,0 0.12,0z"/>
    <path class="fil1" d="M2.08 1.32c0.03,-0.01 0.05,-0.04 0.07,-0.06 0.01,-0.02 0.02,-0.03 0.03,-0.05 -0.04,-0.01 -0.08,-0.01 -0.12,-0.01 -0.04,0.02 -0.07,0.04 -0.11,0.06 -0.03,0.02 -0.07,0.04 -0.1,0.06 0.01,0.01 0.03,0.01 0.04,0.02 0.06,0.01 0.13,0.01 0.19,-0.01z"/>
    <path class="fil1" d="M0.53 1.99c-0.03,0.01 -0.06,0.01 -0.09,0.03 0.04,0.01 0.09,0.01 0.13,0.02 0.01,-0 0.02,0 0.03,-0.01 -0,-0.01 -0.01,-0.03 -0.01,-0.04 -0.02,-0 -0.03,-0 -0.05,0z"/>
    <path class="fil1" d="M2.52 1.98c-0,0.02 -0.01,0.03 -0.01,0.05 0.05,0 0.1,-0 0.15,-0.01 -0.03,-0.01 -0.06,-0.02 -0.09,-0.03 -0.02,-0 -0.03,-0 -0.05,-0z"/>
    <path class="fil1" d="M0.79 2.53c0.02,-0.03 0.04,-0.06 0.06,-0.08 -0.02,-0.02 -0.05,-0.03 -0.08,-0.02 -0.01,0.02 -0.02,0.04 -0.03,0.07 -0.03,0.06 -0.06,0.12 -0.09,0.18l0.23 -0.16c0.01,-0.01 0,-0.02 0,-0.03 -0.03,0.02 -0.05,0.04 -0.09,0.05z"/>
    <path class="fil1" d="M2.33 2.42c-0.03,-0.01 -0.06,-0 -0.08,0.02 0.01,0.01 0.02,0.03 0.03,0.04 0.02,0.01 0.03,0.03 0.04,0.05 -0.03,-0.01 -0.05,-0.03 -0.08,-0.04 -0,-0 -0.01,-0.01 -0.01,-0.01 -0,0.01 -0.01,0.01 -0.01,0.02 0.02,0.02 0.04,0.03 0.06,0.05 0.05,0.04 0.1,0.08 0.15,0.11 0.01,0.01 0.02,0.01 0.02,0.01 -0.03,-0.06 -0.05,-0.11 -0.08,-0.17 -0.01,-0.03 -0.02,-0.05 -0.04,-0.08z"/>
    <path class="fil1" d="M1.6 2.7c-0.01,0.05 -0.02,0.11 -0.04,0.16 -0,0.02 -0.01,0.04 -0.01,0.06 -0,-0 -0.01,-0 -0.01,-0 -0,-0.01 -0,-0.02 -0.01,-0.03 -0.01,-0.06 -0.03,-0.13 -0.04,-0.19 -0.04,-0 -0.07,0.02 -0.1,0.04 0,0.02 0.01,0.04 0.02,0.06 0.01,0.04 0.08,0.25 0.12,0.33 0.01,0.02 0.02,0.03 0.02,0.03 0.01,-0.04 0.03,-0.08 0.04,-0.12 0.01,-0.04 0.03,-0.07 0.04,-0.11 0.02,-0.06 0.04,-0.12 0.06,-0.17 0,-0.01 0,-0.02 0,-0.03 -0.03,-0.01 -0.07,-0.04 -0.1,-0.03z"/>
    <path class="fil4" d="M1.99 0.31c-0,-0 -0,-0 -0,-0 -0,-0 -0,-0 -0,-0 -0,-0 -0,-0 -0,-0 -0,-0 -0,-0 -0.01,-0 -0,-0 -0,-0 -0,-0 -0,-0 -0,-0 -0,-0 -0,-0 -0,-0 -0.01,-0 -0.05,-0.03 -0.1,-0.06 -0.16,-0.08 -0.07,-0.02 -0.15,-0.04 -0.22,-0.04 -0.06,-0 -0.12,-0 -0.18,0.01 -0.08,0.02 -0.17,0.04 -0.24,0.08 -0.02,0.01 -0.04,0.03 -0.06,0.04 0.3,-0.09 0.6,-0.1 0.89,-0z"/>
    <path class="fil4" d="M1.05 0.27c0,0 0,0 0,0 -0,-0 -0,-0 -0,-0 -0,-0 -0,-0 -0,-0 -0,-0 -0,-0 -0,-0 -0,-0 -0,-0 -0,-0 -0,-0 -0,-0 -0.01,-0.01 -0,-0 -0,-0 -0,-0 -0,-0 -0,-0 -0.01,-0.01 -0,-0 -0,-0 -0,-0 -0,-0 -0,-0 -0.01,-0 -0,-0 -0,-0 -0,-0 -0,-0 -0,-0 -0,-0 -0,-0 -0,-0 -0,-0 -0,-0 -0,-0 -0,-0 -0,-0 -0,-0 -0,-0 -0,-0 -0,-0 -0.01,-0 -0,-0 -0,-0 -0,-0 -0,-0 -0.01,-0 -0.01,-0 -0,-0 -0,-0 -0,-0 -0,-0 -0,-0 -0.01,-0 -0,-0 -0,-0 -0,-0 -0,-0 -0,-0 -0.01,-0 -0,-0 -0,-0 -0,-0 -0,-0 -0,-0 -0.01,-0 -0,-0 -0,-0 -0,-0 -0,-0 -0,-0 -0.01,-0 -0,-0 -0,-0 -0,-0 -0,-0 -0.01,-0 -0.01,-0 -0.05,-0.02 -0.11,-0 -0.15,0.03 -0,0 -0.01,0 -0.01,0.01 -0,0 -0,0 -0,0 -0,0 -0.01,0.01 -0.01,0.01 -0,0 -0,0 -0,0 -0,0 -0.01,0.01 -0.01,0.01 -0,0 -0,0 -0,0 -0,0 -0.01,0.01 -0.01,0.01 -0,0 -0,0 -0,0 -0,0 -0,0.01 -0.01,0.01 -0,0 -0,0 -0,0 -0,0 -0,0.01 -0.01,0.01 -0,0 -0,0 -0,0 -0,0 -0,0.01 -0.01,0.01 -0,0 -0,0 -0,0 -0,0 -0,0.01 -0.01,0.01 -0,0 -0,0 -0,0 0,0 0,0 0,0 0.12,-0.09 0.23,-0.1 0.33,-0.04z"/>
    <path class="fil4" d="M0.66 0.32l0 0c0,-0.02 0,-0.04 0,-0.05 -0.04,-0.01 -0.09,-0.01 -0.13,0.02 -0,0 -0.01,0 -0.01,0.01 -0,0 -0,0 -0,0 -0,0 -0.01,0 -0.01,0.01 -0,0 -0,0 -0,0 -0,0 -0,0.01 -0.01,0.01 -0,0 -0,0 -0,0 -0,0 -0,0.01 -0.01,0.01 -0,0 -0,0 -0,0 -0,0 -0,0.01 -0.01,0.01 -0,0 -0,0 -0,0 -0,0 -0,0.01 -0.01,0.01 -0,0 -0,0 -0,0 -0,0 -0,0.01 -0,0.01 -0,0 -0,0 -0,0 -0,0 -0,0.01 -0,0.01 -0,0 -0,0 -0,0 -0,0 -0,0.01 -0,0.01 -0,0 -0,0 -0,0 -0,0 -0,0 -0,0 0,-0 0,-0 0,-0 0.06,-0.07 0.12,-0.09 0.19,-0.07z"/>
    <path class="fil4" d="M2.37 0.3c0,0 0,0 0,0 -0,-0 -0,-0 -0,-0 -0,-0 -0,-0.01 -0.01,-0.01 -0,-0 -0,-0 -0,-0 -0,-0 -0,-0.01 -0.01,-0.01 -0,-0 -0,-0 -0,-0 -0,-0 -0,-0.01 -0.01,-0.01 -0,-0 -0,-0 -0,-0 -0,-0 -0.01,-0.01 -0.01,-0.01 -0,-0 -0,-0 -0,-0 -0,-0 -0.01,-0.01 -0.01,-0.01 -0,-0 -0,-0 -0,-0 -0,-0 -0.01,-0.01 -0.01,-0.01 -0,-0 -0,-0 -0,-0 -0,-0 -0.01,-0.01 -0.01,-0.01 -0,-0 -0,-0 -0,-0 -0,-0 -0.01,-0.01 -0.01,-0.01 -0.05,-0.03 -0.11,-0.04 -0.17,-0.01 -0,0 -0.01,0 -0.01,0.01 -0,0 -0,0 -0,0 -0,0 -0.01,0 -0.01,0 -0,0 -0,0 -0,0 -0,0 -0.01,0 -0.01,0.01 -0,0 -0,0 -0,0 -0,0 -0.01,0 -0.01,0.01 -0,0 -0,0 -0,0 -0,0 -0,0 -0.01,0.01 -0,0 -0,0 -0,0 -0,0 -0.01,0 -0.01,0.01 -0,0 -0,0 -0,0 -0,0 -0,0 -0,0 0,0 0,0 0,0 0.13,-0.03 0.23,-0.02 0.31,0.04z"/>
    <path class="fil4" d="M2.63 0.39c0,0 0,0 0,0 -0,-0 -0,-0.01 -0,-0.01 0,-0 -0,-0 -0,-0 -0,-0 -0,-0.01 -0,-0.01 -0,-0 -0,-0 -0,-0 -0,-0 -0,-0.01 -0,-0.01 -0,-0 -0,-0 -0,-0 -0,-0 -0,-0 -0,-0.01 -0,-0 -0,-0 -0,-0 -0,-0 -0,-0 -0,-0.01 -0,-0 -0,-0 -0,-0 -0,-0 -0,-0 -0.01,-0.01 -0,-0 -0,-0 -0,-0 -0,-0 -0.01,-0.01 -0.01,-0.01 -0.04,-0.04 -0.1,-0.05 -0.15,-0.03 0,0.01 0,0.01 0,0.02 0,0 0,0 0,0 0,0.01 0,0.01 0,0.02 0,0 0,0 0,0 0,0 0,0 0,0 0.08,-0.01 0.14,0.02 0.19,0.08z"/>
   </g>
   <path class="fil5 str0" d="M2.7 0.25c0.05,0.07 0.07,0.16 0.07,0.25 -0,0.05 0,0.1 -0,0.15 -0.01,0.07 -0.03,0.15 -0.05,0.22 -0.02,0.06 -0.05,0.11 -0.1,0.15 0.01,0.03 0.02,0.06 0.04,0.08 0.05,0.11 0.08,0.23 0.08,0.35 -0.01,0.04 -0,0.08 -0.02,0.11 -0.01,0.07 -0.05,0.13 -0.08,0.19 -0.01,0.03 0.01,0.06 0.01,0.09 0.03,0.02 0.07,0.04 0.1,0.06 0.04,0.02 0.07,0.04 0.11,0.06 0.03,0.02 0.07,0.03 0.1,0.04 0.02,0.01 0.05,0.02 0.07,0.04 -0.1,0.02 -0.2,0.04 -0.3,0.06 -0.01,0 -0.02,0.01 -0.03,0.02 -0.03,0.04 -0.06,0.08 -0.08,0.11 -0.02,0.03 -0.05,0.06 -0.06,0.09 -0.02,0.04 -0.04,0.07 -0.07,0.1 -0.01,0.02 -0.01,0.04 0,0.05 0.05,0.12 0.09,0.24 0.13,0.36 0.01,0.03 0.02,0.05 0.02,0.08 -0.01,-0 -0.02,-0.01 -0.03,-0.02 -0.09,-0.06 -0.17,-0.12 -0.26,-0.18 -0.03,-0.02 -0.06,-0.04 -0.09,-0.06 -0.01,-0.01 -0.02,-0 -0.03,0 -0.02,0.01 -0.04,0.03 -0.06,0.04 -0.03,0.02 -0.05,0.04 -0.07,0.05 -0.09,0.04 -0.19,0.08 -0.28,0.12 -0.02,0.01 -0.04,0.02 -0.05,0.04l-0.18 0.52c-0.01,0.03 -0.02,0.06 -0.03,0.09 -0.01,-0.01 -0.01,-0.03 -0.02,-0.04l-0.2 -0.56c-0.01,-0.02 -0.01,-0.04 -0.02,-0.05 -0.01,-0.02 -0.03,-0.02 -0.04,-0.02 -0.03,-0.01 -0.07,-0.02 -0.1,-0.03 -0.05,-0.02 -0.1,-0.04 -0.15,-0.07 -0.05,-0.03 -0.09,-0.06 -0.14,-0.09 -0.01,-0.01 -0.03,-0.01 -0.04,-0l-0.38 0.25 0.16 -0.43c0.01,-0.02 0.01,-0.04 0,-0.05 -0.02,-0.03 -0.05,-0.07 -0.07,-0.11 -0.02,-0.03 -0.05,-0.06 -0.07,-0.09 -0.03,-0.04 -0.06,-0.08 -0.08,-0.11l-0.32 -0.08 0.36 -0.18c0.01,-0.01 0.02,-0.02 0.02,-0.04 0.01,-0.02 0.01,-0.05 0.01,-0.08 -0,-0.01 -0.01,-0.02 -0.02,-0.03 -0.04,-0.06 -0.07,-0.13 -0.07,-0.21 -0,-0.03 -0.01,-0.06 -0.01,-0.09 0.01,-0.04 0,-0.07 0.01,-0.11 0.01,-0.1 0.06,-0.2 0.1,-0.29 -0.01,-0.02 -0.02,-0.03 -0.04,-0.04 -0.05,-0.06 -0.07,-0.13 -0.08,-0.21 -0.01,-0.03 -0.01,-0.06 -0.02,-0.09 -0.02,-0.06 -0.01,-0.12 -0.01,-0.19 0.01,-0.1 0.03,-0.19 0.09,-0.27 0.05,-0.06 0.12,-0.09 0.19,-0.09 0.03,-0 0.07,0.01 0.1,0.01 0.03,-0.04 0.05,-0.07 0.09,-0.1 0.04,-0.02 0.09,-0.04 0.13,-0.03 0.04,0.01 0.08,0.03 0.12,0.05 0.03,0.02 0.05,0.05 0.08,0.07 0.1,-0.05 0.2,-0.1 0.31,-0.11 0.07,-0.01 0.15,-0.01 0.22,0 0.11,0.01 0.21,0.06 0.3,0.11 0.04,-0.04 0.09,-0.09 0.15,-0.11 0.04,-0.01 0.07,-0.02 0.11,-0.01 0.04,0.01 0.09,0.03 0.12,0.07 0.02,0.02 0.03,0.04 0.05,0.06 0.06,-0.01 0.12,-0.02 0.18,0 0.06,0.02 0.1,0.06 0.13,0.11z"/>
  </g>
 </g>
</svg>
