<?xml version="1.0" encoding="UTF-8"?>
<!DOCTYPE svg PUBLIC "-//W3C//DTD SVG 1.1//EN" "http://www.w3.org/Graphics/SVG/1.1/DTD/svg11.dtd">
<!-- Creator: CorelDRAW 2018 (64-Bit) -->
<svg xmlns="http://www.w3.org/2000/svg" xml:space="preserve" width="7.11701in" height="8.23831in" version="1.1" style="shape-rendering:geometricPrecision; text-rendering:geometricPrecision; image-rendering:optimizeQuality; fill-rule:evenodd; clip-rule:evenodd"
viewBox="0 0 1606.37 1859.45"
 xmlns:xlink="http://www.w3.org/1999/xlink">
 <defs>
  <style type="text/css">
   <![CDATA[
    .fil0 {fill:#FEFEFE;fill-rule:nonzero}
    .fil1 {fill:#212746;fill-rule:nonzero}
    .fil3 {fill:#DD6C2D;fill-rule:nonzero}
    .fil5 {fill:#DEDEDE;fill-rule:nonzero}
    .fil2 {fill:#F4802E;fill-rule:nonzero}
    .fil4 {fill:#FCFCFC;fill-rule:nonzero}
   ]]>
  </style>
 </defs>
 <g id="Layer_x0020_1">
  <metadata id="CorelCorpID_0Corel-Layer"/>
  <g id="_1011823152">
   <path class="fil0" d="M1248.15 120.43c43.57,-37.8 84.55,-78.48 124.11,-120.43 2.66,0.06 5.35,0.17 8.06,0.24 15.76,47.48 25.76,96.67 33.98,145.94 20.91,131.17 23.57,266.45 -3.28,396.97 12.48,11.17 23.03,24.27 33.63,37.17 50.05,62.94 90.55,133.53 119.26,208.66 27.34,71.53 42.61,147.9 42.44,224.58 0.27,27.45 -7.03,54.2 -13.56,80.64 -8.54,31.89 -19.57,63.18 -34.01,92.9 -21.43,43.96 -51.3,85.75 -93.63,111.69 2.41,-40.75 0.6,-81.67 -3.25,-122.27 -4.01,-37.09 -9.73,-74.49 -23.62,-109.31 -7.92,-19.14 -19.2,-38.8 -38.54,-48.21 -1.32,11.53 -6.54,22.07 -11.06,32.6 -17.74,38.45 -39.24,75.03 -61.93,110.75 -43.41,67.49 -92.44,131.55 -148.2,189.33 -53.45,40.48 -107.01,81 -163.74,116.85 -31.89,19.99 -64.52,39.23 -99.49,53.36 8.97,-14.34 15.08,-30.21 21.93,-45.61 11.9,-28.15 23.1,-56.59 33.41,-85.36 6.42,-18.96 13.89,-37.82 16.79,-57.73 -6.73,3.72 -12.97,8.22 -19.39,12.45 -72.4,49 -145.19,97.75 -222.03,139.62 -4.86,2.91 -10.85,2.12 -15.97,4.4 -23.16,8.48 -44.67,20.86 -65.43,34.06 -65.59,42.57 -121.98,98.17 -169.99,159.64 -42.31,54.43 -78.02,113.92 -107.66,176.1l-0.68 0c-5.01,-13.83 -6.91,-28.48 -8.98,-42.96 -6.04,-47.18 -7.03,-94.99 -3.55,-142.4 4.2,-54.02 14.61,-108.03 35.76,-158.09 18.08,-42.82 45.01,-82.58 81.48,-111.81 14.53,-13.56 29.7,-26.42 44.36,-39.86 22.07,-20.09 43.5,-40.89 63.88,-62.7 32.38,-34.84 62.7,-72.11 85.63,-113.95 11.69,-21.85 21.74,-45.04 26,-69.56 -2.71,-11.49 -10.69,-20.88 -18.54,-29.34 -21.7,-22.16 -51.31,-35.17 -81.51,-40.75 -33.59,-6.21 -68.2,-4.15 -101.63,2.04 -34.49,6.45 -68.04,17.28 -100.53,30.45 -8.86,3.96 -18.31,6.37 -27.6,9.08 -23.83,6.35 -50.16,3.14 -71.32,-9.66 -6.43,-4.5 -14.69,-3.18 -22.02,-4.82 -57.44,-9.17 -114.81,-29.96 -159.07,-68.69 -11.47,1.38 -23.02,-0.19 -34.35,-1.89 -20.47,-3.44 -40.81,-9.22 -58.95,-19.5 -13.85,-7.92 -26.54,-19.42 -32.11,-34.71 -6.59,-18.04 -2.46,-38.35 6.19,-54.94 11.55,-17.58 27.15,-32.02 42.82,-45.86 38.16,-32.71 80.72,-59.85 124.19,-84.9 64.81,-37.06 132.54,-68.75 201.15,-98.08 -8.14,-25.68 -3.91,-54.48 9.68,-77.53 15.07,-25.76 39.72,-44.36 65.82,-57.92 5.5,-2.36 11.26,-4.12 16.35,-7.38 34.12,-19.74 68.58,-38.99 104.24,-55.86 117.11,-55.99 242.62,-93.18 370.25,-115.81 8.51,-18.72 22.67,-34.09 37.1,-48.41 20.33,-19.69 42.77,-37.04 65.94,-53.23 45.32,-31.54 93.61,-58.57 142.61,-83.93 20.79,-13.62 39.65,-29.96 58.57,-46.04zm9.44 39.65l0 0c-18.46,16.68 -37.83,32.62 -59.44,45.07 -7.91,4.69 -16.54,7.87 -24.78,11.88 -40.22,19.11 -79.42,40.65 -115.69,66.54 -37.96,27.39 -74.19,59.71 -96,101.83 -94.21,11.3 -187.49,32.16 -276.65,64.87 -62.42,23.05 -123.09,51.57 -178.72,88.27 -10.84,6.94 -20.8,15.18 -31.94,21.66 -20.59,13.18 -40.92,27.87 -55.8,47.56 -9.39,12.48 -16.05,28.69 -11.96,44.44 3.45,14.19 14.4,24.83 26.01,32.9 -71.4,28.26 -141.91,58.9 -210.45,93.58 -45.63,23.38 -90.7,48.35 -132.04,78.81 -18.19,13.69 -36.06,28.31 -50.08,46.39 -4.93,6.75 -10.01,14.04 -11.11,22.54 1,8.49 4.34,16.92 10.57,22.95 10.47,10.42 24.62,16.02 38.53,20.2 16.59,4.61 33.78,7.51 51.01,7.6 9,-1.74 17.16,3.03 25.39,5.74 53.17,20.34 105.46,42.9 158.26,64.11 17.77,9.96 38.56,12.79 58.66,12.48 3.47,-0.16 7.07,0.03 10.41,-1.09 47.94,-21.96 99.08,-41.98 152.72,-40.3 38.45,-2.27 77.61,-1.08 115,8.95 26.76,7.26 52.95,19.77 72.11,40.26 12.91,13.93 22.81,31.53 24.82,50.65 -0.38,21.67 -6.3,42.93 -14.57,62.86 -12.85,30.53 -31.35,58.35 -51.84,84.26 -31.02,38.94 -66.77,73.9 -104.8,105.95 -16.73,14.38 -35.23,26.65 -50.9,42.27 -50.66,48.03 -85.67,111.26 -103.29,178.56 -13.99,52.94 -18.58,108.33 -14.08,162.9 55.75,-85.26 120.94,-165.58 201.1,-229.09 40.98,-32.1 85.85,-60.47 135.66,-76.6 107.74,-37.45 201.67,-108.96 273.67,-196.71 1.35,-2.46 3.71,-0.4 3.17,1.74 4.58,30.54 1.11,61.61 -3.77,91.92 -6.29,35.9 -14.76,71.56 -26.95,105.94 12.25,-3.17 23.4,-9.39 34.28,-15.67 22.08,-13.16 42.62,-28.75 62.67,-44.79 33.76,-27.31 66.01,-56.46 97.05,-86.81 57.78,-57.41 104.48,-124.9 145.7,-194.86 23.18,-40.05 45.31,-80.84 63.91,-123.24 16.4,-0.82 32.71,5.7 44.94,16.48 13.7,11.96 23.02,28.04 30.1,44.6 10.38,24.71 16.11,51.12 20.06,77.56 5.16,36.03 6.81,72.51 5.81,108.88 10.69,-8.54 18.93,-19.83 26.84,-30.94 17.65,-25.98 29.39,-55.57 37.42,-85.83 9.98,-38.02 14.35,-77.34 15.38,-116.58 0.36,-31.62 0.35,-63.54 -5.7,-94.69 -6.89,-39.46 -17.14,-78.34 -30.92,-115.95 -30.86,-84.61 -80.4,-162.7 -145.86,-224.77 -2.77,-3.47 -8.84,-6.16 -7.14,-11.41 12.88,-88.56 17.22,-178.35 13.01,-267.73 -3.26,-66.46 -10.77,-132.85 -25.27,-197.84 -3.39,-13.91 -6.3,-28.07 -11.82,-41.33 -31.79,39.76 -65.08,78.59 -102.7,113.02z"/>
   <path class="fil1" d="M1257.6 160.08c37.62,-34.42 70.91,-73.25 102.7,-113.02 5.51,13.26 8.43,27.42 11.82,41.33 14.5,64.98 22,131.38 25.27,197.84 4.21,89.38 -0.13,179.17 -13.01,267.73 -1.7,5.24 4.37,7.94 7.14,11.41 65.46,62.07 115,140.16 145.86,224.77 13.78,37.61 24.03,76.49 30.92,115.95 6.05,31.15 6.07,63.07 5.7,94.69 -1.03,39.24 -5.4,78.56 -15.38,116.58 -8.03,30.26 -19.77,59.85 -37.42,85.83 -7.91,11.11 -16.14,22.4 -26.84,30.94 1,-36.37 -0.65,-72.86 -5.81,-108.88 -3.94,-26.44 -9.68,-52.85 -20.06,-77.56 -7.08,-16.55 -16.4,-32.63 -30.1,-44.6 -12.23,-10.77 -28.55,-17.3 -44.94,-16.48 -18.6,42.39 -40.73,83.19 -63.91,123.24 -41.22,69.96 -87.92,137.45 -145.7,194.86 -31.04,30.35 -63.29,59.5 -97.05,86.81 -20.06,16.03 -40.59,31.62 -62.67,44.79 -10.88,6.27 -22.04,12.5 -34.28,15.67 12.18,-34.38 20.66,-70.04 26.95,-105.94 4.88,-30.31 8.35,-61.37 3.77,-91.92 0.54,-2.14 -1.82,-4.2 -3.17,-1.74 -72,87.75 -165.93,159.26 -273.67,196.71 -49.81,16.13 -94.67,44.5 -135.66,76.6 -80.16,63.51 -145.35,143.83 -201.1,229.09 -4.5,-54.58 0.09,-109.96 14.08,-162.9 17.62,-67.3 52.63,-130.52 103.29,-178.56 15.67,-15.62 34.17,-27.88 50.9,-42.27 38.02,-32.05 73.78,-67.01 104.8,-105.95 20.48,-25.92 38.99,-53.74 51.84,-84.26 8.27,-19.93 14.19,-41.19 14.57,-62.86 -2.01,-19.12 -11.91,-36.72 -24.82,-50.65 -19.17,-20.48 -45.36,-33 -72.11,-40.26 -37.39,-10.03 -76.55,-11.22 -115,-8.95 -53.64,-1.68 -104.78,18.34 -152.72,40.3 -3.34,1.12 -6.94,0.93 -10.41,1.09 -20.1,0.3 -40.89,-2.52 -58.66,-12.48 -52.8,-21.21 -105.1,-43.77 -158.26,-64.11 -8.24,-2.71 -16.4,-7.48 -25.39,-5.74 -17.24,-0.1 -34.42,-2.99 -51.01,-7.6 -13.91,-4.18 -28.06,-9.77 -38.53,-20.2 -6.23,-6.04 -9.57,-14.46 -10.57,-22.95 1.09,-8.51 6.18,-15.8 11.11,-22.54 14.02,-18.08 31.89,-32.7 50.08,-46.39 41.35,-30.46 86.42,-55.43 132.04,-78.81 68.53,-34.68 139.05,-65.32 210.45,-93.58 -11.61,-8.08 -22.56,-18.71 -26.01,-32.9 -4.09,-15.75 2.57,-31.95 11.96,-44.44 14.88,-19.69 35.2,-34.38 55.8,-47.56 11.14,-6.48 21.1,-14.72 31.94,-21.66 55.62,-36.71 116.3,-65.22 178.72,-88.27 89.16,-32.71 182.44,-53.58 276.65,-64.87 21.81,-42.12 58.05,-74.44 96,-101.83 36.28,-25.89 75.47,-47.43 115.69,-66.54 8.24,-4.01 16.87,-7.19 24.78,-11.88 21.61,-12.45 40.98,-28.39 59.44,-45.07zm90.36 -51.55l0 0c-36.09,58.85 -89.22,105.3 -146.63,142.67 -15.02,9.54 -30.23,18.88 -46.35,26.43 -21.69,4.59 -40.95,16.1 -59.76,27.36 -25.93,15.99 -50.77,33.63 -75.15,51.88 -12.75,9.77 -26.06,19.06 -36.77,31.18 -28.59,31.24 -42.66,73.48 -44.99,115.27 -8.38,-6.37 -12.83,-16.6 -13.61,-26.93 -2.09,-21.91 5.66,-42.92 10.88,-63.83 -93.47,20.15 -185.45,47.51 -274.37,82.7 -57.65,23.15 -114.49,48.94 -167.61,81.29 -17.52,11.52 -35.39,23.54 -48.27,40.4 -6.61,8.73 -11.88,20.22 -7.94,31.21 4.67,2 8.11,6.24 13.21,7.37 10.72,2.9 21.92,-0.44 31.89,-4.52 13.45,-5.88 26.2,-13.59 37.48,-22.99 8.54,-9.32 17.62,-18.23 28.1,-25.36 27.26,-19.38 61.36,-27.39 94.45,-26.17 14.08,3.44 26.84,11.12 37.7,20.59 16.82,14.83 30,33.54 39.73,53.67 2.95,6.72 6.45,13.55 6.48,21.07 -3.01,-2.65 -4.88,-6.21 -7.21,-9.39 -9.63,-13.31 -20.59,-25.79 -33.41,-36.14 -13.28,-10.41 -28.77,-19.83 -46.07,-20.56 8.05,13.35 11.11,29.48 8.97,44.88 -2.6,8.82 -1.25,18.3 -4.67,26.93 -6.23,18.28 -22.92,30.56 -40.19,37.61 -18.41,7.45 -38.31,11.06 -58.14,11.26 -5.96,0.3 -11.8,-2.01 -17.74,-0.95 -18.39,2.41 -36.18,8.05 -53.58,14.32 -28.42,10.23 -55.76,23.13 -83.39,35.28 -2.71,1.3 -5.59,2.15 -8.59,2.38 9.93,-12.18 23.64,-20.45 37.23,-27.95 26.81,-14.24 55.3,-24.98 84.18,-34.14 -4.17,-5.1 -9.79,-8.73 -14.16,-13.62l-0.7 0.86c-3.15,-4.07 -3.49,-9.17 -3.9,-14.07 -61.13,21.78 -120.23,49.05 -177.99,78.56 -47.19,24.33 -93.52,50.39 -138.49,78.61 -6.92,4.09 -9.54,12.31 -11.74,19.55 -2.33,9.24 -4.21,18.84 -3.17,28.39 -2.46,12.29 -4.66,24.67 -7.73,36.82 -2.69,6.19 -3.88,12.96 -4.44,19.68 -0.14,3.8 0.02,8.59 3.68,10.82 6.72,4.5 13.91,8.22 20.96,12.15 26.03,13.85 52.6,27.01 80.49,36.64l-0.08 0.4c13.09,5.37 26.98,8.92 41.08,10.06 13.97,-11.41 30.67,-18.44 46.65,-26.46 37.66,-18.12 76.09,-34.87 116.04,-47.32 32.95,-10.35 66.08,-20.82 100.36,-25.63 41.74,-6.54 85.47,-5.85 125.68,8.17 20.39,7.41 40.67,18.08 54.37,35.36 -5.97,-2.58 -10.92,-7.02 -16.76,-9.88 -42.76,-23.64 -93.53,-28.33 -141.41,-22.89 -34.98,4.58 -69.69,12.26 -102.77,24.65 -38.18,13.93 -74.06,33.48 -107.79,55.99 -7.41,6 -18.23,4.64 -25.35,11.07 -2.65,4.32 3.5,7.13 6.67,8.67 9.28,3.44 20.39,7.54 29.8,2.41 18.04,-8.3 37.28,-13.73 55.34,-21.99 16.05,-5.04 32.59,-8.38 49.05,-11.76 59.47,-11.42 121.6,-14.56 180.89,-0.33 30.73,7.65 61.13,19.52 86.17,39.34 16.73,12.83 28.2,32.22 31.62,53.01 3.8,22.29 -0.46,45.1 -7.59,66.3 -10.74,31.13 -27.64,59.76 -46.39,86.7 -28.15,39.68 -60.28,76.68 -96.11,109.6 -65.46,48.86 -119.31,113.02 -156.82,185.54 -10.87,21.36 -20.66,43.41 -26.95,66.58 -1.52,6.64 -3.64,13.58 -2.2,20.44 2.46,1.27 4.58,-0.97 6.67,-1.93 7.29,-3.66 10.42,-11.64 16.11,-17.05 7.08,-8.79 15.57,-16.46 22.4,-25.35 9.01,-8.67 17.79,-17.62 26.52,-26.55l0.52 -0.14c12.28,-11.39 24.59,-22.75 37.31,-33.63 47.11,-39.89 98.95,-74.66 155.38,-99.95 22.1,-10.12 45.39,-17.28 67.44,-27.53 62.64,-28.36 122.27,-65.4 170.57,-114.76 30.69,-31.48 56.06,-68.75 70.37,-110.53 16.86,25.19 34.08,51.2 41.19,81.06 3.52,-4.26 5.5,-9.47 7.78,-14.43 8.55,-20.28 14.42,-41.62 18.39,-63.23 10.06,-54.83 6.53,-112.46 -12.67,-164.95 -17.82,-49.65 -49.49,-93.47 -87.96,-129.24 8.22,-0.93 16.48,-2.04 24.78,-1.49 23.64,1.17 46.18,10.77 65.36,24.29 20.77,14.65 38.32,33.49 53.31,53.93 0.32,-7.49 -1.08,-14.89 -2.44,-22.23 -6.46,-32.08 -19.93,-62.78 -39.3,-89.18 -25.47,-35.06 -62.13,-61.25 -102.66,-76.2 -36.14,-13.32 -74.84,-19.6 -113.33,-18.46 -61.91,1.47 -123.11,13.61 -182.5,30.59 -62.12,17.89 -122.4,41.79 -180.84,69.33 -2.49,10.28 -6.56,20.15 -11.58,29.43 -3.98,7 -8.44,14.1 -15.13,18.82 4.48,-19.58 6.78,-41.36 -2.25,-60.01 -5.88,-12.31 -19.22,-19.42 -32.52,-19.99 -26.42,-1.41 -51.72,8.08 -76.03,17.27 -51.15,20.44 -98.43,49.74 -141.53,83.87 -7.56,5.83 -14.43,12.85 -23.43,16.51 7.99,-6.99 15.26,-14.73 21.59,-23.24 20.77,-24.89 46.29,-45.56 74.09,-62.1 14.34,-8.94 30.18,-15 44.85,-23.35 26.25,-13.63 53.72,-25.87 83,-31.21 17,-2.87 35.41,-3.28 51.23,4.53 14.16,6.88 24.27,21.4 25.49,37.13 15.76,-8.87 31.18,-18.41 47.32,-26.58 61.01,-31.8 126.14,-55.49 193.04,-71.34 27.07,-6.53 54.42,-12.33 82.27,-14.26 68.91,-5.61 139.89,6.86 201.18,39.45 37.78,18.14 71.53,45.9 93.91,81.57 18.06,28.63 28.37,61.85 31.07,95.51 2.01,27.72 0.52,56.29 -8.52,82.76 -2.69,-5.77 -3.61,-12.2 -6.81,-17.76 -11.17,-21.58 -28.2,-39.45 -45.94,-55.75 -8.6,-7.37 -17.08,-15.27 -27.44,-20.1 0.78,1.25 1.63,2.44 2.6,3.58 32.59,35.45 48.84,82.65 56.87,129.37 10.03,60.79 8.02,123.08 -0.87,183.88 -6.7,22.26 -12.91,44.67 -20.56,66.63 4.99,-2.9 9.01,-7.1 13.51,-10.65 83.9,-71.18 153.64,-158.86 204.7,-256.31 18,-34.58 33.97,-70.32 46.2,-107.38 1.12,-2.6 1.16,-6 3.33,-7.98 27.69,-0.38 55.72,7.27 78.58,23.13 20.99,14.37 37.31,34.73 49.35,56.95 17.71,33.01 27.68,69.88 31.45,107.05 8.93,-48.71 12.21,-98.51 9,-147.95 -5.02,-78.32 -27.26,-155.54 -65.24,-224.26 -21.86,-39.34 -48.18,-76.5 -79.99,-108.45l0.08 -0.4c-7.57,-5.97 -12.58,-14.4 -19.87,-20.58 -22.92,41.21 -62.08,71.27 -104.76,89.92 -8.89,3.52 -17.79,7.78 -27.41,8.57 17.97,-23.99 32.54,-50.28 46.4,-76.79 10.11,-20.14 21.36,-40.21 26.42,-62.26 4.18,-10.15 7,-20.8 10.28,-31.27 21.5,-73.08 32.21,-149.01 35.84,-224.99 3.18,-70.89 0.74,-142.15 -8.33,-212.55zm-750.7 514.76l0 0c-26.47,12.09 -52.6,24.89 -78.42,38.29 -2.53,1.6 -6.23,2.96 -6.4,6.48 0.54,5.27 5.13,8.7 9.09,11.6 6.94,5.02 15.72,8.93 24.41,6.75 9.95,-2.33 19.94,-5.58 28.21,-11.79 14.19,-10.47 24.02,-25.76 31.32,-41.59 2.25,-5.09 -1.81,-13.69 -8.22,-9.74z"/>
   <path class="fil2" d="M1347.96 108.53c9.08,70.4 11.52,141.66 8.33,212.55 -3.63,75.98 -14.34,151.91 -35.84,224.99 -3.28,10.47 -6.1,21.12 -10.28,31.27 -0.65,-2.98 -1.19,-6.04 -0.59,-9.08 3.79,-28.88 5.45,-57.98 7.59,-87.01 -0.03,-10.65 1.85,-21.17 1.62,-31.81 -0.22,-8.44 1.54,-16.81 1.19,-25.27 -7.64,13.96 -11.45,29.83 -20.22,43.19 -0.21,-6.57 0.92,-13.05 1.93,-19.52 5.04,-41.54 9.51,-83.25 9.47,-125.14 0.46,-30.75 -0.41,-61.74 -6.84,-91.92 -2.33,-9.9 -5.09,-19.83 -10.31,-28.66 -2.82,5.91 -4.2,12.56 -8.52,17.68 -17.36,22 -42.14,36.45 -67,48.54 -16.49,8.78 -34.28,14.83 -50.71,23.75 -24.81,11.71 -48.94,25.05 -70.96,41.48 -34.03,25.43 -64.29,56.6 -85.53,93.58 -15.79,27 -27.25,56.67 -32.62,87.53 -0.71,4.5 -1.5,8.98 -2.39,13.45 -23.62,4.23 -46.59,11.55 -69.55,18.42 13.39,5.62 26.95,10.85 40.45,16.24 2.06,0.87 3.94,2.11 5.83,3.33 -18.12,1.74 -36.1,4.61 -54.13,7.03 -12.02,1.52 -24.11,4.83 -36.26,2.68 -31.89,-4.83 -63.57,-10.82 -95.31,-16.6 -19.96,-4.06 -40.19,-7.29 -59.55,-13.77 -48.76,-9.32 -98.73,4.88 -141.96,27.26 -14.16,7.64 -27.96,15.95 -40.94,25.46 -7.6,6.08 -13.07,14.57 -21.58,19.6 -20.45,13.07 -43.25,21.91 -65.9,30.35 -3.94,-10.99 1.33,-22.48 7.94,-31.21 12.88,-16.86 30.75,-28.88 48.27,-40.4 53.12,-32.35 109.96,-58.14 167.61,-81.29 88.92,-35.18 180.9,-62.54 274.37,-82.7 -5.23,20.91 -12.97,41.92 -10.88,63.83 0.78,10.33 5.23,20.56 13.61,26.93 2.33,-41.79 16.4,-84.03 44.99,-115.27 10.71,-12.12 24.02,-21.4 36.77,-31.18 24.38,-18.25 49.22,-35.9 75.15,-51.88 18.8,-11.26 38.07,-22.76 59.76,-27.36 16.13,-7.54 31.34,-16.89 46.35,-26.43 57.41,-37.37 110.55,-83.82 146.63,-142.67z"/>
   <path class="fil2" d="M1388.85 641.37c0.13,-0.62 0.35,-1.87 0.46,-2.49 31.81,31.95 58.13,69.12 79.99,108.45 37.97,68.72 60.22,145.94 65.24,224.26 3.22,49.44 -0.06,99.24 -9,147.95 -3.77,-37.17 -13.74,-74.03 -31.45,-107.05 -12.04,-22.23 -28.36,-42.58 -49.35,-56.95 -22.86,-15.86 -50.88,-23.51 -78.58,-23.13 -2.17,1.98 -2.2,5.39 -3.33,7.98 -12.23,37.06 -28.2,72.79 -46.2,107.38 -51.06,97.44 -120.8,185.13 -204.7,256.31 -4.5,3.55 -8.52,7.75 -13.51,10.65 7.65,-21.96 13.86,-44.37 20.56,-66.63 6.86,-4.77 13.32,-10.2 18.5,-16.79 15.86,-17.73 29.18,-37.51 42.31,-57.27 33.46,-50.87 63,-104.15 92.6,-157.3 -0.27,22.73 -1.9,45.51 -5.7,67.95 3.61,-4.44 6.32,-9.5 8.79,-14.65 11.93,-23.05 21.62,-47.16 31.87,-70.99 16.65,-41.11 32.98,-82.41 46.32,-124.74 0.63,-4.56 6.15,-2.91 9.32,-2.87 27.72,4.06 52.96,17.11 77.75,29.45 12.47,5.83 24.24,13.01 36.56,19.09 -2.36,-20.26 -12.12,-38.59 -21.2,-56.51 -13.16,-24.52 -29.72,-46.99 -46.64,-69.01 -6.46,-8.33 -13.77,-16.03 -19.38,-24.98 6.91,-0.08 13.77,1.2 20.33,3.44 19.5,6.86 36.88,18.39 53.64,30.26 4.4,3.15 8.08,7.37 13.2,9.46 -2.44,-13.53 -9.01,-25.84 -14.04,-38.53 -21.13,-46.18 -47.11,-89.97 -74.39,-132.74z"/>
   <path class="fil2" d="M307.08 767.08c57.76,-29.51 116.85,-56.78 177.99,-78.56 0.41,4.89 0.74,10 3.9,14.07 -4.12,3.63 -8.98,6.26 -13.62,9.11 -51.69,30 -103.99,58.95 -156.2,88.03 -55.27,31.08 -110.94,61.48 -165.45,93.9 -1.05,-9.55 0.84,-19.15 3.17,-28.39 2.2,-7.24 4.82,-15.46 11.74,-19.55 44.98,-28.22 91.3,-54.27 138.49,-78.61z"/>
   <path class="fil3" d="M1285.49 219.83c4.32,-5.12 5.7,-11.77 8.52,-17.68 5.23,8.82 7.98,18.76 10.31,28.66 6.43,30.18 7.3,61.17 6.84,91.92 0.03,41.89 -4.44,83.6 -9.47,125.14 -1.01,6.46 -2.14,12.94 -1.93,19.52 8.76,-13.35 12.58,-29.23 20.22,-43.19 0.35,8.46 -1.41,16.82 -1.19,25.27 0.24,10.65 -1.65,21.17 -1.62,31.81 -2.14,29.02 -3.8,58.12 -7.59,87.01 -0.6,3.04 -0.06,6.1 0.59,9.08 -5.07,22.05 -16.32,42.12 -26.42,62.26 -13.86,26.5 -28.44,52.8 -46.4,76.79 9.62,-0.79 18.52,-5.05 27.41,-8.57 42.68,-18.65 81.84,-48.71 104.76,-89.92 7.29,6.18 12.29,14.61 19.87,20.58l-0.08 0.4c-0.11,0.62 -0.33,1.87 -0.46,2.49 27.28,42.77 53.26,86.56 74.39,132.74 5.02,12.69 11.6,25 14.04,38.53 -5.12,-2.09 -8.79,-6.3 -13.2,-9.46 -16.76,-11.87 -34.14,-23.4 -53.64,-30.26 -6.56,-2.23 -13.42,-3.52 -20.33,-3.44 5.61,8.95 12.91,16.65 19.38,24.98 16.92,22.02 33.48,44.48 46.64,69.01 9.08,17.92 18.84,36.25 21.2,56.51 -12.33,-6.08 -24.1,-13.26 -36.56,-19.09 -24.79,-12.34 -50.03,-25.39 -77.75,-29.45 -3.17,-0.05 -8.68,-1.69 -9.32,2.87 -13.34,42.33 -29.67,83.63 -46.32,124.74 -10.25,23.83 -19.94,47.94 -31.87,70.99 -2.47,5.15 -5.18,10.22 -8.79,14.65 3.8,-22.43 5.43,-45.21 5.7,-67.95 -29.59,53.15 -59.14,106.43 -92.6,157.3 -13.13,19.76 -26.46,39.54 -42.31,57.27 -5.18,6.59 -11.64,12.02 -18.5,16.79 8.89,-60.8 10.9,-123.09 0.87,-183.88 -8.03,-46.72 -24.29,-93.91 -56.87,-129.37 -0.97,-1.14 -1.82,-2.33 -2.6,-3.58 10.36,4.83 18.84,12.74 27.44,20.1 17.74,16.3 34.77,34.17 45.94,55.75 3.2,5.56 4.12,11.99 6.81,17.76 9.05,-26.47 10.53,-55.04 8.52,-82.76 -2.69,-33.66 -13.01,-66.89 -31.07,-95.51 -22.39,-35.68 -56.13,-63.43 -93.91,-81.57 -61.29,-32.59 -132.27,-45.05 -201.18,-39.45 -27.85,1.93 -55.19,7.73 -82.27,14.26 -66.9,15.84 -132.03,39.54 -193.04,71.34 -16.14,8.17 -31.56,17.71 -47.32,26.58 -1.22,-15.73 -11.33,-30.26 -25.49,-37.13 -15.83,-7.81 -34.23,-7.4 -51.23,-4.53 -29.28,5.34 -56.75,17.58 -83,31.21 -14.67,8.35 -30.51,14.42 -44.85,23.35 -27.8,16.54 -53.32,37.21 -74.09,62.1 -6.34,8.51 -13.61,16.25 -21.59,23.24 -17.27,8.62 -38.96,6.34 -54.12,-5.58 3.07,-12.15 5.28,-24.52 7.73,-36.82 54.51,-32.41 110.18,-62.81 165.45,-93.9 52.22,-29.09 104.51,-58.03 156.2,-88.03 4.64,-2.85 9.5,-5.48 13.62,-9.11l0.7 -0.86c4.37,4.9 10,8.52 14.16,13.62 -28.88,9.16 -57.38,19.9 -84.18,34.14 -13.59,7.49 -27.3,15.76 -37.23,27.95 2.99,-0.22 5.88,-1.08 8.59,-2.38 27.63,-12.15 54.97,-25.05 83.39,-35.28 17.39,-6.27 35.19,-11.91 53.58,-14.32 5.94,-1.06 11.79,1.25 17.74,0.95 19.83,-0.21 39.73,-3.82 58.14,-11.26 17.27,-7.05 33.96,-19.33 40.19,-37.61 3.42,-8.63 2.07,-18.11 4.67,-26.93 2.14,-15.4 -0.92,-31.53 -8.97,-44.88 17.3,0.73 32.79,10.15 46.07,20.56 12.82,10.34 23.78,22.83 33.41,36.14 2.33,3.18 4.2,6.75 7.21,9.39 -0.03,-7.52 -3.53,-14.35 -6.48,-21.07 -9.73,-20.14 -22.91,-38.84 -39.73,-53.67 -10.87,-9.47 -23.62,-17.16 -37.7,-20.59 -33.09,-1.22 -67.19,6.8 -94.45,26.17 -10.49,7.13 -19.57,16.05 -28.1,25.36 -11.28,9.39 -24.03,17.11 -37.48,22.99 -9.96,4.07 -21.17,7.41 -31.89,4.52 -5.1,-1.12 -8.54,-5.37 -13.21,-7.37 22.65,-8.44 45.45,-17.28 65.9,-30.35 8.51,-5.02 13.97,-13.51 21.58,-19.6 12.97,-9.51 26.77,-17.82 40.94,-25.46 43.23,-22.38 93.2,-36.58 141.96,-27.26 19.36,6.48 39.59,9.71 59.55,13.77 31.73,5.78 63.42,11.77 95.31,16.6 12.15,2.15 24.24,-1.16 36.26,-2.68 18.03,-2.42 36.01,-5.29 54.13,-7.03 -1.88,-1.22 -3.77,-2.46 -5.83,-3.33 -13.5,-5.39 -27.06,-10.61 -40.45,-16.24 22.96,-6.88 45.93,-14.19 69.55,-18.42 0.89,-4.47 1.68,-8.95 2.39,-13.45 5.37,-30.86 16.83,-60.53 32.62,-87.53 21.25,-36.98 51.5,-68.15 85.53,-93.58 22.02,-16.43 46.15,-29.77 70.96,-41.48 16.43,-8.92 34.22,-14.97 50.71,-23.75 24.86,-12.09 49.63,-26.53 67,-48.54z"/>
   <path class="fil4" d="M597.26 623.29c6.42,-3.94 10.47,4.66 8.22,9.74 -7.3,15.83 -17.13,31.11 -31.32,41.59 -8.27,6.21 -18.27,9.46 -28.21,11.79 -8.7,2.19 -17.47,-1.73 -24.41,-6.75 -3.96,-2.9 -8.55,-6.32 -9.09,-11.6 0.17,-3.52 3.87,-4.88 6.4,-6.48 25.82,-13.4 51.95,-26.2 78.42,-38.29z"/>
   <path class="fil4" d="M683.38 780.79c59.39,-16.98 120.59,-29.12 182.5,-30.59 38.5,-1.14 77.2,5.13 113.33,18.46 40.52,14.96 77.18,41.14 102.66,76.2 19.37,26.39 32.84,57.1 39.3,89.18 1.36,7.34 2.76,14.73 2.44,22.23 -14.99,-20.44 -32.54,-39.27 -53.31,-53.93 -19.19,-13.51 -41.73,-23.11 -65.36,-24.29 -8.3,-0.55 -16.55,0.55 -24.78,1.49 38.47,35.77 70.13,79.59 87.96,129.24 19.2,52.49 22.73,110.12 12.67,164.95 -3.98,21.61 -9.84,42.95 -18.39,63.23 -2.28,4.96 -4.26,10.17 -7.78,14.43 -7.11,-29.86 -24.33,-55.88 -41.19,-81.06 -14.31,41.78 -39.68,79.05 -70.37,110.53 -48.3,49.36 -107.93,86.4 -170.57,114.76 -22.05,10.25 -45.34,17.41 -67.44,27.53 -56.43,25.28 -108.27,60.06 -155.38,99.95 -0.46,-4.4 2.3,-8.14 4.31,-11.79 14.12,-23.16 33.13,-42.79 52.44,-61.64 16.36,-14.81 32.51,-30 50.49,-42.87 66,-37.88 129.56,-80.24 188.62,-128.29 21.55,-17.39 42.12,-36.5 57.54,-59.68 29.26,-43.31 40.68,-96.56 39.76,-148.27 -0.08,-28.96 -4.78,-57.67 -10.49,-85.99 10.88,1.01 19.64,8.52 27.66,15.33 15.38,15.19 27.91,33.14 38.32,52.04 1.06,1.74 2.38,3.31 3.71,4.88 -2.25,-18.79 -7.92,-37.04 -13.69,-55.02 -11.25,-34.05 -28.18,-66.68 -52.49,-93.28 -14.27,-15.11 -30.54,-28.59 -49.08,-38.15 -31.54,-16.89 -67.92,-23.61 -103.48,-22.02 -10.65,0.1 -21.12,1.98 -31.68,2.95 1.68,-1.36 3.36,-2.76 5.26,-3.82 20.31,-10.63 42.27,-17.57 63.12,-27.01 -15.08,-1.38 -30.2,0.79 -45.2,2.14 -59.27,7.11 -117.75,19.82 -175.37,35.23 -7.11,1.49 -12.72,6.32 -18.93,9.71 -41.47,23.38 -85.64,41.54 -130.05,58.5 -10.36,4.36 -21.86,4.06 -32.57,7.19 -43.17,11.18 -83.09,31.97 -121.27,54.56 -4.7,2.53 -8.82,6.3 -13.99,7.89 -9.05,-2.11 -19.15,-5.7 -27.96,-0.84 -5.56,2.85 -7.13,9.19 -8,14.86 -27.9,-9.63 -54.47,-22.8 -80.49,-36.64 -7.05,-3.93 -14.24,-7.65 -20.96,-12.15 -3.66,-2.23 -3.82,-7.02 -3.68,-10.82 0.55,-6.72 1.74,-13.48 4.44,-19.68 15.16,11.91 36.85,14.19 54.12,5.58 9,-3.66 15.87,-10.68 23.43,-16.51 43.11,-34.12 90.38,-63.43 141.53,-83.87 24.3,-9.19 49.6,-18.68 76.03,-17.27 13.31,0.57 26.65,7.68 32.52,19.99 9.03,18.65 6.73,40.43 2.25,60.01 6.69,-4.72 11.15,-11.82 15.13,-18.82 5.02,-9.28 9.09,-19.15 11.58,-29.43 58.44,-27.53 118.72,-51.44 180.84,-69.33z"/>
   <path class="fil4" d="M505.84 1559.8c1.52,-1.79 3.79,-2.5 6,-2.93 -8.73,8.94 -17.5,17.89 -26.52,26.55 0.82,-2.57 1.71,-5.16 3.86,-6.91 5.69,-5.45 11.14,-11.12 16.65,-16.71z"/>
   <path class="fil5" d="M774.79 822.62c15,-1.35 30.12,-3.52 45.2,-2.14 -20.85,9.44 -42.81,16.38 -63.12,27.01 -1.9,1.06 -3.58,2.46 -5.26,3.82 10.57,-0.97 21.04,-2.85 31.68,-2.95 35.57,-1.58 71.94,5.13 103.48,22.02 18.54,9.55 34.81,23.03 49.08,38.15 24.3,26.6 41.24,59.23 52.49,93.28 5.77,17.98 11.44,36.23 13.69,55.02 -1.33,-1.57 -2.65,-3.14 -3.71,-4.88 -10.41,-18.9 -22.94,-36.85 -38.32,-52.04 -8.02,-6.81 -16.78,-14.32 -27.66,-15.33 5.7,28.33 10.41,57.03 10.49,85.99 0.92,51.71 -10.5,104.95 -39.76,148.27 -15.41,23.18 -35.99,42.28 -57.54,59.68 -59.06,48.05 -122.62,90.41 -188.62,128.29 -17.98,12.86 -34.12,28.06 -50.49,42.87 -19.31,18.85 -38.32,38.48 -52.44,61.64 -2.01,3.64 -4.77,7.38 -4.31,11.79 -12.72,10.88 -25.03,22.24 -37.31,33.63l-0.52 0.14c-2.22,0.43 -4.48,1.14 -6,2.93 -5.51,5.59 -10.96,11.26 -16.65,16.71 -2.15,1.74 -3.04,4.34 -3.86,6.91 -6.83,8.89 -15.32,16.55 -22.4,25.35 -5.69,5.4 -8.82,13.39 -16.11,17.05 -2.09,0.97 -4.21,3.2 -6.67,1.93 -1.44,-6.86 0.68,-13.8 2.2,-20.44 6.29,-23.18 16.08,-45.23 26.95,-66.58 37.51,-72.53 91.36,-136.69 156.82,-185.54 35.83,-32.92 67.96,-69.91 96.11,-109.6 18.74,-26.95 35.65,-55.57 46.39,-86.7 7.13,-21.2 11.39,-44.01 7.59,-66.3 -3.42,-20.78 -14.89,-40.18 -31.62,-53.01 -25.03,-19.82 -55.43,-31.68 -86.17,-39.34 -59.28,-14.23 -121.41,-11.09 -180.89,0.33 -16.46,3.37 -33,6.72 -49.05,11.76 -18.06,8.25 -37.29,13.69 -55.34,21.99 -9.41,5.13 -20.52,1.03 -29.8,-2.41 -3.17,-1.54 -9.32,-4.34 -6.67,-8.67 7.11,-6.43 17.93,-5.07 25.35,-11.07 33.73,-22.51 69.61,-42.06 107.79,-55.99 33.08,-12.39 67.79,-20.07 102.77,-24.65 47.87,-5.43 98.65,-0.74 141.41,22.89 5.85,2.87 10.79,7.3 16.76,9.88 -13.7,-17.28 -33.98,-27.95 -54.37,-35.36 -40.21,-14.02 -83.93,-14.72 -125.68,-8.17 -34.28,4.82 -67.41,15.29 -100.36,25.63 -39.95,12.45 -78.39,29.2 -116.04,47.32 -15.98,8.02 -32.68,15.05 -46.65,26.46 -14.1,-1.14 -27.99,-4.69 -41.08,-10.06l0.08 -0.4c0.87,-5.67 2.44,-12.01 8,-14.86 8.81,-4.86 18.92,-1.27 27.96,0.84 5.16,-1.58 9.28,-5.35 13.99,-7.89 38.18,-22.59 78.1,-43.38 121.27,-54.56 10.71,-3.14 22.21,-2.84 32.57,-7.19 44.41,-16.97 88.57,-35.12 130.05,-58.5 6.21,-3.39 11.82,-8.22 18.93,-9.71 57.62,-15.41 116.11,-28.12 175.37,-35.23z"/>
  </g>
 </g>
</svg>
