<?xml version="1.0" encoding="UTF-8"?>
<!DOCTYPE svg PUBLIC "-//W3C//DTD SVG 1.1//EN" "http://www.w3.org/Graphics/SVG/1.1/DTD/svg11.dtd">
<!-- Creator: CorelDRAW 2018 (64-Bit) -->
<svg xmlns="http://www.w3.org/2000/svg" xml:space="preserve" width="7.2707in" height="8.23831in" version="1.1" style="shape-rendering:geometricPrecision; text-rendering:geometricPrecision; image-rendering:optimizeQuality; fill-rule:evenodd; clip-rule:evenodd"
viewBox="0 0 904.19 1024.52"
 xmlns:xlink="http://www.w3.org/1999/xlink">
 <defs>
  <style type="text/css">
   <![CDATA[
    .fil7 {fill:#104B7E;fill-rule:nonzero}
    .fil5 {fill:#104B80;fill-rule:nonzero}
    .fil15 {fill:#111B27;fill-rule:nonzero}
    .fil4 {fill:#114A81;fill-rule:nonzero}
    .fil13 {fill:#171B24;fill-rule:nonzero}
    .fil0 {fill:#1C355D;fill-rule:nonzero}
    .fil16 {fill:#1C3C56;fill-rule:nonzero}
    .fil6 {fill:#1F1814;fill-rule:nonzero}
    .fil14 {fill:#201713;fill-rule:nonzero}
    .fil3 {fill:#201813;fill-rule:nonzero}
    .fil2 {fill:#211813;fill-rule:nonzero}
    .fil9 {fill:#46A4DD;fill-rule:nonzero}
    .fil12 {fill:#64A6CC;fill-rule:nonzero}
    .fil1 {fill:#F9FCFD;fill-rule:nonzero}
    .fil11 {fill:#FDF9F7;fill-rule:nonzero}
    .fil10 {fill:#FDFBF9;fill-rule:nonzero}
    .fil8 {fill:#FDFBFF;fill-rule:nonzero}
   ]]>
  </style>
 </defs>
 <g id="Layer_x0020_1">
  <metadata id="CorelCorpID_0Corel-Layer"/>
  <g id="_988079696">
   <g>
    <path class="fil0" d="M465.56 83.58c14.76,-12.21 32.03,-20.69 48.42,-30.46 0.97,19.08 -12.9,36.23 -9.62,55.7 -1.83,6.46 -6.67,12.06 -8.8,18.57 -9.29,-1.04 -18.57,-2.14 -27.86,-3.03 1.58,-12.03 11.6,-20.15 15.22,-31.4 -8.57,2.37 -14.53,9.24 -20.76,15.06 -9.39,9.21 -20.1,18.4 -23.23,31.78 11.7,5.72 24.96,5.62 37.45,8.45 56.71,8.37 112.92,20.84 167.65,37.86 -1.83,0.56 -5.47,1.73 -7.28,2.29 3.97,7.2 8.57,14.07 11.81,21.65 -0.76,0.76 -2.24,2.29 -3,3.08 -7.4,-1.58 -14.22,-4.91 -21.3,-7.48 -19.46,-7.25 -39.67,-12.57 -60.07,-16.46 -6.34,-1.48 -12.82,-0.2 -17.94,3.82 4.83,2.14 9.72,4.38 13.59,8.07 -10.63,1.65 -21.45,1.35 -32.11,0.13 7.1,-1.2 14.22,-2.34 21.4,-3.13 -18.52,-2.87 -37.4,-6.03 -56.15,-3.49 -32.11,4.68 -64.24,14.73 -90.48,34.37 -17.2,12.93 -28.57,35.49 -23.08,57.1 1.15,10.2 9.06,17.55 13,26.64 -0.23,0.48 -0.71,1.45 -0.94,1.93 -23.03,7.25 -48.29,7.48 -69.82,19.39 -18.75,8.88 -34.88,24.45 -41.93,44.22 -6.18,21.32 1.68,43.71 12.49,62.16 6,13.23 16.97,23.08 24.99,34.98 -8.27,0.92 -15.6,-3.49 -22.92,-6.56 -12.42,-5.67 -25.72,-10.03 -36.23,-19.08 -14.27,-12.09 -22.67,-29.29 -33.61,-44.09 1.93,24.32 11.78,49.33 32.64,63.43 8.09,7.84 20.66,7.76 28.17,16.31 -4.71,-1.83 -9.41,-3.64 -14.1,-5.5 1.37,28.42 8.45,56.71 23,81.34 27.38,51.98 79.54,87.22 100.78,142.84 2.14,-28.39 -8.5,-55.49 -15.9,-82.41 11.98,18.88 29.31,33.36 45.59,48.37 34.86,30.66 69.61,64.91 84.62,110.04 0.02,3.49 0.05,6.95 0.1,10.43 9.08,-9.26 18.27,-19.9 19.29,-33.46 9.74,-66.25 -25.37,-127.78 -26.84,-193.24 -0.03,-12.06 1.5,-24.27 5.29,-35.72 3.44,-7.48 8.88,-13.79 14.1,-20.07 10.18,-1.96 18.47,-8.45 27.3,-13.46 -1.35,-0.18 -4.05,-0.53 -5.42,-0.71 6.72,-2.01 13.38,-4.22 20.23,-5.75 0.38,0.02 1.14,0.05 1.53,0.08 1.04,1.3 2.04,2.67 3.05,4.05l0.69 0.97c-5.95,5.19 -8.85,12.62 -9.9,20.28 -5.75,20.94 6.56,41.19 19.23,56.87 18.88,20.18 39.23,38.93 58.8,58.42 28.14,30.07 53.2,66.05 58.34,107.93 0.92,15.24 0.43,30.56 0.2,45.82 0.13,7.68 -3.21,14.73 -6.54,21.45 -5.39,-3.36 -7,-9.72 -9.46,-15.14 -4.76,-11.12 -10.76,-21.98 -19.74,-30.25 -2.9,-3.46 -7.89,-6.39 -7.71,-11.45 0.38,-22.95 2.77,-46.46 -3.1,-68.95 -8.93,24.55 -10.71,50.96 -19.44,75.59 -11.02,31.42 -31.63,58.8 -56.18,80.99 -35.85,32.44 -76.99,58.42 -119,82.08 -10.58,-6.59 -7.02,-20.33 -9.64,-30.63 -6.36,-22.21 -13.23,-44.42 -23.94,-64.98 -4.66,-7.02 -10.1,-13.51 -13.54,-21.27 -13.79,-23.05 -30,-44.55 -46.43,-65.75 -20.81,-21.83 -37.73,-46.89 -57.4,-69.69 -20.58,-25.8 -38.62,-53.81 -52.54,-83.79 -5.57,-15.37 -8.42,-31.52 -12.65,-47.27 -2.72,-9.36 -3.33,-19.13 -3.82,-28.83 -3.05,13.23 -1.96,26.87 -1.93,40.33 1.2,27.35 10.46,53.53 20.3,78.82 24.5,53.61 60.99,100.48 89.59,151.79 5.27,8.7 10.36,17.61 13.46,27.35 -25.32,-14.68 -46.56,-35.09 -70.15,-52.21 -30,-23.99 -60.48,-47.96 -85.62,-77.25 -17.48,-18.5 -30.18,-41.12 -39.06,-64.86 -4.71,-12.16 -4.4,-25.39 -7.33,-37.94 -0.99,16.28 -1.02,32.72 0.2,49 3.69,20.71 13.13,39.69 20.3,59.31 -12.8,-10.48 -17.66,-26.92 -24.68,-41.24 -5.7,-14.58 -15.37,-27.73 -17.35,-43.56 -1.58,-12.09 -7.25,-23.38 -7.07,-35.7 -0.05,-21.12 -4.17,-42.19 -1.65,-63.3 2.72,-14.58 6.21,-29 9.03,-43.58 -0.81,-1.83 -2.47,-5.55 -3.28,-7.38 -4.38,9.34 -5.37,20 -11.17,28.73 1.68,-18.4 8.68,-35.7 14.81,-52.97 5.11,-14.83 13.38,-28.5 16.74,-43.94 -14.99,12.26 -27.99,26.82 -37.55,43.69 -0.1,-11.91 8.24,-20.94 12.29,-31.5 4.91,-13.77 14.58,-24.99 20.76,-38.14 6.49,-8.47 12.42,-17.3 17.58,-26.61 10.76,-9.21 18.5,-21.27 29.29,-30.46 14.76,-13.31 29.08,-27.07 43.92,-40.28 11.22,-8.73 24.02,-15.11 35.75,-23.1 2.59,-1.12 3.15,-3.97 4.17,-6.26 9.72,-5.22 19.85,-9.67 29.95,-14.15 -39.95,-1.53 -78.44,13.46 -112.64,32.95 5.75,-13.05 18.93,-19.54 29.39,-28.19 13.71,-11.37 28.5,-21.55 44.45,-29.54 23.84,-12.85 48.14,-27.63 75.9,-29.08 5.47,-0.41 3.41,-7.12 2.93,-10.56 10.79,-2.93 22.08,-2.49 33.08,-1.25 -3.94,16.18 -11.25,31.85 -9.31,48.98 12.11,-20.89 24.73,-41.9 42.01,-59 6.72,-6.84 12.75,-14.38 19.44,-21.27 10.43,-10.94 23.36,-18.98 34.93,-28.65z"/>
   </g>
   <g>
    <g>
     <path class="fil1" d="M520.95 13.38c16.44,-5.67 33.43,-9.41 50.35,-13.38 -18.57,39.95 -38.19,79.41 -58.32,118.56 68.72,11.4 136.07,29.62 203.06,48.37 -0.23,15.34 -2.85,31.45 3.46,46.05 11.58,29.59 38.93,48.98 65.85,63.61 30.48,17.43 65.8,26.28 93.12,49.11 13.92,11.65 26.72,27.91 25.65,47.1 0.48,18.45 -12.01,33.74 -25.8,44.47 -18.04,12.9 -39.77,19.57 -61.52,22.75 -30.66,35.95 -70.35,63 -112.66,83.4 -13.64,6.26 -26.87,13.51 -40.76,19.11 12.93,-12.37 25.7,-24.93 37.48,-38.42 5.27,-5.83 10.79,-11.4 16.23,-17.05 -22.64,4.33 -45.64,6.69 -68.65,7.99 -1.12,0.1 -3.38,0.28 -4.53,0.38 -14.99,1.04 -30.02,1.37 -45.06,1.65 -10.28,-0.46 -20.46,1.12 -30.68,1.37 4.33,31.8 27.76,56.18 51.52,75.69 28.65,23.89 61.17,44.17 83.56,74.68 24.2,31.04 36.66,71.01 34.12,110.3 -3.38,56.48 -27.78,108.8 -53.53,158.23 -5.67,9.34 -9.24,20.33 -16.41,28.52 -3.72,-45.9 -3.31,-92.77 -16.77,-137.27 -3.51,1.88 -4.2,6.11 -5.8,9.41 -17.43,41.04 -47.4,75.54 -81.49,103.73 -44.35,36.79 -95.49,64.07 -146.6,90.15 -8.8,4.1 -17,9.49 -26.23,12.62 0.74,-26.56 -0.51,-53.74 -9.95,-78.87 -12.44,-34.98 -37.55,-63.33 -62.69,-89.84 -38.65,-40.07 -81.55,-76.02 -117.62,-118.57 -6.49,41.93 1.55,83.94 4.66,125.72 -46.64,-31.47 -82.39,-77.6 -103.33,-129.66 -22.64,-56.15 -32.77,-116.86 -34.04,-177.19 1.88,-16.84 0.53,-33.99 4.33,-50.61 -25.88,15.67 -48.83,35.47 -71.88,54.91 -0.23,-66.66 17.2,-133.68 51.98,-190.72 16.92,-28.98 39.08,-54.35 61.29,-79.23 -27.66,6.84 -55.26,13.94 -82.95,20.61 19.51,-28.55 41.29,-55.57 65.62,-80.2 48.65,-49 108.85,-87.55 175.69,-106.17 37.58,-10.86 76.81,-15.9 115.92,-15.34 32.26,-45.67 80.53,-78.7 133.4,-95.97zm-127.39 107.32l0 0c-50.12,-0.89 -100.6,7.43 -147.16,26.21 -66.86,26.11 -125.03,71.52 -171.33,125.92 -5.04,6.67 -11.14,12.54 -15.11,19.97 29.31,-8.57 59.21,-15.16 89.31,-20.38 -2.88,4.2 -7.12,7.12 -10.89,10.46 -21.8,19.67 -41.07,42.03 -58.21,65.87 -38.37,54.98 -67.12,119.48 -68.7,187.41 23.2,-20.25 48.37,-38.62 76.08,-52.23 -6.59,26.84 -8.7,54.63 -8.22,82.21 2.01,68.01 18.19,136.07 49.56,196.6 15.27,29.77 35.62,57.32 62.41,77.68 -3.33,-42.19 -10.92,-86.18 4.48,-127.06 47.76,63.56 114.37,109.61 163.14,172.25 26.64,34.2 45.16,76.3 43.66,120.35 28.98,-13.71 57.15,-29.21 84.85,-45.34 39.97,-23.94 78.54,-51.45 109.2,-86.84 22.52,-27.02 41.12,-58.42 48.57,-93.07 0.79,0.08 2.34,0.23 3.13,0.31 25.04,37.25 24.12,84.29 27.05,127.34 5.73,-8.09 9.69,-17.2 14.15,-26 19.29,-40.86 35.65,-84.52 36.33,-130.24 0.74,-32.21 -8.45,-64.78 -27.48,-90.93 -28.9,-41.78 -74.8,-66.41 -110.55,-101.32 -13.23,-12.82 -24.78,-28.22 -29.16,-46.41 1.04,-7.66 3.94,-15.09 9.9,-20.28l-0.69 -0.97c3.59,-2.24 6.77,-6.11 11.4,-5.88 47.1,-1.96 94.57,-2.52 141.01,-11.47 8.32,-1.3 16.23,-4.63 24.68,-5.06 -8.27,14.38 -20.3,25.95 -32.08,37.4 32.01,-16.92 60.71,-39.64 86.4,-65.03 4.78,-4.25 8.01,-10.46 13.77,-13.46 24.3,-2.06 49,-10.71 66.76,-27.86 12.04,-11.37 17.38,-30.46 8.96,-45.49 -10.66,-20.05 -31.29,-32.26 -51.17,-41.7 -34.37,-15.06 -69.79,-29.85 -98.39,-54.75 -18.27,-15.67 -32.36,-37.33 -35.09,-61.62 -1.35,-7.68 0.36,-15.55 -1.27,-23.18 -2.19,-0.36 -6.59,-1.07 -8.78,-1.4 -65.47,-17.96 -131.21,-35.8 -198.51,-45.29 2.14,-6.51 6.97,-12.11 8.8,-18.57 15.49,-26.49 27.73,-54.73 41.55,-82.11 1.78,-3.71 3.99,-7.35 4.53,-11.53 -62.13,15.75 -119.99,52.67 -156.88,105.51z"/>
    </g>
   </g>
   <g>
    <path class="fil2" d="M393.56 120.7c36.89,-52.85 94.75,-89.76 156.88,-105.51 -0.53,4.17 -2.75,7.81 -4.53,11.53 -13.82,27.38 -26.05,55.62 -41.55,82.11 -3.28,-19.46 10.58,-36.61 9.62,-55.7 -16.39,9.77 -33.66,18.24 -48.42,30.46 -11.58,9.67 -24.5,17.71 -34.93,28.65 -6.69,6.89 -12.72,14.43 -19.44,21.27 -17.28,17.1 -29.9,38.11 -42.01,59 -1.93,-17.12 5.37,-32.8 9.31,-48.98 -10.99,-1.25 -22.29,-1.68 -33.08,1.25 -12.47,3.51 -25.6,3.26 -38.06,6.67 -22.9,6.31 -45.42,14.12 -66.76,24.6 -36.61,19.64 -70.53,44.35 -100.2,73.43 13.36,0.92 26.49,-2.26 39.82,-2.54 4.76,0.38 8.7,-2.42 12.54,-4.78 34.2,-19.49 72.69,-34.48 112.64,-32.95 -10.1,4.48 -20.23,8.93 -29.95,14.15 -25.85,12.11 -50.68,26.59 -73,44.45 -23.56,16.03 -43.3,36.71 -62.64,57.43 -16.26,19.9 -32.26,40.35 -43.53,63.56 -16.87,24.3 -25.27,53 -35.14,80.53 12.14,-2.19 22.59,-9.13 33.36,-14.71 5.27,-2.21 5.06,-8.65 6.79,-13.23 1.63,-8.01 6.44,-14.71 10.41,-21.68 9.57,-16.87 22.57,-31.42 37.55,-43.69 -3.36,15.44 -11.63,29.11 -16.74,43.94 -6.13,17.28 -13.13,34.58 -14.81,52.97 -10.86,44.81 -9.67,91.77 -4.12,137.27 2.98,16.77 6.26,33.84 13.71,49.31 8.4,23.51 18.27,46.48 29.62,68.72 2.11,3.94 5.11,7.3 7.91,10.76 1.58,-14.53 6.03,-28.5 12.52,-41.52 3.82,-6.41 0.03,-13.03 -3.46,-18.5 -7.18,-19.62 -16.61,-38.6 -20.3,-59.31 -1.22,-16.28 -1.2,-32.72 -0.2,-49 2.93,12.54 2.62,25.77 7.33,37.94 8.88,23.74 21.58,46.36 39.06,64.86 25.14,29.28 55.62,53.25 85.62,77.25 23.59,17.12 44.83,37.53 70.15,52.21 -3.1,-9.74 -8.19,-18.65 -13.46,-27.35 -28.6,-51.32 -65.08,-98.18 -89.59,-151.79 -9.85,-25.29 -19.11,-51.47 -20.3,-78.82 -0.03,-13.46 -1.12,-27.1 1.93,-40.33 0.48,9.69 1.09,19.46 3.82,28.83 4.22,15.75 7.07,31.91 12.65,47.27 13.92,29.97 31.96,57.99 52.54,83.79 19.67,22.8 36.59,47.86 57.4,69.69 16.44,21.19 32.64,42.69 46.43,65.75 3.43,7.76 8.88,14.25 13.54,21.27 10.71,20.56 17.58,42.77 23.94,64.98 2.62,10.3 -0.94,24.04 9.64,30.63 42.01,-23.66 83.15,-49.64 119,-82.08 24.55,-22.19 45.16,-49.56 56.18,-80.99 8.73,-24.63 10.51,-51.04 19.44,-75.59 5.88,22.49 3.49,46 3.1,68.95 -0.18,5.06 4.81,7.99 7.71,11.45 8.98,8.27 14.99,19.13 19.74,30.25 2.47,5.42 4.07,11.78 9.46,15.14 3.33,-6.72 6.67,-13.76 6.54,-21.45 0.23,-15.27 0.71,-30.58 -0.2,-45.82 -5.14,-41.88 -30.2,-77.86 -58.34,-107.93 -19.57,-19.49 -39.92,-38.24 -58.8,-58.42 -12.67,-15.67 -24.98,-35.93 -19.23,-56.87 4.38,18.19 15.93,33.59 29.16,46.41 35.75,34.91 81.65,59.54 110.55,101.32 19.03,26.15 28.22,58.72 27.48,90.93 -0.69,45.72 -17.05,89.38 -36.33,130.24 -4.45,8.8 -8.42,17.91 -14.15,26 -2.92,-43.05 -2.01,-90.09 -27.05,-127.34 -0.79,-0.08 -2.34,-0.23 -3.13,-0.31 -7.45,34.65 -26.05,66.05 -48.57,93.07 -30.66,35.39 -69.23,62.9 -109.2,86.84 -27.71,16.13 -55.87,31.63 -84.85,45.34 1.5,-44.04 -17.02,-86.15 -43.66,-120.35 -48.77,-62.64 -115.39,-108.69 -163.14,-172.25 -15.39,40.89 -7.81,84.88 -4.48,127.06 -26.79,-20.35 -47.15,-47.91 -62.41,-77.68 -31.37,-60.53 -47.55,-128.59 -49.56,-196.6 -0.48,-27.58 1.63,-55.36 8.22,-82.21 -27.71,13.61 -52.87,31.98 -76.08,52.23 1.58,-67.93 30.33,-132.43 68.7,-187.41 17.15,-23.84 36.41,-46.2 58.21,-65.87 3.77,-3.33 8.01,-6.26 10.89,-10.46 -30.1,5.22 -60,11.81 -89.31,20.38 3.97,-7.43 10.08,-13.31 15.11,-19.97 46.31,-54.4 104.47,-99.81 171.33,-125.92 46.56,-18.78 97.04,-27.1 147.16,-26.21z"/>
   </g>
   <g>
    <g>
     <path class="fil3" d="M462.15 108.03c6.23,-5.83 12.19,-12.7 20.76,-15.06 -3.61,11.25 -13.64,19.36 -15.22,31.4 9.29,0.89 18.57,1.98 27.86,3.03 67.3,9.49 133.04,27.33 198.51,45.29 2.19,0.33 6.59,1.04 8.78,1.4 1.63,7.63 -0.08,15.49 1.27,23.18 2.72,24.3 16.82,45.95 35.09,61.62 28.6,24.91 64.02,39.69 98.39,54.75 19.87,9.44 40.51,21.65 51.17,41.7 8.42,15.04 3.08,34.12 -8.96,45.49 -17.76,17.15 -42.46,25.8 -66.76,27.86 -5.75,3 -8.98,9.21 -13.77,13.46 -25.7,25.39 -54.4,48.11 -86.4,65.03 11.78,-11.45 23.81,-23.03 32.08,-37.4 -8.45,0.43 -16.36,3.77 -24.68,5.06 -46.43,8.96 -93.91,9.52 -141.01,11.47 -4.63,-0.23 -7.81,3.64 -11.4,5.88 -1.02,-1.37 -2.01,-2.75 -3.05,-4.05 -0.38,-0.02 -1.15,-0.05 -1.53,-0.08 -23.1,-1.02 -46.1,2.19 -68.95,5.19 -26.92,3.84 -54.47,10.51 -77.19,26.13 -4.22,-1.6 -8.45,-3.23 -12.65,-4.83 22.49,-26.36 57.68,-36.77 90.73,-42.08 48.72,-8.42 98.39,-8.01 147.57,-11.98 33.59,-2.34 67.5,-5.42 99.81,-15.52 7.91,-2.75 15.62,-6.03 23.33,-9.39 -12.44,-1.2 -24.86,-2.85 -37.35,-2.98 -49.08,-4.63 -97.45,-15.14 -146.71,-17.71 -30.05,-1.07 -61.14,-0.51 -89.41,10.86 -5.42,6.08 -4.96,15.06 -9.44,21.75 -7.73,-18.42 -4.1,-39.54 5.44,-56.56 9.9,-19.59 25.42,-35.47 41.8,-49.74 -14.55,-2.8 -29.41,-2.11 -44.12,-2.82 21.7,-11.17 45.62,-19.62 70.4,-18.34 32.44,-0.94 62.82,12.42 91.65,25.72 -7.94,-9.06 -16.05,-17.99 -23.54,-27.43 49.31,24.58 90.4,64.7 143.75,81.29 25.75,8.8 55.85,7.86 78.95,-7.56 1.37,-0.84 2.77,-1.68 4.17,-2.54 -18.27,-10.97 -40.53,-16.26 -54.96,-32.82 -3.08,-2.87 -2.24,-7.43 -2.98,-11.19 12.09,-7.46 27.07,-4.96 40.51,-7.53 -12.87,-8.45 -28.09,-11.91 -41.65,-19.01 -27.71,-12.93 -55.11,-27.3 -78.75,-46.92 -10.61,-8.5 -18.98,-19.44 -26.16,-30.89 -17.96,5.67 -24.73,28.39 -44.4,31.09 -23.99,0.84 -45.59,-12.11 -64.42,-25.62 -10.71,-7.05 -17.07,-21.14 -30.76,-22.95 -8.34,-1.45 -16.82,-1.86 -25.24,-2.32 15.39,-11.91 35.8,-11.63 54.19,-9.59 27.5,3.59 52.69,20.1 81.01,17.68 5.6,0.18 10.1,-4.1 11.88,-9.13 -1.58,-5.98 -4.17,-11.65 -6.49,-17.38 4.17,0.38 8.37,0.76 12.57,1.17 -1.35,-2.67 -2.67,-5.32 -3.97,-7.96 -9.31,-3.38 -18.83,-6.18 -27.94,-10.05 -54.73,-17.02 -110.93,-29.49 -167.65,-37.86 -12.49,-2.82 -25.75,-2.72 -37.45,-8.45 3.13,-13.38 13.84,-22.57 23.23,-31.78zm119.35 124.88l0 0c17.76,13.94 41.02,26.74 64.24,19.95 -22.01,-4.63 -43.2,-12.14 -64.24,-19.95zm-45.29 132.76l0 0c12.93,0.71 25.77,2.34 38.65,3.84 4.94,-4.73 9.54,-9.8 14.05,-14.96 -0.25,5.6 -0.66,11.2 -1.09,16.82 29.97,4.96 60.38,10.92 88.08,23.74 -18.27,-5.19 -37.1,-8.32 -55.87,-10.94 -6.08,-1.73 -9.64,8.68 -15.32,5.01 -0.28,-1.45 -0.84,-4.38 -1.14,-5.83l0.61 -0.92c-27.94,-1.78 -55.95,-2.39 -83.86,-0.25 -3.84,4.71 -7.76,9.31 -11.86,13.82 29.44,-5.52 59.54,-5.85 89.31,-3.56 29.54,2.7 58.82,7.4 88.14,11.78 10.36,1.14 20.58,3.82 31.07,2.95 -10.23,-3.1 -19.77,-7.99 -29.31,-12.72 -38.83,-19.18 -78.01,-38.57 -120.58,-48.01 -11.27,4.73 -21.07,12.06 -30.86,19.23z"/>
    </g>
   </g>
   <g>
    <path class="fil4" d="M307.36 151.44c12.47,-3.41 25.6,-3.16 38.06,-6.67 0.48,3.44 2.54,10.15 -2.93,10.56 -27.76,1.45 -52.06,16.23 -75.9,29.08 -15.95,7.99 -30.74,18.17 -44.45,29.54 -10.46,8.65 -23.64,15.14 -29.39,28.19 -3.84,2.37 -7.79,5.17 -12.54,4.78 -13.33,0.28 -26.46,3.46 -39.82,2.54 29.67,-29.08 63.58,-53.79 100.2,-73.43 21.35,-10.48 43.86,-18.29 66.76,-24.6z"/>
   </g>
   <g>
    <path class="fil5" d="M636.75 188.41c1.81,-0.56 5.44,-1.73 7.28,-2.29 9.11,3.87 18.62,6.67 27.94,10.05 1.3,2.65 2.62,5.29 3.97,7.96 -4.2,-0.41 -8.4,-0.79 -12.57,-1.17 2.32,5.73 4.91,11.4 6.49,17.38 -1.78,5.04 -6.28,9.31 -11.88,9.13 -28.32,2.42 -53.51,-14.1 -81.01,-17.68 -18.4,-2.04 -38.8,-2.32 -54.19,9.59 8.42,0.46 16.89,0.86 25.24,2.32 13.69,1.81 20.05,15.9 30.76,22.95 18.83,13.51 40.43,26.46 64.42,25.62 19.67,-2.7 26.44,-25.42 44.4,-31.09 7.17,11.45 15.55,22.39 26.16,30.89 23.64,19.62 51.04,33.99 78.75,46.92 13.56,7.1 28.78,10.56 41.65,19.01 -13.43,2.57 -28.42,0.08 -40.51,7.53 0.74,3.77 -0.1,8.32 2.98,11.19 14.43,16.56 36.69,21.86 54.96,32.82 -1.4,0.87 -2.8,1.7 -4.17,2.54 -25.19,3.99 -51.47,3.84 -75.49,-5.67 -46.64,-19.06 -82.13,-56.87 -127.29,-78.59 -16.61,-7.89 -34.27,-14.32 -52.69,-16.05 5.83,7.61 11.37,15.42 15.85,23.89 -27.45,-10.71 -57.93,-15.14 -86.91,-8.37 -15.55,2.67 -29.39,10.3 -43.18,17.5 4.91,-9.41 10.36,-18.5 15.14,-27.96 -18.96,7.73 -39.23,15.34 -60.02,11.25 -6.77,-1.91 -13.33,-4.5 -20.23,-5.88 -9.67,-9.85 -12.82,-24.48 -9.72,-37.71 3.71,-7.58 7.99,-15.14 13.71,-21.37 30.66,-26.74 71.39,-38.24 111.16,-41.91 10.66,1.22 21.47,1.53 32.11,-0.13 -3.87,-3.69 -8.75,-5.93 -13.59,-8.07 5.11,-4.02 11.6,-5.29 17.94,-3.82 20.4,3.89 40.61,9.21 60.07,16.46 7.07,2.57 13.89,5.9 21.3,7.48 0.76,-0.79 2.24,-2.32 3,-3.08 -3.23,-7.58 -7.84,-14.45 -11.81,-21.65z"/>
    <path class="fil5" d="M117.7 472.91c5.8,-8.73 6.79,-19.39 11.17,-28.73 0.81,1.83 2.47,5.55 3.28,7.38 -2.82,14.58 -6.31,29 -9.03,43.58 -2.52,21.12 1.6,42.19 1.65,63.3 -0.18,12.31 5.5,23.61 7.07,35.7 1.98,15.83 11.65,28.98 17.35,43.56 7.02,14.32 11.88,30.76 24.68,41.24 3.49,5.47 7.28,12.09 3.46,18.5 -6.49,13.03 -10.94,27 -12.52,41.52 -2.8,-3.46 -5.8,-6.82 -7.91,-10.76 -11.35,-22.24 -21.22,-45.21 -29.62,-68.72 -0.69,-21.35 -7.45,-41.88 -12.31,-62.51 -0.53,4.38 -1.07,8.78 -1.4,13.21 -5.55,-45.49 -6.74,-92.46 4.12,-137.27z"/>
   </g>
   <g>
    <path class="fil6" d="M402.49 228.96c26.23,-19.64 58.37,-29.69 90.48,-34.37 18.75,-2.54 37.63,0.61 56.15,3.49 -7.17,0.79 -14.3,1.93 -21.4,3.13 -39.77,3.66 -80.5,15.16 -111.16,41.91 -5.73,6.23 -10,13.79 -13.71,21.37 -3.1,13.23 0.05,27.86 9.72,37.71 12.87,12.37 27.99,21.88 41.85,33.03 -28.9,0.53 -57.88,2.37 -86.3,7.86 -21.55,4.63 -44.7,11.25 -59.66,28.5 -13.13,15.42 -8.93,38.27 0.79,54.37 18.73,31.35 47.12,55.26 74.5,78.8 -33.59,-0.43 -67.55,-5.9 -98.49,-19.36 -7.51,-8.55 -20.07,-8.47 -28.17,-16.31 -20.86,-14.1 -30.71,-39.11 -32.64,-63.43 10.94,14.81 19.34,32.01 33.61,44.09 10.51,9.06 23.81,13.41 36.23,19.08 7.33,3.08 14.66,7.48 22.92,6.56 -8.01,-11.91 -18.98,-21.75 -24.99,-34.98 -10.81,-18.45 -18.68,-40.84 -12.49,-62.16 7.05,-19.77 23.18,-35.34 41.93,-44.22 21.52,-11.91 46.79,-12.14 69.82,-19.39 0.23,-0.48 0.71,-1.45 0.94,-1.93 -3.94,-9.08 -11.86,-16.44 -13,-26.64 -5.5,-21.6 5.88,-44.17 23.08,-57.1z"/>
   </g>
   <g>
    <path class="fil7" d="M202.45 267.79c22.31,-17.86 47.15,-32.34 73,-44.45 -1.02,2.29 -1.58,5.14 -4.17,6.26 -11.73,7.99 -24.53,14.38 -35.75,23.1 -14.83,13.21 -29.16,26.97 -43.92,40.28 -10.79,9.18 -18.52,21.25 -29.29,30.46 -5.16,9.31 -11.09,18.14 -17.58,26.61 -6.18,13.15 -15.85,24.37 -20.76,38.14 -4.05,10.56 -12.39,19.59 -12.29,31.5 -3.97,6.97 -8.78,13.66 -10.41,21.68 -1.73,4.58 -1.53,11.02 -6.79,13.23 -10.76,5.57 -21.22,12.52 -33.36,14.71 9.87,-27.53 18.27,-56.23 35.14,-80.53 11.27,-23.2 27.28,-43.66 43.53,-63.56 19.34,-20.71 39.08,-41.4 62.64,-57.43z"/>
   </g>
   <g>
    <path class="fil8" d="M581.51 232.92c21.04,7.81 42.24,15.3 64.24,19.93 -23.23,6.79 -46.48,-6 -64.24,-19.93z"/>
   </g>
   <g>
    <path class="fil9" d="M591.91 291.76c18.42,1.73 36.08,8.17 52.69,16.05 45.16,21.73 80.65,59.54 127.29,78.59 24.02,9.52 50.3,9.67 75.49,5.67 -23.1,15.42 -53.2,16.36 -78.95,7.56 -53.36,-16.59 -94.45,-56.71 -143.75,-81.29 7.48,9.44 15.6,18.37 23.54,27.43 -28.83,-13.31 -59.21,-26.67 -91.65,-25.72 -24.78,-1.27 -48.7,7.17 -70.4,18.34 14.71,0.71 29.57,0.02 44.12,2.82 -16.39,14.27 -31.91,30.15 -41.8,49.74 -9.54,17.02 -13.18,38.14 -5.44,56.56 4.48,-6.69 4.02,-15.67 9.44,-21.75 28.27,-11.37 59.36,-11.93 89.41,-10.86 49.26,2.57 97.63,13.08 146.71,17.71 6.16,2.24 13.54,4.68 14.02,12.37 -32.31,10.1 -66.23,13.18 -99.81,15.52 -49.18,3.97 -98.85,3.56 -147.57,11.98 -33.05,5.32 -68.24,15.72 -90.73,42.08 -8.57,9.59 -12.95,21.98 -15.19,34.45 6.97,-11.75 16.49,-21.96 27.84,-29.62 22.72,-15.62 50.28,-22.29 77.19,-26.13 8.78,0.53 18.09,0.58 25.82,5.42 -1.53,0.48 -4.53,1.45 -6.03,1.91 -21.83,6.36 -40.35,23.99 -44.78,46.71 -5.5,34.48 4.27,68.8 14.17,101.54 11.86,42.87 30.4,85.77 25.72,131.21 -15.01,-45.14 -49.77,-79.38 -84.62,-110.04 -16.28,-15.01 -33.61,-29.49 -45.59,-48.37 7.4,26.92 18.04,54.02 15.9,82.41 -21.25,-55.62 -73.4,-90.86 -100.78,-142.84 -14.55,-24.63 -21.63,-52.92 -23,-81.34 4.68,1.86 9.39,3.66 14.1,5.5 30.94,13.46 64.91,18.93 98.49,19.36 -27.38,-23.54 -55.77,-47.45 -74.5,-78.8 -9.72,-16.11 -13.92,-38.95 -0.79,-54.37 14.96,-17.25 38.11,-23.87 59.66,-28.5 28.42,-5.5 57.4,-7.33 86.3,-7.86 -13.87,-11.14 -28.98,-20.66 -41.85,-33.03 6.9,1.37 13.46,3.97 20.23,5.88 20.79,4.1 41.07,-3.51 60.02,-11.25 -4.78,9.46 -10.23,18.55 -15.14,27.96 13.79,-7.2 27.63,-14.83 43.18,-17.5 28.98,-6.77 59.46,-2.34 86.91,8.37 -4.48,-8.47 -10.02,-16.28 -15.85,-23.89z"/>
   </g>
   <g>
    <path class="fil10" d="M536.22 365.67c9.8,-7.18 19.59,-14.5 30.86,-19.23 42.57,9.44 81.75,28.83 120.58,48.01 9.54,4.73 19.08,9.62 29.31,12.72 -10.48,0.87 -20.71,-1.81 -31.07,-2.95 -29.31,-4.38 -58.6,-9.08 -88.14,-11.78 1.93,-3.03 3.87,-6.06 5.8,-9.08 0.31,1.45 0.87,4.38 1.14,5.83 5.67,3.66 9.24,-6.74 15.32,-5.01 18.78,2.62 37.61,5.75 55.87,10.94 -27.71,-12.82 -58.11,-18.78 -88.08,-23.74 0.43,-5.62 0.84,-11.22 1.09,-16.82 -4.5,5.17 -9.11,10.23 -14.05,14.96 -12.87,-1.5 -25.72,-3.13 -38.65,-3.84z"/>
   </g>
   <g>
    <path class="fil11" d="M520.32 382.18c27.91,-2.14 55.92,-1.53 83.86,0.25l-0.61 0.92c-1.93,3.03 -3.87,6.06 -5.8,9.08 -29.77,-2.29 -59.87,-1.96 -89.31,3.56 4.1,-4.5 8.01,-9.11 11.86,-13.82z"/>
   </g>
   <g>
    <path class="fil12" d="M728.6 432.61c12.49,0.13 24.91,1.78 37.35,2.98 -7.71,3.36 -15.42,6.64 -23.33,9.39 -0.48,-7.68 -7.86,-10.13 -14.02,-12.37z"/>
    <path class="fil12" d="M494.34 493.27c22.85,-3 45.85,-6.21 68.95,-5.19 -6.84,1.53 -13.51,3.74 -20.23,5.75 -7.63,1.58 -15.32,3.03 -22.9,4.86 -7.73,-4.83 -17.05,-4.88 -25.82,-5.42z"/>
   </g>
   <g>
    <path class="fil13" d="M520.16 498.69c7.58,-1.83 15.27,-3.28 22.9,-4.86 1.37,0.18 4.07,0.53 5.42,0.71 -8.83,5.01 -17.12,11.5 -27.3,13.46 0.2,-0.99 0.61,-3 0.81,-3.99 -1.96,-0.84 -5.9,-2.54 -7.86,-3.41 1.5,-0.46 4.5,-1.43 6.03,-1.91z"/>
   </g>
   <g>
    <path class="fil14" d="M469.35 547.31c4.43,-22.72 22.95,-40.35 44.78,-46.71 1.96,0.86 5.9,2.57 7.86,3.41 -0.2,0.99 -0.61,3 -0.81,3.99 -5.22,6.28 -10.66,12.59 -14.1,20.07 -3.79,11.45 -5.32,23.66 -5.29,35.72 1.48,65.47 36.59,126.99 26.84,193.24 -1.02,13.56 -10.2,24.2 -19.29,33.46 -0.05,-3.49 -0.08,-6.95 -0.1,-10.43 4.68,-45.44 -13.87,-88.34 -25.72,-131.21 -9.9,-32.75 -19.67,-67.07 -14.17,-101.54z"/>
   </g>
   <g>
    <path class="fil15" d="M389.31 549.01c2.24,-12.47 6.62,-24.86 15.19,-34.45 4.2,1.6 8.42,3.23 12.65,4.83 -11.35,7.66 -20.86,17.86 -27.84,29.62z"/>
   </g>
   <g>
    <path class="fil16" d="M114.98 596.97c4.86,20.63 11.63,41.17 12.31,62.51 -7.45,-15.47 -10.74,-32.54 -13.71,-49.31 0.33,-4.43 0.87,-8.83 1.4,-13.21z"/>
   </g>
  </g>
 </g>
</svg>
