<?xml version="1.0" encoding="UTF-8"?>
<!DOCTYPE svg PUBLIC "-//W3C//DTD SVG 1.1//EN" "http://www.w3.org/Graphics/SVG/1.1/DTD/svg11.dtd">
<!-- Creator: CorelDRAW 2018 (64-Bit) -->
<svg xmlns="http://www.w3.org/2000/svg" xml:space="preserve" width="7.55194in" height="8.23831in" version="1.1" style="shape-rendering:geometricPrecision; text-rendering:geometricPrecision; image-rendering:optimizeQuality; fill-rule:evenodd; clip-rule:evenodd"
viewBox="0 0 1880.8 2051.74"
 xmlns:xlink="http://www.w3.org/1999/xlink">
 <defs>
  <style type="text/css">
   <![CDATA[
    .fil1 {fill:#132815;fill-rule:nonzero}
    .fil4 {fill:#47813A;fill-rule:nonzero}
    .fil2 {fill:#63AB45;fill-rule:nonzero}
    .fil3 {fill:#A3CD39;fill-rule:nonzero}
    .fil0 {fill:#F6F5F5;fill-rule:nonzero}
   ]]>
  </style>
 </defs>
 <g id="Layer_x0020_1">
  <metadata id="CorelCorpID_0Corel-Layer"/>
  <g id="_1011785744">
   <g>
    <g>
     <path class="fil0" d="M835.05 34.93c91.86,-35.4 194.54,-47.86 289.85,-18.68 86.87,24.26 166.11,73.67 227.24,139.8 6.64,10.73 19.67,9.83 30.49,11.64 73.18,7.05 145.05,26.63 212.08,56.54 118.74,47.69 210.77,150.62 253.63,270.26 47.61,127.92 44.25,276.57 -19.26,398.59 -45.4,89.16 -125.71,159.72 -219.62,194.21 -6.89,3.77 -28.27,5.9 -19.83,17.87 35.16,45.73 66.46,94.4 102.76,139.31 -48.68,-2.3 -97.43,-10.33 -146.11,-4.51 -68.1,3.36 -134.64,21.96 -197.41,47.86 -110.71,48.51 -199.3,141.44 -245.51,252.89 -32.45,110.39 -47.61,226.67 -96.53,331.56 -28.11,60.56 -76.13,110.79 -133.33,144.72 -16.47,11.64 -33.43,22.86 -49.82,34.75 16.47,-99.98 5.9,-202.82 -29.99,-297.39 -38.27,-95.31 -103.99,-178.48 -187.99,-237.48 -18.27,-11.31 -35.24,-25.73 -56.38,-31.55 -24.09,83.99 -50.65,171.68 -36.47,259.77 -15.08,2.29 -30.07,4.75 -45.15,7.13 10.16,46.96 20.41,94 34.01,140.13 -6.15,-5.08 -12.37,-10.08 -18.6,-15 -63.02,-48.02 -131.36,-87.93 -197.66,-131.11 -58.18,-52.12 -71.46,-133.74 -94.81,-204.7 -6.39,-15.49 -8.77,-38.84 -29.01,-41.88 -46.79,-14.1 -88.5,-44.66 -115.38,-85.55 -46.3,-67.69 -54.25,-155.04 -39.5,-234.04 13.28,-79.82 51.95,-153.08 98.99,-218.06 26.63,-40.65 58.27,-77.69 89.24,-115.05 41.22,-50.07 69.9,-109.97 84.98,-172.91 -18.11,-18.52 -23.44,-44.25 -34.09,-66.87 -26.31,-35.4 -62.28,-61.71 -95.39,-90.31 49.33,-17.54 98.25,-38.43 151.03,-43.02 41.38,-7.7 83.67,-3.44 125.22,-8.77 64.25,-177.33 190.04,-339.42 367.37,-413.59 13.52,-5.98 27.12,-11.55 40.97,-16.55zm-58.1 67.03l0 0c-146.03,73.43 -251.91,210.85 -307.47,362.53 -5.08,20 -22.62,32.7 -39.83,42.04 -68.26,0.65 -138,0.98 -203.48,23.19 15.9,16.23 32.94,31.39 46.87,49.33 15.32,19.75 17.54,46.3 32.53,66.21 4.83,9.1 15.24,15.9 16.55,26.47 -19.42,69.08 -46.38,137.34 -92.36,193.39 -54.17,64.41 -106.86,130.87 -146.19,205.61 -37.62,74.08 -53.68,160.13 -38.76,242.24 12.46,64.17 55.64,124.15 118.25,146.93 13.28,5.9 29.09,6.89 40.89,15.57 42.94,80.14 42.04,184.55 113.25,248.63 -0.82,-7.54 -2.54,-22.62 -3.36,-30.16 26.14,50.48 78.51,74.16 123.82,103.5 -9.84,-37.2 -15.41,-76.13 -6.47,-114.07 10.49,13.28 22.21,25.81 38.35,32.04 -0.08,-98.25 25.73,-194.71 59.25,-286.41 78.67,35.89 150.05,88.5 206.18,154.47 91.21,107.6 138.57,250.19 134.56,390.73 53.1,-35.4 93.17,-88.09 115.71,-147.5 37.7,-98.58 51.71,-204.13 84.81,-304.11 40.16,-98.01 112.1,-182.74 202.9,-237.48 101.04,-61.05 220.6,-88.26 338.12,-85.47 -23.03,-31.88 -46.3,-63.59 -71.38,-93.91 -109.15,14.75 -223.14,-28.52 -294.35,-112.6 59.49,48.92 133,82.93 211.01,84.32 134.64,1.64 269.2,-73.75 334.1,-192.58 112.27,-203.47 35.49,-492.17 -169.63,-605.51 -85.72,-45.07 -181.35,-72.11 -278.29,-76.37 -71.87,-86.37 -175.2,-148.16 -287.47,-161.93 -96.45,-12.13 -192.5,18.77 -278.13,60.89z"/>
    </g>
    <path class="fil0" d="M817.1 396.98c46.96,-87.85 142.18,-161.84 246.74,-143.98 -68.59,30.57 -135.29,65.97 -195.44,111.29 -16.55,11.55 -31.14,27.29 -51.3,32.7z"/>
    <g>
     <path class="fil0" d="M1435.07 459.09c61.62,6.64 120.79,37.37 157.99,87.52 50.97,68.59 70.8,157.17 64.58,241.58 -4.75,64.16 -29.09,129.48 -77.69,173.32 -32.12,30.16 -74.41,46.79 -117.19,54.9 -59.82,-62.03 -124.89,-121.77 -203.88,-158.4 82.6,-18.27 170.7,-71.62 183.32,-162.5 -32.04,12.54 -65.31,0.25 -92.36,-17.62 50.64,-61.71 80.14,-139.31 85.23,-218.8zm-21.06 202.08l0 0c22.78,-9.51 45.48,-19.42 68.92,-27.53 0.16,41.3 1.8,84.81 -16.31,123.08 -21.64,49.33 -64.66,84.16 -109.97,110.87 42.78,30.89 82.28,66.21 119.15,103.99 53.18,-12.78 99.16,-50.89 119.97,-101.7 34.25,-82.93 27.45,-180.53 -11.47,-260.67 -22.54,-47.28 -63.76,-84.24 -113.01,-101.78 -9.51,54.41 -30.89,105.55 -57.28,153.73z"/>
    </g>
    <g>
     <path class="fil0" d="M1104.9 578.41c63.59,-44.17 132.35,-81.78 206.51,-104.81 16.31,51.38 12.46,107.84 -10.57,156.52 8.44,10.57 16.8,21.22 24.99,32.04 -31.22,-19.09 -59.41,-43.59 -93.75,-57.2 -40.32,-16.63 -84,-22.54 -127.18,-26.55zm115.22 -21.63l0 0c19.18,6.8 38.11,14.59 56.71,22.95 2.05,-17.29 3.52,-34.66 3.93,-52.12 -20.82,8.44 -41.22,17.87 -60.64,29.17z"/>
    </g>
    <path class="fil0" d="M600.43 865.23c23.27,-38.52 62.45,-63.84 103.34,-80.55 -12.87,43.92 -52.2,92.85 -103.34,80.55z"/>
    <path class="fil0" d="M273.06 949.3c30.32,-20.73 57.28,-45.65 84.49,-70.15 -11.47,46.14 -31.06,91.95 -25.08,140.46 76.46,33.6 145.13,99.57 155.05,186.1 20.08,-9.67 36.47,-24.91 45.73,-45.32 38.59,23.85 41.38,71.62 34.01,111.86 14.26,-13.77 22.86,-31.55 31.71,-48.84 3.44,29.25 -2.21,58.67 -13.6,85.72 -7.78,24.26 -37.53,28.03 -52.44,46.71 -61.05,65.56 -84.98,156.52 -98.01,242.89 -11.96,-22.45 -23.93,-44.91 -37.86,-66.21 -13.44,51.79 -23.44,106.04 -15,159.55 -50.89,-48.84 -62.61,-122.92 -60.81,-190.36 -9.75,24.17 -18.36,48.84 -26.8,73.59 -10,-44.17 -24.58,-87.69 -45.32,-128.09 -15.65,-35.48 -62.44,-25.89 -88.83,-49.33 20.24,-11.47 42.12,-27.37 66.79,-21.88 72.61,16.23 150.62,17.54 221.18,-8.36 25.16,-9.34 54.49,-30.81 47.28,-61.62 -8.6,-36.71 -40.97,-61.3 -68.92,-83.83 13.6,-1.31 27.12,-2.87 40.65,-4.75 -57.69,-22.21 -121.12,0.65 -167.75,36.55 -36.38,23.19 -66.54,63.1 -112.92,64.66 -32.86,1.31 -58.43,-31.06 -55.15,-62.61 2.38,-21.88 -10.98,-45.23 -2.46,-65.64 38.43,-14.42 83.34,9.18 120.38,-11.55 24.01,-13.03 20.9,-66.38 -13.52,-55.23 -37.2,17.62 -74.65,41.38 -117.6,38.35 -2.13,-10.73 -7.54,-21.88 -2.3,-32.53 13.77,-36.22 30.81,-71.78 55.32,-101.94 27.37,-33.76 67.03,-53.43 101.78,-78.18z"/>
    <path class="fil0" d="M106.95 1304.71c-20.73,-28.6 -23.6,-70.88 -7.79,-102.11 5.24,33.76 5.33,68.1 7.79,102.11z"/>
    <path class="fil0" d="M387.86 1246.45c19.01,-4.51 31.96,14.01 45.23,24.34 -41.63,25.08 -87.28,42.78 -134.06,55.4 52.45,-2.87 103.33,-18.68 152.09,-37.37 7.21,10.98 21.88,29.75 3.36,38.52 -40.65,25.08 -90.72,25.81 -137.02,27.7 -27.78,-2.7 -58.76,0.41 -83.42,-14.59 53.84,-27.04 93.26,-79.82 153.81,-93.99z"/>
    <path class="fil0" d="M112.03 1322.49c12.62,8.03 25.24,15.98 38.35,23.19 -6.23,4.92 -12.54,9.84 -18.77,14.75 -7.54,-12.13 -14.18,-24.75 -19.58,-37.94z"/>
   </g>
   <g>
    <g>
     <path class="fil1" d="M776.95 101.97c85.63,-42.12 181.68,-73.01 278.13,-60.89 112.27,13.77 215.6,75.56 287.47,161.93 96.94,4.26 192.58,31.3 278.29,76.37 205.12,113.33 281.9,402.03 169.63,605.51 -64.9,118.82 -199.46,194.22 -334.1,192.58 -78.02,-1.39 -151.52,-35.4 -211.01,-84.32 71.21,84.08 185.2,127.35 294.35,112.6 25.08,30.32 48.35,62.03 71.38,93.91 -117.51,-2.79 -237.07,24.42 -338.12,85.47 -90.8,54.74 -162.75,139.48 -202.9,237.48 -33.11,99.98 -47.12,205.53 -84.81,304.11 -22.54,59.41 -62.61,112.1 -115.71,147.5 4.01,-140.54 -43.35,-283.13 -134.56,-390.73 -56.14,-65.97 -127.51,-118.58 -206.18,-154.47 -33.52,91.7 -59.33,188.15 -59.25,286.41 -16.14,-6.23 -27.86,-18.77 -38.35,-32.04 -8.93,37.94 -3.36,76.87 6.47,114.07 -45.32,-29.34 -97.68,-53.02 -123.82,-103.5 0.82,7.54 2.54,22.62 3.36,30.16 -71.21,-64.08 -70.31,-168.48 -113.25,-248.63 -11.8,-8.69 -27.62,-9.67 -40.89,-15.57 -62.61,-22.78 -105.79,-82.77 -118.25,-146.93 -14.91,-82.11 1.15,-168.16 38.76,-242.24 39.33,-74.74 92.02,-141.19 146.19,-205.61 45.97,-56.05 72.93,-124.31 92.36,-193.39 -1.31,-10.57 -11.72,-17.37 -16.55,-26.47 -15,-19.91 -17.21,-46.46 -32.53,-66.21 -13.93,-17.95 -30.98,-33.11 -46.87,-49.33 65.48,-22.21 135.21,-22.54 203.48,-23.19 17.21,-9.34 34.74,-22.04 39.83,-42.04 55.56,-151.68 161.44,-289.11 307.47,-362.53zm163.32 -2.46l0 0c-61.62,14.18 -121.44,37.37 -175.28,70.64 -100.96,61.54 -176.84,157.91 -225.68,264.52 25.65,-16.8 55.32,-29.01 77.6,-50.15 15.98,-6.31 31.06,-14.5 45.81,-23.19 -11.56,24.26 -24.59,47.78 -37.04,71.46 30.81,-10.98 62.2,-20.32 94.16,-27.53 4.84,-9.67 9.59,-19.34 14.42,-28.93 16.06,0.82 32.12,1.47 48.27,1.81 -23.36,-13.69 -50.48,-19.83 -72.85,-35.32 14.34,-0.25 28.68,0.16 43.02,0.66 19.18,-26.96 37.86,-54.74 62.36,-77.36 11.96,1.31 24.01,2.38 36.06,3.36 -19.42,-10.9 -40.32,-18.6 -60.97,-26.63 16.88,-1.56 33.93,-2.05 50.73,-4.83 33.27,-23.77 64.57,-59.17 109.97,-50.64 -15.32,-5.98 -30.57,-12.13 -45.65,-18.44 38.11,2.46 73.84,-10 109.4,-21.47 8.52,3.03 17.05,6.06 25.57,9.09 -6.47,-7.87 -12.95,-15.57 -19.5,-23.27 29.01,13.6 61.05,4.83 91.78,6.96 33.35,0.98 65.89,8.69 98.42,15.32 -78.92,-50.48 -177.83,-80.96 -270.59,-56.05zm-123.17 297.47l0 0c20.16,-5.41 34.75,-21.14 51.3,-32.7 60.15,-45.32 126.86,-80.72 195.44,-111.29 -104.56,-17.86 -199.79,56.14 -246.74,143.98zm409.49 -133.08l0 0c-105.14,16.64 -205.2,60.64 -292.72,120.71 10,-0.9 29.99,-2.71 39.99,-3.61 -45.4,31.06 -91.04,61.71 -136.44,92.77l-2.95 -0.49c-1.8,2.46 -5.41,7.29 -7.21,9.75 48.43,-6.88 97.44,-2.21 144.8,9.34 6.56,-4.34 13.11,-8.77 19.67,-13.11 14.09,2.05 28.11,3.85 42.2,5.41 -22.95,-15.74 -49.25,-25.9 -71.62,-42.7 23.11,1.64 46.22,4.51 69.17,7.95 29.5,-18.77 59.16,-37.29 90.31,-53.1 17.13,3.28 34.33,6.15 51.63,8.11 -19.09,-14.75 -42.29,-23.35 -60.56,-39.33 19.34,1.64 38.6,5 58.02,5.65 30.73,-6.8 58.59,-23.44 89.9,-28.6 16.31,2.3 32.2,6.64 48.35,9.92 -17.13,-11.06 -35.4,-20.82 -50.15,-35.16 24.5,3.11 48.68,12.29 73.75,9.1 29.34,-3.44 59.33,-8.11 88.18,1.48 -5.57,-6.31 -16.72,-19.01 -22.29,-25.32 21.23,9.34 42.37,20.24 66.05,20.98 73.26,5.98 143.08,31.8 208.15,64.9 -17.45,-24.91 -44.09,-40.97 -69.16,-57.28 -113.58,-62.85 -248.3,-92.52 -377.04,-67.36zm-716.38 319.76l0 0c-2.71,-26.63 4.18,-52.45 13.6,-77.03 -48.35,30.65 -95.3,67.44 -123.33,118.41 -31.55,57.94 -41.55,124.64 -71.54,183.32 -18.03,38.51 -43.76,72.44 -69.16,106.2 53.35,-28.68 110.87,-61.62 142.26,-115.22 10.24,14.51 -0.9,30.32 -4.59,44.99 -15.24,44.5 -21.39,91.7 -19.18,138.66 58.43,38.43 103.91,94.32 132.67,157.91 1.88,-52.86 -11.8,-104.81 -28.19,-154.55 118.99,46.96 257.56,16.88 362.94,-49.58 -34.83,-4.92 -75.72,4.92 -104.81,-19.58 48.76,-10.98 84.08,-51.05 102.68,-95.55 33.02,-75.72 39.09,-170.45 -8.69,-241.33 24.26,-15.82 50.56,-28.35 73.75,-45.73 -78.75,-6.64 -156.6,11.47 -233.88,23.93 14.51,-36.63 45.89,-61.22 71.46,-89.57 8.52,-3.36 15.57,-9.51 23.03,-14.75 -99.08,6.23 -195.45,52.77 -259.04,129.48zm924.86 -124.56l0 0c-5.08,79.49 -34.58,157.09 -85.23,218.8 27.04,17.86 60.31,30.16 92.36,17.62 -12.62,90.88 -100.71,144.23 -183.32,162.5 79,36.63 144.07,96.37 203.88,158.4 42.78,-8.11 85.06,-24.75 117.19,-54.9 48.59,-43.84 72.93,-109.15 77.69,-173.32 6.23,-84.41 -13.6,-172.99 -64.58,-241.58 -37.2,-50.15 -96.37,-80.88 -157.99,-87.52zm-330.17 119.31l0 0c43.19,4.02 86.87,9.92 127.18,26.55 34.34,13.61 62.53,38.11 93.75,57.2 -8.19,-10.82 -16.55,-21.47 -24.99,-32.04 23.03,-48.68 26.88,-105.14 10.57,-156.52 -74.16,23.03 -142.91,60.64 -206.51,104.81zm-805.71 -33.84l0 0c3.28,7.21 8.93,16.31 18.03,11.15 16.96,6.31 33.52,13.68 49.42,22.29 7.46,-10.08 14.67,-20.32 21.63,-30.81 1.64,-0.57 4.92,-1.72 6.56,-2.3 -31.8,-3.36 -63.84,-2.38 -95.63,-0.33zm703.52 89.49l0 0c18.85,36.71 33.03,75.47 42.78,115.55 4.75,-8.77 9.59,-17.54 14.34,-26.31 20.08,23.19 43.43,45.23 73.92,53.51 -15.24,-21.88 -33.84,-41.14 -48.18,-63.59 93.83,-9.01 179.71,73.1 274.03,34.42 -10.16,-10.49 -24.18,-15.24 -36.96,-21.55 -49.41,-22.86 -88.67,-63.67 -140.46,-81.86 -57.53,-20.65 -119.81,-15.08 -179.46,-10.16zm-729.66 315.25l0 0c-34.75,24.75 -74.41,44.41 -101.78,78.18 -24.5,30.16 -41.55,65.72 -55.32,101.94 -5.25,10.65 0.16,21.8 2.3,32.53 42.94,3.03 80.39,-20.73 117.6,-38.35 34.42,-11.15 37.53,42.2 13.52,55.23 -37.04,20.73 -81.95,-2.87 -120.38,11.55 -8.52,20.41 4.84,43.76 2.46,65.64 -3.28,31.55 22.29,63.92 55.15,62.61 46.38,-1.56 76.54,-41.47 112.92,-64.66 46.63,-35.89 110.06,-58.76 167.75,-36.55 -13.52,1.88 -27.04,3.44 -40.65,4.75 27.94,22.53 60.31,47.12 68.92,83.83 7.21,30.81 -22.13,52.28 -47.28,61.62 -70.56,25.9 -148.57,24.58 -221.18,8.36 -24.67,-5.49 -46.55,10.41 -66.79,21.88 26.39,23.44 73.18,13.85 88.83,49.33 20.73,40.4 35.32,83.91 45.32,128.09 8.44,-24.75 17.05,-49.42 26.8,-73.59 -1.8,67.44 9.92,141.52 60.81,190.36 -8.44,-53.51 1.56,-107.76 15,-159.55 13.93,21.31 25.9,43.76 37.86,66.21 13.03,-86.37 36.96,-177.33 98.01,-242.89 14.91,-18.69 44.66,-22.45 52.44,-46.71 11.39,-27.04 17.05,-56.46 13.6,-85.72 -8.85,17.29 -17.45,35.07 -31.71,48.84 7.38,-40.24 4.59,-88.01 -34.01,-111.86 -9.26,20.4 -25.65,35.65 -45.73,45.32 -9.92,-86.54 -78.59,-152.5 -155.05,-186.1 -5.98,-48.51 13.6,-94.32 25.08,-140.46 -27.21,24.5 -54.17,49.41 -84.49,70.15zm752.69 1.64l0 0c-44.33,105.47 -118.99,203.64 -221.34,257.81 0.74,2.54 2.21,7.62 2.95,10.16 23.93,-12.37 48.84,-22.62 74.57,-30.4 71.87,105.79 90.31,237.4 92.52,362.53 2.21,49.74 -6.56,99.07 -6.06,148.82 17.78,-64.33 28.84,-130.38 50.64,-193.56 17.87,-45.56 43.02,-88.01 71.87,-127.59 -18.44,-67.11 -42.45,-132.51 -61.62,-199.29 45.48,42.04 69.9,100.88 98.09,154.88 36.3,-38.6 78.83,-69.98 121.86,-100.47 -50.48,-109.89 -122.59,-213.88 -223.47,-282.88zm-918.79 353.77l0 0c-2.46,-34.01 -2.54,-68.34 -7.79,-102.11 -15.81,31.22 -12.95,73.51 7.79,102.11zm280.91 -58.26l0 0c-60.56,14.18 -99.98,66.95 -153.81,93.99 24.66,14.99 55.64,11.88 83.42,14.59 46.3,-1.88 96.37,-2.62 137.02,-27.7 18.52,-8.77 3.85,-27.53 -3.36,-38.52 -48.76,18.69 -99.65,34.5 -152.09,37.37 46.79,-12.62 92.44,-30.32 134.06,-55.4 -13.28,-10.33 -26.22,-28.84 -45.23,-24.34zm-275.83 76.05l0 0c5.41,13.19 12.05,25.81 19.58,37.94 6.23,-4.92 12.54,-9.83 18.77,-14.75 -13.11,-7.21 -25.73,-15.16 -38.35,-23.19z"/>
    </g>
    <path class="fil1" d="M1414.01 661.18c26.39,-48.18 47.78,-99.32 57.28,-153.73 49.25,17.54 90.47,54.5 113.01,101.78 38.93,80.15 45.73,177.74 11.47,260.67 -20.81,50.81 -66.79,88.91 -119.97,101.7 -36.88,-37.78 -76.37,-73.1 -119.15,-103.99 45.32,-26.72 88.34,-61.54 109.97,-110.87 18.11,-38.27 16.47,-81.78 16.31,-123.08 -23.44,8.11 -46.14,18.03 -68.92,27.53z"/>
    <path class="fil1" d="M1220.12 556.78c19.42,-11.31 39.83,-20.73 60.64,-29.17 -0.41,17.46 -1.89,34.83 -3.93,52.12 -18.6,-8.36 -37.53,-16.14 -56.71,-22.95z"/>
    <g>
     <path class="fil1" d="M617.81 777.71c54.66,-60.56 143.9,-73.1 220.77,-59.9 -29.09,12.7 -58.59,24.58 -87.19,38.35 0.16,44.74 -12.62,93.83 -50.89,121.03 -41.06,30.81 -95.39,26.39 -143.57,22.54 38.02,43.92 100.06,49.41 154.31,48.92 -55.32,32.62 -126.85,20 -177.58,-15.65 -15,-12.46 -35.24,-8.77 -53.1,-10.33 4.83,-4.1 14.5,-12.13 19.34,-16.23 49.74,-32.45 79.82,-84.9 117.92,-128.74zm-17.37 87.52l0 0c51.14,12.29 90.47,-36.63 103.34,-80.55 -40.89,16.72 -80.06,42.04 -103.34,80.55z"/>
    </g>
   </g>
   <g>
    <path class="fil2" d="M940.27 99.51c92.77,-24.91 191.68,5.57 270.59,56.05 -32.54,-6.64 -65.07,-14.34 -98.42,-15.32 -30.73,-2.13 -62.77,6.64 -91.78,-6.96 6.56,7.7 13.03,15.41 19.5,23.27 -8.52,-3.03 -17.05,-6.06 -25.57,-9.09 -35.56,11.47 -71.29,23.93 -109.4,21.47 15.08,6.31 30.32,12.46 45.65,18.44 -45.4,-8.52 -76.7,26.88 -109.97,50.64 -16.8,2.78 -33.84,3.28 -50.73,4.83 20.65,8.03 41.55,15.73 60.97,26.63 -12.05,-0.98 -24.09,-2.05 -36.06,-3.36 -24.5,22.62 -43.18,50.4 -62.36,77.36 -14.34,-0.49 -28.68,-0.9 -43.02,-0.66 22.37,15.49 49.49,21.63 72.85,35.32 -16.14,-0.33 -32.21,-0.99 -48.27,-1.81 -4.83,9.59 -9.59,19.26 -14.42,28.93 -31.96,7.21 -63.35,16.55 -94.16,27.53 12.46,-23.68 25.48,-47.2 37.04,-71.46 -14.75,8.69 -29.83,16.88 -45.81,23.19 45.32,-98.34 126.69,-178.48 220.19,-231.75 45.07,-27.04 96.94,-36.71 146.93,-50.32 -14.59,-1.23 -29.17,-2.38 -43.76,-2.95z"/>
    <path class="fil2" d="M1226.6 263.89c128.74,-25.16 263.46,4.51 377.04,67.36 25.08,16.31 51.71,32.37 69.16,57.28 -65.06,-33.11 -134.88,-58.92 -208.15,-64.9 -23.68,-0.74 -44.82,-11.64 -66.05,-20.98 5.57,6.31 16.72,19.01 22.29,25.32 -28.85,-9.59 -58.84,-4.92 -88.18,-1.48 -25.08,3.19 -49.25,-5.98 -73.75,-9.1 14.75,14.34 33.02,24.09 50.15,35.16 -16.15,-3.28 -32.04,-7.62 -48.35,-9.92 -31.3,5.16 -59.17,21.8 -89.9,28.6 -19.42,-0.66 -38.68,-4.01 -58.02,-5.65 18.27,15.98 41.47,24.58 60.56,39.33 -17.29,-1.96 -34.5,-4.83 -51.63,-8.11 -31.14,15.82 -60.81,34.34 -90.31,53.1 -22.95,-3.44 -46.06,-6.31 -69.17,-7.95 22.37,16.8 48.68,26.96 71.62,42.7 -14.09,-1.56 -28.11,-3.36 -42.2,-5.41 -6.56,4.34 -13.11,8.77 -19.67,13.11 -47.36,-11.55 -96.37,-16.23 -144.8,-9.34 1.8,-2.46 5.41,-7.29 7.21,-9.75l2.95 0.49c14.91,2.13 30.08,5.49 45.23,3.61 29.25,-16.06 51.38,-42.04 78.75,-60.97 103.42,-74.82 223.8,-132.34 352.21,-144.06l-0.57 -12.29c-28.85,1.07 -57.69,1.64 -86.45,3.85z"/>
    <g>
     <path class="fil2" d="M517.59 680.85c51.71,-91.37 127.18,-176.76 228.63,-211.92 -25.57,28.35 -56.95,52.94 -71.46,89.57 77.28,-12.46 155.13,-30.57 233.88,-23.93 -23.19,17.37 -49.5,29.91 -73.75,45.73 47.78,70.88 41.71,165.61 8.69,241.33 -18.6,44.5 -53.92,84.57 -102.68,95.55 29.09,24.5 69.98,14.67 104.81,19.58 -105.38,66.46 -243.96,96.53 -362.94,49.58 16.39,49.74 30.07,101.7 28.19,154.55 -28.76,-63.59 -74.25,-119.48 -132.67,-157.91 -2.21,-46.96 3.93,-94.16 19.18,-138.66 3.69,-14.67 14.83,-30.48 4.59,-44.99 24.75,-50.97 55.72,-98.5 80.72,-149.31 11.64,10.24 23.19,20.49 34.83,30.81zm122.35 35.73l0 0c-44.58,21.88 -66.62,68.59 -88.01,110.55 -13.85,28.76 -37.53,51.05 -52.04,79.32 -4.84,4.1 -14.51,12.13 -19.34,16.23 17.87,1.56 38.11,-2.13 53.1,10.33 50.73,35.65 122.26,48.27 177.58,15.65 -54.25,0.49 -116.28,-5 -154.31,-48.92 48.18,3.85 102.52,8.28 143.57,-22.54 38.27,-27.21 51.05,-76.29 50.89,-121.03 28.6,-13.77 58.1,-25.65 87.19,-38.35l6.23 0.9c-1.64,-2.13 -4.92,-6.31 -6.55,-8.44 -64.9,-12.95 -136.77,-26.71 -198.31,6.31z"/>
    </g>
    <path class="fil2" d="M1002.71 634.05c59.66,-4.92 121.94,-10.49 179.46,10.16 51.79,18.19 91.04,59 140.46,81.86 12.78,6.31 26.8,11.06 36.96,21.55 -94.32,38.68 -180.2,-43.43 -274.03,-34.42 14.34,22.46 32.94,41.71 48.18,63.59 -30.48,-8.28 -53.84,-30.32 -73.92,-53.51 -4.75,8.77 -9.59,17.54 -14.34,26.31 -9.75,-40.07 -23.93,-78.83 -42.78,-115.55z"/>
   </g>
   <g>
    <path class="fil3" d="M764.99 170.15c53.84,-33.27 113.66,-56.46 175.28,-70.64 14.59,0.57 29.17,1.72 43.76,2.95 -49.99,13.6 -101.86,23.27 -146.93,50.32 -93.5,53.26 -174.88,133.41 -220.19,231.75 -22.29,21.14 -51.95,33.35 -77.6,50.15 48.84,-106.61 124.72,-202.98 225.68,-264.52z"/>
    <path class="fil3" d="M933.88 384.61c87.52,-60.07 187.58,-104.07 292.72,-120.71 28.76,-2.21 57.61,-2.78 86.45,-3.85l0.57 12.29c-128.41,11.72 -248.79,69.25 -352.21,144.06 -27.37,18.93 -49.5,44.91 -78.75,60.97 -15.16,1.88 -30.32,-1.48 -45.23,-3.61 45.4,-31.06 91.04,-61.71 136.44,-92.77 -10,0.9 -29.99,2.7 -39.99,3.61z"/>
    <path class="fil3" d="M510.21 583.65c63.59,-76.7 159.96,-123.25 259.04,-129.48 -7.46,5.24 -14.5,11.39 -23.03,14.75 -101.45,35.16 -176.92,120.55 -228.63,211.92 -11.64,-10.33 -23.19,-20.57 -34.83,-30.81 -25,50.81 -55.97,98.34 -80.72,149.31 -31.39,53.59 -88.91,86.54 -142.26,115.22 25.4,-33.76 51.13,-67.69 69.16,-106.2 29.99,-58.67 39.99,-125.38 71.54,-183.32 28.03,-50.97 74.98,-87.77 123.33,-118.41 -9.42,24.58 -16.31,50.4 -13.6,77.03z"/>
    <path class="fil3" d="M317.22 555.71c23.27,-5.57 47.37,-5.57 71.05,-8.52 -6.96,10.49 -14.18,20.73 -21.63,30.81 -15.9,-8.6 -32.45,-15.98 -49.42,-22.29z"/>
   </g>
   <g>
    <path class="fil4" d="M299.2 544.57c31.8,-2.05 63.84,-3.03 95.63,0.33 -1.64,0.57 -4.92,1.72 -6.56,2.3 -23.68,2.95 -47.78,2.95 -71.05,8.52 -9.09,5.16 -14.75,-3.93 -18.03,-11.15z"/>
    <path class="fil4" d="M639.93 716.57c61.54,-33.03 133.41,-19.26 198.31,-6.31 1.64,2.13 4.92,6.31 6.55,8.44l-6.23 -0.9c-76.87,-13.19 -166.11,-0.65 -220.77,59.9 -38.11,43.84 -68.18,96.29 -117.92,128.74 14.5,-28.27 38.19,-50.56 52.04,-79.32 21.39,-41.96 43.43,-88.67 88.01,-110.55z"/>
    <path class="fil4" d="M1025.74 950.94c100.88,69 172.99,172.99 223.47,282.88 -43.02,30.48 -85.55,61.87 -121.86,100.47 -28.19,-54 -52.61,-112.84 -98.09,-154.88 19.18,66.79 43.19,132.18 61.62,199.29 -28.85,39.58 -54,82.03 -71.87,127.59 -21.8,63.18 -32.86,129.23 -50.64,193.56 -0.49,-49.74 8.28,-99.07 6.06,-148.82 -2.21,-125.13 -20.65,-256.74 -92.52,-362.53 -25.73,7.79 -50.64,18.03 -74.57,30.4 -0.74,-2.54 -2.21,-7.62 -2.95,-10.16 102.35,-54.17 177.01,-152.34 221.34,-257.81z"/>
   </g>
  </g>
 </g>
</svg>
