<?xml version="1.0" encoding="UTF-8"?>
<!DOCTYPE svg PUBLIC "-//W3C//DTD SVG 1.1//EN" "http://www.w3.org/Graphics/SVG/1.1/DTD/svg11.dtd">
<!-- Creator: CorelDRAW 2018 (64-Bit) -->
<svg xmlns="http://www.w3.org/2000/svg" xml:space="preserve" width="7.6872in" height="8.23831in" version="1.1" style="shape-rendering:geometricPrecision; text-rendering:geometricPrecision; image-rendering:optimizeQuality; fill-rule:evenodd; clip-rule:evenodd"
viewBox="0 0 1830 1961.2"
 xmlns:xlink="http://www.w3.org/1999/xlink">
 <defs>
  <style type="text/css">
   <![CDATA[
    .fil14 {fill:#182F28}
    .fil8 {fill:#FEFEFE;fill-rule:nonzero}
    .fil10 {fill:#081713;fill-rule:nonzero}
    .fil11 {fill:#9FB563;fill-rule:nonzero}
    .fil2 {fill:#ACBA1F;fill-rule:nonzero}
    .fil4 {fill:#AEB915;fill-rule:nonzero}
    .fil3 {fill:#AEB91A;fill-rule:nonzero}
    .fil6 {fill:#B1BA06;fill-rule:nonzero}
    .fil1 {fill:#B3BA06;fill-rule:nonzero}
    .fil0 {fill:#EFF1EF;fill-rule:nonzero}
    .fil12 {fill:#F7FAF9;fill-rule:nonzero}
    .fil5 {fill:#F8FAF9;fill-rule:nonzero}
    .fil7 {fill:#FAFBFB;fill-rule:nonzero}
    .fil9 {fill:#FBFBFB;fill-rule:nonzero}
    .fil13 {fill:#FCFCFC;fill-rule:nonzero}
   ]]>
  </style>
 </defs>
 <g id="Layer_x0020_1">
  <metadata id="CorelCorpID_0Corel-Layer"/>
  <g id="_1008371504">
   <path class="fil0" d="M808.94 49.35c84.34,-25.72 171.16,-46.14 259.6,-49.06 72.45,-2.26 146.35,8.61 212.62,39.03 24.76,12.77 49.87,25.38 71.67,42.98 23.66,16.87 43.69,38.05 64.16,58.5 30.06,33.98 57.42,71.15 75.64,112.93 18.02,41.24 28.25,85.52 32.83,130.19 1.27,31.16 1.3,62.37 0.44,93.56 -2.69,56.58 -11.58,86.37 -17.85,138.63 36.36,-4.09 73.24,-4.27 109.6,-0.34 47.81,4.49 94.49,16.53 140.29,30.57 24.49,7.9 48.5,17.21 72.06,27.56 -8.95,37.78 -22.51,74.29 -38,109.84 -18.88,38.86 -41.36,76.42 -70.46,108.54 -25.94,28.66 -57.25,53.33 -93.29,67.79 19.18,59.57 40.41,126.5 39.89,188.99 0.05,31.87 1.45,63.87 -1.94,95.62 -11.79,117.91 -59.46,231.7 -134.41,323.39 -48.05,60.02 -106.48,112.05 -172.63,151.4 -62.96,39.35 -134.33,63.4 -206.76,78.36 -53.16,11.96 -106.92,21.48 -161.06,27.8 -7.26,1.37 -19.36,1.93 -26.59,0.21l4.87 -2.32c25.11,-11.55 47.35,-28.17 69.68,-44.23 9.19,-7.36 19.47,-13.75 26.75,-23.22 -14.74,-0.54 -29.28,2.28 -43.99,2.55 -30.11,4.12 -60.68,0.34 -90.84,4.02 -25.89,0.39 -61.4,4.47 -83.8,10.18 -44.11,9.34 -85.49,28.46 -124.09,51.41 -43.52,27.17 -83.53,59.48 -121.88,93.46 -13.53,12.21 -28.02,23.32 -41.12,35.99 -1.54,0.54 -4.61,1.62 -6.13,2.16 -1.59,-40.82 7.01,-81.28 18.39,-120.29 -40.23,25.45 -72.6,60.93 -106.19,94.17 -8.36,8.8 -17.95,16.48 -25.03,26.41 -0.83,1.27 -2.48,3.8 -3.29,5.05 -4.9,-12.72 -3.19,-26.55 -3.43,-39.87 -1.47,-57.42 11.82,-114.89 35.99,-166.87 29.45,-62.03 77.38,-113.15 129.8,-156.55 41.8,-34.62 87.14,-64.65 129.53,-98.49 15.37,-12.75 31.04,-25.65 42.83,-41.88 -14.74,-3.8 -30.01,-3.53 -45.11,-3.9 -44.67,-1.45 -90.62,4.9 -130.46,26.11 -17.95,8.83 -33.12,21.94 -48.91,33.98 -18.17,-8.8 -36.02,-19 -56.2,-22.48 -18.22,-4.66 -37.12,-2.99 -55.73,-3.6 -10.59,-23.44 -24.03,-45.82 -41.53,-64.8 -21.87,-24.03 -50.31,-40.41 -78.26,-56.32 -0.51,-12.33 2.18,-25.13 -2.18,-37.02 -2.6,-6.87 -3.21,-14.22 -2.65,-21.48 0.64,-14.07 1.79,-28.56 -2.5,-42.2 -2.13,-8.73 -6.23,-16.97 -7.14,-25.94 2.5,-8.58 8.39,-15.67 12.45,-23.51 8.58,-14.59 10.52,-31.7 13.04,-48.1 22.24,-11.03 45.48,-20.13 69.41,-26.85 8.88,-2.65 19.03,-3.26 25.89,-10.22 48.18,-45.48 99.54,-87.51 152.31,-127.52 16.16,-11.67 32.29,-23.37 48.62,-34.74 5.91,-3.55 8.02,-10.37 10.4,-16.4 7.33,-20.06 16.84,-39.28 27.61,-57.69 4.78,-10.32 13.78,-17.34 23.56,-22.56 67.6,-41.04 140.34,-73.92 216.32,-95.94 9.12,-3.36 21.58,-2.65 26.87,-12.31 12.04,-20.28 24.1,-40.72 39.47,-58.7 4.12,-4.63 7.5,-9.86 10,-15.5 -23.22,0.54 -45.92,-4.85 -68.99,-6.18 -40.92,-5.32 -81.55,-12.38 -122.17,-19.61 -29.25,-5.15 -59.04,-5.22 -88.63,-4.56 -32.78,0.93 -65.41,8.41 -95.13,22.31 -37.46,19.61 -69.83,47.91 -96.99,80.1 -1.35,1.08 -4.05,3.19 -5.39,4.27 -5.44,-21.31 -1.08,-43.3 0.64,-64.78 2.18,-20.79 9.49,-40.63 18.05,-59.55 25.74,-42.98 72.74,-67.25 118.86,-82.55 42.67,-12.8 75.11,-17.8 120.11,-22.95 52.57,-4.02 105.4,-0.29 158.07,-1.47 29.91,1.03 59.53,-3.41 89.22,-6.11 61.05,-7.8 121.81,-21.67 178.37,-46.36 21.89,-9.64 43.76,-20.72 61.3,-37.24 -10.71,-13.19 -28.86,-13.88 -44.48,-13.46 -19.3,-0.61 -38.2,4.07 -56.59,9.39 -44.55,14.37 -86.45,35.58 -127.3,58.18 -9.37,5.17 -19.32,9.51 -27.63,16.35 -1.69,0 -5.08,0 -6.77,0 6.28,-37.05 19.71,-72.87 38.93,-105.13 14.74,-23.76 35.09,-43.69 57.27,-60.54 25.3,-18.93 54.23,-32.85 84.56,-41.63 10.08,-3.19 21.16,-3.75 30.21,-9.66 -18.9,-6.72 -38.66,-12.36 -58.92,-11.94 -18.83,0.17 -37.78,-0.96 -56.49,1.52 -38.32,5.98 -75.79,16.4 -112.93,27.31 -58.99,17.11 -117.37,36.36 -176.36,53.5 -45.48,12.92 -91.08,25.47 -137.06,36.63 -81.08,19 -162.58,37.02 -245.21,47.88 -14.96,0.81 -29.84,2.28 -44.7,3.92 -32.44,2.28 -65.17,2.45 -97.53,-0.83 -28.96,-0.76 -57.54,-6.57 -85.47,-13.85 -53.69,-14.91 -106.14,-43.18 -139.14,-89.29 -28.34,-36.26 -41.58,-83.12 -39.62,-128.84 -1.25,-26.92 5,-53.38 13.36,-78.75 5.32,-15.18 10.66,-30.48 18.71,-44.48 7.18,10.69 8.97,23.78 13.9,35.53 14.22,39.87 30.87,81.35 63.94,109.52 39.67,33.69 93.41,46.07 144.44,46.04 34.42,0.15 68.99,0.56 103.15,-4.22 38.74,-4.44 77.13,-11.35 115.26,-19.52 6.33,-1.23 12.46,-3.51 17.75,-7.26 -35.53,-4.63 -69.61,-19.22 -97.9,-41.14 -11.25,-10.64 -21.16,-22.65 -30.38,-35.09 -17.58,-22.95 -25.89,-52.12 -26.31,-80.81 -0.49,-23.76 -0.56,-47.71 3.87,-71.15 1.5,-8.07 3.11,-16.11 4.71,-24.18 3.55,5.32 7.21,10.57 10.69,15.94 13.85,22.51 29.4,44.11 47.49,63.43 17.97,16.43 40.7,27.26 64.26,32.98 13.02,3.51 26.6,3.65 39.87,5.61 9.86,1.37 19.71,-0.25 29.52,-1.32 37.88,-1.99 74.95,-10.86 111.41,-20.84 54.5,-16.11 106.68,-38.96 161.01,-55.63zm166.45 -5.03l0 0 -34.47 6.17c-12.33,1.1 -24.62,5.65 -36.65,8.27 -57.1,13.95 -113.13,31.97 -168.17,52.49 -59.68,22.51 -121.22,42 -184.92,48.25 -31.97,0.51 -64.65,3.26 -95.89,-5 -26.36,-5.86 -51.76,-18.46 -70.78,-37.81 -5.76,-5.37 -8.95,-12.99 -15.3,-17.75 1.3,36.09 18.31,71.5 45.97,94.86 32.76,26.28 75.32,36.21 116.36,39.52 23.73,0.59 47.52,0.71 71.23,-0.39 16.23,-2.65 32.73,-3.21 48.91,-6.38 27.73,-3.33 54.8,-10.49 82.06,-16.4 12.63,-3.75 25.16,-7.75 37.88,-11.15 -5.76,4.58 -12.09,8.41 -18.85,11.33 -70.86,34.38 -145.93,59.16 -221.84,79.68 -70.47,18.36 -142.33,32.22 -215.07,36.65 -28.64,0.25 -57.27,0.59 -85.89,-0.17 -14.69,0.02 -28.71,-5.69 -43.47,-5.1 1.13,-0.66 2.26,-1.3 3.38,-1.94 -11.33,-0.42 -22.02,-4.36 -32.71,-7.77 -42.12,-13.83 -80.74,-40.87 -104.47,-78.75 -6.69,-10.57 -10,-22.85 -17.14,-33.12 -0.52,9.12 -0.93,18.24 -1.94,27.34 -0.76,32.58 8.39,65.15 25.03,93.12 10.89,17.87 25.74,32.95 41.53,46.51 30.62,24.59 68.11,38.81 106.07,47.44 32.3,5.6 43.83,7.62 75.17,9.81 30.65,0 61.57,1.86 91.97,-2.89 11.74,-2.33 23.86,-0.59 35.62,-2.82 30.08,-5.32 44.31,-6.71 76.28,-12.28 101.7,-18.88 202.42,-43.25 301.62,-72.65 82.16,-23.39 162.87,-51.88 245.97,-71.99 19.96,-3.51 39.74,-8.75 60.12,-9.17 42.29,-5.22 85.64,2.4 124.72,18.9 16.06,7.31 33.03,15.4 43.72,30.01 6.67,8.41 6.4,20.52 1.76,29.84 -16.67,0.69 -33.54,-1.1 -49.99,2.11 -34.84,5.2 -69.71,15.32 -99.23,34.99 -21.7,12.63 -39.55,30.67 -55.85,49.48 -6.74,10.44 -15.96,20.1 -18.68,32.51 16.38,-7.43 31.82,-16.82 48.42,-23.88 42.83,-19.2 89.76,-33.86 137.2,-28.02 14.2,3.04 29.22,6.84 39.79,17.53 9.81,8.63 19.44,20.4 17.82,34.35 -4.95,13.02 -15.32,23.27 -26.55,31.11 -19.79,14.83 -41.88,26.31 -64.65,35.72 -60.98,25.45 -126.05,39.77 -191.46,47.52 -11.57,-0.02 -22.85,2.89 -34.28,4.17 -59.73,2.13 -119.5,0.34 -179.23,0.81 -54.23,3.48 -109.57,9.56 -159.86,31.63 -36.53,14.32 -69.97,39.65 -88.76,74.63 -3.6,5.2 -6.03,11.11 -5.86,17.56 2.82,-2.62 3.13,-3.97 5.85,-6.65l2.49 -2.52c37.88,-35.97 89.59,-53.35 140.81,-58.21 19.56,-0.88 39.15,-1.15 58.75,-0.56 38.2,-0.29 75.32,9.95 112.95,14.93 38.91,5.91 77.87,12.14 117.2,15.23 13.83,3.06 28.02,1.72 42.02,2.87 16.4,2.82 33.25,0.39 49.5,4.46 -46.36,35.4 -85.96,80.57 -110.7,133.75 -9.93,6.38 -22.29,7.18 -33.3,10.98 -75.03,21.8 -147.45,53.01 -213.94,94.12 -3.8,2.6 -8.26,4.73 -10.69,8.85 -14.1,22.24 -24.22,46.73 -32.36,71.72 -1.03,4.68 -5.54,7.04 -9.07,9.66 -54.31,37.27 -106.51,77.55 -156.23,120.7 -21.48,16.97 -40.04,37.27 -61.12,54.67 -25.38,6.82 -51.44,12.92 -75,25.11 -3.33,18.61 -12.06,35.38 -19.86,52.37 3.06,12.87 7.82,25.62 7.6,39.06 0.66,13.46 -2.5,27.31 2.06,40.41 2.43,7.09 2.18,14.59 2.92,21.97 5.08,5.12 12.16,7.55 18.05,11.6 29.05,18.98 54.87,43.32 74.04,72.35 5.17,7.82 9.59,16.16 15.15,23.73 19.34,-1.08 38.54,2.72 57.08,7.92 9.39,2.72 17.85,8.09 27.39,10.32 5,-1.94 9.07,-5.61 13.61,-8.41 45.82,-32.02 102.83,-45.48 158.24,-43.99 36.07,-0.98 72.28,2.21 107.59,9.61 0.12,11.5 -5.61,21.82 -10.69,31.8 -14.88,26.82 -38.44,47.25 -62.03,66.22 -45.82,36.07 -94.39,68.53 -138.7,106.48 -20.2,16.45 -37.56,35.89 -55.66,54.55 -33.42,38.27 -59.95,83.21 -73.7,132.35 -4.51,16.21 -8.68,32.73 -8.92,49.67 3.11,-1.62 6.33,-3.16 8.97,-5.52 49.06,-44.48 103,-83.78 161.33,-115.26 2.55,-1.05 5.22,-1.72 7.99,-2.01 -18.68,27.98 -33.42,58.62 -43.13,90.87 -2.48,10.2 -7.11,20.64 -4.46,31.31 18.88,-15.96 37.86,-31.9 58.28,-45.87 61.03,-44.99 131.27,-80.03 207.06,-90.2 26.04,-5 52.71,-3.9 78.95,-7.09 71.84,-0.32 144.46,-4.78 213.58,-25.91 12.33,-3.29 24.15,-8.53 36.83,-10.59 -5.3,9.49 -14.1,16.13 -21.43,23.91 -18.78,17.21 -38.27,33.71 -59.04,48.52 -3.14,2.08 -5.86,4.68 -7.99,7.82 11.55,0.02 22.7,-3.31 34.03,-5.2 91.62,-18.85 179.03,-58.13 253.34,-115.06 70.17,-52.67 129.26,-120.53 169.81,-198.45 21.28,-37.54 36.11,-78.46 47.52,-119.97 18.07,-63.21 21.97,-129.48 18,-194.84 -4.07,-39.24 -3.32,-38.05 -6.25,-51.59 -8.51,-47.74 -22.31,-94.69 -42.59,-138.8 24.27,-14.71 49.01,-28.91 71.4,-46.51 17.63,-15.77 35.8,-31.19 50.73,-49.67 37.88,-44.35 61.98,-98.91 75.54,-155.3 -55.48,-22.9 -114.21,-38.64 -174.08,-43.67 -47.86,-4.56 -95.96,-0.86 -143.53,4.85l16.62 -82.92c5.71,-32.56 10.89,-65.36 11.08,-98.49 2.99,-17.01 1.86,-34.32 1.84,-51.49 -3.09,-21.16 -2.23,-42.74 -6.35,-63.77 -7.97,-48.89 -24.05,-97.21 -52.1,-138.38 -42.05,-64.19 -100.23,-119.11 -170.57,-150.98 -43.91,-20.03 -91.82,-30.45 -139.8,-34.25 -49.99,-3.16 -100.18,0.42 -149.54,8.51z"/>
   <path class="fil1" d="M1135.11 133.3c1.5,-1.3 3.04,-2.65 4.56,-3.97 -14.96,-4.02 -28.74,-11.38 -43.62,-15.59 -35.75,-11.65 -73.33,-17.36 -110.9,-17.85 -24.66,-0.07 -49.33,-0.54 -73.97,0.47l-41.68 1.5 2.53 -0.69c6.62,-1.74 13.29,-3.26 19.96,-4.81 13.29,-3.21 26.58,-6.42 40.06,-8.73 32.51,-8.9 66.2,-11.92 99.69,-14.25 59.41,-2.6 119.87,3.68 176.21,23.29 38.96,14.34 76.72,33.54 108.35,60.76 38.91,32.41 69.31,74.31 90.94,119.92 3.41,6.52 5.81,13.58 5.91,21.01 -22.29,-16.87 -46.46,-31.16 -71.35,-43.84 -49.75,-25.74 -104.15,-43.64 -160.3,-46.98 -47.03,-4.56 -94.44,1.76 -140.37,11.87 -26.33,7.8 -53.28,13.68 -79.07,23.19 -39.45,14.69 -79,29.13 -118.57,43.47 -43.32,16.84 -87.48,31.58 -132.42,43.37 -18.83,4.88 -37.76,9.76 -57.2,11.2 -0.42,-1.3 -1.27,-3.92 -1.69,-5.22 14.81,-3.63 29.13,-8.92 43.03,-15.2 23.27,-10.3 46.58,-20.59 68.7,-33.27 59.95,-31.73 115.77,-70.88 177.24,-99.81 20.72,-9.9 42.12,-18.39 63.55,-26.63 42.24,-13.12 85.96,-23.17 130.41,-23.22z"/>
   <path class="fil2" d="M1214.2 588.53c31.82,-13.66 63.4,-30.26 87.46,-55.71 0.78,1.47 2.3,4.44 3.06,5.91 -8.44,15.69 -17.58,31.24 -30.28,43.89 -14.98,16.6 -35.75,26.14 -56.07,34.47 -36.48,13.58 -76.35,11.94 -114.57,9.76 -8.34,-0.37 -16.67,-0.42 -25.01,-0.71 -0.71,-1.1 -2.16,-3.29 -2.87,-4.39 3.78,-1.59 7.5,-3.68 11.72,-3.8 16.75,-0.03 32.98,-4.41 49.58,-5.93 26.38,-5.25 51.98,-13.66 76.99,-23.49z"/>
   <path class="fil3" d="M1352.07 795.36c32.09,-23.34 67.43,-42.49 105.7,-53.31 1.41,-0.24 5.89,-1.85 8.21,-2.58 -6.79,8.34 -19.79,21.81 -26.14,30.51 -8.34,10.98 -15.3,23 -23.95,33.74 0.78,1.15 2.4,3.46 3.21,4.61 19.47,-14.25 42.37,-22.41 64.63,-31.11 30.79,-10.79 62.23,-20.35 94.79,-23.93 23.29,-4.41 46.98,-5.12 70.54,-6.91 13.53,-0.66 27.14,-1.01 40.68,0.17 -0.86,1.4 -4.39,3.62 -5.25,5.01 -40.33,26.87 -78.34,55.33 -121.56,77.42 -18.76,9.02 -37.27,18.54 -56.44,26.58 -0.1,0.93 -0.32,2.84 -0.42,3.78 23.42,2.56 42.18,5.82 66.11,6.09 5.57,0 12.52,0.48 18.07,0.96 -16.38,4.78 -43.26,18.23 -59.47,23.5 -53.62,19.64 -111.46,23 -168.07,21.85 -13.51,-0.86 -27.07,-1.27 -40.45,-3.36 7.36,-4.93 15.69,-8.02 23.68,-11.72 22.95,-11.25 45.73,-23.05 66.69,-37.76 -25.28,-6.62 -51.54,-1.08 -76.99,1.69 -17.48,1.62 -31.95,4.89 -51.93,7.8 18.27,-28.17 42.59,-51.78 68.36,-73.01z"/>
   <path class="fil4" d="M861.04 866.14c48.67,-15.94 96.8,-34.08 146.96,-44.96 1.08,-0.1 3.24,-0.29 4.32,-0.39 -0.49,0.88 -1.52,2.67 -2.01,3.55 -7.35,7.16 -15.74,13.12 -23.41,19.91 -9.49,7.8 -18.17,17.09 -29.74,21.82 -31.65,12.28 -61.79,28.15 -91.77,43.98 -10.52,6.62 -20.96,13.51 -32.58,18.14 4.07,-9.46 10.94,-17.24 18.39,-24.15 3.8,-3.8 7.5,-7.67 11.23,-11.5 -16.06,2.92 -32.34,4.49 -48.35,7.77 -19.59,4.73 -39.2,9.44 -58.21,16.16 -1.52,0.39 -4.56,1.18 -6.08,1.57 3.11,-3.21 6.25,-6.57 10.32,-8.53 15.28,-6.91 30.57,-13.83 45.95,-20.57 18,-8.36 36.38,-15.86 54.99,-22.8z"/>
   <path class="fil5" d="M1017.62 932.17c14.49,-2.01 28.78,-6.69 43.59,-5.03 -17.7,20.1 -38.84,37.17 -55.95,57.94 -2.48,3.53 -6.69,5.03 -10.71,6.01 -79.05,16.16 -154,51.32 -217.72,100.67 21.92,-43.89 57.13,-80.62 98.69,-106.46 43.03,-27.51 92.46,-42.73 142.11,-53.13z"/>
   <path class="fil6" d="M1522.69 1111.72c-1.27,-6.35 -3.73,-12.43 -8.21,-17.19l-1.2 2.3c0.44,21.6 -15.95,51.47 -23.06,71.11l-1.04 -13c-3.41,-26.16 -2.89,-52.96 -10.18,-78.53 -4.66,-14.17 -8.85,-28.66 -16.5,-41.58 -27.34,0.07 -55.31,0.78 -81.74,-7.31 -31.92,-8.39 -61.25,-24.64 -87.63,-44.18 -4.12,-2.82 -21.01,-12.19 -25.35,-14.57l12.47 1.82c2.6,0.24 5.22,0.61 7.85,1.08 62.47,18.29 129.65,23 193.45,8.97 18.95,-3.68 36.36,-12.5 55.04,-16.89 9.49,28.56 20.03,56.83 27.66,85.98 9.1,41.56 18.81,83.48 18.88,126.29 2.4,24.44 -0.66,48.91 -1.18,73.38 -3.75,32.19 -8.95,64.43 -18.88,95.38 -15.18,47.91 -33.47,95.23 -60.34,137.91 -8.29,15.35 -18.24,29.72 -26.95,44.82 -2.11,3.87 -5.52,6.72 -9.27,8.95 1.62,-4.54 3.41,-9.02 5.74,-13.24 7.33,-12.5 14.12,-25.35 19.91,-38.64 29.74,-71.1 48.45,-147.84 46.29,-225.25 1.35,-49.62 -4.9,-99.27 -15.77,-147.62z"/>
   <path class="fil7" d="M981.48 1059.59c33.79,-36.26 79.51,-62.35 128.92,-69.09 -4.46,13.49 -13.83,24.47 -22.51,35.43 -5.93,7.67 -14.2,13.26 -19.32,21.6 13.51,-1.18 25.87,-7.6 39.4,-8.73 -6.67,16.5 -19.34,29.54 -31.75,41.88 -15.81,16.21 -35.53,27.68 -54.72,39.3 23.12,2.84 45.85,7.97 68.82,11.62 -9.73,7.9 -22.43,9.91 -33.69,14.74 -28.69,9.61 -58.48,15.81 -88.58,18.66 -15.55,0.25 -31.11,0.12 -46.66,0.07 -9.83,0.27 -19.3,-2.99 -29.1,-2.77 5.03,12.14 16.06,20.18 24.69,29.67 -19.32,0.98 -38,-4.93 -56.49,-9.63 -27.31,-8.7 -53.79,-22.21 -74.02,-42.88 -3.06,-2.89 -6.06,-6.01 -7.14,-10.2 35.14,-16.87 74.46,-20.86 112.64,-25.57 18.41,-0.44 36.83,-0.66 55.24,-0.44 11.11,-14.78 21.55,-30.16 34.28,-43.64z"/>
   <path class="fil8" d="M857.68 1072.81c21.85,-16.75 78.69,-37.92 106.39,-47.15 0.98,-0.32 2.94,-0.98 3.92,-1.3l-34.49 46.86c-25.26,-2.65 -50.53,-1.64 -75.82,1.59z"/>
   <path class="fil9" d="M486.06 1177.13c19.39,-18.44 37.05,-38.74 57.45,-56.1 -1.69,19.08 4.19,40.58 20.42,52.2 18.34,13.88 42.32,18.93 64.95,18.85 2.21,38.13 -7.97,76.96 -28.59,109.15 -11.77,19.44 -28.81,34.82 -45.75,49.67 -5.37,4.07 -10.74,9.34 -17.87,9.61 -17.29,0.61 -34.6,-0.37 -51.86,0.64 -14.61,1.42 -29.25,3.85 -43.86,4.63 -9.34,-7.55 -17.53,-16.57 -28.15,-22.46 -6.3,-4.66 -14.86,-6.28 -19.76,-12.65 -0.42,-7.87 1.74,-15.5 2.92,-23.19 17.9,-0.22 36.53,2.16 53.72,-4.07 34.45,-10.52 61.86,-36.09 83.58,-63.92 -10.15,-21.67 -26.72,-40.06 -46.76,-53.08 -4.19,-1.52 -4,-7.16 -0.44,-9.29z"/>
   <path class="fil10" d="M901.08 1169.95c18.95,-2.3 38.08,-0.96 57.13,-1.45 5.86,0.15 12.14,-0.59 17.65,1.81 -21.8,2.38 -43.79,-1.15 -65.51,1.99 -3.36,0.73 -6.5,-0.64 -9.27,-2.35z"/>
   <path class="fil1" d="M1138.93 1356.51c2.65,0.47 5.3,0.88 7.97,1.27 29.23,-8.19 57.57,-20.35 81.87,-38.74 20.67,-16.53 37.1,-37.91 48.79,-61.57 21.48,-40.58 27.9,-86.52 35.23,-131.2 11.3,14 11.84,33 16.28,49.77 8.78,37.91 11.65,78.14 -0.12,115.77 -6.67,24.4 -21.6,45.8 -39.82,63.01 -15.64,12.9 -32.98,23.93 -51.71,31.8 -38.08,15.4 -78.7,24.42 -119.75,26.06 -31.11,0.66 -62.23,0.51 -93.34,-0.03 -22.22,-1.11 -41.78,-3.76 -62.79,-5.2 -0.91,-0.66 -14.67,-0.72 -15.58,-1.41 1.57,-0.47 16.66,-2.71 18.2,-3.17 41.58,-9.2 82.77,-22.8 119.18,-45.26 18.27,-10.62 36.24,-22.16 51.29,-37.12 9.93,-9.88 21.21,-18.54 29.47,-29.98l12.16 -13.45 -9.51 26.3c-5.84,19.3 -15.86,37.02 -27.83,53.13z"/>
   <path class="fil11" d="M404.1 1281.09c0.79,-5.81 1.5,-11.62 2.89,-17.31 2.38,-7.5 6.89,-13.98 11.87,-19.96 6.35,0.98 12.72,1.89 19.12,2.6 11.67,0.42 23.73,-1.77 34.99,2.45 -3.53,3.7 -7.11,7.4 -11.11,10.62 -9.39,6.4 -19.54,11.79 -30.43,15.23 -8.19,2.75 -16.6,4.81 -25.16,6.03l-2.18 0.34z"/>
   <path class="fil12" d="M472.6 1402.94c25.77,-5.1 52.35,-4.83 78.58,-5.47 21.6,0.17 43.3,-0.59 64.85,1.25 -3.82,4.44 -9.91,5 -15.1,6.87 -21.65,6.45 -42.17,16.16 -61.83,27.17 -9,-2.53 -17.87,-5.66 -27.09,-7.26 -8.56,-1.32 -18.32,-0.1 -25.4,-6.08 -5.15,-5 -11.35,-9.59 -14,-16.48z"/>
   <path class="fil13" d="M884.26 1446.59c25.84,6.28 51.66,12.92 78.11,16.06 39.25,4.44 79.02,4.88 118.45,2.08 1.15,0.56 3.48,1.67 4.66,2.21 -17.92,20.67 -35.7,41.51 -55.17,60.76 -16.43,14.12 -31.26,30.25 -50.04,41.41 9.07,5.05 19.42,0.49 29.05,0.12 17.9,-1.79 34.72,-8.9 52.32,-11.77 -10.25,28.83 -29.94,53.57 -51.76,74.68 -16.13,16.11 -36.7,26.6 -57.42,35.58 -22.63,9.34 -47.2,12.45 -71.35,15.2 -10.74,2.28 -21.55,4.46 -32.58,4.39 1.18,0.69 2.38,1.37 3.6,2.11 -9.83,-0.42 -19.27,2.28 -28.66,4.76 -47.81,11.2 -92.87,31.75 -134.7,57.22 11.89,-29.54 31.21,-55.24 51.61,-79.39 -4.39,0.03 -8.75,0.1 -13.07,0.74 -52.42,11.6 -103.17,31.24 -149.34,58.75 14.96,-26.82 37.98,-48.01 60.17,-68.85 22.09,-18.98 45.8,-35.94 69.85,-52.37 44.94,-29.67 92.46,-56.78 130.58,-95.42 19.59,-19.39 35.7,-42.49 45.68,-68.26z"/>
   <path class="fil14" d="M1328.95 1291.83c-6.67,24.4 -21.6,45.8 -39.82,63.01 -15.64,12.9 -32.98,23.93 -51.71,31.8 -38.08,15.4 -78.7,24.42 -119.75,26.06 -31.11,0.66 -62.23,0.51 -93.34,-0.03 -22.22,-1.11 -41.78,-3.76 -62.79,-5.2 -0.91,-0.66 -14.67,-0.72 -15.58,-1.41 1.57,-0.47 16.66,-2.71 18.2,-3.17 41.58,-9.2 82.77,-22.8 119.18,-45.26 18.27,-10.62 36.24,-22.16 51.29,-37.12 9.93,-9.88 21.21,-18.54 29.47,-29.98l12.16 -13.45 -9.51 26.3c-5.84,19.3 -15.86,37.02 -27.83,53.13 2.65,0.47 5.3,0.88 7.97,1.27 29.23,-8.19 57.57,-20.35 81.87,-38.74 20.67,-16.53 37.1,-37.91 48.79,-61.57 21.48,-40.58 27.9,-86.52 35.23,-131.2 11.3,14 11.84,33 16.28,49.77 8.78,37.91 11.65,78.14 -0.12,115.77zm-919.92 -873.51c30.08,-5.32 44.31,-6.71 76.28,-12.28 3.14,-0.58 6.27,-1.17 9.41,-1.76 98.51,-18.62 196.08,-42.39 292.22,-70.89 82.16,-23.39 162.87,-51.88 245.97,-71.99 19.96,-3.51 39.74,-8.75 60.12,-9.17 42.29,-5.22 85.64,2.4 124.72,18.9 16.06,7.31 33.03,15.4 43.72,30.01 6.67,8.41 6.4,20.52 1.76,29.84 -16.67,0.69 -33.54,-1.1 -49.99,2.11 -34.84,5.2 -69.71,15.32 -99.23,34.99 -21.7,12.63 -39.55,30.67 -55.85,49.48 -6.74,10.45 -15.96,20.1 -18.68,32.51 16.38,-7.43 31.82,-16.82 48.42,-23.88 42.83,-19.2 89.76,-33.86 137.2,-28.02 14.2,3.04 29.23,6.84 39.79,17.53 9.81,8.63 19.44,20.4 17.83,34.35 -4.95,13.02 -15.32,23.27 -26.55,31.11 -19.79,14.83 -41.88,26.31 -64.65,35.72 -60.98,25.45 -126.05,39.77 -191.46,47.52 -11.57,-0.02 -22.85,2.89 -34.28,4.17 -59.73,2.13 -119.5,0.34 -179.23,0.81 -54.23,3.48 -109.57,9.56 -159.86,31.63 -36.53,14.32 -69.97,39.65 -88.76,74.63 -3.6,5.2 -6.03,11.11 -5.86,17.56 2.82,-2.62 3.13,-3.97 5.85,-6.64l2.49 -2.53c37.88,-35.97 89.59,-53.35 140.81,-58.21 19.56,-0.88 39.15,-1.15 58.75,-0.56 38.2,-0.29 75.32,9.95 112.95,14.93 38.91,5.91 77.87,12.14 117.2,15.23 13.83,3.07 28.02,1.72 42.02,2.87 16.4,2.82 33.25,0.39 49.5,4.46 -46.36,35.4 -85.96,80.57 -110.7,133.75 -9.93,6.38 -22.29,7.18 -33.3,10.98 -75.03,21.8 -147.45,53.01 -213.94,94.12 -3.8,2.6 -8.26,4.73 -10.69,8.85 -14.1,22.24 -24.22,46.73 -32.36,71.72 -1.03,4.68 -5.54,7.04 -9.07,9.66 -54.31,37.27 -106.51,77.55 -156.23,120.7 -0.21,0.16 -0.42,0.33 -0.62,0.49 -21.21,16.87 -39.62,36.94 -60.5,54.18 -25.38,6.82 -51.44,12.92 -75,25.11 -3.33,18.61 -12.06,35.38 -19.86,52.37 3.06,12.87 7.82,25.62 7.6,39.06 0.66,13.46 -2.5,27.31 2.06,40.41 2.43,7.09 2.18,14.59 2.92,21.97 5.08,5.12 12.16,7.55 18.05,11.6 29.05,18.98 54.87,43.32 74.04,72.35 5.17,7.82 9.59,16.16 15.15,23.73 11.94,-0.67 23.83,0.53 35.54,2.76 7.26,1.38 14.45,3.17 21.54,5.16 9.39,2.72 17.85,8.09 27.39,10.32 5,-1.94 9.07,-5.61 13.61,-8.41 45.82,-32.02 102.83,-45.48 158.24,-43.99 36.07,-0.98 72.28,2.21 107.59,9.61 0.12,11.5 -5.61,21.82 -10.69,31.8 -14.88,26.82 -38.44,47.25 -62.03,66.22 -45.82,36.07 -94.39,68.53 -138.7,106.48 -20.2,16.45 -37.56,35.89 -55.66,54.55 -25.18,28.83 -46.44,61.45 -61.28,96.79l0 68.7c45.71,-39.96 95.49,-75.39 148.96,-104.24 2.55,-1.05 5.22,-1.72 7.99,-2.01 -18.68,27.98 -33.42,58.62 -43.13,90.87 -2.48,10.2 -7.11,20.64 -4.46,31.31 18.88,-15.96 37.86,-31.9 58.28,-45.87 61.03,-44.99 131.27,-80.03 207.05,-90.2 26.04,-5 52.71,-3.9 78.95,-7.09 71.84,-0.32 144.46,-4.78 213.58,-25.91 12.33,-3.29 24.15,-8.53 36.83,-10.59 -5.3,9.49 -14.1,16.13 -21.43,23.91 -18.78,17.21 -38.27,33.71 -59.04,48.52 -3.14,2.08 -5.86,4.68 -7.99,7.82 11.55,0.02 22.7,-3.31 34.03,-5.2 91.62,-18.85 179.03,-58.13 253.35,-115.06 70.17,-52.67 129.26,-120.53 169.81,-198.45 21.28,-37.54 36.11,-78.46 47.52,-119.97 18.07,-63.21 21.97,-129.48 18,-194.84 -4.07,-39.24 -3.32,-38.05 -6.25,-51.59 -8.51,-47.74 -22.31,-94.69 -42.59,-138.8 24.27,-14.71 49.01,-28.91 71.4,-46.51 17.63,-15.77 35.8,-31.19 50.73,-49.67 37.88,-44.35 61.98,-98.91 75.54,-155.3 -55.48,-22.9 -114.21,-38.64 -174.08,-43.67 -47.86,-4.56 -95.96,-0.86 -143.53,4.85l16.62 -82.92c5.71,-32.56 10.89,-65.36 11.08,-98.49 2.99,-17.02 1.86,-34.33 1.84,-51.49 -3.09,-21.16 -2.23,-42.74 -6.35,-63.77 -7.97,-48.89 -24.05,-97.21 -52.1,-138.38 -42.05,-64.19 -100.23,-119.11 -170.57,-150.98 -43.91,-20.03 -91.82,-30.45 -139.8,-34.25 -49.99,-3.16 -100.18,0.42 -149.54,8.51l-34.47 6.17c-12.33,1.1 -24.62,5.65 -36.65,8.27 -57.1,13.95 -113.13,31.97 -168.17,52.49 -59.68,22.51 -121.22,42 -184.91,48.25 -31.97,0.51 -64.66,3.26 -95.89,-5 -26.36,-5.86 -51.76,-18.46 -70.78,-37.81 -5.76,-5.37 -8.95,-12.99 -15.3,-17.75 1.3,36.09 18.31,71.5 45.97,94.86 9.67,7.76 20.2,14.1 31.29,19.25 15.27,7.1 31.6,11.98 48.24,15.28 12.21,2.42 24.59,4 36.84,4.99 23.73,0.59 47.52,0.71 71.23,-0.39 16.23,-2.65 32.73,-3.21 48.91,-6.38 27.73,-3.33 54.8,-10.49 82.06,-16.4 12.63,-3.75 25.16,-7.75 37.88,-11.15 -5.76,4.58 -12.09,8.41 -18.86,11.33 -70.86,34.38 -145.93,59.16 -221.84,79.68 -12.03,3.14 -24.11,6.14 -36.22,8.99 -58.81,13.83 -118.53,23.98 -178.85,27.66 -28.64,0.24 -57.27,0.59 -85.89,-0.17 -14.69,0.02 -28.71,-5.69 -43.47,-5.1 1.13,-0.66 2.26,-1.3 3.38,-1.94 -11.33,-0.42 -22.02,-4.36 -32.71,-7.77 -42.12,-13.83 -80.74,-40.87 -104.47,-78.75 -3.98,-6.28 -6.76,-13.17 -9.86,-19.88l-8.03 0c-0.3,4.7 -0.66,9.4 -1.18,14.09 -0.76,32.58 8.39,65.14 25.03,93.12 10.89,17.87 25.74,32.95 41.53,46.51 30.62,24.59 68.11,38.81 106.07,47.44 32.3,5.6 43.83,7.62 75.17,9.81 30.65,0 61.57,1.86 91.97,-2.89 11.74,-2.33 23.86,-0.59 35.63,-2.82zm85.68 773.88c-2.66,-2.03 -5.4,-3.96 -8.2,-5.78 -4.19,-1.52 -4,-7.16 -0.44,-9.29 2.92,-2.77 5.79,-5.59 8.65,-8.43 16.12,-16.05 31.47,-32.92 48.8,-47.67 -1.69,19.07 4.19,40.58 20.42,52.2 18.34,13.88 42.32,18.93 64.95,18.85 2.21,38.12 -7.97,76.96 -28.59,109.15 -11.77,19.44 -28.81,34.82 -45.75,49.67 -5.37,4.07 -10.74,9.34 -17.87,9.61 -13.98,0.5 -27.98,-0.05 -41.96,0.25 -3.3,0.07 -6.6,0.19 -9.9,0.38 -14.61,1.42 -29.25,3.85 -43.86,4.63 -9.34,-7.55 -17.53,-16.57 -28.15,-22.46 -6.3,-4.66 -14.86,-6.28 -19.76,-12.65 -0.42,-7.87 1.74,-15.5 2.92,-23.19 17.9,-0.22 36.53,2.16 53.72,-4.07 16.59,-5.07 31.55,-13.63 45.03,-24.25 14.5,-11.43 27.29,-25.25 38.55,-39.67 -8.73,-18.64 -22.21,-34.85 -38.55,-47.3zm0 231.23c-2.91,-0.75 -5.67,-1.95 -8.11,-4.01 -5.15,-5 -11.35,-9.59 -14,-16.48 7.31,-1.45 14.69,-2.46 22.11,-3.19 18.72,-1.83 37.68,-1.82 56.48,-2.28 21.6,0.17 43.3,-0.59 64.85,1.25 -3.82,4.44 -9.9,5 -15.1,6.87 -21.65,6.45 -42.17,16.16 -61.83,27.17 -9,-2.52 -17.87,-5.66 -27.09,-7.26 -5.61,-0.87 -11.74,-0.64 -17.29,-2.07zm-75.85 -179.61c6.35,0.98 12.72,1.89 19.12,2.6 11.67,0.42 23.73,-1.77 34.99,2.45 -3.53,3.7 -7.11,7.4 -11.11,10.62 -9.39,6.4 -19.54,11.79 -30.43,15.23 -8.19,2.75 -16.6,4.81 -25.16,6.03l-2.18 0.34c0.79,-5.81 1.5,-11.62 2.89,-17.31 2.38,-7.5 6.89,-13.98 11.87,-19.96zm637.76 -97.48c-28.69,9.61 -58.48,15.81 -88.58,18.66 -15.54,0.25 -31.11,0.12 -46.66,0.07 -9.83,0.27 -19.3,-2.99 -29.1,-2.77 5.03,12.14 16.06,20.18 24.69,29.67 -19.32,0.98 -38,-4.93 -56.49,-9.64 -27.31,-8.7 -53.79,-22.21 -74.02,-42.88 -3.06,-2.89 -6.06,-6.01 -7.13,-10.2 35.13,-16.87 74.46,-20.86 112.64,-25.57 18.41,-0.44 36.83,-0.66 55.24,-0.44 11.11,-14.78 21.55,-30.16 34.28,-43.64 33.79,-36.26 79.51,-62.35 128.92,-69.09 -4.46,13.48 -13.83,24.47 -22.51,35.43 -5.93,7.67 -14.2,13.26 -19.32,21.6 13.51,-1.18 25.87,-7.6 39.4,-8.73 -6.67,16.5 -19.34,29.54 -31.75,41.88 -15.81,16.21 -35.53,27.68 -54.72,39.3 23.12,2.84 45.85,7.97 68.82,11.62 -9.73,7.89 -22.43,9.91 -33.69,14.74zm-62.08 -155.25c-79.05,16.16 -154,51.32 -217.72,100.67 21.92,-43.89 57.13,-80.62 98.68,-106.46 43.03,-27.51 92.46,-42.74 142.11,-53.13 14.49,-2.01 28.78,-6.69 43.59,-5.03 -17.7,20.1 -38.84,37.17 -55.95,57.94 -2.48,3.53 -6.69,5.03 -10.71,6.01zm-18.68 179.23c-21.8,2.38 -43.79,-1.15 -65.51,1.99 -3.36,0.73 -6.5,-0.64 -9.27,-2.35 18.95,-2.3 38.08,-0.96 57.13,-1.45 5.86,0.15 12.14,-0.59 17.65,1.81zm514.35 -2.37l-1.04 -13c-3.41,-26.16 -2.89,-52.96 -10.18,-78.53 -4.66,-14.17 -8.85,-28.66 -16.5,-41.58 -27.34,0.07 -55.31,0.78 -81.74,-7.31 -31.92,-8.39 -61.25,-24.64 -87.63,-44.18 -4.12,-2.82 -21.01,-12.19 -25.35,-14.57l12.47 1.82c2.6,0.24 5.22,0.61 7.85,1.08 62.47,18.29 129.65,23 193.45,8.97 18.95,-3.68 36.36,-12.5 55.04,-16.89 9.49,28.56 20.03,56.83 27.66,85.98 9.1,41.56 18.81,83.48 18.88,126.29 2.4,24.44 -0.66,48.91 -1.18,73.38 -3.75,32.19 -8.95,64.43 -18.88,95.38 -15.18,47.91 -33.47,95.23 -60.34,137.91 -8.29,15.35 -18.24,29.72 -26.95,44.82 -2.11,3.87 -5.52,6.72 -9.27,8.95 1.62,-4.54 3.41,-9.02 5.74,-13.24 7.33,-12.5 14.12,-25.35 19.91,-38.64 29.74,-71.1 48.45,-147.84 46.29,-225.25 1.35,-49.62 -4.9,-99.27 -15.77,-147.62 -1.27,-6.35 -3.73,-12.43 -8.21,-17.19l-1.2 2.3c0.44,21.6 -15.95,51.47 -23.06,71.11zm-477.89 -347.16c-0.49,0.88 -1.52,2.67 -2.01,3.55 -7.35,7.16 -15.74,13.12 -23.41,19.91 -9.49,7.8 -18.17,17.09 -29.74,21.82 -31.65,12.28 -61.79,28.15 -91.77,43.98 -10.52,6.62 -20.96,13.51 -32.58,18.14 4.07,-9.46 10.94,-17.24 18.39,-24.15 3.8,-3.8 7.5,-7.67 11.23,-11.5 -16.06,2.92 -32.34,4.49 -48.35,7.77 -19.59,4.73 -39.2,9.44 -58.21,16.16 -1.52,0.39 -4.56,1.18 -6.08,1.57 3.11,-3.21 6.25,-6.57 10.32,-8.53 15.28,-6.91 30.57,-13.83 45.95,-20.57 18,-8.36 36.38,-15.86 54.99,-22.8 48.67,-15.94 96.8,-34.08 146.96,-44.96 1.08,-0.1 3.24,-0.29 4.32,-0.39zm518.46 69.09c-53.62,19.64 -111.46,23 -168.07,21.85 -13.51,-0.86 -27.07,-1.27 -40.45,-3.36 7.36,-4.93 15.69,-8.02 23.68,-11.72 22.95,-11.25 45.73,-23.05 66.69,-37.76 -25.28,-6.62 -51.54,-1.08 -76.99,1.69 -17.48,1.62 -31.95,4.89 -51.93,7.8 18.27,-28.17 42.59,-51.78 68.36,-73.01 32.09,-23.34 67.43,-42.49 105.7,-53.31 1.41,-0.24 5.89,-1.85 8.21,-2.58 -6.79,8.34 -19.79,21.81 -26.14,30.51 -8.34,10.98 -15.3,23 -23.95,33.74 0.78,1.15 2.4,3.46 3.21,4.61 19.47,-14.25 42.37,-22.41 64.63,-31.11 30.79,-10.79 62.23,-20.35 94.79,-23.93 23.29,-4.41 46.98,-5.12 70.54,-6.91 13.53,-0.66 27.14,-1.01 40.68,0.17 -0.86,1.4 -4.39,3.62 -5.25,5.01 -40.33,26.87 -78.34,55.33 -121.56,77.42 -18.76,9.02 -37.27,18.54 -56.44,26.58 -0.1,0.93 -0.32,2.84 -0.42,3.78 23.42,2.56 42.18,5.82 66.11,6.09 5.57,0 12.52,0.48 18.07,0.96 -16.38,4.78 -43.26,18.23 -59.47,23.5zm-256.34 -307.26c-14.98,16.6 -35.75,26.14 -56.07,34.47 -36.48,13.58 -76.35,11.94 -114.57,9.76 -8.34,-0.37 -16.67,-0.42 -25.01,-0.71 -0.71,-1.1 -2.16,-3.29 -2.87,-4.39 3.78,-1.59 7.5,-3.68 11.72,-3.8 16.75,-0.03 32.98,-4.41 49.58,-5.93 26.38,-5.25 51.98,-13.66 76.99,-23.49 31.82,-13.66 63.4,-30.26 87.46,-55.71 0.78,1.47 2.3,4.44 3.06,5.91 -8.44,15.69 -17.58,31.24 -30.28,43.89zm-563.38 -257.17c-18.83,4.88 -37.76,9.76 -57.2,11.2 -0.42,-1.3 -1.27,-3.92 -1.69,-5.22 14.81,-3.63 29.13,-8.92 43.03,-15.2 23.27,-10.3 46.58,-20.59 68.7,-33.27 59.95,-31.73 115.77,-70.88 177.24,-99.81 20.72,-9.9 42.12,-18.39 63.55,-26.63 42.24,-13.12 85.96,-23.17 130.41,-23.22 1.5,-1.3 3.04,-2.65 4.56,-3.97 -14.96,-4.02 -28.74,-11.38 -43.62,-15.59 -35.75,-11.65 -73.33,-17.36 -110.9,-17.85 -24.66,-0.07 -49.33,-0.54 -73.97,0.47l-41.68 1.5 2.53 -0.69c6.62,-1.74 13.29,-3.26 19.96,-4.81 13.29,-3.21 26.58,-6.42 40.06,-8.73 32.51,-8.9 66.2,-11.92 99.69,-14.25 59.41,-2.6 119.87,3.68 176.21,23.29 38.96,14.34 76.72,33.54 108.35,60.76 38.91,32.41 69.31,74.31 90.94,119.92 3.41,6.52 5.81,13.58 5.91,21.01 -22.29,-16.87 -46.46,-31.16 -71.35,-43.84 -49.75,-25.74 -104.15,-43.64 -160.3,-46.98 -47.03,-4.56 -94.44,1.76 -140.37,11.87 -26.33,7.8 -53.28,13.68 -79.07,23.19 -39.45,14.69 -79,29.13 -118.57,43.47 -43.32,16.84 -87.48,31.58 -132.42,43.37zm222.43 745.77c-25.26,-2.65 -50.53,-1.64 -75.82,1.59 21.85,-16.75 78.69,-37.92 106.39,-47.15 0.98,-0.32 2.94,-0.98 3.92,-1.3l-34.49 46.86zm-49.23 375.37c25.84,6.28 51.66,12.92 78.11,16.06 39.25,4.44 79.02,4.88 118.45,2.08 1.15,0.56 3.48,1.67 4.66,2.21 -17.92,20.67 -35.7,41.51 -55.17,60.76 -16.43,14.12 -31.26,30.25 -50.04,41.41 9.07,5.05 19.42,0.49 29.05,0.12 17.9,-1.79 34.72,-8.9 52.32,-11.77 -10.25,28.83 -29.94,53.57 -51.76,74.68 -16.13,16.11 -36.7,26.6 -57.42,35.58 -22.63,9.34 -47.2,12.45 -71.35,15.2 -10.74,2.28 -21.55,4.46 -32.58,4.39 1.18,0.69 2.38,1.37 3.6,2.11 -9.83,-0.42 -19.27,2.28 -28.66,4.76 -47.81,11.2 -92.87,31.75 -134.7,57.22 11.89,-29.54 31.21,-55.24 51.61,-79.39 -4.39,0.03 -8.75,0.1 -13.07,0.74 -52.42,11.6 -103.17,31.24 -149.34,58.75 14.96,-26.82 37.98,-48.01 60.17,-68.85 22.09,-18.98 45.8,-35.94 69.85,-52.37 44.94,-29.67 92.46,-56.78 130.58,-95.42 19.59,-19.39 35.7,-42.49 45.68,-68.26z"/>
  </g>
 </g>
</svg>
