<?xml version="1.0" encoding="UTF-8"?>
<!DOCTYPE svg PUBLIC "-//W3C//DTD SVG 1.1//EN" "http://www.w3.org/Graphics/SVG/1.1/DTD/svg11.dtd">
<!-- Creator: CorelDRAW 2018 (64-Bit) -->
<svg xmlns="http://www.w3.org/2000/svg" xml:space="preserve" width="10.9973in" height="8.36627in" version="1.1" style="shape-rendering:geometricPrecision; text-rendering:geometricPrecision; image-rendering:optimizeQuality; fill-rule:evenodd; clip-rule:evenodd"
viewBox="0 0 8962.69 6818.42"
 xmlns:xlink="http://www.w3.org/1999/xlink">
 <defs>
  <style type="text/css">
   <![CDATA[
    .str0 {stroke:#FEFEFE;stroke-width:64.17;stroke-miterlimit:2.61313}
    .fil5 {fill:none}
    .fil4 {fill:#F8FCFB}
    .fil1 {fill:#025761;fill-rule:nonzero}
    .fil0 {fill:#090B08;fill-rule:nonzero}
    .fil3 {fill:#A0A8AA;fill-rule:nonzero}
    .fil2 {fill:white;fill-rule:nonzero}
   ]]>
  </style>
 </defs>
 <g id="Layer_x0020_1">
  <metadata id="CorelCorpID_0Corel-Layer"/>
  <g id="_1008358800">
   <path class="fil0" d="M2618.49 31.47c547.62,108.53 1060.12,361.35 1502.4,698.61 304.38,233.67 581.46,503.57 820.4,803.79 597.74,26.66 1186.85,174.94 1737.19,407.17 213.4,96.4 439.24,165.99 642.43,284.1 257.45,149.72 498.46,325.61 734.04,507.24 218.98,173.18 435.41,351.14 629.5,552.41 82.68,82.84 162.32,169.98 224.41,269.58 11.49,23.94 30.16,51.87 17.55,79.16 -17.88,27.93 -49.96,41.34 -79.17,53.63 -113.8,41.65 -234.3,59.69 -353.53,77.73 -185.47,25.54 -371.57,43.57 -558.15,58.1 -38.15,5.9 -77.89,-18.04 -114.44,-0.32 -224.09,91.61 -478.35,115.39 -712.34,48.36 26.01,-12.29 52.19,-24.74 78.21,-37.19 -105.02,-9.73 -208.61,-31.44 -309.01,-63.52 74.22,-35.28 162.33,-38.31 229.2,-89.54 -104.39,-3.83 -209.25,-17.08 -308.52,-50.28 55.07,-29.53 111.89,-55.54 165.99,-86.67 -94.81,11.65 -197.6,-18.67 -285.22,29.69 -99.28,43.42 -188.18,107.58 -269.11,178.76 -43.25,34.95 -50.12,93.37 -59.37,144.45 44.53,-2.08 88.74,-7.66 132.8,-15.8 -18.04,53.47 -59.22,93.53 -96.72,133.59 72.94,-1.44 146.52,-0.32 218.83,-12.93 -31.6,63.53 -78.85,117.95 -137.11,158.34 62.73,-1.92 124.33,-15.32 185.79,-27.3 -19.79,45.65 -44.37,89.06 -74.22,128.97 32.4,-0.96 65.12,-1.44 97.68,-0.32 -49.16,69.11 -113.16,125.45 -186.74,167.11 13.73,31.12 19.31,64.64 19.95,98.64 128.8,90.34 257.29,181.64 378.27,282.51 44.69,39.26 90.5,79.01 123.7,129.28 -256.34,-77.09 -493.04,-205.26 -733.72,-319.7 -53.15,14.85 -108.53,5.43 -160.89,-7.34 -128.16,-38.15 -240.53,-113.01 -352.25,-184.19 -243.73,-160.72 -482.02,-330.87 -737.56,-472.76 -267.82,-136.95 -558.15,-224.09 -851.36,-286.82 -59.53,-12.13 -118.74,-29.05 -179.56,-31.12 -43.09,165.04 12.93,335.82 73.26,489.36 44.05,100.71 89.54,202.71 153.54,292.41 164.88,50.12 341.09,86.35 482.34,191.05 -81.88,44.38 -177.33,45.49 -267.03,59.7 -29.85,-9.57 -54.58,-29.69 -81.88,-44.21 252.5,350.19 563.74,653.92 897,926.53 27.77,22.18 55.38,50.91 93.53,51.87 343,58.74 681.69,145.57 1009.85,262.08 316.99,122.26 627.9,262.4 924.61,428.55 120.51,68.63 240.53,140.93 345.08,232.87 32.55,27.77 59.69,61.77 79.96,99.6 -122.74,-50.6 -247.08,-105.82 -381.31,-114.44 -63.04,-10.21 -126.88,0.48 -190.09,-3.19 -41.66,-42.14 -60.5,-100.07 -92.1,-148.92 -40.06,-79.32 -132.63,-104.86 -209.09,-135.35 -315.22,-100.71 -646.57,-135.19 -974.25,-169.82 11.81,30.16 25.7,59.53 39.9,88.74 -52.67,-0.8 -105.34,-3.19 -157.69,2.24 -114.44,177.16 -145.57,392.64 -148.28,599.65 -205.26,-191.05 -309.01,-463.66 -368.38,-731.65 -21.87,-99.11 -35.44,-199.67 -45.33,-300.38 -678.02,-476.59 -1338.64,-980.16 -1952.18,-1537.99 -270.06,-251.55 -534.69,-512.35 -753.2,-811.14 -5.27,-5.42 -15.96,-16.6 -21.23,-22.18 -547.78,-66.08 -1096.52,-131.2 -1647.96,-156.42 -262.72,-17.07 -526.07,-8.78 -788.95,-9.1 59.22,-40.06 128.33,-60.81 195.84,-81.56 235.27,-70.23 475.8,-119.87 716.01,-169.83 472.28,-94.49 947.28,-175.25 1423.71,-246.6 43.42,-136.79 100.39,-271.66 191.37,-384.18 199.68,-247.71 473.56,-431.42 771.23,-540.6 28.89,-224.09 5.43,-453.77 -42.77,-674.03 -87.46,-383.7 -295.6,-741.06 -597.9,-994.84 -20.27,-16.44 -39.74,-34 -56.98,-53.63zm339.01 127.52l0 0c37.67,30.81 83.48,47.73 128.01,65.92 176.53,70.87 339.65,169.83 500.69,269.9 432.23,279.16 829.33,619.76 1147.75,1025.33 30.16,24.58 75.01,6.39 110.77,7.18 -17.72,-36.23 -42.94,-67.67 -70.71,-96.4 -209.41,-246.76 -448.35,-467.97 -702.92,-667.65 -334.86,-260.96 -714.41,-461.59 -1113.6,-604.29zm913.93 1521.4l0 0c-415.62,80.92 -846.41,212.44 -1155.89,516.02 -70.86,78.37 -149.87,154.98 -190.41,254.42 222.5,-225.85 480.74,-414.83 758.62,-566.61 207.17,-103.27 434.3,-159.61 661.26,-199.35 196,-24.42 394.23,-49.8 591.83,-27.77 75.01,8.3 153.87,2.87 224.09,35.43 -146.2,10.37 -295.6,26.81 -432.7,81.08 132.8,-7.82 265.59,-19.79 398.71,-26.5 331.34,10.06 663.97,39.1 985.74,123.06 149.87,25.06 288.41,90.65 434.93,128.33 103.11,33.36 203.82,74.06 302.14,119.23 16.44,8.94 37.83,13.09 48.2,30.32 -48.2,18.36 -103.43,21.07 -144.92,54.27 89.86,11.17 183.07,14.84 267.98,49 75.49,37.19 138.86,94.17 202.38,148.6 76.45,77.73 161.21,147.63 224.25,237.66 47.88,68.64 136.79,19.15 195.84,-5.11 0,37.35 -0.47,74.7 -1.43,112.21 135.35,60.17 269.74,122.26 400.14,192.49 158.82,94.17 326.24,172.85 484.26,268.3 133.27,78.69 276.13,140.77 402.06,231.12 99.6,60.33 203.18,118.59 318.1,143.65 -17.24,-64.32 -76.77,-101.99 -118.74,-149.4 -368.54,-380.98 -784.96,-712.66 -1223.73,-1009.05 -106.78,-57.62 -196.64,-144.77 -312.67,-184.83 -177.48,-86.83 -364.07,-152.9 -543.31,-235.9 -494.95,-204.62 -1018.15,-348.27 -1553.32,-389.92 -196.32,-22.34 -394.39,-11.65 -591.51,-11.65 -211.64,17.56 -424.08,34.64 -631.89,80.92zm544.59 525.6l0 0c-124.18,109.81 -192.02,270.38 -219.15,431.1 -7.98,71.03 -3.03,142.53 -1.91,213.72 24.9,-86.35 49.16,-173.33 85.87,-255.69 71.35,-158.33 192.01,-291.12 335.02,-388.49 -66.72,-2.39 -133.27,-1.43 -199.83,-0.64zm352.42 1.12l0 0c-90.5,85.55 -184.83,172.38 -239.42,286.5 -81.56,131.84 -119.23,286.02 -130.56,439.24 58.42,-126.89 112.37,-259.05 202.38,-367.9 116.84,-139.82 263.83,-255.21 428.71,-333.11 -85.39,-20.75 -173.33,-29.85 -261.12,-24.74zm-695.9 36.39l0 0c-65.6,81.56 -102.47,185.62 -114.92,288.89 -11.97,83.64 7.66,166.47 13.41,249.63 3.03,-0.16 9.26,-0.48 12.29,-0.64 -2.71,-143 41.5,-286.98 125.14,-403.01 37.83,-55.22 89.54,-98.96 128.49,-153.23 -54.91,4.79 -110.77,5.11 -164.4,18.36zm895.57 199.99l0 0c10.54,2.87 31.77,8.78 42.3,11.66 358.64,40.54 710.9,137.1 1043.05,278.04 -186.42,-42.46 -379.87,-8.62 -559.27,48.68 -210.69,68.31 -410.36,167.27 -599.49,281.87 -147.8,86.67 -314.11,132.64 -479.15,173.5 -331.19,40.54 -662.86,83.31 -996.44,101.35 -159.77,0.48 -319.06,18.04 -478.99,8.94 -136.94,-11.33 -274.84,-4.31 -411.31,-22.03 277.88,351.46 586.56,680.26 930.52,968.03 48.04,37.83 92.58,81.88 148.75,108.06 -81.56,-80.44 -146.36,-176.05 -204.3,-274.21 -80.76,-144.45 -145.4,-313.95 -102.47,-481.06 -59.22,32.4 -103.27,83.15 -148.28,131.84 17.08,-63.21 46.93,-126.25 100.4,-166.48 87.94,-68.79 203.34,-83.15 311.08,-91.77 217.07,-8.46 431.1,37.19 644.02,71.99 297.51,58.73 589.12,154.18 858.54,294 135.19,68.63 261.44,152.91 386.41,238.29 -64.96,-128.96 -138.86,-253.62 -223.3,-370.77 -70.23,-95.92 -145.72,-191.05 -242.92,-261.28 73.1,22.98 133.27,72.3 192.32,119.23 283.15,246.11 461.91,590.39 755.75,825.5 133.75,107.73 321.93,177.01 489.52,111.25 41.81,-12.93 39.26,-57.94 31.12,-92.25 -46.93,0.8 -95.77,4.63 -140.3,-13.25 -149.39,-53.47 -274.53,-158.66 -379.87,-275.01 -165.36,-190.58 -228.56,-446.43 -246.12,-692.54 -12.61,-86.03 45.65,-158.49 101.83,-216.11 59.22,-60.5 134.08,-101.03 202.07,-150.35 -100.23,13.56 -198.23,46.28 -287.93,92.73 16.92,-23.78 47.88,-32.24 67.99,-53.15 79.96,-26.5 150.67,-75.02 231.43,-99.76 216.11,-77.57 454.25,-70.55 673.39,-8.94 255.69,67.36 497.82,179.4 726.38,311.24 153.38,92.26 306.61,190.73 429.03,323.05 23.14,22.67 45.17,49.8 76.78,60.97 55.7,12.61 113.48,5.43 169.82,1.91 197.11,-17.56 393.44,-41.66 589.28,-70.39 18.19,-3.99 36.23,-9.26 54.11,-15.8 -141.1,-26.34 -278.52,-66.4 -415.3,-108.53 -429.51,-172.7 -845.29,-376.52 -1265.55,-569.97 -176.36,-86.35 -357.52,-162.64 -543.31,-226.33 -493.51,-169.03 -1008.41,-290.17 -1531.61,-302.14zm1603.28 -18.51l0 0c22.18,91.14 69.42,172.54 118.75,251.23 82.68,34.95 170.3,55.07 256.49,78.85 -122.58,-112.21 -222.97,-255.22 -375.24,-330.08zm-3953.53 348.59l0 0c43.58,24.26 87.31,49 127.37,79.01 -68.63,63.21 -168.23,31.44 -251.87,43.57 -190.57,19.15 -382.74,1.44 -572.84,26.34 -171.73,1.92 -341.88,27.29 -513.3,37.03 -315.55,37.83 -631.41,80.76 -940.74,154.83 212.76,0.31 426,-3.67 638.28,12.92 540.12,7.98 1073.85,101.67 1611.41,143.49 343.16,10.06 687.91,7.98 1028.21,-41.34 87.78,-13.73 178.12,-15.48 262.72,-45.33 -159.29,-44.21 -303.74,-126.73 -449.94,-201.26 -233.83,-118.91 -492.88,-186.26 -754.31,-204.94 -61.29,-7.82 -123.54,-18.19 -184.99,-4.31zm3712.83 308.05l0 0c-21.07,9.58 -35.59,29.05 -52.67,44.37 49.32,0.8 98.96,0.32 147.96,-6.71 25.54,-1.59 55.86,-13.25 79.16,-6.7 -1.43,8.14 -4.31,24.58 -5.75,32.72 -28.57,32.24 -60.01,61.61 -95.12,86.35 81.88,6.39 165.36,11.01 246.27,-8.62 4.15,14.85 11.49,34.8 -3.83,46.29 -30.65,35.43 -68.31,63.68 -103.91,93.85 106.62,10.85 215.63,5.74 319.22,-23.46 -44.37,61.61 -99.44,116.19 -166.31,152.91 136.47,17.24 276.44,11.17 409.56,-25.06 -39.74,67.35 -109.01,110.45 -174.45,149.87 132,21.87 266.39,27.3 399.18,10.22 -91.46,54.91 -190.1,95.77 -288.74,135.51 104.39,26.02 212.28,21.55 318.9,20.11 -30.49,23.78 -63.04,44.69 -94.97,66.56 129.92,13.25 259.84,-5.59 382.91,-47.89 46.61,-7.5 91.46,-22.02 135.98,-37.35 -3.67,-83.16 -68.15,-139.98 -128.33,-187.86 -213.4,-167.91 -459.04,-289.05 -708.19,-394.08 -185.46,-77.73 -380.67,-140.46 -583.05,-147.64 -11.49,15.32 -22.83,30.8 -33.84,46.61zm-2558.06 520.01l0 0c18.36,399.98 224.57,766.45 482.34,1062.68 62.41,75.34 128.49,148.44 202.07,213.24 -89.7,-123.86 -184.51,-244.52 -263.04,-376.2 -139.98,-225.69 -263.99,-472.44 -287.3,-741.07 -5.9,-49.16 3.51,-98.16 13.73,-146.04 -48.84,-8.78 -98.16,-15.64 -147.8,-12.61zm2031.19 189.62l0 0c31.76,126.25 88.42,247.55 175.41,345.23 99.44,110.29 217.07,208.13 355.93,264.15 28.41,5.74 56.02,25.38 85.71,18.2 51.24,-30.64 88.58,-79.01 125.29,-124.97 -94.65,1.76 -189.46,5.75 -283.79,-4.15 -6.7,-3.35 -20.11,-10.06 -26.81,-13.41 59.38,-26.82 99.6,-79.97 140.93,-128.01 -61.28,7.34 -122.89,16.44 -184.67,11.97 -51.56,-6.54 -103.27,-4.31 -154.98,-2.71l-2.23 -5.43c21.39,-2.08 42.93,-3.67 64.64,-4.95 57.3,-29.2 105.18,-72.62 139.18,-127.21 -75.01,3.51 -150.03,1.6 -224.09,-9.9 -22.18,-10.69 -47.56,-11.65 -71.19,-16.6 1.92,-4.15 5.43,-12.3 7.34,-16.44 78.85,-25.06 148.76,-76.13 199.99,-140.93 -49.16,1.12 -98.32,0 -147.32,-2.87 -67.35,-9.89 -133.75,-24.42 -199.35,-41.98zm-821.83 1617.64l0 0c60.81,55.54 115.39,117.63 176.69,172.86 143.01,123.21 292.4,239.41 448.34,345.72 -25.86,-37.03 -61.61,-65.13 -98.48,-90.35 -177.81,-139.66 -344.75,-294.16 -526.55,-428.23z"/>
   <path class="fil1" d="M2957.5 158.99c399.18,142.7 778.73,343.32 1113.6,604.29 254.57,199.67 493.51,420.89 702.92,667.65 27.77,28.73 52.99,60.17 70.71,96.4 -35.76,-0.8 -80.61,17.4 -110.77,-7.18 -318.42,-405.56 -715.53,-746.17 -1147.75,-1025.33 -161.04,-100.08 -324.16,-199.03 -500.69,-269.9 -44.53,-18.19 -90.34,-35.11 -128.01,-65.92z"/>
   <path class="fil1" d="M3871.43 1680.39c207.81,-46.28 420.25,-63.36 631.89,-80.92 197.12,0 395.2,-10.69 591.51,11.65 535.17,41.66 1058.37,185.3 1553.32,389.92 179.24,83 365.83,149.08 543.31,235.9 116.04,40.06 205.89,127.21 312.67,184.83 438.77,296.39 855.19,628.06 1223.73,1009.05 41.98,47.4 101.51,85.07 118.74,149.4 -114.92,-25.06 -218.5,-83.32 -318.1,-143.65 -125.93,-90.34 -268.78,-152.43 -402.06,-231.12 -158.01,-95.45 -325.44,-174.13 -484.26,-268.3 -130.4,-70.23 -264.79,-132.32 -400.14,-192.49 0.96,-37.51 1.43,-74.86 1.43,-112.21 -59.05,24.26 -147.96,73.74 -195.84,5.11 -63.05,-90.02 -147.8,-159.93 -224.25,-237.66 -63.52,-54.43 -126.89,-111.41 -202.38,-148.6 -84.91,-34.16 -178.12,-37.83 -267.98,-49 41.5,-33.2 96.72,-35.91 144.92,-54.27 -10.37,-17.24 -31.76,-21.39 -48.2,-30.32 -98.32,-45.17 -199.03,-85.87 -302.14,-119.23 -146.52,-37.67 -285.06,-103.27 -434.93,-128.33 -321.77,-83.96 -654.4,-113 -985.74,-123.06 -133.12,6.71 -265.91,18.68 -398.71,26.5 137.1,-54.27 286.5,-70.71 432.7,-81.08 -70.23,-32.56 -149.08,-27.13 -224.09,-35.43 -197.6,-22.03 -395.83,3.35 -591.83,27.77 -226.96,39.74 -454.09,96.09 -661.26,199.35 -277.88,151.79 -536.13,340.76 -758.62,566.61 40.54,-99.44 119.55,-176.05 190.41,-254.42 309.49,-303.58 740.27,-435.09 1155.89,-516.02z"/>
   <path class="fil1" d="M4416.02 2205.99c66.55,-0.8 133.11,-1.76 199.83,0.64 -143.01,97.37 -263.67,230.16 -335.02,388.49 -36.71,82.36 -60.97,169.35 -85.87,255.69 -1.12,-71.19 -6.07,-142.69 1.91,-213.72 27.13,-160.72 94.97,-321.29 219.15,-431.1z"/>
   <path class="fil1" d="M4768.43 2207.1c87.78,-5.11 175.73,3.99 261.12,24.74 -164.87,77.89 -311.87,193.29 -428.71,333.11 -90.02,108.85 -143.96,241.01 -202.38,367.9 11.33,-153.23 49,-307.41 130.56,-439.24 54.59,-114.12 148.92,-200.95 239.42,-286.5z"/>
   <path class="fil1" d="M4072.54 2243.49c53.63,-13.25 109.49,-13.56 164.4,-18.36 -38.95,54.27 -90.66,98 -128.49,153.23 -83.63,116.04 -127.84,260.01 -125.14,403.01 -3.03,0.16 -9.26,0.48 -12.29,0.64 -5.75,-83.16 -25.38,-165.99 -13.41,-249.63 12.45,-103.27 49.32,-207.33 114.92,-288.89z"/>
   <path class="fil1" d="M2617.86 2773.56c61.45,-13.88 123.7,-3.51 184.99,4.31 261.44,18.68 520.49,86.03 754.31,204.94 146.2,74.54 290.65,157.05 449.94,201.26 -84.59,29.85 -174.93,31.6 -262.72,45.33 -340.29,49.32 -685.05,51.4 -1028.21,41.34 -537.56,-41.82 -1071.3,-135.51 -1611.41,-143.49 -212.28,-16.6 -425.52,-12.61 -638.28,-12.92 309.32,-74.06 625.19,-117 940.74,-154.83 171.42,-9.73 341.57,-35.11 513.3,-37.03 190.1,-24.9 382.27,-7.18 572.84,-26.34 83.64,-12.13 183.23,19.63 251.87,-43.57 -40.06,-30.01 -83.79,-54.75 -127.37,-79.01z"/>
   <path class="fil1" d="M3772.63 3601.61c49.64,-3.03 98.96,3.83 147.8,12.61 -10.22,47.88 -19.63,96.88 -13.73,146.04 23.3,268.63 147.32,515.38 287.3,741.07 78.53,131.68 173.34,252.34 263.04,376.2 -73.58,-64.8 -139.66,-137.9 -202.07,-213.24 -257.77,-296.23 -463.98,-662.7 -482.34,-1062.68z"/>
   <path class="fil1" d="M4981.99 5408.87c181.79,134.07 348.74,288.57 526.55,428.23 36.87,25.22 72.62,53.31 98.48,90.35 -155.94,-106.3 -305.33,-222.5 -448.34,-345.72 -61.29,-55.23 -115.88,-117.31 -176.69,-172.86z"/>
   <path class="fil2" d="M6571.38 2424.97c152.27,74.86 252.66,217.87 375.24,330.08 -86.19,-23.79 -173.82,-43.9 -256.49,-78.85 -49.32,-78.69 -96.56,-160.08 -118.75,-251.23z"/>
   <path class="fil3" d="M5860.96 3072.83c160.41,-102.79 352.26,-156.42 542.83,-152.91 190.89,7.98 373.97,72.78 548.42,146.84 304.7,128.49 586.25,303.74 868.76,474.04 152.75,79.33 326.72,9.58 487.61,1.12 136.78,42.14 274.21,82.2 415.3,108.53 -17.88,6.54 -35.91,11.81 -54.11,15.8 -195.84,28.73 -392.16,52.83 -589.28,70.39 -56.34,3.51 -114.12,10.7 -169.82,-1.91 -31.61,-11.18 -53.63,-38.31 -76.78,-60.97 -122.42,-132.32 -275.65,-230.79 -429.03,-323.05 -228.56,-131.84 -470.69,-243.88 -726.38,-311.24 -219.14,-61.61 -457.28,-68.63 -673.39,8.94 -80.76,24.74 -151.47,73.26 -231.43,99.76 26.66,-27.78 54.43,-54.91 87.31,-75.34z"/>
   <path class="fil3" d="M6330.69 3081.6c11.01,-15.8 22.34,-31.28 33.84,-46.61 202.38,7.18 397.59,69.91 583.05,147.64 249.15,105.02 494.79,226.17 708.19,394.08 60.17,47.88 124.65,104.7 128.33,187.86 -44.53,15.32 -89.38,29.84 -135.98,37.35 11.33,-17.71 22.98,-35.27 34.31,-52.99 -75.65,-2.39 -151.15,3.04 -226.49,7.98 58.58,-26.97 135.03,-43.73 163.6,-108.54 15.8,-27.93 -15.8,-52.35 -37.67,-63.2 -41.02,-13.89 -85.23,-9.9 -127.84,-11.65 17.88,-9.73 35.91,-19.32 53.95,-28.89 -58.58,-118.91 -219.94,-120.35 -334.38,-106.3 14.04,-20.91 52.19,-38.15 35.91,-67.36 -38.47,-45.8 -91.78,-82.67 -151.63,-92.89 -41.5,-3.83 -81.88,9.26 -121.94,18.04 5.9,-20.59 12.13,-41.02 16.76,-61.93 -88.42,-57.46 -202.54,-29.05 -284.42,26.18 3.04,-16.44 6.22,-32.88 9.58,-49.16 21.07,-13.25 38.78,-30.8 51.39,-52.35 -67.03,-20.43 -137.43,-19.47 -206.53,-15.8 -5.75,-10.38 -11.65,-20.59 -17.56,-30.49 -23.3,-6.55 -53.63,5.11 -79.16,6.7 -3.67,-9.09 -11.02,-27.29 -14.84,-36.23 -26.82,-0.8 -53.79,-1.59 -80.44,-1.43z"/>
   <path class="fil3" d="M3419.1 3338.58c333.58,-18.04 665.25,-60.81 996.44,-101.35 146.84,-0.48 297.51,-20.59 440.04,27.45 364.55,108.53 633.01,404.61 838.75,710.58 131.68,202.23 277.4,415.94 504.53,518.73 83.95,41.5 191.53,32.56 257.13,-38.15 8.14,34.31 10.69,79.33 -31.12,92.25 -167.59,65.76 -355.77,-3.51 -489.52,-111.25 -293.84,-235.11 -472.6,-579.39 -755.75,-825.5 -59.05,-46.93 -119.23,-96.25 -192.32,-119.23 97.2,70.23 172.69,165.36 242.92,261.28 84.43,117.16 158.34,241.81 223.3,370.77 -124.97,-85.39 -251.23,-169.66 -386.41,-238.29 -269.42,-139.82 -561.03,-235.27 -858.54,-294 -212.92,-34.8 -426.95,-80.44 -644.02,-71.99 -107.74,8.62 -223.14,22.99 -311.08,91.77 -53.47,40.22 -83.32,103.27 -100.4,166.48 45.01,-48.68 89.06,-99.44 148.28,-131.84 -42.94,167.11 21.7,336.62 102.47,481.06 57.94,98.16 122.74,193.77 204.3,274.21 -56.18,-26.18 -100.71,-70.23 -148.75,-108.06 -343.96,-287.78 -652.64,-616.57 -930.52,-968.03 136.47,17.72 274.37,10.7 411.31,22.03 159.93,9.1 319.22,-8.46 478.99,-8.94z"/>
   <path class="fil3" d="M5803.82 3791.23c65.6,17.55 132,32.08 199.35,41.98 -70.23,4.79 -96.4,82.2 -112.37,139.66 16.92,12.45 40.06,3.83 59.69,4.15 -1.91,4.15 -5.42,12.3 -7.34,16.44 23.62,4.94 49,5.9 71.19,16.6 -3.83,48.36 -4.94,98.48 20.27,142.05l2.23 5.43c51.71,-1.59 103.43,-3.83 154.98,2.71 -19.47,40.06 -28.89,83.47 -27.61,128.01 23.62,-3.67 47.56,-7.19 71.34,-11.97 6.71,3.35 20.11,10.06 26.81,13.41 24.74,5.74 49.96,9.58 75.18,13.89 -5.59,21.86 -11.01,43.57 -16.44,65.43 3.51,7.98 10.53,23.79 14.05,31.6 -138.86,-56.02 -256.49,-153.86 -355.93,-264.15 -86.99,-97.68 -143.65,-218.98 -175.41,-345.23z"/>
   <path class="fil4" d="M5935.82 4167.59c-165.36,-190.58 -228.56,-446.43 -246.12,-692.54 -12.61,-86.03 45.65,-158.49 101.83,-216.11 59.22,-60.5 134.08,-101.03 202.07,-150.35 -100.23,13.56 -198.23,46.28 -287.93,92.73 16.92,-23.78 47.88,-32.24 67.99,-53.15 26.66,-27.78 54.43,-54.91 87.31,-75.34 160.41,-102.79 352.26,-156.42 542.83,-152.91 190.89,7.98 373.97,72.78 548.42,146.84 304.7,128.49 586.25,303.74 868.76,474.04 152.75,79.33 326.72,9.58 487.61,1.12 -429.51,-172.7 -845.29,-376.52 -1265.55,-569.97 -176.36,-86.35 -357.52,-162.64 -543.31,-226.33 -493.51,-169.03 -1008.41,-290.17 -1531.61,-302.14 10.54,2.87 31.77,8.78 42.3,11.66 358.64,40.54 710.9,137.1 1043.05,278.04 -186.42,-42.46 -379.87,-8.62 -559.27,48.68 -210.69,68.31 -410.36,167.27 -599.49,281.87 -147.8,86.67 -314.11,132.64 -479.15,173.5 146.84,-0.48 297.51,-20.59 440.04,27.45 364.55,108.53 633.01,404.61 838.75,710.58 131.68,202.23 277.4,415.94 504.53,518.73 83.95,41.5 191.53,32.56 257.13,-38.15 -46.93,0.8 -95.77,4.63 -140.3,-13.25 -149.39,-53.47 -274.53,-158.66 -379.87,-275.01z"/>
   <path class="fil4" d="M6003.17 3833.2c-70.23,4.79 -96.4,82.2 -112.37,139.66 16.92,12.45 40.06,3.83 59.69,4.15 78.85,-25.06 148.76,-76.13 199.99,-140.93 -49.16,1.12 -98.32,0 -147.32,-2.87z"/>
   <path class="fil4" d="M6238.43 4019.95c-75.01,3.51 -150.03,1.6 -224.09,-9.9 -3.83,48.36 -4.94,98.48 20.27,142.05 21.39,-2.08 42.93,-3.67 64.64,-4.95 57.3,-29.2 105.18,-72.62 139.18,-127.21z"/>
   <path class="fil4" d="M6376.49 4148.27c-61.28,7.34 -122.89,16.44 -184.67,11.97 -19.47,40.06 -28.89,83.47 -27.61,128.01 23.62,-3.67 47.56,-7.19 71.34,-11.97 59.38,-26.82 99.6,-79.97 140.93,-128.01z"/>
   <path class="fil4" d="M6546.16 4293.84c-94.65,1.76 -189.46,5.75 -283.79,-4.15 24.74,5.74 49.96,9.58 75.18,13.89 -5.59,21.86 -11.01,43.57 -16.44,65.43 3.51,7.98 10.53,23.79 14.05,31.6 28.41,5.74 56.02,25.38 85.71,18.2 51.24,-30.64 88.58,-79.01 125.29,-124.97z"/>
   <path class="fil4" d="M7041.27 3763.14c104.39,26.02 212.28,21.55 318.9,20.11 -30.49,23.78 -63.04,44.69 -94.97,66.56 129.92,13.25 259.84,-5.59 382.91,-47.89 11.33,-17.71 22.98,-35.27 34.31,-52.99 -75.65,-2.39 -151.15,3.04 -226.49,7.98 58.58,-26.97 135.03,-43.73 163.6,-108.54 15.8,-27.93 -15.8,-52.35 -37.67,-63.2 -41.02,-13.89 -85.23,-9.9 -127.84,-11.65 17.88,-9.73 35.91,-19.32 53.95,-28.89 -58.58,-118.91 -219.94,-120.35 -334.38,-106.3 14.04,-20.91 52.19,-38.15 35.91,-67.36 -38.47,-45.8 -91.78,-82.67 -151.63,-92.89 -41.5,-3.83 -81.88,9.26 -121.94,18.04 5.9,-20.59 12.13,-41.02 16.76,-61.93 -88.42,-57.46 -202.54,-29.05 -284.42,26.18 3.04,-16.44 6.22,-32.88 9.58,-49.16 21.07,-13.25 38.78,-30.8 51.39,-52.35 -67.03,-20.43 -137.43,-19.47 -206.53,-15.8 -5.75,-10.38 -11.65,-20.59 -17.56,-30.49 -1.43,8.14 -4.31,24.58 -5.75,32.72 -28.57,32.24 -60.01,61.61 -95.12,86.35 81.88,6.39 165.36,11.01 246.27,-8.62 4.15,14.85 11.49,34.8 -3.83,46.29 -30.65,35.43 -68.31,63.68 -103.91,93.85 106.62,10.85 215.63,5.74 319.22,-23.46 -44.37,61.61 -99.44,116.19 -166.31,152.91 136.47,17.24 276.44,11.17 409.56,-25.06 -39.74,67.35 -109.01,110.45 -174.45,149.87 132,21.87 266.39,27.3 399.18,10.22 -91.46,54.91 -190.1,95.77 -288.74,135.51z"/>
   <path class="fil4" d="M6278.02 3125.98c49.32,0.8 98.96,0.32 147.96,-6.71 -3.67,-9.09 -11.02,-27.29 -14.84,-36.23 -26.82,-0.8 -53.79,-1.59 -80.44,-1.43 -21.07,9.58 -35.59,29.05 -52.67,44.37z"/>
   <path class="fil5 str0" d="M6678.48 1941.03c213.4,96.41 439.24,166 642.43,284.1 257.45,149.71 498.46,325.61 734.04,507.24 218.98,173.18 435.41,351.14 629.5,552.41 82.68,82.84 162.32,169.99 224.41,269.58 11.49,23.94 30.17,51.87 17.56,79.16 -17.88,27.93 -49.96,41.34 -79.17,53.63 -113.81,41.65 -234.3,59.69 -353.53,77.73 -185.47,25.54 -371.57,43.57 -558.15,58.1 -38.15,5.9 -77.9,-18.04 -114.44,-0.32 -224.09,91.61 -478.35,115.39 -712.34,48.36 26.02,-12.29 52.19,-24.74 78.21,-37.19 -105.02,-9.74 -208.61,-31.44 -309.01,-63.53 74.22,-35.27 162.33,-38.3 229.2,-89.54 -104.38,-3.83 -209.25,-17.08 -308.52,-50.28 55.07,-29.53 111.88,-55.54 165.99,-86.66 -94.81,11.65 -197.6,-18.68 -285.22,29.69 -99.27,43.41 -188.18,107.58 -269.1,178.76 -43.26,34.96 -50.12,93.37 -59.38,144.45 44.53,-2.08 88.74,-7.67 132.8,-15.8 -18.04,53.47 -59.21,93.53 -96.72,133.59 72.94,-1.44 146.52,-0.32 218.82,-12.93 -31.6,63.53 -78.85,117.95 -137.1,158.34 62.73,-1.92 124.34,-15.32 185.78,-27.3 -19.79,45.65 -44.37,89.06 -74.22,128.97 32.4,-0.96 65.12,-1.44 97.68,-0.32 -49.16,69.11 -113.16,125.45 -186.74,167.11 13.73,31.12 19.31,64.64 19.95,98.64 128.8,90.34 257.29,181.64 378.27,282.51 44.69,39.26 90.5,79.01 123.7,129.28 -256.33,-77.09 -493.04,-205.26 -733.72,-319.69 -53.15,14.84 -108.53,5.42 -160.88,-7.35 -128.16,-38.14 -240.53,-113 -352.26,-184.19 -243.73,-160.72 -482.02,-330.87 -737.55,-472.76 -267.83,-136.95 -558.15,-224.09 -851.36,-286.82 -59.53,-12.13 -118.74,-29.04 -179.56,-31.12 -43.09,165.04 12.93,335.82 73.26,489.36 44.05,100.72 89.54,202.71 153.55,292.4 164.87,50.12 341.08,86.35 482.34,191.05 -81.88,44.37 -177.33,45.49 -267.03,59.69 -29.85,-9.57 -54.58,-29.68 -81.88,-44.21 252.5,350.18 563.74,653.92 897.01,926.53 27.77,22.18 55.38,50.91 93.53,51.87 343,58.73 681.69,145.57 1009.84,262.08 316.99,122.26 627.91,262.4 924.62,428.55 120.5,68.63 240.53,140.93 345.08,232.87 32.56,27.78 59.69,61.78 79.96,99.6 -122.74,-50.6 -247.07,-105.83 -381.31,-114.44 -63.05,-10.21 -126.89,0.48 -190.09,-3.19 -41.66,-42.14 -60.5,-100.07 -92.1,-148.92 -40.06,-79.33 -132.64,-104.86 -209.09,-135.35 -315.22,-100.71 -646.58,-135.19 -974.25,-169.82 11.81,30.17 25.7,59.53 39.9,88.74 -52.67,-0.8 -105.34,-3.2 -157.69,2.24 -114.44,177.16 -145.57,392.64 -148.28,599.66 -205.26,-191.06 -309.01,-463.66 -368.38,-731.65 -21.87,-99.11 -35.44,-199.67 -45.33,-300.38 -678.02,-476.59 -1338.65,-980.16 -1952.19,-1537.99 -270.06,-251.55 -534.69,-512.35 -753.2,-811.14 -5.27,-5.42 -15.96,-16.6 -21.23,-22.18 -547.78,-66.08 -1096.51,-131.2 -1647.96,-156.42 -262.72,-17.08 -526.07,-8.78 -788.95,-9.1 59.22,-40.06 128.33,-60.81 195.84,-81.56 235.27,-70.23 475.8,-119.87 716.01,-169.83 472.29,-94.49 947.29,-175.25 1423.72,-246.6 43.42,-136.79 100.39,-271.66 191.37,-384.18 199.68,-247.72 473.56,-431.43 771.23,-540.6 28.89,-224.09 5.43,-453.77 -42.77,-674.03 -87.47,-383.7 -295.6,-741.06 -597.9,-994.84 -20.27,-16.44 -39.74,-34 -56.98,-53.63 547.62,108.53 1060.13,361.35 1502.4,698.61 304.38,233.67 581.46,503.57 820.4,803.79 597.74,26.66 1186.85,174.93 1737.19,407.16z"/>
  </g>
 </g>
</svg>
