<?xml version="1.0" encoding="UTF-8"?>
<!DOCTYPE svg PUBLIC "-//W3C//DTD SVG 1.1//EN" "http://www.w3.org/Graphics/SVG/1.1/DTD/svg11.dtd">
<!-- Creator: CorelDRAW 2018 (64-Bit) -->
<svg xmlns="http://www.w3.org/2000/svg" xml:space="preserve" width="8.2555in" height="8.31703in" version="1.1" style="shape-rendering:geometricPrecision; text-rendering:geometricPrecision; image-rendering:optimizeQuality; fill-rule:evenodd; clip-rule:evenodd"
viewBox="0 0 3915.18 3944.36"
 xmlns:xlink="http://www.w3.org/1999/xlink">
 <defs>
  <style type="text/css">
   <![CDATA[
    .str0 {stroke:white;stroke-width:37.34;stroke-miterlimit:2.61313}
    .fil4 {fill:none}
    .fil1 {fill:#062C2E;fill-rule:nonzero}
    .fil3 {fill:#079C5F;fill-rule:nonzero}
    .fil2 {fill:#17C881;fill-rule:nonzero}
    .fil0 {fill:white;fill-rule:nonzero}
   ]]>
  </style>
 </defs>
 <g id="Layer_x0020_1">
  <metadata id="CorelCorpID_0Corel-Layer"/>
  <g id="_1008383056">
   <g>
    <g>
     <path class="fil0" d="M1007.56 173.36c49.97,-26.45 108.14,-30.58 163.62,-26.97 84.22,7.17 165.86,32.07 244.23,62.99 114.28,44.69 220.59,106.54 324.2,171.71 -55.59,-29.83 -106.94,-67.58 -164.94,-93.11 -124.27,-56.85 -260.12,-96.84 -397.93,-90.88 -69.19,4.76 -141.71,23.92 -192.65,73.61 -39.42,36.66 -61.5,88.35 -69.94,140.79 -7.52,39.42 -1.49,79.52 -4.53,119.27 -12.51,-81.64 -21.29,-167.81 6.08,-247.44 15.72,-46.24 48.08,-87.43 91.85,-109.98z"/>
     <path class="fil0" d="M2423.15 242.38c101.61,-46.53 208.6,-86 320.71,-95.98 65.98,-4.53 137.86,2.93 191.62,45.09 45.21,34.94 69.19,90.59 77.17,146.01 9.64,64.14 2.75,129.43 -7.23,193.11 -2.98,-45.09 3.73,-90.99 -7.74,-135.28 -12.16,-63.05 -49.97,-121.4 -105.45,-154.5 -66.67,-40.1 -147.22,-47.62 -223.35,-43.49 -122.66,9.7 -241.82,47.73 -351.86,101.89 -49,24.21 -93.57,56.28 -141.77,81.81 80.66,-49.57 161.39,-99.6 247.9,-138.67z"/>
     <path class="fil0" d="M1584.72 220.41c65.4,2.07 130.64,10.1 194.49,24.5 64.89,16.29 137.29,35.51 178.71,92.14 38.9,-55.59 108.95,-74.07 171.14,-90.53 65.98,-15.49 133.56,-23.87 201.26,-26.16 -3.27,3.67 -7.17,6.43 -11.59,8.32 -93.74,18.59 -184.45,55.25 -264.71,107.23 17.04,-0.92 34.08,-1.2 51.17,-0.12 -21.23,10.38 -44.98,14.29 -65.86,25.59 -32.41,15.49 -60.53,39.18 -81.7,68.16 -15.14,-19.1 -31.73,-37.52 -52.38,-50.89 -28.34,-21.34 -63.28,-29.26 -95.35,-42.86 16.93,-1.09 33.96,-0.8 50.94,0.17 -80.03,-52.26 -170.85,-88.58 -264.48,-107.23 -4.48,-1.95 -8.38,-4.71 -11.65,-8.32z"/>
     <path class="fil0" d="M1058.22 321.84c53.87,-26.97 119.16,-34.83 176.71,-14.74 40.68,12.97 76.25,37.87 108.03,65.92 78.77,69.99 129.6,163.91 196.27,244.17 -4.76,21.06 -6.71,42.68 -8.03,64.26 -82.67,-90.07 -141.36,-199.48 -226.5,-287.43 -34.77,-35.63 -75.56,-67.93 -124.27,-81.41 -40.27,-11.36 -83.76,-6.25 -122.2,9.24z"/>
     <path class="fil0" d="M2594.34 354.54c56.8,-46.64 134.48,-71.71 207.05,-52.38 14.57,5.62 32.42,5.16 44.64,15.89 -46.58,-17.21 -99.88,-15.37 -144.4,6.94 -59.21,28.91 -103.84,79.52 -144.4,130 -59.03,74.58 -109.12,156.16 -173.38,226.5 -1.32,-21.57 -3.21,-43.14 -8.09,-64.2 72.52,-87.55 127.19,-191.96 218.59,-262.76z"/>
     <path class="fil0" d="M758.4 458.73c20.48,-16.52 47.68,-20.02 72.98,-15.84 4.99,15.32 9.18,30.92 14.57,46.13 0.63,2.7 1.9,8.09 2.53,10.79 -31.84,4.76 -60.13,22.95 -81.07,46.93 -33.91,38.84 -55.31,87.89 -64.49,138.38 -10.33,-17.55 -21.29,-34.77 -32.36,-51.81 -6.65,-8.15 -0.4,-17.96 1.43,-26.62 17.44,-54.39 39.87,-111.82 86.4,-147.96z"/>
     <path class="fil0" d="M3083.95 442.61c26.33,-4.02 54.45,0.29 75.27,18.01 47.62,39.36 70.16,100.06 87.03,157.66 4.36,7.69 -1.72,14.8 -5.45,21 -10.21,14.8 -19.28,30.35 -28.69,45.67 -8.15,-45.09 -26.39,-88.64 -53.81,-125.36 -22.38,-29.83 -54.16,-54.39 -91.85,-59.72 0.92,-3.1 2.75,-9.24 3.67,-12.28 4.36,-15.09 8.61,-30.18 13.83,-44.98z"/>
     <path class="fil0" d="M1632.68 511.45l1.38 -1.66c-9.58,39.59 -24.21,81.07 -12.39,121.97 8.09,44.58 48.48,82.61 94.66,82.73 37.52,3.61 76.65,-12.51 99.42,-42.8 19.22,-24.9 25.24,-57.54 23.52,-88.35 34.19,35.63 29.95,92.83 16.06,136.72 50.83,-17.79 85.65,-63.51 103.15,-112.74 10.96,41.82 39.19,78.31 75.79,101.03 7.51,4.93 16.58,6.02 25.19,8.09 -15.09,-42.85 -15.78,-98.16 15.95,-134.02 -2.87,42.91 12.28,90.59 50.66,114 26.91,18.76 61.39,21.63 92.88,15.72 37.98,-9.7 68.21,-43.09 74.47,-81.76 10.9,-40.45 -2.98,-81.29 -12.22,-120.48l1.2 1.43c36.72,41.54 42.57,101.95 32.01,154.45 -8.43,39.3 -32.36,80.55 -73.38,92.02 -42.8,10.96 -84.16,-11.19 -118.53,-34.42 14.57,31.5 36.43,58.58 58.98,84.62 -64.43,-26.97 -130.35,-54.68 -200.68,-60.53 -86.8,-6.88 -169.07,27.77 -247.39,60.58 21.97,-26.22 45.55,-52.44 57.89,-84.91 -33.22,24.67 -75.39,45.27 -117.67,34.54 -42.11,-12.1 -66.03,-54.96 -73.78,-95.46 -9.47,-51.46 -3.27,-110.38 32.82,-150.77z"/>
     <path class="fil0" d="M1287.36 680.53c-28.92,-44.92 -35.97,-104.07 -12.79,-152.95 61.44,105.79 141.99,202.18 242.28,273.03 -89.44,-0.52 -181.47,-42.74 -229.49,-120.08z"/>
     <path class="fil0" d="M2398.36 800.66c100.57,-70.85 179.86,-167.98 242.97,-272.86 20.14,46.87 16.41,102.06 -9.58,145.9 -46.53,81.52 -141.48,126.33 -233.39,126.96z"/>
     <path class="fil0" d="M296.04 598.66c61.68,-30.58 135.34,-24.84 198.05,-0.29 69.13,27.08 130.29,72.75 180.2,127.31 -69.25,-49.63 -150.25,-89.79 -237,-91.51 -71.71,0.35 -139.13,39.07 -180.61,96.79 -63.97,88.18 -87.15,199.25 -92.31,306.31 -2.81,16.75 6.08,38.38 -6.2,51.69 -13.54,-114.23 -20.36,-233.79 18.3,-344.17 21,-60.47 60.7,-117.67 119.56,-146.13z"/>
     <path class="fil0" d="M3454.63 587.35c61.73,-17.1 131.96,-12.68 186.11,23.7 58,37.98 91.74,103.16 108.66,168.73 29.32,113.65 17.84,232.47 2.52,347.27 -3.16,-47.1 1.78,-94.49 -5.05,-141.42 -11.42,-97.42 -38.55,-198.1 -104.13,-273.72 -45.73,-53.53 -117.38,-83.76 -187.66,-76.59 -78.48,8.03 -150.89,44.92 -214.23,90.19 58,-62.76 130.63,-115.14 213.77,-138.15z"/>
     <path class="fil0" d="M1580.88 1096.7c35.91,62.25 57.54,132.64 63.68,204.24 2.07,25.76 -0.8,51.64 0.98,77.45 -1.43,0.57 -4.3,1.72 -5.74,2.3 2.58,18.3 -2.47,36.26 -6.54,53.87 -3.16,0.12 -9.35,0.23 -12.45,0.34 -10.9,-6.25 -21.8,-12.39 -32.87,-18.24 27.54,-61.04 33.45,-129.89 25.7,-195.81 -5.91,-39.13 -12.1,-79.8 -31.61,-114.74 -0.29,-2.35 -0.86,-7.06 -1.15,-9.41z"/>
     <path class="fil0" d="M2282.59 1439.67c-29.83,-115.89 -7.06,-241.82 52.55,-344.63 -42.57,100.63 -52.61,219.91 -8.09,321.62 -10.56,5.68 -21.11,11.36 -31.73,16.98 -3.21,1.55 -9.58,4.53 -12.74,6.03z"/>
     <path class="fil0" d="M1279.79 1541.56c53.58,-37.41 121.11,-44.52 184.62,-46.3 107.74,0.8 214.63,22.72 315.83,59.15 -10.96,0.69 -21.63,-1.84 -32.13,-4.3 -95.24,-20.14 -193.11,-28.51 -290.24,-21.29 -52.21,5.68 -105.51,17.61 -149.57,47.45 -33.28,22.26 -56.8,58.46 -63.28,97.99 -8.55,51.23 4.36,102.41 20.88,150.66 -26.39,-51.86 -46.24,-109 -45.55,-167.81 0.23,-45.1 21.92,-89.96 59.44,-115.55z"/>
     <path class="fil0" d="M2352.18 1501.63c79,-8.89 161.73,-11.53 237.52,16.01 47.96,16.81 90.71,55.25 100.92,106.6 13.71,69.19 -10.9,139.36 -41.48,200.74 18.36,-53.36 32.36,-111.47 17.04,-167.35 -12.22,-44.69 -47.56,-79.86 -89.27,-98.34 -80.49,-37.46 -171.6,-34.48 -258.17,-31.09 -55.48,5.16 -111.01,12.1 -165.29,24.96 -5.57,1.66 -11.3,1.72 -16.93,0.57 69.82,-24.84 142.11,-42.86 215.66,-52.09z"/>
     <path class="fil0" d="M1327.64 2029.79c68.16,41.37 148.99,65.41 229.03,56.63 9.93,-2.35 18.76,5.68 28.74,3.96 0.17,16.87 -7.92,31.78 -13.48,47.22 -22.26,67.7 -28.46,140.33 -19.51,210.9 -68.96,-67.3 -91.62,-168.04 -96.96,-261.1 -30.87,72 -39.47,151.75 -43.2,229.43 -1.32,42.23 2.7,84.45 9.75,126.05 -45.84,-76.88 -75.96,-162.36 -97.82,-248.88 -10.9,-44.75 -18.87,-90.36 -21.28,-136.43 4.82,-11.53 16.64,-18.53 24.73,-27.77z"/>
     <path class="fil0" d="M2358.72 2086.41c80.09,8.95 160.58,-15.66 229.03,-56.51 7.74,9.47 20.19,16.18 24.27,28 -4.07,73.84 -21.46,146.41 -44.23,216.58 -19.68,58.12 -42.63,115.66 -74.7,168.21 17.16,-94.78 10.44,-192.71 -10.84,-286.28 -6.48,-23.41 -11.65,-47.5 -22.49,-69.3 -4.07,78.2 -21.74,158.17 -65.29,224.38 -9.64,12.56 -18.01,27.65 -32.87,34.71 12.79,-79.63 0.8,-162.82 -29.43,-237.29 -1.37,-6.31 -2.35,-12.68 -2.87,-19.05 9.98,4.02 19.11,-6.83 29.43,-3.44z"/>
     <path class="fil0" d="M1586.15 2103.28c3.9,-2.29 7.86,-4.48 11.88,-6.6 51.4,16.35 105.68,20.25 159.09,25.93 150.54,11.76 302.35,11.07 452.55,-5.22 36.03,-5.22 72.69,-8.95 107.34,-20.71 3.96,2.12 7.86,4.3 11.87,6.6 -10.73,62.71 -22.15,129.26 -56.05,183.65 -27.71,-49.22 -41.94,-104.36 -52.84,-159.26 -7.06,50.77 -20.25,101.43 -44.69,146.76 -30.29,-37.81 -47.16,-84.28 -58.69,-130.75 -11.36,44.81 -22.03,90.88 -47.39,130.23 -31.67,-36.49 -44.75,-84.39 -57.66,-129.83 -11.42,45.55 -28.69,89.67 -51.23,130.86 -1.32,0.17 -3.84,0.58 -5.16,0.8 -23.18,-41.31 -39.42,-86.06 -52.44,-131.5 -8.84,35.57 -19.33,71.14 -37.98,102.93 -5.68,9.06 -10.04,19.96 -20.02,25.24 -24.5,-39.19 -35.17,-84.51 -46.24,-128.74 -11.3,46.93 -29.26,92.88 -58.69,131.55 -24.1,-45.84 -37.69,-96.5 -44.92,-147.62 -10.33,55.77 -25.93,110.9 -53.13,161.04 -23.18,-43.32 -39.01,-90.42 -47.44,-138.73 -2.58,-15.61 -2.52,-31.73 -8.15,-46.64z"/>
     <path class="fil0" d="M1432.46 2890.65c4.25,-35.68 18.93,-72.06 45.73,-96.79 -7.69,37.64 -7.52,78.03 6.08,114.34 11.65,-24.73 20.88,-55.25 45.84,-69.48 -15.2,59.21 -2.24,121.4 20.08,176.99 -14.86,3.67 -31.55,7.11 -45.55,-1.2 -24.78,-12.45 -34.08,-42.57 -30.29,-68.56 -26.68,-2.64 -45.55,-29.37 -41.88,-55.31z"/>
     <path class="fil0" d="M2436.74 2794.09c26.16,22.89 39.47,57.66 45.44,91.22 5.62,27.19 -12.33,58 -41.37,60.47 3.56,25.99 -5.51,56.23 -30.35,68.67 -14,8.38 -30.69,4.93 -45.5,1.38 21.92,-55.59 35.46,-117.73 19.79,-176.82 25.93,13.54 33.33,45.73 47.45,69.42 10.21,-37.12 13.37,-76.59 4.53,-114.34z"/>
     <path class="fil0" d="M1652.53 2868.04c33.22,132.99 81.58,265.92 165.4,376.01 -47.33,-5.96 -94.21,-15.43 -140.22,-28.05 -23.64,-57.77 -33.1,-120.14 -37.41,-182.04 -2.81,-55.54 -0.63,-111.7 12.22,-165.92z"/>
     <path class="fil0" d="M2226.08 2993.11c14.69,-41.02 25.93,-83.13 35.97,-125.47 13.77,54.16 15.26,110.61 12.68,166.21 -4.76,61.62 -12.85,124.55 -37.87,181.64 -45.44,14 -92.66,22.26 -139.7,28.4 58.29,-74.53 97.13,-162.25 128.91,-250.77z"/>
     <path class="fil0" d="M1849.32 3119.33c1.2,-6.14 0.8,-13.83 6.94,-17.33 11.99,52.26 29.15,104.01 57.43,149.85 -20.65,-0.63 -41.25,-2.07 -61.79,-3.44 -9.18,-42.34 -8.89,-86.4 -2.58,-129.09z"/>
     <path class="fil0" d="M2058.72 3102.12c6.37,3.39 5.62,11.3 7.12,17.5 6.02,42.63 6.77,86.69 -2.87,128.86 -20.54,1.26 -41.08,2.7 -61.68,3.33 28.4,-45.67 45.44,-97.53 57.43,-149.68z"/>
    </g>
    <g>
     <g>
      <path class="fil1" d="M881.06 104.63c50.66,-57.89 128.86,-84.34 204.19,-85.77 110.55,-2.41 217.78,35.34 315.09,85.03 15.2,7.11 28.97,17.67 45.26,22.32 80.38,-9.98 162.13,-7 242.22,4.76 93.86,14.52 187.89,39.99 269.65,89.78 101.89,-61.33 220.88,-86.97 338.09,-97.76 59.15,-4.42 118.7,-3.21 177.56,2.75 89.56,-49 185.25,-90.82 287.43,-103.38 74.87,-9.47 155.25,-2.07 220.71,38.15 54.96,33.1 93.4,89.67 109.12,151.4 11.25,42.28 13.25,86.4 10.44,129.95 46.93,-11.88 100.11,-7.69 139.7,22.32 51.35,38.38 76.02,100.97 92.31,160.87 68.45,-69.08 159.72,-125.47 259.9,-123.98 69.99,-0.57 136.72,34.94 181.92,87.2 59.32,67.64 89.27,155.54 105.91,242.62 22.2,121.57 18.07,246.24 6.71,368.73 -21.12,198.45 -71.03,392.94 -137.52,580.77 51.86,80.49 75.5,175.27 92.6,268.44 19.33,115.83 26.05,234.71 11.13,351.46 -11.76,84.62 -46.3,164.03 -83.99,240.04 -71.77,139.93 -163.51,268.73 -263.56,389.78 -201.26,241.36 -439.12,451.97 -701.6,624.55 -249.05,163.34 -522.82,291.22 -812.21,363.56 -15.26,2.98 -30.69,10.96 -46.24,5.74 -426.15,-102.52 -817.43,-323.29 -1150.47,-605.15 -161.56,-137.12 -310.5,-289.49 -440.9,-456.62 -77.62,-100 -148.94,-205.33 -207,-317.95 -44.06,-87.49 -82.79,-180.26 -90.19,-279 -10.38,-134.3 1.03,-270.33 33.28,-401.14 16.75,-63.97 37.98,-128.05 74.7,-183.65 -82.39,-234.31 -141.65,-479.62 -146.3,-728.96 -2.35,-116.35 7.52,-235.34 50.6,-344.46 28.4,-71.66 74.81,-140.1 143.83,-177.79 61.27,-34.25 137,-35.91 202.46,-13.08 63.39,21.86 119.85,61.39 166.43,109.18 15.95,-60.53 41.31,-123.69 93.34,-162.02 39.53,-29.26 92.03,-33.22 138.61,-21.46 -6.37,-83.13 9.29,-173.55 66.78,-237.23zm126.51 68.73l0 0c-43.77,22.55 -76.13,63.74 -91.85,109.98 -27.36,79.63 -18.59,165.8 -6.08,247.44 10.67,65.41 33.68,128.34 49.11,192.54 -47.33,-73.09 -85.94,-152.32 -112.97,-235.17l0.17 0.86c-5.39,-15.2 -9.58,-30.81 -14.57,-46.13 -25.3,-4.19 -52.49,-0.69 -72.98,15.84 -46.53,36.14 -68.96,93.57 -86.4,147.96 -1.84,8.66 -8.09,18.47 -1.43,26.62 11.07,17.04 22.03,34.25 32.36,51.81 35.28,64.6 66.61,131.78 88.24,202.29 -33.33,-57.54 -69.36,-114.74 -116.87,-161.73 -49.91,-54.56 -111.07,-100.23 -180.2,-127.31 -62.71,-24.56 -136.37,-30.29 -198.05,0.29 -58.86,28.46 -98.56,85.66 -119.56,146.13 -38.67,110.38 -31.84,229.94 -18.3,344.17l-2.07 2.01c43.09,288.98 118.19,572.05 204.24,850.93 69.94,223.52 145.55,445.72 237.81,661.09l-1.43 1.32c31.55,69.82 60.64,141.53 102.92,205.68 -75.96,-232.47 -123.81,-473.89 -145.03,-717.43 -7.11,-70.45 -11.7,-141.25 -12.11,-212.04 73.38,225.99 160.35,447.96 267.01,660.52 100.29,203.73 217.32,398.79 342.45,588.17 34.83,50.83 67.47,103.44 105.11,152.21 -4.19,-31.15 -14.17,-61.1 -19.11,-92.08 -12.1,-70.28 -21.23,-141.65 -18.13,-213.02 22.2,68.44 47.85,135.86 77.91,201.26 71.37,154.79 166.09,303.04 299.02,412.04 86.57,71.02 191.16,123.17 303.26,136.14 98.85,11.82 200.51,-8.03 289.27,-52.55 99.77,-48.82 184.62,-124.27 254.27,-210.04 116.63,-142.91 193.69,-313.36 252.61,-486.91 2.12,103.04 -15.84,205.05 -38.44,305.1 40.5,-52.04 75.21,-108.6 112.45,-163.11 127.25,-193 245.55,-392.25 346.81,-600.22 100.8,-205.56 185.54,-418.98 254.84,-637.17 1.2,86 -7.46,171.71 -15.72,257.2 -23,228.05 -69.71,453.7 -140.5,671.71 16.93,-23.47 29.09,-49.91 42.74,-75.33 48.13,-96.67 87.84,-197.19 127.36,-297.59 2.12,-6.14 3.56,-12.39 4.36,-18.82 6.02,-9.87 9.46,-20.94 13.54,-31.67 86.17,-231.84 161.84,-467.58 227.48,-706.07 49.28,-182.21 94.38,-366.2 120.83,-553.23 15.32,-114.8 26.79,-233.62 -2.52,-347.27 -16.93,-65.57 -50.66,-130.75 -108.66,-168.73 -54.16,-36.37 -124.38,-40.79 -186.11,-23.7 -83.13,23.01 -155.76,75.39 -213.77,138.15 -47.73,47.05 -83.3,104.65 -117.44,161.9 22.43,-70.39 53.24,-137.81 88.7,-202.46 9.41,-15.32 18.47,-30.87 28.69,-45.67 3.73,-6.2 9.81,-13.31 5.45,-21 -16.87,-57.6 -39.41,-118.3 -87.03,-157.66 -20.83,-17.73 -48.94,-22.03 -75.27,-18.01 -5.22,14.8 -9.47,29.89 -13.83,44.98 -28.51,82.61 -65.8,162.71 -114.05,235.62 15.95,-64.2 38.55,-127.13 49.34,-192.59 9.98,-63.68 16.87,-128.97 7.23,-193.11 -7.98,-55.42 -31.96,-111.07 -77.17,-146.01 -53.76,-42.17 -125.64,-49.63 -191.62,-45.09 -112.1,9.98 -219.1,49.45 -320.71,95.98 -86.52,39.07 -167.24,89.1 -247.9,138.67 -24.55,11.7 -44.98,30.01 -68.67,43.14 1.66,-2.47 4.99,-7.4 6.65,-9.87 63.74,-66.95 134.31,-126.91 205.5,-185.65 4.42,-1.89 8.32,-4.65 11.59,-8.32 -67.7,2.3 -135.28,10.67 -201.26,26.16 -62.19,16.47 -132.24,34.94 -171.14,90.53 -41.42,-56.62 -113.83,-75.84 -178.71,-92.14 -63.85,-14.4 -129.09,-22.43 -194.49,-24.5 3.27,3.61 7.17,6.37 11.65,8.32 71.14,58.63 141.48,118.59 205.22,185.31 1.78,2.52 5.28,7.63 7,10.16 -23.87,-12.97 -44.23,-31.61 -68.96,-43.09 -103.61,-65.17 -209.92,-127.02 -324.2,-171.71 -78.37,-30.92 -160.01,-55.82 -244.23,-62.99 -55.48,-3.61 -113.65,0.52 -163.62,26.97z"/>
     </g>
     <g>
      <path class="fil1" d="M1058.22 321.84c38.44,-15.49 81.93,-20.6 122.2,-9.24 48.71,13.48 89.5,45.78 124.27,81.41 85.14,87.95 143.83,197.36 226.5,287.43 1.32,-21.57 3.27,-43.2 8.03,-64.26 15.09,-44.75 43.89,-95.12 93.46,-105.74 -36.09,40.39 -42.28,99.31 -32.82,150.77 7.74,40.5 31.67,83.36 73.78,95.46 42.28,10.73 84.45,-9.87 117.67,-34.54 -12.34,32.47 -35.92,58.69 -57.89,84.91 78.31,-32.82 160.58,-67.47 247.39,-60.58 70.34,5.85 136.26,33.56 200.68,60.53 -22.55,-26.05 -44.4,-53.13 -58.98,-84.62 34.37,23.23 75.73,45.38 118.53,34.42 41.02,-11.47 64.94,-52.73 73.38,-92.02 10.56,-52.49 4.7,-112.91 -32.01,-154.45 49.57,10.9 78.43,61.04 93.34,105.97 4.88,21.06 6.77,42.63 8.09,64.2 64.26,-70.34 114.34,-151.92 173.38,-226.5 40.56,-50.49 85.2,-101.09 144.4,-130 44.52,-22.32 97.82,-24.15 144.4,-6.94 32.93,12.85 63.28,31.04 91.57,52.09 -46.93,-10.9 -96.73,-5.85 -140.5,14.17 -12.74,4.99 -24.21,12.39 -35,20.65 26.05,55.31 36.49,118.93 22.55,178.94 -19.39,93.29 -87.89,170.16 -169.76,215.49 -40.45,23.24 -85.42,36.49 -130.64,46.59 64.03,13.6 130.41,-1.43 191.74,-20.88 -56.45,66.78 -146.76,94.61 -231.84,95.52 -27.19,0.8 -53.41,-7.63 -80.38,-9.12 40.91,36.37 83.36,73.61 110.33,122.09 -10.04,-5.85 -19.56,-12.56 -28.4,-20.02 -175.61,-138.49 -412.27,-193.46 -631.72,-153.24 -124.78,23.01 -245.49,74.47 -345.03,153.58 -8.78,7.29 -18.07,13.88 -27.88,19.68 26.79,-48.59 69.36,-85.6 110.1,-122.14 -26.85,1.49 -52.96,9.98 -79.98,9.18 -85.25,-0.8 -175.21,-28.8 -232.07,-95.24 61.56,19.68 127.59,33.16 192.08,21.4 -58.52,-13.77 -116.81,-33.39 -165.8,-69.31 -72.46,-49.8 -128.34,-128.11 -138.9,-216.75 -8.38,-52.84 5.57,-105.8 24.61,-154.73 -6.02,-12.05 -21.86,-15.49 -33.22,-21.63 -41.36,-19.11 -88.07,-24.16 -132.87,-16.47 19.91,-21.46 47.68,-32.87 73.2,-46.07zm229.14 358.69l0 0c48.02,77.34 140.04,119.56 229.49,120.08 -100.29,-70.85 -180.84,-167.24 -242.28,-273.03 -23.18,48.88 -16.12,108.03 12.79,152.95zm1111 120.13l0 0c91.91,-0.63 186.86,-45.44 233.39,-126.96 25.99,-43.83 29.72,-99.02 9.58,-145.9 -63.11,104.87 -142.4,202 -242.97,272.86z"/>
     </g>
     <g>
      <path class="fil1" d="M303.27 911.62c20.08,-49.97 59.03,-95.18 111.53,-111.82 42.74,-14.29 91.85,-4.07 126.27,24.61 32.42,26.1 53.19,63.97 64.89,103.38 30.87,104.99 54.39,212.04 84.57,317.26 1.66,-4.02 5.05,-12.05 6.77,-16.06 19.39,-39.01 42.22,-77.62 77.22,-104.65 -34.71,112.97 -28.4,233.85 -10.9,349.28 6.83,51.63 21.8,102.01 43.6,149.28 -0.06,-47.27 -2.24,-95.41 10.55,-141.48 14.46,-63.63 50.66,-121.51 101.61,-162.25 -10.96,28.69 -25.01,56.4 -32.19,86.46 -24.15,95.75 -16.12,197.01 8.72,291.79 6.89,25.47 13.6,51.29 25.7,74.87 15.72,-64.03 42.68,-125.87 82.39,-178.65 -25.82,83.19 -43.09,172.92 -22.38,259.2 13.54,60.18 49.63,118.99 107.29,145.38 53.7,25.7 119.68,11.82 164.31,-25.7 -14.97,-19.85 -33.05,-37.18 -47.33,-57.54 -46.58,-64.37 -77.34,-139.93 -90.99,-218.07 -11.19,-66.95 -0.63,-141.77 46.53,-193.4 57.66,-64.43 148.59,-84.68 231.84,-84.34 23.18,-59.9 14.69,-126.16 1.9,-187.43 26.74,25.7 48.31,56.63 62.19,91.05 9.75,24.9 16.35,50.83 21.74,76.99 18.13,-12.45 27.42,-33.16 37.52,-51.86 41.59,-87.09 52.32,-189.1 31.38,-283.13 -2.07,-9.52 -4.13,-18.99 -5.85,-28.57 18.13,16.29 27.08,39.64 38.73,60.47 0.29,2.35 0.86,7.06 1.15,9.41 19.51,34.94 25.7,75.62 31.61,114.74 7.75,65.92 1.84,134.76 -25.7,195.81 11.07,5.85 21.97,11.99 32.87,18.24 59.55,32.59 113.88,74.18 164.31,119.51l-4.88 0c-101.2,-36.43 -208.09,-58.35 -315.83,-59.15 -63.51,1.78 -131.04,8.89 -184.62,46.3 -37.52,25.59 -59.21,70.45 -59.44,115.55 -0.69,58.81 19.16,115.95 45.55,167.81 29.43,59.38 77.05,109.87 134.48,142.97 77.28,47.79 176.19,59.32 262.48,31.1 51.92,-15.55 95.52,-48.82 135.22,-84.56 -19.22,47.33 -56.74,83.25 -93.23,117.5 166.09,34.08 339.18,33.62 505.33,0.11 -36.43,-34.48 -74.18,-70.28 -93.23,-117.84 23.92,18.93 45.21,41.42 72.29,56.11 97.7,59.96 228.57,57.72 325.58,-2.47 57.31,-33.16 104.87,-83.53 134.31,-142.85 30.58,-61.39 55.19,-131.55 41.48,-200.74 -10.21,-51.35 -52.96,-89.79 -100.92,-106.6 -75.79,-27.54 -158.52,-24.9 -237.52,-16.01 -73.55,9.24 -145.84,27.25 -215.66,52.09 -1.55,-0.29 -4.71,-0.74 -6.25,-1.03 51.92,-43.72 105.45,-86.06 165.06,-119.05 10.61,-5.62 21.17,-11.3 31.73,-16.98 -44.52,-101.72 -34.48,-220.99 8.09,-321.62 11.07,-21.92 22.83,-43.66 38.55,-62.71 -2.18,10.9 -4.53,21.69 -6.71,32.59 -18.36,78.31 -11.48,161.5 12.85,237.75 12.39,35.57 28.28,71.03 54.62,98.62 7.34,-26.22 13.14,-52.95 23.06,-78.37 14,-34.37 35.51,-65.35 62.25,-90.99 -12.91,60.81 -19.91,125.53 0.29,185.65 78.71,3.44 163.51,17.5 222.6,74.24 55.31,51.63 70.28,132.99 57.43,205.1 -17.96,101.32 -63.8,199.42 -137.58,272.11 23.69,27.77 62.13,40.39 97.88,41.94 50.83,3.67 99.14,-24.78 129.6,-64.03 38.1,-49.4 53.01,-113.42 51.92,-174.93 1.38,-60.93 -13.71,-120.48 -30.87,-178.48 40.45,52.95 65.58,115.6 83.65,179.23 42.57,-112.74 62.19,-237.81 35.51,-356.68 -6.65,-33.79 -22.03,-64.71 -34.19,-96.67 58,46.07 95.41,114.8 106.48,187.72 7.86,38.21 4.25,77.28 5.97,115.89 16.98,-41.02 32.53,-83.07 39.19,-127.19 20.65,-122.49 29.55,-251.06 -6.77,-371.54 34.54,27.88 57.94,66.21 77.28,105.62 1.66,3.79 4.99,11.48 6.65,15.26 29.55,-105.5 53.53,-212.56 84.39,-317.72 12.34,-41.82 35.34,-82.04 71.14,-107.97 33.45,-24.61 78.66,-32.87 118.42,-20.08 49.68,15.03 87.66,56.17 108.78,102.47 27.94,62.08 33.05,132.81 22.03,199.54 -7.97,-53.93 -28.11,-109.12 -70.62,-145.38 -24.04,-21.4 -60.07,-33.51 -90.65,-19.39 -32.07,14.57 -49.57,47.62 -61.39,79.06 -72.58,239.99 -144.63,481.52 -252.89,708.37 -4.42,9.18 -8.66,18.59 -10.38,28.74 -13.65,120.37 -45.27,237.92 -83.3,352.66 -63.34,183.7 -144.69,363.45 -260.7,520.24 -4.76,6.43 -9.7,13.48 -17.84,15.72 39.53,-90.02 70.39,-183.53 100.52,-277.05 33.96,-112.39 66.09,-225.81 85.2,-341.82 -28.91,27.77 -59.49,53.53 -92.77,75.85 -32.19,44 -56.63,93.51 -81.87,141.82 -97.24,191.5 -152.32,400.28 -234.65,597.98 -44.58,104.65 -100.52,206.83 -182.04,287.43 -23.64,25.59 -54.33,43.37 -77.68,69.08 70.22,-19.45 135.45,-54.39 196.96,-92.94 36.89,-24.21 72.75,-50.43 104.42,-81.24 -9.81,30.87 -35.34,52.44 -50.83,80.15 -56.51,63.85 -122.43,119.96 -197.3,161.16 -215.03,119.79 -484.79,132.01 -711.41,37.52 -105.39,-43.43 -199.08,-112.68 -274.01,-198.28 -15.61,-27.83 -41.13,-49.57 -51.06,-80.49 62.71,59.44 137.18,105.62 215.32,141.99 28.17,12.28 56.11,25.87 86.4,32.24 -7.11,-7.86 -14.29,-15.38 -22.78,-21.57 -63.45,-47.22 -114.63,-109.18 -156.34,-175.96 -66.61,-107.69 -109.87,-227.48 -152.15,-346.18 -65.86,-188.01 -132.13,-378.48 -240.45,-547.04 -9.18,-11.88 -23.29,-18.3 -35.05,-27.14 -22.84,-15.55 -41.25,-36.38 -62.42,-53.93 18.53,114.51 50.37,226.56 83.76,337.52 30.41,95.24 62.08,190.24 101.89,281.98 -7.11,-4.42 -13.54,-9.98 -18.13,-16.98 -117.67,-159.15 -199.77,-341.82 -263.45,-528.45 -32.82,-98.56 -59.09,-199.42 -75.33,-302.06 -3.73,-22.61 -2.87,-46.59 -13.77,-67.35 -109.18,-227.88 -181.64,-470.73 -254.62,-711.98 -11.93,-31.32 -29.26,-64.37 -61.22,-79 -30.58,-14.23 -66.66,-2.18 -90.65,19.28 -42.57,36.26 -63,91.39 -70.74,145.44 -10.73,-63.28 -6.14,-129.94 17.73,-189.78zm1024.37 1118.17l0 0c-8.09,9.24 -19.91,16.24 -24.73,27.77 2.41,46.07 10.38,91.68 21.28,136.43 21.86,86.52 51.98,172 97.82,248.88 -7.06,-41.59 -11.07,-83.82 -9.75,-126.05 3.73,-77.68 12.34,-157.43 43.2,-229.43 5.33,93.06 28,193.8 96.96,261.1 -8.95,-70.56 -2.75,-143.2 19.51,-210.9 5.56,-15.43 13.65,-30.35 13.48,-47.22 -9.98,1.72 -18.82,-6.31 -28.74,-3.96 -80.03,8.78 -160.87,-15.26 -229.03,-56.63zm1031.08 56.63l0 0c-10.33,-3.39 -19.45,7.46 -29.43,3.44 0.52,6.37 1.49,12.74 2.87,19.05 30.24,74.47 42.23,157.66 29.43,237.29 14.86,-7.06 23.23,-22.14 32.87,-34.71 43.55,-66.21 61.22,-146.18 65.29,-224.38 10.84,21.8 16.01,45.9 22.49,69.3 21.28,93.57 28,191.51 10.84,286.28 32.07,-52.55 55.02,-110.1 74.7,-168.21 22.78,-70.17 40.16,-142.74 44.23,-216.58 -4.07,-11.82 -16.52,-18.53 -24.27,-28 -68.45,40.85 -148.94,65.46 -229.03,56.51zm-772.56 16.87l0 0c5.62,14.92 5.57,31.04 8.15,46.64 8.43,48.31 24.27,95.41 47.44,138.73 27.19,-50.14 42.8,-105.28 53.13,-161.04 7.23,51.12 20.83,101.78 44.92,147.62 29.43,-38.67 47.39,-84.62 58.69,-131.55 11.07,44.23 21.74,89.56 46.24,128.74 9.98,-5.28 14.34,-16.18 20.02,-25.24 18.65,-31.78 29.14,-67.35 37.98,-102.93 13.02,45.44 29.26,90.19 52.44,131.5 1.32,-0.23 3.84,-0.63 5.16,-0.8 22.55,-41.19 39.82,-85.31 51.23,-130.86 12.91,45.44 25.99,93.34 57.66,129.83 25.36,-39.36 36.03,-85.42 47.39,-130.23 11.53,46.47 28.4,92.94 58.69,130.75 24.44,-45.32 37.64,-95.98 44.69,-146.76 10.9,54.9 25.13,110.04 52.84,159.26 33.91,-54.39 45.32,-120.94 56.05,-183.65 -4.02,-2.29 -7.92,-4.48 -11.87,-6.6 -34.65,11.76 -71.31,15.49 -107.34,20.71 -150.2,16.29 -302,16.98 -452.55,5.22 -53.41,-5.68 -107.69,-9.58 -159.09,-25.93 -4.02,2.12 -7.98,4.3 -11.88,6.6zm-153.7 787.37l0 0c-3.67,25.93 15.2,52.67 41.88,55.31 -3.79,25.99 5.51,56.11 30.29,68.56 14,8.32 30.69,4.88 45.55,1.2 -22.32,-55.59 -35.28,-117.78 -20.08,-176.99 -24.96,14.23 -34.19,44.75 -45.84,69.48 -13.6,-36.31 -13.77,-76.71 -6.08,-114.34 -26.79,24.73 -41.48,61.1 -45.73,96.79zm1004.29 -96.56l0 0c8.84,37.75 5.68,77.22 -4.53,114.34 -14.12,-23.69 -21.51,-55.88 -47.45,-69.42 15.66,59.09 2.12,121.23 -19.79,176.82 14.8,3.56 31.5,7 45.5,-1.38 24.84,-12.45 33.91,-42.68 30.35,-68.67 29.03,-2.47 46.99,-33.27 41.37,-60.47 -5.97,-33.56 -19.28,-68.33 -45.44,-91.22zm-784.21 73.95l0 0c-12.85,54.22 -15.03,110.38 -12.22,165.92 4.3,61.9 13.77,124.27 37.41,182.04 46.01,12.62 92.88,22.09 140.22,28.05 -83.82,-110.1 -132.18,-243.02 -165.4,-376.01zm573.54 125.07l0 0c-31.78,88.52 -70.63,176.25 -128.91,250.77 47.04,-6.14 94.26,-14.4 139.7,-28.4 25.01,-57.09 33.1,-120.02 37.87,-181.64 2.58,-55.59 1.09,-112.05 -12.68,-166.21 -10.04,42.34 -21.28,84.45 -35.97,125.47zm-376.76 126.22l0 0c-6.31,42.68 -6.6,86.75 2.58,129.09 20.54,1.38 41.13,2.81 61.79,3.44 -28.28,-45.84 -45.44,-97.59 -57.43,-149.85 -6.14,3.5 -5.74,11.19 -6.94,17.33zm209.41 -17.21l0 0c-11.99,52.15 -29.03,104.01 -57.43,149.68 20.6,-0.63 41.13,-2.07 61.68,-3.33 9.64,-42.17 8.89,-86.23 2.87,-128.86 -1.49,-6.2 -0.75,-14.11 -7.12,-17.5z"/>
     </g>
     <path class="fil1" d="M1056.9 870.6c16.98,13.83 28.8,32.7 45.15,47.33 72.4,74.13 176.36,123.35 281.58,110.78 -52.15,33.96 -120.48,46.01 -179,21.69 -75.44,-31.04 -122.72,-105.16 -147.73,-179.8z"/>
     <path class="fil1" d="M2810.18 920.68c17.38,-15.43 30.23,-35.17 47.85,-50.26 -21.34,64.6 -58.92,127.02 -117.15,164.43 -59.9,38.78 -144.58,38.32 -201.95,-4.42 101.43,7.34 200.74,-38.5 271.25,-109.75z"/>
     <path class="fil1" d="M1888.56 1088.61c120.88,-17.61 254.39,11.48 343.94,97.99 -90.25,-44.29 -192.37,-57.49 -291.91,-55.48 -88.64,1.03 -178.37,16.58 -258.52,55.54 55.59,-54.22 130.63,-85.31 206.48,-98.05z"/>
     <path class="fil1" d="M1840.54 1303.41c120.54,-39.87 262.65,-15.2 357.14,71.48 -95.69,-46.99 -205.33,-54.73 -310.09,-46.18 -57.03,6.42 -114.74,17.9 -165.69,45.38 31.32,-34.42 75.27,-55.48 118.64,-70.68z"/>
     <path class="fil1" d="M1405.09 1703.23c10.67,-33.91 53.13,-48.82 85.02,-36.89 44.41,15.2 79.58,49.97 105.33,88.24 11.25,19.28 26.62,43.37 14.57,65.75 -15.55,6.54 -32.47,5.91 -48.94,5.79 18.47,20.02 45.09,28.92 69.13,40.45 -69.82,-5.11 -136.77,-36.66 -188.18,-83.65 -20.71,-20.83 -43.43,-48.19 -36.95,-79.69z"/>
     <path class="fil1" d="M2315 1762.09c27.14,-43.6 66.9,-84.34 117.9,-97.7 36.78,-11.3 86.69,19.28 77.39,61.16 -10.55,37.23 -41.59,63.91 -72.17,85.37 -45.44,30.81 -98.39,51.86 -153.41,55.71 24.1,-11.47 50.66,-20.54 69.36,-40.45 -16.12,-1.03 -34.08,2.7 -48.36,-6.77 -13.37,-18.02 0.92,-40.33 9.29,-57.32z"/>
    </g>
    <g>
     <g>
      <path class="fil2" d="M984.1 270.72c50.95,-49.68 123.46,-68.85 192.65,-73.61 137.81,-5.97 273.66,34.02 397.93,90.88 58,25.53 109.35,63.28 164.94,93.11 24.73,11.47 45.09,30.12 68.96,43.09 -1.72,-2.52 -5.22,-7.63 -7,-10.16 -63.74,-66.72 -134.08,-126.68 -205.22,-185.31 93.63,18.65 184.45,54.96 264.48,107.23 -16.98,-0.97 -34.02,-1.26 -50.94,-0.17 32.07,13.6 67.01,21.52 95.35,42.86 20.65,13.37 37.24,31.78 52.38,50.89 21.17,-28.97 49.28,-52.67 81.7,-68.16 20.89,-11.3 44.64,-15.2 65.86,-25.59 -17.1,-1.09 -34.13,-0.8 -51.17,0.12 80.26,-51.98 170.97,-88.64 264.71,-107.23 -71.2,58.75 -141.76,118.7 -205.5,185.65 -1.66,2.47 -4.99,7.4 -6.65,9.87 23.69,-13.14 44.12,-31.44 68.67,-43.14 48.19,-25.53 92.77,-57.6 141.77,-81.81 110.04,-54.16 229.2,-92.2 351.86,-101.89 76.13,-4.13 156.68,3.38 223.35,43.49 55.48,33.1 93.29,91.45 105.45,154.5 11.47,44.29 4.76,90.19 7.74,135.28 -10.78,65.46 -33.39,128.4 -49.34,192.59 48.25,-72.92 85.54,-153.01 114.05,-235.62 -0.92,3.04 -2.75,9.18 -3.67,12.28 37.69,5.34 69.48,29.89 91.85,59.72 27.42,36.72 45.67,80.26 53.81,125.36 -35.46,64.66 -66.26,132.07 -88.7,202.46 34.14,-57.26 69.71,-114.86 117.44,-161.9 63.34,-45.26 135.74,-82.16 214.23,-90.19 70.28,-7.17 141.94,23.06 187.66,76.59 65.57,75.62 92.71,176.3 104.13,273.72 6.83,46.93 1.89,94.32 5.05,141.42 -26.45,187.03 -71.54,371.02 -120.83,553.23 -65.63,238.49 -141.3,474.23 -227.48,706.07 -4.07,10.73 -7.52,21.8 -13.54,31.67 -24.38,38.32 -31.38,85.31 -56,123.23 -0.57,-3.44 -1.66,-10.27 -2.23,-13.71 78.02,-240.67 136.89,-487.77 173.26,-738.2 19.79,-150.66 34.08,-303.21 21.51,-455.13 -7.74,-86.34 -22.32,-174.98 -66.38,-251 -14.06,-25.36 -34.82,-45.67 -53.36,-67.53 11.82,-31.44 29.32,-64.49 61.39,-79.06 30.58,-14.12 66.61,-2.01 90.65,19.39 42.51,36.26 62.65,91.45 70.62,145.38 11.02,-66.72 5.91,-137.46 -22.03,-199.54 -21.11,-46.3 -59.09,-87.43 -108.78,-102.47 -39.76,-12.79 -84.97,-4.53 -118.42,20.08 -35.8,25.93 -58.8,66.15 -71.14,107.97 -30.87,105.16 -54.85,212.22 -84.39,317.72 -1.66,-3.78 -4.99,-11.47 -6.65,-15.26 3.61,-10.33 6.43,-21.29 3.79,-32.18 -17.44,-114.23 -98.97,-220.48 -209.87,-257.08 39.64,73.32 53.7,157.37 54.9,239.99 0.52,41.02 -1.26,82.33 -9.47,122.66 -16.7,-16.29 -28.97,-36.49 -46.47,-51.92 -40.68,-37.81 -91.16,-64.37 -144.58,-78.89 -12.05,-3.5 -24.67,-3.96 -37.06,-4.3 54.39,59.15 84.33,135.91 104.3,212.56 13.31,60.47 22.49,123.35 13.83,185.2 -14.57,-50.26 -35.69,-100.11 -72.75,-138.04 -39.19,-44.52 -92.2,-76.88 -150.2,-89.56 -43.03,-8.32 -90.65,-7.06 -129.09,16.01 -9.01,4.02 -20.88,15.49 -29.09,4.07 -34.65,-33.62 -46.13,-84.91 -42.34,-131.78 -1.09,1.32 -3.21,3.96 -4.3,5.28 -26.74,25.64 -48.25,56.62 -62.25,90.99 -65.12,-69.02 -83.53,-166.66 -90.53,-258 2.18,-10.9 4.53,-21.69 6.71,-32.59 -15.72,19.05 -27.48,40.79 -38.55,62.71 -59.61,102.81 -82.39,228.74 -52.55,344.63 3.16,-1.49 9.52,-4.48 12.74,-6.03 -59.61,32.99 -113.14,75.33 -165.06,119.05 1.55,0.29 4.71,0.75 6.25,1.03 5.62,1.15 11.36,1.09 16.93,-0.57 54.27,-12.85 109.81,-19.79 165.29,-24.96 86.57,-3.39 177.68,-6.37 258.17,31.09 41.71,18.48 77.05,53.64 89.27,98.34 15.32,55.88 1.32,114 -17.04,167.35 -29.43,59.32 -76.99,109.69 -134.31,142.85 -36.49,1.66 -72.75,10.1 -109.35,6.02 -98.05,-6.37 -192.88,-55.19 -253.18,-132.98 -41.42,-51.41 -66.21,-114.46 -76.99,-179.17 -14.8,10.38 -22.32,27.25 -29.78,43.14 -22.15,50.2 -32.07,104.76 -37.64,159.03 -23.41,-18.99 -36.95,-46.01 -48.13,-73.32 -1.09,0.06 -3.33,0.17 -4.42,0.23 -11.25,27.02 -24.55,54.16 -48.02,72.75 -8.66,-70.56 -20.48,-145.78 -65.4,-203.44 -11.59,38.21 -18.13,78.26 -37.24,113.88 -51.8,111.64 -166.32,190.07 -288.86,199.25 -38.61,4.76 -76.99,-2.93 -115.43,-5.33 -57.43,-33.1 -105.05,-83.59 -134.48,-142.97 -16.52,-48.25 -29.43,-99.42 -20.88,-150.66 6.48,-39.53 30,-75.73 63.28,-97.99 44.06,-29.83 97.36,-41.77 149.57,-47.45 97.13,-7.23 195.01,1.15 290.24,21.29 10.5,2.47 21.17,4.99 32.13,4.3l4.88 0c-50.43,-45.32 -104.76,-86.92 -164.31,-119.51 3.1,-0.12 9.29,-0.23 12.45,-0.34 4.07,-17.61 9.12,-35.57 6.54,-53.87 1.43,-0.58 4.3,-1.72 5.74,-2.3 -1.78,-25.82 1.09,-51.69 -0.98,-77.45 -6.14,-71.6 -27.77,-141.99 -63.68,-204.24 -11.65,-20.83 -20.6,-44.17 -38.73,-60.47 1.72,9.58 3.79,19.05 5.85,28.57 -7.29,91.22 -25.02,189.33 -90.65,258 -13.88,-34.42 -35.45,-65.34 -62.19,-91.05 -1.09,-1.32 -3.27,-3.96 -4.36,-5.28 3.73,44.41 -6.48,91.62 -35.97,126.04 -6.02,6.88 -15.49,16.01 -24.44,7.86 -34.77,-22.89 -77.74,-30.69 -118.76,-25.3 -67.87,7.69 -129.83,44.98 -174.18,96.16 -36.72,36.78 -54.5,86.46 -70.74,134.59 -9.18,-95.18 9.75,-191.79 45.84,-279.8 17.78,-43.08 41.88,-83.59 73.44,-118.01 -30.98,-0.63 -60.59,10.33 -88.58,22.49 -36.89,16.12 -70.74,38.9 -99.77,66.78 -14.23,14.52 -25.59,31.55 -40.28,45.72 -14.63,-78.6 -11.65,-159.89 2.12,-238.38 6.83,-43.77 24.21,-84.51 43.43,-124.04 -112.22,37.41 -194.37,145.32 -210.44,261.33 -1.95,9.35 1.78,18.36 4.82,27.08 -1.72,4.01 -5.11,12.05 -6.77,16.06 -30.18,-105.22 -53.7,-212.27 -84.57,-317.26 -11.7,-39.42 -32.47,-77.28 -64.89,-103.38 -34.42,-28.69 -83.53,-38.9 -126.27,-24.61 -52.49,16.64 -91.45,61.85 -111.53,111.82 -23.87,59.84 -28.46,126.51 -17.73,189.78 7.74,-54.04 28.17,-109.18 70.74,-145.44 23.98,-21.46 60.07,-33.5 90.65,-19.28 31.96,14.63 49.28,47.68 61.22,79 -17.38,21.23 -37.86,40.1 -51.46,64.2 -22.2,38.55 -38.38,80.49 -48.42,123.81 -21.92,91.91 -25.36,187.03 -24.55,281.12 7.63,257.77 55.48,512.56 117.96,762.12 26.79,102.81 55.88,205.1 90.01,305.73 4.76,14.63 11.71,28.97 12.8,44.58l-6.31 5.74c-92.25,-215.37 -167.87,-437.57 -237.81,-661.09 -86.06,-278.88 -161.16,-561.95 -204.24,-850.93l2.07 -2.01c12.28,-13.31 3.39,-34.94 6.2,-51.69 5.16,-107.06 28.34,-218.13 92.31,-306.31 41.48,-57.72 108.89,-96.44 180.61,-96.79 86.75,1.72 167.75,41.88 237,91.51 47.51,46.99 83.54,104.19 116.87,161.73 -21.63,-70.51 -52.95,-137.69 -88.24,-202.29 9.18,-50.49 30.58,-99.54 64.49,-138.38 20.94,-23.98 49.22,-42.17 81.07,-46.93 -0.63,-2.7 -1.9,-8.09 -2.53,-10.79l-0.17 -0.86c27.02,82.84 65.63,162.07 112.97,235.17 -15.43,-64.2 -38.44,-127.13 -49.11,-192.54 3.04,-39.76 -2.99,-79.86 4.53,-119.27 8.43,-52.44 30.52,-104.13 69.94,-140.79zm74.12 51.12l0 0c-25.53,13.2 -53.3,24.61 -73.2,46.07 44.81,-7.69 91.51,-2.64 132.87,16.47 -15.95,12.56 -35.86,18.47 -52.15,30.46 -34.48,24.61 -61.1,60.87 -72.63,101.78 30,-22.83 55.59,-53.99 92.83,-65.34 -17.5,25.24 -41.13,46.47 -52.95,75.39 -27.83,56.11 -30.98,123.12 -8.78,181.69 34.31,96.21 120.77,166.32 215.72,198.39 72.46,25.7 151.29,29.55 227.02,18.59l4.25 -4.7c27.02,0.8 53.13,-7.69 79.98,-9.18 -40.73,36.55 -83.3,73.55 -110.1,122.14 9.81,-5.79 19.1,-12.39 27.88,-19.68 16.18,-3.04 29.78,-12.62 44.41,-19.45 63.62,-30.35 130.69,-53.24 199.25,-69.13 9.52,-2.47 19.33,-3.39 29.2,-2.7 -26.33,18.53 -59.15,27.14 -81.98,50.94 54.73,-22.95 112.16,-39.7 171.08,-47.27 111.93,-15.95 227.13,-11.3 336.83,16.64 24.44,5.62 47.1,17.61 72.17,20.77 -18.25,-19.68 -46.42,-24.27 -66.03,-41.6 18.87,-0.69 36.83,5.68 54.96,9.98 59.9,14.11 117.73,36.14 173.21,62.65 14.4,6.65 27.94,15.55 43.66,18.82 8.84,7.46 18.36,14.17 28.4,20.02 -26.96,-48.48 -69.42,-85.71 -110.33,-122.09 26.97,1.49 53.18,9.93 80.38,9.12l3.84 4.53c114.74,18.42 238.95,-3.5 333.16,-73.9 62.99,-45.49 110.84,-114.57 122.03,-192.31 9.52,-59.15 -8.49,-120.59 -43.2,-168.73 -9.87,-13.42 -22.2,-25.01 -30.87,-39.3 36.66,12.39 63.17,42.11 92.48,65.86 -9.81,-38.5 -34.77,-72.4 -65.46,-97.02 -17.78,-15.03 -41.02,-21 -59.03,-35.46 43.77,-20.02 93.57,-25.07 140.5,-14.17 -28.29,-21.06 -58.63,-39.24 -91.57,-52.09 -12.22,-10.73 -30.06,-10.27 -44.64,-15.89 -72.57,-19.34 -150.25,5.74 -207.05,52.38 -91.39,70.8 -146.07,175.21 -218.59,262.76 -14.92,-44.92 -43.77,-95.06 -93.34,-105.97l-1.2 -1.43c9.24,39.19 23.12,80.03 12.22,120.48 -6.25,38.67 -36.49,72.06 -74.47,81.76 -31.5,5.91 -65.98,3.04 -92.88,-15.72 -38.38,-23.41 -53.53,-71.08 -50.66,-114 -31.73,35.86 -31.04,91.16 -15.95,134.02 -8.61,-2.07 -17.67,-3.15 -25.19,-8.09 -36.6,-22.72 -64.83,-59.21 -75.79,-101.03 -17.5,49.22 -52.32,94.95 -103.15,112.74 13.88,-43.89 18.13,-101.09 -16.06,-136.72 1.72,30.81 -4.3,63.45 -23.52,88.35 -22.78,30.29 -61.9,46.41 -99.42,42.8 -46.18,-0.12 -86.58,-38.15 -94.66,-82.73 -11.82,-40.91 2.81,-82.38 12.39,-121.97l-1.38 1.66c-49.57,10.61 -78.37,60.99 -93.46,105.74 -66.67,-80.26 -117.5,-174.18 -196.27,-244.17 -31.78,-28.06 -67.35,-52.96 -108.03,-65.92 -57.54,-20.08 -122.83,-12.22 -176.71,14.74zm-1.32 548.76l0 0c25.01,74.64 72.29,148.76 147.73,179.8 58.52,24.32 126.85,12.28 179,-21.69 -105.22,12.57 -209.18,-36.66 -281.58,-110.78 -16.35,-14.63 -28.17,-33.5 -45.15,-47.33zm1753.27 50.08l0 0c-70.51,71.26 -169.82,117.1 -271.25,109.75 57.37,42.74 142.05,43.2 201.95,4.42 58.23,-37.41 95.81,-99.83 117.15,-164.43 -17.61,15.09 -30.46,34.83 -47.85,50.26zm-921.62 167.93l0 0c-75.84,12.74 -150.88,43.83 -206.48,98.05 80.15,-38.96 169.88,-54.5 258.52,-55.54 99.54,-2.01 201.66,11.19 291.91,55.48 -89.56,-86.52 -223.06,-115.61 -343.94,-97.99zm-48.02 214.8l0 0c-43.37,15.2 -87.32,36.26 -118.64,70.68 50.94,-27.48 108.66,-38.96 165.69,-45.38 104.76,-8.55 214.4,-0.8 310.09,46.18 -94.49,-86.69 -236.6,-111.36 -357.14,-71.48zm-435.45 399.82l0 0c-6.48,31.5 16.23,58.86 36.95,79.69 51.4,46.99 118.36,78.54 188.18,83.65 -24.04,-11.53 -50.66,-20.42 -69.13,-40.45 16.46,0.12 33.39,0.75 48.94,-5.79 12.05,-22.37 -3.33,-46.47 -14.57,-65.75 -25.76,-38.27 -60.93,-73.03 -105.33,-88.24 -31.9,-11.93 -74.35,2.98 -85.02,36.89zm909.91 58.86l0 0c-8.38,16.98 -22.66,39.3 -9.29,57.32 14.29,9.47 32.24,5.74 48.36,6.77 -18.7,19.91 -45.26,28.97 -69.36,40.45 55.02,-3.84 107.97,-24.9 153.41,-55.71 30.58,-21.46 61.62,-48.13 72.17,-85.37 9.29,-41.88 -40.62,-72.46 -77.39,-61.16 -51,13.37 -90.76,54.1 -117.9,97.7z"/>
     </g>
     <path class="fil2" d="M947.78 2023.02c21.17,17.55 39.59,38.38 62.42,53.93 11.76,8.83 25.87,15.26 35.05,27.14 108.32,168.56 174.58,359.03 240.45,547.04 42.28,118.7 85.54,238.49 152.15,346.18 41.71,66.78 92.89,128.74 156.34,175.96 8.49,6.2 15.66,13.71 22.78,21.57 -30.29,-6.37 -58.23,-19.97 -86.4,-32.24 -78.14,-36.37 -152.61,-82.56 -215.32,-141.99 -11.13,-20.42 -25.93,-38.44 -38.1,-58.17 -60.93,-97.25 -104.65,-203.78 -148.36,-309.46 0.92,-3.61 7.34,-6.42 4.65,-10.44 -39.81,-91.74 -71.48,-186.74 -101.89,-281.98 -33.39,-110.96 -65.23,-223 -83.76,-337.52z"/>
     <path class="fil2" d="M2874.72 2098.41c33.27,-22.32 63.85,-48.08 92.77,-75.85 -19.1,116 -51.23,229.43 -85.2,341.82 -30.12,93.52 -60.99,187.03 -100.52,277.05 -0.23,0.74 -0.8,2.18 -1.09,2.93 1.78,3.38 3.67,6.77 5.68,10.21 -47.39,109.69 -91.74,221.68 -157.66,321.97 -9.98,14.4 -20.6,28.46 -28.86,44 -31.67,30.81 -67.53,57.03 -104.42,81.24 -61.5,38.55 -126.73,73.49 -196.96,92.94 23.35,-25.7 54.04,-43.49 77.68,-69.08 81.52,-80.61 137.46,-182.79 182.04,-287.43 82.33,-197.7 137.4,-406.48 234.65,-597.98 25.24,-48.31 49.68,-97.82 81.87,-141.82z"/>
     <path class="fil2" d="M1366.31 3101.09c74.93,85.6 168.61,154.84 274.01,198.28 226.62,94.49 496.38,82.27 711.41,-37.52 74.87,-41.19 140.79,-97.3 197.3,-161.16 -4.42,12.56 -13.14,22.6 -22.72,31.61 -17.15,16.29 -27.48,37.87 -39.93,57.66 -58.06,93.74 -145.61,168.21 -245.78,213.88 -205.91,95.81 -461.61,79.63 -650.82,-47.39 -73.21,-50.09 -135.11,-116.58 -178.08,-194.32 -11.25,-23.35 -36.03,-36.66 -45.38,-61.04z"/>
    </g>
    <g>
     <path class="fil3" d="M1117.89 384.38c11.36,6.14 27.19,9.58 33.22,21.63 -19.05,48.94 -32.99,101.89 -24.61,154.73 10.56,88.64 66.43,166.95 138.9,216.75 49,35.92 107.29,55.54 165.8,69.31 -64.49,11.76 -130.52,-1.72 -192.08,-21.4 56.85,66.44 146.81,94.43 232.07,95.24l-4.25 4.7c-75.73,10.96 -154.56,7.11 -227.02,-18.59 -94.95,-32.07 -181.41,-102.18 -215.72,-198.39 -22.2,-58.58 -19.05,-125.59 8.78,-181.69 11.82,-28.91 35.45,-50.14 52.95,-75.39 -37.23,11.36 -62.82,42.51 -92.83,65.34 11.53,-40.91 38.15,-77.16 72.63,-101.78 16.29,-11.99 36.2,-17.9 52.15,-30.46z"/>
     <path class="fil3" d="M2762.1 404.97c10.78,-8.26 22.26,-15.66 35,-20.65 18.02,14.46 41.25,20.42 59.03,35.46 30.69,24.61 55.65,58.52 65.46,97.02 -29.32,-23.75 -55.82,-53.47 -92.48,-65.86 8.66,14.29 21,25.87 30.87,39.3 34.71,48.13 52.72,109.58 43.2,168.73 -11.19,77.74 -59.03,146.81 -122.03,192.31 -94.2,70.4 -218.41,92.31 -333.16,73.9l-3.84 -4.53c85.08,-0.92 175.39,-28.74 231.84,-95.52 -61.33,19.45 -127.71,34.48 -191.74,20.88 45.21,-10.1 90.19,-23.35 130.64,-46.59 81.87,-45.32 150.37,-122.2 169.76,-215.49 13.94,-60.01 3.5,-123.64 -22.55,-178.94z"/>
     <path class="fil3" d="M1813.98 860.33c219.45,-40.22 456.1,14.74 631.72,153.24 -15.72,-3.27 -29.26,-12.16 -43.66,-18.82 -55.48,-26.51 -113.31,-48.54 -173.21,-62.65 -18.13,-4.3 -36.09,-10.67 -54.96,-9.98 19.62,17.33 47.79,21.92 66.03,41.6 -25.07,-3.16 -47.73,-15.15 -72.17,-20.77 -109.69,-27.94 -224.9,-32.59 -336.83,-16.64 -58.92,7.57 -116.35,24.33 -171.08,47.27 22.84,-23.81 55.65,-32.42 81.98,-50.94 -9.87,-0.69 -19.68,0.23 -29.2,2.7 -68.56,15.89 -135.63,38.78 -199.25,69.13 -14.63,6.83 -28.23,16.41 -44.41,19.45 99.54,-79.12 220.25,-130.58 345.03,-153.58z"/>
     <path class="fil3" d="M692.48 1201.92c16.06,-116.01 98.22,-223.92 210.44,-261.33 -19.22,39.53 -36.6,80.26 -43.43,124.04 -13.77,78.48 -16.75,159.78 -2.12,238.38 14.69,-14.17 26.05,-31.21 40.28,-45.72 29.03,-27.88 62.88,-50.66 99.77,-66.78 28,-12.16 57.6,-23.12 88.58,-22.49 -31.55,34.42 -55.65,74.93 -73.44,118.01 -36.09,88.01 -55.02,184.62 -45.84,279.8 16.24,-48.13 34.02,-97.82 70.74,-134.59 44.35,-51.18 106.31,-88.47 174.18,-96.16 41.02,-5.39 83.99,2.41 118.76,25.3 8.95,8.15 18.42,-0.98 24.44,-7.86 29.49,-34.42 39.7,-81.64 35.97,-126.04 1.09,1.32 3.27,3.96 4.36,5.28 12.79,61.27 21.29,127.54 -1.9,187.43 -83.25,-0.34 -174.18,19.91 -231.84,84.34 -47.16,51.63 -57.71,126.45 -46.53,193.4 13.65,78.14 44.41,153.7 90.99,218.07 14.29,20.37 32.36,37.69 47.33,57.54 -44.64,37.52 -110.61,51.41 -164.31,25.7 -57.66,-26.39 -93.75,-85.2 -107.29,-145.38 -20.71,-86.29 -3.44,-176.02 22.38,-259.2 -39.7,52.78 -66.67,114.63 -82.39,178.65 -12.1,-23.58 -18.82,-49.4 -25.7,-74.87 -24.84,-94.78 -32.87,-196.04 -8.72,-291.79 7.17,-30.06 21.23,-57.77 32.19,-86.46 -50.95,40.73 -87.15,98.62 -101.61,162.25 -12.79,46.07 -10.61,94.2 -10.55,141.48 -21.8,-47.27 -36.78,-97.65 -43.6,-149.28 -17.5,-115.43 -23.81,-236.32 10.9,-349.28 -35,27.02 -57.83,65.63 -77.22,104.65 -3.04,-8.72 -6.77,-17.73 -4.82,-27.08z"/>
     <path class="fil3" d="M3012.06 940.65c110.9,36.6 192.42,142.86 209.87,257.08 2.64,10.9 -0.17,21.86 -3.79,32.18 -19.33,-39.41 -42.74,-77.74 -77.28,-105.62 36.32,120.48 27.42,249.05 6.77,371.54 -6.66,44.12 -22.2,86.17 -39.19,127.19 -1.72,-38.61 1.89,-77.68 -5.97,-115.89 -11.07,-72.92 -48.48,-141.65 -106.48,-187.72 12.16,31.96 27.54,62.88 34.19,96.67 26.68,118.87 7.06,243.94 -35.51,356.68 -18.07,-63.62 -43.2,-126.28 -83.65,-179.23 17.15,58 32.24,117.55 30.87,178.48 1.09,61.5 -13.83,125.53 -51.92,174.93 -30.46,39.24 -78.77,67.7 -129.6,64.03 -35.74,-1.55 -74.18,-14.17 -97.88,-41.94 73.78,-72.69 119.62,-170.8 137.58,-272.11 12.85,-72.12 -2.12,-153.47 -57.43,-205.1 -59.09,-56.74 -143.89,-70.8 -222.6,-74.24 -20.19,-60.13 -13.2,-124.84 -0.29,-185.65 1.09,-1.32 3.21,-3.96 4.3,-5.28 -3.78,46.87 7.69,98.16 42.34,131.78 8.2,11.42 20.08,-0.06 29.09,-4.07 38.44,-23.06 86.06,-24.32 129.09,-16.01 58,12.68 111.01,45.04 150.2,89.56 37.06,37.92 58.17,87.78 72.75,138.04 8.66,-61.85 -0.52,-124.72 -13.83,-185.2 -19.97,-76.65 -49.91,-153.41 -104.3,-212.56 12.39,0.34 25.01,0.8 37.06,4.3 53.41,14.52 103.9,41.08 144.58,78.89 17.5,15.43 29.78,35.63 46.47,51.92 8.2,-40.33 9.98,-81.64 9.47,-122.66 -1.2,-82.61 -15.26,-166.66 -54.9,-239.99z"/>
     <path class="fil3" d="M508.14 1015.69c72.98,241.25 145.44,484.1 254.62,711.98 10.9,20.77 10.04,44.75 13.77,67.35 16.24,102.64 42.51,203.49 75.33,302.06 63.68,186.63 145.78,369.3 263.45,528.45 4.59,7 11.02,12.57 18.13,16.98 2.7,4.02 -3.73,6.83 -4.65,10.44 43.72,105.68 87.43,212.22 148.36,309.46 12.16,19.73 26.97,37.75 38.1,58.17 9.93,30.92 35.45,52.67 51.06,80.49 9.35,24.38 34.13,37.69 45.38,61.04 42.97,77.74 104.87,144.23 178.08,194.32 189.21,127.02 444.92,143.2 650.82,47.39 100.17,-45.67 187.72,-120.14 245.78,-213.88 12.45,-19.79 22.78,-41.37 39.93,-57.66 9.58,-9.01 18.3,-19.05 22.72,-31.61 15.49,-27.71 41.02,-49.28 50.83,-80.15 8.26,-15.55 18.88,-29.6 28.86,-44 65.92,-100.28 110.27,-212.27 157.66,-321.97 -2.01,-3.44 -3.9,-6.83 -5.68,-10.21 0.29,-0.75 0.86,-2.18 1.09,-2.93 8.15,-2.24 13.08,-9.29 17.84,-15.72 116,-156.8 197.36,-336.54 260.7,-520.24 38.04,-114.74 69.65,-232.3 83.3,-352.66 1.72,-10.15 5.97,-19.56 10.38,-28.74 108.26,-226.85 180.32,-468.38 252.89,-708.37 18.53,21.86 39.3,42.17 53.36,67.53 44.06,76.02 58.64,164.66 66.38,251 12.56,151.92 -1.72,304.47 -21.51,455.13 -36.37,250.43 -95.24,497.53 -173.26,738.2 0.57,3.44 1.66,10.27 2.23,13.71 24.61,-37.92 31.61,-84.91 56,-123.23 -0.8,6.42 -2.24,12.68 -4.36,18.82 -39.53,100.4 -79.23,200.92 -127.36,297.59 -13.65,25.42 -25.82,51.86 -42.74,75.33 70.8,-218.01 117.5,-443.65 140.5,-671.71 8.26,-85.48 16.92,-171.2 15.72,-257.2 -69.3,218.19 -154.04,431.61 -254.84,637.17 -101.26,207.97 -219.56,407.22 -346.81,600.22 -37.23,54.5 -71.94,111.07 -112.45,163.11 22.6,-100.05 40.56,-202.06 38.44,-305.1 -58.92,173.55 -135.97,344 -252.61,486.91 -69.65,85.77 -154.5,161.22 -254.27,210.04 -88.76,44.52 -190.42,64.37 -289.27,52.55 -112.1,-12.97 -216.69,-65.12 -303.26,-136.14 -132.93,-109.01 -227.65,-257.26 -299.02,-412.04 -30.06,-65.41 -55.71,-132.82 -77.91,-201.26 -3.1,71.37 6.02,142.74 18.13,213.02 4.93,30.98 14.92,60.93 19.11,92.08 -37.64,-48.77 -70.28,-101.38 -105.11,-152.21 -125.13,-189.38 -242.16,-384.45 -342.45,-588.17 -106.65,-212.56 -193.63,-434.53 -267.01,-660.52 0.4,70.8 4.99,141.59 12.11,212.04 21.23,243.54 69.07,484.96 145.03,717.43 -42.28,-64.14 -71.37,-135.86 -102.92,-205.68l1.43 -1.32 6.31 -5.74c-1.09,-15.61 -8.03,-29.95 -12.8,-44.58 -34.13,-100.63 -63.22,-202.93 -90.01,-305.73 -62.48,-249.57 -110.33,-504.35 -117.96,-762.12 -0.8,-94.09 2.64,-189.21 24.55,-281.12 10.04,-43.32 26.22,-85.25 48.42,-123.81 13.6,-24.1 34.08,-42.97 51.46,-64.2z"/>
     <path class="fil3" d="M1548 1064.8c20.94,94.03 10.21,196.04 -31.38,283.13 -10.1,18.7 -19.39,39.42 -37.52,51.86 -5.39,-26.16 -11.99,-52.09 -21.74,-76.99 65.63,-68.67 83.36,-166.78 90.65,-258z"/>
     <path class="fil3" d="M2379.83 1302.66c-24.33,-76.25 -31.21,-159.44 -12.85,-237.75 7,91.33 25.42,188.98 90.53,258 -9.93,25.42 -15.72,52.15 -23.06,78.37 -26.33,-27.59 -42.23,-63.05 -54.62,-98.62z"/>
     <path class="fil3" d="M1804.68 1773.97c19.11,-35.63 25.65,-75.67 37.24,-113.88 44.92,57.66 56.74,132.87 65.4,203.44 23.47,-18.59 36.78,-45.72 48.02,-72.75 1.09,-0.06 3.33,-0.17 4.42,-0.23 11.19,27.31 24.73,54.33 48.13,73.32 5.56,-54.27 15.49,-108.83 37.64,-159.03 7.46,-15.89 14.97,-32.76 29.78,-43.14 10.78,64.71 35.57,127.77 76.99,179.17 60.3,77.79 155.13,126.62 253.18,132.98 36.6,4.07 72.86,-4.36 109.35,-6.02 -97.02,60.18 -227.88,62.42 -325.58,2.47 -27.08,-14.69 -48.36,-37.18 -72.29,-56.11 19.05,47.56 56.8,83.36 93.23,117.84 -166.15,33.5 -339.24,33.96 -505.33,-0.11 36.49,-34.25 74.01,-70.17 93.23,-117.5 -39.7,35.74 -83.3,69.02 -135.22,84.56 -86.29,28.23 -185.2,16.7 -262.48,-31.1 38.44,2.41 76.82,10.1 115.43,5.33 122.55,-9.18 237.06,-87.61 288.86,-199.25z"/>
    </g>
   </g>
   <path class="fil4 str0" d="M3240.52 364.18c51.35,38.38 76.02,100.97 92.31,160.87 68.45,-69.08 159.72,-125.47 259.89,-123.98 69.99,-0.57 136.72,34.94 181.92,87.2 59.32,67.64 89.27,155.54 105.91,242.62 22.2,121.57 18.07,246.24 6.71,368.73 -21.12,198.45 -71.03,392.94 -137.52,580.77 51.86,80.49 75.5,175.27 92.6,268.44 19.34,115.83 26.05,234.71 11.13,351.46 -11.76,84.62 -46.3,164.02 -83.99,240.04 -71.77,139.93 -163.51,268.73 -263.57,389.78 -201.26,241.36 -439.12,451.97 -701.6,624.54 -249.05,163.34 -522.83,291.22 -812.21,363.57 -15.26,2.98 -30.69,10.96 -46.24,5.74 -426.16,-102.52 -817.43,-323.29 -1150.47,-605.15 -161.56,-137.12 -310.5,-289.5 -440.9,-456.62 -77.62,-100 -148.93,-205.33 -206.99,-317.96 -44.06,-87.49 -82.79,-180.26 -90.19,-279 -10.38,-134.31 1.03,-270.33 33.28,-401.14 16.75,-63.97 37.98,-128.05 74.7,-183.65 -82.39,-234.31 -141.65,-479.63 -146.3,-728.96 -2.35,-116.35 7.52,-235.34 50.6,-344.46 28.4,-71.66 74.81,-140.1 143.83,-177.8 61.27,-34.25 137,-35.91 202.46,-13.08 63.4,21.86 119.85,61.39 166.44,109.18 15.95,-60.53 41.31,-123.69 93.34,-162.02 39.53,-29.26 92.03,-33.22 138.61,-21.46 -6.37,-83.13 9.29,-173.55 66.78,-237.23 50.66,-57.88 128.86,-84.33 204.19,-85.77 110.55,-2.41 217.78,35.34 315.08,85.03 15.2,7.11 28.97,17.67 45.27,22.32 80.38,-9.98 162.13,-7 242.22,4.76 93.86,14.52 187.89,39.99 269.65,89.78 101.89,-61.33 220.88,-86.97 338.09,-97.76 59.15,-4.42 118.7,-3.21 177.56,2.75 89.56,-49 185.25,-90.82 287.43,-103.38 74.87,-9.47 155.25,-2.07 220.71,38.15 54.96,33.1 93.4,89.67 109.12,151.4 11.25,42.28 13.26,86.4 10.44,129.94 46.93,-11.87 100.12,-7.69 139.7,22.32z"/>
  </g>
 </g>
</svg>
