<?xml version="1.0" encoding="UTF-8"?>
<!DOCTYPE svg PUBLIC "-//W3C//DTD SVG 1.1//EN" "http://www.w3.org/Graphics/SVG/1.1/DTD/svg11.dtd">
<!-- Creator: CorelDRAW 2018 (64-Bit) -->
<svg xmlns="http://www.w3.org/2000/svg" xml:space="preserve" width="0.508398in" height="0.774476in" version="1.1" style="shape-rendering:geometricPrecision; text-rendering:geometricPrecision; image-rendering:optimizeQuality; fill-rule:evenodd; clip-rule:evenodd"
viewBox="0 0 3.98 6.06"
 xmlns:xlink="http://www.w3.org/1999/xlink">
 <defs>
  <style type="text/css">
   <![CDATA[
    .str0 {stroke:#FEFEFE;stroke-width:0.08;stroke-miterlimit:2.61313}
    .str1 {stroke:#FEFEFE;stroke-width:0.03;stroke-miterlimit:2.61313}
    .fil75 {fill:none}
    .fil73 {fill:#AC7345}
    .fil70 {fill:#AD7343}
    .fil69 {fill:#C89E69}
    .fil72 {fill:#C89E6A}
    .fil74 {fill:#DDC4AC}
    .fil71 {fill:#EEC6A4}
    .fil2 {fill:#181015;fill-rule:nonzero}
    .fil21 {fill:#1C1010;fill-rule:nonzero}
    .fil1 {fill:#1C1013;fill-rule:nonzero}
    .fil39 {fill:#1C1013;fill-rule:nonzero}
    .fil45 {fill:#1D0000;fill-rule:nonzero}
    .fil16 {fill:#1D1012;fill-rule:nonzero}
    .fil42 {fill:#1F0B12;fill-rule:nonzero}
    .fil38 {fill:#220A0B;fill-rule:nonzero}
    .fil29 {fill:#230A0B;fill-rule:nonzero}
    .fil4 {fill:#240A0B;fill-rule:nonzero}
    .fil49 {fill:#2A0A09;fill-rule:nonzero}
    .fil44 {fill:#2B0300;fill-rule:nonzero}
    .fil50 {fill:#2C130A;fill-rule:nonzero}
    .fil47 {fill:#300F07;fill-rule:nonzero}
    .fil51 {fill:#310B06;fill-rule:nonzero}
    .fil48 {fill:#380E08;fill-rule:nonzero}
    .fil52 {fill:#39110B;fill-rule:nonzero}
    .fil46 {fill:#391207;fill-rule:nonzero}
    .fil20 {fill:#393D40;fill-rule:nonzero}
    .fil0 {fill:#4D4D4D;fill-rule:nonzero}
    .fil23 {fill:#535252;fill-rule:nonzero}
    .fil67 {fill:#575354;fill-rule:nonzero}
    .fil17 {fill:#5B575F;fill-rule:nonzero}
    .fil60 {fill:#615F60;fill-rule:nonzero}
    .fil30 {fill:#676466;fill-rule:nonzero}
    .fil26 {fill:#686768;fill-rule:nonzero}
    .fil3 {fill:#6F6A6C;fill-rule:nonzero}
    .fil59 {fill:#7E7C7D;fill-rule:nonzero}
    .fil53 {fill:#858384;fill-rule:nonzero}
    .fil58 {fill:#878586;fill-rule:nonzero}
    .fil32 {fill:#878787;fill-rule:nonzero}
    .fil68 {fill:#898788;fill-rule:nonzero}
    .fil41 {fill:#A46D3C;fill-rule:nonzero}
    .fil40 {fill:#A9703D;fill-rule:nonzero}
    .fil37 {fill:#AA7546;fill-rule:nonzero}
    .fil12 {fill:#AC7142;fill-rule:nonzero}
    .fil35 {fill:#AC7343;fill-rule:nonzero}
    .fil22 {fill:#AC7345;fill-rule:nonzero}
    .fil34 {fill:#AC7346;fill-rule:nonzero}
    .fil33 {fill:#AC7446;fill-rule:nonzero}
    .fil13 {fill:#AD7343;fill-rule:nonzero}
    .fil55 {fill:#AE7145;fill-rule:nonzero}
    .fil31 {fill:#AE7346;fill-rule:nonzero}
    .fil36 {fill:#B87A43;fill-rule:nonzero}
    .fil7 {fill:#C89E69;fill-rule:nonzero}
    .fil9 {fill:#C89E6A;fill-rule:nonzero}
    .fil5 {fill:#C99E68;fill-rule:nonzero}
    .fil11 {fill:#CA9D69;fill-rule:nonzero}
    .fil6 {fill:#CA9E68;fill-rule:nonzero}
    .fil54 {fill:#CA9E6A;fill-rule:nonzero}
    .fil63 {fill:#D2C7B1;fill-rule:nonzero}
    .fil18 {fill:#DBC5A8;fill-rule:nonzero}
    .fil10 {fill:#DCB4A2;fill-rule:nonzero}
    .fil27 {fill:#DDC4AC;fill-rule:nonzero}
    .fil66 {fill:#DDC5A8;fill-rule:nonzero}
    .fil8 {fill:#DEC7B3;fill-rule:nonzero}
    .fil64 {fill:#DECEB7;fill-rule:nonzero}
    .fil19 {fill:#DFC4A3;fill-rule:nonzero}
    .fil15 {fill:#EEC6A4;fill-rule:nonzero}
    .fil28 {fill:#F0D0B7;fill-rule:nonzero}
    .fil61 {fill:#FAFCFB;fill-rule:nonzero}
    .fil62 {fill:#FBFBF9;fill-rule:nonzero}
    .fil65 {fill:#FBFDF9;fill-rule:nonzero}
    .fil56 {fill:#FBFDFC;fill-rule:nonzero}
    .fil14 {fill:#FCFDFA;fill-rule:nonzero}
    .fil57 {fill:#FCFDFC;fill-rule:nonzero}
    .fil25 {fill:#FDFDFA;fill-rule:nonzero}
    .fil43 {fill:#FDFDFC;fill-rule:nonzero}
    .fil24 {fill:#FFFCF9;fill-rule:nonzero}
   ]]>
  </style>
 </defs>
 <g id="Layer_x0020_1">
  <metadata id="CorelCorpID_0Corel-Layer"/>
  <g id="_986367504">
   <g>
    <g>
     <path class="fil0" d="M0.24 1.15c-0,0.01 -0,0.01 0,0z"/>
     <path class="fil1" d="M3.36 3.71c0,0.03 -0.05,0.01 -0.08,0.07 -0.06,0.12 -0.16,0.06 -0.06,0.19 0.17,0.24 0.1,0.44 0.2,0.68 0.11,0.24 0.16,0.42 0.04,0.68 -0.16,0.34 -0.6,0.54 -0.95,0.62 -0.47,0.11 -0.93,0.07 -1.38,-0.11 -0.26,-0.1 -0.44,-0.24 -0.6,-0.47 -0.12,-0.18 -0.12,-0.44 -0.03,-0.63 0.04,-0.09 0.07,-0.14 0.09,-0.24 0.02,-0.14 0.02,-0.24 0.07,-0.37 0.04,-0.09 0.06,-0.13 0.12,-0.22 0.03,-0.04 -0.01,-0.05 -0.05,-0.1 -0.07,-0.07 -0.14,-0.12 -0.18,-0.2 -0.02,-0.04 -0.11,-0.12 -0.15,-0.18 -0.11,-0.17 -0.22,-0.38 -0.27,-0.58 -0.01,-0.04 -0.04,-0.12 -0.05,-0.16 -0.03,-0.2 -0.06,-0.3 -0.05,-0.51 0.01,-0.38 0.06,-0.69 0.2,-1.04 0.05,-0.12 0.09,-0.2 0.16,-0.3 0.01,-0.02 -0.01,-0.04 -0.01,-0.11 0.01,-0.17 0.09,-0.33 0.29,-0.32 0.07,0 0.08,-0.04 0.14,-0.08 0.04,-0.02 0.09,-0.07 0.13,-0.1 0.25,-0.18 0.62,-0.26 0.91,-0.15 0.22,0.09 0.12,0.03 0.36,-0.03 0.31,-0.07 0.64,0.03 0.88,0.23 0.04,0.03 0.05,0.02 0.08,0.06 0.12,0.13 0.18,-0.02 0.3,0.13 0.14,0.17 0.04,0.24 0.14,0.44 0.39,0.78 0.44,1.69 -0.02,2.45 -0.05,0.08 -0.16,0.22 -0.22,0.29 -0.01,0.01 -0.03,0.03 -0.03,0.05zm0.03 -1.12c-0.01,0.01 -0.02,0.01 -0.03,0.02 0.09,-0.02 0.12,-0.04 0.18,-0.1 0.04,0.02 0.05,-0.23 0.05,-0.26 -0.01,-0.2 -0.1,-0.4 -0.2,-0.58 -0.02,-0.04 -0.04,-0.1 -0.07,-0.15 -0.03,-0.05 -0.06,-0.1 -0.08,-0.16 -0.03,0.05 -0.03,0.11 -0.06,0.16 -0,-0 -0,-0.01 -0.01,-0.01 0.01,-0.05 0.02,-0.11 0.01,-0.16 -0.01,-0.09 -0.01,-0.15 -0.04,-0.23 -0.03,-0.09 -0.09,-0.17 -0.18,-0.19 -0.05,-0.01 -0.09,0 -0.14,0.01l-0 0c-0.06,0.03 -0.12,0.06 -0.17,0.12 0,-0.05 0.04,-0.09 0.06,-0.14 0.05,-0.04 0.11,-0.08 0.18,-0.11 -0.02,-0.01 -0.04,-0.01 -0.06,-0.02 -0.01,-0.01 -0.02,-0.02 -0.03,-0.03 0.05,0.02 0.1,0.03 0.15,0.02 -0.02,-0.02 -0.16,-0.14 -0.19,-0.14 -0.01,-0 -0.02,-0.03 -0.08,-0.04 0.01,-0.02 -0.01,-0.01 -0.03,-0.02 -0.21,-0.11 -0.43,-0.21 -0.65,-0.05 -0.18,-0.16 -0.44,-0.06 -0.63,0.04 -0.03,0.02 -0.06,0.03 -0.09,0.05 -0.01,0 -0.02,0 -0.02,0l-0.01 0.01 -0.01 -0c-0.07,0.05 -0.14,0.1 -0.2,0.15 0.06,0.01 0.11,-0 0.17,-0.02 -0.03,0.02 -0.07,0.04 -0.1,0.05 0.07,0.01 0.13,0.06 0.18,0.11 0.01,0.03 0.03,0.07 0.05,0.09 0,0.01 0,0.02 0,0.03 -0.02,-0.02 -0.03,-0.03 -0.05,-0.05l-0.01 -0c-0.07,-0.05 -0.16,-0.1 -0.25,-0.08 -0.24,0.07 -0.24,0.38 -0.22,0.58 -0,0 -0,0.01 -0,0.01 -0.01,-0.03 -0.03,-0.07 -0.04,-0.1 -0,-0.02 -0,-0.04 -0.01,-0.06 -0.08,0.08 -0.29,0.57 -0.32,0.69 -0.06,0.2 -0.11,0.49 0.16,0.56 0.11,0.03 -0.03,-0 -0.09,-0.14 -0.06,-0.14 0.01,-0.29 0.06,-0.42 0.04,-0.06 0.07,-0.12 0.11,-0.17 0,0 0,0.01 0.01,0.01 -0.04,0.06 -0.05,0.12 -0.07,0.19 -0.03,0.09 -0.03,0.19 -0.01,0.29 0.02,0.05 0.04,0.11 0.1,0.13 -0.03,-0.06 -0.05,-0.13 -0.05,-0.2 0,-0.02 0.01,-0.05 0.02,-0.07 0,0 0.01,0.01 0.01,0.01 -0,0.11 0.07,0.21 0.16,0.26 0.02,-0.01 0.03,-0.02 0.05,-0.03 0.04,-0.04 0.09,-0.07 0.14,-0.1 0.02,-0.06 0.05,-0.13 0.1,-0.17 0.07,-0.06 0.17,-0.08 0.26,-0.11 0,-0.14 -0.09,-0.25 -0.19,-0.34 0.07,0.02 0.12,0.08 0.18,0.11 -0.02,-0.06 -0.06,-0.11 -0.1,-0.16 -0.02,-0.02 -0.04,-0.05 -0.07,-0.06 -0.07,-0.08 -0.18,-0.11 -0.28,-0.14 0.03,-0 0.07,-0 0.1,-0 -0.06,-0.06 -0.12,-0.12 -0.12,-0.21 -0,-0.06 0.04,-0.11 0.08,-0.16 -0.03,-0.01 -0.07,-0.02 -0.1,-0.02 0.02,-0.02 0.04,-0.03 0.07,-0.04 0.06,-0.01 0.12,-0 0.16,0.04 0.14,0.12 0.12,0.34 0.26,0.45 0.05,0.04 0.11,0.05 0.17,0.04 0,0 0.01,0.01 0.01,0.01 -0.05,0.03 -0.12,0.05 -0.18,0.05 0.01,0.01 0.02,0.03 0.04,0.04 0.03,0.05 0.07,0.1 0.1,0.15l0.01 0c0.01,0.04 0.02,0.08 0.04,0.11 -0,0.03 0,0.06 0.01,0.09 0.03,-0.01 0.05,-0.04 0.07,-0.07 0.02,-0.03 0.02,-0.07 0.04,-0.09 0,0.04 0,0.09 0,0.13 -0,0.01 -0.01,0.02 -0.01,0.03 -0,0.01 -0,0.03 -0,0.04 0.04,0.02 0.09,0.04 0.13,0.06 0.03,0.04 0.07,0.07 0.08,0.12 0.01,0.03 -0,0.07 -0,0.1 -0.04,0.05 -0.09,0.08 -0.14,0.1 0.02,-0.03 0.05,-0.06 0.07,-0.09 0.02,-0.06 -0.03,-0.12 -0.08,-0.15 -0.15,-0.07 -0.33,-0.06 -0.47,0.03 -0.06,0.04 -0.11,0.11 -0.1,0.18 0.01,0.06 0.06,0.11 0.12,0.12 0.02,0.01 0.03,0.02 0.05,0.04 -0.1,-0.01 -0.21,-0.04 -0.27,-0.13 -0.01,0.01 -0.02,0.02 -0.03,0.02 -0.08,0.07 -0.16,0.15 -0.2,0.25 -0.12,0.17 -0.12,0.48 -0.1,0.07 0,-0.06 -0.02,0 -0.04,0.04 -0.12,0.2 -0.14,0.52 0.07,0.67 0.02,0.02 0.03,0.02 0.06,0.03 0.08,0.05 0.18,0.07 0.27,0.07 0.17,-0.01 0.34,-0.05 0.48,-0.13 0.08,-0.03 0.15,-0.08 0.2,-0.15 0.08,-0.07 0.13,-0.17 0.16,-0.27 0.04,-0.01 0.05,-0.06 0.08,-0.08 0.04,0.17 0.14,0.33 0.28,0.44 0.11,0.08 0.25,0.14 0.39,0.16 0.59,0.11 0.89,-0.28 0.57,-0.8 0,0.01 0,0.02 0,0.02 -0.01,0 -0.04,0.01 -0.05,0.02 -0.02,-0.05 -0.04,-0.09 -0.07,-0.13 -0.06,-0.09 -0.13,-0.17 -0.21,-0.24 -0.06,0.09 -0.17,0.12 -0.27,0.12 0.03,-0.02 0.06,-0.03 0.09,-0.05l0 -0c0.06,-0.03 0.09,-0.11 0.07,-0.17 -0.03,-0.1 -0.14,-0.15 -0.24,-0.17 -0.11,-0.03 -0.23,-0.01 -0.34,0.03 -0.02,0.02 -0.04,0.04 -0.06,0.06 -0.01,0.02 -0.04,0.05 -0.01,0.06 0.02,0.01 0.03,0.03 0.02,0.05 -0,0.03 0.03,0.04 0.04,0.06 -0.05,-0.02 -0.1,-0.04 -0.13,-0.09 -0.03,-0.04 -0.03,-0.09 -0.02,-0.13 0.02,-0.03 0.04,-0.06 0.07,-0.09 0.04,-0.04 0.1,-0.06 0.15,-0.08 -0.01,-0.02 -0.01,-0.04 -0.02,-0.07 -0.01,-0.05 -0,-0.09 0.01,-0.14 0.01,0.03 0.02,0.06 0.03,0.09 0.01,0.03 0.04,0.05 0.07,0.07 0.01,-0.07 0.02,-0.13 0.05,-0.19 0.03,-0.06 0.07,-0.11 0.1,-0.16 0.02,-0.01 0.03,-0.03 0.05,-0.04 -0.07,0 -0.14,-0.01 -0.19,-0.06 0.01,0 0.03,0 0.03,0 0.02,0.02 0.06,0.02 0.08,-0l0.01 0.01c0.1,-0.04 0.16,-0.14 0.19,-0.24 0.04,-0.1 0.08,-0.22 0.17,-0.28 0.06,-0.04 0.13,-0.02 0.19,0.01 -0,0.01 -0,0.02 -0,0.02 -0.03,-0.02 -0.06,0 -0.09,0.01 0.01,0.02 0.03,0.03 0.04,0.05 0.02,0.03 0.04,0.07 0.03,0.11 0,0.08 -0.06,0.15 -0.11,0.21 0.03,-0 0.06,-0 0.09,0 -0.08,0.03 -0.17,0.05 -0.24,0.11 -0.04,0.03 -0.09,0.06 -0.11,0.1 -0.04,0.05 -0.07,0.1 -0.09,0.16 0.03,-0.05 0.08,-0.07 0.13,-0.11 0.01,-0 0.03,-0.01 0.04,-0.01l-0.01 0.02c-0.09,0.07 -0.16,0.19 -0.17,0.31 0.04,0.01 0.09,0.02 0.13,0.04 0.1,0.05 0.21,0.12 0.23,0.24 0.02,0.01 0.04,0.02 0.05,0.04 0.05,0.02 0.09,0.06 0.13,0.09 0.02,-0 0.04,-0.02 0.06,-0.03 0.01,0 0.03,0.01 0.04,0.01 0.02,0.03 0.03,0.06 0.06,0.07 0.01,-0 0.02,-0.01 0.03,-0.02 0.01,-0.03 0.04,-0.05 0.06,-0.08 0.08,-0.18 -0.04,-0.28 0.01,-0.34 0.02,-0.03 0.02,0.02 0.05,-0 0.07,0.19 0.11,0.36 -0.06,0.5zm-2.34 -1.93l-0 -0c0.25,-0.18 0.64,-0.46 0.94,-0.27 0.33,-0.19 0.67,0.08 0.94,0.25 0,0 0.08,0.07 0.09,0.08 0.07,-0.07 0.09,-0.11 0.13,-0.2 -0.24,-0.29 -0.7,-0.45 -1.06,-0.3 -0.15,0.06 -0.07,0.05 -0.21,-0.01 -0.37,-0.15 -0.75,0.02 -1.02,0.28 -0.04,0.04 -0.03,0.02 0.01,0.09 0.03,0.05 0.06,0.09 0.09,0.14 0.03,-0.02 0.06,-0.04 0.09,-0.07zm-0.19 0.13c-0.02,0.05 -0.02,0.09 -0.07,0.13 0.02,-0.11 0.01,-0.31 -0.12,-0.35 -0.11,-0.04 -0.23,0.2 -0.08,0.36 -0.04,0.1 0.04,0.07 -0.02,0.08 -0.07,0.01 0.01,0.04 -0.07,-0.02 -0.02,-0.01 -0.18,0.4 -0.19,0.45 -0.07,0.27 -0.12,0.6 -0.08,0.87 0.01,0.1 0.03,-0.05 0.04,-0.1 0.09,-0.34 0.26,-0.66 0.46,-0.95 0.06,-0.09 -0.03,-0.3 0.24,-0.43 -0.02,-0.01 -0.08,-0.05 -0.09,-0.05l-0.01 0.01zm2.92 1.35c-0,-0.37 -0.08,-0.74 -0.24,-1.08 -0.01,-0.03 -0.03,-0.05 -0.05,-0.07 -0.11,0.11 -0.17,0.14 -0.13,0.3 -0.19,-0.17 0.02,-0.28 -0.06,-0.31 -0.08,-0.03 0.12,0.01 0.16,-0.16 0.04,-0.17 -0.12,-0.43 -0.25,-0.12 -0.03,0.08 -0.02,0.15 -0.01,0.23 -0.05,-0.06 -0.05,-0.09 -0.08,-0.16 -0.15,0.1 -0.07,0 0.05,0.16 0.1,0.13 0.04,0.23 0.12,0.36 0.2,0.31 0.34,0.6 0.44,0.96 0.05,0.18 0.04,0 0.04,-0.08l0 -0.04zm-2.71 -0.95l0 0c-0.02,0.04 -0.04,0.09 -0.03,0.13 0.02,0.09 0.1,0.15 0.17,0.19 -0.07,-0.1 -0.08,-0.22 -0.15,-0.32zm1.85 0l0 0c-0.05,0.1 -0.08,0.21 -0.13,0.32 0.07,-0.04 0.14,-0.1 0.17,-0.18 0.01,-0.04 0,-0.1 -0.03,-0.13zm-1.22 2.59l0 0 -0 0.01c-0,0.01 -0.01,0.01 -0.01,0.01 -0.04,0.18 0.02,0.37 0.11,0.53 0.05,0.07 0.11,0.15 0.21,0.15 0.11,-0 0.18,-0.11 0.23,-0.2 0.04,-0.1 0.08,-0.2 0.09,-0.31 0.02,-0.08 0.01,-0.17 -0.05,-0.24 -0.05,-0.05 -0.12,-0.11 -0.2,-0.09 -0.05,0.01 -0.07,0.07 -0.09,0.11 -0,-0.01 -0.01,-0.03 -0.01,-0.04l-0.01 0c-0.01,-0.02 -0.02,-0.04 -0.02,-0.05 -0.1,-0.05 -0.21,0.03 -0.26,0.12zm-0.41 -0.01l0 0c0.02,0.1 0.09,0.2 0.17,0.26 -0.03,-0.1 -0.04,-0.2 -0.02,-0.3 -0.05,0.02 -0.1,0.02 -0.15,0.04zm1.26 -0.04l0 0c0.01,0.1 0.01,0.2 -0.02,0.29 0.1,-0.05 0.14,-0.16 0.18,-0.26 -0.05,-0.01 -0.11,-0.02 -0.16,-0.04zm0.26 1.06c0.02,0.02 0.03,0.05 0.05,0.07 0.1,-0.12 0.13,-0.19 0.19,-0.32 -0.02,0.17 -0.03,0.22 -0.12,0.37 0.24,0.14 0.25,0.03 0.27,-0.22 0.03,-0.28 -0.02,-0.54 -0.14,-0.8 0.01,0.33 -0.05,0.63 -0.25,0.89zm-1.92 -0.85l0 0c-0.14,0.34 -0.15,0.67 -0.05,1.03 0.08,0.01 0.14,-0.01 0.21,-0.05 -0.07,-0.13 -0.1,-0.2 -0.12,-0.35 0.01,0 0.01,0 0.02,0 0.03,0.11 0.1,0.2 0.17,0.29 0.02,-0.02 0.04,-0.05 0.06,-0.08 -0.09,-0.1 -0.15,-0.23 -0.19,-0.36 -0.06,-0.2 -0.07,-0.32 -0.07,-0.53 -0.01,0.01 -0.02,0.02 -0.03,0.04zm0.53 0.63l0 0c0.04,0.09 0.02,0.2 -0.04,0.28 0.03,-0.01 0.07,-0.02 0.09,-0.05 0.08,-0.04 0.12,-0.13 0.13,-0.22 -0.01,-0.01 -0.03,-0.02 -0.04,-0.03l0 -0.01c-0.05,-0.03 -0.11,-0.02 -0.16,0.02zm0.97 -0.02l0 0 0.01 0.01 -0.01 -0.01c-0.05,0.03 -0.03,0.09 -0.01,0.13 0.02,0.04 0.04,0.08 0.08,0.11 0.03,0.03 0.08,0.06 0.12,0.07 -0.06,-0.08 -0.07,-0.19 -0.04,-0.28 -0.04,-0.04 -0.1,-0.05 -0.15,-0.02zm-0.63 0.04l0 0c-0.04,0.02 -0.07,0.04 -0.1,0.07 0.01,0.09 0,0.19 -0.01,0.28 -0.04,0.15 -0.07,0.26 -0.16,0.39 0.25,-0.11 0.39,-0.35 0.43,-0.61 0,-0.03 0.02,-0.07 -0.02,-0.08 -0.01,0.07 -0.01,0.15 -0.05,0.21 0,-0.05 0.01,-0.1 0.01,-0.15 -0,-0.04 -0.01,-0.08 -0.02,-0.12 -0.03,-0 -0.05,-0 -0.08,0zm0.37 -0.01l0 0 0 0.01 -0.01 0.01c-0.02,0.08 -0.01,0.17 -0.01,0.25 -0.04,-0.07 -0.04,-0.15 -0.05,-0.22 -0.03,0.03 -0.02,0.08 -0.02,0.12 0.03,0.21 0.15,0.42 0.33,0.53 0.16,0.09 0.06,0.05 -0.01,-0.14 -0.06,-0.16 -0.08,-0.31 -0.07,-0.48 -0.04,-0.05 -0.1,-0.09 -0.17,-0.08zm0.43 1.1c-0.19,-0.02 -0.16,-0 -0.34,-0.08 -0.41,-0.17 -0.42,0.06 -0.81,0.09 0.13,0.14 0.52,0.19 0.71,0.17 0.16,-0.02 0.29,-0.08 0.43,-0.16 0,-0 0.01,-0.01 0.01,-0.01z"/>
     <path class="fil2" d="M1.68 0.79c0.1,-0.04 0.22,-0.05 0.31,0 0.08,-0.06 0.19,-0.04 0.28,-0.01 0.09,0.03 0.16,0.09 0.21,0.16 -0.01,-0.01 -0.03,-0.01 -0.04,-0.02 -0.11,-0.07 -0.24,-0.11 -0.37,-0.08 -0.04,0.01 -0.07,0.04 -0.1,0.08 -0.02,-0.03 -0.05,-0.06 -0.09,-0.07 -0.14,-0.04 -0.28,0.01 -0.39,0.09 -0,0 -0.01,0.01 -0.01,0.01l-0 -0.02c0.02,-0.01 0.03,-0.02 0.05,-0.04 0.04,-0.04 0.09,-0.07 0.14,-0.1z"/>
     <path class="fil3" d="M2.75 5.89c-0.01,0 -0.01,0 0,0z"/>
     <path class="fil4" d="M1.45 3.25c0,-0.04 0.02,-0.08 0.04,-0.11 0.03,0.04 0.01,0.11 -0.04,0.11z"/>
     <path class="fil4" d="M1.27 3.41c0,-0.04 0.01,-0.09 0.04,-0.11 0.04,-0 0.03,0.04 0.01,0.06 -0.01,0.02 -0.03,0.03 -0.05,0.05z"/>
     <path class="fil4" d="M2.85 3.56c-0.05,0.01 -0.09,-0.09 -0.04,-0.1 0.03,0.03 0.04,0.06 0.04,0.1z"/>
     <path class="fil5" d="M2.95 0.67c0.01,-0.02 -0.03,-0.01 -0.07,-0.04 -0.17,-0.13 -0.3,-0.18 -0.5,-0.27 -0.04,-0.02 0.08,-0 -0.03,-0.02 -0.26,-0.04 0.13,-0.08 0.19,-0.07 0.12,0.01 0.37,0.08 0.47,0.16 0.14,0.11 0.16,0.09 0.05,0.25 -0.06,0.1 -0.05,0.06 -0.11,0.02l-0.01 -0.01 0 -0.01z"/>
     <path class="fil6" d="M1.04 0.66l0 0c-0.03,0.03 -0.06,0.05 -0.09,0.07 -0.05,-0.07 -0.09,-0.13 -0.12,-0.2 0.18,-0.17 0.34,-0.26 0.6,-0.27 0.11,-0 0.2,0.01 0.31,0.04 -0.04,0.04 -0.14,0.05 -0.2,0.07 -0.21,0.08 -0.32,0.16 -0.5,0.29z"/>
     <path class="fil7" d="M1.43 0.56c0.12,-0.05 0.25,-0.07 0.38,-0.06 0.07,0.01 0.14,0.05 0.19,0.1 0.03,-0.03 0.07,-0.07 0.11,-0.08 0.27,-0.07 0.44,0.07 0.52,0.06 0.01,-0 0.06,-0.01 0.05,0.02 0.05,0.01 0.06,0.04 0.09,0.04 0.03,0.01 0.17,0.12 0.19,0.14 -0.05,0.01 -0.11,-0 -0.15,-0.02 0.01,0.01 0.02,0.02 0.03,0.03 0.02,0.01 0.04,0.01 0.06,0.02 -0.06,0.02 -0.12,0.06 -0.18,0.11 -0.01,0.05 -0.06,0.08 -0.06,0.14 0.05,-0.05 0.11,-0.09 0.17,-0.12l0 -0c0.04,-0.01 0.09,-0.02 0.14,-0.01 0.09,0.02 0.15,0.11 0.18,0.19 0.04,0.08 0.04,0.14 0.04,0.23 0,0.05 -0,0.11 -0.01,0.16 0,0 0,0.01 0.01,0.01 0.03,-0.05 0.03,-0.11 0.06,-0.16 0.04,0.07 0.05,0.07 -0.01,0.05 0.05,0.13 0.12,0.25 0.15,0.38 0.01,0.03 0.09,0.33 0.09,0.34 -0,-0 -0.09,-0.15 -0.1,-0.17 -0.02,-0.03 -0.04,-0.06 -0.07,-0.08 0.03,0.08 0.07,0.16 0.07,0.24 -0,0.06 -0.02,0.12 -0.04,0.18 -0.01,-0.03 -0.01,-0.05 -0.02,-0.07 -0,0.01 -0,0.02 -0.01,0.03 -0.06,0.05 -0.13,0.1 -0.22,0.08 -0.1,-0.03 -0.18,-0.13 -0.22,-0.22 -0.05,-0.11 -0.07,-0.25 -0.03,-0.37 0.02,-0.06 0.06,-0.11 0.09,-0.17 -0.04,0.02 -0.09,0.03 -0.13,0.04 0.07,-0.06 0.16,-0.08 0.24,-0.11 -0.03,-0 -0.06,-0 -0.09,-0 0.06,-0.06 0.11,-0.13 0.11,-0.21 0,-0.04 -0.02,-0.07 -0.03,-0.11 -0.01,-0.02 -0.03,-0.03 -0.04,-0.05 0.03,-0.01 0.06,-0.03 0.09,-0.01 0,-0.01 0,-0.02 0,-0.02 -0,-0.01 -0.01,-0.02 -0.01,-0.02 -0.02,-0.01 -0.05,-0.02 -0.07,-0.03 -0.09,-0.01 -0.19,0.02 -0.25,0.09 -0.09,0.11 -0.11,0.27 -0.2,0.38 -0.02,0.03 -0.05,0.04 -0.08,0.06 -0.01,0 -0.02,0.01 -0.03,0.02 -0.01,-0 -0.03,-0 -0.03,-0 0.05,0.05 0.12,0.06 0.19,0.06 -0.02,0.01 -0.03,0.03 -0.05,0.04 -0.1,0.06 -0.18,0.17 -0.22,0.28 -0.01,-0.03 -0.02,-0.06 -0.03,-0.09 -0.02,0.04 -0.02,0.09 -0.01,0.14 -0.01,-0.02 -0.01,-0.04 -0.02,-0.05 -0.03,0.05 -0.06,0.09 -0.1,0.12 0,-0.02 0,-0.05 0,-0.07 -0.06,0.06 -0.13,0.12 -0.22,0.1 -0.06,-0.01 -0.11,-0.06 -0.15,-0.1 0.01,0.02 0.01,0.05 0.02,0.07 -0.02,-0.01 -0.04,-0.01 -0.06,-0.01 0.01,0.02 0.03,0.04 0.04,0.06 -0.04,-0.02 -0.09,-0.04 -0.13,-0.06 0,-0.01 0,-0.03 0,-0.04 0.02,0.03 0.06,0.05 0.09,0.02 -0.02,-0.03 -0.04,-0.06 -0.05,-0.08 -0.01,0.01 -0.02,0.02 -0.03,0.03 0,-0.04 0,-0.09 -0,-0.13 -0.03,0.03 -0.02,0.07 -0.04,0.09 -0.02,-0.12 -0.11,-0.22 -0.21,-0.29 -0.02,-0.01 -0.03,-0.03 -0.04,-0.04 0.06,0.01 0.13,-0.01 0.18,-0.05 -0,-0 -0.01,-0.01 -0.01,-0.01 -0.04,-0.03 -0.1,-0.04 -0.13,-0.08 -0.09,-0.11 -0.11,-0.26 -0.2,-0.37 -0.06,-0.08 -0.18,-0.12 -0.27,-0.08 -0.02,0.01 -0.05,0.03 -0.07,0.04 0.03,0 0.07,0 0.1,0.02 -0.04,0.04 -0.08,0.09 -0.08,0.16 -0,0.08 0.06,0.15 0.12,0.21 -0.03,-0 -0.07,-0 -0.1,0 0.1,0.03 0.21,0.06 0.28,0.14 -0.06,-0.02 -0.11,-0.05 -0.16,-0.07 0.06,0.1 0.11,0.21 0.1,0.33 -0.01,0.16 -0.07,0.32 -0.2,0.42 -0.07,0.05 -0.16,0.04 -0.22,-0.01 -0.02,-0.02 -0.04,-0.04 -0.06,-0.06 -0,-0 -0.01,-0.01 -0.01,-0.01 -0.01,0.02 -0.01,0.05 -0.02,0.07 -0.03,-0.06 -0.03,-0.12 -0.04,-0.18 0,-0.01 0,-0.03 0,-0.04 0.01,-0.07 0.03,-0.13 0.07,-0.19 -0,-0 -0,-0.01 -0.01,-0.01 -0.04,0.05 -0.08,0.11 -0.11,0.17 -0.01,-0.05 -0,-0.09 0.01,-0.14 0.04,-0.17 0.11,-0.33 0.19,-0.48 0.01,0.03 0.02,0.07 0.04,0.1 0,-0 0,-0.01 0,-0.01 -0.02,-0.2 -0.02,-0.51 0.22,-0.58 0.09,-0.02 0.17,0.03 0.25,0.08l0.01 0c0.02,0.02 0.03,0.03 0.05,0.05 0,-0.01 -0,-0.02 -0,-0.03 -0.02,-0.03 -0.04,-0.06 -0.05,-0.09 -0.06,-0.05 -0.11,-0.09 -0.18,-0.11 0.04,-0.01 0.07,-0.03 0.1,-0.05 -0.05,0.01 -0.11,0.03 -0.17,0.02 0.07,-0.05 0.13,-0.1 0.2,-0.15 0,0 0.01,0 0.01,0l0.01 -0.01c0.01,-0 0.02,-0 0.02,-0 0.06,-0 0.11,-0.04 0.16,-0.06zm0.11 0.32c-0.02,0.01 -0.03,0.03 -0.05,0.04l0 0.02c0,-0 0.01,-0.01 0.01,-0.01 0.02,0.01 0.05,-0.01 0.07,-0.02 0.06,-0.03 0.13,-0.03 0.2,-0.04 0.09,-0 0.17,0.04 0.22,0.11 0.06,-0.12 0.22,-0.13 0.34,-0.1 0.04,0.01 0.08,0.04 0.12,0.03 0.01,0.01 0.02,0.01 0.04,0.02 -0.06,-0.07 -0.13,-0.13 -0.21,-0.16l0.02 -0c-0.06,-0.05 -0.14,-0.07 -0.21,-0.08 -0.09,-0.02 -0.18,-0 -0.27,0.02l0 0c-0.05,0.01 -0.11,0.03 -0.14,0.08 -0.05,0.02 -0.1,0.06 -0.14,0.1zm0.25 0.34l0 0c-0.07,0.05 -0.1,0.13 -0.12,0.21 0,-0.01 0.01,-0.02 0.02,-0.02 0.04,-0.01 0.06,-0.04 0.09,-0.06 0.11,-0.07 0.26,-0.1 0.38,-0.03 0.06,0.02 0.1,0.08 0.15,0.12 0,-0.09 -0.06,-0.18 -0.14,-0.23 -0.12,-0.07 -0.28,-0.07 -0.38,0.02z"/>
     <path class="fil7" d="M2.18 2.3c0.01,-0.03 0.04,-0.04 0.06,-0.06 0.11,-0.04 0.23,-0.06 0.34,-0.03 0.1,0.02 0.2,0.07 0.24,0.17 0.03,0.06 -0.01,0.14 -0.07,0.17l-0 0c-0.03,0.01 -0.06,0.03 -0.09,0.05 0.1,0 0.21,-0.03 0.27,-0.12 0.09,0.06 0.16,0.15 0.21,0.24 0.01,0.1 0.03,0.21 -0.03,0.3 -0.06,0.11 -0.2,0.11 -0.3,0.13 0.01,0.02 0.01,0.04 0.02,0.06l-0.02 -0.01c-0,-0.01 -0.01,-0.02 -0.01,-0.03 -0,-0.01 -0.01,-0.02 -0.01,-0.03 -0.17,-0.03 -0.34,-0.08 -0.47,-0.19 0.06,0.01 0.11,0.02 0.17,0.02 -0.06,-0.04 -0.13,-0.06 -0.18,-0.1 -0.12,-0.09 -0.2,-0.25 -0.2,-0.4 0,-0.07 -0.06,-0.14 -0,-0.2 -0.01,0.04 -0.01,0.1 0.02,0.13 0.03,0.04 0.08,0.07 0.13,0.09 -0.01,-0.02 -0.04,-0.04 -0.04,-0.06 0.01,-0.02 -0,-0.05 -0.02,-0.05 -0.03,-0.01 -0,-0.04 0.01,-0.06zm0.44 0.19c0.02,-0.01 0.03,-0.02 0.05,-0.03 0,-0.01 0.01,-0.02 0.02,-0.03 0,-0.01 0,-0.02 0,-0.03 -0.01,-0.02 -0.02,-0.04 -0.03,-0.05 -0.07,-0.05 -0.15,-0.05 -0.23,-0.06 -0.03,0 -0.07,0.01 -0.1,0.02 0,0.04 0.05,0.07 0.08,0.08 0.04,0.02 0.08,0.04 0.12,0.04l-0.01 0.02c-0.03,0 -0.07,-0 -0.1,-0.01 0.01,0.01 0.02,0.02 0.02,0.02 0.06,0.02 0.12,0.02 0.18,0.01z"/>
     <path class="fil7" d="M1.78 4.35c-0.09,-0.16 -0.15,-0.35 -0.11,-0.53 -0,0.05 -0,0.1 -0,0.15 0.08,-0.05 0.16,-0.09 0.25,-0.11 0.07,-0 0.14,0.01 0.21,0.03 0.06,0.02 0.11,0.06 0.17,0.08 0,0.01 0,0.03 0.01,0.03 -0.01,0.11 -0.05,0.21 -0.09,0.31 -0.05,0.09 -0.12,0.19 -0.23,0.2 -0.1,0 -0.16,-0.08 -0.21,-0.15z"/>
     <path class="fil8" d="M1.23 0.64l0.01 0c-0,-0 -0.01,-0 -0.01,-0z"/>
     <path class="fil9" d="M0.79 0.89c-0.01,0.05 -0.02,0.05 -0.08,0.08 -0.03,0.02 -0.14,-0.07 -0.16,-0.13 -0.03,-0.15 0.09,-0.25 0.19,-0.13 0.06,0.07 0.02,0.09 0.04,0.16l0 0.02z"/>
     <path class="fil10" d="M2.95 0.67c-0.02,0.02 -0.02,-0.04 0,-0.01 0,0 0,0.01 -0,0.01z"/>
     <path class="fil11" d="M3.26 1.25c-0.04,-0.16 -0.01,-0.3 -0.2,-0.4 -0.06,-0.03 -0.04,-0 0.04,-0.05 0.04,-0.03 0.02,0.01 0.05,0.07 0.01,0.03 0.02,0.04 0.04,0.06 -0.05,-0.37 0.31,-0.36 0.21,-0.04 0.05,0.02 -0.1,0.08 -0.12,0.08 -0.02,0 0.02,0.01 0.04,0.03 -0.03,0.1 -0.07,0.1 -0.02,0.23 0.01,0.02 0.03,0.07 0,0.09 -0.02,-0.01 -0.04,-0.06 -0.05,-0.07z"/>
     <path class="fil12" d="M1.82 0.71c0.09,-0.02 0.18,-0.03 0.27,-0.02 0.07,0.01 0.15,0.03 0.21,0.08l-0.02 0c-0.09,-0.03 -0.2,-0.05 -0.28,0.01 -0.1,-0.06 -0.21,-0.04 -0.31,-0 0.03,-0.05 0.09,-0.06 0.14,-0.08z"/>
     <path class="fil13" d="M0.91 0.85c-0.24,0.16 -0.14,0.33 -0.21,0.42 -0.21,0.29 -0.39,0.7 -0.48,1.04 -0.02,0.07 -0.01,0.01 -0.02,-0.03 -0.03,-0.27 0.02,-0.64 0.11,-0.9 0.12,0.14 0.27,-0.07 0.29,-0.2 0.01,-0.03 0,-0.09 0.02,-0.02 0.02,0.09 -0.07,0.23 0.03,0.09 0.07,-0.1 0.04,-0.16 -0.02,-0.25 0.11,-0.06 0.16,-0.05 0.2,-0.19 0.01,-0.04 0.01,-0.03 0.07,0 0.03,0.02 0.05,0.01 0,0.04z"/>
     <path class="fil14" d="M0.89 3.96c0.01,0.02 0.02,0.04 0.02,0.07 -0.01,0.35 -0.03,0.59 0.14,0.91 -0.07,0.04 -0.13,0.06 -0.21,0.05 -0.1,-0.36 -0.09,-0.68 0.05,-1.03z"/>
     <path class="fil14" d="M2.14 4.6c0.07,-0.01 0.13,0.03 0.17,0.08 -0.02,0.25 0.03,0.46 0.16,0.67 -0.03,-0.01 -0.06,-0.03 -0.09,-0.05 0,-0.01 0.01,-0.02 0.01,-0.03 -0.12,-0.1 -0.18,-0.25 -0.22,-0.4 -0.03,-0.09 -0.01,-0.18 -0.04,-0.26l-0 -0.01z"/>
     <path class="fil15" d="M1.5 0.93c0.11,-0.07 0.26,-0.13 0.39,-0.09 0.04,0.01 0.07,0.04 0.09,0.07 0.03,-0.03 0.06,-0.07 0.1,-0.08 0.13,-0.03 0.26,0.01 0.37,0.08 -0.04,0.01 -0.08,-0.02 -0.12,-0.03 -0.12,-0.03 -0.27,-0.02 -0.34,0.1 -0.05,-0.07 -0.13,-0.12 -0.22,-0.11 -0.07,0 -0.14,0.01 -0.2,0.04 -0.02,0.01 -0.04,0.03 -0.07,0.02z"/>
     <path class="fil16" d="M0.69 0.98c-0.1,0.05 -0.03,0.01 -0,0.14 0.02,0.08 -0.03,0.14 -0.08,0.2 0.06,-0.16 0.01,-0.18 -0.08,-0.28 0.02,-0.02 0.03,-0.02 0.06,-0.02 -0.02,-0.03 -0.02,-0.05 -0,-0.08 0.06,0.04 0.09,0.03 0.11,0.04l-0 0z"/>
     <path class="fil17" d="M3.65 0.98c-0,-0.01 -0,-0.01 0,0z"/>
     <path class="fil18" d="M2.75 1.14c0.06,-0.08 0.16,-0.1 0.25,-0.09 0.02,0.01 0.05,0.02 0.07,0.03 0,0 0.01,0.01 0.01,0.02 -0.06,-0.03 -0.13,-0.05 -0.19,-0.01 -0.1,0.06 -0.13,0.17 -0.17,0.28 -0.03,0.1 -0.09,0.2 -0.19,0.24l-0.01 -0.01c-0.02,0.02 -0.06,0.02 -0.08,0 0.01,-0 0.02,-0.01 0.03,-0.02 0.03,-0.02 0.06,-0.03 0.08,-0.06 0.09,-0.11 0.11,-0.27 0.2,-0.38z"/>
     <path class="fil19" d="M0.96 1.07c0.09,-0.04 0.21,-0.01 0.27,0.08 0.09,0.11 0.11,0.26 0.2,0.37 0.03,0.04 0.09,0.06 0.13,0.08 -0.06,0.01 -0.13,0 -0.17,-0.04 -0.14,-0.11 -0.12,-0.33 -0.26,-0.45 -0.04,-0.05 -0.11,-0.05 -0.16,-0.04z"/>
     <path class="fil20" d="M0.27 1.07c-0,0 -0,0 0,0z"/>
     <path class="fil21" d="M1.78 1.22c0.11,-0.08 0.27,-0.09 0.38,-0.02 0.08,0.05 0.14,0.14 0.14,0.23 -0.04,-0.09 -0.12,-0.16 -0.22,-0.18 -0.15,-0.05 -0.32,0.02 -0.41,0.15 -0,0.01 -0.01,0.02 -0.02,0.02 0.02,-0.08 0.06,-0.16 0.12,-0.21z"/>
     <path class="fil22" d="M3.59 1.87c-0.08,-0.17 -0.16,-0.34 -0.27,-0.5 -0.03,-0.04 -0.01,-0.1 0.01,-0.08 0.06,0.04 -0.02,-0 0.02,-0.13 0.03,0.12 0.09,0.31 0.25,0.28 0.07,-0.01 0.02,-0.16 0.1,0.12 0.07,0.27 0.08,0.52 0.06,0.8 -0.06,-0.17 -0.09,-0.32 -0.17,-0.48z"/>
     <path class="fil22" d="M2.16 2.09c0.04,-0.03 0.08,-0.07 0.1,-0.12 0.01,0.02 0.01,0.04 0.02,0.05 0.01,0.02 0.01,0.04 0.02,0.07 -0.05,0.02 -0.11,0.04 -0.15,0.08 -0.02,0.03 -0.04,0.06 -0.07,0.09 -0.06,0.06 0.01,0.14 0,0.2 -0,0.16 0.07,0.31 0.2,0.4 0.05,0.05 0.13,0.06 0.18,0.1 -0.06,-0 -0.11,-0.02 -0.17,-0.02 0.13,0.11 0.3,0.16 0.47,0.19 0,0.01 0.01,0.02 0.01,0.03 -0.06,0.04 -0,0.12 0.05,0.13 -0.01,-0.04 -0.02,-0.07 -0.04,-0.1l0.02 0.01c-0.01,-0.02 -0.01,-0.04 -0.02,-0.06 0.11,-0.01 0.24,-0.02 0.3,-0.13 0.06,-0.09 0.04,-0.2 0.03,-0.3 0.03,0.04 0.05,0.09 0.07,0.13 0.03,0.07 0.04,0.12 0.05,0.19 0.03,-0.06 0.01,-0.14 -0,-0.2 -0,-0.01 -0,-0.02 -0,-0.02 0.18,0.3 0.21,0.66 -0.18,0.8 -0.13,0.04 -0.26,0.03 -0.39,-0 -0.14,-0.03 -0.27,-0.08 -0.39,-0.16 -0.14,-0.11 -0.24,-0.27 -0.28,-0.44 -0.02,-0.07 -0.02,-0.13 -0.04,-0.2l-0 0.01c0,0.09 -0.02,0.19 -0.04,0.28 -0.04,0.1 -0.09,0.2 -0.16,0.27 -0.05,0.06 -0.12,0.12 -0.2,0.15 -0.15,0.08 -0.32,0.13 -0.48,0.13 -0.09,-0 -0.19,-0.02 -0.27,-0.07 -0.2,-0.08 -0.25,-0.34 -0.2,-0.53 0.02,-0.09 0.06,-0.15 0.11,-0.23 -0,0.08 -0.02,0.14 -0.01,0.22 0.03,-0.11 0.04,-0.18 0.11,-0.28 0.04,-0.1 0.12,-0.18 0.2,-0.25 0.01,-0.01 0.02,-0.02 0.03,-0.02 0.06,0.09 0.17,0.12 0.27,0.13 -0.02,-0.01 -0.03,-0.02 -0.05,-0.04 -0.06,-0.01 -0.11,-0.06 -0.12,-0.12 -0.01,-0.08 0.04,-0.14 0.1,-0.18 0.14,-0.09 0.32,-0.1 0.47,-0.03 0.05,0.03 0.1,0.09 0.08,0.15 -0.02,0.03 -0.04,0.06 -0.07,0.09 0.06,-0.02 0.11,-0.05 0.14,-0.1 -0,-0.03 0.01,-0.07 0,-0.1 -0.01,-0.05 -0.05,-0.08 -0.08,-0.12 -0.01,-0.02 -0.03,-0.04 -0.04,-0.06 0.02,-0.01 0.04,0 0.06,0.01 -0.01,-0.02 -0.01,-0.05 -0.02,-0.07 0.04,0.04 0.09,0.09 0.15,0.1 0.09,0.02 0.16,-0.04 0.22,-0.1 -0,0.02 -0,0.05 -0,0.07zm0.47 1.26c0.01,0.02 0.03,0.03 0.04,0.05 0.01,0 0.02,0 0.03,0 -0.01,-0.03 -0.01,-0.07 -0.04,-0.1 -0.03,-0.03 -0.03,0.03 -0.03,0.04zm-0.12 -0.09c-0,-0.03 -0.01,-0.07 -0.02,-0.1 -0.01,-0 -0.02,-0.01 -0.03,-0.02l0 0c-0.03,0.04 0,0.1 0.05,0.12zm-0.08 0.1c0.01,0.01 0.02,0.03 0.03,0.04 0.02,0.02 0.04,0.03 0.06,0.05 0,-0.06 -0.04,-0.13 -0.1,-0.14l0 0c0,0.01 0.01,0.04 0.01,0.05zm-1.31 -0.09c0.05,0.04 0.07,-0.03 0.09,-0.07 -0.01,-0.01 -0.02,-0.03 -0.02,-0.05 -0.03,0.03 -0.05,0.07 -0.07,0.11zm0.22 -0.93c-0.02,0.03 -0.06,0.05 -0.06,0.09 0,0.04 0.04,0.06 0.07,0.06 0.07,0.02 0.15,0.01 0.21,-0.03 -0.05,0 -0.09,0.02 -0.14,-0.01 0.08,-0.03 0.18,-0.04 0.21,-0.12 -0.01,-0.01 -0.02,-0.02 -0.04,-0.03 -0.09,-0 -0.18,-0 -0.26,0.04zm0.11 1.11c0.02,-0.02 0.04,-0.04 0.06,-0.06 0.02,-0.02 0.02,-0.05 0.02,-0.08 -0.06,0.01 -0.09,0.08 -0.1,0.14l0 0 0.02 0zm0 -0.2l0 0c0.05,-0 0.08,-0.08 0.04,-0.11 -0.03,0.03 -0.04,0.07 -0.04,0.11zm-0.18 0.16l0 0c0.02,-0.01 0.04,-0.03 0.05,-0.05 0.02,-0.02 0.03,-0.07 -0.01,-0.06 -0.03,0.03 -0.04,0.07 -0.04,0.11zm-0.45 0.02l0 0c0.04,-0.01 0.08,-0.06 0.04,-0.09 -0.03,0.02 -0.05,0.06 -0.04,0.09zm2.28 -0.07c0,0.11 0.11,0.07 0.04,-0 -0.01,-0.01 -0.03,-0.02 -0.04,0zm-2.1 0.01l0 0c-0.02,0.02 -0.03,0.06 -0.03,0.09 0.02,0.04 0.06,-0.02 0.06,-0.04 0.02,-0.02 0,-0.07 -0.03,-0.05zm1.94 -0l0 0c-0.02,0.03 0,0.06 0.02,0.09 0.01,0.01 0.04,0.03 0.04,0.01 0,-0.03 -0.01,-0.12 -0.06,-0.1zm-1.78 0.1l0 0c-0.02,0.02 -0.03,0.05 -0.03,0.08 0.05,0.04 0.1,-0.11 0.03,-0.08zm1.69 0.09l0 0c-0,-0.04 -0.01,-0.07 -0.04,-0.1 -0.05,0.01 -0.01,0.11 0.04,0.1z"/>
     <path class="fil23" d="M0.23 1.2c-0,0.01 -0,0.01 0,0z"/>
     <path class="fil24" d="M1.06 1.2c0.07,0.1 0.08,0.22 0.15,0.32 -0.08,-0.04 -0.15,-0.1 -0.17,-0.19 -0.01,-0.05 0,-0.09 0.03,-0.13z"/>
     <path class="fil25" d="M2.91 1.2c0.04,0.03 0.04,0.09 0.03,0.13 -0.03,0.08 -0.09,0.14 -0.17,0.18 0.05,-0.1 0.08,-0.21 0.13,-0.32z"/>
     <path class="fil26" d="M0.21 1.23c-0,0 -0,0.01 0,0z"/>
     <path class="fil27" d="M2.12 4.62l0.01 -0.01c0.03,0.09 0.01,0.18 0.04,0.26 0.04,0.15 0.11,0.3 0.22,0.4 -0,0.01 -0.01,0.02 -0.01,0.03 -0.19,-0.11 -0.3,-0.32 -0.33,-0.53 -0,-0.04 -0.02,-0.09 0.02,-0.12 0.01,0.07 0.01,0.15 0.05,0.22 -0,-0.08 -0.01,-0.17 0.01,-0.25z"/>
     <path class="fil28" d="M1.68 1.41c0.08,-0.13 0.26,-0.2 0.41,-0.15 0.1,0.02 0.17,0.1 0.22,0.18 -0.05,-0.04 -0.09,-0.1 -0.15,-0.12 -0.12,-0.06 -0.27,-0.04 -0.38,0.03 -0.03,0.02 -0.05,0.05 -0.09,0.06z"/>
     <path class="fil29" d="M2.84 3.29c-0.05,-0.01 -0.11,-0.1 -0.05,-0.13 0,0.01 0.01,0.02 0.01,0.03 0.02,0.03 0.03,0.07 0.04,0.1z"/>
     <path class="fil30" d="M0.19 1.27c-0,0.01 -0,0.01 0,0z"/>
     <path class="fil31" d="M0.75 1.36c0,0.02 0,0.04 0.01,0.06 -0.09,0.15 -0.15,0.31 -0.19,0.48 -0.01,0.05 -0.02,0.09 -0.01,0.14 -0.09,0.21 -0.17,0.43 0.07,0.57 -0.27,-0.06 -0.27,-0.27 -0.22,-0.5 0.05,-0.22 0.19,-0.52 0.31,-0.72 0.01,-0.02 0.02,-0.02 0.03,-0.04z"/>
     <path class="fil32" d="M1.23 5.89c-0.01,-0 -0.01,-0 0,0z"/>
     <path class="fil33" d="M3.22 1.41c0.07,0.02 0.04,0.01 0.09,0.1 0.04,0.07 0.05,0.09 0.06,0.13 0,0.01 0.01,0.02 0.01,0.02 0.09,0.16 0.17,0.34 0.19,0.52 0.02,0.1 0.01,0.19 -0.02,0.29 -0.03,0.07 -0,0 -0.04,0.05 -0.04,0.05 -0.09,0.07 -0.15,0.08 0.01,-0.01 0.02,-0.01 0.03,-0.02 0.19,-0.15 0.11,-0.32 0.06,-0.52 -0.02,-0.07 -0.03,-0.13 -0.05,-0.21 -0.01,-0.03 -0.01,-0.05 -0.02,-0.07 -0.04,-0.13 -0.11,-0.25 -0.15,-0.38z"/>
     <path class="fil34" d="M1.05 1.56c0.05,0.03 0.1,0.06 0.16,0.07 0.03,0.01 0.05,0.04 0.07,0.06 0.04,0.05 0.08,0.1 0.1,0.16 -0.06,-0.04 -0.11,-0.1 -0.18,-0.11 0.1,0.09 0.19,0.2 0.19,0.34 -0.09,0.02 -0.19,0.05 -0.26,0.11 -0.05,0.04 -0.08,0.1 -0.1,0.17 -0.05,0.03 -0.1,0.06 -0.14,0.1 -0.02,0.01 -0.03,0.02 -0.05,0.03 -0.1,-0.05 -0.16,-0.15 -0.16,-0.26 0.02,0.02 0.04,0.04 0.06,0.06 0.06,0.05 0.15,0.06 0.22,0.01 0.13,-0.09 0.2,-0.26 0.2,-0.42 0.01,-0.12 -0.04,-0.23 -0.1,-0.33zm-0.45 0.8c-0.03,-0.09 -0.02,-0.19 0.01,-0.29 -0,0.01 -0,0.03 -0,0.04 0,0.06 0.01,0.12 0.04,0.18 0.01,0.07 0.02,0.14 0.05,0.2 -0.05,-0.03 -0.08,-0.08 -0.1,-0.13z"/>
     <path class="fil35" d="M2.8 1.61c0.04,-0.01 0.09,-0.02 0.13,-0.04 -0.03,0.05 -0.07,0.11 -0.09,0.17 -0.04,0.12 -0.02,0.26 0.03,0.37 0.04,0.1 0.11,0.19 0.22,0.22 0.08,0.02 0.15,-0.03 0.22,-0.08 -0,0.07 -0.03,0.14 -0.08,0.19 -0.01,0 -0.02,0.01 -0.02,0.02 -0.02,0.01 -0.04,0.03 -0.06,0.03 -0.04,-0.03 -0.08,-0.07 -0.13,-0.09 -0.02,-0.01 -0.04,-0.02 -0.05,-0.04 -0.02,-0.12 -0.12,-0.19 -0.23,-0.24 -0.04,-0.01 -0.09,-0.02 -0.13,-0.04 0.01,-0.12 0.07,-0.23 0.17,-0.31l0.01 -0.02c-0.01,0 -0.03,0.01 -0.04,0.01 -0.04,0.03 -0.09,0.06 -0.13,0.11 0.01,-0.06 0.05,-0.11 0.09,-0.16 0.03,-0.04 0.07,-0.08 0.11,-0.1z"/>
     <path class="fil36" d="M1.43 1.69c0.1,0.06 0.19,0.16 0.21,0.29 -0.02,0.03 -0.04,0.05 -0.07,0.07 -0,-0.03 -0.01,-0.06 -0.01,-0.09 -0.02,-0.04 -0.03,-0.07 -0.04,-0.11l-0.01 -0c-0.03,-0.05 -0.06,-0.1 -0.1,-0.15z"/>
     <path class="fil37" d="M2.33 1.98c0.04,-0.11 0.11,-0.22 0.22,-0.28 -0.03,0.05 -0.07,0.1 -0.1,0.16 -0.03,0.06 -0.04,0.13 -0.05,0.19 -0.03,-0.02 -0.05,-0.04 -0.07,-0.07z"/>
     <path class="fil38" d="M3.3 1.87c0.02,0.02 0.22,0.26 0.1,0.22 -0.01,-0 -0.02,0.02 -0.03,0.02l-0 0c-0.01,-0.09 -0.04,-0.17 -0.07,-0.24z"/>
     <path class="fil39" d="M2.33 2.32c0.03,-0.01 0.06,-0.02 0.1,-0.02 0.08,0 0.17,0.01 0.23,0.06 0.01,0.02 0.02,0.04 0.03,0.05 0,0.01 0,0.02 -0,0.03 -0,0.01 -0.01,0.02 -0.02,0.03 -0.02,0.01 -0.03,0.02 -0.05,0.03 -0.06,0.01 -0.12,0.01 -0.18,-0.01 -0.01,-0 -0.02,-0.01 -0.02,-0.02 0.03,0 0.07,0.01 0.1,0.01l0.01 -0.02c-0.04,-0 -0.08,-0.02 -0.12,-0.04 -0.04,-0.02 -0.08,-0.04 -0.08,-0.08z"/>
     <path class="fil38" d="M0.82 3.43c-0.01,-0.04 0,-0.07 0.04,-0.09 0.04,0.03 0,0.08 -0.04,0.09z"/>
     <path class="fil38" d="M1 3.37c0.03,-0.03 0.05,0.02 0.03,0.05 -0.01,0.02 -0.04,0.08 -0.06,0.04 0,-0.03 0.01,-0.06 0.03,-0.09z"/>
     <path class="fil38" d="M1.16 3.46c0.06,-0.03 0.02,0.12 -0.03,0.08 -0,-0.03 0.01,-0.06 0.03,-0.08z"/>
     <path class="fil40" d="M1.71 1.98c0.02,0.03 0.04,0.06 0.05,0.08 -0.04,0.03 -0.07,0.01 -0.09,-0.02 0,-0.01 0.01,-0.02 0.01,-0.03 0.01,-0.01 0.02,-0.02 0.03,-0.03z"/>
     <path class="fil41" d="M3.37 2.11l0 -0c0.01,0.1 0.02,0.11 0.01,0.21 -0.01,0.08 -0.05,0.14 -0.11,0.19 0.02,-0.07 0.05,-0.13 0.05,-0.2l0 -0.01c0.02,-0.06 0.04,-0.12 0.04,-0.18z"/>
     <path class="fil42" d="M3.38 2.44c-0.02,0.03 -0.04,0.05 -0.06,0.08 -0.01,0 -0.02,0.01 -0.03,0.02 -0.03,-0.01 -0.05,-0.04 -0.06,-0.07 -0.01,-0 -0.03,-0.01 -0.04,-0.01 0.01,-0 0.02,-0.01 0.02,-0.02 0.05,-0.05 0.08,-0.12 0.08,-0.19 0,-0.01 0,-0.02 0.01,-0.03 0.01,0.02 0.02,0.05 0.02,0.07l-0 0.01c-0,0.07 -0.03,0.14 -0.05,0.2 0.06,-0.05 0.1,-0.11 0.11,-0.19 0,-0.05 0,-0.22 0.03,-0.05 0.01,0.07 -0,0.11 -0.03,0.17z"/>
     <path class="fil43" d="M3.07 4.1c-0.03,0.05 -0.01,0 -0.01,-0.09 -0,-0.12 0,-0.12 0.05,0 0.1,0.28 0.13,0.61 0.05,0.9 -0.04,0.14 -0.15,0.08 -0.24,0.02 0.14,-0.24 0.17,-0.56 0.15,-0.83l-0 -0z"/>
     <path class="fil44" d="M1.98 2.81l0 -0.01c0.01,0.07 0.02,0.13 0.04,0.2 -0.03,0.02 -0.04,0.07 -0.08,0.08 0.03,-0.09 0.04,-0.18 0.04,-0.28z"/>
     <path class="fil45" d="M3.21 2.85c0.01,-0 0.04,-0.01 0.05,-0.02 0.01,0.06 0.03,0.14 0,0.2 -0.01,-0.07 -0.02,-0.12 -0.05,-0.19z"/>
     <path class="fil46" d="M2.47 3.14c0.01,0 0.02,0.01 0.03,0.02 0.01,0.03 0.01,0.07 0.02,0.1 -0.04,-0.02 -0.08,-0.07 -0.05,-0.12z"/>
     <path class="fil47" d="M1.13 3.27c0.02,-0.04 0.04,-0.08 0.07,-0.11 0.01,0.01 0.02,0.03 0.02,0.05 -0.02,0.03 -0.04,0.1 -0.09,0.07z"/>
     <path class="fil48" d="M2.64 3.35c0,-0.02 0,-0.08 0.03,-0.04 0.03,0.03 0.03,0.06 0.04,0.1 -0.01,-0 -0.02,-0 -0.03,-0 -0.01,-0.02 -0.03,-0.03 -0.04,-0.05z"/>
     <path class="fil49" d="M1.43 3.44c0.01,-0.06 0.04,-0.12 0.1,-0.14 -0,0.03 -0.01,0.05 -0.02,0.08 -0.02,0.02 -0.04,0.04 -0.06,0.06l-0.02 -0z"/>
     <path class="fil50" d="M2.43 3.31c0.06,0.01 0.1,0.08 0.1,0.14 -0.02,-0.01 -0.05,-0.02 -0.06,-0.05 -0.01,-0.02 -0.02,-0.03 -0.03,-0.04 -0,-0.01 -0.01,-0.04 -0.01,-0.05z"/>
     <path class="fil51" d="M3.15 3.42c-0.07,-0 -0.05,-0.14 0,-0.06 0.01,0.02 0.02,0.05 -0,0.06z"/>
     <path class="fil52" d="M2.94 3.36c0.05,-0.02 0.06,0.06 0.06,0.1 0,0.03 -0.03,0 -0.04,-0.01 -0.02,-0.02 -0.04,-0.06 -0.02,-0.09z"/>
     <path class="fil53" d="M0.73 4.01c-0.01,0.01 0.01,-0.01 0,0z"/>
     <path class="fil54" d="M2.51 5.7c0.25,-0 -0.27,0.08 -0.27,0.08 -0.1,0.01 0.09,-0.05 -0.04,-0.03 -0.17,0.02 -0.28,0.02 -0.46,-0.01 0.07,0.05 0.08,0.05 -0.04,0.03 -0.07,-0.01 -0.11,-0.02 -0.17,-0.05 0.39,-0.14 0.41,-0.17 0.82,-0.05 0.05,0.02 0.11,0.02 0.17,0.02z"/>
     <path class="fil55" d="M1.98 3.78c0.02,-0.04 0.03,-0.1 0.09,-0.11 0.08,-0.01 0.15,0.04 0.2,0.09 0.06,0.06 0.06,0.16 0.05,0.24 -0,-0.01 -0,-0.03 -0.01,-0.03 -0.06,-0.02 -0.11,-0.06 -0.17,-0.08 -0.07,-0.02 -0.14,-0.03 -0.21,-0.03 -0.09,0.02 -0.18,0.07 -0.26,0.12 0,-0.05 0,-0.11 0.01,-0.16 0,-0.01 0,-0.01 0.01,-0.02 0.05,-0.08 0.16,-0.17 0.26,-0.12 0.01,0.02 0.01,0.04 0.02,0.05l0.01 -0c0,0.01 0.01,0.03 0.01,0.04z"/>
     <path class="fil56" d="M1.28 3.79c0.05,-0.01 0.1,-0.02 0.15,-0.04 -0.02,0.1 -0.01,0.2 0.02,0.3 -0.09,-0.06 -0.15,-0.16 -0.17,-0.26z"/>
     <path class="fil57" d="M2.54 3.75c0.05,0.01 0.11,0.02 0.16,0.04 -0.04,0.1 -0.08,0.21 -0.18,0.26 0.04,-0.09 0.03,-0.2 0.02,-0.29z"/>
     <path class="fil58" d="M0.7 4.06c-0,0.01 -0.01,0.01 0,0z"/>
     <path class="fil59" d="M0.72 4.03c-0,0.01 -0,0.01 0,0z"/>
     <path class="fil60" d="M2.83 5.86c-0,0 -0.01,0 0,0z"/>
     <path class="fil61" d="M1.42 4.59c0.04,-0.04 0.1,-0.05 0.16,-0.02l-0 0.01c-0.02,0.09 -0.05,0.17 -0.1,0.25 -0.02,0.03 -0.06,0.04 -0.09,0.05 0.05,-0.08 0.07,-0.19 0.04,-0.28z"/>
     <path class="fil62" d="M2.4 4.57c0.05,-0.03 0.11,-0.02 0.15,0.02 -0.03,0.09 -0.02,0.2 0.04,0.28 -0.05,-0.01 -0.09,-0.03 -0.12,-0.07 -0.02,-0.07 -0.04,-0.15 -0.06,-0.22l-0.01 -0.01z"/>
     <path class="fil63" d="M1.48 4.82c0.04,-0.08 0.08,-0.16 0.1,-0.25 0.01,0.01 0.03,0.02 0.04,0.03 -0.02,0.09 -0.05,0.18 -0.13,0.22z"/>
     <path class="fil64" d="M2.39 4.69c-0.02,-0.04 -0.04,-0.1 0.01,-0.13l0.01 0.01c0.02,0.07 0.05,0.14 0.06,0.22 -0.04,-0.02 -0.06,-0.07 -0.08,-0.11z"/>
     <path class="fil65" d="M1.67 4.68c0.03,-0.03 0.06,-0.05 0.1,-0.07 0.01,0 0.03,0 0.04,0 0,0.04 0,0.09 0,0.13 -0,0.12 -0.05,0.24 -0.1,0.34 -0.02,0.04 -0.15,0.23 -0.19,0.25 -0.07,0.03 -0.01,-0.01 0.04,-0.11 0.04,-0.09 0.06,-0.18 0.08,-0.27 0.01,-0.09 0.02,-0.19 0.01,-0.28z"/>
     <path class="fil66" d="M1.9 4.66c0.04,0.01 0.02,0.06 0.02,0.08 -0.03,0.25 -0.14,0.45 -0.36,0.57 0.05,-0.08 0.11,-0.14 0.16,-0.23 0.05,-0.11 0.1,-0.22 0.1,-0.34 -0,-0.04 -0,-0.09 -0,-0.13 -0.01,-0 -0.03,-0 -0.04,-0 0.03,-0.01 0.05,-0.01 0.08,-0 0.01,0.04 0.01,0.08 0.02,0.12 0,0.05 -0,0.1 -0.01,0.15 0.04,-0.06 0.04,-0.14 0.05,-0.21z"/>
     <path class="fil67" d="M1.19 5.87c0,0 -0.01,-0 0,0z"/>
     <path class="fil68" d="M2.8 5.87c-0.01,0.01 -0.01,0.01 0,0z"/>
     <path class="fil7" d="M1.79 2.3c-0.01,-0.03 -0.04,-0.04 -0.06,-0.06 -0.11,-0.04 -0.23,-0.06 -0.34,-0.03 -0.1,0.02 -0.2,0.07 -0.24,0.17 -0.03,0.06 0.01,0.14 0.07,0.17l0 0c0.03,0.01 0.06,0.03 0.09,0.05 -0.1,0 -0.21,-0.03 -0.27,-0.12 -0.09,0.06 -0.16,0.15 -0.21,0.24 -0.01,0.1 -0.03,0.21 0.03,0.3 0.06,0.11 0.2,0.11 0.3,0.13 -0.01,0.02 -0.01,0.04 -0.02,0.06l0.02 -0.01c0,-0.01 0.01,-0.02 0.01,-0.03 0,-0.01 0.01,-0.02 0.01,-0.03 0.17,-0.03 0.34,-0.08 0.47,-0.19 -0.06,0.01 -0.11,0.02 -0.17,0.02 0.06,-0.04 0.13,-0.06 0.18,-0.1 0.12,-0.09 0.2,-0.25 0.2,-0.4 -0,-0.07 0.06,-0.14 0,-0.2 0.01,0.04 0.01,0.1 -0.02,0.13 -0.03,0.04 -0.08,0.07 -0.13,0.09 0.01,-0.02 0.05,-0.03 0.04,-0.06 0.01,-0.01 0.01,-0.01 0.03,-0.05 0.01,-0.02 -0.01,-0.05 -0.02,-0.07zm-0.44 0.19c-0.02,-0.01 -0.03,-0.02 -0.05,-0.03 -0,-0.01 -0.01,-0.02 -0.02,-0.03 -0,-0.01 -0,-0.02 -0,-0.03 0.01,-0.02 0.02,-0.04 0.03,-0.05 0.07,-0.05 0.15,-0.05 0.23,-0.06 0.03,0 0.07,0.01 0.1,0.02 -0,0.04 -0.05,0.07 -0.08,0.08 -0.04,0.02 -0.08,0.04 -0.12,0.04l0.01 0.02c0.03,0 0.07,-0 0.1,-0.01 -0.01,0.01 -0.02,0.02 -0.02,0.02 -0.06,0.02 -0.12,0.02 -0.18,0.01z"/>
     <path class="fil39" d="M1.65 2.32c-0.03,-0.01 -0.06,-0.02 -0.1,-0.02 -0.08,0 -0.17,0.01 -0.23,0.06 -0.01,0.02 -0.02,0.04 -0.03,0.05 0,0.01 0,0.02 0,0.03 0,0.01 0.01,0.02 0.02,0.03 0.02,0.01 0.03,0.02 0.05,0.03 0.06,0.01 0.12,0.01 0.18,-0.01 0.01,-0 0.02,-0.01 0.02,-0.02 -0.03,0 -0.07,0.01 -0.1,0.01l-0.01 -0.02c0.04,-0 0.08,-0.02 0.12,-0.04 0.04,-0.02 0.08,-0.04 0.08,-0.08z"/>
     <path class="fil13" d="M3.75 2.31c0.03,-0.29 -0.01,-0.64 -0.1,-0.92 -0.08,0.03 -0.1,0.08 -0.21,-0.03 -0.07,-0.07 -0.08,-0.15 -0.09,-0.23 -0.04,0.14 0.04,0.26 -0.04,0.12 -0.07,-0.11 -0.04,-0.15 0.02,-0.25 -0.14,-0.07 -0.16,-0.05 -0.21,-0.2 -0.01,-0.03 -0.04,0.01 -0.09,0.03 -0.02,0.01 0.04,0.04 0.06,0.06 0.2,0.16 0.08,0.27 0.18,0.42 0.19,0.28 0.37,0.66 0.45,0.98l0.02 0.05 0.01 -0.02z"/>
     <path class="fil69" d="M3.36 1.18c0.02,0.06 0.04,0.12 0.08,0.17 0,0 0.01,0.01 0.01,0.01 0.1,0.1 0.12,0.07 0.2,0.03 0,-0.01 0.01,-0.02 0.01,-0.01 -0.03,-0.11 -0.08,-0.21 -0.12,-0.31 -0.01,-0.03 -0.03,-0.05 -0.05,-0.07 -0.06,0.06 -0.11,0.1 -0.13,0.14 0,0.01 0,0.03 0.01,0.04z"/>
     <path class="fil70" d="M3.45 0.83c0.04,-0.17 -0.12,-0.43 -0.25,-0.12 -0.03,0.08 -0.02,0.14 -0.01,0.22 0,0 0,0 0,0 -0.04,-0.36 0.31,-0.35 0.21,-0.03 0.01,0 0.01,0.01 0.01,0.01 0.02,-0.02 0.03,-0.05 0.04,-0.08z"/>
     <path class="fil71" d="M1.73 0.31c-0.01,0.01 -0.03,0.02 -0.06,0.03 0.1,-0.01 0.21,-0 0.31,0.06 0.14,-0.08 0.28,-0.08 0.42,-0.03 -0.01,-0 -0.01,-0 -0.02,-0.01 -0.04,-0.02 0.08,-0 -0.03,-0.02 -0.26,-0.04 0.13,-0.08 0.19,-0.07 0.12,0.01 0.37,0.08 0.47,0.16 0.02,0.02 0.05,0.04 0.06,0.05 -0.25,-0.25 -0.66,-0.37 -1,-0.24 -0.15,0.06 -0.07,0.05 -0.21,-0.01 -0.35,-0.14 -0.7,0 -0.97,0.23 0.15,-0.13 0.3,-0.19 0.52,-0.2 0.11,-0 0.2,0.01 0.31,0.04z"/>
     <path class="fil71" d="M1.8 0.51c0.07,0.01 0.14,0.05 0.19,0.1 0.03,-0.03 0.07,-0.07 0.11,-0.08 0.27,-0.07 0.44,0.07 0.52,0.06 0,-0 0.02,-0 0.03,-0 -0,-0 -0.01,-0 -0.01,-0.01 -0.21,-0.11 -0.43,-0.21 -0.65,-0.05 -0.18,-0.16 -0.44,-0.06 -0.63,0.04 -0.03,0.02 -0.06,0.03 -0.09,0.05 0.06,-0 0.11,-0.04 0.16,-0.06 0.12,-0.05 0.25,-0.07 0.38,-0.06z"/>
     <path class="fil71" d="M0.67 0.57c-0.11,-0.04 -0.23,0.2 -0.08,0.36 -0,0 -0,0.01 -0.01,0.01 0,-0 0,-0.01 0.01,-0.01 0.04,0.03 0.07,0.03 0.09,0.04 -0.05,-0.02 -0.11,-0.08 -0.12,-0.13 -0.03,-0.15 0.09,-0.25 0.19,-0.13 0.06,0.07 0.02,0.09 0.04,0.16l0 0.01c0.01,-0.11 -0.01,-0.27 -0.12,-0.31z"/>
     <path class="fil72" d="M0.53 1.02c-0,0 0,0 0,0zm-0.04 -0.03c-0.02,-0.01 -0.13,0.26 -0.17,0.39 0.12,0.14 0.27,-0.07 0.29,-0.2 0,-0.02 0,-0.05 0.01,-0.05 -0.02,-0.03 -0.05,-0.06 -0.09,-0.1 0.01,-0.01 0.01,-0.02 0.02,-0.02 -0.02,0 -0.02,0.01 -0.02,0.01 -0,-0 -0.01,-0.01 -0.04,-0.03z"/>
     <path class="fil73" d="M1.44 5.73c0.14,0.13 0.51,0.17 0.69,0.14 0.16,-0.02 0.28,-0.08 0.42,-0.15 -0.08,0.02 -0.31,0.06 -0.32,0.06 -0.1,0.01 0.09,-0.05 -0.04,-0.03 -0.17,0.02 -0.28,0.02 -0.46,-0.01 0.07,0.05 0.08,0.05 -0.04,0.03 -0.07,-0.01 -0.11,-0.02 -0.17,-0.05 0.03,-0.01 0.06,-0.02 0.09,-0.03 -0.07,0.02 -0.13,0.04 -0.16,0.03 -0,-0 -0.01,-0 -0.01,-0z"/>
     <path class="fil74" d="M2.23 5.62c-0.41,-0.17 -0.42,0.06 -0.81,0.09 0.01,0.01 0.01,0.01 0.02,0.02 0,0 0.01,0 0.01,0 0.03,0 0.09,-0.01 0.16,-0.03 0.31,-0.11 0.35,-0.12 0.73,-0.01 0.05,0.02 0.11,0.02 0.17,0.02 0.04,-0 0.06,0 0.07,0 0,-0 0,-0 0,-0 -0.19,-0.02 -0.16,-0 -0.34,-0.08z"/>
     <path class="fil74" d="M0.9 4.03c-0,0.24 -0.01,0.43 0.03,0.62 -0,-0.02 -0.01,-0.04 -0.01,-0.06 0.01,0 0.01,0 0.02,0 0.03,0.11 0.1,0.2 0.17,0.29 0.02,-0.02 0.04,-0.05 0.06,-0.08 -0.09,-0.1 -0.15,-0.23 -0.19,-0.36 -0.06,-0.2 -0.07,-0.32 -0.07,-0.53 -0.01,0.01 -0.02,0.02 -0.03,0.04 0.01,0.02 0.02,0.04 0.02,0.07z"/>
     <path class="fil74" d="M3.06 4.12c-0.02,0.25 -0.09,0.48 -0.25,0.69 0.02,0.02 0.03,0.05 0.05,0.07 0.1,-0.12 0.13,-0.19 0.19,-0.32 -0,0.04 -0.01,0.07 -0.01,0.1 0.05,-0.18 0.06,-0.38 0.04,-0.56l-0 -0c-0.01,0.01 -0.02,0.02 -0.02,0.02z"/>
    </g>
    <path class="fil75 str0" d="M2.83 5.86c-0,0 -0.01,0 0,0zm-2.55 -4.79c-0,0 -0,0 0,0zm2.95 2.9c0.17,0.24 0.1,0.44 0.2,0.68 0.11,0.24 0.16,0.42 0.04,0.68 -0.12,0.24 -0.37,0.41 -0.63,0.52 -0.11,0.04 -0.21,0.08 -0.32,0.1 -0.47,0.11 -0.93,0.07 -1.38,-0.11 -0.26,-0.1 -0.44,-0.24 -0.6,-0.47 -0.12,-0.18 -0.12,-0.44 -0.03,-0.63 0.04,-0.09 0.07,-0.14 0.09,-0.24 0.02,-0.14 0.02,-0.24 0.07,-0.37 0.04,-0.09 0.06,-0.13 0.12,-0.22 0.03,-0.04 -0.01,-0.05 -0.05,-0.1 -0.07,-0.07 -0.14,-0.12 -0.18,-0.2 -0.02,-0.04 -0.11,-0.12 -0.15,-0.18 -0.11,-0.17 -0.22,-0.38 -0.27,-0.58 -0.01,-0.04 -0.04,-0.12 -0.05,-0.16 -0.03,-0.2 -0.06,-0.3 -0.05,-0.51 0.01,-0.38 0.06,-0.69 0.2,-1.04 0.01,-0.03 0.02,-0.05 0.03,-0.08 0.04,-0.08 0.07,-0.15 0.13,-0.23 0.01,-0.02 -0.01,-0.04 -0.01,-0.11 0.01,-0.17 0.09,-0.33 0.29,-0.32 0.07,0 0.08,-0.04 0.14,-0.08 0.04,-0.02 0.09,-0.07 0.13,-0.1 0.25,-0.18 0.62,-0.26 0.91,-0.15 0.22,0.09 0.12,0.03 0.36,-0.03 0.31,-0.07 0.64,0.03 0.88,0.23 0.04,0.03 0.05,0.02 0.08,0.06 0.12,0.13 0.18,-0.02 0.3,0.13 0.14,0.17 0.04,0.24 0.14,0.44 0.39,0.78 0.44,1.69 -0.02,2.45 -0.05,0.08 -0.16,0.22 -0.22,0.29 -0.01,0.01 -0.03,0.03 -0.03,0.05 0,0.03 -0.05,0.01 -0.08,0.07 -0.06,0.12 -0.16,0.06 -0.06,0.19zm-0.42 1.9c-0.01,0.01 -0.01,0.01 0,0zm-1.57 0.02c-0.01,-0 -0.01,-0 0,0zm-0.51 -1.86c-0,0.01 -0,0.01 0,0zm-0.01 0.03c-0,0.01 -0.01,0.01 0,0zm-0.49 -2.84c-0,0 -0,0.01 0,0z"/>
   </g>
   <rect class="fil75 str1" transform="matrix(0.545252 0.209853 -0.138754 0.360518 0.263149 1.057)" width="0.06" height="0.04"/>
  </g>
 </g>
</svg>
