<?xml version="1.0" encoding="UTF-8"?>
<!DOCTYPE svg PUBLIC "-//W3C//DTD SVG 1.1//EN" "http://www.w3.org/Graphics/SVG/1.1/DTD/svg11.dtd">
<!-- Creator: CorelDRAW 2018 (64-Bit) -->
<svg xmlns="http://www.w3.org/2000/svg" xml:space="preserve" width="8.02911in" height="8.317in" version="1.1" style="shape-rendering:geometricPrecision; text-rendering:geometricPrecision; image-rendering:optimizeQuality; fill-rule:evenodd; clip-rule:evenodd"
viewBox="0 0 847.07 877.44"
 xmlns:xlink="http://www.w3.org/1999/xlink">
 <defs>
  <style type="text/css">
   <![CDATA[
    .str0 {stroke:#FEFEFE;stroke-width:8.31;stroke-miterlimit:2.61313}
    .str1 {stroke:#2B2A29;stroke-width:0.73;stroke-miterlimit:2.61313}
    .fil51 {fill:none}
    .fil52 {fill:#FEFEFE}
    .fil45 {fill:#6E0600}
    .fil46 {fill:#D2746E}
    .fil47 {fill:#DB2A14}
    .fil49 {fill:#E85D3D}
    .fil48 {fill:#E86F42}
    .fil50 {fill:#F8FCFB}
    .fil53 {fill:white}
    .fil0 {fill:#010101;fill-rule:nonzero}
    .fil42 {fill:#404040;fill-rule:nonzero}
    .fil1 {fill:#454545;fill-rule:nonzero}
    .fil7 {fill:#4B464B;fill-rule:nonzero}
    .fil22 {fill:#5F0E07;fill-rule:nonzero}
    .fil11 {fill:#620D05;fill-rule:nonzero}
    .fil37 {fill:#711513;fill-rule:nonzero}
    .fil17 {fill:#A2A9A8;fill-rule:nonzero}
    .fil44 {fill:#A3A8A7;fill-rule:nonzero}
    .fil25 {fill:#A3A9A8;fill-rule:nonzero}
    .fil27 {fill:#A6A8A8;fill-rule:nonzero}
    .fil10 {fill:#A6AAA9;fill-rule:nonzero}
    .fil16 {fill:#A7ACAA;fill-rule:nonzero}
    .fil3 {fill:#AAAEAD;fill-rule:nonzero}
    .fil38 {fill:#AC837D;fill-rule:nonzero}
    .fil20 {fill:#ACADAD;fill-rule:nonzero}
    .fil5 {fill:#B8BAB8;fill-rule:nonzero}
    .fil24 {fill:#C58785;fill-rule:nonzero}
    .fil34 {fill:#C8878D;fill-rule:nonzero}
    .fil30 {fill:#C89793;fill-rule:nonzero}
    .fil28 {fill:#CA8983;fill-rule:nonzero}
    .fil29 {fill:#CE776F;fill-rule:nonzero}
    .fil33 {fill:#CE7873;fill-rule:nonzero}
    .fil9 {fill:#CE7971;fill-rule:nonzero}
    .fil23 {fill:#CF7A77;fill-rule:nonzero}
    .fil41 {fill:#D2746E;fill-rule:nonzero}
    .fil32 {fill:#D52A17;fill-rule:nonzero}
    .fil35 {fill:#D52B16;fill-rule:nonzero}
    .fil6 {fill:#D52B18;fill-rule:nonzero}
    .fil40 {fill:#D58069;fill-rule:nonzero}
    .fil4 {fill:#D6706C;fill-rule:nonzero}
    .fil31 {fill:#D9786C;fill-rule:nonzero}
    .fil26 {fill:#DA2F35;fill-rule:nonzero}
    .fil8 {fill:#DA8F8D;fill-rule:nonzero}
    .fil36 {fill:#DC8476;fill-rule:nonzero}
    .fil12 {fill:#DE858B;fill-rule:nonzero}
    .fil39 {fill:#E85D3D;fill-rule:nonzero}
    .fil19 {fill:#F8FBF8;fill-rule:nonzero}
    .fil13 {fill:#F8FCFB;fill-rule:nonzero}
    .fil18 {fill:#FBFBFB;fill-rule:nonzero}
    .fil15 {fill:#FBFDFA;fill-rule:nonzero}
    .fil14 {fill:#FCFCFA;fill-rule:nonzero}
    .fil2 {fill:#FCFCFB;fill-rule:nonzero}
    .fil21 {fill:#FCFDFC;fill-rule:nonzero}
    .fil43 {fill:#FDFFFB;fill-rule:nonzero}
   ]]>
  </style>
 </defs>
 <g id="Layer_x0020_1">
  <metadata id="CorelCorpID_0Corel-Layer"/>
  <g id="_1015508704">
   <path class="fil0" d="M601.97 10.92c12.28,-4.51 26.29,-9.93 39.17,-4.49 11.82,4.53 16.42,17.72 18.6,29.13 5.02,22.04 -0.97,46.08 -15.26,63.47 -6.3,8.54 -15.48,15.35 -26,17.39 -9.51,1.43 -17.79,-5.83 -22.26,-13.54 -8.72,-14.99 -6.65,-34.26 2.4,-48.61 -35.25,8.32 -56.54,42.73 -63.25,76.26 3.26,1.92 6.54,3.87 9.8,5.86 -1.41,5.48 -2.51,11.05 -3.1,16.71 32.32,6.49 61.67,24.28 85.47,46.72 37.58,-1.19 74.41,-15.85 112.19,-9.31 34.19,4.42 66.73,23.95 84.52,53.81 18.01,27.3 21.88,61.71 16.31,93.39 -4.49,23.82 -13.76,47.69 -31.28,64.99 -2.44,3.48 -6.56,2.62 -10.17,2.47 -2.97,-5.17 -4.93,-11.03 -4.73,-17.04 4.34,-36.99 1.41,-75.01 -10.04,-110.54 -2.84,-8.19 -6.08,-16.27 -10.55,-23.71 0.9,-1.19 1.78,-2.36 2.66,-3.55 -1.15,-0.04 -3.41,-0.11 -4.56,-0.13 -9.88,-18.21 -23.64,-36.24 -43.72,-43.64 -26.35,-1.36 -55.74,1.94 -76.08,20.52 4.42,-0.07 9.42,-3.06 13.43,-0.07 16.56,10.96 32.16,26.11 37.34,45.88 -3.32,16.84 -10.37,33.2 -20.98,46.78 -0.13,23.2 -3.46,46.21 -7.73,68.98 -3.41,13.5 -6.25,27.28 -12.13,39.96 19.75,5.68 39.63,14.29 53.19,30.29 5.72,10.17 3.87,23.03 11.29,32.43 13.52,22.02 1.78,52.22 -19.57,64.4 -14.75,9.31 -25.87,23.62 -32.8,39.5 -6.16,14.4 -19.66,26.48 -35.82,27.34 -18.03,1.1 -35.34,-6.56 -50,-16.45 -8.56,-5.17 -15.1,-13.32 -24.44,-17.26 -17.22,-7.6 -35.09,-13.58 -53.06,-19.13 -7.07,-2.4 -14.66,-2.82 -21.99,-1.58 -6.05,2.64 -11.16,7.18 -17.55,9.16 -10.26,4.12 -21.42,4.43 -32.32,4.03 0.22,0.7 0.66,2.14 0.9,2.84 10.39,3.83 19.79,9.78 29.7,14.66 14.46,7.73 29.96,14.29 41.9,25.91 19.48,17.35 32.78,41.43 36.63,67.28 2.88,14.77 0.64,29.79 -1.87,44.41 46.67,15.19 97.66,15.54 144.91,2.64 -33.46,57.55 -95.88,93.76 -160.38,105.15 -4.47,0.57 -8.94,1.06 -13.34,2.05 -7.31,1.43 -15.9,-0.75 -22.04,4.4 -18.23,13.89 -41.32,19.55 -63.69,22.35 -37.76,2.07 -76.04,-7.64 -108.54,-26.93 -30.78,-17.7 -55.68,-44.89 -71.95,-76.33 -20.5,-40.4 -27.5,-86.46 -25.96,-131.39 -27.08,-5.64 -53.19,-20.58 -68.23,-44.3 -9.51,-13.83 -14.07,-30.62 -15.3,-47.22 -0.88,-3.15 1.03,-7.75 -1.92,-9.89 -43.13,-10.35 -83.53,-35.6 -108.23,-72.92 -12.28,-17.5 -19.57,-37.91 -24.92,-58.47 -3.61,-17.9 -4.8,-38.68 7.31,-53.78 8.56,-11.54 23.07,-16.29 36.9,-17.13 -16.56,-23.58 -32.5,-48.32 -40.49,-76.31 -6.1,-18.34 -7.82,-38.35 -3.54,-57.26 7.73,-29.52 33.73,-52.6 63.34,-58.67 20.52,-4.6 41.96,-2.58 62.19,2.44 41.19,10.85 78.46,34.15 108.6,63.98 14.11,14.68 26.79,30.95 35.62,49.43 -0.84,-24.22 -3.79,-48.48 -0.92,-72.65 1.36,-34.28 8.39,-69.06 25.23,-99.22 10.83,-17.3 23.4,-34.61 41.3,-45.15 7.11,-4.34 15.41,-6.52 23.73,-6.12 20.23,5.06 35.45,21.38 43.5,40.05 4.73,9.78 6.87,20.45 9.47,30.93 0.77,7.24 0.86,14.55 0.84,21.84 28.4,-15.72 63.67,-17.46 94.12,-6.91 14.4,-29.94 30.71,-59.4 52.99,-84.28 9.95,-10.66 21.16,-20.94 35.16,-25.82zm51.45 460.9c6.03,3.72 11.54,8.19 17,12.7 -9.95,-1.83 -19.84,-4.23 -29.94,-5.02 -4.34,1.74 -6.3,6.71 -9.2,10.15l-1.08 1.43c-1.69,2.16 -3.5,4.25 -4.78,6.67 8.17,5.59 17.06,10.06 25.93,14.42 0.62,0.9 1.83,2.69 2.42,3.57 -13.21,2.49 -25.89,-6.08 -39.25,-5.7 -3.81,4.07 -7.82,7.97 -11.27,12.35 -2.18,1.58 -4.36,3.1 -6.52,4.69 11.78,7.44 23.51,14.97 34.7,23.31l0.22 0.64c1.65,2.2 3.35,4.4 5.04,6.63 -9.51,-1.17 -17.74,-6.41 -26.64,-9.53 -6.69,0.15 -13.39,-3.48 -19.86,-2.09 -7.71,10.88 -12.55,28.93 -0.73,38.79 6.43,5.2 12.53,11.98 20.72,14.2 16.16,10.88 43.99,7.55 51.21,-12.46 4.36,-9.75 10.21,-18.71 15.56,-27.92 -3.61,0.86 -8.26,0.37 -10.74,3.7 3.87,-7.93 13.39,-9.86 20.89,-12.81 14.18,-3.99 25.43,-15.48 30.65,-29.04 2.62,-8.17 -1.7,-16.67 -5.88,-23.51 -14.68,-20.87 -38.26,-32.49 -60.23,-44.08l0 0c-1.65,4.45 -3.74,8.72 -6.16,12.79 2.49,2.22 5.09,4.31 7.95,6.12zm-39.12 -78.73l4.01 -0.04c0.35,16.95 -4.27,33.51 -3.76,50.46 1.98,-0.46 5.9,-1.39 7.88,-1.85 -4.82,3.87 -9.91,7.77 -12.46,13.58 -0.37,0.92 -1.14,2.77 -1.54,3.72 -5.92,18.43 -12.95,36.79 -24.06,52.79 7.86,-5 13.83,-12.26 20.1,-19 28.71,-31.77 48.65,-71.64 55.21,-114.06 -4.29,-3.96 -8.67,-7.86 -12.7,-12.06 -5.06,-7.75 -10.79,-15.7 -10.44,-25.43 3.83,-1.74 7.64,-3.5 11.36,-5.46 23.27,-12.28 39.61,-35.07 47.05,-59.95 -3.28,-12.02 -10.15,-24.31 -21.44,-30.4 -1.39,5.68 -3.32,11.23 -5.79,16.53l2.8 0.44 -1.87 0.57c-4.36,5.59 -8.37,11.67 -10.7,18.38 -5.66,5.81 -10.83,12.11 -15.9,18.43l-0.88 0.22c-3.26,3.3 -6.71,6.52 -11.01,8.39 1.08,-1.12 2.18,-2.27 3.28,-3.37l-0.02 -1.81c8.34,-9.73 14.07,-21.35 19.81,-32.74 1.85,-4.91 6.1,-10.81 1.96,-15.7 -15.9,-25.71 -37.05,-48.54 -62.94,-64.4 -14,-9.07 -29.21,-16.78 -45.64,-20.21l-0.44 -1.34c-1.43,-0.07 -4.34,-0.22 -5.79,-0.29 0.02,5.44 -0.2,10.88 -0.15,16.31 0.09,2.99 0.2,6.08 0.48,9.09 0.62,6.12 1.48,12.24 2.55,18.32 7.13,35.34 25.69,68.36 53.15,91.87 -3.08,-1.45 -6.16,-2.91 -9.29,-4.25 -31.68,-24.79 -50.17,-63.18 -56.12,-102.42 -2.51,-18.38 -3.7,-36.9 -3.06,-55.44 -13.43,-5.2 -26.93,-10.66 -41.3,-12.62 -22.83,-4.21 -48.21,-0.81 -66.69,14.07l0 0c8.87,-1.43 17.28,-5.02 26.31,-5.9 17.11,-0.02 35.31,0.84 50.26,10.11 -2.66,8.72 -1.85,17.9 -2.16,26.88 -1.33,63.88 21.69,132.48 85.86,158.14 -0.09,0.92 -0.26,2.77 -0.37,3.7 -4.65,6.19 -9.05,12.66 -14.79,17.92 -14.51,14.44 -37.34,18.43 -56.6,12.64 -7.44,-1.15 -13.69,-6.3 -21.18,-6.83 -3.92,4.07 -5.44,10.04 -8.23,14.97 -1.08,-5.37 -2.18,-10.72 -3.43,-16.03 -1.48,-12.02 -3.04,-24.09 -6.19,-35.78 0.62,-4.07 0.53,-8.21 -0.53,-12.18 -3.46,-14.22 -6.89,-28.51 -12.72,-41.96 -4.82,-15.61 -14.02,-29.5 -25.38,-41.1 -18.82,-16.97 -46.54,-22.76 -70.56,-14.62 -0.46,0.81 -1.36,2.44 -1.83,3.26 -23.67,11.69 -41.39,33.6 -50.7,58.03 -10.81,24.86 -10.9,54.82 1.92,78.97 16.89,33.29 56.73,54.38 93.55,47.44 -8.61,-2.44 -16.93,-5.79 -25.43,-8.54 -0.84,-0.26 -2.51,-0.77 -3.35,-1.01 -3.1,-6.34 -10.63,-8.12 -15.74,-12.42 -10.46,-8.37 -19.53,-18.47 -25.6,-30.47 -6.05,-13.87 -4.6,-29.39 -3.74,-44.1 3.28,-24.26 14.09,-49.18 34.72,-63.52 14.35,-10.19 35.09,-10.85 49.34,-0.13 3.74,2.4 6.71,6.32 11.05,7.64 3.98,7.6 10.02,13.87 13.76,21.62 14,26.93 18.71,57.31 23.07,86.96 2.73,17.59 1.83,35.42 4.03,53.06 0.55,15.59 0.22,31.44 4.12,46.67 2.11,17.59 5.9,35.25 13.58,51.34 6.21,13.91 17.5,26.22 32.5,30.49 13.08,3.32 26.18,-2.66 35.89,-11.12 24.42,-21.4 40,-50.97 50.7,-81.17 5.77,-17.33 10.83,-35.07 12.26,-53.34zm24.92 -365.13l0 0c2.82,19.59 2.82,40.79 -6.85,58.67 -2.8,5.83 -8.5,9.82 -10.39,16.16 13.72,-4.91 22.35,-17.7 26.15,-31.22 6.91,-18.63 1.12,-39.19 -8.83,-55.55 -2.16,3.7 -0.42,7.99 -0.09,11.93zm-290.41 45.24l0 0c-0.9,0.46 -2.73,1.36 -3.63,1.83 -9.55,9.44 -16.22,21.49 -21.4,33.82 -16.71,37.18 -18.49,78.97 -16.64,119.11 6.67,-5.35 10,-13.72 15.76,-19.97 3.28,-3.98 6.45,-8.04 9.75,-11.98 3.57,-3.61 8.41,-6.87 8.89,-12.35 2.51,-14.31 6.61,-28.25 10.55,-42.2 2.36,-9.45 5.94,-18.58 11.05,-26.88 -4.78,19.64 -5.37,39.98 -9.42,59.73 3.57,-0.42 5.9,-3.39 8.67,-5.33 11.16,-8.96 23.69,-16.07 36.46,-22.48 2.25,-18.03 1.04,-36.88 -6.6,-53.56 -5.22,-11.51 -12.92,-23.95 -26.22,-26.9 -6.1,0.35 -13.96,1.28 -17.22,7.18zm45 93.5l0 0c26.95,-11.14 57.55,-17.57 85.93,-7.84 0.35,-1.72 1.08,-5.11 1.43,-6.83 -8.3,-2.11 -16.62,-4.82 -25.27,-4.62 -21.77,1.5 -43.92,6.71 -62.08,19.29zm-325.3 8.74l0 0c-14.38,5.77 -26.88,18.29 -29.66,33.86 -3.13,7.84 -1.39,16.4 0,24.44 7.71,34.12 21.86,67.68 45.77,93.66 28.62,32.65 70.8,53.19 114.15,55.46 1.58,-3.32 4.62,-6.91 2.58,-10.74 -8.56,-26.99 -25.36,-50.39 -43.19,-72.01 -3.5,-3.94 -6.47,-8.59 -11.25,-11.07 -0.26,-0.55 -0.82,-1.63 -1.08,-2.18 -8.63,-9.44 -17.57,-18.6 -26.22,-28.03 33.42,24.94 64.7,53.63 87.84,88.57 2.99,4.98 5.75,10.08 8.28,15.3 15.45,-12.84 32.6,-24.72 52.44,-29.37 -0.92,-14.33 -6.78,-27.76 -11.73,-41.06 -5.22,-10.79 -9.42,-22.39 -17.13,-31.72 -6.05,-12.09 -15.1,-22.41 -24.2,-32.3 -26.51,-27.65 -60.79,-48.04 -98.06,-57.13 -16.07,-4.47 -33.29,-1.72 -48.54,4.34zm724.36 58.67l0 0c4.21,8.59 11.36,15.39 14.73,24.48 18.03,35 18.34,76.59 7.77,113.91 8.81,-12.88 12.04,-28.33 15.65,-43.24 5.72,-27.94 -2.62,-58.05 -21.24,-79.52 -5.06,-5.75 -9.89,-12.15 -16.91,-15.63zm-414.93 32.03l0 0c-4.73,4.91 -8.65,10.7 -11.14,17.06 -3.3,9.29 -2.33,19.33 -2.93,29.02 6.63,-2.29 13.54,-3.48 20.56,-3.32 -1.3,-15.21 2.66,-30.03 6.93,-44.49 0.9,-1.94 1.81,-3.87 2.64,-5.83 -5.53,2.03 -11.51,3.66 -16.07,7.57zm12.81 42.49c14.05,2.75 26.55,9.91 37.32,19.2l0.07 0.88c0.9,0.62 2.66,1.87 3.55,2.51 2.8,3.72 5.57,7.44 8.32,11.21 0.92,0.26 2.77,0.79 3.7,1.06 -4.62,-11.65 -3.72,-24.79 -8.32,-36.52 -3.35,-15.08 -10.04,-30.78 -21.84,-41.37l-0.84 -0.18c-4.03,-2.44 -8.23,-4.58 -12.44,-6.71 -8.74,10.33 -9.74,37.51 -9.51,49.93zm-5.37 15.3l0 0c-2.91,0.77 -5.88,1.34 -8.83,1.96 -3.68,1.7 -7.31,3.41 -10.92,5.2 3.3,20.5 26.51,24.46 40.47,35.56 0.36,-13.4 3.93,-25.52 4.95,-37.36 -5.17,-3.02 -11.14,-4.03 -16.86,-5.44 -2.95,-0.02 -5.88,0.02 -8.81,0.09zm30.23 9.66l0 0c-0.69,13.43 -2.4,23.5 -2.31,37.65 5.99,7.15 12.57,13.83 18.45,21.11 4.65,5.68 7.71,12.68 13.25,17.59 -0.35,-16.8 -0.64,-33.62 -1.28,-50.42 -3.65,-4.95 -7.57,-9.75 -12.22,-13.8 -4.23,-5.09 -9.25,-10.55 -15.89,-12.13zm243.63 8.85l0 0c2.16,3.06 5.94,6.45 4.67,10.55 -0.73,4.07 -5.86,4.56 -7.55,7.99 2.14,1.54 4.45,2.91 6.74,4.25 2.82,-8.98 3.74,-18.36 3.59,-27.74 -2.51,1.65 -4.98,3.32 -7.44,4.95zm-8.72 11.14l0 0c1.17,0.22 3.5,0.64 4.69,0.84 0.24,-1.01 0.77,-3.04 1.03,-4.05 -1.7,-5.68 -7.11,-1.03 -5.72,3.21zm-609.35 22.92l0 0c-4.03,11.89 0.44,24.7 5.22,35.69 14.73,42.82 54.71,72.72 97.18,84.91 2.77,-5.35 6.67,-9.97 9.97,-14.97 2.44,-7 3.63,-14.4 5.79,-21.46 -2.4,-0.75 -4.8,-1.5 -7.2,-2.25 -15.37,-8.08 -31.9,-16.05 -42.64,-30.14 14.14,7.34 21.94,2.42 13.78,7.31 12.33,6.56 26.13,10.3 39.83,12.46 4.25,-8.37 7.11,-17.41 10.88,-26 0.66,-2.58 1.17,-5.17 1.63,-7.79 -7.62,-0.55 -14.57,-3.79 -21.82,-5.83 -18.27,-7.88 -37.76,-17.65 -53.65,-29.59 -2.49,-1.94 -5.35,-3.28 -8.28,-4.32 -0.92,-1.58 -2.18,-2.82 -3.77,-3.72 -8.34,-5.7 -18.89,-6.38 -28.69,-6.08 -7.57,0.11 -15.5,4.45 -18.23,11.78zm219.78 -6.05l0 0c-28.73,10.04 -45.15,40.99 -46.5,70.14 0.68,-0.66 2.07,-1.96 2.75,-2.62 6.58,-3.72 13.08,-7.64 19.92,-10.85l-0.2 -1.54c19.53,-7.68 40.49,-9.84 60.72,-14.73 -3.21,-3.04 -7,-5.37 -11.21,-6.74l-1.32 -2.22c-7.46,-2.97 -17.92,-0.57 -23.27,-8.21 11.03,-2.58 22.24,-0.68 33.31,0.35 -5.44,-9.18 -10.7,-16.84 -12.2,-27.56 -7.27,0.7 -13.74,1.66 -22.02,3.98zm56.23 52.38l0 0c-4.8,1.34 -11.82,1.85 -12.48,8.15 -17.35,1.54 -35,3.54 -51.32,9.97 -16.38,6.96 -21.42,26.44 -36.48,35.31 0.97,-2.84 1.94,-5.7 2.93,-8.54 -10.55,6.58 -23.14,6.34 -34.74,9.29 -8.59,4.98 -13.76,14.42 -16.91,23.58 -2.86,6.94 -1.48,14.55 -2.84,21.75 -2.6,13.03 0.04,26.44 3.08,39.17 0.26,1.36 0.77,4.07 1.03,5.44 5.28,16.23 16.67,30.29 31.37,38.9 9.44,4.93 22.06,15.01 32.23,7.18 5.42,-3.37 11.1,-6.91 14.79,-12.22 4.34,-7.6 1.83,-16.86 -2.07,-24.08 -6.03,-14.6 -13.52,-28.82 -22.32,-41.98 -0.13,-0.73 -0.42,-2.18 -0.55,-2.88 1.45,2.55 4.31,2.84 6.93,3.39 11.25,7.77 20.76,18.07 27.06,30.27 0.29,-0.09 0.86,-0.26 1.15,-0.35 6.8,9.44 7.88,21.18 13.08,31.37 11.8,1.94 22.87,-3.17 32.34,-9.69 -0.18,-20.17 -1.21,-40.35 -4.47,-60.26 -1.98,-10.96 -4.36,-22.21 -10.81,-31.53 7.13,-0.9 12.57,7.53 18.03,11.54 8.54,22.96 7.26,47.75 9.88,71.73 3.02,1.52 6.03,3.04 9.05,4.6l1.96 -0.77c7.93,1.52 16.16,1.54 24.15,0.37 7.46,-1.61 15.92,-7.46 15.19,-16.01 0.42,-24.92 -0.29,-49.82 -0.44,-74.74 0.35,-13.56 -9.31,-24.19 -15.92,-35.11 10.96,8.56 21.93,17.19 32.25,26.53 -0.09,16.14 2.95,32.76 -2.42,48.39l0.53 1.3c-2.75,6.1 -3.39,13.45 -0.7,19.7 2.8,-2.02 5.61,-4.03 8.41,-6.05 1.48,-0.48 2.27,-1.41 2.42,-2.8 15.15,-12.39 22.48,-33.16 20.12,-52.4 -2.33,-10.57 -9.97,-19 -18.69,-24.97 -0.07,-0.18 -0.22,-0.57 -0.29,-0.75 -8.87,-6.63 -18.87,-11.71 -26.79,-19.51 -7.71,-7.09 -12.88,-16.51 -20.8,-23.31 -8.37,-4.8 -18.19,-1.87 -26.95,0.02zm351.96 22.72l0 0c0.79,5.75 7.68,5.68 11.78,8.08 9.22,3.15 16.34,10.74 25.76,13.17 -8.3,-12.35 -23.27,-18.85 -37.54,-21.24zm-133.7 113.53l0 0c0.35,0.75 1.06,2.22 1.41,2.97 6.45,2.47 12.84,5.42 19.81,6.01 -0.51,-1.45 -1.52,-4.34 -2.03,-5.79 -4.1,-6.49 -12.97,-2.31 -19.2,-3.19zm-207.12 40.8l0 0c-16.53,6.67 -31.73,17.63 -43.28,31.44 -2.97,3.68 -6.34,7.38 -7.49,12.09 -4.82,5.17 -6.94,12.11 -9.42,18.56 -7.05,20.63 -9.27,43.59 -4.05,64.86 2.12,-6.9 4.71,-12.74 7,-19.65 3.08,-9.3 2.8,-7.84 6.78,-18.37 3.61,-9.56 10.44,-17.93 15.8,-26.38 7.26,-11.46 14.87,-18.24 25.62,-26.44l1.42 -1.07c13.11,-9.44 27.09,-15.86 42.35,-20.98 13.14,-4.76 26.7,-7.99 40.49,-10.24 7.29,-1.17 14.79,-0.44 21.99,-2.2 -4.38,-1.7 -8.83,-3.24 -13.47,-3.92 -27.37,-7.71 -56.78,-6.56 -83.73,2.31zm62.08 32.1l0 0 -1.32 0.63c-43.03,20.11 -78.19,46.29 -89.17,94.93 -4.24,18.8 -8.6,48.56 0.88,65.83 7.27,13.25 13.94,24.66 29.48,30.85 -2.22,-8.7 -2.73,-18.21 -6.87,-26.18 -2.29,-58.72 -2.22,-90.89 48.45,-128.62 6.43,-4.79 12.3,-9.5 19.17,-13.63l2.33 -1.12c7.44,-3.5 15.39,-5.68 22.94,-8.85 23.58,-7.57 48.55,-9.69 73.16,-7.31 -11.73,-8.76 -25.8,-14.07 -40,-17.35 -20.23,-2.93 -40.35,3.61 -59.05,10.81zm71.97 26.97l0 0c-15.43,4.23 -30.87,9.77 -43.97,19.18 10.66,-0.59 19.88,-7.27 30.67,-7.24 6.08,0.15 13.5,-1.92 18.41,2.8 7.57,6.27 13.03,14.6 18.43,22.74 -7.42,9.38 -16.49,17.68 -21.77,28.55 8.01,-4.25 15.92,-9.29 25.12,-10.48 12.02,-2.6 24.33,0.55 35.03,6.19 2.84,-16.03 2.03,-34.04 -7.77,-47.64 -12.92,-15.59 -35.4,-18.56 -54.14,-14.09zm-7.13 111.86l0 0c-8.74,22.21 6.89,47.47 28.97,53.78l1.04 -0.42c14.88,2.27 30.21,2.09 45.07,-0.4 34.89,-4.95 67.7,-20.21 96.67,-39.91 7.97,-5.06 15.81,-10.5 22.48,-17.24 2.47,-1.39 4.47,-3.46 6.58,-5.31 -27.5,4.58 -55.79,5.64 -83.35,0.86 -14.29,-2.29 -27.98,-7.11 -41.87,-11.05 -14.35,-4.25 -29.04,-11.43 -44.38,-7.97 -14.64,2.31 -26.24,14.07 -31.2,27.65z"/>
   <path class="fil1" d="M639.22 27.96c-0.33,-3.94 -2.07,-8.23 0.09,-11.93 9.95,16.36 15.74,36.92 8.83,55.55 -3.81,13.52 -12.44,26.31 -26.15,31.22 1.89,-6.34 7.6,-10.33 10.39,-16.16 9.66,-17.88 9.66,-39.08 6.85,-58.67z"/>
   <path class="fil1" d="M792.87 234.12c7.02,3.48 11.84,9.88 16.91,15.63 18.63,21.47 26.97,51.58 21.25,79.52 -3.61,14.9 -6.85,30.36 -15.65,43.24 10.57,-37.32 10.26,-78.9 -7.77,-113.91 -3.37,-9.09 -10.52,-15.9 -14.73,-24.48z"/>
   <path class="fil2" d="M348.82 73.2c3.26,-5.9 11.12,-6.83 17.22,-7.18 13.3,2.95 21,15.39 26.22,26.9 7.64,16.69 8.85,35.53 6.6,53.56 -12.77,6.41 -25.3,13.52 -36.46,22.48 -2.77,1.94 -5.11,4.91 -8.67,5.33 4.05,-19.75 4.65,-40.09 9.42,-59.73 -5.11,8.3 -8.7,17.44 -11.05,26.88 0.07,-1.54 0.22,-4.65 0.29,-6.19 -11.89,17.9 -17.02,39.65 -19.73,60.74 -3.3,3.94 -6.47,7.99 -9.75,11.98 -1.41,-12.9 -1.3,-25.87 -1.34,-38.81 1.23,-15.17 4.07,-30.16 7.71,-44.91 4.91,-17.61 13.23,-33.97 19.55,-51.05z"/>
   <path class="fil3" d="M345.18 75.03c0.9,-0.46 2.73,-1.37 3.63,-1.83 -6.32,17.08 -14.64,33.44 -19.55,51.05 -3.63,14.75 -6.47,29.74 -7.71,44.91 0.04,12.95 -0.07,25.91 1.34,38.81 -5.77,6.25 -9.09,14.62 -15.76,19.97 -1.85,-40.13 -0.07,-81.92 16.64,-119.11 5.17,-12.33 11.84,-24.37 21.4,-33.82z"/>
   <path class="fil4" d="M546.43 265.44c-16.89,-20.01 -24.17,-45.92 -29.52,-71.04 -3.5,-15.41 -3.39,-31.33 -3.06,-47.03 -3.17,-1.47 -6.34,-2.99 -9.6,-4.23 -13.12,-4.87 -27.17,-6.12 -40.97,-7.75 -5.68,0.7 -11.38,1.23 -17.02,2.16 -9.03,0.88 -17.44,4.47 -26.31,5.9 18.47,-14.88 43.86,-18.27 66.69,-14.07 14.38,1.96 27.87,7.42 41.3,12.62 -0.64,18.54 0.55,37.05 3.06,55.44 5.94,39.23 24.44,77.63 56.12,102.42 -17.28,-5.81 -29.46,-20.76 -40.69,-34.41z"/>
   <path class="fil5" d="M332.66 196.01c2.71,-21.09 7.84,-42.84 19.73,-60.74 -0.07,1.54 -0.22,4.64 -0.29,6.19 -3.94,13.96 -8.04,27.89 -10.55,42.2 -0.48,5.48 -5.33,8.74 -8.89,12.35z"/>
   <path class="fil6" d="M504.25 143.15c3.26,1.23 6.43,2.75 9.6,4.23 -0.33,15.7 -0.44,31.61 3.06,47.03 5.35,25.12 12.64,51.03 29.52,71.04 11.23,13.65 23.4,28.6 40.69,34.41 3.13,1.34 6.21,2.8 9.29,4.25 -27.45,-23.51 -46.01,-56.54 -53.15,-91.87 -1.36,-7.55 -1.08,-15.3 1.45,-22.57 15.72,1.81 30.25,9.05 43.04,18.05 15.06,11.1 29.13,23.95 39.61,39.56 6.6,9.73 14.07,20.52 12.79,32.89 -0.26,7.15 -4.07,13.43 -6.76,19.86 0,0.79 0,2.36 0.02,3.15l0.02 1.81c-1.1,1.1 -2.2,2.25 -3.28,3.37 4.29,-1.87 7.75,-5.09 11.01,-8.39l0.88 -0.22c5.06,-6.32 10.24,-12.61 15.9,-18.43 2.33,-6.71 6.34,-12.79 10.7,-18.38 5.28,4.69 11.32,9.93 12.66,17.19 -1.3,15.57 -12.18,27.26 -19.4,40.27 -5.39,5.13 -11.14,10 -17.83,13.39 -9.11,0.09 -14.27,10.08 -10.57,18.01 4.56,8.85 10.02,17.57 10.88,27.78 -3.9,21.64 -10.17,43.37 -21.95,62.08 -1.98,0.46 -5.9,1.39 -7.88,1.85 -0.51,-16.95 4.12,-33.51 3.76,-50.46l-4.01 0.04c0.55,-6.74 0.9,-13.47 1.43,-20.19 -1.67,8.52 -3.87,16.93 -6.3,25.27 -6.56,18.93 -14.02,37.51 -21.58,56.05 -10.74,21.24 -21.86,43.04 -39.52,59.46 -9.25,7.6 -20.8,14.27 -33.24,12.26 -13.45,-1.36 -21.35,-13.8 -28.6,-23.76 -8.1,-18.93 -14.97,-38.68 -15.94,-59.44 -0.37,4.71 -0.92,9.4 -1.19,14.13 -3.9,-15.24 -3.57,-31.09 -4.12,-46.67 -2.2,-17.63 -1.3,-35.47 -4.03,-53.06 -4.36,-29.65 -9.07,-60.04 -23.07,-86.96 -3.74,-7.75 -9.77,-14.02 -13.76,-21.62 -4.34,-1.32 -7.31,-5.24 -11.05,-7.64 -14.24,-10.72 -34.98,-10.06 -49.34,0.13 -20.63,14.33 -31.44,39.25 -34.72,63.52 -0.86,14.71 -2.31,30.23 3.74,44.1 6.08,12 15.15,22.1 25.6,30.47 5.11,4.29 12.64,6.08 15.74,12.42 -12.42,-2 -23.29,-8.52 -33,-16.16 -15.5,-11.65 -26.24,-29.52 -28.71,-48.79 -4.01,-27.7 4.38,-55.88 18.41,-79.63 8.08,-10.77 17.26,-20.89 28.84,-27.98 7.02,-4.93 16.01,-4.25 24.15,-5.48 21.69,2.4 38.88,18.91 51.71,35.47 12.11,16.91 19.84,36.28 26.84,55.7 1.14,3.7 2.03,7.46 2.82,11.25 0.99,1.85 2.99,5.5 3.99,7.33 3.15,11.69 4.71,23.75 6.19,35.78 1.26,5.31 2.36,10.66 3.43,16.03 2.8,-4.93 4.32,-10.9 8.23,-14.97 7.49,0.53 13.74,5.68 21.18,6.83 19.26,5.79 42.09,1.8 56.6,-12.64 5.75,-5.26 10.15,-11.73 14.79,-17.92 0.11,-0.92 0.29,-2.77 0.37,-3.7 -42.01,-16.8 -71.4,-57.5 -79.89,-101.21 -5.68,-18.38 -6.36,-37.84 -5.97,-56.93 0.31,-8.98 -0.51,-18.16 2.16,-26.88 -14.95,-9.27 -33.16,-10.13 -50.26,-10.11 5.64,-0.92 11.34,-1.45 17.02,-2.16 13.8,1.63 27.85,2.88 40.97,7.75z"/>
   <path class="fil7" d="M393.82 166.7c18.16,-12.57 40.31,-17.79 62.08,-19.29 8.65,-0.2 16.97,2.51 25.27,4.62 -0.35,1.72 -1.08,5.11 -1.43,6.82 -28.38,-9.73 -58.98,-3.3 -85.93,7.84z"/>
   <path class="fil8" d="M625.42 497.75c1.28,-2.42 3.08,-4.51 4.78,-6.67l1.08 -1.43c-0.37,0.92 -1.14,2.8 -1.54,3.72 6.12,6.08 13.52,10.61 19.9,16.38 0.42,0.59 1.28,1.81 1.72,2.42 -8.87,-4.36 -17.77,-8.83 -25.93,-14.42z"/>
   <path class="fil8" d="M596.73 527.08c2.16,-1.58 4.34,-3.1 6.52,-4.69 6.03,5.77 12.55,11.01 19.02,16.29 3.72,3.26 8.1,6.54 9.16,11.71 -11.18,-8.34 -22.92,-15.87 -34.7,-23.31z"/>
   <path class="fil9" d="M546.61 170.14c16.42,3.43 31.64,11.14 45.64,20.21 25.89,15.85 47.05,38.68 62.94,64.4 4.14,4.89 -0.11,10.79 -1.96,15.7 -5.75,11.38 -11.47,23.01 -19.81,32.74 -0.02,-0.79 -0.02,-2.36 -0.02,-3.15 2.69,-6.43 6.49,-12.7 6.76,-19.86 1.28,-12.37 -6.19,-23.16 -12.79,-32.89 -10.48,-15.61 -24.55,-28.47 -39.61,-39.56 -12.79,-9 -27.32,-16.25 -43.04,-18.05 -2.53,7.27 -2.82,15.01 -1.45,22.57 -1.08,-6.08 -1.94,-12.2 -2.55,-18.32 -0.29,-3.02 -0.4,-6.1 -0.48,-9.09 -0.04,-5.44 0.18,-10.88 0.15,-16.31 1.45,0.07 4.36,0.22 5.79,0.29l0.44 1.34z"/>
   <path class="fil10" d="M38.86 233.74c-1.39,-8.04 -3.13,-16.6 0,-24.44 1.48,24.44 9.95,48.26 23.05,68.87 15.32,27.39 36.99,51.76 64.37,67.5 16.56,9.62 35.69,14.24 54.73,15.13 -2.77,-16.25 -10.83,-30.76 -18.32,-45.2 -4.78,-9.14 -11.67,-17.06 -15.79,-26.57 4.78,2.49 7.75,7.13 11.25,11.07 17.83,21.62 34.63,45.02 43.19,72.01 2.05,3.83 -0.99,7.42 -2.58,10.74 -43.35,-2.27 -85.53,-22.81 -114.15,-55.46 -23.91,-25.98 -38.06,-59.53 -45.77,-93.66z"/>
   <path class="fil11" d="M360.22 213.42c24.02,-8.15 51.74,-2.36 70.56,14.62 11.36,11.6 20.56,25.49 25.38,41.1 5.83,13.45 9.27,27.74 12.72,41.96 1.06,3.96 1.15,8.1 0.53,12.17 -0.99,-1.83 -2.99,-5.48 -3.99,-7.33 -0.79,-3.79 -1.67,-7.55 -2.82,-11.25 -7,-19.42 -14.73,-38.79 -26.84,-55.7 -12.84,-16.56 -30.03,-33.07 -51.71,-35.47 -8.67,-0.66 -17.44,0.26 -25.67,3.15 0.46,-0.81 1.36,-2.44 1.83,-3.26z"/>
   <path class="fil12" d="M358.39 216.68c8.23,-2.88 17,-3.81 25.67,-3.15 -8.15,1.23 -17.13,0.55 -24.15,5.48 -11.58,7.09 -20.76,17.22 -28.84,27.98 -14.02,23.75 -22.41,51.94 -18.41,79.63 2.47,19.26 13.21,37.14 28.71,48.79 9.71,7.64 20.59,14.16 33,16.16 0.84,0.24 2.51,0.75 3.35,1.01 8.5,2.75 16.82,6.1 25.43,8.54 -36.81,6.94 -76.66,-14.16 -93.55,-47.44 -12.81,-24.15 -12.72,-54.11 -1.92,-78.97 9.31,-24.44 27.04,-46.34 50.7,-58.03z"/>
   <path class="fil13" d="M659.24 342.46c2.47,-1.63 4.93,-3.3 7.44,-4.95 0.15,9.38 -0.77,18.76 -3.59,27.74 -2.29,-1.34 -4.6,-2.71 -6.74,-4.25 1.7,-3.43 6.82,-3.92 7.55,-7.99 1.28,-4.1 -2.51,-7.49 -4.67,-10.55z"/>
   <path class="fil13" d="M650.52 353.6c-1.39,-4.25 4.03,-8.89 5.72,-3.21 -0.26,1.01 -0.79,3.04 -1.03,4.05 -1.19,-0.2 -3.52,-0.62 -4.69,-0.84z"/>
   <path class="fil13" d="M140.88 405.51c-0.18,-0.68 -0.51,-2.05 -0.66,-2.73 4.54,1.85 9.07,3.72 13.56,5.66 7.24,2.05 14.2,5.28 21.82,5.83 -0.46,2.62 -0.97,5.22 -1.63,7.79 -0.22,-1.61 -0.66,-4.82 -0.88,-6.43 -10.96,-2.58 -21.73,-5.99 -32.21,-10.13z"/>
   <path class="fil14" d="M377.94 266.15c4.56,-3.92 10.55,-5.55 16.07,-7.57 -0.84,1.96 -1.74,3.9 -2.64,5.83 -4.27,14.46 -8.23,29.28 -6.93,44.49 -7.02,-0.15 -13.94,1.04 -20.56,3.32 0.59,-9.69 -0.37,-19.73 2.93,-29.02 2.49,-6.36 6.41,-12.15 11.14,-17.06z"/>
   <path class="fil15" d="M400.27 258.71c4.21,2.14 8.41,4.27 12.44,6.71 -2.62,-0.55 -5.24,-1.23 -7.82,-1.94 -2.22,-0.02 -4.6,0.18 -6.45,1.56 -0.26,0.95 -0.79,2.88 -1.08,3.83 19.84,12.53 27.96,36.79 30.71,58.96 -10.77,-9.29 -23.27,-16.45 -37.32,-19.2 -0.25,-13.45 0.49,-39.26 9.51,-49.93z"/>
   <path class="fil16" d="M239.31 260.53c7.71,9.34 11.91,20.94 17.13,31.72 4.95,13.3 10.81,26.73 11.73,41.06 -19.84,4.64 -36.99,16.53 -52.44,29.37 -2.53,-5.22 -5.28,-10.32 -8.28,-15.3 14.27,-9.91 29.06,-19.07 44.82,-26.4 -1.43,-20.72 -9.29,-40.16 -12.97,-60.46z"/>
   <path class="fil17" d="M398.44 265.05c1.85,-1.39 4.23,-1.58 6.45,-1.56 2.58,0.7 5.2,1.39 7.82,1.94l0.84 0.18c11.8,10.59 18.49,26.29 21.84,41.37 4.6,11.73 3.7,24.88 8.32,36.52 -0.92,-0.26 -2.77,-0.79 -3.7,-1.06 -2.75,-3.76 -5.53,-7.49 -8.32,-11.21 -0.88,-0.64 -2.64,-1.89 -3.55,-2.51l-0.07 -0.88c-2.75,-22.17 -10.88,-46.43 -30.71,-58.96 0.29,-0.95 0.81,-2.88 1.08,-3.83z"/>
   <path class="fil18" d="M385.38 323.94c2.93,-0.07 5.86,-0.11 8.81,-0.09 5.72,1.41 11.69,2.42 16.86,5.44 -1.23,12.76 -5.03,25.13 -4.95,37.36 -13.96,-11.1 -37.16,-15.06 -40.47,-35.56 3.61,-1.78 7.24,-3.5 10.92,-5.2 2.95,-0.62 5.92,-1.19 8.83,-1.96z"/>
   <path class="fil19" d="M415.61 333.61c6.65,1.58 11.67,7.05 15.9,12.13 -0.81,15.54 1.25,31.09 0.24,46.63 -5.88,-7.29 -12.46,-13.96 -18.45,-21.11 -0.09,-14.15 1.62,-24.22 2.31,-37.65z"/>
   <path class="fil20" d="M431.51 345.74c4.65,4.05 8.56,8.85 12.22,13.8 0.64,16.8 0.92,33.62 1.28,50.42 -5.55,-4.91 -8.61,-11.91 -13.25,-17.59 1.01,-15.54 -1.06,-31.09 -0.24,-46.63z"/>
   <path class="fil21" d="M41.17 376.51c2.73,-7.33 10.66,-11.67 18.23,-11.78 9.8,-0.31 20.34,0.37 28.69,6.08 1.58,0.9 2.84,2.14 3.76,3.72 3.7,9.95 13.25,15.32 20.76,22.1 11.84,10.28 25.63,18.25 40.33,23.73 0.81,5.09 1.61,10.19 2.4,15.32 -18.04,-1.01 -31.85,-0.13 -45.86,-7.4 10.74,14.09 27.28,22.06 42.64,30.14 -5.28,7.27 -9.44,15.65 -16.62,21.29 -3.96,3.43 -9.56,1.47 -13.96,0.11 -18.19,-7.33 -33.29,-20.3 -47.6,-33.4 -9.97,-10.72 -20.06,-21.58 -27.56,-34.23 -4.78,-10.99 -9.25,-23.8 -5.22,-35.69z"/>
   <path class="fil22" d="M295.16 394.04c-11.07,-1.03 -22.28,-2.93 -33.31,-0.35 5.35,7.64 15.81,5.24 23.27,8.21l1.32 2.22c-18.36,-0.99 -33.9,10.66 -49.98,17.81 0.13,0.9 0.35,2.73 0.46,3.65l0.2 1.54c-6.85,3.21 -13.34,7.13 -19.92,10.85 5.57,-6.76 5.55,-15.96 8.81,-23.78 4.58,-22.16 33.92,-42.88 57.59,-45.46l11.56 25.29z"/>
   <path class="fil23" d="M646.97 366.63c4.03,4.21 8.41,8.1 12.7,12.06 -6.56,42.42 -26.51,82.29 -55.21,114.06 -6.27,6.74 -12.24,14 -20.1,19 11.12,-16.01 18.14,-34.37 24.06,-52.79 0.4,-0.95 1.17,-2.8 1.54,-3.72 2.55,-5.81 7.64,-9.71 12.46,-13.58 11.78,-18.71 18.05,-40.44 21.95,-62.08 -0.86,-10.22 -6.32,-18.93 -10.88,-27.78 -3.7,-7.93 1.45,-17.92 10.57,-18.01 6.69,-3.39 12.44,-8.26 17.83,-13.39 7.22,-13.01 18.1,-24.7 19.4,-40.27 -1.34,-7.26 -7.38,-12.5 -12.66,-17.19l1.87 -0.57 -2.8 -0.44c2.47,-5.31 4.4,-10.85 5.79,-16.53 11.29,6.1 18.16,18.38 21.44,30.4 -7.44,24.88 -23.78,47.66 -47.05,59.95 -3.72,1.96 -7.53,3.72 -11.36,5.46 -0.35,9.73 5.37,17.68 10.44,25.43z"/>
   <path class="fil24" d="M609.44 398.18c2.42,-8.34 4.62,-16.75 6.3,-25.27 -0.53,6.71 -0.88,13.45 -1.43,20.19 -1.43,18.27 -6.49,36.02 -12.26,53.34 -10.7,30.2 -26.29,59.77 -50.7,81.17 -9.71,8.45 -22.81,14.44 -35.89,11.12 -14.99,-4.27 -26.29,-16.58 -32.5,-30.49 -7.68,-16.09 -11.47,-33.75 -13.58,-51.34 0.26,-4.73 0.81,-9.42 1.19,-14.13 0.97,20.76 7.84,40.51 15.94,59.44 7.24,9.95 15.15,22.39 28.6,23.76 12.44,2 24,-4.67 33.24,-12.26 17.66,-16.42 28.77,-38.22 39.52,-59.46 7.55,-18.54 15.01,-37.12 21.58,-56.05z"/>
   <path class="fil25" d="M91.85 374.53c2.93,1.04 5.79,2.38 8.28,4.32 20.79,15.62 50.48,29.55 75.47,35.42 0.22,1.61 -1.85,6.19 -1.63,7.79 -3.77,8.59 -6.63,17.63 -10.88,26 -13.69,-2.16 -27.5,-5.9 -39.83,-12.46 1.21,-0.73 3.61,-2.22 4.8,-2.95l1.56 -0.53c8.43,1.98 17.06,3.08 25.71,3.57 -0.79,-5.13 -1.59,-10.24 -2.4,-15.32 -14.71,-5.48 -28.49,-13.45 -40.33,-23.73 -7.51,-6.78 -17.06,-12.15 -20.76,-22.1z"/>
   <path class="fil26" d="M236.47 421.93c16.07,-7.16 31.61,-18.8 49.98,-17.81 4.21,1.36 7.99,3.7 11.21,6.74 -20.23,4.89 -41.19,7.04 -60.72,14.73 -0.11,-0.92 -0.33,-2.75 -0.46,-3.65z"/>
   <path class="fil27" d="M46.39 412.2c7.51,12.66 17.59,23.51 27.56,34.23 14.31,13.1 29.41,26.07 47.6,33.4 4.4,1.36 10,3.32 13.96,-0.11 7.18,-5.64 11.34,-14.02 16.62,-21.29 2.4,0.75 4.8,1.5 7.2,2.25 -2.16,7.07 -3.35,14.46 -5.79,21.47 -3.3,5 -7.2,9.62 -9.97,14.97 -42.47,-12.2 -82.45,-42.09 -97.18,-84.91z"/>
   <path class="fil28" d="M317.18 422.83c8.76,-1.89 18.58,-4.82 26.95,-0.02 7.93,6.8 13.1,16.22 20.8,23.31 7.93,7.79 17.92,12.88 26.79,19.51 -1.12,0.35 -3.32,1.1 -4.45,1.45 -15.63,-10 -30.93,-21.6 -42.16,-36.52 -11.6,-7.33 -26.66,-4.16 -38.17,1.87 -10.72,6.05 -23.8,2.31 -34.68,7.86 -12.22,5.35 -30.98,6.56 -33.22,22.98 -6.03,6.94 -12.88,13.5 -21.91,16.23 -11.14,5.46 -24.37,-2.2 -35.01,4.91 -3.98,2.09 -4.34,7.05 -6.01,10.74 -8.76,10.83 -9.03,25.08 -9.47,38.33 1.39,9.27 2.84,18.6 1.76,28.03 -3.04,-12.73 -5.68,-26.13 -3.08,-39.17 1.36,-7.2 -0.02,-14.82 2.84,-21.75 3.15,-9.16 8.32,-18.6 16.91,-23.58 11.6,-2.95 24.2,-2.71 34.74,-9.29 -0.99,2.84 -1.96,5.7 -2.93,8.54 15.06,-8.87 20.1,-28.36 36.48,-35.31 16.31,-6.43 33.97,-8.43 51.32,-9.97 0.66,-6.3 7.68,-6.8 12.48,-8.15z"/>
   <path class="fil29" d="M306.94 432.43c11.51,-6.03 26.57,-9.2 38.17,-1.87 11.23,14.93 26.53,26.53 42.16,36.52 1.12,-0.35 3.32,-1.1 4.45,-1.45 0.07,0.18 0.22,0.57 0.29,0.75 1.72,8.92 12.57,14.18 9.95,24 0.86,0.02 2.58,0.09 3.43,0.11 1.01,11.4 -1.43,22.79 -4.98,33.6 -2.16,7.16 -9.91,11.73 -9.84,19.66 -0.15,1.39 -0.95,2.31 -2.42,2.8 -3.59,-3.9 -5.66,-8.85 -7.71,-13.65l-0.53 -1.3c5.37,-15.63 2.33,-32.25 2.42,-48.39 -10.33,-9.33 -21.29,-17.96 -32.25,-26.53 6.6,10.92 16.27,21.55 15.92,35.12 0.15,24.92 0.86,49.82 0.44,74.74 0.73,8.54 -7.73,14.4 -15.19,16.01 -7.99,1.17 -16.23,1.14 -24.15,-0.37 8.98,-3.79 18.65,-5.57 27.74,-9.09 0.95,-19.7 4.36,-39.43 0.75,-59.09 -3.15,-18.74 -9.47,-39.1 -25.45,-50.83 -5.5,-4.34 -11.49,-8.34 -18.34,-10.15 -10.1,-2.8 -20.69,-1.65 -31.04,-2.27 -8.65,-2.73 -17.06,1.74 -25.49,3.35 -6.34,1.03 -11.51,5.09 -16.23,9.2 2.25,-16.42 21,-17.63 33.22,-22.98 10.88,-5.55 23.95,-1.81 34.68,-7.86z"/>
   <path class="fil30" d="M669.14 445.56c14.27,2.4 29.24,8.89 37.54,21.25 -9.42,-2.42 -16.53,-10.02 -25.76,-13.17 -4.09,-2.4 -10.99,-2.33 -11.78,-8.08z"/>
   <path class="fil30" d="M245.78 576.72c3.9,7.22 6.41,16.49 2.07,24.08 -3.7,5.31 -9.38,8.85 -14.79,12.22 -1.06,0.04 -3.17,0.11 -4.23,0.15 1.39,-1.52 2.77,-2.99 4.21,-4.45 12.42,-5.55 13.08,-20.25 12.75,-32.01z"/>
   <path class="fil31" d="M255.27 454.07c8.43,-1.61 16.84,-6.08 25.49,-3.35 -12.5,3.1 -25.98,5.77 -35.62,15.06 -12.44,11.62 -25.8,23.6 -43.02,27.23 -0.13,-1.85 -0.4,-5.55 -0.53,-7.4 -9.78,-1.23 -18.14,3.72 -25.47,9.53 1.67,-3.7 2.03,-8.65 6.01,-10.74 10.63,-7.11 23.87,0.55 35.01,-4.91 9.03,-2.73 15.87,-9.29 21.91,-16.23 4.71,-4.12 9.89,-8.17 16.23,-9.2z"/>
   <path class="fil32" d="M245.14 465.79c9.64,-9.29 23.12,-11.95 35.62,-15.06 10.35,0.62 20.94,-0.53 31.04,2.27 6.85,1.81 12.84,5.81 18.34,10.15 15.98,11.73 22.3,32.1 25.45,50.83 3.61,19.66 0.2,39.39 -0.75,59.09 -9.09,3.52 -18.76,5.31 -27.74,9.09l-1.96 0.77c-4.53,-15.06 -3.74,-31.04 -7.22,-46.34 -2.49,-10.37 -3.19,-22.43 -11.71,-29.99 -5.46,-4.01 -10.9,-12.44 -18.03,-11.54l-1.81 1.1c3.24,17.55 9.09,34.7 9.75,52.68 0.26,10.63 1.21,21.42 -0.62,31.97 -3.43,6.43 -10.15,10.08 -16.05,13.94 -0.99,-0.75 -2.99,-2.25 -4.01,-2.99 -1.45,1.56 -2.91,3.17 -4.34,4.78 -5.2,-10.19 -6.27,-21.93 -13.08,-31.37 -0.29,0.09 -0.86,0.26 -1.15,0.35 -6.3,-12.2 -15.81,-22.5 -27.06,-30.27 -2.62,-0.55 -5.48,-0.84 -6.93,-3.39 0.13,0.7 0.42,2.16 0.55,2.88 8.81,13.17 16.29,27.39 22.32,41.98 0.33,11.76 -0.33,26.46 -12.75,32.01 -1.43,1.45 -2.82,2.93 -4.21,4.45 1.06,-0.04 3.17,-0.11 4.23,-0.15 -10.17,7.84 -22.79,-2.25 -32.23,-7.18l3.68 -1.39c-5.92,-8.81 -13.8,-16.07 -19.62,-24.94 -5.46,-7.64 -8.74,-16.49 -12.66,-24.94 -1.7,3.92 -2.75,8.08 -2.77,12.37 -0.26,-1.36 -0.77,-4.07 -1.03,-5.44 1.08,-9.42 -0.37,-18.76 -1.76,-28.03 0.44,-13.25 0.7,-27.5 9.47,-38.33 7.33,-5.81 15.7,-10.77 25.47,-9.53 0.13,1.85 0.4,5.55 0.53,7.4 17.22,-3.63 30.58,-15.61 43.02,-27.23z"/>
   <path class="fil33" d="M651.64 452.91c21.97,11.58 45.55,23.2 60.23,44.08 4.18,6.85 8.5,15.34 5.88,23.51 -5.22,13.56 -16.47,25.05 -30.65,29.04 -7.51,2.95 -17.02,4.89 -20.89,12.81 2.49,-3.32 7.13,-2.84 10.74,-3.7 -5.35,9.2 -11.2,18.16 -15.56,27.92 -7.22,20.01 -35.05,23.34 -51.21,12.46 10.66,1.23 21.91,2.36 31.53,-3.5 8.89,-8.83 12.86,-20.83 17.79,-32.03 6.65,-14.82 22.74,-21.55 31.64,-34.65 4.25,-5.99 7.02,-13.96 4.14,-21.11 -3.9,-11.43 -15.5,-16.95 -24.86,-23.2 -5.46,-4.51 -10.96,-8.98 -17,-12.7 -2.86,-1.81 -5.46,-3.9 -7.95,-6.12 2.42,-4.07 4.51,-8.34 6.16,-12.79z"/>
   <path class="fil34" d="M392.01 466.38c8.72,5.97 16.36,14.4 18.69,24.97 2.36,19.24 -4.98,40 -20.12,52.4 -0.07,-7.93 7.68,-12.5 9.84,-19.66 3.54,-10.81 5.99,-22.19 4.98,-33.6 -0.86,-0.02 -2.58,-0.09 -3.43,-0.11 2.62,-9.82 -8.23,-15.08 -9.95,-24z"/>
   <path class="fil35" d="M631.28 489.65c2.91,-3.43 4.87,-8.41 9.2,-10.15 10.11,0.79 19.99,3.19 29.94,5.02 9.36,6.25 20.96,11.78 24.86,23.2 2.88,7.15 0.11,15.13 -4.14,21.11 -8.89,13.1 -24.99,19.84 -31.64,34.65 -4.93,11.21 -8.89,23.2 -17.79,32.03 -9.62,5.86 -20.87,4.73 -31.53,3.5 -8.19,-2.22 -14.29,-9 -20.72,-14.2 -11.82,-9.86 -6.98,-27.92 0.73,-38.79 6.47,-1.39 13.17,2.25 19.86,2.09 8.89,3.13 17.13,8.37 26.64,9.53 -1.7,-2.22 -3.39,-4.43 -5.04,-6.63l-0.22 -0.64c-1.06,-5.17 -5.44,-8.45 -9.16,-11.71 -6.47,-5.28 -12.99,-10.52 -19.02,-16.29 3.46,-4.38 7.46,-8.28 11.27,-12.35 13.36,-0.37 26.04,8.19 39.25,5.7 -0.59,-0.88 -1.81,-2.66 -2.42,-3.57 -0.44,-0.62 -1.3,-1.83 -1.72,-2.42 -6.38,-5.77 -13.78,-10.3 -19.9,-16.38 0.4,-0.92 1.17,-2.8 1.54,-3.72z"/>
   <path class="fil36" d="M286.38 496.17l1.81 -1.1c6.45,9.31 8.83,20.56 10.81,31.53 3.26,19.9 4.29,40.09 4.47,60.26 -9.47,6.52 -20.54,11.62 -32.34,9.69 1.43,-1.61 2.88,-3.21 4.34,-4.78 1.01,0.75 3.02,2.25 4.01,2.99 5.9,-3.85 12.62,-7.51 16.05,-13.94 1.83,-10.55 0.88,-21.33 0.62,-31.97 -0.66,-17.99 -6.52,-35.14 -9.75,-52.68z"/>
   <path class="fil37" d="M306.22 506.6c8.52,7.55 9.22,19.62 11.71,29.99 3.48,15.3 2.69,31.28 7.22,46.34 -3.02,-1.56 -6.03,-3.08 -9.05,-4.6 -2.62,-23.98 -1.34,-48.76 -9.88,-71.73z"/>
   <path class="fil38" d="M379.75 552.6c-2.69,-6.25 -2.05,-13.61 0.7,-19.7 2.05,4.8 4.12,9.75 7.71,13.65 -2.8,2.03 -5.61,4.03 -8.41,6.05z"/>
   <path class="fil39" d="M169.45 566.95c0.02,-4.29 1.08,-8.45 2.77,-12.37 3.92,8.45 7.2,17.3 12.66,24.94 5.81,8.87 13.69,16.14 19.62,24.94l-3.68 1.39c-14.71,-8.61 -26.09,-22.68 -31.37,-38.9z"/>
   <path class="fil40" d="M535.44 559.09c6.23,0.88 15.1,-3.3 19.2,3.19 0.51,1.45 1.52,4.34 2.03,5.79 -6.98,-0.59 -13.36,-3.54 -19.81,-6.01 -0.35,-0.75 -1.06,-2.22 -1.41,-2.97z"/>
   <path class="fil41" d="M328.32 599.88c26.95,-8.87 56.36,-10.02 83.73,-2.31 4.64,0.68 9.09,2.22 13.47,3.92 -7.2,1.76 -14.71,1.03 -21.99,2.2 -13.78,2.25 -31.73,7.01 -44.88,11.76 -0.14,-0 -17.02,-8.73 -19.45,-9.67 -3.17,-1.32 -6.3,-2.77 -9.07,-4.78l-1.8 -1.12z"/>
   <path class="fil42" d="M462.37 658.95c18.73,-4.47 41.21,-1.5 54.14,14.09 9.8,13.61 10.61,31.61 7.77,47.64 -10.7,-5.64 -23.01,-8.78 -35.03,-6.19 -9.2,1.19 -17.11,6.23 -25.12,10.48 5.28,-10.88 14.35,-19.18 21.77,-28.55 -5.39,-8.15 -10.85,-16.47 -18.43,-22.74 -4.91,-4.71 -12.33,-2.64 -18.41,-2.8 -10.79,-0.02 -20.01,6.65 -30.67,7.24 13.1,-9.4 28.53,-14.95 43.97,-19.18z"/>
   <path class="fil43" d="M455.24 770.81c4.95,-13.58 16.56,-25.34 31.2,-27.65 15.34,-3.46 30.03,3.72 44.38,7.97 13.89,3.94 27.59,8.76 41.87,11.05 27.56,4.78 55.85,3.72 83.35,-0.86 -2.11,1.85 -4.12,3.92 -6.58,5.31 -35.91,13.45 -71.9,27.98 -110.17,33.13 -28.73,3.55 -60.9,4.69 -85.49,-13.16 0.44,-5.26 0.81,-10.55 1.43,-15.79z"/>
   <path class="fil44" d="M539.3 799.77c38.26,-5.15 74.26,-19.68 110.17,-33.13 -6.67,6.74 -14.51,12.17 -22.48,17.24 -28.97,19.7 -61.78,34.96 -96.67,39.91 -14.86,2.49 -30.18,2.66 -45.07,0.4l-1.04 0.42c-22.08,-6.32 -37.71,-31.57 -28.97,-53.78 -0.62,5.24 -0.99,10.52 -1.43,15.79 24.59,17.85 56.76,16.71 85.49,13.17z"/>
   <path class="fil45" d="M299.91 727.54c-1.61,7.15 -3.24,15.88 -4.12,24.91l5.42 11.22c5.22,12.7 12.26,24.75 22.19,34.37 -0.11,-2.82 -0.21,-5.57 -0.31,-8.27 -0.69,-19.85 -0.79,-36.58 1.81,-51.6l0 -0.12c-1.66,-1.59 -4.01,-3.64 -5.18,-4.94 -4.77,-6.14 -13.39,-12.22 -15.7,-19.81 -1.62,4.53 -3,9.27 -4.12,14.23z"/>
   <path class="fil46" d="M393.35 654.68c7.44,-3.5 15.39,-5.68 22.94,-8.85 23.58,-7.57 48.55,-9.69 73.16,-7.31 -11.73,-8.76 -25.8,-14.07 -40,-17.35 -20.23,-2.93 -40.35,3.61 -59.05,10.81 2.74,1.69 3.31,22.32 2.95,22.7z"/>
   <path class="fil47" d="M393.35 654.68c0.36,-0.38 -0.21,-21.01 -2.95,-22.7l-1.32 0.63c-38.63,18.05 -70.92,41 -85.05,80.7 2.31,7.6 10.93,13.67 15.7,19.81 1.17,1.29 3.52,3.34 5.19,4.94 4.42,-25.47 16.63,-46.06 46.94,-68.63 6.43,-4.79 12.3,-9.5 19.17,-13.63l2.33 -1.12z"/>
   <path class="fil48" d="M323.41 798.05c-9.93,-9.62 -16.97,-21.66 -22.19,-34.37l-5.42 -11.22c-1.43,14.72 -0.87,30.21 5,40.92 7.27,13.25 13.94,24.66 29.48,30.85 -2.22,-8.7 -2.73,-18.21 -6.87,-26.18z"/>
   <path class="fil47" d="M293.65 662.42c7.26,-11.46 14.87,-18.24 25.62,-26.44l1.42 -1.07c11.85,-8.53 24.39,-14.59 37.96,-19.46 -0.14,-0 -17.02,-8.73 -19.45,-9.67 -3.17,-1.32 -6.3,-2.77 -9.07,-4.78l-1.8 -1.12c-16.53,6.67 -31.73,17.63 -43.28,31.44 -2.97,3.68 -6.34,7.38 -7.49,12.09 0.48,1.1 1.21,4.47 1.72,5.57 0.75,2.11 5.69,21.17 7.51,24.8 2.27,-3.86 4.55,-7.68 6.88,-11.36z"/>
   <path class="fil45" d="M277.31 644.55c-6.31,20.72 -6.63,43.67 -7.12,65.21 0.3,-0.85 0.6,-1.71 0.89,-2.59 3.08,-9.3 2.8,-7.84 6.78,-18.37 2.09,-5.55 5.27,-10.69 8.62,-15.69 -2,-4.85 -6.5,-22.12 -7.21,-24.13 -0.51,-1.1 -1.23,-4.47 -1.72,-5.57l-0.24 1.14z"/>
   <path class="fil48" d="M270.19 709.77c0.49,-21.54 0.81,-44.49 7.12,-65.21l0.24 -1.14c-4.82,5.17 -6.94,12.11 -9.42,18.56 -7.05,20.63 -9.27,43.59 -4.05,64.86 1.85,-6.02 4.06,-11.23 6.11,-17.06z"/>
   <path class="fil49" d="M226.01 414.2c4.56,-22.08 33.71,-42.74 57.34,-45.43 -0.15,-0.75 -0.28,-1.52 -0.39,-2.3 -7.27,0.7 -13.74,1.66 -22.02,3.98 -28.73,10.04 -45.15,40.99 -46.5,70.14 0.68,-0.66 2.07,-1.96 2.75,-2.62 5.57,-6.76 5.55,-15.96 8.81,-23.78z"/>
   <path class="fil50" d="M207.45 347.39c14.27,-9.91 29.06,-19.07 44.82,-26.4 -1.43,-20.72 -9.29,-40.16 -12.97,-60.46 -6.05,-12.09 -15.1,-22.41 -24.2,-32.3 -26.51,-27.65 -60.79,-48.04 -98.06,-57.13 -16.07,-4.47 -33.29,-1.72 -48.54,4.34 -14.38,5.77 -26.88,18.29 -29.66,33.86 1.48,24.44 9.95,48.26 23.05,68.87 15.32,27.39 36.99,51.76 64.37,67.5 16.56,9.62 35.69,14.24 54.73,15.13 -2.77,-16.25 -10.83,-30.76 -18.32,-45.2 -4.78,-9.14 -11.67,-17.06 -15.79,-26.57 -0.26,-0.55 -0.82,-1.63 -1.08,-2.18 -8.63,-9.44 -17.57,-18.6 -26.22,-28.03 33.42,24.94 64.7,53.63 87.84,88.57z"/>
   <path class="fil51 str0" d="M641.14 6.43c11.82,4.53 16.42,17.72 18.6,29.13 5.02,22.04 -0.97,46.08 -15.26,63.47 -6.3,8.54 -15.48,15.35 -26,17.39 -9.51,1.43 -17.79,-5.83 -22.26,-13.54 -8.72,-14.99 -6.65,-34.26 2.4,-48.61 -35.25,8.32 -56.54,42.73 -63.25,76.26 3.26,1.92 6.54,3.87 9.8,5.86 -1.41,5.48 -2.51,11.05 -3.1,16.71 32.32,6.49 61.67,24.28 85.47,46.72 37.58,-1.19 74.41,-15.85 112.19,-9.31 34.19,4.42 66.73,23.95 84.52,53.81 18.01,27.3 21.88,61.71 16.31,93.39 -4.49,23.82 -13.76,47.69 -31.28,64.99 -2.44,3.48 -6.56,2.62 -10.17,2.47 -2.97,-5.17 -4.93,-11.03 -4.73,-17.04 4.34,-36.99 1.41,-75.01 -10.04,-110.54 -2.84,-8.19 -6.08,-16.27 -10.55,-23.71 0.9,-1.19 1.78,-2.36 2.66,-3.55 -1.15,-0.04 -3.41,-0.11 -4.56,-0.13 -9.88,-18.21 -23.64,-36.24 -43.72,-43.64 -26.35,-1.36 -55.74,1.94 -76.08,20.52 4.42,-0.07 9.42,-3.06 13.43,-0.07 16.56,10.96 32.16,26.11 37.34,45.88 -3.32,16.84 -10.37,33.2 -20.98,46.78 -0.13,23.2 -3.46,46.21 -7.73,68.98 -3.41,13.5 -6.25,27.28 -12.13,39.96 19.75,5.68 39.63,14.29 53.19,30.29 5.72,10.17 3.87,23.03 11.29,32.43 13.52,22.02 1.78,52.22 -19.57,64.4 -14.75,9.31 -25.87,23.62 -32.8,39.5 -6.16,14.4 -19.66,26.48 -35.82,27.34 -18.03,1.1 -35.34,-6.56 -50,-16.45 -8.56,-5.17 -15.1,-13.32 -24.44,-17.26 -17.22,-7.6 -35.09,-13.58 -53.06,-19.13 -7.07,-2.4 -14.66,-2.82 -21.99,-1.58 -6.05,2.64 -11.16,7.18 -17.55,9.16 -10.26,4.12 -21.42,4.43 -32.32,4.03 0.22,0.7 0.66,2.14 0.9,2.84 10.39,3.83 19.79,9.78 29.7,14.66 14.46,7.73 29.96,14.29 41.9,25.91 19.48,17.35 32.78,41.43 36.63,67.28 2.88,14.77 0.64,29.79 -1.87,44.41 46.67,15.19 97.66,15.54 144.91,2.64 -33.46,57.55 -95.88,93.76 -160.38,105.15 -4.47,0.57 -8.94,1.06 -13.34,2.05 -7.31,1.43 -15.9,-0.75 -22.04,4.4 -18.23,13.89 -41.32,19.55 -63.69,22.35 -37.76,2.07 -76.04,-7.64 -108.54,-26.93 -30.78,-17.7 -55.68,-44.89 -71.95,-76.33 -20.5,-40.4 -27.5,-86.46 -25.96,-131.39 -27.08,-5.64 -53.19,-20.58 -68.23,-44.3 -9.51,-13.83 -14.07,-30.62 -15.3,-47.22 -0.88,-3.15 1.03,-7.75 -1.92,-9.89 -43.13,-10.35 -83.53,-35.6 -108.23,-72.92 -12.28,-17.5 -19.57,-37.91 -24.92,-58.47 -3.61,-17.9 -4.8,-38.68 7.31,-53.78 8.56,-11.54 23.07,-16.29 36.9,-17.13 -16.56,-23.58 -32.5,-48.32 -40.49,-76.31 -6.1,-18.34 -7.82,-38.35 -3.54,-57.26 7.73,-29.52 33.73,-52.6 63.34,-58.67 20.52,-4.6 41.96,-2.58 62.19,2.44 41.19,10.85 78.46,34.15 108.6,63.98 14.11,14.68 26.79,30.95 35.62,49.43 -0.84,-24.22 -3.79,-48.48 -0.92,-72.65 1.36,-34.28 8.39,-69.06 25.23,-99.22 10.83,-17.3 23.4,-34.61 41.3,-45.15 7.11,-4.34 15.41,-6.52 23.73,-6.12 20.23,5.06 35.45,21.38 43.5,40.05 4.73,9.78 6.87,20.45 9.47,30.93 0.77,7.24 0.86,14.55 0.84,21.84 28.4,-15.72 63.67,-17.46 94.12,-6.91 14.4,-29.94 30.71,-59.4 52.99,-84.28 9.95,-10.66 21.16,-20.94 35.16,-25.82 12.28,-4.51 26.29,-9.93 39.17,-4.49z"/>
   <path class="fil52" d="M522 309.77c-14.42,-23.31 -27.99,-47.44 -33.6,-73.98 -15.58,12.46 -24.67,34.01 -13.61,51.5 9.82,14.7 29.31,20.76 47.21,22.47z"/>
   <path class="fil53 str1" d="M663.09 365.24c-13.57,-5.92 -16.62,-10.89 -20.73,-16.33 6.87,-5.16 10.75,-7.4 24.31,-11.41 -0.08,11.94 -1.27,21.19 -3.59,27.74z"/>
  </g>
 </g>
</svg>
