<?xml version="1.0" encoding="UTF-8"?>
<!DOCTYPE svg PUBLIC "-//W3C//DTD SVG 1.1//EN" "http://www.w3.org/Graphics/SVG/1.1/DTD/svg11.dtd">
<!-- Creator: CorelDRAW 2018 (64-Bit) -->
<svg xmlns="http://www.w3.org/2000/svg" xml:space="preserve" width="9.02266in" height="8.23831in" version="1.1" style="shape-rendering:geometricPrecision; text-rendering:geometricPrecision; image-rendering:optimizeQuality; fill-rule:evenodd; clip-rule:evenodd"
viewBox="0 0 2649.51 2419.19"
 xmlns:xlink="http://www.w3.org/1999/xlink">
 <defs>
  <style type="text/css">
   <![CDATA[
    .fil5 {fill:#FEFEFE}
    .fil7 {fill:black}
    .fil6 {fill:#E20513}
    .fil1 {fill:black;fill-rule:nonzero}
    .fil4 {fill:#BC0813;fill-rule:nonzero}
    .fil2 {fill:#DCCFD0;fill-rule:nonzero}
    .fil3 {fill:#E20513;fill-rule:nonzero}
    .fil0 {fill:#E6E6E6;fill-rule:nonzero}
   ]]>
  </style>
 </defs>
 <g id="Layer_x0020_1">
  <metadata id="CorelCorpID_0Corel-Layer"/>
  <g id="_1008382544">
   <g>
    <g>
     <g>
      <path class="fil0" d="M1394.1 53.22c41.27,-17.53 82.34,-35.49 123.54,-53.22 -0.97,2.92 -2.89,8.73 -3.86,11.65 -29.08,62.76 -58.43,125.42 -86.5,188.65 -17.46,40.29 -34.25,81.03 -45.6,123.54 63.6,-28.81 131.09,-48.99 200.2,-59.1 72.66,-9.37 147.18,-7.45 218.67,9.3 44.76,11.22 90.13,19.71 134.92,30.86 -1.07,0.87 -3.22,2.62 -4.3,3.49 -61.25,30.32 -124.24,57.55 -183.95,90.97 -71.26,39.66 -134.05,94.06 -184.11,158.36 -3.76,3.83 1.61,7.66 3.69,10.61 24.55,27.97 46.34,58.53 62.56,92.11 50.07,101.61 103.12,203.05 175.35,290.96 33.28,41.47 70.95,79.38 111.95,113.2 3.09,3.63 7.42,-0.27 10.61,-1.51 52.62,-27.7 102.22,-61.92 143.69,-104.77 44.09,-44.53 78.04,-99.9 94.19,-160.68 5.64,-21.99 11.28,-43.99 16.62,-66.05 6.71,11.69 12.56,23.81 18.74,35.8 33.81,61.69 44.83,132.77 49.33,202.11 4.97,66.49 -1.78,133.04 -9.54,199.02 28.31,-20.48 51.34,-47.65 72.73,-75.08 82.84,-106.98 121.89,-240.46 143.35,-372.19 12.66,-86.67 19.24,-174.34 17.7,-261.95 -0.1,-25.72 -1.14,-51.44 -1.01,-77.13 19.58,33.58 40.3,66.52 58.8,100.77 23.54,46.81 42.71,95.7 59.4,145.37 48.56,149.02 68.64,308.02 53.06,464.23 -12.32,129.85 -50.37,257.02 -110.07,372.86 -44.59,69.78 -100.43,132.17 -163.33,185.89 -7.42,16.19 -6.01,35.69 -15.98,51.01 -17.02,26.93 -31.9,55.14 -47.78,82.74 -8.93,17.09 -19.84,33.34 -25.72,51.88 -12.39,37.17 -26.53,73.71 -40.8,110.21 -4.2,9.91 -7.79,20.55 -15.48,28.41 -50.6,47.95 -96.71,100.84 -151.48,144.26 -18.17,13.4 -37.48,25.18 -55.94,38.18 -18.07,-19.61 -34.22,-40.9 -52.75,-60.04 -27.33,-28.24 -54.63,-56.55 -83.55,-83.18 -51.95,13.8 -105.14,24.24 -158.86,27.03 -71.89,-42.75 -138.21,-94.39 -203.49,-146.54 -17.93,-2.35 -36.2,0.5 -54.16,-2.28 4.83,-10.98 10.21,-21.76 13.57,-33.31 -14.57,-13.7 -29.18,-27.3 -43.32,-41.44 -7.49,-7.79 -17.63,-11.89 -27.1,-16.52 -30.42,-14.04 -60.31,-29.15 -90.43,-43.79 -8.39,-7.22 -9.6,-19.71 -14.41,-29.31 -55.54,-28.17 -110.88,-57.59 -161.38,-94.26 -25.18,-18 -38.45,-46.81 -55.54,-71.56 -13.23,-6.58 -27.64,-10.41 -41.91,-14.07 -26.19,-8.36 -52.01,7.72 -70.92,24.55 -7.52,8.36 -19.58,4.94 -29.45,6.55 -16.32,1.95 -32.74,2.85 -49.16,3.42 11.82,25.72 29.08,48.82 44.19,72.8 37.51,57.05 79.38,110.98 119.78,165.98 23.57,32.17 47.78,63.87 72.94,94.83 7.79,9.27 9.13,21.83 10.64,33.38 7.42,75.86 0,152.11 -3.73,227.97 -1.38,17.93 -11.75,33.48 -15.01,51.01 137.51,42.31 280.55,69.54 424.78,69.81 68.54,0.44 137.1,-4.4 204.8,-14.88 64.14,-9.7 126.93,-27.1 188.08,-48.45 13.47,-4.13 26.53,-9.47 40.19,-12.89 -21.49,19.27 -44.93,36.9 -70.95,49.66 -124.31,66.05 -259.2,113.4 -398.79,133.34 -146.2,22.06 -295.9,15.95 -440.93,-11.52 -93.25,-18.5 -184.75,-46.37 -272.02,-84.18 -18.84,-10.21 -39.39,-16.52 -58.97,-25.08 -217.66,-88.25 -412.15,-237.14 -545.76,-431.12 -19.81,-28.88 -38.72,-58.43 -55.71,-89.09 -16.49,-28.07 -32,-57.59 -37.68,-89.96 -4.7,-23.41 -7.72,-47.11 -12.16,-70.55 32,38.28 63.97,76.7 92.81,117.46 -16.69,-36.57 -36.84,-71.69 -51.68,-109.17 -38.48,-87.54 -65.71,-179.75 -84.79,-273.34 -41.37,-156.11 -54.63,-319.71 -37.84,-480.35 19.68,-189.69 86.5,-374.37 193.52,-532.23 23.61,-31.46 56.18,-54.33 84.39,-81.3 -4.17,23.74 -12.56,46.51 -18.4,69.84 2.32,-1.81 4.43,-3.86 6.28,-6.11 27.23,-38.58 56.78,-75.49 88.01,-110.88 37.41,-44.43 80.59,-84.79 131.02,-114.03 22.97,-12.56 47.21,-23.57 73,-28.78 9,-2.22 17.9,1.88 26.46,4.2 27.1,9.13 54.23,19.61 77.74,36.2 6.78,4.57 12.89,10.04 19.98,14.17 14.37,2.08 29.31,-0.37 43.42,3.93 51.44,13.87 100.33,36.4 145.16,65.14 17.46,-1.34 35.19,-5.41 53.05,-3.56 8.87,8.76 21.26,11.82 32.64,15.98 53.66,16.79 105.91,38.31 155.31,65.21 37.54,-38.45 78.21,-73.74 120.38,-107.02 48.42,-37 99.29,-71.42 155.07,-96.44zm-9.84 33.51l0 0c-49.76,25.42 -95.77,57.42 -139.66,91.87 -42.78,34.69 -84.08,71.35 -121.93,111.42 -28.98,-19.71 -61.92,-32.24 -93.38,-47.25 -33.92,-13.03 -68.3,-24.81 -102.48,-37.07 -16.55,-6.72 -34.59,-2.55 -50.74,3.09 -10.14,-5.17 -19.64,-11.52 -29.18,-17.66 -20.11,-13.36 -42.54,-22.56 -64.37,-32.54 -17.26,-8.02 -35.53,-13.67 -53.96,-18.27 -15.88,-3.12 -32.47,-6.28 -48.35,-1.34 -22.06,-23.67 -52.08,-37.74 -81.66,-49.53 -12.22,-3.26 -24.85,-10.64 -37.71,-6.21 -39.29,10.68 -74.41,32.98 -105.81,58.33 -32.34,25.72 -59.9,56.72 -86.74,87.94 -116.82,133.75 -206.24,291.57 -259.9,460.91 -2.08,6.04 -7.02,14.81 0.87,19.21 -1.71,-1.17 -5.1,-3.53 -6.82,-4.7 -0.84,1.11 -2.55,3.26 -3.39,4.33 11.99,-47.88 19.01,-97.15 33.91,-144.36 13.2,-38.92 24.35,-78.64 42.07,-115.88 11.25,-31.6 28.04,-60.71 42.08,-91.07 10.17,-17.66 20.35,-35.32 31.13,-52.62 -25.86,31.83 -46.27,67.53 -67.7,102.35 -26.19,45.63 -49.3,93.01 -69.58,141.57 -8.9,26.09 -20.45,51.28 -28.24,77.77 -13.8,46.54 -27.8,93.18 -35.83,141.17 -10.81,63.33 -19.64,127.2 -20.62,191.54 -3.73,102.45 8.26,204.77 27.6,305.2 7.52,36.03 19.07,71.05 25.15,107.39 8.73,44.56 23.61,87.54 36.33,131.03 13.03,33.81 24.38,68.37 39.66,101.24 55.57,128.14 132.27,247.01 225.62,350.84 22.57,26.7 48.66,50.03 72.56,75.49 -11.65,-7.05 -22.83,-14.81 -33.58,-23.14 -118.6,-87.78 -219.64,-199.23 -294.79,-326.22 24.11,53.93 55.37,104.33 88.01,153.42 82.07,119.51 187.41,222.8 307.65,303.69 89.66,60.14 186.94,109.03 288.85,144.73 7.62,2.62 12.86,9.44 20.62,11.92 27.17,9.87 54.13,20.38 81.33,30.19 49.76,14.51 99.13,30.89 150.3,39.72 79.48,16.39 160.34,27 241.57,26.96 42.48,-0.07 85.09,1.01 127.47,-2.99 63.26,-3.36 125.72,-15.18 187.71,-27.77 37.94,-6.92 74.48,-19.41 111.52,-29.89 12.22,-3.39 24.31,-7.32 36.2,-11.85 34.25,-13.16 69.21,-24.61 102.18,-40.87 23.94,-8.93 46,-21.79 69.17,-32.37 -46.1,18.64 -91.97,38.85 -140.9,49.03 -118.1,32.27 -242.21,34.12 -363.53,24.35 -66.35,-5.64 -131.66,-19.14 -196.74,-32.71 -49.5,-12.05 -98.49,-26.12 -147.18,-41 5.94,-21.93 16.42,-42.34 22.87,-64.07 2.42,-14.67 1.48,-29.65 2.89,-44.39 3.22,-32.24 1.11,-64.77 4.6,-97.01 -0.1,-22.3 1.21,-44.7 -1.71,-66.86 -1.61,-16.19 1.44,-35.86 -12.16,-47.82 -36.87,-44.96 -70.35,-92.54 -105.34,-138.92 -36.97,-49.66 -73.64,-99.66 -105.98,-152.52 -16.32,-23.07 -28.34,-48.82 -44.26,-72.13 17.49,-5.14 35.96,-3.22 53.86,-6.04 17.96,-1.14 35.9,-2.85 53.86,-4.36 19.95,-16.56 43.72,-31.43 70.28,-32.67 27.13,2.42 53.36,11.79 77.53,23.81 12.19,20.01 24.28,40.3 38.75,58.76 15.08,13.3 31.36,25.35 48.79,35.49 39.79,24.81 80.69,48.09 123.34,67.66 12.99,6.11 10.88,24.61 21.02,33.18 29.52,15.58 60.38,28.44 89.79,44.22 14.34,4.26 25.05,14.54 34.72,25.45 79.42,76.66 167.86,143.48 260.37,203.49 6.98,5.64 16.28,3.16 24.48,2.65 38.21,-4.73 75.96,-12.46 113.67,-20.18 10.04,-1.71 19.74,-7.22 30.02,-6.38 24.41,22.53 48.72,45.3 71.32,69.68 20.95,21.15 41.77,42.58 59.94,66.25 66.69,-40.63 117.12,-101.44 173,-154.87 5.34,-5 11.48,-9.57 14.61,-16.39 22.43,-47.65 37.04,-98.49 56.68,-147.28 20.72,-36.47 40.56,-73.37 62.19,-109.34 11.01,-16.86 12.09,-37.61 17.96,-56.45 3.53,-5 8.63,-8.63 13.06,-12.83 42.51,-35.93 80.69,-76.8 114.87,-120.68 14.71,-21.15 32.07,-40.7 42.81,-64.37 13.94,-25.29 24.04,-52.38 35.26,-78.91 12.56,-28.27 20.45,-58.26 30.15,-87.54 12.29,-36.57 18.67,-74.71 25.96,-112.49 23.98,-130.12 19.27,-264.57 -7.59,-393.85 -6.55,-40.23 -18.54,-79.18 -30.26,-118.1 -9.23,-34.92 -24.35,-67.83 -36.74,-101.64 -10.38,-23.47 -21.69,-46.51 -33.31,-69.37 -0.23,101.41 -7.52,203.15 -28.88,302.52 -6.65,38.72 -16.79,76.8 -29.45,114 -10.71,38.58 -27.7,74.98 -44.19,111.32 -14.04,25.55 -26.8,51.98 -44.66,75.18 -39.66,59.77 -92.04,111.25 -152.85,149.29 23.41,-107.66 34.29,-219.64 15.88,-328.94 -6.41,-32.94 -12.02,-66.62 -26.56,-97.14 -4.3,23.3 -15.31,44.56 -24.71,66.08 -9.13,20.92 -22.8,39.29 -35.19,58.29 -52.79,70.15 -124.68,124.51 -203.36,162.62 -3.79,1.48 -7.62,5.17 -11.92,3.59 -111.05,-85.49 -193.35,-202.38 -258.12,-325.38 -22.13,-39.83 -41.07,-81.3 -62.49,-121.49 -19.44,-31.16 -41.67,-60.84 -68.27,-86.23 41.54,-55.74 90.43,-106.45 147.04,-147.01 57.02,-41.71 121.59,-71.05 185.02,-101.44 -27.77,-7.35 -55.71,-14.14 -83.95,-19.17 -69.95,-12.96 -142.01,-12.53 -212.05,-0.71 -46.07,6.75 -90.29,22.03 -133.95,37.74 -28.54,12.19 -56.92,24.88 -84.02,39.99 3.06,-21.83 8.83,-43.15 13.84,-64.57 29.35,-88.82 70.65,-172.9 109.47,-257.79 -27.8,11.75 -55.1,24.58 -82.77,36.67z"/>
     </g>
    </g>
    <g>
     <g>
      <path class="fil1" d="M1384.27 86.74c27.67,-12.09 54.97,-24.92 82.77,-36.67 -38.82,84.89 -80.12,168.97 -109.47,257.79 -5,21.42 -10.78,42.75 -13.84,64.57 27.1,-15.11 55.47,-27.8 84.02,-39.99 43.65,-15.71 87.88,-30.99 133.95,-37.74 70.05,-11.82 142.11,-12.26 212.05,0.71 28.24,5.04 56.18,11.82 83.95,19.17 -63.43,30.39 -128,59.74 -185.02,101.44 -56.61,40.56 -105.51,91.27 -147.04,147.01 26.6,25.39 48.82,55.07 68.27,86.23 21.42,40.19 40.36,81.66 62.49,121.49 64.77,123 147.08,239.89 258.12,325.38 4.3,1.58 8.13,-2.12 11.92,-3.59 78.68,-38.11 150.57,-92.48 203.36,-162.62 12.39,-19.01 26.06,-37.37 35.19,-58.29 9.4,-21.52 20.42,-42.78 24.71,-66.08 14.54,30.52 20.15,64.2 26.56,97.14 18.4,109.3 7.52,221.29 -15.88,328.94 60.81,-38.05 113.2,-89.52 152.85,-149.29 17.86,-23.2 30.62,-49.63 44.66,-75.18 16.49,-36.33 33.48,-72.73 44.19,-111.32 12.66,-37.21 22.8,-75.28 29.45,-114 21.36,-99.36 28.64,-201.11 28.88,-302.52 11.62,22.87 22.93,45.9 33.31,69.37 12.39,33.81 27.5,66.72 36.74,101.64 11.72,38.92 23.71,77.87 30.26,118.1 26.86,129.28 31.56,263.73 7.59,393.85 -7.29,37.78 -13.67,75.92 -25.96,112.49 -9.7,29.28 -17.59,59.27 -30.15,87.54 -11.22,26.53 -21.32,53.62 -35.26,78.91 -10.74,23.67 -28.1,43.22 -42.81,64.37 -34.18,43.89 -72.36,84.75 -114.87,120.68 -4.43,4.2 -9.54,7.82 -13.06,12.83 -5.88,18.84 -6.95,39.59 -17.96,56.45 -21.63,35.96 -41.47,72.87 -62.19,109.34 -19.64,48.79 -34.25,99.63 -56.68,147.28 -3.12,6.82 -9.27,11.38 -14.61,16.39 -55.88,53.42 -106.31,114.24 -173,154.87 -18.17,-23.67 -38.99,-45.1 -59.94,-66.25 -22.6,-24.38 -46.91,-47.14 -71.32,-69.68 -10.28,-0.84 -19.98,4.67 -30.02,6.38 -37.71,7.72 -75.45,15.45 -113.67,20.18 -8.19,0.5 -17.49,2.99 -24.48,-2.65 -92.51,-60.01 -180.96,-126.83 -260.37,-203.49 -9.67,-10.91 -20.38,-21.19 -34.72,-25.45 -29.42,-15.78 -60.27,-28.64 -89.79,-44.22 -10.14,-8.56 -8.03,-27.07 -21.02,-33.18 -42.65,-19.58 -83.55,-42.85 -123.34,-67.66 -17.43,-10.14 -33.71,-22.19 -48.79,-35.49 -14.47,-18.47 -26.56,-38.75 -38.75,-58.76 -24.18,-12.02 -50.4,-21.39 -77.53,-23.81 -26.56,1.24 -50.34,16.12 -70.28,32.67 -17.96,1.51 -35.9,3.22 -53.86,4.36 -17.9,2.82 -36.37,0.91 -53.86,6.04 15.91,23.3 27.94,49.06 44.26,72.13 32.34,52.85 69.01,102.85 105.98,152.52 34.99,46.37 68.47,93.95 105.34,138.92 13.6,11.95 10.54,31.63 12.16,47.82 2.92,22.16 1.61,44.56 1.71,66.86 -3.49,32.24 -1.38,64.77 -4.6,97.01 -1.41,14.74 -0.47,29.72 -2.89,44.39 -6.45,21.73 -16.92,42.14 -22.87,64.07 48.69,14.88 97.68,28.95 147.18,41 65.08,13.57 130.39,27.07 196.74,32.71 121.32,9.77 245.43,7.93 363.53,-24.35 48.92,-10.17 94.79,-30.39 140.9,-49.03 -23.17,10.58 -45.23,23.44 -69.17,32.37 -32.98,16.25 -67.93,27.7 -102.18,40.87 -11.89,4.53 -23.98,8.46 -36.2,11.85 -37.04,10.48 -73.57,22.97 -111.52,29.89 -61.99,12.59 -124.45,24.41 -187.71,27.77 -42.38,4 -84.99,2.92 -127.47,2.99 -81.23,0.03 -162.09,-10.58 -241.57,-26.96 -51.18,-8.83 -100.54,-25.22 -150.3,-39.72 -27.2,-9.8 -54.16,-20.32 -81.33,-30.19 -7.76,-2.48 -12.99,-9.3 -20.62,-11.92 -101.91,-35.69 -199.19,-84.59 -288.85,-144.73 -120.25,-80.89 -225.59,-184.18 -307.65,-303.69 -32.64,-49.09 -63.9,-99.5 -88.01,-153.42 75.15,127 176.19,238.45 294.79,326.22 10.74,8.33 21.93,16.08 33.58,23.14 -23.91,-25.45 -50,-48.79 -72.56,-75.49 -93.35,-103.83 -170.04,-222.7 -225.62,-350.84 -15.28,-32.87 -26.63,-67.43 -39.66,-101.24 -12.73,-43.48 -27.6,-86.47 -36.33,-131.03 -6.08,-36.33 -17.63,-71.35 -25.15,-107.39 -19.34,-100.44 -31.33,-202.75 -27.6,-305.2 0.97,-64.34 9.8,-128.21 20.62,-191.54 8.03,-47.98 22.03,-94.63 35.83,-141.17 7.79,-26.49 19.34,-51.68 28.24,-77.77 20.28,-48.56 43.38,-95.94 69.58,-141.57 21.42,-34.82 41.84,-70.52 67.7,-102.35 -10.78,17.29 -20.95,34.96 -31.13,52.62 -14.04,30.36 -30.83,59.47 -42.08,91.07 -17.73,37.24 -28.88,76.96 -42.07,115.88 -14.91,47.21 -21.93,96.47 -33.91,144.36 0.84,-1.08 2.55,-3.22 3.39,-4.33 1.71,1.17 5.1,3.53 6.82,4.7 -7.89,-4.4 -2.96,-13.16 -0.87,-19.21 53.66,-169.34 143.08,-327.16 259.9,-460.91 26.83,-31.23 54.4,-62.22 86.74,-87.94 31.4,-25.35 66.52,-47.65 105.81,-58.33 12.86,-4.43 25.49,2.96 37.71,6.21 29.58,11.79 59.6,25.86 81.66,49.53 15.88,-4.94 32.47,-1.78 48.35,1.34 18.44,4.6 36.7,10.24 53.96,18.27 21.83,9.97 44.26,19.17 64.37,32.54 9.54,6.14 19.04,12.49 29.18,17.66 16.15,-5.64 34.18,-9.81 50.74,-3.09 34.18,12.26 68.57,24.04 102.48,37.07 31.46,15.01 64.41,27.53 93.38,47.25 37.84,-40.06 79.15,-76.73 121.93,-111.42 43.89,-34.45 89.89,-66.45 139.66,-91.87zm-1023.8 229.58l0 0c-7.35,11.35 -18.97,19.95 -24.75,32.14 -2.52,40.09 -1.17,80.96 7.52,120.28 1.04,6.35 2.11,12.73 3.69,18.97 -0.07,1.01 -0.17,3.06 -0.23,4.06 -6.25,-18.43 -18.6,-34.01 -24.75,-52.48 -5.81,-16.49 -13.53,-32.54 -15.31,-50.13 -3.12,2.42 -6.25,4.8 -9.37,7.22l-0.03 0.97c-4.23,6.68 -10.88,12.86 -10.41,21.46 -0.84,29.15 -1.34,58.49 2.15,87.54 1.31,18.03 6.14,35.59 7.39,53.66l1.81 -0.54c0,3.86 -0.07,7.76 -0.17,11.62 -15.14,-31.87 -33.31,-62.73 -41.54,-97.38 -1.18,0.34 -3.53,1.04 -4.7,1.41 -8.43,16.35 -15.35,33.41 -23.87,49.73 -35.49,76.83 -60.95,158.19 -77.47,241.17 -5.34,37.61 -12.06,75.08 -14.78,113 -4.77,43.45 -2.85,87.24 -3.09,130.86 0.84,20.28 -1.28,41.13 4.97,60.78l-0.84 -1.54c0.27,3.59 0.57,7.22 0.84,10.88 1.01,-4.5 1.71,-9.13 3.42,-13.36 16.86,-39.79 33.48,-79.72 53.33,-118.13 -1.08,22.53 -7.32,44.33 -10.01,66.69 -6.21,45.26 -11.92,90.6 -16.86,136.06 -1.71,34.12 -7.52,68.3 -3.66,102.48 7.22,28.01 16.32,55.54 22.77,83.68 -5.94,-15.62 -14.61,-30.49 -17.23,-47.14l-2.65 0.23c-0.54,-4.2 -1.24,-8.33 -2.45,-12.39 -0.3,32.1 7.72,63.87 18.1,94.09 7.86,24.48 19.61,47.42 28.88,71.32 6.14,14.71 13.13,29.05 20.08,43.39 -0.44,-10.38 -2.75,-20.45 -6.21,-30.15 -2.69,-10.31 -5.71,-20.52 -8.66,-30.72 15.51,33.75 26.56,69.64 44.36,102.45 8.6,14.71 11.01,33.68 25.08,44.66 8.86,12.99 22.03,23.04 28.44,37.71 4.94,10.65 1.01,23.67 8.5,33.38 62.86,105.81 140.66,202.38 228.24,288.71 22.1,19.27 42.21,40.83 65.38,58.86 71.86,61.05 150.07,115.41 234.99,156.82 11.69,5.44 22.5,13.7 35.53,15.51 11.45,-24.51 26.86,-47.04 37.37,-72.03 6.31,-16.02 14.04,-31.46 20.18,-47.55 10.98,-27.37 16.89,-56.38 24.51,-84.75 -14.88,-24.24 -33.58,-45.84 -48.86,-69.81 -45.77,-64.47 -84.79,-133.71 -116.72,-206.01 -1.81,-4.3 -4.7,-8.29 -5.04,-13.03 -0.7,-9.84 -8.33,-17.16 -11.21,-26.29 -10.34,-24.01 -17.06,-49.33 -25.42,-74.01 -19.11,-57.59 -28.91,-117.7 -36.13,-177.73 -2.45,-30.22 -5.67,-60.44 -4.97,-90.83 -0.77,-36.5 3.76,-72.77 6.48,-109.07l5 -4.4c-0.27,2.18 -0.8,6.55 -1.07,8.73 -6.82,7.56 -2.65,18.6 -2.05,27.6 4.46,48.05 18.37,94.56 32.3,140.56 13.23,35.36 26.26,70.89 42.48,105.07 0.34,-12.16 0.47,-24.28 -0.23,-36.37 -0.1,-41.91 17.46,-81.46 41.37,-115.08 0.3,1.48 0.91,4.43 1.21,5.91 -0.47,20.35 -2.82,40.63 -2.38,60.95 0.81,16.69 -0.2,33.68 3.16,50.1 1.54,12.19 4.87,24.04 8.6,35.73 2.79,-0.84 8.36,-2.52 11.11,-3.36 34.01,-13.43 55.74,-46.94 64.34,-81.26 13.7,-43.85 11.92,-90.16 11.28,-135.49 -4.6,-72.26 -15.04,-144.09 -27.4,-215.38 -38.48,-45.8 -76.06,-92.48 -108.33,-142.95 -2.22,-6.14 -5.44,-11.92 -10.17,-16.45 -34.25,39.19 -82.27,65.92 -133.38,75.45 -0.81,-0.74 -2.39,-2.28 -3.16,-3.06 7.93,-1.91 14.27,-7.12 20.38,-12.22 38.88,-28.24 63.46,-70.55 90.73,-109.1 -25.92,-52.89 -47.75,-107.79 -65.61,-163.9 1.51,0.97 4.57,2.96 6.08,3.96 44.63,70.05 93.59,137.54 148.89,199.59 40.77,44.12 85.59,86.77 141.37,111.25 7.52,-5.04 15.04,-10.04 23,-14.37 26.86,-13.26 54.16,-26.66 83.61,-33.01 13.26,-1.95 27.63,-7.86 40.5,-1.08 -48.09,22.63 -86.84,67.09 -97.21,119.85 -15.45,62.09 -5.04,126.56 6.75,188.31 6.99,37.68 20.12,73.81 30.39,110.64 8.63,29.28 21.36,57.15 30.86,86.16 18.57,45.6 36.8,91.5 60.64,134.69 9.33,15.45 25.86,23.74 40.4,33.38 26.06,18.5 53.53,34.89 79.42,53.66 -3.73,-9.94 -5.91,-21.93 -14.21,-29.05 -1.01,-5.67 -0.7,-11.82 -3.63,-16.92 -16.55,-28.27 -27.27,-59.67 -45.67,-86.87 11.45,13.13 22.43,26.66 33.11,40.43 32.47,46.07 64.61,92.48 93.89,140.66 14.1,3.69 28.14,7.66 42.24,11.42 -1.48,-6.31 -2.89,-12.63 -4.03,-18.97 -0.6,-0.03 -1.81,-0.07 -2.42,-0.07 0.2,-14.44 -0.74,-28.84 -0.94,-43.22 -0.03,-4.94 -0.4,-10.31 3.43,-14.04 1.54,12.16 8.9,22.5 12.99,33.88 7.96,20.68 19.38,39.76 32.77,57.35 9.13,14.54 24.58,22.8 37.64,33.24 90.8,61.05 177.97,127.4 261.35,198.22 5.71,-0.34 11.45,-0.6 17.19,-0.97 -2.55,-3.76 -5.34,-7.32 -8.29,-10.65l-1.88 -0.37c-14.98,-21.73 -33.55,-40.53 -50.13,-60.95 -35.86,-39.32 -69.51,-81.26 -111.25,-114.64 -12.79,-15.21 -30.39,-24.55 -48.09,-32.77 -4.2,-19.84 -8.87,-41.03 -0.87,-60.64 45.03,3.9 90.97,-7.96 129.95,-30.52 11.28,-6.31 17.93,-17.9 27.87,-25.72 18.4,-11.25 40.5,-4.83 60.71,-6.65 18.17,5.41 37.47,10.81 49.97,26.26 13.43,14.71 24.75,32.37 27.27,52.48 3.93,17.83 -0.81,35.9 0.4,53.93 2.32,39.19 7.79,78.91 23.17,115.34 5.37,9.91 9.57,21.29 18.53,28.61 20.95,27.6 51.11,45.53 76.59,68.37 20.85,19.27 40.73,39.56 60.78,59.7 5,5.1 9.13,11.48 15.92,14.5 28.41,-24.71 57.15,-49.02 84.86,-74.58 16.49,-12.79 30.46,-28.68 48.15,-39.99 24.14,-46.41 47.72,-93.22 73.14,-138.98 -5.51,-9.37 -11.28,-18.6 -17.29,-27.64 -12.49,-28.37 -30.36,-54.8 -38.28,-85.09 9.54,15.95 20.69,30.93 31.5,46.04 13.13,13.94 21.86,31.9 37.17,43.69 2.72,-7.02 6.08,-13.73 9.7,-20.28 -6.85,-7.22 -13.36,-14.77 -20.79,-21.36 -2.65,-6.14 -7.99,-10.54 -11.89,-15.85 -26.83,-34.32 -50.37,-71.09 -72.5,-108.6 -9.84,-17.8 -22.26,-34.18 -29.82,-53.19 9.33,15.48 21.83,28.81 33.44,42.61 38.82,42.71 78.61,84.72 121.99,122.87 4.67,-12.36 13.5,-22.5 18.17,-34.79 5.34,-13.5 11.11,-26.8 15.35,-40.7 -7.69,-3.93 -15.28,-7.93 -22.9,-11.89 -10.64,-8.8 -23.71,-13.94 -34.08,-23 -14.47,-13.57 -30.22,-26.23 -40.56,-43.49 -21.93,-28.58 -34.62,-63.09 -41.77,-98.12 8.63,-4.06 17.19,-8.23 25.86,-12.19 122.16,-64.67 225.28,-166.39 287.61,-290.09 6.51,-12.79 11.28,-26.36 17.66,-39.22 13.6,-29.18 21.19,-60.54 30.02,-91.37 7.45,-27.77 12.36,-56.24 13.67,-84.99 1.81,17.16 0.5,34.38 -0.17,51.58 -4.83,62.16 -12.42,124.95 -33.88,183.85 -8.5,23.5 -16.15,47.41 -27.87,69.58 -53.59,115.04 -135.96,213.6 -224.01,303.79 15.35,16.08 33.55,29.35 52.22,41.34 6.45,3.02 12.79,9.34 20.42,7.82 6.85,-4.13 12.52,-9.87 18.43,-15.25 46.21,-43.25 85.66,-94.32 113.16,-151.44 35.23,-64.91 61.28,-134.38 82.44,-205.03 14.04,-58.53 28.48,-117.46 31.97,-177.77 0.34,-1.61 1.01,-4.87 1.34,-6.48 1.68,-44.86 5.47,-89.82 1.55,-134.69 -1.11,-80.32 -16.56,-159.47 -33.31,-237.78 -4.94,-17.23 -6.88,-35.46 -14.27,-51.85l0.24 -2.08c-5.88,-17.83 -10.88,-35.93 -15.14,-54.16 -1.14,-3.46 -2.15,-6.92 -3.02,-10.41 -1.28,-3.19 -2.22,-6.48 -2.89,-9.8 -4.74,-14.2 -8.83,-28.58 -13.9,-42.65 0.77,16.52 3.06,33.11 6.65,49.19 5.74,46.94 8.73,94.19 9.87,141.47 -1.78,35.93 -3.06,71.86 -6.85,107.62 -3.49,16.45 -3.49,33.65 -7.45,49.97 -4.16,33.41 -13.06,65.98 -22.94,98.09 -1.04,3.39 -2.05,6.78 -3.02,10.17 -8.5,30.96 -21.49,60.31 -34.82,89.42 -9.74,23.61 -24.45,44.66 -36.47,67.09 -43.52,67.49 -97.28,133.01 -170.78,168.94 -30.02,14.74 -62.59,25.89 -96.41,25.52 -20.48,-0.47 -41.23,0.97 -61.38,-3.36 -25.99,-5 -50.5,-15.41 -74.51,-26.23 -10.24,-4.4 -19.24,-11.59 -30.25,-13.97 10.64,-3.89 18.33,-12.42 27.13,-19.17 57.19,-46.24 98.79,-109.77 124.04,-178.44 5.4,-11.82 7.45,-24.75 12.09,-36.84 0.44,20.65 -1.14,41.37 -3.39,61.92l-1.11 -0.64c-3.39,34.02 -14.07,66.89 -26.06,98.72 -10.21,22.87 -22.5,44.8 -35.63,66.09 17.09,10.91 38.72,7.86 57.99,7.12 9.2,-23 21.42,-44.73 28.88,-68.43 11.35,-37.51 22.97,-75.08 28.51,-113.97 11.22,-72.73 12.02,-146.81 6.85,-220.15 -2.72,-14.41 -0.17,-29.85 -7.08,-43.25 -2.62,24.41 -7.29,48.49 -14.57,71.96 -4.97,22.33 -15.82,42.85 -26.73,62.76 -37.64,71.02 -98.09,127.5 -163.97,172.3 -19.28,10.74 -36.97,24.58 -57.69,32.5l-2.08 1.68c-7.39,3.09 -15.75,5.61 -23.41,1.68 -36.03,-24.75 -71.39,-50.71 -102.79,-81.23 -85.83,-80.56 -149.43,-181.87 -199.33,-287.81 -3.89,-11.01 -15.11,-15.78 -24.38,-21.39 -15.21,-8.56 -29.69,-18.37 -44.33,-27.87l-0.5 -1.04c-16.19,-9.1 -30.99,-20.28 -46.27,-30.76 -11.25,-6.48 -20.21,-16.59 -32.71,-20.89 21.12,4.13 40.06,15.78 61.08,20.01 18.44,10.44 40.53,13.9 60.54,21.26 -3.66,-7.56 -6.25,-15.68 -10.58,-22.87 -27.17,-15.78 -53.56,-32.97 -79.88,-50.2 -19.07,-14 -40.16,-25.32 -57.86,-41.27 -3.69,-3.73 -8.93,-4.83 -13.6,-6.75 7.25,0.57 14.17,3.26 19.74,8.02 11.15,4.47 22.3,9.54 34.22,11.65 0.44,0.6 1.31,1.81 1.75,2.42 24.51,6.38 47.95,16.35 71.86,24.65 -10.64,-24.35 -28.21,-44.43 -43.25,-66.02 -45.43,-57.25 -98.76,-107.59 -153.83,-155.37l1.98 -1.68c-2.32,0.47 -6.95,1.44 -9.27,1.91 0.03,-4.94 0.1,-9.84 0.2,-14.74 -1.04,0.27 -3.16,0.81 -4.2,1.08 -1.38,-35.39 -2.62,-71.29 3.93,-106.41 7.05,-40.87 16.25,-81.5 30.26,-120.58 4.2,-14.34 12.46,-27.77 12.32,-43.11l1.54 -0.84c0.57,-1.65 1.68,-5 2.22,-6.68 -43.55,27.06 -84.72,57.76 -124.41,90.16 -57.15,46.81 -111.42,96.94 -162.56,150.27 4.77,32.37 11.68,64.37 20.72,95.8 8.43,35.06 23.24,68 36.67,101.31 5.88,12.93 11.48,26.06 18.84,38.25 -1.31,-0.13 -3.93,-0.44 -5.24,-0.57 -1.85,-4.37 -4.73,-8.09 -7.69,-11.69 -32.17,-40.06 -55.1,-86.4 -76.16,-132.97 -3.89,-20.99 -13.03,-40.6 -17.63,-61.48 -2.82,-14.2 -9.6,-28.31 -6.85,-43.05 2.45,-4.43 5.54,-8.43 8.43,-12.56l1.54 0.64c7.29,-10.17 15.08,-19.98 23.1,-29.55 -16.96,-6.72 -33.65,-14.14 -50.91,-20.11 -43.89,-11.92 -87.27,-25.76 -130.62,-39.46 -37.61,11.89 -75.55,22.63 -113.03,34.79 -39.52,10.28 -79.28,19.71 -118.8,29.92 6.18,2.45 12.9,0.57 19.24,-0.27 -8.63,2.59 -22.1,10.58 -26.12,-2.15 9.1,-4.77 15.34,-13.03 22.73,-19.95 28.54,-24.72 61.18,-43.96 94.22,-61.95 12.02,-7.19 26.76,-9.64 37.27,-19.04 -28.54,-7.99 -56.98,-16.45 -85.76,-23.71 -14.91,-3.06 -30.69,-6.88 -45.73,-2.45 -42.78,13.4 -87.31,21.22 -128.78,38.82 -25.45,8.3 -49.13,21.12 -70.28,37.51l-4.94 -0.37c8.19,-34.35 32.6,-62.26 61.08,-81.93 5.74,-4.6 14.1,-7.25 16.12,-15.18l3.43 1.24c20.55,-10.34 41.4,-19.98 62.72,-28.64 -18.03,-11.42 -38.38,-20.62 -60.14,-20.18 -82.07,46.14 -149.97,113.26 -210.31,184.72zm1211 24.68l0 0c-43.52,7.93 -86.06,20.79 -127.4,36.4 -29.52,13.33 -60.04,25.15 -87.1,43.15 14.51,8.23 28,18.1 42.44,26.46l0.67 -0.64c30.96,25.15 65.08,48.15 87.57,81.76 1.44,-0.03 4.26,-0.03 5.71,-0.07 25.92,-37.04 57.79,-69.51 90.29,-100.8 37.91,-35.8 81.56,-64.77 126.02,-91.77 -5.98,-2.22 -12.32,-2.32 -18.53,-1.75 -40.03,-2.39 -80.12,1.51 -119.68,7.25zm155.91 1315.13l0 0c-13.37,7.96 -22.77,21.32 -28.04,35.76 -3.26,14.04 -3.36,29.05 -0.03,43.12 2.69,11.99 8.76,22.8 13.63,34.01 -13.47,-14.04 -25.55,-29.75 -33.01,-47.82 -3.79,-8.83 -7.02,-17.9 -9.13,-27.23 -19.68,12.46 -43.35,9.54 -65.41,8.9 -6.88,0.71 -16.39,-2.12 -20.25,5.57 -4.06,8.06 -1.54,17.73 1.95,25.59 41.07,28.31 70.85,69.44 99.83,109.33 15.71,-0.67 32.03,-7.45 40.26,-21.56 5.98,-8.6 4.94,-19.51 5.51,-29.42 0.57,1.08 1.75,3.22 2.32,4.3 1.51,0.94 4.53,2.79 6.04,3.73 21.69,9.84 47.75,3.73 67.02,-9.1 -5.1,-17.16 -5.57,-35.06 -8.43,-52.52 -1.41,-9.97 0.37,-20.42 -3.06,-29.99 -3.26,-15.75 -9.8,-31.33 -21.56,-42.58 -12.56,-11.42 -31.6,-16.42 -47.65,-10.11zm10.07 152.28l0 0c0.3,14.14 -0.94,29.85 -12.19,39.99 -4.7,6.61 -14.81,7.12 -18.23,14.54 5.78,3.19 10.44,7.96 14.34,13.33 10.04,13.23 20.92,26.33 26.76,42.14 13.43,-9.87 28.84,-16.96 44.86,-21.49 -1.81,-8.39 -4.5,-16.55 -7.93,-24.38 7.15,7.35 10.81,17.19 17.33,25.05 15.65,-0.34 31.3,-0.37 46.98,-0.03 -0.17,-1.24 -0.44,-3.73 -0.57,-4.97 -7.39,-7.99 -13.84,-16.92 -17.6,-27.13 -1.65,-4.1 -3.19,-8.13 -4.9,-12.09 -2.25,-8.03 -4.16,-16.15 -6.25,-24.18 -0.17,-2.45 -0.5,-7.32 -0.67,-9.77 -8.33,2.96 -16.86,5.1 -25.42,7.12 -11.58,0.27 -23.17,0.3 -34.75,0.3 -9.43,-3.36 -16.02,-10.61 -21.76,-18.44zm63.1 114.3l0 0c0,7.93 2.42,15.45 5.78,22.6 1.58,4.6 3.02,9.3 5.17,13.73 4,0.74 8.06,0.84 12.19,0.34 -1.88,-5 -3.86,-9.97 -5.78,-14.88l-1.41 0.1c-2.22,-9.03 -6.68,-18.4 -15.95,-21.89zm218.87 132.44l0 0c8.86,2.62 17.9,4.94 27.3,4.33 1.34,0.94 4.03,2.82 5.37,3.73 -6.21,-8.73 -12.32,-17.6 -19.84,-25.25 -4.84,5.27 -13.57,8.63 -12.83,17.19z"/>
     </g>
     <path class="fil1" d="M1285.24 245.83c-0.44,1.31 -1.34,3.93 -1.78,5.24 -14.61,18.87 -22.43,41.84 -29.72,64.27 -6.82,25.29 -13.43,51.07 -13,77.47 -0.74,0.47 -2.22,1.41 -2.96,1.88 1.04,27.17 -4.06,54.13 -2.65,81.3 0.2,10.88 6.04,20.42 10.11,30.19 -19.14,-4.2 -34.99,-17.39 -47.35,-32.04 -11.85,-15.88 -22.46,-33.11 -27.94,-52.28 -4.23,-14.71 -3.43,-30.19 -2.72,-45.3 4.13,3.69 8.36,7.46 12.49,11.22 18.23,-42.04 47.05,-78.37 77.67,-111.99 8.93,-10.34 20.69,-18.07 27.84,-29.95z"/>
     <path class="fil1" d="M1048.47 573.4c1.01,1.14 3.05,3.46 4.09,4.6 27.57,51.11 70.28,94.32 121.79,121.32 20.58,13.33 44.19,20.48 66.99,28.85l1.65 5.2c-8.4,-0.24 -16.76,-0.5 -25.12,-1.04 -21.49,-4.43 -42.91,-9.97 -62.09,-20.95 -54.33,-26.29 -96.3,-78.27 -107.32,-137.98z"/>
     <path class="fil1" d="M1649.54 1013.29c12.29,2.96 22.7,10.54 34.01,15.85 12.86,5.64 19.61,20.21 18.1,33.81 -44.53,-13.3 -91.4,-7.19 -137.07,-7.35 29.99,-8.02 60.75,-12.86 90.8,-20.32 -1.68,-7.42 -3.79,-14.71 -5.84,-21.99z"/>
     <g>
      <path class="fil1" d="M1551.86 1105.03c13.77,-4.26 27.3,-9.27 41.3,-12.76 11.92,1.38 23.91,-0.3 35.83,0.57 27,5.51 50.94,23.51 64.61,47.35 39.09,67.49 92.18,129.68 161.92,166.65 27.33,15.01 58.19,22.36 89.12,24.75 -18.5,23 -44.59,37.74 -70.32,51.31 -47.78,23.84 -103.56,26.93 -155.37,16.59 41.74,-8.43 85.69,-13.33 123,-35.53 13.4,-7.92 29.62,-17.02 31.93,-34.05 -21.39,-0.6 -40.9,9.23 -59.57,18.4 -43.25,15.71 -89.05,25.62 -135.26,23.67 -46.1,1.64 -93.69,-11.69 -128.37,-42.98 27.7,10.11 55.77,19.95 85.29,23.3 17.39,3.69 34.89,-0.84 51.51,-5.78 0.17,-3.02 0.34,-5.98 0.54,-8.97 -39.59,2.42 -84.42,-13.67 -102.45,-51.31 17.33,7.05 34.12,18.27 53.46,17.93 5.57,0.4 8.86,-4.67 12.86,-7.66 -9.84,-15.91 -21.39,-32.27 -21.42,-51.81 -3.16,-29.75 7.05,-58.23 17.93,-85.33 -29.45,-2.02 -58.93,0.74 -88.38,0.3 25.25,-9.81 51.41,-17.9 78.44,-20.89 -0.87,-6.25 1.41,-14.94 -5.88,-18.03 -24.24,-15.31 -53.83,-10.48 -80.72,-15.75zm132.1 179.98l0 0c11.42,15.48 26.46,30.29 46.17,33.75 9.81,2.79 20.11,1.75 30.15,1.08 5.17,-2.99 11.42,-2.48 17.19,-3.36 0.37,-1.24 1.11,-3.73 1.48,-4.97 -10.04,-5.07 -11.62,-17.16 -17.02,-25.96 -20.45,-34.28 -50.57,-61.35 -81.46,-86.06 -13.53,26.23 -14.17,60.84 3.49,85.53z"/>
     </g>
     <path class="fil1" d="M1291.05 1137.67l3.16 1.75c15.95,50.17 33.18,100.47 37.64,153.29 49.06,30.42 94.36,67.43 130.99,112.25 2.65,3.26 5.27,6.65 7.89,10.01 -13.94,-12.73 -31.13,-21.05 -47.11,-30.83 -14.64,-7.52 -28.04,-18.37 -44.56,-21.36 -2.22,12.22 -6.82,24.04 -7.08,36.6 -0.3,11.99 -1.11,23.98 -3.69,35.73 -7.79,-26.93 -11.05,-55.17 -10.44,-83.18 -21.32,-9.3 -44.16,-14.17 -66.96,-18.23 1.65,-46.31 8.97,-92.51 5.47,-138.92 -0.84,-19.14 -0.2,-38.45 -5.31,-57.12z"/>
     <path class="fil1" d="M1931.41 1197.67c23.94,-6.68 46.07,-18.67 63.13,-36.97 -12.96,17.59 -31.93,28.31 -50.97,38.01 -4.06,-0.4 -8.13,-0.74 -12.16,-1.04z"/>
     <path class="fil1" d="M2239.63 1336.32c1.41,0.23 4.2,0.67 5.61,0.91 -6.41,9.8 -19.24,12.63 -29.11,18 -19.01,9.64 -40.77,10.34 -61.62,10.41 0.87,-1.18 2.62,-3.46 3.46,-4.6 26.93,2.79 53.46,-5 77.84,-15.78 0.94,-2.22 2.89,-6.68 3.83,-8.93z"/>
     <path class="fil1" d="M1703.5 1577.05c10.01,-9.77 25.39,-14.27 38.89,-9.74 9.67,3.43 18.33,9.07 27.06,14.41 -7.49,6.04 -17.43,3.73 -26.23,3.39 -14.71,-1.41 -29.45,-2.59 -44.22,-3.29 1.14,-1.17 3.39,-3.56 4.5,-4.77z"/>
     <path class="fil1" d="M1498.94 1686.05c6.11,-16.35 25.76,-18.33 38.82,-27 -9.91,12.09 -21.59,22.73 -30.59,35.53 -2.75,9.44 -3.66,20.75 1.81,29.48 8.8,16.08 20.18,30.66 28.68,46.94 -9.2,-15.11 -25.29,-23.57 -36.27,-37.11 -13.63,-12.16 -10.17,-33.31 -2.45,-47.85z"/>
     <path class="fil1" d="M1986.98 1670.23c9.94,-2.22 26.19,-1.98 30.02,9.57 -1.21,-0.91 -3.69,-2.65 -4.94,-3.56 -8.3,-0.57 -18.77,-3.32 -25.09,3.76 -7.82,8.63 -14.27,19.48 -14.57,31.43 -1.31,14.98 3.79,29.35 6.48,43.89 0.4,3.32 0.54,6.65 0.84,10.07 -4.9,-17.02 -17.56,-31.73 -17.16,-50.1 -1.28,-17.86 8.76,-36.5 24.41,-45.06z"/>
     <path class="fil1" d="M2000.41 1720.6c11.65,-18.54 41.67,-13.87 53.22,2.79 18.77,21.93 34.15,46.71 46.78,72.63 -12.66,-0.07 -23.61,9.67 -36.23,7.22 7.29,-4.5 13.9,-10.24 18.8,-17.33 -1.04,-0.84 -3.05,-2.55 -4.09,-3.39 -15.45,-8.19 -30.93,-16.42 -47.11,-23 -7.62,-2.48 -11.38,-10.37 -13.97,-17.26 -0.5,-1.54 -1.48,-4.63 -1.98,-6.18 -3.19,0.23 -6.35,0.47 -9.5,0.74 -2.45,12.12 0.84,24.14 8.03,34.08 -17.26,-8.4 -27.37,-34.08 -13.94,-50.3z"/>
    </g>
    <g>
     <path class="fil2" d="M360.47 316.32c60.34,-71.46 128.24,-138.58 210.31,-184.72 21.76,-0.44 42.11,8.76 60.14,20.18 -21.32,8.66 -42.17,18.3 -62.72,28.64l-3.43 -1.24c-7.08,-2.52 -14.24,-4.77 -21.39,-7.08 -68.2,51.24 -133.28,107.35 -189.66,171.56 -1.78,2.08 -3.59,4.16 -5.34,6.28 -5.1,32.94 -4.53,66.35 -3.49,99.56 0.97,12.73 3.79,25.39 2.05,38.21 -1.58,-6.25 -2.65,-12.63 -3.69,-18.97 -8.7,-39.32 -10.04,-80.19 -7.52,-120.28 5.78,-12.19 17.39,-20.79 24.75,-32.14z"/>
     <path class="fil2" d="M1255.89 230.32c39.69,-32.4 80.86,-63.09 124.41,-90.16 -0.54,1.68 -1.65,5.04 -2.22,6.68l-1.54 0.84c-5.04,2.38 -9.33,5.91 -13.26,9.8 -84.65,73.37 -166.25,150.67 -240.36,234.75 2.82,76.93 25.35,151.17 48.52,224.01l-1.88 -0.3c-7.35,-12.19 -12.96,-25.32 -18.84,-38.25 -13.43,-33.31 -28.24,-66.25 -36.67,-101.31 -9.03,-31.43 -15.95,-63.43 -20.72,-95.8 51.14,-53.32 105.41,-103.46 162.56,-150.27z"/>
     <path class="fil2" d="M691.56 200.33c15.04,-4.43 30.83,-0.6 45.73,2.45 28.78,7.25 57.22,15.71 85.76,23.71 -10.51,9.4 -25.25,11.85 -37.27,19.04l-3.06 1.28c-28.88,-9.4 -57.76,-19.31 -87.1,-26.8 -51.98,3.29 -102.85,18.07 -150.97,37.54 -17.86,7.15 -36.4,13.1 -52.85,23.27 0.17,-1.04 0.54,-3.12 0.7,-4.16 21.16,-16.39 44.83,-29.21 70.28,-37.51 41.47,-17.59 86,-25.42 128.78,-38.82z"/>
     <path class="fil2" d="M794.51 299.93c37.47,-12.16 75.42,-22.9 113.03,-34.79 43.35,13.7 86.73,27.53 130.62,39.46 17.26,5.98 33.95,13.4 50.91,20.11 -8.03,9.57 -15.82,19.38 -23.1,29.55l-1.54 -0.64c-55.31,-23.71 -111.65,-44.79 -167.59,-66.82 -65.38,22.09 -133.55,34.32 -201.88,42.78 -6.35,0.84 -13.06,2.72 -19.24,0.27 39.52,-10.21 79.28,-19.64 118.8,-29.92z"/>
     <path class="fil2" d="M1571.47 341c39.56,-5.74 79.65,-9.64 119.68,-7.25 4,0.77 8.02,1.61 12.05,2.52 -79.48,-1.31 -156.88,25.15 -226.93,60.95 -26.02,15.31 -53.79,28.58 -76.19,49.16l-0.67 0.64c-14.44,-8.36 -27.94,-18.23 -42.44,-26.46 27.06,-18 57.59,-29.82 87.1,-43.15 41.34,-15.61 83.88,-28.47 127.4,-36.4z"/>
     <path class="fil2" d="M286.83 418.8c-0.47,-8.6 6.18,-14.78 10.41,-21.46 -0.07,3.19 -0.17,6.41 -0.24,9.64 -3.16,43.55 -4.26,87.61 0.5,131.06 0.47,7.32 0.17,14.71 -1.14,21.96 -1.24,-18.07 -6.08,-35.63 -7.39,-53.66 -3.49,-29.05 -2.99,-58.39 -2.15,-87.54z"/>
     <path class="fil2" d="M1340.28 451.77c-0.27,-6.35 -5.81,-15.98 1.04,-20.55 55.07,47.78 108.39,98.12 153.83,155.37 15.04,21.59 32.61,41.67 43.25,66.02 -23.91,-8.3 -47.35,-18.27 -71.86,-24.65 -0.44,-0.6 -1.31,-1.81 -1.75,-2.42 -19.07,-29.25 -40.16,-57.22 -63.63,-83.07 -11.28,-12.29 -20.21,-26.53 -32.2,-38.18 -14.64,-14.2 -21.42,-33.95 -28.68,-52.52z"/>
     <path class="fil2" d="M1052.57 578c1.01,0.97 2.99,2.89 4,3.83 47.35,63.93 111.01,116.05 184.79,146.34 -22.8,-8.36 -46.41,-15.51 -66.99,-28.85 -51.51,-27 -94.22,-70.21 -121.79,-121.32z"/>
     <path class="fil2" d="M2541.21 634.14c-1.21,-6.01 -1.31,-12.12 -0.47,-18.13 7.39,16.39 9.34,34.62 14.27,51.85 16.76,78.31 32.2,157.45 33.31,237.78 3.93,44.86 0.13,89.82 -1.55,134.69 -0.34,1.61 -1.01,4.87 -1.34,6.48 -3.49,60.31 -17.93,119.24 -31.97,177.77 -21.15,70.65 -47.21,140.13 -82.44,205.03 -27.5,57.12 -66.96,108.19 -113.16,151.44 -5.91,5.37 -11.59,11.11 -18.43,15.25 -7.62,1.51 -13.97,-4.8 -20.42,-7.82 -18.67,-11.99 -36.87,-25.25 -52.22,-41.34 88.04,-90.19 170.41,-188.75 224.01,-303.79 11.72,-22.16 19.38,-46.07 27.87,-69.58 21.46,-58.9 29.05,-121.69 33.88,-183.85 0.67,-17.19 1.98,-34.42 0.17,-51.58 9.54,-101.34 5.41,-203.86 -11.52,-304.19z"/>
     <path class="fil2" d="M1482.28 653.89c26.33,17.23 52.72,34.42 79.88,50.2 4.33,7.19 6.92,15.31 10.58,22.87 -20.01,-7.35 -42.11,-10.81 -60.54,-21.26 -8.36,-18.13 -18.91,-35.19 -29.92,-51.81z"/>
     <path class="fil2" d="M711.34 668.06l3.66 2.48c43.96,58.56 90.87,115.14 143.11,166.62 48.93,50.17 103.22,96.24 166.49,127.37 -7.96,4.33 -15.48,9.34 -23,14.37 -55.78,-24.48 -100.6,-67.12 -141.37,-111.25 -55.3,-62.06 -104.26,-129.55 -148.89,-199.59z"/>
     <path class="fil2" d="M1530.6 738.37c14.64,9.5 29.11,19.31 44.33,27.87 9.27,5.61 20.48,10.38 24.38,21.39 49.9,105.94 113.5,207.25 199.33,287.81 31.4,30.52 66.76,56.48 102.79,81.23 7.66,3.93 16.02,1.41 23.41,-1.68 -5.2,3.89 -9.57,8.76 -12.32,14.71 -1.11,-2.45 -2.15,-4.9 -3.09,-7.35 -78.71,-36.97 -145.3,-94.9 -206.21,-156.04 -46.74,-50.44 -92.71,-103.26 -122.53,-165.85 -16.02,-34.35 -33.68,-67.9 -50.07,-102.08z"/>
     <path class="fil2" d="M2189.87 813.79c6.92,13.4 4.37,28.85 7.08,43.25 5.17,73.34 4.37,147.41 -6.85,220.15 -5.54,38.88 -17.16,76.46 -28.51,113.97 -7.46,23.71 -19.68,45.43 -28.88,68.43 -19.28,0.74 -40.9,3.79 -57.99,-7.12 13.13,-21.29 25.42,-43.22 35.63,-66.09 11.99,-31.83 22.67,-64.71 26.06,-98.72l1.11 0.64c1.01,0.57 3.06,1.71 4.06,2.28 8.23,-36.97 17.19,-73.81 23.54,-111.18 6.82,-33.18 9.97,-67.02 17.73,-100 -2.55,2.08 -5.04,4.23 -7.56,6.35 7.29,-23.47 11.95,-47.55 14.57,-71.96z"/>
     <path class="fil2" d="M796.29 876.92c4.74,4.53 7.96,10.31 10.17,16.45 -22.5,17.6 -46.74,33.44 -73.91,42.85 -21.79,9.47 -45.06,13.9 -68.43,17.36l-1.21 -1.21c51.11,-9.54 99.13,-36.27 133.38,-75.45z"/>
     <path class="fil2" d="M1148.71 930.45c0.77,-0.07 2.28,-0.27 3.06,-0.37 -26.7,19.88 -51.24,42.88 -70.95,69.78 -13.67,20.08 -20.48,43.96 -21.49,68.1 -3.79,27.13 -3.66,54.93 -0.24,82.07 2.42,31.93 9,63.33 15.75,94.56 8.5,41.77 23.2,81.9 35.26,122.73 21.66,61.58 43.92,123.27 73.57,181.56 10.04,23.87 36.23,32.81 55,48.35 15.75,10.14 31.33,20.65 47.08,30.86 8.3,7.12 10.48,19.11 14.21,29.05 -25.89,-18.77 -53.36,-35.16 -79.42,-53.66 -14.54,-9.64 -31.06,-17.93 -40.4,-33.38 -23.84,-43.18 -42.08,-89.08 -60.64,-134.69 -9.5,-29.01 -22.23,-56.88 -30.86,-86.16 -10.27,-36.84 -23.4,-72.97 -30.39,-110.64 -11.79,-61.75 -22.19,-126.22 -6.75,-188.31 10.37,-52.75 49.13,-97.21 97.21,-119.85z"/>
     <path class="fil2" d="M1292.69 1134.58c17.19,27.9 27.27,59.27 38.48,89.86 6.72,18.67 10.78,38.08 14.41,57.52 28.61,20.52 54.87,44.29 77.47,71.36 14.04,16.49 30.46,31.77 39.79,51.64 -36.63,-44.83 -81.93,-81.83 -130.99,-112.25 -4.47,-52.82 -21.69,-103.12 -37.64,-153.29l-1.51 -4.84z"/>
     <path class="fil2" d="M728.97 1224.94c-0.6,-9 -4.77,-20.05 2.05,-27.6 8.5,55.41 23.81,109.6 41.54,162.76 7.69,25.72 20.01,49.66 30.96,74.11 0.71,12.09 0.57,24.21 0.23,36.37 -16.22,-34.18 -29.25,-69.71 -42.48,-105.07 -13.93,-46 -27.84,-92.51 -32.3,-140.56z"/>
     <path class="fil2" d="M846.09 1325.04c2.65,14.54 1.91,29.42 2.55,44.12 1.14,33.78 7.32,67.23 17.93,99.29 -2.75,0.84 -8.33,2.52 -11.11,3.36 -3.73,-11.68 -7.05,-23.54 -8.6,-35.73 -3.36,-16.42 -2.35,-33.41 -3.16,-50.1 -0.44,-20.32 1.91,-40.6 2.38,-60.95z"/>
     <path class="fil2" d="M2127.01 1539.88c45.1,46.54 87.81,96.14 139.59,135.46 8.43,-18.6 19.28,-35.96 27.74,-54.53 7.62,3.96 15.21,7.96 22.9,11.89 -4.23,13.9 -10.01,27.2 -15.35,40.7 -4.67,12.29 -13.5,22.43 -18.17,34.79 -43.39,-38.15 -83.18,-80.15 -121.99,-122.87 -11.62,-13.8 -24.11,-27.13 -33.44,-42.61l-1.28 -2.82z"/>
     <path class="fil2" d="M1269.56 1564.73c34.29,38.82 66.49,79.55 94.79,122.97 7.49,11.35 23.14,9.03 34.89,10.07 0.6,0 1.81,0.03 2.42,0.07 1.14,6.35 2.55,12.66 4.03,18.97 -14.1,-3.76 -28.14,-7.72 -42.24,-11.42 -29.28,-48.19 -61.42,-94.59 -93.89,-140.66z"/>
     <path class="fil2" d="M1401.73 1640.51c0.23,-0.4 0.74,-1.17 0.97,-1.58 9.13,23.98 24.58,44.93 37.07,67.23 10.01,18.47 27.5,30.76 43.42,43.72 80.42,63.16 162.42,124.21 243.52,186.53 8.4,5.71 16.05,13.93 26.8,14.81l1.88 0.37c2.96,3.32 5.74,6.88 8.29,10.65 -5.74,0.37 -11.48,0.64 -17.19,0.97 -83.38,-70.82 -170.55,-137.17 -261.35,-198.22 -13.06,-10.44 -28.51,-18.7 -37.64,-33.24 -13.4,-17.6 -24.82,-36.67 -32.77,-57.35 -4.1,-11.38 -11.45,-21.73 -12.99,-33.88z"/>
     <path class="fil2" d="M787.13 1644.65c2.89,9.13 10.51,16.45 11.21,26.29 0.34,4.73 3.22,8.73 5.04,13.03 31.93,72.3 70.95,141.54 116.72,206.01 15.28,23.98 33.98,45.57 48.86,69.81 -7.62,28.37 -13.53,57.39 -24.51,84.75 -6.14,16.08 -13.87,31.53 -20.18,47.55 -10.51,24.98 -25.92,47.51 -37.37,72.03 -13.03,-1.81 -23.84,-10.07 -35.53,-15.51 31.63,-58.83 56.61,-121.29 73.64,-185.9 1.11,-3.86 -2.59,-6.95 -3.96,-10.14 -25.79,-40.93 -45.16,-85.39 -65.08,-129.35 -14.88,-37.31 -31.26,-74.01 -44.93,-111.75 -6.21,-14.47 -10.04,-29.92 -17.6,-43.82 -4.03,-7.05 -3.96,-15.41 -6.31,-23z"/>
     <path class="fil2" d="M2176.74 1658.14c19.61,25.86 38.92,51.95 59.91,76.73 1.98,-4.84 3.93,-9.71 5.84,-14.54 7.42,6.58 13.94,14.14 20.79,21.36 -3.63,6.55 -6.98,13.27 -9.7,20.28 -15.31,-11.79 -24.04,-29.75 -37.17,-43.69 -10.81,-15.11 -21.96,-30.09 -31.5,-46.04 -2.48,-4.87 -5.34,-9.5 -8.16,-14.1z"/>
     <path class="fil2" d="M1986.98 1680.01c6.31,-7.09 16.79,-4.33 25.09,-3.76 1.24,0.91 3.73,2.65 4.94,3.56 0.91,0.67 2.69,2.02 3.59,2.72 -9.6,0.61 -22.56,-3.93 -29.01,5.58 -15.11,17.86 -10.34,43.05 -9.17,64.34l-3.53 2.89c-2.69,-14.54 -7.79,-28.91 -6.48,-43.89 0.3,-11.95 6.75,-22.8 14.57,-31.43z"/>
     <path class="fil2" d="M2006.32 1736.82c3.16,-0.27 6.31,-0.5 9.5,-0.74 0.5,1.54 1.48,4.63 1.98,6.18 -1.71,0.5 -5.14,1.54 -6.85,2.05 -0.71,10.91 4.1,21.12 6.68,31.57 -0.84,-1.24 -2.49,-3.73 -3.29,-4.97 -7.19,-9.94 -10.48,-21.96 -8.03,-34.08z"/>
     <path class="fil2" d="M2149.7 1902.53c24.38,-48.45 50.67,-95.97 73.47,-145.2 6.01,9.03 11.79,18.27 17.29,27.64 -25.42,45.77 -48.99,92.58 -73.14,138.98 -17.7,11.32 -31.67,27.2 -48.15,39.99 -27.7,25.55 -56.45,49.86 -84.86,74.58 -6.78,-3.02 -10.91,-9.4 -15.92,-14.5 -20.05,-20.15 -39.93,-40.43 -60.78,-59.7 -25.49,-22.83 -55.64,-40.77 -76.59,-68.37 12.96,9.33 25.69,19.07 37.64,29.72 38.41,32.17 77.33,63.73 115.51,96.2 27.7,-27.84 56.01,-55.04 83.85,-82.74 11.58,-11.22 24.95,-21.46 31.66,-36.6z"/>
     <path class="fil2" d="M2078.89 1782.52c1.04,0.84 3.05,2.55 4.09,3.39 -4.9,7.08 -11.52,12.83 -18.8,17.33l-2.32 1.08c5.1,-7.72 11.31,-14.57 17.02,-21.79z"/>
     <path class="fil2" d="M1806.32 1945.31c2.52,-0.17 7.62,-0.54 10.17,-0.7l1.41 -0.1c1.91,4.9 3.9,9.87 5.78,14.88 -4.13,0.5 -8.19,0.4 -12.19,-0.34 -2.15,-4.43 -3.59,-9.13 -5.17,-13.73z"/>
     <path class="fil2" d="M2019.42 2055.15c-0.74,-8.56 7.99,-11.92 12.83,-17.19 7.52,7.66 13.63,16.52 19.84,25.25 -1.34,-0.91 -4.03,-2.79 -5.37,-3.73 -9.4,0.6 -18.44,-1.71 -27.3,-4.33z"/>
    </g>
    <g>
     <g>
      <path class="fil3" d="M1363.28 157.49c3.93,-3.89 8.23,-7.42 13.26,-9.8 0.14,15.35 -8.13,28.78 -12.32,43.11 -14,39.09 -23.2,79.72 -30.26,120.58 -6.55,35.12 -5.31,71.02 -3.93,106.41 -1.34,11.58 -1.51,27.64 10.24,33.98 7.25,18.57 14.04,38.31 28.68,52.52 11.99,11.65 20.92,25.89 32.2,38.18 23.47,25.86 44.56,53.83 63.63,83.07 -11.92,-2.12 -23.07,-7.19 -34.22,-11.65 -5.57,-4.77 -12.49,-7.45 -19.74,-8.02 4.67,1.91 9.91,3.02 13.6,6.75 17.7,15.95 38.78,27.27 57.86,41.27 11.01,16.62 21.56,33.68 29.92,51.81 -21.02,-4.23 -39.96,-15.88 -61.08,-20.01 12.49,4.3 21.46,14.41 32.71,20.89 15.28,10.48 30.09,21.66 46.27,30.76l0.5 1.04c16.39,34.18 34.05,67.73 50.07,102.08 29.82,62.59 75.79,115.41 122.53,165.85 60.91,61.15 127.5,119.07 206.21,156.04 0.94,2.45 1.98,4.9 3.09,7.35 5.68,9.4 9.67,20.25 17.9,27.87l1.01 0.1c4.03,0.3 8.09,0.64 12.16,1.04l-0.84 0.5c-3.83,0.84 -7.62,1.54 -11.45,2.12 12.76,21.22 29.42,40.83 49.43,55.51l-3.06 4c11.01,2.38 20.01,9.57 30.25,13.97 24.01,10.81 48.52,21.22 74.51,26.23 20.15,4.33 40.9,2.89 61.38,3.36 0.51,12.63 3.46,24.98 4.74,37.54 -4.83,17.46 -4.7,38.05 -18.33,51.64 -12.96,13.13 -28.81,22.87 -43.69,33.58 -14.84,11.22 -33.68,13.87 -51.04,19.01 -22.26,6.38 -46,-0.97 -68.03,6.58 14.07,13.33 28.24,27.67 46.74,34.75 9.67,3.73 19.44,7.25 29.01,11.38 13,5.98 27.57,6.14 41.2,10.04 -9.13,8.66 -17.33,18.3 -26.93,26.46 -39.49,30.19 -79.55,59.6 -119.07,89.72 -14.84,8.63 -30.83,16.12 -47.75,19.41 -26.23,3.09 -52.69,0.87 -78.98,1.07 -12.49,-15.45 -31.8,-20.85 -49.97,-26.26 -7.93,-3.49 -16.62,-4.1 -24.95,-6.01 -10.58,-6.95 -18.74,-16.92 -27.87,-25.59 22.46,-2.59 44.19,6.78 66.65,3.66 -1.81,-3.46 -3.42,-6.88 -6.08,-9.67 -8.73,-5.34 -17.39,-10.98 -27.06,-14.41 -13.5,-4.53 -28.88,-0.03 -38.89,9.74 -17.23,-11.62 -31.03,-27.37 -45,-42.54 -7.82,-9.44 -20.85,-12.36 -28.17,-22.3 -10.54,-13.84 -26.23,-24.65 -30.76,-42.24 -3.19,-12.29 -9.1,-23.91 -10.98,-36.5 5.88,-11.62 15.38,-20.79 23.04,-31.2 7.93,-9.67 14.57,-20.75 24.58,-28.47 55.2,9.27 111.89,0.87 164.64,-16.62 5.07,-1.95 9.13,-5.71 13.47,-8.86 18.67,-9.17 38.18,-19.01 59.57,-18.4 -2.32,17.02 -18.54,26.12 -31.93,34.05 -37.31,22.2 -81.26,27.1 -123,35.53 51.81,10.34 107.59,7.25 155.37,-16.59 25.72,-13.57 51.81,-28.31 70.32,-51.31 -30.93,-2.38 -61.79,-9.74 -89.12,-24.75 -69.74,-36.97 -122.83,-99.16 -161.92,-166.65 -13.67,-23.84 -37.61,-41.84 -64.61,-47.35 -11.92,-0.87 -23.91,0.81 -35.83,-0.57 -8.83,-0.64 -17.66,0.34 -26.46,-0.1 -5.74,-4.53 -9.13,-11.25 -12.86,-17.36 -9.03,-15.98 -19.31,-31.43 -25.55,-48.82 -7.25,-20.85 -19.75,-39.49 -25.96,-60.75 -19.61,-50.13 -30.73,-103.52 -56.31,-151.31 -20.92,-44.12 -43.72,-88.38 -78.14,-123.71 -14.61,-14.41 -28.14,-30.39 -45.63,-41.44 -12.32,-7.69 -23.47,-20.18 -39.49,-17.56 12.56,24.08 31.36,48.62 27.57,77.27 -12.46,-0.37 -24.75,-2.59 -37.21,-3.32 -27.23,-1.17 -53.59,-9.64 -78.68,-19.81 -26.76,-13.13 -47.18,-35.53 -70.01,-54.13 -13.23,-11.65 -28.47,-20.69 -41.67,-32.34 -7.99,-6.85 -14.61,-16.62 -26.19,-17.06 -1.01,-0.94 -2.99,-2.85 -4,-3.83 -1.04,-1.14 -3.09,-3.46 -4.09,-4.6 11.01,59.7 52.99,111.68 107.32,137.98 19.17,10.98 40.6,16.52 62.09,20.95 11.55,9.5 32.98,2.55 38.08,19.38 10.44,22.93 24.24,44.29 32.61,68.17 15.31,43.69 34.79,88.42 28.78,135.86 -13.94,11.82 -24.24,26.96 -32.07,43.35 -12.42,17.66 -22.03,37.44 -37.48,52.85 -12.16,14.94 -26.8,28.74 -45.33,35.16 -19.01,7.35 -39.66,6.04 -59.6,7.82 -4.3,38.58 -1.41,77.6 -1.81,116.39 -0.94,37.17 3.96,74.08 8.43,110.88 5.47,28.27 7.72,57.15 15.55,84.99 19.54,65.18 44.39,129.85 83.34,186.13 -3.26,1.31 -6.48,2.59 -9.7,3.93 -18.77,-15.55 -44.96,-24.48 -55,-48.35 -29.65,-58.29 -51.91,-119.98 -73.57,-181.56 -12.05,-40.83 -26.76,-80.96 -35.26,-122.73 -6.75,-31.23 -13.33,-62.63 -15.75,-94.56 5.84,-17.09 2.45,-35.19 3.43,-52.79 0.6,-9.91 0.03,-19.85 -3.19,-29.28 1.01,-24.14 7.82,-48.02 21.49,-68.1 19.71,-26.9 44.26,-49.9 70.95,-69.78 -0.77,0.1 -2.28,0.3 -3.06,0.37 -12.86,-6.78 -27.23,-0.87 -40.5,1.08 -29.45,6.35 -56.75,19.74 -83.61,33.01 -63.26,-31.13 -117.56,-77.2 -166.49,-127.37 -52.25,-51.48 -99.16,-108.06 -143.11,-166.62 -2.32,-7.86 -6.51,-15.25 -15.28,-16.49 2.99,21.15 6.61,42.24 6.24,63.7 2.02,40.19 7.62,80.22 8.33,120.45 -5.64,18.74 -13.03,37 -21.66,54.6 -8.66,19.31 -18.77,39.09 -36.27,51.88 -4.77,2.32 -3.39,7.02 -1.24,10.68 2.25,-0.44 6.75,-1.34 9,-1.78 23.37,-3.46 46.64,-7.89 68.43,-17.36 14.47,17.66 11.45,42.34 14.98,63.6 4.43,22.63 8.9,45.4 9.23,68.54 -12.93,-1.14 -23.81,-8.7 -35.83,-12.83 -20.11,-6.58 -37.31,-19.17 -56.21,-28.31 -18.84,-10.54 -34.69,-25.62 -50.37,-40.23 -15.55,-14.47 -22.73,-34.96 -35.66,-51.34 -11.08,25.52 -14.1,53.42 -16.52,80.89 -6.31,38.95 -2.79,78.51 -3.73,117.8 4,65.88 14.14,131.6 32.81,194.99 11.35,31.23 17.16,64.47 32.54,94.19 10.17,25.52 21.12,50.74 32.2,75.86 7.52,14.27 14.88,28.64 20.08,43.96 21.46,47.28 49.03,91.44 76.06,135.63 10.21,18.13 22.36,35.12 35.73,51.07 13.97,16.65 23.94,36.13 37.78,52.89 11.99,14.3 19.41,31.56 29.48,47.11 0.2,-1.71 0.64,-5.1 0.84,-6.82 19.91,43.96 39.29,88.41 65.08,129.35 1.38,3.19 5.07,6.28 3.96,10.14 -17.02,64.61 -42.01,127.06 -73.64,185.9 -84.92,-41.4 -163.13,-95.77 -234.99,-156.82 -23.17,-18.03 -43.28,-39.59 -65.38,-58.86 -87.57,-86.33 -165.38,-182.91 -228.24,-288.71 -7.49,-9.71 -3.56,-22.73 -8.5,-33.38 -6.41,-14.67 -19.58,-24.71 -28.44,-37.71 -2.96,-7.25 -5.17,-14.78 -7.09,-22.33 9.84,6.48 22.83,23.1 34.75,11.28 7.99,-19.34 15.35,-38.99 23.34,-58.33 5.68,-13.67 18.97,-27.8 11.58,-43.39 -6.92,-12.63 -17.63,-22.7 -24.28,-35.49 -7.49,-14.34 -16.89,-27.47 -27,-40.03 -20.28,-29.92 -39.15,-60.98 -62.63,-88.51 -8.36,-10.98 -15.11,-23.04 -23.2,-34.18 -14.54,-17.9 -12.56,-42.41 -13.67,-64.04 -0.13,-72.8 -0.17,-145.57 0.13,-218.37 -0.13,-14.84 3.46,-29.58 1.71,-44.46 -0.14,-1.44 -0.37,-4.33 -0.47,-5.78 -7.32,9.74 -13.4,20.32 -18.2,31.5 -9.91,22.7 -21.59,44.76 -28.98,68.5 -4.33,13.87 -8.39,27.84 -14.3,41.13 -6.25,-19.64 -4.13,-40.5 -4.97,-60.78 0.24,-43.62 -1.68,-87.41 3.09,-130.86 2.72,-37.91 9.44,-75.39 14.78,-113 16.52,-82.97 41.97,-164.34 77.47,-241.17 8.53,-16.32 15.45,-33.38 23.87,-49.73 1.17,-0.37 3.52,-1.07 4.7,-1.41 8.23,34.65 26.39,65.51 41.54,97.38 0.1,-3.86 0.17,-7.76 0.17,-11.62l-1.81 0.54c1.31,-7.25 1.61,-14.64 1.14,-21.96 3.69,-32.94 -0.27,-66.08 1.28,-99.09 0.54,-10.71 -0.54,-21.36 -1.78,-31.97 0.07,-3.22 0.17,-6.45 0.24,-9.64l0.03 -0.97c3.12,-2.42 6.25,-4.8 9.37,-7.22 1.78,17.6 9.5,33.65 15.31,50.13 6.14,18.47 18.5,34.05 24.75,52.48 0.07,-1.01 0.17,-3.06 0.23,-4.06 1.75,-12.83 -1.07,-25.49 -2.05,-38.21 -1.04,-33.21 -1.61,-66.62 3.49,-99.56 1.75,-2.12 3.56,-4.2 5.34,-6.28 9.94,-1.81 17.09,-10.41 27.3,-11.65 38.58,-7.45 76.83,-19.21 116.49,-18.77 19.95,-1.91 40.09,-4.97 60.11,-1.61 20.79,3.53 42.41,0.57 62.69,7.15 15.04,4.53 30.86,6.41 45.26,13 -20.38,17.19 -46.68,26.26 -64.84,46.17 -19.27,20.05 -38.11,43.79 -40.66,72.5 14.27,-7.62 27.03,-17.76 41.71,-24.71 14.37,-9.4 31.36,-12.96 46.61,-20.52 8.7,-4.13 17.7,-7.62 27.03,-10.04 21.36,-5.34 42.08,-13.1 63.87,-16.76 14.07,-2.55 28.41,-4.03 42.28,-7.69 14.61,-4.1 29.85,-2.22 44.76,-3.89 52.28,-7.52 105.34,-5.74 157.99,-4.3 22.03,1.71 43.96,4.9 65.95,6.98 4.94,34.89 13.4,70.01 30.22,101.21 21.05,46.57 43.99,92.91 76.16,132.97 2.96,3.59 5.84,7.32 7.69,11.69 1.85,4.06 3.59,8.19 5.41,12.32 11.18,-5.47 6.04,-17.97 5.54,-27.6 -2.35,-34.89 2.99,-69.64 7.72,-104.13 1.11,-7.45 3.59,-14.61 6.01,-21.69 2.22,-0.03 6.68,-0.1 8.9,-0.14 12.36,14.64 28.21,27.84 47.35,32.04 -4.06,-9.77 -9.91,-19.31 -10.11,-30.19 -1.41,-27.17 3.69,-54.13 2.65,-81.3 0.74,-0.47 2.22,-1.41 2.96,-1.88 -0.44,-26.39 6.18,-52.18 13,-77.47 7.29,-22.43 15.11,-45.4 29.72,-64.27 11.69,-7.35 17.6,-20.11 25.82,-30.66 13.1,-17.13 28.41,-32.3 43.89,-47.21 4.8,-4.23 7.62,-9.97 10.11,-15.71zm-634.41 341.87l0 0c-7.29,2.45 -13.63,7.12 -18.1,13.36 11.01,18.43 24.68,34.96 35.29,53.56 15.18,17.49 25.62,38.95 43.45,54.16 8.39,7.19 15.28,15.98 23.37,23.54 17.43,17.36 37.54,31.66 56.61,47.14 16.52,13.4 33.61,26.83 53.9,34.02 31.93,14.87 63.97,29.95 97.92,39.79 3.56,1.88 11.99,-0.74 8.53,-5.57 -10.61,-17.83 -17.59,-37.44 -25.02,-56.75 -16.28,-29.48 -20.25,-63.83 -34.69,-94.19 -6.98,-31.56 -14.71,-63.2 -17.26,-95.57 -0.97,-7.96 1.21,-16.62 -1.78,-24.14 -10.38,-10.71 -26.86,-10.11 -40.63,-11.65 -27.03,-0.2 -54.13,-2.55 -81.1,0.07 -33.91,5.34 -67.49,12.76 -100.5,22.23zm-297.04 48.39l0 0c-12.73,19.58 -27.73,37.57 -40.6,57.12 -5.51,7.69 -14.31,12.32 -19.54,20.25 -3.66,11.05 -0.77,22.87 3.46,33.34 7.05,18.44 7.56,38.99 17.02,56.55 5.78,11.32 6.25,24.38 11.25,36.03 10.85,27.53 12.22,57.62 22.47,85.33 6.65,22.8 10.14,46.44 18.2,68.84 3.02,8.87 4.43,18.2 5.88,27.43 2.22,14.74 7.96,28.71 9.37,43.62 1.54,7.19 0.97,16.72 8.19,21.02 1.41,-19.11 1.68,-38.45 -0.03,-57.52 -4.46,-20.52 -1.04,-41.67 -4.8,-62.29 -5.37,-66.12 -11.52,-132.54 -28.74,-196.84 -3.73,-13.87 -7.32,-29.58 -0.03,-42.91 8.97,-17.76 14.71,-36.87 20.99,-55.67 3.36,-20.79 7.76,-41.44 10.34,-62.39 1.51,-11.38 5.34,-23.04 1.38,-34.39 -15.82,18.2 -24.21,41.17 -34.79,62.49zm830.52 36.87l0 0c1.61,2.79 3.93,4.7 6.95,5.81 23.94,9.5 47.11,21.19 68.8,35.12 21.9,17.26 42.48,36.13 61.95,56.11 7.39,7.09 13.9,15.78 23.81,19.58 -1.38,-15.38 -9.57,-29.28 -19.11,-41.03 -16.08,-20.85 -34.08,-41.81 -58.83,-52.38 -26.16,-12.02 -53.86,-26.49 -83.58,-23.2zm387.2 428.67l0 0c2.05,7.29 4.16,14.57 5.84,21.99 -30.05,7.45 -60.81,12.29 -90.8,20.32 45.67,0.17 92.55,-5.94 137.07,7.35 1.51,-13.6 -5.24,-28.17 -18.1,-33.81 -11.31,-5.31 -21.73,-12.9 -34.01,-15.85zm-55 76.16l0 0c10.58,1.48 21.32,1.65 31.93,0.14 -9.3,-5.78 -22.53,-5.47 -31.93,-0.14z"/>
     </g>
    </g>
    <g>
     <path class="fil4" d="M1122.92 392.24c74.11,-84.08 155.71,-161.38 240.36,-234.75 -2.49,5.74 -5.31,11.48 -10.11,15.71 -15.48,14.91 -30.79,30.09 -43.89,47.21 -8.23,10.54 -14.14,23.3 -25.82,30.66 0.44,-1.31 1.34,-3.93 1.78,-5.24 -7.15,11.89 -18.91,19.61 -27.84,29.95 -30.62,33.61 -59.44,69.95 -77.67,111.99 -4.13,-3.76 -8.36,-7.52 -12.49,-11.22 -0.71,15.11 -1.51,30.59 2.72,45.3 5.47,19.17 16.08,36.4 27.94,52.28 -2.22,0.03 -6.68,0.1 -8.9,0.14 -2.42,7.08 -4.9,14.24 -6.01,21.69 -4.73,34.49 -10.07,69.24 -7.72,104.13 0.51,9.64 5.64,22.13 -5.54,27.6 -1.81,-4.13 -3.56,-8.26 -5.41,-12.32 1.31,0.13 3.93,0.44 5.24,0.57l1.88 0.3c-23.17,-72.83 -45.7,-147.08 -48.52,-224.01z"/>
     <path class="fil4" d="M353.72 343.65c56.38,-64.2 121.46,-120.31 189.66,-171.56 7.15,2.32 14.3,4.57 21.39,7.08 -2.01,7.93 -10.38,10.58 -16.12,15.18 -28.48,19.68 -52.89,47.58 -61.08,81.93l4.94 0.37c-0.17,1.04 -0.54,3.12 -0.7,4.16 16.45,-10.17 34.99,-16.12 52.85,-23.27 48.12,-19.48 98.99,-34.25 150.97,-37.54 29.35,7.49 58.23,17.39 87.1,26.8l3.06 -1.28c-33.04,18 -65.68,37.24 -94.22,61.95 -7.39,6.92 -13.63,15.18 -22.73,19.95 4.03,12.73 17.49,4.73 26.12,2.15 68.33,-8.46 136.5,-20.69 201.88,-42.78 55.94,22.03 112.29,43.12 167.59,66.82 -2.89,4.13 -5.98,8.13 -8.43,12.56 -2.75,14.74 4.03,28.84 6.85,43.05 4.6,20.89 13.73,40.5 17.63,61.48 -16.82,-31.2 -25.29,-66.32 -30.22,-101.21 -21.99,-2.08 -43.92,-5.27 -65.95,-6.98 -52.65,-1.44 -105.71,-3.22 -157.99,4.3 -14.91,1.68 -30.15,-0.2 -44.76,3.89 -13.87,3.66 -28.21,5.14 -42.28,7.69 -21.79,3.66 -42.51,11.42 -63.87,16.76 -9.33,2.42 -18.33,5.91 -27.03,10.04 -15.24,7.56 -32.24,11.11 -46.61,20.52 -14.67,6.95 -27.43,17.09 -41.71,24.71 2.55,-28.71 21.39,-52.45 40.66,-72.5 18.17,-19.91 44.46,-28.98 64.84,-46.17 -14.41,-6.58 -30.22,-8.46 -45.26,-13 -20.28,-6.58 -41.91,-3.63 -62.69,-7.15 -20.01,-3.36 -40.16,-0.3 -60.11,1.61 -39.66,-0.44 -77.9,11.32 -116.49,18.77 -10.21,1.24 -17.36,9.84 -27.3,11.65z"/>
     <path class="fil4" d="M1691.15 333.74c6.21,-0.57 12.56,-0.47 18.53,1.75 -44.46,27 -88.11,55.98 -126.02,91.77 -32.51,31.29 -64.37,63.77 -90.29,100.8 -1.44,0.03 -4.26,0.03 -5.71,0.07 -22.5,-33.61 -56.61,-56.61 -87.57,-81.76 22.4,-20.59 50.17,-33.85 76.19,-49.16 70.05,-35.8 147.45,-62.26 226.93,-60.95 -4.03,-0.91 -8.06,-1.75 -12.05,-2.52z"/>
     <path class="fil4" d="M297.51 538.04c-4.77,-43.45 -3.66,-87.51 -0.5,-131.06 1.24,10.61 2.32,21.26 1.78,31.97 -1.54,33.01 2.42,66.15 -1.28,99.09z"/>
     <path class="fil4" d="M1330.03 417.79c1.04,-0.27 3.16,-0.81 4.2,-1.08 -0.1,4.9 -0.17,9.8 -0.2,14.74 2.32,-0.47 6.95,-1.44 9.27,-1.91l-1.98 1.68c-6.85,4.57 -1.31,14.2 -1.04,20.55 -11.75,-6.35 -11.58,-22.4 -10.24,-33.98z"/>
     <path class="fil4" d="M728.87 499.36c33.01,-9.47 66.59,-16.89 100.5,-22.23 26.97,-2.62 54.06,-0.27 81.1,-0.07 13.77,1.54 30.25,0.94 40.63,11.65 2.99,7.52 0.81,16.19 1.78,24.14 2.55,32.37 10.28,64 17.26,95.57 14.44,30.36 18.4,64.71 34.69,94.19 7.42,19.31 14.41,38.92 25.02,56.75 3.46,4.84 -4.97,7.45 -8.53,5.57 -33.95,-9.84 -65.98,-24.92 -97.92,-39.79 -20.28,-7.19 -37.37,-20.62 -53.9,-34.02 -19.07,-15.48 -39.19,-29.78 -56.61,-47.14 -8.09,-7.56 -14.98,-16.35 -23.37,-23.54 -17.83,-15.21 -28.27,-36.67 -43.45,-54.16 -10.61,-18.6 -24.28,-35.12 -35.29,-53.56 4.47,-6.25 10.81,-10.91 18.1,-13.36z"/>
     <path class="fil4" d="M431.82 547.75c10.58,-21.32 18.97,-44.29 34.79,-62.49 3.96,11.35 0.14,23 -1.38,34.39 -2.59,20.95 -6.99,41.6 -10.34,62.39 -6.28,18.8 -12.02,37.91 -20.99,55.67 -7.29,13.33 -3.69,29.05 0.03,42.91 17.22,64.3 23.37,130.72 28.74,196.84 3.76,20.62 0.34,41.77 4.8,62.29 1.71,19.07 1.44,38.42 0.03,57.52 -7.22,-4.3 -6.65,-13.84 -8.19,-21.02 -1.41,-14.91 -7.15,-28.88 -9.37,-43.62 -1.44,-9.23 -2.85,-18.57 -5.88,-27.43 -8.06,-22.4 -11.55,-46.04 -18.2,-68.84 -10.24,-27.7 -11.62,-57.79 -22.47,-85.33 -5,-11.65 -5.47,-24.71 -11.25,-36.03 -9.47,-17.56 -9.97,-38.11 -17.02,-56.55 -4.23,-10.48 -7.12,-22.3 -3.46,-33.34 5.24,-7.93 14.04,-12.56 19.54,-20.25 12.86,-19.54 27.87,-37.54 40.6,-57.12z"/>
     <g>
      <path class="fil4" d="M1056.57 581.83c11.58,0.44 18.2,10.21 26.19,17.06 13.2,11.65 28.44,20.69 41.67,32.34 22.83,18.6 43.25,41 70.01,54.13 25.08,10.17 51.44,18.64 78.68,19.81 12.46,0.74 24.75,2.96 37.21,3.32 3.79,-28.64 -15.01,-53.19 -27.57,-77.27 16.02,-2.62 27.17,9.87 39.49,17.56 17.5,11.05 31.03,27.03 45.63,41.44 34.42,35.33 57.22,79.58 78.14,123.71 25.59,47.78 36.7,101.17 56.31,151.31 6.21,21.26 18.7,39.89 25.96,60.75 6.25,17.39 16.52,32.84 25.55,48.82 3.73,6.11 7.12,12.83 12.86,17.36 8.8,0.44 17.63,-0.54 26.46,0.1 -14,3.49 -27.53,8.5 -41.3,12.76 26.9,5.27 56.48,0.44 80.72,15.75 7.29,3.09 5,11.79 5.88,18.03 -27.03,2.99 -53.19,11.08 -78.44,20.89 29.45,0.44 58.93,-2.32 88.38,-0.3 -10.88,27.1 -21.09,55.57 -17.93,85.33 0.03,19.54 11.59,35.9 21.42,51.81 -4,2.99 -7.29,8.06 -12.86,7.66 -19.34,0.34 -36.13,-10.88 -53.46,-17.93 18.03,37.64 62.86,53.73 102.45,51.31 -0.2,2.99 -0.37,5.94 -0.54,8.97 -16.62,4.94 -34.12,9.47 -51.51,5.78 -29.52,-3.36 -57.59,-13.2 -85.29,-23.3 34.69,31.3 82.27,44.63 128.37,42.98 46.2,1.95 92.01,-7.96 135.26,-23.67 -4.33,3.16 -8.39,6.92 -13.47,8.86 -52.75,17.5 -109.43,25.89 -164.64,16.62 -10.01,7.72 -16.65,18.8 -24.58,28.47 -7.66,10.41 -17.16,19.58 -23.04,31.2 1.88,12.59 7.79,24.21 10.98,36.5 4.53,17.6 20.22,28.41 30.76,42.24 7.32,9.94 20.35,12.86 28.17,22.3 13.97,15.18 27.77,30.93 45,42.54 -1.11,1.21 -3.36,3.59 -4.5,4.77 14.78,0.71 29.52,1.88 44.22,3.29 8.8,0.34 18.74,2.65 26.23,-3.39 2.65,2.79 4.26,6.21 6.08,9.67 -22.46,3.12 -44.19,-6.25 -66.65,-3.66 9.13,8.66 17.29,18.64 27.87,25.59 8.33,1.91 17.02,2.52 24.95,6.01 -20.22,1.81 -42.31,-4.6 -60.71,6.65 -9.94,7.82 -16.59,19.41 -27.87,25.72 -38.99,22.56 -84.92,34.42 -129.95,30.52 -7.99,19.61 -3.32,40.8 0.87,60.64 17.7,8.23 35.29,17.56 48.09,32.77 41.74,33.38 75.39,75.32 111.25,114.64 16.59,20.42 35.16,39.22 50.13,60.95 -10.75,-0.87 -18.4,-9.1 -26.8,-14.81 -81.09,-62.32 -163.09,-123.37 -243.52,-186.53 -15.92,-12.96 -33.41,-25.25 -43.42,-43.72 -12.49,-22.3 -27.94,-43.25 -37.07,-67.23 -0.24,0.4 -0.74,1.18 -0.97,1.58 -3.83,3.73 -3.46,9.1 -3.43,14.04 0.2,14.37 1.14,28.78 0.94,43.22 -11.75,-1.04 -27.4,1.28 -34.89,-10.07 -28.31,-43.42 -60.51,-84.15 -94.79,-122.97 -10.68,-13.77 -21.66,-27.3 -33.11,-40.43 18.4,27.2 29.11,58.6 45.67,86.87 2.92,5.1 2.62,11.25 3.63,16.92 -15.75,-10.21 -31.33,-20.72 -47.08,-30.86 3.22,-1.34 6.45,-2.62 9.7,-3.93 -38.95,-56.28 -63.8,-120.95 -83.34,-186.13 -7.82,-27.84 -10.07,-56.72 -15.55,-84.99 -4.47,-36.8 -9.37,-73.71 -8.43,-110.88 0.4,-38.78 -2.48,-77.8 1.81,-116.39 19.95,-1.78 40.6,-0.47 59.6,-7.82 18.54,-6.41 33.18,-20.21 45.33,-35.16 15.45,-15.41 25.05,-35.19 37.48,-52.85 7.82,-16.39 18.13,-31.53 32.07,-43.35 6.01,-47.45 -13.47,-92.17 -28.78,-135.86 -8.36,-23.87 -22.16,-45.23 -32.61,-68.17 -5.1,-16.82 -26.53,-9.87 -38.08,-19.38 8.36,0.54 16.72,0.81 25.12,1.04l-1.65 -5.2c-73.77,-30.29 -137.44,-82.4 -184.79,-146.34zm236.13 552.75l0 0 1.51 4.84 -3.16 -1.75c5.1,18.67 4.47,37.98 5.31,57.12 3.49,46.41 -3.83,92.61 -5.47,138.92 22.8,4.06 45.63,8.93 66.96,18.23 -0.6,28.01 2.65,56.25 10.44,83.18 2.59,-11.75 3.39,-23.74 3.69,-35.73 0.27,-12.56 4.87,-24.38 7.08,-36.6 16.52,2.99 29.92,13.84 44.56,21.36 15.98,9.77 33.18,18.1 47.11,30.83 -2.62,-3.36 -5.24,-6.75 -7.89,-10.01 -9.33,-19.88 -25.75,-35.16 -39.79,-51.64 -22.6,-27.07 -48.86,-50.84 -77.47,-71.36 -3.63,-19.44 -7.69,-38.85 -14.41,-57.52 -11.22,-30.59 -21.29,-61.95 -38.48,-89.86zm206.24 551.47l0 0c-7.72,14.54 -11.18,35.69 2.45,47.85 10.98,13.53 27.07,21.99 36.27,37.11 -8.5,-16.29 -19.88,-30.86 -28.68,-46.94 -5.47,-8.73 -4.57,-20.05 -1.81,-29.48 9,-12.79 20.69,-23.44 30.59,-35.53 -13.06,8.66 -32.71,10.64 -38.82,27z"/>
     </g>
     <path class="fil4" d="M1262.34 584.61c29.72,-3.29 57.42,11.18 83.58,23.2 24.75,10.58 42.75,31.53 58.83,52.38 9.54,11.75 17.73,25.66 19.11,41.03 -9.91,-3.79 -16.42,-12.49 -23.81,-19.58 -19.48,-19.98 -40.06,-38.85 -61.95,-56.11 -21.69,-13.93 -44.86,-25.62 -68.8,-35.12 -3.02,-1.11 -5.34,-3.02 -6.95,-5.81z"/>
     <path class="fil4" d="M699.72 654.06c8.76,1.24 12.96,8.63 15.28,16.49l-3.66 -2.48c-1.51,-1.01 -4.57,-2.99 -6.08,-3.96 17.86,56.11 39.69,111.01 65.61,163.9 -27.27,38.55 -51.85,80.86 -90.73,109.1 -6.11,5.1 -12.46,10.31 -20.38,12.22 0.77,0.77 2.35,2.32 3.16,3.06l1.21 1.21c-2.25,0.44 -6.75,1.34 -9,1.78 -2.15,-3.66 -3.52,-8.36 1.24,-10.68 17.5,-12.79 27.6,-32.57 36.27,-51.88 8.63,-17.6 16.02,-35.86 21.66,-54.6 -0.71,-40.23 -6.31,-80.25 -8.33,-120.45 0.37,-21.46 -3.26,-42.55 -6.24,-63.7z"/>
     <path class="fil4" d="M732.56 936.22c27.17,-9.4 51.41,-25.25 73.91,-42.85 32.27,50.47 69.84,97.15 108.33,142.95 12.36,71.29 22.8,143.11 27.4,215.38 0.64,45.33 2.42,91.64 -11.28,135.49 -8.6,34.32 -30.32,67.83 -64.34,81.26 -10.61,-32.07 -16.79,-65.51 -17.93,-99.29 -0.64,-14.71 0.1,-29.58 -2.55,-44.12 -0.3,-1.48 -0.91,-4.43 -1.21,-5.91 -23.91,33.61 -41.47,73.17 -41.37,115.08 -10.95,-24.45 -23.27,-48.39 -30.96,-74.11 -17.73,-53.16 -33.04,-107.35 -41.54,-162.76 0.27,-2.18 0.8,-6.55 1.07,-8.73l-5 4.4c-2.72,36.3 -7.25,72.57 -6.48,109.07 -0.7,30.39 2.52,60.61 4.97,90.83 7.22,60.04 17.02,120.15 36.13,177.73 8.36,24.68 15.08,50 25.42,74.01 2.35,7.59 2.28,15.95 6.31,23 7.56,13.9 11.38,29.35 17.6,43.82 13.67,37.74 30.05,74.45 44.93,111.75 -0.2,1.71 -0.64,5.1 -0.84,6.82 -10.07,-15.55 -17.5,-32.81 -29.48,-47.11 -13.83,-16.76 -23.81,-36.23 -37.78,-52.89 -13.36,-15.95 -25.52,-32.94 -35.73,-51.07 -27.03,-44.19 -54.6,-88.35 -76.06,-135.63 -5.2,-15.31 -12.56,-29.68 -20.08,-43.96 -11.08,-25.12 -22.03,-50.34 -32.2,-75.86 -15.38,-29.72 -21.19,-62.96 -32.54,-94.19 -18.67,-63.4 -28.81,-129.11 -32.81,-194.99 0.94,-39.29 -2.59,-78.84 3.73,-117.8 2.42,-27.47 5.44,-55.37 16.52,-80.89 12.93,16.39 20.12,36.87 35.66,51.34 15.68,14.61 31.53,29.68 50.37,40.23 18.91,9.13 36.1,21.72 56.21,28.31 12.02,4.13 22.9,11.68 35.83,12.83 -0.34,-23.14 -4.8,-45.9 -9.23,-68.54 -3.52,-21.26 -0.5,-45.94 -14.98,-63.6z"/>
     <path class="fil4" d="M194.28 948.48c1.71,-4.4 3.46,-8.83 5.2,-13.2 1.75,14.88 -1.85,29.62 -1.71,44.46 -0.3,72.8 -0.27,145.57 -0.13,218.37 1.11,21.62 -0.87,46.14 13.67,64.04 8.09,11.15 14.84,23.2 23.2,34.18 23.47,27.53 42.34,58.6 62.63,88.51 10.11,12.56 19.51,25.69 27,40.03 6.65,12.79 17.36,22.87 24.28,35.49 7.39,15.58 -5.91,29.72 -11.58,43.39 -7.99,19.34 -15.34,38.99 -23.34,58.33 -11.92,11.82 -24.92,-4.8 -34.75,-11.28 1.91,7.56 4.13,15.08 7.09,22.33 -14.07,-10.98 -16.49,-29.95 -25.08,-44.66 -17.8,-32.81 -28.84,-68.7 -44.36,-102.45 -10.28,-29.45 -17.73,-59.8 -29.85,-88.62 -6.45,-28.14 -15.55,-55.67 -22.77,-83.68 -3.86,-34.18 1.95,-68.37 3.66,-102.48 4.94,-45.47 10.64,-90.8 16.86,-136.06 2.69,-22.36 8.93,-44.16 10.01,-66.69z"/>
     <path class="fil4" d="M1059.32 1067.96c3.22,9.43 3.79,19.38 3.19,29.28 -0.97,17.59 2.42,35.69 -3.43,52.79 -3.42,-27.13 -3.56,-54.94 0.24,-82.07z"/>
     <path class="fil4" d="M1594.54 1089.45c9.4,-5.34 22.63,-5.64 31.93,0.14 -10.61,1.51 -21.36,1.34 -31.93,-0.14z"/>
     <g>
      <path class="fil4" d="M2148.53 1341.93c1.31,6.01 2.38,12.12 3.63,18.2 1.44,0.23 4.37,0.67 5.81,0.91 -0.84,1.14 -2.59,3.43 -3.46,4.6 3.73,30.96 15.18,60.54 23.41,90.56 7.15,35.02 19.84,69.54 41.77,98.12 10.34,17.26 26.09,29.92 40.56,43.49 10.38,9.07 23.44,14.2 34.08,23 -8.46,18.57 -19.31,35.93 -27.74,54.53 -51.78,-39.32 -94.49,-88.92 -139.59,-135.46l1.28 2.82c7.56,19.01 19.98,35.39 29.82,53.19 22.13,37.51 45.67,74.28 72.5,108.6 3.9,5.31 9.23,9.7 11.89,15.85 -1.91,4.84 -3.86,9.71 -5.84,14.54 -20.99,-24.78 -40.3,-50.87 -59.91,-76.73 2.82,4.6 5.68,9.23 8.16,14.1 7.93,30.29 25.79,56.72 38.28,85.09 -22.8,49.23 -49.09,96.74 -73.47,145.2 -6.71,15.14 -20.08,25.39 -31.66,36.6 -27.84,27.7 -56.15,54.9 -83.85,82.74 -38.18,-32.47 -77.1,-64.04 -115.51,-96.2 -11.96,-10.64 -24.68,-20.38 -37.64,-29.72 -8.97,-7.32 -13.16,-18.7 -18.53,-28.61 -15.38,-36.43 -20.85,-76.16 -23.17,-115.34 -1.21,-18.03 3.53,-36.1 -0.4,-53.93 -2.52,-20.11 -13.84,-37.78 -27.27,-52.48 26.29,-0.2 52.75,2.02 78.98,-1.07 16.92,-3.29 32.91,-10.78 47.75,-19.41 39.52,-30.12 79.58,-59.54 119.07,-89.72 9.6,-8.16 17.8,-17.8 26.93,-26.46 -13.63,-3.89 -28.21,-4.06 -41.2,-10.04 -9.57,-4.13 -19.34,-7.66 -29.01,-11.38 -18.5,-7.08 -32.67,-21.42 -46.74,-34.75 22.03,-7.56 45.77,-0.2 68.03,-6.58 17.36,-5.14 36.2,-7.79 51.04,-19.01 14.88,-10.71 30.72,-20.45 43.69,-33.58 13.63,-13.6 13.5,-34.18 18.33,-51.64zm-161.55 328.3l0 0c-15.65,8.56 -25.69,27.2 -24.41,45.06 -0.4,18.37 12.26,33.08 17.16,50.1 -0.3,-3.42 -0.44,-6.75 -0.84,-10.07l3.53 -2.89c-1.17,-21.29 -5.94,-46.47 9.17,-64.34 6.45,-9.5 19.41,-4.97 29.01,-5.58 -0.91,-0.7 -2.69,-2.05 -3.59,-2.72 -3.83,-11.55 -20.08,-11.79 -30.02,-9.57zm13.43 50.37l0 0c-13.43,16.22 -3.32,41.91 13.94,50.3 0.8,1.24 2.45,3.73 3.29,4.97 -2.59,-10.44 -7.39,-20.65 -6.68,-31.57 1.71,-0.5 5.14,-1.54 6.85,-2.05 2.59,6.88 6.35,14.78 13.97,17.26 16.19,6.58 31.67,14.81 47.11,23 -5.71,7.22 -11.92,14.07 -17.02,21.79l2.32 -1.08c12.62,2.45 23.57,-7.29 36.23,-7.22 -12.63,-25.92 -28.01,-50.7 -46.78,-72.63 -11.55,-16.65 -41.57,-21.32 -53.22,-2.79z"/>
     </g>
     <path class="fil4" d="M1800.55 1922.72c9.27,3.49 13.73,12.86 15.95,21.89 -2.55,0.17 -7.66,0.54 -10.17,0.7 -3.36,-7.15 -5.78,-14.67 -5.78,-22.6z"/>
    </g>
   </g>
   <path class="fil5" d="M1730.13 1318.76c9.81,2.79 20.12,1.75 30.15,1.08 5.17,-2.99 11.42,-2.48 17.19,-3.36 0.37,-1.24 1.11,-3.73 1.48,-4.97 -10.04,-5.07 -11.62,-17.16 -17.02,-25.95 -20.45,-34.29 -50.57,-61.35 -81.46,-86.06 -13.53,26.23 -14.17,60.84 3.49,85.53 11.42,15.48 26.46,30.29 46.17,33.75z"/>
   <path class="fil5" d="M1775.03 1666.24c-12.56,-11.42 -31.6,-16.42 -47.65,-10.11 -13.36,7.96 -22.77,21.32 -28.04,35.76 -3.26,14.04 -3.36,29.05 -0.03,43.12 2.69,11.99 8.76,22.8 13.63,34.02 -13.46,-14.04 -25.55,-29.75 -33.01,-47.82 -3.79,-8.83 -7.02,-17.9 -9.13,-27.23 -19.68,12.46 -43.35,9.54 -65.41,8.9 -6.88,0.71 -16.39,-2.12 -20.25,5.57 -4.06,8.06 -1.55,17.73 1.95,25.59 41.07,28.31 70.85,69.44 99.83,109.33 15.71,-0.67 32.03,-7.45 40.26,-21.56 5.98,-8.6 4.94,-19.51 5.51,-29.42 0.57,1.08 1.75,3.22 2.32,4.3 1.51,0.94 4.53,2.79 6.04,3.73 21.69,9.84 47.75,3.73 67.02,-9.1 -5.1,-17.16 -5.57,-35.06 -8.43,-52.52 -1.41,-9.97 0.37,-20.42 -3.06,-29.99 -3.26,-15.75 -9.8,-31.33 -21.56,-42.58z"/>
   <path class="fil5" d="M1793.97 1826.54c-11.58,0.27 -23.17,0.3 -34.75,0.3 -9.44,-3.36 -16.02,-10.61 -21.76,-18.43 0.3,14.14 -0.94,29.85 -12.19,39.99 -4.7,6.61 -14.81,7.12 -18.23,14.54 5.78,3.19 10.44,7.96 14.34,13.33 10.04,13.23 20.92,26.33 26.76,42.14 13.43,-9.87 28.84,-16.96 44.86,-21.49 -1.81,-8.39 -4.5,-16.55 -7.93,-24.38 7.15,7.35 10.81,17.19 17.33,25.05 15.65,-0.34 31.3,-0.37 46.98,-0.03 -0.17,-1.24 -0.44,-3.73 -0.57,-4.97 -7.39,-7.99 -13.83,-16.92 -17.59,-27.13 -1.65,-4.1 -3.19,-8.13 -4.9,-12.09 -2.25,-8.03 -4.16,-16.15 -6.25,-24.18 -0.17,-2.45 -0.5,-7.32 -0.67,-9.77 -8.33,2.95 -16.86,5.1 -25.42,7.12z"/>
   <path class="fil5" d="M2154.51 1365.63c3.73,30.96 15.18,60.54 23.4,90.56 8.63,-4.06 17.19,-8.23 25.86,-12.19 122.16,-64.67 225.28,-166.38 287.61,-290.09 6.52,-12.79 11.28,-26.36 17.66,-39.22 13.6,-29.18 21.19,-60.54 30.02,-91.37 7.45,-27.77 12.36,-56.24 13.67,-84.99 9.54,-101.34 5.41,-203.86 -11.52,-304.2 -1.21,-6.01 -1.31,-12.12 -0.47,-18.13l0.24 -2.08c-5.88,-17.83 -10.88,-35.93 -15.14,-54.16 -1.14,-3.46 -2.15,-6.92 -3.02,-10.41 -1.28,-3.19 -2.22,-6.48 -2.89,-9.8 -4.73,-14.2 -8.83,-28.58 -13.9,-42.65 0.77,16.52 3.06,33.11 6.65,49.19 5.74,46.94 8.73,94.19 9.87,141.47 -1.78,35.93 -3.06,71.86 -6.85,107.62 -3.49,16.45 -3.49,33.65 -7.46,49.97 -4.16,33.41 -13.06,65.98 -22.93,98.09 -1.04,3.39 -2.05,6.78 -3.02,10.17 -8.5,30.96 -21.49,60.31 -34.82,89.42 -9.74,23.61 -24.44,44.66 -36.47,67.09 -43.52,67.49 -97.28,133.01 -170.78,168.94 -30.02,14.74 -62.59,25.89 -96.41,25.52 0.5,12.63 3.46,24.98 4.74,37.54 1.31,6.01 2.38,12.12 3.63,18.2 1.44,0.24 4.37,0.67 5.81,0.91 26.93,2.79 53.46,-5 77.84,-15.78 0.94,-2.22 2.89,-6.68 3.83,-8.93 1.41,0.24 4.2,0.67 5.61,0.91 -6.41,9.8 -19.24,12.63 -29.11,18 -19.01,9.64 -40.77,10.34 -61.62,10.41z"/>
   <path class="fil5" d="M2004.78 1241.66c57.19,-46.24 98.79,-109.77 124.04,-178.44 5.41,-11.82 7.45,-24.75 12.09,-36.84 0.44,20.65 -1.14,41.37 -3.39,61.92 1.01,0.57 3.06,1.71 4.06,2.28 8.23,-36.97 17.19,-73.81 23.54,-111.18 6.82,-33.18 9.97,-67.02 17.73,-100 -2.55,2.08 -5.04,4.23 -7.56,6.35 -4.97,22.33 -15.82,42.85 -26.73,62.76 -37.64,71.02 -98.09,127.5 -163.97,172.3 -19.28,10.74 -36.97,24.58 -57.69,32.51l-2.08 1.68c-5.2,3.89 -9.57,8.76 -12.32,14.71 5.68,9.4 9.67,20.25 17.9,27.87l1.01 0.1c23.94,-6.68 46.07,-18.67 63.13,-36.97 -12.96,17.59 -31.93,28.31 -50.97,38.01l-0.84 0.5c-3.83,0.84 -7.62,1.54 -11.45,2.12 12.76,21.22 29.42,40.83 49.43,55.51l-3.06 4c10.64,-3.89 18.33,-12.42 27.13,-19.17z"/>
   <path class="fil6" d="M140.96 1066.61c16.86,-39.79 33.48,-79.72 53.33,-118.13 1.71,-4.4 3.46,-8.83 5.2,-13.2 -0.13,-1.44 -0.37,-4.33 -0.47,-5.78 -7.32,9.74 -13.4,20.32 -18.2,31.5 -9.91,22.7 -21.59,44.76 -28.98,68.5 -4.33,13.87 -8.39,27.84 -14.3,41.13l-0.84 -1.54c0.27,3.59 0.57,7.22 0.84,10.88 1.01,-4.5 1.71,-9.13 3.42,-13.36z"/>
   <path class="fil7" d="M186.53 1337.4c-5.94,-15.62 -14.61,-30.49 -17.23,-47.14l-2.65 0.23c-0.54,-4.2 -1.24,-8.33 -2.45,-12.39 -0.3,32.1 7.72,63.87 18.1,94.09 7.86,24.48 19.61,47.41 28.88,71.32 6.14,14.71 13.13,29.05 20.08,43.38 -0.44,-10.38 -2.75,-20.45 -6.21,-30.15 -2.69,-10.31 -5.71,-20.52 -8.66,-30.72 -10.28,-29.45 -17.73,-59.81 -29.85,-88.62z"/>
  </g>
 </g>
</svg>
