<?xml version="1.0" encoding="UTF-8"?>
<!DOCTYPE svg PUBLIC "-//W3C//DTD SVG 1.1//EN" "http://www.w3.org/Graphics/SVG/1.1/DTD/svg11.dtd">
<!-- Creator: CorelDRAW 2018 (64-Bit) -->
<svg xmlns="http://www.w3.org/2000/svg" xml:space="preserve" width="0.3405in" height="0.415965in" version="1.1" style="shape-rendering:geometricPrecision; text-rendering:geometricPrecision; image-rendering:optimizeQuality; fill-rule:evenodd; clip-rule:evenodd"
viewBox="0 0 2.04 2.49"
 xmlns:xlink="http://www.w3.org/1999/xlink">
 <defs>
  <style type="text/css">
   <![CDATA[
    .str0 {stroke:white;stroke-width:0.04;stroke-miterlimit:2.61313}
    .fil26 {fill:none}
    .fil2 {fill:#8D6F52}
    .fil3 {fill:#8E6F52}
    .fil0 {fill:#C19F7E}
    .fil1 {fill:white}
    .fil21 {fill:#170F13;fill-rule:nonzero}
    .fil12 {fill:#1A0F11;fill-rule:nonzero}
    .fil7 {fill:#1A0F13;fill-rule:nonzero}
    .fil14 {fill:#1B0F11;fill-rule:nonzero}
    .fil15 {fill:#1B0F13;fill-rule:nonzero}
    .fil25 {fill:#666364;fill-rule:nonzero}
    .fil9 {fill:#6B6768;fill-rule:nonzero}
    .fil23 {fill:#8D6E4F;fill-rule:nonzero}
    .fil6 {fill:#8E6F52;fill-rule:nonzero}
    .fil4 {fill:#C09F82;fill-rule:nonzero}
    .fil10 {fill:#C19F7E;fill-rule:nonzero}
    .fil16 {fill:#C19F80;fill-rule:nonzero}
    .fil18 {fill:#C3A084;fill-rule:nonzero}
    .fil22 {fill:#CAAC90;fill-rule:nonzero}
    .fil5 {fill:#D2C4C8;fill-rule:nonzero}
    .fil17 {fill:#D2C5C9;fill-rule:nonzero}
    .fil8 {fill:#D2C5CA;fill-rule:nonzero}
    .fil11 {fill:#D4C4C8;fill-rule:nonzero}
    .fil24 {fill:#E3CCBE;fill-rule:nonzero}
    .fil19 {fill:#E6D2B8;fill-rule:nonzero}
    .fil13 {fill:#FAFCFD;fill-rule:nonzero}
    .fil20 {fill:#FBFCFF;fill-rule:nonzero}
   ]]>
  </style>
 </defs>
 <g id="Layer_x0020_1">
  <metadata id="CorelCorpID_0Corel-Layer"/>
  <g id="_1011818640">
   <g>
    <path class="fil0" d="M1.29 1.46c0.02,0.04 0.03,0.09 0.03,0.13 0.01,-0 0.01,-0.01 0.02,-0.01 0.01,-0.01 0.03,-0.02 0.04,-0.04 0.03,-0.02 0.04,-0.05 0.06,-0.08 0.03,-0.07 0.05,-0.14 0.05,-0.21 0.03,0.04 0.04,0.1 0.04,0.15 0,0.03 -0.01,0.05 -0.01,0.07 0.06,-0.12 0.09,-0.26 0.06,-0.39 -0.01,-0.01 -0.02,-0.01 -0.03,-0.02 -0.01,-0.02 -0.03,-0.03 -0.04,-0.05 0.01,-0.01 0.01,0 0.02,0.01 0.03,0.02 0.07,0.02 0.11,0.01 0.04,-0.01 0.08,-0.04 0.11,-0.06 0.04,-0.02 0.08,-0.04 0.12,-0.06 0,-0 0.01,-0 0.01,-0 0,-0 0.01,-0 0.01,-0 -0,-0 -0,-0 -0.01,-0 0,-0.01 -0.01,-0.01 -0.02,-0.02 -0.02,-0.01 -0.04,-0.02 -0.07,-0.03 -0.03,-0.01 -0.06,-0.01 -0.1,-0.01 -0.01,0 -0.01,0 -0.02,0.01 0.02,0 0.04,0 0.05,0.01 0,0 -0.01,0.01 -0.05,0.01l-0.05 0.02c-0.02,0.01 -0.05,0.02 -0.07,0.03l-0 0c-0.03,0.02 -0.06,0.03 -0.07,0.06 -0.01,0.05 -0.04,0.09 -0.07,0.11 -0.02,0.02 -0.05,0.02 -0.07,0.03 0.02,0.01 0.03,0.01 0.05,0.02 -0.05,0.02 -0.12,-0 -0.15,-0.05 0.03,0 0.05,0.01 0.08,0 -0.03,-0 -0.06,-0.01 -0.09,-0.02 0,0.07 -0.01,0.15 -0.06,0.2 0,-0.03 0.01,-0.05 0.01,-0.08 0,-0.04 0,-0.09 -0.01,-0.13 -0,-0.01 -0.01,-0.01 -0.02,-0.01 -0.03,-0 -0.05,-0.03 -0.07,-0.05 -0.03,0.01 -0.06,0.01 -0.08,0.04 -0.03,0.07 -0.02,0.15 -0,0.23 -0.03,0.01 -0.07,0.02 -0.09,0.04 -0.02,0.01 -0.04,0.03 -0.06,0.04l0.01 -0c0.02,-0.01 0.05,-0.02 0.08,-0.03 0.03,-0.01 0.06,-0.02 0.09,-0.01 0.05,0.01 0.1,0.02 0.14,0.05 0.02,-0 0.04,-0.01 0.06,0 0.03,0.01 0.04,0.04 0.05,0.07l0 0z"/>
    <path class="fil1" d="M1.55 0.74c0.05,-0.03 0.11,-0.05 0.15,-0.09l0.01 -0.01c-0,-0 -0,-0 -0,-0 0,-0 0.01,-0.01 0.01,-0.01 -0,0.01 -0,0.02 -0.01,0.03 0.03,-0.02 0.05,-0.05 0.07,-0.07 -0,0 -0,0.01 -0,0.01 0,-0 0,-0 0,-0 0,-0 0,-0.01 0.01,-0.01 0.02,-0.04 0.02,-0.09 0.01,-0.13 -0,-0.01 -0,-0.01 -0.01,-0.02 -0.01,-0.04 -0.02,-0.09 -0.04,-0.12 -0,-0 -0,-0 -0,-0.01 -0,-0 -0,-0.01 -0.01,-0.01 -0,0 -0,0.01 -0,0.01 -0,0 -0,0.03 -0,0.04 -0,0.05 -0.01,0.08 -0.02,0.12 -0.01,0.02 -0.02,0.04 -0.03,0.07 -0.01,0.02 -0.03,0.04 -0.05,0.05 -0.03,0.03 -0.07,0.05 -0.11,0.06 -0,0.03 -0,0.05 0,0.08z"/>
    <path class="fil2" d="M1.13 0.21c0.04,-0 0.07,-0 0.11,-0 0.07,0 0.14,0.02 0.2,0.05 0,0 0,0 0.01,0 -0.01,-0.01 -0.02,-0.02 -0.04,-0.03 -0.06,-0.04 -0.12,-0.06 -0.18,-0.06 -0.04,-0.01 -0.08,-0.01 -0.12,-0 -0,0 -0,0 -0,0 -0,0 -0,0 -0.01,0 0,0 0,0 0,0 -0,0 0.01,0.01 0.01,0.02 0.01,0.01 0.01,0.02 0.02,0.03z"/>
    <path class="fil2" d="M0.7 0.57c0.05,0 0.09,0.02 0.13,0.05 -0,-0.02 -0.01,-0.04 -0.02,-0.05 0.06,0.03 0.11,0.09 0.13,0.15 0.01,0.04 0.01,0.07 0,0.11 -0,-0 -0.01,-0 -0.01,-0 -0.01,-0.04 -0.02,-0.08 -0.05,-0.11 -0,0.03 -0.01,0.07 -0.03,0.09 -0,-0.1 -0.07,-0.19 -0.16,-0.23zm0.05 0.22c0.02,0.02 0.04,0.04 0.05,0.06 0.02,0.03 0.03,0.06 0.05,0.08 -0,0 -0,0.01 -0,0.02 0.01,0.01 0.01,0.03 0.01,0.04l0 0c0.05,0.01 0.08,-0.03 0.1,-0.07 0,0.03 -0,0.06 -0.02,0.08 -0.02,0.03 -0.05,0.05 -0.09,0.06 -0.02,0.07 -0.01,0.15 0,0.22 -0.05,-0.06 -0.07,-0.14 -0.06,-0.21l-0 0.01c-0.02,0.06 -0.09,0.08 -0.15,0.07 0.02,-0.01 0.03,-0.01 0.05,-0.02 -0.03,-0.01 -0.05,-0.01 -0.08,-0.03 -0.04,-0.03 -0.06,-0.08 -0.08,-0.12l0.01 0c-0.01,-0.02 -0.03,-0.03 -0.04,-0.04 -0.03,-0.02 -0.05,-0.03 -0.08,-0.04l-0.02 -0.01c-0.03,-0.01 -0.07,-0.02 -0.1,-0.03 0.03,-0.01 0.03,-0 0.05,-0.02 -0.06,-0 -0.15,0 -0.19,0.05 -0.01,0.02 0.02,0.02 0.04,0.02 0.09,0.03 0.14,0.1 0.21,0.11 0.03,0.01 0.07,0 0.12,-0.02l0.01 -0c0.01,-0 -0.01,0.01 -0.01,0.01 -0.01,0.02 -0.03,0.04 -0.05,0.05 -0.02,0.01 -0.01,0 -0.02,0.02 -0.01,0.05 -0.01,0.1 -0.01,0.15 0,0.04 0.01,0.07 0.02,0.11 0.01,0.02 0.01,0.04 0.03,0.06 0,0.02 0.01,0.04 0.02,0.06 -0.02,-0.07 -0.01,-0.15 0.02,-0.22 0,-0 0.01,-0 0.01,-0.01 0,0 0,0.01 0,0.01 0.01,0.04 0.02,0.07 0.03,0.11 0.02,0.04 0.05,0.09 0.09,0.12 -0.01,-0.03 -0.03,-0.05 -0.03,-0.09 0.02,0.04 0.05,0.07 0.09,0.09 0,-0.01 0,-0.03 0,-0.04 0.02,-0.03 0.04,-0.05 0.06,-0.07 -0,-0 -0,-0.01 -0,-0.01 0.01,0 0.01,0.01 0.02,0.01l0 0c0.02,-0.01 0.05,0.01 0.06,-0.01l-0.01 0c0.02,-0.01 0.04,-0.03 0.06,-0.04 0.03,-0.02 0.06,-0.03 0.09,-0.04 -0.01,-0.07 -0.03,-0.16 0,-0.23 0.01,-0.03 0.05,-0.03 0.08,-0.04l0 -0c-0.02,-0.03 -0.02,-0.06 -0.02,-0.09 0.02,0.03 0.04,0.06 0.07,0.07 0.01,0 0.03,0.01 0.04,-0.01 0.01,-0.02 0.02,-0.03 0.03,-0.04l-0 -0c-0,-0.01 -0.02,-0.02 -0.01,-0.03 0.01,-0.03 0.03,-0.07 0.04,-0.1 -0.02,0.01 -0.04,0.02 -0.05,0.04 0,-0.05 0.01,-0.11 0.04,-0.15 0.01,-0.03 0.04,-0.06 0.06,-0.09 -0.06,0.04 -0.1,0.12 -0.11,0.19 -0.02,-0.03 -0.02,-0.06 -0.03,-0.09 -0.01,0.02 -0.03,0.04 -0.04,0.07 -0.01,0.02 -0.01,0.04 -0.02,0.06 -0.02,-0.07 0,-0.14 0.04,-0.2 -0.03,0.01 -0.06,0.02 -0.09,0.03 0.02,-0.02 0.05,-0.04 0.06,-0.08 -0.03,0.01 -0.07,0.04 -0.1,0.03 -0.03,-0 -0.05,-0.02 -0.06,-0.05 -0.01,-0.04 -0,-0.08 0.01,-0.12 0.03,-0.06 0.07,-0.12 0.13,-0.13 0.04,-0.01 0.09,0 0.13,0.02 -0.02,-0.03 -0.04,-0.07 -0.07,-0.09 -0,0 -0,0.01 -0,0.01 -0.04,-0.04 -0.13,-0.07 -0.18,-0.08 -0.09,-0.02 -0.19,-0.02 -0.28,0.02 -0.04,0.01 -0.07,0.03 -0.11,0.06 -0.02,0.02 -0,0.01 0.02,0.01 0.02,-0 0.03,-0.01 0.04,-0.01 0.03,-0 0.05,-0 0.08,0 -0.08,0.02 -0.15,0.06 -0.19,0.13 -0.02,0.04 -0.03,0.07 -0.03,0.11 0.02,-0.02 0.03,-0.03 0.05,-0.04 0.01,-0 0.02,-0.01 0.03,-0.01 -0.04,0.06 -0.05,0.14 -0.02,0.21 0.02,-0.02 0.05,-0.03 0.08,-0.03l0 0.01c-0.01,0.03 -0.01,0.07 0,0.1 0.03,0.05 0.07,0.08 0.11,0.12 -0.01,-0.02 -0.01,-0.04 -0.02,-0.06z"/>
    <path class="fil1" d="M0.26 0.62c0.02,0.03 0.04,0.05 0.06,0.08 0.01,0.01 0.01,0.01 0.02,0.02 -0,-0 -0,-0 -0,-0 -0,-0 -0.01,-0.01 -0.01,-0.01 0.03,0 0.05,0.03 0.08,0.03 -0.01,-0.01 -0.03,-0.03 -0.04,-0.04 -0.02,-0.02 -0.04,-0.04 -0.06,-0.06 0.01,0 0.01,0 0.02,0.01 -0.01,-0 -0.01,-0.01 -0.02,-0.01 -0.02,-0.05 -0.05,-0.09 -0.05,-0.14 -0,-0.06 -0,-0.11 0.01,-0.17 0.01,0.06 0.01,0.12 0.03,0.17 -0.02,-0.06 -0.02,-0.13 -0.03,-0.18l-0 -0.02c-0,0 -0,0 -0,0 -0,-0 -0.01,0.02 -0.01,0.03 -0,0.01 -0.01,0.02 -0.01,0.03 -0.01,0.03 -0.02,0.07 -0.03,0.1 -0.01,0.04 -0.01,0.07 0,0.11l0 0.01c0.01,0.02 0.02,0.03 0.02,0.05z"/>
    <path class="fil3" d="M0.9 1.97c-0.01,0.03 -0.02,0.07 -0.01,0.1 0,0.01 0.01,0.02 0.01,0.03 0.02,0.04 0.05,0.07 0.07,0.11 0.01,0.01 0.02,0.03 0.02,0.04 0.02,0.03 0.02,0.06 0.03,0.09l0.01 -0c0.03,-0.07 0.04,-0.16 0.02,-0.24 -0.01,-0.04 -0.03,-0.08 -0.06,-0.11 0.03,-0.01 0.07,-0.02 0.1,-0.04 -0.05,0 -0.09,0 -0.14,-0.01 -0.03,-0.01 -0.06,-0.03 -0.09,-0.04 -0,0 -0,0.01 -0,0.02 -0.01,0.04 -0.02,0.07 -0.03,0.11 -0,0 -0,0 -0,0 0.03,-0.02 0.04,-0.04 0.07,-0.05z"/>
    <path class="fil4" d="M0.79 1.38c-0.02,0.02 -0.04,0.05 -0.06,0.07 -0,0.01 -0,0.03 -0,0.04 -0.04,-0.02 -0.07,-0.05 -0.09,-0.09 -0,0.03 0.02,0.06 0.03,0.09 -0.04,-0.03 -0.06,-0.08 -0.09,-0.12 -0.02,-0.03 -0.02,-0.07 -0.03,-0.11 -0,0.05 0.01,0.09 0.02,0.14 0.02,0.08 0.07,0.15 0.14,0.19 0.01,-0.04 0.02,-0.09 0.03,-0.13 0.01,-0.03 0.03,-0.07 0.06,-0.08 -0.01,-0 -0.01,-0.01 -0.02,-0.01 0,0 0,0.01 0,0.01z"/>
    <path class="fil5" d="M1.72 0.65c0,-0.01 0,-0.02 0.01,-0.03 -0.01,0 -0.01,0.01 -0.01,0.01 0,0 0,0 0,0 0,0 0,0 0,0.01 0,0 0,0 0,0 -0,-0 -0,0 -0,0l-0.01 0.01c0,0 0,0 0,0l-0 0 -0.04 0.03c0,0 -0,0 -0,0 -0.03,0.03 -0.06,0.05 -0.1,0.08 -0,0.01 0.02,0.02 0.02,0.03 0.03,-0.02 0.05,-0.04 0.08,-0.06 0.03,-0.02 0.05,-0.05 0.08,-0.08 0.01,-0.01 0.01,-0.02 0.02,-0.03 0.01,-0.02 0.02,-0.03 0.03,-0.05 0,-0 0,-0 0,-0.01 -0.02,0.02 -0.04,0.05 -0.07,0.07z"/>
    <path class="fil6" d="M0.94 1.68l-0.01 -0c-0.01,-0 -0.01,-0.01 -0.02,-0.01 -0.04,-0.03 -0.07,-0.08 -0.06,-0.13 0,-0.01 0.01,-0.02 0.01,-0.03 0,0.02 0.01,0.05 0.02,0.07 0.02,-0 0.04,-0 0.05,0.01 0.02,0.03 0.02,0.07 0.02,0.1 -0,-0 -0.01,-0.01 -0.02,-0.01zm0.08 -0.19c0.01,-0.03 0.04,-0.04 0.06,-0.06 -0.03,-0.01 -0.07,-0.01 -0.1,-0.02 -0.02,-0 -0.04,0.01 -0.06,0.01 0.01,0.02 0.02,0.04 0.01,0.06 -0.02,-0.02 -0.04,-0.04 -0.07,-0.04 -0.02,0 -0.03,0.01 -0.03,0.03 -0.02,0.07 -0.04,0.14 -0.03,0.21 0.03,-0.01 0.07,-0 0.1,0.01 0.04,0.02 0.09,0.04 0.13,0.04 -0.03,-0.08 -0.05,-0.17 -0,-0.25z"/>
    <path class="fil7" d="M1.45 0.91c-0.01,0.04 -0.04,0.08 -0.08,0.09 -0.04,0.02 -0.08,0.02 -0.12,0.01 0.04,-0.04 0.09,-0.07 0.14,-0.11 0.02,-0.01 0.04,-0 0.06,0zm-0.87 -0c0.02,-0 0.04,-0.01 0.05,-0.01 0.05,0.03 0.1,0.06 0.14,0.1 -0.01,0.01 -0.02,0.01 -0.03,0.01 -0.04,0 -0.08,-0.01 -0.11,-0.03 -0.03,-0.02 -0.05,-0.05 -0.06,-0.08zm1.3 0c-0,0 -0,0 -0.01,0 -0.04,0.02 -0.08,0.04 -0.12,0.06 -0.04,0.02 -0.07,0.05 -0.11,0.06 -0.04,0.01 -0.08,0.01 -0.11,-0.01 -0.01,-0 -0.01,-0.01 -0.02,-0.01 0.01,0.02 0.03,0.03 0.04,0.05 0.01,0.01 0.02,0.01 0.03,0.02 0.03,0.13 0,0.27 -0.06,0.39 -0,-0.03 0.01,-0.05 0.01,-0.07 0,-0.05 -0.01,-0.11 -0.04,-0.15 -0,0.07 -0.02,0.15 -0.05,0.21 -0.02,0.03 -0.03,0.06 -0.06,0.08 -0.01,0.02 -0.03,0.02 -0.04,0.04 -0.01,0 -0.01,0.01 -0.02,0.01 -0.01,-0.04 -0.02,-0.09 -0.03,-0.13l-0 -0c-0.01,-0.03 -0.02,-0.06 -0.05,-0.07 -0.02,-0.01 -0.04,-0.01 -0.06,-0 -0.04,-0.03 -0.09,-0.04 -0.14,-0.05 -0.03,-0.01 -0.06,0 -0.09,0.01 -0.03,0.01 -0.05,0.02 -0.08,0.03 -0.02,0.02 -0.04,0 -0.06,0.01l-0 -0c-0.03,0.02 -0.05,0.05 -0.06,0.08 -0.01,0.04 -0.02,0.08 -0.03,0.13 -0.07,-0.04 -0.12,-0.12 -0.14,-0.19 -0.01,-0.05 -0.02,-0.09 -0.02,-0.14 -0,-0 -0,-0.01 -0,-0.01 -0,0 -0.01,0 -0.01,0.01 -0.03,0.07 -0.04,0.15 -0.02,0.22 -0.01,-0.02 -0.02,-0.04 -0.02,-0.06 -0.02,-0.02 -0.02,-0.04 -0.03,-0.06 -0.01,-0.04 -0.02,-0.07 -0.02,-0.11 -0,-0 -0,-0 -0,-0.01 -0,-0 -0,-0.01 -0,-0.01 -0,-0 -0,-0.01 -0,-0.01 -0,-0 -0,-0 -0,-0 -0,-0.03 -0,-0.07 0,-0.1 0,-0 0,-0 0,-0 0,-0 0,-0 0,-0.01 0,-0 0,-0.01 0,-0.01 0,-0 0,-0 0,-0 0,-0.01 0,-0.01 0,-0.02 0,-0 0,-0 0.01,-0 0,-0 0,-0 0,-0 0,-0 0,-0 0,-0 0,-0 0,-0 0,-0 0,-0 0,-0 0,-0 0,-0 0.01,-0 0.01,-0.01 0,-0 0,-0 0,-0 0,-0 0,-0 0.01,-0.01 0,-0 0,-0 0,-0 0,-0 0,-0 0.01,-0.01 0,-0 0,-0 0,-0 0,-0 0.01,-0.01 0.01,-0.01 0,-0 0,-0 0,-0 0,-0 0,-0 0,-0.01 0,-0 0.01,-0.01 0.01,-0.01 -0,0 -0,0 -0.01,0 -0,0 -0,0 -0,0 -0.05,0.02 -0.09,0.03 -0.12,0.02 -0.03,-0.01 -0.06,-0.02 -0.08,-0.04 -0.03,-0.02 -0.07,-0.05 -0.11,-0.07 -0.01,-0 -0.01,-0 -0.02,-0.01 -0.01,-0 -0.03,-0.01 -0.04,-0.01 -0,-0 -0,-0.01 0,-0.01 0,-0 0,-0 0,-0 0.02,-0.02 0.05,-0.03 0.08,-0.04 0.04,-0.01 0.08,-0.01 0.11,-0.01 -0.01,0.01 -0.01,0.01 -0.02,0.01 -0.01,0 -0.02,0 -0.03,0.01 0,0 0,0 0,0 0.03,0.01 0.06,0.01 0.08,0.02 0.01,0 0.01,0 0.02,0.01 0,0 0,0 0.01,0 0.01,0 0.01,0 0.02,0.01 0.02,0.01 0.05,0.02 0.08,0.04 0.02,0.01 0.04,0.02 0.04,0.04 0.04,0.05 0.1,0.09 0.16,0.09 -0.03,0.01 -0.05,0.01 -0.08,0.01 0,0 0.01,0.01 0.01,0.01 0.05,0.01 0.11,0.01 0.17,-0l0 -0.01c-0,0.07 0.01,0.15 0.06,0.21 -0.02,-0.07 -0.02,-0.15 -0,-0.22 0.04,-0 0.07,-0.03 0.09,-0.06 0.01,-0.03 0.02,-0.06 0.02,-0.08 -0.02,0.03 -0.05,0.08 -0.1,0.07l-0 -0c-0.02,-0.03 -0.04,-0.05 -0.06,-0.07 -0.01,-0.01 -0.02,-0.01 -0.03,-0.02l-0 0c-0.04,-0.03 -0.09,-0.05 -0.13,-0.09 -0.02,-0.02 -0.04,-0.05 -0.04,-0.08 -0,-0.04 0.02,-0.08 0.05,-0.1l-0 -0.01c-0.03,0.01 -0.05,0.02 -0.08,0.03 -0.03,-0.07 -0.02,-0.15 0.02,-0.21 -0.01,0 -0.02,0.01 -0.03,0.01 -0.02,0.01 -0.04,0.03 -0.05,0.04 0,-0.01 0,-0.02 0,-0.03 0,-0 0,-0 0,-0 0,-0 0,-0 0,-0 0,-0.03 0.01,-0.05 0.03,-0.07 0,-0 0,-0 0,-0 0,-0 0,-0 0,-0 0.02,-0.03 0.04,-0.06 0.07,-0.08 0,-0 0,-0 0,-0 0,-0 0.01,-0.01 0.01,-0.01 0.03,-0.02 0.07,-0.04 0.1,-0.05 -0.01,-0 -0.01,-0 -0.02,-0 -0,-0 -0,-0 -0,-0 -0,-0 -0,-0 -0,-0 -0,-0 -0,-0 -0,-0 -0,-0 -0,-0 -0,-0 -0,-0 -0,-0 -0.01,-0 -0.02,-0 -0.03,-0 -0.04,0 -0.01,0 -0.03,0 -0.04,0.01 -0.01,0 -0.03,0.01 -0.03,0 0,-0 0,-0 0,-0 0,-0 0,-0 0.01,-0.01 0,-0 0,-0 0,-0 0.03,-0.03 0.07,-0.05 0.11,-0.06 0.09,-0.03 0.18,-0.04 0.28,-0.02 0.04,0.01 0.07,0.02 0.11,0.03 0.02,0.01 0.05,0.02 0.07,0.04 0,-0 0,-0.01 0,-0.01 -0.01,-0.01 -0.02,-0.02 -0.02,-0.03 -0.01,-0.01 -0.01,-0.02 -0.02,-0.03 -0.01,-0.01 -0.02,-0.02 -0.01,-0.02 -0,-0 -0,-0 -0,-0 0,-0 0,-0 0.01,-0 0,-0 0,-0 0,-0 0.04,-0 0.08,-0 0.12,0 0.06,0.01 0.13,0.03 0.18,0.06 0.01,0.01 0.02,0.01 0.03,0.02 0,0 0.01,0.01 0.01,0.01 0,0 0.01,0.01 0.01,0.01 -0,-0 -0,-0 -0,-0 -0.01,-0 -0.02,-0.01 -0.03,-0.01 -0,-0 -0.01,-0 -0.01,-0 -0.01,-0 -0.03,-0 -0.04,-0 -0.02,-0 -0.04,0 -0.07,0 0,0 0.01,0 0.01,0 0,0 0.01,0 0.01,0 0,0 0,0 0.01,0 0,0 0,0 0.01,0 0.02,0.01 0.03,0.01 0.05,0.02 0,0 0,0 0,0 0,0 0.01,0 0.01,0.01 0.01,0.01 0.02,0.01 0.03,0.02 0,0 0.01,0 0.01,0.01 0.02,0.01 0.03,0.03 0.04,0.05 0.01,0.02 0.02,0.04 0.03,0.06 0.01,0.02 0.01,0.05 0.01,0.07 -0.02,-0.03 -0.05,-0.05 -0.09,-0.05 0.03,0.03 0.04,0.06 0.04,0.1 0,0.04 -0,0.07 -0.01,0.11 -0.02,-0 -0.04,-0.02 -0.06,-0.03l-0.02 -0.01c-0,0 -0,0.01 -0,0.01 0.04,0.03 0.06,0.07 0.05,0.12 -0,0.04 -0.03,0.06 -0.06,0.08 -0.05,0.04 -0.11,0.07 -0.16,0.11l0 0c-0.01,0.01 -0.02,0.03 -0.03,0.04 -0.01,0.02 -0.03,0.01 -0.04,0.01 -0.03,-0.01 -0.05,-0.04 -0.07,-0.07 -0,0.03 0.01,0.07 0.02,0.09l-0 0c0.02,0.02 0.04,0.04 0.07,0.05 0.01,0 0.02,0 0.02,0.01 0.01,0.04 0.01,0.09 0.01,0.13 -0,0.03 -0.01,0.05 -0.01,0.08 0.05,-0.06 0.06,-0.13 0.06,-0.2 0.03,0.01 0.06,0.02 0.09,0.02 0.03,-0.01 0.06,-0 0.09,-0.02 -0.02,-0 -0.05,0 -0.08,-0.01 0.03,-0 0.06,-0.01 0.09,-0.03 0.03,-0.01 0.04,-0.04 0.07,-0.06 0.01,-0.03 0.04,-0.05 0.07,-0.06l0 0c0.02,-0.01 0.05,-0.02 0.07,-0.03 0,-0 0,-0 0,-0 0,-0 0,-0 0.01,-0 0,-0 0.01,-0 0.01,-0 0,-0 0,-0 0,-0 0.01,-0 0.02,-0.01 0.03,-0.01 0.03,-0.01 0.05,-0.01 0.05,-0.01 -0.02,-0 -0.04,-0 -0.05,-0.01 0,-0 0,-0 0,-0 0,-0 0,-0 0,-0 0,-0 0,-0 0,-0 0,-0 0,-0 0,-0 0,-0 0,-0 0,-0 0,-0 0,-0 0,-0 0.03,-0 0.07,-0 0.1,0.01 0.02,0.01 0.05,0.02 0.07,0.03 0.01,0.01 0.02,0.01 0.02,0.02 0,0 0,0 0.01,0 -0,0 -0.01,0 -0.01,0zm-0.76 0.8c-0.03,0.01 -0.06,0.02 -0.1,0.03 -0.05,-0.01 -0.09,-0.03 -0.13,-0.04 -0.03,-0.01 -0.06,-0.02 -0.1,-0.01 -0,-0.07 0.01,-0.14 0.03,-0.21 0,-0.02 0.02,-0.03 0.03,-0.03 0.03,-0.01 0.05,0.02 0.07,0.04 0,-0.02 -0.01,-0.04 -0.01,-0.06 0.02,-0.01 0.04,-0.01 0.06,-0.01 0.04,-0.01 0.07,-0 0.11,0 0.01,0 0.03,0.01 0.04,0.01 -0.01,0.02 -0.02,0.04 -0.01,0.06 0.02,-0.03 0.06,-0.05 0.09,-0.03 0.02,0.03 0.03,0.07 0.04,0.11 0.01,0.04 0.01,0.08 0.01,0.13 -0.04,-0.01 -0.09,0 -0.13,0.02zm0.12 0.44c-0.01,-0.03 -0.02,-0.05 -0.04,-0.08 -0.01,-0.01 -0.02,-0.02 -0.04,-0.03 0,0.01 0,0.02 0,0.03 0,0.02 -0,0.04 -0,0.05 -0,0 -0,0.01 -0,0.01 -0,0.03 -0.01,0.05 -0.02,0.08 -0.01,0.03 -0.02,0.06 -0.04,0.09 -0.01,0.01 -0.02,0.02 -0.03,0.03l-0.02 0.02 -0.01 0.01c0,-0 -0,-0.01 -0,-0.01 -0.01,-0.03 -0.01,-0.06 -0.03,-0.09 -0.01,-0.01 -0.01,-0.03 -0.02,-0.04 -0.03,-0.04 -0.05,-0.07 -0.07,-0.11 -0.01,-0.01 -0.01,-0.02 -0.01,-0.03 -0.01,-0.03 -0,-0.07 0.01,-0.1 -0.01,0.01 -0.02,0.01 -0.03,0.02 -0.01,0.01 -0.03,0.02 -0.04,0.03 0,-0 0,-0 0,-0 0.01,-0.04 0.02,-0.07 0.03,-0.11 0,-0.01 0,-0.02 0,-0.03 0.03,0.01 0.06,0.02 0.1,0.03 -0.01,-0.01 -0.03,-0.02 -0.04,-0.03l-0 -0c-0.04,-0.04 -0.08,-0.07 -0.1,-0.12 0.04,0 0.07,0.01 0.1,0.03 0.02,0.01 0.05,0.02 0.07,0.02 0.04,0.01 0.07,-0 0.11,-0.01l0 -0c0.04,-0.02 0.08,-0.04 0.12,-0.04 -0.03,0.07 -0.08,0.12 -0.14,0.15 0.01,-0 0.02,-0 0.04,-0 0.02,-0.01 0.04,-0.01 0.06,-0.02 -0,0.03 0,0.06 0.01,0.09l0 0c0,0.01 0.01,0.03 0.02,0.04 0.01,0.01 0.01,0.03 0.01,0.04 0,0.01 0,0.01 0,0.02 0.01,0.02 0.01,0.04 0.01,0.07zm-0.51 0.05l-0 -0c0,0 0,0 0,0l-0 -0zm-0.49 -1.62c-0,-0 -0,-0 -0,-0 -0,-0 -0,-0 -0,-0 -0.01,-0.03 -0.01,-0.07 -0,-0.11 0.01,-0.03 0.02,-0.07 0.03,-0.1 0,-0.01 0.01,-0.02 0.01,-0.03 0,-0.01 0.01,-0.03 0.01,-0.03 0,-0 0,-0 0,-0 0,0.01 0,0.01 0,0.02 0,0 0,0 0,0 0.01,0.05 0.01,0.12 0.03,0.18 0,0 0,0 0,0.01 0.01,0.02 0.02,0.04 0.03,0.06 0.01,0.01 0.02,0.03 0.03,0.03 -0,-0.01 -0,-0.01 -0.01,-0.02 -0,-0.01 -0,-0.01 -0,-0.02 0,0 0,0 0,0 0.02,0.01 0.03,0.02 0.05,0.03 0,0 0.01,0 0.01,0 0.02,0.01 0.03,0.01 0.05,0.02 0.01,0.04 0.01,0.09 0.01,0.13 -0.02,-0.01 -0.04,-0.02 -0.07,-0.03 -0,-0 -0,-0 -0,-0 -0,-0 -0.01,-0 -0.01,-0.01 -0,-0 -0,-0 -0.01,-0 -0,-0 -0.01,-0 -0.01,-0.01 -0,-0 -0.01,-0 -0.01,-0.01 -0,-0 -0.01,-0 -0.01,-0 -0,-0 -0.01,-0 -0.01,-0.01 -0,-0 -0,-0 -0.01,-0 -0,-0 -0,-0 -0,-0 -0,-0 -0,-0 -0,-0 -0,-0 -0.01,-0.01 -0.01,-0.01 -0,-0 -0.01,-0.01 -0.01,-0.01 -0.01,-0 -0.01,-0.01 -0.02,-0.01 0,0 0,0 0,0 0,0 0,0 0.01,0.01 0.01,0.02 0.03,0.03 0.04,0.04 0,0 0.01,0.01 0.01,0.01 0.01,0.01 0.03,0.03 0.04,0.04l0 0c0.02,0.01 0.04,0.03 0.06,0.04 -0.01,0.01 -0.02,0.02 -0.03,0.02 -0.01,-0.01 -0.03,-0.02 -0.04,-0.03 -0,-0 -0,-0 -0,-0 -0,-0 -0.01,-0 -0.01,-0.01 -0,-0 -0.01,-0 -0.01,-0.01 -0,-0 -0,-0 -0,-0 -0,-0 -0,-0 -0,-0 -0.01,-0.01 -0.02,-0.02 -0.03,-0.03 -0.01,-0.01 -0.01,-0.01 -0.02,-0.02 -0.02,-0.02 -0.04,-0.05 -0.06,-0.08 -0.01,-0.02 -0.02,-0.03 -0.02,-0.05zm1.31 0.08c0,-0.02 0,-0.03 0.01,-0.05 0.04,-0.01 0.08,-0.03 0.11,-0.06 -0,0.01 -0.01,0.03 -0.01,0.04 0.02,-0.01 0.03,-0.03 0.05,-0.05 0.01,-0.03 0.02,-0.05 0.03,-0.07 0,-0 0,-0.01 0,-0.01 0,-0 0,-0 0,-0.01 0,-0 0,-0 0,-0 0,-0 0,-0.01 0,-0.01 0,-0 0,-0 0,-0 0,-0 0,-0 0,-0.01 0.01,-0.03 0.01,-0.05 0.01,-0.09 0,-0.01 -0,-0.04 0,-0.04 0,-0 0,-0.01 0,-0.01 0,0 0,0.01 0.01,0.01 0,0 0,0 0,0.01 0.02,0.03 0.03,0.07 0.04,0.12 0,0.01 0,0.01 0.01,0.02 0.01,0.04 0.01,0.09 -0.01,0.13 -0,0 -0,0.01 -0.01,0.01 -0.01,0.02 -0.02,0.03 -0.03,0.05 -0.03,0.04 -0.06,0.07 -0.1,0.11 -0.03,0.02 -0.05,0.04 -0.08,0.06 -0.01,-0.01 -0.02,-0.01 -0.02,-0.03 0.04,-0.02 0.07,-0.05 0.1,-0.08 0,-0 0,-0 0,-0l0.04 -0.03 0 -0 0 -0 0.01 -0.01 0 -0c0,-0 0,-0 0,-0 0,-0.01 0,-0.01 -0,-0.01 -0,-0 -0,0 -0.01,0 -0,0 -0,0 -0,0 -0.05,0.04 -0.1,0.06 -0.15,0.09 -0,-0.03 -0,-0.05 -0,-0.08zm0.47 0.31c-0.03,-0.04 -0.04,-0.06 -0.06,-0.1 -0.02,-0.04 -0.05,-0.06 -0.09,-0.08 -0.02,-0.01 -0.05,-0.01 -0.07,-0.02 -0.03,-0.02 0.01,-0.07 0.03,-0.09 0.01,-0.02 0.02,-0.04 0.03,-0.06 0.03,-0.08 0.03,-0.17 0,-0.26 -0.02,-0.05 -0.03,-0.1 -0.06,-0.15 -0.03,-0.06 -0.06,-0.09 -0.1,-0.14 -0.05,-0.06 -0.06,-0.08 -0.05,0.01 0.02,0.11 0.03,0.22 0.02,0.34 -0,0.02 0,0.02 -0.01,0.01 -0.03,-0.03 -0.04,-0.03 -0.06,-0.07 -0.01,-0.05 -0.04,-0.1 -0.08,-0.14 -0.12,-0.12 -0.28,-0.15 -0.44,-0.13 -0.09,0.01 -0.08,0.01 -0.17,-0 -0.08,-0.01 -0.16,-0.01 -0.24,0.02 -0.1,0.03 -0.22,0.11 -0.25,0.22 -0.01,0.03 -0,0.05 -0.03,0.07 -0.01,0.01 -0.02,0.02 -0.03,0.03 -0,0 -0.01,0.01 -0.01,0.01l-0 0 -0 -0 0 0c-0,0 -0,-0 -0,-0 -0.02,-0.07 0,-0.26 0.02,-0.33 0.01,-0.03 0.03,-0.1 -0.02,-0.05 -0.06,0.06 -0.11,0.15 -0.15,0.23 -0.02,0.04 -0.03,0.07 -0.04,0.12 -0,0.01 -0.01,0.04 -0.01,0.04 -0.01,0.02 -0.01,0.06 -0.01,0.08 -0,0.07 0.03,0.16 0.08,0.21 0.02,0.02 0.05,0.05 0.01,0.05 -0.03,0 -0.06,0.01 -0.09,0.03 -0.05,0.04 -0.07,0.06 -0.11,0.11 -0.02,0.03 -0.04,0.06 0.01,0.06 0.06,0.01 0.08,0.02 0.13,0.04 0.02,0.01 0.12,0.05 0.12,0.07l-0 0c-0.01,0.03 -0.03,0.08 -0.03,0.11 -0.01,0.07 -0.02,0.16 -0.01,0.23 0.01,0.04 0.01,0.09 0.02,0.12 0.01,0.03 0.02,0.06 0.03,0.1 0.01,0.02 0.02,0.04 0.03,0.06 0.02,0.05 0.06,0.09 0.08,0.13 0,0 0.03,0.04 0.03,0.04 0,0 0.01,0 0.01,-0 0,-0 -0.01,-0.07 -0.01,-0.09 0,-0.04 0.04,0.01 0.04,0.03 0.02,0.06 0.05,0.11 0.06,0.17 0.01,0.03 0.01,0.06 0.02,0.08 0,0.01 0,0.01 0,0.02 0,0.04 -0,0.07 0.04,0.02 0.05,-0.06 0.03,-0.1 0.06,-0.01 0.03,0.09 0.09,0.18 0.17,0.24 0.01,-0.03 -0,-0.04 -0,-0.07 0.01,-0.01 0.02,0.01 0.02,0.02 0.04,0.05 0.05,0.09 0.05,0.15 0,0.02 -0.01,0.03 0.02,0.03 0.07,-0.01 0.09,0.01 0.15,-0.04 0.02,-0.02 0.04,-0.06 0.06,-0.08 0.01,-0.02 0.03,-0.08 0.04,-0.09 0.01,0.02 -0.01,0.08 0,0.09 0.01,0.01 0.06,-0.03 0.07,-0.05 0.05,-0.07 0.09,-0.11 0.11,-0.2 0,-0 0,-0.04 0.01,-0.03 0.01,0 0.03,0.06 0.06,0.08 0,-0.01 0.01,-0.03 0.01,-0.05 0.01,-0.09 0.03,-0.14 0.06,-0.22 0,-0.01 0.05,-0.11 0.06,-0.1 0.01,0.01 0,0.08 0,0.1 -0,0.01 -0.01,0.03 0.01,0.01 0.02,-0.02 0.02,-0.03 0.02,-0.04 0.02,-0.03 0.04,-0.06 0.06,-0.09 0.05,-0.08 0.08,-0.17 0.1,-0.26 0.02,-0.09 0.03,-0.15 0.01,-0.25 -0.01,-0.05 -0.01,-0.07 -0.03,-0.12 -0.01,-0.04 -0.03,-0.05 0.01,-0.07 0.06,-0.03 0.16,-0.08 0.23,-0.09 0.01,-0 0.04,0 0.03,-0.01z"/>
    <path class="fil8" d="M1.66 0.55c-0.03,0.02 -0.07,0.04 -0.11,0.06 -0.01,0.01 -0.01,0.03 -0.01,0.05 0.04,-0.01 0.08,-0.03 0.11,-0.06 0.01,-0.01 0.01,-0.03 0.01,-0.04z"/>
    <polygon class="fil9" points="0.36,0.43 0.36,0.43 0.36,0.43 0.36,0.43 0.36,0.43 "/>
    <path class="fil10" d="M1.22 0.33c-0.04,-0.02 -0.09,-0.03 -0.13,-0.02 -0.06,0.02 -0.11,0.07 -0.13,0.13 -0.01,0.04 -0.02,0.08 -0.01,0.12 0.01,0.03 0.03,0.05 0.06,0.05 0.04,0 0.07,-0.02 0.1,-0.03 -0.01,0.03 -0.03,0.05 -0.06,0.08 0.03,-0.01 0.06,-0.02 0.09,-0.03 0.01,-0.01 0.01,-0.01 0.02,-0.02 0.02,-0.02 0.05,-0.04 0.07,-0.06 0,0 0,0.01 0,0.01 -0.01,0.02 -0.02,0.03 -0.02,0.05 0.03,-0.02 0.07,-0.04 0.1,-0.05 0.01,-0 0.02,-0 0.03,-0 -0.02,0.01 -0.04,0.02 -0.05,0.04 -0.02,0.03 -0.05,0.05 -0.06,0.09 -0.02,0.05 -0.03,0.1 -0.04,0.15 0.02,-0.02 0.03,-0.03 0.05,-0.04 -0.01,0.04 -0.03,0.07 -0.04,0.1 -0.01,0.01 0,0.02 0.01,0.03 0.05,-0.05 0.1,-0.08 0.16,-0.11 0.03,-0.02 0.06,-0.04 0.06,-0.08 0.01,-0.05 -0.01,-0.09 -0.05,-0.12 0,-0 0,-0.01 0,-0.01l0.02 0.01c0.02,0.01 0.04,0.02 0.06,0.03 0.01,-0.03 0.02,-0.07 0.01,-0.11 -0.01,-0.04 -0.01,-0.08 -0.04,-0.1 0.03,0.01 0.07,0.02 0.09,0.05 0,-0.03 -0,-0.05 -0.01,-0.07 -0.01,-0.02 -0.02,-0.04 -0.03,-0.06 -0.01,-0.02 -0.03,-0.03 -0.04,-0.05 -0,-0 -0.01,-0 -0.01,-0.01 -0.01,-0.01 -0.02,-0.01 -0.03,-0.02 -0,-0 -0.01,-0 -0.01,-0.01 -0,-0 -0,-0 -0,-0 -0.02,-0.01 -0.03,-0.02 -0.05,-0.02 -0,-0 -0,-0 -0.01,-0 -0,-0 -0,-0 -0.01,-0 -0,-0 -0.01,-0 -0.01,-0 -0,-0 -0.01,-0 -0.01,-0 0.02,-0 0.04,-0.01 0.07,-0 0.01,0 0.03,0 0.04,0 0,0 0.01,0 0.01,0 0.01,0 0.02,0 0.03,0.01 0,0 0,0 0,0 -0,-0 -0.01,-0.01 -0.01,-0.01 -0,-0 -0,-0 -0.01,-0 -0.07,-0.02 -0.13,-0.04 -0.2,-0.05 -0.04,-0 -0.07,-0 -0.11,0 0.01,0.01 0.01,0.02 0.02,0.03 0.03,0.02 0.05,0.06 0.07,0.09z"/>
    <path class="fil10" d="M1.22 2.07c-0,-0 -0,-0 -0,-0 0,-0 0,-0.01 -0,-0.01 -0,-0.01 -0.01,-0.03 -0.01,-0.04 -0.01,-0.01 -0.01,-0.03 -0.02,-0.04l-0 -0c-0.01,-0.03 -0.02,-0.06 -0.01,-0.09 -0.02,0.01 -0.04,0.01 -0.06,0.02 -0.01,-0 -0.03,0 -0.04,0 0.06,-0.04 0.11,-0.09 0.14,-0.15 -0.04,-0 -0.08,0.02 -0.12,0.04l-0 0c-0.04,0.01 -0.07,0.02 -0.11,0.01 -0.03,-0 -0.05,-0.01 -0.07,-0.02l-0.01 -0c0.03,0.02 0.05,0.03 0.08,0.04 0.03,0.01 0.07,0 0.11,-0 0,0 0.01,0 0.01,0 -0.03,0.03 -0.07,0.06 -0.12,0.06 -0.03,0 -0.05,-0 -0.08,-0.01 0.01,0.01 0.03,0.02 0.04,0.03 -0.03,-0 -0.07,-0.01 -0.1,-0.03 -0,0.01 -0,0.02 -0,0.03 0,-0 0,-0.01 0,-0.02 0.03,0.01 0.06,0.03 0.09,0.04 0.04,0.02 0.09,0.02 0.14,0.01 -0.03,0.02 -0.06,0.03 -0.1,0.04 0.03,0.03 0.05,0.07 0.06,0.11 0.02,0.08 0.01,0.16 -0.02,0.24l-0.01 0c-0,0 0,0.01 0,0.01l0.01 -0.01 0.02 -0.02 0 -0c0.01,-0.01 0.02,-0.02 0.03,-0.03 0.02,-0.03 0.03,-0.06 0.04,-0.09 0.01,-0.02 0.02,-0.05 0.02,-0.08 0,-0.01 0,-0.02 0,-0.04 0,-0.01 0,-0.02 0,-0.03 0,-0.01 -0,-0.02 -0,-0.03 0.02,0.01 0.03,0.02 0.04,0.03 0.02,0.02 0.03,0.05 0.04,0.08 0,-0.02 0,-0.05 -0.01,-0.07 -0,-0 -0,-0 -0,-0.01z"/>
    <path class="fil11" d="M0.27 0.49c0,0.05 0.02,0.1 0.05,0.14 0.01,0 0.01,0 0.02,0.01 0,0 0.01,0.01 0.01,0.01 0,0 0.01,0.01 0.01,0.01 0,0 0,0 0,0 0,0 0,0 0.01,0 0,0 0.01,0 0.01,0.01 0,0 0.01,0 0.01,0 0,0 0.01,0 0.01,0.01 0,0 0.01,0 0.01,0.01 0,0 0,0 0.01,0 0,0 0.01,0.01 0.01,0.01 0,0 0,0 0,0 0.02,0.01 0.04,0.02 0.07,0.03 0.01,-0.04 0.01,-0.09 -0.01,-0.13 -0.02,-0.01 -0.03,-0.01 -0.05,-0.02 -0,-0 -0.01,-0 -0.01,-0 -0.02,-0.01 -0.03,-0.02 -0.05,-0.03 -0,-0 -0,-0 -0,-0 0,0.01 0,0.01 0,0.02 0,0.01 0,0.01 0.01,0.02 -0.01,-0.01 -0.03,-0.02 -0.03,-0.03 -0.01,-0.02 -0.02,-0.04 -0.03,-0.06 -0,-0 -0,-0 -0,-0.01 -0.02,-0.05 -0.02,-0.11 -0.03,-0.17 -0.02,0.05 -0.02,0.11 -0.01,0.17z"/>
    <path class="fil12" d="M1.15 1.58c-0.01,-0 -0.03,-0.01 -0.04,0.01 -0.03,0.03 -0.03,0.07 -0.03,0.1 0.04,-0.01 0.07,-0.04 0.09,-0.08 0.02,-0.03 0.02,-0.07 -0,-0.1 0,0.03 -0,0.05 -0.02,0.07z"/>
    <path class="fil13" d="M0.75 1.01c0.01,-0 0.02,0 0.03,-0.01 -0.04,-0.04 -0.09,-0.07 -0.14,-0.1 -0.02,-0.01 -0.04,0 -0.05,0.01 0.01,0.03 0.03,0.06 0.06,0.08 0.03,0.02 0.07,0.03 0.11,0.03z"/>
    <path class="fil14" d="M1.31 0.57c-0.04,0.01 -0.07,0.02 -0.1,0.05 0.01,-0.02 0.01,-0.04 0.02,-0.05 -0,-0 -0,-0.01 -0,-0.01 -0.02,0.02 -0.05,0.03 -0.07,0.06 -0.01,0.01 -0.01,0.01 -0.02,0.02 -0.04,0.05 -0.06,0.13 -0.04,0.2 0.01,-0.02 0.01,-0.04 0.02,-0.06 0.01,-0.02 0.02,-0.04 0.04,-0.07 0.01,0.03 0.01,0.06 0.03,0.09 0,-0.08 0.05,-0.15 0.11,-0.19 0.02,-0.01 0.04,-0.03 0.05,-0.04 -0.01,0 -0.02,0 -0.03,0z"/>
    <path class="fil15" d="M0.81 0.56c0.01,0.02 0.02,0.03 0.02,0.05 -0.04,-0.03 -0.08,-0.04 -0.13,-0.05 0.08,0.05 0.16,0.13 0.16,0.23 0.02,-0.03 0.03,-0.06 0.03,-0.09 0.03,0.03 0.04,0.07 0.05,0.11 0,0 0.01,0 0.01,0 0,-0.04 0.01,-0.07 -0,-0.11 -0.02,-0.07 -0.07,-0.12 -0.13,-0.15z"/>
    <path class="fil16" d="M0.85 0.93c-0.02,-0.03 -0.03,-0.06 -0.05,-0.08 -0.02,-0.02 -0.03,-0.04 -0.05,-0.06 0.01,0.02 0.01,0.04 0.02,0.06 -0.04,-0.03 -0.08,-0.07 -0.11,-0.12 -0.02,-0.03 -0.01,-0.07 -0,-0.1 -0.03,0.02 -0.06,0.06 -0.05,0.1 0,0.03 0.01,0.06 0.04,0.08 0.04,0.03 0.09,0.06 0.13,0.09l0 -0 0 0c0.01,0.01 0.02,0.02 0.03,0.02 0.02,0.02 0.04,0.04 0.06,0.07 0,-0.01 -0,-0.03 -0.01,-0.04 0,-0 0,-0.01 0,-0.02z"/>
    <path class="fil16" d="M1.17 1.61c-0.02,0.04 -0.05,0.07 -0.09,0.08 -0,-0.04 0,-0.08 0.03,-0.1 0.01,-0.01 0.03,-0.01 0.04,-0.01 0.01,-0.02 0.02,-0.05 0.02,-0.07 0.02,0.03 0.02,0.07 0,0.1zm0.03 -0.16c-0.03,-0.02 -0.07,0 -0.09,0.03 -0,-0.02 0,-0.04 0.01,-0.06 -0.01,-0 -0.03,-0.01 -0.04,-0.01 -0,0 -0.01,0.01 -0.01,0.02 -0.02,0.02 -0.05,0.03 -0.06,0.06 -0.04,0.08 -0.03,0.17 0,0.25 0.03,-0.01 0.07,-0.02 0.1,-0.03 0.04,-0.02 0.08,-0.03 0.13,-0.02 -0,-0.04 -0,-0.08 -0.01,-0.13 -0.01,-0.04 -0.01,-0.08 -0.04,-0.11z"/>
    <path class="fil17" d="M0.34 0.72c0.01,0.01 0.02,0.02 0.03,0.03 0,0 0,0 0.01,0 0,0 0.01,0 0.01,0.01 0,0 0.01,0 0.01,0.01 0,0 0,0 0,0 0.01,0.01 0.03,0.02 0.04,0.03 0.01,-0.01 0.02,-0.01 0.03,-0.02 -0.02,-0.01 -0.04,-0.03 -0.06,-0.04l-0 -0c-0.03,-0 -0.05,-0.02 -0.08,-0.03 0,0 0.01,0.01 0.01,0.01z"/>
    <path class="fil18" d="M0.61 1.1c0.02,0.02 0.05,0.02 0.08,0.03 -0.02,0.01 -0.03,0.02 -0.05,0.02 0.06,0.01 0.13,-0.01 0.15,-0.07 -0.05,0.02 -0.11,0.02 -0.17,0 -0,-0 -0.01,-0.01 -0.01,-0.01 0.03,-0 0.05,-0 0.08,-0.01 -0.06,-0 -0.12,-0.04 -0.16,-0.09l-0.01 -0c0.02,0.05 0.05,0.09 0.08,0.12z"/>
    <polygon class="fil19" points="0.76,0.9 0.77,0.9 0.76,0.89 "/>
    <path class="fil20" d="M1.39 0.9c-0.05,0.03 -0.1,0.06 -0.14,0.11 0.04,0.01 0.08,0.01 0.12,-0.01 0.04,-0.02 0.06,-0.05 0.08,-0.09 -0.02,-0.01 -0.04,-0.02 -0.06,-0z"/>
    <path class="fil6" d="M1.25 1.1c0.03,0.05 0.09,0.07 0.15,0.05 -0.02,-0.01 -0.03,-0.01 -0.05,-0.02 0.03,-0.01 0.05,-0.02 0.07,-0.03 0.04,-0.03 0.06,-0.07 0.07,-0.11 -0.02,0.02 -0.04,0.04 -0.07,0.06 -0.03,0.02 -0.06,0.03 -0.09,0.03 0.02,0.01 0.05,0.01 0.08,0.01 -0.02,0.02 -0.06,0.01 -0.09,0.02 -0.03,0.01 -0.05,0 -0.08,-0z"/>
    <path class="fil21" d="M0.88 1.58c-0.01,-0.02 -0.02,-0.04 -0.02,-0.07 -0,0.01 -0.01,0.02 -0.01,0.03 -0.01,0.05 0.02,0.1 0.06,0.13 0.01,0 0.01,0.01 0.02,0.01l0.01 0c0,0 0.01,0.01 0.02,0.01 -0,-0.03 -0,-0.07 -0.02,-0.1 -0.01,-0.01 -0.03,-0.01 -0.05,-0.01z"/>
    <path class="fil22" d="M1.08 1.41c-0.04,-0.01 -0.07,-0.01 -0.11,-0 0.03,0.01 0.07,0.01 0.1,0.02 0,-0 0.01,-0.01 0.01,-0.02z"/>
    <path class="fil23" d="M0.99 1.88c0.05,-0 0.09,-0.03 0.12,-0.06 -0,-0 -0.01,-0 -0.01,-0 -0.03,0 -0.07,0.01 -0.11,0 -0.03,-0.01 -0.06,-0.02 -0.08,-0.04l0.01 0c-0.03,-0.02 -0.07,-0.03 -0.1,-0.03 0.02,0.05 0.06,0.09 0.1,0.12l0 0c0.03,0 0.05,0.01 0.08,0.01z"/>
    <path class="fil24" d="M1.22 2.07l-0 -0c0,0 0,0 0,0z"/>
    <path class="fil25" d="M0.73 2.19l0 0c-0,-0 -0,-0 -0,-0l0 0z"/>
   </g>
   <path class="fil26 str0" d="M1.86 0.36c0.03,0.09 0.03,0.17 -0,0.26 -0.01,0.02 -0.02,0.04 -0.03,0.06 -0.01,0.02 -0.06,0.08 -0.03,0.09 0.02,0.01 0.04,0.01 0.07,0.02 0.04,0.02 0.07,0.04 0.09,0.08 0.02,0.04 0.03,0.06 0.06,0.1 0.01,0.01 -0.02,0 -0.03,0.01 -0.07,0.01 -0.17,0.06 -0.23,0.09 -0.04,0.02 -0.02,0.02 -0.01,0.07 0.01,0.05 0.02,0.07 0.03,0.12 0.01,0.1 0.01,0.15 -0.01,0.25 -0.02,0.09 -0.05,0.18 -0.1,0.26 -0.02,0.03 -0.04,0.06 -0.06,0.09 -0.01,0.01 -0.01,0.02 -0.02,0.04 -0.01,0.01 -0.01,-0 -0.01,-0.01 0,-0.02 0.01,-0.08 -0,-0.1 -0.01,-0.01 -0.06,0.09 -0.06,0.1 -0.03,0.08 -0.05,0.13 -0.06,0.22 -0,0.01 -0,0.03 -0.01,0.05 -0.04,-0.02 -0.06,-0.08 -0.06,-0.08 -0,-0 -0.01,0.03 -0.01,0.03 -0.02,0.09 -0.06,0.13 -0.11,0.2 -0.01,0.01 -0.06,0.05 -0.07,0.05 -0.01,-0.01 0.01,-0.07 -0,-0.09 -0.01,0.01 -0.02,0.07 -0.04,0.09 -0.02,0.03 -0.04,0.06 -0.06,0.08 -0.05,0.06 -0.08,0.04 -0.15,0.04 -0.02,0 -0.02,-0.01 -0.02,-0.03 -0,-0.06 -0.01,-0.1 -0.05,-0.15 -0,-0.01 -0.02,-0.03 -0.02,-0.02 0,0.03 0.01,0.04 0,0.07 -0.08,-0.06 -0.14,-0.15 -0.17,-0.24 -0.03,-0.09 -0.01,-0.05 -0.06,0.01 -0.05,0.05 -0.03,0.01 -0.04,-0.04 -0.01,-0.03 -0.01,-0.06 -0.02,-0.08 -0.01,-0.06 -0.04,-0.11 -0.06,-0.17 -0,-0.01 -0.04,-0.07 -0.04,-0.03 -0,0.02 0.01,0.09 0.01,0.09 -0,0 -0.01,0 -0.01,0 -0,-0 -0.03,-0.04 -0.03,-0.04 -0.03,-0.05 -0.06,-0.08 -0.08,-0.13 -0.01,-0.02 -0.02,-0.04 -0.03,-0.06 -0.01,-0.03 -0.02,-0.06 -0.03,-0.1 -0.01,-0.04 -0.02,-0.08 -0.02,-0.12 -0.01,-0.07 -0,-0.16 0.01,-0.23 0.01,-0.03 0.02,-0.08 0.03,-0.11 0.01,-0.02 -0.11,-0.06 -0.12,-0.07 -0.05,-0.03 -0.08,-0.04 -0.13,-0.04 -0.04,-0.01 -0.02,-0.03 -0.01,-0.06 0.03,-0.06 0.06,-0.07 0.11,-0.11 0.02,-0.02 0.06,-0.03 0.09,-0.03 0.04,-0 0.01,-0.03 -0.01,-0.05 -0.05,-0.06 -0.08,-0.14 -0.08,-0.21 0,-0.02 0,-0.06 0.01,-0.08 0,-0 0,-0.03 0.01,-0.04 0.02,-0.04 0.02,-0.07 0.04,-0.12 0.04,-0.08 0.09,-0.16 0.15,-0.23 0.05,-0.05 0.02,0.02 0.02,0.05 -0.01,0.07 -0.03,0.27 -0.02,0.33 0,0 0,0 0,0l-0 0 0.01 -0.01c0.01,-0.01 0.02,-0.02 0.03,-0.03 0.02,-0.02 0.02,-0.04 0.03,-0.07 0.04,-0.1 0.15,-0.19 0.25,-0.22 0.08,-0.02 0.16,-0.03 0.24,-0.02 0.09,0.02 0.08,0.02 0.17,0 0.16,-0.02 0.32,0.01 0.44,0.13 0.04,0.04 0.06,0.09 0.08,0.14 0.01,0.05 0.03,0.04 0.06,0.07 0.01,0.01 0,0.01 0.01,-0.01 0.01,-0.12 0,-0.22 -0.02,-0.34 -0.02,-0.08 -0,-0.07 0.05,-0.01 0.04,0.05 0.07,0.08 0.1,0.14 0.03,0.05 0.05,0.1 0.06,0.15z"/>
  </g>
 </g>
</svg>
