<?xml version="1.0" encoding="UTF-8"?>
<!DOCTYPE svg PUBLIC "-//W3C//DTD SVG 1.1//EN" "http://www.w3.org/Graphics/SVG/1.1/DTD/svg11.dtd">
<!-- Creator: CorelDRAW 2018 (64-Bit) -->
<svg xmlns="http://www.w3.org/2000/svg" xml:space="preserve" width="7.73771in" height="8.23831in" version="1.1" style="shape-rendering:geometricPrecision; text-rendering:geometricPrecision; image-rendering:optimizeQuality; fill-rule:evenodd; clip-rule:evenodd"
viewBox="0 0 801.21 853.04"
 xmlns:xlink="http://www.w3.org/1999/xlink">
 <defs>
  <style type="text/css">
   <![CDATA[
    .fil4 {fill:#00AAA0;fill-rule:nonzero}
    .fil6 {fill:#015B55;fill-rule:nonzero}
    .fil0 {fill:#020001;fill-rule:nonzero}
    .fil5 {fill:#85FFF4;fill-rule:nonzero}
    .fil2 {fill:#D2CE83;fill-rule:nonzero}
    .fil1 {fill:#FBFBFB;fill-rule:nonzero}
    .fil3 {fill:white;fill-rule:nonzero}
   ]]>
  </style>
 </defs>
 <g id="Layer_x0020_1">
  <metadata id="CorelCorpID_0Corel-Layer"/>
  <g id="_1184498496">
   <path class="fil0" d="M74.49 69.98c17.58,-16.91 37.3,-31.77 59,-43.02 -20.85,29.2 -39.83,60.37 -50.59,94.81 -5.06,17.03 -8.52,35.24 -5.06,52.94 0.56,1.74 0.55,4.11 1.97,5.32 4.96,0.93 10.05,0.45 15.06,0.34 21.68,-1.11 43.26,-3.52 64.76,-6.4 11.68,-1.73 23.56,-3.08 34.67,-7.28 20.7,-3.56 41.83,-3.54 62.75,-4.5 1.12,-0.45 1.72,-1.62 2.58,-2.42 19.93,-22.82 47.76,-38.21 77.39,-44.1 20.59,-4.14 41.98,-4.52 62.67,-0.87 2.9,0.17 5.72,-0.81 8.61,-1.09 38.23,-4.9 79,2.74 110.57,25.59 9.36,6.49 17.36,14.69 25.12,22.91 20.97,0.94 42.1,0.93 62.84,4.49 13.5,5.01 28,6.21 42.16,8.28 22.44,2.69 44.96,5.47 67.6,5.57 1.86,-0.38 5.22,0.62 5.68,-1.99 4.62,-16.07 2.05,-33.18 -1.86,-49.11 -10,-37.49 -30.45,-71.15 -52.75,-102.5 27.43,14.38 51.97,34.13 72.55,57.23 25.16,28.41 43.61,63.25 50.51,100.71 1.16,16.17 -3.31,33.18 -14.02,45.59 -9.04,10.58 -22.11,16.95 -35.53,19.91 -12.45,2.96 -25.33,2.67 -38.03,3.15 -9.99,0.33 -19.98,0.6 -29.97,0.95 7.9,4.11 15.92,8.99 20.82,16.68 -5.03,9.24 -14.98,14.42 -24.7,17.34 -5.77,1.73 -11.73,2.64 -17.7,3.23 10.39,7.06 21.36,13.48 30.75,21.88 -24.3,22.93 -59.73,31.36 -92.3,26.55 2.02,23.41 5.85,46.75 12.67,69.26 2.21,6.71 4.22,13.59 7.86,19.71 36.48,66.29 72.91,132.62 109.39,198.91 -4.26,11.37 -10.67,21.77 -17.6,31.67 -17.22,24.18 -38.79,44.96 -61.9,63.47 -38.38,30.5 -81.35,54.76 -125.78,75.25 -37.04,17.03 -75.29,31.37 -114.11,43.84 -60.03,-19.32 -118.93,-43.02 -173.7,-74.47 -30.2,-17.43 -59.15,-37.26 -85.09,-60.63 -15.25,-13.8 -29.48,-28.83 -41.59,-45.49 -7.51,-10.47 -14.48,-21.52 -19.02,-33.64 37.16,-67.59 74.36,-135.14 111.46,-202.76 6.12,-14.27 9.84,-29.46 12.88,-44.66 2.58,-13.38 4.46,-26.89 5.57,-40.46 -32.56,4.78 -68.09,-3.58 -92.3,-26.63 9.46,-8.29 20.34,-14.76 30.74,-21.81 -12.55,-1.2 -25.64,-4.14 -35.59,-12.33 -2.78,-2.3 -5.15,-5.1 -6.79,-8.32 4.98,-7.5 12.76,-12.59 20.75,-16.42 -17.17,-1.03 -34.41,-1 -51.59,-1.9 -16.93,-1.19 -34.47,-5.92 -47.29,-17.58 -12.4,-11.09 -18.56,-27.88 -18.8,-44.29 -0.4,-7.06 1.84,-13.86 3.5,-20.62 10.26,-38.32 32.35,-72.86 60.76,-100.29zm-16.12 33.29l0 0c-10.26,13.5 -19.48,27.96 -25.91,43.7 -5.23,12.89 -8.55,26.82 -7.54,40.8 0.86,15.08 7.6,29.77 18.64,40.13 3.25,2.95 6.62,6.37 11.25,6.8 21.65,3.98 43.76,4.23 65.71,4.5 41.28,-0.11 82.54,-2.21 123.69,-5.54 1.17,-1.73 2.36,-3.46 3.54,-5.18 -9.14,1.62 -18.46,1.94 -27.72,1.93 -21.08,-0.14 -42.16,-1.67 -63.07,-4.37 23.21,-2.94 46.47,-5.61 69.44,-10.06 4.76,-1.01 9.57,-1.93 14.13,-3.67 4.32,-1.63 6.68,-5.97 8.36,-9.98 3.15,-7.99 4.37,-16.59 5.04,-25.1 -15.1,0.58 -30.16,1.67 -45.23,2.7 -15.44,1.42 -31.07,2.07 -46.18,5.89 -21.38,3.66 -43.1,4.62 -64.68,6.35 6.35,9.03 13.93,17.08 21.67,24.91 -16.04,-2.39 -31.89,-9.07 -43.27,-20.91 -3.33,-2.47 -7.15,-4.39 -9.81,-7.68 -7.27,-8.18 -8.67,-19.82 -7.65,-30.33 1.72,-16.79 7.93,-32.73 14.92,-47.96 10.23,-21.82 22.93,-42.41 36.73,-62.15 -18.93,16.79 -36.59,35.15 -52.04,55.22zm632.44 -55.15l0 0c10.43,14.89 20.19,30.28 28.77,46.33 8.47,15.98 16.16,32.59 20.52,50.23 2.82,12.07 4.41,25.43 -0.92,37.08 -2.73,6.16 -7.98,10.64 -13.69,13.97 -11.54,11.99 -27.49,18.97 -43.83,21.35 7.75,-7.83 15.33,-15.89 21.68,-24.91 -21.97,-1.79 -44.1,-2.68 -65.84,-6.58 -10.73,-2.84 -21.85,-3.53 -32.84,-4.67 -19.11,-1.56 -38.25,-2.87 -57.4,-3.69 0.66,8.51 1.87,17.11 5.03,25.09 1.61,3.82 3.77,7.91 7.72,9.72 4.31,1.84 8.97,2.69 13.52,3.69 23.38,4.67 47.12,7.23 70.72,10.39 -9.43,1.25 -18.9,2.04 -28.37,2.82 -20.77,1.32 -41.83,2.85 -62.49,-0.46 1.17,1.7 2.36,3.41 3.5,5.14 26.12,2.3 52.32,3.67 78.52,4.72 30.61,0.97 61.34,1.67 91.9,-1.03 7.89,-0.93 16.03,-1.31 23.55,-3.99 14.95,-10.16 24.41,-27.64 25.38,-45.62 1.33,-19.77 -5.61,-39.04 -14.92,-56.18 -10.34,-18.91 -23.82,-35.9 -38.31,-51.78 -10.3,-10.98 -20.82,-21.81 -32.22,-31.63zm-405.19 99.76l0 0c-4.62,8.78 -11.07,16.41 -16.54,24.66 9.36,-8.55 21.38,-14.54 34.14,-15.33 -9.69,4.21 -15.38,14.02 -19.04,23.46 -0.89,4.93 -2.67,9.88 -6.7,13.14 1.82,4.67 1.68,9.75 0.64,14.58 8.29,0.24 15.75,5.41 20.98,11.49 -7.94,0.16 -15.2,3.82 -22.07,7.48 -1.66,0.97 -3.66,1.77 -4.48,3.67 -5.78,11.18 -14.47,21.13 -25.64,27.14 2.01,5.3 2.57,11.15 1.26,16.7 -3.33,14.65 -13.56,27.3 -26.82,34.25 -17.11,9.34 -37.74,9.32 -56.25,4.65 0,-0.36 0,-1.08 0,-1.44 12.48,-5.21 24.35,-11.97 35.18,-20.12 6,-4.65 11.9,-9.59 16.55,-15.63 -21.3,4.44 -43.15,1.22 -64.18,-3.04 -0.5,-0.29 -1.53,-0.87 -2.04,-1.16 7.52,-6.58 16.98,-10.29 26.35,-13.36 6.85,-2.12 13.77,-4.18 20.91,-5.09 -2.2,-0.29 -4.41,-0.5 -6.62,-0.45 -14.01,0.35 -28.03,0.64 -42.04,0.93 -4.75,-0.01 -9.14,2.05 -13.29,4.14 -7.04,3.8 -13.86,8.08 -20.05,13.15 4.82,3.87 10.69,6.02 16.45,8.07 10.28,3.56 20.8,6.34 31.38,8.87 -10.36,9.56 -22.13,17.42 -33.72,25.38 22.29,13.4 48.5,21.72 74.69,19.42 2.14,-0.54 5.2,-0.05 6.6,-2 -0.42,-2.75 -2.12,-5.03 -3.42,-7.41 9.39,5.22 14.49,16.25 12.75,26.84 6.79,-13.02 11.42,-27 16.53,-40.72 0.19,-0.03 0.6,-0.11 0.79,-0.14 7.89,13.85 11.43,29.64 15.35,44.95 2.3,9.49 3.23,19.43 7.12,28.5 3.94,9.56 9.28,18.48 15.15,26.97 0.81,1.21 1.87,2.24 2.9,3.26 -0.66,-2.76 -1.65,-5.42 -2.52,-8.11 11.74,11.29 16.82,27.38 21.16,42.61 6.35,10.8 13.65,21.09 21.2,31.08 -4.92,-16.95 -7.43,-34.8 -5.28,-52.4 2.1,-17.23 8.47,-34.37 20.16,-47.43 -0.5,-0.81 -1,-1.61 -1.49,-2.41l-0.3 0.15c-1.93,-3.13 -3.53,-6.44 -4.76,-9.91 -8.08,-3.61 -16.12,-7.41 -23.69,-12 -2.19,-1.21 -3.74,-3.21 -4.9,-5.38 -4.45,-8.06 -7.32,-16.87 -10.6,-25.43 -2.58,-4.19 -6.91,-6.9 -10.27,-10.41 1.51,0.43 3.01,0.88 4.52,1.31l-0.19 0.14c18.45,5.83 34.95,17.14 47.63,31.69 -1.61,-5.84 -5.03,-10.97 -8.54,-15.81 -9.29,-12.22 -21.11,-22.23 -33.43,-31.26 -3.55,-2.44 -6.9,-5.25 -10.89,-6.97l-0.83 -1.23c9.92,0.28 19.2,4.27 28.39,7.65 3.91,1.55 7.78,3.19 11.63,4.88 -0.31,-5.42 -1.23,-10.8 -0.9,-16.23 0.5,-17.3 8.06,-34.02 19.86,-46.54 1.49,-1.57 3.25,-2.95 4.08,-5.02 0.82,-0.17 1.65,-0.35 2.48,-0.51 -7.48,11.44 -11.86,24.84 -13.48,38.38 -2.51,22.96 4.55,46.59 18.34,64.99 -0.11,-9.99 -0.62,-19.98 -0.55,-29.98 8.47,12.85 13.41,27.99 14,43.37 0.76,12.04 -1.64,23.94 -4.69,35.52 -1.04,1.88 -1.91,3.86 -3.14,5.62 -13.3,19.26 -19.99,42.81 -19.65,66.15 1.59,-1.96 3.44,-3.7 5.05,-5.64 8.76,-6.05 20.26,-4.85 29.55,-0.7 4.55,1.5 7.61,5.34 11.6,7.77 6.73,4.28 14.59,6.95 22.59,7.1 11,-0.21 21.46,-5.16 29.55,-12.44 6.77,-4.09 14.85,-6.41 22.8,-5.83 5.12,0.29 9.66,2.89 13.53,6.08 0.77,1.34 1.84,2.49 2.82,3.7 0.5,-23.82 -6.63,-47.82 -20.34,-67.33 -1.63,-2.4 -2.1,-5.31 -3.29,-7.91 -2.3,-9.14 -3.99,-18.5 -3.89,-27.94 -0.1,-16.8 4.84,-33.55 14.14,-47.54 0.01,10 -0.48,19.99 -0.56,30.01 12.66,-16.96 19.67,-38.27 18.74,-59.46 -0.78,-15.42 -5.47,-30.77 -13.79,-43.78 1.66,0.21 3.33,0.36 5,0.64 -0.78,-0.01 -2.34,-0.05 -3.12,-0.06 12.04,11.55 21.26,26.57 23.68,43.28 1.43,8.06 0.59,16.23 -0.15,24.31 4.29,-1.86 8.55,-3.79 12.98,-5.26l0.01 -0.26c8.33,-2.91 16.65,-6.16 25.48,-7.18 -0.78,2.56 -3.42,3.55 -5.39,5.01 -8.83,6.03 -17.27,12.69 -25.04,20.05 -8.92,8.72 -17.85,18.36 -21.77,30.46 6.04,-6.62 12.44,-12.97 19.91,-17.98 8.64,-6.21 18.44,-10.44 28.27,-14.35l0.3 0.22c1.11,-0.39 2.24,-0.76 3.38,-1.11 -3.16,3.64 -7.57,6.21 -10.09,10.38 -3.27,8.57 -6.14,17.35 -10.59,25.42 -1.17,2.14 -2.7,4.17 -4.87,5.39 -7.57,4.56 -15.54,8.44 -23.66,11.95 -1.3,3.35 -2.76,6.66 -4.71,9.71 -0.7,0.79 -1.38,1.6 -2.04,2.43 9.91,10.93 15.96,24.93 18.95,39.27 4.15,20.14 1.77,41.1 -3.96,60.69 6.93,-8.95 13.2,-18.41 19.42,-27.87 3.24,-4.67 3.57,-10.53 5.56,-15.73 3.81,-10.99 8.92,-22.02 17.44,-30.16 -0.9,2.7 -1.9,5.38 -2.58,8.15 2.77,-2.46 4.55,-5.77 6.62,-8.79 7.13,-11.19 13.57,-23.23 15.76,-36.46 1.04,-5.89 2.49,-11.72 3.86,-17.5 3.31,-13.43 6.88,-27 13.33,-39.32 0.17,-0.97 1.79,-2.6 2.07,-0.73 4.93,13.5 9.56,27.22 16.23,39.99 -0.16,-3.01 -0.36,-6.04 0.14,-9.03 1,-7.53 6.23,-13.97 12.6,-17.81 -1.13,2.56 -4.07,5.34 -2.94,8.21 5.3,1.61 10.94,1.62 16.42,1.62 22.78,-0.52 45,-8.15 64.41,-19.84 -11.59,-7.96 -23.38,-15.81 -33.72,-25.39 12.16,-2.93 24.29,-6.09 36,-10.57 4.15,-1.73 8.6,-3.36 11.78,-6.71 -7.06,-5.01 -14.17,-10.02 -21.97,-13.79 -3.57,-1.7 -7.37,-3.21 -11.39,-3.17 -12.96,-0.28 -25.91,-0.54 -38.88,-0.86 -3.24,-0.13 -6.5,-0.08 -9.73,0.26 7.53,1.22 14.92,3.25 22.17,5.61 8.89,2.96 17.78,6.65 24.99,12.8l-0.29 0.63c-21.42,5.16 -43.95,8.1 -65.78,3.72 10.62,13.05 25.08,22.38 39.8,30.21 4.26,2.44 9.04,3.89 13.11,6.67 -14.56,3.77 -30.17,4.9 -44.78,0.78 -14.43,-4.01 -27.75,-13.45 -34.74,-26.9 -4.92,-8.74 -7.45,-19.57 -3.51,-29.18 -11.68,-6.2 -20.35,-16.81 -26.41,-28.36 -7.64,-5.13 -16.47,-9.48 -25.81,-9.95 5.3,-6.03 12.7,-11.26 21.01,-11.47 -1.05,-4.83 -1.19,-9.92 0.64,-14.59 -4.03,-3.27 -5.82,-8.22 -6.71,-13.16 -3.65,-9.48 -9.42,-19.18 -19.04,-23.52 12.73,0.94 24.68,6.83 34.11,15.31 -5.5,-8.19 -11.89,-15.82 -16.5,-24.56 -35.09,-17.8 -76.41,-24.68 -114.96,-15.52 -38.56,-9.16 -79.9,-2.28 -114.98,15.52zm10.71 183.86l0 0c3.22,6.06 6.08,12.38 10.03,18.02 5.12,3.63 11,6.12 16.49,9.19 -2.95,-5.67 -5.73,-11.74 -10.74,-15.92 -4.88,-4.27 -10.31,-7.85 -15.78,-11.3zm192.26 11.74l0 0c-4.75,4.14 -7.39,10.02 -10.28,15.48 5.49,-3.06 11.37,-5.55 16.5,-9.18 3.95,-5.63 6.8,-11.96 10.04,-18.01 -5.67,3.54 -11.27,7.25 -16.26,11.72zm-261.59 65.9l0 0c-15.93,40.6 -31.68,81.29 -48.62,121.5 -6.34,12.89 -7.31,27.52 -7.62,41.64 -0.19,23.01 2.32,45.95 5.78,68.66 0.56,4.04 2.62,7.65 4.77,11.05 5.41,8.44 12.12,15.93 18.72,23.43 -6.61,-2.27 -12.82,-5.51 -19.08,-8.57 11.26,20.7 20.66,42.35 30.48,63.77 1.68,3.35 2.58,7.3 5.54,9.86 10.95,10.41 24.03,18.24 37.27,25.36 17.56,9.25 35.81,17.2 54.37,24.24 14.14,5.46 28.4,10.88 42.99,15.03 5.79,2.6 12.12,3.98 18.17,5.94 -16.28,-12.71 -28.97,-29.29 -40.88,-46 -19.77,-28.29 -36.63,-58.5 -52.35,-89.18 -11.54,-8.63 -19.71,-20.82 -26.42,-33.39 -13.2,-25.79 -21.62,-53.73 -28.38,-81.81 -9.38,26.53 -6.8,55.65 0.22,82.43 5.37,21.65 14.59,42.03 22.65,62.75 -2.78,-2.28 -4.4,-5.67 -7.38,-7.71 -4.67,-8.34 -10.3,-16.13 -14.71,-24.63 -9.66,-17.7 -17.87,-36.16 -25.22,-54.93 -2.01,-5.41 -4.49,-10.75 -5.05,-16.55 -1.12,-10.57 0.11,-21.18 1.03,-31.72 1.15,-10.62 1.79,-21.28 2.71,-31.91 2.86,-19.77 7.81,-39.17 12.49,-58.58 5.8,-23.66 12.31,-47.13 18.52,-70.67zm347.15 -0.02l0 0c7.67,28.68 15.5,57.35 22.32,86.25 4.08,18.29 8.97,36.59 9.66,55.42 0.91,12.65 2.57,25.25 3.13,37.94 0.23,7.28 0.26,14.81 -2.33,21.75 -5.68,15.39 -12.09,30.52 -19.18,45.31 -5.27,11.43 -11.8,22.2 -17.78,33.26 -4.79,5.34 -8.03,11.96 -13.41,16.81 9.73,-24.58 20.52,-48.98 25.51,-75.07 4.63,-23.09 5.34,-47.68 -2.66,-70.12 -6.56,27.3 -14.69,54.45 -27.27,79.64 -5.85,11.18 -12.52,22.24 -21.9,30.85 -1.9,1.87 -4.44,3.1 -5.99,5.29 -16.95,33.37 -35.46,66.11 -57.56,96.37 -10.37,13.92 -21.52,27.53 -35.29,38.25 6.75,-2.32 14.01,-3.62 20.34,-6.89 1.25,-0.18 2.5,-0.42 3.74,-0.72 13.12,-4.29 26.03,-9.19 38.99,-13.9l0.21 -0.28c18.07,-6.98 35.85,-14.73 52.97,-23.82 12.35,-6.68 24.51,-13.98 34.93,-23.47 1.39,-1.32 2.9,-2.57 3.89,-4.23 10.99,-23.75 21.26,-47.89 33.75,-70.91 -6.26,3.05 -12.46,6.29 -19.06,8.57 7.52,-8.63 15.35,-17.17 20.94,-27.23 3.31,-5.9 3.1,-12.9 4.29,-19.38 2.67,-20.43 4.58,-41.05 3.89,-61.67 -0.52,-12.19 -1.8,-24.69 -7.18,-35.81 -17.09,-40.43 -32.87,-81.38 -48.95,-122.21zm-327.34 57.45l0 0c-2.43,25.91 -2.9,52.08 -0.11,77.99 2.07,18.3 5.68,36.64 12.97,53.65 -0.91,-12.06 -2.57,-24.37 -0.13,-36.36 1.79,3.81 2.55,7.98 3.97,11.94 12.92,40.12 28.62,79.48 48.62,116.63 15.24,27.7 32.77,54.9 56.86,75.76 -0.27,-0.53 -0.79,-1.59 -1.06,-2.12 -18.73,-29.35 -37.3,-58.95 -52.5,-90.33 -4.37,-9.51 -8.92,-19.17 -10.55,-29.61 6.5,7.43 12.44,15.33 18.95,22.75 -14.34,-27.7 -27.99,-56.7 -31.56,-88.05 -4.13,-5.72 -8.62,-11.27 -12.14,-17.44 -20.55,-34.39 -29.81,-74.65 -30.78,-114.46 -1.3,6.48 -1.86,13.07 -2.54,19.64zm283.22 78.03l0 0c-5.62,12.23 -12.9,23.68 -21.11,34.27 -3.55,31.33 -17.27,60.28 -31.5,88 6.43,-7.46 12.39,-15.32 18.9,-22.71 -0.77,5.29 -2.45,10.4 -4.37,15.38 -4.59,11.71 -10.34,22.91 -16.27,33.98 -9.29,17.15 -19.33,33.9 -29.65,50.44 -4.47,7.5 -9.67,14.57 -13.85,22.23 6.51,-5.47 12.46,-11.59 18.06,-18 18.35,-21.23 32.79,-45.53 45.49,-70.47 18.76,-37.19 33.57,-76.27 45.82,-116.06 2.68,11.99 0.86,24.41 -0.01,36.52 10.15,-23.96 13.46,-50.2 14.6,-76.01 0.81,-25.09 -0.37,-50.33 -4.23,-75.16 -0.93,33.51 -7.57,67.14 -21.86,97.58zm-185.24 -79.39l0 0c-5.51,2.81 -8.23,8.67 -10.59,14.05 -4.93,8.55 -6.46,18.66 -5.64,28.41 1.16,14.03 6.02,27.54 12.51,39.96 -14.35,-9.25 -25.03,-23.5 -31.33,-39.25 0.14,14.79 2.06,29.62 6.18,43.84 4.79,16.53 13.15,32.28 25.56,44.37 15.4,15.16 36.51,24.23 58.03,25.53 13.45,-0.17 26.73,-4.02 38.71,-10.04 16.51,-8.33 30.01,-22.14 38.52,-38.5 10.54,-20.04 14.31,-42.9 14.82,-65.33 -6.37,15.77 -17.01,30.11 -31.42,39.38 6.01,-11.5 10.6,-23.9 12.2,-36.83 1.36,-10.68 0.16,-21.99 -5.29,-31.44 -2.66,-6.29 -6.31,-13.5 -13.56,-15.22 -8.24,-1.65 -14.69,4.78 -21.4,8.36 -9.62,5.38 -19.92,12.01 -31.45,10.49 -4.09,0.42 -8.26,0.26 -12.16,-1.12 -10.4,-3.46 -19.61,-9.58 -28.93,-15.21 -4.34,-2.64 -10.05,-3.95 -14.74,-1.45zm-205.29 68.7l0 0c-6.56,11.63 -13.6,23.06 -19.05,35.28 -1.41,7.91 -0.79,16.33 -3.74,23.97 -6.19,12.07 -12.33,24.19 -18.17,36.44 1.69,3.05 3.13,6.23 4.7,9.34 0.46,1.89 1.91,0.23 2.1,-0.74 18.5,-35.45 37.38,-70.71 55.79,-106.2 5.43,-22.77 10.27,-45.93 19.73,-67.46 -14.04,22.96 -27.83,46.09 -41.35,69.37zm480.83 -69.38l0 0c9.48,21.52 14.3,44.7 19.73,67.46 18.72,36.01 37.79,71.87 56.69,107.79 0.19,-0.02 0.58,-0.06 0.78,-0.08 1.82,-3.31 3.27,-6.82 5.14,-10.12 -5.95,-12.49 -12.3,-24.78 -18.49,-37.15 -2.35,-7.22 -2.35,-14.94 -3.17,-22.42 -2.52,-6.75 -6.36,-12.93 -9.74,-19.27 -16.39,-29.08 -33.57,-57.72 -50.95,-86.23zm-487.23 149.81l0 0c-4.76,14.33 -9.28,28.76 -13.27,43.32 3.92,5.07 8.5,9.56 12.9,14.22 8.43,8.67 16.88,17.35 25.54,25.8 -5.45,-11.86 -10.51,-23.89 -14.88,-36.18 -5.19,-15.22 -10.37,-30.9 -10.29,-47.16zm535.01 0.08l0 0c0.15,11.53 -2.71,22.83 -5.94,33.81 -5.15,16.91 -11.81,33.32 -19.22,49.34 6.51,-6.1 12.64,-12.6 18.95,-18.92 6.59,-6.9 13.53,-13.53 19.48,-21.01 -4,-14.54 -8.47,-28.94 -13.26,-43.23z"/>
   <path class="fil0" d="M256.42 334.23c1.48,9.19 4.02,18.2 7.98,26.63 8.53,18.61 20.61,35.44 34.42,50.48 0.25,0.3 0.75,0.9 1,1.21 -12.91,-6.02 -23.53,-16.42 -30.61,-28.72 -7.31,-12.59 -11.1,-26.94 -12.62,-41.34 -0.32,0.57 -0.96,1.71 -1.28,2.29 1.29,-3.36 1.13,-7.01 1.12,-10.55z"/>
   <path class="fil0" d="M543.98 335.17c0.49,-0.08 1.01,-0.15 1.52,-0.21 -0.14,0.68 -0.43,2.03 -0.56,2.72 -1.26,19.87 -6.85,40.22 -19.8,55.77 -6.56,7.81 -14.49,14.73 -23.78,19.06 0.71,-0.81 1.45,-1.59 2.17,-2.38 15.21,-17.1 28.73,-36.23 36.72,-57.84 1.74,-5.56 4.13,-11.18 3.73,-17.12z"/>
   <path class="fil0" d="M342.8 473.93c6.44,6.35 12.6,13.02 19.38,19.03 1.07,0.97 2.36,1.61 3.63,2.32 -0.26,-3.87 -2.01,-7.36 -3.02,-11.04 3.6,6.69 7.28,13.4 9.66,20.64 2.25,7.73 1.28,15.94 -0.14,23.73 -2.15,-2.5 -4.52,-4.86 -7.37,-6.58 -2.47,-1.64 -5.47,-2.7 -7.22,-5.22 -3.33,-4.59 -5.33,-9.96 -7.28,-15.24 -3.15,-9.03 -5.69,-18.27 -7.64,-27.64z"/>
   <path class="fil0" d="M439.05 492.92c6.76,-6 12.88,-12.66 19.33,-18.98 -2.48,11.57 -5.61,23.07 -10.13,34.04 -2.16,4.73 -4.35,10.2 -9.4,12.51 -3.85,1.99 -7.2,4.78 -10,8.06 -1.5,-8.2 -2.5,-16.94 0.3,-24.98 2.46,-6.77 5.82,-13.17 9.36,-19.43 -1.16,3.67 -2.85,7.22 -3.14,11.12 1.28,-0.68 2.6,-1.35 3.68,-2.34z"/>
   <path class="fil0" d="M368.55 556.92c13.81,-6.15 29.47,-9.14 44.44,-6.09 15.84,2.82 31.58,10.15 41.5,23.2 3.23,4.18 5.71,8.88 7.66,13.8 -14.07,-11.28 -31.04,-19.89 -49.26,-21.21 -4.77,-0.51 -9.52,0.46 -14.28,0.21 -21.79,-2.21 -42.92,7.63 -59.57,21 5.07,-13.82 16.16,-24.93 29.51,-30.9z"/>
   <path class="fil1" d="M644.69 0c16.22,9.22 32.07,19.11 47.51,29.61 14.05,9.65 27.89,19.77 40.18,31.63 30.59,29.15 54.23,66.13 65.15,107.11 1.65,6.75 3.79,13.51 3.66,20.53 0.16,18.54 -6.07,37.59 -19.18,51 -10.84,11.31 -25.7,18.02 -40.91,21.02 -13.03,2.75 -26.41,2.45 -39.64,2.94 1.28,2.21 2.5,4.45 3.69,6.71 -3.71,13.12 -15.76,21.21 -27.61,26.32 5.24,3.79 11.11,7.27 14.54,12.95 1.06,1.6 2.11,3.21 3.18,4.81 -11.14,13.29 -26.18,22.82 -42.26,28.99 -16.35,6.29 -34.05,8.75 -51.51,7.92 2.73,22.1 6.81,44.19 14.53,65.14 1.15,3.36 2.95,6.45 4.69,9.55 36.77,66.89 73.56,133.78 110.32,200.67 -3.23,11.43 -9.22,21.82 -15.57,31.76 -17.19,26.21 -39.56,48.65 -63.66,68.52 -37.64,30.82 -79.95,55.48 -123.79,76.33 -41.22,19.53 -83.99,35.68 -127.45,49.53 -69.48,-22.25 -137.69,-50.08 -199.68,-88.92 -30.1,-19 -58.71,-40.68 -83.53,-66.28 -13.2,-13.71 -25.35,-28.52 -35.21,-44.82 -4.91,-8.25 -9.46,-16.83 -12.03,-26.12 37.15,-67.55 74.27,-135.12 111.44,-202.66 2.99,-4.98 4.66,-10.56 6.49,-16.01 5.82,-18.43 9.26,-37.53 11.6,-56.68 -28.93,1.53 -58.71,-6.72 -81.52,-24.89 -4.55,-3.5 -8.38,-7.81 -12.25,-12.02 2.41,-3.39 4.27,-7.24 7.45,-9.99 3.27,-2.89 6.87,-5.39 10.38,-7.98 -12.09,-4.61 -23.89,-13.12 -27.73,-26.06 1.17,-2.29 2.4,-4.54 3.7,-6.76 -14.59,-0.49 -29.39,-0.22 -43.65,-3.84 -15.43,-3.64 -30.19,-11.54 -40.31,-23.94 -12.08,-14.72 -17.18,-34.53 -15.4,-53.34 9.7,-51.11 39.33,-97.23 78.73,-130.69 23.25,-18.65 49.61,-32.98 76.39,-45.86 -4.67,9.03 -9.12,18.18 -13.94,27.12 -19.28,27.16 -36.96,55.96 -47.54,87.71 -5.06,15.84 -8.77,32.67 -6.48,49.36 23.27,-0.7 46.41,-3.41 69.48,-6.39 11.19,-1.7 22.65,-2.71 33.31,-6.77 20.49,-4.29 41.56,-4.3 62.39,-5.11 20.34,-22.77 47.9,-38.82 77.67,-45.54 22.67,-5.2 46.37,-5.91 69.33,-2.21 3.38,0.13 6.68,-0.91 10.04,-1.16 37.63,-4.2 77.31,2.78 109.31,23.69 10.86,7.05 20.73,15.59 29.41,25.2 14.71,0.44 29.43,0.91 44.09,2.33 6.89,0.76 13.88,1.4 20.54,3.46 7.84,3.12 16.33,3.81 24.58,5.2 25.23,3.45 50.58,6.53 76.05,7.27 2.32,-17.74 -1.87,-35.58 -7.52,-52.3 -10.69,-30.56 -27.82,-58.37 -46.47,-84.66 -5.25,-11.01 -9.99,-22.27 -15.02,-33.38zm-570.21 69.98l0 0c-28.42,27.43 -50.5,61.97 -60.76,100.29 -1.66,6.76 -3.9,13.56 -3.5,20.62 0.25,16.4 6.4,33.2 18.8,44.29 12.82,11.66 30.37,16.39 47.29,17.58 17.18,0.9 34.42,0.87 51.59,1.9 -7.99,3.84 -15.78,8.92 -20.75,16.42 1.64,3.22 4.01,6.02 6.79,8.32 9.95,8.19 23.04,11.13 35.59,12.33 -10.39,7.05 -21.28,13.52 -30.74,21.81 24.21,23.05 59.74,31.41 92.3,26.63 -1.11,13.57 -3,27.08 -5.57,40.46 -3.05,15.19 -6.76,30.39 -12.88,44.66 -37.11,67.62 -74.3,135.17 -111.46,202.76 4.54,12.12 11.51,23.16 19.02,33.64 12.11,16.66 26.33,31.69 41.59,45.49 25.93,23.37 54.89,43.2 85.09,60.63 54.77,31.45 113.67,55.15 173.7,74.47 38.82,-12.46 77.06,-26.81 114.11,-43.84 44.43,-20.49 87.41,-44.75 125.78,-75.25 23.11,-18.51 44.68,-39.29 61.9,-63.47 6.93,-9.9 13.35,-20.3 17.6,-31.67 -36.48,-66.29 -72.91,-132.62 -109.39,-198.91 -3.64,-6.11 -5.65,-13 -7.86,-19.71 -6.82,-22.51 -10.65,-45.85 -12.67,-69.26 32.57,4.81 68,-3.62 92.3,-26.55 -9.39,-8.4 -20.35,-14.82 -30.75,-21.88 5.97,-0.59 11.93,-1.5 17.7,-3.23 9.73,-2.91 19.68,-8.09 24.7,-17.34 -4.89,-7.69 -12.92,-12.57 -20.82,-16.68 9.98,-0.35 19.97,-0.63 29.97,-0.95 12.7,-0.48 25.58,-0.18 38.03,-3.15 13.42,-2.96 26.49,-9.34 35.53,-19.91 10.71,-12.41 15.18,-29.42 14.02,-45.59 -6.9,-37.47 -25.35,-72.3 -50.51,-100.71 -20.58,-23.1 -45.12,-42.85 -72.55,-57.23 22.3,31.35 42.75,65.01 52.75,102.5 3.91,15.93 6.47,33.04 1.86,49.11 -0.46,2.61 -3.83,1.61 -5.68,1.99 -22.63,-0.1 -45.16,-2.88 -67.6,-5.57 -14.17,-2.07 -28.66,-3.27 -42.16,-8.28 -20.73,-3.56 -41.87,-3.55 -62.84,-4.49 -7.77,-8.22 -15.77,-16.41 -25.12,-22.91 -31.57,-22.85 -72.34,-30.49 -110.57,-25.59 -2.88,0.28 -5.7,1.26 -8.61,1.09 -20.69,-3.65 -42.08,-3.27 -62.67,0.87 -29.64,5.89 -57.46,21.29 -77.39,44.1 -0.86,0.8 -1.47,1.97 -2.58,2.42 -20.93,0.96 -42.05,0.94 -62.75,4.5 -11.11,4.21 -22.99,5.55 -34.67,7.28 -21.5,2.88 -43.09,5.29 -64.76,6.4 -5.01,0.11 -10.11,0.6 -15.06,-0.34 -1.42,-1.21 -1.41,-3.58 -1.97,-5.32 -3.47,-17.7 0,-35.91 5.06,-52.94 10.75,-34.44 29.74,-65.62 50.59,-94.81 -21.7,11.24 -41.42,26.11 -59,43.02z"/>
   <path class="fil2" d="M58.37 103.27c15.45,-20.08 33.12,-38.43 52.04,-55.22 -13.8,19.74 -26.5,40.33 -36.73,62.15 -6.99,15.23 -13.19,31.17 -14.92,47.96 -1.02,10.51 0.38,22.15 7.65,30.33 2.66,3.29 6.47,5.21 9.81,7.68 11.38,11.84 27.23,18.52 43.27,20.91 -7.74,-7.83 -15.32,-15.88 -21.67,-24.91 21.58,-1.73 43.3,-2.69 64.68,-6.35 15.1,-3.82 30.74,-4.47 46.18,-5.89 15.07,-1.03 30.13,-2.11 45.23,-2.7 -0.67,8.51 -1.89,17.11 -5.04,25.1 -1.68,4.01 -4.04,8.35 -8.36,9.98 -4.55,1.74 -9.37,2.67 -14.13,3.67 -22.97,4.45 -46.24,7.12 -69.44,10.06 20.91,2.7 41.99,4.23 63.07,4.37 9.26,0.01 18.58,-0.31 27.72,-1.93 -1.18,1.72 -2.37,3.45 -3.54,5.18 -41.15,3.33 -82.41,5.43 -123.69,5.54 -21.94,-0.28 -44.06,-0.52 -65.71,-4.5 -4.64,-0.43 -8,-3.85 -11.25,-6.8 -11.04,-10.36 -17.78,-25.05 -18.64,-40.13 -1.01,-13.98 2.31,-27.91 7.54,-40.8 6.43,-15.75 15.65,-30.2 25.91,-43.7z"/>
   <path class="fil2" d="M690.81 48.11c11.41,9.82 21.92,20.65 32.22,31.63 14.49,15.88 27.97,32.87 38.31,51.78 9.3,17.13 16.25,36.41 14.92,56.18 -0.97,17.98 -10.43,35.46 -25.38,45.62 -7.52,2.68 -15.67,3.06 -23.55,3.99 -30.56,2.7 -61.29,2 -91.9,1.03 -26.2,-1.05 -52.4,-2.42 -78.52,-4.72 -1.14,-1.73 -2.33,-3.44 -3.5,-5.14 20.66,3.31 41.71,1.79 62.49,0.46 9.47,-0.78 18.94,-1.57 28.37,-2.82 -23.61,-3.16 -47.34,-5.72 -70.72,-10.39 -4.55,-1.01 -9.21,-1.86 -13.52,-3.69 -3.96,-1.81 -6.11,-5.9 -7.72,-9.72 -3.16,-7.98 -4.37,-16.58 -5.03,-25.09 19.15,0.82 38.29,2.13 57.4,3.69 10.99,1.14 22.11,1.83 32.84,4.67 21.74,3.9 43.87,4.79 65.84,6.58 -6.35,9.02 -13.93,17.08 -21.68,24.91 16.33,-2.38 32.28,-9.36 43.83,-21.35 5.7,-3.33 10.96,-7.82 13.69,-13.97 5.33,-11.64 3.74,-25 0.92,-37.08 -4.36,-17.63 -12.04,-34.24 -20.52,-50.23 -8.58,-16.04 -18.33,-31.44 -28.77,-46.33z"/>
   <path class="fil3" d="M291.88 327.17c7.3,4.6 14.55,9.38 21.07,15.08 6.68,5.59 10.4,13.69 14.34,21.26 -7.33,-4.1 -15.18,-7.43 -22.01,-12.27 -5.27,-7.53 -9.1,-15.97 -13.4,-24.07z"/>
   <path class="fil3" d="M486.05 341.01c6.34,-5.67 13.46,-10.4 20.67,-14.9 -4.12,7.7 -7.75,15.74 -12.77,22.91 -6.52,4.62 -14,7.79 -20.97,11.67 3.68,-6.94 7.03,-14.41 13.07,-19.68z"/>
   <path class="fil2" d="M344.78 465.43c4.69,-2.5 10.4,-1.19 14.74,1.45 9.32,5.63 18.53,11.76 28.93,15.21 3.9,1.38 8.06,1.54 12.16,1.12 11.53,1.52 21.83,-5.12 31.45,-10.49 6.71,-3.58 13.16,-10.01 21.4,-8.36 7.25,1.72 10.91,8.94 13.56,15.22 5.46,9.45 6.66,20.76 5.29,31.44 -1.6,12.93 -6.19,25.33 -12.2,36.83 14.41,-9.27 25.05,-23.62 31.42,-39.38 -0.51,22.43 -4.29,45.29 -14.82,65.33 -8.51,16.36 -22.02,30.17 -38.52,38.5 -11.97,6.02 -25.26,9.87 -38.71,10.04 -21.52,-1.3 -42.64,-10.37 -58.03,-25.53 -12.4,-12.09 -20.76,-27.84 -25.56,-44.37 -4.11,-14.22 -6.03,-29.04 -6.18,-43.84 6.3,15.75 16.98,30 31.33,39.25 -6.48,-12.42 -11.35,-25.92 -12.51,-39.96 -0.82,-9.75 0.71,-19.86 5.64,-28.41 2.36,-5.39 5.08,-11.24 10.59,-14.05zm-1.98 8.49l0 0c1.95,9.37 4.49,18.61 7.64,27.64 1.95,5.28 3.95,10.66 7.28,15.24 1.75,2.52 4.75,3.58 7.22,5.22 2.84,1.71 5.21,4.07 7.37,6.58 1.43,-7.79 2.39,-16 0.14,-23.73 -2.38,-7.24 -6.06,-13.95 -9.66,-20.64 1.01,3.68 2.76,7.17 3.02,11.04 -1.27,-0.71 -2.57,-1.34 -3.63,-2.32 -6.78,-6.01 -12.94,-12.68 -19.38,-19.03zm96.25 18.99l0 0c-1.09,0.98 -2.4,1.66 -3.68,2.34 0.29,-3.9 1.98,-7.45 3.14,-11.12 -3.54,6.26 -6.89,12.66 -9.36,19.43 -2.8,8.04 -1.8,16.78 -0.3,24.98 2.8,-3.28 6.15,-6.07 10,-8.06 5.05,-2.31 7.23,-7.78 9.4,-12.51 4.51,-10.97 7.64,-22.47 10.13,-34.04 -6.44,6.32 -12.57,12.98 -19.33,18.98zm-70.5 64l0 0c-13.36,5.97 -24.45,17.08 -29.51,30.9 16.65,-13.37 37.78,-23.21 59.57,-21 4.76,0.26 9.51,-0.72 14.28,-0.21 18.22,1.31 35.19,9.92 49.26,21.21 -1.95,-4.91 -4.43,-9.62 -7.66,-13.8 -9.92,-13.05 -25.66,-20.37 -41.5,-23.2 -14.97,-3.05 -30.63,-0.05 -44.44,6.09z"/>
   <path class="fil4" d="M285.61 147.87c35.09,-17.8 76.42,-24.68 114.98,-15.52 38.55,-9.16 79.88,-2.28 114.96,15.52 4.61,8.74 11,16.37 16.5,24.56 -9.43,-8.47 -21.38,-14.36 -34.11,-15.31 9.62,4.34 15.39,14.04 19.04,23.52 0.89,4.94 2.68,9.89 6.71,13.16 -1.83,4.67 -1.68,9.76 -0.64,14.59 -8.31,0.21 -15.71,5.44 -21.01,11.47 9.35,0.47 18.17,4.82 25.81,9.95 6.05,11.54 14.72,22.16 26.41,28.36 -3.94,9.6 -1.42,20.44 3.51,29.18 6.99,13.45 20.3,22.89 34.74,26.9 14.61,4.12 30.22,3 44.78,-0.78 4.41,-1.99 8.56,-4.56 13.15,-6.16 -11.31,-4.27 -21.83,-10.65 -30.71,-18.86 9.1,-0.57 18,-3.79 25.48,-8.97 2.4,-1.55 3.94,-4 4.93,-6.63l0.29 -0.63c-7.21,-6.16 -16.1,-9.84 -24.99,-12.8 -7.25,-2.36 -14.64,-4.39 -22.17,-5.61 3.22,-0.34 6.48,-0.39 9.73,-0.26 12.97,0.32 25.92,0.58 38.88,0.86 4.02,-0.04 7.82,1.47 11.39,3.17 7.81,3.77 14.92,8.78 21.97,13.79 -3.18,3.34 -7.62,4.98 -11.78,6.71 -11.71,4.47 -23.84,7.63 -36,10.57 10.34,9.58 22.13,17.43 33.72,25.39 -19.41,11.7 -41.62,19.32 -64.41,19.84 -5.49,0 -11.12,-0.01 -16.42,-1.62 -1.13,-2.86 1.82,-5.64 2.94,-8.21 -6.37,3.84 -11.6,10.28 -12.6,17.81 -0.5,2.99 -0.31,6.02 -0.14,9.03 -6.67,-12.77 -11.3,-26.49 -16.23,-39.99 -0.29,-1.87 -1.9,-0.25 -2.07,0.73 -6.44,12.32 -10.01,25.89 -13.33,39.32 -1.52,-4.38 -1.88,-9.12 -4,-13.29 0.13,-0.69 0.42,-2.04 0.56,-2.72 -0.51,0.05 -1.03,0.12 -1.52,0.21 0.4,5.94 -1.99,11.56 -3.73,17.12 -7.99,21.61 -21.5,40.74 -36.72,57.84 -2.43,-2.37 -2.94,-5.93 -4.64,-8.78 -6.09,-11.52 -17.46,-19.04 -28.98,-24.41 1.95,-3.05 3.41,-6.35 4.71,-9.71 8.11,-3.51 16.09,-7.39 23.66,-11.95 2.17,-1.22 3.7,-3.24 4.87,-5.39 4.44,-8.07 7.31,-16.86 10.59,-25.42 2.52,-4.18 6.94,-6.74 10.09,-10.38 -1.14,0.35 -2.27,0.72 -3.38,1.11l-0.3 -0.22c-2.3,-2.37 -5.63,-2.08 -8.65,-2.14 4.41,-7.28 10.04,-13.65 15.29,-20.32 -0.89,-0.26 -1.74,-0.5 -2.63,-0.71 -8.83,1.03 -17.15,4.27 -25.48,7.18 1.4,-17.75 -5.18,-35.56 -16.9,-48.82 -4.7,-5.17 -9.51,-11.25 -16.5,-13.19 -1.66,-0.28 -3.33,-0.43 -5,-0.64 8.32,13.02 13.01,28.37 13.79,43.78 0.92,21.19 -6.08,42.5 -18.74,59.46 0.08,-10.01 0.57,-20 0.56,-30.01 -9.29,13.99 -14.24,30.74 -14.14,47.54 -0.1,9.45 1.59,18.8 3.89,27.94 -6.15,-10.99 -9.12,-23.74 -7.78,-36.31 1.69,-17.13 7.02,-34.16 17.21,-48.2 -10.81,5.29 -16.92,16.47 -21.35,27.12 -8.35,20.86 -8.22,44.9 0.34,65.68 3.72,9.29 8.2,19.15 6.19,29.42 -2.31,12.6 -11.19,22.46 -19.41,31.74 8.42,-5.34 17.48,-11.32 27.89,-10.8 7.88,0.3 14.53,5.91 17.72,12.87 -3.87,-3.19 -8.41,-5.8 -13.53,-6.08 -7.94,-0.58 -16.02,1.73 -22.8,5.83 -8.08,7.28 -18.55,12.24 -29.55,12.44 -8,-0.15 -15.86,-2.82 -22.59,-7.1 -3.99,-2.42 -7.06,-6.27 -11.6,-7.77 -9.28,-4.15 -20.78,-5.36 -29.55,0.7 3.43,-5.97 9.5,-10.55 16.54,-10.87 10.19,-0.64 19.1,5.17 27.41,10.29 -8.04,-9.61 -17.17,-19.56 -18.97,-32.49 -1.8,-12.46 5.25,-23.55 8.84,-34.99 7.17,-22.54 4.8,-48.03 -6.79,-68.69 -3.93,-7.02 -9.15,-13.73 -16.59,-17.23 10.49,14.64 15.94,32.42 17.29,50.26 1.02,13.22 -2.88,26.51 -9.99,37.61 3.05,-11.57 5.45,-23.47 4.69,-35.52 -0.6,-15.39 -5.53,-30.52 -14,-43.37 -0.06,9.99 0.44,19.98 0.55,29.98 -13.8,-18.4 -20.86,-42.03 -18.34,-64.99 1.62,-13.54 6,-26.94 13.48,-38.38 -0.83,0.16 -1.66,0.34 -2.48,0.51 -2.85,0.38 -5.52,1.56 -7.73,3.39 -17.52,14.17 -29.41,36.6 -26.94,59.52 -9.18,-3.39 -18.47,-7.38 -28.39,-7.65l0.83 1.23c4.9,6.63 10.49,12.75 14.68,19.9 -3.29,-0.25 -6.9,-0.47 -9.25,2.3 -1.52,-0.43 -3.02,-0.88 -4.52,-1.31 3.35,3.51 7.69,6.23 10.27,10.41 3.27,8.57 6.14,17.37 10.6,25.43 1.16,2.16 2.72,4.17 4.9,5.38 7.57,4.6 15.6,8.39 23.69,12 1.23,3.47 2.83,6.78 4.76,9.91 -9.27,4.89 -18.66,10.51 -24.87,19.2 -3.44,4.48 -5.25,9.89 -7.7,14.92 -13.81,-15.04 -25.89,-31.87 -34.42,-50.48 -3.96,-8.43 -6.5,-17.44 -7.98,-26.63 0.01,3.54 0.17,7.18 -1.12,10.55 -1.09,3.31 -1.44,6.79 -2.02,10.22 -3.92,-15.32 -7.46,-31.1 -15.35,-44.95 -0.19,0.03 -0.6,0.11 -0.79,0.14 -5.11,13.72 -9.74,27.7 -16.53,40.72 1.73,-10.59 -3.36,-21.62 -12.75,-26.84 1.29,2.38 3,4.66 3.42,7.41 -1.4,1.95 -4.45,1.46 -6.6,2 -26.19,2.3 -52.4,-6.02 -74.69,-19.42 11.59,-7.96 23.36,-15.82 33.72,-25.38 -10.58,-2.53 -21.1,-5.31 -31.38,-8.87 -5.75,-2.05 -11.62,-4.21 -16.45,-8.07 6.19,-5.07 13.01,-9.36 20.05,-13.15 4.14,-2.09 8.54,-4.15 13.29,-4.14 14.01,-0.3 28.03,-0.58 42.04,-0.93 2.21,-0.05 4.42,0.16 6.62,0.45 -7.14,0.91 -14.05,2.96 -20.91,5.09 -9.38,3.07 -18.84,6.78 -26.35,13.36 0.51,0.29 1.54,0.87 2.04,1.16 0.86,2.37 2.26,4.54 4.43,5.91 7.49,5.2 16.42,8.48 25.56,8.95 -8.9,8.3 -19.55,14.58 -30.85,19.05 4.78,1.34 8.96,4.03 13.31,6.32 18.51,4.67 39.14,4.69 56.25,-4.65 13.25,-6.96 23.48,-19.6 26.82,-34.25 1.3,-5.55 0.75,-11.4 -1.26,-16.7 11.17,-6.01 19.86,-15.96 25.64,-27.14 0.82,-1.9 2.82,-2.7 4.48,-3.67 6.86,-3.66 14.13,-7.31 22.07,-7.48 -5.23,-6.08 -12.69,-11.25 -20.98,-11.49 1.05,-4.83 1.18,-9.91 -0.64,-14.58 4.03,-3.26 5.81,-8.21 6.7,-13.14 3.66,-9.44 9.35,-19.26 19.04,-23.46 -12.76,0.79 -24.79,6.78 -34.14,15.33 5.47,-8.25 11.92,-15.88 16.54,-24.66zm57.58 2.26l0 0c-5.91,2.48 -11.92,4.82 -17.47,8.07 -15.33,8.82 -27.86,22.68 -34.44,39.17 4.64,0.11 9.32,0.89 13.46,3.11 8.95,4.42 14.84,12.78 20.76,20.49 0.91,-10.14 5.37,-19.79 12.22,-27.28 9.88,-10.89 23.95,-17.17 38.21,-19.89 -17.21,-3.96 -35.41,-1.52 -51.68,5.04 7.41,-7.34 15.65,-13.86 24.58,-19.26 12.91,-7.73 28.52,-12.13 43.5,-8.93 -8.16,-2.27 -16.11,-5.8 -24.67,-6.11 -8.5,-0.41 -16.7,2.44 -24.47,5.59zm70.33 -0.41l0 0c6.61,-0.21 13.31,-0.24 19.76,1.47 17.42,4.25 32.16,15.48 44.85,27.71 -16.13,-6.61 -34.2,-8.98 -51.32,-5.22 10,2.4 19.95,5.78 28.41,11.8 11.81,8.06 20.47,21.18 21.58,35.62 3.53,-4.66 6.94,-9.47 11.15,-13.55 6.06,-6.14 14.38,-10.46 23.18,-10.1 -6.53,-16.06 -18.53,-29.71 -33.39,-38.55 -5.92,-3.61 -12.39,-6.15 -18.76,-8.81 -7.17,-2.9 -14.68,-5.55 -22.52,-5.56 -7.94,-0.04 -15.55,2.6 -22.94,5.21zm-77.1 104.08l0 0c-4.36,12.82 -5.79,26.66 -4.24,40.12 0.86,8.31 3.21,16.33 5.5,24.32 -0.21,-3.14 -0.68,-6.26 -0.94,-9.39 -0.9,-12.81 3.07,-25.74 10.53,-36.14 -1.93,-0.49 -4.01,-1.49 -4.19,-3.73 -1.07,-8.84 2.32,-17.39 3.06,-26.13 -5.41,0.89 -7.97,6.36 -9.71,10.95zm122.56 16.04l0 0c-0.44,1.9 -2.44,2.36 -4.04,2.82 9.66,12.91 12.74,29.9 9.48,45.58 5.34,-15.41 7.89,-32.06 5.3,-48.28 -1.26,-7.67 -2.7,-15.62 -6.85,-22.33 -1.4,-2.4 -3.8,-3.93 -6.28,-5.02 -0.4,9.1 4.41,18.07 2.39,27.23zm-199.85 42.84l0 0c3.27,23.06 12.02,45.07 22.91,65.55 2.33,4.7 4.45,9.59 7.9,13.6 1.5,1.66 3.49,3.43 5.92,3.1 2.84,-0.57 4.01,-3.56 5.4,-5.75 2.7,-5.13 7.74,-8.3 12.46,-11.34 -12.04,-4.38 -22.91,-11.94 -31.03,-21.86 -10.55,-12.78 -17.13,-28.18 -23.55,-43.3zm283.8 0.17l0 0c-7.17,17.79 -15.3,36 -29.31,49.53 -7.1,7 -15.93,11.85 -25.06,15.66 4.83,2.67 9.62,5.99 12.36,10.94 1.29,2.03 2.28,4.56 4.59,5.68 2.32,1.01 4.73,-0.56 6.29,-2.21 4.49,-4.84 6.75,-11.17 9.85,-16.9 9.1,-17.17 16.09,-35.52 20.18,-54.53 0.68,-2.68 1.09,-5.42 1.11,-8.18z"/>
   <path class="fil4" d="M227 409.37c-6.21,23.54 -12.72,47.02 -18.52,70.67 -4.68,19.41 -9.62,38.81 -12.49,58.58 -0.92,10.64 -1.56,21.3 -2.71,31.91 -0.91,10.54 -2.14,21.15 -1.03,31.72 0.55,5.8 3.04,11.14 5.05,16.55 7.35,18.76 15.55,37.23 25.22,54.93 4.41,8.51 10.04,16.29 14.71,24.63 3.01,7.07 7.51,13.36 11.62,19.82 4.31,6.11 8.31,12.55 13.5,17.98 -4.9,-10.24 -10.05,-20.39 -13.73,-31.17 -6.61,-18.89 -11.27,-38.69 -11.95,-58.74 6.11,17.28 14.69,33.72 25.47,48.53 -2.03,-5.89 -4.77,-11.52 -6.25,-17.59 -2.95,-11.28 -4.83,-22.87 -5.79,-34.49 6.71,12.58 14.88,24.76 26.42,33.39 15.72,30.68 32.58,60.89 52.35,89.18 11.91,16.71 24.6,33.29 40.88,46 -6.05,-1.96 -12.38,-3.34 -18.17,-5.94 -22.86,-23.04 -45.4,-46.44 -66.65,-70.98 -4.31,-4.76 -8.24,-9.86 -12.73,-14.45 4.72,8.95 7.56,18.68 11.62,27.91 5.14,10.68 10.86,21.07 16.7,31.38 2.24,4 5.04,7.66 8.06,11.11 -18.56,-7.04 -36.81,-14.99 -54.37,-24.24 -13.24,-7.12 -26.32,-14.95 -37.27,-25.36 -2.95,-2.55 -3.86,-6.5 -5.54,-9.86 -9.82,-21.42 -19.21,-43.07 -30.48,-63.77 6.26,3.06 12.47,6.3 19.08,8.57 -6.61,-7.5 -13.32,-14.99 -18.72,-23.43 -2.15,-3.4 -4.21,-7.01 -4.77,-11.05 -3.46,-22.71 -5.97,-45.65 -5.78,-68.66 0.31,-14.12 1.28,-28.76 7.62,-41.64 16.94,-40.2 32.68,-80.89 48.62,-121.5zm-16.35 265.42l0 0c4.76,12.58 10.35,24.84 15.33,37.33 -9.07,-6.5 -16.68,-14.82 -23.2,-23.83 1.59,5.2 3.76,10.23 5.24,15.49 3.99,13.73 12.81,25.4 22.18,35.95 12.81,14.03 28.76,25.97 47.49,30.54 -3.06,-4.4 -6.63,-8.39 -9.87,-12.64 -20.86,-26.32 -39.82,-54.09 -57.17,-82.84zm57.59 8.33l0 0c1.94,9.22 5.86,17.92 9.71,26.48 6.34,12.93 14.04,25.8 25.52,34.81 -4.26,-10.92 -10.07,-21.12 -15.77,-31.34 -5.63,-10.53 -14.22,-19.17 -19.47,-29.95z"/>
   <path class="fil4" d="M574.14 409.35c16.09,40.83 31.86,81.78 48.95,122.21 5.39,11.12 6.66,23.63 7.18,35.81 0.69,20.62 -1.22,41.24 -3.89,61.67 -1.19,6.48 -0.97,13.48 -4.29,19.38 -5.59,10.05 -13.42,18.6 -20.94,27.23 6.6,-2.28 12.8,-5.52 19.06,-8.57 -12.5,23.02 -22.76,47.16 -33.75,70.91 -0.98,1.66 -2.5,2.9 -3.89,4.23 -10.42,9.49 -22.58,16.79 -34.93,23.47 -17.11,9.09 -34.9,16.84 -52.97,23.82 3.44,-4.49 6.67,-9.14 9.28,-14.16 6.96,-12.8 14.48,-25.44 19.19,-39.29 1.91,-5.52 4.39,-10.8 6.83,-16.1 -20.71,23.83 -41.76,47.42 -63.99,69.86 -4.73,4.88 -9.71,9.53 -14.26,14.58 -6.33,3.27 -13.59,4.58 -20.34,6.89 13.77,-10.72 24.92,-24.33 35.29,-38.25 22.1,-30.26 40.61,-63 57.56,-96.37 1.55,-2.2 4.09,-3.43 5.99,-5.29 9.39,-8.61 16.06,-19.67 21.9,-30.85 -0.01,2.25 0.08,4.52 -0.23,6.77 -1.76,12.49 -3.48,25.08 -7.72,37.01 -1.29,3.56 -2.9,7 -4.17,10.57 10.99,-14.54 18.93,-31.1 25.68,-47.96 -1.02,20.91 -5.9,41.54 -13.12,61.13 -3.68,10.25 -8.7,19.92 -13.51,29.66 11.93,-14.99 22.89,-30.99 30.89,-48.44 5.98,-11.06 12.51,-21.83 17.78,-33.26 7.1,-14.79 13.5,-29.93 19.18,-45.31 2.58,-6.94 2.55,-14.47 2.33,-21.75 -0.55,-12.69 -2.22,-25.29 -3.13,-37.94 -0.7,-18.82 -5.58,-37.13 -9.66,-55.42 -6.82,-28.9 -14.65,-57.56 -22.32,-86.25zm17.19 265.59l0 0c-19.51,33.61 -42.52,65.06 -66.81,95.36 21.37,-5.21 39,-19.84 52.73,-36.49 6.7,-8.5 13.16,-17.54 16.38,-28.01 1.85,-5.93 3.92,-11.77 6.02,-17.6 -6.62,9.05 -14.27,17.42 -23.36,24.03 3.75,-9.19 7.63,-18.33 11.43,-27.5 1.28,-3.23 2.95,-6.34 3.6,-9.78zm-71.27 29.38l0 0c-3.65,5.09 -6.48,10.68 -9.55,16.12 -4.22,7.81 -8.47,15.64 -11.65,23.94 7.57,-5.7 13.24,-13.52 18.29,-21.45 7.86,-12.96 13.83,-27.08 17.71,-41.73 -3.54,8.53 -9.54,15.63 -14.79,23.12z"/>
   <path class="fil4" d="M246.81 466.8c0.69,-6.57 1.24,-13.15 2.54,-19.64 0.96,39.8 10.23,80.07 30.78,114.46 3.52,6.17 8,11.72 12.14,17.44 3.57,31.35 17.21,60.35 31.56,88.05 -6.5,-7.43 -12.44,-15.33 -18.95,-22.75 1.63,10.43 6.18,20.1 10.55,29.61 15.2,31.38 33.77,60.98 52.5,90.33 0.27,0.53 0.79,1.59 1.06,2.12 -24.1,-20.86 -41.62,-48.06 -56.86,-75.76 -19.99,-37.16 -35.7,-76.51 -48.62,-116.63 -1.42,-3.96 -2.19,-8.14 -3.97,-11.94 -2.43,11.98 -0.78,24.29 0.13,36.36 -7.28,-17.01 -10.9,-35.35 -12.97,-53.65 -2.79,-25.9 -2.32,-52.07 0.11,-77.99zm18.79 86.09l0 0c-1,3 -1.36,6.19 -0.7,9.3 1.82,9.86 6.35,18.92 10.31,28.05 6.56,16.53 13.22,33.05 21.32,48.9 -4.7,-13.69 -6.89,-28.02 -10.49,-41.99 -3.54,-12.77 -7.99,-25.43 -14.72,-36.9 -1.75,-2.55 -3.02,-5.65 -5.71,-7.37z"/>
   <path class="fil4" d="M530.02 544.83c14.29,-30.44 20.93,-64.08 21.86,-97.58 3.86,24.83 5.04,50.06 4.23,75.16 -1.14,25.81 -4.45,52.04 -14.6,76.01 0.87,-12.12 2.69,-24.53 0.01,-36.52 -12.25,39.78 -27.05,78.87 -45.82,116.06 -12.7,24.94 -27.13,49.24 -45.49,70.47 -5.59,6.41 -11.54,12.54 -18.06,18 4.18,-7.66 9.38,-14.73 13.85,-22.23 10.32,-16.55 20.35,-33.29 29.65,-50.44 5.93,-11.07 11.68,-22.27 16.27,-33.98 1.92,-4.98 3.6,-10.08 4.37,-15.38 -6.5,7.4 -12.46,15.26 -18.9,22.71 14.24,-27.72 27.96,-56.67 31.5,-88 8.22,-10.6 15.49,-22.05 21.11,-34.27zm2.11 13.61l0 0c-6.15,9.76 -10.25,20.64 -13.77,31.58 -3.96,12.4 -5.89,25.31 -9.19,37.88 -0.89,3.49 -2.22,6.87 -2.73,10.45 9.89,-20.39 17.84,-41.63 26.84,-62.41 2.62,-7.28 6.19,-15.33 3.42,-23.09 -2.04,1.38 -3.25,3.58 -4.57,5.6z"/>
   <path class="fil4" d="M139.49 534.14c13.52,-23.28 27.31,-46.41 41.35,-69.37 -9.46,21.53 -14.3,44.69 -19.73,67.46 -18.4,35.49 -37.29,70.75 -55.79,106.2 -0.2,0.96 -1.64,2.63 -2.1,0.74 -1.57,-3.11 -3.01,-6.29 -4.7,-9.34 5.84,-12.25 11.98,-24.36 18.17,-36.44 2.95,-7.64 2.34,-16.07 3.74,-23.97 5.45,-12.22 12.5,-23.65 19.05,-35.28z"/>
   <path class="fil4" d="M620.32 464.76c17.38,28.51 34.55,57.14 50.95,86.23 3.38,6.34 7.21,12.52 9.74,19.27 0.82,7.48 0.82,15.19 3.17,22.42 6.19,12.36 12.54,24.65 18.49,37.15 -1.87,3.29 -3.32,6.8 -5.14,10.12 -0.19,0.02 -0.58,0.06 -0.78,0.08 -18.9,-35.92 -37.97,-71.78 -56.69,-107.79 -5.43,-22.76 -10.25,-45.94 -19.73,-67.46z"/>
   <path class="fil4" d="M133.09 614.57c-0.08,16.26 5.1,31.94 10.29,47.16 4.37,12.29 9.43,24.32 14.88,36.18 -8.67,-8.45 -17.11,-17.13 -25.54,-25.8 -4.39,-4.66 -8.98,-9.15 -12.9,-14.22 3.99,-14.57 8.51,-28.99 13.27,-43.32z"/>
   <path class="fil4" d="M668.09 614.65c4.79,14.29 9.26,28.69 13.26,43.23 -5.95,7.48 -12.9,14.11 -19.48,21.01 -6.31,6.32 -12.43,12.81 -18.95,18.92 7.42,-16.02 14.07,-32.44 19.22,-49.34 3.23,-10.99 6.09,-22.28 5.94,-33.81z"/>
   <path class="fil5" d="M343.2 150.13c7.77,-3.15 15.96,-6 24.47,-5.59 8.57,0.32 16.52,3.85 24.67,6.11 -14.98,-3.2 -30.59,1.2 -43.5,8.93 -8.93,5.4 -17.17,11.92 -24.58,19.26 16.27,-6.56 34.47,-9 51.68,-5.04 -14.26,2.72 -28.33,9 -38.21,19.89 -6.85,7.49 -11.31,17.14 -12.22,27.28 -5.92,-7.7 -11.82,-16.07 -20.76,-20.49 -4.13,-2.22 -8.82,-3 -13.46,-3.11 6.58,-16.49 19.11,-30.35 34.44,-39.17 5.55,-3.25 11.56,-5.59 17.47,-8.07z"/>
   <path class="fil5" d="M413.53 149.72c7.39,-2.62 15,-5.25 22.94,-5.21 7.84,0.01 15.35,2.66 22.52,5.56 6.37,2.67 12.84,5.2 18.76,8.81 14.86,8.84 26.86,22.5 33.39,38.55 -8.8,-0.36 -17.12,3.96 -23.18,10.1 -4.22,4.08 -7.62,8.89 -11.15,13.55 -1.12,-14.43 -9.78,-27.56 -21.58,-35.62 -8.45,-6.02 -18.4,-9.4 -28.41,-11.8 17.12,-3.75 35.2,-1.38 51.32,5.22 -12.69,-12.23 -27.43,-23.46 -44.85,-27.71 -6.45,-1.7 -13.15,-1.67 -19.76,-1.47z"/>
   <path class="fil5" d="M336.44 253.79c1.74,-4.59 4.31,-10.05 9.71,-10.95 -0.74,8.74 -4.12,17.29 -3.06,26.13 0.17,2.25 2.26,3.24 4.19,3.73 -7.46,10.4 -11.43,23.33 -10.53,36.14 0.27,3.13 0.74,6.25 0.94,9.39 -2.29,-7.99 -4.64,-16.01 -5.5,-24.32 -1.55,-13.46 -0.12,-27.3 4.24,-40.12z"/>
   <path class="fil5" d="M459 269.84c2.02,-9.16 -2.79,-18.13 -2.39,-27.23 2.48,1.09 4.88,2.62 6.28,5.02 4.15,6.71 5.59,14.66 6.85,22.33 2.58,16.22 0.04,32.87 -5.3,48.28 3.26,-15.68 0.18,-32.67 -9.48,-45.58 1.6,-0.46 3.6,-0.92 4.04,-2.82z"/>
   <path class="fil5" d="M433.75 327.69c4.43,-10.66 10.54,-21.83 21.35,-27.12 -10.2,14.03 -15.52,31.06 -17.21,48.2 -1.34,12.57 1.63,25.32 7.78,36.31 1.19,2.6 1.66,5.51 3.29,7.91 13.72,19.51 20.85,43.51 20.34,67.33 -0.98,-1.21 -2.05,-2.36 -2.82,-3.7 -3.19,-6.97 -9.84,-12.58 -17.72,-12.87 -10.41,-0.51 -19.47,5.46 -27.89,10.8 8.22,-9.28 17.1,-19.14 19.41,-31.74 2.01,-10.27 -2.46,-20.13 -6.19,-29.42 -8.56,-20.77 -8.69,-44.82 -0.34,-65.68z"/>
   <path class="fil5" d="M347.31 300.63c7.44,3.51 12.66,10.22 16.59,17.23 11.59,20.66 13.96,46.15 6.79,68.69 -3.59,11.44 -10.64,22.53 -8.84,34.99 1.8,12.93 10.93,22.88 18.97,32.49 -8.31,-5.12 -17.22,-10.93 -27.41,-10.29 -7.04,0.33 -13.11,4.9 -16.54,10.87 -1.61,1.94 -3.46,3.68 -5.05,5.64 -0.35,-23.34 6.35,-46.89 19.65,-66.15 1.23,-1.76 2.1,-3.74 3.14,-5.62 7.11,-11.1 11.01,-24.39 9.99,-37.61 -1.34,-17.84 -6.79,-35.62 -17.29,-50.26z"/>
   <path class="fil5" d="M259.15 312.68c6.42,15.12 13.01,30.52 23.55,43.3 8.13,9.92 18.99,17.48 31.03,21.86 -4.73,3.04 -9.77,6.21 -12.46,11.34 -1.38,2.2 -2.55,5.18 -5.4,5.75 -2.43,0.33 -4.42,-1.44 -5.92,-3.1 -3.45,-4.01 -5.57,-8.9 -7.9,-13.6 -10.88,-20.49 -19.64,-42.49 -22.91,-65.55z"/>
   <path class="fil5" d="M542.95 312.85c-0.02,2.76 -0.43,5.5 -1.11,8.18 -4.09,19.01 -11.08,37.35 -20.18,54.53 -3.1,5.72 -5.36,12.05 -9.85,16.9 -1.56,1.64 -3.97,3.21 -6.29,2.21 -2.31,-1.13 -3.29,-3.65 -4.59,-5.68 -2.74,-4.94 -7.53,-8.27 -12.36,-10.94 9.13,-3.81 17.96,-8.66 25.06,-15.66 14.01,-13.53 22.14,-31.74 29.31,-49.53z"/>
   <path class="fil5" d="M265.6 552.89c2.7,1.71 3.96,4.81 5.71,7.37 6.73,11.47 11.18,24.13 14.72,36.9 3.6,13.97 5.8,28.3 10.49,41.99 -8.09,-15.85 -14.76,-32.38 -21.32,-48.9 -3.96,-9.13 -8.49,-18.19 -10.31,-28.05 -0.67,-3.12 -0.3,-6.31 0.7,-9.3z"/>
   <path class="fil5" d="M532.13 558.44c1.31,-2.02 2.52,-4.22 4.57,-5.6 2.77,7.77 -0.8,15.81 -3.42,23.09 -9,20.78 -16.95,42.02 -26.84,62.41 0.51,-3.58 1.84,-6.97 2.73,-10.45 3.3,-12.57 5.23,-25.47 9.19,-37.88 3.52,-10.94 7.61,-21.82 13.77,-31.58z"/>
   <path class="fil5" d="M210.64 674.78c17.35,28.75 36.32,56.52 57.17,82.84 3.24,4.25 6.81,8.24 9.87,12.64 -18.73,-4.58 -34.67,-16.51 -47.49,-30.54 -9.37,-10.55 -18.19,-22.22 -22.18,-35.95 -1.48,-5.26 -3.65,-10.29 -5.24,-15.49 6.51,9.01 14.13,17.33 23.2,23.83 -4.98,-12.5 -10.57,-24.75 -15.33,-37.33z"/>
   <path class="fil5" d="M591.34 674.94c-0.65,3.44 -2.32,6.54 -3.6,9.78 -3.8,9.17 -7.67,18.31 -11.43,27.5 9.09,-6.61 16.74,-14.98 23.36,-24.03 -2.1,5.84 -4.18,11.67 -6.02,17.6 -3.22,10.46 -9.68,19.5 -16.38,28.01 -13.73,16.65 -31.36,31.28 -52.73,36.49 24.28,-30.29 47.29,-61.75 66.81,-95.36z"/>
   <path class="fil5" d="M520.07 704.32c5.25,-7.49 11.25,-14.6 14.79,-23.12 -3.88,14.65 -9.85,28.78 -17.71,41.73 -5.05,7.93 -10.72,15.75 -18.29,21.45 3.18,-8.3 7.44,-16.14 11.65,-23.94 3.07,-5.44 5.9,-11.03 9.55,-16.12z"/>
   <path class="fil5" d="M268.24 683.12c5.25,10.77 13.84,19.42 19.47,29.95 5.69,10.22 11.51,20.43 15.77,31.34 -11.48,-9.01 -19.18,-21.88 -25.52,-34.81 -3.86,-8.56 -7.78,-17.26 -9.71,-26.48z"/>
   <path class="fil6" d="M330.76 240.11c2.22,-1.83 4.88,-3.01 7.73,-3.39 -0.83,2.06 -2.6,3.45 -4.08,5.02 -11.8,12.53 -19.36,29.25 -19.86,46.54 -0.33,5.43 0.59,10.81 0.9,16.23 -3.86,-1.69 -7.72,-3.33 -11.63,-4.88 -2.47,-22.92 9.42,-45.35 26.94,-59.52z"/>
   <path class="fil6" d="M462.18 236.92c0.78,0.01 2.34,0.05 3.12,0.06 6.99,1.94 11.8,8.02 16.5,13.19 11.72,13.26 18.29,31.07 16.9,48.82l-0.01 0.26c-4.43,1.48 -8.69,3.41 -12.98,5.26 0.75,-8.08 1.58,-16.25 0.15,-24.31 -2.42,-16.71 -11.63,-31.73 -23.68,-43.28z"/>
   <path class="fil6" d="M584.37 276.59c21.83,4.38 44.36,1.44 65.78,-3.72 -1,2.63 -2.53,5.08 -4.93,6.63 -7.48,5.18 -16.38,8.39 -25.48,8.97 8.87,8.21 19.4,14.59 30.71,18.86 -4.6,1.6 -8.74,4.17 -13.15,6.16 -4.07,-2.78 -8.85,-4.23 -13.11,-6.67 -14.72,-7.83 -29.19,-17.16 -39.8,-30.21z"/>
   <path class="fil6" d="M152.65 273.55c21.03,4.26 42.88,7.48 64.18,3.04 -4.65,6.04 -10.55,10.99 -16.55,15.63 -10.82,8.15 -22.69,14.91 -35.18,20.12 0,0.36 0,1.08 0,1.44 -4.35,-2.29 -8.53,-4.98 -13.31,-6.32 11.29,-4.47 21.94,-10.75 30.85,-19.05 -9.14,-0.46 -18.08,-3.74 -25.56,-8.95 -2.18,-1.36 -3.57,-3.54 -4.43,-5.91z"/>
   <path class="fil6" d="M524.17 291.81c0.88,0.21 1.73,0.45 2.63,0.71 -5.24,6.67 -10.87,13.04 -15.29,20.32 3.02,0.06 6.35,-0.23 8.65,2.14 -9.84,3.91 -19.64,8.15 -28.27,14.35 -7.47,5.02 -13.87,11.37 -19.91,17.98 3.92,-12.09 12.85,-21.74 21.77,-30.46 7.78,-7.36 16.21,-14.01 25.04,-20.05 1.97,-1.46 4.61,-2.44 5.39,-5.01z"/>
   <path class="fil6" d="M276.27 293.21c3.99,1.71 7.35,4.52 10.89,6.97 12.32,9.03 24.14,19.04 33.43,31.26 3.51,4.84 6.92,9.97 8.54,15.81 -12.68,-14.55 -29.19,-25.86 -47.63,-31.69l0.19 -0.14c2.35,-2.77 5.96,-2.54 9.25,-2.3 -4.19,-7.15 -9.78,-13.28 -14.68,-19.9z"/>
   <path class="fil6" d="M544.94 337.68c2.12,4.17 2.48,8.9 4,13.29 -1.36,5.79 -2.82,11.61 -3.86,17.5 -2.19,13.23 -8.63,25.27 -15.76,36.46 -2.06,3.03 -3.85,6.33 -6.62,8.79 0.68,-2.77 1.67,-5.45 2.58,-8.15 -8.52,8.15 -13.63,19.17 -17.44,30.16 -1.99,5.2 -2.32,11.06 -5.56,15.73 -6.22,9.46 -12.49,18.93 -19.42,27.87 5.73,-19.59 8.11,-40.55 3.96,-60.69 -2.98,-14.34 -9.04,-28.35 -18.95,-39.27 0.67,-0.83 1.34,-1.64 2.04,-2.43 11.52,5.37 22.89,12.88 28.98,24.41 1.69,2.85 2.21,6.41 4.64,8.78 -0.73,0.79 -1.47,1.57 -2.17,2.38 9.29,-4.33 17.22,-11.25 23.78,-19.06 12.95,-15.54 18.54,-35.9 19.8,-55.77z"/>
   <path class="fil6" d="M255.3 344.78c0.32,-0.57 0.96,-1.71 1.28,-2.29 1.52,14.4 5.3,28.76 12.62,41.34 7.08,12.3 17.71,22.7 30.61,28.72 -0.25,-0.31 -0.75,-0.91 -1,-1.21 2.45,-5.03 4.27,-10.43 7.7,-14.92 6.21,-8.7 15.59,-14.31 24.87,-19.2l0.3 -0.15c0.49,0.8 0.98,1.6 1.49,2.41 -11.68,13.06 -18.06,30.19 -20.16,47.43 -2.14,17.6 0.36,35.45 5.28,52.4 -7.55,-9.99 -14.85,-20.28 -21.2,-31.08 -4.34,-15.23 -9.43,-31.32 -21.16,-42.61 0.87,2.7 1.87,5.36 2.52,8.11 -1.04,-1.03 -2.09,-2.05 -2.9,-3.26 -5.87,-8.49 -11.21,-17.41 -15.15,-26.97 -3.89,-9.07 -4.82,-19.01 -7.12,-28.5 0.58,-3.43 0.93,-6.9 2.02,-10.22z"/>
   <path class="fil6" d="M221.96 643.32c-7.02,-26.78 -9.59,-55.9 -0.22,-82.43 6.76,28.09 15.17,56.02 28.38,81.81 0.95,11.62 2.83,23.21 5.79,34.49 1.48,6.07 4.22,11.71 6.25,17.59 -10.78,-14.81 -19.36,-31.26 -25.47,-48.53 0.68,20.06 5.35,39.86 11.95,58.74 3.67,10.77 8.82,20.93 13.73,31.17 -5.19,-5.44 -9.19,-11.87 -13.5,-17.98 -4.11,-6.46 -8.62,-12.75 -11.62,-19.82 2.98,2.04 4.6,5.44 7.38,7.71 -8.06,-20.72 -17.29,-41.11 -22.65,-62.75z"/>
   <path class="fil6" d="M579.42 560.89c8,22.44 7.28,47.03 2.66,70.12 -5,26.1 -15.79,50.49 -25.51,75.07 5.38,-4.85 8.62,-11.48 13.41,-16.81 -8,17.45 -18.96,33.45 -30.89,48.44 4.81,-9.74 9.83,-19.41 13.51,-29.66 7.22,-19.59 12.11,-40.22 13.12,-61.13 -6.75,16.86 -14.69,33.42 -25.68,47.96 1.26,-3.57 2.87,-7.01 4.17,-10.57 4.25,-11.93 5.96,-24.53 7.72,-37.01 0.31,-2.25 0.22,-4.52 0.23,-6.77 12.58,-25.19 20.71,-52.34 27.27,-79.64z"/>
   <path class="fil6" d="M272.22 719.9c4.49,4.6 8.42,9.69 12.73,14.45 21.26,24.54 43.8,47.94 66.65,70.98 -14.6,-4.14 -28.86,-9.57 -42.99,-15.03 -3.03,-3.45 -5.83,-7.11 -8.06,-11.11 -5.84,-10.31 -11.56,-20.7 -16.7,-31.38 -4.06,-9.23 -6.9,-18.97 -11.62,-27.91z"/>
   <path class="fil6" d="M466.01 789.83c22.23,-22.45 43.28,-46.03 63.99,-69.86 -2.44,5.29 -4.92,10.58 -6.83,16.1 -4.72,13.85 -12.24,26.49 -19.19,39.29 -2.62,5.02 -5.85,9.66 -9.28,14.16l-0.21 0.28c-12.97,4.71 -25.87,9.61 -38.99,13.9 -1.24,0.3 -2.49,0.53 -3.74,0.72 4.55,-5.05 9.53,-9.69 14.26,-14.58z"/>
  </g>
 </g>
</svg>
