<?xml version="1.0" encoding="UTF-8"?>
<!DOCTYPE svg PUBLIC "-//W3C//DTD SVG 1.1//EN" "http://www.w3.org/Graphics/SVG/1.1/DTD/svg11.dtd">
<!-- Creator: CorelDRAW 2018 (64-Bit) -->
<svg xmlns="http://www.w3.org/2000/svg" xml:space="preserve" width="7.20486in" height="8.23831in" version="1.1" style="shape-rendering:geometricPrecision; text-rendering:geometricPrecision; image-rendering:optimizeQuality; fill-rule:evenodd; clip-rule:evenodd"
viewBox="0 0 4834.43 5527.87"
 xmlns:xlink="http://www.w3.org/1999/xlink">
 <defs>
  <style type="text/css">
   <![CDATA[
    .fil3 {fill:#FEFEFE}
    .fil1 {fill:#1F2351;fill-rule:nonzero}
    .fil0 {fill:#C5B699;fill-rule:nonzero}
    .fil2 {fill:#D04646;fill-rule:nonzero}
   ]]>
  </style>
 </defs>
 <g id="Layer_x0020_1">
  <metadata id="CorelCorpID_0Corel-Layer"/>
  <g id="_1008357136">
   <path class="fil0" d="M2939.75 0c5.25,9.14 10.43,18.33 16.3,27.19 16.3,19.52 33.23,38.71 47.53,59.43 28.98,31.97 52.21,67.64 80.76,99.94 10.62,13.92 23.17,26.86 31.35,42.09 2.37,1.63 7,5 9.31,6.63 6.56,19.9 29.11,32.36 35.29,52.75 8.68,14.19 20.05,27.84 24.42,43.55 12.8,21.26 22.11,43.99 29.73,66.77 13.86,4.08 19.36,-9.08 27.85,-15.5 47.41,-37.3 105.37,-69.71 170.89,-72.75 55.77,-5.28 111.36,15.88 151.34,48.99 46.59,36.92 80.88,85.48 96.68,138.6 5.68,31.05 4.75,63.29 -1.87,94.18 -13.18,-21.92 -29.54,-44.05 -55.84,-55.41 -6.68,-1.47 -13.18,-3.05 -19.68,-4.89 -24.04,-2.72 -46.66,4.73 -68.7,12.01 -14.99,8.81 -31.54,17.35 -39.48,32.19 -3.62,5.22 -7.18,10.44 -10.74,15.61 -1.06,3.04 -3.18,9.13 -4.25,12.18 -10.68,27.46 -23.61,55.03 -23.73,84.55 12.99,0.76 22.92,-7.29 35.23,-9.02 43.97,-22.78 95.5,-35.18 146.71,-36.65 2.37,-0.92 7.12,-2.77 9.49,-3.7 8.56,-0.22 17.43,-0.54 25.3,3.32 31.29,0.76 63.02,2.99 93.25,10.33 14.24,4.4 29.11,7.07 44.22,8.54 16.43,7.67 33.1,14.95 50.09,21.64 32.67,18.16 61.9,40.89 88.94,65.14 10.43,9.3 16.24,22.13 29.35,29.2 8.93,12.51 17.92,25.01 24.92,38.44 5.93,6.25 12.37,12.61 13.49,21.1 1.06,2.99 3.06,9.08 4.06,12.13 9.74,5.98 9.43,17.4 13.43,26.21 28.23,59.49 30.73,124.85 34.91,188.36 34.29,-1.31 55.96,-32.52 90.07,-35.18 17.61,-14.41 41.35,-20.12 62.58,-29.09 45.03,-19.08 90.19,-38.33 137.47,-52.85 15.86,-7.23 31.85,-16.09 50.28,-16.75 13.12,-10.6 31.98,-11.36 47.34,-18.71 18.11,-2.67 33.73,-14.52 52.4,-13.7 57.71,-23.49 121.67,-32.41 184,-41.71 53.28,-2.61 106.68,0.11 159.96,-1.57 -28.17,113.75 -54.09,228.97 -107.43,336.36 -15.49,35.89 -36.98,69.6 -57.02,103.7 -8,13.27 -17.93,25.5 -26.42,38.5 -10.49,17.35 -26.6,31.48 -37.72,48.5 -11.68,20.61 -35.97,32.52 -47.28,53.23 -35.91,28.87 -67.21,62.37 -105.93,88.53 -22.49,21.37 -55.71,31.7 -77.45,53.94 0.06,5.28 0.62,10.6 1.56,15.88 16.61,45.46 25.29,92.87 40.41,138.77 10.31,44.75 25.29,88.58 35.35,133.33 13.8,30.78 50.65,48.56 64.96,79.39 1.75,1.96 5.37,5.98 7.18,7.94 7.62,14.19 20.99,26.81 21.49,43.17 17.18,27.35 18.43,59.81 22.05,90.21 -6.56,60.03 -19.99,120.33 -45.91,176.45 -4,21.1 -18.05,39.48 -24.11,60.14 -8.99,16.2 -18.11,32.3 -27.23,48.45 -19.93,37.3 -40.1,75.37 -68.02,108.7 -6.81,18.92 -23.42,32.79 -34.41,49.54 -15.55,25.61 -38.97,46.98 -56.28,71.18 -10.55,14.57 -28.48,25.45 -33.04,42.85 -2.5,-0.92 -7.5,-2.83 -9.99,-3.75 6.43,12.29 -8.93,17.35 -16.93,24.52 -10.24,20.56 -37.66,29.91 -47.84,50.62 -13.37,12.78 -27.61,24.85 -41.85,36.98 0.19,2.61 0.56,7.83 0.81,10.44 6.68,7.94 5.12,18.16 7,27.41 4.31,6.63 5.12,14.3 6.56,21.8 4.06,6.74 5.06,14.3 6.5,21.8 3,6.91 4.5,14.19 6,21.53 5.06,8.43 4.87,18.11 5.93,27.41 2.12,5.33 4.37,10.71 6.74,16.1 5.62,10.17 4.25,21.69 5.31,32.68 2.69,5.33 5.18,10.88 7.43,16.48 4.06,8.59 4.06,17.94 5.31,27.08 18.49,64.76 32.42,130.83 51.71,195.59 3,10.88 4.44,22.08 5.56,33.28 19.49,61.39 35.79,124.03 49.15,186.78 -57.9,7.34 -113.74,24.25 -170.95,34.91 -52.15,10.66 -103.37,25.17 -155.71,33.87 -3.43,19.47 8.43,36.6 14.8,54.54 6.18,12.67 19.11,23.93 18.92,38.28 6.18,6.14 14.43,12.23 12.12,21.48 22.99,23.22 39.04,51.28 60.77,75.63 3,6.09 5.93,12.18 9,18.33 1.31,0.54 3.87,1.63 5.18,2.12 25.8,53.56 33.98,114.57 13.43,170.52 -1.19,11.25 -6.25,21.75 -11.49,31.97 -2.62,15.6 -11.81,29.36 -19.55,43.34 -28.92,50.57 -66.96,96.57 -108.43,139.8 -25.23,28.65 -57.71,51.49 -85.94,77.76 -22.05,20.94 -48.91,37.19 -73.26,55.9 -25.48,20.28 -61.27,27.89 -94.63,31.97 -16.18,1.58 -24.42,15.44 -37.85,21.8 -28.04,26.59 -64.58,44.91 -97.75,66.28 -7.12,3.59 -12.99,11.15 -22.42,8.92 -2.56,2.34 -7.68,6.96 -10.24,9.25 -14.62,6.36 -28.98,13.32 -44.16,18.7 -24.17,8.54 -49.22,15.34 -74.64,20.34 -109.49,26.21 -226.54,15.99 -333.22,-15.55 -9.62,-4.73 -19.36,-9.35 -30.23,-11.15 -21.98,-9.19 -40.16,-26.15 -63.27,-31.81 -4.93,-5.6 -8.99,-13.05 -18.55,-11.96 -34.23,-22.3 -67.64,-45.3 -98.12,-71.4 -6.5,-1.25 -12.93,-2.5 -19.24,-3.75 -45.66,1.96 -84.45,-22.57 -120.86,-41.49 -11.18,-10.12 -23.98,-21.1 -41.22,-21.26 -29.42,29.58 -63.52,55.41 -94.31,83.9 -1.06,2.07 -3.13,6.25 -4.19,8.37 -17.18,5 -30.48,19.19 -36.66,33.82 -3.25,-0.16 -9.81,-0.44 -13.12,-0.6 0.94,2.01 2.87,5.98 3.81,7.99 -24.11,16.7 -41.41,39.42 -65.33,56.33 -10.87,20.34 -33.91,32.13 -48.47,50.03 -30.04,31.37 -61.27,61.88 -89.69,94.45 -21.55,23.38 -41.97,47.58 -64.02,70.58 -3.19,9.73 -13.3,15.5 -21.55,21.91l2.75 4.78c-19.74,15.99 -32.23,37.25 -49.47,55.09 -11.18,15.17 -26.11,28.16 -35.73,44.21 -8.68,11.09 -17.61,22.08 -28.67,31.54 0.56,13.21 -15.43,21.32 -21.68,32.57 -20.67,24.52 -35.22,52.74 -57.77,76.07 -7.18,18.92 -24.86,32.46 -35.79,49.59 -6.31,13.38 -16.55,25.07 -23.17,38.39 -5.62,7.07 -11.12,14.19 -17.11,21.04 -12.8,22.68 -24.42,46.44 -43.91,65.47 -7.37,10.33 -12.93,21.53 -19.24,32.41 -4.87,9.63 -10.49,19.03 -18.11,27.3 -2.69,10.22 -9.68,18.76 -15.99,27.57 -3.31,5.22 -6.56,10.49 -9.81,15.82 -6.12,9.03 -12.87,17.78 -18.93,26.86 -2.62,5.76 -5.31,11.47 -7.99,17.29 -38.85,66.77 -77.51,133.6 -115.42,200.75 -18.24,36.65 -36.1,73.57 -57.52,108.91 -0.69,2.77 -2,8.32 -2.69,11.1 -5.43,8.64 -10.62,17.45 -15.8,26.32 -3.69,10.6 -7.81,21.15 -12.24,31.59 -0.62,-78.57 -15.55,-156.71 -16.36,-235.45 -6.5,-28.87 -4.93,-58.34 -7.31,-87.54 -5.37,-32.79 -4.93,-65.96 -5.06,-98.97 -11.49,-27.35 -3.94,-58.45 -5.87,-87.27 -7.87,-6.53 -4.81,-16.37 -5.56,-24.47 0.06,-19.14 0.25,-38.23 -0.75,-57.26 -1.75,-2.93 -5.25,-8.75 -7,-11.69 -10.93,-16.69 -25.36,-31.38 -36.35,-47.9 -5,-11.04 -16.43,-18.27 -24.73,-27.19 -8.81,-16.37 -24.67,-29.42 -37.73,-43.39 -3.37,-11.15 -15.86,-16.97 -24.23,-25.01 -13.99,-10.55 -20.49,-28.6 -39.6,-33.49 0.38,-1.96 1.25,-5.82 1.69,-7.72 -16.49,-1.74 -26.11,-15.88 -39.73,-22.73 -3.25,0.22 -9.74,0.76 -12.99,0.98 -41.03,13.38 -84.44,20.94 -127.85,25.34 -62.08,10.44 -125.66,4.08 -187.37,-5.55 -24.55,-4.68 -49.34,-9.24 -72.02,-19.09 -31.54,-7.07 -59.27,-22.24 -88.88,-33.44 -5.12,-5.22 -8.56,-14.19 -18.3,-11.47 -41.97,-25.18 -86.88,-47.69 -133.1,-65.3l-0.5 -5.38c-13.62,0.71 -23.17,-9.19 -33.85,-14.9 -23.86,-8.92 -46.72,-20.39 -68.7,-32.41 -28.54,-8.16 -49.47,-29.47 -79.32,-35.07 51.41,-6.74 99.94,-24.8 151.65,-30.4 3.81,-19.09 -20.74,-18.71 -35.54,-20.82 -65.58,-16.7 -132.23,-32.95 -192.81,-61.17 -23.8,-8.86 -48.66,-17.67 -68.77,-32.14 -25.11,-11.04 -46.1,-27.79 -69.27,-41.11 -35.91,-29.42 -73.14,-58.61 -100.25,-94.89 -19.8,-13.65 -22.11,-39.2 -40.22,-54.7 -6.5,-9.19 -13.12,-18.21 -19.61,-27.3 -29.29,-40.62 -55.21,-84.01 -89,-122.18 10.62,1.96 21.42,4.03 30.86,8.97 46.35,6.53 92.75,14.57 137.66,26.59 42.16,3.92 82.88,15.82 124.92,21.42 22.61,2.28 45.35,3.26 68.08,3.59 2.5,0.92 7.49,2.83 9.93,3.75 29.92,0.43 59.9,0.49 89.75,-1.03 8.87,-3.7 18.68,-3.43 28.23,-3.81 0.06,-3.37 0.25,-10.11 0.31,-13.49 -17.11,-1.25 -31.67,-9.24 -46.47,-15.99 -27.48,-7.4 -51.59,-21.8 -78.07,-31.32 -28.73,-14.14 -60.9,-21.32 -90.69,-33.28 -8.99,-0.92 -17.86,-2.67 -25.54,-6.96 -20.74,-5.11 -42.85,-6.63 -62.02,-15.77 -12.87,-0.71 -26.3,-0.54 -37.97,-5.93 -20.43,-5.06 -42.91,-2.94 -62.21,-11.04 -52.4,-3.26 -104.87,-11.53 -157.52,-5.98 1.75,-3.64 5.31,-10.98 7.12,-14.62 7.62,-27.9 31.54,-49.7 48.41,-73.68 6.12,-6.31 4.43,-15.06 5.62,-22.51 -12.31,0.71 -24.11,3.86 -35.17,8.7 -7.99,4.84 -16.05,9.57 -24.17,14.3 -27.86,17.02 -58.15,30.83 -87,46.66 1.31,-4.3 3.87,-12.89 5.19,-17.18 14.3,-49.1 28.79,-98.26 44.34,-147.09 8.06,-23.98 13.99,-48.45 21.74,-72.48 30.36,-61.99 66.64,-123.76 122.36,-171.45 0.25,-1.69 0.63,-5.11 0.87,-6.8 25.55,-19.52 45.85,-43.61 71.64,-62.8 2.25,-0.11 6.62,-0.27 8.87,-0.38 9.8,-8.64 19.3,-17.67 29.92,-25.61 44.66,-26.21 87.32,-56.6 138.34,-73.62 38.72,-17.56 78.39,-34.2 120.92,-43.5 0.06,-3.43 0.25,-10.28 0.31,-13.7 -68.83,-1.85 -141.47,3.26 -201.3,35.62 -2.31,-0.27 -6.87,-0.92 -9.18,-1.2 -1.94,2.56 -5.93,7.67 -7.93,10.22 -9.06,0 -15.74,4.89 -22.36,9.68 -6.93,2.61 -12.49,7.12 -17.99,11.58 -15.55,4.35 -24.67,17.56 -38.54,24.58 -36.98,21.75 -68.7,49.64 -106.62,70.2 -6.12,5.93 -12.12,11.96 -18.05,18.11l-5.87 -4.24c-12.43,10.71 -22.42,25.94 -40.47,29.8l3.5 6.69c-2.31,0.05 -7,0.22 -9.37,0.33 16.86,-35.78 24.61,-74.28 40.22,-110.49 5.94,-16.37 10.81,-33.06 18.93,-48.72 2.31,-13.21 6.44,-26.1 12.56,-38.33 17.18,-49.92 43.66,-97.28 75.83,-141.1 17.3,-25.34 45.47,-42.79 66.02,-65.9 40.97,-30.89 83.51,-61.01 132.79,-81.4 19.86,-10.44 40.97,-19.14 62.09,-27.51 10.49,-3.65 21.3,-6.53 32.1,-9.35 2.44,-1.69 7.25,-5.11 9.68,-6.8 42.29,-9.79 83.69,-25.07 127.04,-32.03 9.49,-2.67 19.05,-5.38 28.23,-8.75 -0.56,-6.96 -1,-13.92 -1.31,-20.88 -11.93,6.25 -16.61,-8.7 -26.67,-11.26 -9.87,-6.69 -20.24,-12.89 -30.79,-18.65 -12.24,-2.29 -21.86,-9.63 -33.29,-13.54 -2.44,-2.5 -7.37,-7.39 -9.81,-9.84 -2.19,0.16 -6.5,0.6 -8.62,0.82 -22.36,-9.3 -45.72,-16.64 -67.33,-27.3 -26.48,-4.57 -49.28,-18 -75.82,-22.19 -6.12,-1.9 -12.31,-3.59 -18.55,-5.06 -6.25,-1.96 -12.49,-3.92 -18.74,-5.82 -8.43,-1.2 -16.93,-2.29 -24.92,-5.11 -8.56,-1.31 -17.36,-2.12 -25.11,-5.76 -8.43,-1.47 -17.36,-1.74 -24.92,-5.71 -33.23,-3.1 -65.08,-12.99 -98.81,-12.99 24.73,-14.08 49.34,-28.39 73.95,-42.52 14.49,-6.69 27.55,-16.42 44.22,-18.65 13.93,-6.63 27.98,-13.38 43.41,-17.07 18.68,-5.33 37.16,-11.04 56.03,-15.77 36.41,-10.6 74.2,-17.73 112.3,-21.37 28.3,-9.14 59.65,-6.09 88.69,-12.83 33.98,-3.32 68.58,-2.12 102.37,2.72 47.84,0.16 94.87,8.21 142.28,12.23 0,-3.64 0.12,-10.87 0.12,-14.46 -13.43,-10.71 -28.54,-20.55 -35.79,-35.56 -19.93,-18.87 -43.35,-34.8 -62.4,-54.38 -4.37,-4.95 -10.18,-8.75 -17.49,-9.02 -11.18,-8.7 -19.49,-21.86 -35.73,-23.55 0.87,-2.88 2.56,-8.7 3.37,-11.58l-10.24 5.77c-5.68,-6.09 -11.49,-12.07 -17.49,-17.95 -49.9,-28.65 -93.37,-65.25 -144.03,-93.15 -12.93,-9.08 -25.73,-19.96 -42.97,-21.97 85.76,-3.32 171.76,-0.71 257.64,-1.47 -0.06,-3.64 -0.12,-10.93 -0.19,-14.52 -8.68,-0.65 -15.8,-4.13 -21.17,-9.95 -25.11,-15.5 -51.65,-29.69 -69.33,-52.36 -1.69,1.2 -5.19,3.53 -6.93,4.73 -15.36,-21.69 -40.22,-36.81 -59.09,-56.11 -3.99,-15.17 -31.54,-19.03 -25.42,-36.6 -2.62,1.36 -7.99,4.13 -10.68,5.49 0.06,-19.14 -23.92,-25.94 -33.6,-40.78 -8.75,-13.87 -24.23,-22.89 -33.48,-36.27 -19.11,-16.15 -34.92,-35.18 -52.9,-52.26 -20.17,-18.65 -34.66,-41.81 -58.83,-56.98 0.75,-1.41 2.25,-4.13 3,-5.54 -19.24,-10.82 -30.67,-28.77 -49.03,-40.29 52.03,18.81 106.8,31.7 158.52,51.22 67.33,18.11 132.91,40.94 199.87,60.14 47.84,16.37 97.31,29.31 143.84,48.61 8.43,0.71 16.8,1.96 25.05,3.64 24.61,14.46 55.96,5.28 82.32,13.86 20.55,-3.32 40.97,-6.91 61.21,-11.36 39.78,-20.55 78.14,-44.8 105.12,-77.97 4.25,-2.72 8.56,-5.38 12.8,-7.99 0.37,-13.11 18.42,-17.18 21.86,-29.2 14.62,-12.94 26.48,-27.84 40.54,-41.11 16.3,-1.36 11.81,-21.1 -3.37,-19.58 -31.61,3.92 -63.58,3.1 -95.31,5.93 -26.48,7.61 -55.77,4.73 -82.01,13.32 -18.61,1.36 -37.29,2.23 -55.9,3.92 -33.35,3.21 -66.46,8.37 -99.93,11.09 -34.73,3.32 -69.08,8.43 -103.74,12.45 -4.69,-0.49 -14.18,-1.36 -18.93,-1.85 22.98,-5.44 35.35,-23.38 51.4,-36.92 8.49,-5.38 17.68,-11.04 18.24,-21.1 2.12,-0.16 6.43,-0.49 8.56,-0.65 3.25,-6.36 8.31,-11.8 13.99,-16.58 35.54,-30.61 70.02,-62.1 105.49,-92.71 6.68,-5.54 14.67,-10.44 17.61,-18.38 20.8,-8.15 30.29,-29.2 51.78,-36.27 33.35,-28.93 73.45,-50.63 111.18,-74.82 19.3,-8.81 36.48,-20.88 56.78,-28.22 14.55,-6.2 29.04,-12.45 43.22,-19.25 28.23,-13.21 58.09,-23.71 89.07,-30.94 18.8,-15.77 36.17,-33.33 58.9,-45.02 19.99,-9.79 34.91,-27.46 58.71,-30.67 51.34,-23.93 110.18,-36.7 168.51,-36.38 2.12,-1.74 6.37,-5.22 8.49,-6.96 2.87,-35.56 6.18,-73.73 31.04,-103.58 -0.19,-1.31 -0.69,-3.86 -0.87,-5.16 13.68,-13.38 18.24,-33.66 36.48,-43.18 9.74,-11.04 10.74,-24.74 7.62,-38.01 -10.12,-17.07 -16.8,-35.89 -20.61,-54.76 -6.74,-10.71 -11.12,-22.4 -12.87,-34.53 -15.93,-53.78 -27.86,-108.81 -29.67,-164.43 -2,-15.23 -9.06,-31.92 0.19,-46.38 0.5,-8.27 0.94,-16.53 1.44,-24.8 44.03,42.47 94.06,79.61 143.09,117.4 5.68,8.1 11.74,17.56 24.11,17.89 15.62,9.84 23.61,29.69 43.85,32.79 11.06,13.92 29.61,19.79 42.1,32.08 7.75,0.87 15.55,1.68 23.36,2.34 -13.62,-43.39 -37.23,-84.17 -49.34,-128.06 -18.61,-47.74 -30.48,-97.55 -42.41,-146.87 -7.25,-25.5 -11.43,-51.71 -20.67,-76.78 70.26,5.38 141.97,-5.11 211.3,9.24 53.4,7.5 104.05,24.85 155.77,37.79 -2.75,-28.33 -14.62,-55.35 -15.8,-83.85 -16.86,-74.49 -11.18,-150.89 -8.49,-226.26 0.94,-2.17 2.81,-6.58 3.75,-8.75 1.43,-10.93 0.19,-22.45 5.99,-32.57 1.19,-9.08 1.94,-18.33 5.5,-27.02 2.37,-5.49 4.87,-10.93 7.49,-16.31 0.81,-5.54 1.62,-11.09 2.5,-16.58 3.37,-5.16 6.68,-10.38 9.93,-15.55 -2.18,-17.67 12.99,-32.46 18.3,-48.99 13.05,-23.17 22.11,-47.9 36.29,-70.63 4.62,-13.27 11.43,-25.88 19.3,-37.96 9.74,-25.94 24.42,-50.46 38.41,-74.71 14.8,-41.98 42.16,-80.26 54.9,-122.73 14.3,44.91 10.93,93.8 21.61,139.8 6.75,75.58 19.99,150.46 27.61,225.93 2.25,5.22 4.25,10.55 6.06,15.99 9.49,23.05 24.11,44.31 32.86,67.59 3.5,0.22 10.55,0.65 14.05,0.92 0.81,-10.28 -0.69,-21.1 5.06,-30.5 1.38,-7.4 2.87,-14.79 5.81,-21.8 4.56,-13.27 11.81,-25.67 19.86,-37.57 0.5,-2.94 1.62,-8.7 2.12,-11.64 5.12,-4.4 8.81,-9.57 11.06,-15.44 25.36,-37.68 57.34,-71.61 91.81,-103.2 18.49,-20.01 34.85,-41.71 56.21,-59.65 0.69,-1.96 2.12,-5.93 2.87,-7.94 9.18,-8.27 18.8,-16.2 28.29,-24.31 1.81,-15.01 21.3,-20.28 27.98,-33.33 7.68,-8.54 15.18,-17.24 22.36,-26.15 5.31,25.12 13.86,49.64 18.3,74.87 14.24,52.47 28.04,105.16 43.28,157.53 12.43,31.27 27.17,61.93 45.97,90.65 7.18,8.15 11.74,20.61 25.23,22.13 13.99,-6.58 19.68,-20.28 28.6,-30.94 18.8,-29.25 30.23,-61.17 43.66,-92.33 4.31,-33.66 13.92,-66.88 12.99,-100.97 -0.31,-105.76 2.37,-211.68 -1.44,-317.34zm132.73 312.28l0 0c2.69,120.6 -40.41,245.83 -138.85,333.32 -19.86,17.4 -51.97,19.52 -76.76,9.57 -27.54,-10.55 -49.34,-29.58 -67.95,-49.64 -49.09,-55.84 -74.39,-123.76 -94.94,-190.86 -32.17,35.78 -70.83,67.86 -93.75,109.3 -27.3,45.62 -24.92,103.2 4.62,147.52 29.79,51.49 72.89,104.94 139.84,121.58 -57.34,19.68 -123.35,22.24 -181.07,2.23 -60.59,-20.56 -108.37,-61.82 -147.22,-106.03 -18.86,-25.29 -35.6,-51.77 -54.21,-77.16 -17.36,-36.97 -36.66,-73.57 -47.41,-112.61 -1,-0.38 -3,-1.14 -4.06,-1.52 -0.38,3.26 -1.19,9.9 -1.62,13.16 -17.67,31.54 -22.42,66.88 -31.16,100.76 -20.36,159.81 15.61,324.79 100.56,467.52 -77.26,-31.81 -156.27,-60.47 -236.97,-85.15 -59.03,-17.18 -119.61,-32.41 -182.07,-35.62 38.35,157.53 108.12,313.09 230.35,436.09 -64.27,-25.56 -135.72,-30.23 -202.93,-47.2 -58.77,-13.97 -115.67,-37.36 -160.46,-73.79 -14.8,-11.8 -25.86,-26.7 -41.22,-38.01 24.3,78.95 84.82,143.55 147.84,202 19.3,19.74 42.34,39.37 48.09,65.9 0.18,20.72 -19.18,35.67 -36.41,47.47 -21.36,15.82 -54.53,16.8 -77.64,3.21 -42.35,-23.05 -64.52,-63.95 -86.63,-101.25 -14.68,25.39 -24.67,53.56 -23.11,82.33 -0.19,43.88 21.3,84.72 46.16,121.91 -44.47,-34.91 -107.55,-41.65 -165.01,-37.9 -51.78,4.51 -104.74,13.27 -150.4,36.11 17.49,9.41 39.22,7.07 57.71,14.57 55.77,14.08 102.68,46.11 142.47,81.94 -42.66,-18.05 -88.44,-34.91 -136.85,-33.11 -31.54,1.47 -63.21,-1.47 -94.5,2.93 -81.89,9.19 -156.15,43.39 -227.29,77.7 -52.22,33.6 -106.18,65.85 -151.77,106.41 95.87,-18.33 196.18,-20.12 292.56,-3.27 84.01,15.61 166.7,46.17 230.79,96.79 -37.85,0.82 -75.76,2.45 -113.11,7.89 -67.33,8.92 -139.41,27.68 -184.25,75.2 -40.53,48.72 -86.07,95.43 -143.15,130.01 -59.96,36.98 -137.16,54.76 -209.8,41.87 -75.39,-10.06 -142.91,-42.85 -214.67,-63.18 79.7,82.22 188.87,142.03 308.48,169.22 191.87,44.97 393.93,30.94 587.74,3.81 -40.72,13.21 -82.63,23.49 -122.73,38.23 -72.83,25.12 -144.78,54.81 -222.85,65.63 -114.92,16.58 -232.1,12.99 -347.96,8.26 -25.54,0.33 -51.03,-1.52 -76.32,-4.35 22.61,14.63 47.72,26.7 66.27,45.62 40.41,39.04 73.33,86.73 128.85,111.36 72.76,31.32 156.71,34.58 236.28,30.67 -39.41,39.09 -86.94,74.33 -143.97,91.89 -47.22,14.52 -98.44,15.55 -147.65,9.9 -75.26,-7.34 -149.78,-20.34 -225.41,-24.2 -84.76,-1.57 -171.26,-3.8 -254.15,13.38 84.13,8.75 163.33,40.18 231.72,83.08 70.39,41.98 131.97,97.55 214.11,122.62 32.79,13.81 69.83,19.19 102.37,32.52 -182.19,6.63 -367.82,30.45 -533.27,100.43 -88.94,39.26 -174.82,94.29 -219.54,174.17 46.41,-25.56 98.56,-42.36 152.27,-51.76 123.86,-20.72 252.52,-6.04 371.63,27.51 38.35,9.52 74.14,26.16 113.49,32.35 71.27,11.58 139.22,-17.89 209.55,-22.46 -55.84,26.21 -95.19,76.18 -158.83,89.72 -50.84,7.72 -102.87,4.73 -153.84,11.58 -159.83,15.5 -320.16,58.02 -450.14,142.79 -94.56,61.39 -172.7,145.02 -211.3,242.9 109.24,-53.4 237.53,-69 361.14,-69.06 147.03,2.39 292.18,31.65 429.34,77 -15.3,11.26 -31.1,22.19 -44.91,34.91 -74.39,62.59 -184.32,85.32 -285.13,71.18 -40.97,-7.34 -82.88,-8.26 -124.23,-13.16 -87.26,-3.1 -173.01,27.3 -241.03,73.46 71.08,-13.92 145.65,-2.83 212.55,20.44 94,31.05 178.07,81.46 274.25,107.77 44.47,8.7 89.07,19.19 134.91,19.9 76.76,2.01 154.83,-1.36 228.35,-22.13 41.91,-6.91 79.95,-23.71 120.55,-33.93 23.8,-9.35 47.09,-19.63 71.51,-27.73 -27.73,34.8 -66.58,63.02 -109.55,82.54 -132.6,47.31 -279.63,55.9 -409.17,110.98 -68.39,33.44 -149.46,37.74 -226.23,37.08 -60.33,1.41 -120.42,-6.2 -179.32,-16.97 53.59,77.81 143.47,131.15 238.09,165.52 133.97,50.19 279.38,68.19 421.09,93.96 51.03,10 103.49,18.76 150.28,40.02 18.36,7.94 33.79,20.12 45.47,34.75 -53.71,-10.44 -109.99,-11.42 -163.77,-0.82 -62.96,11.96 -121.42,36.76 -184.07,49.65 39.04,12.94 71.76,36.32 108.43,53.4 46.22,23.27 97.37,38.71 150.03,46.27 91.38,10.06 184.69,-1.63 271.07,-28.65 25.48,-8.1 52.71,0.6 74.26,12.99 47.78,26.75 82.82,67.37 112.49,108.92 6.93,7.88 9.62,20.88 22.42,23.11 -8.18,-327.61 30.1,-654.19 70.27,-979.47 1.25,-18.6 4.25,-37.03 8.93,-55.19 4.81,320.38 38.1,639.67 73.76,958.42 3.12,40.07 16.49,78.9 16.55,119.19 6.81,39.64 9.37,79.66 12.99,119.57 5.68,29.37 1,60.41 15.18,88.36 11.93,-23.27 26.48,-45.35 39.48,-68.13 28.67,-40.67 47.34,-86.56 81.76,-124.08 16.86,-18.76 27.54,-40.84 42.78,-60.47 188.81,-253.66 415.54,-484.54 659.19,-699.27 28.92,-22.89 53.53,-49.59 83.88,-71.12 46.16,41.87 92.06,84.83 146.15,119.3 22.73,10.11 49.34,10.11 74.32,11.15 61.71,51.06 127.48,101.14 206.3,130.99 104.18,33.88 222.17,34.04 326.53,0.38 79.2,-29.75 145.4,-79.88 207.11,-131.37 30.1,-1.69 65.14,0 88.38,-19.79 49.22,-36.16 96.56,-74.55 138.78,-116.91 53.09,-55.57 104.87,-116.69 121.23,-189.06 10.24,-39.59 1.81,-82.98 -24.42,-116.69 -74.14,-85.86 -119.36,-187.7 -152.9,-290.26 113.86,-27.79 227.79,-55.57 343.02,-78.79 -28.92,-112.29 -57.96,-224.52 -87.25,-336.75 -13.18,-40.78 -25.36,-81.89 -33.54,-123.65 -8.18,-40.46 -24.42,-79.61 -29.04,-120.55 14.43,-21.7 32.79,-41.27 48.9,-62.04 120.67,-111.63 223.17,-239.58 293.68,-380.47 31.85,-65.14 59.08,-133.44 65.83,-204.4 5.81,-67.81 -42.97,-128.22 -100.12,-169.87 -35.73,-131.43 -72.45,-262.74 -108.31,-394.17 149.28,-61.44 264.7,-173.67 339.21,-300.37 53.28,-88.96 88.07,-185.47 112.61,-283.29 -108.68,6.53 -210.86,43.28 -310.73,78.73 -130.41,48.07 -257.58,102.77 -382.12,161.5 -18.3,56.39 -44.29,110.76 -74.89,162.96 -44.84,77.05 -102.05,150.13 -180.19,204.4 -43.97,32.68 -92.63,59.87 -140.66,87.6 -18.36,17.18 -42.47,28.33 -68.52,33.93 15.93,-8.97 25.92,-24.8 43.84,-31.16 21.49,-7.83 37.85,-22.78 55.53,-35.45 115.42,-90.81 194.81,-212.5 240.65,-341.04 25.3,-66.5 31.54,-137.19 31.73,-206.79 -0.81,-79.66 -15.43,-163.34 -67.46,-230.71 -58.33,-68.57 -161.89,-110.6 -259.77,-92.87 -101.68,19.09 -187.69,82.76 -236.16,161.71 -7.12,-25.56 -14.49,-51.11 -19.55,-77.1 -19.8,-92.44 -8.5,-190.97 40.47,-275.36 21.67,-38.06 48.59,-78.3 94.31,-97.33 26.42,-10.93 55.21,-2.17 78.14,10.88 -29.11,-31.26 -70.83,-59.76 -119.55,-57.75 -41.28,-0.54 -78.26,19.36 -108.74,41.76 -79.45,64.27 -146.9,141.27 -186.69,229.63 17.11,-127.73 -3.19,-266 -88.32,-373.99z"/>
   <path class="fil0" d="M2191.24 1134c36.6,10.28 73.64,19.25 109.99,30.29 -3.49,-0.22 -10.43,-0.76 -13.87,-1.03 22.3,57.69 41.79,118.86 88.01,166.12 82.07,88.42 169.51,172.92 252.52,260.62l-5.93 -0.06c-72.89,-62.26 -145.72,-124.63 -221.42,-184.39 -31.98,-26.59 -68.52,-49.15 -96.44,-79.39 -52.53,-56.28 -88.19,-123.27 -112.86,-192.16z"/>
   <path class="fil0" d="M2935.06 1249.39c48.91,-9.9 97.87,8.92 137.35,32.9 37.66,21.59 69.64,52.91 82.32,91.24 18.18,55.41 0.5,115.38 -30.6,164.59 5.68,-25.94 18.93,-52.04 11.3,-78.84 -15.49,-61.99 -63.39,-120.44 -132.79,-143.82 -46.53,-16.37 -98.06,-13.11 -146.65,-6.74 18.37,-26.26 43.47,-51.49 79.07,-59.33z"/>
   <path class="fil0" d="M3115.82 1550.25c0.25,-0.43 0.87,-1.25 1.12,-1.69 -0.25,0.43 -0.87,1.25 -1.12,1.69z"/>
   <path class="fil0" d="M2380.3 1604.78c9.06,-17.73 16.24,-36.32 29.17,-52.36 -35.1,127.73 -71.45,255.29 -105.31,383.29 -49.15,37.46 -93.69,85.86 -100.5,144.42 -5.12,47.58 13.87,93.64 24.92,139.58 -36.66,117.56 -75.2,234.9 -103,354.42 -14.68,55.74 -21.36,112.67 -33.42,168.84 -4.06,41 -17.8,81.02 -17.11,122.45 20.3,-23.43 28.48,-52.64 48.03,-76.4 18.8,-23.22 34.41,-48.18 52.9,-71.61 -1.75,30.18 -1.12,60.36 0.25,90.53 -6.87,167.26 15.62,334.52 53.15,498.35 42.78,181.23 112.18,358.01 210.48,522.17 19.86,32.19 38.35,65.2 63.08,94.83 -56.84,50.51 -114.67,100.32 -168.51,153.34 -58.09,-85.75 -100.44,-178.79 -135.6,-273.29 -47.16,-128.49 -79.01,-260.89 -102.68,-394.17 -23.61,-135.99 -39.41,-273.18 -44.03,-410.7 -23.42,70.58 -33.04,144.42 -41.66,217.45 -19.99,201.19 -6.12,403.57 18.49,603.95 19.18,147.58 45.1,294.44 78.26,440.12 1.88,15.44 14.43,34.36 -1.81,46.82 -52.46,53.51 -101.93,109.18 -153.08,163.72 -91.06,-494.98 -105.74,-1000.67 -41.35,-1498.81 0.38,-45.29 12.74,-89.5 19.61,-134.14 8.31,-57.09 20.17,-113.7 30.79,-170.47 21.55,-72.86 37.54,-147.03 63.58,-218.86 79.7,-219.68 164.89,-437.94 262.39,-652.13 29.54,-64.27 59.46,-128.54 92.94,-191.35z"/>
   <path class="fil0" d="M2520.71 1577.76c20.11,4.03 40.29,8.1 60.65,11.31 -15.93,85.59 -33.42,171.06 -45.66,257.09 69.14,28.93 121.54,79.77 170.58,129.74 -67.27,-17.07 -138.6,-18.65 -207.8,-11.31 87.82,20.23 170.58,57.75 238.85,110 44.59,34.37 79.63,76.72 111.99,119.95 17.3,23.43 36.17,46.11 50.28,71.23 -60.08,-59.87 -119.17,-122.13 -193.37,-169.27 -99.49,-60.9 -223.23,-92.6 -344.71,-85.81 64.27,9.79 122.67,35.83 178.57,64.11 3.75,37.68 3.19,76.51 18.18,112.61 31.61,71.72 79.89,143.22 159.33,181.61 66.64,32.46 139.35,53.94 211.42,75.31 20.98,36.54 39.54,74.22 52.78,113.54 -1.44,-2.55 -4.25,-7.72 -5.62,-10.28 -22.73,-3.15 -45.16,-7.29 -67.64,-11.31 -1,-3.75 -3.06,-11.26 -4.06,-15.01 -112.37,-38.17 -220.79,-88.47 -311.86,-158.01 -39.48,-28.65 -69.7,-64.98 -98.81,-101.41 4.75,15.88 10.93,31.43 17.99,46.71 -46.1,-48.61 -91.13,-98.47 -122.92,-155.51 4.5,62.97 31.85,123.21 65.33,178.51 54.28,87.38 123.3,167.31 197.87,242.24 48.78,45.57 98.12,92.6 161.27,123.38l-5 2.61c-40.72,-14.08 -78.2,-34.04 -116.17,-52.85 -39.23,-18.92 -75.27,-43.83 -101.94,-75.47 -112.8,-127.67 -217.79,-267.25 -258.08,-426.74 -16.68,-57.91 3.5,-120.88 47.66,-165.85 34.66,-39.69 84.51,-66.94 117.61,-107.61 -17.74,-4.24 -36.1,-3.1 -53.9,-0.11 26.92,-97.55 52.09,-195.53 77.2,-293.41z"/>
   <path class="fil0" d="M3889.93 1594.24c21.74,6.25 44.22,10.71 65.64,18 8.81,13.54 12.24,29.15 18.05,43.83 22.3,60.36 44.47,120.77 66.46,181.23 4.49,12.83 14.55,23.22 24.11,33.44 22.11,23.38 43.6,47.2 66.02,70.41 -53.15,15.72 -104.31,36.05 -155.02,56.88 -197.87,83.85 -383.5,196.3 -522.34,346.54 -3,-11.36 -5.87,-22.73 -8.87,-34.04 49.41,-81.07 100.31,-162.8 168.89,-233 -14.99,23.27 -35.29,44.1 -45.41,69.6 -7.18,18.11 -5.75,37.57 -5.5,56.39 119.67,-111.47 264.58,-203.8 426.41,-263.23 -54.28,-11.53 -110.24,-2.01 -163.45,9.14 29.92,-35.45 68.64,-65.14 112.74,-86.57 8.49,-6.58 30.98,-9.3 26.04,-22.08 -26.86,-81.67 -47.78,-164.7 -73.76,-246.54z"/>
   <path class="fil0" d="M2874.79 2060.18c106.99,20.88 209.93,54.7 314.98,81.78 31.35,7.77 64.96,19.63 97.56,9.62 106.99,-30.02 210.11,-73.14 322.1,-87.71l1.75 0.22c-1.94,6.47 -11.99,6.25 -17.49,9.19 -87.38,25.99 -162.45,74.6 -233.97,124.03 -25.36,4.95 -52.09,0.66 -78.01,1.69 -45.53,-1.25 -91.56,2.34 -136.79,-1.96 -80.01,-57.42 -167.95,-108.92 -267.95,-135.72l-2.19 -1.14z"/>
   <path class="fil0" d="M2706.9 2190.79c62.27,39.09 114.05,90.05 157.08,145.13 -40.29,-9.24 -80.32,-22.62 -114.3,-43.99 -35.35,-23.11 -46.53,-64.49 -42.79,-101.14z"/>
   <path class="fil0" d="M3811.36 2335.92c43.03,-55.03 94.81,-106.03 157.08,-145.13 3.81,36.76 -7.56,78.35 -43.16,101.35 -33.91,21.26 -73.76,34.53 -113.92,43.77z"/>
   <path class="fil0" d="M4017.22 2621.82c-5.37,30.13 -21.55,57.64 -31.85,86.57 -23.48,66.61 -56.03,130.61 -77.39,197.76 -60.71,157.58 -122.61,314.72 -184.07,472.03 -2.25,4.19 -2.31,8.37 -0.25,12.56 45.03,96.79 92.06,192.92 137.41,289.55 -68.58,-86.4 -131.72,-176.23 -198.93,-263.56 -5.43,-7.77 -12.37,-14.95 -15.36,-23.71 122.98,-257.25 249.21,-513.36 370.44,-771.21z"/>
   <path class="fil0" d="M2717.7 2704.86c28.17,-0.76 56.4,-0.54 84.57,-1.85 -1.12,0.54 -3.31,1.63 -4.37,2.23 -10.12,0.6 -20.11,0.98 -30.17,1.2 30.29,35.13 63.64,68.4 90.38,105.81 59.34,76.02 103.68,160.14 135.78,247.57 -17.3,26.59 -37.16,52.04 -61.77,73.9 -61.96,-146.21 -125.23,-293.25 -214.42,-428.86z"/>
   <path class="fil0" d="M2858.24 3587.1c96.75,-187.22 170.32,-385.69 192.37,-590.95 4.06,49.65 -3.06,99.29 -6.81,148.83 -7.18,82.05 -14.24,164.7 -37.54,244.8 -45.22,122.34 -119.92,236.48 -147.09,363.72 -8.24,41.82 27.23,74.88 49.78,108.21 35.85,53.61 86.38,97.82 132.97,144.26 17.74,17.56 40.72,30.18 64.15,41.27 -35.79,13.27 -75.51,31.59 -115.11,20.34 -62.08,-37.68 -113.55,-87.06 -163.02,-136.54 -36.04,-37.95 -60.15,-84.45 -70.27,-132.73 -5.06,-32.19 1.94,-66.23 24.73,-92.49 30.85,-36.65 53.84,-77.65 75.83,-118.7z"/>
   <path class="fil0" d="M2988.84 3747.18c0.94,11.15 -1.56,23.49 6.5,33.22 2.37,1.31 7.06,3.92 9.43,5.16 19.05,-7.56 40.91,-20.12 60.71,-6.31 53.4,35.02 86.07,87.82 117.61,137.73 0.31,3.59 0.87,10.82 1.19,14.41 -21.11,-7.72 -33.16,-25.45 -48.84,-38.93 -19.92,-17.56 -32.29,-40.62 -53.46,-57.1 -26.61,-22.35 -67.21,-25.77 -91.75,-50.51 -6.93,-11.69 -1.19,-25.34 -1.37,-37.68z"/>
   <path class="fil0" d="M3094.83 4111.44c33.48,-12.07 65.52,-27.14 99.99,-37.08 0.94,30.94 19.68,59.65 42.79,82.27 46.16,36.7 109.74,55.3 171.89,54.43 -3.43,5.49 -6.87,11.09 -10.24,16.69 -23.17,4.24 -46.97,11.36 -70.83,6.96 -35.66,-5.6 -72.26,-12.07 -103,-29.69 -47.22,-27.14 -88,-61.45 -130.6,-93.58z"/>
   <path class="fil1" d="M3072.47 312.28c85.13,107.99 105.43,246.27 88.32,373.99 39.79,-88.36 107.24,-165.35 186.69,-229.63 30.48,-22.4 67.46,-42.3 108.74,-41.76 48.72,-2.01 90.44,26.48 119.55,57.75 -22.92,-13.05 -51.72,-21.8 -78.14,-10.88 -45.72,19.03 -72.64,59.27 -94.31,97.33 -48.97,84.39 -60.27,182.92 -40.47,275.36 5.06,25.99 12.43,51.55 19.55,77.1 48.47,-78.95 134.47,-142.63 236.16,-161.71 97.87,-17.73 201.43,24.31 259.77,92.87 52.03,67.37 66.65,151.06 67.46,230.71 -0.19,69.6 -6.43,140.29 -31.73,206.79 -45.84,128.54 -125.23,250.24 -240.65,341.04 -17.68,12.67 -34.04,27.62 -55.53,35.45 -17.93,6.36 -27.92,22.18 -43.84,31.16 -6.25,2.88 -12.49,5.82 -18.61,8.75 26.42,-37.19 35.91,-80.26 47.47,-122.13 10.37,-26.64 8.8,-55.14 15.3,-82.43 6.87,-30.12 6.5,-60.95 10.37,-91.35 -31.48,33.06 -65.46,65.09 -107.99,87.6 -49.53,31.65 -104.93,56.01 -162.71,74.01 -37.41,9.41 -74.89,21.42 -114.36,20.55 -47.66,2.45 -95.69,-2.72 -142.97,3.97 2.56,-12.89 7.37,-25.39 15.3,-36.6 0.25,-0.43 0.87,-1.25 1.12,-1.69 1.81,-2.61 5.37,-7.83 7.18,-10.44 31.1,-49.21 48.78,-109.19 30.6,-164.59 -12.68,-38.33 -44.66,-69.65 -82.32,-91.24 -39.48,-23.98 -88.44,-42.79 -137.35,-32.9 -35.6,7.83 -60.71,33.06 -79.07,59.33 -185.37,-46.66 -369.25,-98.15 -554.76,-144.42 -36.35,-11.04 -73.39,-20.01 -109.99,-30.29 24.67,68.89 60.34,135.88 112.86,192.16 27.92,30.23 64.46,52.8 96.44,79.39 75.7,59.76 148.53,122.13 221.42,184.39 -13.55,0.22 -27.11,0.38 -40.6,-0.87 -20.36,-3.21 -40.53,-7.29 -60.65,-11.31 -25.11,97.88 -50.28,195.86 -77.2,293.41 17.8,-2.99 36.16,-4.13 53.9,0.11 -33.1,40.67 -82.94,67.91 -117.61,107.61 -44.16,44.97 -64.33,107.94 -47.66,165.85 40.29,159.48 145.28,299.06 258.08,426.74 26.67,31.65 62.71,56.55 101.94,75.47 37.97,18.81 75.45,38.77 116.17,52.85l-6.06 3.21c-28.17,1.31 -56.4,1.09 -84.57,1.85 89.19,135.61 152.46,282.65 214.42,428.86 24.61,-21.86 44.47,-47.31 61.77,-73.9 21.86,-32.03 40.04,-65.68 58.96,-98.96 -1.06,11.75 -1.94,23.49 -2.25,35.29 -22.05,205.27 -95.62,403.74 -192.37,590.95 -21.98,41.05 -44.97,82.05 -75.83,118.7 -22.8,26.26 -29.79,60.31 -24.73,92.49 10.12,48.29 34.23,94.78 70.27,132.73 49.47,49.48 100.93,98.85 163.02,136.54 39.6,11.26 79.32,-7.07 115.11,-20.34 42.03,-7.12 80.94,-24.15 114.24,-47.36 15.55,-13.7 16.11,-34.47 22.3,-51.93 19.74,-60.36 31.85,-122.29 43.28,-184.17 7.37,-73.74 15.43,-147.58 14.3,-221.69 -1.13,-46.98 2.68,-94.23 -2.75,-141.05 -36.41,17.62 -71.27,37.85 -109.05,53.29 1.37,-69 -13.3,-137.24 -13.74,-206.14 -1.5,-50.73 -11.37,-100.98 -11.81,-151.71 0,-36.49 -5.68,-72.64 -9.12,-108.92 -4.68,-43.45 -2.44,-87.27 -8.87,-130.56 -8.31,-55.95 -5.37,-112.5 -12.56,-168.45 -3.56,-29.04 -6.56,-58.07 -6.93,-87.27 -0.38,-45.4 -8.37,-90.37 -11.37,-135.61 -1.31,-18.43 0.38,-37.41 -7.06,-54.97 -33.35,-87.49 -86.57,-167.97 -142.66,-245.72 -26.98,-35.83 -54.4,-71.66 -87.32,-103.64 99.99,26.81 187.94,78.3 267.95,135.72 45.22,4.3 91.25,0.71 136.79,1.96 25.92,-1.03 52.65,3.26 78.01,-1.69 71.51,-49.43 146.59,-98.04 233.97,-124.03 5.5,-2.94 15.55,-2.72 17.49,-9.19l-1.75 -0.22c4.5,-0.98 9.12,-1.96 13.81,-2.93 -3.37,5.54 -6.81,11.09 -10.37,16.58 -68.58,70.2 -119.48,151.93 -168.89,233 3,11.31 5.87,22.68 8.87,34.04 138.84,-150.24 324.47,-262.69 522.34,-346.54 50.72,-20.82 101.87,-41.16 155.02,-56.88 -22.42,-23.22 -43.91,-47.03 -66.02,-70.41 -9.56,-10.22 -19.61,-20.61 -24.11,-33.44 -21.99,-60.47 -44.16,-120.88 -66.46,-181.23 -5.81,-14.68 -9.24,-30.28 -18.05,-43.83 -21.42,-7.29 -43.91,-11.75 -65.64,-18 -35.73,-8.86 -71.14,-18.71 -106.74,-27.89 78.14,-54.27 135.35,-127.35 180.19,-204.4 30.6,-52.2 56.59,-106.58 74.89,-162.96 124.54,-58.73 251.71,-113.43 382.12,-161.5 99.87,-35.45 202.06,-72.21 310.73,-78.73 -24.55,97.82 -59.34,194.34 -112.61,283.29 -74.51,126.7 -189.94,238.93 -339.21,300.37 35.85,131.43 72.58,262.74 108.31,394.17 57.15,41.65 105.93,102.06 100.12,169.87 -6.75,70.96 -33.98,139.26 -65.83,204.4 -70.52,140.89 -173.01,268.83 -293.68,380.47 -16.11,20.77 -34.48,40.35 -48.9,62.04 4.62,40.94 20.86,80.09 29.04,120.55 8.18,41.76 20.36,82.87 33.54,123.65 29.29,112.23 58.34,224.46 87.25,336.75 -115.23,23.22 -229.16,51 -343.02,78.79 33.54,102.55 78.76,204.4 152.9,290.26 26.23,33.71 34.66,77.1 24.42,116.69 -16.36,72.38 -68.14,133.49 -121.23,189.06 -42.22,42.36 -89.56,80.75 -138.78,116.91 -23.23,19.79 -58.27,18.11 -88.38,19.79 -61.71,51.49 -127.91,101.63 -207.11,131.37 -104.37,33.66 -222.35,33.49 -326.53,-0.38 -78.82,-29.85 -144.59,-79.93 -206.3,-130.99 -24.98,-1.03 -51.59,-1.03 -74.32,-11.15 -54.09,-34.47 -100,-77.43 -146.15,-119.3 -30.36,21.53 -54.96,48.23 -83.88,71.12 -243.65,214.73 -470.38,445.61 -659.19,699.27 -15.24,19.63 -25.92,41.71 -42.78,60.47 -34.42,37.52 -53.09,83.41 -81.76,124.08 -12.99,22.78 -27.55,44.86 -39.48,68.13 -14.18,-27.95 -9.49,-58.99 -15.18,-88.36 -3.62,-39.91 -6.18,-79.93 -12.99,-119.57 -0.06,-40.29 -13.43,-79.11 -16.55,-119.19 -35.66,-318.75 -68.95,-638.04 -73.76,-958.42 -4.68,18.16 -7.68,36.59 -8.93,55.19 -40.16,325.27 -78.45,651.85 -70.27,979.47 -12.8,-2.23 -15.49,-15.23 -22.42,-23.11 -29.67,-41.54 -64.71,-82.16 -112.49,-108.92 -21.55,-12.4 -48.78,-21.1 -74.26,-12.99 -86.38,27.02 -179.69,38.71 -271.07,28.65 -52.65,-7.56 -103.81,-23 -150.03,-46.27 -36.66,-17.07 -69.39,-40.46 -108.43,-53.4 62.65,-12.89 121.11,-37.68 184.07,-49.65 53.78,-10.6 110.05,-9.62 163.77,0.82 -11.68,-14.63 -27.11,-26.81 -45.47,-34.75 -46.78,-21.26 -99.25,-30.02 -150.28,-40.02 -141.72,-25.78 -287.12,-43.77 -421.09,-93.96 -94.63,-34.37 -184.51,-87.71 -238.09,-165.52 58.9,10.76 118.98,18.38 179.32,16.97 76.76,0.65 157.83,-3.64 226.23,-37.08 129.54,-55.08 276.57,-63.67 409.17,-110.98 42.97,-19.52 81.82,-47.74 109.55,-82.54 -24.42,8.1 -47.72,18.38 -71.51,27.73 -40.6,10.22 -78.64,27.02 -120.55,33.93 -73.51,20.77 -151.59,24.14 -228.35,22.13 -45.84,-0.71 -90.44,-11.2 -134.91,-19.9 -96.18,-26.32 -180.25,-76.72 -274.25,-107.77 -66.9,-23.27 -141.47,-34.36 -212.55,-20.44 68.02,-46.16 153.77,-76.56 241.03,-73.46 41.35,4.9 83.26,5.82 124.23,13.16 100.81,14.14 210.74,-8.59 285.13,-71.18 13.8,-12.72 29.61,-23.65 44.91,-34.91 -137.16,-45.35 -282.31,-74.6 -429.34,-77 -123.6,0.06 -251.9,15.66 -361.14,69.06 38.6,-97.88 116.73,-181.51 211.3,-242.9 129.98,-84.77 290.31,-127.29 450.14,-142.79 50.97,-6.85 103,-3.86 153.84,-11.58 63.64,-13.54 102.99,-63.51 158.83,-89.72 -70.33,4.57 -138.28,34.04 -209.55,22.46 -39.35,-6.2 -75.14,-22.84 -113.49,-32.35 -119.11,-33.55 -247.77,-48.23 -371.63,-27.51 -53.71,9.41 -105.87,26.21 -152.27,51.76 44.72,-79.88 130.6,-134.9 219.54,-174.17 165.45,-69.98 351.08,-93.8 533.27,-100.43 -32.54,-13.32 -69.58,-18.71 -102.37,-32.52 -82.13,-25.07 -143.72,-80.64 -214.11,-122.62 -68.39,-42.9 -147.59,-74.33 -231.72,-83.08 82.88,-17.18 169.39,-14.95 254.15,-13.38 75.63,3.86 150.15,16.86 225.41,24.2 49.22,5.65 100.43,4.62 147.65,-9.9 57.02,-17.56 104.55,-52.8 143.97,-91.89 -79.57,3.92 -163.52,0.65 -236.28,-30.67 -55.53,-24.63 -88.44,-72.32 -128.85,-111.36 -18.55,-18.92 -43.66,-30.99 -66.27,-45.62 25.29,2.83 50.78,4.68 76.32,4.35 115.86,4.73 233.04,8.32 347.96,-8.26 78.07,-10.82 150.03,-40.51 222.85,-65.63 40.1,-14.74 82.01,-25.01 122.73,-38.23 -193.81,27.13 -395.86,41.16 -587.74,-3.81 -119.61,-27.19 -228.79,-87 -308.48,-169.22 71.76,20.34 139.28,53.12 214.67,63.18 72.64,12.89 149.84,-4.9 209.8,-41.87 57.09,-34.58 102.62,-81.29 143.15,-130.01 44.85,-47.52 116.92,-66.28 184.25,-75.2 37.35,-5.44 75.26,-7.07 113.11,-7.89 -64.08,-50.62 -146.78,-81.18 -230.79,-96.79 -96.38,-16.85 -196.68,-15.06 -292.56,3.27 45.59,-40.56 99.56,-72.81 151.77,-106.41 71.14,-34.31 145.4,-68.51 227.29,-77.7 31.29,-4.4 62.96,-1.47 94.5,-2.93 48.41,-1.8 94.19,15.06 136.85,33.11 -39.78,-35.83 -86.69,-67.86 -142.47,-81.94 -18.49,-7.5 -40.22,-5.16 -57.71,-14.57 45.66,-22.84 98.62,-31.59 150.4,-36.11 57.46,-3.75 120.54,2.99 165.01,37.9 -24.86,-37.19 -46.34,-78.03 -46.16,-121.91 -1.56,-28.77 8.43,-56.93 23.11,-82.33 22.11,37.3 44.28,78.19 86.63,101.25 23.11,13.59 56.28,12.61 77.64,-3.21 17.24,-11.8 36.6,-26.75 36.41,-47.47 -5.75,-26.54 -28.79,-46.16 -48.09,-65.9 -63.02,-58.45 -123.55,-123.05 -147.84,-202 15.36,11.31 26.42,26.21 41.22,38.01 44.79,36.43 101.68,59.81 160.46,73.79 67.21,16.97 138.66,21.64 202.93,47.2 -122.23,-123 -192,-278.56 -230.35,-436.09 62.46,3.21 123.04,18.43 182.07,35.62 80.7,24.69 159.7,53.34 236.97,85.15 -84.94,-142.74 -120.92,-307.71 -100.56,-467.52 8.74,-33.87 13.49,-69.22 31.16,-100.76 0.44,-3.26 1.25,-9.9 1.62,-13.16 1.06,0.38 3.06,1.14 4.06,1.52 10.74,39.04 30.04,75.64 47.41,112.61 18.61,25.39 35.35,51.88 54.21,77.16 38.85,44.21 86.63,85.48 147.22,106.03 57.71,20.01 123.73,17.45 181.07,-2.23 -66.95,-16.64 -110.05,-70.09 -139.84,-121.58 -29.54,-44.32 -31.92,-101.9 -4.62,-147.52 22.92,-41.44 61.58,-73.52 93.75,-109.3 20.55,67.1 45.84,135.02 94.94,190.86 18.61,20.06 40.41,39.09 67.95,49.64 24.8,9.95 56.9,7.83 76.76,-9.57 98.44,-87.49 141.53,-212.72 138.85,-333.32zm-692.17 1292.5l0 0c-33.48,62.8 -63.4,127.08 -92.94,191.35 -97.5,214.19 -182.69,432.45 -262.39,652.13 -26.04,71.83 -42.03,146 -63.58,218.86 -10.62,56.77 -22.48,113.37 -30.79,170.47 -6.87,44.64 -19.24,88.85 -19.61,134.14 -64.39,498.14 -49.71,1003.83 41.35,1498.81 51.15,-54.54 100.62,-110.22 153.08,-163.72 16.24,-12.45 3.69,-31.38 1.81,-46.82 -33.16,-145.67 -59.08,-292.54 -78.26,-440.12 -24.61,-200.37 -38.47,-402.76 -18.49,-603.95 8.62,-73.03 18.24,-146.87 41.66,-217.45 4.62,137.52 20.42,274.71 44.03,410.7 23.68,133.27 55.53,265.68 102.68,394.17 35.16,94.5 77.51,187.54 135.6,273.29 53.84,-53.02 111.68,-102.82 168.51,-153.34 39.91,-32.24 80.45,-63.84 122.42,-94.02 3.43,-28.65 -6.06,-58.94 5.43,-87 13.55,-38.72 48.47,-67.26 69.58,-102.55 74.2,-116.26 115.3,-245.83 148.72,-374.81 3.43,-29.25 18.74,-57.42 14.74,-87.11 -77.57,-141.16 -155.27,-282.59 -243.59,-419.02 -24.98,-40.57 -67.64,-69.38 -97.31,-106.96 -29.17,-32.73 -62.65,-62.37 -89.94,-96.35 -77.07,-89.88 -140.66,-188.68 -186.75,-293.41 -6.56,-13.97 -8.8,-29.31 -17.68,-42.36 -11.06,-45.95 -30.04,-92 -24.92,-139.58 6.81,-58.56 51.34,-106.96 100.5,-144.42 33.85,-128 70.2,-255.56 105.31,-383.29 -12.93,16.04 -20.11,34.64 -29.17,52.36zm1431.05 731.13l0 0c40.16,-9.24 80.01,-22.51 113.92,-43.77 35.6,-23 46.97,-64.6 43.16,-101.35 -62.27,39.09 -114.05,90.1 -157.08,145.13zm205.86 285.91l0 0c-121.23,257.85 -247.46,513.96 -370.44,771.21 3,8.75 9.93,15.93 15.36,23.71 67.21,87.33 130.35,177.16 198.93,263.56 -45.35,-96.63 -92.38,-192.76 -137.41,-289.55 -2.06,-4.19 -2,-8.37 0.25,-12.56 61.46,-157.31 123.36,-314.45 184.07,-472.03 21.36,-67.16 53.9,-131.15 77.39,-197.76 10.31,-28.93 26.48,-56.44 31.85,-86.57zm-822.58 1450.47l0 0 0.18 2.07c-34.48,9.95 -66.52,25.01 -99.99,37.08 42.6,32.13 83.38,66.44 130.6,93.58 30.73,17.62 67.33,24.09 103,29.69 23.86,4.4 47.66,-2.72 70.83,-6.96 3.37,-5.6 6.81,-11.2 10.24,-16.69l1.44 0c26.42,-44.32 40.54,-93.04 48.34,-142.19 -9.62,-13.21 -32.17,-11.91 -47.22,-19.03 -32.73,-14.57 -70.33,-12.78 -105.74,-9.63 -39.35,4.68 -73.26,24.58 -111.67,32.08z"/>
   <path class="fil1" d="M2361.5 2010.7c121.48,-6.8 245.21,24.9 344.71,85.81 74.2,47.14 133.29,109.4 193.37,169.27 40.54,44.75 83.57,89.77 107.62,143.44 16.18,88.04 30.67,176.45 42.35,265.08 -0.19,24.8 7.87,50.51 -1.81,74.6 -20.73,-64 -41.35,-128.05 -65.96,-191.02 -13.24,-39.31 -31.79,-77 -52.78,-113.54 -72.08,-21.37 -144.78,-42.85 -211.42,-75.31 -79.45,-38.39 -127.73,-109.89 -159.33,-181.61 -14.99,-36.11 -14.43,-74.93 -18.18,-112.61 -55.9,-28.27 -114.3,-54.32 -178.57,-64.11zm345.4 180.09l0 0c-3.75,36.65 7.43,78.03 42.79,101.14 33.98,21.37 74.01,34.74 114.3,43.99 -43.03,-55.08 -94.81,-106.03 -157.08,-145.13z"/>
   <path class="fil1" d="M2493.79 2261.86c29.1,36.43 59.33,72.76 98.81,101.41 91.07,69.55 199.49,119.84 311.86,158.01 1,3.75 3.06,11.26 4.06,15.01 6,22.95 13.36,45.57 18.92,68.57 -68.7,-21.59 -133.35,-51.98 -194.5,-86.46 -91.69,-52.8 -174.7,-121.86 -221.16,-209.84 -7.06,-15.28 -13.24,-30.83 -17.99,-46.71z"/>
   <path class="fil1" d="M2988.84 3747.18c-2.69,-39.86 43.53,-70.31 86.75,-65.58 41.16,8.97 62.77,45.46 75.14,77.81 7.68,25.39 16.68,50.51 24.8,75.8 8.68,26.81 -1.12,55.08 7.56,81.78 -31.54,-49.92 -64.21,-102.72 -117.61,-137.73 -19.8,-13.81 -41.66,-1.25 -60.71,6.31 -2.37,-1.25 -7.06,-3.86 -9.43,-5.16 -8.06,-9.73 -5.56,-22.08 -6.5,-33.22z"/>
   <path class="fil2" d="M2287.36 1163.26c3.44,0.27 10.37,0.82 13.87,1.03 185.5,46.27 369.38,97.77 554.76,144.42 48.59,-6.36 100.12,-9.63 146.65,6.74 69.39,23.38 117.3,81.84 132.79,143.82 7.62,26.81 -5.62,52.91 -11.3,78.84 -1.81,2.61 -5.37,7.83 -7.18,10.44 -0.25,0.43 -0.87,1.25 -1.12,1.69 -7.93,11.2 -12.74,23.71 -15.3,36.6 47.28,-6.69 95.31,-1.52 142.97,-3.97 39.47,0.87 76.95,-11.15 114.36,-20.55 57.77,-18 113.18,-42.36 162.71,-74.01 42.53,-22.51 76.51,-54.54 107.99,-87.6 -3.87,30.4 -3.5,61.23 -10.37,91.35 -6.5,27.3 -4.93,55.79 -15.3,82.43 -11.55,41.87 -21.05,84.94 -47.47,122.13 6.12,-2.94 12.37,-5.87 18.61,-8.75 26.04,-5.6 50.15,-16.75 68.52,-33.93 48.03,-27.73 96.69,-54.92 140.66,-87.6 35.6,9.19 71.01,19.03 106.74,27.89 25.98,81.84 46.91,164.87 73.76,246.54 4.93,12.78 -17.55,15.5 -26.04,22.08 -44.1,21.42 -82.82,51.11 -112.74,86.57 53.21,-11.15 109.18,-20.66 163.45,-9.14 -161.83,59.43 -306.73,151.76 -426.41,263.23 -0.25,-18.81 -1.69,-38.28 5.5,-56.39 10.12,-25.5 30.42,-46.33 45.41,-69.6 3.56,-5.49 7,-11.04 10.37,-16.58 -4.69,0.98 -9.31,1.96 -13.81,2.93 -111.99,14.57 -215.11,57.69 -322.1,87.71 -32.6,10 -66.21,-1.85 -97.56,-9.62 -105.05,-27.08 -207.99,-60.9 -314.98,-81.78l2.19 1.14c32.92,31.97 60.33,67.8 87.32,103.64 56.09,77.76 109.3,158.23 142.66,245.72 7.43,17.56 5.75,36.54 7.06,54.97 3,45.24 10.99,90.21 11.37,135.61 0.38,29.2 3.37,58.24 6.93,87.27 7.18,55.95 4.25,112.5 12.56,168.45 6.43,43.28 4.18,87.11 8.87,130.56 3.44,36.27 9.12,72.43 9.12,108.92 0.44,50.73 10.31,100.97 11.81,151.71 0.44,68.89 15.11,137.13 13.74,206.14 37.79,-15.44 72.64,-35.67 109.05,-53.29 5.43,46.82 1.62,94.07 2.75,141.05 1.12,74.11 -6.93,147.95 -14.3,221.69 -11.43,61.88 -23.55,123.81 -43.28,184.17 -6.18,17.46 -6.75,38.23 -22.3,51.93 -33.29,23.22 -72.2,40.24 -114.24,47.36 -23.42,-11.09 -46.41,-23.71 -64.15,-41.27 -46.59,-46.44 -97.12,-90.65 -132.97,-144.26 -22.55,-33.33 -58.02,-66.39 -49.78,-108.21 27.17,-127.24 101.87,-241.37 147.09,-363.72 23.29,-80.1 30.35,-162.75 37.54,-244.8 3.75,-49.54 10.87,-99.18 6.81,-148.83 0.31,-11.8 1.19,-23.54 2.25,-35.29 -18.93,33.28 -37.1,66.94 -58.96,98.96 -32.1,-87.43 -76.45,-171.55 -135.78,-247.57 -26.73,-37.41 -60.09,-70.69 -90.38,-105.81 10.06,-0.22 20.05,-0.6 30.17,-1.2 1.06,-0.6 3.25,-1.69 4.37,-2.23l6.06 -3.21 5 -2.61c-63.15,-30.78 -112.49,-77.81 -161.27,-123.38 -74.57,-74.93 -143.59,-154.86 -197.87,-242.24 -33.48,-55.3 -60.83,-115.55 -65.33,-178.51 31.79,57.04 76.82,106.9 122.92,155.51 46.47,87.98 129.48,157.04 221.16,209.84 61.15,34.47 125.79,64.87 194.5,86.46 -5.56,-23 -12.93,-45.62 -18.92,-68.57 22.48,4.02 44.91,8.15 67.64,11.31 1.37,2.55 4.18,7.72 5.62,10.28 24.61,62.97 45.22,127.02 65.96,191.02 9.68,-24.09 1.62,-49.81 1.81,-74.6 -11.68,-88.63 -26.17,-177.05 -42.35,-265.08 -24.05,-53.67 -67.08,-98.69 -107.62,-143.44 -14.11,-25.12 -32.98,-47.8 -50.28,-71.23 -32.35,-43.23 -67.39,-85.59 -111.99,-119.95 -68.27,-52.26 -151.03,-89.77 -238.85,-110 69.21,-7.34 140.53,-5.76 207.8,11.31 -49.03,-49.97 -101.43,-100.81 -170.58,-129.74 12.24,-86.02 29.73,-171.5 45.66,-257.09 13.49,1.25 27.05,1.09 40.6,0.87l5.93 0.06c-83.01,-87.71 -170.45,-172.21 -252.52,-260.62 -46.22,-47.25 -65.71,-108.42 -88.01,-166.12zm701.48 2583.92l0 0c0.19,12.34 -5.56,25.99 1.37,37.68 24.54,24.74 65.14,28.17 91.75,50.51 21.17,16.48 33.54,39.53 53.46,57.1 15.68,13.49 27.73,31.21 48.84,38.93 -0.31,-3.59 -0.87,-10.82 -1.19,-14.41 -8.68,-26.7 1.13,-54.97 -7.56,-81.78 -8.12,-25.29 -17.11,-50.41 -24.8,-75.8 -12.37,-32.35 -33.98,-68.84 -75.14,-77.81 -43.22,-4.73 -89.44,25.72 -86.75,65.58z"/>
   <path class="fil2" d="M2228.59 2219.72c8.87,13.05 11.12,28.39 17.68,42.36 46.1,104.73 109.68,203.53 186.75,293.41 27.3,33.99 60.78,63.62 89.94,96.35 29.67,37.57 72.33,66.39 97.31,106.96 88.32,136.43 166.02,277.86 243.59,419.02 4,29.69 -11.3,57.86 -14.74,87.11 -33.42,128.98 -74.51,258.56 -148.72,374.81 -21.11,35.29 -56.03,63.83 -69.58,102.55 -11.49,28.06 -2,58.34 -5.43,87 -41.97,30.18 -82.51,61.77 -122.42,94.02 -24.73,-29.63 -43.22,-62.64 -63.08,-94.83 -98.31,-164.16 -167.7,-340.93 -210.48,-522.17 -37.54,-163.83 -60.02,-331.09 -53.15,-498.35 -1.37,-30.18 -2,-60.36 -0.25,-90.53 -18.49,23.43 -34.1,48.39 -52.9,71.61 -19.55,23.76 -27.73,52.96 -48.03,76.4 -0.69,-41.44 13.05,-81.45 17.11,-122.45 12.05,-56.17 18.74,-113.1 33.42,-168.84 27.8,-119.52 66.33,-236.86 103,-354.42z"/>
   <path class="fil2" d="M3194.64 4072.29c38.41,-7.51 72.32,-27.41 111.67,-32.08 35.41,-3.15 73.02,-4.95 105.74,9.63 15.05,7.12 37.6,5.82 47.22,19.03 -7.81,49.15 -21.92,97.88 -48.34,142.19l-1.44 0c-62.15,0.87 -125.73,-17.73 -171.89,-54.43 -23.11,-22.62 -41.85,-51.33 -42.79,-82.27l-0.18 -2.07z"/>
   <path class="fil3" d="M4420.39 1037.48c99.87,-35.45 202.05,-72.21 310.73,-78.73 -24.54,97.82 -59.34,194.34 -112.61,283.29 -74.51,126.7 -189.94,238.93 -339.21,300.37 35.85,131.43 72.58,262.74 108.3,394.17 57.15,41.65 105.93,102.07 100.12,169.87 -6.74,70.96 -33.98,139.26 -65.83,204.4 -70.52,140.89 -173.01,268.83 -293.68,380.47 -16.11,20.77 -34.48,40.34 -48.91,62.04 4.62,40.94 20.86,80.1 29.04,120.55 8.18,41.76 20.36,82.87 33.54,123.65 29.29,112.23 58.34,224.46 87.25,336.75 -115.23,23.22 -229.16,51 -343.02,78.79 33.54,102.55 78.76,204.4 152.9,290.26 26.23,33.71 34.66,77.1 24.42,116.69 -16.36,72.38 -68.14,133.49 -121.23,189.06 -42.22,42.36 -89.56,80.75 -138.78,116.91 -23.23,19.79 -58.27,18.11 -88.38,19.79 -61.71,51.49 -127.92,101.63 -207.11,131.37 -104.37,33.66 -222.35,33.5 -326.53,-0.38 -78.82,-29.85 -144.59,-79.93 -206.3,-130.99 -24.98,-1.03 -51.59,-1.03 -74.32,-11.15 -54.09,-34.47 -100,-77.43 -146.16,-119.3 -30.35,21.53 -54.96,48.23 -83.88,71.12 -243.65,214.73 -470.38,445.61 -659.19,699.27 -15.24,19.63 -25.92,41.71 -42.78,60.47 -34.42,37.52 -53.09,83.41 -81.76,124.08 -12.99,22.78 -27.55,44.86 -39.47,68.13 -14.18,-27.95 -9.49,-59 -15.18,-88.36 -3.62,-39.91 -6.18,-79.93 -12.99,-119.57 -0.06,-40.29 -13.43,-79.11 -16.55,-119.19 -35.67,-318.75 -68.96,-638.04 -73.77,-958.43 -4.68,18.16 -7.68,36.6 -8.93,55.19 -40.16,325.27 -78.45,651.85 -70.27,979.47 -12.8,-2.23 -15.49,-15.23 -22.42,-23.11 -29.67,-41.54 -64.71,-82.16 -112.49,-108.92 -21.55,-12.4 -48.78,-21.1 -74.26,-12.99 -86.38,27.02 -179.69,38.71 -271.07,28.65 -52.65,-7.56 -103.81,-23 -150.03,-46.27 -36.66,-17.07 -69.39,-40.46 -108.43,-53.4 62.65,-12.89 121.11,-37.68 184.07,-49.65 53.78,-10.6 110.05,-9.62 163.77,0.82 -11.68,-14.63 -27.11,-26.81 -45.47,-34.75 -46.78,-21.26 -99.25,-30.02 -150.28,-40.02 -141.72,-25.78 -287.12,-43.77 -421.09,-93.96 -94.63,-34.37 -184.51,-87.71 -238.09,-165.52 58.9,10.76 118.98,18.38 179.32,16.97 76.76,0.65 157.83,-3.65 226.23,-37.08 129.54,-55.08 276.57,-63.67 409.17,-110.98 42.97,-19.52 81.82,-47.74 109.55,-82.54 -24.42,8.1 -47.72,18.38 -71.51,27.73 -40.6,10.22 -78.64,27.02 -120.55,33.93 -73.51,20.77 -151.59,24.14 -228.35,22.13 -45.84,-0.71 -90.44,-11.2 -134.91,-19.9 -96.19,-26.32 -180.26,-76.72 -274.26,-107.77 -66.9,-23.27 -141.47,-34.36 -212.55,-20.44 68.02,-46.16 153.77,-76.56 241.03,-73.46 41.35,4.9 83.26,5.82 124.23,13.16 100.81,14.14 210.74,-8.59 285.13,-71.18 13.8,-12.72 29.61,-23.65 44.91,-34.91 -137.16,-45.35 -282.31,-74.6 -429.34,-77 -123.6,0.05 -251.9,15.66 -361.14,69.06 38.6,-97.88 116.73,-181.51 211.3,-242.9 129.98,-84.77 290.31,-127.29 450.14,-142.79 50.97,-6.85 102.99,-3.86 153.84,-11.58 63.64,-13.54 102.99,-63.51 158.83,-89.72 -70.33,4.57 -138.28,34.04 -209.55,22.45 -39.35,-6.2 -75.14,-22.83 -113.49,-32.35 -119.11,-33.55 -247.77,-48.23 -371.63,-27.51 -53.71,9.4 -105.87,26.21 -152.27,51.76 44.72,-79.88 130.6,-134.91 219.54,-174.17 165.45,-69.98 351.08,-93.8 533.27,-100.43 -32.54,-13.32 -69.58,-18.7 -102.37,-32.51 -82.13,-25.07 -143.72,-80.64 -214.11,-122.62 -68.39,-42.9 -147.59,-74.33 -231.72,-83.09 82.88,-17.18 169.39,-14.95 254.15,-13.38 75.63,3.86 150.15,16.86 225.41,24.2 49.22,5.65 100.43,4.62 147.65,-9.9 57.02,-17.56 104.56,-52.8 143.97,-91.89 -79.57,3.92 -163.52,0.65 -236.28,-30.67 -55.52,-24.63 -88.44,-72.32 -128.85,-111.36 -18.55,-18.92 -43.66,-30.99 -66.27,-45.62 25.29,2.83 50.78,4.68 76.32,4.35 115.86,4.73 233.04,8.32 347.96,-8.26 78.07,-10.82 150.03,-40.51 222.86,-65.63 40.1,-14.74 82.01,-25.01 122.73,-38.23 -193.81,27.14 -395.87,41.16 -587.74,-3.8 -119.61,-27.19 -228.79,-87 -308.48,-169.22 71.76,20.34 139.28,53.12 214.67,63.18 72.64,12.89 149.84,-4.9 209.8,-41.87 57.09,-34.58 102.62,-81.29 143.15,-130.01 44.85,-47.52 116.92,-66.28 184.25,-75.2 37.35,-5.44 75.26,-7.07 113.11,-7.88 -64.08,-50.63 -146.78,-81.19 -230.79,-96.79 -96.37,-16.86 -196.68,-15.06 -292.56,3.26 45.59,-40.56 99.56,-72.81 151.77,-106.41 71.14,-34.31 145.41,-68.51 227.29,-77.7 31.29,-4.4 62.96,-1.47 94.5,-2.93 48.41,-1.79 94.19,15.06 136.85,33.12 -39.79,-35.83 -86.7,-67.86 -142.47,-81.95 -18.49,-7.5 -40.22,-5.16 -57.71,-14.57 45.66,-22.84 98.62,-31.59 150.4,-36.11 57.46,-3.75 120.55,2.99 165.02,37.9 -24.86,-37.19 -46.35,-78.03 -46.16,-121.91 -1.56,-28.77 8.43,-56.93 23.11,-82.33 22.11,37.3 44.28,78.19 86.63,101.25 23.11,13.59 56.28,12.61 77.64,-3.21 17.24,-11.8 36.6,-26.75 36.41,-47.47 -5.75,-26.54 -28.79,-46.16 -48.09,-65.9 -63.02,-58.45 -123.55,-123.05 -147.84,-202 15.36,11.31 26.42,26.21 41.22,38.01 44.79,36.43 101.68,59.81 160.46,73.79 67.21,16.97 138.66,21.64 202.93,47.2 -122.23,-123 -192,-278.56 -230.35,-436.09 62.46,3.21 123.05,18.43 182.07,35.62 80.7,24.69 159.7,53.34 236.97,85.15 -84.94,-142.74 -120.92,-307.71 -100.56,-467.52 8.74,-33.87 13.49,-69.22 31.16,-100.76 0.44,-3.26 1.25,-9.9 1.62,-13.16 1.06,0.38 3.06,1.14 4.06,1.52 10.74,39.04 30.04,75.64 47.41,112.61 18.61,25.39 35.35,51.87 54.21,77.16 38.85,44.21 86.63,85.48 147.22,106.03 57.71,20.01 123.73,17.45 181.07,-2.23 -66.95,-16.64 -110.05,-70.09 -139.84,-121.58 -29.54,-44.32 -31.92,-101.9 -4.62,-147.52 22.92,-41.44 61.58,-73.51 93.75,-109.29 20.55,67.1 45.85,135.01 94.94,190.86 18.61,20.06 40.41,39.09 67.96,49.65 24.8,9.95 56.9,7.83 76.76,-9.57 98.43,-87.49 141.53,-212.72 138.84,-333.32 85.13,107.99 105.43,246.27 88.32,373.99 39.79,-88.36 107.24,-165.35 186.69,-229.63 30.48,-22.4 67.46,-42.3 108.74,-41.76 48.72,-2.01 90.44,26.48 119.55,57.75 -22.92,-13.05 -51.72,-21.8 -78.14,-10.88 -45.72,19.03 -72.64,59.27 -94.31,97.33 -48.97,84.39 -60.27,182.92 -40.47,275.36 5.06,25.99 12.43,51.55 19.55,77.11 48.47,-78.95 134.48,-142.63 236.16,-161.71 97.87,-17.73 201.43,24.3 259.77,92.87 52.03,67.37 66.64,151.06 67.46,230.71 -0.19,69.6 -6.44,140.29 -31.73,206.79 -45.84,128.54 -125.23,250.24 -240.65,341.04 -17.68,12.67 -34.04,27.62 -55.53,35.45 -17.93,6.36 -27.92,22.19 -43.85,31.16 26.05,-5.6 50.16,-16.75 68.52,-33.93 48.03,-27.73 96.68,-54.92 140.66,-87.6 78.14,-54.27 135.35,-127.35 180.19,-204.4 30.6,-52.2 56.59,-106.58 74.89,-162.96 124.54,-58.73 251.71,-113.43 382.12,-161.5zm254.08 -182.32c-62.33,9.3 -126.29,18.21 -184,41.7 -18.68,-0.82 -34.29,11.04 -52.4,13.7 -15.36,7.34 -34.23,8.1 -47.34,18.71 -18.43,0.65 -34.42,9.52 -50.28,16.75 -47.28,14.52 -92.44,33.77 -137.47,52.85 -21.24,8.97 -44.97,14.68 -62.58,29.09 -34.1,2.66 -55.78,33.87 -90.07,35.18 -4.19,-63.51 -6.68,-128.87 -34.92,-188.36 -4,-8.81 -3.69,-20.23 -13.43,-26.21 -1,-3.05 -3,-9.14 -4.06,-12.13 -1.12,-8.48 -7.56,-14.84 -13.49,-21.1 -7,-13.43 -15.99,-25.94 -24.92,-38.44 -13.11,-7.07 -18.92,-19.9 -29.35,-29.2 -27.05,-24.25 -56.28,-46.98 -88.94,-65.14 -16.99,-6.69 -33.67,-13.97 -50.09,-21.64 -15.11,-1.47 -29.98,-4.13 -44.22,-8.54 -30.23,-7.34 -61.96,-9.57 -93.25,-10.33 -7.87,-3.86 -16.74,-3.53 -25.3,-3.32 -2.37,0.92 -7.12,2.78 -9.49,3.7 -51.22,1.47 -102.74,13.87 -146.72,36.65 -12.31,1.74 -22.24,9.79 -35.23,9.03 0.13,-29.53 13.06,-57.1 23.74,-84.56 1.06,-3.05 3.19,-9.14 4.25,-12.18 3.56,-5.17 7.12,-10.39 10.74,-15.61 7.93,-14.84 24.48,-23.38 39.48,-32.19 22.05,-7.29 44.66,-14.74 68.7,-12.01 6.5,1.85 12.99,3.42 19.68,4.89 26.3,11.36 42.66,33.5 55.84,55.41 6.62,-30.89 7.56,-63.13 1.87,-94.18 -15.8,-53.12 -50.09,-101.68 -96.68,-138.6 -39.97,-33.11 -95.56,-54.27 -151.34,-48.99 -65.52,3.04 -123.48,35.45 -170.89,72.75 -8.49,6.42 -13.99,19.58 -27.86,15.5 -7.62,-22.78 -16.93,-45.51 -29.73,-66.77 -4.37,-15.72 -15.74,-29.36 -24.42,-43.55 -6.18,-20.39 -28.73,-32.84 -35.29,-52.75 -2.31,-1.63 -6.93,-5 -9.31,-6.63 -8.18,-15.22 -20.74,-28.16 -31.35,-42.09 -28.54,-32.3 -51.78,-67.97 -80.76,-99.94 -14.3,-20.72 -31.23,-39.91 -47.53,-59.43 -5.87,-8.86 -11.06,-18.05 -16.3,-27.19 3.81,105.65 1.12,211.58 1.43,317.34 0.94,34.09 -8.68,67.32 -12.99,100.97 -13.43,31.16 -24.86,63.08 -43.66,92.33 -8.93,10.66 -14.62,24.36 -28.61,30.94 -13.49,-1.52 -18.05,-13.97 -25.23,-22.13 -18.8,-28.71 -33.54,-59.38 -45.97,-90.65 -15.24,-52.36 -29.04,-105.05 -43.28,-157.53 -4.44,-25.23 -12.99,-49.75 -18.3,-74.87 -7.18,8.92 -14.68,17.62 -22.36,26.15 -6.68,13.05 -26.17,18.33 -27.98,33.33 -9.5,8.1 -19.11,16.04 -28.3,24.31 -0.75,2.01 -2.19,5.98 -2.87,7.94 -21.36,17.94 -37.72,39.64 -56.21,59.65 -34.48,31.59 -66.46,65.52 -91.81,103.2 -2.25,5.87 -5.94,11.04 -11.06,15.44 -0.5,2.93 -1.62,8.7 -2.12,11.64 -8.06,11.91 -15.3,24.31 -19.86,37.57 -2.94,7.01 -4.44,14.41 -5.81,21.8 -5.75,9.41 -4.25,20.23 -5.06,30.5 -3.49,-0.27 -10.55,-0.71 -14.05,-0.92 -8.74,-23.27 -23.36,-44.53 -32.85,-67.59 -1.81,-5.44 -3.81,-10.77 -6.06,-15.99 -7.62,-75.47 -20.86,-150.35 -27.61,-225.93 -10.68,-46 -7.31,-94.89 -21.61,-139.8 -12.74,42.47 -40.1,80.75 -54.9,122.73 -13.99,24.25 -28.67,48.77 -38.41,74.71 -7.87,12.07 -14.68,24.69 -19.3,37.96 -14.18,22.73 -23.23,47.47 -36.29,70.63 -5.31,16.53 -20.49,31.32 -18.3,48.99 -3.25,5.17 -6.56,10.39 -9.93,15.55 -0.87,5.49 -1.69,11.04 -2.5,16.58 -2.62,5.38 -5.12,10.82 -7.49,16.31 -3.56,8.7 -4.31,17.95 -5.5,27.02 -5.81,10.12 -4.56,21.64 -5.99,32.57 -0.94,2.18 -2.81,6.58 -3.75,8.76 -2.69,75.36 -8.37,151.76 8.5,226.26 1.19,28.49 13.05,55.52 15.8,83.85 -51.71,-12.94 -102.37,-30.29 -155.77,-37.79 -69.33,-14.36 -141.03,-3.86 -211.3,-9.24 9.24,25.07 13.43,51.28 20.67,76.78 11.93,49.32 23.8,99.13 42.41,146.87 12.12,43.88 35.73,84.66 49.34,128.06 -7.81,-0.66 -15.62,-1.47 -23.36,-2.34 -12.49,-12.29 -31.04,-18.16 -42.1,-32.08 -20.24,-3.1 -28.23,-22.95 -43.84,-32.79 -12.37,-0.32 -18.42,-9.79 -24.11,-17.89 -49.03,-37.79 -99.06,-74.93 -143.09,-117.4 -0.5,8.26 -0.94,16.53 -1.44,24.8 -9.24,14.46 -2.18,31.16 -0.19,46.38 1.81,55.63 13.74,110.65 29.67,164.43 1.75,12.13 6.12,23.82 12.87,34.53 3.81,18.87 10.49,37.68 20.61,54.76 3.12,13.27 2.12,26.97 -7.62,38.01 -18.24,9.52 -22.8,29.8 -36.48,43.17 0.19,1.31 0.69,3.86 0.87,5.16 -24.86,29.85 -28.17,68.02 -31.04,103.59 -2.12,1.74 -6.37,5.22 -8.5,6.96 -58.34,-0.33 -117.17,12.45 -168.51,36.38 -23.8,3.21 -38.72,20.88 -58.71,30.67 -22.73,11.69 -40.1,29.25 -58.9,45.02 -30.98,7.23 -60.84,17.73 -89.07,30.94 -14.18,6.8 -28.67,13.05 -43.22,19.25 -20.3,7.34 -37.48,19.41 -56.78,28.22 -37.72,24.2 -77.82,45.89 -111.17,74.82 -21.49,7.07 -30.98,28.11 -51.78,36.27 -2.93,7.94 -10.93,12.83 -17.61,18.38 -35.48,30.61 -69.96,62.1 -105.49,92.71 -5.68,4.78 -10.74,10.22 -13.99,16.58 -2.12,0.16 -6.43,0.49 -8.56,0.65 -0.56,10.06 -9.75,15.71 -18.24,21.1 -16.05,13.54 -28.42,31.48 -51.4,36.92 4.75,0.49 14.24,1.36 18.93,1.85 34.66,-4.02 69.01,-9.14 103.74,-12.45 33.48,-2.72 66.58,-7.89 99.93,-11.1 18.61,-1.68 37.29,-2.55 55.9,-3.92 26.23,-8.59 55.53,-5.71 82.01,-13.32 31.73,-2.83 63.71,-2.01 95.31,-5.93 15.18,-1.52 19.68,18.21 3.37,19.58 -14.05,13.27 -25.92,28.17 -40.53,41.11 -3.44,12.02 -21.49,16.1 -21.86,29.2 -4.25,2.61 -8.56,5.28 -12.8,7.99 -26.98,33.17 -65.33,57.42 -105.12,77.98 -20.24,4.46 -40.66,8.05 -61.21,11.36 -26.36,-8.59 -57.71,0.6 -82.32,-13.86 -8.24,-1.69 -16.61,-2.93 -25.05,-3.64 -46.53,-19.3 -96,-32.24 -143.84,-48.61 -66.95,-19.19 -132.54,-42.03 -199.87,-60.14 -51.72,-19.52 -106.49,-32.41 -158.52,-51.22 18.36,11.53 29.79,29.47 49.03,40.29 -0.75,1.41 -2.25,4.13 -3,5.54 24.17,15.17 38.66,38.34 58.83,56.99 17.99,17.07 33.79,36.1 52.9,52.25 9.25,13.38 24.73,22.4 33.48,36.27 9.68,14.85 33.67,21.64 33.6,40.78 2.69,-1.36 8.06,-4.13 10.68,-5.49 -6.12,17.56 21.42,21.42 25.42,36.6 18.86,19.3 43.72,34.42 59.08,56.12 1.75,-1.2 5.25,-3.53 6.93,-4.73 17.68,22.67 44.22,36.87 69.33,52.36 5.37,5.82 12.49,9.3 21.17,9.95 0.07,3.59 0.13,10.88 0.19,14.52 -85.88,0.76 -171.89,-1.85 -257.64,1.47 17.24,2.01 30.04,12.89 42.97,21.97 50.65,27.89 94.12,64.49 144.03,93.14 6,5.87 11.81,11.86 17.49,17.95l10.24 -5.76c-0.81,2.88 -2.5,8.7 -3.37,11.58 16.24,1.69 24.55,14.84 35.73,23.55 7.31,0.27 13.12,4.08 17.49,9.03 19.05,19.58 42.47,35.51 62.4,54.37 7.24,15 22.36,24.85 35.79,35.56 0,3.59 -0.12,10.82 -0.12,14.46 -47.41,-4.02 -94.44,-12.07 -142.28,-12.23 -33.79,-4.84 -68.39,-6.04 -102.37,-2.72 -29.04,6.74 -60.39,3.7 -88.69,12.83 -38.1,3.65 -75.89,10.77 -112.3,21.37 -18.86,4.73 -37.35,10.44 -56.03,15.77 -15.42,3.7 -29.48,10.44 -43.41,17.07 -16.67,2.23 -29.73,11.96 -44.22,18.65 -24.61,14.14 -49.22,28.44 -73.95,42.52 33.73,0 65.58,9.89 98.81,12.99 7.56,3.97 16.49,4.24 24.92,5.71 7.74,3.64 16.55,4.46 25.11,5.76 7.99,2.83 16.49,3.92 24.92,5.11 6.25,1.9 12.49,3.86 18.74,5.82 6.25,1.47 12.43,3.15 18.55,5.05 26.54,4.19 49.34,17.62 75.83,22.19 21.61,10.66 44.97,18 67.33,27.29 2.12,-0.22 6.43,-0.65 8.62,-0.81 2.44,2.45 7.37,7.34 9.81,9.84 11.43,3.92 21.05,11.26 33.29,13.54 10.56,5.76 20.92,11.96 30.79,18.65 10.05,2.55 14.74,17.51 26.67,11.25 0.31,6.96 0.75,13.92 1.31,20.88 -9.18,3.37 -18.74,6.09 -28.23,8.76 -43.35,6.96 -84.76,22.24 -127.04,32.03 -2.44,1.69 -7.25,5.11 -9.68,6.8 -10.81,2.83 -21.61,5.71 -32.1,9.35 -21.11,8.37 -42.22,17.07 -62.09,27.51 -49.28,20.39 -91.82,50.51 -132.79,81.4 -20.55,23.11 -48.72,40.56 -66.02,65.9 -32.17,43.83 -58.65,91.19 -75.83,141.1 -6.12,12.23 -10.24,25.12 -12.56,38.33 -8.12,15.66 -12.99,32.35 -18.93,48.72 -15.61,36.21 -23.36,74.71 -40.22,110.49 2.37,-0.11 7.06,-0.27 9.37,-0.33l-3.5 -6.69c18.05,-3.86 28.04,-19.09 40.47,-29.8l5.87 4.24c5.93,-6.14 11.93,-12.18 18.05,-18.11 37.91,-20.56 69.64,-48.45 106.62,-70.2 13.87,-7.01 22.99,-20.23 38.54,-24.58 5.5,-4.46 11.06,-8.97 17.99,-11.58 6.62,-4.79 13.3,-9.68 22.36,-9.68 2,-2.56 6,-7.67 7.93,-10.22 2.31,0.27 6.87,0.92 9.18,1.2 59.83,-32.35 132.47,-37.46 201.3,-35.62 -0.06,3.43 -0.25,10.28 -0.31,13.7 -42.53,9.3 -82.2,25.94 -120.92,43.5 -51.03,17.02 -93.69,47.42 -138.34,73.62 -10.62,7.94 -20.11,16.97 -29.92,25.61 -2.25,0.11 -6.62,0.27 -8.87,0.38 -25.79,19.19 -46.1,43.28 -71.64,62.8 -0.25,1.69 -0.62,5.11 -0.87,6.8 -55.71,47.69 -92,109.46 -122.36,171.45 -7.75,24.03 -13.68,48.5 -21.74,72.48 -15.55,48.83 -30.04,97.98 -44.34,147.09 -1.31,4.3 -3.87,12.89 -5.19,17.18 28.86,-15.82 59.15,-29.63 87,-46.66 8.12,-4.73 16.18,-9.46 24.17,-14.3 11.06,-4.84 22.86,-7.99 35.17,-8.7 -1.19,7.45 0.5,16.2 -5.62,22.51 -16.86,23.98 -40.79,45.78 -48.41,73.68 -1.81,3.64 -5.37,10.98 -7.12,14.62 52.65,-5.54 105.12,2.72 157.52,5.98 19.3,8.1 41.78,5.98 62.21,11.04 11.68,5.38 25.11,5.22 37.97,5.93 19.17,9.13 41.28,10.66 62.02,15.77 7.68,4.3 16.55,6.04 25.54,6.96 29.8,11.96 61.96,19.14 90.69,33.28 26.48,9.51 50.59,23.92 78.07,31.32 14.8,6.74 29.35,14.74 46.47,15.99 -0.06,3.37 -0.25,10.12 -0.31,13.49 -9.56,0.38 -19.36,0.11 -28.23,3.81 -29.85,1.52 -59.83,1.47 -89.75,1.03 -2.44,-0.92 -7.43,-2.83 -9.93,-3.75 -22.74,-0.32 -45.47,-1.31 -68.08,-3.59 -42.03,-5.6 -82.76,-17.51 -124.92,-21.42 -44.91,-12.02 -91.31,-20.07 -137.66,-26.59 -9.43,-4.95 -20.24,-7.02 -30.86,-8.97 33.79,38.17 59.71,81.57 89,122.18 6.5,9.08 13.12,18.11 19.61,27.3 18.11,15.5 20.42,41.05 40.22,54.7 27.11,36.27 64.33,65.47 100.25,94.89 23.17,13.32 44.16,30.07 69.27,41.11 20.11,14.46 44.97,23.27 68.77,32.14 60.59,28.22 127.23,44.48 192.81,61.17 14.8,2.12 39.35,1.74 35.54,20.82 -51.71,5.6 -100.25,23.65 -151.65,30.4 29.86,5.6 50.78,26.92 79.32,35.07 21.99,12.02 44.85,23.49 68.7,32.41 10.68,5.71 20.24,15.6 33.85,14.9l0.5 5.38c46.22,17.62 91.13,40.13 133.1,65.3 9.74,-2.72 13.18,6.25 18.3,11.47 29.61,11.2 57.34,26.37 88.88,33.44 22.67,9.84 47.47,14.41 72.02,19.09 61.71,9.62 125.29,15.99 187.37,5.55 43.41,-4.41 86.82,-11.96 127.85,-25.34 3.25,-0.22 9.75,-0.76 12.99,-0.98 13.62,6.85 23.23,20.99 39.73,22.73 -0.44,1.9 -1.31,5.76 -1.69,7.72 19.11,4.89 25.61,22.95 39.6,33.49 8.37,8.05 20.86,13.87 24.23,25.01 13.06,13.97 28.92,27.02 37.73,43.39 8.31,8.92 19.74,16.15 24.73,27.19 10.99,16.53 25.42,31.21 36.35,47.9 1.75,2.93 5.25,8.75 7,11.69 1,19.03 0.81,38.12 0.75,57.26 0.75,8.1 -2.31,17.95 5.56,24.47 1.94,28.82 -5.62,59.92 5.87,87.27 0.12,33.01 -0.31,66.17 5.06,98.97 2.37,29.2 0.81,58.67 7.31,87.54 0.81,78.73 15.74,156.87 16.36,235.45 4.44,-10.44 8.56,-20.99 12.24,-31.59 5.18,-8.86 10.37,-17.67 15.8,-26.32 0.69,-2.77 2,-8.32 2.69,-11.1 21.42,-35.34 39.29,-72.26 57.52,-108.91 37.91,-67.15 76.58,-133.98 115.42,-200.75 2.69,-5.82 5.37,-11.53 8,-17.29 6.06,-9.08 12.8,-17.83 18.92,-26.86 3.25,-5.33 6.5,-10.6 9.81,-15.82 6.31,-8.81 13.3,-17.35 15.99,-27.57 7.62,-8.27 13.24,-17.67 18.11,-27.3 6.31,-10.87 11.87,-22.07 19.24,-32.41 19.49,-19.03 31.1,-42.79 43.91,-65.47 6,-6.85 11.49,-13.97 17.11,-21.04 6.62,-13.32 16.86,-25.01 23.17,-38.39 10.93,-17.13 28.6,-30.67 35.79,-49.59 22.55,-23.33 37.1,-51.55 57.77,-76.07 6.25,-11.26 22.24,-19.36 21.68,-32.57 11.06,-9.46 19.99,-20.44 28.67,-31.54 9.62,-16.04 24.54,-29.04 35.73,-44.21 17.24,-17.84 29.73,-39.1 49.47,-55.09l-2.75 -4.78c8.24,-6.42 18.36,-12.18 21.55,-21.91 22.05,-23 42.47,-47.2 64.02,-70.58 28.42,-32.57 59.65,-63.08 89.69,-94.45 14.55,-17.89 37.6,-29.69 48.47,-50.03 23.92,-16.91 41.22,-39.64 65.33,-56.33 -0.94,-2.01 -2.87,-5.98 -3.81,-7.99 3.31,0.16 9.87,0.43 13.12,0.6 6.18,-14.63 19.49,-28.82 36.66,-33.82 1.06,-2.12 3.12,-6.31 4.18,-8.37 30.79,-28.49 64.89,-54.32 94.31,-83.9 17.24,0.16 30.04,11.15 41.22,21.26 36.41,18.92 75.2,43.45 120.86,41.49 6.31,1.25 12.74,2.5 19.24,3.75 30.48,26.1 63.89,49.1 98.12,71.4 9.56,-1.09 13.62,6.36 18.55,11.96 23.11,5.66 41.29,22.62 63.27,31.81 10.87,1.8 20.61,6.42 30.23,11.15 106.68,31.54 223.73,41.76 333.22,15.55 25.42,-5 50.46,-11.8 74.64,-20.34 15.18,-5.38 29.54,-12.34 44.16,-18.71 2.56,-2.28 7.68,-6.91 10.24,-9.24 9.43,2.23 15.3,-5.33 22.42,-8.92 33.16,-21.37 69.7,-39.69 97.75,-66.28 13.43,-6.36 21.68,-20.23 37.85,-21.8 33.35,-4.08 69.14,-11.69 94.62,-31.98 24.36,-18.7 51.21,-34.96 73.26,-55.9 28.23,-26.26 60.71,-49.1 85.95,-77.76 41.47,-43.23 79.51,-89.23 108.43,-139.8 7.75,-13.97 16.93,-27.73 19.55,-43.33 5.25,-10.22 10.31,-20.72 11.49,-31.97 20.55,-55.95 12.37,-116.96 -13.43,-170.52 -1.31,-0.49 -3.87,-1.58 -5.19,-2.12 -3.06,-6.14 -6,-12.23 -8.99,-18.32 -21.74,-24.36 -37.79,-52.42 -60.77,-75.64 2.31,-9.24 -5.94,-15.34 -12.12,-21.48 0.19,-14.36 -12.74,-25.61 -18.93,-38.28 -6.37,-17.94 -18.24,-35.07 -14.8,-54.54 52.34,-8.7 103.56,-23.22 155.71,-33.87 57.21,-10.66 113.05,-27.57 170.95,-34.91 -13.37,-62.75 -29.67,-125.39 -49.15,-186.78 -1.13,-11.2 -2.56,-22.4 -5.56,-33.28 -19.3,-64.76 -33.22,-130.83 -51.71,-195.59 -1.25,-9.14 -1.25,-18.49 -5.31,-27.08 -2.25,-5.6 -4.74,-11.15 -7.43,-16.48 -1.06,-10.98 0.31,-22.51 -5.31,-32.68 -2.37,-5.39 -4.62,-10.77 -6.75,-16.1 -1.06,-9.3 -0.87,-18.98 -5.93,-27.41 -1.5,-7.34 -3,-14.62 -6,-21.53 -1.44,-7.5 -2.44,-15.06 -6.5,-21.8 -1.44,-7.51 -2.25,-15.17 -6.56,-21.8 -1.87,-9.25 -0.31,-19.47 -7,-27.41 -0.25,-2.61 -0.62,-7.83 -0.81,-10.44 14.24,-12.13 28.48,-24.2 41.84,-36.97 10.18,-20.72 37.6,-30.07 47.84,-50.62 8,-7.18 23.36,-12.24 16.93,-24.52 2.5,0.92 7.49,2.83 9.99,3.75 4.56,-17.4 22.48,-28.28 33.04,-42.85 17.3,-24.2 40.72,-45.56 56.28,-71.18 10.99,-16.75 27.61,-30.61 34.41,-49.54 27.92,-33.33 48.09,-71.4 68.02,-108.7 9.12,-16.15 18.24,-32.24 27.23,-48.45 6.06,-20.66 20.11,-39.04 24.11,-60.14 25.92,-56.12 39.35,-116.42 45.91,-176.45 -3.62,-30.4 -4.87,-62.86 -22.05,-90.21 -0.5,-16.37 -13.87,-28.98 -21.49,-43.17 -1.81,-1.96 -5.43,-5.98 -7.18,-7.94 -14.3,-30.83 -51.15,-48.61 -64.96,-79.39 -10.06,-44.75 -25.05,-88.58 -35.35,-133.33 -15.11,-45.89 -23.79,-93.31 -40.41,-138.76 -0.94,-5.28 -1.5,-10.6 -1.56,-15.88 21.73,-22.24 54.96,-32.57 77.45,-53.94 38.72,-26.16 70.02,-59.65 105.93,-88.52 11.31,-20.72 35.6,-32.63 47.28,-53.24 11.12,-17.02 27.23,-31.16 37.72,-48.5 8.5,-12.99 18.43,-25.23 26.42,-38.5 20.05,-34.09 41.54,-67.8 57.02,-103.7 53.34,-107.39 79.26,-222.61 107.43,-336.36 -53.28,1.69 -106.68,-1.03 -159.96,1.58z"/>
   <path class="fil3" d="M4003.34 2158.41c-90.06,56.54 -164.94,130.31 -227.18,209.89 58.08,-13.37 115.71,-32.56 164.76,-63.3 51.49,-33.26 67.93,-93.42 62.42,-146.58z"/>
   <path class="fil3" d="M2891.57 2361.29c-58.08,-74.35 -127.97,-143.11 -212.02,-195.88 -5.06,49.46 10.03,105.32 57.75,136.51 45.86,28.84 99.9,46.9 154.27,59.37z"/>
  </g>
 </g>
</svg>
