<?xml version="1.0" encoding="UTF-8"?>
<!DOCTYPE svg PUBLIC "-//W3C//DTD SVG 1.1//EN" "http://www.w3.org/Graphics/SVG/1.1/DTD/svg11.dtd">
<!-- Creator: CorelDRAW 2018 (64-Bit) -->
<svg xmlns="http://www.w3.org/2000/svg" xml:space="preserve" width="10.9373in" height="8.2383in" version="1.1" style="shape-rendering:geometricPrecision; text-rendering:geometricPrecision; image-rendering:optimizeQuality; fill-rule:evenodd; clip-rule:evenodd"
viewBox="0 0 2098.09 1580.35"
 xmlns:xlink="http://www.w3.org/1999/xlink">
 <defs>
  <style type="text/css">
   <![CDATA[
    .fil5 {fill:#FEFEFE;fill-rule:nonzero}
    .fil1 {fill:#010101;fill-rule:nonzero}
    .fil6 {fill:#05A631;fill-rule:nonzero}
    .fil0 {fill:#06D342;fill-rule:nonzero}
    .fil4 {fill:#5B5C5B;fill-rule:nonzero}
    .fil3 {fill:#857774;fill-rule:nonzero}
    .fil2 {fill:#FCFDFD;fill-rule:nonzero}
   ]]>
  </style>
 </defs>
 <g id="Layer_x0020_1">
  <metadata id="CorelCorpID_0Corel-Layer"/>
  <g id="_1007975392">
   <g>
    <g>
     <path class="fil0" d="M367.32 0c12.58,8.17 25.24,16.34 39.59,21.34 57.91,46.5 123.98,81.45 187.56,119.42 31.93,21.26 65.56,40.25 101.17,54.82 2.57,-13.91 -3.46,-32.52 11.04,-41.5 4.93,12.14 18.1,12.88 29.07,16.41 43.93,13.39 89.25,24.65 129.14,48.27 18.76,12.8 42.01,4.49 62.76,2.65 14.05,-4.34 28.55,-6.7 43.12,-9.57 56.88,-2.94 114.2,-5.44 170.78,3.09 26.56,2.87 52.54,13.91 79.69,10.08 55.48,-33.77 119.86,-48.27 181.45,-67.03 -0.96,12.51 -1.32,25.02 -1.03,37.6 82.48,-31.64 153.49,-86.97 230.53,-129.36l17.44 -11.26c26.05,-19.5 53.27,-37.53 80.87,-54.89 14.13,26.71 32.52,50.92 45.7,78.14 39.59,72.92 59.16,155.18 65.49,237.52 -0.74,55.19 -9.34,110.37 -26.71,162.84 -2.35,25.17 -17.44,45.47 -31.12,65.64 18.32,36.13 48.71,64.31 68.87,99.48 20.38,34.95 50.11,64.97 65.56,102.43 -31.27,-3.53 -62.32,-9.64 -93.89,-8.53 20.75,46.06 47.31,89.99 74.54,132.52 -23.99,5.89 -48.64,9.64 -71.45,19.21 36.2,17.51 76.01,24.57 115.23,32.08 51.73,2.28 103.6,-0.52 155.4,1.69 -8.61,23.18 -22.74,43.71 -34.44,65.34 -18.32,30.68 -29.65,65.56 -52.98,93.15 -27.08,31.94 -49.89,67.92 -82.41,94.85 -23.18,18.47 -40.91,43.19 -66.07,59.16 -41.06,30.09 -83,59.16 -127.59,83.81 -1.1,3.24 -3.16,9.86 -4.27,13.17 17.36,8.53 34.51,17.51 51.28,27.37 -57.98,31.27 -119.35,55.63 -179.17,82.93 -19.28,8.76 -28.92,28.62 -41.5,44.37 -24.65,35.39 -56.58,65.78 -92.93,88.89 -29.73,11.63 -58.87,-3.46 -85.72,-14.71 -45.99,-36.57 -101.1,-59.75 -149.44,-92.86 -8.76,-0.15 -17.37,-0.15 -25.9,-0.15 -34.88,20.6 -72.62,35.98 -110.74,49.23 -28.77,4.41 -58.2,4.93 -86.9,1.18 -39.81,-8.68 -75.27,-29.65 -111.4,-47.31 -18.76,-8.9 -40.4,-1.84 -55.63,10.6 -40.4,29.73 -88.96,46.5 -127.15,79.25 -22,7.43 -42.68,22.81 -67.03,18.17 -22.44,-0.29 -38.33,-17.88 -55.18,-30.17 -36.28,-26.78 -59.97,-65.93 -84.91,-102.57 -4.34,-0.59 -13.1,-1.62 -17.51,-2.21 -55.92,-32.89 -117.58,-55.26 -175.93,-83.59 18.25,-11.26 37.16,-21.49 57.54,-28.62 -0.44,-2.36 -1.18,-7.07 -1.62,-9.49 -119.79,-62.84 -225.38,-154.3 -299.92,-267.54 -23.91,-43.85 -49.37,-86.83 -70.56,-132.08 90.43,-2.43 186.09,6.33 270.12,-33.85 -24.13,-11.85 -51.21,-12.95 -76.45,-20.9 3.6,-1.55 10.82,-4.78 14.42,-6.4 19.35,-42.82 47.83,-80.94 65.41,-124.57 -30.39,0.52 -60.63,5.15 -90.95,3.97 5.52,-15.6 15.23,-29.14 24.72,-42.53 34.73,-50.04 65.19,-103.97 108.83,-147.02 -53.49,-95.21 -74.1,-209.56 -50.4,-316.69 13.54,-86.02 58.57,-161.29 101.61,-235.24zm7.95 37.67l0 0c-41.57,67.11 -74.9,140.54 -86.09,219.27 -18.1,103.16 3.83,212.06 60.63,300.06 -50.7,42.31 -82.26,101.25 -119.5,154.52 36.13,-1.62 71.74,-8.68 108.02,-9.49 -38.04,45.84 -71.82,96.76 -94.04,152.09 31.93,5.15 63.87,11.7 94.48,22.59 -27.82,25.46 -63.21,40.54 -98.16,53.2 -63.28,22.07 -131.12,16.41 -196.83,21.04 26.42,50.11 51.36,101.76 88.52,145.1 66.74,84.32 154.01,150.55 247.82,202.2 18.25,10.6 39.66,16.63 54.96,32.01 -20.23,9.2 -40.18,18.84 -59.45,29.65 44.3,17.81 85.65,42.9 131.64,56.51 11.26,3.46 23.4,7.5 29.28,18.84 26.34,39 56.29,76.38 93.82,105.29 12.8,11.04 32.45,14.05 46.8,3.83 46.28,-27.59 93.01,-54.38 139.36,-81.82 22.15,-15.23 49.08,-25.16 76.23,-22.44 46.65,21.85 92.49,48.93 144.66,55.33 55.04,3.09 106.03,-23.18 153.12,-48.71 18.76,-12.73 42.68,-5.89 62.62,0.15 56.44,31.34 111.77,64.82 167.54,97.42 12.66,8.68 30.24,8.61 42.6,-0.81 42.82,-31.2 75.72,-73.88 104.48,-117.88 49.89,-16.63 97.57,-39.29 144.81,-62.25 0.29,-1.99 1.03,-6.03 1.32,-8.02 -16.63,-9.79 -34.66,-16.78 -51.95,-25.09 36.57,-25.83 79.25,-41.87 115.96,-67.91 71.74,-46.65 137.67,-102.87 191.16,-169.83 35.84,-42.24 59.01,-92.93 84.99,-141.35 -56.51,-6.4 -114.42,0.96 -169.83,-13.98 -44.81,-11.99 -91.09,-28.99 -125.09,-61.59 30.9,-9.57 62.62,-16.48 94.7,-21.34 -22.74,-55.33 -55.92,-106.54 -94.33,-152.31 36.28,-0.07 71.82,8.17 108.09,9.64 -38.85,-52.02 -67.91,-112.95 -119.64,-153.93 27.22,-47.61 51.21,-98.09 59.3,-152.83 23.47,-127.81 -15.3,-260.11 -85.06,-367.54 -111.99,77.7 -231.41,143.56 -349.73,210.96 0,-18.18 0.37,-36.42 0.74,-54.67 -33.04,13.24 -68.5,19.35 -100.88,34.22 -17.88,7.95 -33.48,20.16 -51.29,28.11 -32.15,-1.4 -62.76,-13.68 -94.85,-16.11 -53.79,-4.19 -108.09,-4.86 -161.73,1.03 -29.65,2.87 -58.05,13.17 -87.71,15.38 -14.35,-6.55 -26.93,-16.26 -40.91,-23.4 -35.02,-18.76 -74.83,-24.58 -111.48,-39 0.59,18.1 0.81,36.28 0.96,54.45 -118.17,-67.7 -236.12,-136.05 -350.1,-210.59z"/>
    </g>
    <g>
     <path class="fil0" d="M954.79 881.95c4.71,-1.55 14.13,-4.49 18.84,-6.03 0.88,19.65 -3.31,41.94 9.57,58.86 27.52,51.14 117.88,44.15 137.74,-10.23 4.12,-15.97 2.65,-32.74 3.53,-49.08 26.86,0.15 16.33,26.93 16.41,44.3 -1.4,39.22 10.67,77.7 28.7,112.28 21.71,42.09 58.35,73.73 84.69,112.65 15.6,24.72 21.56,53.93 28.55,81.97 -6.11,17.44 -16.26,32.89 -26.27,48.27 -5.59,-31.93 -13.39,-63.72 -31.27,-91.17 15.75,46.36 17.15,96.69 2.28,143.48 0.37,-43.63 -4.78,-89.18 -30.68,-125.75 -32.67,-50.11 -92.27,-80.72 -151.8,-79.84 -67.92,1.99 -133.4,44.81 -159.45,108.16 -13.98,30.46 -13.98,64.38 -14.94,97.2 -15.89,-46.65 -13.54,-97.5 2.57,-143.78 -18.69,28.11 -26.71,61.07 -32.23,93.96 -9.13,-16.78 -18.32,-33.55 -27.67,-50.11l0.66 -2.28c9.2,-28.77 14.71,-59.75 32.67,-84.77 26.42,-37.01 60.7,-68.43 81.6,-109.19 26.71,-44.74 32.67,-98.08 26.49,-148.93zm1.03 205.44l0 0c32.01,-5.89 63.87,-14.71 96.83,-13.83 30.24,0.15 59.45,8.39 89.03,13.83 -49.23,-48.56 -136.79,-48.86 -185.87,0z"/>
    </g>
    <path class="fil0" d="M529.93 1183.11c38.19,-30.61 82.41,-55.78 129.36,-69.68 31.42,25.24 54.82,61 64.09,100.44 -18.76,-7.65 -37.3,-15.75 -55.85,-23.62 10.01,32.67 25.9,63.65 30.54,97.86 -20.45,-26.27 -38.85,-54.45 -64.02,-76.6 4.19,27.08 8.83,54.08 12.66,81.23 -14.72,-7.36 -29.43,-14.5 -43.78,-22.3 -25.68,-27.74 -43.93,-62.25 -72.99,-87.34z"/>
    <path class="fil0" d="M1437.19 1110.93c47.83,16.78 90.43,44.66 135.61,67.25 -27,23.03 -45.33,53.57 -67.99,80.28 -17.51,12.95 -36.05,24.43 -54.3,36.2 4.19,-27.59 9.05,-55.04 13.39,-82.63 -25.39,21.93 -43.78,50.11 -64.68,75.94 7.73,-33.55 20.68,-65.49 31.2,-98.09 -18.84,7.8 -37.45,15.97 -56.14,23.92 9.49,-40.18 33.99,-74.17 62.91,-102.87z"/>
    <path class="fil0" d="M1033.52 1142.64c10.08,-0.07 20.31,-0.07 30.68,-0.07 0,19.94 -0.22,39.88 -0.66,59.89 37.6,-2.5 64.16,40.1 60.33,74.69 -13.02,-31.57 -41.94,-60.49 -78.8,-54.67 -34.66,-2.87 -59.16,26.12 -70.12,55.63 -5.67,-35.1 21.49,-77.77 59.38,-76.01 -0.44,-19.79 -0.59,-39.66 -0.81,-59.45z"/>
    <path class="fil0" d="M991.36 1287.6c5.59,23.62 25.02,38.04 46.21,47.39 31.93,3.83 60.19,-18.03 70.71,-47.24 -2.58,15.97 -10.01,30.39 -17.88,44.3 -12.58,5.89 -25.02,12.14 -37.67,17.73 -32.3,-2.87 -62.99,-27.74 -61.37,-62.18z"/>
   </g>
   <g>
    <path class="fil1" d="M375.26 37.67c113.98,74.54 231.93,142.89 350.1,210.59 -0.15,-18.18 -0.37,-36.35 -0.96,-54.45 36.64,14.42 76.45,20.23 111.48,39 13.98,7.14 26.56,16.85 40.91,23.4 29.65,-2.21 58.06,-12.51 87.71,-15.38 53.64,-5.89 107.94,-5.22 161.73,-1.03 32.08,2.43 62.69,14.72 94.85,16.11 17.81,-7.95 33.41,-20.16 51.29,-28.11 32.38,-14.86 67.84,-20.97 100.88,-34.22 -0.37,18.25 -0.74,36.5 -0.74,54.67 118.32,-67.4 237.74,-133.26 349.73,-210.96 69.76,107.43 108.53,239.73 85.06,367.54 -8.09,54.74 -32.08,105.22 -59.3,152.83 51.73,40.98 80.79,101.91 119.64,153.93 -36.28,-1.47 -71.82,-9.71 -108.09,-9.64 38.41,45.77 71.59,96.98 94.33,152.31 -32.08,4.86 -63.8,11.77 -94.7,21.34 33.99,32.6 80.28,49.59 125.09,61.59 55.41,14.94 113.32,7.58 169.83,13.98 -25.97,48.42 -49.15,99.11 -84.99,141.35 -53.49,66.96 -119.42,123.17 -191.16,169.83 -36.72,26.05 -79.39,42.09 -115.96,67.91 17.29,8.32 35.32,15.31 51.95,25.09 -0.29,1.99 -1.03,6.03 -1.32,8.02 -47.24,22.96 -94.92,45.62 -144.81,62.25 -28.77,44 -61.66,86.68 -104.48,117.88 -12.36,9.42 -29.95,9.49 -42.6,0.81 -55.78,-32.6 -111.11,-66.08 -167.54,-97.42 -19.94,-6.03 -43.85,-12.88 -62.62,-0.15 -47.09,25.53 -98.08,51.8 -153.12,48.71 -52.17,-6.4 -98.01,-33.48 -144.66,-55.33 -27.15,-2.72 -54.08,7.21 -76.23,22.44 -46.36,27.45 -93.08,54.23 -139.36,81.82 -14.35,10.23 -33.99,7.21 -46.8,-3.83 -37.53,-28.92 -67.47,-66.3 -93.82,-105.29 -5.89,-11.33 -18.03,-15.38 -29.28,-18.84 -45.99,-13.61 -87.34,-38.71 -131.64,-56.51 19.28,-10.82 39.22,-20.46 59.45,-29.65 -15.31,-15.38 -36.72,-21.41 -54.96,-32.01 -93.82,-51.65 -181.08,-117.88 -247.82,-202.2 -37.16,-43.34 -62.1,-94.99 -88.52,-145.1 65.71,-4.63 133.55,1.03 196.83,-21.04 34.95,-12.66 70.34,-27.74 98.16,-53.2 -30.61,-10.89 -62.55,-17.44 -94.48,-22.59 22.22,-55.33 55.99,-106.25 94.04,-152.09 -36.28,0.81 -71.89,7.87 -108.02,9.49 37.23,-53.27 68.8,-112.21 119.5,-154.52 -56.8,-88 -78.73,-196.9 -60.63,-300.06 11.19,-78.73 44.52,-152.16 86.09,-219.27zm38.04 118.17l0 0c46.28,70.2 89.25,143.85 111.26,225.75 1.1,21.56 2.87,42.97 4.42,64.53 2.72,-0.59 8.17,-1.76 10.89,-2.35 6.03,-8.9 12.21,-17.73 18.62,-26.49 11.41,-8.98 23.55,-17.15 35.25,-25.9 -4.78,-7.65 -9.42,-15.31 -13.91,-23.03 -3.6,-8.09 -7.14,-16.19 -10.45,-24.28 -1.99,-3.6 -5.96,-10.74 -8.02,-14.28 -36.64,-66.96 -83.81,-131.34 -148.05,-173.94zm1259.49 7.21l0 0c-57.47,44.3 -101.98,103.24 -136.35,166.73 -1.91,3.61 -5.67,10.89 -7.58,14.57 -1.76,3.68 -5.3,11.04 -7.06,14.72 -4.86,11.33 -10.67,22.22 -17.59,32.38 11.7,8.53 23.69,16.85 35.17,25.83 6.33,8.68 12.51,17.51 18.84,26.34 2.72,0.59 8.1,1.69 10.82,2.28 1.4,-21.41 3.24,-42.82 4.42,-64.31 21.26,-82.49 66.52,-155.18 110.52,-226.85 -2.8,2.06 -8.39,6.25 -11.18,8.32zm-1185.25 6.47l0 0c64.46,70.12 124.43,147.02 154.89,238.62 -58.94,32.6 -118.98,73.07 -149,135.68 -46.87,15.08 -94.55,36.79 -126.63,75.49 -10.15,6.77 -18.98,15.6 -27.96,23.69 44.74,5.22 90.72,-2.06 134.95,10.37 -56.88,34.73 -107.36,83.44 -138.04,142.89 -6.92,5.23 -8.17,14.28 -11.26,21.71 35.98,9.64 70.27,26.86 98.45,51.44 -71.67,84.54 -183.81,130.9 -293.88,129.28 0.52,3.16 1.47,9.49 1.99,12.65l2.28 -0.29c2.65,2.21 8.02,6.77 10.67,8.98 14.35,32.01 40.1,56.88 62.84,82.93 69.31,71.01 151.28,131.27 242.52,170.78 -9.79,-33.41 -21.19,-67.25 -17.58,-102.57 4.78,-3.75 14.42,-11.19 19.2,-14.86l1.25 0.96c13.39,-7.14 26.42,-14.94 39.37,-23.03 -20.53,-19.5 -34.44,-44.22 -47.24,-69.09 65.19,-27.44 120.3,-76.89 150.25,-141.42 -25.38,9.49 -52.17,6.11 -77.04,-3.16 34,-21.93 52.32,-59.6 65.56,-96.39 13.91,-31.13 28.99,-69.17 62.91,-82.41 -2.94,-1.99 -8.76,-6.03 -11.62,-8.02 -19.28,-4.34 -38.48,-8.61 -57.91,-11.41 41.21,-38.19 89.11,-70.49 144.29,-84.1 36.57,-6.33 74.09,-3.61 109.27,8.53 -2.35,-30.17 -12.29,-58.86 -17.81,-88.52 36.94,21.12 68.65,50.11 94.55,83.81 41.06,60.56 65.49,131.86 70.05,205l4.71 -3.53c2.5,1.99 7.43,5.96 9.94,7.95 -0.37,27.89 -13.84,55.48 -8.32,83.29 -12.88,-16.92 -8.68,-39.22 -9.57,-58.86 -4.71,1.55 -14.13,4.49 -18.84,6.03 6.18,50.84 0.22,104.19 -26.49,148.93 -6.33,-38.78 -0.37,-78.66 -6.4,-117.66 -19.42,9.12 -33.77,25.09 -49.3,39.29 -50.33,47.09 -101.17,93.74 -148.71,143.71 33.41,40.54 61.44,84.77 90.14,128.62l-0.66 2.28c9.34,16.55 18.54,33.33 27.67,50.11 5.52,-32.89 13.54,-65.86 32.23,-93.96 -16.12,46.28 -18.47,97.13 -2.57,143.78 0.96,-32.82 0.96,-66.74 14.94,-97.2 26.05,-63.35 91.53,-106.18 159.45,-108.16 59.53,-0.88 119.13,29.73 151.8,79.84 25.9,36.57 31.05,82.12 30.68,125.75 14.86,-46.8 13.47,-97.13 -2.28,-143.48 17.88,27.45 25.68,59.23 31.27,91.17 10.01,-15.38 20.16,-30.83 26.27,-48.27 29.21,-44.3 57.47,-89.4 91.09,-130.61 -49,-50.92 -100.8,-98.89 -152.53,-147.02 -14.2,-12.8 -26.86,-28.4 -45.4,-35.02 -5.89,39.15 1.32,79.39 -6.4,118.02 -18.03,-34.58 -30.1,-73.06 -28.7,-112.28 -0.07,-17.37 10.45,-44.15 -16.41,-44.3 -0.88,16.34 0.59,33.11 -3.53,49.08 -4.63,-27 -20.31,-55.63 -8.39,-82.85l7.43 7.06c6.84,-66.88 24.21,-133.84 61.07,-190.72 25.9,-41.28 62.32,-75.49 104.71,-99.48 -5.81,29.43 -15.6,58.13 -17.95,88.22 35.25,-12.29 72.77,-14.42 109.64,-8.9 54.3,14.79 103.09,45.11 142.97,84.55 -23.4,3.53 -46.28,9.86 -69.68,12.58 30.54,21.93 51.07,54.89 64.31,89.62 12.07,37.09 32.96,70.71 62.1,96.69 -23.69,8.98 -50.03,12.88 -73.28,0.88 26.63,63.72 80.64,111.48 142.45,139.8 4.12,28.48 -22.89,51.95 -39.95,72.33 6.33,3.97 12.73,8.31 19.65,11.92 12.29,9.64 26.42,16.7 40.03,24.43 4.19,36.42 -8.61,70.93 -17.81,105.44 86.6,-42.46 168.43,-96.46 235.83,-166 25.31,-28.25 54.23,-55.04 69.98,-90.21 2.5,-2.87 7.58,-8.61 10.16,-11.48 2.06,-0.37 6.18,-1.18 8.31,-1.55 -13.83,-13.17 -34.14,-7.43 -51.07,-10.3 -93.89,-10.3 -184.54,-55.04 -246.72,-126.64 28.18,-25.46 63.35,-41.87 99.56,-52.76 -3.83,-7.36 -6.25,-15.82 -12.51,-21.41 -30.68,-59.38 -81.01,-107.58 -137.45,-142.45 44.59,-10.08 90.87,-10.89 136.2,-4.56 -10.01,-9.79 -17.44,-22.08 -29.29,-29.29 -32.08,-38.48 -79.32,-61 -126.49,-75.05 -30.02,-62.77 -90.06,-103.68 -149.15,-136.35 15.6,-42.6 35.17,-83.88 60.41,-121.7 25.09,-41.35 60.41,-74.69 89.4,-113.09 -24.43,16.04 -50.92,28.99 -73.95,46.94 -47.53,18.39 -89.18,49.3 -134.58,72.33 -26.78,12.51 -50.11,35.54 -80.72,37.09 0,-21.34 0,-42.75 -0.15,-64.09 -30.83,9.49 -56.51,28.62 -81.23,48.42 -39.07,-4.19 -76.6,-20.53 -116.26,-23.11 -78.29,-13.61 -158.57,-1.1 -234.21,20.31 -8.17,1.25 -18.4,6.99 -25.09,-0.15 -23.25,-19.2 -48.56,-35.69 -76.89,-46.06 -0.37,23.69 0.96,47.83 -5.37,71.01 -42.02,-24.72 -84.77,-48.2 -127.22,-72.11 -21.04,-11.7 -40.98,-25.97 -64.31,-32.74 -31.35,-22.37 -66.22,-39.59 -97.86,-61.59zm231.41 508.08l0 0c-3.02,33.85 -14.42,68.28 -2.35,101.76 6.11,33.62 28.92,63.13 60.85,75.79 17.73,3.31 36.72,0.37 53.05,10.3 -39.22,39.37 -86.09,69.75 -138.77,87.56 82.78,-19.43 161.95,-56.14 227.81,-110.45 -16.19,-40.25 -49,-70.2 -79.54,-99.7 -33.7,-32.38 -77.7,-50.04 -121.04,-65.27zm462.82 154.59l0 0c-7.73,14.64 10.45,20.31 19.06,27.96 61,44.96 131.71,75.27 205.22,92.71 -52.68,-17.95 -99.7,-48.49 -139.07,-87.64 29.8,-2.35 61.81,-8.83 84.18,-30.39 25.76,-23.03 33.04,-59.16 35.98,-92.12 -1.1,-21.85 -7.58,-43.12 -8.17,-65.04 -82.93,23.4 -152.17,82.26 -197.2,154.52zm-538.25 245.03l0 0c-45.99,25.61 -90.65,53.57 -136.71,78.8 6.7,9.79 14.42,18.84 23.1,27.08 29.06,25.09 47.31,59.6 72.99,87.34 40.25,71.74 83.37,143.85 100.07,225.53 2.35,-69.39 -16.41,-136.94 -31.86,-203.89 31.57,54.89 59.01,112.73 74.91,174.31 3.24,-75.94 -23.47,-149 -36.72,-222.95 30.39,64.46 69.76,125.09 91.17,193.59 -0.59,-18.32 -0.81,-36.79 -5.74,-54.45 -13.76,-50.33 -27.23,-100.95 -46.58,-149.52 42.46,50.26 69.98,110.3 103.38,166.37 -4.12,-31.34 -14.27,-61.59 -27.08,-90.36 -37.6,-82.12 -82.85,-163.35 -150.92,-224.27 -7.73,-7.36 -19.87,-14.27 -30.02,-7.58zm784.6 4.12l0 0c-55.63,48.93 -96.46,112.36 -130.46,177.55 -21.78,44.3 -46.87,89.62 -50.11,139.8 30.76,-55.48 60.04,-112.14 98.3,-163.13 -16.7,65.78 -45.77,129.36 -49.22,197.93 26.78,-63.43 56.44,-126.05 92.64,-184.62 -17.58,73.14 -41.79,147.82 -36.49,223.76 9.93,-64.83 42.23,-123.47 74.02,-180.05 -15.38,66.74 -34.73,133.99 -31.42,203.23 18.03,-86.38 62.25,-164.01 109.41,-237.37 22.66,-26.71 40.99,-57.25 67.99,-80.28 6.26,-6.84 12.51,-13.91 18.76,-20.97 -42.6,-24.94 -85.13,-49.81 -127.59,-74.76 -10.74,-7.21 -25.75,-12.07 -35.83,-1.1zm-394.62 61.29l0 0c0.22,19.79 0.37,39.66 0.81,59.45 -37.89,-1.76 -65.04,40.91 -59.38,76.01 10.96,-29.51 35.47,-58.5 70.12,-55.63 36.86,-5.81 65.78,23.11 78.8,54.67 3.83,-34.58 -22.73,-77.19 -60.33,-74.69 0.44,-20.01 0.66,-39.95 0.66,-59.89 -10.37,0 -20.6,0 -30.68,0.07zm-568.05 70.42l0 0c1.25,34.88 15.97,67.25 33.11,97.05 -6.55,-19.28 -11.26,-39.29 -11.92,-59.67 8.61,2.5 18.62,3.46 25.02,10.89 34.8,32.38 59.97,73.14 84.1,113.76 -26.64,-53.93 -58.57,-106.18 -100,-149.96 -7.21,-9.79 -19.79,-9.49 -30.31,-12.07zm1086.79 80.06l0 0c19.42,-13.17 32.82,-40.76 59.09,-42.68 -1.03,23.1 -6.55,45.62 -13.47,67.62 13.69,-35.69 38.85,-70.78 31.86,-110.81 -35.61,17.51 -59.01,52.17 -77.48,85.87zm-647.22 39.22l0 0c13.98,66.15 79.62,117.22 147.31,113.83 59.82,0.52 115.89,-41.57 135.69,-97.42 12.36,-29.65 6.25,-62.18 7.36,-93.3 -4.49,-0.52 -8.83,-0.88 -13.1,-1.18 14.5,28.48 -6.84,62.69 -18.69,90.06 -10.45,-8.02 -20.82,-16.04 -31.05,-24.14 -6.25,8.39 -12.36,16.78 -18.39,25.17 6.77,8.68 28.47,12.21 24.21,25.9 -29.21,20.68 -64.6,34.58 -100.88,30.61 -32.23,0.07 -58.72,-19.87 -86.02,-33.92 10.74,-7.43 21.56,-14.86 32.45,-22.37 -4.56,-6.77 -9.42,-13.32 -14.35,-19.65 -13.98,-3.39 -24.35,16.19 -39,10.45 -16.34,-25.9 -18.69,-57.32 -24.13,-86.75 -4.34,27.3 -7.8,55.41 -1.4,82.7zm86.31 -44.74l0 0c-1.62,34.44 29.07,59.31 61.37,62.18 12.66,-5.59 25.09,-11.85 37.67,-17.73 7.87,-13.91 15.31,-28.33 17.88,-44.3 -10.52,29.21 -38.78,51.06 -70.71,47.24 -21.19,-9.34 -40.62,-23.77 -46.21,-47.39z"/>
   </g>
   <g>
    <path class="fil2" d="M413.3 155.85c64.24,42.6 111.4,106.99 148.05,173.94 2.06,3.53 6.03,10.67 8.02,14.28 3.31,8.09 6.84,16.19 10.45,24.28 4.49,7.73 9.13,15.38 13.91,23.03 -11.7,8.76 -23.84,16.92 -35.25,25.9 -7.87,6.4 -15.53,12.88 -22.96,19.57 -2.5,-18.62 -5.3,-37.3 -10.96,-55.26 -22,-81.9 -64.97,-155.55 -111.26,-225.75z"/>
    <path class="fil2" d="M1672.8 163.06c2.79,-2.06 8.39,-6.25 11.18,-8.32 -44,71.67 -89.25,144.37 -110.52,226.85 -5.74,17.95 -8.83,36.57 -11.04,55.18 -7.65,-6.7 -15.31,-13.17 -23.03,-19.5 -11.48,-8.98 -23.47,-17.29 -35.17,-25.83 6.92,-10.15 12.73,-21.04 17.59,-32.38 1.76,-3.68 5.3,-11.04 7.06,-14.72 1.91,-3.68 5.67,-10.96 7.58,-14.57 34.36,-63.5 78.88,-122.44 136.35,-166.73z"/>
    <path class="fil2" d="M756.64 412.79c18.84,58.13 67.84,99.77 122.29,123.91 10.81,-35.46 31.49,-67.18 61.37,-89.55 -7.06,25.61 -16.85,50.55 -21.41,76.82 -6.84,41.57 -4.12,83.96 -2.65,125.82l-9.42 -7.73c-25.9,-33.7 -57.62,-62.69 -94.55,-83.81 5.52,29.65 15.45,58.35 17.81,88.52 -35.17,-12.14 -72.7,-14.86 -109.27,-8.53 -55.19,13.61 -103.09,45.91 -144.29,84.1 19.42,2.8 38.63,7.06 57.91,11.41 2.87,1.99 8.68,6.03 11.62,8.02 -33.92,13.24 -49,51.28 -62.91,82.41 -13.24,36.79 -31.57,74.46 -65.56,96.39 24.87,9.27 51.66,12.65 77.04,3.16 -29.95,64.53 -85.06,113.98 -150.25,141.42 12.8,24.87 26.71,49.6 47.24,69.09 -12.95,8.09 -25.97,15.89 -39.37,23.03l-1.25 -0.96c-14.57,-11.4 -29.95,-21.56 -45.4,-31.42 -36.5,-23.4 -65.86,-55.7 -94.04,-88.22 122.07,-37.45 211.91,-144.29 256.58,-260.4 -26.56,4.27 -52.9,9.93 -79.03,16.12 25.17,-53.35 54.97,-105.88 98.45,-146.58 44.15,-43.04 104.04,-71.52 166.59,-70.27 -12.88,-53.42 -9.42,-109.56 2.5,-162.76z"/>
    <path class="fil2" d="M1219.31 536.78c54.15,-24.8 104.04,-66.08 121.85,-124.94 11.63,53.64 15.52,109.86 2.72,163.72 62.47,-1.1 122.51,27 166.59,70.34 43.71,40.62 73.21,93.3 98.6,146.65 -26.27,-6.11 -52.54,-11.85 -79.03,-16.11 15.23,47.46 43.56,89.47 73.36,128.99 46.06,60.63 109.49,108.83 182.78,131.27 -38.12,47.68 -85.43,87.27 -138.7,117.07 -5.37,-1.91 -16.11,-5.67 -21.49,-7.5 -6.92,-3.61 -13.32,-7.95 -19.65,-11.92 17.07,-20.38 44.07,-43.85 39.95,-72.33 -61.81,-28.33 -115.82,-76.08 -142.45,-139.8 23.25,11.99 49.59,8.09 73.28,-0.88 -29.14,-25.97 -50.03,-59.6 -62.1,-96.69 -13.24,-34.73 -33.77,-67.69 -64.31,-89.62 23.4,-2.72 46.28,-9.05 69.68,-12.58 -39.88,-39.44 -88.66,-69.76 -142.97,-84.55 -36.87,-5.52 -74.39,-3.38 -109.64,8.9 2.35,-30.1 12.14,-58.79 17.95,-88.22 -42.38,23.99 -78.81,58.2 -104.71,99.48 -0.22,-40.54 4.19,-81.16 -1.1,-121.48 -3.53,-30.61 -13.69,-59.89 -22.37,-89.25 30.09,22.22 50.4,54.23 61.73,89.48z"/>
   </g>
   <g>
    <path class="fil3" d="M487.55 169.53c31.64,22 66.52,39.22 97.86,61.59 31.49,38.04 75.64,61.74 113.02,93.15 31.57,24.28 60.56,51.8 90.8,77.7 11.99,-22.22 20.97,-45.92 33.33,-67.92 1.47,-0.37 4.49,-1.1 6.03,-1.54 19.72,16.92 35.54,37.75 53.57,56.44 32.3,-29.58 70.56,-55.11 115.08,-60.63 51.21,-5.59 105.88,-6.84 153.86,15.08 24.36,10.82 44.66,28.55 65.05,45.62 17.44,-18.69 32.82,-39.66 52.98,-55.7 1.62,0.22 4.78,0.52 6.4,0.73 11.77,22.22 21.04,45.69 33.55,67.7 36.72,-31.64 72.25,-64.83 111.25,-93.82 37.01,-29.21 77.19,-54.67 111.11,-87.71 23.03,-17.95 49.52,-30.9 73.95,-46.94 -28.99,38.41 -64.31,71.74 -89.4,113.09 -25.24,37.82 -44.81,79.1 -60.41,121.7 -12.66,-4.27 -25.46,-7.58 -38.19,-10.89 38.56,35.83 79.03,70.34 110.01,113.39 26.2,33.41 41.28,73.51 55.55,113.02 7.43,-16.12 14.94,-32.3 22.37,-48.49 44.07,8.02 84.91,26.86 125.9,44.37 11.85,7.21 19.28,19.5 29.29,29.29 -45.33,-6.33 -91.61,-5.52 -136.2,4.56 -10.16,2.65 -20.16,5.74 -30.02,8.76 55.92,44.37 113.09,87.19 167.47,133.7 6.26,5.59 8.68,14.06 12.51,21.41 -36.2,10.89 -71.37,27.3 -99.56,52.76 -6.99,8.83 -14.27,17.88 -17.51,28.77 -3.31,13.91 11.92,20.31 20.46,27.96 55.26,38.78 118.1,68.28 184.98,79.84 33.55,6.7 67.62,-1.55 101.54,1.91 -2.58,2.87 -7.65,8.61 -10.16,11.48 -86.75,65.49 -180.72,126.04 -288,150.77 -13.61,-7.73 -27.74,-14.79 -40.03,-24.43 5.37,1.84 16.11,5.59 21.49,7.5 53.27,-29.8 100.59,-69.39 138.7,-117.07 -73.29,-22.44 -136.71,-70.64 -182.78,-131.27 -29.8,-39.51 -58.13,-81.53 -73.36,-128.99 26.49,4.27 52.76,10.01 79.03,16.11 -25.39,-53.35 -54.89,-106.03 -98.6,-146.65 -44.08,-43.34 -104.12,-71.45 -166.59,-70.34 12.8,-53.86 8.9,-110.08 -2.72,-163.72 -17.81,58.86 -67.7,100.14 -121.85,124.94 -11.33,-35.25 -31.64,-67.25 -61.73,-89.48 8.68,29.36 18.84,58.64 22.37,89.25 5.3,40.32 0.88,80.94 1.1,121.48 -36.86,56.88 -54.23,123.84 -61.07,190.72l-7.43 -7.06c-10.52,-17.37 -6.84,-38.41 -4.56,-57.39 10.3,-66.3 43.19,-127.66 45.4,-195.51 1.62,-53.42 2.21,-111.18 -26.93,-158.27 5.74,66.07 -3.6,132 -21.04,195.65 -21.34,78.22 -29.65,161.07 -15.08,241.27 2.57,18.17 8.02,39.37 -4.71,55.26 -16.19,24.21 -57.1,24.28 -73.36,0 -14.2,-17.88 -6.33,-41.79 -3.97,-62.1 11.26,-63.57 7.58,-129.06 -6.11,-191.83 -9.86,-51.58 -26.64,-101.76 -31.64,-154.15 -3.24,-30.61 2.72,-60.93 4.56,-91.39 -31.86,48.49 -32.89,109.64 -30.32,165.63 2.8,84.91 52.91,160.92 47.53,246.79 -2.65,1.99 -8.02,5.89 -10.74,7.87l-4.71 3.53c-4.56,-73.14 -28.99,-144.44 -70.05,-205l9.42 7.73c-1.47,-41.87 -4.19,-84.25 2.65,-125.82 4.56,-26.27 14.35,-51.21 21.41,-76.82 -29.87,22.37 -50.55,54.08 -61.37,89.55 -54.45,-24.13 -103.46,-65.78 -122.29,-123.91 -11.92,53.2 -15.38,109.34 -2.5,162.76 -62.55,-1.25 -122.44,27.23 -166.59,70.27 -43.49,40.69 -73.29,93.23 -98.45,146.58 26.12,-6.18 52.46,-11.85 79.03,-16.12 -44.66,116.11 -134.5,222.95 -256.58,260.4 28.18,32.52 57.54,64.83 94.04,88.22 15.45,9.86 30.83,20.02 45.4,31.42 -4.78,3.68 -14.42,11.11 -19.2,14.86 -106.99,-25.83 -201.1,-85.43 -287.78,-151.14 -2.65,-2.21 -8.02,-6.77 -10.67,-8.98 41.5,-8.98 84.54,1.77 125.75,-9.12 62.84,-15.53 121.92,-45.62 173.36,-84.62 19.21,-12.51 -0.22,-35.1 -9.49,-47.9 -28.18,-24.58 -62.47,-41.79 -98.45,-51.44 3.09,-7.43 4.34,-16.48 11.26,-21.71 37.16,-28.18 70.2,-61.44 108.68,-88 20.68,-14.28 40.76,-29.58 59.53,-46.36 -10.15,-2.94 -20.16,-5.96 -30.17,-8.53 -44.22,-12.44 -90.21,-5.15 -134.95,-10.37 8.98,-8.09 17.81,-16.92 27.96,-23.69 41.5,-17.58 82.93,-37.38 127.96,-43.93 5.96,17.14 12.07,34.29 18.32,51.43 16.26,-41.87 31.79,-84.91 60.26,-120.38 29.65,-41.87 69.97,-74.02 106.69,-109.27 -12.73,3.31 -25.31,6.7 -37.6,10.96 -30.46,-91.61 -90.43,-168.5 -154.89,-238.62z"/>
    <path class="fil3" d="M524.56 381.59c5.67,17.95 8.46,36.64 10.96,55.26 7.43,-6.7 15.08,-13.17 22.96,-19.57 -6.4,8.76 -12.58,17.58 -18.62,26.49 -2.72,0.59 -8.17,1.76 -10.89,2.35 -1.55,-21.56 -3.31,-42.97 -4.42,-64.53z"/>
    <path class="fil3" d="M1562.42 436.78c2.21,-18.62 5.3,-37.23 11.04,-55.18 -1.18,21.49 -3.02,42.9 -4.42,64.31 -2.72,-0.59 -8.1,-1.69 -10.82,-2.28 -6.33,-8.83 -12.51,-17.66 -18.84,-26.34 7.73,6.33 15.38,12.8 23.03,19.5z"/>
   </g>
   <g>
    <path class="fil4" d="M1396.86 292.56c45.4,-23.03 87.05,-53.94 134.58,-72.33 -33.92,33.04 -74.1,58.5 -111.11,87.71 -39,28.99 -74.54,62.18 -111.25,93.82 -12.51,-22 -21.78,-45.47 -33.55,-67.7 -1.62,-0.22 -4.78,-0.52 -6.4,-0.73 -20.16,16.04 -35.54,37.01 -52.98,55.7 -20.38,-17.07 -40.69,-34.8 -65.05,-45.62 -47.97,-21.93 -102.64,-20.68 -153.86,-15.08 -44.52,5.52 -82.78,31.05 -115.08,60.63 -18.03,-18.69 -33.85,-39.51 -53.57,-56.44 -1.55,0.44 -4.56,1.18 -6.03,1.54 -12.36,22 -21.34,45.69 -33.33,67.92 -30.24,-25.9 -59.23,-53.42 -90.8,-77.7 -37.38,-31.42 -81.53,-55.11 -113.02,-93.15 23.33,6.77 43.27,21.04 64.31,32.74 42.46,23.92 85.21,47.39 127.22,72.11 6.33,-23.18 5,-47.31 5.37,-71.01 28.33,10.37 53.64,26.86 76.89,46.06 6.7,7.14 16.92,1.4 25.09,0.15 75.64,-21.41 155.92,-33.92 234.21,-20.31 39.66,2.58 77.19,18.91 116.26,23.11 24.72,-19.79 50.4,-38.92 81.23,-48.42 0.15,21.34 0.15,42.75 0.15,64.09 30.61,-1.55 53.94,-24.58 80.72,-37.09z"/>
    <path class="fil4" d="M642.44 408.16c12.29,-4.27 24.87,-7.65 37.6,-10.96 -36.72,35.25 -77.04,67.4 -106.69,109.27 -28.48,35.47 -44,78.51 -60.26,120.38 -6.25,-17.15 -12.36,-34.29 -18.32,-51.43 -45.03,6.55 -86.46,26.34 -127.96,43.93 32.08,-38.7 79.76,-60.41 126.63,-75.49 30.02,-62.62 90.06,-103.09 149,-135.68z"/>
    <path class="fil4" d="M1417.39 397.19c12.73,3.31 25.53,6.62 38.19,10.89 59.09,32.67 119.13,73.58 149.15,136.35 47.17,14.05 94.4,36.57 126.49,75.05 -40.99,-17.51 -81.82,-36.35 -125.9,-44.37 -7.43,16.19 -14.94,32.38 -22.37,48.49 -14.27,-39.52 -29.36,-79.62 -55.55,-113.02 -30.98,-43.05 -71.45,-77.56 -110.01,-113.39z"/>
    <path class="fil4" d="M944.78 588.87c-2.57,-55.99 -1.55,-117.14 30.32,-165.63 -1.84,30.46 -7.8,60.78 -4.56,91.39 5,52.39 21.78,102.57 31.64,154.15 13.69,62.77 17.37,128.25 6.11,191.83 -2.35,20.31 -10.23,44.22 3.97,62.1 16.26,24.28 57.17,24.21 73.36,0 12.73,-15.89 7.28,-37.09 4.71,-55.26 -14.57,-80.2 -6.26,-163.06 15.08,-241.27 17.44,-63.65 26.78,-129.58 21.04,-195.65 29.14,47.09 28.55,104.85 26.93,158.27 -2.21,67.84 -35.1,129.21 -45.4,195.51 -2.28,18.99 -5.96,40.03 4.56,57.39 -11.92,27.23 3.75,55.85 8.39,82.85 -19.87,54.38 -110.22,61.37 -137.74,10.23 -5.52,-27.81 7.95,-55.41 8.32,-83.29 -2.5,-1.99 -7.43,-5.96 -9.94,-7.95 2.72,-1.99 8.1,-5.89 10.74,-7.87 5.37,-85.87 -44.74,-161.88 -47.53,-246.79z"/>
    <path class="fil4" d="M473.79 653.4c10.01,2.58 20.01,5.59 30.17,8.53 -18.76,16.78 -38.85,32.08 -59.53,46.36 -38.48,26.56 -71.52,59.82 -108.68,88 30.68,-59.45 81.16,-108.16 138.04,-142.89z"/>
    <path class="fil4" d="M1594.28 662.08c9.86,-3.02 19.87,-6.11 30.02,-8.76 56.44,34.88 106.77,83.07 137.45,142.45 -54.38,-46.5 -111.55,-89.33 -167.47,-133.7z"/>
    <g>
     <path class="fil4" d="M718.96 677.61c43.34,15.23 87.34,32.89 121.04,65.27 30.54,29.51 63.35,59.45 79.54,99.7 -65.86,54.3 -145.03,91.02 -227.81,110.45 52.68,-17.81 99.56,-48.2 138.77,-87.56 -16.34,-9.93 -35.32,-6.99 -53.05,-10.3 -31.94,-12.66 -54.75,-42.16 -60.85,-75.79 -12.07,-33.48 -0.66,-67.92 2.35,-101.76zm28.25 33.7l0 0c-8.09,35.54 -13.25,79.91 15.67,107.65 25.09,27.45 66.88,29.87 100.51,18.84 5.89,-3.24 18.47,-2.21 17.44,-12.14 -27.52,-41.72 -63.57,-78.51 -107.35,-103.31l0.59 -2.72c-8.98,-2.72 -18.25,-5.52 -26.86,-8.31z"/>
    </g>
    <g>
     <path class="fil4" d="M1181.79 832.2c45.03,-72.26 114.27,-131.12 197.2,-154.52 0.59,21.93 7.06,43.19 8.17,65.04 -2.94,32.97 -10.23,69.09 -35.98,92.12 -22.37,21.56 -54.38,28.04 -84.18,30.39 39.37,39.15 86.38,69.68 139.07,87.64 -73.51,-17.44 -144.22,-47.76 -205.22,-92.71 -8.61,-7.65 -26.78,-13.32 -19.06,-27.96zm141.87 -112.51l0 0 0.59 3.09c-43.85,24.28 -79.84,61.15 -106.84,102.94 -1.62,10.37 11.33,8.9 17.95,11.92 31.42,10.08 69.9,10.3 94.99,-14.2 33.26,-26.86 29.87,-75.05 19.94,-112.29 -9.12,2.94 -17.73,5.89 -26.64,8.53z"/>
    </g>
    <path class="fil4" d="M422.94 869.44c9.27,12.8 28.7,35.39 9.49,47.9 -51.43,39 -110.52,69.09 -173.36,84.62 -41.21,10.89 -84.25,0.15 -125.75,9.12l-2.28 0.29c-0.52,-3.16 -1.47,-9.49 -1.99,-12.65 110.08,1.62 222.22,-44.74 293.88,-129.28z"/>
    <path class="fil4" d="M1657.2 898.72c3.24,-10.89 10.52,-19.94 17.51,-28.77 62.18,71.6 152.83,116.33 246.72,126.64 16.92,2.87 37.23,-2.87 51.07,10.3 -2.13,0.37 -6.26,1.18 -8.31,1.55 -33.92,-3.46 -67.99,4.78 -101.54,-1.91 -66.88,-11.55 -129.72,-41.06 -184.98,-79.84 -8.53,-7.65 -23.77,-14.05 -20.46,-27.96z"/>
    <path class="fil4" d="M144 1020.06c86.68,65.71 180.79,125.31 287.78,151.14 -3.61,35.32 7.8,69.17 17.58,102.57 -91.24,-39.51 -173.21,-99.78 -242.52,-170.78 -22.73,-26.05 -48.49,-50.92 -62.84,-82.93z"/>
    <path class="fil4" d="M1666.02 1170.68c107.28,-24.72 201.25,-85.28 288,-150.77 -15.75,35.17 -44.66,61.96 -69.98,90.21 -67.4,69.54 -149.22,123.54 -235.83,166 9.2,-34.51 22,-69.02 17.81,-105.44z"/>
   </g>
   <g>
    <path class="fil5" d="M747.22 711.31c8.61,2.8 17.88,5.59 26.86,8.31l-0.59 2.72c-4.34,20.6 -8.83,42.97 0.59,62.91 15.38,33.77 52.24,55.18 89.33,52.54 -33.63,11.04 -75.42,8.61 -100.51,-18.84 -28.92,-27.74 -23.77,-72.11 -15.67,-107.65z"/>
    <path class="fil5" d="M1323.65 719.7c8.9,-2.65 17.51,-5.59 26.64,-8.53 9.93,37.23 13.32,85.43 -19.94,112.29 -25.09,24.5 -63.57,24.28 -94.99,14.2 36.86,2.72 73.07,-19.21 88.44,-52.54 9.05,-19.87 4.64,-41.94 0.44,-62.32l-0.59 -3.09z"/>
   </g>
   <g>
    <path class="fil5" d="M771.28 786.66c-9.42,-19.94 -1.55,-46.43 2.8,-67.03 43.78,24.8 79.25,64.31 106.77,106.03 1.03,9.93 -11.55,8.9 -17.44,12.14 -37.09,2.65 -76.75,-17.36 -92.12,-51.14z"/>
    <path class="fil5" d="M1217.4 825.73c27,-41.79 62.4,-81.75 106.25,-106.03 5.74,20.38 14.58,49.14 3.34,69.01 -15.38,33.33 -54.78,51.66 -91.64,48.94 -6.62,-3.02 -19.57,-1.55 -17.95,-11.92z"/>
   </g>
   <g>
    <path class="fil6" d="M872.6 952.51c15.52,-14.2 29.87,-30.17 49.3,-39.29 6.03,39 0.07,78.88 6.4,117.66 -20.9,40.76 -55.19,72.18 -81.6,109.19 -17.95,25.02 -23.47,56 -32.67,84.77 -28.7,-43.85 -56.73,-88.08 -90.14,-128.62 47.53,-49.96 98.38,-96.61 148.71,-143.71z"/>
    <path class="fil6" d="M1175.97 914.03c18.54,6.62 31.2,22.22 45.4,35.02 51.73,48.12 103.53,96.1 152.53,147.02 -33.63,41.21 -61.88,86.31 -91.09,130.61 -6.99,-28.03 -12.95,-57.25 -28.55,-81.97 -26.34,-38.92 -62.99,-70.57 -84.69,-112.65 7.73,-38.63 0.52,-78.88 6.4,-118.02z"/>
    <path class="fil6" d="M955.82 1087.38c49.08,-48.86 136.64,-48.56 185.87,0 -29.58,-5.44 -58.79,-13.68 -89.03,-13.83 -32.97,-0.88 -64.83,7.95 -96.83,13.83z"/>
    <path class="fil6" d="M643.54 1077.23c10.15,-6.7 22.29,0.22 30.02,7.58 68.06,60.93 113.32,142.16 150.92,224.27 12.8,28.77 22.96,59.01 27.08,90.36 -33.41,-56.07 -60.92,-116.11 -103.38,-166.37 19.35,48.56 32.82,99.19 46.58,149.52 4.93,17.66 5.15,36.13 5.74,54.45 -21.41,-68.5 -60.78,-129.13 -91.17,-193.59 13.24,73.95 39.95,147.02 36.72,222.95 -15.89,-61.59 -43.34,-119.42 -74.91,-174.31 15.45,66.96 34.22,134.51 31.86,203.89 -16.71,-81.68 -59.82,-153.79 -100.07,-225.53 14.35,7.8 29.06,14.94 43.78,22.3 -3.83,-27.15 -8.46,-54.16 -12.66,-81.23 25.17,22.15 43.56,50.33 64.02,76.6 -4.64,-34.22 -20.53,-65.19 -30.54,-97.86 18.54,7.87 37.09,15.97 55.85,23.62 -9.27,-39.44 -32.67,-75.2 -64.09,-100.44 -46.95,13.91 -91.17,39.07 -129.36,69.68 -8.68,-8.24 -16.41,-17.29 -23.1,-27.08 46.06,-25.24 90.72,-53.2 136.71,-78.8z"/>
    <path class="fil6" d="M1428.14 1081.35c10.08,-10.97 25.09,-6.11 35.83,1.1 42.46,24.94 84.99,49.81 127.59,74.76 -6.26,7.07 -12.51,14.13 -18.76,20.97 -45.18,-22.59 -87.78,-50.48 -135.61,-67.25 -28.92,28.7 -53.42,62.69 -62.91,102.87 18.69,-7.95 37.3,-16.11 56.14,-23.92 -10.52,32.6 -23.47,64.53 -31.2,98.09 20.9,-25.83 39.29,-54.01 64.68,-75.94 -4.34,27.59 -9.2,55.04 -13.39,82.63 18.25,-11.77 36.79,-23.25 54.3,-36.2 -47.17,73.36 -91.39,150.99 -109.41,237.37 -3.31,-69.24 16.04,-136.49 31.42,-203.23 -31.79,56.59 -64.09,115.23 -74.02,180.05 -5.3,-75.94 18.91,-150.62 36.49,-223.76 -36.2,58.57 -65.85,121.19 -92.64,184.62 3.46,-68.58 32.52,-132.15 49.22,-197.93 -38.26,50.99 -67.55,107.65 -98.3,163.13 3.24,-50.18 28.33,-95.51 50.11,-139.8 33.99,-65.19 74.83,-128.62 130.46,-177.55z"/>
    <path class="fil6" d="M465.47 1213.06c10.52,2.57 23.1,2.28 30.31,12.07 41.43,43.78 73.36,96.02 100,149.96 -24.13,-40.62 -49.3,-81.38 -84.1,-113.76 -6.4,-7.43 -16.41,-8.39 -25.02,-10.89 0.66,20.38 5.37,40.4 11.92,59.67 -17.15,-29.8 -31.86,-62.18 -33.11,-97.05z"/>
    <path class="fil6" d="M1552.27 1293.12c18.47,-33.7 41.87,-68.36 77.48,-85.87 6.99,40.03 -18.17,75.13 -31.86,110.81 6.92,-22 12.43,-44.52 13.47,-67.62 -26.27,1.91 -39.66,29.51 -59.09,42.68z"/>
    <path class="fil6" d="M905.05 1332.34c-6.4,-27.3 -2.94,-55.41 1.4,-82.7 5.44,29.43 7.8,60.85 24.13,86.75 14.64,5.74 25.02,-13.83 39,-10.45 4.93,6.33 9.79,12.88 14.35,19.65 -10.89,7.5 -21.71,14.94 -32.45,22.37 27.3,14.06 53.79,34 86.02,33.92 36.28,3.97 71.67,-9.94 100.88,-30.61 4.27,-13.69 -17.44,-17.22 -24.21,-25.9 6.03,-8.39 12.14,-16.78 18.39,-25.17 10.23,8.1 20.6,16.12 31.05,24.14 11.85,-27.37 33.19,-61.59 18.69,-90.06 4.27,0.29 8.61,0.66 13.1,1.18 -1.1,31.12 5,63.65 -7.36,93.3 -19.79,55.85 -75.86,97.94 -135.69,97.42 -67.69,3.38 -133.33,-47.68 -147.31,-113.83z"/>
   </g>
  </g>
 </g>
</svg>
