<?xml version="1.0" encoding="UTF-8"?>
<!DOCTYPE svg PUBLIC "-//W3C//DTD SVG 1.1//EN" "http://www.w3.org/Graphics/SVG/1.1/DTD/svg11.dtd">
<!-- Creator: CorelDRAW 2018 (64-Bit) -->
<svg xmlns="http://www.w3.org/2000/svg" xml:space="preserve" width="7.9915in" height="8.23831in" version="1.1" style="shape-rendering:geometricPrecision; text-rendering:geometricPrecision; image-rendering:optimizeQuality; fill-rule:evenodd; clip-rule:evenodd"
viewBox="0 0 1150.39 1185.91"
 xmlns:xlink="http://www.w3.org/1999/xlink">
 <defs>
  <style type="text/css">
   <![CDATA[
    .fil4 {fill:#FEFEFE}
    .fil1 {fill:black;fill-rule:nonzero}
    .fil2 {fill:#575F5F;fill-rule:nonzero}
    .fil3 {fill:#C1272D;fill-rule:nonzero}
    .fil0 {fill:#C4C4C4;fill-rule:nonzero}
   ]]>
  </style>
 </defs>
 <g id="Layer_x0020_1">
  <metadata id="CorelCorpID_0Corel-Layer"/>
  <g id="_1007982880">
   <g>
    <g>
     <g>
      <path class="fil0" d="M191.96 37.52c28.08,-21.9 62.34,-39.05 98.86,-36.83 25.6,0.48 48.19,17.06 62.64,37.13 3.96,20.94 14.93,39.09 24.03,58.03 21.46,-2.05 41.44,-10.75 62.69,-14.19 39.79,-6.57 80.75,-5.18 120.32,2.44 11.62,2.57 23.59,1.52 35.17,-0.87 40.4,-7.7 82.32,-8.01 122.72,-0.04 15.8,3 30.6,9.93 46.62,11.93 11.71,1.13 13.93,-11.84 18.33,-19.72 6.35,-12.02 10.53,-24.94 13.97,-38.09 15.54,-21.77 40.75,-37.22 67.95,-37.31 35.52,1.52 69.87,16.63 96.25,40.22 53.02,47.49 73.18,126.63 54.33,194.59 -3.87,16.5 -15.28,29.47 -22.64,44.36 3.92,13.06 13.84,22.94 21.68,33.74 51.37,66.6 92.94,141.17 118.36,221.49 11.49,41.48 21.68,85.06 15.02,128.29 -5.62,19.42 -8.97,40.31 -20.94,57.16 -10.71,15.8 -13.15,35.39 -21.85,52.24 -10.88,25.29 -28.08,47.1 -47.19,66.65 -5.14,0.35 -10.23,0.7 -15.32,1 -30.47,38.44 -57.29,79.66 -87.02,118.67 -8.75,-0.74 -18.41,-5.31 -26.68,-0.52 -30.3,17.37 -58.86,37.87 -90.63,52.59 -13.15,6.14 -25.68,13.41 -38.31,20.46 -6.4,-4.53 -16.76,-21.03 -23.68,-9.27 -18.63,38.53 -34.43,79.49 -62.73,112.31 -28.25,32.82 -71.04,51.76 -114.27,51.67 -33.34,-0.48 -68.13,3.66 -99.95,-8.97 -28.3,-9.14 -52.94,-27.73 -70.83,-51.32 -23.59,-33.52 -39.74,-71.44 -57.33,-108.26 -2.22,0.09 -6.66,0.22 -8.84,0.3 -3.83,4.57 -7.62,9.14 -11.36,13.76 -21.03,-9.1 -39.01,-23.59 -59.12,-34.39 -18.89,-10.4 -39.14,-18.46 -57.16,-30.52 -6.09,-3.61 -11.8,-8.31 -18.76,-10.23 -7.7,-0.04 -15.41,1.35 -23.11,0.74 -25.9,-35.35 -51.32,-71.18 -76.88,-106.83 -5.92,-10.06 -18.85,-9.14 -27.6,-14.98 -30.82,-28.47 -47.41,-67.95 -60.64,-106.87 -14.28,-19.07 -19.46,-42.66 -25.86,-65.21 -7.27,-47.06 4.57,-94.55 18.81,-139.21 27.95,-83.36 73.4,-160.2 128.29,-228.54 6.83,-7.58 7.79,-19.33 1.22,-27.34 -20.72,-29.17 -24.12,-66.39 -22.33,-101.12 5.01,-48.62 25.38,-97.51 63.77,-129.12zm-19.81 49.76l0 0c-24.34,40.01 -32.69,89.63 -22.64,135.43 4.66,22.07 17.28,43.79 38.92,52.8 -72.18,83.28 -132.64,179.57 -160.54,287.05 -7.71,33 -14.19,67.65 -7.4,101.39 4.74,-13.58 10.32,-26.86 17.33,-39.4 -1.7,30.43 0.91,60.99 6.49,90.94 6.49,34.04 22.85,65.34 43.23,93.07 -0.17,-14.8 0.13,-29.56 1.31,-44.27 6.75,28.82 25.86,52.15 42.27,76.05 15.98,23.29 33.04,45.84 48.89,69.26 -0.52,-5.09 -1.57,-15.28 -2.13,-20.37 17.11,31.21 47.54,51.28 77.49,68.69 -6.7,-12.45 -11.01,-25.94 -14.15,-39.66 19.5,29.51 45.36,54.33 75.7,72.57 -12.93,-24.64 -23.29,-51.19 -22.46,-79.49 21.77,23.64 44.1,46.97 69.7,66.56 23.51,17.98 29.64,48.58 42.92,73.57 14.67,27.77 27.25,57.94 50.8,79.66 30.08,29.38 74.44,40.92 115.62,36.22 40.66,4.79 83.89,-5.22 115.27,-32.39 26.64,-22.94 40.48,-56.16 56.07,-86.8 12.58,-24.46 19.2,-53.94 42.4,-71.17 25.25,-19.15 47.15,-42.27 68.61,-65.52 0.61,28.56 -8.66,56.33 -23.86,80.27 30.69,-18.33 57.29,-43.05 76.62,-73.18 -2.7,14.1 -6.97,27.86 -14.37,40.27 30.56,-18.76 63.43,-38.61 79.36,-72.35 -0.74,5.66 -2.18,16.98 -2.92,22.64 30.52,-47.93 71.39,-90.02 92.07,-143.66 0.09,13.67 0.13,27.38 0.57,41.05 42.23,-50.84 52.93,-120.02 48.49,-184.18 7.1,14.41 14.02,28.95 19.2,44.19 3.83,-30.34 1.09,-61.08 -5.35,-90.89 -25.68,-112.92 -89.24,-213.18 -163.55,-300.41 18.98,-8.14 31.95,-25.77 37.05,-45.45 11.1,-42.1 6.05,-88.06 -12.62,-127.29 -19.98,-42.53 -60.86,-76.05 -107.61,-83.49 -19.46,-3.7 -39,2.48 -54.89,13.58 10.1,1.44 20.29,2.79 30.47,3.66 -42.57,6.05 -63.47,51.37 -67.69,89.68 -53.5,-27.51 -115.4,-36.96 -174.74,-27.64 -17.06,1.78 -34.17,9.45 -51.32,4 -65.95,-14.58 -137.3,-7.97 -197.33,24.03 -3.18,-38.88 -25.55,-83.97 -68.08,-90.11 10.54,-0.91 21.03,-2.18 31.52,-3.48 -16.94,-12.14 -38.27,-17.63 -58.86,-13.15 -39.4,8.01 -75.01,33.3 -95.81,67.74z"/>
     </g>
     <path class="fil0" d="M110.73 415.77c-4.7,50.06 -15.89,99.47 -16.89,149.97 7.01,-10.54 13.93,-21.07 20.94,-31.6 -6.36,52.11 -4.96,106.04 14.84,155.32 1.22,-19.5 1.13,-39.05 1.22,-58.59 16.98,36 31.47,75.35 62.42,102.13 -4.88,-14.54 -10.14,-28.91 -14.84,-43.49 18.63,14.15 34.04,32.3 54.07,44.66 13.23,8.66 28.25,13.93 43.05,19.11 -6.96,-9.66 -13.93,-19.33 -20.68,-29.12 37.74,13.58 78.62,31.52 119.02,17.24 19.94,-5.27 28.25,-25.68 38.87,-41.14 5.96,29.21 9.4,58.86 13.19,88.41 4.92,39.09 9.53,78.58 6.57,117.97 -4.7,-10.45 -6.96,-22.68 -15.8,-30.65 -15.24,-14.28 -33.96,-24.2 -53.06,-32.26 6.53,10.01 13.8,19.5 21.07,28.99 -32.78,-3 -63.08,-19.59 -88.02,-40.4 1.18,1.57 3.53,4.7 4.66,6.27l0.74 4.4c13.36,17.37 26.16,35.17 40.31,51.93 2.74,2.13 5.53,4.27 8.27,6.44 -46.1,-17.72 -85.1,-51.72 -115.53,-90.2 -1.26,24.68 4.18,48.76 9.88,72.52 -20.55,-20.33 -33.78,-46.28 -45.8,-72.22 -1.92,20.85 -2,41.79 -2.7,62.73 -17.59,-26.16 -30.73,-54.98 -41.27,-84.63 -3.13,10.71 -5.66,21.55 -7.7,32.56 -33.3,-36.92 -52.28,-83.8 -64.56,-131.34 -4.61,14.5 -9.36,28.95 -14.19,43.36 -12.41,-48.71 -12.71,-100.21 -6.79,-150.01 -7.31,4.35 -14.63,8.75 -21.98,13.02 5.96,-42.01 23.46,-80.88 39.35,-119.84 8.97,-21.2 17.11,-43.18 31.34,-61.55z"/>
     <path class="fil0" d="M1040.83 446.07c-1.52,-8.97 -1.13,-18.11 -0.13,-27.08 15.15,19.89 22.98,43.92 32.74,66.65 14.76,36.26 31.25,72.74 35.35,112.14 -6.96,-4.66 -13.89,-9.49 -20.68,-14.24 4.53,50.11 4.4,101.17 -6.44,150.53 -5.75,-14.02 -10.45,-28.38 -16.37,-42.31 -9.8,48.19 -32.21,92.85 -62.77,131.2 -2.61,-11.23 -5.09,-22.46 -6.96,-33.78 -12.84,28.77 -24.38,58.33 -42.23,84.54 -1.61,-19.98 -0.43,-40.18 -3.87,-60.03 -11.58,25.29 -25.51,49.67 -45.01,69.82 5.92,-24.29 11.14,-48.97 10.54,-74.13 -29.34,41.75 -72.26,71.48 -116.71,95.16 20.5,-22.16 38.4,-46.67 55.29,-71.65 -25.99,19.72 -55.63,36.78 -88.72,39.96 6.88,-9.97 14.32,-19.46 21.68,-29.04 -19.07,7.36 -37.48,17.28 -52.59,31.21 -12.14,10.58 -13.67,27.64 -18.72,41.97 -4.44,-73.92 9.45,-147.35 19.94,-220.27 10.58,17.54 20.5,39.83 42.75,44.45 40.48,12.54 80.88,-5.09 117.8,-20.37 -7.66,10.32 -15.37,20.68 -22.81,31.17 15.19,-5.31 30.43,-11.06 43.97,-19.94 19.81,-12.49 35,-30.6 53.11,-45.19 -4.79,15.89 -10.66,31.34 -16.37,46.88 30.91,-27.47 47.19,-66.3 63.21,-103.43 1.22,19.15 1.65,38.35 2.22,57.55 8.1,-25.21 15.02,-51.02 17.24,-77.49 2.26,-25.9 -1.39,-51.8 -2.48,-77.66 6.57,10.19 13.23,20.33 20.11,30.34 -0.91,-39.31 -6.66,-78.27 -13.06,-116.97z"/>
     <path class="fil0" d="M648.48 476.28c12.89,-11.71 17.85,-29.04 20.5,-45.62l0.61 1.65c4.66,17.59 20.24,28.73 28.21,44.53 8.79,15.98 12.28,34.17 13.23,52.24 -0.96,1.48 -2.87,4.44 -3.87,5.92 -3.18,1.48 -6.31,1.35 -9.45,-0.39 -12.84,-6.79 -27.08,-10.19 -41.36,-12.36 22.94,4.83 38.53,23.38 59.55,31.95l2.05 0.91c3.96,14.97 2.87,30.52 -0.65,45.49 -35.04,-44.71 -93.16,-63.91 -148.27,-64.69 -53.85,2.31 -111.48,20.63 -144.79,65.52 -2,-13.32 -2.57,-26.73 -2.44,-40.14l1 -0.78c17.76,-14.06 35.91,-27.69 56.11,-38.09 -13.45,2.61 -26.21,7.7 -37.74,15.06 -2.39,0.26 -7.18,0.74 -9.58,1 -3.87,-37.96 14.32,-74.57 41.83,-99.82 5.27,16.76 12.23,34.48 27.82,44.19 27.25,18.2 61.77,32.04 94.59,21.68 19.02,-6.09 37.61,-14.89 52.63,-28.25z"/>
    </g>
    <g>
     <g>
      <path class="fil1" d="M172.16 87.28c20.81,-34.43 56.42,-59.73 95.81,-67.74 20.59,-4.48 41.92,1 58.86,13.15 -10.49,1.31 -20.98,2.57 -31.52,3.48 42.53,6.14 64.91,51.24 68.08,90.11 60.03,-32 131.38,-38.61 197.33,-24.03 17.15,5.44 34.26,-2.22 51.32,-4 59.33,-9.32 121.24,0.13 174.74,27.64 4.22,-38.31 25.12,-83.63 67.69,-89.68 -10.19,-0.87 -20.37,-2.22 -30.47,-3.66 15.89,-11.1 35.43,-17.28 54.89,-13.58 46.75,7.44 87.63,40.96 107.61,83.49 18.67,39.22 23.72,85.19 12.62,127.29 -5.09,19.68 -18.07,37.31 -37.05,45.45 74.31,87.24 137.87,187.49 163.55,300.41 6.44,29.82 9.18,60.55 5.35,90.89 -5.18,-15.24 -12.1,-29.78 -19.2,-44.19 4.44,64.17 -6.27,133.34 -48.49,184.18 -0.44,-13.67 -0.48,-27.38 -0.57,-41.05 -20.68,53.63 -61.55,95.73 -92.07,143.66 0.74,-5.66 2.18,-16.98 2.92,-22.64 -15.93,33.74 -48.8,53.59 -79.36,72.35 7.4,-12.41 11.67,-26.16 14.37,-40.27 -19.33,30.12 -45.93,54.85 -76.62,73.18 15.19,-23.94 24.46,-51.72 23.86,-80.27 -21.46,23.25 -43.36,46.36 -68.61,65.52 -23.2,17.24 -29.82,46.71 -42.4,71.17 -15.58,30.65 -29.43,63.86 -56.07,86.8 -31.39,27.16 -74.61,37.18 -115.27,32.39 -41.18,4.7 -85.54,-6.83 -115.62,-36.22 -23.55,-21.72 -36.13,-51.89 -50.8,-79.66 -13.28,-24.99 -19.41,-55.59 -42.92,-73.57 -25.6,-19.59 -47.93,-42.92 -69.7,-66.56 -0.83,28.29 9.53,54.85 22.46,79.49 -30.34,-18.24 -56.2,-43.05 -75.7,-72.57 3.13,13.71 7.44,27.21 14.15,39.66 -29.95,-17.41 -60.38,-37.48 -77.49,-68.69 0.57,5.09 1.61,15.28 2.13,20.37 -15.85,-23.42 -32.91,-45.97 -48.89,-69.26 -16.41,-23.9 -35.52,-47.23 -42.27,-76.05 -1.18,14.71 -1.48,29.47 -1.31,44.27 -20.37,-27.73 -36.74,-59.03 -43.23,-93.07 -5.57,-29.95 -8.18,-60.51 -6.49,-90.94 -7.01,12.54 -12.58,25.81 -17.33,39.4 -6.79,-33.74 -0.3,-68.39 7.4,-101.39 27.9,-107.48 88.37,-203.77 160.54,-287.05 -21.64,-9.01 -34.26,-30.73 -38.92,-52.8 -10.06,-45.8 -1.7,-95.42 22.64,-135.43zm277.43 30.43l0 0c-61.29,7.66 -111.44,47.15 -156.58,86.28 -60.81,54.98 -117.54,115.1 -164.51,182.49 -6.09,9.58 -13.67,18.59 -17.76,29.3 -14.23,18.37 -22.38,40.35 -31.34,61.55 -15.89,38.96 -33.39,77.83 -39.35,119.84 7.36,-4.27 14.67,-8.66 21.98,-13.02 -5.92,49.8 -5.62,101.3 6.79,150.01 4.83,-14.41 9.58,-28.86 14.19,-43.36 12.28,47.54 31.26,94.42 64.56,131.34 2.05,-11.01 4.57,-21.85 7.7,-32.56 10.53,29.64 23.68,58.46 41.27,84.63 0.7,-20.94 0.78,-41.88 2.7,-62.73 12.02,25.94 25.25,51.89 45.8,72.22 -5.7,-23.77 -11.15,-47.84 -9.88,-72.52 30.43,38.48 69.43,72.48 115.53,90.2 -2.74,-2.18 -5.53,-4.31 -8.27,-6.44 -14.15,-16.76 -26.95,-34.56 -40.31,-51.93l-0.74 -4.4c-1.13,-1.57 -3.48,-4.7 -4.66,-6.27 24.94,20.81 55.24,37.39 88.02,40.4 -7.27,-9.49 -14.54,-18.98 -21.07,-28.99 19.11,8.05 37.83,17.98 53.06,32.26 8.84,7.97 11.1,20.2 15.8,30.65 -0.09,20.16 3.83,40.22 1.26,60.38 -1.39,34.78 1.09,77.49 34.3,97.69 28.34,13.1 59.29,3.31 87.63,-4.22 34.3,-10.23 66.39,14.71 100.95,10.45 25.42,-0.74 47.06,-20.33 53.5,-44.45 9.84,-35.65 3.66,-73.05 5.05,-109.48 5.05,-14.32 6.57,-31.39 18.72,-41.97 15.11,-13.93 33.52,-23.86 52.59,-31.21 -7.36,9.58 -14.8,19.07 -21.68,29.04 33.08,-3.18 62.73,-20.24 88.72,-39.96 -16.89,24.99 -34.78,49.5 -55.29,71.65 44.45,-23.68 87.37,-53.41 116.71,-95.16 0.61,25.16 -4.61,49.84 -10.54,74.13 19.5,-20.15 33.43,-44.53 45.01,-69.82 3.44,19.85 2.26,40.05 3.87,60.03 17.85,-26.21 29.38,-55.76 42.23,-84.54 1.87,11.32 4.35,22.55 6.96,33.78 30.56,-38.35 52.98,-83.02 62.77,-131.2 5.92,13.93 10.62,28.3 16.37,42.31 10.84,-49.37 10.97,-100.43 6.44,-150.53 6.79,4.75 13.71,9.58 20.68,14.24 -4.09,-39.4 -20.59,-75.88 -35.35,-112.14 -9.75,-22.72 -17.59,-46.75 -32.74,-66.65l0.04 -0.65c-37.96,-64.25 -88.67,-119.89 -140.91,-172.73 -39.79,-37.79 -80.19,-76.18 -127.85,-103.91 -60.51,-30.08 -131.77,-28.21 -196.59,-15.5 0.09,41.66 -0.26,83.32 0.13,124.94 -11.71,-12.28 -24.9,-23.29 -40.7,-29.91 11.01,-0.39 21.81,1 32.39,4.27 -10.88,-11.45 -25.29,-17.5 -40.22,-21.64 12.28,-1.13 24.6,-0.48 36.78,0.91 -16.63,-13.97 -37.26,-21.29 -58.9,-22.46 18.72,-3.92 37.74,-3.31 56.29,1.09 -20.94,-14.76 -45.01,-24.9 -71,-24.64 22.2,-6.27 45.01,-2.35 66.91,2.87 -24.55,-17.89 -54.81,-21.77 -84.28,-23.81 28.69,-6.96 58.25,-5.62 86.72,1.74 -33.13,-18.85 -71.96,-28.34 -109.92,-21.85z"/>
     </g>
     <g>
      <path class="fil1" d="M757.4 311.99c12.58,-4.92 26.34,-3.79 38.83,0.83 21.2,20.29 37.66,48.28 37.52,78.31 -4.27,-4.31 -8.49,-8.62 -12.75,-12.93 3.53,17.59 -0.57,37.26 9.58,53.11 18.37,31.69 43.71,59.12 58.9,92.72 10.23,23.55 7.1,49.63 7.36,74.53 7.23,-8.62 12.54,-18.59 16.98,-28.9 4.18,23.29 -2.09,48.97 -20.59,64.64 -22.68,19.63 -56.72,16.89 -82.41,5.01 -32.61,-14.54 -56.07,-42.53 -77.44,-70.13 1.09,28.38 -13.89,53.37 -18.24,80.79 -13.89,70 -22.72,141.52 -18.63,212.87 -1.26,42.23 8.23,84.23 4.27,126.42 -2.61,29.21 -25.95,55.2 -54.85,60.42 -18.72,3.96 -36.92,-4.44 -55.33,-6.7 -21.51,-1.65 -43.4,-0.91 -64.3,4.96 -22.42,7.27 -48.06,0.52 -64.47,-16.28 -15.59,-13.93 -21.59,-35.31 -21.81,-55.59 -0.91,-36.35 5.57,-72.39 5.53,-108.7 3.96,-78.79 -5.75,-157.72 -22.81,-234.51 -6.4,-20.9 -15.24,-41.53 -13.5,-63.95 -23.64,28.69 -48.23,59.2 -84.19,72.83 -25.03,10.01 -57.68,10.93 -78.1,-9.1 -17.24,-15.54 -23.46,-40.31 -18.72,-62.64 4.09,10.53 9.53,20.63 17.63,28.73 -1.44,-25.81 -3.53,-52.94 7.31,-77.18 13.28,-27.69 33.21,-51.37 49.76,-77.09 6.49,-10.27 14.32,-20.85 14.8,-33.52 0.83,-12.02 2.18,-23.99 4.7,-35.74 -3.35,4.09 -6.79,8.1 -10.19,12.19l-5.83 -1.48c5.18,-24.38 15.32,-48.32 32.39,-66.82 11.19,-11.71 28.86,-12.54 43.49,-7.62 45.19,10.45 74.18,50.24 100.3,85.32 7.4,-7.66 15.76,-14.28 24.81,-19.81 -5.09,-21.03 -13.06,-41.48 -26.69,-58.59 23.77,8.58 38.74,30.08 52.5,50.06 26.82,-3.79 54.24,-3.66 80.97,1.04 9.1,-8.79 19.24,-17.15 31.91,-20.07 -7.14,7.14 -12.8,15.54 -17.46,24.47 11.06,6.05 21.51,13.28 29.86,22.81 26.82,-34 54.46,-73.57 98.9,-84.71zm-221.71 69.04l0 0c-20.76,4.18 -43.97,15.89 -49.19,38.31 -5.22,21.55 6.44,45.97 25.9,56.46 25.12,15.02 56.16,26.82 85.15,15.63 22.2,-8.92 48.54,-20.07 56.03,-45.1 9.49,-20.63 -1.18,-46.06 -21.11,-55.85 -29.3,-15.76 -64.82,-13.36 -96.77,-9.45zm-180.13 47.1l0 0c26.82,-10.14 54.37,-19.33 83.32,-20.46 -10.93,-17.02 -32.43,-29.25 -52.59,-21.42 -17.02,7.1 -26.29,24.9 -30.73,41.88zm345.29 -20.85l0 0c28.77,3 57.85,8.79 83.49,22.81 -3.74,-18.46 -13.8,-37.83 -32.61,-44.4 -19.68,-6.7 -39.96,5.57 -50.89,21.59zm-280.69 85.19l0 0c-8.01,20.55 -4.88,42.88 -4.4,64.34 5.01,-5.83 10.27,-11.36 15.85,-16.59l0 -1.74c2.39,-0.26 7.18,-0.74 9.58,-1 -8.23,5.79 -13.97,14.1 -18.37,23.03l-1 0.78c-0.13,13.41 0.43,26.82 2.44,40.14 33.3,-44.88 90.94,-63.21 144.79,-65.52 55.11,0.78 113.23,19.98 148.27,64.69 3.53,-14.97 4.62,-30.52 0.65,-45.49l-2.05 -0.91c-5.05,-7.4 -11.06,-14.15 -18.2,-19.59 3.13,1.74 6.27,1.87 9.45,0.39l-1.39 2.18c6.83,5.75 13.58,11.71 20.2,17.76 0.91,-21.81 3.22,-44.75 -5.31,-65.52 -10.01,-23.94 -27.95,-44.88 -51.06,-57.11l-0.61 -1.65c-2.66,16.59 -7.62,33.91 -20.5,45.62 -15.02,13.36 -33.61,22.16 -52.63,28.25 -32.82,10.36 -67.34,-3.48 -94.59,-21.68 -15.59,-9.71 -22.55,-27.43 -27.82,-44.19l3.13 -3.44c-1.78,-0.26 -5.4,-0.74 -7.18,-1 -23.03,12.1 -40.18,34.13 -49.23,58.24zm127.68 57.64l0 0c-25.81,3.05 -52.19,9.49 -73.57,24.94 13.63,10.19 29.91,15.63 46.41,19.07 47.1,7.84 96.2,0.35 139.21,-20.2 -0.57,-1.83 -1.74,-5.4 -2.35,-7.23 -34.87,-12.58 -72.39,-23.2 -109.7,-16.59zm-99.3 52.11l0 0c4.53,26.77 14.84,52.33 30.12,74.74 0.78,-25.99 2.48,-52.32 11.8,-76.88 -9.14,-4.79 -18.33,-9.45 -27.42,-14.32 -4.88,5.44 -9.66,10.97 -14.5,16.46zm199.33 -2.35l0 0c9.27,24.64 10.75,51.02 11.8,77.01 15.06,-22.55 25.73,-47.93 29.99,-74.79 -4.79,-5.4 -9.49,-10.75 -14.24,-16.11 -9.19,4.66 -18.41,9.18 -27.56,13.89zm-149.4 3.57l0 0c4.44,12.8 10.32,25.07 17.54,36.52 4.61,-5.27 9.27,-10.45 13.84,-15.71 5.53,7.01 11.23,13.89 17.06,20.68 7.4,-6.57 14.89,-13.02 22.38,-19.5 6.75,5.75 13.45,11.58 20.33,17.24 5.44,-7.4 10.58,-15.06 16.72,-21.98 9.23,-1.7 13.67,10.49 20.46,15.15 5.96,-10.75 11.23,-21.9 14.71,-33.69 -29.82,3.48 -59.42,10.62 -89.63,9.14 -17.98,-1.13 -35.74,-4.35 -53.41,-7.84zm-14.06 176.74l0 0c-0.96,29.34 9.1,58.55 4.01,87.98 -2.83,18.68 -13.02,35.83 -13.67,54.85 5.62,19.11 17.85,35.31 27.51,52.46 1.65,-0.44 4.92,-1.35 6.53,-1.83 2.87,-4.96 5.75,-9.92 8.62,-14.84 5.22,5.01 10.32,10.14 15.28,15.45 2.13,0.17 6.4,0.52 8.58,0.7 6.01,-5.7 12.14,-11.23 18.46,-16.59 3.44,5.57 6.88,11.14 10.36,16.72 2.05,-0.26 6.18,-0.83 8.27,-1.09 3.57,-4.79 7.18,-9.53 10.79,-14.28 1.79,0.22 5.36,0.7 7.1,0.96 4.13,5.09 8.31,10.19 12.49,15.32 5.75,-7.23 11.41,-14.45 17.15,-21.68 4.88,5.83 9.79,11.71 14.67,17.59 9.71,-15.58 20.55,-30.91 26.47,-48.41 -1.31,-22.37 -13.02,-42.7 -15.54,-64.91 1.18,-23.11 4.14,-46.1 6.18,-69.13 2,-16.76 -11.97,-29.17 -22.99,-39.57 -16.72,-12.41 -38.53,-4.4 -55.07,4.13 -5.83,29.78 -2.09,60.47 -8.36,90.2 -1.04,-30.12 -3.22,-60.55 -9.05,-90.11 -16.54,-6.57 -36.52,-17.28 -53.28,-5.36 -10.53,8.18 -19.68,18.89 -24.51,31.43zm-24.77 138.74l0 0c-10.53,31.17 -13.54,68.74 3.92,97.95 15.58,16.8 37.53,-7.4 31.65,-24.86 -8.4,-25.86 -27.6,-46.84 -35.57,-73.09zm223.01 -0.17l0 0c-8.62,21.24 -20.2,41.01 -31.69,60.77 -7.62,12.97 -6.27,30.39 5.27,40.62 11.06,6.49 23.68,-0.74 27.12,-12.14 10.49,-28.56 7.79,-60.55 -0.7,-89.24zm-72.78 77.97l0 0c-7.53,-6.01 -12.93,-18.59 -23.12,-19.07 -5.05,7.31 -9.49,14.98 -14.02,22.59 -5.66,-7.49 -10.84,-15.32 -15.59,-23.42 -5.96,6.96 -12.19,13.67 -18.41,20.42 -6.18,-7.1 -12.32,-14.19 -18.33,-21.37 -5.01,7.7 -9.75,15.58 -14.84,23.29 12.8,8.66 27.64,12.97 42.53,16.59 31.17,5.62 64.69,-2.05 90.07,-20.94 -2.74,-7.84 -5.96,-15.41 -8.97,-23.11 -6.7,8.14 -12.89,16.67 -19.33,25.03z"/>
     </g>
     <path class="fil1" d="M511.66 404.71c16.93,-5.53 41.22,-3.66 49.23,14.89 7.31,16.93 4.61,45.71 -17.76,48.84 -22.81,4.48 -37.53,-19.98 -33.96,-40.14 -5.05,1.22 -10.1,2.44 -15.15,3.66 4.05,-9.97 6.62,-22.59 17.63,-27.25z"/>
     <path class="fil1" d="M588.54 408.94c13.84,-9.58 33.91,-11.06 47.14,0.44 8.05,6.31 9.84,16.85 12.41,26.12 -4.96,-3.09 -9.93,-6.23 -14.85,-9.36 1.31,14.76 -2.26,32.78 -17.02,39.74 -13.15,7.62 -32.08,0.61 -36.52,-14.1 -6.01,-14.5 -1.78,-31.69 8.84,-42.84z"/>
    </g>
    <g>
     <g>
      <path class="fil2" d="M535.69 381.03c31.95,-3.92 67.48,-6.31 96.77,9.45 19.94,9.79 30.6,35.22 21.11,55.85 -7.49,25.03 -33.82,36.18 -56.03,45.1 -28.99,11.19 -60.03,-0.61 -85.15,-15.63 -19.46,-10.49 -31.13,-34.91 -25.9,-56.46 5.22,-22.42 28.43,-34.13 49.19,-38.31zm-24.03 23.68l0 0c-11.01,4.66 -13.58,17.28 -17.63,27.25 5.05,-1.22 10.1,-2.44 15.15,-3.66 -3.57,20.15 11.14,44.62 33.96,40.14 22.38,-3.13 25.07,-31.91 17.76,-48.84 -8.01,-18.54 -32.3,-20.42 -49.23,-14.89zm76.88 4.22l0 0c-10.62,11.14 -14.85,28.34 -8.84,42.84 4.44,14.71 23.38,21.72 36.52,14.1 14.76,-6.96 18.33,-24.99 17.02,-39.74 4.92,3.13 9.88,6.27 14.85,9.36 -2.57,-9.27 -4.35,-19.81 -12.41,-26.12 -13.23,-11.49 -33.3,-10.01 -47.14,-0.44z"/>
     </g>
    </g>
    <g>
     <path class="fil3" d="M547.83 550.11c37.31,-6.62 74.83,4.01 109.7,16.59 0.61,1.83 1.78,5.4 2.35,7.23 -43.01,20.55 -92.11,28.03 -139.21,20.2 -16.5,-3.44 -32.78,-8.88 -46.41,-19.07 21.38,-15.45 47.75,-21.9 73.57,-24.94z"/>
     <path class="fil3" d="M484.41 780.18c4.83,-12.54 13.97,-23.25 24.51,-31.43 16.76,-11.93 36.74,-1.22 53.28,5.36 5.83,29.56 8.01,59.99 9.05,90.11 6.27,-29.73 2.52,-60.42 8.36,-90.2 16.54,-8.53 38.35,-16.54 55.07,-4.13 11.01,10.4 24.99,22.81 22.99,39.57 -2.05,23.03 -5.01,46.01 -6.18,69.13 2.52,22.2 14.23,42.53 15.54,64.91 -5.92,17.5 -16.76,32.82 -26.47,48.41 -4.88,-5.88 -9.79,-11.75 -14.67,-17.59 -5.75,7.23 -11.41,14.45 -17.15,21.68 -4.18,-5.14 -8.36,-10.23 -12.49,-15.32 -1.74,-0.26 -5.31,-0.74 -7.1,-0.96 -3.61,4.74 -7.23,9.49 -10.79,14.28 -2.09,0.26 -6.23,0.83 -8.27,1.09 -3.48,-5.57 -6.92,-11.14 -10.36,-16.72 -6.31,5.35 -12.45,10.88 -18.46,16.59 -2.18,-0.17 -6.44,-0.52 -8.58,-0.7 -4.96,-5.31 -10.06,-10.45 -15.28,-15.45 -2.87,4.92 -5.75,9.88 -8.62,14.84 -1.61,0.48 -4.88,1.39 -6.53,1.83 -9.66,-17.15 -21.9,-33.35 -27.51,-52.46 0.65,-19.02 10.84,-36.17 13.67,-54.85 5.09,-29.43 -4.96,-58.64 -4.01,-87.98z"/>
    </g>
   </g>
   <path class="fil4" d="M628.63 373.9c11.06,6.05 21.51,13.28 29.86,22.81 26.82,-34 54.46,-73.57 98.9,-84.71 12.58,-4.92 26.34,-3.79 38.83,0.83 21.2,20.29 37.65,48.28 37.52,78.31 -4.27,-4.31 -8.49,-8.62 -12.75,-12.93 3.53,17.59 -0.57,37.26 9.58,53.11 18.37,31.69 43.71,59.12 58.9,92.72 10.23,23.55 7.09,49.63 7.36,74.53 7.23,-8.62 12.54,-18.59 16.98,-28.9 4.18,23.29 -2.09,48.97 -20.59,64.64 -22.68,19.63 -56.72,16.89 -82.41,5.01 -32.6,-14.54 -56.07,-42.53 -77.44,-70.13 1.09,28.38 -13.89,53.37 -18.24,80.79 -13.89,70 -22.72,141.52 -18.63,212.87 -1.26,42.23 8.23,84.23 4.27,126.42 -2.61,29.21 -25.95,55.2 -54.85,60.42 -18.72,3.96 -36.92,-4.44 -55.33,-6.7 -21.5,-1.65 -43.4,-0.91 -64.3,4.96 -22.42,7.27 -48.06,0.52 -64.47,-16.28 -15.59,-13.93 -21.59,-35.3 -21.81,-55.59 -0.91,-36.35 5.57,-72.39 5.53,-108.7 3.96,-78.79 -5.75,-157.72 -22.81,-234.51 -6.4,-20.9 -15.24,-41.53 -13.5,-63.95 -23.64,28.69 -48.23,59.2 -84.19,72.83 -25.03,10.01 -57.68,10.93 -78.1,-9.1 -17.24,-15.54 -23.46,-40.31 -18.72,-62.64 4.09,10.53 9.53,20.63 17.63,28.73 -1.44,-25.81 -3.53,-52.94 7.31,-77.18 13.28,-27.69 33.21,-51.37 49.76,-77.09 6.49,-10.27 14.32,-20.85 14.8,-33.52 0.83,-12.02 2.18,-23.99 4.7,-35.74 -3.35,4.09 -6.79,8.1 -10.19,12.19l-5.83 -1.48c5.18,-24.38 15.32,-48.32 32.39,-66.82 11.19,-11.71 28.86,-12.54 43.49,-7.62 45.19,10.45 74.18,50.24 100.3,85.32 7.4,-7.66 15.76,-14.28 24.81,-19.81 -5.09,-21.03 -13.06,-41.49 -26.69,-58.59 23.77,8.58 38.74,30.08 52.5,50.06 26.82,-3.79 54.24,-3.66 80.97,1.04 9.1,-8.79 19.24,-17.15 31.91,-20.07 -7.14,7.14 -12.8,15.54 -17.46,24.47zm-53.24 -247.7c0.09,41.66 -0.26,83.32 0.13,124.94 -11.71,-12.28 -24.9,-23.29 -40.7,-29.91 11.01,-0.39 21.81,1 32.39,4.27 -10.88,-11.45 -25.29,-17.5 -40.22,-21.64 12.28,-1.13 24.6,-0.48 36.78,0.91 -16.63,-13.97 -37.26,-21.29 -58.9,-22.46 18.72,-3.92 37.74,-3.31 56.29,1.09 -20.94,-14.76 -45.01,-24.9 -71,-24.64 22.2,-6.27 45.01,-2.35 66.91,2.87 -24.55,-17.89 -54.81,-21.77 -84.28,-23.81 28.69,-6.96 58.25,-5.62 86.72,1.74 -33.13,-18.85 -71.96,-28.34 -109.92,-21.85 -61.29,7.66 -111.44,47.15 -156.58,86.28 -60.81,54.98 -117.54,115.1 -164.51,182.49 -6.09,9.58 -13.67,18.59 -17.76,29.3 -4.7,50.06 -15.89,99.47 -16.89,149.97 7.01,-10.54 13.93,-21.07 20.94,-31.6 -6.36,52.11 -4.96,106.04 14.84,155.32 1.22,-19.5 1.13,-39.05 1.22,-58.59 16.98,36 31.47,75.35 62.42,102.13 -4.88,-14.54 -10.14,-28.91 -14.84,-43.49 18.63,14.15 34.04,32.3 54.07,44.66 13.23,8.66 28.25,13.93 43.05,19.11 -6.96,-9.66 -13.93,-19.33 -20.68,-29.12 37.74,13.58 78.62,31.52 119.02,17.24 19.94,-5.27 28.25,-25.68 38.87,-41.14 5.96,29.21 9.4,58.86 13.19,88.41 4.92,39.09 9.53,78.58 6.57,117.97 -0.09,20.16 3.83,40.22 1.26,60.38 -1.39,34.78 1.09,77.49 34.3,97.69 28.34,13.1 59.29,3.31 87.63,-4.22 34.3,-10.23 66.39,14.71 100.95,10.45 25.42,-0.74 47.06,-20.33 53.5,-44.45 9.84,-35.65 3.66,-73.05 5.05,-109.48 -4.44,-73.92 9.45,-147.35 19.94,-220.27 10.58,17.54 20.5,39.83 42.75,44.45 40.48,12.54 80.88,-5.09 117.8,-20.37 -7.66,10.32 -15.37,20.68 -22.81,31.17 15.19,-5.31 30.43,-11.06 43.97,-19.94 19.81,-12.49 35,-30.6 53.11,-45.19 -4.79,15.89 -10.67,31.34 -16.37,46.88 30.91,-27.47 47.19,-66.3 63.21,-103.43 1.22,19.15 1.65,38.35 2.22,57.55 8.1,-25.21 15.02,-51.02 17.24,-77.49 2.26,-25.9 -1.39,-51.8 -2.48,-77.66 6.57,10.19 13.23,20.33 20.11,30.34 -0.91,-39.31 -6.66,-78.27 -13.06,-116.97 -1.52,-8.97 -1.13,-18.11 -0.13,-27.08l0.04 -0.65c-37.96,-64.25 -88.67,-119.89 -140.91,-172.73 -39.79,-37.79 -80.19,-76.18 -127.85,-103.91 -60.51,-30.08 -131.77,-28.21 -196.59,-15.5z"/>
   <path class="fil4" d="M751.74 385.69c-19.68,-6.7 -39.96,5.57 -50.89,21.59 28.77,3 57.85,8.79 83.49,22.81 -3.74,-18.46 -13.8,-37.83 -32.61,-44.4z"/>
   <path class="fil4" d="M720.66 489.43c-10.01,-23.94 -27.95,-44.88 -51.06,-57.11 4.66,17.59 20.24,28.73 28.21,44.53 8.79,15.98 12.28,34.17 13.23,52.24 -0.96,1.48 -2.87,4.44 -3.87,5.92l-1.39 2.18c6.83,5.75 13.58,11.71 20.2,17.76 0.91,-21.81 3.22,-44.75 -5.31,-65.52z"/>
   <path class="fil4" d="M431.61 538.49c-3.87,-37.96 14.32,-74.57 41.83,-99.82l3.13 -3.44c-1.78,-0.26 -5.4,-0.74 -7.18,-1 -23.03,12.1 -40.18,34.13 -49.23,58.24 -8.01,20.55 -4.88,42.88 -4.4,64.34 5.01,-5.83 10.27,-11.36 15.85,-16.59l0 -1.74z"/>
   <path class="fil4" d="M355.56 428.14c26.82,-10.14 54.37,-19.33 83.32,-20.46 -10.93,-17.02 -32.43,-29.25 -52.59,-21.42 -17.02,7.1 -26.29,24.9 -30.73,41.88z"/>
   <path class="fil4" d="M441.18 537.49c-8.23,5.79 -13.97,14.1 -18.37,23.03 17.76,-14.06 35.91,-27.69 56.11,-38.09 -13.45,2.61 -26.21,7.7 -37.74,15.06z"/>
   <path class="fil4" d="M490.46 600.09c-9.14,-4.79 -18.33,-9.45 -27.42,-14.32 -4.88,5.44 -9.66,10.97 -14.5,16.45 4.53,26.77 14.84,52.33 30.12,74.74 0.78,-25.99 2.48,-52.32 11.8,-76.87z"/>
   <path class="fil4" d="M551.88 611.27c-17.98,-1.13 -35.74,-4.35 -53.41,-7.84 4.44,12.8 10.32,25.07 17.54,36.52 4.61,-5.27 9.27,-10.45 13.84,-15.72 5.53,7.01 11.23,13.89 17.06,20.68 7.4,-6.57 14.89,-13.02 22.38,-19.5 6.75,5.75 13.45,11.58 20.33,17.24 5.44,-7.4 10.58,-15.06 16.72,-21.98 9.23,-1.7 13.67,10.49 20.46,15.15 5.96,-10.75 11.23,-21.9 14.71,-33.69 -29.82,3.48 -59.42,10.62 -89.63,9.14z"/>
   <path class="fil4" d="M647.87 599.87c9.27,24.64 10.75,51.02 11.8,77.01 15.06,-22.55 25.73,-47.93 29.99,-74.79 -4.79,-5.4 -9.49,-10.75 -14.24,-16.11 -9.19,4.66 -18.41,9.18 -27.56,13.89z"/>
   <path class="fil4" d="M656.36 522.25c22.94,4.83 38.53,23.38 59.55,31.95 -5.05,-7.4 -11.06,-14.15 -18.2,-19.59 -12.84,-6.79 -27.08,-10.19 -41.36,-12.36z"/>
   <path class="fil4" d="M682.65 918.74c-8.62,21.24 -20.2,41.01 -31.69,60.77 -7.62,12.97 -6.27,30.39 5.27,40.62 11.06,6.49 23.68,-0.74 27.12,-12.15 10.49,-28.56 7.79,-60.55 -0.7,-89.24z"/>
   <path class="fil4" d="M638.16 994.79c-2.74,-7.84 -5.96,-15.41 -8.97,-23.11 -6.7,8.14 -12.89,16.67 -19.33,25.03 -7.53,-6.01 -12.93,-18.59 -23.12,-19.07 -5.05,7.31 -9.49,14.98 -14.02,22.59 -5.66,-7.49 -10.84,-15.32 -15.59,-23.42 -5.96,6.96 -12.19,13.67 -18.41,20.42 -6.18,-7.1 -12.32,-14.19 -18.33,-21.37 -5.01,7.71 -9.75,15.58 -14.84,23.29 12.8,8.66 27.64,12.97 42.53,16.59 31.17,5.62 64.69,-2.05 90.07,-20.94z"/>
   <path class="fil4" d="M495.21 992c-8.4,-25.86 -27.6,-46.84 -35.57,-73.09 -10.53,31.17 -13.54,68.74 3.92,97.95 15.58,16.8 37.53,-7.4 31.65,-24.86z"/>
  </g>
 </g>
</svg>
