<?xml version="1.0" encoding="UTF-8"?>
<!DOCTYPE svg PUBLIC "-//W3C//DTD SVG 1.1//EN" "http://www.w3.org/Graphics/SVG/1.1/DTD/svg11.dtd">
<!-- Creator: CorelDRAW 2018 (64-Bit) -->
<svg xmlns="http://www.w3.org/2000/svg" xml:space="preserve" width="9.07237in" height="8.31698in" version="1.1" style="shape-rendering:geometricPrecision; text-rendering:geometricPrecision; image-rendering:optimizeQuality; fill-rule:evenodd; clip-rule:evenodd"
viewBox="0 0 2547.92 2335.77"
 xmlns:xlink="http://www.w3.org/1999/xlink">
 <defs>
  <style type="text/css">
   <![CDATA[
    .str0 {stroke:white;stroke-width:22.11;stroke-miterlimit:2.61313}
    .fil11 {fill:none}
    .fil2 {fill:#181B1B;fill-rule:nonzero}
    .fil3 {fill:#1A1B18;fill-rule:nonzero}
    .fil0 {fill:#1B1D1C;fill-rule:nonzero}
    .fil1 {fill:#826C71;fill-rule:nonzero}
    .fil4 {fill:#826D71;fill-rule:nonzero}
    .fil7 {fill:#826D73;fill-rule:nonzero}
    .fil10 {fill:#826E73;fill-rule:nonzero}
    .fil6 {fill:#E8E8E8;fill-rule:nonzero}
    .fil9 {fill:#FAFAFA;fill-rule:nonzero}
    .fil8 {fill:#FBFCFC;fill-rule:nonzero}
    .fil5 {fill:#FCFBFC;fill-rule:nonzero}
   ]]>
  </style>
 </defs>
 <g id="Layer_x0020_1">
  <metadata id="CorelCorpID_0Corel-Layer"/>
  <g id="_1008392240">
   <g>
    <path class="fil0" d="M1203.11 16.55c84.17,-14.31 169.95,1.18 251.04,24.66 107.43,32.21 209.57,93.78 273.93,187.49 42.85,60.17 61.05,132.82 85.41,201.5 30.16,87.54 55.4,176.63 78.07,266.44 6.97,32.29 34.2,53.71 50.85,80.94 16.14,22.01 26.12,51.51 53.49,62.52 52.98,25.68 103.03,57.24 149.77,93.12 154.61,119.24 283.17,269.97 389.58,433.02 -26.93,56.28 -58.63,110.14 -93.19,161.95 -108.09,159.97 -239.15,302.99 -376.73,437.79 -74.48,72.79 -154.1,139.86 -230.93,209.87 -6.24,0.81 -12.33,1.61 -18.2,2.42 51.95,-85.34 101.34,-172.3 146.69,-261.38 -206.64,158.5 -429.79,296.53 -668.42,401.24 -12.03,5.06 -25.68,10.05 -38.01,3.37 -233.86,-102 -452.83,-235.55 -659.69,-384.22 40.8,87.32 93.12,168.63 139.94,252.72 -54.38,-38.16 -101.63,-85.42 -151.9,-128.64 -184.77,-170.61 -361.77,-353.25 -498.69,-565.32 -27.22,-42.12 -51.15,-86.22 -73.45,-131.06 72.28,-114.84 158.58,-220.66 253.75,-317.3 86,-84.98 181.47,-162.76 291.76,-213.98 24.36,-9.54 32.95,-36.25 47.33,-55.84 15.63,-26.2 40.43,-47.48 47.92,-78.08 38.01,-145.66 80.13,-290.81 138.32,-429.79 1.61,-4.55 3.96,-9.03 6.53,-13.36 29.28,-44.69 63.69,-86.3 105.81,-119.61 85.49,-67.88 192.04,-104.49 299.02,-120.49zm-50.04 61.05l0 0c-132.89,29.43 -266.67,104.94 -323.83,234.01 -52.61,134.73 -94.37,273.71 -129.52,413.94 -6.82,26.35 -28.03,44.84 -42.78,66.7 -43.74,62.89 -77.64,132.23 -104.35,203.85 -42.93,120.49 -76.76,247.95 -68.46,376.88 21.43,-60.61 35.88,-123.94 65.09,-181.69 51.29,-113.08 133.33,-216.69 245.46,-274 -23.19,109.78 -9.76,224.91 25.98,330.36 17.32,-28.54 22.6,-63.62 46.37,-88.71 5.5,66.34 22.53,132.16 56.5,189.91 14.89,-52.32 22.9,-108.31 55.77,-153.66 6.68,-13.87 25.9,-27.59 16.73,-44.47 -10.86,-23.34 -14.75,-48.73 -15.19,-74.19 -17.46,4.99 -34.64,10.27 -51.81,15.41 29.87,-35.81 75.73,-47.18 117.78,-61.86 -46.52,-6.31 -91.07,8.73 -133.04,26.78 -4.33,-72.13 27.22,-145 79.62,-194.16 56.72,42.78 119.24,85.42 191.74,93.34 14.82,-10.57 25.68,-25.54 37.72,-39.11 -0.29,10.05 -0.37,20.03 -0.29,30.08 32.29,-3.96 64.94,-3.74 97.38,-0.22 0,-12.04 0.14,-24.14 0.44,-36.1 15.26,16.95 27.08,51.95 55.48,43.44 66.26,-13.06 122.1,-53.42 176.55,-91.14 49.46,51.15 84.39,121.45 78.37,194.09 -43.81,-19.3 -90.55,-31.04 -138.4,-32.51 36.33,22.23 83.8,24.95 112.71,59.44 -14.46,-1.76 -28.69,-4.04 -42.78,-6.38 0.81,28.62 -5.5,56.72 -18.05,82.41 20.18,27.66 39.62,56.28 51.88,88.57 14.24,32.51 16.36,68.32 23.63,102.66 33.46,-58.34 54.6,-124.89 54.52,-192.55 25.61,21.72 33.09,55.84 47.77,84.68 25.83,-58.56 30.16,-123.35 37.28,-186.09 5.5,-46.96 -4.4,-93.63 -8,-140.3 129,63.11 215.44,188.81 267.18,319.2 18.93,41.97 24.58,88.64 45.2,129.96 5.28,-85.34 -9.47,-171.12 -31.11,-253.53 -29.72,-109.78 -71.76,-217.5 -135.75,-312.01 -17.61,-26.93 -43.44,-49.68 -50.19,-82.26 -25.9,-100.97 -53.57,-201.58 -88.64,-299.69 -20.7,-57.53 -36.62,-118.58 -74.19,-167.97 -43.81,-60.03 -105.67,-104.94 -173.1,-134.95 -111.39,-48.73 -238.56,-68.98 -357.66,-38.16zm-959.6 1124.63l0 0c-32.8,43.37 -71.91,83.29 -95.03,133.04 16.22,-13.21 31.19,-27.88 46.52,-42.27 90.11,-82.04 199.67,-138.4 310.76,-186.53 15.78,-71.33 48.06,-137 77.93,-203.12 -133.33,73.45 -243.7,182.42 -340.19,298.88zm1820.42 -299.02l0 0c30.75,65.75 62.37,131.79 78.08,203.26 33.9,17.68 70.15,30.31 104.13,48.06 61.71,31.26 120.64,68.39 175.09,111.17 32.87,25.1 60.1,56.5 91.29,83.65 -58.05,-92.97 -129.66,-176.85 -204.95,-256.17 -73.31,-72.43 -152.12,-141.48 -243.62,-189.98zm-959.45 51.07l0 0c-11.15,8.51 -6.9,26.86 -3.23,38.75 26.86,18.42 60.47,1.76 89.3,-3.52 -30.45,-7.63 -56.87,-25.1 -86.08,-35.22zm358.1 35.15l0 0c24.07,5.87 48.58,14.46 73.82,10.86 18.56,-11.01 18.34,-33.76 8.36,-50.56 -26.05,16.07 -54.38,27.44 -82.19,39.7zm-292.79 60.25l0 0c-25.24,16.14 -53.42,35.66 -61.71,65.9 18.56,47.92 65.46,75.36 105.82,103.1 -27.15,-1.76 -53.72,-8 -79.25,-16.66 -12.62,-3.52 -28.62,-11.52 -38.08,1.98 -44.54,49.61 -63.18,119.61 -57.9,185.36 20.92,-33.9 39.04,-76.17 80.79,-88.64 28.99,-12.99 57.53,6.31 86.59,7.34 78.15,-7.05 157.11,-7.05 235.33,0 28.99,-0.88 57.38,-20.33 86.66,-7.63 42.63,11.81 60.17,55.18 81.97,89.01 5.28,-69.42 -16.66,-144.71 -66.92,-194.16 -37.57,6.6 -72.65,23.26 -110.66,27.81 37.13,-31.04 84.61,-54.08 105.15,-100.97 6.02,-12.33 -5.06,-23.63 -11.67,-32.8 -35.81,-40.95 -89.23,-67.73 -144.27,-65.31 -17.91,27 -31.7,57.02 -53.2,81.45 -2.35,0 -6.97,0 -9.32,-0.07 -22.31,-23.85 -35.44,-54.38 -53.2,-81.38 -33.76,-0.15 -67.66,7.05 -96.13,25.68zm-84.61 344.74l0 0c-5.65,49.38 -2.79,100.16 12.04,147.86 22.16,-46.3 37.06,-98.7 75.87,-134.87 2.94,11.82 5.87,23.78 9.03,35.74 24.22,-6.97 51.81,-9.98 68.61,-31.19 1.69,3.45 5.06,10.35 6.75,13.8 21.28,5.65 44.17,0 66.26,1.39 26.12,-1.98 55.11,7.48 78.37,-8.73 19.23,16.73 45.2,18.78 69.2,23.78 0.95,-11.67 2.2,-23.33 3.74,-34.93 37.06,36.54 54.89,86.81 73.75,134.14 14.46,-37.13 19.67,-78 19.3,-117.77 -3.45,-35.37 -18.27,-75.73 -53.79,-89.89 -22.9,-6.97 -38.38,14.38 -50.27,30.01 -9.76,-5.58 -18.2,-15.92 -29.87,-15.71 -12.91,3.67 -24.73,9.69 -37.13,13.8 -10.86,-4.77 -20.4,-11.96 -31.11,-16.22 -14.82,-1.83 -28.54,4.62 -41.97,9.1 -17.68,-7.41 -40.36,-16.29 -56.21,-0.66 -17.91,19.45 -38.09,-9.54 -58.56,-6.31 -9.32,4.26 -16.8,11.23 -25.32,16.29 -6.82,-7.85 -12.62,-16.36 -18.05,-24.95 -38.89,-21.21 -72.43,21.21 -80.65,55.33zm135.46 190.5l0 0c-8.66,5.43 -21.79,10.42 -18.86,22.97 3.74,38.16 15.85,74.99 23.56,112.56 5.94,36.76 37.35,63.99 71.18,75.66 53.13,18.57 115.72,-21.57 126.44,-75.44 9.69,-41.9 21.06,-83.58 24.73,-126.58 -33.76,-21.35 -72.35,-35.37 -112.49,-36.18 -3.82,31.34 -6.38,62.89 -8.95,94.37 -12.11,-30.38 -5.06,-63.91 -10.2,-95.54 -33.31,3.3 -66.41,11.23 -95.39,28.18zm-111.83 174.35l0 0c3.59,35.88 6.97,83.8 46.45,98.92 14.38,8.14 27,-4.77 39.41,-11.08 6.82,7.34 13.79,14.75 20.99,22.16 24.88,-1.91 49.53,-0.51 72.06,11.67 21.87,-1.91 43.52,-6.6 65.38,0.81 24.88,-10.86 50.92,-15.26 78.22,-12.92 5.58,-6.68 11.3,-13.36 17.24,-20.03 13.57,5.65 27.74,17.76 43.37,10.27 38.31,-16.58 43.44,-63.47 47.48,-99.87 -46.67,35.81 -101.34,58.92 -157.91,72.5 -40.8,1.25 -81.52,1.4 -122.18,-0.44 -53.79,-15.71 -106.11,-37.2 -150.5,-71.99zm417.61 124.16l0 0c-40.51,23.41 -86.66,34.64 -132.38,42.05 -87.18,6.75 -178.83,5.28 -258.74,-34.49 -27.88,-12.92 -48.06,-36.47 -70.52,-56.43 4.18,30.01 21.58,56.06 43.74,76.17 34.86,33.98 83.43,44.84 127.75,61.05 -38.23,6.16 -75.14,-4.77 -110,-19.23 48.28,57.31 121.3,97.08 197.61,93.05 68.39,-1.03 143.68,-26.42 184.77,-83.87 -31.85,8.36 -64.5,13.65 -97.37,10.57 36.54,-13.21 75.51,-22.16 107.5,-45.35 34.71,-22.6 59.8,-58.63 68.68,-99.14 -19.67,19.3 -36.84,41.75 -61.05,55.62z"/>
    <path class="fil1" d="M1153.07 77.6c119.1,-30.82 246.26,-10.57 357.66,38.16 67.44,30.01 129.3,74.92 173.1,134.95 37.57,49.39 53.49,110.44 74.19,167.97 35.08,98.11 62.74,198.72 88.64,299.69 6.75,32.58 32.58,55.33 50.19,82.26 63.99,94.51 106.04,202.24 135.75,312.01 21.65,82.41 36.4,168.19 31.11,253.53 -20.62,-41.31 -26.27,-87.98 -45.2,-129.96 -51.73,-130.4 -138.18,-256.1 -267.18,-319.2 3.59,46.67 13.5,93.34 8,140.3 -7.12,62.74 -11.45,127.54 -37.28,186.09 -14.68,-28.84 -22.16,-62.96 -47.77,-84.68 0.07,67.66 -21.06,134.21 -54.52,192.55 -7.26,-34.34 -9.39,-70.15 -23.63,-102.66 -12.25,-32.29 -31.7,-60.9 -51.88,-88.57 12.55,-25.68 18.86,-53.79 18.05,-82.41 14.09,2.35 28.32,4.62 42.78,6.38 -28.91,-34.49 -76.39,-37.2 -112.71,-59.44 47.84,1.47 94.59,13.21 138.4,32.51 6.02,-72.65 -28.91,-142.95 -78.37,-194.09 -54.45,37.72 -110.29,78.08 -176.55,91.14 -28.4,8.51 -40.21,-26.49 -55.48,-43.44 -0.29,11.96 -0.44,24.07 -0.44,36.1 -32.44,-3.52 -65.09,-3.74 -97.38,0.22 -0.07,-10.05 0,-20.03 0.29,-30.08 -12.04,13.57 -22.9,28.55 -37.72,39.11 -72.5,-7.92 -135.02,-50.56 -191.74,-93.34 -52.39,49.16 -83.95,122.03 -79.62,194.16 41.97,-18.05 86.51,-33.09 133.04,-26.78 -42.05,14.67 -87.91,26.05 -117.78,61.86 17.17,-5.14 34.34,-10.42 51.81,-15.41 0.44,25.46 4.33,50.85 15.19,74.19 9.17,16.87 -10.05,30.6 -16.73,44.47 -32.87,45.35 -40.87,101.34 -55.77,153.66 -33.98,-57.75 -51,-123.57 -56.5,-189.91 -23.77,25.1 -29.06,60.17 -46.37,88.71 -35.74,-105.45 -49.17,-220.58 -25.98,-330.36 -112.12,57.31 -194.16,160.92 -245.46,274 -29.21,57.75 -43.66,121.08 -65.09,181.69 -8.29,-128.93 25.53,-256.39 68.46,-376.88 26.71,-71.62 60.61,-140.96 104.35,-203.85 14.75,-21.87 35.96,-40.36 42.78,-66.7 35.15,-140.23 76.9,-279.21 129.52,-413.94 57.16,-129.07 190.94,-204.58 323.83,-234.01zm-153.81 396.77l0 0c-39.11,39.4 -78.81,81.67 -100.24,133.63 52.69,-53.42 109.48,-104.71 178.09,-136.93 -14.82,24.51 -34.78,45.57 -47.11,71.55 30.31,-19.08 58.7,-41.54 91.95,-55.7 84.31,-40.07 184.7,-46.08 272.39,-13.06 44.98,15.34 83.95,42.78 123.28,68.83 -11.59,-26.49 -31.99,-47.33 -46.96,-71.62 64.94,29.13 116.16,79.62 170.54,123.94 -20.25,-47.33 -56.87,-85.05 -92.9,-120.71 -48.65,-44.17 -103.03,-84.09 -164.74,-107.8 12.04,15.04 25.1,29.35 37.57,44.17 -95.54,-32.29 -199.74,-30.45 -295.5,-0.15 16.07,-17.91 34.27,-33.9 51.73,-50.56 -67.22,23.26 -125.41,67.66 -178.09,114.4zm-40.87 193.5l0 0c-35.74,45.94 -64.21,97.89 -82.19,153.29 -13.06,42.78 -17.91,90.62 -4.04,133.7 11.74,-42.71 24.21,-86.59 52.98,-121.44 21.65,-26.12 44.69,-55.11 76.9,-68.24 18.64,6.16 35,17.46 52.76,25.98 44.84,22.9 93.41,38.01 143.09,46.08 -1.62,-7.48 -3.01,-14.97 -4.26,-22.38 51.88,17.1 108.97,17.54 160.34,-1.69 -4.18,8.07 -8.14,16.22 -11.96,24.29 64.65,-8.73 126.51,-32.21 182.64,-65.09 25.02,-19.22 48.06,11.23 66.48,25.9 45.13,38.89 63.47,96.35 83.95,149.99 21.72,-101.27 -26.78,-201.21 -86,-280.39 -4.55,-8 -15.12,-3.08 -17.98,3.45 -37.2,49.9 -90.55,87.18 -149.4,106.92 17.02,-21.65 38.08,-40.51 50.34,-65.68 -61.71,34.56 -125.19,74.33 -198.42,75.29 -72.94,-1.39 -136.41,-41.17 -197.83,-75.88 12.04,21.94 28.55,40.87 43.96,60.61 -58.12,-14.82 -106.25,-55.48 -143.31,-101.26 -3.45,-6.16 -13.79,-11.37 -18.05,-3.45z"/>
    <path class="fil1" d="M1170.61 1584.9c28.99,-16.95 62.08,-24.88 95.39,-28.18 5.14,31.63 -1.91,65.16 10.2,95.54 2.57,-31.48 5.13,-63.03 8.95,-94.37 40.14,0.81 78.74,14.82 112.49,36.18 -3.67,43 -15.04,84.68 -24.73,126.58 -10.71,53.86 -73.31,94 -126.44,75.44 -33.83,-11.67 -65.23,-38.89 -71.18,-75.66 -7.71,-37.57 -19.81,-74.41 -23.56,-112.56 -2.93,-12.55 10.2,-17.54 18.86,-22.97z"/>
    <path class="fil2" d="M999.26 474.37c52.69,-46.74 110.88,-91.14 178.09,-114.4 -17.46,16.66 -35.66,32.65 -51.73,50.56 95.76,-30.31 199.96,-32.14 295.5,0.15 -12.48,-14.82 -25.54,-29.13 -37.57,-44.17 61.71,23.7 116.09,63.62 164.74,107.8 36.03,35.66 72.65,73.38 92.9,120.71 -54.38,-44.32 -105.6,-94.81 -170.54,-123.94 14.97,24.29 35.37,45.13 46.96,71.62 -39.33,-26.05 -78.3,-53.5 -123.28,-68.83 -87.69,-33.02 -188.07,-27 -272.39,13.06 -33.24,14.16 -61.64,36.62 -91.95,55.7 12.33,-25.98 32.29,-47.04 47.11,-71.55 -68.61,32.21 -125.41,83.51 -178.09,136.93 21.43,-51.95 61.13,-94.22 100.24,-133.63z"/>
    <path class="fil3" d="M958.39 667.87c4.26,-7.93 14.6,-2.71 18.05,3.45 37.06,45.79 85.2,86.44 143.31,101.26 -15.41,-19.74 -31.92,-38.67 -43.96,-60.61 61.42,34.71 124.89,74.48 197.83,75.88 73.23,-0.96 136.71,-40.73 198.42,-75.29 -12.25,25.17 -33.31,44.03 -50.34,65.68 58.85,-19.74 112.2,-57.02 149.4,-106.92 2.86,-6.53 13.43,-11.45 17.98,-3.45 59.22,79.18 107.72,179.12 86,280.39 -20.47,-53.64 -38.82,-111.1 -83.95,-149.99 -18.42,-14.67 -41.46,-45.13 -66.48,-25.9 -56.13,32.88 -117.99,56.36 -182.64,65.09 3.82,-8.07 7.78,-16.22 11.96,-24.29 -51.37,19.23 -108.45,18.78 -160.34,1.69 1.25,7.41 2.64,14.9 4.26,22.38 -49.68,-8.07 -98.26,-23.19 -143.09,-46.08 -17.76,-8.51 -34.12,-19.81 -52.76,-25.98 -32.21,13.14 -55.25,42.12 -76.9,68.24 -28.76,34.86 -41.24,78.74 -52.98,121.44 -13.87,-43.07 -9.03,-90.92 4.04,-133.7 17.98,-55.4 46.45,-107.35 82.19,-153.29z"/>
    <path class="fil3" d="M1133.62 1122.31c4.33,-20.62 30.82,-35.44 50.56,-29.21 28.91,26.2 50.63,63.48 89.6,76.32 41.53,-12.7 61.71,-55.11 95.54,-78.88 20.55,1.32 36.98,14.67 48.06,31.41 -25.9,27.96 -54.96,57.9 -92.38,68.24 -34.42,-6.75 -70.67,-11.89 -103.47,3.89 -32.73,-18.71 -68.32,-38.3 -87.91,-71.77z"/>
    <path class="fil4" d="M193.47 1202.23c96.5,-116.46 206.86,-225.43 340.19,-298.88 -29.87,66.12 -62.15,131.79 -77.93,203.12 -111.1,48.14 -220.65,104.49 -310.76,186.53 -15.34,14.38 -30.31,29.06 -46.52,42.27 23.11,-49.75 62.23,-89.67 95.03,-133.04z"/>
    <path class="fil4" d="M2013.89 903.2c91.51,48.5 170.32,117.56 243.62,189.98 75.29,79.32 146.91,163.2 204.95,256.17 -31.19,-27.15 -58.41,-58.56 -91.29,-83.65 -54.45,-42.78 -113.37,-79.91 -175.09,-111.17 -33.97,-17.76 -70.23,-30.38 -104.13,-48.06 -15.7,-71.47 -47.33,-137.52 -78.08,-203.26z"/>
    <path class="fil5" d="M1054.44 954.27c29.21,10.13 55.62,27.59 86.08,35.22 -28.84,5.28 -62.45,21.94 -89.3,3.52 -3.67,-11.89 -7.92,-30.23 3.23,-38.75z"/>
    <path class="fil6" d="M1412.54 989.42c27.81,-12.25 56.14,-23.63 82.19,-39.7 9.98,16.8 10.2,39.55 -8.36,50.56 -25.24,3.6 -49.75,-4.99 -73.82,-10.86z"/>
    <path class="fil7" d="M1119.75 1049.67c28.47,-18.64 62.37,-25.83 96.13,-25.68 17.76,27 30.89,57.53 53.2,81.38 2.35,0.07 6.97,0.07 9.32,0.07 21.5,-24.43 35.3,-54.45 53.2,-81.45 55.03,-2.42 108.45,24.36 144.27,65.31 6.6,9.17 17.68,20.47 11.67,32.8 -20.55,46.89 -68.03,69.93 -105.15,100.97 38.01,-4.55 73.09,-21.21 110.66,-27.81 50.26,49.46 72.2,124.75 66.92,194.16 -21.79,-33.83 -39.33,-77.2 -81.97,-89.01 -29.28,-12.69 -57.68,6.75 -86.66,7.63 -78.22,-7.05 -157.18,-7.05 -235.33,0 -29.06,-1.03 -57.6,-20.33 -86.59,-7.34 -41.75,12.48 -59.88,54.74 -80.79,88.64 -5.28,-65.75 13.36,-135.75 57.9,-185.36 9.46,-13.5 25.46,-5.5 38.08,-1.98 25.54,8.66 52.1,14.9 79.25,16.66 -40.36,-27.74 -87.25,-55.18 -105.82,-103.1 8.29,-30.23 36.47,-49.75 61.71,-65.9zm13.87 72.65l0 0c19.59,33.46 55.18,53.05 87.91,71.77 32.8,-15.78 69.05,-10.64 103.47,-3.89 37.42,-10.35 66.48,-40.29 92.38,-68.24 -11.08,-16.73 -27.52,-30.09 -48.06,-31.41 -33.83,23.77 -54.01,66.19 -95.54,78.88 -38.97,-12.84 -60.69,-50.12 -89.6,-76.32 -19.74,-6.24 -46.23,8.59 -50.56,29.21z"/>
    <path class="fil8" d="M1035.15 1394.41c8.22,-34.12 41.75,-76.54 80.65,-55.33 5.43,8.58 11.23,17.1 18.05,24.95 8.51,-5.06 16,-12.04 25.32,-16.29 20.47,-3.23 40.65,25.76 58.56,6.31 15.85,-15.63 38.52,-6.75 56.21,0.66 13.43,-4.48 27.15,-10.94 41.97,-9.1 10.72,4.26 20.25,11.45 31.11,16.22 12.4,-4.11 24.22,-10.13 37.13,-13.8 11.67,-0.22 20.11,10.13 29.87,15.71 11.89,-15.63 27.37,-36.98 50.27,-30.01 35.51,14.16 50.34,54.52 53.79,89.89 0.37,39.77 -4.84,80.65 -19.3,117.77 -18.86,-47.33 -36.69,-97.6 -73.75,-134.14 -1.54,11.59 -2.79,23.26 -3.74,34.93 -24,-4.99 -49.97,-7.05 -69.2,-23.78 -23.26,16.22 -52.25,6.75 -78.37,8.73 -22.09,-1.39 -44.98,4.26 -66.26,-1.39 -1.69,-3.45 -5.06,-10.35 -6.75,-13.8 -16.8,21.21 -44.39,24.22 -68.61,31.19 -3.16,-11.96 -6.09,-23.92 -9.03,-35.74 -38.82,36.18 -53.71,88.57 -75.87,134.87 -14.82,-47.7 -17.69,-98.48 -12.04,-147.86z"/>
    <path class="fil9" d="M1058.77 1759.25c44.4,34.78 96.72,56.28 150.5,71.99 40.65,1.83 81.38,1.69 122.18,0.44 56.58,-13.57 111.24,-36.69 157.91,-72.5 -4.04,36.4 -9.17,83.29 -47.48,99.87 -15.63,7.48 -29.79,-4.62 -43.37,-10.27 -5.94,6.68 -11.67,13.36 -17.24,20.03 -27.3,-2.35 -53.35,2.06 -78.22,12.92 -21.87,-7.41 -43.52,-2.72 -65.38,-0.81 -22.53,-12.18 -47.18,-13.58 -72.06,-11.67 -7.19,-7.41 -14.16,-14.83 -20.99,-22.16 -12.4,6.31 -25.02,19.22 -39.41,11.08 -39.48,-15.12 -42.86,-63.03 -46.45,-98.92z"/>
    <path class="fil10" d="M1476.38 1883.41c24.21,-13.87 41.39,-36.32 61.05,-55.62 -8.88,40.5 -33.98,76.53 -68.68,99.14 -31.99,23.19 -70.96,32.14 -107.5,45.35 32.87,3.08 65.53,-2.2 97.37,-10.57 -41.09,57.46 -116.38,82.84 -184.77,83.87 -76.32,4.04 -149.33,-35.73 -197.61,-93.05 34.86,14.46 71.77,25.39 110,19.23 -44.32,-16.22 -92.9,-27.08 -127.75,-61.05 -22.16,-20.11 -39.55,-46.15 -43.74,-76.17 22.46,19.96 42.64,43.52 70.52,56.43 79.91,39.77 171.56,41.24 258.74,34.49 45.72,-7.41 91.87,-18.64 132.38,-42.05z"/>
   </g>
   <path class="fil11 str0" d="M1995.91 840.09c52.98,25.68 103.03,57.24 149.77,93.12 154.62,119.24 283.18,269.97 389.58,433.01 -26.93,56.28 -58.63,110.14 -93.19,161.95 -108.09,159.97 -239.15,302.99 -376.74,437.79 -74.48,72.79 -154.1,139.86 -230.93,209.87 -6.24,0.81 -12.33,1.62 -18.2,2.42 51.96,-85.34 101.34,-172.3 146.69,-261.38 -206.64,158.5 -429.79,296.53 -668.42,401.25 -12.03,5.06 -25.68,10.05 -38.01,3.37 -233.86,-102 -452.83,-235.55 -659.69,-384.22 40.8,87.32 93.12,168.63 139.94,252.72 -54.38,-38.16 -101.63,-85.42 -151.9,-128.63 -184.77,-170.61 -361.77,-353.25 -498.69,-565.32 -27.22,-42.12 -51.15,-86.22 -73.45,-131.06 72.28,-114.84 158.57,-220.66 253.75,-317.3 86,-84.98 181.47,-162.76 291.76,-213.98 24.36,-9.54 32.95,-36.25 47.33,-55.85 15.63,-26.2 40.43,-47.48 47.92,-78.08 38.01,-145.66 80.13,-290.81 138.32,-429.79 1.62,-4.55 3.96,-9.03 6.53,-13.36 29.28,-44.69 63.69,-86.29 105.81,-119.61 85.49,-67.88 192.04,-104.49 299.02,-120.49 84.17,-14.31 169.95,1.18 251.03,24.66 107.43,32.21 209.57,93.78 273.93,187.49 42.85,60.17 61.05,132.82 85.41,201.5 30.16,87.54 55.4,176.63 78.08,266.45 6.97,32.29 34.2,53.71 50.85,80.94 16.14,22.01 26.13,51.51 53.49,62.52z"/>
  </g>
 </g>
</svg>
