<?xml version="1.0" encoding="UTF-8"?>
<!DOCTYPE svg PUBLIC "-//W3C//DTD SVG 1.1//EN" "http://www.w3.org/Graphics/SVG/1.1/DTD/svg11.dtd">
<!-- Creator: CorelDRAW 2018 (64-Bit) -->
<svg xmlns="http://www.w3.org/2000/svg" xml:space="preserve" width="0.422291in" height="0.471421in" version="1.1" style="shape-rendering:geometricPrecision; text-rendering:geometricPrecision; image-rendering:optimizeQuality; fill-rule:evenodd; clip-rule:evenodd"
viewBox="0 0 3.02 3.37"
 xmlns:xlink="http://www.w3.org/1999/xlink">
 <defs>
  <style type="text/css">
   <![CDATA[
    .fil1 {fill:#02222D}
    .fil4 {fill:#02222D}
    .fil2 {fill:#02ACEF}
    .fil3 {fill:#03617C}
    .fil5 {fill:#036D92}
    .fil0 {fill:#FBFBFB}
   ]]>
  </style>
 </defs>
 <g id="Layer_x0020_1">
  <metadata id="CorelCorpID_0Corel-Layer"/>
  <g id="_988791856">
   <path class="fil0" d="M0.29 1.31c-0.01,0.02 -0.03,0.04 -0.04,0.06 -0.04,0.07 -0.07,0.13 -0.1,0.2 -0.02,0.05 -0.03,0.1 -0.04,0.16l-0.01 0.19c0,-0 0.01,-0 0.01,-0 0.01,-0 0,-0.01 0.01,-0 -0.01,0.1 -0.03,0.09 -0.03,0.26 0.02,0.01 0.03,0.02 0.05,0.04 0,0.06 0,0.48 0.01,0.51 0.02,0.04 0.17,0.2 0.21,0.24 0.02,0.01 0.02,0.02 0.04,0.03l0.07 0.06c0.13,0.1 0.27,0.18 0.41,0.24 0.02,0.01 0.18,0.07 0.19,0.07l0.16 -0.14c0.02,-0.01 0.03,-0.02 0.04,-0.03l0.21 -0.13c0.1,-0.05 0.26,-0.13 0.37,-0.13 -0.01,-0.04 -0.06,-0.05 -0.09,-0.07l-0.01 -0c-0.01,-0.01 -0,-0 -0.01,-0.01 0.02,0 0.03,-0 0.05,-0 0.05,-0.01 0.04,-0.01 0.07,-0.05 0.01,-0.01 0.02,-0.02 0.03,-0.03 0.15,-0.18 0.25,-0.17 0.46,-0.22 -0.01,-0 0,-0 -0.01,-0.01 -0.07,-0.04 -0.15,-0.05 -0.24,-0.1 -0.07,-0.04 -0.16,-0.08 -0.21,-0.15 -0.06,-0.08 -0.1,-0.16 -0.09,-0.27 0.01,-0.09 0.02,-0.05 0.07,-0.11l0.05 -0.05c0.01,-0.02 0.03,-0.03 0.05,-0.04 0.01,0.02 0.02,0.06 0.03,0.09 0.01,0.03 0.02,0.07 0.04,0.08 0.02,-0.02 0.06,-0.12 0.07,-0.15l0.03 -0.05c0,0.03 0.02,0.09 0.02,0.12 0.01,0.04 0.03,0.07 0.04,0.1 0.03,-0.01 0.04,-0.08 0.05,-0.11l0.08 -0.23c0.01,-0.02 0.01,-0.04 0.02,-0.05 0.01,-0.02 0.02,-0.04 0.02,-0.06 0.01,0.02 0.03,0.04 0.04,0.06 0.02,0.03 0.03,0.05 0.05,0.05 0,-0.03 0.06,-0.18 0.07,-0.21 0.01,-0.03 0.03,-0.06 0.04,-0.1 0.02,-0.04 0.03,-0.07 0.04,-0.1 0.03,-0.06 0.07,-0.13 0.12,-0.16 0.04,-0.03 0.17,0.01 0.21,-0.21 0,-0.01 0,-0.05 0.01,-0.06 0.02,-0.06 0.05,-0.1 0.04,-0.17 -0.01,-0.08 -0.01,-0.15 -0.07,-0.21 -0.05,-0.05 -0.13,-0.07 -0.2,-0.08 -0.09,-0.01 -0.18,0 -0.25,0.03 -0.07,0.02 -0.04,0.03 -0.1,-0.01 -0.09,-0.04 -0.19,-0.06 -0.29,-0.03 -0.06,0.02 -0.07,-0.02 -0.16,-0.04 -0.06,-0.01 -0.13,-0.01 -0.19,0 -0.07,0.01 -0.11,-0 -0.18,-0.02 -0.04,-0.01 -0.07,-0.02 -0.11,-0.03 -0.02,-0.01 -0.04,-0.01 -0.05,-0.02 -0.02,-0.01 -0.03,-0.01 -0.05,-0.02 -0.04,-0.01 -0.07,-0.02 -0.1,-0.04 -0.13,-0.06 -0.25,-0.12 -0.37,-0.2 0.03,0.11 0.1,0.21 0.11,0.25 -0.13,-0.03 -0.25,-0.07 -0.38,-0.1l-0.28 -0.08c-0.03,-0.01 -0.07,-0.02 -0.1,-0.02 0.01,0.04 0.12,0.13 0.15,0.16 0.02,0.02 0.04,0.03 0.06,0.05 0.02,0.02 0.22,0.15 0.26,0.16 -0.07,0.06 -0.16,0.04 -0.27,0.02 -0.07,-0.01 -0.21,-0.04 -0.28,-0.05 0.01,0.03 0.03,0.05 0.05,0.07 0.03,0.02 0.03,0.04 0.06,0.06 0.01,0.01 0.02,0.02 0.03,0.03l0.07 0.05c0.02,0.01 0.03,0.01 0.04,0.03 -0.07,0 -0.13,0.01 -0.2,0.01 -0.07,-0 -0.14,-0 -0.21,-0 0.05,0.07 0.25,0.16 0.34,0.18 -0.02,0.05 -0.05,0.04 -0.11,0.1 -0.03,0.03 -0.08,0.08 -0.09,0.13 0.05,-0 0.11,-0.02 0.17,-0.02 0,0.06 -0.02,0.06 -0.05,0.11 -0.07,0.09 -0.14,0.22 -0.17,0.33 0.02,-0.01 0.01,-0 0.03,-0.02l0.08 -0.06c0.02,-0.02 0.08,-0.06 0.11,-0.07z"/>
   <path class="fil1" d="M1.13 0.33c-0.12,-0.02 -0.63,-0.17 -0.71,-0.18 0.02,0.03 0.24,0.18 0.29,0.21 0.04,0.02 0.07,0.04 0.11,0.06 -0.02,0.02 -0.08,0.04 -0.11,0.05 -0.07,0.03 -0.04,0.03 -0.13,0.02 -0.16,-0.01 -0.16,-0.02 -0.29,-0.04 0.02,0.03 0.17,0.13 0.23,0.16 -0.03,0.06 -0.06,0.05 -0.15,0.06 -0.07,0.01 -0.13,0.01 -0.2,0.01 0.02,0.04 0.18,0.08 0.24,0.09 -0.02,0.13 -0.11,0.11 -0.16,0.19l0.11 0 -0 0.07c0.02,-0.01 0.03,-0.02 0.04,-0.04 0.02,-0.02 0.02,-0.03 0.05,-0.02 -0.01,0.01 -0.2,0.19 -0.24,0.32 0.02,-0.01 0.05,-0.03 0.07,-0.05 0.05,-0.03 0.18,-0.11 0.23,-0.13 -0.01,0.02 -0.04,0.05 -0.06,0.07 -0.05,0.05 -0.13,0.15 -0.16,0.22 -0.06,0.11 -0.12,0.24 -0.12,0.39 0.03,-0.02 0.05,-0.07 0.08,-0.09 -0.01,0.03 -0.02,0.06 -0.03,0.1 -0.03,0.11 -0.06,0.22 -0.06,0.34 0.07,0.03 0.06,0.11 0.06,0.2l0 0.32c0,0.03 0,0.03 0.02,0.05 0.04,0.05 0.08,0.1 0.12,0.14 0.06,0.06 0.14,0.13 0.21,0.18 0.11,0.08 0.4,0.25 0.53,0.26 0.05,-0.07 0.22,-0.2 0.29,-0.24 0.1,-0.06 0.25,-0.14 0.38,-0.16 -0.05,-0.05 -0.28,-0.01 -0.35,0.01 -0.04,0.01 -0.07,0.02 -0.1,0.03 0.03,-0.05 0.15,-0.09 0.22,-0.11 0.11,-0.03 0.18,-0.02 0.29,-0.04 0.02,-0 0.05,-0.04 0.08,-0.08 0.04,-0.06 0.11,-0.12 0.18,-0.15 0.05,-0.02 0.08,-0.02 0.13,-0.03 -0.04,-0.02 -0.14,-0.04 -0.26,-0.12 -0.07,-0.04 -0.14,-0.11 -0.17,-0.21 -0.03,-0.09 -0.02,-0.16 0,-0.24 0.01,-0.06 0.04,-0.03 0.1,-0.09 0.02,-0.02 0.03,-0.03 0.05,-0.05 0.02,-0.02 0.07,-0.09 0.09,-0.1 0.01,0.04 0.02,0.13 0.05,0.15 0.02,-0.03 0.07,-0.16 0.11,-0.23 0.01,-0.03 0.03,-0.05 0.04,-0.08 0.02,0.03 -0.04,0.15 0.01,0.3 0.02,-0.03 0.1,-0.33 0.19,-0.43 0.02,0.03 0.01,0.1 0.04,0.13 0.01,-0.02 0.02,-0.08 0.03,-0.1 0.01,-0.03 0.02,-0.07 0.04,-0.1 0.18,-0.47 0.32,-0.21 0.39,-0.46 0.01,-0.02 0.01,-0.04 0.01,-0.06 0,-0.05 0.05,-0.08 0.04,-0.17 -0.01,-0.11 -0.02,-0.15 -0.08,-0.2 -0.09,-0.07 -0.23,-0.07 -0.35,-0.03 -0.04,0.01 -0.08,0.03 -0.11,0.03 -0.08,-0.06 -0.14,-0.1 -0.27,-0.07 -0.02,0 -0.08,0.03 -0.09,0.03 -0.03,0 -0.07,-0.04 -0.18,-0.05 -0.07,-0 -0.17,0.02 -0.22,0.01 -0.17,-0.04 -0.38,-0.1 -0.53,-0.18 -0.06,-0.03 -0.1,-0.06 -0.15,-0.09 0.01,0.05 0.06,0.13 0.1,0.17 0.02,0.02 0.03,0.03 0.04,0.05z"/>
   <path class="fil2" d="M0.85 0.49c-0.13,0.04 -0.26,0.16 -0.32,0.25 0.01,0 0.05,-0.04 0.07,-0.05 0.07,-0.06 0.12,-0.09 0.21,-0.13 0.11,-0.04 0.3,-0.07 0.39,-0.01 -0.02,0.03 -0.11,0.15 -0.09,0.2l0.04 -0.01c0,0 -0.01,0.02 -0,0.01 -0.06,0.01 -0.38,0.26 -0.44,0.31 -0.01,0.01 -0.02,0.02 -0.03,0.03l-0.08 0.07c-0.02,0.02 -0.03,0.03 -0.05,0.05 -0.08,0.08 -0.24,0.28 -0.26,0.38l0.02 -0.03c0.02,-0.04 0.07,-0.09 0.1,-0.13 0.03,-0.04 0.06,-0.07 0.1,-0.11 0.03,-0.04 0.07,-0.07 0.1,-0.11 0.06,-0.06 0.16,-0.15 0.23,-0.2 0.04,-0.03 0.08,-0.06 0.12,-0.09 0.05,-0.04 0.21,-0.13 0.28,-0.15 -0.01,0.02 -0.03,0.03 -0.05,0.04 -0.04,0.04 -0.07,0.09 -0.08,0.14 -0.01,0.04 0.01,0.04 0.01,0.04 0,-0.01 0.01,-0.01 0.01,-0.02 0.03,-0.04 0.07,-0.1 0.12,-0.12 -0.01,0.03 -0.05,0.08 -0.07,0.11 -0.13,0.21 -0.23,0.36 -0.35,0.58l-0.1 0.18c-0.01,0.01 -0.01,0.02 -0.02,0.03 -0.02,0.03 -0.01,0.02 -0.02,0.02 -0.02,0.03 -0.09,0.26 -0.08,0.29l0.03 -0.07c0.01,-0.03 0.03,-0.07 0.04,-0.1 0.01,-0.03 0.03,-0.06 0.04,-0.09 0.05,-0.1 0.22,-0.46 0.29,-0.5 -0.01,0.04 -0.03,0.07 -0.03,0.12l0.02 -0.02c0,-0 0.01,-0.01 0.01,-0.02 0.09,-0.14 0.25,-0.39 0.37,-0.47 -0.01,0.06 -0.03,0.08 -0.01,0.15 0.01,0.04 0.05,0.1 0.08,0.1 0.02,-0.02 0.05,-0.04 0.08,-0.05 -0.01,0.03 -0.03,0.06 -0.05,0.09 -0.01,0.03 -0.03,0.06 -0.04,0.09 -0.08,0.18 -0.16,0.46 -0.13,0.64 0,-0 0,-0 0.01,-0.01l0.02 -0.04c0.01,-0.02 0.02,-0.04 0.02,-0.05 0.01,-0.12 0.02,-0.25 0.05,-0.37 0.01,0.02 0.01,0.05 0.03,0.08 0.01,-0.02 0.01,-0.05 0.02,-0.07 0.02,-0.06 0.07,-0.13 0.1,-0.18l0 -0.06c0.03,-0.05 0.01,-0.08 0.05,-0.13 0.02,0.14 0.13,0.14 0.17,0.16 -0.03,0.02 -0.07,0.02 -0.12,0.02 0.04,0.08 0.25,0.02 0.31,0.01 0.07,-0.01 0.13,-0.07 0.18,-0.08 -0.01,0.01 0,0 -0.01,0.01l-0.09 0.06 -0.03 0.09c0.03,-0.02 0.12,-0.11 0.16,-0.14 -0.02,0.05 -0.05,0.1 -0.04,0.17 0.03,-0.06 0.12,-0.25 0.17,-0.27 -0.01,0.05 -0.04,0.1 -0.04,0.15 0.02,-0.05 0.28,-0.3 0.32,-0.32l-0.02 -0c-0.04,-0 -0.08,0.01 -0.11,0.02 0.07,-0.08 0.28,-0.1 0.34,0.01 0.02,-0.01 0.03,-0.03 0.04,-0.05 -0.03,-0.04 -0.03,-0.07 -0.14,-0.09 -0.03,-0.01 -0.07,-0.01 -0.1,-0.01 -0.06,0 -0.04,0.02 -0.07,0.04l-0.01 0.04c-0.04,-0 -0.04,-0.03 -0.17,0.02 -0.05,0.02 -0.1,0.05 -0.12,0.08 0.01,-0.03 0.06,-0.08 0.08,-0.09 0.05,-0.04 0.1,-0.05 0.11,-0.07 -0.16,-0.04 -0.3,0.18 -0.43,0.22l0.02 -0.02c-0.03,0.01 -0.04,0.01 -0.07,0.01 -0.01,0.03 -0.01,0.05 -0.03,0.07 -0.02,-0.01 -0.02,-0.02 -0.04,-0.03 -0.03,-0 -0.08,0.02 -0.16,-0l0.06 -0.01c-0.04,-0.02 -0.11,-0.01 -0.12,-0.07 -0.01,-0.03 0.01,-0.04 0.01,-0.06 0.01,-0.06 -0,-0.02 0.02,-0.09 0.01,0.01 0,-0 0.01,0.01 0,0 0,0.01 0.01,0.02 0.02,0.03 0.05,0.04 0.08,0.03l-0.03 0.02c-0,-0 -0,0 -0,0 0.06,0.01 0.11,-0.01 0.16,-0.04 0.02,-0.01 0.06,-0.08 0.08,-0.11l0.01 0.01c0,-0 0,0 0,0l0.02 -0.01 0.01 0.05c0.04,-0.01 0.12,-0.08 0.21,-0.11 0.03,-0.01 0.02,0 0.02,0 0.03,0.01 0.02,-0.02 0.06,0 0.02,0.01 0.02,0 0.05,0 0.03,-0 0.04,0 0.06,-0.01 0.1,-0.06 0.11,-0.01 0.16,-0.03 0.08,-0.03 0.16,-0.04 0.23,0.01l0.05 0.03c0,0.03 -0.01,0.07 0,0.09 0.01,-0.03 0,-0.05 0.01,-0.07 0,-0.01 0.02,-0.04 0.02,-0.06 -0.01,-0.02 -0,-0.04 -0.01,-0.06 -0.01,-0.03 -0.02,-0.02 -0.03,-0.05 -0.01,-0.05 -0.02,-0.07 -0.06,-0.08l0.02 0.04c-0.05,-0.02 -0.12,-0.08 -0.2,-0.04 -0.02,0.01 -0.02,0.02 -0.04,0.02 -0.04,0.01 -0.09,0.02 -0.13,0.06 -0,-0 -0,-0 -0,-0 -0.01,-0.02 -0,-0.02 -0.01,-0.03 -0.06,-0.02 -0.13,-0.04 -0.19,-0.04 0,-0.05 -0.06,-0.06 -0.11,-0.05 0.02,0.02 0.04,0.03 0.06,0.04l-0.05 -0 -0.02 0.01 -0.01 0.04c-0.02,-0.01 -0.02,-0.02 -0.05,-0.03 -0.1,-0.05 -0.13,-0.04 -0.17,-0.05 -0.01,-0 -0.01,-0 -0.01,-0.01l0.06 -0.01c-0.05,-0.01 -0.08,-0.02 -0.13,-0.01 -0.03,0 -0.1,0.02 -0.11,0.02l-0.05 0.06c0,-0.03 0.02,-0.05 0.03,-0.08 -0.11,0.02 -0.19,0.1 -0.23,0.2 -0.01,0.03 -0.02,0.09 -0.03,0.11 -0.04,-0.07 -0.01,-0.22 0.04,-0.26 -0.04,-0 -0.09,-0.04 -0.21,-0.05l0.04 -0.02c-0.08,-0.01 -0.16,-0.01 -0.24,0 -0.03,0 -0.2,0.04 -0.2,0.03z"/>
   <path class="fil3" d="M2.05 1.29c-0.06,0.04 -0.2,0.13 -0.29,0.13 0.01,0 0.04,-0.02 0.05,-0.03 -0.1,0.01 -0.17,0.03 -0.25,-0.05l0.01 0.05c-0.03,-0.02 -0.03,-0.05 -0.03,-0.09 -0.03,0.05 -0.08,0.12 -0.1,0.18 -0.01,0.02 -0.01,0.05 -0.02,0.07 -0.01,-0.03 -0.01,-0.05 -0.03,-0.08 -0.03,0.11 -0.04,0.25 -0.05,0.37l0.1 -0.17c0.02,-0.03 0.09,-0.14 0.11,-0.15 -0.01,0.03 -0.02,0.05 -0.02,0.09 0.04,-0.02 0.07,-0.04 0.12,-0.05l0 0.01c0.03,-0.02 0.06,-0.04 0.11,-0.04 -0.02,0.05 -0.04,0.09 -0.06,0.14 -0.03,0.05 -0.05,0.08 -0.08,0.13 0.06,-0.03 0.31,-0.35 0.32,-0.36 -0.01,0.11 -0.1,0.29 -0.15,0.39 0.1,-0.03 0.25,-0.27 0.29,-0.37 0,0.06 -0.02,0.14 -0.02,0.22l0.07 -0.11c0.04,-0.06 0.19,-0.26 0.23,-0.29l-0.04 0.16c0.06,-0.06 0.2,-0.37 0.35,-0.42l0.04 -0.02c-0.06,-0.02 -0.05,-0.03 -0.12,-0.04 -0.02,-0 -0.03,-0.01 -0.05,0l0.02 0c-0.04,0.02 -0.3,0.27 -0.32,0.32 -0,-0.05 0.03,-0.1 0.04,-0.15 -0.06,0.02 -0.14,0.21 -0.17,0.27 -0,-0.06 0.03,-0.12 0.04,-0.17 -0.04,0.03 -0.14,0.12 -0.16,0.14l0.03 -0.09z"/>
   <path class="fil2" d="M1.07 2.42c0,0.02 -0.1,0.1 -0.12,0.13 -0.01,0.02 -0,0.09 -0,0.12 0,0.03 0.01,0.09 -0,0.11l0.03 0.18c-0.03,-0.03 -0.1,-0.19 -0.12,-0.2 -0.03,-0.02 -0.1,-0.04 -0.21,-0.1 -0.02,-0.01 -0.11,-0.08 -0.13,-0.08 -0.01,0.07 0.01,0.15 0.04,0.21 0.03,0.05 0.37,0.26 0.45,0.29 0.04,-0.08 0.07,-0.15 0.12,-0.22 0.09,-0.14 0.14,-0.17 0.16,-0.19 -0.12,0 -0.18,0.08 -0.21,0.09 -0.02,-0.14 0.14,-0.39 0.2,-0.42 -0.01,-0.01 0.02,-0.01 -0.03,-0.01l-0.07 0.02c-0.03,0.01 -0.05,0.02 -0.08,0.03l0.05 0 -0.1 0.06z"/>
   <path class="fil2" d="M1.03 1.94c-0.03,0.02 -0.07,0.03 -0.1,0.04 -0.05,0.02 -0.06,0.02 -0.07,0.08 -0.02,0.1 -0.01,0.19 -0.01,0.28l0.01 0.04c0.06,-0.04 0.05,-0.06 0.19,-0.14 0.05,-0.03 0.16,-0.09 0.23,-0.11 -0,-0.02 -0.03,-0.07 -0.03,-0.1l-0.04 -0.1c-0.04,-0 -0.13,-0.01 -0.16,0.01z"/>
   <path class="fil3" d="M0.65 1.99c0.01,-0.01 0.03,-0.04 0.04,-0.06 0.01,-0.02 0.02,-0.04 0.03,-0.06 0.09,-0.16 0.35,-0.54 0.51,-0.61 0.07,-0.03 0.09,0 0.11,0.06 0.05,-0.07 0.01,-0.05 0.1,-0.15 0,-0 0,-0 0,-0l0.01 -0.01c-0.03,-0.01 -0.07,-0.06 -0.08,-0.1 -0.02,-0.07 0,-0.1 0.01,-0.15 -0.12,0.08 -0.28,0.33 -0.37,0.47 -0,0.01 -0.01,0.01 -0.01,0.02l-0.02 0.02c0,-0.05 0.02,-0.08 0.03,-0.12 -0.07,0.04 -0.24,0.4 -0.29,0.5 -0.02,0.03 -0.03,0.06 -0.04,0.09 -0.01,0.03 -0.03,0.06 -0.04,0.1z"/>
   <path class="fil3" d="M0.31 1.55c0.02,-0.01 0.13,-0.13 0.15,-0.15 0.1,-0.09 0.22,-0.2 0.34,-0.27 0.04,-0.03 0.11,-0.06 0.17,-0.06 0.04,0 0.04,0.01 0.06,0.02 0.03,-0.03 0.04,-0.07 0.09,-0.1l0.02 -0.02c-0,-0 -0.02,0 -0.01,-0.04 0.01,-0.05 0.04,-0.1 0.08,-0.14 0.02,-0.01 0.04,-0.03 0.05,-0.04 -0.07,0.01 -0.23,0.11 -0.28,0.15 -0.05,0.03 -0.08,0.06 -0.12,0.09 -0.07,0.05 -0.17,0.14 -0.23,0.2 -0.03,0.04 -0.07,0.07 -0.1,0.11 -0.04,0.04 -0.06,0.07 -0.1,0.11 -0.03,0.03 -0.08,0.09 -0.1,0.13z"/>
   <path class="fil3" d="M0.57 2.78c-0.03,-0.06 -0.05,-0.13 -0.04,-0.21 0.02,0 0.1,0.06 0.13,0.08 0.11,0.07 0.18,0.09 0.21,0.1 0.03,0.01 0.09,0.18 0.12,0.2l-0.03 -0.18c-0.01,-0.08 -0.04,-0.18 -0.03,-0.26 0.04,-0.03 0.1,-0.08 0.15,-0.1l0.1 -0.06 -0.05 -0c0.02,-0.01 0.05,-0.02 0.08,-0.03l0.07 -0.02c0.05,-0 0.01,-0.01 0.03,0.01 0.02,-0.03 0.06,-0.07 0.09,-0.08 -0.11,-0.02 -0.45,0.22 -0.52,0.29 0,0.05 0.03,0.14 0.04,0.19 -0.07,-0.02 -0.39,-0.23 -0.43,-0.24 -0,0.05 -0.01,0.15 0.01,0.2 0.01,0.03 0.08,0.1 0.1,0.11z"/>
   <path class="fil4" d="M1.59 0.77c0.03,-0.05 0.12,-0.09 0.21,-0.09 0.09,-0.01 0.17,0.03 0.25,0.05 0.04,0.01 0.07,0.01 0.1,0.01 -0.04,-0.02 -0.09,-0.02 -0.12,-0.05 0.01,-0.01 0.07,-0.03 0.09,-0.03 -0.01,0.02 -0.01,0.01 -0.02,0.03 0.03,-0.01 0.04,-0.02 0.06,-0.03 0.02,-0.01 0.05,0 0.08,-0l-0.1 -0.03c-0.03,-0.02 -0.01,-0 -0.02,-0.03 -0.04,0.07 -0.21,-0.05 -0.24,-0.05 -0.03,0 0.03,0.01 -0.02,0.01 -0.02,-0 -0.06,-0.02 -0.12,-0.01 -0.05,0.01 -0.09,0.03 -0.12,0.06l0.06 -0c-0.01,0.02 -0.01,0.01 -0.02,0.03 -0.01,0.01 -0.02,0.01 -0.02,0.02 -0.02,0.02 -0.02,0.04 -0.04,0.06 -0.03,0.04 -0.05,0.07 -0.05,0.14 0,-0 0,-0 0,-0 0,0.01 0.03,-0.06 0.04,-0.07z"/>
   <path class="fil3" d="M0.85 2.38l-0.01 -0.04c-0,-0.09 -0.06,-0.28 -0.01,-0.36 0.03,-0.02 0.15,-0.04 0.19,-0.04 0.03,-0.01 0.12,-0.01 0.16,-0.01l-0.02 -0.1c-0.05,0.01 -0.37,0.07 -0.39,0.09 -0.03,0.06 -0.03,0.27 -0.01,0.34 -0.08,0.01 -0.23,-0.04 -0.31,-0.05 0.03,0.03 0.33,0.13 0.39,0.14z"/>
   <path class="fil3" d="M0.52 0.73c-0.02,0.01 -0.06,0.09 -0.07,0.11l0.12 -0.12c0.15,-0.13 0.34,-0.2 0.54,-0.14 -0.03,0 -0.2,0 -0.23,0.02 0.05,0.01 0.07,0.05 0.06,0.11 -0.01,0.05 -0.04,0.09 -0.06,0.12 0.03,-0.01 0.06,-0.03 0.1,-0.05l0.1 -0.05c0,-0 0,-0 0,-0 0,-0 0,-0 0,-0 -0.02,-0.05 0.07,-0.17 0.09,-0.2 -0.09,-0.05 -0.28,-0.03 -0.39,0.01 -0.09,0.04 -0.14,0.07 -0.21,0.13 -0.01,0.01 -0.06,0.06 -0.07,0.05z"/>
   <path class="fil0" d="M2.14 0.49c0.05,-0 0.11,0 0.11,0.05 0.06,0.01 0.13,0.03 0.19,0.04 0.01,0 -0,0.01 0.01,0.03 0,0 0,0 0,0 0.03,-0.04 0.09,-0.05 0.13,-0.06 0.02,-0.01 0.02,-0.01 0.04,-0.02 0.08,-0.04 0.15,0.02 0.2,0.04l-0.02 -0.04c0.04,0.01 0.05,0.04 0.06,0.08 0,0.03 0.01,0.02 0.03,0.05 0.01,0.02 0.01,0.04 0.01,0.06 0,-0.02 0,-0.05 0,-0.06 0,-0.02 0.02,-0.02 0.01,-0.04 -0,-0.02 -0.03,-0.06 -0.04,-0.07 -0.08,-0.1 -0.25,-0.07 -0.36,-0.02 -0.05,0.02 -0.04,0.02 -0.1,0.01 -0.04,-0 -0.08,-0 -0.12,-0 0.02,-0.01 0.05,-0.01 0.08,-0.02 -0.01,-0.04 -0.09,-0.1 -0.19,-0.08 -0.03,0.01 -0.05,0.02 -0.07,0.03l0.02 0.01z"/>
   <path class="fil2" d="M0.96 1.77l0.26 -0.04 0.04 -0.18c-0,-0.01 -0,-0.01 -0,-0.01 -0.11,0.01 -0.13,0.02 -0.19,0.08 -0.04,0.03 -0.09,0.11 -0.12,0.15 0.01,0.01 -0.02,0.01 0.02,0.01z"/>
   <path class="fil3" d="M0.57 0.88c0.04,-0.01 0.13,-0.05 0.18,-0.05 -0.09,0.03 -0.31,0.21 -0.37,0.3 0.07,-0.03 0.11,-0.07 0.21,-0.11 0.04,-0.02 0.05,-0.01 0.07,-0.04l-0.05 0.01c0.03,-0.03 0.16,-0.12 0.21,-0.14l-0.05 0c0.02,-0.02 0.05,-0.04 0.08,-0.06l-0.08 0c0.03,-0.03 0.06,-0.02 0.07,-0.05l0.01 -0.02c0,-0 0,-0 0,-0 0,-0 0,-0 0,-0l-0.05 0.01c0.01,-0.02 0.01,-0.02 0.04,-0.04 -0.06,0.02 -0.24,0.14 -0.27,0.17z"/>
   <path class="fil3" d="M0.96 1.77c-0.03,0 -0.01,0 -0.02,-0.01 0.03,-0.05 0.08,-0.12 0.12,-0.15 0.06,-0.06 0.08,-0.07 0.19,-0.08 0,0.01 0,0 0,0.01 0.01,-0.01 0.01,-0.05 0.02,-0.07 -0.05,-0 -0.11,0.01 -0.16,0.02 -0.1,0.03 -0.23,0.23 -0.25,0.29 0.02,-0 0.08,-0 0.09,-0.01z"/>
   <path class="fil1" d="M1.96 1.3l-0.02 0.01c-0.05,0.02 -0.15,0.04 -0.21,0.04 -0.04,-0 -0.08,-0.02 -0.11,-0.04 -0.05,-0.03 -0.04,-0.06 -0.07,-0.07l-0 0.06c-0,0.04 0,0.07 0.03,0.09l-0.01 -0.05c0.08,0.08 0.15,0.06 0.25,0.05 -0.01,0.01 -0.04,0.03 -0.05,0.03 0.09,-0.01 0.22,-0.09 0.29,-0.13l0.09 -0.06c0.01,-0.01 0,-0 0.01,-0.01 -0.05,0.02 -0.12,0.07 -0.18,0.08z"/>
   <path class="fil0" d="M1.13 0.96l0.03 -0.02c-0.02,0.03 -0.04,0.06 -0.06,0.1 -0.11,0.17 -0.34,0.55 -0.4,0.73 0,0.01 0,0.01 0.02,-0.02 0.01,-0.01 0.01,-0.02 0.02,-0.03l0.1 -0.18c0.12,-0.22 0.22,-0.37 0.35,-0.58 0.02,-0.03 0.06,-0.08 0.07,-0.11 -0.05,0.03 -0.09,0.08 -0.12,0.12z"/>
   <path class="fil3" d="M1.87 1.11c-0.01,-0.02 -0.02,-0.03 -0.03,-0.04 -0.08,-0 -0.19,0.02 -0.18,-0.08 0.04,-0 0.05,0.02 0.18,0.01l0.01 0.01c-0,-0.02 0.01,-0.03 0.04,-0.03 0.01,-0.03 0.03,-0.02 0.05,-0.01 0.01,-0.04 0.03,-0.07 0.05,-0.11l0.01 -0.02c-0,-0 -0,-0 -0,-0l-0.01 -0.01c-0.02,0.03 -0.06,0.09 -0.08,0.11 -0.04,0.02 -0.1,0.04 -0.16,0.04 0,-0 0,-0 0,-0l0.03 -0.02c-0.03,0 -0.06,-0 -0.08,-0.03 -0,-0.01 -0,-0.01 -0.01,-0.02 -0.01,-0.02 0,-0 -0.01,-0.01 -0.03,0.07 -0.02,0.02 -0.02,0.09 -0,0.03 -0.02,0.03 -0.01,0.06 0.01,0.06 0.07,0.05 0.12,0.07l-0.06 0.01c0.08,0.02 0.12,-0 0.16,0z"/>
   <path class="fil3" d="M1.55 1.25c0.03,0.01 0.02,0.04 0.07,0.07 0.03,0.02 0.06,0.03 0.11,0.04 0.06,0.01 0.16,-0.02 0.21,-0.04l0.02 -0.01c-0.06,0.01 -0.27,0.07 -0.31,-0.01 0.04,0 0.09,0 0.12,-0.02 -0.04,-0.02 -0.15,-0.01 -0.17,-0.16 -0.04,0.05 -0.02,0.08 -0.05,0.13z"/>
   <path class="fil2" d="M1.66 1.57c-0.01,0.06 -0.03,0.1 -0.05,0.15 -0.02,0.05 -0.05,0.1 -0.07,0.14 0.03,-0.01 0.07,-0.05 0.08,-0.06 0.03,-0.05 0.05,-0.08 0.08,-0.13 0.02,-0.05 0.04,-0.09 0.06,-0.14 -0.05,-0 -0.08,0.03 -0.11,0.04z"/>
   <path class="fil0" d="M0.85 0.49c0.01,0 0.17,-0.03 0.2,-0.03 0.08,-0.01 0.16,-0.01 0.24,-0l-0.04 0.02c0.12,0.01 0.17,0.04 0.21,0.05 0.03,-0.04 0.03,-0.02 0.05,-0.04 0.01,-0.01 0,-0 0.01,-0.01 -0.26,-0.06 -0.44,-0.06 -0.68,0.02z"/>
   <path class="fil5" d="M1.44 2.54l0.23 -0.12c0.03,-0.02 0.06,-0.04 0.07,-0.07 -0,-0 -0,-0 -0,-0l-0.06 -0.05c-0.02,-0.02 -0,-0.01 -0.03,-0.01 -0.02,0.06 -0.05,0.09 -0.09,0.15 -0.02,0.02 -0.1,0.1 -0.12,0.11z"/>
   <path class="fil0" d="M1.59 0.77c0.02,-0.02 0.09,-0.05 0.13,-0.05 -0.03,0.01 -0.05,0.03 -0.06,0.04 0.04,-0 0.09,-0.03 0.14,-0.03 0.07,-0.01 0.11,0.01 0.16,0.02 -0.02,-0.02 -0.06,-0.04 -0.08,-0.04 0.05,0 0.1,0.03 0.15,0.02 -0.08,-0.03 -0.16,-0.06 -0.25,-0.05 -0.09,0.01 -0.17,0.04 -0.21,0.09z"/>
   <path class="fil3" d="M1.77 2.61c0,-0.01 0.09,-0.06 0.1,-0.1 -0.02,-0.01 -0.03,-0.01 -0.05,-0.02 -0.04,-0.02 -0.04,-0.02 -0.03,-0.03 -0.01,0.01 -0.02,0.04 -0.04,0.07 -0.07,0.09 -0.15,0.14 -0.17,0.16 0.04,-0 0.11,-0.04 0.15,-0.06 0.01,-0 0.01,-0.01 0.02,-0.01 0.02,-0.01 0.01,-0 0.02,-0.02z"/>
   <path class="fil5" d="M1.42 2.31c0.05,-0.01 0.08,-0.04 0.12,-0.06 0.03,-0.02 0.03,-0.02 0.05,-0.04 0.01,-0.01 0.01,-0.01 0.02,-0.03l0.01 -0.02c0,-0 0,-0 0,-0 0.02,-0.02 -0.01,-0.04 -0.01,-0.11 -0,-0.02 -0,-0.02 -0.01,-0.03 -0.01,0.02 -0.01,0.02 -0.02,0.04 -0.02,0.06 -0.07,0.14 -0.11,0.18 -0.02,0.03 -0.04,0.04 -0.06,0.06z"/>
   <path class="fil3" d="M0.7 1.46l0.01 -0.01c0.02,-0.02 0.04,-0.06 0.07,-0.1 0.02,-0.02 0.08,-0.08 0.1,-0.09 -0.03,0 -0.04,0.02 -0.07,0.03 0.02,-0.06 0.09,-0.1 0.13,-0.14 -0.1,-0.01 -0.13,0.05 -0.16,0.11 -0.03,0.05 -0.07,0.13 -0.08,0.2z"/>
   <path class="fil0" d="M1.71 0.49c0.01,0 0.08,-0.02 0.11,-0.02 0.06,-0 0.08,0 0.13,0.01l-0.06 0.01c0.01,0 0,0 0.01,0.01 0.03,0.01 0.07,0 0.17,0.05 0.02,0.01 0.03,0.02 0.05,0.03l0.01 -0.04 0.02 -0.01c-0.14,-0.04 -0.3,-0.16 -0.44,-0.04z"/>
   <path class="fil0" d="M0.84 2.34c0.01,-0.1 -0,-0.19 0.01,-0.28 0.01,-0.05 0.02,-0.05 0.07,-0.08 0.03,-0.02 0.07,-0.02 0.1,-0.04 -0.04,0 -0.17,0.02 -0.19,0.04 -0.05,0.07 0.01,0.27 0.01,0.36z"/>
   <path class="fil0" d="M2.52 0.88c0.03,-0.02 0.01,-0.04 0.07,-0.04 0.03,-0 0.07,0 0.1,0.01 0.11,0.02 0.11,0.05 0.14,0.09 0.03,-0.06 -0.08,-0.17 -0.24,-0.12 -0.05,0.01 -0.06,0.02 -0.07,0.07z"/>
   <path class="fil3" d="M1.23 2.04c0.01,0.03 0.03,0.08 0.03,0.1 0.02,-0.01 0.12,-0.05 0.14,-0.06l-0.1 -0.09 -0.01 0.1c-0.03,-0.01 -0.03,-0.03 -0.05,-0.05z"/>
   <path class="fil0" d="M1.93 1.07c0.03,0 0.04,-0 0.07,-0.01 0.02,-0.01 0.03,-0.02 0.04,-0.04 -0,-0.01 -0.02,-0.05 -0.03,-0.05 -0.02,-0.01 0.01,-0.01 -0.01,0.01 -0.01,-0.02 -0.01,-0.05 -0.01,-0.08 -0.03,0.03 -0.06,0.13 -0.07,0.18z"/>
   <path class="fil0" d="M1.54 0.42c0.01,-0.02 -0.01,0 -0,-0.02 0,-0 0,-0 0,-0 -0.1,-0.03 -0.21,-0.06 -0.31,-0.1 -0.03,-0.01 -0.06,-0.03 -0.09,-0.04 0.02,0.02 0.14,0.1 0.17,0.11 0.03,0.01 0.08,0.01 0.11,0.02 0.04,0.01 0.08,0.02 0.11,0.03z"/>
   <path class="fil0" d="M1.99 0.63c-0.03,-0.02 -0.16,-0.04 -0.2,-0.04 -0,0.04 0,0.04 0.03,0.05 0.02,0.01 0.04,0.02 0.05,0.02 0.05,0.01 0.09,-0 0.12,-0.03z"/>
   <path class="fil0" d="M0.95 2.78c0.01,-0.02 0,-0.09 0,-0.11 -0,-0.03 -0.01,-0.1 0,-0.12 0.01,-0.03 0.12,-0.11 0.12,-0.13 -0.05,0.02 -0.11,0.07 -0.15,0.1 -0,0.08 0.02,0.18 0.03,0.26z"/>
   <path class="fil2" d="M1.79 2.46c-0,0.02 -0.01,0.01 0.03,0.03 0.02,0.01 0.03,0.02 0.05,0.02 -0.01,0.03 -0.1,0.08 -0.1,0.1 0.03,-0.01 0.14,-0.08 0.17,-0.1 -0.01,-0.01 0.01,-0 -0.01,-0.01 -0.04,-0.02 -0.04,-0 -0.12,-0.05l-0.01 0.01z"/>
   <path class="fil0" d="M2.42 0.78c0.01,0.04 0.04,0.1 0.07,0.11 0,-0.02 -0,-0.04 0,-0.06 0,-0.02 0.01,-0.03 0.02,-0.05 -0.04,-0.02 -0.06,-0.02 -0.09,-0z"/>
   <path class="fil0" d="M1.84 1.01c0.01,0.03 0.02,0.07 0.05,0.09l0 -0.01c0,-0 0,-0 0,-0l0.02 -0.06c0,-0 0.01,0.02 0.02,-0.03 -0.01,-0.01 -0.01,-0.01 -0.02,-0.02l-0.03 -0.01c-0.02,0 -0.04,0.01 -0.04,0.03z"/>
   <path class="fil1" d="M2.81 0.63c-0.01,-0.01 -0.02,-0.01 -0.04,-0.02 -0.02,-0.01 -0.02,-0.01 -0.04,-0.02 -0.12,-0.07 -0.09,0.04 -0.02,0.03 0.03,-0 0.02,-0.01 0.04,0 0.02,0.01 0.02,0.01 0.05,0.01z"/>
  </g>
 </g>
</svg>
