<?xml version="1.0" encoding="UTF-8"?>
<!DOCTYPE svg PUBLIC "-//W3C//DTD SVG 1.1//EN" "http://www.w3.org/Graphics/SVG/1.1/DTD/svg11.dtd">
<!-- Creator: CorelDRAW 2018 (64-Bit) -->
<svg xmlns="http://www.w3.org/2000/svg" xml:space="preserve" width="0.541453in" height="0.53715in" version="1.1" style="shape-rendering:geometricPrecision; text-rendering:geometricPrecision; image-rendering:optimizeQuality; fill-rule:evenodd; clip-rule:evenodd"
viewBox="0 0 5.16 5.12"
 xmlns:xlink="http://www.w3.org/1999/xlink">
 <defs>
  <style type="text/css">
   <![CDATA[
    .str0 {stroke:#FEFEFE;stroke-width:0.06;stroke-miterlimit:2.61313}
    .fil5 {fill:none}
    .fil2 {fill:#E31E24;fill-rule:nonzero}
    .fil3 {fill:#010101;fill-rule:nonzero}
    .fil1 {fill:#AA6C20;fill-rule:nonzero}
    .fil0 {fill:#DBB467;fill-rule:nonzero}
    .fil4 {fill:#FBFBFB;fill-rule:nonzero}
   ]]>
  </style>
 </defs>
 <g id="Layer_x0020_1">
  <metadata id="CorelCorpID_0Corel-Layer"/>
  <g id="_948319088">
   <g>
    <path class="fil0" d="M3.2 0.26c0.06,-0.03 0.12,-0.06 0.19,-0.08 0.13,-0.02 0.26,0.06 0.39,0.06 0.05,-0.01 0.1,0.01 0.15,0.02 -0.01,-0.01 -0.02,-0.02 -0.02,-0.03 0.07,-0.01 0.14,-0.04 0.2,-0.03 0.05,0.01 0.07,0.06 0.1,0.1 0.02,0.03 0.04,0.06 0.06,0.09 -0.05,-0 -0.1,-0.01 -0.15,-0.01 -0.02,0 -0.02,-0.02 -0.02,-0.03 -0.01,-0.03 -0.03,-0.06 -0.04,-0.09 0,0.04 0.01,0.08 0.01,0.12 -0.04,0.01 -0.08,0.02 -0.13,0.02 -0.04,-0.04 -0.09,-0.08 -0.14,-0.09 0.03,0.03 0.07,0.06 0.08,0.1 -0.03,0.03 -0.08,0.04 -0.13,0.04 -0.11,-0.01 -0.22,-0.06 -0.32,-0.09 -0.12,-0.02 -0.24,0.05 -0.3,0.15 0.04,-0.03 0.07,-0.07 0.12,-0.08 0.04,-0.02 0.09,-0.02 0.13,0 -0.02,0.03 -0.04,0.05 -0.05,0.09 -0.01,0.05 -0.01,0.11 -0.01,0.16 -0.03,0.03 -0.06,0.06 -0.09,0.09 0.02,-0.01 0.04,-0.02 0.05,-0.04 0.12,-0.09 0.26,-0.15 0.41,-0.19 -0,0.01 -0.01,0.02 -0.02,0.02 -0.04,0.03 -0.08,0.06 -0.12,0.09 0.03,-0.01 0.06,-0.03 0.09,-0.05 0.13,-0.07 0.27,-0.14 0.42,-0.15 0.13,-0.02 0.25,0.01 0.37,0.04 0.13,0.05 0.26,0.11 0.38,0.19 0.03,0.02 0.05,0.03 0.07,0.05 -0.06,0.01 -0.12,-0.01 -0.17,-0.03 -0.13,-0.04 -0.26,-0.09 -0.4,-0.13 0,0.01 0.01,0.02 0.02,0.03 -0,-0 -0.01,-0 -0.02,-0 0.01,0.01 0.02,0.02 0.03,0.03 -0.07,-0.01 -0.15,-0.04 -0.23,-0.01 -0.11,-0.04 -0.23,-0.02 -0.32,0.03 -0.03,0.01 -0.02,0.04 -0.03,0.06 -0.05,0.02 -0.1,0.05 -0.14,0.09 -0.04,0.04 -0.08,0.08 -0.11,0.13 -0.23,0.04 -0.46,0.13 -0.68,0.21 -0.21,0.09 -0.41,0.18 -0.6,0.31 -0.04,0.03 -0.09,0.06 -0.12,0.11 -0.02,0.02 -0.03,0.03 -0.05,0.05 0.41,-0.28 0.89,-0.41 1.37,-0.51 -0,0.01 -0,0.03 -0,0.04 0,-0 0.01,-0 0.02,-0 -0.11,0.03 -0.21,0.06 -0.32,0.11 -0.3,0.12 -0.6,0.28 -0.84,0.49 -0.09,0.08 -0.17,0.16 -0.25,0.24 -0.02,0.02 -0.04,0.03 -0.06,0.03 -0.01,-0.09 -0.02,-0.17 -0.04,-0.26 -0.02,-0.05 -0.04,-0.09 -0.06,-0.13 -0,0.02 -0,0.03 -0,0.05 -0.01,-0.03 -0.01,-0.06 -0.02,-0.09 -0.01,0.03 0,0.06 -0,0.09 -0.01,0.2 -0.03,0.39 -0.06,0.59 -0.07,0.05 -0.13,0.11 -0.19,0.18 -0.1,0.13 -0.19,0.28 -0.27,0.43 -0.15,0.29 -0.27,0.58 -0.36,0.89 -0.04,0.14 -0.09,0.29 -0.07,0.44 0.03,-0.04 0.04,-0.1 0.07,-0.14 0.2,-0.42 0.52,-0.76 0.87,-1.06 -0.09,0.18 -0.16,0.38 -0.22,0.57 -0.08,0.29 -0.13,0.59 -0.17,0.89 -0.02,0.13 -0.04,0.25 -0.05,0.38 -0.18,-0.07 -0.36,-0.16 -0.51,-0.28 -0.18,-0.13 -0.32,-0.3 -0.43,-0.49 -0.17,-0.29 -0.26,-0.63 -0.3,-0.97 0.37,-0.54 0.75,-1.08 1.21,-1.55 0.07,-0.01 0.14,-0.01 0.22,-0.02 -0.11,-0 -0.21,-0.05 -0.29,-0.12 -0.08,-0.06 -0.14,-0.14 -0.18,-0.24 0.1,0.01 0.19,-0.01 0.28,-0.04 0.12,-0.04 0.23,-0.1 0.36,-0.12 0.13,-0.03 0.27,-0.01 0.4,0.02 0,-0.04 -0.03,-0.08 -0.05,-0.11 0.34,-0.25 0.7,-0.48 1.09,-0.66zm-0.33 0.26l0 0c-0.03,0.01 -0.06,0.04 -0.06,0.07 0.01,0.05 0.08,0.07 0.13,0.06 0.05,-0.02 0.07,-0.06 0.09,-0.11 0.01,-0.03 -0.01,-0.05 -0.03,-0.07 -0.05,-0.01 -0.09,0.04 -0.13,0.06zm1.15 -0.02l0 0c-0.09,0.02 -0.16,0.08 -0.24,0.12 0.16,-0.08 0.36,-0.08 0.52,-0.02 -0.08,-0.06 -0.18,-0.12 -0.29,-0.1zm-1.14 0.27l0 0c-0.04,0 -0.07,0.03 -0.11,0.03 -0.11,0 -0.2,0.09 -0.27,0.17 -0.04,0.04 -0.07,0.11 -0.03,0.17 0.04,0.05 0.1,0.06 0.16,0.06 0.1,-0.01 0.21,-0.04 0.28,-0.12 0.05,-0.06 0.1,-0.15 0.08,-0.23 -0.01,-0.05 -0.06,-0.08 -0.11,-0.07zm0.41 0.06l0 0c-0.03,0.02 -0.05,0.05 -0.04,0.08 0.03,0.05 0.09,0.06 0.14,0.03 0.04,-0.02 0.09,-0.05 0.07,-0.11 -0.02,-0.01 -0.04,-0.03 -0.06,-0.03 -0.04,0 -0.07,0 -0.11,0.02zm-1.94 0.45l0 0c-0.04,0.01 -0.08,-0.01 -0.12,-0.03 0.01,0.04 0.06,0.05 0.1,0.06 0.01,0.02 0.02,0.04 0.04,0.06 0.06,0.04 0.13,0.04 0.19,0.04 -0.05,-0.03 -0.12,-0.03 -0.15,-0.09 0.08,0.02 0.16,-0.01 0.23,-0.04 0.05,-0.02 0.1,-0.04 0.15,-0.01 0.02,0.01 0.01,0.04 0,0.05 -0.03,0.06 -0.1,0.09 -0.16,0.1 0.09,0.01 0.2,0.01 0.28,-0.06 0.04,-0.03 0.04,-0.09 0.01,-0.13 -0.05,-0.06 -0.13,-0.11 -0.21,-0.1 -0.13,0.02 -0.23,0.12 -0.36,0.14zm0.76 -0.07l0 0c-0.04,0.03 -0.02,0.08 0.01,0.11 0.03,0.03 0.07,0.07 0.12,0.06 0.03,-0 0.06,-0.03 0.06,-0.06 -0.01,-0.03 -0.03,-0.06 -0.06,-0.08 -0.04,-0.02 -0.08,-0.05 -0.12,-0.03zm-0.64 0.49l0 0c-0.06,0.01 -0.09,0.06 -0.14,0.09 -0.02,0.01 -0.04,0.03 -0.04,0.05 -0.01,0.05 0.03,0.1 0.08,0.11 0.06,0.01 0.13,-0.04 0.15,-0.1 0.02,-0.04 0.04,-0.09 0.01,-0.13 -0.01,-0.02 -0.04,-0.03 -0.07,-0.02zm-0.19 0.42l0 0c-0.1,0.03 -0.21,0.08 -0.28,0.16 -0.04,0.04 -0.07,0.09 -0.08,0.15 -0.02,0.09 0.02,0.19 0.1,0.24 0.04,0.02 0.07,0.06 0.12,0.06 0.06,0.01 0.11,-0.04 0.15,-0.08 0.09,-0.1 0.13,-0.23 0.12,-0.36 -0,-0.05 0.01,-0.1 -0.02,-0.15 -0.03,-0.03 -0.07,-0.03 -0.11,-0.02zm-0.8 0.81l0 0c-0.03,0.04 -0.05,0.08 -0.06,0.13 -0.01,0.04 -0.02,0.09 -0.01,0.14 0.01,0.04 0.06,0.07 0.1,0.06 0.06,-0.01 0.12,-0.04 0.16,-0.09 0.04,-0.05 0.03,-0.11 0.05,-0.16 0.02,-0.09 0.05,-0.18 0.02,-0.27 -0.02,-0.01 -0.05,-0.01 -0.06,0 -0.08,0.05 -0.13,0.12 -0.19,0.19zm0.53 0.04l0 0c-0.05,0.02 -0.09,0.06 -0.13,0.09 -0.05,0.04 -0.07,0.11 -0.04,0.17 0.02,0.06 0.09,0.11 0.15,0.08 0.06,-0.03 0.11,-0.08 0.12,-0.15 0.01,-0.05 0.01,-0.1 0,-0.15 -0.01,-0.04 -0.06,-0.06 -0.09,-0.04zm-0.41 0.48l0 0c-0.04,0.02 -0.06,0.06 -0.08,0.09 -0.02,0.05 -0.04,0.1 -0.04,0.15 0.02,0.05 0.08,0.07 0.12,0.06 0.04,-0.02 0.05,-0.08 0.06,-0.12 0.01,-0.06 0.02,-0.12 -0.02,-0.17 -0.01,-0.01 -0.03,-0.02 -0.04,-0.01z"/>
    <path class="fil0" d="M4.36 0.22c0,0 0,0 0,0 -0,-0 -0,-0 -0,-0z"/>
    <path class="fil0" d="M4.37 0.25c0,0 0,0 0,0 -0,-0 -0,-0 -0,-0z"/>
    <path class="fil1" d="M4.47 0.67c0,0 0.01,0.01 0.01,0.01 0.03,0 0.06,0.01 0.09,0.02 0.03,0.01 0.05,0.01 0.08,0.02 0.05,0.01 0.09,0.03 0.14,0.04 0.02,0.01 0.04,0.01 0.07,0.02 0.01,0 0.02,0 0.03,0.01 0.02,0 0.05,0 0.07,0 0.01,-0 0.01,-0.01 0.02,-0.01 0.01,0.03 0.04,0.04 0.04,0.07 -0,0.05 -0.05,0.08 -0.08,0.12 0.02,-0.04 0.03,-0.08 0.02,-0.12 -0.01,-0.01 -0.01,-0.02 -0.02,-0.03 -0,0.02 -0.01,0.04 -0.01,0.06 0,0.04 -0.03,0.07 -0.04,0.1 -0.03,0.01 -0.06,-0.01 -0.09,-0.02 -0.03,-0.01 -0.06,-0.04 -0.08,-0.05 0.02,-0 0.04,-0.01 0.06,-0.01 0.01,-0.02 0.01,-0.03 0.01,-0.05 -0.01,-0.01 -0.02,-0.02 -0.02,-0.03 -0.02,-0.01 -0.04,-0.03 -0.06,-0.05 -0.02,-0.01 -0.05,-0.01 -0.07,-0.01 -0.01,0.01 -0.02,0.02 -0.03,0.03 -0,0.01 -0,0.02 -0,0.03 -0.05,-0.04 -0.1,-0.08 -0.13,-0.13 -0,-0 -0,-0.01 -0,-0.02z"/>
    <path class="fil0" d="M2.88 1.5c0.18,-0.09 0.36,-0.17 0.55,-0.24 -0,0.02 -0,0.04 -0,0.06 0.01,-0 0.02,-0.01 0.03,-0.01 -0.09,0.04 -0.18,0.1 -0.26,0.15 -0.18,0.12 -0.35,0.26 -0.51,0.41 -0.09,0.08 -0.16,0.18 -0.24,0.27 0.03,-0.03 0.06,-0.06 0.09,-0.09 0.01,0.01 0.01,0.01 0.02,0.02 -0,0 -0.01,0.01 -0.01,0.02 0.03,-0.04 0.07,-0.07 0.1,-0.11 0.02,-0.02 0.04,-0.04 0.06,-0.06 0.16,-0.13 0.33,-0.26 0.51,-0.36 0,0.01 0,0.02 0,0.02 -0.01,-0 -0.02,-0 -0.02,-0 -0.04,0.05 -0.09,0.08 -0.13,0.12 -0.09,0.09 -0.18,0.19 -0.24,0.3 -0.04,0.08 -0.09,0.15 -0.13,0.23 0.04,-0.03 0.09,-0.05 0.13,-0.07 -0.04,0.07 -0.09,0.14 -0.13,0.22 -0.07,-0.03 -0.11,-0.1 -0.18,-0.14 -0.01,-0 -0.02,-0 -0.03,-0 0,-0 0.01,-0.01 0.02,-0.01 -0.03,-0.02 -0.05,-0.03 -0.08,-0.05 -0.01,0.01 -0.02,0.02 -0.03,0.02 0.01,-0.01 0.01,-0.02 0.02,-0.03 -0.11,-0.08 -0.24,-0.11 -0.36,-0.16 0.06,-0.05 0.12,-0.1 0.18,-0.14 0.2,-0.14 0.42,-0.26 0.64,-0.37z"/>
    <path class="fil0" d="M4.49 1.27c0.02,0 0.04,0 0.06,0l-0 -0.01c0.11,0 0.22,-0 0.32,0 0,0.01 0,0.02 0,0.02 0.01,-0 0.02,-0 0.02,-0l-0 0.01 0.02 -0c-0,0.01 -0.01,0.02 -0.01,0.02l0.02 -0.01 -0.01 0.02c0.01,-0 0.02,-0.01 0.03,-0.01 -0,0.01 -0,0.02 -0,0.04 -0.01,-0 -0.03,-0 -0.04,-0 0,0.01 0,0.02 0.01,0.02l-0.02 -0 0 0.02c-0.01,-0 -0.02,-0.01 -0.02,-0.01l-0 0.01c-0.03,-0 -0.05,-0 -0.08,-0l0 0.01c-0.01,-0 -0.03,-0 -0.04,-0l0 -0.01c-0.02,0 -0.04,0 -0.07,0l-0 -0.01c-0.02,-0 -0.04,-0 -0.05,-0l0 -0.01c-0.02,-0 -0.03,-0.01 -0.05,-0.01l0 -0.01c-0.01,0 -0.02,0.01 -0.02,0.01l0 -0.01c-0.01,-0 -0.02,-0.01 -0.02,-0.01 -0.01,0 -0.02,0 -0.02,0 0,-0.01 0,-0.02 0.01,-0.02 -0.02,0 -0.04,0 -0.06,0 -0,-0.01 -0,-0.02 -0,-0.04 0.01,0 0.02,0.01 0.03,0.01l-0.01 -0.02z"/>
    <path class="fil2" d="M3.23 2.12c0.03,0.01 0.05,0.03 0.08,0.04 0.07,0.04 0.15,0.09 0.18,0.17 0.02,0.06 0,0.12 0,0.19 0.02,-0.1 0.03,-0.2 0,-0.29 0.07,0.03 0.15,0.08 0.17,0.15 0.02,0.05 -0,0.11 -0.02,0.16 -0.06,0.14 -0.15,0.27 -0.17,0.42 -0.01,0.1 0.03,0.2 0.1,0.27 0.03,0.04 0.07,0.08 0.08,0.13 0.01,0.05 -0.01,0.09 -0.01,0.14 -0,0.03 0,0.06 -0.01,0.08 -0.03,-0.01 -0.06,-0.02 -0.08,-0.05 0.06,-0.04 0.07,-0.12 0.07,-0.18 -0.04,0.02 -0.09,0.02 -0.13,0.02 -0.06,-0 -0.1,-0.06 -0.16,-0.05 -0.03,0 -0.06,0.02 -0.08,0.04 -0.03,-0.07 -0.04,-0.15 -0.06,-0.22 -0.01,-0.15 0.01,-0.31 0.06,-0.45 0.02,-0.08 0.04,-0.17 -0,-0.24 0,0.04 0.01,0.07 0,0.11 -0.02,0.08 -0.08,0.14 -0.09,0.22 0,-0.16 0,-0.31 0.02,-0.46 0.01,-0.06 0.03,-0.13 0.03,-0.19zm0.13 0.89l0 0c-0.01,0.05 0,0.11 0.04,0.15 0.05,0.05 0.1,0.1 0.16,0.14 -0.05,-0.07 -0.1,-0.15 -0.12,-0.23 -0.03,-0.1 -0.01,-0.21 -0.01,-0.31 -0.03,0.08 -0.06,0.16 -0.07,0.25z"/>
    <path class="fil3" d="M3.23 0.09c0.08,-0.04 0.17,-0.07 0.25,-0.05 0.06,0.02 0.11,0.04 0.17,0.06 0.06,0.02 0.12,0.05 0.19,0.04 0.03,-0.01 0.07,-0 0.1,-0.03 0.01,-0 0.03,0 0.04,-0.01 0.05,-0 0.09,-0.03 0.14,-0.03 0.04,0 0.08,-0 0.11,0.01 0.05,0.04 0.08,0.09 0.13,0.14 0,0 0,0 0,0l0.01 0.02c0,0 0,0 0,0 0.03,0.04 0.05,0.09 0.07,0.13 0.05,0.02 0.1,0.04 0.15,0.06 0.05,0.02 0.1,0.05 0.15,0.07 0.05,0.04 0.1,0.07 0.15,0.11 0.06,0.04 0.1,0.1 0.16,0.14 0.03,0.02 0.03,0.06 0.05,0.08 0.01,0.02 0.01,0.05 0.01,0.08 0,0 0.01,0.01 0.01,0.02 0,0.09 0,0.19 -0,0.28 -0.02,0.02 -0.01,0.06 -0.01,0.09 -0.01,0.02 -0.01,0.04 -0.01,0.06 -0.01,0.01 -0.01,0.02 -0.01,0.04 -0,0.01 -0.01,0.02 -0.01,0.02 0,0.02 -0,0.04 -0.01,0.05l-0.01 -0c-0,-0 -0.01,-0 -0.01,-0 -0.02,0.06 -0.01,0.13 -0.04,0.19 -0.02,0.03 -0.03,0.08 -0.05,0.11 -0.04,0.08 -0.12,0.14 -0.2,0.18 -0.01,0 -0.02,0.01 -0.03,0.01 0,-0.11 0.01,-0.22 -0.02,-0.32 -0.04,0.01 -0.06,-0.02 -0.09,-0.04 -0.03,0.02 -0.07,0.02 -0.1,-0 -0.15,0.12 -0.29,0.25 -0.41,0.4 -0.04,0.05 -0.09,0.1 -0.12,0.16 -0.04,0.06 -0.05,0.13 -0.08,0.19 -0.1,0.34 -0.12,0.69 -0.14,1.03 0.1,0.02 0.2,-0.01 0.29,-0.05 0.01,0.05 0.01,0.11 0,0.17 -0.02,0.08 -0.07,0.15 -0.15,0.19 -0.05,0.03 -0.1,0.03 -0.15,0.05 -0.01,0.12 -0.08,0.23 -0.2,0.27 -0.1,0.03 -0.21,-0 -0.3,-0.05 0.01,0.08 0.04,0.15 0.06,0.22 0.06,0.17 0.15,0.33 0.28,0.45 -0,0 -0,0.01 -0,0.02 -0.08,0.05 -0.16,0.1 -0.25,0.14 -0.05,0.02 -0.1,0.05 -0.15,0.07 -0.16,0.07 -0.34,0.12 -0.51,0.16 -0.15,0.02 -0.29,0.06 -0.44,0.06 -0.1,0 -0.2,0.01 -0.3,0 -0.07,-0 -0.14,0 -0.21,-0.01 -0.1,-0.01 -0.19,-0.04 -0.29,-0.06 -0.17,-0.05 -0.33,-0.11 -0.47,-0.2 -0.25,-0.14 -0.45,-0.36 -0.6,-0.61 -0.21,-0.35 -0.33,-0.75 -0.35,-1.16 -0.01,-0.04 0.03,-0.06 0.04,-0.09 0.33,-0.52 0.71,-1 1.12,-1.46 -0.1,-0.09 -0.16,-0.21 -0.18,-0.34 -0,-0.04 -0,-0.08 -0,-0.11 0.09,0.03 0.18,-0 0.27,-0.02 0.19,-0.06 0.38,-0.13 0.58,-0.16 0.02,-0 0.05,-0.01 0.07,-0.02 0.4,-0.3 0.82,-0.59 1.29,-0.75zm-0.02 0.17l0 0c-0.38,0.18 -0.75,0.41 -1.09,0.66 0.02,0.03 0.05,0.07 0.05,0.11 -0.13,-0.04 -0.26,-0.05 -0.4,-0.02 -0.13,0.02 -0.24,0.08 -0.36,0.12 -0.09,0.03 -0.19,0.05 -0.28,0.04 0.03,0.1 0.1,0.18 0.18,0.24 0.08,0.07 0.18,0.11 0.29,0.12 -0.07,0.01 -0.14,0.02 -0.22,0.02 -0.46,0.47 -0.84,1.01 -1.21,1.55 0.04,0.34 0.12,0.68 0.3,0.97 0.11,0.19 0.26,0.36 0.43,0.49 0.15,0.12 0.33,0.21 0.51,0.28 0.01,-0.13 0.03,-0.25 0.05,-0.38 0.04,-0.3 0.09,-0.6 0.17,-0.89 0.06,-0.2 0.13,-0.39 0.22,-0.57 -0.35,0.3 -0.67,0.64 -0.87,1.06 -0.02,0.05 -0.04,0.1 -0.07,0.14 -0.02,-0.15 0.04,-0.3 0.07,-0.44 0.09,-0.31 0.21,-0.6 0.36,-0.89 0.08,-0.15 0.16,-0.3 0.27,-0.43 0.05,-0.07 0.12,-0.13 0.19,-0.18 0.03,-0.19 0.05,-0.39 0.06,-0.59 0,-0.03 -0.01,-0.06 0,-0.09 0.01,0.03 0.01,0.06 0.02,0.09 0.02,0.18 0.02,0.36 -0,0.54 0.03,-0.01 0.06,-0.03 0.09,-0.03 0.09,-0.01 0.18,0.04 0.25,0.09 0.14,0.09 0.26,0.22 0.38,0.33 0.04,0.03 0.04,0.08 0.06,0.12 0.09,0.26 0.18,0.51 0.3,0.76 0.06,0.11 0.11,0.22 0.21,0.3 0,-0.02 -0.02,-0.03 -0.02,-0.05 -0.04,-0.1 -0.07,-0.21 -0.08,-0.32 0.03,0.07 0.05,0.15 0.1,0.22 0.05,0.1 0.12,0.21 0.23,0.27 0.07,0.03 0.15,0.02 0.21,-0.02 -0.06,-0.01 -0.12,-0.02 -0.17,-0.06 -0.05,-0.03 -0.09,-0.09 -0.13,-0.14 -0.06,-0.1 -0.1,-0.21 -0.13,-0.32 -0.04,-0.12 -0.05,-0.25 -0.06,-0.38 -0.01,-0.11 -0.02,-0.23 -0.01,-0.34 0.01,-0.2 0.03,-0.4 0.08,-0.59 0.01,-0.06 0.04,-0.12 0.05,-0.18 0.01,-0.01 0.03,-0.02 0.01,-0.03 0,-0.01 0.01,-0.02 0.01,-0.04 -0.06,0.07 -0.14,0.13 -0.19,0.21 -0,0.01 -0.01,0.01 -0.02,0.01 0.02,-0 0.02,-0.03 0.03,-0.05 0.09,-0.16 0.24,-0.28 0.38,-0.39 -0.02,-0.05 -0.02,-0.09 -0.03,-0.14 -0.07,0.04 -0.15,0.07 -0.21,0.12 -0.18,0.1 -0.35,0.23 -0.51,0.36 -0.02,0.02 -0.04,0.03 -0.06,0.06 -0.03,0.02 -0.06,0.05 -0.08,0.08 -0.01,-0.01 -0.01,-0.01 -0.02,-0.02 0.07,-0.06 0.12,-0.12 0.19,-0.18 0.32,-0.29 0.69,-0.54 1.12,-0.65 0.04,-0.01 0.07,-0.02 0.11,-0.02 -0.14,0.06 -0.28,0.13 -0.42,0.2 -0,0.05 0.01,0.09 0.01,0.14 0.03,-0 0.06,-0.03 0.09,-0.04 0.28,-0.13 0.56,-0.25 0.87,-0.29 0.11,-0.01 0.22,-0.02 0.34,-0.01 0,-0.02 0.01,-0.05 0.01,-0.07 0,-0.02 0,-0.04 0,-0.05 -0.21,-0.09 -0.37,-0.25 -0.51,-0.43l-0 -0c-0,-0.01 -0.01,-0.02 -0.02,-0.03 0.13,0.04 0.26,0.09 0.4,0.13 0.06,0.02 0.11,0.03 0.17,0.03 -0.02,-0.02 -0.05,-0.04 -0.07,-0.05 -0.12,-0.08 -0.25,-0.14 -0.38,-0.19 -0.12,-0.04 -0.25,-0.06 -0.37,-0.04 -0.15,0.01 -0.29,0.08 -0.42,0.15 -0.03,0.02 -0.06,0.04 -0.09,0.05 0.04,-0.03 0.08,-0.06 0.12,-0.09 0.01,-0.01 0.01,-0.01 0.02,-0.02 -0.15,0.04 -0.29,0.1 -0.41,0.19 -0.02,0.01 -0.03,0.03 -0.05,0.04 0.03,-0.03 0.06,-0.06 0.09,-0.09 0,-0.05 -0.01,-0.11 0.01,-0.16 0.01,-0.03 0.03,-0.06 0.05,-0.09 -0.04,-0.02 -0.09,-0.02 -0.13,-0 -0.05,0.02 -0.08,0.06 -0.12,0.08 0.06,-0.1 0.18,-0.17 0.3,-0.15 0.11,0.03 0.21,0.09 0.32,0.09 0.05,0 0.09,-0.01 0.13,-0.04 -0.02,-0.04 -0.05,-0.07 -0.08,-0.1 0.06,0.01 0.1,0.06 0.14,0.09 0.04,-0 0.09,-0.01 0.13,-0.02 0,-0.04 -0.01,-0.08 -0.01,-0.12 0.01,0.03 0.03,0.06 0.04,0.09 0.01,0.01 0.01,0.03 0.02,0.03 0.05,0 0.1,0.01 0.15,0.01 -0.01,-0.03 -0.04,-0.06 -0.06,-0.09 -0.03,-0.04 -0.05,-0.09 -0.1,-0.1 -0.07,-0.01 -0.14,0.02 -0.2,0.03 0.01,0.01 0.01,0.02 0.02,0.03 -0.05,-0.01 -0.1,-0.03 -0.15,-0.02 -0.13,0.01 -0.26,-0.07 -0.39,-0.06 -0.07,0.01 -0.13,0.05 -0.19,0.08zm0.22 0.22l0 0c-0.02,0.04 -0.04,0.09 -0.04,0.13 0.03,-0.02 0.06,-0.05 0.09,-0.06 0.04,-0.02 0.09,-0.03 0.13,-0.05l0.01 -0.01c-0.06,-0.01 -0.13,-0.06 -0.18,-0.01zm1.05 0.2l0 0c0,0 0,0.01 0,0.02 0.03,0.05 0.08,0.09 0.13,0.13 0,-0.01 0,-0.02 0,-0.03 0.01,-0.01 0.02,-0.02 0.03,-0.03 0.02,-0 0.05,0.01 0.07,0.01 0.02,0.02 0.04,0.03 0.06,0.05 -0,0.01 0,0.02 0.02,0.03 -0,0.02 -0.01,0.03 -0.01,0.05 -0.02,0 -0.04,0.01 -0.06,0.01 0.03,0.02 0.05,0.04 0.08,0.05 0.03,0.01 0.06,0.03 0.09,0.02 0.01,-0.03 0.04,-0.06 0.04,-0.1 0,-0.02 0.01,-0.04 0.01,-0.06 0.01,0.01 0.01,0.02 0.02,0.03 0.01,0.04 -0,0.08 -0.02,0.12 0.03,-0.03 0.08,-0.07 0.08,-0.12 0,-0.03 -0.03,-0.04 -0.04,-0.07 -0.01,0 -0.01,0.01 -0.02,0.01 -0.02,0 -0.05,0 -0.07,-0 -0.01,-0.01 -0.02,-0.01 -0.03,-0.01 -0.02,-0.01 -0.04,-0.02 -0.07,-0.02 -0.05,-0.02 -0.09,-0.03 -0.14,-0.04 -0.02,-0.01 -0.05,-0.02 -0.08,-0.02 -0.03,-0.01 -0.06,-0.02 -0.09,-0.02 -0,-0 -0.01,-0.01 -0.01,-0.01zm0.43 0.39l0 0c-0,0.04 -0.02,0.08 -0.02,0.13 0.06,0.01 0.1,0.06 0.13,0.11 0.01,-0.11 0.02,-0.22 0.01,-0.34 -0.04,0.03 -0.07,0.08 -0.12,0.1zm-0.42 0.21l0 0 0.01 0.02c-0.01,-0 -0.02,-0.01 -0.03,-0.01 0,0.01 0,0.02 0,0.04 0.02,0 0.04,-0 0.06,-0 -0,0.01 -0,0.02 -0.01,0.02 0.01,-0 0.02,-0 0.02,-0 0.01,0 0.02,0.01 0.02,0.01l-0 0.01c0.01,-0 0.02,-0.01 0.02,-0.01l-0 0.01c0.02,0 0.03,0.01 0.05,0.01l-0 0.01c0.02,0 0.04,0 0.05,0l0 0.01c0.02,-0 0.04,-0 0.07,-0l-0 0.01c0.01,0 0.03,0 0.04,0l-0 -0.01c0.03,0 0.05,0 0.08,0l0 -0.01c0.01,0 0.02,0.01 0.02,0.01l-0 -0.02 0.02 0c-0,-0.01 -0,-0.02 -0.01,-0.02 0.01,0 0.03,0 0.04,0 0,-0.01 0,-0.02 0,-0.04 -0.01,0 -0.02,0.01 -0.03,0.01l0.01 -0.02 -0.02 0.01c0,-0.01 0.01,-0.02 0.01,-0.02l-0.02 0 0 -0.01c-0.01,0 -0.02,0 -0.02,0 0,-0.01 0,-0.02 -0,-0.02 -0.11,-0 -0.22,0 -0.32,-0l0 0.01c-0.02,-0 -0.04,-0 -0.06,-0zm-0.41 0.11l0 0c0,0.02 0.02,0.04 0.03,0.06 0.02,0.05 0.04,0.09 0.05,0.15 0.01,0.07 0,0.15 -0.01,0.22 0.04,-0.07 0.09,-0.13 0.11,-0.2 0.04,-0.09 0.05,-0.2 0.04,-0.29 -0.08,0.03 -0.16,0.03 -0.23,0.07zm0.29 -0.06l0 0c-0,0.05 0.02,0.1 0.04,0.15 0,0.01 0.01,0.02 0.02,0.03 0.02,-0.03 0.06,-0.06 0.07,-0.1 -0.01,-0.01 -0.03,-0.01 -0.04,-0.02 -0.03,-0.01 -0.06,-0.04 -0.09,-0.05zm0.59 0.06l0 0c-0.02,0.02 -0.03,0.04 -0.05,0.06 -0.01,0.04 -0.02,0.08 -0.03,0.11 -0.01,0.04 -0.05,0.07 -0.09,0.04 0.03,0.05 0.04,0.11 0.03,0.17 0,0.01 -0.01,0.03 0.01,0.05 0.08,-0.13 0.15,-0.27 0.13,-0.43 -0,-0 -0.01,-0 -0.01,-0zm-0.42 0.04l0 0c0,0.03 0,0.06 0.02,0.09 0.01,0.01 0.01,0.03 0.03,0.03 0.02,-0.03 0.03,-0.06 0.04,-0.09 -0.03,-0.01 -0.06,-0.02 -0.08,-0.03zm0.26 0.05l0 0c-0.01,0.02 -0.02,0.03 -0.01,0.05 0.01,0.02 0.02,0.03 0.03,0.05 0.02,-0.04 0.03,-0.08 0.04,-0.12 -0.02,0.01 -0.04,0.01 -0.06,0.02zm-0.13 0.02l0 0c0.01,0.02 0.02,0.05 0.04,0.06 0.02,-0.02 0.03,-0.05 0.05,-0.08 -0.03,-0 -0.06,-0 -0.09,-0.01 0,0.01 0,0.02 0,0.03zm-1.44 0.63l0 0c-0,0.06 -0.02,0.13 -0.03,0.19 -0.02,0.15 -0.02,0.31 -0.02,0.46 0.02,-0.08 0.08,-0.14 0.09,-0.22 0.01,-0.04 0,-0.07 -0,-0.11 0.04,0.07 0.02,0.16 0,0.24 -0.05,0.15 -0.07,0.3 -0.06,0.45 0.01,0.08 0.02,0.15 0.06,0.22 0.02,-0.02 0.05,-0.04 0.08,-0.04 0.06,-0 0.1,0.05 0.16,0.05 0.04,0 0.09,0 0.13,-0.02 0,0.06 -0.01,0.14 -0.07,0.18 0.02,0.03 0.05,0.03 0.08,0.05 0.01,-0.03 0.01,-0.05 0.01,-0.08 0,-0.05 0.03,-0.09 0.01,-0.14 -0.01,-0.05 -0.05,-0.09 -0.08,-0.13 -0.07,-0.07 -0.11,-0.17 -0.1,-0.27 0.01,-0.15 0.11,-0.28 0.17,-0.42 0.01,-0.05 0.03,-0.11 0.02,-0.16 -0.02,-0.08 -0.1,-0.13 -0.17,-0.15 0.03,0.1 0.02,0.2 -0,0.29 -0,-0.06 0.02,-0.13 -0,-0.19 -0.03,-0.08 -0.11,-0.13 -0.18,-0.17 -0.03,-0.01 -0.05,-0.03 -0.08,-0.04zm0.08 1.26l0 0c-0.03,0.06 0,0.12 0.02,0.18 0.02,0.01 0.04,0.02 0.06,0.02 0.1,-0.01 0.17,-0.09 0.22,-0.18 -0.04,0.01 -0.08,0.02 -0.12,0.02 -0.04,0 -0.08,-0.03 -0.12,-0.05 -0.02,-0.01 -0.04,-0 -0.06,-0zm0.48 0.1l0 0c-0.03,-0 -0.05,-0.02 -0.08,-0.02 -0.01,0.05 -0.01,0.1 -0,0.15 0.01,0.02 0.02,0.03 0.03,0.05 0.04,0 0.08,-0 0.12,-0.03 0.06,-0.04 0.1,-0.1 0.14,-0.16 0,-0.01 0,-0.02 0,-0.02 -0.06,0.04 -0.14,0.04 -0.21,0.03z"/>
    <path class="fil3" d="M2.87 0.52c0.04,-0.02 0.08,-0.07 0.13,-0.06 0.02,0.02 0.04,0.04 0.03,0.07 -0.01,0.04 -0.04,0.09 -0.09,0.11 -0.05,0.02 -0.11,-0 -0.13,-0.06 0,-0.03 0.03,-0.05 0.06,-0.07z"/>
    <path class="fil3" d="M4.02 0.49c0.11,-0.02 0.2,0.04 0.29,0.1 -0.17,-0.06 -0.36,-0.06 -0.52,0.02 0.07,-0.05 0.15,-0.11 0.24,-0.12z"/>
    <path class="fil3" d="M3.81 0.67c0.1,-0.05 0.22,-0.07 0.32,-0.03 0.07,0.02 0.13,0.08 0.15,0.15 -0.03,-0.07 -0.11,-0.09 -0.18,-0.11 -0.08,-0.01 -0.17,-0.01 -0.24,0.03 0.1,0.01 0.23,0.04 0.28,0.14 -0.04,-0.04 -0.08,-0.07 -0.14,-0.08 -0.14,-0.04 -0.29,0.04 -0.36,0.16 -0.04,0 -0.07,0.01 -0.11,0.02 0.02,-0.05 0.07,-0.09 0.11,-0.13 0.04,-0.04 0.09,-0.07 0.14,-0.09 0,-0.02 0,-0.05 0.03,-0.06z"/>
    <path class="fil3" d="M2.88 0.77c0.05,-0.01 0.1,0.02 0.11,0.07 0.02,0.09 -0.03,0.17 -0.08,0.23 -0.07,0.08 -0.18,0.12 -0.28,0.12 -0.06,0 -0.12,-0.01 -0.16,-0.06 -0.04,-0.05 -0.01,-0.12 0.03,-0.17 0.07,-0.08 0.16,-0.17 0.27,-0.17 0.04,0 0.07,-0.02 0.11,-0.03z"/>
    <path class="fil3" d="M3.29 0.83c0.03,-0.02 0.07,-0.01 0.11,-0.02 0.02,-0 0.04,0.01 0.06,0.03 0.01,0.05 -0.03,0.09 -0.07,0.11 -0.04,0.03 -0.11,0.01 -0.14,-0.03 -0.01,-0.03 0.01,-0.06 0.04,-0.08z"/>
    <path class="fil3" d="M3.03 1.13c0.37,-0.12 0.77,-0.2 1.16,-0.16 -0.1,0.01 -0.21,0.01 -0.31,0.03 -0.11,0.02 -0.21,0.05 -0.31,0.08 -0.01,0.01 -0.01,0.03 -0.01,0.04 -0.03,0 -0.05,0.01 -0.08,0.02 -0,0 -0.01,0 -0.02,0 0,-0.01 0,-0.03 0,-0.04 -0.48,0.1 -0.96,0.23 -1.37,0.51 0.02,-0.02 0.03,-0.03 0.05,-0.05 0.27,-0.2 0.58,-0.33 0.89,-0.44z"/>
    <path class="fil3" d="M3.87 1.08c0.07,-0.01 0.13,-0.03 0.2,-0.03 -0.19,0.04 -0.37,0.1 -0.55,0.17 0,0.02 0,0.03 0,0.05 -0.02,0.01 -0.05,0.02 -0.07,0.03 -0.01,0 -0.02,0.01 -0.03,0.01 0,-0.02 0,-0.04 0,-0.06 -0.19,0.07 -0.37,0.15 -0.55,0.24 -0.22,0.11 -0.44,0.23 -0.64,0.37 -0.06,0.04 -0.13,0.09 -0.18,0.14 -0.03,0.03 -0.06,0.06 -0.1,0.08 0.11,-0.14 0.25,-0.25 0.39,-0.35 0.24,-0.18 0.5,-0.32 0.77,-0.44 0.24,-0.1 0.49,-0.18 0.75,-0.23z"/>
    <path class="fil3" d="M1.35 1.28c0.13,-0.02 0.23,-0.12 0.36,-0.14 0.08,-0.01 0.16,0.04 0.21,0.1 0.03,0.04 0.03,0.1 -0.01,0.13 -0.08,0.06 -0.18,0.06 -0.28,0.06 0.06,-0.02 0.13,-0.04 0.16,-0.1 0,-0.02 0.02,-0.04 -0,-0.05 -0.05,-0.03 -0.1,-0 -0.15,0.01 -0.07,0.03 -0.15,0.06 -0.23,0.04 0.03,0.06 0.1,0.06 0.15,0.09 -0.06,-0.01 -0.14,-0 -0.19,-0.04 -0.02,-0.01 -0.02,-0.04 -0.04,-0.06 -0.04,-0.01 -0.08,-0.01 -0.1,-0.06 0.04,0.02 0.08,0.04 0.12,0.03z"/>
    <path class="fil3" d="M2.11 1.21c0.04,-0.01 0.09,0.01 0.12,0.03 0.03,0.02 0.05,0.04 0.06,0.08 0,0.03 -0.02,0.06 -0.06,0.06 -0.05,0.01 -0.09,-0.03 -0.12,-0.06 -0.02,-0.03 -0.05,-0.08 -0.01,-0.11z"/>
    <path class="fil3" d="M1.47 1.69c0.02,-0.01 0.05,-0 0.07,0.02 0.02,0.04 0,0.09 -0.01,0.13 -0.02,0.06 -0.09,0.11 -0.15,0.1 -0.05,-0.01 -0.09,-0.06 -0.08,-0.11 0,-0.02 0.02,-0.04 0.04,-0.05 0.04,-0.03 0.08,-0.07 0.14,-0.09z"/>
    <path class="fil3" d="M1.28 2.11c0.04,-0.01 0.08,-0.01 0.11,0.02 0.03,0.04 0.02,0.1 0.02,0.15 0,0.13 -0.04,0.26 -0.12,0.36 -0.04,0.04 -0.09,0.09 -0.15,0.08 -0.05,0 -0.08,-0.03 -0.12,-0.06 -0.07,-0.05 -0.12,-0.15 -0.1,-0.24 0.01,-0.06 0.04,-0.11 0.08,-0.15 0.08,-0.08 0.18,-0.12 0.28,-0.16z"/>
    <path class="fil3" d="M0.48 2.92c0.05,-0.07 0.11,-0.14 0.19,-0.19 0.02,-0.01 0.04,-0.01 0.06,-0 0.04,0.09 0,0.18 -0.02,0.27 -0.02,0.05 -0.02,0.11 -0.05,0.16 -0.04,0.05 -0.09,0.09 -0.16,0.09 -0.04,0.01 -0.09,-0.02 -0.1,-0.06 -0.01,-0.05 -0,-0.09 0.01,-0.14 0.02,-0.05 0.03,-0.09 0.06,-0.13z"/>
    <path class="fil3" d="M3.36 3.01c0.01,-0.09 0.04,-0.17 0.07,-0.25 -0.01,0.1 -0.02,0.21 0.01,0.31 0.02,0.09 0.06,0.16 0.12,0.23 -0.05,-0.05 -0.11,-0.09 -0.16,-0.14 -0.04,-0.04 -0.05,-0.1 -0.04,-0.15z"/>
    <path class="fil3" d="M1.01 2.96c0.04,-0.02 0.08,0.01 0.09,0.04 0.01,0.05 0.01,0.1 -0,0.15 -0.01,0.07 -0.06,0.12 -0.12,0.15 -0.06,0.03 -0.13,-0.02 -0.15,-0.08 -0.02,-0.06 -0,-0.13 0.04,-0.17 0.04,-0.04 0.08,-0.07 0.13,-0.09z"/>
    <path class="fil3" d="M0.6 3.44c0.01,-0 0.03,-0 0.04,0.01 0.04,0.05 0.03,0.11 0.02,0.17 -0.01,0.04 -0.01,0.1 -0.06,0.12 -0.05,0.01 -0.11,-0.01 -0.12,-0.06 -0,-0.05 0.01,-0.1 0.04,-0.15 0.02,-0.04 0.04,-0.08 0.08,-0.09z"/>
    <path class="fil4" d="M3.42 0.47c0.06,-0.04 0.12,0.01 0.18,0.01l-0.01 0.01c-0.04,0.02 -0.09,0.03 -0.13,0.05 -0.03,0.01 -0.06,0.04 -0.09,0.06 0,-0.05 0.02,-0.09 0.04,-0.13z"/>
    <path class="fil4" d="M4.33 0.62c0,0 0.01,0 0.02,0l0 0c0.13,0.18 0.3,0.34 0.51,0.43 -0,0.02 -0,0.04 -0,0.05 -0,0.02 -0.01,0.05 -0.01,0.07 -0.11,-0.01 -0.22,0 -0.34,0.01 -0.3,0.05 -0.59,0.16 -0.87,0.29 -0.03,0.01 -0.06,0.03 -0.09,0.04 -0,-0.05 -0.02,-0.09 -0.01,-0.14 0.14,-0.06 0.28,-0.13 0.42,-0.2 -0.04,-0 -0.07,0.01 -0.11,0.02 -0.42,0.11 -0.8,0.36 -1.12,0.65 -0.07,0.06 -0.13,0.12 -0.19,0.18 0.01,0.01 0.01,0.01 0.02,0.02 0.02,-0.03 0.05,-0.05 0.08,-0.08 -0.03,0.04 -0.07,0.06 -0.1,0.11 0,-0 0.01,-0.01 0.01,-0.02 -0.01,-0.01 -0.01,-0.01 -0.02,-0.02 -0.03,0.03 -0.06,0.06 -0.09,0.09 0.08,-0.09 0.15,-0.19 0.24,-0.27 0.16,-0.15 0.33,-0.28 0.51,-0.41 0.08,-0.06 0.17,-0.11 0.26,-0.15 0.02,-0.01 0.05,-0.02 0.07,-0.03 -0,-0.02 -0,-0.03 -0,-0.05 0.18,-0.07 0.36,-0.14 0.55,-0.17 -0.07,0 -0.13,0.01 -0.2,0.03 -0.26,0.05 -0.51,0.12 -0.75,0.23 -0.27,0.12 -0.53,0.26 -0.77,0.44 -0.14,0.11 -0.28,0.22 -0.39,0.35 0.03,-0.03 0.06,-0.06 0.1,-0.08 0.12,0.05 0.25,0.07 0.36,0.16 -0.01,0.01 -0.01,0.02 -0.02,0.03 0.01,-0.01 0.02,-0.02 0.03,-0.02 0.03,0.02 0.05,0.03 0.08,0.05 -0,0 -0.01,0.01 -0.02,0.01 0.01,0 0.02,0 0.03,0 0.06,0.04 0.11,0.1 0.18,0.14 0.04,-0.08 0.09,-0.14 0.13,-0.22 -0.04,0.02 -0.09,0.05 -0.13,0.07 0.04,-0.08 0.09,-0.15 0.13,-0.23 0.06,-0.11 0.15,-0.21 0.24,-0.3 0.04,-0.04 0.09,-0.08 0.13,-0.12 0,0 0.01,0 0.02,0 -0,-0.01 -0,-0.02 -0,-0.02 0.07,-0.05 0.14,-0.08 0.21,-0.12 0.01,0.05 0.01,0.1 0.03,0.14 -0.15,0.11 -0.29,0.23 -0.38,0.39 -0.01,0.02 -0.01,0.04 -0.03,0.05 0.01,0 0.01,0 0.02,-0.01 0.05,-0.08 0.13,-0.14 0.19,-0.21 -0,0.01 -0.01,0.02 -0.01,0.04 0.02,0.01 -0,0.02 -0.01,0.03 -0.01,0.06 -0.04,0.12 -0.05,0.18 -0.05,0.19 -0.07,0.39 -0.08,0.59 -0.01,0.11 0,0.23 0.01,0.34 0.02,0.13 0.03,0.25 0.06,0.38 0.03,0.11 0.07,0.22 0.13,0.32 0.04,0.05 0.07,0.11 0.13,0.14 0.05,0.04 0.11,0.05 0.17,0.06 -0.06,0.04 -0.14,0.05 -0.21,0.02 -0.1,-0.06 -0.17,-0.16 -0.23,-0.27 -0.04,-0.07 -0.06,-0.15 -0.1,-0.22 0,0.11 0.03,0.22 0.08,0.32 0.01,0.02 0.03,0.03 0.02,0.05 -0.1,-0.08 -0.15,-0.19 -0.21,-0.3 -0.12,-0.24 -0.21,-0.5 -0.3,-0.76 -0.02,-0.04 -0.02,-0.09 -0.06,-0.12 -0.12,-0.12 -0.24,-0.24 -0.38,-0.33 -0.07,-0.05 -0.16,-0.09 -0.25,-0.09 -0.03,0 -0.06,0.02 -0.09,0.03 0.02,-0.18 0.03,-0.36 0,-0.54 0,-0.02 0,-0.03 0,-0.05 0.02,0.04 0.04,0.09 0.06,0.13 0.02,0.08 0.03,0.17 0.04,0.26 0.03,0 0.05,-0.01 0.06,-0.03 0.08,-0.08 0.16,-0.17 0.25,-0.24 0.25,-0.21 0.54,-0.37 0.84,-0.49 0.1,-0.04 0.21,-0.08 0.32,-0.11 0.03,-0.01 0.05,-0.01 0.08,-0.02 0,-0.01 0.01,-0.03 0.01,-0.04 0.1,-0.03 0.21,-0.06 0.31,-0.08 0.1,-0.02 0.21,-0.02 0.31,-0.03 -0.39,-0.04 -0.79,0.04 -1.16,0.16 -0.31,0.11 -0.62,0.24 -0.89,0.44 0.03,-0.05 0.08,-0.07 0.12,-0.11 0.19,-0.13 0.39,-0.22 0.6,-0.31 0.22,-0.08 0.44,-0.17 0.68,-0.21 0.04,-0.01 0.07,-0.01 0.11,-0.02 0.07,-0.12 0.22,-0.2 0.36,-0.16 0.05,0.01 0.1,0.05 0.14,0.08 -0.05,-0.1 -0.17,-0.13 -0.28,-0.14 0.07,-0.04 0.16,-0.04 0.24,-0.03 0.07,0.01 0.14,0.04 0.18,0.11 -0.02,-0.07 -0.08,-0.13 -0.15,-0.15 0.07,-0.03 0.15,0 0.23,0.01 -0.01,-0.01 -0.02,-0.02 -0.03,-0.03z"/>
    <path class="fil4" d="M4.91 1.06c0.05,-0.02 0.07,-0.07 0.12,-0.1 0.01,0.11 0.01,0.22 -0.01,0.34 -0.03,-0.05 -0.08,-0.1 -0.13,-0.11 0.01,-0.04 0.02,-0.08 0.02,-0.13z"/>
    <path class="fil4" d="M4.09 1.37c0.07,-0.04 0.15,-0.05 0.23,-0.07 0.01,0.1 -0,0.2 -0.04,0.29 -0.02,0.08 -0.07,0.14 -0.11,0.2 0.01,-0.07 0.02,-0.15 0.01,-0.22 -0.01,-0.05 -0.03,-0.1 -0.05,-0.15 -0.01,-0.02 -0.03,-0.03 -0.03,-0.06z"/>
    <path class="fil4" d="M4.38 1.32c0.03,0.01 0.06,0.04 0.09,0.05 0.01,0.01 0.03,0.01 0.04,0.02 -0.01,0.04 -0.05,0.06 -0.07,0.1 -0.01,-0.01 -0.02,-0.02 -0.02,-0.03 -0.02,-0.05 -0.05,-0.09 -0.04,-0.15z"/>
    <path class="fil4" d="M4.96 1.37c0,0 0.01,0 0.01,0 0.01,0.15 -0.06,0.3 -0.13,0.43 -0.01,-0.01 -0.01,-0.03 -0.01,-0.05 0,-0.06 -0.01,-0.12 -0.03,-0.17 0.03,0.03 0.08,-0 0.09,-0.04 0.01,-0.04 0.02,-0.08 0.03,-0.11 0.02,-0.02 0.04,-0.04 0.05,-0.06z"/>
    <path class="fil4" d="M4.55 1.41c0.03,0.01 0.05,0.02 0.08,0.03 -0.01,0.03 -0.03,0.06 -0.04,0.09 -0.02,0 -0.02,-0.02 -0.03,-0.03 -0.01,-0.03 -0.02,-0.06 -0.02,-0.09z"/>
    <path class="fil4" d="M4.8 1.47c0.02,-0.01 0.04,-0.01 0.06,-0.02 -0,0.04 -0.02,0.08 -0.04,0.12 -0.01,-0.02 -0.02,-0.03 -0.03,-0.05 -0.01,-0.02 0,-0.04 0.01,-0.05z"/>
    <path class="fil4" d="M4.67 1.48c-0,-0.01 -0,-0.02 -0,-0.03 0.03,0.01 0.06,0.01 0.09,0.01 -0.01,0.03 -0.03,0.05 -0.05,0.08 -0.02,-0.01 -0.03,-0.04 -0.04,-0.06z"/>
    <path class="fil4" d="M5.05 1.47c0,0 0.01,0 0.01,0 -0.02,0.01 -0.01,0.04 -0.01,0.05 -0.02,0.01 -0.01,0.04 -0.01,0.05 -0.02,0.01 -0,0.04 0,0.06 -0.01,0 -0.02,0 -0.02,0 0,0.01 -0,0.02 -0,0.03 -0.03,0.02 -0.04,0.05 -0.05,0.07l0.01 0c-0.01,0.01 -0.02,0.02 -0.03,0.03 0.02,-0.04 0.03,-0.08 0.05,-0.11 0.03,-0.06 0.03,-0.12 0.04,-0.19z"/>
    <path class="fil4" d="M3.31 3.37c0.02,0 0.04,-0 0.06,0 0.04,0.02 0.07,0.05 0.12,0.05 0.04,0 0.08,-0.01 0.12,-0.02 -0.05,0.08 -0.12,0.16 -0.22,0.18 -0.02,-0.01 -0.04,-0.01 -0.06,-0.02 -0.02,-0.06 -0.05,-0.12 -0.02,-0.18z"/>
    <path class="fil4" d="M3.79 3.47c0.07,0.01 0.15,0.01 0.21,-0.03 -0,0.01 -0,0.02 -0,0.02 -0.04,0.06 -0.08,0.12 -0.14,0.16 -0.03,0.02 -0.08,0.03 -0.12,0.03 -0.01,-0.01 -0.02,-0.03 -0.03,-0.05 -0.01,-0.05 -0,-0.1 0,-0.15 0.03,-0 0.05,0.02 0.08,0.02z"/>
   </g>
   <path class="fil5 str0" d="M5.13 0.93c0,0.09 0,0.19 -0,0.28 -0.02,0.02 -0.01,0.06 -0.01,0.09 -0.01,0.02 -0.01,0.04 -0.01,0.06 -0.01,0.01 -0.01,0.02 -0.01,0.04 -0,0.01 -0.01,0.02 -0.01,0.02 0,0.02 -0,0.04 -0.01,0.05l-0.01 -0c-0.02,0.01 -0.01,0.04 -0.01,0.05 -0.02,0.01 -0.01,0.04 -0.01,0.05 -0.02,0.01 -0,0.04 0,0.06 -0.01,0 -0.02,0 -0.02,0 0,0.01 -0,0.02 -0,0.03 -0.03,0.02 -0.04,0.05 -0.05,0.07l0.01 0c-0.01,0.01 -0.02,0.02 -0.03,0.03 -0.04,0.08 -0.12,0.14 -0.2,0.18 -0.01,0 -0.02,0.01 -0.03,0.01 0,-0.11 0.01,-0.22 -0.02,-0.32 -0.04,0.01 -0.06,-0.02 -0.09,-0.04 -0.03,0.02 -0.07,0.02 -0.1,-0 -0.15,0.12 -0.29,0.25 -0.41,0.4 -0.04,0.05 -0.09,0.1 -0.12,0.16 -0.04,0.06 -0.05,0.13 -0.08,0.19 -0.1,0.34 -0.12,0.69 -0.14,1.03 0.1,0.02 0.2,-0.01 0.29,-0.05 0.01,0.05 0.01,0.11 0,0.17 -0.02,0.08 -0.07,0.15 -0.15,0.19 -0.05,0.03 -0.1,0.03 -0.15,0.05 -0.01,0.12 -0.08,0.23 -0.2,0.27 -0.1,0.03 -0.21,-0 -0.3,-0.05 0.01,0.08 0.04,0.15 0.06,0.22 0.06,0.17 0.15,0.33 0.28,0.45 -0,0 -0,0.01 -0,0.02 -0.08,0.05 -0.16,0.1 -0.25,0.14 -0.05,0.02 -0.1,0.05 -0.15,0.07 -0.16,0.07 -0.34,0.12 -0.51,0.16 -0.15,0.02 -0.29,0.06 -0.44,0.06 -0.1,0 -0.2,0.01 -0.3,0 -0.07,-0 -0.14,0 -0.21,-0.01 -0.1,-0.01 -0.19,-0.04 -0.29,-0.06 -0.17,-0.05 -0.33,-0.11 -0.47,-0.2 -0.25,-0.14 -0.45,-0.36 -0.6,-0.61 -0.21,-0.35 -0.33,-0.75 -0.35,-1.16 -0.01,-0.04 0.03,-0.06 0.04,-0.09 0.33,-0.52 0.71,-1 1.12,-1.46 -0.1,-0.09 -0.16,-0.21 -0.18,-0.34 -0,-0.04 -0,-0.08 -0,-0.11 0.09,0.03 0.18,-0 0.27,-0.02 0.19,-0.06 0.38,-0.13 0.58,-0.16 0.02,-0 0.05,-0.01 0.07,-0.02 0.4,-0.3 0.82,-0.59 1.29,-0.75 0.08,-0.04 0.17,-0.07 0.25,-0.05 0.06,0.02 0.11,0.04 0.17,0.06 0.06,0.02 0.12,0.05 0.19,0.04 0.03,-0.01 0.07,-0 0.1,-0.03 0.01,-0 0.03,0 0.04,-0.01 0.05,-0 0.09,-0.03 0.14,-0.03 0.04,0 0.08,-0 0.11,0.01 0.05,0.04 0.08,0.09 0.13,0.14 0,0 0,0 0,0l0.01 0.02c0,0 0,0 0,0 0.03,0.04 0.05,0.09 0.07,0.13 0.05,0.02 0.1,0.04 0.15,0.06 0.05,0.02 0.1,0.05 0.15,0.07 0.05,0.04 0.1,0.07 0.15,0.11 0.06,0.04 0.1,0.1 0.16,0.14 0.03,0.02 0.03,0.06 0.05,0.08 0.01,0.02 0.01,0.05 0.01,0.08 0,0 0.01,0.01 0.01,0.02z"/>
  </g>
 </g>
</svg>
