<?xml version="1.0" encoding="UTF-8"?>
<!DOCTYPE svg PUBLIC "-//W3C//DTD SVG 1.1//EN" "http://www.w3.org/Graphics/SVG/1.1/DTD/svg11.dtd">
<!-- Creator: CorelDRAW 2018 (64-Bit) -->
<svg xmlns="http://www.w3.org/2000/svg" xml:space="preserve" width="9.81669in" height="8.33065in" version="1.1" style="shape-rendering:geometricPrecision; text-rendering:geometricPrecision; image-rendering:optimizeQuality; fill-rule:evenodd; clip-rule:evenodd"
viewBox="0 0 1550.03 1315.39"
 xmlns:xlink="http://www.w3.org/1999/xlink">
 <defs>
  <style type="text/css">
   <![CDATA[
    .str0 {stroke:white;stroke-width:12.43;stroke-miterlimit:2.61313}
    .fil4 {fill:none}
    .fil3 {fill:#FEFEFE}
    .fil1 {fill:black;fill-rule:nonzero}
    .fil0 {fill:#025798;fill-rule:nonzero}
    .fil2 {fill:#E63423;fill-rule:nonzero}
   ]]>
  </style>
 </defs>
 <g id="Layer_x0020_1">
  <metadata id="CorelCorpID_0Corel-Layer"/>
  <g id="_1184477280">
   <g>
    <g>
     <g>
      <path class="fil0" d="M435.77 57.33c33.33,-14.49 68.81,-25.1 105.3,-26.71 13.9,0.35 27.75,2.3 41.3,5.48 -0.02,0.92 -0.08,2.76 -0.1,3.7 -8.1,3.16 -16.42,5.82 -24.33,9.45 -4.77,2.08 -9.92,4.62 -15.25,3.16 -14.01,-3.31 -28.45,-0.63 -42.26,2.28 -12.82,2.94 -25.49,6.65 -37.65,11.73 -9.83,4.22 -20.31,6.93 -29.71,12.1 -7.32,3.98 -15.09,7.12 -22.15,11.57 -4.77,2.99 -9.83,5.45 -15.02,7.6 -7.24,2.99 -13.91,7.16 -20.98,10.53 -16.95,8.1 -33.57,16.9 -50.21,25.63 -15.39,7.14 -30.19,15.44 -45.56,22.57 -11.25,5.86 -23.07,10.49 -34.46,16.04 -10.19,5.01 -20.94,8.67 -31.55,12.65 -5.19,1.98 -10.66,2.97 -16.17,3.52 0.04,-0.76 0.11,-2.28 0.15,-3.04 5.52,-2.28 10.97,-4.7 16.27,-7.42 8.17,-4.19 16.81,-7.38 24.93,-11.7 10.63,-5.78 21.58,-10.93 32.02,-17.06 17.1,-8.7 33.31,-19.01 50.02,-28.4 13.04,-6.94 25.19,-15.41 38.39,-22.07 18.28,-11.04 38.12,-19.32 55.84,-31.31 6.6,-4.3 13.98,-7.17 21.18,-10.29z"/>
      <path class="fil0" d="M611.45 53.58c22.88,-6.03 46.33,-9.9 69.91,-11.79 16.65,-0.24 33.31,-0.29 49.94,0.02 21.83,1.88 43.47,5.93 64.48,12.17 19.89,5.4 38.72,13.9 57.5,22.28 13.5,6.34 26.08,14.45 39.2,21.52 3.43,1.59 5.43,4.87 7.24,8.01 -9.97,0.14 -19.97,1.4 -29.55,4.19 -5.73,1.64 -10.58,5.45 -16.32,6.97 -4.38,-0.69 -8.3,-2.95 -12.55,-4.11 -10.05,-2.87 -20.67,-3.9 -31.05,-2.51 -12.66,1.98 -25.58,3.41 -37.6,8.15 -5.46,2.21 -11.01,4.27 -16.61,6.11 -8.41,2.7 -15.52,8.68 -24.47,9.81 8.73,-13.78 22.34,-23.49 36.13,-31.72 9.09,-5.96 20.08,-7.29 30.29,-10.36 8.66,-2.64 17.77,-2.21 26.64,-3.38 -2.03,-3.43 -5.24,-5.88 -9.13,-6.82 -17.7,-5.07 -34.83,-12.36 -53.21,-14.74 -12.63,-1.43 -25.15,-4.51 -37.94,-4.13 -19.47,0.08 -39,-1 -58.4,1 -21.57,1.21 -42.85,5.05 -64.09,8.76 -17.35,4.2 -35.1,6.82 -52.13,12.31 -7.88,2.5 -15.99,4.1 -23.9,6.42 -8.42,2.42 -16.17,6.63 -24.54,9.15 -11.69,3.63 -23.2,7.93 -35.16,10.55 3.28,-3.57 7.24,-6.48 11.69,-8.44 19.37,-9.13 39.19,-17.3 59.13,-25.1 9.84,-3.33 19.12,-8.13 29,-11.35 8.78,-2.81 17.13,-6.97 26.2,-8.81 6.44,-1.34 12.9,-2.49 19.26,-4.15z"/>
      <path class="fil0" d="M866.12 132.68c13.23,-10.51 30.76,-14.1 47.34,-12.46 21.78,2.54 42.96,8.58 63.94,14.79 15.57,4.68 31.47,8.23 47.41,11.38 26.49,3.45 54.14,4.95 79.88,-3.61 6.16,-1.82 11.95,-4.77 18.24,-6.18 3.89,5.65 4.38,12.75 5.45,19.32 2.89,23.5 2.16,47.94 -5.53,70.53 -2.07,6.95 -4.01,14.02 -7.42,20.47 -9.24,17.99 -20.61,35.41 -36.49,48.24 -8.13,6.9 -16.76,13.35 -26.48,17.86 -9,4.66 -18.97,6.8 -28.35,10.51 -5.69,-4.58 -10.79,-9.91 -15.04,-15.85 -1.06,-1.68 -2.65,-3.65 -1.6,-5.72 2.47,-1.92 5.67,-2.41 8.65,-3.04 14.72,-2.64 29.71,-5.97 42.62,-13.85 4.83,-2.5 8.9,-6.25 11.93,-10.77 -6.26,-2.63 -12.72,0.15 -18.97,1.24 -9.2,1.69 -18.57,2.61 -27.93,2.37 -10.1,-0.23 -19.87,-3.48 -28.95,-7.69 -3.18,-1.22 -4.77,-4.35 -6.44,-7.08 12.12,0.96 24.31,1.27 36.46,0.74 20.5,-2.35 41.81,-6.98 58.22,-20.27 3.41,-2.57 5.48,-6.4 6.94,-10.32 -7.26,0.88 -13.74,4.54 -20.86,5.94 -12.52,1.93 -25.49,3.22 -37.86,-0.3 0.1,-1.67 0.2,-3.32 0.32,-4.96 10.78,-0.05 21.35,-2.44 31.41,-6.2 11.27,-3.18 22.11,-8.36 30.87,-16.23 10.44,-10.48 17.82,-25.19 15.76,-40.3 -5.48,4.39 -10.02,10.16 -16.66,12.91 -16.37,7.22 -34.9,6.25 -52.19,3.69 -16.57,-2.49 -32.35,-8.19 -48.31,-13 -9.98,-3.27 -19.49,-7.9 -29.66,-10.61 -13.38,-3.58 -26.62,-8.19 -40.51,-9.25 -11.81,-1.4 -23.83,-1.69 -35.6,0.13 -10.44,1.1 -20.13,5.52 -29.45,10.08 -8.73,4.24 -14.67,12.33 -22.98,17.22 0.15,-3.96 1.16,-7.85 3.18,-11.27 7.56,-14.09 15.46,-28.85 28.68,-38.47z"/>
      <path class="fil0" d="M505.13 171.25c6.34,-0.69 12.94,-1.25 19.11,0.76 6.12,1.94 11.25,5.98 16.34,9.76 11.08,7.9 18.11,20.77 20.25,34.06 3.37,17.95 -2.18,37.04 -13.78,51.02 -7.99,10.65 -21.43,18.67 -35.02,16.8 -2.94,-4.43 -4.53,-9.59 -7.16,-14.21 -7.32,-14.12 -19.26,-26.4 -34.56,-31.6 -10.6,-5.09 -22.54,-4.82 -33.99,-4.3 -12.57,0.67 -23.88,6.66 -34.83,12.28 -21.1,10.17 -39.38,25.22 -56.19,41.36 -9.81,9.42 -18.16,21.33 -31.25,26.45 -7.06,2.98 -15.17,2.41 -21.97,-0.93 -11.57,-5.55 -20.9,-16.41 -23.29,-29.18 -1.57,-5.49 0.72,-11.03 2.84,-16.03 2.11,-4.97 5.63,-9.19 9.71,-12.67 17.16,-15.2 35.64,-29.1 56.01,-39.73 13.87,-9.01 29.46,-14.74 44.77,-20.72 8.8,-3.43 18.1,-5.26 26.98,-8.44 18.74,-6.44 38.39,-9.47 57.94,-12.22 12.67,-1.22 25.41,-1.53 38.09,-2.44z"/>
      <path class="fil0" d="M306.25 190.08c3.07,-0.87 6.23,-1.24 9.4,-1.55 -3.38,8.25 -11.57,12.53 -17.61,18.57 -10.46,10.19 -20.51,20.84 -29.89,32.02 -8.85,13.18 -15.95,27.74 -20.03,43.13 -7.09,-1.68 -8.46,-9.71 -10.1,-15.69 -1.51,-11.14 -1.07,-23.53 5.65,-33.03 6.42,-9.31 14.33,-17.66 23.27,-24.59 12.07,-8.17 25.34,-14.58 39.29,-18.86z"/>
      <path class="fil0" d="M128.25 213.81c15.55,-10.79 36.56,-8.84 52.91,-0.93 5.3,2.37 9.44,7.77 8.56,13.82 -1.34,11.52 -4.97,22.67 -8.59,33.64 -3.46,10.35 -0.82,21.34 -1.56,31.98 0.09,2.27 -1.93,3.7 -2.9,5.54 -4.75,-7.43 -7.71,-15.95 -13.34,-22.83 -6.45,-8.17 -14.09,-15.84 -23.7,-20.18 -4.71,-1.98 -10.6,-3.55 -15.2,-0.44 -3.61,1.99 -4.72,6.18 -6.05,9.77 4.1,-0.96 8.12,-2.51 12.36,-2.7 2.02,0.71 3.84,1.86 5.73,2.83 -4.97,4.95 -10.78,9.01 -15.28,14.41 -1.62,1.55 -3,3.77 -5.33,4.27 -5.34,-4.48 -8.7,-10.83 -11.59,-17.06 -1.75,-4.33 -3.96,-9.1 -2.46,-13.83 4.53,-15.03 12.8,-29.79 26.45,-38.27z"/>
      <path class="fil0" d="M206.19 230.2c4.4,-3.91 9.25,-7.28 14.11,-10.6 1.16,0.52 2.33,1.06 3.5,1.62 -1.39,7.67 -2.83,15.39 -2.83,23.21 0.01,7.27 -1.79,14.46 -5.01,20.98 -2.35,4.68 -4.87,9.6 -9.25,12.7 -6.74,-5.35 -10.97,-13.83 -11.89,-22.31 0.52,-9.43 3.89,-19.4 11.37,-25.58z"/>
      <g>
       <path class="fil0" d="M424.54 259.59c5.28,-0.85 10.75,-1.25 16.03,-0.25 5.31,4.44 6.48,12 7.81,18.45 2.63,11.47 1.11,23.37 -1,34.8 -5.07,17.77 -19.12,32.02 -35.57,39.88 -18.6,4.7 -38.82,-2.93 -51.32,-17.11 -4.71,-3.98 -8.15,-10.06 -6,-16.33 3.8,-10.3 10.26,-19.61 18.09,-27.29 5.59,-5 10.72,-10.61 17.17,-14.55 11.04,-6.82 21.68,-15.21 34.78,-17.59zm-4.16 2.68l0 0c-4.7,1.27 -9.25,3.13 -13.35,5.76 -9.13,5.92 -18.84,11.11 -26.71,18.74 -10.53,8.49 -19.45,19.36 -24.07,32.17 -0.48,2.84 -0.48,5.81 0.11,8.65 7.91,11.33 19.53,20.5 33.22,23.5 7.13,0.52 14.36,0.54 21.49,-0.08 10.14,-4.47 18.86,-11.71 25.73,-20.33 3.42,-4.64 5.62,-10.01 7.99,-15.21 2.95,-6.65 1.69,-14.06 3.11,-21 0.66,-3.9 0.58,-7.93 -0.2,-11.8 -1.2,-6.06 -1.54,-12.51 -4.95,-17.85 -1.09,-1.29 -1.87,-3.6 -3.85,-3.5 -6.16,-0.3 -12.51,-0.63 -18.53,0.95z"/>
      </g>
      <path class="fil0" d="M1076.6 334.34c11.51,-11.22 24.38,-20.9 36.55,-31.4 7.93,6.63 13.64,15.3 20.29,23.1 22.64,29.43 43.27,60.34 64.58,90.73 13.76,18.06 27.45,36.24 42.75,53.06 9.42,11.13 20.22,20.99 30.59,31.2 5.53,4.96 10.24,11.51 17.81,13.45 -0.85,-8.87 -7.12,-15.68 -10.39,-23.66 -5.69,-12.97 -14.78,-23.98 -21.6,-36.34 -4.91,-8.76 -11.04,-16.68 -16.84,-24.83 -0.97,-2.18 -4.06,-5.48 -1.35,-7.37 5.96,1.78 10.69,6.02 16.03,9.05 11.47,6.48 22.19,14.17 33.45,20.99 15.37,9.5 28.74,21.72 42.72,33.07 17.3,14.24 31.97,31.21 46.81,47.89 13.48,16.62 26.29,33.85 37.79,51.91 13.56,19.85 26.28,40.25 39.26,60.47 12.91,18.26 24.08,37.74 38.12,55.19 3.42,4.56 7.42,8.8 9.88,14 1.33,4.29 -0.43,8.77 -1.36,12.99 -7.67,26.72 -14.33,53.85 -25.43,79.43 -6.1,15.5 -12.02,31.11 -19.73,45.92 -3.87,6.95 -4.9,15.86 -11.93,20.65 -2.7,-12.33 -1.24,-25 -1.63,-37.5 -0.29,-21.49 1.08,-43.1 -1.83,-64.47 -2.01,-12.99 -1.63,-26.39 -5.76,-38.99 -2.64,-8.3 -4.75,-16.76 -7.75,-24.95 -10.32,-28.9 -26.09,-55.43 -42.02,-81.53 -4.69,-8.13 -10.8,-15.31 -15.92,-23.16 -8.33,-12.55 -18.51,-23.73 -26.86,-36.25 -2.41,-4.08 -5.93,-7.29 -9.84,-9.88 0.04,5.49 1.1,10.9 3.03,16.04 3.08,8.37 3.98,17.28 5.79,25.96 2.09,10.41 4.18,20.89 4.14,31.55 1.58,16.33 1.73,32.8 0.06,49.12 -0.18,23.87 -7.28,46.85 -12.86,69.83 -3.29,10.56 -6.99,21.04 -11.22,31.28 -5.39,-4.92 -4.03,-12.51 -4.18,-19.02 0.19,-7.03 -0.23,-14.05 -1.44,-20.98 -6.69,-56.38 -20.12,-112.61 -45.69,-163.56 -8.65,-16.89 -18.96,-32.85 -29.87,-48.36 -8.72,-12.46 -18.69,-24.01 -29.46,-34.75 -6.48,-7.38 -13.14,-14.61 -20.67,-20.95 -28.79,-27.68 -62.03,-50.65 -88.26,-80.98 -12.12,-15.42 -23.68,-31.99 -28.94,-51.13 -1.17,-2.79 1.55,-4.9 3.14,-6.82z"/>
      <path class="fil0" d="M466.91 319.8c4.96,0.92 9.66,2.95 14.68,3.69 6,1.15 12.52,1.02 17.86,4.38 5.12,3.21 10.01,6.77 14.94,10.26 3.99,3.02 8.56,6.79 8.46,12.29 1.1,11.14 -4.83,21.08 -9.11,30.91 -3.9,9.04 -9.35,17.28 -15.18,25.17 -4.53,5.97 -7.24,13.34 -13.09,18.28 -4.75,4.04 -9.26,8.44 -14.59,11.7 -5.58,3.31 -12.04,0.25 -17.76,-1.02 -5.74,-1.85 -12.1,-2.06 -17.44,-5.01 -1.92,-0.76 -1.29,-2.92 -0.8,-4.42 3.29,-2.74 7.36,-4.32 10.74,-6.94 15.31,-12.67 29.71,-28.46 34.17,-48.41 1.72,-8.57 4.32,-17.19 3.81,-26.01 -0.74,-0.01 -2.25,-0.02 -2.99,-0.04 -3.6,3.29 -5.49,7.91 -8.01,11.99 -2.95,5.19 -6.82,9.79 -11.11,13.92 -9.25,9.09 -19.75,17.44 -32.18,21.66 -10.11,3.34 -21.12,5.58 -31.62,2.56 -8.92,-2.56 -19.56,-2.37 -26.33,-9.66 -5.86,-6.12 -11.84,-12.97 -13.11,-21.67 10.13,0.83 19.12,6.27 29.21,7.38 8.15,0.91 16.55,1.58 24.66,0.06 11.12,-3.29 21.92,-8.71 30.05,-17.14 6.92,-7.09 13.73,-14.54 18.25,-23.44 1.97,-3.6 3.45,-7.64 6.5,-10.49z"/>
      <path class="fil0" d="M196.01 343.45c4.86,-2.12 10.29,-1.17 15.37,-0.63 8.7,1.19 17.51,0.15 26.23,1 -5.41,6.69 -13.68,9.69 -20.46,14.67 -7.55,5.36 -15.61,10.89 -19.7,19.53 8.73,-3.67 16.74,-9.23 26.19,-10.98 11.94,-2.39 24.62,-3.86 36.53,-0.62 -6.49,6.49 -15.78,8.24 -23.34,13.03 -8.43,5.23 -17.66,9.02 -25.86,14.62 -16,10.39 -32.54,20.56 -45.74,34.52 0.78,1.06 1.58,2.13 2.36,3.21 7.7,-3.95 16.07,-6.39 24.55,-7.95 2.84,-0.64 5.72,-0.02 8.54,0.35 -6.03,6.21 -13.45,10.78 -19.82,16.62 -3.5,3.47 -8.39,4.62 -13.11,5.26 -16.63,2.46 -31.25,11.32 -45.7,19.36 -12.09,7.28 -22.93,16.47 -32.95,26.38 -4.8,-5.5 -8.53,-11.8 -12.44,-17.93 -2.35,-3.74 -5.31,-7.13 -6.97,-11.25 -0.73,-3.52 1.79,-6.66 3.56,-9.48 9.11,-11.86 17.92,-24.06 28.55,-34.65 6.15,-6.08 12.12,-12.39 18.94,-17.75 8.39,-6.71 15.93,-14.45 24.65,-20.77 12.2,-8.76 23.4,-18.87 35.91,-27.24 4.82,-3.21 9.35,-6.99 14.72,-9.29z"/>
      <path class="fil0" d="M614.36 376.63c-1.53,-3.03 -1.45,-6.44 -1.02,-9.71 8.51,6.85 15.21,15.71 24.22,21.99 7.43,5.79 16.52,8.66 24.67,13.2 7.12,3.93 15.04,5.94 22.64,8.71 13.1,4.87 27.17,5.97 40.54,9.91 10.11,3.05 20.64,4.76 30.49,8.66 8.22,3.33 15.56,8.97 20.75,16.21 14.19,20.75 21.61,45.39 24.86,70.12 0.53,13.91 0.64,27.86 0.23,41.78 0.02,3.81 -1.54,7.33 -3.17,10.69 -5.38,-9.11 -5.57,-19.99 -9.38,-29.68 -4.95,-12.36 -10.12,-24.85 -18.59,-35.28 -3.91,-5.38 -8.6,-10.44 -14.86,-13.05 -9.81,-4.75 -20.82,-7.24 -31.73,-6.35 -10.58,1.03 -21.24,1.63 -31.64,3.9 -13.62,3.08 -27.54,5.07 -41.52,4.92 -10.2,-0.11 -20.59,0.49 -30.54,-2.13 -14.31,-3.31 -27.99,-9.39 -39.83,-18.1 -14.45,-11.54 -26.58,-25.7 -37.43,-40.59 -1.09,-2.22 -3.98,-5.52 -1.68,-7.72 9.18,3.55 16.84,10.15 26.11,13.56 13.67,4.98 27.32,10.51 41.83,12.61 16.1,2.76 32.64,2.42 48.87,1 2.95,-0.85 7.72,-0.18 8.95,-3.62 -2.16,-3.93 -5.55,-6.94 -8.44,-10.3 -4.62,-5.1 -8.46,-10.87 -13.32,-15.74 -4.15,-4.24 -9.24,-7.6 -12.58,-12.6 -6.93,-10.31 -13.53,-20.93 -18.43,-32.37z"/>
      <path class="fil0" d="M992 387.73c1.41,0 2.84,0.01 4.28,0.01 5.79,10.15 9.07,21.44 13.88,32.05 5.04,15.39 10.83,30.76 12.02,47.04 0.74,14.73 0.29,29.55 -1.91,44.12 -1.98,7.91 -3.91,15.88 -6.51,23.63 -8.49,20.07 -21.61,38.01 -37.33,53.03 -7.46,7.83 -16.36,14 -25.27,20.02 -13.85,9.69 -29.61,16.04 -44.82,23.17 -5.59,2.65 -11.5,4.57 -17.49,6.05 -10.36,2.54 -20.16,7.11 -30.8,8.53 -12.62,1.7 -25.02,4.76 -37.61,6.51 -9.92,0.81 -19.78,3.11 -29.79,2.3 1.94,-3.31 4.44,-6.5 8.34,-7.53 18.6,-6.39 34.87,-17.76 52.79,-25.67 15.52,-8.63 30.86,-17.68 45.27,-28.1 15.8,-11.81 31.67,-23.83 44.48,-38.99 12.81,-15.35 25.25,-31.75 31.43,-51.03 2.44,-6.71 6.53,-12.82 7.77,-19.95 1.43,-8.25 4.19,-16.18 6.01,-24.33 1.73,-9.91 3.32,-19.9 3.33,-29.99 0.18,-9.29 2.87,-18.4 2.2,-27.73 -0.3,-4.38 -0.42,-8.76 -0.28,-13.14z"/>
      <path class="fil0" d="M276.14 433.09c12.28,-3.64 24.76,-7.46 37.7,-7.43 12.52,-0.01 25.58,-1 37.42,3.89 1.73,0.61 3.19,1.96 3.5,3.84 -2.23,3.8 -5.93,6.4 -9.43,8.95 -7.38,5.25 -14.51,10.87 -22.28,15.54 -11.21,6.77 -22.97,12.51 -34.73,18.21 -11.52,5.77 -23.9,9.54 -35.65,14.79 -12.63,5.5 -26.71,7.61 -38.46,15.11 10.03,3.5 20.7,0.98 30.92,-0.06 12.84,-1.79 25.89,-2.5 38.47,-5.69 18.04,-5.29 36.58,-9.6 53.35,-18.34 6.7,-3.27 13.82,-5.87 19.79,-10.42 5.68,-4.3 11.3,-8.91 18.17,-11.16 -2.52,9.76 -9.64,17.24 -16.36,24.37 -16.37,17.06 -39.01,26.19 -61.36,32.46 -8.81,2.62 -17.61,5.4 -26.72,6.75 -13.39,1.99 -26.64,4.86 -40.11,6.39 -4.13,0.47 -8.37,1.02 -12.02,3.14 2.23,3.98 7.16,4.03 11.13,4.67 17.16,1.87 34.25,5.38 51.58,4.97 22.19,1.02 44.52,-0.01 66.39,-4.01 6.27,-1.35 12.39,-3.75 18.92,-3.55 -1.8,3.08 -3.8,6.22 -6.94,8.11 -14.88,9.92 -32.26,15.61 -49.85,18.33 -23.92,4.87 -48.43,3.72 -72.69,3.81 -7.56,-0.13 -15.15,0.13 -22.67,-0.81 -4.35,-0.42 -8.78,-1.12 -13.14,-0.35 -0.21,0.42 -0.63,1.24 -0.85,1.64 4.62,4.82 11.27,6.69 17.17,9.47 18.21,8.52 38.14,12.62 58.02,14.93 10.26,0.58 20.56,0.45 30.83,0.38 8.12,-0.23 16.05,-2.18 24.14,-2.75 10.03,-0.59 19.45,-4.66 29.46,-5.34 -7.52,14.05 -22.18,23.6 -37.67,26.44 -14.12,0.88 -28.32,0.53 -42.39,-0.93 -10.49,-1.1 -21.06,-1.04 -31.55,-2.18 -24.75,-1.5 -49.5,0.83 -74.01,4.15 -6.06,0.83 -11.7,3.23 -17.52,4.93 -3.29,1.25 -5.17,-2.71 -6.65,-4.92 -6.07,-11.04 -12.32,-22.6 -13.44,-35.38 -0.28,-5.88 0.05,-12.87 5.01,-16.9 6.32,-5.11 13.54,-9.07 19.54,-14.63 4.77,-4.15 8.46,-9.33 12.41,-14.22 5.43,-6.93 14.19,-10.01 19.97,-16.58 5.21,-5.93 10.59,-12 13.63,-19.4 2.88,-6.94 5.65,-14.03 6.59,-21.54 0.76,-4 0.73,-8.31 2.68,-11.97 4.75,-4.4 11.18,-6.37 16.87,-9.28 14.14,-6.13 27.97,-13.16 42.84,-17.42z"/>
      <path class="fil0" d="M155.08 466.96c11.51,-4.75 24.09,-5.82 36.4,-6.21 2.95,0 7.62,-0.15 8.08,3.77 1.54,12.85 -6.16,24.23 -11.76,35.15 -5.48,-3.12 -9.6,-10 -16.42,-9.72 -11.18,2.31 -20.23,10.17 -27.8,18.3 -7.7,9.59 -14.74,20.38 -16.9,32.7 -1.02,4.95 -1.82,10.4 -5.69,14.07 -2.64,2.46 -5.69,6.41 -9.77,5.22 -11.84,-3.62 -21.59,-11.56 -31.41,-18.77 -9.58,-7.09 -17.3,-16.28 -25.12,-25.2 -2.88,-3.43 -5.93,-6.85 -7.81,-10.97 -1.85,-3.53 0.11,-7.42 1.07,-10.89 1.85,-4.8 3.08,-10.34 7.24,-13.73 3.09,1.31 4.63,4.43 6.11,7.23 6.27,13.21 17.29,23.58 29.43,31.43 11.45,-10.7 21.58,-22.76 33.58,-32.89 8.86,-8.42 19.46,-14.91 30.77,-19.5z"/>
      <path class="fil0" d="M1106 491.64c0.37,-0.52 1.11,-1.57 1.48,-2.1 7.55,4.37 13.16,11.23 19.64,16.95 13.01,13.21 24.93,27.58 35.47,42.85 6.36,11.41 14.25,22.15 18.3,34.71 3.84,11.6 8.38,23.11 9.78,35.34 0.88,6.21 1.01,12.49 1.46,18.75 0.98,9.38 -0.52,18.74 -0.5,28.13 -1.21,13.45 -3.61,26.82 -6.88,39.92 -1.1,3.82 0.26,7.7 1.39,11.36 5.67,16.75 9.09,34.14 13.15,51.33 5.06,31.02 8.87,62.49 7.16,93.98 -1.49,16.32 -3.41,32.65 -6.93,48.68 -2.23,11.28 -6.26,22.11 -8.77,33.33 -1.54,7.47 -6.29,13.55 -9.44,20.35 -5.49,11.47 -10.98,23.03 -18.17,33.57 -11.73,17.05 -24.04,33.86 -38.96,48.28 -11.52,11.79 -24.37,22.24 -37.9,31.62 -5.54,3.7 -10.41,9.13 -17.35,9.98 5.98,-8.87 13.9,-16.19 20.04,-24.94 16.26,-21.23 27.4,-45.69 37.99,-70.06 4.76,-13.83 8.08,-28.15 10.45,-42.57 3.33,-16.17 4.96,-32.64 6.07,-49.08 0.24,-17.71 -0.04,-35.4 0.08,-53.11 0.16,-10.16 -2.63,-20.11 -2.47,-30.27 -0.08,-3.23 0.15,-6.58 -1.15,-9.6 -4.23,-0.44 -6.59,3.45 -8.71,6.42 -7.7,11.43 -16.86,21.8 -26.33,31.79 -9.04,10.31 -18.79,19.99 -29.22,28.92 -17.38,16.72 -37.03,30.81 -56.09,45.51 -0.59,-0.83 -1.77,-2.5 -2.36,-3.34 8.82,-12.75 16.08,-26.45 24.25,-39.59 8.27,-14.11 16.89,-28.03 24.38,-42.57 16.02,-30.92 32.9,-61.68 43.78,-94.9 5.3,-12.94 9.14,-26.42 12.87,-39.87 2.93,-14.27 7.04,-28.31 8.95,-42.79 2.81,-28.45 3.24,-57.26 -0.64,-85.63 -4.61,-23.29 -11.03,-46.26 -19.73,-68.36 -1.68,-4.34 -3.96,-8.46 -5.07,-12.99z"/>
      <path class="fil0" d="M26.05 510.67c7,0.57 9.07,7.77 12.75,12.53 7,8.94 14.05,18.06 23.37,24.74 10.46,9.05 21.65,17.17 33.14,24.84 5.35,3.38 11.78,5.45 15.83,10.6 5.53,6.88 9.19,15.02 14.21,22.25 2.9,4.61 6.75,8.56 9.33,13.37 0.91,1.46 0.86,3.53 -0.66,4.61 -5.65,5.15 -12.9,8.03 -19.29,12.13 -10.2,6.1 -22.6,12.19 -34.56,7.45 2.81,-9.77 12.34,-15.86 14.03,-26.13 -10.8,2.16 -20.79,9.34 -32.18,7.55 -6.08,-2.11 -8.73,-8.78 -10.64,-14.41 10.74,-4.3 23.79,-8.56 28.38,-20.36 -5.88,-1.35 -11.71,1.41 -17.62,0.53 -6.4,-0.81 -12.9,-0.98 -19.22,-2.36 -5.81,-1.2 -8.94,-6.89 -11.68,-11.61 -1.09,-2.31 -3.1,-5.74 -0.34,-7.69 6.82,-3.12 14.57,-0.38 21.6,-2.31 2.36,-0.47 3,-1.79 1.93,-3.98 -6.42,-3.27 -14.07,-3.89 -19.82,-8.52 -5.58,-4.38 -11.59,-9.64 -12.7,-17.05 -1.21,-8.96 2.7,-17.48 4.11,-26.18z"/>
      <path class="fil0" d="M420.58 545.85c12.14,-4.42 25.57,-3.51 37.8,0.05 10.26,2.75 19.83,7.79 28.21,14.31 5.82,4.57 12.1,8.73 16.84,14.53 7.36,9.2 14.94,18.41 19.88,29.22 6.87,13.13 10.78,27.6 12.8,42.23 1.59,20.81 -0.42,41.9 -6.25,61.97 -2.65,8.19 -6.78,15.85 -8.71,24.28 -4.06,16.67 -7.46,33.69 -7.41,50.91 -0.02,5.05 -0.92,10.03 -1.12,15.07 -0.4,7.62 1.3,15.16 1.19,22.78 -0.08,14.82 4.57,29.08 5.7,43.77 6.49,33.79 18.05,66.27 28.49,98.98 4.71,12.97 0.69,27.16 -5.97,38.67 -6.21,12.28 -18.02,22.23 -31.86,24.31 -8.12,1.26 -16.46,0.34 -24.26,-2.16 -9.69,-3.17 -19.68,-5.41 -29.76,-7 -20.93,-2.76 -42.22,3.38 -60.1,14.15 -6.12,3.99 -12.77,7.26 -18.3,12.1 -3.14,2.54 -5.93,5.91 -9.93,7.09 -8.62,-0.44 -15.73,-6.53 -20.99,-12.9 -3.43,-3.8 -2.08,-9.54 0.44,-13.44 7.45,-11.86 20.64,-18.48 33.55,-22.74 24.14,-7.38 49.76,-6.69 74.48,-11.01 12.86,-2.15 26.35,-1.94 38.44,-7.38 12.47,-4.95 23.17,-15.59 26.28,-28.86 1.64,-10.48 0.61,-21.29 -2.32,-31.46 -4.76,-17.05 -11.17,-33.65 -14.54,-51.08 -3.42,-11.96 -4.77,-24.32 -6.39,-36.61 -2.17,-10.2 -1.51,-20.66 -2.61,-30.97 -0.3,-9.58 -0.38,-19.18 0.01,-28.76 1.62,-15.83 4.04,-31.75 9.48,-46.77 2.81,-8.15 6.54,-16.02 8.47,-24.45 4.1,-19.63 5.89,-39.83 3.98,-59.84 -2.25,-12.24 -4.81,-24.54 -9.54,-36.11 -4,-10.42 -10.37,-19.75 -17.42,-28.35 -5.54,-5.96 -12.07,-10.99 -18.96,-15.31 -9.88,-6.16 -21.6,-8.03 -32.95,-9.39 -7.55,-0.92 -14.96,1.16 -22.38,2.17 -5.79,0.77 -11.47,2.23 -17,4.13 0.38,-2.3 -0.14,-5.21 2.11,-6.7 6.11,-4.58 13.54,-6.85 20.64,-9.42z"/>
      <path class="fil0" d="M588.14 627.34c3.37,2.2 6.41,5.04 7.84,8.91 4.64,11.14 11.13,21.41 15.62,32.63 3.89,9.73 8.58,19.42 9.69,29.98 0.64,5.05 -2.15,9.55 -4.42,13.82 -4.99,8.92 -8.96,18.35 -12.81,27.79 -3.96,9.78 -8.85,19.16 -12.26,29.15 -2.44,7.14 -5.45,14.07 -7.71,21.28 -5.11,17.99 -11.3,35.95 -12.1,54.79 -0.1,5.39 -1.27,10.7 -3.17,15.74 -4.97,-8.39 -4.67,-18.44 -5.81,-27.82 -2.27,-19.64 0.34,-39.4 3.58,-58.78 1.67,-11.04 5.91,-21.47 8.08,-32.4 2.05,-10.4 6.25,-20.19 8.44,-30.54 2.74,-12.63 6.4,-25.1 7.67,-37.99 0.66,-7.66 1.94,-15.39 0.79,-23.06 -1.11,-7.85 -3.45,-15.52 -3.46,-23.5z"/>
      <path class="fil0" d="M782.73 769.84c0.52,-0.23 1.53,-0.71 2.04,-0.95 2.23,2.15 -0.19,4.91 -1.06,7.14 -4.8,8.41 -8.77,17.23 -13.49,25.67 -2.55,4.53 -4.1,9.52 -5.47,14.51 -2.6,9.62 -7.88,18.17 -11.69,27.33 -3.81,9.1 -8,18.05 -12.57,26.79 -5.4,10.06 -8.95,20.94 -13.88,31.21 -10.16,25.94 -20.36,51.87 -28.83,78.43 -2.8,9.35 -6.89,18.33 -8.43,28.03 -1.24,7.36 -4.47,14.15 -6.39,21.33 -5.59,22.07 -10.94,44.26 -14.06,66.84 -1.57,11.38 -4.88,22.59 -4.67,34.18 0.19,8.87 -1.62,17.66 -1.29,26.54 0.29,13.47 -0.64,26.98 0.97,40.39 0.11,7.28 0.86,14.51 2.55,21.61 1.97,5.31 -3.98,8.06 -7.36,10.82 -5.53,3.57 -9.4,9.07 -14.77,12.82 -2.85,0.04 -3.79,-2.84 -4.75,-4.97 -14.43,-37.07 -21.59,-76.66 -23.58,-116.3 -0.04,-9.59 -1.48,-19.16 -0.74,-28.74 0.57,-7.59 1.16,-15.17 1.84,-22.73 0.47,-5.73 -0.13,-11.59 1.41,-17.18 0.48,-2.54 2.85,-3.95 4.94,-5.07 8.13,-4.21 17.16,-6.74 24.67,-12.12 8.91,-6.95 12.86,-17.95 17.46,-27.87 5.63,-11.61 8.36,-24.35 10.87,-36.93 1.82,-11.11 4.97,-21.99 6.01,-33.22 1.68,-16.07 4.77,-31.96 6,-48.07 0.63,-7.35 1.44,-14.67 2.04,-22 0.57,-7.56 -0.53,-15.61 2.74,-22.68 4.08,-6.35 10.65,-10.46 16.1,-15.54 16.1,-15.21 33.75,-28.64 51.19,-42.24 6.98,-6.16 13.82,-12.72 22.18,-17.04z"/>
     </g>
     <g>
      <g>
       <path class="fil1" d="M338.91 7.98c8.3,-2.89 19.07,-2.81 24.95,4.69 8.23,10.11 14.45,21.7 22.18,32.18 1.4,1.79 3.07,4.23 5.67,2.99 11.16,-3.6 20.93,-10.45 31.89,-14.55 30.63,-11.85 62.34,-21.53 95.01,-25.61 31.6,-3.03 64.04,-1.74 94.5,7.85 8.75,2.5 17.27,7.31 26.64,6.11 44.1,-4.92 88.85,-11.89 133.14,-4.94 41.4,7.41 79.43,26.47 116.29,45.94 25.31,13.63 50.38,27.7 75.18,42.24 10.15,5.83 21.73,8.14 32.94,10.99 14.72,3.7 29.76,6.1 44.88,7.43 22.86,1.74 46.53,-1.97 66.84,-12.95 6.46,-3.28 12.49,-7.65 19.55,-9.64 2.94,-1.04 6.24,-0.05 8.36,2.2 4.82,5.02 6.24,12.18 8.38,18.58 5.89,18.14 9.86,36.93 11.23,55.95 1.12,27.78 -4.73,55.91 -17.2,80.79 -1.63,3.66 -4.19,7.96 -1.84,11.93 16.28,29.08 37.3,55.82 63.31,76.81 9.87,8.8 20.86,16.14 31.55,23.89 11.46,8.51 23.82,15.7 35.86,23.36 23.34,14.89 47.18,29.04 69.61,45.31 24.33,17.42 47.94,36.01 69.14,57.19 55.68,53.75 99,118.99 134.78,187.27 4.15,7.51 0.95,16.12 -0.19,23.98 -7.13,47 -19.49,93.41 -38.76,136.93 -16.85,38.48 -39.24,74.58 -66.68,106.41 -13.33,16.05 -28.03,30.95 -43.81,44.59 -37.12,32.61 -79.17,59.26 -123.26,81.38 -91.5,45.64 -190.48,73.14 -288.65,100.31 -56.43,15.94 -113.16,30.96 -168.85,49.44 -11.59,4.09 -23.68,7.12 -34.41,13.29 -7.27,4.1 -15.51,5.79 -23.32,8.51 -40.67,15.79 -80.18,34.73 -117.02,58.17 -25.23,-34.34 -41.59,-74.6 -50.72,-116.06 -8.1,-37.72 -11.33,-76.38 -11.83,-114.92 -10.88,2.9 -20.4,9.26 -31.16,12.47 -17.47,6.15 -35.81,9.13 -54.07,11.75 -26.21,3.13 -53.39,2.62 -78.67,-5.68 -8.7,-3.08 -17.27,-7.52 -23.32,-14.64 -3.69,-4.28 -6.02,-9.48 -8.41,-14.53 -10.37,-0.37 -21.18,-0.69 -30.62,-5.53 -10.1,-5.09 -19.47,-13.61 -22.02,-25.03 -1.19,-4.24 -1.3,-8.85 -3.41,-12.76 -6.22,-3.08 -13.44,-3.53 -19.6,-6.87 -17.83,-8.73 -29.99,-26.81 -34.23,-45.89 -0.67,-4.9 -2.4,-11.13 1.55,-15.07 7.27,-0.43 14.5,1.89 21.78,0.69 18.84,-2.27 36.35,-13.69 45.36,-30.49 9.91,-18.21 11.43,-40.83 3.65,-60.08 -4.52,-11.31 -12.76,-20.5 -20.76,-29.43 -8.87,-9.68 -17.76,-19.34 -26.47,-29.15 -11.64,-13.77 -21.95,-29.81 -24.23,-48.06 -1.87,-14.24 -3.93,-28.94 -11.18,-41.6 -7.18,-12.47 -18.12,-22.25 -29.36,-31.01 -3.6,-2.55 -7.28,-5.93 -11.99,-5.73 -5.36,7.91 -6.32,17.83 -10.82,26.18 -7.62,-1.73 -13.88,-7.04 -21.61,-8.59 -5.62,26.03 -1.22,52.62 2.69,78.53 -5.48,-2.75 -10.88,-5.64 -16.53,-8.04 -2.56,-1.2 -4.98,-2.7 -7.12,-4.56 -6.59,-6.07 -14.22,-10.79 -21.14,-16.43 -25.94,-20.62 -46.37,-47.85 -59.91,-78.02 -3.6,-8.49 -11.72,-13.37 -18.4,-19.17 -18.21,-16.2 -35.1,-34.58 -45.92,-56.64 -11.98,-23.65 -15.71,-51.79 -8.34,-77.41 7.74,-28.28 25.53,-52.63 45.97,-73.15 7.21,-6.69 14.17,-13.66 21.95,-19.7 2.5,-2.08 5.24,-4.03 7.02,-6.8 -0.66,-5.53 -4.73,-9.78 -7.22,-14.56 -5.74,-9.93 -10.88,-21.95 -6.92,-33.47 4.51,-11.31 15.45,-17.97 25.15,-24.38 5.34,-3.76 12.48,-5.6 15.95,-11.52 -3.95,-4.15 -8.94,-7.11 -13.16,-10.93 -13.06,-11.54 -21.35,-28.49 -21.71,-45.98 -0.81,-14.92 2.76,-29.84 9.43,-43.15 4.11,-8.62 10.07,-16.14 15.02,-24.26 11.55,-13.77 27.3,-24.37 44.78,-28.86 6.73,-1.65 14.16,1.27 20.47,-2.12 13.05,-6.85 25.39,-14.96 38.24,-22.15 10.37,-4.25 19.42,-11.01 29.43,-15.98 5.05,-2.7 10.48,-4.59 15.66,-7.03 1.72,-0.93 3.87,-1.83 4.37,-3.95 1.8,-6.21 1.91,-12.79 3.82,-18.98 3.75,-12.57 9.37,-24.54 16.08,-35.78 8.9,-14.68 18.96,-28.8 31.24,-40.87 9.57,-9.73 20.36,-18.87 33.33,-23.61zm96.87 49.35l0 0c-7.19,3.12 -14.58,5.98 -21.18,10.29 -17.72,11.99 -37.56,20.27 -55.84,31.31 -13.2,6.66 -25.36,15.13 -38.39,22.07 -16.71,9.39 -32.92,19.7 -50.02,28.4 -10.44,6.13 -21.39,11.28 -32.02,17.06 -8.12,4.32 -16.76,7.51 -24.93,11.7 -5.3,2.73 -10.75,5.14 -16.27,7.42 -0.04,0.76 -0.11,2.28 -0.15,3.04 5.5,-0.56 10.98,-1.54 16.17,-3.52 10.61,-3.98 21.37,-7.64 31.55,-12.65 11.38,-5.55 23.21,-10.18 34.46,-16.04 15.37,-7.13 30.18,-15.42 45.56,-22.57 16.64,-8.73 33.26,-17.53 50.21,-25.63 7.07,-3.37 13.73,-7.53 20.98,-10.53 5.19,-2.15 10.25,-4.61 15.02,-7.6 7.06,-4.46 14.83,-7.6 22.15,-11.57 9.4,-5.17 19.88,-7.89 29.71,-12.1 12.15,-5.07 24.83,-8.78 37.65,-11.73 13.81,-2.92 28.25,-5.59 42.26,-2.28 5.33,1.46 10.48,-1.07 15.25,-3.16 7.91,-3.64 16.23,-6.3 24.33,-9.45 0.03,-0.93 0.08,-2.78 0.1,-3.7 -13.54,-3.18 -27.4,-5.12 -41.3,-5.48 -36.49,1.6 -71.97,12.22 -105.3,26.71zm175.67 -3.75l0 0c-6.36,1.67 -12.82,2.81 -19.26,4.15 -9.07,1.84 -17.42,6 -26.2,8.81 -9.88,3.22 -19.16,8.01 -29,11.35 -19.94,7.8 -39.76,15.98 -59.13,25.1 -4.44,1.97 -8.41,4.87 -11.69,8.44 11.96,-2.63 23.48,-6.92 35.16,-10.55 8.37,-2.52 16.12,-6.73 24.54,-9.15 7.91,-2.32 16.03,-3.93 23.9,-6.42 17.03,-5.49 34.77,-8.1 52.13,-12.31 21.24,-3.71 42.52,-7.55 64.09,-8.76 19.4,-1.99 38.92,-0.92 58.4,-1 12.79,-0.38 25.31,2.7 37.94,4.13 18.38,2.39 35.52,9.67 53.21,14.74 3.89,0.93 7.09,3.38 9.13,6.82 -8.87,1.17 -17.98,0.74 -26.64,3.38 -10.21,3.07 -21.2,4.4 -30.29,10.36 -13.8,8.23 -27.4,17.93 -36.13,31.72 8.95,-1.12 16.07,-7.11 24.47,-9.81 5.6,-1.84 11.14,-3.9 16.61,-6.11 12.02,-4.75 24.94,-6.17 37.6,-8.15 10.37,-1.39 21,-0.35 31.05,2.51 4.24,1.16 8.17,3.42 12.55,4.11 5.74,-1.51 10.59,-5.33 16.32,-6.97 9.58,-2.79 19.57,-4.05 29.55,-4.19 -1.82,-3.14 -3.81,-6.42 -7.24,-8.01 -13.13,-7.07 -25.7,-15.18 -39.2,-21.52 -18.78,-8.38 -37.61,-16.87 -57.5,-22.28 -21.01,-6.23 -42.65,-10.29 -64.48,-12.17 -16.64,-0.32 -33.3,-0.26 -49.94,-0.02 -23.58,1.89 -47.03,5.76 -69.91,11.79zm254.67 79.1l0 0c-13.21,9.62 -21.12,24.38 -28.68,38.47 -2.02,3.42 -3.03,7.31 -3.18,11.27 8.32,-4.88 14.25,-12.97 22.98,-17.22 9.31,-4.57 19.01,-8.99 29.45,-10.08 11.78,-1.82 23.79,-1.53 35.6,-0.13 13.9,1.06 27.14,5.67 40.51,9.25 10.17,2.71 19.68,7.35 29.66,10.61 15.97,4.81 31.74,10.51 48.31,13 17.29,2.56 35.82,3.53 52.19,-3.69 6.64,-2.75 11.18,-8.52 16.66,-12.91 2.06,15.11 -5.33,29.82 -15.76,40.3 -8.76,7.88 -19.6,13.05 -30.87,16.23 -10.06,3.76 -20.64,6.15 -31.41,6.2 -0.11,1.64 -0.22,3.29 -0.32,4.96 12.37,3.52 25.34,2.23 37.86,0.3 7.12,-1.4 13.61,-5.06 20.86,-5.94 -1.46,3.93 -3.53,7.75 -6.94,10.32 -16.41,13.29 -37.72,17.92 -58.22,20.27 -12.15,0.53 -24.35,0.22 -36.46,-0.74 1.67,2.73 3.26,5.86 6.44,7.08 9.09,4.2 18.86,7.46 28.95,7.69 9.37,0.24 18.73,-0.68 27.93,-2.37 6.25,-1.09 12.71,-3.86 18.97,-1.24 -3.03,4.52 -7.09,8.27 -11.93,10.77 -12.91,7.88 -27.91,11.21 -42.62,13.85 -2.98,0.63 -6.17,1.12 -8.65,3.04 -1.05,2.07 0.54,4.04 1.6,5.72 4.25,5.94 9.35,11.27 15.04,15.85 9.38,-3.71 19.35,-5.86 28.35,-10.51 9.72,-4.51 18.35,-10.96 26.48,-17.86 15.88,-12.82 27.25,-30.25 36.49,-48.24 3.41,-6.45 5.35,-13.52 7.42,-20.47 7.69,-22.59 8.42,-47.03 5.53,-70.53 -1.07,-6.58 -1.56,-13.67 -5.45,-19.32 -6.28,1.41 -12.08,4.37 -18.24,6.18 -25.73,8.56 -53.39,7.06 -79.88,3.61 -15.94,-3.15 -31.83,-6.7 -47.41,-11.38 -20.98,-6.21 -42.15,-12.26 -63.94,-14.79 -16.58,-1.64 -34.12,1.94 -47.34,12.46zm-360.99 38.57l0 0c-12.68,0.91 -25.42,1.21 -38.09,2.44 -19.55,2.75 -39.2,5.78 -57.94,12.22 -8.89,3.18 -18.19,5.01 -26.98,8.44 -15.31,5.98 -30.9,11.71 -44.77,20.72 -20.37,10.63 -38.85,24.54 -56.01,39.73 -4.08,3.48 -7.6,7.7 -9.71,12.67 -2.12,5 -4.4,10.54 -2.84,16.03 2.39,12.77 11.71,23.63 23.29,29.18 6.8,3.34 14.92,3.91 21.97,0.93 13.09,-5.12 21.44,-17.04 31.25,-26.45 16.81,-16.14 35.09,-31.19 56.19,-41.36 10.96,-5.62 22.26,-11.61 34.83,-12.28 11.45,-0.52 23.39,-0.78 33.99,4.3 15.3,5.2 27.24,17.48 34.56,31.6 2.63,4.62 4.22,9.78 7.16,14.21 13.59,1.87 27.03,-6.15 35.02,-16.8 11.6,-13.97 17.15,-33.07 13.78,-51.02 -2.13,-13.29 -9.16,-26.16 -20.25,-34.06 -5.1,-3.77 -10.22,-7.81 -16.34,-9.76 -6.17,-2.01 -12.77,-1.45 -19.11,-0.76zm-198.87 18.83l0 0c-13.95,4.28 -27.22,10.69 -39.29,18.86 -8.95,6.93 -16.85,15.27 -23.27,24.59 -6.73,9.5 -7.17,21.88 -5.65,33.03 1.64,5.98 3,14.01 10.1,15.69 4.08,-15.39 11.18,-29.95 20.03,-43.13 9.38,-11.18 19.42,-21.83 29.89,-32.02 6.03,-6.03 14.22,-10.31 17.61,-18.57 -3.17,0.32 -6.34,0.68 -9.4,1.55zm-178.01 23.73l0 0c-13.66,8.48 -21.92,23.24 -26.45,38.27 -1.5,4.73 0.71,9.5 2.46,13.83 2.89,6.23 6.25,12.58 11.59,17.06 2.32,-0.49 3.71,-2.71 5.33,-4.27 4.51,-5.4 10.31,-9.47 15.28,-14.41 -1.89,-0.97 -3.71,-2.12 -5.73,-2.83 -4.24,0.19 -8.25,1.74 -12.36,2.7 1.32,-3.58 2.44,-7.77 6.05,-9.77 4.59,-3.1 10.49,-1.54 15.2,0.44 9.62,4.34 17.25,12.02 23.7,20.18 5.63,6.88 8.59,15.4 13.34,22.83 0.97,-1.84 2.99,-3.27 2.9,-5.54 0.74,-10.64 -1.89,-21.63 1.56,-31.98 3.62,-10.97 7.26,-22.11 8.59,-33.64 0.88,-6.05 -3.26,-11.45 -8.56,-13.82 -16.34,-7.9 -37.36,-9.86 -52.91,0.93zm77.95 16.39l0 0c-7.48,6.18 -10.85,16.16 -11.37,25.58 0.92,8.48 5.15,16.96 11.89,22.31 4.38,-3.09 6.9,-8.01 9.25,-12.7 3.22,-6.51 5.02,-13.71 5.01,-20.98 0,-7.83 1.44,-15.54 2.83,-23.21 -1.16,-0.56 -2.33,-1.1 -3.5,-1.62 -4.86,3.32 -9.71,6.69 -14.11,10.6zm218.35 29.38l0 0c-13.1,2.39 -23.74,10.78 -34.78,17.59 -6.45,3.94 -11.57,9.55 -17.17,14.55 -7.82,7.67 -14.29,16.99 -18.09,27.29 -2.16,6.27 1.29,12.36 6,16.33 12.49,14.19 32.71,21.81 51.32,17.11 16.45,-7.86 30.49,-22.11 35.57,-39.88 2.11,-11.42 3.62,-23.32 1,-34.8 -1.34,-6.45 -2.5,-14.01 -7.81,-18.45 -5.28,-1 -10.75,-0.59 -16.03,0.25zm-285.48 47.91l0 0c-0.34,7.59 -0.06,15.18 0.29,22.76 0.95,6.64 4.01,12.72 7.55,18.35 3.55,-0.34 7.79,1.09 10.55,-1.83 4.43,-3.79 9.74,-6.69 13.19,-11.5 0.44,-5.01 0.4,-10.07 0.09,-15.09 -1.87,-7 -7.18,-12.33 -10.01,-18.91 -1.46,-3.72 -4.19,-6.79 -7.29,-9.24 -2.68,-0.58 -5.45,-0.4 -8.18,-0.53 -3.23,4.8 -4.81,10.45 -6.18,15.99zm937.54 26.85l0 0c-1.59,1.92 -4.32,4.03 -3.14,6.82 5.26,19.13 16.82,35.71 28.94,51.13 26.23,30.33 59.47,53.3 88.26,80.98 7.53,6.34 14.2,13.57 20.67,20.95 10.77,10.74 20.74,22.29 29.46,34.75 10.92,15.51 21.23,31.48 29.87,48.36 25.57,50.95 39,107.18 45.69,163.56 1.21,6.93 1.63,13.95 1.44,20.98 0.15,6.51 -1.21,14.1 4.18,19.02 4.23,-10.24 7.93,-20.71 11.22,-31.28 5.58,-22.98 12.68,-45.97 12.86,-69.83 1.67,-16.32 1.51,-32.79 -0.06,-49.12 0.04,-10.66 -2.04,-21.14 -4.14,-31.55 -1.82,-8.68 -2.71,-17.59 -5.79,-25.96 -1.93,-5.14 -2.99,-10.55 -3.03,-16.04 3.91,2.59 7.43,5.81 9.84,9.88 8.34,12.52 18.53,23.7 26.86,36.25 5.11,7.85 11.22,15.03 15.92,23.16 15.93,26.1 31.69,52.63 42.02,81.53 3,8.19 5.11,16.65 7.75,24.95 4.13,12.6 3.75,26 5.76,38.99 2.92,21.37 1.54,42.98 1.83,64.47 0.39,12.49 -1.07,25.17 1.63,37.5 7.03,-4.78 8.05,-13.69 11.93,-20.65 7.71,-14.8 13.63,-30.42 19.73,-45.92 11.11,-25.57 17.76,-52.71 25.43,-79.43 0.93,-4.22 2.69,-8.7 1.36,-12.99 -2.46,-5.2 -6.46,-9.44 -9.88,-14 -14.03,-17.46 -25.2,-36.93 -38.12,-55.19 -12.99,-20.22 -25.71,-40.61 -39.26,-60.47 -11.5,-18.06 -24.31,-35.29 -37.79,-51.91 -14.84,-16.67 -29.51,-33.65 -46.81,-47.89 -13.98,-11.35 -27.35,-23.56 -42.72,-33.07 -11.26,-6.82 -21.97,-14.51 -33.45,-20.99 -5.34,-3.03 -10.07,-7.27 -16.03,-9.05 -2.71,1.89 0.38,5.19 1.35,7.37 5.79,8.14 11.93,16.07 16.84,24.83 6.82,12.36 15.9,23.36 21.6,36.34 3.27,7.99 9.54,14.79 10.39,23.66 -7.57,-1.94 -12.28,-8.49 -17.81,-13.45 -10.37,-10.21 -21.18,-20.07 -30.59,-31.2 -15.3,-16.82 -28.99,-35 -42.75,-53.06 -21.32,-30.39 -41.94,-61.3 -64.58,-90.73 -6.65,-7.8 -12.37,-16.47 -20.29,-23.1 -12.17,10.5 -25.04,20.18 -36.55,31.4zm-609.69 -14.54l0 0c-3.05,2.85 -4.53,6.89 -6.5,10.49 -4.52,8.9 -11.33,16.34 -18.25,23.44 -8.13,8.43 -18.93,13.85 -30.05,17.14 -8.12,1.51 -16.51,0.85 -24.66,-0.06 -10.08,-1.11 -19.07,-6.55 -29.21,-7.38 1.27,8.7 7.26,15.55 13.11,21.67 6.76,7.28 17.4,7.09 26.33,9.66 10.5,3.02 21.51,0.78 31.62,-2.56 12.43,-4.22 22.93,-12.57 32.18,-21.66 4.29,-4.13 8.15,-8.73 11.11,-13.92 2.52,-4.08 4.42,-8.7 8.01,-11.99 0.75,0.01 2.25,0.03 2.99,0.04 0.5,8.82 -2.09,17.44 -3.81,26.01 -4.46,19.95 -18.86,35.74 -34.17,48.41 -3.38,2.63 -7.45,4.2 -10.74,6.94 -0.49,1.5 -1.12,3.66 0.8,4.42 5.34,2.95 11.7,3.16 17.44,5.01 5.72,1.27 12.18,4.33 17.76,1.02 5.33,-3.26 9.84,-7.66 14.59,-11.7 5.84,-4.94 8.56,-12.31 13.09,-18.28 5.83,-7.89 11.28,-16.13 15.18,-25.17 4.28,-9.83 10.21,-19.77 9.11,-30.91 0.1,-5.5 -4.47,-9.28 -8.46,-12.29 -4.94,-3.5 -9.82,-7.06 -14.94,-10.26 -5.34,-3.36 -11.86,-3.23 -17.86,-4.38 -5.02,-0.73 -9.72,-2.76 -14.68,-3.69zm-270.9 23.65l0 0c-5.36,2.3 -9.9,6.08 -14.72,9.29 -12.51,8.37 -23.7,18.48 -35.91,27.24 -8.72,6.32 -16.26,14.06 -24.65,20.77 -6.83,5.35 -12.8,11.66 -18.94,17.75 -10.63,10.59 -19.44,22.78 -28.55,34.65 -1.77,2.81 -4.29,5.96 -3.56,9.48 1.65,4.11 4.62,7.51 6.97,11.25 3.91,6.13 7.65,12.43 12.44,17.93 10.02,-9.91 20.86,-19.1 32.95,-26.38 14.45,-8.04 29.07,-16.9 45.7,-19.36 4.72,-0.64 9.62,-1.79 13.11,-5.26 6.36,-5.84 13.78,-10.41 19.82,-16.62 -2.83,-0.38 -5.7,-1 -8.54,-0.35 -8.48,1.57 -16.85,4 -24.55,7.95 -0.78,-1.07 -1.58,-2.15 -2.36,-3.21 13.2,-13.96 29.74,-24.13 45.74,-34.52 8.2,-5.59 17.43,-9.39 25.86,-14.62 7.56,-4.78 16.85,-6.54 23.34,-13.03 -11.9,-3.24 -24.59,-1.77 -36.53,0.62 -9.45,1.75 -17.46,7.31 -26.19,10.98 4.09,-8.63 12.15,-14.16 19.7,-19.53 6.78,-4.97 15.04,-7.98 20.46,-14.67 -8.72,-0.85 -17.53,0.19 -26.23,-1 -5.09,-0.54 -10.51,-1.49 -15.37,0.63zm418.35 33.18l0 0c4.9,11.45 11.5,22.06 18.43,32.37 3.34,5 8.43,8.36 12.58,12.6 4.86,4.87 8.7,10.64 13.32,15.74 2.89,3.36 6.28,6.37 8.44,10.3 -1.22,3.45 -6,2.78 -8.95,3.62 -16.23,1.43 -32.76,1.77 -48.87,-1 -14.5,-2.09 -28.16,-7.62 -41.83,-12.61 -9.28,-3.41 -16.94,-10.01 -26.11,-13.56 -2.3,2.21 0.59,5.5 1.68,7.72 10.85,14.89 22.98,29.05 37.43,40.59 11.84,8.71 25.52,14.79 39.83,18.1 9.96,2.63 20.35,2.02 30.54,2.13 13.98,0.15 27.91,-1.84 41.52,-4.92 10.4,-2.27 21.06,-2.87 31.64,-3.9 10.9,-0.9 21.92,1.6 31.73,6.35 6.26,2.61 10.94,7.67 14.86,13.05 8.47,10.42 13.64,22.92 18.59,35.28 3.81,9.69 4,20.57 9.38,29.68 1.63,-3.36 3.19,-6.88 3.17,-10.69 0.42,-13.92 0.3,-27.87 -0.23,-41.78 -3.26,-24.74 -10.68,-49.37 -24.86,-70.12 -5.19,-7.23 -12.53,-12.87 -20.75,-16.21 -9.86,-3.9 -20.38,-5.6 -30.49,-8.66 -13.37,-3.94 -27.44,-5.04 -40.54,-9.91 -7.6,-2.76 -15.52,-4.78 -22.64,-8.71 -8.15,-4.54 -17.24,-7.41 -24.67,-13.2 -9.01,-6.27 -15.71,-15.13 -24.22,-21.99 -0.43,3.27 -0.5,6.68 1.02,9.71zm377.64 11.09l0 0c-0.14,4.38 -0.03,8.76 0.28,13.14 0.67,9.33 -2.02,18.44 -2.2,27.73 -0.01,10.08 -1.6,20.08 -3.33,29.99 -1.82,8.15 -4.58,16.08 -6.01,24.33 -1.25,7.13 -5.34,13.24 -7.77,19.95 -6.17,19.27 -18.62,35.68 -31.43,51.03 -12.81,15.16 -28.68,27.17 -44.48,38.99 -14.41,10.41 -29.75,19.46 -45.27,28.1 -17.92,7.91 -34.19,19.29 -52.79,25.67 -3.9,1.04 -6.4,4.23 -8.34,7.53 10.01,0.81 19.87,-1.49 29.79,-2.3 12.6,-1.75 24.99,-4.81 37.61,-6.51 10.64,-1.43 20.43,-6 30.8,-8.53 6,-1.48 11.9,-3.4 17.49,-6.05 15.21,-7.13 30.97,-13.48 44.82,-23.17 8.91,-6.02 17.81,-12.19 25.27,-20.02 15.73,-15.02 28.84,-32.97 37.33,-53.03 2.6,-7.75 4.53,-15.71 6.51,-23.63 2.2,-14.58 2.65,-29.39 1.91,-44.12 -1.19,-16.28 -6.98,-31.65 -12.02,-47.04 -4.81,-10.6 -8.09,-21.9 -13.88,-32.05 -1.44,0 -2.87,-0.01 -4.28,-0.01zm-715.86 45.36l0 0c-14.87,4.25 -28.7,11.28 -42.84,17.42 -5.69,2.9 -12.13,4.87 -16.87,9.28 -1.94,3.66 -1.92,7.96 -2.68,11.97 -0.93,7.51 -3.71,14.6 -6.59,21.54 -3.04,7.4 -8.42,13.47 -13.63,19.4 -5.78,6.58 -14.54,9.65 -19.97,16.58 -3.95,4.9 -7.64,10.07 -12.41,14.22 -6,5.55 -13.21,9.52 -19.54,14.63 -4.96,4.03 -5.29,11.02 -5.01,16.9 1.12,12.77 7.37,24.33 13.44,35.38 1.48,2.21 3.36,6.17 6.65,4.92 5.82,-1.7 11.46,-4.1 17.52,-4.93 24.51,-3.32 49.26,-5.65 74.01,-4.15 10.49,1.15 21.06,1.09 31.55,2.18 14.07,1.46 28.27,1.82 42.39,0.93 15.5,-2.84 30.15,-12.39 37.67,-26.44 -10.01,0.68 -19.42,4.75 -29.46,5.34 -8.09,0.57 -16.03,2.52 -24.14,2.75 -10.27,0.08 -20.57,0.2 -30.83,-0.38 -19.88,-2.31 -39.81,-6.41 -58.02,-14.93 -5.89,-2.78 -12.55,-4.64 -17.17,-9.47 0.22,-0.4 0.63,-1.22 0.85,-1.64 4.35,-0.77 8.78,-0.06 13.14,0.35 7.52,0.93 15.11,0.68 22.67,0.81 24.26,-0.09 48.77,1.06 72.69,-3.81 17.59,-2.71 34.97,-8.41 49.85,-18.33 3.14,-1.89 5.14,-5.04 6.94,-8.11 -6.52,-0.2 -12.65,2.2 -18.92,3.55 -21.87,4 -44.2,5.04 -66.39,4.01 -17.33,0.4 -34.42,-3.11 -51.58,-4.97 -3.98,-0.64 -8.9,-0.69 -11.13,-4.67 3.65,-2.12 7.89,-2.68 12.02,-3.14 13.47,-1.53 26.72,-4.39 40.11,-6.39 9.11,-1.35 17.91,-4.13 26.72,-6.75 22.35,-6.27 44.99,-15.4 61.36,-32.46 6.71,-7.13 13.83,-14.62 16.36,-24.37 -6.88,2.25 -12.49,6.85 -18.17,11.16 -5.97,4.56 -13.09,7.16 -19.79,10.42 -16.77,8.73 -35.31,13.05 -53.35,18.34 -12.58,3.19 -25.63,3.9 -38.47,5.69 -10.22,1.05 -20.89,3.56 -30.92,0.06 11.75,-7.5 25.82,-9.6 38.46,-15.11 11.75,-5.25 24.13,-9.02 35.65,-14.79 11.76,-5.7 23.53,-11.45 34.73,-18.21 7.76,-4.67 14.89,-10.29 22.28,-15.54 3.5,-2.55 7.19,-5.15 9.43,-8.95 -0.3,-1.88 -1.77,-3.23 -3.5,-3.84 -11.84,-4.88 -24.9,-3.9 -37.42,-3.89 -12.94,-0.02 -25.42,3.8 -37.7,7.43zm-121.06 33.88l0 0c-11.31,4.59 -21.91,11.08 -30.77,19.5 -12,10.14 -22.14,22.19 -33.58,32.89 -12.14,-7.85 -23.16,-18.21 -29.43,-31.43 -1.48,-2.8 -3.02,-5.92 -6.11,-7.23 -4.16,3.39 -5.39,8.94 -7.24,13.73 -0.96,3.47 -2.93,7.36 -1.07,10.89 1.88,4.11 4.93,7.53 7.81,10.97 7.81,8.92 15.54,18.11 25.12,25.2 9.82,7.21 19.58,15.15 31.41,18.77 4.08,1.19 7.13,-2.76 9.77,-5.22 3.87,-3.67 4.67,-9.13 5.69,-14.07 2.16,-12.32 9.2,-23.11 16.9,-32.7 7.57,-8.13 16.62,-15.99 27.8,-18.3 6.82,-0.28 10.94,6.6 16.42,9.72 5.6,-10.92 13.3,-22.3 11.76,-35.15 -0.45,-3.93 -5.12,-3.77 -8.08,-3.77 -12.31,0.39 -24.89,1.46 -36.4,6.21zm950.92 24.67l0 0c1.11,4.53 3.39,8.65 5.07,12.99 8.7,22.1 15.12,45.07 19.73,68.36 3.89,28.37 3.46,57.19 0.64,85.63 -1.91,14.48 -6.02,28.51 -8.95,42.79 -3.74,13.45 -7.57,26.93 -12.87,39.87 -10.88,33.22 -27.77,63.98 -43.78,94.9 -7.5,14.54 -16.12,28.46 -24.38,42.57 -8.17,13.14 -15.42,26.84 -24.25,39.59 0.59,0.85 1.77,2.51 2.36,3.34 19.06,-14.7 38.71,-28.79 56.09,-45.51 10.42,-8.92 20.18,-18.6 29.22,-28.92 9.47,-10 18.63,-20.36 26.33,-31.79 2.12,-2.98 4.48,-6.87 8.71,-6.42 1.3,3.03 1.07,6.37 1.15,9.6 -0.15,10.16 2.64,20.11 2.47,30.27 -0.11,17.71 0.16,35.4 -0.08,53.11 -1.11,16.44 -2.74,32.92 -6.07,49.08 -2.37,14.43 -5.69,28.74 -10.45,42.57 -10.59,24.37 -21.73,48.83 -37.99,70.06 -6.15,8.75 -14.06,16.07 -20.04,24.94 6.94,-0.86 11.81,-6.29 17.35,-9.98 13.53,-9.38 26.38,-19.83 37.9,-31.62 14.92,-14.41 27.24,-31.22 38.96,-48.28 7.19,-10.54 12.68,-22.1 18.17,-33.57 3.16,-6.79 7.9,-12.87 9.44,-20.35 2.51,-11.22 6.54,-22.05 8.77,-33.33 3.52,-16.03 5.44,-32.36 6.93,-48.68 1.72,-31.49 -2.1,-62.95 -7.16,-93.98 -4.06,-17.19 -7.48,-34.58 -13.15,-51.33 -1.12,-3.66 -2.49,-7.53 -1.39,-11.36 3.27,-13.1 5.67,-26.47 6.88,-39.92 -0.01,-9.39 1.49,-18.75 0.5,-28.13 -0.45,-6.26 -0.58,-12.55 -1.46,-18.75 -1.4,-12.23 -5.94,-23.74 -9.78,-35.34 -4.05,-12.56 -11.94,-23.3 -18.3,-34.71 -10.54,-15.27 -22.45,-29.63 -35.47,-42.85 -6.47,-5.72 -12.09,-12.58 -19.64,-16.95 -0.37,0.53 -1.11,1.58 -1.48,2.1zm-1079.95 19.03l0 0c-1.41,8.7 -5.33,17.21 -4.11,26.18 1.11,7.41 7.12,12.67 12.7,17.05 5.74,4.63 13.39,5.25 19.82,8.52 1.07,2.18 0.43,3.51 -1.93,3.98 -7.03,1.93 -14.78,-0.81 -21.6,2.31 -2.76,1.94 -0.74,5.38 0.34,7.69 2.74,4.72 5.87,10.41 11.68,11.61 6.32,1.38 12.82,1.55 19.22,2.36 5.91,0.88 11.74,-1.88 17.62,-0.53 -4.59,11.8 -17.64,16.05 -28.38,20.36 1.91,5.63 4.56,12.31 10.64,14.41 11.4,1.79 21.38,-5.39 32.18,-7.55 -1.69,10.26 -11.22,16.36 -14.03,26.13 11.95,4.75 24.36,-1.35 34.56,-7.45 6.39,-4.1 13.63,-6.98 19.29,-12.13 1.51,-1.07 1.56,-3.14 0.66,-4.61 -2.57,-4.81 -6.42,-8.76 -9.33,-13.37 -5.02,-7.23 -8.68,-15.37 -14.21,-22.25 -4.05,-5.15 -10.48,-7.22 -15.83,-10.6 -11.5,-7.67 -22.68,-15.79 -33.14,-24.84 -9.33,-6.68 -16.37,-15.8 -23.37,-24.74 -3.67,-4.76 -5.74,-11.96 -12.75,-12.53zm394.53 35.17l0 0c-7.09,2.56 -14.53,4.83 -20.64,9.42 -2.25,1.49 -1.73,4.4 -2.11,6.7 5.53,-1.89 11.21,-3.36 17,-4.13 7.42,-1.01 14.83,-3.09 22.38,-2.17 11.36,1.36 23.07,3.23 32.95,9.39 6.89,4.32 13.42,9.35 18.96,15.31 7.04,8.59 13.42,17.92 17.42,28.35 4.73,11.57 7.3,23.87 9.54,36.11 1.92,20 0.13,40.21 -3.98,59.84 -1.93,8.43 -5.65,16.29 -8.47,24.45 -5.44,15.02 -7.86,30.95 -9.48,46.77 -0.39,9.58 -0.32,19.18 -0.01,28.76 1.1,10.31 0.44,20.78 2.61,30.97 1.62,12.29 2.97,24.65 6.39,36.61 3.37,17.43 9.78,34.03 14.54,51.08 2.93,10.17 3.96,20.99 2.32,31.46 -3.11,13.28 -13.81,23.92 -26.28,28.86 -12.09,5.44 -25.58,5.24 -38.44,7.38 -24.71,4.32 -50.33,3.62 -74.48,11.01 -12.91,4.27 -26.1,10.88 -33.55,22.74 -2.52,3.9 -3.87,9.64 -0.44,13.44 5.26,6.37 12.37,12.46 20.99,12.9 4,-1.19 6.79,-4.56 9.93,-7.09 5.53,-4.85 12.18,-8.12 18.3,-12.1 17.88,-10.77 39.18,-16.91 60.1,-14.15 10.08,1.59 20.07,3.84 29.76,7 7.8,2.5 16.14,3.42 24.26,2.16 13.83,-2.08 25.65,-12.03 31.86,-24.31 6.66,-11.51 10.68,-25.7 5.97,-38.67 -10.44,-32.7 -22,-65.19 -28.49,-98.98 -1.14,-14.69 -5.78,-28.95 -5.7,-43.77 0.11,-7.62 -1.59,-15.16 -1.19,-22.78 0.2,-5.04 1.1,-10.02 1.12,-15.07 -0.05,-17.23 3.34,-34.24 7.41,-50.91 1.93,-8.43 6.06,-16.09 8.71,-24.28 5.83,-20.07 7.84,-41.16 6.25,-61.97 -2.02,-14.63 -5.93,-29.1 -12.8,-42.23 -4.93,-10.8 -12.52,-20.02 -19.88,-29.22 -4.73,-5.79 -11.02,-9.96 -16.84,-14.53 -8.38,-6.53 -17.95,-11.56 -28.21,-14.31 -12.23,-3.56 -25.66,-4.47 -37.8,-0.05zm-79.95 73.82l0 0c-12.03,6.26 -25.7,8.24 -39.08,9.24 -2.18,-0.14 -3.9,2.01 -3.32,4.13 0.78,5.96 3.23,11.54 5.16,17.2 7.55,21.54 22.06,40.5 40.56,53.82 4.49,3.6 9.25,6.9 14.58,9.15 0.43,-4.38 0.05,-8.78 -1.11,-13.01 -4.96,-19.84 -6.1,-40.41 -5.19,-60.78 0.34,-8.97 2.75,-17.72 2.83,-26.69 -4.97,1.97 -9.73,4.42 -14.44,6.95zm84.1 1.75l0 0c-6.58,7.35 -13.78,14.05 -20.61,21.14 -12,12.44 -18.44,29.14 -22.04,45.78 -2.36,14.77 -4.72,29.57 -5.63,44.5 -0.24,13.87 7.42,26.19 15.6,36.79 8.37,10.13 13.93,22.45 16.9,35.21 0.57,8.72 1.69,17.92 -1.5,26.29 -5.15,-7.71 -6.24,-17.14 -10.18,-25.39 -7.85,-15.89 -19.34,-29.53 -28.71,-44.49 -3.96,-6.1 -6.64,-13.01 -7.59,-20.24 -0.78,-3.7 -0.74,-7.72 -2.68,-11.06 -2.71,-2.81 -6.32,-4.51 -9.63,-6.48 -11.14,-6.3 -21.67,-13.62 -31.99,-21.17 -5.21,-3.7 -8.62,-10.31 -15.57,-10.98 -3.12,17.66 -2.89,36.45 3.86,53.3 7.93,18.7 20.81,34.63 31.26,51.91 7.6,11.25 14.36,23.21 18.21,36.31 3.34,11.4 7.18,22.97 6.93,35.01 -0.04,8.92 0.34,17.9 -1,26.77 -0.98,17.17 -0.64,35.3 7.41,50.95 4.68,11.47 13.05,21.42 24.04,27.26 6.3,3.91 14.14,3.56 21.17,2.42 8.54,-2.71 14.92,-10.03 18.92,-17.78 -1.99,-3.56 -5.02,-6.37 -7.7,-9.4 -7.51,-8.09 -12.49,-18.09 -17.08,-28.03 9.55,-3.39 19.49,0.87 29.24,0.16 11.74,-0.72 23.95,-2.06 34.32,-8.08 8.17,-4.53 14.14,-12.28 17.95,-20.67 2.52,-6.58 1.57,-13.97 -0.2,-20.62 -3,-10.72 -5.89,-21.47 -7.94,-32.41 -1.72,-13.24 -2.5,-26.66 -1.57,-40 0.48,-4.81 1.41,-9.69 0.59,-14.5 -0.92,-3.18 -3.63,-5.3 -5.98,-7.4 -7.94,-6.44 -14.58,-14.3 -20.8,-22.35 -7.37,-10.65 -15.36,-21.14 -19.85,-33.42 -4.87,-11.19 -7.27,-23.22 -9.14,-35.23 -1.49,-7.79 0.9,-15.57 0.58,-23.41 1.02,-12.18 3.77,-24.21 7.41,-35.87 1.07,-3.51 1.6,-7.14 1.77,-10.79 -3.17,1.58 -6.42,3.22 -8.77,5.96zm-231.27 7.91l0 0c-14.11,1.33 -28.25,2.27 -42.36,3.4 -3.7,0.19 -6.17,3.23 -8.75,5.49 -8.3,8.13 -19.03,13.14 -29.76,17.25 -4.38,1.8 -9.06,3.16 -12.91,6.02 -0.28,2.28 0.34,4.57 1.48,6.55 12.53,21.91 27.26,42.81 45.55,60.33 6.12,6.07 12.96,11.36 18.83,17.7 1.88,0.06 3.75,0.11 5.63,0.18 -2.71,-12.44 -4.56,-25.09 -7.88,-37.38 -1.55,-6.54 -8.61,-8.83 -12.94,-13.16 -8.19,-7.71 -15.16,-17.46 -17.67,-28.56 9.26,5.35 15.75,14.59 25.56,19.2 1.5,0.59 3.16,0.67 4.77,0.72 2.66,-7.88 2.55,-16.74 7.33,-23.87 2.15,-0.64 3.64,1.12 5.09,2.39 5.58,5.36 11.21,10.73 17.32,15.5 2.26,1.8 5.21,2.09 7.94,2.71 0.06,-10.48 1.63,-20.99 5.93,-30.59 8.92,7.27 18.25,14.19 28.79,18.96 2.28,0.83 4.76,0.88 7.16,1.2 0.11,-9.47 -1.3,-19.56 3.19,-28.32 2.56,-0.06 4.71,1.43 6.73,2.81 8.32,5.97 16.84,11.99 26.63,15.27 -0.09,-12.17 -0.37,-24.33 0.21,-36.5 -9.3,-2.5 -19.02,-1.6 -28.55,-1.74 -19.21,-0.19 -38.33,1.82 -57.33,4.47zm394.69 -1.99l0 0c0.01,7.98 2.35,15.65 3.46,23.5 1.15,7.67 -0.14,15.4 -0.79,23.06 -1.27,12.89 -4.94,25.36 -7.67,37.99 -2.2,10.35 -6.4,20.14 -8.44,30.54 -2.17,10.93 -6.41,21.36 -8.08,32.4 -3.24,19.37 -5.86,39.14 -3.58,58.78 1.14,9.38 0.83,19.42 5.81,27.82 1.89,-5.04 3.07,-10.35 3.17,-15.74 0.81,-18.84 6.99,-36.8 12.1,-54.79 2.26,-7.21 5.28,-14.14 7.71,-21.28 3.41,-10 8.29,-19.37 12.26,-29.15 3.85,-9.44 7.83,-18.87 12.81,-27.79 2.27,-4.27 5.06,-8.77 4.42,-13.82 -1.11,-10.55 -5.81,-20.24 -9.69,-29.98 -4.49,-11.22 -10.98,-21.48 -15.62,-32.63 -1.43,-3.87 -4.47,-6.71 -7.84,-8.91zm194.59 142.49l0 0c-8.36,4.32 -15.2,10.88 -22.18,17.04 -17.44,13.61 -35.09,27.03 -51.19,42.24 -5.45,5.07 -12.03,9.19 -16.1,15.54 -3.27,7.07 -2.17,15.12 -2.74,22.68 -0.61,7.33 -1.41,14.65 -2.04,22 -1.22,16.12 -4.32,32.01 -6,48.07 -1.03,11.23 -4.19,22.11 -6.01,33.22 -2.51,12.58 -5.24,25.32 -10.87,36.93 -4.59,9.92 -8.54,20.91 -17.46,27.87 -7.51,5.38 -16.55,7.9 -24.67,12.12 -2.08,1.12 -4.46,2.54 -4.94,5.07 -1.54,5.59 -0.95,11.45 -1.41,17.18 -0.68,7.56 -1.27,15.15 -1.84,22.73 -0.73,9.58 0.71,19.15 0.74,28.74 1.98,39.64 9.15,79.24 23.58,116.3 0.96,2.13 1.89,5.01 4.75,4.97 5.36,-3.75 9.24,-9.25 14.77,-12.82 3.38,-2.75 9.33,-5.5 7.36,-10.82 -1.69,-7.09 -2.44,-14.33 -2.55,-21.61 -1.62,-13.4 -0.68,-26.92 -0.97,-40.39 -0.33,-8.89 1.48,-17.67 1.29,-26.54 -0.22,-11.59 3.1,-22.79 4.67,-34.18 3.12,-22.58 8.47,-44.77 14.06,-66.84 1.92,-7.18 5.15,-13.97 6.39,-21.33 1.54,-9.71 5.63,-18.68 8.43,-28.03 8.47,-26.55 18.67,-52.49 28.83,-78.43 4.94,-10.27 8.48,-21.15 13.88,-31.21 4.57,-8.75 8.76,-17.7 12.57,-26.79 3.81,-9.15 9.09,-17.71 11.69,-27.33 1.36,-5 2.92,-9.98 5.47,-14.51 4.72,-8.44 8.7,-17.27 13.49,-25.67 0.87,-2.23 3.29,-5 1.06,-7.14 -0.52,0.24 -1.53,0.72 -2.04,0.95zm-286.44 141.5l0 0c-10.21,13.28 -26.06,21.27 -42.39,23.85 -6.71,1.02 -13.51,-0.01 -20.22,0.69 -0.29,2.06 -0.38,4.13 -0.47,6.21 8.78,4.62 15.12,12.61 23.87,17.28 8.03,4.46 17.14,8.9 26.58,7.06 10.73,-2.08 18.45,-11.75 21.41,-21.82 3.18,-11.14 -0.26,-22.66 -3.8,-33.26 -1.67,-0.03 -3.32,-0.03 -4.97,-0.01zm-163.6 44.97l0 0c-12.38,7.83 -26.69,13.83 -41.6,13.11 -2.46,0.06 -5.14,-0.21 -7.28,1.21 0,2.8 1.24,5.39 3.17,7.38 8.91,9.58 17.87,19.87 30.15,25.17 8.97,4.17 19.56,3.48 28.5,-0.42 6.75,-3.11 13.24,-6.83 19.46,-10.89 2.51,-2.41 -0.26,-5.94 -1.69,-8.2 -8.05,-10.94 -11.68,-24.5 -12.62,-37.9 -7.36,0.86 -12.08,6.94 -18.09,10.54z"/>
      </g>
     </g>
     <g>
      <path class="fil2" d="M424.72 621.42c2.35,-2.74 5.6,-4.38 8.77,-5.96 -0.16,3.65 -0.69,7.28 -1.77,10.79 -3.63,11.66 -6.39,23.69 -7.41,35.87 0.32,7.84 -2.07,15.62 -0.58,23.41 1.87,12 4.27,24.03 9.14,35.23 4.49,12.28 12.48,22.77 19.85,33.42 6.22,8.05 12.86,15.92 20.8,22.35 2.35,2.09 5.06,4.22 5.98,7.4 0.82,4.81 -0.11,9.69 -0.59,14.5 -0.93,13.34 -0.15,26.76 1.57,40 2.04,10.94 4.93,21.7 7.94,32.41 1.77,6.65 2.73,14.05 0.2,20.62 -3.81,8.39 -9.78,16.14 -17.95,20.67 -10.36,6.02 -22.58,7.36 -34.32,8.08 -9.76,0.71 -19.69,-3.56 -29.24,-0.16 4.58,9.95 9.57,19.94 17.08,28.03 2.68,3.03 5.7,5.84 7.7,9.4 -4,7.75 -10.37,15.07 -18.92,17.78 -7.03,1.14 -14.87,1.49 -21.17,-2.42 -10.99,-5.84 -19.36,-15.79 -24.04,-27.26 -8.05,-15.65 -8.39,-33.79 -7.41,-50.95 1.34,-8.87 0.96,-17.85 1,-26.77 0.25,-12.04 -3.59,-23.61 -6.93,-35.01 -3.85,-13.1 -10.61,-25.07 -18.21,-36.31 -10.45,-17.28 -23.34,-33.21 -31.26,-51.91 -6.75,-16.85 -6.98,-35.64 -3.86,-53.3 6.95,0.67 10.36,7.28 15.57,10.98 10.32,7.55 20.85,14.87 31.99,21.17 3.31,1.97 6.92,3.66 9.63,6.48 1.93,3.33 1.89,7.36 2.68,11.06 0.95,7.23 3.62,14.15 7.59,20.24 9.38,14.96 20.86,28.6 28.71,44.49 3.95,8.25 5.04,17.68 10.18,25.39 3.19,-8.37 2.07,-17.57 1.5,-26.29 -2.97,-12.76 -8.53,-25.08 -16.9,-35.21 -8.18,-10.6 -15.84,-22.92 -15.6,-36.79 0.91,-14.93 3.27,-29.74 5.63,-44.5 3.6,-16.63 10.03,-33.33 22.04,-45.78 6.83,-7.09 14.03,-13.79 20.61,-21.14z"/>
     </g>
    </g>
    <path class="fil3" d="M444.8 315.46c2.95,-6.65 1.69,-14.06 3.11,-21 0.66,-3.9 0.58,-7.93 -0.2,-11.8 -1.2,-6.06 -1.54,-12.51 -4.95,-17.85 -1.09,-1.29 -1.87,-3.6 -3.85,-3.5 -6.16,-0.3 -12.51,-0.63 -18.53,0.95 -4.69,1.27 -9.25,3.13 -13.35,5.76 -9.13,5.92 -18.84,11.11 -26.71,18.74 -10.53,8.49 -19.45,19.36 -24.07,32.17 -0.48,2.84 -0.48,5.81 0.11,8.65 7.91,11.33 19.53,20.5 33.22,23.5 7.13,0.52 14.36,0.54 21.49,-0.08 10.13,-4.47 18.86,-11.71 25.73,-20.33 3.42,-4.64 5.62,-10.01 7.99,-15.21z"/>
    <path class="fil3" d="M170.73 320.18c-1.87,-7 -7.18,-12.33 -10.01,-18.91 -1.46,-3.72 -4.19,-6.79 -7.29,-9.24 -2.68,-0.58 -5.45,-0.4 -8.18,-0.53 -3.23,4.8 -4.81,10.45 -6.18,15.99 -0.34,7.59 -0.06,15.18 0.29,22.76 0.95,6.64 4.01,12.72 7.55,18.35 3.55,-0.34 7.79,1.09 10.55,-1.83 4.43,-3.79 9.74,-6.69 13.19,-11.5 0.44,-5.01 0.4,-10.07 0.09,-15.09z"/>
    <path class="fil3" d="M340.62 619.67c-12.03,6.26 -25.7,8.24 -39.08,9.24 -2.18,-0.14 -3.9,2.01 -3.32,4.13 0.78,5.96 3.23,11.54 5.16,17.2 7.55,21.54 22.06,40.5 40.57,53.82 4.49,3.6 9.25,6.9 14.58,9.15 0.43,-4.38 0.05,-8.78 -1.11,-13.01 -4.96,-19.84 -6.1,-40.41 -5.19,-60.78 0.34,-8.97 2.75,-17.72 2.83,-26.69 -4.97,1.97 -9.73,4.42 -14.44,6.95z"/>
    <path class="fil3" d="M279.11 663.11c-0.09,-12.17 -0.37,-24.33 0.21,-36.5 -9.3,-2.5 -19.02,-1.6 -28.55,-1.74 -19.21,-0.19 -38.33,1.82 -57.33,4.47 -14.11,1.33 -28.25,2.27 -42.36,3.4 -3.7,0.19 -6.17,3.23 -8.75,5.49 -8.3,8.13 -19.03,13.14 -29.76,17.25 -4.38,1.8 -9.06,3.16 -12.91,6.02 -0.28,2.29 0.34,4.57 1.48,6.55 12.53,21.91 27.26,42.81 45.55,60.33 6.12,6.07 12.96,11.36 18.83,17.69 1.88,0.06 3.75,0.11 5.63,0.18 -2.71,-12.44 -4.56,-25.09 -7.87,-37.38 -1.55,-6.54 -8.61,-8.83 -12.94,-13.16 -8.19,-7.71 -15.16,-17.45 -17.67,-28.56 9.26,5.35 15.75,14.59 25.56,19.2 1.5,0.59 3.16,0.67 4.77,0.72 2.66,-7.88 2.55,-16.74 7.33,-23.87 2.15,-0.64 3.64,1.12 5.09,2.39 5.58,5.36 11.21,10.73 17.32,15.5 2.26,1.8 5.21,2.09 7.94,2.71 0.06,-10.48 1.63,-20.99 5.93,-30.59 8.92,7.27 18.25,14.19 28.79,18.96 2.29,0.83 4.76,0.88 7.16,1.2 0.11,-9.47 -1.3,-19.56 3.19,-28.32 2.56,-0.06 4.71,1.43 6.73,2.81 8.32,5.97 16.84,11.99 26.63,15.27z"/>
    <path class="fil3" d="M350.78 945.76c-7.36,0.86 -12.08,6.94 -18.09,10.54 -12.38,7.83 -26.69,13.83 -41.6,13.11 -2.46,0.06 -5.14,-0.22 -7.28,1.21 0,2.8 1.24,5.39 3.17,7.38 8.91,9.58 17.87,19.87 30.15,25.17 8.97,4.16 19.56,3.48 28.5,-0.42 6.75,-3.11 13.24,-6.83 19.46,-10.89 2.51,-2.41 -0.26,-5.94 -1.69,-8.2 -8.05,-10.94 -11.67,-24.5 -12.62,-37.9z"/>
    <path class="fil3" d="M433.21 942.09c8.79,4.62 15.12,12.61 23.87,17.28 8.03,4.46 17.14,8.9 26.58,7.06 10.73,-2.08 18.45,-11.75 21.41,-21.82 3.18,-11.14 -0.27,-22.66 -3.8,-33.26 -1.67,-0.03 -3.32,-0.03 -4.97,-0.01 -10.21,13.28 -26.06,21.27 -42.39,23.85 -6.71,1.02 -13.51,-0.01 -20.22,0.69 -0.29,2.06 -0.38,4.13 -0.47,6.21z"/>
   </g>
   <path class="fil4 str0" d="M1137.5 270.17c16.28,29.08 37.3,55.82 63.31,76.81 9.87,8.8 20.86,16.14 31.55,23.89 11.46,8.51 23.82,15.7 35.86,23.36 23.34,14.89 47.18,29.04 69.61,45.31 24.33,17.42 47.94,36.01 69.14,57.19 55.68,53.75 99,118.99 134.78,187.27 4.15,7.51 0.95,16.12 -0.19,23.98 -7.13,47 -19.49,93.41 -38.76,136.93 -16.85,38.48 -39.24,74.58 -66.68,106.41 -13.33,16.05 -28.03,30.95 -43.81,44.59 -37.12,32.61 -79.17,59.26 -123.26,81.38 -91.5,45.64 -190.48,73.14 -288.65,100.31 -56.43,15.94 -113.16,30.96 -168.85,49.44 -11.59,4.09 -23.68,7.12 -34.4,13.29 -7.27,4.1 -15.51,5.79 -23.32,8.51 -40.67,15.79 -80.18,34.73 -117.02,58.17 -25.23,-34.34 -41.59,-74.6 -50.72,-116.06 -8.1,-37.72 -11.33,-76.38 -11.83,-114.92 -10.88,2.9 -20.4,9.26 -31.16,12.47 -17.47,6.15 -35.81,9.12 -54.07,11.75 -26.21,3.13 -53.39,2.62 -78.67,-5.68 -8.7,-3.08 -17.27,-7.52 -23.32,-14.64 -3.69,-4.28 -6.02,-9.48 -8.41,-14.53 -10.37,-0.37 -21.18,-0.69 -30.62,-5.53 -10.1,-5.09 -19.47,-13.61 -22.02,-25.03 -1.19,-4.24 -1.3,-8.85 -3.41,-12.76 -6.22,-3.08 -13.44,-3.53 -19.6,-6.87 -17.83,-8.73 -29.99,-26.81 -34.23,-45.89 -0.67,-4.9 -2.4,-11.13 1.55,-15.07 7.27,-0.43 14.5,1.89 21.78,0.69 18.84,-2.27 36.35,-13.69 45.36,-30.49 9.91,-18.21 11.44,-40.83 3.65,-60.08 -4.52,-11.31 -12.76,-20.5 -20.76,-29.43 -8.87,-9.68 -17.76,-19.34 -26.47,-29.15 -11.64,-13.77 -21.95,-29.81 -24.23,-48.06 -1.87,-14.24 -3.93,-28.94 -11.18,-41.6 -7.18,-12.47 -18.12,-22.25 -29.36,-31.01 -3.6,-2.55 -7.28,-5.93 -11.99,-5.73 -5.36,7.91 -6.32,17.83 -10.82,26.18 -7.62,-1.73 -13.88,-7.04 -21.61,-8.6 -5.62,26.03 -1.22,52.62 2.69,78.53 -5.48,-2.75 -10.88,-5.64 -16.53,-8.04 -2.56,-1.2 -4.99,-2.7 -7.12,-4.56 -6.59,-6.07 -14.22,-10.79 -21.14,-16.43 -25.94,-20.62 -46.37,-47.85 -59.91,-78.02 -3.6,-8.49 -11.72,-13.37 -18.4,-19.17 -18.21,-16.21 -35.1,-34.58 -45.92,-56.64 -11.98,-23.65 -15.71,-51.79 -8.34,-77.41 7.74,-28.28 25.53,-52.63 45.97,-73.15 7.21,-6.69 14.17,-13.66 21.95,-19.7 2.5,-2.08 5.24,-4.03 7.02,-6.8 -0.66,-5.53 -4.73,-9.78 -7.22,-14.56 -5.74,-9.93 -10.88,-21.95 -6.92,-33.47 4.51,-11.31 15.45,-17.97 25.15,-24.38 5.34,-3.76 12.48,-5.6 15.95,-11.52 -3.95,-4.15 -8.94,-7.11 -13.16,-10.93 -13.06,-11.54 -21.35,-28.49 -21.71,-45.98 -0.81,-14.92 2.77,-29.84 9.43,-43.15 4.11,-8.62 10.07,-16.14 15.02,-24.26 11.55,-13.77 27.3,-24.37 44.78,-28.86 6.73,-1.65 14.16,1.27 20.47,-2.12 13.05,-6.85 25.39,-14.96 38.24,-22.15 10.37,-4.25 19.42,-11.01 29.43,-15.98 5.05,-2.7 10.47,-4.59 15.66,-7.03 1.72,-0.93 3.87,-1.83 4.37,-3.95 1.8,-6.21 1.91,-12.79 3.82,-18.98 3.75,-12.57 9.37,-24.54 16.08,-35.78 8.9,-14.68 18.96,-28.8 31.24,-40.87 9.57,-9.73 20.36,-18.87 33.33,-23.61 8.31,-2.89 19.07,-2.81 24.95,4.69 8.23,10.11 14.45,21.7 22.18,32.18 1.4,1.79 3.07,4.23 5.67,2.99 11.16,-3.6 20.93,-10.45 31.89,-14.55 30.63,-11.85 62.34,-21.53 95.01,-25.61 31.6,-3.03 64.04,-1.74 94.5,7.85 8.75,2.5 17.27,7.31 26.64,6.11 44.1,-4.92 88.85,-11.89 133.14,-4.93 41.4,7.41 79.43,26.47 116.29,45.94 25.31,13.63 50.38,27.7 75.18,42.24 10.15,5.83 21.73,8.14 32.94,10.99 14.72,3.7 29.76,6.1 44.88,7.43 22.86,1.74 46.53,-1.97 66.84,-12.95 6.46,-3.28 12.49,-7.65 19.55,-9.64 2.94,-1.04 6.24,-0.05 8.35,2.2 4.82,5.02 6.24,12.18 8.38,18.58 5.89,18.14 9.86,36.93 11.23,55.95 1.12,27.78 -4.73,55.91 -17.2,80.79 -1.63,3.66 -4.19,7.96 -1.84,11.93z"/>
  </g>
 </g>
</svg>
