<?xml version="1.0" encoding="UTF-8"?>
<!DOCTYPE svg PUBLIC "-//W3C//DTD SVG 1.1//EN" "http://www.w3.org/Graphics/SVG/1.1/DTD/svg11.dtd">
<!-- Creator: CorelDRAW 2018 (64-Bit) -->
<svg xmlns="http://www.w3.org/2000/svg" xml:space="preserve" width="0.433236in" height="0.448189in" version="1.1" style="shape-rendering:geometricPrecision; text-rendering:geometricPrecision; image-rendering:optimizeQuality; fill-rule:evenodd; clip-rule:evenodd"
viewBox="0 0 3.43 3.55"
 xmlns:xlink="http://www.w3.org/1999/xlink">
 <defs>
  <style type="text/css">
   <![CDATA[
    .fil2 {fill:#020202;fill-rule:nonzero}
    .fil32 {fill:#060506;fill-rule:nonzero}
    .fil60 {fill:#0A0505;fill-rule:nonzero}
    .fil7 {fill:#0B0606;fill-rule:nonzero}
    .fil30 {fill:#0E0304;fill-rule:nonzero}
    .fil10 {fill:#0E0404;fill-rule:nonzero}
    .fil52 {fill:#100505;fill-rule:nonzero}
    .fil40 {fill:#120505;fill-rule:nonzero}
    .fil43 {fill:#150506;fill-rule:nonzero}
    .fil24 {fill:#1F0303;fill-rule:nonzero}
    .fil36 {fill:#290101;fill-rule:nonzero}
    .fil65 {fill:#2D030B;fill-rule:nonzero}
    .fil21 {fill:#330B0D;fill-rule:nonzero}
    .fil76 {fill:#373737;fill-rule:nonzero}
    .fil37 {fill:#420F06;fill-rule:nonzero}
    .fil79 {fill:#424242;fill-rule:nonzero}
    .fil77 {fill:#434343;fill-rule:nonzero}
    .fil3 {fill:#444444;fill-rule:nonzero}
    .fil0 {fill:#464646;fill-rule:nonzero}
    .fil12 {fill:#484848;fill-rule:nonzero}
    .fil9 {fill:#4B4B4B;fill-rule:nonzero}
    .fil85 {fill:#4D4D4D;fill-rule:nonzero}
    .fil17 {fill:#505050;fill-rule:nonzero}
    .fil75 {fill:#525252;fill-rule:nonzero}
    .fil4 {fill:#541C0D;fill-rule:nonzero}
    .fil84 {fill:#565656;fill-rule:nonzero}
    .fil49 {fill:#572422;fill-rule:nonzero}
    .fil5 {fill:#585555;fill-rule:nonzero}
    .fil73 {fill:#585858;fill-rule:nonzero}
    .fil72 {fill:#5C5C5C;fill-rule:nonzero}
    .fil78 {fill:#5F5F5F;fill-rule:nonzero}
    .fil16 {fill:#616161;fill-rule:nonzero}
    .fil54 {fill:#621C17;fill-rule:nonzero}
    .fil13 {fill:#626262;fill-rule:nonzero}
    .fil56 {fill:#641F20;fill-rule:nonzero}
    .fil81 {fill:#646464;fill-rule:nonzero}
    .fil83 {fill:#666666;fill-rule:nonzero}
    .fil35 {fill:#671F18;fill-rule:nonzero}
    .fil28 {fill:#691F18;fill-rule:nonzero}
    .fil15 {fill:#6A6A6A;fill-rule:nonzero}
    .fil34 {fill:#6C1E13;fill-rule:nonzero}
    .fil8 {fill:#6C2112;fill-rule:nonzero}
    .fil20 {fill:#6C8083;fill-rule:nonzero}
    .fil23 {fill:#711A14;fill-rule:nonzero}
    .fil82 {fill:#757575;fill-rule:nonzero}
    .fil50 {fill:#771610;fill-rule:nonzero}
    .fil80 {fill:#787878;fill-rule:nonzero}
    .fil59 {fill:#797979;fill-rule:nonzero}
    .fil64 {fill:#797B7B;fill-rule:nonzero}
    .fil11 {fill:#7A797B;fill-rule:nonzero}
    .fil33 {fill:#7A7A7A;fill-rule:nonzero}
    .fil57 {fill:#7B1E0D;fill-rule:nonzero}
    .fil55 {fill:#7B7B7B;fill-rule:nonzero}
    .fil68 {fill:#7C7B7E;fill-rule:nonzero}
    .fil71 {fill:#7C7C7C;fill-rule:nonzero}
    .fil67 {fill:#88586E;fill-rule:nonzero}
    .fil19 {fill:#8F4D49;fill-rule:nonzero}
    .fil61 {fill:#9F462A;fill-rule:nonzero}
    .fil25 {fill:#A17574;fill-rule:nonzero}
    .fil6 {fill:darkgray;fill-rule:nonzero}
    .fil53 {fill:#AC4123;fill-rule:nonzero}
    .fil29 {fill:#AFB0AF;fill-rule:nonzero}
    .fil63 {fill:#AFB7AD;fill-rule:nonzero}
    .fil48 {fill:#B0B0B0;fill-rule:nonzero}
    .fil14 {fill:#B1B1B1;fill-rule:nonzero}
    .fil69 {fill:#B3B1B1;fill-rule:nonzero}
    .fil70 {fill:#B4B4B4;fill-rule:nonzero}
    .fil45 {fill:#B6401F;fill-rule:nonzero}
    .fil38 {fill:#B8B0B3;fill-rule:nonzero}
    .fil26 {fill:#B93D1F;fill-rule:nonzero}
    .fil31 {fill:#B93D1F;fill-rule:nonzero}
    .fil39 {fill:#BA3C1A;fill-rule:nonzero}
    .fil42 {fill:#BA3D1B;fill-rule:nonzero}
    .fil51 {fill:#C03B14;fill-rule:nonzero}
    .fil66 {fill:#D28695;fill-rule:nonzero}
    .fil58 {fill:#D9D9D9;fill-rule:nonzero}
    .fil1 {fill:#F0F0F0;fill-rule:nonzero}
    .fil44 {fill:#F5703D;fill-rule:nonzero}
    .fil74 {fill:#F6F6F6;fill-rule:nonzero}
    .fil47 {fill:#F6F6F7;fill-rule:nonzero}
    .fil41 {fill:#F6F7F5;fill-rule:nonzero}
    .fil46 {fill:#F7F7F7;fill-rule:nonzero}
    .fil27 {fill:#F8F9F8;fill-rule:nonzero}
    .fil22 {fill:#F97037;fill-rule:nonzero}
    .fil62 {fill:#F9F9F9;fill-rule:nonzero}
    .fil18 {fill:#FAFAFA;fill-rule:nonzero}
   ]]>
  </style>
 </defs>
 <g id="Layer_x0020_1">
  <metadata id="CorelCorpID_0Corel-Layer"/>
  <g id="_986393456">
   <path class="fil0" d="M2.71 0.01c0.02,-0 0.04,-0.01 0.06,-0.01 0,0.02 0,0.04 0,0.05 -0,-0.02 -0.01,-0.03 -0.01,-0.05 -0.02,0 -0.03,0 -0.05,0z"/>
   <path class="fil1" d="M2.4 0.07c0.1,-0.02 0.2,-0.04 0.3,-0.06 0.02,-0 0.03,-0 0.05,-0 0,0.02 0.01,0.03 0.01,0.05 0.01,0.04 0.02,0.08 0.01,0.12 -0.01,0.09 -0.01,0.17 -0.01,0.26 -0,0.01 -0,0.03 -0,0.04 -0,0.01 -0,0.02 -0,0.02 0.04,-0 0.07,-0.01 0.11,-0.01 0.04,-0 0.07,-0.01 0.11,-0.02 0,-0 0,-0 0.01,-0 0.05,-0.01 0.1,-0.03 0.15,-0.05 0,-0 0,-0 0,-0 0.03,-0.01 0.06,-0.02 0.1,-0.03 -0,0.03 -0.01,0.06 -0.01,0.1 0.04,-0.01 0.08,-0.01 0.12,-0.03 0,-0 0,-0 0.01,-0 0.02,-0 0.05,-0.02 0.05,0.01 0.05,0.18 0.05,0.38 0.04,0.56 -0.02,0.28 -0.08,0.55 -0.18,0.82 -0.01,0.02 -0.02,0.05 -0.03,0.07 -0.02,-0.05 0.02,-0.1 0.03,-0.14 -0.01,0 -0.02,0.01 -0.03,0.02 0.09,-0.25 0.14,-0.52 0.16,-0.78 0.01,-0.17 0.01,-0.34 -0.03,-0.5 -0.06,0.01 -0.12,0.03 -0.19,0.03 0,-0.03 0.01,-0.06 0.01,-0.09 -0.15,0.06 -0.31,0.1 -0.47,0.09 0.03,-0.16 0.03,-0.32 0.01,-0.48 -0.21,0.03 -0.42,0.08 -0.63,0.13 -0.08,0.02 -0.15,0.04 -0.22,0.08 -0.06,0.03 -0.12,0.08 -0.17,0.13 -0.04,0.04 -0.09,0.02 -0.14,0.03 -0.26,0.05 -0.49,0.18 -0.69,0.35 -0.05,0.04 -0.09,0.08 -0.14,0.13 -0.05,0.05 -0.08,0.12 -0.14,0.16 -0.03,0.02 -0.06,0.04 -0.08,0.07 -0,0.04 0.01,0.08 0.01,0.12 -0.02,0.02 -0.05,0.04 -0.06,0.06 -0.01,0.03 -0,0.07 -0.01,0.1 -0.13,0.12 -0.26,0.25 -0.36,0.4 -0.02,0.03 -0.06,0.07 -0.04,0.11 0.04,0.17 0.09,0.33 0.19,0.47 0.02,0.03 0.05,0.04 0.08,0.05 0.01,0.05 0.02,0.11 0.04,0.16 0.01,0.05 0.06,0.08 0.09,0.11 0.1,0.09 0.24,0.14 0.36,0.2 0.06,-0.1 0.11,-0.22 0.21,-0.29 0.06,-0.04 0.12,-0.08 0.19,-0.1 -0.01,0.18 -0.07,0.35 -0.14,0.51 0.06,0.03 0.12,0.06 0.19,0.09 0.05,-0.05 0.09,-0.1 0.14,-0.15 -0.01,0.07 -0.02,0.13 -0.03,0.2 0.07,0.03 0.15,0.06 0.22,0.1 0.02,-0.02 0.04,-0.04 0.07,-0.06 0,0.03 0,0.06 0,0.09 0.04,0.02 0.09,0.04 0.13,0.06 -0.01,0.01 -0.03,0.02 -0.04,0.03 -0.03,-0.01 -0.07,-0.03 -0.1,-0.04 -0,-0 -0,-0 -0,-0 -0.02,-0.01 -0.04,-0.02 -0.06,-0.02 -0,-0 -0,-0 -0,-0 -0.07,-0.03 -0.14,-0.06 -0.22,-0.1 -0,-0 -0,-0 -0.01,-0l-0.01 -0c-0,-0 -0,-0 -0.01,-0 -0.04,-0.02 -0.09,-0.04 -0.13,-0.06 -0,-0 -0,-0 -0,-0 -0.02,-0.01 -0.04,-0.02 -0.06,-0.03 -0,-0 -0,-0 -0.01,-0l-0.01 -0c-0,-0 -0,-0 -0.01,-0 -0.02,-0.01 -0.03,-0.02 -0.05,-0.02 -0,-0 -0,-0 -0,-0 -0.02,-0.01 -0.04,-0.02 -0.06,-0.03 0.01,-0.03 0.03,-0.06 0.04,-0.09 0,-0 0,-0 0,-0 0.03,-0.08 0.06,-0.16 0.08,-0.24 0,-0 0,-0 0,-0.01 0,-0.01 0.01,-0.03 0.01,-0.04 0.01,-0.03 0.02,-0.07 0.02,-0.1 -0.01,0 -0.02,0.01 -0.02,0.01 -0.06,0.03 -0.11,0.06 -0.15,0.11 -0.07,0.08 -0.12,0.17 -0.16,0.26 -0.03,-0.01 -0.07,-0.03 -0.1,-0.05 -0,-0 -0,-0 -0,-0 -0.01,-0.01 -0.03,-0.01 -0.04,-0.02 -0,-0 -0,-0 -0,-0 -0.05,-0.03 -0.11,-0.05 -0.16,-0.08 -0,-0 -0,-0 -0,-0 -0.06,-0.04 -0.12,-0.09 -0.17,-0.15 -0.03,-0.06 -0.04,-0.12 -0.05,-0.19 -0.04,-0.01 -0.06,-0.05 -0.09,-0.08 -0,-0 -0,-0 -0,-0 -0.03,-0.04 -0.05,-0.08 -0.07,-0.13 -0,-0 -0,-0 -0,-0 -0.02,-0.05 -0.04,-0.1 -0.06,-0.15 -0,-0 -0,-0 -0,-0.01 -0.02,-0.08 -0.05,-0.15 -0.06,-0.23 0.1,-0.19 0.26,-0.34 0.41,-0.48 0.01,-0.03 0,-0.06 0.01,-0.09 0.01,-0.03 0.04,-0.05 0.06,-0.08 -0.01,-0.04 -0.01,-0.08 -0.01,-0.12 0.02,-0.03 0.04,-0.06 0.08,-0.08 0.05,-0.03 0.09,-0.08 0.13,-0.13 0.1,-0.12 0.23,-0.22 0.36,-0.31 0.11,-0.07 0.22,-0.13 0.34,-0.17 0,-0 0,-0 0,-0 0.02,-0.01 0.05,-0.02 0.07,-0.02 0,-0 0,-0 0,-0 0.06,-0.02 0.13,-0.03 0.19,-0.03 0.02,0 0.04,-0.02 0.06,-0.04 0.03,-0.03 0.07,-0.06 0.1,-0.08 0,-0 0,-0 0,-0 0.05,-0.04 0.11,-0.06 0.18,-0.08 0,-0 0,-0 0,-0 0.14,-0.04 0.28,-0.07 0.42,-0.11 0,-0 0,-0 0.01,-0z"/>
   <path class="fil2" d="M2.09 0.19c0.21,-0.06 0.42,-0.1 0.63,-0.13 0.02,0.16 0.02,0.32 -0.01,0.48 0.16,0 0.32,-0.03 0.47,-0.09 -0,0.03 -0.01,0.06 -0.01,0.09 0.06,-0.01 0.12,-0.03 0.19,-0.03 0.04,0.17 0.04,0.34 0.03,0.5 -0.02,0.27 -0.07,0.53 -0.16,0.78 -0,0 -0.01,0.01 -0.01,0.01 -0.02,-0.03 -0.05,-0.05 -0.07,-0.07 0.01,0.06 0.03,0.11 0.03,0.17 0,0.05 -0.02,0.09 -0.04,0.13 -0.06,0.13 -0.12,0.26 -0.2,0.39 -0.02,-0.04 -0.04,-0.08 -0.06,-0.12 -0.01,0.12 -0.01,0.25 -0.08,0.35 -0.06,0.08 -0.11,0.16 -0.17,0.25 -0.01,-0.07 -0.01,-0.14 -0.02,-0.21 -0.04,0.13 -0.05,0.26 -0.13,0.38 -0.05,0.07 -0.1,0.13 -0.16,0.19 -0.08,0.09 -0.16,0.17 -0.25,0.25 -0.05,-0.02 -0.11,-0.04 -0.16,-0.06 0.01,-0.03 0.01,-0.07 0.01,-0.1 -0.03,0.02 -0.05,0.05 -0.08,0.07 -0.02,-0.01 -0.04,-0.02 -0.07,-0.02 -0.04,-0.02 -0.09,-0.04 -0.13,-0.06 -0,-0.03 0,-0.06 -0,-0.09 -0.02,0.02 -0.04,0.04 -0.07,0.06 -0.07,-0.03 -0.15,-0.06 -0.22,-0.1 0.01,-0.07 0.02,-0.13 0.03,-0.2 -0.05,0.05 -0.09,0.1 -0.14,0.15 -0.06,-0.03 -0.12,-0.06 -0.19,-0.09 0.07,-0.16 0.14,-0.33 0.14,-0.51 -0.07,0.02 -0.13,0.06 -0.19,0.1 -0.1,0.07 -0.15,0.18 -0.21,0.29 -0.12,-0.06 -0.25,-0.11 -0.36,-0.2 -0.04,-0.03 -0.08,-0.06 -0.09,-0.11 -0.02,-0.05 -0.02,-0.11 -0.04,-0.16 -0.03,-0.01 -0.06,-0.03 -0.08,-0.05 0.02,-0.02 0.03,-0.04 0.05,-0.06 0.01,0.01 0.01,0.02 0.02,0.04 0,-0.01 0.01,-0.02 0.02,-0.02 0.04,0.01 0.08,0.02 0.13,0.02 0.04,-0.02 0.08,-0.04 0.12,-0.07 0.11,-0.05 0.21,-0.12 0.33,-0.15 0.06,-0.02 0.12,-0.01 0.18,-0 0.04,0 0.08,0.01 0.11,0.01 -0,-0.02 -0.01,-0.04 -0.01,-0.05 -0.02,-0 -0.04,-0 -0.06,-0.01 -0.05,-0 -0.11,-0 -0.16,-0.01 0.02,-0.01 0.04,-0.01 0.05,-0.01 0.03,-0.01 0.05,-0.01 0.08,-0.01 0.03,-0 0.05,-0.01 0.08,-0.02 -0.04,-0.04 -0.1,-0.07 -0.15,-0.09 0.01,-0.01 0.02,-0.02 0.03,-0.03 0.05,0.01 0.1,0.01 0.14,0.01 0.07,0.03 0.08,0.1 0.11,0.16 0.04,-0.04 0.07,-0.08 0.1,-0.12 0.02,-0.01 0.04,-0.02 0.06,-0.03 -0.01,-0.02 -0.02,-0.04 -0.03,-0.06 0.04,-0.02 0.08,-0.02 0.12,-0.01 -0.01,0.02 -0.02,0.04 -0.03,0.06 -0.05,0.07 -0.11,0.14 -0.17,0.21 -0.01,0.02 -0.04,0.04 -0.03,0.06 0,0.07 0.01,0.13 0.01,0.2 0,0.1 -0,0.2 0.01,0.31 0.1,-0.12 0.16,-0.27 0.21,-0.42 0.02,0.13 0.04,0.26 0.04,0.39 0,0.09 -0.01,0.19 -0,0.28 0.05,-0.06 0.09,-0.14 0.13,-0.21 0.04,-0.07 0.06,-0.15 0.11,-0.21 0.01,0.18 0,0.36 0.01,0.54 0.06,-0.06 0.11,-0.13 0.15,-0.2 0.05,-0.07 0.09,-0.14 0.12,-0.22 0.05,-0.15 0.07,-0.31 0.1,-0.47 0.01,0.04 0.01,0.08 0.02,0.11 0,0.1 0.02,0.19 0.03,0.29 0,0.1 0.01,0.19 0.01,0.29 0.04,-0.04 0.08,-0.08 0.09,-0.13 0.08,-0.23 0.14,-0.46 0.18,-0.7 0.01,-0.11 0.02,-0.23 -0.02,-0.33 -0.02,-0.07 -0.03,-0.14 -0.05,-0.2 0.05,0.06 0.08,0.13 0.12,0.19 0.03,0.07 0.06,0.14 0.09,0.21 0.02,0.06 0.04,0.12 0.06,0.19 0.02,-0.16 0.02,-0.32 -0.03,-0.47l-0 -0.01c0,-0.02 0,-0.04 0,-0.06 0.02,0.05 0.05,0.11 0.08,0.16 0.05,0.08 0.08,0.17 0.14,0.25 0.02,-0.03 0.05,-0.06 0.05,-0.1 -0.01,-0.06 -0.02,-0.12 -0.04,-0.17 -0.04,-0.14 -0.08,-0.29 -0.14,-0.42 -0,-0 -0.01,-0.01 -0.01,-0.02 -0.01,-0.02 -0.02,-0.03 -0.02,-0.05 0.03,-0.02 0.06,-0 0.09,0.01 0.11,0.08 0.2,0.17 0.31,0.25 0,-0.02 0,-0.04 0.01,-0.06 0.01,-0.05 0.03,-0.1 0.02,-0.15 -0,-0.13 0.01,-0.28 -0.06,-0.4 -0,-0.03 -0.01,-0.06 0,-0.08 0.04,-0.04 0.09,-0.05 0.12,-0.1l0.01 -0.01c-0.1,0 -0.19,0.03 -0.28,0.04 -0.05,0 -0.1,0.01 -0.15,0.02 0.04,0.08 0.09,0.16 0.13,0.24 -0,0.01 -0.01,0.02 -0.02,0.02 -0.02,-0 -0.03,-0 -0.05,-0.01 -0.05,-0.05 -0.1,-0.09 -0.16,-0.13 -0.03,-0.02 -0.06,-0.04 -0.09,-0.04 -0.03,0.01 -0.06,0.03 -0.07,0.06 -0.01,0.03 0,0.07 0,0.1 0,0.03 0.02,0.07 -0.02,0.09l-0.01 -0.01c-0.03,-0.02 -0.05,-0.05 -0.08,-0.07 -0.02,-0.02 -0.05,-0.04 -0.08,-0.04 -0.02,0 -0.04,0.02 -0.06,0.03 -0.03,0.02 -0.07,0.03 -0.11,0.02 -0.01,-0.01 -0.02,-0.02 -0.03,-0.03 -0.02,-0.01 -0.05,-0.02 -0.07,-0.03 0.03,-0.03 0.08,-0.05 0.12,-0.05 0.1,-0.03 0.22,-0.04 0.3,-0.12 0.07,-0.07 0.12,-0.16 0.13,-0.26 0.02,-0.11 0.02,-0.21 0.02,-0.32 -0.02,0 -0.03,0 -0.05,0.01 -0.07,0.01 -0.13,0.03 -0.2,0.04 -0.13,-0.01 -0.25,0.03 -0.37,0.07 0.02,-0.03 0.05,-0.06 0.07,-0.09zm-1.44 2.22l0 0c-0.07,0.03 -0.13,0.1 -0.22,0.09 0,0.03 0.01,0.06 0.01,0.09 0.01,0.02 0.03,0.04 0.05,0.06 0,-0.02 0,-0.04 0.01,-0.06 0.04,0.04 0.08,0.06 0.12,0.09 0.02,0.01 0.04,0.03 0.06,0.04 0.02,0.01 0.03,0.02 0.05,0.03 0.04,-0.06 0.08,-0.11 0.12,-0.17 -0.03,-0 -0.06,-0.01 -0.08,-0.01 0.07,-0.1 0.19,-0.16 0.3,-0.2 -0.09,-0.01 -0.18,0.01 -0.27,0.04 0.02,-0.03 0.05,-0.06 0.07,-0.1 -0.08,0.02 -0.14,0.06 -0.22,0.1z"/>
   <path class="fil3" d="M2.4 0.07c0,-0 0,-0 0.01,-0 -0,0 -0,0 -0.01,0z"/>
   <path class="fil4" d="M2.6 0.17c0.02,-0 0.03,-0 0.05,-0.01 0.01,0.11 0.01,0.22 -0.02,0.32 -0.02,0.1 -0.06,0.19 -0.13,0.26 -0.08,0.08 -0.2,0.09 -0.3,0.12 -0.09,-0.01 -0.19,-0.02 -0.28,-0.01 0,-0.01 0.01,-0.02 0.01,-0.03 0.1,0.01 0.19,0.02 0.29,0 0.12,-0 0.23,-0.07 0.31,-0.16 0.1,-0.13 0.11,-0.31 0.1,-0.47 -0,-0.01 -0,-0.02 -0,-0.03 -0,0 -0.01,0 -0.02,0z"/>
   <path class="fil4" d="M1.26 0.69c0,-0.02 0.01,-0.04 0.02,-0.06 0,0.01 0,0.02 0,0.02 0.01,-0 0.03,-0.01 0.04,-0.01 -0.02,0.04 -0.04,0.08 -0.06,0.12 -0,-0.01 -0,-0.02 -0,-0.02 -0,-0.02 -0,-0.03 -0,-0.05z"/>
   <path class="fil5" d="M1.98 0.18c0,-0 0,-0 0,-0 -0,0 -0,0 -0,0z"/>
   <path class="fil6" d="M2.77 0.44c0,-0.09 0,-0.17 0.01,-0.26 0,0.09 0.01,0.17 -0.01,0.26z"/>
   <path class="fil7" d="M1.87 0.27c0.07,-0.04 0.15,-0.06 0.22,-0.08 -0.02,0.03 -0.05,0.06 -0.07,0.09 0.12,-0.04 0.25,-0.09 0.37,-0.07 -0.15,0.04 -0.31,0.06 -0.45,0.12 -0.16,0.06 -0.27,0.19 -0.38,0.32 -0,-0.01 -0,-0.02 -0,-0.03 0.03,-0.03 0.05,-0.07 0.07,-0.1 -0.05,0 -0.09,0 -0.14,0.01 -0.07,0.02 -0.15,0.05 -0.19,0.12 -0.01,0 -0.03,0.01 -0.04,0.01 -0,-0.01 -0,-0.02 -0,-0.02 -0,-0.01 -0,-0.02 -0,-0.02 -0.09,0.04 -0.17,0.09 -0.25,0.14 -0.03,0.02 -0.06,0.05 -0.09,0.08 -0.02,0.04 -0.07,0.04 -0.1,0.07 -0.09,0.08 -0.14,0.19 -0.25,0.25 -0,0.01 -0,0.02 -0,0.03 0.04,-0.02 0.08,-0.03 0.12,-0.05 -0.03,0.03 -0.07,0.06 -0.11,0.08 0.01,0.03 0.01,0.05 0.02,0.08 0,0 0,0.01 0,0.01 -0.03,0.01 -0.07,0.01 -0.08,0.04 -0.01,0.04 0.01,0.1 -0.03,0.13 -0.1,0.09 -0.19,0.18 -0.27,0.29 -0.01,0.02 -0.03,0.04 -0.04,0.06 -0.01,0.01 -0.01,0.02 -0.02,0.03 -0.01,0.01 -0.02,0.03 -0.04,0.04 0,0.07 0.03,0.13 0.05,0.19 -0.01,-0.05 -0.01,-0.09 -0.02,-0.14 0.06,0 0.13,-0.01 0.18,-0.04 0.01,-0 0.02,-0.01 0.03,-0.01 -0,-0.01 -0.01,-0.03 -0.01,-0.04 0.03,-0.01 0.07,-0.01 0.1,-0.02 -0.07,0.08 -0.14,0.16 -0.2,0.24 -0.03,0.03 -0.02,0.08 -0.02,0.12 0,0.06 0.04,0.12 0.07,0.17 -0,0.01 -0.01,0.02 -0.02,0.02 -0.01,-0.01 -0.01,-0.02 -0.02,-0.04 -0.02,0.02 -0.03,0.04 -0.05,0.06 -0.09,-0.14 -0.15,-0.31 -0.19,-0.47 -0.02,-0.04 0.02,-0.08 0.04,-0.11 0.1,-0.15 0.23,-0.28 0.36,-0.4 0,-0.03 -0,-0.07 0.01,-0.1 0.01,-0.03 0.04,-0.04 0.06,-0.06 -0,-0.04 -0.02,-0.08 -0.01,-0.12 0.02,-0.03 0.05,-0.05 0.08,-0.07 0.06,-0.04 0.09,-0.11 0.14,-0.16 0.04,-0.04 0.09,-0.09 0.14,-0.13 0.2,-0.17 0.44,-0.3 0.69,-0.35 0.05,-0.01 0.1,0 0.14,-0.03 0.05,-0.05 0.11,-0.1 0.17,-0.13z"/>
   <path class="fil8" d="M2.28 0.31c0.09,-0.01 0.17,-0.04 0.26,-0.06 0,0.01 0,0.02 0,0.03 -0,0.05 -0,0.1 -0.01,0.15 0,-0.05 -0,-0.1 -0.01,-0.15 -0.04,0.01 -0.09,0.02 -0.13,0.03 -0.08,0.02 -0.17,0.03 -0.25,0.06 -0.08,0.03 -0.17,0.05 -0.24,0.11 -0.07,0.06 -0.13,0.12 -0.18,0.19 0.01,0.01 0.02,0.02 0.03,0.02 -0.01,0 -0.03,0.01 -0.04,0.01 -0.01,-0 -0.03,-0 -0.04,-0 0.04,-0.06 0.08,-0.12 0.13,-0.17 0.05,-0.05 0.11,-0.11 0.18,-0.13 0.1,-0.03 0.19,-0.06 0.29,-0.08z"/>
   <path class="fil9" d="M1.8 0.26c0,-0 0,-0 0,-0 -0,0 -0,0 -0,0z"/>
   <path class="fil9" d="M0.5 2.83c0,0 0,0 0,0 -0,-0 -0,-0 -0,-0z"/>
   <path class="fil10" d="M2.4 0.31c0.04,-0.01 0.09,-0.02 0.13,-0.03 0,0.05 0.01,0.1 0.01,0.15 -0.02,0.11 -0.07,0.21 -0.15,0.28 -0.07,0.06 -0.16,0.08 -0.25,0.08 -0.06,0 -0.12,0.01 -0.18,-0.02 0.02,-0.01 0.03,-0.02 0.05,-0.03 0.02,-0.02 0.04,-0.03 0.06,-0.05 -0.1,-0.02 -0.21,-0.03 -0.31,-0.01 -0.01,-0.01 -0.02,-0.02 -0.03,-0.02 0.05,-0.07 0.12,-0.13 0.18,-0.19 0.07,-0.06 0.16,-0.08 0.24,-0.11 0.08,-0.03 0.17,-0.04 0.25,-0.06zm-0.31 0.16l0 0c-0.1,0.02 -0.18,0.09 -0.24,0.17 0.08,-0 0.16,0.01 0.24,0.01l0.01 0c0.02,0.01 0.05,0.03 0.07,0.04 -0.04,0.02 -0.09,0.04 -0.12,0.07 0.03,0 0.06,0.01 0.1,-0 0.06,0 0.13,-0.01 0.18,-0.05 0.09,-0.04 0.13,-0.14 0.15,-0.23 0.01,-0.03 0.02,-0.07 0.02,-0.1 -0.13,0.03 -0.27,0.06 -0.4,0.09z"/>
   <path class="fil11" d="M2.09 0.46c0.13,-0.03 0.26,-0.07 0.4,-0.09 -0,0.04 -0,0.07 -0.02,0.1 -0,-0.01 -0,-0.03 -0,-0.04 -0.12,0.02 -0.24,0.05 -0.36,0.08 -0.06,0.01 -0.11,0.06 -0.16,0.11 0.05,0.01 0.09,0.01 0.14,0.03 -0.08,-0.01 -0.16,-0.02 -0.24,-0.01 0.06,-0.08 0.14,-0.15 0.24,-0.17z"/>
   <path class="fil12" d="M1.44 0.42c0,-0 0,-0 0,-0 -0,0 -0,0 -0,0z"/>
   <path class="fil0" d="M3.13 0.42c0,-0 0,-0 0,-0 -0,0 -0,0 -0,0z"/>
   <path class="fil13" d="M1.36 0.44c0,-0 0,-0 0,-0 -0,0 -0,0 -0,0z"/>
   <path class="fil14" d="M2.11 0.52c0.12,-0.03 0.24,-0.06 0.36,-0.08 0,0.01 0,0.03 0,0.04 -0.02,0.09 -0.06,0.19 -0.15,0.23 0.04,-0.07 0.09,-0.14 0.11,-0.22 -0.1,0.02 -0.2,0.05 -0.3,0.07 -0.03,0.01 -0.06,0.03 -0.08,0.05 0.08,0.03 0.16,0.04 0.22,0.1 -0.01,0.01 -0.03,0.01 -0.04,0.02 -0.02,-0.05 -0.08,-0.06 -0.13,-0.07l-0.01 -0c-0.04,-0.01 -0.09,-0.02 -0.14,-0.03 0.04,-0.05 0.09,-0.09 0.16,-0.11z"/>
   <path class="fil14" d="M0.45 2.53c0.11,-0.01 0.2,-0.1 0.3,-0.13 -0.01,0.02 -0.02,0.05 -0.03,0.07 0.02,-0 0.03,-0 0.05,-0.01 -0.04,0.05 -0.08,0.09 -0.13,0.13 0.03,0.01 0.06,0.01 0.09,0.02 -0.02,0.03 -0.04,0.06 -0.06,0.09 -0.02,-0.01 -0.04,-0.02 -0.06,-0.04 -0.01,-0.05 0.01,-0.09 0.04,-0.13 -0.01,-0 -0.03,-0.01 -0.04,-0.01 -0,-0.01 -0,-0.02 -0,-0.03 -0.05,0.03 -0.11,0.08 -0.17,0.06 0,-0.01 0,-0.03 0,-0.03z"/>
   <path class="fil15" d="M3.34 0.45c0,-0 0,-0 0.01,-0 -0,0 -0,0 -0.01,0z"/>
   <path class="fil16" d="M2.98 0.47c0,-0 0,-0 0.01,-0 -0,0 -0,0 -0.01,0z"/>
   <path class="fil17" d="M2.76 0.5c0,-0.01 0,-0.02 0,-0.02 0.03,0.02 0.07,0.01 0.1,0.01 -0.04,0.01 -0.07,0.01 -0.11,0.01z"/>
   <path class="fil18" d="M2.12 0.56c0.1,-0.02 0.2,-0.05 0.3,-0.07 -0.02,0.08 -0.06,0.15 -0.11,0.22 -0.05,0.04 -0.11,0.05 -0.18,0.05 0.03,-0.01 0.05,-0.02 0.08,-0.03 0.01,-0.01 0.03,-0.01 0.04,-0.02 -0.06,-0.05 -0.15,-0.07 -0.22,-0.1 0.02,-0.02 0.05,-0.04 0.08,-0.05z"/>
   <path class="fil18" d="M2.34 1.31c0.04,0.04 0.09,0.07 0.12,0.12 -0.01,0.01 -0.02,0.03 -0.03,0.04 -0.01,-0.01 -0.02,-0.02 -0.04,-0.03 0.03,0.15 0.08,0.31 0.04,0.47 -0.04,0.15 -0.07,0.29 -0.11,0.43 -0.05,-0.16 -0.07,-0.33 -0.12,-0.5 -0.05,0.2 -0.1,0.4 -0.16,0.6 -0.02,0.06 -0.06,0.1 -0.1,0.14 -0.01,-0.07 -0.01,-0.14 -0.02,-0.21 -0.01,-0.09 -0.03,-0.18 -0.02,-0.28 0.01,-0.08 0.02,-0.16 0.02,-0.25 0,-0.02 0.01,-0.05 0.01,-0.07 0,0.01 0,0.03 0.01,0.04 0.01,0.1 0.03,0.21 0.05,0.31 0.07,-0.08 0.1,-0.19 0.12,-0.29 0.02,-0.1 0.05,-0.2 0.05,-0.31 0.04,0.05 0.06,0.12 0.09,0.18 0.01,0.04 0.03,0.08 0.05,0.12 0,-0.01 0.01,-0.03 0.01,-0.04 0.03,-0.15 0.02,-0.31 0.02,-0.47z"/>
   <path class="fil19" d="M1.5 0.52c0.04,-0.01 0.09,-0.01 0.14,-0.01 -0.02,0.04 -0.04,0.07 -0.07,0.1 -0.01,-0.02 -0.01,-0.05 -0.02,-0.07 -0.02,-0.01 -0.03,-0.01 -0.05,-0.02z"/>
   <path class="fil20" d="M2.1 0.65c0.05,0.01 0.11,0.02 0.13,0.07 -0.03,0.01 -0.05,0.02 -0.08,0.03 -0.03,0.01 -0.06,0 -0.1,0 0.04,-0.03 0.08,-0.05 0.12,-0.07 -0.02,-0.01 -0.05,-0.03 -0.07,-0.04z"/>
   <path class="fil21" d="M3.12 0.7c0.03,-0.01 0.07,-0.03 0.1,-0.04 -0.03,0.05 -0.08,0.07 -0.12,0.1 -0.01,0.03 -0,0.06 -0,0.08 -0.02,-0.03 -0.04,-0.06 -0.05,-0.09 0.02,-0.02 0.05,-0.04 0.07,-0.05z"/>
   <path class="fil22" d="M2 0.74c-0.02,0.01 -0.03,0.02 -0.05,0.03 0.06,0.03 0.12,0.02 0.18,0.02 0.09,-0 0.18,-0.03 0.25,-0.08 0.08,-0.07 0.14,-0.17 0.15,-0.28 0.01,-0.05 0.01,-0.1 0.01,-0.15 -0,-0.01 -0,-0.02 -0,-0.03 -0.09,0.01 -0.17,0.04 -0.26,0.06 -0.1,0.02 -0.19,0.05 -0.29,0.08 -0.07,0.02 -0.13,0.08 -0.18,0.13 -0.05,0.05 -0.1,0.11 -0.13,0.17 0.01,0 0.03,0 0.04,0 0.01,-0 0.03,-0.01 0.04,-0.01 0.1,-0.02 0.21,-0.01 0.31,0.01 -0.02,0.02 -0.04,0.04 -0.06,0.05zm-1.11 0.94c0.02,-0 0.04,-0.01 0.06,-0.01 0.06,-0.02 0.13,-0.04 0.2,-0.04 0.03,0.01 0.06,0.03 0.09,0.05 0.04,0.02 0.08,0.02 0.12,0.03 -0.03,-0.07 -0.06,-0.14 -0.08,-0.21 -0.02,-0.07 -0.01,-0.14 -0.03,-0.21 -0,-0 -0,-0.01 -0,-0.02 -0,-0.01 -0,-0.02 -0,-0.04 0.01,0.01 0.02,0.02 0.03,0.03 -0.01,-0.09 0.06,-0.17 0.13,-0.22 0.03,-0.02 0.06,-0.03 0.09,-0.05 0.07,-0.03 0.14,-0.05 0.21,-0.06l0.01 -0c0,0.01 0.01,0.02 0.01,0.03 -0,0.02 -0.01,0.04 -0.01,0.07 -0.1,-0 -0.21,-0.01 -0.3,0.04 -0.05,0.11 -0.02,0.24 -0.01,0.36 0.01,0.02 0.02,0.05 0.03,0.07 -0,-0.02 -0.01,-0.05 -0.01,-0.07 -0.01,-0.1 -0.01,-0.22 0.04,-0.31 0.1,-0.05 0.21,-0.03 0.32,-0.01 -0.01,-0.1 -0.04,-0.2 -0.01,-0.3 -0.18,-0.05 -0.37,-0.07 -0.56,-0.02 -0.01,-0.01 -0.02,-0.02 -0.03,-0.02 -0.01,-0 -0.02,-0.01 -0.02,-0.01 0,-0.01 0.01,-0.02 0.02,-0.02 -0.02,0.01 -0.03,0.01 -0.05,0.02 -0.03,0.02 -0.06,0.04 -0.09,0.07 -0.05,0.04 -0.1,0.07 -0.13,0.12 -0.04,0.04 -0.06,0.11 -0.12,0.12 -0.03,0.02 -0.05,0.05 -0.07,0.08 -0.04,0.01 -0.08,0.03 -0.12,0.05 0,-0.01 0,-0.02 0,-0.03 0.11,-0.06 0.16,-0.17 0.25,-0.25 0.03,-0.03 0.07,-0.03 0.1,-0.07 0.02,-0.03 0.05,-0.06 0.09,-0.08 0.08,-0.05 0.16,-0.1 0.25,-0.14 0,0.01 0,0.02 0,0.02 -0.01,0.02 -0.01,0.04 -0.02,0.06 -0,0.02 0,0.03 0,0.05 0,0.01 0,0.02 0,0.02 0.02,-0.04 0.04,-0.08 0.06,-0.12 0.04,-0.07 0.11,-0.1 0.19,-0.12 0.02,0.01 0.03,0.01 0.05,0.02 0.01,0.02 0.01,0.05 0.02,0.07 0,0.01 0,0.02 0,0.03 0.11,-0.12 0.22,-0.25 0.38,-0.32 0.15,-0.05 0.3,-0.07 0.45,-0.12 0.07,-0.01 0.13,-0.03 0.2,-0.04 0,-0 0.01,-0 0.02,-0 0,0.01 0,0.02 0,0.03 0.02,0.16 0,0.34 -0.1,0.47 -0.08,0.09 -0.19,0.16 -0.31,0.16 -0.1,0.01 -0.19,0.01 -0.29,-0 -0,0.01 -0.01,0.02 -0.01,0.03 -0.04,0.13 -0.01,0.27 0.03,0.39 0.03,0.05 0.06,0.1 0.1,0.15 -0.01,-0.03 -0.02,-0.06 -0.03,-0.09 -0.02,-0.06 -0.03,-0.13 -0.04,-0.19 0.01,-0 0.02,-0.01 0.03,-0.01 0.08,0.01 0.16,0 0.25,-0 0.03,0 0.06,0.01 0.09,0.01 0.04,-0.05 0.11,-0.05 0.17,-0.05l0.01 0.01c0.01,0.01 0.02,0.01 0.03,0.02 0.01,-0.03 0.03,-0.07 0.06,-0.08 0.02,0.02 0.04,0.04 0.05,0.06 0,-0.03 0,-0.07 0.01,-0.1 0.16,0.1 0.29,0.24 0.39,0.4 0.02,0.03 0.04,0.05 0.06,0.08 -0,-0.03 -0,-0.05 -0,-0.07 0.01,0.01 0.01,0.02 0.02,0.04 -0,0.02 -0.01,0.04 -0.01,0.06 -0.11,-0.07 -0.2,-0.17 -0.31,-0.25 -0.05,-0.04 -0.09,-0.07 -0.14,-0.11 -0,0.09 -0,0.17 -0.01,0.26 -0.05,-0.04 -0.09,-0.08 -0.13,-0.12 -0,-0 -0.01,-0.01 -0.01,-0.01 -0.02,-0.01 -0.03,-0.02 -0.05,-0.03 0,0.06 0.01,0.12 0.01,0.17 -0.05,-0.05 -0.1,-0.09 -0.15,-0.14 -0.03,-0.01 -0.06,-0.03 -0.09,-0.04 0.01,0.1 0.04,0.19 0.05,0.29 0.02,0.1 0.01,0.2 0.01,0.3 -0,0.01 -0.01,0.03 -0.01,0.04 -0.02,-0.04 -0.04,-0.08 -0.05,-0.12 -0.02,-0.06 -0.04,-0.13 -0.09,-0.18 -0,0.11 -0.03,0.21 -0.05,0.31 -0.03,0.1 -0.05,0.21 -0.12,0.29 -0.02,-0.1 -0.04,-0.2 -0.05,-0.31 -0,-0.01 -0,-0.03 -0.01,-0.04 -0,-0.01 -0,-0.02 -0,-0.02 -0.02,-0.07 -0.04,-0.14 -0.07,-0.21 -0.03,0.14 -0.04,0.28 -0.07,0.42 -0.01,0.04 -0.02,0.07 -0.01,0.11 -0.01,0.01 -0.01,0.02 -0.02,0.03 -0.04,-0.16 -0.1,-0.32 -0.16,-0.48 -0.04,-0.12 -0.04,-0.24 -0.09,-0.35 -0.01,0.07 -0.02,0.14 -0.03,0.2 -0.02,0.09 -0.06,0.17 -0.1,0.25 -0.02,0.03 -0.04,0.06 -0.06,0.09 -0.03,0.02 -0.07,0.02 -0.1,0.02 -0.02,-0 -0.03,-0.01 -0.05,-0.01 0.03,0.02 0.06,0.04 0.09,0.06 -0.05,-0.01 -0.09,-0.02 -0.14,-0.04 -0.04,-0.03 -0.07,-0.07 -0.11,-0.09 -0.04,-0.02 -0.09,-0.03 -0.14,-0.04 0.01,-0.01 0.01,-0.02 0.02,-0.03z"/>
   <path class="fil23" d="M2.92 0.75c0.07,-0.02 0.13,-0.04 0.2,-0.05 -0.02,0.02 -0.05,0.04 -0.07,0.05 0.02,0.03 0.04,0.06 0.05,0.09 0.07,0.12 0.06,0.26 0.06,0.4 0,0.05 -0.01,0.1 -0.02,0.15 -0.01,-0.01 -0.01,-0.02 -0.02,-0.04 -0.01,-0.17 -0.04,-0.33 -0.11,-0.49 -0.02,-0.04 -0.05,-0.07 -0.09,-0.11 -0,-0 -0,-0.01 -0,-0.02z"/>
   <path class="fil24" d="M1.12 0.75c0.02,-0.01 0.03,-0.02 0.05,-0.02 -0,0.01 -0.01,0.02 -0.02,0.02 -0.01,0.02 -0.03,0.04 -0.04,0.06 0.03,-0.01 0.06,-0.02 0.1,-0.03 0.18,-0.05 0.38,-0.03 0.56,0.02 -0.02,0.1 0,0.2 0.01,0.3 -0.1,-0.02 -0.22,-0.04 -0.32,0.01 -0.05,0.1 -0.05,0.21 -0.04,0.31 0,0.02 0.01,0.05 0.01,0.07 -0.01,-0.02 -0.02,-0.05 -0.03,-0.07 -0.02,-0.12 -0.05,-0.25 0.01,-0.36 0.09,-0.05 0.2,-0.04 0.3,-0.04 0,-0.02 0.01,-0.04 0.01,-0.07 0,-0.02 0,-0.05 0.01,-0.07 -0.09,-0.01 -0.18,0.01 -0.27,0.01l-0.01 -0.01c0.08,-0.03 0.17,-0.03 0.26,-0.04 0.02,-0 0.03,-0 0.05,-0.01 -0.09,-0.04 -0.19,-0.06 -0.28,-0.07 -0.14,-0.01 -0.29,0.02 -0.42,0.08 0.02,-0.03 0.04,-0.06 0.05,-0.1 -0.02,0.01 -0.05,0.03 -0.07,0.04 0.03,-0.03 0.05,-0.05 0.09,-0.07z"/>
   <path class="fil25" d="M1.11 0.82c0.01,-0.02 0.02,-0.04 0.04,-0.06 0.01,0 0.02,0.01 0.02,0.01 0.01,0.01 0.02,0.02 0.03,0.02 -0.03,0.01 -0.06,0.02 -0.1,0.03z"/>
   <path class="fil26" d="M2.92 0.76c0.03,0.03 0.06,0.07 0.09,0.11 0.07,0.15 0.1,0.32 0.11,0.49 0,0.02 0,0.05 0,0.07 -0.02,-0.03 -0.04,-0.05 -0.06,-0.08 -0.1,-0.15 -0.23,-0.3 -0.39,-0.4 -0,0.03 -0,0.07 -0.01,0.1 -0.02,-0.02 -0.04,-0.04 -0.05,-0.06 -0.03,0.02 -0.05,0.05 -0.06,0.08 -0.01,-0.01 -0.02,-0.01 -0.03,-0.02 0.03,-0.02 0.02,-0.06 0.02,-0.09 0.02,-0.06 0.08,-0.08 0.13,-0.11 0.01,-0 0.02,-0.01 0.03,-0.01 0.05,0.04 0.11,0.08 0.16,0.13 0.03,0.03 0.06,0.07 0.1,0.1 -0.01,-0.04 -0.02,-0.08 -0.03,-0.11 -0.04,-0.08 -0.09,-0.16 -0.13,-0.24 0.05,-0.01 0.1,-0.01 0.15,-0.02 0.1,-0.01 0.19,-0.04 0.28,-0.04l-0.01 0.01c-0.03,0.02 -0.07,0.03 -0.1,0.04 -0.07,0.01 -0.14,0.02 -0.2,0.05 0,0 0,0.01 0,0.02z"/>
   <path class="fil27" d="M1.03 0.82c0.02,-0.01 0.05,-0.03 0.07,-0.04 -0.02,0.03 -0.03,0.07 -0.05,0.1 0.13,-0.06 0.27,-0.1 0.42,-0.08 0.1,0.01 0.19,0.02 0.28,0.07 -0.02,0 -0.03,0 -0.05,0.01 -0.11,-0.03 -0.22,-0.03 -0.33,-0.01 -0.17,0.02 -0.33,0.11 -0.42,0.25 -0.04,0.08 -0.09,0.15 -0.17,0.2 -0.04,0.02 -0.09,0.02 -0.14,0.02 -0.01,-0.01 -0.02,-0.02 -0.03,-0.03 -0.01,-0.02 -0.02,-0.05 -0.02,-0.08 0.04,-0.02 0.08,-0.05 0.11,-0.08 0.02,-0.03 0.05,-0.05 0.07,-0.08 0.06,-0.01 0.09,-0.07 0.12,-0.12 0.03,-0.05 0.09,-0.09 0.13,-0.12z"/>
   <path class="fil28" d="M2.6 0.8c0.03,0 0.06,0.02 0.09,0.04 -0.01,0 -0.02,0.01 -0.03,0.01 -0.05,0.03 -0.11,0.05 -0.13,0.11 -0,-0.03 -0.01,-0.07 -0,-0.1 0.01,-0.03 0.04,-0.05 0.07,-0.06z"/>
   <path class="fil29" d="M1.37 0.85c0.11,-0.01 0.22,-0.01 0.33,0.01 -0.09,0.01 -0.18,0 -0.26,0.04 -0.03,0 -0.06,0.01 -0.09,0.02 -0.15,0.01 -0.28,0.11 -0.36,0.23 -0.07,0.1 -0.15,0.21 -0.28,0.22 -0.02,-0.01 -0.04,-0.01 -0.05,-0.02 -0.01,-0 -0.02,-0.01 -0.03,-0.02l0.01 -0c0.05,-0.01 0.1,0 0.14,-0.02 0.07,-0.05 0.12,-0.13 0.17,-0.2 0.09,-0.15 0.25,-0.23 0.42,-0.25z"/>
   <path class="fil30" d="M1.92 0.85c0.09,-0.01 0.19,0 0.28,0.01 -0.04,0.01 -0.09,0.02 -0.12,0.05 0.02,0.01 0.05,0.02 0.07,0.03 -0.04,-0 -0.09,-0.01 -0.14,0 -0.01,0.01 -0.02,0.03 -0.02,0.05 -0,0.04 -0,0.07 -0,0.11 0.01,0.07 0.02,0.13 0.04,0.19 0.01,0.03 0.02,0.06 0.03,0.09 -0.04,-0.04 -0.07,-0.09 -0.1,-0.15 -0.05,-0.12 -0.08,-0.26 -0.03,-0.39z"/>
   <path class="fil31" d="M1.45 0.91c0.09,-0 0.18,-0.02 0.27,-0.01 -0,0.02 -0,0.05 -0.01,0.07 -0,-0.01 -0.01,-0.02 -0.01,-0.03l-0.01 0c-0.07,0.01 -0.15,0.03 -0.21,0.06 -0.03,0.01 -0.06,0.03 -0.09,0.05 -0.07,0.05 -0.14,0.13 -0.13,0.22 -0.01,-0.01 -0.02,-0.02 -0.03,-0.03 0,0.01 0,0.02 0,0.04 -0.02,0.02 -0.03,0.05 -0.05,0.07 -0,-0.07 0.01,-0.13 0.03,-0.19 0.02,-0.06 0.06,-0.11 0.1,-0.17 0.04,-0.03 0.09,-0.05 0.13,-0.07z"/>
   <path class="fil32" d="M1.35 0.92c0.03,-0.01 0.06,-0.01 0.09,-0.02l0.01 0.01c-0.05,0.02 -0.1,0.04 -0.13,0.07 -0.08,0.06 -0.16,0.15 -0.16,0.25 -0.01,0.06 -0.01,0.11 -0.02,0.17 -0.01,-0.02 -0.03,-0.05 -0.04,-0.07 -0.01,0.05 -0.02,0.11 -0.03,0.16 -0.08,0.02 -0.15,0.05 -0.22,0.08 -0.06,0.02 -0.11,0.05 -0.16,0.08 -0.01,-0.01 -0.02,-0.02 -0.02,-0.02 0.04,-0.06 0.08,-0.13 0.1,-0.2 -0.01,-0.01 -0.02,-0.02 -0.04,-0.03 -0.03,-0.02 -0.06,-0.04 -0.09,-0.06 0.01,0 0.02,0 0.03,0 0.02,0.01 0.04,0.01 0.05,0.02 0.05,0.01 0.1,0.02 0.14,-0 0.07,-0.04 0.12,-0.1 0.16,-0.17 0.08,-0.13 0.2,-0.22 0.33,-0.28zm-0.44 0.51l0 0c0.03,0.01 0.07,0.01 0.1,0.01 0.01,-0.04 0.02,-0.08 0.01,-0.12 -0.04,0.04 -0.08,0.07 -0.11,0.11z"/>
   <path class="fil33" d="M1 1.15c0.08,-0.12 0.2,-0.23 0.36,-0.23 -0.13,0.06 -0.25,0.15 -0.33,0.28 -0.04,0.07 -0.09,0.13 -0.16,0.17 -0.04,0.02 -0.1,0.01 -0.14,0 0.13,-0.01 0.21,-0.12 0.28,-0.22z"/>
   <path class="fil33" d="M2.76 1.27c0.07,0.13 0.11,0.28 0.14,0.42 0.01,0.06 0.03,0.11 0.04,0.17 0.01,0.04 -0.03,0.07 -0.05,0.1 -0.05,-0.08 -0.09,-0.17 -0.14,-0.25 -0.03,-0.05 -0.05,-0.1 -0.08,-0.16 -0,0.02 -0,0.04 -0,0.06 -0.02,-0.04 -0.03,-0.08 -0.03,-0.13 0.07,0.07 0.11,0.16 0.18,0.23 -0.01,-0.13 -0.03,-0.25 -0.06,-0.37 -0,-0.03 -0.01,-0.05 -0.01,-0.08z"/>
   <path class="fil34" d="M2.35 0.93c0.03,0 0.06,0.03 0.08,0.04 -0.04,0.01 -0.08,0.01 -0.12,0.02 0,0.01 0,0.02 0.01,0.02 -0.01,-0.02 -0.02,-0.04 -0.03,-0.06 0.02,-0.01 0.04,-0.02 0.06,-0.03z"/>
   <path class="fil35" d="M2.01 0.95c0.04,-0.01 0.09,-0 0.14,-0 0.01,0.01 0.02,0.02 0.03,0.03 0.01,0.01 0.03,0.02 0.04,0.03 -0.02,-0 -0.03,-0 -0.05,-0 -0.04,-0 -0.09,-0.01 -0.13,-0.01 -0.02,0 -0.03,0 -0.05,0 0.01,-0.02 0.01,-0.03 0.02,-0.05z"/>
   <path class="fil36" d="M2.18 0.98c0.04,0.01 0.08,0 0.11,-0.02 0.01,0.02 0.02,0.04 0.03,0.06 0.01,0.02 0.01,0.04 0.02,0.07 -0.04,-0.02 -0.08,-0.05 -0.12,-0.08 -0.01,-0.01 -0.03,-0.02 -0.04,-0.03z"/>
   <path class="fil37" d="M2.92 0.95c0.02,0.04 0.03,0.07 0.03,0.11 -0.04,-0.03 -0.07,-0.06 -0.1,-0.1 0.02,0 0.03,0 0.05,0.01 0,-0.01 0.01,-0.02 0.02,-0.02z"/>
   <path class="fil38" d="M1.15 1.24c0.01,-0.11 0.08,-0.19 0.16,-0.25 -0.03,0.06 -0.08,0.1 -0.1,0.17 -0.02,0.06 -0.03,0.13 -0.03,0.19 0.02,-0.02 0.03,-0.04 0.05,-0.07 0,0 0,0.01 0,0.02 -0.02,0.11 -0.01,0.23 0,0.34 -0.05,-0.02 -0.09,-0.06 -0.12,-0.11 -0,0.01 -0,0.03 -0,0.04 -0.05,0 -0.1,0.01 -0.15,0.02 -0.05,0.01 -0.1,0.03 -0.15,0.04 -0.05,0.02 -0.1,0.04 -0.15,0.04 0,-0 0.01,-0.01 0.02,-0.01 0.05,-0.03 0.1,-0.06 0.16,-0.08 0.03,-0 0.06,-0 0.09,-0.02 0.05,-0.02 0.1,-0.04 0.15,-0.05 0,-0.03 0.01,-0.06 0.01,-0.08 0.03,0.03 0.05,0.06 0.08,0.09 -0.01,-0.09 -0.01,-0.19 -0.03,-0.28z"/>
   <path class="fil39" d="M2.03 1c0.04,0 0.09,0.01 0.13,0.01 0.02,0 0.03,0 0.05,0 0.04,0.03 0.08,0.05 0.12,0.08 -0.01,-0.02 -0.01,-0.04 -0.02,-0.07 -0,-0.01 -0,-0.02 -0.01,-0.02 0.04,-0.01 0.08,-0.01 0.12,-0.02 0.03,0.02 0.05,0.05 0.08,0.07 -0.06,0.01 -0.12,0.01 -0.17,0.05 -0.03,-0 -0.06,-0.01 -0.09,-0.01 -0.08,0.01 -0.16,0.01 -0.25,0 -0.01,0 -0.02,0.01 -0.03,0.01 -0,-0.04 -0,-0.07 0,-0.11 0.02,-0 0.03,-0 0.05,-0z"/>
   <path class="fil40" d="M2.68 1.11c0.05,0.03 0.09,0.07 0.14,0.11 -0.03,-0.01 -0.06,-0.02 -0.09,-0.01 0.01,0.02 0.01,0.03 0.02,0.05 -0,-0.01 -0.01,-0.02 -0.01,-0.02 -0.01,0.09 -0.01,0.17 -0.01,0.26 -0.06,-0.05 -0.11,-0.1 -0.17,-0.15 0.01,0.09 0.02,0.18 0.03,0.27 -0.04,-0.06 -0.08,-0.13 -0.13,-0.18 -0.04,-0.04 -0.08,-0.08 -0.12,-0.12 0.01,0.16 0.02,0.32 -0.02,0.47 -0,-0.1 0,-0.2 -0.01,-0.3 -0.01,-0.1 -0.03,-0.19 -0.05,-0.29 0.03,0.01 0.06,0.02 0.09,0.04 0.05,0.05 0.1,0.09 0.15,0.14 -0.01,-0.06 -0.01,-0.12 -0.01,-0.17 0.02,0.01 0.03,0.02 0.05,0.03 0,0 0.01,0.01 0.01,0.01 0.04,0.04 0.08,0.09 0.13,0.12 0,-0.08 0.01,-0.17 0.01,-0.26z"/>
   <path class="fil41" d="M1.15 1.24c0.01,0.09 0.01,0.19 0.03,0.28 -0.03,-0.03 -0.05,-0.06 -0.08,-0.09 -0,0.03 -0.01,0.06 -0.01,0.08 -0.05,0.01 -0.1,0.02 -0.15,0.05 -0.03,0.01 -0.06,0.02 -0.09,0.02 0.07,-0.03 0.14,-0.06 0.22,-0.08 0.01,-0.05 0.02,-0.11 0.03,-0.16 0.01,0.02 0.03,0.05 0.04,0.07 0,-0.06 0.01,-0.11 0.02,-0.17z"/>
   <path class="fil42" d="M1.48 1.47c0.02,-0.07 0.02,-0.13 0.03,-0.2 0.04,0.11 0.05,0.24 0.09,0.35 -0.01,-0.01 -0.02,-0.01 -0.02,-0.02 -0,0.01 -0.01,0.02 -0.01,0.02 -0.05,0.07 -0.08,0.17 -0.15,0.22 -0.07,0.01 -0.13,-0.01 -0.2,-0.02 0.03,-0 0.07,-0 0.1,-0.02 0.03,-0.02 0.05,-0.06 0.06,-0.09 0.04,-0.08 0.08,-0.16 0.1,-0.25z"/>
   <path class="fil43" d="M1.24 1.29c0.01,0.07 0.01,0.14 0.03,0.21 0.02,0.07 0.05,0.14 0.08,0.21 -0.04,-0 -0.08,-0 -0.12,-0.03 -0.03,-0.02 -0.05,-0.04 -0.09,-0.05 -0.07,-0 -0.13,0.02 -0.2,0.04 -0.02,0 -0.04,0.01 -0.06,0.01 -0.01,0 -0.02,0 -0.02,0 0.01,-0.01 0.03,-0.02 0.04,-0.02 0.07,-0.03 0.14,-0.04 0.2,-0.07 0,-0.01 0.01,-0.02 0.01,-0.03 0,-0.01 0,-0.03 0,-0.04 0.03,0.05 0.07,0.09 0.12,0.11 -0.01,-0.11 -0.02,-0.23 -0,-0.34z"/>
   <path class="fil44" d="M0.59 1.34c0.02,0.03 0.05,0.07 0.08,0.1 -0.03,0.01 -0.06,0.02 -0.08,0.02 0,0.01 0.01,0.03 0.01,0.04 -0.1,0.08 -0.21,0.17 -0.28,0.28 -0.02,0.03 -0.05,0.05 -0.08,0.07 -0.02,-0.01 -0.03,-0.02 -0.05,-0.02 0.01,-0.02 0.03,-0.04 0.04,-0.06 0.08,-0.11 0.18,-0.2 0.27,-0.29 0.04,-0.03 0.02,-0.09 0.03,-0.13 0.02,-0.03 0.05,-0.03 0.08,-0.04 -0,-0 -0,-0.01 -0,-0.01 0.01,0.01 0.02,0.02 0.03,0.03l-0.01 0c-0.01,0 -0.03,0 -0.04,0.01z"/>
   <path class="fil45" d="M0.59 1.34c0.01,-0 0.03,-0 0.04,-0.01 0.01,0 0.02,0.01 0.03,0.02 -0.01,-0 -0.02,-0 -0.03,-0 0.03,0.02 0.06,0.04 0.09,0.06 -0,0.01 -0,0.02 -0.01,0.02 -0.03,0.01 -0.05,0.02 -0.08,0.03 0.01,0.01 0.02,0.02 0.03,0.04 -0.11,0.1 -0.22,0.19 -0.29,0.32 -0.01,0.01 -0.02,0.02 -0.03,0.03 -0.04,0.01 -0.07,0.01 -0.11,0 0.03,-0.02 0.06,-0.04 0.08,-0.07 0.08,-0.11 0.18,-0.2 0.28,-0.28 -0,-0.01 -0.01,-0.03 -0.01,-0.04 0.03,-0.01 0.06,-0.02 0.08,-0.02 -0.03,-0.03 -0.05,-0.06 -0.08,-0.1z"/>
   <path class="fil46" d="M0.87 1.44c0.05,-0.05 0.11,-0.11 0.17,-0.16 0,0.06 -0.01,0.12 -0.02,0.18 -0.05,0 -0.1,-0 -0.15,-0.01z"/>
   <path class="fil47" d="M2.55 1.35c0.06,0.05 0.12,0.1 0.17,0.15 -0,-0.09 -0,-0.17 0.01,-0.26 0,0.01 0.01,0.02 0.01,0.02 0,0 0.01,0.01 0.01,0.02 0.01,0.03 0.01,0.05 0.01,0.08 -0,0.03 -0.01,0.07 -0.02,0.1 -0,0.04 0,0.07 0,0.11 -0.05,-0.05 -0.1,-0.1 -0.15,-0.14 0.02,0.11 0.06,0.23 0.05,0.35 -0.07,-0.1 -0.14,-0.2 -0.22,-0.3 0.01,-0.01 0.02,-0.03 0.03,-0.04 0.05,0.06 0.09,0.12 0.13,0.18 -0,-0.09 -0.02,-0.18 -0.03,-0.27z"/>
   <path class="fil48" d="M2.77 1.35c0.03,0.12 0.05,0.25 0.06,0.37 -0.07,-0.07 -0.11,-0.16 -0.18,-0.23 0,0.04 0.01,0.09 0.03,0.13l0 0.01c-0,0.08 0,0.15 0,0.23 -0.03,-0.06 -0.06,-0.12 -0.12,-0.16 -0.04,-0.06 -0.08,-0.13 -0.12,-0.19 0.02,0.07 0.04,0.13 0.05,0.2 -0,0.08 0.01,0.17 -0.01,0.25 -0.04,0.17 -0.08,0.33 -0.13,0.5 -0.02,0.08 -0.04,0.16 -0.07,0.23 -0.02,-0.13 -0.03,-0.27 -0.05,-0.41 -0.01,-0.09 -0.01,-0.17 -0.04,-0.26 -0.04,0.12 -0.05,0.24 -0.08,0.36 -0.02,0.09 -0.03,0.18 -0.09,0.25 -0.05,0.06 -0.1,0.12 -0.15,0.18 -0.01,-0.16 -0.01,-0.32 -0.02,-0.47 -0.07,0.13 -0.13,0.27 -0.21,0.4 -0.02,-0.18 -0.04,-0.35 -0.08,-0.52 -0.06,0.1 -0.1,0.21 -0.17,0.31 -0,-0.09 -0.01,-0.19 -0.01,-0.28 -0,-0.05 0.03,-0.09 0.06,-0.14 0.04,-0.06 0.06,-0.12 0.09,-0.18 0.01,-0.02 0.02,-0.04 0.03,-0.06 0.02,-0.03 0.03,-0.06 0.04,-0.09 0,0.01 0.01,0.03 0.01,0.04 -0.03,0.08 -0.01,0.16 -0.02,0.24 -0.02,0.1 0.02,0.21 0.04,0.31 0.02,0.09 0.02,0.17 0.04,0.26 0.03,-0.1 0.05,-0.21 0.06,-0.31 0,0 0.01,0 0.02,0 0.07,-0.16 0.14,-0.32 0.19,-0.49l0 0.01c0,0.08 -0.01,0.16 -0.02,0.25 -0.01,0.09 0.01,0.18 0.02,0.28 0.01,0.07 0.01,0.14 0.02,0.21 0.04,-0.04 0.08,-0.08 0.1,-0.14 0.06,-0.2 0.11,-0.4 0.16,-0.6 0.05,0.16 0.07,0.33 0.12,0.5 0.05,-0.14 0.08,-0.29 0.11,-0.43 0.04,-0.16 -0.01,-0.32 -0.04,-0.47 0.01,0.01 0.02,0.02 0.04,0.03 0.08,0.09 0.15,0.19 0.22,0.3 0.01,-0.12 -0.03,-0.23 -0.05,-0.35 0.06,0.04 0.1,0.09 0.15,0.14 -0,-0.04 -0,-0.07 -0,-0.11 0.01,-0.03 0.01,-0.07 0.02,-0.1z"/>
   <path class="fil48" d="M0.63 1.89c0.02,-0.02 0.03,-0.03 0.05,-0.05 0.03,0.01 0.07,0.03 0.1,0.04 -0.01,0.02 -0.01,0.04 -0.02,0.06 -0.06,0.08 -0.13,0.15 -0.21,0.21 0.04,-0.09 0.11,-0.15 0.16,-0.23 -0.03,-0.01 -0.05,-0.02 -0.08,-0.02z"/>
   <path class="fil49" d="M0.73 1.41c0.01,0.01 0.02,0.02 0.04,0.03 -0.02,0.07 -0.05,0.14 -0.1,0.2 0.01,0.01 0.02,0.02 0.02,0.02 -0,0 -0.01,0.01 -0.02,0.01 -0.01,0 -0.02,0.01 -0.03,0.01 -0.01,-0.02 -0.02,-0.03 -0.03,-0.05 0.06,-0.05 0.09,-0.12 0.11,-0.2 0,-0.01 0,-0.02 0.01,-0.02z"/>
   <path class="fil50" d="M0.64 1.46c0.03,-0.01 0.05,-0.02 0.08,-0.03 -0.01,0.08 -0.05,0.15 -0.11,0.2 0.01,0.02 0.02,0.03 0.03,0.05 -0.01,0.01 -0.03,0.02 -0.04,0.03 -0.08,0.02 -0.16,0.06 -0.23,0.11 0.08,-0.12 0.19,-0.22 0.29,-0.32 -0.01,-0.01 -0.02,-0.02 -0.03,-0.04z"/>
   <path class="fil51" d="M1.79 1.96c0.03,-0.14 0.04,-0.28 0.07,-0.42 0.03,0.07 0.06,0.14 0.07,0.21 -0.01,0.01 -0.03,0.01 -0.04,0.02 -0.02,0.07 -0.06,0.13 -0.1,0.19z"/>
   <path class="fil52" d="M1.58 1.6c0.01,0.01 0.02,0.01 0.02,0.02 0.06,0.16 0.11,0.32 0.16,0.48 0.01,-0.01 0.01,-0.02 0.02,-0.03 0.06,-0.08 0.1,-0.17 0.13,-0.26 0,0.01 0.01,0.02 0.01,0.02 -0.05,0.17 -0.12,0.33 -0.19,0.49 -0,-0 -0.01,-0 -0.02,-0 -0,-0.05 -0.01,-0.09 -0.02,-0.14 -0.02,-0.12 -0.06,-0.24 -0.09,-0.36 -0,-0.01 -0.01,-0.03 -0.01,-0.04 -0.01,0.03 -0.03,0.06 -0.04,0.09 -0.04,-0.01 -0.08,-0.01 -0.12,0.01 0.01,0.02 0.02,0.04 0.03,0.06 -0.02,0.01 -0.04,0.02 -0.06,0.03 0.01,-0.02 0.02,-0.04 0.03,-0.05 -0.02,-0.01 -0.03,-0.01 -0.05,-0.02 -0.04,-0.01 -0.07,-0.02 -0.11,-0.03 -0,-0.01 -0.01,-0.02 -0.01,-0.03 0.07,0.01 0.15,0.02 0.22,0.01 0.04,-0.08 0.07,-0.16 0.09,-0.24 0,-0.01 0.01,-0.02 0.01,-0.02z"/>
   <path class="fil53" d="M0.67 1.67c0.05,-0.01 0.1,-0.03 0.15,-0.04 0.05,-0.02 0.1,-0.03 0.15,-0.04 0.05,-0.01 0.1,-0.02 0.15,-0.02 -0,0.01 -0.01,0.02 -0.01,0.03 -0.06,0.03 -0.13,0.04 -0.2,0.07 -0.01,0.01 -0.03,0.02 -0.04,0.02 0.01,-0 0.02,-0 0.02,-0 -0.01,0.01 -0.01,0.02 -0.02,0.03 0.05,0.01 0.09,0.02 0.14,0.04 0.04,0.02 0.07,0.06 0.11,0.09 0.04,0.02 0.09,0.03 0.14,0.04l0.01 0c0.04,0.01 0.07,0.02 0.11,0.03 -0.01,0.03 -0.03,0.06 -0.05,0.08 -0.03,-0.03 -0.07,-0.07 -0.12,-0.08 -0.06,-0.02 -0.12,-0.02 -0.17,-0.07 -0.02,-0.03 -0.04,-0.06 -0.07,-0.07 -0.09,-0.04 -0.18,-0.06 -0.28,-0.06 -0.03,-0 -0.06,-0 -0.08,0 0.01,-0.01 0.03,-0.02 0.04,-0.03 0.01,-0 0.02,-0.01 0.03,-0.01z"/>
   <path class="fil54" d="M1.42 1.85c0.07,-0.06 0.1,-0.15 0.15,-0.22 -0.02,0.08 -0.05,0.16 -0.09,0.24 -0.07,0.01 -0.15,0.01 -0.22,-0.01 0,0.01 0.01,0.02 0.01,0.03l-0.01 -0c-0.03,-0.02 -0.06,-0.04 -0.09,-0.06 0.02,0 0.03,0 0.05,0.01 0.07,0.01 0.13,0.04 0.2,0.02z"/>
   <path class="fil55" d="M2.68 1.63c0.05,0.15 0.05,0.32 0.03,0.47 -0.02,-0.06 -0.04,-0.12 -0.06,-0.19 -0.03,-0.07 -0.06,-0.14 -0.09,-0.21 0.06,0.04 0.08,0.1 0.12,0.16 0,-0.08 -0,-0.15 -0,-0.23z"/>
   <path class="fil56" d="M0.6 1.71c0.03,-0 0.06,-0 0.08,-0 0.04,0.02 0.08,0.04 0.12,0.04 0.08,0.01 0.16,0.06 0.23,0.09 0.04,0.05 0.11,0.05 0.17,0.07 0.05,0.01 0.08,0.05 0.12,0.08 0.03,-0.02 0.05,-0.05 0.05,-0.08 0.02,0.01 0.03,0.01 0.05,0.02 -0.01,0.02 -0.02,0.04 -0.03,0.05 -0.03,0.04 -0.06,0.08 -0.1,0.12 -0.02,-0.06 -0.04,-0.14 -0.11,-0.16 -0.06,-0.04 -0.14,-0.04 -0.2,-0.08 -0.12,-0.1 -0.28,-0.12 -0.43,-0.12 0.02,0.01 0.04,0.01 0.06,0.02 -0.01,-0 -0.03,-0 -0.04,-0 -0.05,0 -0.1,0.02 -0.13,0.06 -0.03,0 -0.07,0.01 -0.1,0.02 -0.01,0 -0.02,0 -0.02,0.01 0.01,-0.01 0.02,-0.02 0.03,-0.03 0.07,-0.05 0.14,-0.09 0.23,-0.11z"/>
   <path class="fil57" d="M0.68 1.7c0.1,-0 0.19,0.02 0.28,0.06 0.03,0.02 0.05,0.05 0.07,0.07 -0.08,-0.04 -0.15,-0.08 -0.23,-0.09 -0.04,-0 -0.09,-0.02 -0.12,-0.04z"/>
   <path class="fil58" d="M3.14 1.72c0.02,0.02 0.05,0.05 0.07,0.07 0,-0 0.01,-0.01 0.01,-0.01 0.01,-0 0.02,-0.01 0.03,-0.02 -0.02,0.05 -0.05,0.09 -0.03,0.14 -0.02,0.09 -0.07,0.17 -0.1,0.25 -0.06,0.12 -0.13,0.25 -0.19,0.37 -0,0 -0,0 -0,0 -0.06,0.09 -0.12,0.17 -0.18,0.26 -0,0 -0,0 -0,0 -0.06,0.09 -0.12,0.18 -0.19,0.26 -0.05,0.05 -0.09,0.11 -0.14,0.16 -0,0 -0,0 -0,0 -0.11,0.11 -0.21,0.23 -0.33,0.33 -0.11,-0.05 -0.23,-0.1 -0.34,-0.14 0.01,-0.01 0.03,-0.02 0.04,-0.03 0.02,0.01 0.04,0.02 0.07,0.02 0.03,-0.02 0.05,-0.05 0.08,-0.07 -0,0.03 -0.01,0.07 -0.01,0.1 0.05,0.02 0.11,0.04 0.16,0.06 0.08,-0.08 0.17,-0.16 0.25,-0.25 0.06,-0.06 0.11,-0.12 0.16,-0.19 0.07,-0.11 0.08,-0.25 0.13,-0.38 0.01,0.07 0.01,0.14 0.02,0.21 0.06,-0.08 0.12,-0.16 0.17,-0.25 0.08,-0.1 0.08,-0.23 0.08,-0.35 0.02,0.04 0.04,0.08 0.06,0.12 0.07,-0.13 0.14,-0.26 0.2,-0.39 0.02,-0.04 0.04,-0.09 0.04,-0.13 -0,-0.06 -0.02,-0.11 -0.03,-0.17z"/>
   <path class="fil59" d="M2.48 1.97c0.02,-0.08 0.01,-0.16 0.01,-0.25 0.05,0.1 0.03,0.22 0.02,0.33 -0.03,0.24 -0.1,0.47 -0.18,0.7 -0.02,0.05 -0.05,0.1 -0.09,0.13 -0,-0.1 -0.01,-0.19 -0.01,-0.29 -0,-0.1 -0.02,-0.19 -0.03,-0.29 -0,-0.04 -0.01,-0.08 -0.02,-0.11 -0.03,0.16 -0.04,0.32 -0.1,0.47 -0.02,0.08 -0.07,0.15 -0.12,0.22 -0.05,0.07 -0.1,0.14 -0.15,0.2 -0.01,-0.18 0,-0.36 -0.01,-0.54 -0.04,0.07 -0.07,0.14 -0.11,0.21 -0.04,0.07 -0.08,0.14 -0.13,0.21 -0,-0.09 0.01,-0.19 0,-0.28 -0,-0.13 -0.02,-0.26 -0.04,-0.39 -0.05,0.15 -0.11,0.3 -0.21,0.42 -0.01,-0.1 -0,-0.2 -0.01,-0.31 -0,-0.07 -0.01,-0.13 -0.01,-0.2 -0,-0.03 0.02,-0.05 0.03,-0.06 0.06,-0.07 0.11,-0.14 0.17,-0.21 -0.02,0.06 -0.05,0.12 -0.09,0.18 -0.03,0.04 -0.06,0.08 -0.06,0.14 0,0.09 0.01,0.19 0.01,0.28 0.07,-0.1 0.1,-0.21 0.17,-0.31 0.05,0.17 0.07,0.35 0.08,0.52 0.08,-0.13 0.14,-0.27 0.21,-0.4 0.01,0.16 0.01,0.31 0.02,0.47 0.05,-0.06 0.1,-0.12 0.15,-0.18 0.06,-0.07 0.07,-0.17 0.09,-0.25 0.03,-0.12 0.05,-0.24 0.08,-0.36 0.02,0.08 0.02,0.17 0.04,0.26 0.02,0.14 0.03,0.27 0.05,0.41 0.03,-0.07 0.05,-0.15 0.07,-0.23 0.05,-0.16 0.09,-0.33 0.13,-0.5z"/>
   <path class="fil59" d="M0.65 2.41c0.07,-0.03 0.14,-0.08 0.22,-0.1 -0.02,0.03 -0.05,0.06 -0.07,0.1 0.09,-0.03 0.18,-0.05 0.27,-0.04 -0.11,0.04 -0.23,0.1 -0.3,0.2 0.03,0 0.06,0.01 0.08,0.01 -0.04,0.06 -0.08,0.11 -0.12,0.17 -0.02,-0.01 -0.03,-0.02 -0.05,-0.03 0.02,-0.03 0.04,-0.06 0.06,-0.09 -0.03,-0.01 -0.06,-0.01 -0.09,-0.02 0.04,-0.04 0.09,-0.09 0.13,-0.13 -0.02,0 -0.03,0 -0.05,0.01 0.01,-0.02 0.02,-0.05 0.03,-0.07 -0.11,0.03 -0.19,0.12 -0.3,0.13 -0,0.01 -0,0.03 -0,0.03 -0,0.01 -0,0.02 -0,0.02 -0.01,-0.03 -0.01,-0.06 -0.01,-0.09 0.09,0.01 0.15,-0.06 0.22,-0.09z"/>
   <path class="fil60" d="M0.57 1.75c0.15,0 0.31,0.02 0.43,0.12 0.06,0.05 0.13,0.05 0.2,0.08 -0.05,-0.01 -0.1,-0.01 -0.14,-0.01 -0.01,0.01 -0.02,0.02 -0.03,0.03 -0.06,-0.02 -0.13,-0.03 -0.19,-0.02 -0.02,0.02 -0.04,0.03 -0.06,0.05 -0.1,0.1 -0.22,0.18 -0.34,0.26 0.03,-0.04 0.07,-0.07 0.11,-0.11 0.08,-0.06 0.15,-0.13 0.21,-0.21 0.04,-0.03 0.09,-0.05 0.13,-0.07 -0.07,-0.03 -0.15,-0.08 -0.22,-0.03 -0.02,0.02 -0.03,0.03 -0.05,0.05 -0.05,0.06 -0.11,0.11 -0.17,0.17 0.02,-0.03 0.03,-0.05 0.05,-0.08 0.06,-0.06 0.1,-0.13 0.14,-0.2 -0.01,-0 -0.02,-0.01 -0.02,-0.01 -0.02,-0.01 -0.04,-0.01 -0.06,-0.02z"/>
   <path class="fil61" d="M1.9 1.77c0.01,-0.01 0.03,-0.01 0.04,-0.02 0,0.01 0,0.02 0,0.02 -0,0.02 -0.01,0.05 -0.01,0.07l-0 -0.01c-0,-0.01 -0.01,-0.02 -0.01,-0.02 -0.04,0.09 -0.07,0.18 -0.13,0.26 -0,-0.04 0,-0.08 0.01,-0.11 0.04,-0.06 0.08,-0.12 0.1,-0.19z"/>
   <path class="fil62" d="M0.47 1.82c0.03,-0.04 0.08,-0.06 0.13,-0.06 -0.03,0.07 -0.07,0.14 -0.08,0.21 -0.02,0.03 -0.04,0.05 -0.05,0.08 0.06,-0.05 0.12,-0.11 0.17,-0.17 0.03,0.01 0.05,0.02 0.08,0.02 -0.04,0.08 -0.12,0.15 -0.16,0.23 -0.04,0.03 -0.08,0.07 -0.11,0.11 0.12,-0.08 0.23,-0.16 0.34,-0.26 0.09,0.01 0.17,0.04 0.24,0.09 -0.02,0 -0.04,0.01 -0.05,0.01 -0.14,0.04 -0.28,0.11 -0.39,0.21 -0.04,0.02 -0.08,0.05 -0.12,0.07 -0.04,0 -0.08,-0.01 -0.13,-0.02 -0.04,-0.05 -0.07,-0.11 -0.07,-0.17 -0,-0.04 -0.01,-0.09 0.02,-0.12 0.06,-0.08 0.13,-0.16 0.2,-0.24z"/>
   <path class="fil62" d="M1.58 2.07c0.01,-0.08 -0.01,-0.16 0.02,-0.24 0.04,0.12 0.08,0.23 0.09,0.36 0.01,0.05 0.02,0.09 0.02,0.14 -0.01,0.11 -0.03,0.21 -0.06,0.31 -0.01,-0.09 -0.02,-0.17 -0.04,-0.26 -0.02,-0.1 -0.06,-0.2 -0.04,-0.31z"/>
   <path class="fil63" d="M0.59 1.76c0.01,0 0.03,0 0.04,0 0.01,0 0.02,0.01 0.02,0.01 -0.04,0.07 -0.08,0.14 -0.14,0.2 0.02,-0.08 0.05,-0.14 0.08,-0.21z"/>
   <path class="fil64" d="M0.67 1.84c0.07,-0.04 0.15,0.01 0.22,0.03 -0.05,0.02 -0.1,0.03 -0.13,0.07 0.01,-0.02 0.01,-0.04 0.02,-0.06 -0.03,-0.01 -0.07,-0.03 -0.1,-0.04z"/>
   <path class="fil65" d="M0.16 1.85c0.01,-0.01 0.02,-0.02 0.02,-0.03 0.02,0.01 0.03,0.02 0.05,0.02 0.04,0.01 0.07,0.01 0.11,-0 0.01,-0 0.02,-0 0.02,-0.01 0,0.01 0.01,0.03 0.01,0.04 -0.01,0 -0.02,0.01 -0.03,0.01 -0.03,-0.01 -0.06,-0.01 -0.1,-0.02 -0.03,-0.01 -0.06,-0.02 -0.09,-0.03z"/>
   <path class="fil66" d="M0.16 1.85c0.03,0.01 0.06,0.02 0.09,0.03 -0.03,0.03 -0.07,0.04 -0.11,0.03 -0,-0.01 -0.01,-0.02 -0.01,-0.03 0.01,-0.01 0.02,-0.03 0.04,-0.04z"/>
   <path class="fil67" d="M0.18 2.08c-0.03,-0.06 -0.05,-0.12 -0.05,-0.19 0,0.01 0.01,0.02 0.01,0.03 0.04,0 0.08,-0 0.11,-0.03 0.03,0.01 0.06,0.01 0.1,0.02 -0.06,0.04 -0.12,0.05 -0.18,0.04 0.01,0.05 0.01,0.09 0.02,0.14z"/>
   <path class="fil68" d="M0.83 1.94c0.06,-0.02 0.13,-0 0.19,0.02 0.05,0.02 0.11,0.05 0.15,0.09 -0.03,0.01 -0.05,0.01 -0.08,0.02 0,-0.01 0,-0.02 0.01,-0.02 -0.08,-0.05 -0.17,-0.09 -0.27,-0.11z"/>
   <path class="fil69" d="M0.77 1.99c0.02,-0.02 0.04,-0.04 0.06,-0.05 0.1,0.01 0.19,0.05 0.27,0.11 -0,0 -0,0.02 -0.01,0.02 -0.03,0 -0.05,0.01 -0.08,0.01 -0.07,-0.05 -0.16,-0.08 -0.24,-0.09z"/>
   <path class="fil70" d="M0.57 2.31c0.11,-0.1 0.25,-0.17 0.39,-0.21 0.05,0 0.11,0 0.16,0.01 -0,0.02 -0,0.03 -0.01,0.05 -0.01,0 -0.03,0 -0.04,0 -0.06,-0.01 -0.12,-0.01 -0.18,0 -0.12,0.04 -0.22,0.11 -0.33,0.15z"/>
   <path class="fil71" d="M1.12 2.1c0.02,0 0.04,0 0.06,0.01 0,0.02 0.01,0.04 0.01,0.05 -0.04,-0 -0.08,-0 -0.11,-0.01 0.01,-0 0.03,-0 0.04,-0 0,-0.02 0,-0.03 0.01,-0.05z"/>
   <path class="fil72" d="M0.06 2.12c0,0 0,0 0,0.01 -0,-0 -0,-0 -0,-0.01z"/>
   <path class="fil72" d="M0.12 2.28c0,0 0,0 0,0 -0,-0 -0,-0 -0,-0z"/>
   <path class="fil73" d="M0.19 2.41c0,0 0,0 0,0 -0,-0 -0,-0 -0,-0z"/>
   <path class="fil74" d="M0.45 2.57c0.07,0.01 0.12,-0.03 0.17,-0.06 0,0.01 0,0.02 0,0.03 0.01,0 0.03,0.01 0.04,0.01 -0.03,0.04 -0.05,0.08 -0.04,0.13 -0.04,-0.03 -0.09,-0.05 -0.12,-0.09 -0,0.02 -0,0.04 -0.01,0.06 -0.02,-0.02 -0.03,-0.04 -0.05,-0.06 0,-0.01 0,-0.02 0,-0.02z"/>
   <path class="fil75" d="M2.92 2.53c0,-0 0,-0 0,-0 -0,0 -0,0 -0,0z"/>
   <path class="fil75" d="M1.35 3.24c0,0 0,0 0.01,0 -0,-0 -0,-0 -0.01,-0z"/>
   <path class="fil76" d="M1.14 2.62c0.01,-0 0.02,-0.01 0.02,-0.01 -0.01,0.04 -0.01,0.07 -0.02,0.1 0,-0.03 0,-0.06 -0,-0.1z"/>
   <path class="fil77" d="M1.13 2.75c0,-0 0,-0 0,-0.01 -0,0 -0,0 -0,0.01z"/>
   <path class="fil78" d="M2.74 2.8c0,-0 0,-0 0,-0 -0,0 -0,0 -0,0z"/>
   <path class="fil78" d="M0.67 2.92c0,0 0,0 0,0 -0,-0 -0,-0 -0,-0z"/>
   <path class="fil79" d="M0.72 2.94c0,0 0,0 0,0 -0,-0 -0,-0 -0,-0z"/>
   <path class="fil0" d="M1.04 2.99c0,-0 0,-0 0,-0 -0,0 -0,0 -0,0z"/>
   <path class="fil80" d="M1.06 3.11c0,0 0,0 0,0 -0,-0 -0,-0 -0,-0z"/>
   <path class="fil81" d="M1.12 3.13c0,0 0,0 0.01,0 -0,-0 -0,-0 -0.01,-0z"/>
   <path class="fil73" d="M1.13 3.14c0,0 0,0 0.01,0 -0,-0 -0,-0 -0.01,-0z"/>
   <path class="fil82" d="M1.2 3.17c0,0 0,0 0,0 -0,-0 -0,-0 -0,-0z"/>
   <path class="fil17" d="M2.4 3.22c0,-0 0,-0 0,-0 -0,0 -0,0 -0,0z"/>
   <path class="fil83" d="M1.33 3.23c0,0 0,0 0.01,0 -0,-0 -0,-0 -0.01,-0z"/>
   <path class="fil84" d="M1.57 3.34c0,0 0,0 0,0 -0,-0 -0,-0 -0,-0z"/>
   <path class="fil85" d="M1.63 3.36c0,0 0,0 0,0 -0,-0 -0,-0 -0,-0z"/>
  </g>
 </g>
</svg>
