<?xml version="1.0" encoding="UTF-8"?>
<!DOCTYPE svg PUBLIC "-//W3C//DTD SVG 1.1//EN" "http://www.w3.org/Graphics/SVG/1.1/DTD/svg11.dtd">
<!-- Creator: CorelDRAW 2018 (64-Bit) -->
<svg xmlns="http://www.w3.org/2000/svg" xml:space="preserve" width="7.73155in" height="8.2383in" version="1.1" style="shape-rendering:geometricPrecision; text-rendering:geometricPrecision; image-rendering:optimizeQuality; fill-rule:evenodd; clip-rule:evenodd"
viewBox="0 0 830.46 884.89"
 xmlns:xlink="http://www.w3.org/1999/xlink">
 <defs>
  <style type="text/css">
   <![CDATA[
    .fil1 {fill:#FEFEFE;fill-rule:nonzero}
    .fil0 {fill:#452C01;fill-rule:nonzero}
    .fil4 {fill:#EA9E16;fill-rule:nonzero}
    .fil2 {fill:#FAD95E;fill-rule:nonzero}
    .fil3 {fill:#FDFDFD;fill-rule:nonzero}
   ]]>
  </style>
 </defs>
 <g id="Layer_x0020_1">
  <metadata id="CorelCorpID_0Corel-Layer"/>
  <g id="_1017833344">
   <g>
    <g>
     <path class="fil0" d="M288.82 26.1c40.98,-13.93 88.49,-12.71 126.45,9.34 24.94,-14.58 54.51,-20.07 83.16,-18.04 19.79,1.44 39.49,6 57.45,14.49 0.37,0.34 1.11,1.01 1.48,1.34 -7.39,1.42 -14.9,3.07 -21.53,6.78 40.54,-0.27 80.18,16.55 110.39,43.16 4.75,4.4 9.57,8.81 13.43,14.04 -11.43,-3.76 -23.4,-6.65 -35.52,-6.06 33.26,16.63 57.55,45.99 78.88,75.63 15.58,21.53 29.77,44.08 46.46,64.81 14.5,17.69 31.97,35.83 55.49,40.01 -7.28,14.84 -20.26,26.97 -36.05,32.18 -11.55,4.03 -23.97,4.64 -36.08,3.75 16.27,16.07 26.81,37.18 32.09,59.29 9.99,41.84 5.11,87.08 -13.26,125.95 -2.97,-20.83 -9.97,-43.03 -27.25,-56.43 8.78,19.51 9.32,41.57 6.72,62.48 -3.18,24.48 -10.71,48.31 -21.5,70.47 -9.15,18.55 -20.74,36.24 -36.21,50.15 4.12,-13.8 5.87,-28.2 6.22,-42.56 0.12,-8.79 -0.23,-17.67 -2.21,-26.25 -1.47,3.67 -1.69,7.64 -2.49,11.48 -8.41,43.52 -27.76,84.61 -54.5,119.85 -26.47,34.75 -60.09,64.45 -99.09,84.39 5.81,-12.92 11.68,-26.24 12.42,-40.59 -6.71,9.5 -14.58,18.15 -23.71,25.38 -15.79,12.8 -32.97,23.82 -48.07,37.48 -18.1,16.11 -33.33,35.42 -44.82,56.75 -0.75,0.82 -0.86,2.81 -2.32,2.54 -10.4,-19.4 -23.47,-37.44 -39.31,-52.76 -14.69,-14.53 -31.84,-26.2 -48.26,-38.63 -11.64,-8.68 -22.32,-18.76 -30.48,-30.82 0.68,14.36 6.61,27.7 12.38,40.64 -33.07,-16.87 -62.23,-40.88 -86.49,-68.87 -30.93,-35.79 -53.96,-78.71 -64.82,-124.86 -2.02,-7.21 -2.48,-14.8 -4.73,-21.91 -1.94,8.18 -2.29,16.63 -2.24,25.01 0.23,14.75 2.07,29.54 6.2,43.73 -15.89,-14.36 -27.73,-32.62 -36.98,-51.8 -9.67,-20.23 -16.59,-41.82 -20.02,-63.99 -3.34,-22.38 -3.37,-46.21 6.01,-67.23 -17.04,13.35 -24.55,35.33 -26.9,56.16 -1.37,-1.65 -2.21,-3.58 -2.96,-5.56 -12.33,-28.5 -17.39,-60.05 -15.18,-90.99 1.99,-26.49 9.35,-53.26 25.09,-74.99 3.4,-4.89 7.68,-9.03 11.56,-13.49 -16.65,1.39 -34.25,-0.68 -48.64,-9.68 -10.19,-6.2 -18.1,-15.64 -23.49,-26.19 10.72,-1.91 20.64,-6.93 29.22,-13.53 13.14,-10.08 23.75,-22.96 33.72,-36.08 24.9,-33.26 45.91,-69.71 75.35,-99.36 12.42,-12.69 26.79,-23.39 42.51,-31.63 -12.11,-0.38 -24.06,2.36 -35.49,6.15 13.99,-17.1 32.51,-30.09 52.13,-40.01 22.16,-11.01 46.77,-17.42 71.6,-17.13 -6.62,-3.9 -14.26,-5.37 -21.68,-6.89 4.75,-3.4 10.54,-4.94 15.91,-7.06zm68.41 21.83l0 0c0.32,0.09 0.97,0.23 1.3,0.32 9.13,9.79 16.6,21.3 20.47,34.21 -13.09,-8.76 -28.93,-11.78 -44.27,-13.79 -18.7,-2.13 -37.78,-2.26 -56.34,1.1 -3.81,0.7 -7.64,1.47 -11.2,3.07 5.12,-0.33 10.17,0.67 15.25,0.84 15.29,3.26 30.46,7.61 44.39,14.86 20.19,10.33 39.04,25.02 50.51,44.88 -21.96,-10.4 -46.52,-15.51 -70.81,-14.09 -7.53,0.72 -15.31,1.48 -22.24,4.73 8.64,2.92 16.83,7.02 24.61,11.75 19.35,11.83 36.64,27.17 50.02,45.53 19.63,-0.17 39.24,5.04 56.32,14.7 17.12,-9.68 36.75,-14.86 56.43,-14.74 7.54,-10.31 16.19,-19.82 25.98,-28.06 14.46,-12.23 30.57,-22.95 48.57,-29.17 -6.94,-3.24 -14.75,-4.03 -22.29,-4.73 -24.31,-1.43 -48.89,3.74 -70.89,14.13 12.61,-21.39 33.32,-36.93 55.55,-47.29 12.15,-5.87 25.25,-9.2 38.28,-12.37 5.49,-0.2 10.93,-1.26 16.44,-1.05 -3.57,-1.48 -7.36,-2.29 -11.13,-2.97 -19.81,-3.57 -40.2,-3.26 -60.11,-0.64 -14.09,2.1 -28.56,5.22 -40.55,13.32 3.87,-12.88 11.29,-24.43 20.47,-34.17 0.28,-0.07 0.86,-0.22 1.15,-0.29 -4.62,-0.38 -9.23,0.31 -13.75,1.17 -15.99,3.18 -31.53,9.72 -44.13,20.19 -16.28,-13.11 -37.08,-21.17 -58.03,-21.44zm-127.69 124.48l0 0c-2.4,9.84 -0.84,20.25 3.04,29.49 5.17,12.56 14.51,24.65 27.78,29.15 -9.79,-11.6 -16.08,-26.85 -14.35,-42.2 9.68,-1.03 19.57,0.79 28.4,4.8 15.18,6.87 27.13,19.41 35.77,33.43 -23.72,9.72 -45.49,25.56 -59.96,46.91 11.79,-6.05 24.42,-11.55 37.85,-12.14 -7.97,5.18 -14.59,12.18 -20.36,19.68 -13.79,18.17 -22.4,40.45 -23.26,63.32 6.22,-9.77 15.14,-18.32 26.17,-22.29 2.41,25.43 14.65,48.3 22.92,72.1 4.64,12.61 7.61,25.75 9.48,39.05 5,-12.64 10.42,-26.85 5.16,-40.32 11.97,9.09 16.74,25.36 13.38,39.77l0.34 0.54c-0.9,3.4 -1.59,6.87 -2.47,10.28 5.84,11.26 16.61,19.6 28.92,22.62 -11.4,2.14 -23.38,0.5 -33.89,-4.36 -1.58,5.61 -2.52,11.37 -3.34,17.13 10.31,8.02 24.35,11.09 37.03,7.77 -9.31,8.03 -21.91,11.76 -34.09,11.75 3.03,7.87 9.09,14.31 15.92,19.08 10.08,0.94 20.17,-3.31 28.07,-9.44 -2.4,5.21 -5.98,9.73 -9.83,13.92 17.58,-0.94 35.32,-4.09 51.48,-11.22 5.77,-6.55 8.44,-16.54 5.07,-24.84 -1.16,-3.15 -3.7,-5.41 -5.77,-7.96 -3.26,-8.32 -6.61,-17.22 -13.69,-23.12 -2.49,-2.03 -6.25,-3.81 -9.3,-1.92 -2.97,1.99 -3.1,5.88 -3.45,9.07 -5.49,-3.18 -10.57,-7.03 -14.86,-11.71 -5.94,-7.1 -8.96,-16.34 -8.09,-25.58 1.12,-7.2 3.56,-14.17 7.35,-20.4l0.27 0.33c-0.92,10.66 2.27,22.07 10.66,29.16 3.18,-1.93 6.77,-3.64 10.61,-2.85 12.64,1.59 25.12,5.05 37.95,4.63 12.41,0.09 24.41,-3.45 36.65,-4.72 3.48,-0.53 6.59,1.31 9.5,2.93 8.26,-7.05 11.6,-18.36 10.6,-28.94 0.12,-0.13 0.38,-0.42 0.5,-0.55 3.46,6.36 6.1,13.19 7.16,20.39 0.86,9.24 -2.15,18.5 -8.1,25.59 -4.28,4.68 -9.37,8.52 -14.85,11.71 -0.37,-3.19 -0.48,-7.09 -3.45,-9.07 -3.09,-1.89 -6.84,-0.1 -9.35,1.96 -6.82,5.77 -10.33,14.31 -13.32,22.49 -1.64,2.73 -4.47,4.62 -5.67,7.65 -3.89,7.98 -1.43,17.6 3.52,24.54 0.99,1.58 2.92,2.03 4.53,2.74 15.35,5.84 31.69,8.91 48.07,9.68 -3.86,-4.2 -7.39,-8.75 -9.86,-13.92 6.45,4.95 14.05,8.56 22.22,9.42 2.22,0.06 4.85,1.06 6.78,-0.55 6.51,-4.69 11.73,-11.02 15.28,-18.21 -12.22,-0.57 -24.96,-3.83 -34.34,-12.05 12.69,3.31 26.72,0.24 37.04,-7.76 -0.76,-5.78 -1.81,-11.51 -3.29,-17.14 -10.49,4.69 -22.49,6.75 -33.79,4.16 12.36,-2.74 22.98,-11.34 28.82,-22.49 -0.77,-3.03 -2.05,-6.12 -1.41,-9.3 -0.64,0.12 -1.92,0.35 -2.57,0.48 0.53,-0.98 1.05,-1.97 1.56,-2.96 -2.88,-14.18 1.97,-29.82 13.6,-38.77 -5.11,13.19 -0.05,27.14 4.85,39.55 1.36,-2.7 1.33,-5.78 1.87,-8.69 2.58,-15.6 8.04,-30.52 13.84,-45.17 7.19,-18.28 15.22,-36.68 17,-56.47 11.06,3.91 19.96,12.53 26.2,22.28 -1.38,-32.19 -17.5,-63.54 -43.09,-83.16 13.18,1.09 25.62,6.18 37.24,12.25 -14.38,-21.33 -36.16,-37.19 -59.86,-46.8 6.23,-10.41 14.43,-19.74 24.27,-26.86 11.41,-8.26 25.73,-13 39.88,-11.43 1.8,15.39 -4.69,30.48 -14.24,42.24 13.15,-4.71 22.51,-16.6 27.67,-29.17 3.89,-9.24 5.41,-19.65 3.08,-29.49 -11.18,-2.88 -22.98,-2.77 -34.28,-0.72 -21.14,3.86 -40.87,14.43 -56.23,29.39 -5.98,5.59 -10.83,12.2 -15.64,18.77 -17.28,-2.92 -36.13,-2.22 -51.86,6.16 9.17,0.38 18,2.99 26.41,6.49 2.35,1.44 4.86,2.66 6.84,4.64 -6.38,-0.72 -12.78,0.39 -18.97,1.91 -15.89,4.25 -31.46,12.11 -42.03,25.02 -4.97,-6.11 -11.15,-11.15 -17.93,-15.11 -13.14,-7.42 -28.15,-12.85 -43.41,-11.86 2.3,-1.76 4.84,-3.17 7.31,-4.69 4.09,-1.3 7.98,-3.26 12.2,-4.22 4.63,-1.44 9.52,-1.42 14.21,-2.55 -16.16,-7.55 -34.65,-8.92 -52.07,-5.82 -4.71,-6.62 -9.62,-13.15 -15.56,-18.72 -12.15,-11.84 -27,-20.94 -43.16,-26.12 -15.18,-4.89 -31.74,-6.53 -47.32,-2.6zm-99.58 175.97l0 0c7.83,-20.58 23.45,-37.17 40.91,-50.11 12.27,-8.89 25.73,-16.63 40.55,-20.23 -15.45,-4.64 -32.16,-0.35 -46.21,6.64 1.99,-7.2 6.01,-13.51 10.45,-19.41 -29.96,15.31 -47.49,49.98 -45.7,83.11zm524.86 -83.15l0 0c4.52,5.87 8.48,12.25 10.51,19.44 -14.04,-6.97 -30.73,-11.28 -46.15,-6.65 14.8,3.67 28.27,11.35 40.52,20.26 17.45,12.92 32.97,29.52 40.91,50.02 1.74,-33.13 -15.8,-67.77 -45.78,-83.08zm-492.66 107.39l0 0c-9.12,25.45 -13.27,53.65 -6.58,80.18 1.22,-3.78 1.76,-7.72 2.81,-11.54 4.13,-15.55 12.63,-30.44 25.92,-39.89 -9.56,55.58 5,114.21 36.42,160.68 0.26,-8.84 1.93,-17.53 3.21,-26.24 1.75,-4.56 2.7,-9.35 4.3,-13.94 7.32,-22.4 19.19,-43.52 22.12,-67.21 3.12,-23.06 -2.81,-46.28 -12,-67.31 -1.67,2.98 -1.17,6.6 -1.45,9.9 -0.34,11.01 1.88,22.79 -2.92,33.13 -2.73,-14.83 -9.94,-28.24 -15.11,-42.28 -6.98,-17.92 -11.06,-37.37 -8.65,-56.64 0.45,-5.74 2.22,-11.27 2.82,-16.98 1,-1.49 1.17,-3.36 1.76,-5 -25.72,12.22 -43.03,37.02 -52.66,63.13zm453.6 -63.13l0 0c0.53,1.67 0.7,3.61 1.76,5.1 0.49,5.45 2.25,10.69 2.71,16.17 2.62,19.75 -1.64,39.73 -8.86,58.09 -5.15,13.77 -12.17,26.99 -14.83,41.57 -4.95,-10.78 -2.46,-22.98 -2.96,-34.42 -0.32,-2.87 0.18,-6.1 -1.47,-8.63 -9.12,21.07 -15.09,44.26 -11.94,67.32 2.95,23.69 14.79,44.81 22.13,67.22 1.6,4.58 2.52,9.4 4.3,13.93 1.23,8.75 2.98,17.45 3.17,26.33 31.37,-46.55 46.04,-105.16 36.45,-160.8 6.81,4.85 12.48,11.22 16.83,18.35 6.39,9.96 9.2,21.56 11.9,32.93 3.94,-14.59 3.97,-29.98 2.09,-44.89 -2.99,-22.45 -10.45,-44.5 -22.89,-63.5 -9.52,-14.62 -22.57,-27.16 -38.4,-34.75zm-341.52 209.52l0 0c-10.56,19.08 -16.07,40.96 -15.46,62.78 0.6,25.41 8.69,50.16 20.45,72.54 6.22,9.37 14.26,17.43 22.44,25.12 28.98,26.33 64.09,45.16 91.51,73.33 -0.95,-3.12 -3.19,-5.54 -5.06,-8.1 -10.52,-14.19 -22.63,-27.1 -34.76,-39.9 -12.6,-13.4 -25.73,-26.56 -35.49,-42.25 7.28,4 15.03,6.98 23.01,9.3 10.86,3.24 20.26,10.14 27.74,18.57 -2.64,-8.84 -7.55,-16.82 -13.03,-24.16 -12.5,-16.43 -28.7,-29.44 -43.34,-43.85 -14.05,-13.69 -27.21,-29.16 -33.85,-47.9 -6.92,-18.54 -6.17,-38.88 -2.32,-58 -0.45,0.64 -1.38,1.91 -1.83,2.54zm280.32 -2.43l0 0c1.76,11.04 3.57,22.18 2.63,33.4 -0.97,16.87 -7.1,33.21 -16.79,46.98 -14.87,21.46 -36.04,37.25 -53.98,55.94 -10.23,10.85 -20.02,22.97 -24.43,37.45 7.42,-8.43 16.83,-15.28 27.68,-18.53 7.97,-2.37 15.82,-5.23 23.05,-9.4 -10.22,16.5 -24.16,30.18 -37.34,44.27 -13.99,14.94 -28.21,29.93 -39.29,47.23 4.51,-4.36 8.95,-8.78 13.7,-12.87 28.45,-25.21 62.58,-43.55 88.89,-71.24 5.88,-6.48 12.12,-12.94 15.53,-21.13 13.52,-27.65 21.13,-59.15 15.97,-89.88 -2.65,-14.8 -7.42,-29.55 -15.62,-42.21zm-164.76 22.68l0 0c-19.15,5.94 -39.37,9.69 -59.47,7.91 -5.52,16.46 -1.28,34.53 6.56,49.5 1.12,-15.25 9.97,-29.42 22.56,-37.91 1.67,18.43 3.98,37.8 14.32,53.67 10.46,15.63 28.29,23.58 41.49,36.47 12.23,-11.9 28.2,-19.56 38.99,-32.99 12.49,-16.22 15.03,-37.39 16.82,-57.14 12.6,8.47 21.52,22.68 22.52,37.96 7.91,-14.96 12.11,-33.06 6.64,-49.55 -8.68,0.9 -17.44,0.45 -26.08,-0.56 -20.46,-2.64 -40.76,-8.26 -58.89,-18.26 -8.09,4.5 -16.66,8.08 -25.47,10.9z"/>
    </g>
    <g>
     <path class="fil0" d="M296.58 287.71c8.58,-6.76 19.81,-11.92 30.92,-9.26 10.84,2.73 18.81,11.26 25.92,19.37 7.82,8.78 14.76,18.72 24.72,25.27 6.4,4.51 14.61,5.79 22.16,3.83 -6.2,5.9 -13.82,10.91 -22.67,11.11 -7.16,7.49 -12.44,16.62 -16.17,26.25 -1.63,4.14 -2.3,8.59 -3.98,12.71 -2.77,-7.21 -4.31,-14.91 -4.3,-22.64 0.04,-3.32 0.33,-6.65 0.64,-9.95 -11.57,1.61 -23.96,-0.32 -33.6,-7.19 -10.68,-7.3 -17.03,-19.43 -19.65,-31.85 -0.17,-0.88 -0.53,-2.64 -0.7,-3.52 4.17,-4.67 9.72,-7.59 15.28,-10.25 -5.82,-2.68 -12.11,-4.4 -18.56,-3.89zm22.16 20.23l0 0c2.4,7.96 7.43,15.4 14.91,19.35 7.39,4.09 16.25,4.4 24.41,2.84 -9.13,-8.14 -17.5,-17.09 -26.33,-25.53 -4.57,-0.57 -9.01,1.32 -12.99,3.35z"/>
    </g>
    <g>
     <path class="fil0" d="M491.51 283.92c5.51,-4.02 12.28,-6.64 19.19,-6.15 8.55,0.55 16.52,4.68 23.17,9.91 -6.43,-0.45 -12.7,1.23 -18.49,3.89 5.52,2.7 11.05,5.61 15.24,10.24 -0.17,0.87 -0.5,2.62 -0.67,3.5 -2.6,12.41 -8.95,24.53 -19.58,31.85 -9.66,6.89 -22.07,8.89 -33.66,7.22 0.27,3.32 0.55,6.66 0.61,10.01 0.01,7.71 -1.53,15.4 -4.3,22.6 -2.32,-6.54 -3.64,-13.44 -6.95,-19.6 -3.63,-6.86 -7.47,-14.1 -13.42,-19.16 -8.71,-0.76 -16.35,-5.32 -22.49,-11.33 7.58,2 15.8,0.71 22.24,-3.83 15.47,-10.47 24.03,-28.21 39.11,-39.15zm7.22 20.74l0 0c-8.9,8.35 -17.1,17.45 -26.37,25.4 8.46,1.75 17.73,1.26 25.31,-3.24 7.05,-4.03 11.78,-11.22 14.09,-18.88 -4,-1.97 -8.52,-4.06 -13.03,-3.28z"/>
    </g>
   </g>
   <g>
    <g>
     <path class="fil1" d="M258.75 20.82c47.6,-25.54 107.58,-28.16 156.49,-4.66 48.89,-23.47 108.84,-20.9 156.43,4.62 10.91,5.41 21.71,11.1 32.69,16.34 45.97,19.07 84.72,54.47 108.82,97.9 -6.09,-2.13 -12.09,-4.46 -18.15,-6.61 24.71,29.96 44.19,63.79 68.72,93.88 11.38,13.75 24.93,26.81 42.19,32.61 7.87,2.7 16.22,3.69 24.52,3.81 -7.04,21.02 -19.92,40.83 -38.89,52.86 -7.8,5.26 -16.85,8.14 -25.62,11.07 11.5,20.72 19.52,43.51 21.85,67.17 4.52,42.42 -7.11,84.84 -24.84,123.09 -5.81,12.55 -12.3,24.8 -19.25,36.76 -1.61,2.71 -2.97,5.65 -5.18,7.96 -0.29,-3.97 -0.45,-7.94 -0.9,-11.89 -6.47,18.92 -14.25,37.59 -25.7,54.08 -11.78,17.23 -27.01,31.69 -42.56,45.47 -4.24,4.33 -9.92,7.41 -12.91,12.82 -16.87,29.89 -38.12,57.56 -64.31,79.89 -32.18,27.52 -70.09,47.14 -107.76,65.94 2.9,-6.34 6.06,-12.56 8.96,-18.91 -14.94,11.2 -29.08,23.65 -40.74,38.28 -15.14,18.78 -25.98,40.45 -37.37,61.6 -9.48,-17.59 -18.54,-35.48 -30.05,-51.86 -12.98,-18.75 -29.82,-34.48 -48.07,-48.01 2.92,6.32 6.06,12.54 8.96,18.87 -36.41,-18.13 -72.95,-37.06 -104.45,-63.11 -27.46,-22.66 -49.73,-51.11 -67.22,-82 -1.01,-1.81 -2.05,-3.65 -3.64,-5.01 -16.85,-14.78 -33.93,-29.61 -47.56,-47.54 -13.91,-17.88 -22.85,-38.93 -30.36,-60.13 -0.5,3.83 -0.62,7.7 -0.9,11.55 -5.78,-7.82 -9.97,-16.73 -14.74,-25.2 -12.97,-24.57 -23.77,-50.45 -30.03,-77.58 -5.52,-24.03 -7.26,-49.11 -3.37,-73.54 3.21,-20.72 10.51,-40.72 21.02,-58.84 -16.72,-4.11 -32.29,-13.03 -43.6,-26.11 -9.62,-10.89 -16.54,-23.97 -21.24,-37.66 9.33,-0.17 18.75,-1.41 27.45,-4.9 14.04,-5.46 25.53,-15.8 35.38,-26.95 26.56,-31.02 46.43,-67.06 72.7,-98.32 -6.2,1.82 -12.11,4.44 -18.24,6.48 24.11,-43.39 62.8,-78.77 108.71,-97.85 11.01,-5.24 21.82,-10.93 32.74,-16.37zm30.07 5.28l0 0c-5.38,2.13 -11.16,3.67 -15.91,7.06 7.42,1.53 15.06,2.99 21.68,6.89 -24.82,-0.28 -49.44,6.12 -71.6,17.13 -19.62,9.92 -38.13,22.92 -52.13,40.01 11.43,-3.79 23.38,-6.53 35.49,-6.15 -15.72,8.24 -30.09,18.94 -42.51,31.63 -29.44,29.65 -50.45,66.11 -75.35,99.36 -9.97,13.11 -20.58,26 -33.72,36.08 -8.58,6.6 -18.5,11.62 -29.22,13.53 5.39,10.55 13.3,19.99 23.49,26.19 14.4,9 32,11.07 48.64,9.68 -3.89,4.46 -8.16,8.6 -11.56,13.49 -15.74,21.73 -23.1,48.51 -25.09,74.99 -2.21,30.95 2.85,62.49 15.18,90.99 0.75,1.98 1.59,3.91 2.96,5.56 2.35,-20.83 9.86,-42.81 26.9,-56.16 -9.39,21.02 -9.35,44.85 -6.01,67.23 3.43,22.17 10.35,43.77 20.02,63.99 9.25,19.18 21.1,37.44 36.98,51.8 -4.13,-14.19 -5.96,-28.98 -6.2,-43.73 -0.05,-8.37 0.29,-16.83 2.24,-25.01 2.25,7.11 2.71,14.7 4.73,21.91 10.87,46.15 33.89,89.07 64.82,124.86 24.26,27.99 53.42,52 86.49,68.87 -5.77,-12.94 -11.7,-26.28 -12.38,-40.64 8.16,12.06 18.85,22.15 30.48,30.82 16.43,12.43 33.57,24.1 48.26,38.63 15.84,15.33 28.9,33.37 39.31,52.76 1.47,0.27 1.58,-1.72 2.32,-2.54 11.49,-21.33 26.72,-40.64 44.82,-56.75 15.09,-13.66 32.28,-24.69 48.07,-37.48 9.13,-7.24 17,-15.89 23.71,-25.38 -0.73,14.35 -6.61,27.67 -12.42,40.59 39,-19.95 72.62,-49.65 99.09,-84.39 26.74,-35.24 46.09,-76.33 54.5,-119.85 0.81,-3.84 1.03,-7.81 2.49,-11.48 1.98,8.58 2.33,17.47 2.21,26.25 -0.35,14.36 -2.1,28.76 -6.22,42.56 15.47,-13.91 27.06,-31.59 36.21,-50.15 10.79,-22.16 18.32,-45.99 21.5,-70.47 2.6,-20.91 2.05,-42.97 -6.72,-62.48 17.28,13.4 24.28,35.6 27.25,56.43 18.37,-38.87 23.25,-84.11 13.26,-125.95 -5.28,-22.11 -15.83,-43.22 -32.09,-59.29 12.11,0.89 24.53,0.28 36.08,-3.75 15.79,-5.21 28.77,-17.34 36.05,-32.18 -23.51,-4.18 -40.99,-22.33 -55.49,-40.01 -16.68,-20.73 -30.87,-43.28 -46.46,-64.81 -21.33,-29.64 -45.62,-59 -78.88,-75.63 12.11,-0.59 24.09,2.3 35.52,6.06 -3.86,-5.23 -8.68,-9.64 -13.43,-14.04 -30.21,-26.61 -69.85,-43.42 -110.39,-43.16 6.64,-3.72 14.14,-5.37 21.53,-6.78 -0.37,-0.33 -1.11,-1 -1.48,-1.34 -17.97,-8.49 -37.67,-13.05 -57.45,-14.49 -28.65,-2.03 -58.21,3.46 -83.16,18.04 -37.96,-22.05 -85.47,-23.27 -126.45,-9.34z"/>
    </g>
    <path class="fil2" d="M358.52 48.25c22.76,4.44 42.85,18.9 56.73,37.19 13.88,-18.26 33.94,-32.82 56.73,-37.14 -9.18,9.74 -16.6,21.29 -20.47,34.17 11.99,-8.1 26.46,-11.22 40.55,-13.32 19.91,-2.63 40.3,-2.93 60.11,0.64 3.78,0.68 7.57,1.49 11.13,2.97 -5.51,-0.21 -10.95,0.86 -16.44,1.05 -6.92,-0.97 -13.81,0.53 -20.59,1.71 -22.38,4.25 -44.3,12.75 -62.26,27 -11.45,8.89 -20.94,20.31 -27.5,33.24 -3.95,-5.67 -3.56,-12.98 -3.29,-19.55 0.29,-7.65 2.54,-15 4.18,-22.43 -10.73,4.62 -18.35,14.27 -22.38,25.03 -3.2,-11.06 -11.51,-20.45 -22.07,-24.99 3.19,11.55 5.85,23.71 3.74,35.71 -0.34,2.31 -1.54,4.31 -2.75,6.26 -10.55,-21.35 -29.45,-37.69 -50.81,-47.74 -15.69,-7.54 -32.74,-12.06 -49.97,-14.26 -3.56,-0.55 -7.16,-0.43 -10.73,-0.1 -5.08,-0.17 -10.13,-1.17 -15.25,-0.84 3.56,-1.6 7.38,-2.37 11.2,-3.07 18.56,-3.36 37.64,-3.23 56.34,-1.1 15.34,2 31.18,5.02 44.27,13.79 -3.87,-12.91 -11.34,-24.42 -20.47,-34.21z"/>
    <g>
     <path class="fil2" d="M300.32 256.63c15.95,-15.89 38.54,-24.21 60.9,-24.19 -2.47,1.53 -5.01,2.93 -7.31,4.69 19.63,2.33 37.42,13.57 49.76,28.75 4.53,5.33 8.03,11.42 11.59,17.42 12.19,-23.26 34.28,-43.14 61.19,-45.99l-0.2 -0.13c-1.98,-1.98 -4.5,-3.2 -6.84,-4.64 21.45,-0.11 43.19,7.57 58.91,22.37 13.93,13.04 23.72,30.29 29,48.53 -3.95,-3.7 -7.69,-8.14 -13.29,-9.24 2.86,11.83 2.68,24.47 -1.47,35.99 -6.27,18.26 -17.71,34.16 -24.49,52.22 -4.2,-5.55 -5.38,-12.52 -5.54,-19.3 -8.6,6.38 -14.2,15.9 -17.71,25.86 -4.6,12.05 -6.42,25.45 -13.96,36.19 -1.06,-7.2 -3.7,-14.03 -7.16,-20.39 -0.12,0.13 -0.38,0.42 -0.5,0.55 -4.13,4.83 -8.56,9.59 -14.45,12.27 -18.32,9 -39.53,10.25 -59.53,7.97 -15.55,-2.1 -32.47,-6.98 -41.98,-20.46l-0.27 -0.33c-3.79,6.23 -6.22,13.2 -7.35,20.4 -7.7,-11.07 -9.5,-24.87 -14.35,-37.22 -3.37,-9.67 -9.15,-18.5 -17.18,-24.92 -0.5,6.76 -1.37,13.85 -5.67,19.4 -5.94,-15.33 -14.7,-29.31 -21.46,-44.26 -6.06,-13.52 -8.71,-29.11 -4.33,-43.52 -5.87,0.13 -9.52,5.26 -13.49,8.82 5.02,-17.49 14.3,-33.93 27.17,-46.85zm-3.74 31.08l0 0c6.45,-0.51 12.75,1.21 18.56,3.89 -5.56,2.66 -11.11,5.59 -15.28,10.25 0.17,0.88 0.53,2.64 0.7,3.52 0.04,14.4 5.17,29.28 15.77,39.33 9.51,9.29 23.98,13.35 36.85,9.66 -0.01,7.72 1.53,15.42 4.3,22.64l-0.23 0.6c2.63,7.93 6.39,16.07 13.11,21.35 -0.68,-8.65 -1.58,-17.56 1.1,-26 3.75,-14.41 16.08,-25.79 30.42,-29.32 18.65,-5.35 41.07,1.05 51.92,17.68 7.47,10.96 7.87,24.8 6.38,37.53 6.8,-5.13 10.34,-13.42 13.1,-21.24l-0.26 -0.61c2.77,-7.2 4.31,-14.89 4.3,-22.6 12.36,3.46 26.13,-0.02 35.63,-8.56 11.42,-10.05 16.9,-25.59 17,-40.53 0.17,-0.88 0.5,-2.63 0.67,-3.5 -4.19,-4.63 -9.72,-7.54 -15.24,-10.24 5.79,-2.65 12.06,-4.34 18.49,-3.89 -6.65,-5.23 -14.62,-9.36 -23.17,-9.91 -6.91,-0.49 -13.68,2.13 -19.19,6.15 -15.08,10.94 -23.64,28.67 -39.11,39.15 -6.6,0.15 -13.38,0.32 -19.63,-2.14 -7.36,-2.58 -13.05,-8.21 -17.49,-14.45 -3.63,4.67 -7.46,9.39 -12.8,12.18 -7.3,4.45 -16.06,4.77 -24.35,4.42 -9.96,-6.55 -16.9,-16.5 -24.72,-25.27 -7.11,-8.12 -15.08,-16.65 -25.92,-19.37 -11.11,-2.65 -22.34,2.51 -30.92,9.26z"/>
    </g>
    <path class="fil2" d="M129.94 348.38c-1.8,-33.13 15.74,-67.79 45.7,-83.11 -4.44,5.9 -8.46,12.21 -10.45,19.41 14.05,-6.99 30.76,-11.28 46.21,-6.64 -14.83,3.59 -28.28,11.34 -40.55,20.23 -17.45,12.94 -33.07,29.53 -40.91,50.11z"/>
    <path class="fil2" d="M654.8 265.23c29.98,15.31 47.52,49.95 45.78,83.08 -7.93,-20.51 -23.45,-37.11 -40.91,-50.02 -12.25,-8.91 -25.72,-16.6 -40.52,-20.26 15.42,-4.63 32.11,-0.32 46.15,6.65 -2.03,-7.2 -5.99,-13.58 -10.51,-19.44z"/>
    <path class="fil2" d="M162.14 372.63c9.63,-26.11 26.95,-50.9 52.66,-63.13 -0.59,1.64 -0.76,3.51 -1.76,5 -3.54,4.42 -5.43,9.81 -7.36,15.07 -7.47,20.41 -8.48,42.65 -5.59,64.05 4.2,31.84 14.47,62.45 19.74,94.1 2.91,15.88 3.65,32 4.09,48.09 -1.28,8.71 -2.96,17.4 -3.21,26.24 -31.42,-46.47 -45.98,-105.1 -36.42,-160.68 -13.3,9.45 -21.79,24.35 -25.92,39.89 -1.05,3.81 -1.59,7.76 -2.81,11.54 -6.7,-26.52 -2.54,-54.73 6.58,-80.18z"/>
    <path class="fil2" d="M615.74 309.5c15.83,7.59 28.88,20.13 38.4,34.75 12.44,19 19.9,41.05 22.89,63.5 1.88,14.91 1.85,30.3 -2.09,44.89 -2.7,-11.37 -5.51,-22.96 -11.9,-32.93 -4.35,-7.13 -10.02,-13.49 -16.83,-18.35 9.59,55.65 -5.07,114.25 -36.45,160.8 -0.18,-8.87 -1.93,-17.58 -3.17,-26.33 0.32,-17.51 1.45,-35.04 4.8,-52.26 5.24,-29.38 14.46,-57.93 18.69,-87.51 3.1,-21.55 2.62,-43.99 -4.64,-64.69 -2.16,-5.79 -3.96,-11.93 -7.94,-16.79 -1.06,-1.49 -1.23,-3.42 -1.76,-5.1z"/>
   </g>
   <g>
    <path class="fil3" d="M357.22 47.93c20.95,0.27 41.75,8.32 58.03,21.44 12.6,-10.47 28.15,-17.01 44.13,-20.19 4.52,-0.87 9.13,-1.55 13.75,-1.17 -0.29,0.07 -0.87,0.22 -1.15,0.29 -22.79,4.33 -42.85,18.88 -56.73,37.14 -13.88,-18.3 -33.98,-32.75 -56.73,-37.19 -0.33,-0.09 -0.98,-0.23 -1.3,-0.32z"/>
    <path class="fil3" d="M229.53 172.41c15.58,-3.92 32.14,-2.29 47.32,2.6 16.16,5.18 31.01,14.28 43.16,26.12 -2.16,4.58 -2.44,9.67 -2.32,14.65 -10.9,-13.47 -25.08,-24.76 -41.93,-29.61 -14.03,-4.4 -28.92,-4.14 -43.45,-3.46 -0.83,6.38 -0.5,12.82 0.27,19.19 -3.89,-9.24 -5.44,-19.65 -3.04,-29.49z"/>
    <path class="fil3" d="M566.73 171.71c11.31,-2.05 23.1,-2.16 34.28,0.72 2.33,9.84 0.81,20.25 -3.08,29.49 0.76,-6.38 1.1,-12.85 0.26,-19.22 -15.49,-0.73 -31.41,-0.9 -46.21,4.38 -15.71,5.16 -28.79,16.02 -39.15,28.67 0.1,-4.99 -0.18,-10.06 -2.33,-14.64 15.36,-14.96 35.09,-25.53 56.23,-29.39z"/>
    <path class="fil3" d="M353.91 237.14c15.26,-0.99 30.27,4.44 43.41,11.86 6.78,3.96 12.96,9 17.93,15.11 10.57,-12.91 26.14,-20.76 42.03,-25.02 6.18,-1.52 12.59,-2.63 18.97,-1.91l0.2 0.13c-26.91,2.85 -49.01,22.73 -61.19,45.99 -3.56,-6 -7.05,-12.09 -11.59,-17.42 -12.33,-15.18 -30.13,-26.41 -49.76,-28.75z"/>
    <path class="fil3" d="M318.73 307.94c3.98,-2.03 8.42,-3.92 12.99,-3.35 8.82,8.45 17.2,17.39 26.33,25.53 -8.15,1.56 -17.01,1.26 -24.41,-2.84 -7.48,-3.95 -12.52,-11.39 -14.91,-19.35z"/>
    <path class="fil3" d="M498.74 304.66c4.51,-0.78 9.03,1.31 13.03,3.28 -2.31,7.66 -7.04,14.85 -14.09,18.88 -7.58,4.5 -16.85,4.99 -25.31,3.24 9.28,-7.94 17.48,-17.05 26.37,-25.4z"/>
    <path class="fil3" d="M357.25 405.1c9.51,13.48 26.44,18.36 41.98,20.46 20.01,2.29 41.21,1.03 59.53,-7.97 5.89,-2.68 10.32,-7.44 14.45,-12.27 1,10.58 -2.33,21.89 -10.6,28.94 -2.91,-1.63 -6.01,-3.46 -9.5,-2.93 -12.25,1.27 -24.25,4.8 -36.65,4.72 -12.83,0.42 -25.31,-3.04 -37.95,-4.63 -3.84,-0.79 -7.43,0.92 -10.61,2.85 -8.38,-7.09 -11.57,-18.5 -10.66,-29.16z"/>
    <path class="fil3" d="M321.9 433.69c3.54,5.82 7.32,11.92 13.46,15.34 6.68,4.14 15.07,4.16 22.37,1.72 4.29,4.68 9.37,8.53 14.86,11.71 0.34,-3.19 0.48,-7.08 3.45,-9.07 3.06,-1.89 6.81,-0.11 9.3,1.92 7.08,5.9 10.42,14.8 13.69,23.12 2.07,2.54 4.61,4.8 5.77,7.96 3.37,8.3 0.7,18.28 -5.07,24.84 -16.16,7.13 -33.9,10.28 -51.48,11.22 3.85,-4.19 7.43,-8.71 9.83,-13.92 -7.91,6.12 -17.99,10.38 -28.07,9.44 -6.83,-4.77 -12.89,-11.21 -15.92,-19.08 12.17,0.01 24.77,-3.72 34.09,-11.75 -12.69,3.31 -26.72,0.24 -37.03,-7.77 0.82,-5.77 1.76,-11.53 3.34,-17.13 10.51,4.86 22.49,6.5 33.89,4.36 -12.31,-3.02 -23.08,-11.37 -28.92,-22.62 0.88,-3.41 1.56,-6.88 2.47,-10.28z"/>
    <path class="fil3" d="M507.13 435.08c0.65,-0.12 1.93,-0.35 2.57,-0.48 -0.65,3.18 0.64,6.27 1.41,9.3 -5.84,11.15 -16.46,19.75 -28.82,22.49 11.31,2.59 23.31,0.54 33.79,-4.16 1.48,5.62 2.53,11.35 3.29,17.14 -10.33,8.01 -24.36,11.07 -37.04,7.76 9.39,8.23 22.12,11.48 34.34,12.05 -3.54,7.19 -8.76,13.52 -15.28,18.21 -1.93,1.61 -4.56,0.61 -6.78,0.55 -8.16,-0.87 -15.77,-4.47 -22.22,-9.42 2.47,5.17 6,9.72 9.86,13.92 -16.38,-0.77 -32.72,-3.84 -48.07,-9.68 -1.61,-0.71 -3.54,-1.16 -4.53,-2.74 -4.95,-6.94 -7.41,-16.56 -3.52,-24.54 1.2,-3.03 4.03,-4.93 5.67,-7.65 2.99,-8.18 6.5,-16.72 13.32,-22.49 2.51,-2.05 6.26,-3.85 9.35,-1.96 2.97,1.98 3.08,5.88 3.45,9.07 5.48,-3.19 10.57,-7.03 14.85,-11.71 7.28,2.41 15.64,2.44 22.33,-1.7 5.02,-3.19 9.78,-7.69 11.6,-13.52l0.44 -0.45z"/>
    <path class="fil3" d="M389.78 539.27c8.81,-2.82 17.38,-6.4 25.47,-10.9 18.13,10 38.43,15.62 58.89,18.26 8.64,1.01 17.4,1.47 26.08,0.56 5.48,16.49 1.27,34.59 -6.64,49.55 -1,-15.28 -9.92,-29.49 -22.52,-37.96 -1.78,19.75 -4.33,40.92 -16.82,57.14 -10.79,13.43 -26.75,21.08 -38.99,32.99 -13.2,-12.89 -31.03,-20.84 -41.49,-36.47 -10.34,-15.86 -12.65,-35.24 -14.32,-53.67 -12.59,8.49 -21.44,22.66 -22.56,37.91 -7.85,-14.97 -12.09,-33.04 -6.56,-49.5 20.11,1.78 40.32,-1.97 59.47,-7.91z"/>
   </g>
   <g>
    <path class="fil4" d="M282.43 73.68c3.57,-0.33 7.17,-0.45 10.73,0.1 17.23,2.2 34.28,6.72 49.97,14.26 21.35,10.05 40.26,26.39 50.81,47.74 1.21,-1.94 2.41,-3.95 2.75,-6.26 2.11,-12 -0.55,-24.16 -3.74,-35.71 10.56,4.55 18.87,13.93 22.07,24.99 4.03,-10.76 11.65,-20.41 22.38,-25.03 -1.64,7.43 -3.89,14.78 -4.18,22.43 -0.27,6.58 -0.66,13.88 3.29,19.55 6.56,-12.93 16.05,-24.36 27.5,-33.24 17.95,-14.25 39.88,-22.74 62.26,-27 6.78,-1.19 13.68,-2.68 20.59,-1.71 -13.03,3.17 -26.13,6.5 -38.28,12.37 -22.23,10.35 -42.94,25.9 -55.55,47.29 22,-10.39 46.58,-15.56 70.89,-14.13 7.54,0.7 15.35,1.49 22.29,4.73 -18,6.22 -34.11,16.94 -48.57,29.17 -9.79,8.24 -18.44,17.75 -25.98,28.06 -19.68,-0.12 -39.31,5.06 -56.43,14.74 -17.07,-9.67 -36.69,-14.87 -56.32,-14.7 -13.38,-18.36 -30.68,-33.7 -50.02,-45.53 -7.79,-4.73 -15.97,-8.82 -24.61,-11.75 6.93,-3.25 14.72,-4.01 22.24,-4.73 24.3,-1.42 48.85,3.69 70.81,14.09 -11.48,-19.86 -30.32,-34.55 -50.51,-44.88 -13.93,-7.25 -29.1,-11.6 -44.39,-14.86z"/>
    <path class="fil4" d="M232.3 182.71c14.53,-0.68 29.42,-0.94 43.45,3.46 16.85,4.85 31.03,16.14 41.93,29.61 -0.12,-4.99 0.16,-10.07 2.32,-14.65 5.94,5.57 10.85,12.1 15.56,18.72 17.42,-3.1 35.91,-1.74 52.07,5.82 -4.69,1.14 -9.58,1.11 -14.21,2.55 -4.22,0.95 -8.1,2.92 -12.2,4.22 -22.37,-0.02 -44.95,8.3 -60.9,24.19 -12.87,12.92 -22.15,29.36 -27.17,46.85 3.97,-3.57 7.63,-8.69 13.49,-8.82 -4.39,14.41 -1.74,30 4.33,43.52 6.76,14.95 15.52,28.93 21.46,44.26 4.3,-5.55 5.17,-12.64 5.67,-19.4 8.03,6.42 13.81,15.25 17.18,24.92 4.85,12.34 6.65,26.14 14.35,37.22 -0.87,9.24 2.15,18.48 8.09,25.58 -7.3,2.43 -15.68,2.42 -22.37,-1.72 -6.14,-3.42 -9.91,-9.52 -13.46,-15.34l-0.34 -0.54c3.36,-14.41 -1.42,-30.68 -13.38,-39.77 5.27,13.47 -0.16,27.68 -5.16,40.32 -1.87,-13.3 -4.84,-26.44 -9.48,-39.05 -8.26,-23.8 -20.51,-46.66 -22.92,-72.1 -11.02,3.97 -19.95,12.53 -26.17,22.29 0.86,-22.87 9.47,-45.15 23.26,-63.32 5.77,-7.49 12.39,-14.49 20.36,-19.68 -13.43,0.59 -26.06,6.09 -37.85,12.14 14.47,-21.35 36.24,-37.19 59.96,-46.91 -8.64,-14.02 -20.59,-26.56 -35.77,-33.43 -8.84,-4.01 -18.72,-5.83 -28.4,-4.8 -1.74,15.35 4.56,30.6 14.35,42.2 -13.27,-4.5 -22.61,-16.59 -27.78,-29.15 -0.77,-6.37 -1.1,-12.81 -0.27,-19.19z"/>
    <path class="fil4" d="M551.98 187.08c14.8,-5.28 30.73,-5.11 46.21,-4.38 0.84,6.38 0.5,12.85 -0.26,19.22 -5.16,12.58 -14.52,24.47 -27.67,29.17 9.55,-11.76 16.04,-26.85 14.24,-42.24 -14.15,-1.58 -28.46,3.17 -39.88,11.43 -9.84,7.13 -18.04,16.45 -24.27,26.86 23.7,9.61 45.48,25.47 59.86,46.8 -11.62,-6.06 -24.06,-11.16 -37.24,-12.25 25.59,19.62 41.71,50.97 43.09,83.16 -6.25,-9.75 -15.14,-18.37 -26.2,-22.28 -1.78,19.79 -9.81,38.18 -17,56.47 -5.79,14.65 -11.26,29.58 -13.84,45.17 -0.54,2.91 -0.51,5.99 -1.87,8.69 -4.9,-12.41 -9.96,-26.36 -4.85,-39.55 -11.63,8.95 -16.49,24.59 -13.6,38.77 -0.51,0.99 -1.04,1.98 -1.56,2.96l-0.44 0.45c-1.82,5.83 -6.58,10.33 -11.6,13.52 -6.69,4.14 -15.04,4.11 -22.33,1.7 5.95,-7.09 8.96,-16.35 8.1,-25.59 7.54,-10.74 9.36,-24.14 13.96,-36.19 3.51,-9.96 9.11,-19.48 17.71,-25.86 0.16,6.78 1.33,13.75 5.54,19.3 6.78,-18.06 18.22,-33.96 24.49,-52.22 4.14,-11.53 4.33,-24.16 1.47,-35.99 5.6,1.1 9.34,5.54 13.29,9.24 -5.28,-18.25 -15.07,-35.49 -29,-48.53 -15.72,-14.8 -37.46,-22.48 -58.91,-22.37 -8.41,-3.5 -17.25,-6.11 -26.41,-6.49 15.73,-8.38 34.58,-9.08 51.86,-6.16 4.82,-6.58 9.67,-13.19 15.64,-18.77 2.15,4.58 2.43,9.66 2.33,14.64 10.35,-12.65 23.44,-23.51 39.15,-28.67z"/>
    <path class="fil4" d="M300.56 305.37c2.63,12.42 8.97,24.55 19.65,31.85 9.64,6.87 22.02,8.8 33.6,7.19 -0.31,3.3 -0.6,6.62 -0.64,9.95 -12.87,3.69 -27.34,-0.37 -36.85,-9.66 -10.6,-10.05 -15.73,-24.93 -15.77,-39.33z"/>
    <path class="fil4" d="M510.37 337.16c10.63,-7.32 16.98,-19.44 19.58,-31.85 -0.1,14.93 -5.59,30.48 -17,40.53 -9.5,8.53 -23.27,12.01 -35.63,8.56 -0.06,-3.35 -0.34,-6.69 -0.61,-10.01 11.59,1.66 24,-0.33 33.66,-7.22z"/>
    <path class="fil4" d="M402.49 318.67c5.34,-2.8 9.17,-7.52 12.8,-12.18 4.44,6.23 10.13,11.87 17.49,14.45 6.25,2.46 13.03,2.29 19.63,2.14 -6.44,4.53 -14.67,5.83 -22.24,3.83 6.14,6.01 13.77,10.57 22.49,11.33 5.95,5.06 9.79,12.31 13.42,19.16 3.31,6.16 4.63,13.06 6.95,19.6l0.26 0.61c-2.76,7.82 -6.31,16.11 -13.1,21.24 1.49,-12.74 1.09,-26.57 -6.38,-37.53 -10.85,-16.63 -33.27,-23.04 -51.92,-17.68 -14.34,3.53 -26.67,14.91 -30.42,29.32 -2.68,8.43 -1.78,17.34 -1.1,26 -6.72,-5.28 -10.49,-13.42 -13.11,-21.35l0.23 -0.6c1.69,-4.12 2.36,-8.57 3.98,-12.71 3.73,-9.63 9.01,-18.76 16.17,-26.25 8.85,-0.2 16.48,-5.21 22.67,-11.11 -7.55,1.97 -15.75,0.68 -22.16,-3.83 8.29,0.34 17.05,0.02 24.35,-4.42z"/>
    <path class="fil4" d="M205.68 329.57c1.93,-5.26 3.81,-10.65 7.36,-15.07 -0.6,5.71 -2.37,11.23 -2.82,16.98 -2.41,19.26 1.67,38.72 8.65,56.64 5.17,14.03 12.38,27.45 15.11,42.28 4.8,-10.34 2.58,-22.12 2.92,-33.13 0.28,-3.3 -0.22,-6.92 1.45,-9.9 9.19,21.02 15.12,44.24 12,67.31 -2.93,23.69 -14.8,44.81 -22.12,67.21 -1.6,4.6 -2.55,9.39 -4.3,13.94 -0.44,-16.1 -1.19,-32.22 -4.09,-48.09 -5.27,-31.64 -15.53,-62.26 -19.74,-94.1 -2.9,-21.4 -1.88,-43.64 5.59,-64.05z"/>
    <path class="fil4" d="M617.5 314.6c3.98,4.86 5.78,11 7.94,16.79 7.26,20.7 7.75,43.14 4.64,64.69 -4.23,29.58 -13.44,58.13 -18.69,87.51 -3.35,17.22 -4.49,34.75 -4.8,52.26 -1.78,-4.53 -2.7,-9.35 -4.3,-13.93 -7.35,-22.41 -19.19,-43.53 -22.13,-67.22 -3.15,-23.06 2.82,-46.25 11.94,-67.32 1.65,2.53 1.15,5.76 1.47,8.63 0.5,11.44 -1.99,23.64 2.96,34.42 2.65,-14.58 9.68,-27.79 14.83,-41.57 7.22,-18.36 11.48,-38.34 8.86,-58.09 -0.46,-5.48 -2.22,-10.72 -2.71,-16.17z"/>
    <path class="fil4" d="M274.22 519.02c0.45,-0.64 1.38,-1.91 1.83,-2.54 -3.85,19.13 -4.6,39.46 2.32,58 6.65,18.74 19.8,34.21 33.85,47.9 14.64,14.41 30.84,27.43 43.34,43.85 5.48,7.35 10.39,15.33 13.03,24.16 -7.48,-8.42 -16.88,-15.33 -27.74,-18.57 -7.98,-2.32 -15.73,-5.3 -23.01,-9.3 9.77,15.69 22.89,28.86 35.49,42.25 12.12,12.81 24.24,25.71 34.76,39.9 1.87,2.57 4.11,4.99 5.06,8.1 -27.41,-28.17 -62.53,-47.01 -91.51,-73.33 -8.18,-7.69 -16.22,-15.74 -22.44,-25.12 -11.76,-22.38 -19.85,-47.13 -20.45,-72.54 -0.61,-21.83 4.9,-43.71 15.46,-62.78z"/>
    <path class="fil4" d="M554.54 516.59c8.2,12.66 12.97,27.41 15.62,42.21 5.16,30.73 -2.46,62.23 -15.97,89.88 -3.41,8.19 -9.66,14.65 -15.53,21.13 -26.31,27.69 -60.44,46.03 -88.89,71.24 -4.75,4.09 -9.19,8.51 -13.7,12.87 11.09,-17.29 25.3,-32.29 39.29,-47.23 13.18,-14.09 27.12,-27.77 37.34,-44.27 -7.24,4.17 -15.08,7.03 -23.05,9.4 -10.85,3.25 -20.26,10.1 -27.68,18.53 4.41,-14.48 14.2,-26.59 24.43,-37.45 17.94,-18.69 39.11,-34.48 53.98,-55.94 9.69,-13.77 15.83,-30.11 16.79,-46.98 0.94,-11.22 -0.87,-22.37 -2.63,-33.4z"/>
   </g>
  </g>
 </g>
</svg>
