<?xml version="1.0" encoding="UTF-8"?>
<!DOCTYPE svg PUBLIC "-//W3C//DTD SVG 1.1//EN" "http://www.w3.org/Graphics/SVG/1.1/DTD/svg11.dtd">
<!-- Creator: CorelDRAW 2018 (64-Bit) -->
<svg xmlns="http://www.w3.org/2000/svg" xml:space="preserve" width="0.668783in" height="0.550272in" version="1.1" style="shape-rendering:geometricPrecision; text-rendering:geometricPrecision; image-rendering:optimizeQuality; fill-rule:evenodd; clip-rule:evenodd"
viewBox="0 0 7.26 5.98"
 xmlns:xlink="http://www.w3.org/1999/xlink">
 <defs>
  <style type="text/css">
   <![CDATA[
    .str0 {stroke:white;stroke-width:0.07;stroke-miterlimit:2.61313}
    .fil13 {fill:none}
    .fil0 {fill:black;fill-rule:nonzero}
    .fil11 {fill:#004922;fill-rule:nonzero}
    .fil12 {fill:#006837;fill-rule:nonzero}
    .fil9 {fill:#009245;fill-rule:nonzero}
    .fil10 {fill:#01662D;fill-rule:nonzero}
    .fil8 {fill:#568231;fill-rule:nonzero}
    .fil7 {fill:#6C9B3C;fill-rule:nonzero}
    .fil2 {fill:#6C9C3D;fill-rule:nonzero}
    .fil3 {fill:#8BC53D;fill-rule:nonzero}
    .fil1 {fill:#ACD038;fill-rule:nonzero}
    .fil6 {fill:#C1C2C4;fill-rule:nonzero}
    .fil4 {fill:white;fill-rule:nonzero}
    .fil5 {fill:white;fill-rule:nonzero}
   ]]>
  </style>
 </defs>
 <g id="Layer_x0020_1">
  <metadata id="CorelCorpID_0Corel-Layer"/>
  <g id="_954145936">
   <path class="fil0" d="M3 0.17c0.28,-0.14 0.6,-0.18 0.9,-0.1 0.24,0.06 0.46,0.19 0.61,0.39 0.04,-0.11 0.14,-0.2 0.25,-0.25 0.14,-0.06 0.31,-0.09 0.46,-0.06 0.11,0.02 0.22,0.07 0.32,0.14 0.06,0.05 0.08,0.15 0.03,0.21 -0.04,0.06 -0.13,0.05 -0.15,0.12 0,0.05 0.03,0.11 0.09,0.12 0.1,0.01 0.19,-0.04 0.28,-0.06 0.14,-0.04 0.28,-0.06 0.42,-0.03 0.12,0.03 0.22,0.11 0.28,0.21 0.02,0.04 0.05,0.09 0.05,0.14 -0.01,0.08 -0.08,0.14 -0.15,0.13 -0.05,-0 -0.12,-0.01 -0.16,0.04 -0.01,0.03 -0.03,0.08 0.01,0.1 0.08,0.03 0.16,0.04 0.24,0.06 0.18,0.05 0.36,0.09 0.51,0.2 0.15,0.11 0.23,0.28 0.25,0.46 -0,0.08 -0.08,0.16 -0.16,0.14 -0.07,-0 -0.11,-0.07 -0.17,-0.1 -0.04,-0.02 -0.09,-0.05 -0.12,-0.01 -0.02,0.01 -0,0.04 0.01,0.05 0.05,0.08 0.13,0.12 0.2,0.18 0.12,0.12 0.18,0.29 0.2,0.45 0.01,0.12 0.01,0.25 -0.05,0.36 -0.05,0.09 -0.19,0.09 -0.25,0.01 -0.04,-0.08 -0.07,-0.19 -0.16,-0.24 0.04,0.09 0.1,0.17 0.11,0.27 0.03,0.17 0.04,0.36 -0.02,0.52 -0.05,0.13 -0.15,0.25 -0.27,0.32 -0.05,0.03 -0.12,0.02 -0.16,-0.02 -0.04,-0.03 -0.06,-0.09 -0.05,-0.14 -0.2,0.34 -0.55,0.55 -0.91,0.69 -0.57,0.22 -1.19,0.27 -1.8,0.28 -0.32,-0.03 -0.65,-0.03 -0.97,-0.02 -0.25,0.01 -0.51,0.02 -0.76,0.06 -0.23,0.04 -0.45,0.11 -0.65,0.23 -0.18,0.11 -0.34,0.26 -0.45,0.44 -0.07,0.12 -0.12,0.24 -0.16,0.38 -0.03,0.1 -0.17,0.13 -0.24,0.06 -0.06,-0.05 -0.05,-0.13 -0.05,-0.19 0.01,-0.42 0.17,-0.85 0.48,-1.15 0.17,-0.16 0.37,-0.28 0.59,-0.35 0.22,-0.07 0.45,-0.1 0.68,-0.13 0.31,-0.04 0.63,-0.05 0.94,-0.11 0.11,-0.02 0.22,-0.05 0.31,-0.13 0.06,-0.06 0.06,-0.16 0.04,-0.24 -0.03,-0.11 -0.06,-0.22 -0.13,-0.31 -0.13,-0.16 -0.32,-0.25 -0.52,-0.27 -0.11,-0.01 -0.21,-0.01 -0.32,-0.01 -0.53,-0.02 -1.07,-0.08 -1.58,-0.24 -0.14,-0.05 -0.28,-0.1 -0.41,-0.16 -0.1,-0.05 -0.19,-0.12 -0.24,-0.21 -0.03,-0.06 -0.03,-0.14 0.01,-0.2 -0.07,-0.06 -0.13,-0.14 -0.15,-0.24 -0.02,-0.1 0.01,-0.2 0.07,-0.27 0.07,-0.1 0.18,-0.16 0.28,-0.22 0.26,-0.14 0.54,-0.27 0.81,-0.38 0.31,-0.13 0.62,-0.25 0.94,-0.35 0.13,-0.04 0.26,-0.08 0.39,-0.1 0.11,-0.19 0.26,-0.34 0.46,-0.44zm0.35 0.03l0 0c-0.19,0.04 -0.37,0.13 -0.51,0.27 -0.16,0.15 -0.25,0.36 -0.29,0.58 -0.03,0.17 -0.03,0.34 -0.01,0.5 -0.04,-0.11 -0.08,-0.22 -0.09,-0.33 -0.02,-0.16 0,-0.32 0.08,-0.46 -0.32,0.07 -0.62,0.19 -0.93,0.3 -0.3,0.12 -0.6,0.24 -0.89,0.39 -0.12,0.06 -0.25,0.12 -0.37,0.2 -0.07,0.05 -0.14,0.11 -0.16,0.19 -0.02,0.08 0.02,0.16 0.08,0.21 0.01,0.01 0.03,0.01 0.05,0.02 0.35,0.06 0.7,0.09 1.06,0.1 0.37,0.01 0.74,0 1.11,-0.02 0.57,-0.03 1.13,-0.08 1.69,-0.16 0.05,-0.01 0.1,-0.02 0.15,-0.02 -0.32,0.11 -0.65,0.17 -0.98,0.21 -0.59,0.08 -1.19,0.1 -1.78,0.1 -0.3,-0 -0.6,-0 -0.9,-0.04 -0.11,-0.01 -0.22,-0.04 -0.32,-0.01 -0.04,0.01 -0.04,0.07 -0.01,0.09 0.08,0.1 0.2,0.14 0.32,0.19 0.55,0.22 1.14,0.3 1.72,0.32 0.62,0.02 1.24,-0.03 1.85,-0.15 0.21,-0.04 0.41,-0.09 0.61,-0.16 0.22,-0.08 0.44,-0.21 0.57,-0.4 0.11,-0.17 0.15,-0.38 0.13,-0.58 -0.01,-0.08 -0.03,-0.16 -0.06,-0.24 0.03,0.03 0.05,0.06 0.07,0.08 0.03,0.04 0.05,0.08 0.07,0.13 0.08,0.16 0.1,0.34 0.07,0.51 -0.02,0.13 -0.06,0.25 -0.12,0.37 -0.01,0.41 -0.08,0.83 -0.27,1.2 -0.17,0.34 -0.46,0.62 -0.8,0.78 -0.11,0.06 -0.23,0.09 -0.34,0.14 -0.15,0.03 -0.3,0.07 -0.45,0.07 0.03,0.01 0.06,0.01 0.09,0.01 0.21,-0.01 0.41,-0.02 0.62,-0.04 0.07,0 0.14,-0.02 0.21,-0.02 0.28,-0.04 0.55,-0.11 0.81,-0.22 0.21,-0.09 0.41,-0.2 0.58,-0.35 0.13,-0.12 0.24,-0.27 0.29,-0.45 0.04,0.02 0.08,0.04 0.11,0.07 0.06,0.06 0.07,0.15 0.08,0.23 0.08,-0.06 0.15,-0.13 0.19,-0.22 0.06,-0.15 0.05,-0.32 0.02,-0.48 -0.03,-0.11 -0.12,-0.19 -0.11,-0.31 0.02,-0.1 0.16,-0.15 0.24,-0.09 0.07,0.05 0.12,0.12 0.16,0.2 0.01,0.02 0.02,0.05 0.04,0.07 0.05,-0.14 0.03,-0.29 -0.02,-0.43 -0.03,-0.09 -0.08,-0.17 -0.16,-0.22 -0.07,-0.05 -0.13,-0.1 -0.18,-0.17 -0.03,-0.05 -0.05,-0.11 -0.04,-0.16 0.03,-0.09 0.12,-0.15 0.21,-0.14 0.09,0.01 0.18,0.06 0.25,0.12 -0.01,-0.1 -0.05,-0.2 -0.12,-0.28 -0.08,-0.09 -0.2,-0.15 -0.32,-0.18 -0.11,-0.03 -0.22,-0.06 -0.33,-0.08 -0.08,-0.02 -0.18,-0.04 -0.22,-0.12 -0.04,-0.08 -0.03,-0.18 0.02,-0.25 0.06,-0.09 0.18,-0.11 0.29,-0.1 -0.03,-0.09 -0.1,-0.16 -0.18,-0.19 -0.1,-0.03 -0.21,-0.02 -0.31,0 -0.13,0.03 -0.25,0.09 -0.38,0.08 -0.07,-0 -0.14,-0.04 -0.18,-0.1 -0.04,-0.07 -0.07,-0.15 -0.04,-0.23 0.03,-0.07 0.1,-0.12 0.17,-0.15 -0.13,-0.09 -0.29,-0.14 -0.45,-0.11 -0.11,0.02 -0.23,0.06 -0.31,0.15 -0.04,0.05 -0.07,0.11 -0.05,0.17 0.02,0.07 0.02,0.15 0.02,0.22 -0.01,0.07 -0.03,0.14 -0.06,0.21 -0.01,0.02 -0.02,0.03 -0.03,0.05 -0,-0.16 -0.04,-0.33 -0.13,-0.47 -0.09,-0.15 -0.23,-0.27 -0.39,-0.34 -0.22,-0.1 -0.47,-0.11 -0.7,-0.07zm1.02 2.7l0 0c-0.32,0.08 -0.66,0.13 -0.99,0.13 0.12,0.06 0.24,0.13 0.34,0.22 0.14,0.12 0.25,0.29 0.26,0.48 0,0.18 -0.05,0.35 -0.16,0.49 -0.07,0.1 -0.17,0.17 -0.28,0.24 -0.02,0 -0.04,0.01 -0.05,0.02 0.47,-0.01 0.95,-0.23 1.24,-0.6 0.28,-0.36 0.4,-0.81 0.43,-1.26 -0.25,0.12 -0.52,0.21 -0.79,0.28zm-0.91 0.46l0 0c0,0.02 0.01,0.04 0.02,0.05l0.01 0c0.05,0.14 0.09,0.29 0.03,0.43 -0.06,0.13 -0.2,0.2 -0.33,0.23 -0.24,0.07 -0.5,0.08 -0.75,0.11 -0.27,0.02 -0.54,0.05 -0.8,0.11 -0.24,0.05 -0.48,0.16 -0.67,0.32 -0.29,0.25 -0.44,0.63 -0.47,1 -0.01,0.05 -0.01,0.11 -0,0.16 0.01,-0.02 0.02,-0.04 0.02,-0.06 0.1,-0.33 0.32,-0.62 0.61,-0.8 0.22,-0.14 0.48,-0.23 0.74,-0.27 0.23,-0.04 0.47,-0.04 0.71,-0.06 0.25,-0.02 0.51,-0.05 0.74,-0.14 0.16,-0.07 0.31,-0.18 0.4,-0.33 0.07,-0.12 0.11,-0.27 0.07,-0.41 -0.04,-0.16 -0.18,-0.28 -0.32,-0.34z"/>
   <path class="fil0" d="M3.44 0.45c0.15,-0.03 0.31,0 0.44,0.08 0.16,0.1 0.28,0.27 0.31,0.46 0.02,0.16 -0.02,0.33 -0.12,0.47 -0.1,0.14 -0.26,0.23 -0.43,0.26 -0.19,0.03 -0.39,-0.04 -0.53,-0.17 -0.11,-0.1 -0.18,-0.24 -0.19,-0.38 -0.02,-0.16 0.02,-0.33 0.12,-0.47 0.1,-0.13 0.24,-0.22 0.4,-0.25zm0.22 0.36l0 0c-0.05,0.07 -0.02,0.18 0.06,0.22 0.06,0.03 0.14,0.02 0.18,-0.04 0.05,-0.06 0.04,-0.15 -0.01,-0.2 -0.07,-0.06 -0.19,-0.05 -0.23,0.03zm-0.36 0.1l0 0c-0.05,0.08 -0.06,0.17 -0.04,0.26l0 0c0.04,0.15 0.21,0.24 0.36,0.21 0.13,-0.03 0.23,-0.15 0.24,-0.28 -0.07,0.02 -0.15,0.01 -0.21,-0.04l-0 0.01c-0.04,-0.04 -0.07,-0.08 -0.08,-0.13 -0.01,-0.05 0,-0.11 0.02,-0.16 -0.11,-0.01 -0.23,0.04 -0.29,0.13z"/>
   <path class="fil1" d="M3.35 0.21c0.23,-0.05 0.48,-0.03 0.7,0.07 0.16,0.07 0.3,0.18 0.39,0.34 0.09,0.14 0.12,0.3 0.13,0.47 0.01,-0.02 0.02,-0.03 0.03,-0.05 0.01,0.12 -0.04,0.23 -0.08,0.33 -0.07,0.14 -0.16,0.26 -0.28,0.36 -0.07,0.06 -0.16,0.1 -0.26,0.11 0.06,-0.06 0.13,-0.1 0.18,-0.16 0.12,-0.12 0.19,-0.29 0.19,-0.46 0.01,-0.2 -0.05,-0.41 -0.18,-0.57 -0.14,-0.17 -0.35,-0.26 -0.56,-0.29 -0.2,-0.03 -0.41,-0.01 -0.61,0.06 -0.06,0.02 -0.11,0.05 -0.17,0.07 0.13,-0.14 0.32,-0.23 0.51,-0.27z"/>
   <path class="fil2" d="M4.7 0.43c0.08,-0.09 0.2,-0.13 0.31,-0.15 0.16,-0.03 0.32,0.02 0.45,0.11 -0.07,0.03 -0.14,0.08 -0.17,0.15 -0.03,0.08 -0,0.16 0.04,0.23 0.04,0.06 0.11,0.09 0.18,0.1 0.13,0.01 0.25,-0.05 0.38,-0.08 0.1,-0.02 0.21,-0.04 0.31,-0 0.09,0.03 0.16,0.1 0.18,0.19 -0.1,-0.01 -0.22,0.01 -0.29,0.1 -0.05,0.07 -0.06,0.17 -0.02,0.25 0.05,0.08 0.14,0.1 0.22,0.12 0.11,0.02 0.22,0.05 0.33,0.08 0.12,0.03 0.24,0.09 0.32,0.18 0.07,0.08 0.11,0.18 0.12,0.28 -0.07,-0.06 -0.15,-0.11 -0.25,-0.12 -0.09,-0.01 -0.18,0.05 -0.21,0.14 -0.02,0.06 0,0.12 0.04,0.16 0.05,0.07 0.11,0.12 0.18,0.17 0.08,0.05 0.12,0.14 0.16,0.22 0.05,0.14 0.07,0.29 0.02,0.43 -0.02,-0.02 -0.03,-0.05 -0.04,-0.07 -0.04,-0.08 -0.08,-0.15 -0.16,-0.2 -0.08,-0.06 -0.21,-0 -0.24,0.09 -0.01,0.11 0.09,0.2 0.11,0.31 0.03,0.16 0.04,0.33 -0.02,0.48 -0.04,0.09 -0.11,0.17 -0.19,0.22 -0.01,-0.08 -0.02,-0.17 -0.08,-0.23 -0.03,-0.03 -0.07,-0.06 -0.11,-0.07 -0.05,0.18 -0.16,0.33 -0.29,0.45 -0.17,0.15 -0.37,0.27 -0.58,0.35 -0.26,0.11 -0.53,0.17 -0.81,0.22 -0.07,0.01 -0.14,0.03 -0.21,0.02 0.07,-0.04 0.15,-0.04 0.22,-0.06 0.44,-0.11 0.86,-0.32 1.23,-0.58 0.03,-0.02 0.05,-0.04 0.07,-0.07 0.07,-0.11 0.11,-0.24 0.18,-0.35 0.07,-0.12 0.24,-0.15 0.3,-0.28 0.05,-0.09 0.01,-0.18 0.01,-0.27 0,-0.11 0.08,-0.2 0.15,-0.28 0.05,-0.05 0.1,-0.11 0.09,-0.19 -0.04,-0.11 -0.18,-0.16 -0.21,-0.27 -0.03,-0.14 0.04,-0.28 0.03,-0.42 -0,-0.07 -0.05,-0.13 -0.11,-0.15 -0.11,-0.03 -0.24,0.01 -0.35,-0.03 -0.07,-0.02 -0.14,-0.08 -0.15,-0.15 -0.02,-0.12 0.01,-0.25 -0.06,-0.35 -0.05,-0.08 -0.16,-0.07 -0.24,-0.06 -0.13,0.01 -0.27,0.04 -0.38,-0.05 -0.09,-0.07 -0.12,-0.19 -0.21,-0.26 -0.09,-0.06 -0.2,-0.02 -0.3,-0.03 -0,0.04 -0,0.08 -0.01,0.12 0,-0.07 0,-0.15 -0.02,-0.22 -0.02,-0.06 0.01,-0.12 0.05,-0.17z"/>
   <path class="fil3" d="M3.01 0.41c0.19,-0.07 0.4,-0.09 0.61,-0.06 0.21,0.03 0.42,0.13 0.56,0.29 0.13,0.16 0.19,0.37 0.18,0.57 0,0.17 -0.07,0.34 -0.19,0.46 -0.05,0.06 -0.12,0.11 -0.18,0.16 0.1,-0.01 0.19,-0.05 0.26,-0.11 0.12,-0.1 0.21,-0.22 0.28,-0.36 0.05,-0.1 0.09,-0.22 0.08,-0.33 0.03,-0.07 0.06,-0.14 0.06,-0.21 0.01,-0.04 0.01,-0.08 0.01,-0.12 0.1,0.01 0.21,-0.03 0.3,0.03 0.09,0.07 0.12,0.19 0.21,0.26 0.11,0.09 0.25,0.06 0.38,0.05 0.08,-0.01 0.19,-0.02 0.24,0.06 0.07,0.1 0.03,0.23 0.06,0.35 0.01,0.08 0.08,0.13 0.15,0.15 0.11,0.03 0.24,-0.01 0.35,0.03 0.06,0.02 0.11,0.08 0.11,0.15 0.01,0.14 -0.06,0.28 -0.03,0.42 0.03,0.12 0.17,0.16 0.21,0.27 0.02,0.07 -0.04,0.14 -0.09,0.19 -0.07,0.08 -0.15,0.17 -0.15,0.28 0,0.09 0.04,0.19 -0.01,0.27 -0.06,0.13 -0.22,0.16 -0.3,0.28 -0.07,0.11 -0.11,0.24 -0.18,0.35 -0.02,0.03 -0.04,0.05 -0.07,0.07 -0.37,0.26 -0.79,0.47 -1.23,0.58 -0.07,0.02 -0.15,0.02 -0.22,0.06 -0.21,0.03 -0.41,0.04 -0.62,0.04 -0.03,0 -0.06,-0 -0.09,-0.01 0.15,0 0.3,-0.04 0.45,-0.07 0.03,-0 0.06,0 0.09,-0.01 0.44,-0.09 0.89,-0.24 1.25,-0.53 0.28,-0.23 0.49,-0.55 0.58,-0.9 0.07,-0.27 0.1,-0.55 0.06,-0.82 -0.03,-0.23 -0.11,-0.46 -0.27,-0.63 -0.09,-0.1 -0.2,-0.18 -0.32,-0.22 -0.03,-0.02 -0.05,-0.06 -0.07,-0.08 0.02,0.08 0.05,0.16 0.06,0.24 0,0.02 0,0.05 -0.01,0.06 -0.09,0.14 -0.22,0.26 -0.37,0.35 -0.2,0.13 -0.43,0.22 -0.66,0.3 -0.42,0.13 -0.86,0.21 -1.29,0.28 -0.85,0.12 -1.72,0.06 -2.55,-0.13 -0.1,-0.02 -0.2,-0.05 -0.3,-0.07 -0.03,-0.02 -0.04,-0.08 0.01,-0.09 0.11,-0.03 0.22,-0 0.32,0.01 0.3,0.03 0.6,0.03 0.9,0.04 0.59,-0 1.19,-0.03 1.78,-0.1 0.33,-0.04 0.67,-0.1 0.98,-0.21 -0.05,-0 -0.1,0.01 -0.15,0.02 -0.56,0.07 -1.13,0.13 -1.69,0.16 -0.37,0.02 -0.74,0.03 -1.11,0.02 -0.35,-0.01 -0.71,-0.04 -1.06,-0.1 -0.02,-0 -0.04,-0 -0.05,-0.02 -0.06,-0.05 -0.1,-0.13 -0.08,-0.21 0.02,-0.08 0.09,-0.15 0.16,-0.19 0.12,-0.08 0.24,-0.14 0.37,-0.2 0.29,-0.14 0.59,-0.27 0.89,-0.39 0.3,-0.12 0.61,-0.23 0.93,-0.3 -0.08,0.14 -0.1,0.3 -0.08,0.46 0.01,0.11 0.05,0.22 0.09,0.33 -0.02,-0.17 -0.02,-0.34 0.01,-0.5 0.04,-0.21 0.13,-0.43 0.29,-0.58 0.06,-0.02 0.11,-0.05 0.17,-0.07zm0.43 0.04l0 0c-0.16,0.03 -0.3,0.12 -0.4,0.25 -0.1,0.13 -0.14,0.3 -0.12,0.47 0.02,0.14 0.09,0.28 0.19,0.38 0.14,0.13 0.34,0.2 0.53,0.17 0.17,-0.02 0.33,-0.12 0.43,-0.26 0.1,-0.13 0.14,-0.3 0.12,-0.47 -0.03,-0.19 -0.14,-0.36 -0.31,-0.46 -0.13,-0.08 -0.29,-0.11 -0.44,-0.08z"/>
   <path class="fil4" d="M3.67 0.8c0.05,-0.08 0.17,-0.09 0.23,-0.03 -0.02,0.04 -0.04,0.07 -0.06,0.11 -0.03,0.05 -0.08,0.09 -0.11,0.13 -0.07,-0.04 -0.11,-0.14 -0.06,-0.22z"/>
   <path class="fil5" d="M3.3 0.91c0.06,-0.1 0.18,-0.15 0.29,-0.13 -0.02,0.05 -0.04,0.1 -0.02,0.16 0.01,0.05 0.04,0.09 0.08,0.13l0 -0.01c0.05,0.05 0.14,0.06 0.21,0.04 -0.01,0.13 -0.11,0.25 -0.24,0.28 -0.15,0.04 -0.32,-0.06 -0.36,-0.21l-0 -0c-0.02,-0.09 -0.01,-0.19 0.04,-0.26z"/>
   <path class="fil6" d="M3.9 0.78c0.05,0.05 0.06,0.15 0.01,0.2 -0.04,0.05 -0.12,0.07 -0.18,0.04 0.04,-0.04 0.08,-0.08 0.11,-0.13 0.02,-0.04 0.04,-0.07 0.06,-0.11z"/>
   <path class="fil7" d="M5.53 1.4c0.13,0.04 0.23,0.12 0.32,0.22 0.16,0.17 0.24,0.4 0.27,0.63 0.03,0.27 0.01,0.55 -0.06,0.82 -0.09,0.35 -0.3,0.67 -0.58,0.9 -0.36,0.29 -0.8,0.44 -1.25,0.53 -0.03,0.01 -0.06,0.01 -0.09,0.01 0.11,-0.04 0.23,-0.08 0.34,-0.14 0.34,-0.16 0.63,-0.44 0.8,-0.78 0.19,-0.37 0.26,-0.79 0.27,-1.2 0.05,-0.12 0.1,-0.24 0.12,-0.37 0.03,-0.17 0.01,-0.35 -0.07,-0.51 -0.02,-0.04 -0.05,-0.08 -0.07,-0.13z"/>
   <path class="fil8" d="M5.51 1.57c0.02,0.2 -0.01,0.41 -0.13,0.58 -0.13,0.2 -0.34,0.33 -0.57,0.4 -0.2,0.07 -0.4,0.12 -0.61,0.16 -0.61,0.12 -1.23,0.17 -1.85,0.15 -0.58,-0.02 -1.17,-0.1 -1.72,-0.32 -0.11,-0.05 -0.24,-0.09 -0.32,-0.19 0.1,0.02 0.2,0.05 0.3,0.07 0.83,0.19 1.7,0.25 2.55,0.13 0.44,-0.06 0.87,-0.15 1.29,-0.28 0.23,-0.07 0.46,-0.17 0.66,-0.3 0.14,-0.09 0.27,-0.21 0.37,-0.35 0.01,-0.02 0.02,-0.04 0.01,-0.06z"/>
   <path class="fil9" d="M4.36 2.91c0.27,-0.07 0.54,-0.16 0.79,-0.28 -0.03,0.45 -0.15,0.9 -0.43,1.26 -0.29,0.38 -0.76,0.6 -1.24,0.6 0.02,-0.01 0.03,-0.02 0.05,-0.02 0.11,-0.02 0.21,-0.06 0.31,-0.11 0.17,-0.09 0.33,-0.22 0.43,-0.39 0.11,-0.18 0.15,-0.4 0.15,-0.61 -0,-0.15 -0.03,-0.31 -0.06,-0.46z"/>
   <path class="fil10" d="M3.37 3.04c0.33,-0.01 0.67,-0.05 0.99,-0.13 0.03,0.15 0.06,0.3 0.06,0.46 0,0.21 -0.04,0.43 -0.15,0.61 -0.1,0.17 -0.25,0.3 -0.43,0.39 -0.1,0.05 -0.2,0.09 -0.31,0.11 0.1,-0.06 0.2,-0.14 0.28,-0.24 0.11,-0.14 0.16,-0.32 0.16,-0.49 -0.01,-0.19 -0.12,-0.36 -0.26,-0.48 -0.1,-0.09 -0.22,-0.16 -0.34,-0.22z"/>
   <path class="fil11" d="M3.46 3.37c0.14,0.07 0.28,0.19 0.32,0.34 0.04,0.14 -0.01,0.28 -0.07,0.41 -0.09,0.16 -0.24,0.27 -0.4,0.33 -0.24,0.09 -0.49,0.12 -0.74,0.14 -0.24,0.02 -0.48,0.01 -0.71,0.06 -0.26,0.04 -0.52,0.13 -0.74,0.27 -0.29,0.18 -0.5,0.48 -0.61,0.8 -0.01,0.02 -0.01,0.04 -0.02,0.06 -0,-0.05 -0,-0.11 0,-0.16 0,0.02 0,0.03 0.01,0.05 0.05,-0.19 0.12,-0.37 0.22,-0.54 0.13,-0.21 0.31,-0.38 0.52,-0.48 0.16,-0.08 0.33,-0.13 0.5,-0.17 0.34,-0.07 0.69,-0.08 1.03,-0.12 0.2,-0.03 0.4,-0.05 0.58,-0.14 0.12,-0.06 0.22,-0.16 0.25,-0.3 0.04,-0.17 -0.03,-0.35 -0.11,-0.5 -0,-0 -0.01,-0 -0.01,-0.01l-0.01 -0c-0.01,-0.02 -0.01,-0.04 -0.02,-0.05z"/>
   <path class="fil12" d="M3.48 3.42c0,0 0.01,0 0.01,0.01 0.08,0.15 0.15,0.33 0.11,0.5 -0.03,0.13 -0.13,0.24 -0.25,0.3 -0.18,0.09 -0.38,0.11 -0.58,0.14 -0.34,0.04 -0.69,0.05 -1.03,0.12 -0.17,0.03 -0.34,0.08 -0.5,0.17 -0.22,0.11 -0.4,0.28 -0.52,0.48 -0.1,0.17 -0.17,0.35 -0.22,0.54 -0,-0.02 -0,-0.03 -0.01,-0.05 0.03,-0.38 0.18,-0.75 0.47,-1 0.19,-0.17 0.43,-0.27 0.67,-0.32 0.26,-0.06 0.53,-0.08 0.8,-0.11 0.25,-0.02 0.5,-0.04 0.75,-0.11 0.13,-0.04 0.27,-0.1 0.33,-0.23 0.06,-0.14 0.02,-0.29 -0.03,-0.43z"/>
   <path class="fil13 str0" d="M6.21 0.64c0.12,0.03 0.22,0.11 0.28,0.21 0.02,0.04 0.05,0.09 0.05,0.14 -0.01,0.08 -0.08,0.14 -0.15,0.13 -0.05,-0 -0.12,-0.01 -0.16,0.04 -0.01,0.03 -0.03,0.08 0.01,0.1 0.08,0.03 0.16,0.04 0.24,0.06 0.18,0.05 0.36,0.09 0.51,0.2 0.15,0.11 0.23,0.28 0.25,0.46 -0,0.08 -0.08,0.16 -0.16,0.14 -0.07,-0 -0.11,-0.07 -0.17,-0.1 -0.04,-0.02 -0.09,-0.05 -0.12,-0.01 -0.02,0.01 -0,0.04 0.01,0.05 0.05,0.08 0.13,0.12 0.2,0.18 0.12,0.12 0.18,0.29 0.2,0.45 0.01,0.12 0.01,0.25 -0.05,0.36 -0.05,0.09 -0.19,0.09 -0.25,0.01 -0.04,-0.08 -0.07,-0.19 -0.16,-0.24 0.04,0.09 0.1,0.17 0.11,0.27 0.03,0.17 0.04,0.36 -0.02,0.52 -0.05,0.13 -0.15,0.25 -0.27,0.32 -0.05,0.03 -0.12,0.02 -0.16,-0.02 -0.04,-0.03 -0.06,-0.09 -0.05,-0.14 -0.2,0.34 -0.55,0.55 -0.91,0.69 -0.57,0.22 -1.19,0.27 -1.8,0.28 -0.32,-0.03 -0.65,-0.03 -0.97,-0.02 -0.25,0.01 -0.51,0.02 -0.76,0.06 -0.23,0.04 -0.45,0.11 -0.65,0.23 -0.18,0.11 -0.34,0.26 -0.45,0.44 -0.07,0.12 -0.12,0.24 -0.16,0.38 -0.03,0.1 -0.17,0.13 -0.24,0.06 -0.06,-0.05 -0.05,-0.13 -0.05,-0.19 0.01,-0.42 0.17,-0.85 0.48,-1.15 0.17,-0.16 0.37,-0.28 0.59,-0.35 0.22,-0.07 0.45,-0.1 0.68,-0.13 0.31,-0.04 0.63,-0.05 0.94,-0.11 0.11,-0.02 0.22,-0.05 0.31,-0.13 0.06,-0.06 0.06,-0.16 0.04,-0.24 -0.03,-0.11 -0.06,-0.22 -0.13,-0.31 -0.13,-0.16 -0.32,-0.25 -0.52,-0.27 -0.11,-0.01 -0.21,-0.01 -0.32,-0.01 -0.53,-0.02 -1.07,-0.08 -1.58,-0.24 -0.14,-0.05 -0.28,-0.1 -0.41,-0.16 -0.1,-0.05 -0.19,-0.12 -0.24,-0.21 -0.03,-0.06 -0.03,-0.14 0.01,-0.2 -0.07,-0.06 -0.13,-0.14 -0.15,-0.24 -0.02,-0.1 0.01,-0.2 0.07,-0.27 0.07,-0.1 0.18,-0.16 0.28,-0.22 0.26,-0.14 0.54,-0.27 0.81,-0.38 0.31,-0.13 0.62,-0.25 0.94,-0.35 0.13,-0.04 0.26,-0.08 0.39,-0.1 0.11,-0.19 0.26,-0.34 0.46,-0.44 0.28,-0.14 0.6,-0.18 0.9,-0.1 0.24,0.06 0.46,0.19 0.61,0.39 0.04,-0.11 0.14,-0.2 0.25,-0.25 0.14,-0.06 0.31,-0.09 0.46,-0.06 0.11,0.02 0.22,0.07 0.32,0.14 0.06,0.05 0.08,0.15 0.03,0.21 -0.04,0.06 -0.13,0.05 -0.15,0.12 0,0.05 0.03,0.11 0.09,0.12 0.1,0.01 0.19,-0.04 0.28,-0.06 0.14,-0.04 0.28,-0.06 0.42,-0.03z"/>
  </g>
 </g>
</svg>
