<?xml version="1.0" encoding="UTF-8"?>
<!DOCTYPE svg PUBLIC "-//W3C//DTD SVG 1.1//EN" "http://www.w3.org/Graphics/SVG/1.1/DTD/svg11.dtd">
<!-- Creator: CorelDRAW 2018 (64-Bit) -->
<svg xmlns="http://www.w3.org/2000/svg" xml:space="preserve" width="8.19444in" height="8.2383in" version="1.1" style="shape-rendering:geometricPrecision; text-rendering:geometricPrecision; image-rendering:optimizeQuality; fill-rule:evenodd; clip-rule:evenodd"
viewBox="0 0 30116.94 30278.14"
 xmlns:xlink="http://www.w3.org/1999/xlink">
 <defs>
  <style type="text/css">
   <![CDATA[
    .fil5 {fill:#FEFEFE}
    .fil0 {fill:black;fill-rule:nonzero}
    .fil2 {fill:#51187E;fill-rule:nonzero}
    .fil3 {fill:#8834CE;fill-rule:nonzero}
    .fil4 {fill:#FAFBFA;fill-rule:nonzero}
    .fil1 {fill:white;fill-rule:nonzero}
   ]]>
  </style>
 </defs>
 <g id="Layer_x0020_1">
  <metadata id="CorelCorpID_0Corel-Layer"/>
  <g id="_988114000">
   <path class="fil0" d="M14799.13 515.73c770.64,-116.19 1580.03,-190.36 2334.27,59.08 351.18,123.43 735.19,239.6 973.49,546.17 467.37,-22.99 955.1,91.88 1316.14,402.39 347.24,281.59 575.67,678.09 765.4,1075.88 30.85,75.49 123.4,87.31 185.75,126.03 779.19,336.12 1350.94,1060.15 1554.44,1878.71 32.17,248.13 267.8,363.67 420.76,531.05 440.46,510.05 677.44,1176.34 685.96,1849.18 369.58,139.82 741.12,312.46 1011.56,609.16 427.35,477.22 634.78,1127.08 617.72,1763.18 -19.04,341.99 132.59,657.1 188.39,988.58 63.68,404.37 23.63,836.3 -180.52,1197.98 -118.81,179.86 -42.67,397.8 13.12,584.88 295.4,-26.91 520.55,154.93 750.29,307.2 177.24,-34.77 332.16,-152.28 516.62,-158.2 532.35,-42.01 1009.59,299.33 1342.39,683.34 303.92,328.88 453.59,796.25 847.44,1039.14 230.41,135.88 392.56,359.72 632.15,482.46 170.67,82.72 229.75,285.56 233.7,461.49 -10.52,443.73 -196.93,865.82 -187.76,1310.88 0.68,266.52 145.74,497.58 305.92,699.75 180.51,-1.95 362.99,-11.79 536.3,-70.87 110.29,264.52 8.52,595.35 -218.61,766.05 -335.44,300.64 -929.5,307.2 -1211.09,-70.9 -45.3,-133.92 -24.29,-280.31 -32.18,-418.81 -246.81,-221.86 -479.84,-498.22 -501.5,-844.82 -74.84,-412.25 182.48,-873.72 -105.7,-1238.02 -143.76,-240.92 -453.59,-133.93 -680.71,-189.06 -476.56,-106.99 -968.89,-281.61 -1320.08,-635.42 -24.29,0.65 -74.19,1.32 -99.12,1.32 -131.95,208.09 -345.27,338.71 -521.21,504.79 636.07,133.27 1115.93,654.46 1352.25,1239.34 170.02,406.34 263.88,875.67 609.82,1178.96 172.64,143.76 217.94,384.01 405.02,515.29 280.96,225.16 177.89,640.69 47.92,922.93 -231.07,502.18 -553.38,1051.61 -342.66,1620.08 76.14,296.05 446.37,174.62 668.9,223.18 -3.95,253.38 -80.74,515.97 -280.96,684.66 -240.92,230.43 -602.6,225.16 -910.47,176.59 -259.95,-95.85 -550.09,-358.41 -435.87,-663.65 5.92,-105.69 81.41,-234.34 -5.25,-322.98 -233.68,-272.41 -294.07,-652.48 -230.4,-998.42 36.1,-315.09 242.22,-591.45 222.53,-915.73 3.95,-165.42 -54.48,-321.65 -107.67,-475.26 -257.96,-78.76 -526.43,-129.97 -767.35,-254.69 -220.56,-112.24 -415.52,-266.5 -616.39,-408.29 -175.26,-122.09 -266.5,-321.66 -407.65,-475.27 -102.39,-30.85 -175.26,42.67 -242.21,105.69 -228.45,225.83 -552.71,297.37 -844.16,405.03 513.32,305.89 801.49,871.07 928.83,1437.57 91.91,449.66 76.15,946.56 351.19,1337.15 145.72,194.3 152.94,458.2 325.58,636.74 225.16,279.63 43.32,652.48 -143.76,899.32 -297.37,414.19 -689.91,838.24 -659.71,1386.36 -14.44,316.41 312.46,496.27 591.45,508.07 -3.28,80.09 -5.9,160.83 -8.52,241.59 -141.79,152.28 -270.47,341.99 -482.48,399.77 -452.94,166.07 -1016.16,-98.48 -1156.64,-564.53 -36.1,-187.76 89.93,-350.53 160.18,-514.66 -319.03,-524.48 -150.98,-1183.54 201.52,-1645.01 155.58,-236.32 120.78,-530.38 103.07,-797.57 -241.57,-154.91 -489.7,-301.95 -710.27,-486.4 -373.5,-333.47 -647.89,-758.83 -878.29,-1199.97 -301.95,240.92 -686.63,323.63 -1066.05,300 99.12,187.73 227.78,357.75 338.72,538.92 416.18,758.83 427.35,1681.11 202.17,2500.99 -221.2,652.49 -601.92,1250.49 -1090.32,1735.62 -80.74,336.74 -47.92,691.21 -135.9,1026.65 -175.91,693.18 -545.48,1322.06 -968.89,1891.17 -323.61,374.84 -682.66,719.46 -1047.01,1054.23 -848.76,654.46 -1795.32,1197.33 -2821.32,1521.61 -917.06,319.69 -1920.71,445.72 -2880.41,263.88 -341.35,-67.62 -662.36,-214.01 -963,-386.64 -52.51,-17.71 -106.99,-126.68 -34.8,-149.01 887.51,-432.58 1700.82,-1028.62 2351.33,-1773.66 -650.51,-489.7 -1501.24,-686.64 -2304.71,-591.45 -383.36,39.37 -752.93,160.83 -1137.59,190.36 99.77,-786.41 468.03,-1509.79 893.4,-2168.19 407.62,-542.87 872.39,-1056.2 1446.76,-1427.08 410.29,-240.25 812.02,-504.15 1265.62,-657.76 6.54,-343.31 106.34,-678.09 260.6,-983.33 166.07,-282.91 402.39,-515.94 642.64,-735.2 365.62,-335.44 836.3,-519.89 1297.12,-681.36 -230.43,-192.34 -484.46,-371.54 -594.08,-663.65 -132.6,-14.44 -246.82,71.54 -366.95,112.26 -203.49,91.88 -428.63,103.04 -647.89,108.96 85.34,-225.16 126.68,-468.7 30.85,-698.45 -368.9,3.28 -655.11,322.98 -1032.57,289.49 -278.97,-4.59 -409.61,-389.91 -692.53,-338.07 -181.17,119.48 -257.96,338.07 -275.04,546.16 -10.5,13.78 -31.51,40.7 -42.01,54.49 -319.71,-218.61 -592.76,-512.02 -735.2,-876.34 -338.07,44.64 -608.52,283.58 -940.02,357.75 -393.21,154.28 -818.58,148.36 -1233.44,122.75 80.74,332.82 133.93,676.12 87.96,1018.78 2.62,200.87 -154.25,342.66 -256.65,498.23 78.11,207.44 113.56,457.54 -2.65,657.75 -259.27,379.42 -821.83,500.2 -1224.88,293.43 -231.73,-110.27 -330.2,-370.22 -359.73,-609.82 95.18,-97.16 240.24,-64.33 361.7,-90.59 112.91,-9.84 194.3,-98.45 286.19,-153.61 47.27,-281.59 129.98,-578.96 23.64,-857.3 -118.81,-343.96 -305.24,-657.73 -464.76,-983.33 -212.01,30.2 -368.92,179.86 -526.45,310.5 -59.75,402.39 -194.96,789.68 -357.76,1161.22 -512.01,881.58 -1251.81,1673.24 -2210.84,2062.5 -296.06,119.46 -594.73,290.15 -926.23,246.16 202.85,-635.42 5.25,-1322.71 -385.33,-1841.93 -64.33,-32.18 -156.89,-18.39 -186.43,54.48 -212.67,304.59 -312.46,666.93 -407.65,1021.4 -108.31,498.23 -55.78,1012.21 -60.38,1517.66 -398.45,-237.61 -807.41,-474.59 -1120.51,-823.81 -379.42,-428.65 -752.94,-880.27 -967.6,-1417.23 -243.52,-576.34 -363.67,-1209.81 -328.87,-1835.39 66.3,-534.99 150.31,-1083.75 414.21,-1562.95 322.31,-773.94 876.99,-1434.3 1533.42,-1948.29 712.89,-570.44 1583.31,-913.09 2471.47,-1097.55 207.44,-42.01 448.99,-7.22 623.61,-149.01 357.1,-278.32 695.15,-584.89 1093.62,-804.14 719.43,-439.14 1549.16,-785.09 2408.44,-697.12 245.51,13.78 474.59,140.47 720.76,130.63 376.12,-454.91 862.55,-853.36 1455.3,-969.54 247.46,-72.87 469.99,121.43 713.53,106.99 153.61,-86.01 281.62,-220.58 454.91,-269.14 260.6,-85.99 533.68,-5.25 798.23,15.09 171.99,-129.32 342,-279.64 556.63,-332.15 168.72,-28.88 340.72,-9.84 510.71,-2.62 171.99,-155.58 322.33,-378.77 575.05,-397.15 265.19,-31.51 548.76,-31.51 794.27,89.26 215.31,92.58 389.93,264.55 619.68,326.91 200.22,-229.1 352.49,-491.01 491.01,-760.8 210.06,-246.82 576.34,-214.01 856.63,-334.78 204.82,-288.18 410.27,-582.92 510.05,-926.88 42.01,-279.63 355.79,-316.39 559.93,-436.53 24.28,-201.52 48.59,-403.04 66.3,-605.22 169.37,-138.52 390.56,-222.53 522.51,-400.42 43.99,-229.76 -40.04,-466.73 11.82,-693.2 101.08,-142.44 250.74,-238.29 387.95,-341.34 1.32,-29.55 3.94,-87.31 5.27,-116.86 -634.78,-338.05 -980.71,-1148.08 -719.46,-1830.12 -521.2,-305.24 -956.41,-817.26 -1004.99,-1439.54 -424.05,-9.85 -873.05,-156.23 -1139.57,-502.83 -162.78,-165.42 -190.36,-401.74 -236.98,-617.04 -425.36,-21.01 -849.41,34.12 -1268.21,101.75 -201.52,37.42 -398.46,-35.45 -587.51,-96.5 -223.18,160.16 -326.25,422.08 -468.03,646.59 -94.53,153.6 -227.13,277.66 -352.49,405.66 8.54,357.76 42.66,728.65 -75.5,1073.94 -118.8,366.94 -326.23,718.13 -641.32,949.84 -160.82,131.28 -352.49,213.99 -530.4,318.36 -171.99,77.47 -207.44,279 -304.59,422.09 -517.93,827.1 -1463.84,1387.03 -2441.92,1415.91 428.65,-592.08 561.91,-1358.13 408.3,-2068.41 -164.11,-714.86 -388.61,-1425.11 -405.02,-2163.6 9.19,-557.96 222.54,-1149.4 690.58,-1483.51 302.62,-253.41 675.44,-393.86 1037.81,-539.6 88.61,-514.63 493.65,-918.33 938.05,-1160.57 713.54,-373.5 1547.18,-515.94 2342.79,-408.3zm-1482.23 655.13l0 0c-332.16,60.38 -638.7,230.4 -903.24,435.87 -143.12,140.49 -303.93,305.24 -289.49,522.51 -15.09,8.54 -44.64,24.95 -59.73,32.82 334.78,64.33 687.28,98.48 988.58,274.39 213.35,122.11 329.53,345.29 411.57,567.82 70.25,-516.61 -418.14,-867.8 -870.42,-958.38 427.35,-217.93 894.05,-356.45 1377.84,-344.64 240.92,19.69 494.3,-9.19 723.4,81.42 -366.95,158.85 -837.6,356.42 -880.94,814.61 -21.66,356.45 -128.65,703.05 -326.9,1001.72 40.7,1.97 122.76,6.57 163.45,8.54 256.68,-193 310.5,-540.9 550.74,-747.69 173.97,-173.29 414.87,-250.08 604.58,-399.77 263.23,-196.92 317.04,-550.09 231.07,-852.03 -65,-202.84 -37.42,-460.16 -202.2,-615.09 -504.77,-21.01 -1047.65,-30.18 -1518.31,177.9zm2073.01 -183.16l0 0 9.19 5.25c5.25,305.9 137.85,596.05 124.06,902.6 -22.31,105.04 -51.84,209.4 -36.75,318.36 208.74,-301.95 316.41,-684.66 193,-1043.06 332.8,50.54 592.75,265.85 881.59,416.18 124.05,261.25 343.96,458.85 504.77,696.47l-23.63 -27.56c-93.2,-16.41 -185.76,-33.47 -277.01,-58.43 -269.14,-31.5 -537.6,1.32 -799.52,65.65 -272.43,105.69 -565.86,185.76 -783.14,393.2 712.89,-109.62 1440.87,-89.93 2142.59,80.74 190.38,-397.8 468.69,-754.24 605.24,-1177.64 -440.46,-227.77 -891.43,-454.9 -1387.04,-531.7 -380.07,-87.96 -769.32,-28.23 -1153.35,-40.05zm3036.64 659.06l0 0 -17.71 -1.32c-158.2,456.88 -444.41,855.33 -666.95,1281.36 336.77,-297.37 579.64,-678.76 871.75,-1016.14 72.2,234.34 231.72,441.11 236.3,695.15 6.57,338.07 -38.72,680.72 -224.5,970.87 -95.18,-65.65 -192.98,-125.38 -294.07,-179.86 -431.93,-104.4 -883.56,155.55 -1300.39,-39.4 98.45,196.28 329.52,284.88 533,326.9 377.45,58.43 770,66.97 1122.5,229.75 91.26,13.79 182.49,23.63 275.04,34.15 236.98,-259.95 512.02,-485.09 727.33,-764.75 135.9,-150.31 73.52,-384.66 -58.4,-515.31 -219.92,-468.02 -565.86,-911.78 -1062.11,-1104.11 -57.11,-26.26 -190.36,-5.25 -141.8,82.71zm-6383.12 1029.95l0 0c175.91,130.62 342,282.92 440.46,483.13 305.9,576.99 351.19,1281.36 160.18,1901.67 -59.73,227.78 -246.81,406.99 -253.38,649.87 759.48,-577.66 848.76,-1700.15 503.47,-2530.55 -122.75,-353.15 -506.1,-494.28 -850.73,-504.12zm-783.79 66.95l0 0 49.89 50.56c-471.31,219.9 -893.4,641.32 -922.28,1186.16 -6.57,946.56 435.88,1821.58 522.51,2755.02 36.77,324.29 -47.91,652.49 -239.59,917.04 91.91,-87.31 187.08,-171.97 266.52,-271.77 229.1,-236.97 463.43,-479.84 607.85,-780.49 273.06,-286.19 284.88,-731.25 263.88,-1105.42 -7.89,-270.45 -156.89,-497.57 -300.65,-714.84 196.93,5.24 384.68,67.6 557.96,158.2 231.73,-213.34 257.31,-541.56 311.81,-832.35 54.48,-331.51 -44.62,-673.5 -236.32,-945.26 -194.3,-283.58 -543.52,-429.31 -881.59,-416.84zm7938.22 1487.48l0 0c413.56,-56.46 773.29,-304.59 1064.08,-592.11 53.84,38.72 107.65,77.47 161.48,116.19 -7.87,276.36 37.42,570.45 -91.9,827.1 -113.57,259.95 -283.58,494.96 -513.32,664.98 -195.63,-330.85 -554.03,-511.37 -886.84,-675.47 -215.97,-98.48 -393.86,-273.09 -635.42,-311.81 96.5,294.73 266.52,578.97 537.6,743.06 352.51,208.77 760.8,299.35 1117.24,502.18l9.2 19.04c183.81,11.81 380.07,53.16 551.39,-36.1 244.2,-113.56 459.51,-278.99 689.26,-418.82 82.71,-63 217.93,-106.34 205.45,-235.64 7.22,-363.67 -162.8,-726.03 -390.56,-1002.38 -154.28,-271.09 -355.79,-538.26 -634.13,-691.21l-1.3 -74.84c-404.35,378.11 -770.64,794.95 -1182.24,1165.83zm2562.07 928.85l0 0 29.53 49.88c-418.14,246.17 -861.9,491.68 -1301.7,717.48 399.1,-19.69 773.94,-179.19 1138.91,-329.52l133.27 -23.64c-36.77,145.74 -57.13,301.3 -139.17,430.62 -298.68,410.29 -756.86,686.64 -1247.88,799.55 -14.44,-147.71 -37.42,-298.68 -109.64,-429.97 -156.23,-338.08 -575.67,-358.41 -852.03,-556.01 9.19,179.86 21.01,364.98 101.75,529.73 139.15,322.33 427.98,536.98 658.38,790.36 25.61,4.59 76.82,13.11 101.76,17.06 30.18,-52.51 59.07,-106.34 85.33,-161.48 300,-8.54 573.71,-145.72 868.45,-184.44 378.76,-74.2 766.05,-38.75 1148.11,-17.07 36.09,-175.92 68.27,-358.41 -3.28,-529.75 -68.93,-337.39 -204.8,-661.02 -399.1,-945.26l16.41 -25.58c-68.95,-56.46 -133.92,-126.71 -229.1,-131.95zm-2195.78 2942.13l0 0c4.6,110.26 9.2,221.2 13.14,331.48 54.49,-9.84 162.15,-30.85 215.96,-41.37l7.22 -51.83c243.55,-58.43 485.77,-126.06 717.49,-224.51 231.07,-32.17 464.08,-47.92 694.5,-84.03 -2.62,-75.49 -4.59,-150.33 -5.89,-225.15 -204.17,-37.42 -410.94,-55.16 -616.39,-83.39 457.52,-140.46 941.31,-259.27 1421.82,-185.75 248.79,18.38 477.22,150.98 726.68,154.25 9.84,42.02 28.87,125.38 38.72,166.75 128,132.6 268.48,269.79 314.43,455.55 53.18,163.46 57.78,406.32 267.83,447.04 3.92,-172.64 24.93,-348.57 -16.41,-517.94 -86.66,-231.72 -276.36,-398.44 -453.59,-561.23 -1040.45,-651.19 -2439.96,-368.92 -3325.5,420.13zm4449.3 160.15l0 0c82.71,349.22 -1.3,710.26 -173.94,1018.79 -79.44,93.21 13.11,187.73 49.88,275.69 257.33,-372.19 369.57,-888.16 124.06,-1294.48zm-4781.43 923.6l0 0c-126.7,65.65 -131.95,210.71 -147.71,334.78 124.08,-32.82 249.46,-59.73 376.15,-83.36 26.25,19.04 78.76,57.11 105.02,76.14 374.82,-158.2 804.79,-154.93 1197.98,-71.54 30.85,-38.07 63.02,-76.17 95.18,-113.57 -0.65,-105.69 0,-210.72 0,-315.74 -199.55,-34.13 -399.12,-64.33 -599.32,-93.21 719.44,-313.77 1537.36,-162.78 2216.1,178.54 267.83,267.17 529.75,556 655.78,920.33 109.62,308.52 -71.54,619.68 -28.88,932.13 379.41,-362.35 399.12,-962.33 172,-1412.66l-11.84 -7.87c-310.49,-546.14 -898,-876.32 -1497.95,-1003.69 -889.48,-176.57 -1816.36,131.3 -2532.52,659.71zm4727.61 548.12l0 0c200.88,638.05 -0.65,1358.81 -489.03,1811.76 141.79,357.1 206.12,738.47 224.5,1121.17 183.14,-324.92 149.01,-721.41 109.62,-1078.51 233.68,-348.57 452.94,-744.39 421.41,-1178.29 -2.62,-250.09 -117.48,-481.16 -266.5,-676.12zm-5489.74 524.48l0 0c-81.39,238.95 -238.27,441.14 -330.83,674.82 24.95,-9.19 75.49,-28.23 100.43,-38.07 573.74,41.35 1163.2,61.7 1705.42,277.66 131.27,-101.08 212.01,-244.18 231.05,-408.96 -329.53,-118.8 -664.32,-221.86 -992.53,-343.96 661.03,-110.29 1364.08,-76.8 1989,183.14 597.35,206.11 1134.3,653.14 1360.13,1253.11 86.63,302.62 41.99,621.64 32.15,931.48 -76.14,150.33 -175.92,288.84 -242.21,445.07 -50.56,131.27 85.33,230.39 139.81,334.1 222.53,-194.3 403.72,-441.12 487.08,-726.65 95.85,-422.74 32.17,-867.15 -155.58,-1255.76 -208.09,-434.57 -594.73,-745.69 -945.91,-1061.45 -13.79,-2.62 -40.05,-7.22 -53.84,-9.84 -966.92,-640.67 -2271.24,-727.98 -3324.17,-254.71zm-1376.53 1333.22l0 0c-219.24,401.74 -498.23,768.69 -840.24,1074.57 71.57,-15.09 141.79,-34.12 214.66,-42.66 156.89,68.27 331.48,50.53 498.23,55.13 519.89,-11.14 1027.97,125.38 1525.55,261.26 198.9,-162.15 347.91,-371.54 471.97,-594.07 -261.93,-258.64 -660.37,-259.3 -940.01,-475.27 510.04,-72.19 1033.87,-7.22 1525.53,141.79 260.6,73.53 496.27,212.69 753.59,296.06 385.33,297.37 794.28,608.51 1005.65,1061.45 251.41,463.43 201.52,1029.95 16.39,1507.17 30.2,158.85 99.8,306.54 156.24,457.52 357.75,-273.06 529.75,-737.17 492.98,-1178.94 -48.57,-481.16 -267.17,-933.45 -561.25,-1310.24 -962.98,-1297.75 -2810.84,-1836.69 -4319.32,-1253.78zm-2672.98 884.23l0 0c-54.49,150.31 24.28,305.24 60.38,450.3l-5.9 30.85c223.85,-4.59 437.84,-71.54 638.7,-166.72 -79.42,-40.04 -159.5,-79.44 -238.29,-118.16 6.57,-85.34 13.79,-170.02 21.01,-254.69 285.54,-57.78 552.71,57.76 823.83,112.91 19.68,-112.91 -103.07,-144.44 -170.67,-197.6 -212.69,-121.43 -437.19,-259.93 -689.91,-261.26 -223.85,6.57 -370.89,211.39 -439.15,404.38zm-681.39 -55.16l0 0c-136.52,54.49 -269.79,116.86 -394.5,194.3 85.99,64.35 172.64,128.68 259.95,193 122.08,-63.67 258.63,-159.5 403.04,-104.37 136.55,52.51 168.05,208.74 220.56,330.2 47.92,-221.23 -37.4,-428.66 -160.83,-607.2 -109.62,-3.94 -219.23,-5.27 -328.21,-5.92zm10869.19 177.89l0 0c-594.73,291.46 -901.27,918.36 -1188.8,1480.26 202.84,-243.52 363,-521.86 591.45,-744.39 213.33,-223.19 536.3,-348.57 844.82,-307.86 -223.85,78.76 -371.55,280.93 -513.99,460.15 -198.9,277.01 -401.08,574.37 -456.21,918.34 104.37,30.2 204.8,74.84 309.82,105.02 299.35,-31.5 568.48,-215.31 749.64,-450.3 252.08,-303.93 444.41,-701.08 358.41,-1104.79l8.55 -13.12c-165.43,-204.15 -414.87,-480.51 -703.7,-343.32zm968.24 226.48l0 0c15.74,229.76 170.02,408.3 295.4,589.48 160.83,183.79 355.13,332.82 564.53,457.52l21.66 -26.25c191.68,131.95 427.98,128 651.16,153.61 -168.69,108.31 -356.45,204.15 -561.9,196.27 -226.46,17.06 -419.46,-118.16 -613.76,-212.69 555.34,498.23 1324.67,674.17 2053.31,677.45 -36.77,53.16 -73.51,105.69 -110.27,158.85 108.96,177.24 229.73,363.67 228.43,580.94 -1.32,393.2 -158.86,794.93 -21.66,1181.58 109.62,286.85 387.96,451.63 638.04,602.6 -55.78,7.22 -168.05,21.66 -223.83,28.23 -37.42,150.33 -26.93,332.82 148.36,384.68 353.16,83.36 712.22,-150.34 883.54,-452.29 -171.97,45.96 -384.01,122.75 -496.27,-67.6 -19.04,16.41 -58.41,48.56 -78.12,64.32 -49.21,-82.06 -87.95,-182.48 -187.08,-214.66 -157.53,-63.67 -251.4,-210.71 -347.89,-341.32 32.17,-194.98 66.95,-389.28 97.8,-584.24l-5.25 -25.58c39.39,-192.34 78.12,-385.99 145.74,-570.45 43.31,-236.97 57.75,-481.16 -5.92,-715.52 -93.86,-47.91 -187.08,-182.48 -300,-110.91l-28.22 30.18 5.27 -45.94c-53.84,-11.82 -161.5,-34.8 -215.31,-46.62 13.11,-42.02 40.02,-125.38 53.16,-167.38 -110.94,-64.98 -220.56,-129.98 -330.85,-194.3 -442.42,-368.27 -690.56,-914.41 -1136.29,-1279.38 -328.87,-230.43 -773.92,-244.86 -1123.8,-50.56zm-13639.31 485.11l0 0c-12.47,108.29 -28.23,217.28 -19.69,327.55 13.12,388.61 351.84,639.37 538.94,949.86 122.75,-7.22 245.51,-24.28 364.32,-59.08 -15.09,-233.7 0.65,-471.31 -53.84,-700.4 -78.76,-165.43 -213.98,-326.25 -403.04,-361.7 -41.37,-9.19 -124.73,-27.58 -166.08,-37.42 132.59,-160.83 355.14,-254.69 561.25,-196.27 341.34,103.04 596.03,369.55 912.44,521.2 -241.56,-359.08 -575.02,-682.03 -975.46,-855.34 -326.25,-141.11 -618.37,144.42 -758.83,411.6zm-1944.36 419.45l0 0c45.29,48.59 91.25,97.15 137.2,145.74 173.95,99.77 376.79,37.42 565.17,28.88 129.98,153.61 248.81,315.74 368.27,477.22 166.75,-240.9 119.48,-657.08 -172.64,-779.84 -112.24,-1.32 -223.83,-4.59 -335.44,-12.46 252.73,-180.54 559.93,-302.62 875.04,-267.85 170.67,134.57 156.88,380.09 206.11,573.74 61.71,-215.31 84.69,-452.94 5.25,-666.28 -60.4,-252.08 -382.71,-231.07 -585.54,-217.93 -460.81,32.82 -779.19,395.82 -1063.42,718.78zm6064.77 -623.61l0 0c-533.03,56.46 -1047.01,221.23 -1532.77,443.1 -293.43,342.66 -602.6,674.81 -962.98,947.89 57.11,3.27 114.22,5.89 171.97,9.84 244.2,165.42 547.47,193 804.15,335.44 436.51,-318.38 975.44,-527.77 1523.55,-460.81 188.41,-143.76 352.51,-316.41 502.83,-498.88 -382.69,-301.97 -885.53,-280.31 -1345.03,-305.24 562.57,-178.56 1161.22,-223.85 1748.08,-227.8 260.6,81.41 535.64,26.26 802.8,38.75 -61.05,9.84 -181.83,29.52 -242.21,38.72 116.18,108.31 279.63,118.81 424.05,165.42 556.66,166.07 1077.21,440.46 1546.56,780.49 279.63,200.22 522.51,456.88 690.56,757.53 133.92,271.1 128,628.85 -71.55,867.79 -227.8,308.54 -584.24,487.08 -947.23,584.23 22.3,103.07 45.29,206.79 66.29,310.5 448.36,-99.8 922.28,-250.11 1215.71,-627.56 296.71,-328.21 275.7,-828.4 82.71,-1203.22 -316.41,-651.19 -920.96,-1097.55 -1536.05,-1444.81 -906.51,-441.77 -1937.11,-651.18 -2941.45,-511.37zm-8091.84 984.01l0 0c-582.89,117.49 -1102.79,447.02 -1514.36,868.45 185.11,30.85 368.9,70.89 552.71,109.61 242.87,86.66 468.03,211.39 695.82,328.89 246.81,193.65 485.76,397.78 662.33,661 56.45,-259.95 171.33,-503.47 236.32,-760.8 -149.01,-286.85 -515.96,-424.7 -826.43,-456.86 4.57,-160.83 164.75,-220.56 273.06,-306.57 170.67,-51.18 344.64,-91.9 516.62,-137.19 246.16,-9.84 501.5,-43.32 737.17,51.21 72.84,-53.83 143.09,-113.56 183.78,-197.6l73.55 5.27c-496.27,-214.66 -1060.8,-273.09 -1590.56,-165.42zm967.6 1710.64l0 0c-119.49,198.25 -58.43,448.99 -28.88,665.62 120.13,-54.48 241.56,-106.34 360.37,-164.1 234.35,-46.61 457.54,-139.81 696.48,-162.13 78.76,-115.54 136.54,-242.89 159.5,-380.74 -88.61,-41.35 -176.56,-82.71 -263.87,-123.4l-24.96 36.75c-198.89,-7.87 -390.56,41.35 -573.72,113.56 186.43,-384.01 546.82,-641.97 915.74,-834.32 363,300.65 484.44,779.84 470,1234.75 230.4,-578.32 17.06,-1203.9 -231.72,-1737.57 -733.25,36.75 -1255.76,706.97 -1478.94,1351.58zm6287.94 -814.63l0 0c-451.61,104.37 -911.12,301.3 -1199.95,678.76 56.46,-113.57 72.2,-240.92 91.25,-364.32 15.74,-5.25 47.27,-16.42 63.02,-21.66 1.97,-30.85 5.24,-91.26 7.22,-122.11 -27.56,-6.57 -82.72,-19.68 -110.27,-26.9 -584.89,-265.87 -1301.7,-204.82 -1829.48,163.45 -676.77,452.91 -1209.79,1192.72 -1267.57,2021.8 181.84,181.17 431.28,279.64 676.77,340.02 635.43,109.64 1294.48,-15.74 1877.41,-278.32 -1.32,-26.26 -3.95,-79.42 -5.25,-105.67 -677.44,296.7 -1524.9,320.33 -2139.97,-133.27 684.66,50.56 1384.43,-71.55 1976.51,-429.97 41.37,-11.14 123.43,-33.48 164.11,-44.64 80.74,-137.85 165.42,-274.39 271.12,-395.17 -90.61,387.95 61.05,812.01 372.19,1058.16 544.84,443.75 1263.63,563.22 1941.07,648.54 665.6,55.16 1341.73,66.97 2004.07,-30.85 238.95,-15.09 474.59,-80.09 693.85,-173.94 -1.3,-955.11 -474.6,-1946.33 -1303.67,-2465.57l-27.56 -4.57c-676.12,-387.29 -1499.3,-480.52 -2254.85,-313.79zm7329.04 542.21l0 0c281.61,-127.35 535.65,-322.3 843.52,-386.63 212.67,-59.75 498.23,95.18 439.15,341.99 -113.57,3.95 -228.45,8.54 -341.35,11.82l-21.66 39.39c-221.21,60.4 -393.2,219.91 -554.68,374.16 -206.13,214.66 -414.22,431.95 -568.47,688.61 36.77,12.47 109.61,37.4 145.72,49.89 -95.2,19.03 -190.36,39.37 -284.89,60.38 471.99,201.53 1063.42,79.44 1428.4,-282.91 307.22,-288.18 620.98,-677.44 552.05,-1126.45 -87.3,-185.1 -215.96,-343.97 -384.66,-460.81 -508.74,-7.22 -899.95,371.54 -1253.13,690.56zm1974.56 -223.85l0 0c8.52,76.17 17.71,152.31 28.23,228.45 44.61,105.04 64.32,216.62 84.01,328.21l49.23 -46.61c-54.48,232.38 162.15,430.63 304.59,590.78 207.44,196.95 507.44,146.39 768.03,153.61 -248.79,354.48 -795.6,403.7 -1117.26,116.86 455.58,604.57 1183.56,920.95 1901.04,1091.65 -43.99,30.85 -131.3,93.2 -175.29,124.05 36.78,108.32 84.04,215.31 103.72,329.55 107.67,512.67 -325.58,938.69 -305.89,1447.41 -56.45,394.51 258.63,684.01 523.18,922.95 -57.11,-9.19 -172,-27.56 -229.1,-36.77 -39.37,74.17 -82.04,147.71 -107.64,228.45 15.73,187.73 217.28,293.43 389.91,284.88 239.59,-14.44 507.41,-65.62 647.89,-280.96 19.69,-18.36 59.08,-54.48 78.77,-72.84 -166.73,-26.93 -333.47,-66.3 -471.32,-168.06 -27.58,13.14 -84.03,39.39 -111.59,52.52 64.98,-248.79 -256.01,-315.74 -309.17,-528.43 -63.68,-556 279.63,-1026.65 501.5,-1505.19 96.5,-197.58 156.23,-453.59 64.33,-657.1 -28.88,-191.66 -216.64,-247.47 -376.79,-290.8 7.87,-55.79 15.74,-110.94 24.28,-166.07 -36.09,-36.77 -71.54,-73.52 -106.99,-109.64l-50.56 15.11c-435.2,-475.26 -557.31,-1131.03 -904.54,-1658.8 -250.11,-393.86 -769.35,-539.6 -1202.59,-393.21zm-22071.17 1673.24l0 0c-947.88,894.08 -1453.98,2260.1 -1228.83,3553.27 135.22,764.75 462.13,1507.17 968.89,2099.25 -231.72,-465.4 -453.59,-939.34 -567.8,-1449.38 -250.76,-1001.72 -193,-2130.12 380.73,-3014.99 487.73,-760.8 1232.12,-1400.83 2117.65,-1632.55 41.34,2.65 123.4,8.55 164.77,11.82 -123.43,22.98 -257.99,30.2 -366.28,98.47 -168.72,150.99 -295.4,340.04 -448.36,505.45 -5.24,20.36 -15.08,61.71 -19.68,82.06 -229.76,254.68 -321.67,600.63 -407.65,924.91 -88.61,417.49 -170.67,940.01 180.51,1262.98 401.08,412.88 1022.08,353.8 1547.21,368.9 -224.5,299.32 -618.35,409.61 -822.5,721.41l-58.43 -2.62c375.47,356.45 490.36,877.64 571.1,1368.65 62.35,-76.14 130.62,-150.33 166.07,-243.54 49.89,-59.08 99.12,-118.16 148.36,-177.24 -2.62,-32.17 -6.57,-95.85 -8.54,-127.35 37.42,-11.16 112.91,-32.82 150.98,-43.99 115.54,-213.98 189.05,-446.36 253.39,-680.04 168.7,275.04 261.25,590.78 268.47,913.74 -236.32,238.29 -393.85,593.4 -722.73,713.54 0.67,10.5 1.32,30.85 1.97,41.35 936.07,-432.58 1616.14,-1330.58 1855.73,-2324.42 62.36,-102.4 120.79,-207.44 179.87,-311.81 -359.73,-52.51 -714.86,109.64 -1069.99,9.19 10.5,-26.26 32.83,-79.44 43.32,-105.69 475.92,-112.24 928.2,-322.31 1341.75,-580.28 189.7,-137.2 402.39,-264.55 529.73,-466.07 571.1,-723.38 384.02,-1912.84 -389.28,-2418.3 -531.04,-347.26 -1190.75,-386.63 -1807.14,-349.88 -1089.01,61.05 -2163.6,494.28 -2953.28,1253.11zm7770.17 -372.19l0 0c-182.48,98.48 -404.35,45.29 -603.25,81.39 -15.11,17.74 -45.29,52.52 -59.75,70.25l-24.28 -11.17c-505.45,313.12 -779.84,999.77 -526.46,1556.4 202.84,481.82 766.72,677.45 1255.11,666.28 584.21,-37.42 1149.4,-339.39 1520.93,-788.38 -612.44,267.17 -1350.93,251.42 -1916.11,-123.41 34.79,200.87 75.49,401.08 111.58,601.95 -342.66,-202.84 -626.2,-520.55 -723.38,-913.08 254.71,3.27 515.97,7.22 752.94,-102.42l17.06 15.76c106.99,-43.99 214.01,-87.31 320.99,-131.3 53.18,-231.72 88.63,-468.03 78.77,-706.32 -68.93,-70.89 -127.36,-153.61 -204.15,-215.96zm10353.88 613.77l0 0c-328.87,152.93 -674.81,309.82 -922.93,583.56 263.87,-171.33 576.99,-242.22 844.16,-401.74 334.78,-88.63 734.55,-138.5 1009.59,117.49 10.52,74.19 25.6,148.36 43.99,221.23 -34.15,65 -66.95,130.62 -99.12,196.27 -174.62,-142.44 -406.34,-194.95 -621.64,-120.13 -314.43,66.3 -538.92,306.55 -814.64,449.64 9.2,32.83 28.23,99.8 37.42,133.27 -47.91,6.57 -143.1,20.36 -191.01,27.58 108.31,135.22 288.16,166.07 447.02,208.09 466.73,112.89 940.66,-81.41 1329.28,-328.88 324.26,-203.5 579.62,-581.59 445.71,-976.12 -84.68,-127.32 -173.3,-276.36 -334.77,-310.48 -403.07,-68.92 -796.25,76.79 -1173.05,200.22zm1974.54 442.42l0 0c13.79,23.63 40.05,71.55 53.16,95.83 314.44,86.01 547.47,340.7 701.73,617.06 95.2,173.29 9.85,380.73 -58.41,547.46 -120.13,-122.76 -188.39,-280.96 -249.44,-438.49 -130.63,-58.43 -261.93,-113.56 -395.18,-164.11 -45.29,45.96 -89.93,91.9 -134.57,137.85 -8.54,-17.07 -25.6,-51.21 -34.13,-67.62 -112.89,36.1 -227.78,65.65 -342.64,91.91 188.38,948.53 936.72,1696.22 1800.57,2075.63 -17.73,15.11 -53.16,43.99 -70.9,58.43 -33.47,15.76 -99.77,47.26 -132.6,63.02 36.77,143.74 57.78,290.8 55.16,439.8 -124.08,541.56 -634.78,928.2 -632.8,1513.08 68.92,282.26 198.23,548.76 398.44,762.1 -79.41,-23.63 -153.58,-82.71 -238.94,-69.57 -49.21,47.26 -97.15,95.85 -143.74,145.74 28.2,97.15 -1.32,233.02 100.42,294.07 255.36,197.6 651.84,189.05 917.04,15.11 32.82,-32.17 66.3,-64.35 99.77,-96.5 -245.51,25.61 -342.66,-246.82 -567.8,-263.88 108.96,-217.94 -197.6,-328.88 -175.27,-538.94 -0.65,-130.62 16.41,-260.6 30.85,-389.91 250.76,-471.32 675.47,-821.2 909.82,-1301.7 76.79,-157.56 1.3,-330.2 -48.59,-483.13 -123.4,-84.69 -250.08,-164.78 -381.38,-235.67 80.09,-36.77 166.07,-64.33 250.11,-93.88 -68.93,-43.97 -136.55,-87.96 -204.17,-131.95 -13.12,-5.89 -38.07,-18.36 -50.54,-24.28 35.45,-124.05 -11.81,-233.68 -95.18,-322.95 -227.78,-551.41 -198.23,-1180.27 -489.68,-1708.04 -121.46,-232.38 -365,-353.83 -563.88,-508.07 -102.4,-6.57 -204.82,-13.14 -307.22,-18.39zm-9234.02 333.47l0 0 0 25.61c-256,-40.7 -483.78,119.45 -714.19,205.45 -33.47,-7.22 -101.08,-21.66 -134.57,-28.88 234.35,372.19 542.87,709.61 938.72,912.44 485.09,-194.31 986.6,-412.25 1343.04,-809.39 -104.37,-47.26 -221.23,-53.83 -301.95,38.74 -238.3,184.46 -501.52,335.45 -773.27,464.75 -82.72,22.98 -170.02,103.72 -256.68,55.14 -143.76,-107 -257.98,-246.82 -389.91,-366.95 118.14,41.37 248.78,35.45 360.38,-26.91 12.47,22.99 37.42,68.93 49.89,91.91 42.02,-244.86 77.46,-490.36 97.15,-737.17 -74.17,56.45 -146.39,115.53 -218.61,175.26zm-1160.57 1305.65l0 0c20.36,1.95 62.38,7.22 83.39,9.17 0.65,-181.84 106.34,-331.5 185.75,-486.4l-280.28 -324.94c-12.49,-31.5 -36.77,-95.18 -48.59,-127.35 -233.03,277.01 -184.46,677.44 59.73,929.52zm5370.28 -816.61l0 0c281.61,156.23 582.89,275.04 869.12,424.05 249.43,-45.94 498.88,-95.18 750.93,-128.65 -448.99,-370.23 -1070.64,-419.46 -1620.05,-295.4zm-2008.02 1.97l0 0c97.8,179.86 199.57,372.85 168.04,584.88 -87.96,345.94 168.05,655.13 414.21,865.17 277.02,240.9 684.01,216.62 1006.31,89.94 233.05,-407 598.68,-706.32 967.58,-983.34 -502.17,130.65 -961.67,399.12 -1345.69,745.06 25.61,-268.48 -143.09,-497.58 -330.17,-668.9 -273.09,-238.29 -563.23,-456.88 -880.27,-632.8zm-498.9 212.69l0 0 -309.17 379.41c65,204.15 53.83,413.54 -38.72,608.52 80.74,-22.98 162.12,-45.29 242.87,-67.63 382.04,-118.14 656.43,-621.63 360.38,-959.05l12.46 -25.58c-99.12,-90.59 -190.35,-6.57 -267.82,64.33zm-6901.71 157.53l0 0c91.25,513.34 495.61,887.5 652.51,1374.57 38.72,157.55 20.34,321.65 32.15,482.48 -84.68,179.86 -275.04,299.33 -292.76,510.69 300.65,16.42 442.45,-274.39 587.51,-485.75 147.04,-221.88 93.2,-499.55 86.66,-748.99 -61.06,89.28 -121.46,179.22 -175.29,273.74 -93.21,-557.31 -616.38,-890.13 -779.84,-1410.67 -27.56,1.3 -83.36,3.28 -110.94,3.94zm10372.27 607.87l0 0c-380.07,230.4 -709.61,535.64 -1005,865.82 505.45,99.77 978.09,340.69 1357.51,688.61l15.09 -47.26c487.06,-103.72 825.8,-579 910.46,-1048.99 236.32,166.73 256.68,482.48 448.99,685.33 -15.09,319.03 42.02,651.16 -73.51,957.72 -82.04,273.74 -254.68,505.45 -418.16,735.2 47.27,196.93 111.62,389.93 180.54,580.94 34.77,-11.16 104.37,-34.13 139.15,-45.96 297.35,-489.04 638.05,-998.42 641.34,-1593.8 46.61,-581.59 -152.29,-1184.85 -552.07,-1612.19l0 -39.39c-163.45,-190.38 -414.84,-262.58 -650.51,-312.46l43.32 -21.66c-353.81,-2.63 -725.35,24.28 -1037.15,208.09zm-3588.05 2148.5l0 0c-349.88,320.33 -617.69,791 -541.56,1280.04 93.86,599.3 137.84,1204.54 143.1,1811.08 -227.8,-366.28 -235.02,-842.19 -517.91,-1176.32 -3.3,-43.97 -9.87,-133.25 -13.14,-177.89 -1046.36,390.58 -1911.54,1171.07 -2533.17,2086.15 -227.78,350.53 -454.25,710.24 -577.66,1112.63 165.43,-369.55 461.47,-657.73 747.68,-935.39 426.68,-384.68 907.84,-720.11 1443.49,-933.45 -269.79,328.87 -414.87,740.45 -489.7,1155.33 66.3,39.37 132.6,82.71 203.5,114.86 -36.78,-9.84 -110.29,-30.2 -147.05,-40.04 -418.16,94.52 -824.47,247.47 -1207.17,440.47 183.14,-13.79 366.3,-34.8 546.81,-66.3 750.31,-66.31 1535.39,107.64 2128.15,588.15 -9.85,-17.06 -30.2,-49.89 -40.72,-66.95 287.53,-317.06 416.86,-739.14 527.79,-1144.16 521.2,300 1157.93,447.02 1743.46,252.73 789.69,-247.47 1402.8,-925.56 1648.96,-1707.39 182.48,-463.43 153.6,-968.89 135.22,-1455.95 0,-80.09 -19.69,-156.23 -62.35,-223.18l11.16 -35.45c-40.69,-106.99 -81.41,-214.01 -129.97,-317.72 -9.85,-125.38 -38.75,-263.22 79.41,-349.21 177.24,263.88 407,489.7 564.53,767.35 253.38,378.11 382.06,824.48 443.75,1271.5 93.2,907.19 -306.55,1796.67 -889.46,2470.82 -660.38,825.13 -1553.13,1430.35 -2482.63,1914.8 -1041.08,521.23 -2172.78,896.7 -3337.28,991.88 550.09,87.96 1108.06,11.16 1652.88,-75.49 2154.41,-396.5 4100.06,-1830.8 5103.09,-3779.08 361.05,-691.88 495.6,-1514.38 269.8,-2270.59 -99.78,-544.17 -349.22,-1064.73 -728.63,-1468.44 -456.89,-470 -1111.35,-742.44 -1767.77,-722.73 -698.45,-21.01 -1396.9,235.67 -1926.63,687.94zm-6526.89 -371.54l0 0c-124.06,128 -292.1,179.86 -463.45,206.11 70.25,42.02 140.49,85.99 219.91,112.92l-0.65 64.97c34.8,-10.49 103.72,-30.85 138.52,-41.34l-15.12 84.68c181.84,-3.28 363.67,-0.67 545.51,0l-38.07 -137.2c44.64,24.29 133.25,72.85 177.24,97.16 -25.61,-47.26 -76.82,-141.14 -103.07,-187.74l160.16 53.18c-8.54,-96.5 -16.41,-192.34 -22.98,-288.18 -200.2,-29.55 -399.77,15.09 -598,35.45z"/>
   <path class="fil0" d="M26355.58 15165.31c299.33,110.94 642.64,90.58 925.56,232.37 86.66,462.78 -99.77,977.41 132.6,1417.88 94.53,250.76 364.98,414.21 374.18,697.78 -187.76,-100.42 -303.28,-279.63 -403.72,-459.48 -81.41,-149.01 -254.69,-212.04 -347.92,-348.57 -194.3,-368.27 -256,-791.01 -460.13,-1154.66 -72.87,-129.32 -149.01,-256.01 -220.58,-385.31z"/>
   <path class="fil0" d="M17575.82 16091.51c59.73,-88.61 106.99,-206.12 232.37,-206.77 414.87,466.07 627.56,1081.81 638.05,1701.47 -469.34,137.2 -956.4,210.71 -1445.44,217.28 -793.63,-106.34 -1601.7,-258.64 -2307.37,-655.11 -202.17,-110.94 -368.24,-278.97 -473.92,-483.14 679.39,288.18 1438.89,242.89 2154.38,145.09 460.81,-89.93 964.31,-285.56 1201.93,-718.81z"/>
   <path class="fil1" d="M15061.04 68.7c901.94,-138.5 1860.97,-81.39 2699.89,298.68 270.45,103.72 462.13,380.06 771.97,372.84 674.82,35.45 1270.85,457.54 1648.31,998.45 166.07,248.13 250.74,579.61 552.7,704.34 781.16,395.82 1327.95,1158.6 1577.41,1986.38 51.86,200.19 229.75,322.95 359.72,470.65 449.66,490.35 676.8,1141.52 768.03,1791.4 499.55,254.69 1031.92,567.8 1261.65,1107.39 203.5,336.75 295.4,724.05 352.51,1109.37 29.55,274.39 -19.69,559.27 78.11,824.48 149.01,449.64 172.64,930.15 124.73,1399.5 -53.16,211.36 -137.84,416.83 -143.76,638.7 125.38,57.1 247.47,125.38 382.04,162.15 293.43,-36.77 592.76,-90.61 888.16,-32.18 528.42,129.33 991.85,460.16 1328.6,882.91 222.53,323.63 373.52,733.23 739.8,926.23 217.28,116.18 374.16,314.43 581.59,447.02 176.59,120.78 314.43,304.59 346.61,520.55 124.73,613.11 -263.9,1208.5 -93.88,1818.33 143.1,-9.2 284.23,-33.5 420.13,-79.44 108.31,72.22 227.77,135.22 316.39,234.34 137.2,290.15 118.81,630.18 -8.54,920.33 -110.29,336.09 -439.15,531.04 -750.29,654.46 -382.69,89.26 -793.63,54.49 -1144.17,-129.32 -51.19,-67.62 -101.75,-133.92 -152.28,-200.87 -36.1,230.4 -61.06,464.75 -135.23,687.93 -128,368.92 -343.31,705 -437.82,1086.39 -42.02,122.09 3.92,246.82 30.18,367.6 197.58,-15.74 397.13,-3.94 582.91,74.19 188.39,406.34 85.98,892.73 -196.27,1229.49 -250.76,357.75 -729.31,420.13 -1133.02,407.64 -402.39,5.27 -775.89,-256 -951.16,-610.47 -129.97,-235.67 -3.27,-525.15 -130.62,-762.12 -103.72,-221.86 -160.18,-462.13 -177.9,-705.67 -20.34,-410.92 142.45,-794.92 246.17,-1180.91 74.82,-246.17 -209.4,-253.38 -364.98,-317.06 -404.37,-158.2 -791.66,-384.01 -1089.68,-704.35 -81.39,-110.29 -222.53,-58.43 -336.09,-57.1 85.34,229.08 247.47,418.14 350.53,639.34 286.21,529.1 195.63,1163.21 412.91,1713.96 91.9,138.5 212.67,261.25 258.62,426.02 84.04,271.77 326.93,487.08 303.28,791.66 5.25,580.94 -432.58,1022.71 -742.41,1471.06 -145.09,173.95 -118.84,407 -126.06,617.06 177.24,42.67 407.65,17.71 521.23,191 141.11,435.88 -69.6,927.55 -457.54,1158.61 -517.28,345.29 -1236.71,208.09 -1677.84,-197.58 -290.15,-304.59 -324.92,-751.61 -220.55,-1141.54 -93.23,-475.26 -118.16,-993.85 110.94,-1436.92 103.72,-255.35 380.07,-467.38 292.1,-771.97 -527.11,-322.95 -1016.81,-739.12 -1298.42,-1301.7 -90.58,-1.95 -181.17,-3.28 -271.75,-5.25 409.61,724.06 483.79,1590.53 353.81,2400.57 -130.63,703.7 -464.75,1356.2 -909.81,1911.53 -94.53,115.54 -220.58,210.72 -282.92,348.56 -53.83,247.47 -54.48,502.18 -98.47,751.61 -303.27,1436.95 -1256.4,2665.78 -2433.37,3510.59 -745.72,594.73 -1598.43,1057.53 -2505.62,1352.25 -958.37,363.01 -2001.45,520.56 -3022.2,396.5 -528.42,-70.25 -1027.3,-284.24 -1477.62,-563.22 -273.09,-126.7 -294.07,-598 -18.38,-731.93 490.36,-269.14 1021.41,-486.41 1436.92,-871.74 178.56,-171.32 387.96,-306.55 563.88,-480.49 -120.13,-141.79 -332.82,-161.5 -500.22,-225.18 -364.97,-91.88 -746.36,-47.91 -1118.55,-51.84 -384.68,-9.19 -746.36,132.6 -1117.9,204.15 -216.64,49.88 -438.5,-149.01 -434.57,-365.65 -17.06,-607.19 257.33,-1166.46 483.79,-1713.28 179.87,-381.38 439.82,-718.14 671.54,-1068.67 659.05,-792.97 1508.46,-1427.08 2455.05,-1836.04 69.57,-509.39 315.73,-966.92 616.39,-1375.22 321.65,-384.66 762.75,-643.29 1198.64,-878.96 -305.9,53.18 -611.14,124.08 -922.95,129.33 -261.25,-18.39 -383.36,-280.96 -383.36,-513.32 -222.53,20.33 -441.12,106.34 -666.27,80.07 -135.23,-47.92 -264.55,-110.92 -397.15,-163.46 -19.03,170.68 -95.85,321.67 -229.1,431.28 -126.67,-3.94 -255.35,11.17 -379.39,-17.73 -312.49,-179.19 -577.67,-433.24 -792.98,-720.76 -165.43,-1.95 -310.49,101.75 -464.1,149.67 -323.61,109.62 -661.03,173.29 -995.13,244.84 10.49,346.61 7.87,722.08 -208.12,1012.87 -73.52,286.86 55.81,619.03 -114.86,884.21 -371.54,614.42 -1232.13,775.89 -1849.83,467.38 -387.95,-244.86 -532.35,-733.9 -512.67,-1170.41 84.04,-91.26 158.21,-194.98 261.26,-265.21 131.28,-21.66 265.2,-9.84 397.8,-7.87 117.51,-306.55 51.86,-708.29 -221.23,-911.14 -398.44,1560.35 -1625.3,2873.21 -3154.8,3376.68 -339.37,109.64 -772.62,291.48 -1083.11,22.34 -16.41,-207.44 -8.54,-415.52 32.18,-619.68 57.75,-270.45 -11.17,-544.19 -86.01,-802.82 -273.74,601.95 -203.5,1282.01 -194.3,1924.65 20.36,275.05 -307.87,437.85 -544.83,346.61 -1102.82,-609.82 -2033.64,-1590.53 -2445.21,-2796.39 -377.45,-1128.41 -297.37,-2403.2 230.4,-3471.21 366.28,-804.15 934.75,-1516.36 1637.14,-2052.66 251.4,-226.48 542.87,-397.8 846.79,-544.84 619.68,-349.88 1312.21,-561.9 2014.59,-661.03 317.04,-26.91 511.34,-304.59 751.61,-476.57 407.62,-291.45 840.89,-546.79 1290.53,-769.32 770.65,-387.95 1663.4,-473.95 2504.94,-303.28 245.51,-217.28 480.51,-454.25 760.16,-629.52 248.13,-126.7 513.98,-223.85 787.05,-283.58 216.61,-49.88 431.27,25.61 645.92,47.27 194.98,-51.21 368.27,-162.8 562.57,-215.96 242.24,-80.09 500.2,-7.9 747.01,-47.27 162.8,-69.58 304.59,-181.17 472.64,-240.25 176.59,-68.27 369.58,-61.7 552.06,-106.34 198.9,-120.14 374.84,-300 619.66,-322.31 477.89,-138.5 953.81,70.89 1369.99,290.13 144.41,-189.7 214.66,-426.02 371.54,-605.87 258.64,-281.61 785.76,-113.56 964.94,-485.09 170.02,-244.2 254.06,-530.41 366.96,-802.17 80.09,-195.63 320.33,-211.37 477.22,-320.33 43.32,-155.58 14.44,-321.67 14.44,-480.52 157.53,-186.43 419.45,-271.09 533.02,-492.31 -32.83,-186.43 -67.6,-374.17 -54.49,-564.53 89.28,-92.56 296.05,-215.96 162.8,-357.75 -278.32,-306.57 -517.26,-690.58 -503.47,-1119.88 -21.66,-204.17 70.89,-470.65 -125.38,-612.44 -334.78,-296.06 -675.47,-647.92 -726.01,-1115.28 -588.16,-121.46 -1172.39,-472.64 -1368,-1070.64 -497.58,-40.72 -983.99,103.72 -1480.91,75.49 -71.55,259.28 -261.91,452.28 -403.04,672.17 -84.04,344.64 -29.55,715.51 -157.56,1051.61 -151.63,395.82 -356.45,781.81 -678.09,1066.04 -185.78,197.6 -445.72,294.75 -657.73,456.21 -164.11,173.32 -244.2,406.99 -401.08,586.86 -310.49,361.03 -677.44,676.12 -1088.38,917.69 -533.65,245.51 -1119.2,430.62 -1713.28,370.89 -173.94,-47.27 -286.21,-239.62 -259.95,-416.86 -7.87,-208.09 192.34,-324.26 292.76,-483.11 275.07,-420.13 301.97,-953.14 211.39,-1434.3 -164.11,-760.16 -412.25,-1514.39 -424.71,-2298.15 32.17,-459.51 102.39,-951.83 391.23,-1327.97 310.49,-501.53 854.66,-793.63 1388.35,-998.43 148.36,-315.09 314.43,-628.86 583.57,-859.93 572.4,-497.57 1324.68,-743.07 2069.72,-821.18 413.56,-73.52 833,17.06 1247.88,-34.15zm-261.91 447.02l0 0c-795.61,-107.64 -1629.25,34.8 -2342.79,408.3 -444.41,242.24 -849.44,645.94 -938.05,1160.57 -362.36,145.74 -735.19,286.19 -1037.81,539.6 -468.03,334.12 -681.39,925.55 -690.58,1483.51 16.41,738.49 240.9,1448.74 405.02,2163.6 153.61,710.27 20.34,1476.32 -408.3,2068.41 978.09,-28.88 1924,-588.81 2441.92,-1415.91 97.15,-143.09 132.6,-344.62 304.59,-422.09 177.9,-104.37 369.58,-187.08 530.4,-318.36 315.09,-231.72 522.53,-582.91 641.32,-949.84 118.16,-345.29 84.04,-716.17 75.5,-1073.94 125.36,-128 257.96,-252.06 352.49,-405.66 141.79,-224.51 244.86,-486.43 468.03,-646.59 189.05,61.05 385.99,133.92 587.51,96.5 418.79,-67.63 842.84,-122.76 1268.21,-101.75 46.62,215.31 74.2,451.63 236.98,617.04 266.52,346.61 715.52,492.98 1139.57,502.83 48.57,622.28 483.79,1134.3 1004.99,1439.54 -261.25,682.04 84.68,1492.07 719.46,1830.12 -1.33,29.55 -3.95,87.31 -5.27,116.86 -137.2,103.05 -286.86,198.9 -387.95,341.34 -51.86,226.46 32.17,463.43 -11.82,693.2 -131.95,177.89 -353.15,261.9 -522.51,400.42 -17.71,202.18 -42.02,403.7 -66.3,605.22 -204.14,120.14 -517.93,156.91 -559.93,436.53 -99.78,343.96 -305.24,638.7 -510.05,926.88 -280.29,120.78 -646.58,87.96 -856.63,334.78 -138.52,269.79 -290.8,531.7 -491.01,760.8 -229.75,-62.36 -404.37,-234.34 -619.68,-326.91 -245.51,-120.78 -529.08,-120.78 -794.27,-89.26 -252.73,18.38 -403.07,241.57 -575.05,397.15 -169.99,-7.22 -341.99,-26.26 -510.71,2.62 -214.63,52.51 -384.65,202.84 -556.63,332.15 -264.55,-20.34 -537.63,-101.08 -798.23,-15.09 -173.29,48.56 -301.3,183.13 -454.91,269.14 -243.54,14.44 -466.07,-179.86 -713.53,-106.99 -592.75,116.18 -1079.17,514.63 -1455.3,969.54 -246.17,9.84 -475.26,-116.86 -720.76,-130.63 -859.28,-87.98 -1689.01,257.98 -2408.44,697.12 -398.46,219.24 -736.52,525.81 -1093.62,804.14 -174.62,141.79 -416.18,107 -623.61,149.01 -888.16,184.46 -1758.58,527.11 -2471.47,1097.55 -656.43,513.99 -1211.11,1174.36 -1533.42,1948.29 -263.9,479.21 -347.91,1027.97 -414.21,1562.95 -34.8,625.58 85.34,1259.05 328.87,1835.39 214.66,536.95 588.18,988.58 967.6,1417.23 313.11,349.22 722.06,586.21 1120.51,823.81 4.6,-505.45 -47.92,-1019.43 60.38,-1517.66 95.2,-354.46 194.98,-716.81 407.65,-1021.4 29.53,-72.87 122.09,-86.66 186.43,-54.48 390.58,519.21 588.18,1206.51 385.33,1841.93 331.5,43.99 630.17,-126.7 926.23,-246.16 959.03,-389.26 1698.84,-1180.92 2210.84,-2062.5 162.8,-371.54 298.02,-758.83 357.76,-1161.22 157.53,-130.65 314.44,-280.31 526.45,-310.5 159.53,325.6 345.95,639.37 464.76,983.33 106.34,278.34 23.63,575.7 -23.64,857.3 -91.9,55.16 -173.29,143.77 -286.19,153.61 -121.46,26.26 -266.52,-6.57 -361.7,90.59 29.53,239.6 128,499.55 359.73,609.82 403.05,206.77 965.62,85.99 1224.88,-293.43 116.21,-200.2 80.76,-450.31 2.65,-657.75 102.4,-155.58 259.27,-297.37 256.65,-498.23 45.97,-342.66 -7.22,-685.96 -87.96,-1018.78 414.86,25.61 840.22,31.53 1233.44,-122.75 331.5,-74.17 601.95,-313.11 940.02,-357.75 142.44,364.32 415.5,657.73 735.2,876.34 10.49,-13.79 31.5,-40.72 42.01,-54.49 17.07,-208.09 93.86,-426.68 275.04,-546.16 282.92,-51.84 413.56,333.48 692.53,338.07 377.45,33.48 663.66,-286.21 1032.57,-289.49 95.83,229.75 54.49,473.29 -30.85,698.45 219.26,-5.92 444.41,-17.07 647.89,-108.96 120.13,-40.72 234.35,-126.7 366.95,-112.26 109.62,292.11 363.65,471.31 594.08,663.65 -460.81,161.47 -931.5,345.93 -1297.12,681.36 -240.25,219.26 -476.57,452.29 -642.64,735.2 -154.26,305.24 -254.06,640.02 -260.6,983.33 -453.59,153.61 -855.33,417.51 -1265.62,657.76 -574.37,370.89 -1039.14,884.21 -1446.76,1427.08 -425.36,658.4 -793.63,1381.78 -893.4,2168.19 384.66,-29.53 754.23,-150.99 1137.59,-190.36 803.47,-95.2 1654.2,101.75 2304.71,591.45 -650.51,745.04 -1463.82,1341.07 -2351.33,1773.66 -72.19,22.33 -17.71,131.3 34.8,149.01 300.64,172.64 621.64,319.03 963,386.64 959.7,181.84 1963.36,55.81 2880.41,-263.88 1026,-324.28 1972.56,-867.15 2821.32,-1521.61 364.35,-334.77 723.4,-679.39 1047.01,-1054.23 423.41,-569.11 792.98,-1197.98 968.89,-1891.17 87.98,-335.44 55.16,-689.91 135.9,-1026.65 488.39,-485.12 869.12,-1083.12 1090.32,-1735.62 225.18,-819.88 214.01,-1742.16 -202.17,-2500.99 -110.94,-181.17 -239.6,-351.19 -338.72,-538.92 379.42,23.63 764.1,-59.08 1066.05,-300 230.4,441.14 504.79,866.5 878.29,1199.97 220.58,184.44 468.7,331.48 710.27,486.4 17.71,267.18 52.51,561.25 -103.07,797.57 -352.49,461.47 -520.55,1120.53 -201.52,1645.01 -70.25,164.13 -196.28,326.9 -160.18,514.66 140.49,466.05 703.7,730.6 1156.64,564.53 212.01,-57.78 340.69,-247.49 482.48,-399.77 2.62,-80.76 5.24,-161.5 8.52,-241.59 -278.99,-11.81 -605.89,-191.66 -591.45,-508.07 -30.2,-548.12 362.35,-972.17 659.71,-1386.36 187.08,-246.84 368.92,-619.69 143.76,-899.32 -172.64,-178.54 -179.86,-442.44 -325.58,-636.74 -275.04,-390.59 -259.28,-887.5 -351.19,-1337.15 -127.35,-566.5 -415.51,-1131.68 -928.83,-1437.57 291.45,-107.67 615.71,-179.21 844.16,-405.03 66.95,-63.02 139.82,-136.54 242.21,-105.69 141.15,153.61 232.4,353.17 407.65,475.27 200.87,141.79 395.83,296.05 616.39,408.29 240.92,124.73 509.39,175.94 767.35,254.69 53.19,153.61 111.62,309.84 107.67,475.26 19.69,324.28 -186.43,600.63 -222.53,915.73 -63.67,345.94 -3.28,726.01 230.4,998.42 86.66,88.64 11.17,217.29 5.25,322.98 -114.22,305.24 175.92,567.8 435.87,663.65 307.87,48.57 669.55,53.84 910.47,-176.59 200.22,-168.69 277.01,-431.28 280.96,-684.66 -222.53,-48.56 -592.76,72.87 -668.9,-223.18 -210.72,-568.47 111.59,-1117.9 342.66,-1620.08 129.97,-282.24 233.03,-697.77 -47.92,-922.93 -187.08,-131.28 -232.38,-371.54 -405.02,-515.29 -345.94,-303.28 -439.8,-772.62 -609.82,-1178.96 -236.32,-584.88 -716.17,-1106.07 -1352.25,-1239.34 175.94,-166.08 389.26,-296.7 521.21,-504.79 24.93,0 74.82,-0.67 99.12,-1.32 351.19,353.81 843.52,528.43 1320.08,635.42 227.12,55.13 536.95,-51.86 680.71,189.06 288.18,364.3 30.86,825.77 105.7,1238.02 21.66,346.61 254.69,622.96 501.5,844.82 7.89,138.5 -13.12,284.89 32.18,418.81 281.59,378.11 875.66,371.54 1211.09,70.9 227.13,-170.7 328.89,-501.53 218.61,-766.05 -173.32,59.08 -355.79,68.92 -536.3,70.87 -160.18,-202.17 -305.24,-433.24 -305.92,-699.75 -9.17,-445.06 177.24,-867.15 187.76,-1310.88 -3.95,-175.94 -63.03,-378.77 -233.7,-461.49 -239.59,-122.75 -401.74,-346.58 -632.15,-482.46 -393.85,-242.89 -543.52,-710.26 -847.44,-1039.14 -332.8,-384.01 -810.04,-725.35 -1342.39,-683.34 -184.46,5.92 -339.39,123.43 -516.62,158.2 -229.75,-152.28 -454.9,-334.12 -750.29,-307.2 -55.79,-187.08 -131.93,-405.02 -13.12,-584.88 204.15,-361.68 244.2,-793.62 180.52,-1197.98 -55.81,-331.48 -207.44,-646.59 -188.39,-988.58 17.06,-636.1 -190.38,-1285.96 -617.72,-1763.18 -270.44,-296.7 -641.97,-469.34 -1011.56,-609.16 -8.52,-672.84 -245.51,-1339.12 -685.96,-1849.18 -152.96,-167.38 -388.6,-282.92 -420.76,-531.05 -203.5,-818.56 -775.25,-1542.59 -1554.44,-1878.71 -62.35,-38.72 -154.9,-50.54 -185.75,-126.03 -189.73,-397.78 -418.16,-794.28 -765.4,-1075.88 -361.05,-310.5 -848.77,-425.38 -1316.14,-402.39 -238.3,-306.57 -622.31,-422.74 -973.49,-546.17 -754.24,-249.44 -1563.63,-175.27 -2334.27,-59.08zm11556.45 14649.58l0 0c71.57,129.3 147.71,256 220.58,385.31 204.14,363.65 265.84,786.4 460.13,1154.66 93.23,136.54 266.52,199.57 347.92,348.57 100.43,179.86 215.96,359.06 403.72,459.48 -9.2,-283.58 -279.65,-447.02 -374.18,-697.78 -232.37,-440.47 -45.94,-955.1 -132.6,-1417.88 -282.92,-141.79 -626.23,-121.43 -925.56,-232.37z"/>
   <path class="fil2" d="M13316.9 1170.85c470.67,-208.09 1013.54,-198.91 1518.31,-177.9 164.78,154.93 137.2,412.25 202.2,615.09 85.98,301.94 32.17,655.11 -231.07,852.03 76.8,-227.12 157.55,-542.87 -110.94,-677.41 -229.1,-90.61 -482.48,-61.73 -723.4,-81.42 308.54,-198.89 670.23,-336.09 895.38,-641.32 -519.89,-89.28 -1034.54,64.33 -1550.49,110.94z"/>
   <path class="fil2" d="M17930.3 1559.45c-136.55,423.4 -414.86,779.84 -605.24,1177.64 -47.91,-171.32 -139.15,-323.63 -259.3,-453.59 -160.82,-237.62 -380.73,-435.22 -504.77,-696.47 305.24,94.53 592.75,309.19 926.87,259.28 186.43,-15.74 304.59,-179.19 442.44,-286.86z"/>
   <path class="fil2" d="M18849.94 2605.81c280.96,93.21 557.31,198.9 831.05,312.46 -13.14,-62.35 -38.07,-187.08 -50.53,-250.11 131.92,130.65 194.3,365 58.4,515.31 -215.31,279.65 -490.35,504.8 -727.33,764.75 -92.55,-10.52 -183.78,-20.36 -275.04,-34.15 -20.34,-112.24 -41.34,-225.15 -61.05,-337.39 185.78,-290.15 231.07,-632.8 224.5,-970.87z"/>
   <path class="fil2" d="M11259.63 2743.66c338.07,-12.47 687.29,133.27 881.59,416.84 191.69,271.75 290.8,613.74 236.32,945.26 -54.49,290.8 -80.07,619.01 -311.81,832.35 -173.29,-90.59 -361.03,-152.96 -557.96,-158.2 143.76,217.28 292.76,444.39 300.65,714.84 21,374.17 9.17,819.23 -263.88,1105.42 118.16,-365.63 280.31,-743.74 205.47,-1136.29 -110.94,-484.44 -569.13,-834.97 -577.01,-1351.58 -19.71,-429.3 103.05,-846.79 186.43,-1264.28 -12.49,-13.12 -37.42,-40.05 -49.91,-53.81l-49.89 -50.56z"/>
   <path class="fil2" d="M20261.93 3639.03c44.64,-43.32 89.28,-85.98 134.58,-129.32 56.45,233.68 81.38,473.94 130.62,708.94 240.25,229.1 553.36,364.98 832.35,542.22 -85.34,-320.99 -233.7,-618.36 -343.96,-929.52 227.77,276.36 397.78,638.72 390.56,1002.38 12.47,129.3 -122.75,172.64 -205.45,235.64 -229.75,139.83 -445.06,305.27 -689.26,418.82 -171.32,89.26 -367.59,47.91 -551.39,36.1l-9.2 -19.04c-43.99,-86.66 -86.64,-173.3 -132.59,-257.96 229.75,-170.02 399.75,-405.03 513.32,-664.98 129.32,-256.65 84.03,-550.74 91.9,-827.1 -53.83,-38.72 -107.64,-77.47 -161.48,-116.19z"/>
   <path class="fil2" d="M21759.92 5159.99c95.18,5.24 160.15,75.49 229.1,131.95l-16.41 25.58c-126.71,177.9 -219.26,393.86 -195.63,615.74 164.77,201.52 372.19,364.32 557.31,546.79 9.19,-54.48 28.23,-162.8 37.42,-217.28 71.55,171.33 39.37,353.83 3.28,529.75 -382.06,-21.68 -769.35,-57.13 -1148.11,17.07 -294.75,38.72 -568.45,175.91 -868.45,184.44 3.94,-47.26 10.5,-142.44 14.44,-189.7 491.01,-112.91 949.19,-389.26 1247.88,-799.55 82.04,-129.32 102.4,-284.88 139.17,-430.62l-133.27 23.64c75.49,-32.83 150.33,-65.65 227.12,-97.15 7.9,-89.94 -5.89,-175.27 -40.69,-256.01l-23.63 -34.8 -29.53 -49.88z"/>
   <path class="fil2" d="M20458.21 7771.92c33.47,-12.47 99.12,-36.1 131.95,-48.59 205.45,28.23 412.23,45.97 616.39,83.39 1.3,74.82 3.27,149.66 5.89,225.15 -230.41,36.1 -463.43,51.86 -694.5,84.03 -20.36,-114.87 -40.05,-229.76 -59.73,-343.97z"/>
   <path class="fil2" d="M20171.34 8954.14c22.33,-8.52 66.3,-26.26 87.98,-34.79 200.2,28.88 399.77,59.08 599.32,93.21 0,105.02 -0.65,210.06 0,315.74 -32.17,37.4 -64.33,75.5 -95.18,113.57 -393.2,-83.39 -823.16,-86.66 -1197.98,71.54 -26.26,-19.03 -78.77,-57.1 -105.02,-76.14 11.81,-59.75 24.28,-119.48 38.72,-179.21 26.25,-17.74 78.11,-53.83 104.37,-72.22 -5.9,66.3 -11.17,132.6 -16.41,198.9 196.93,-36.75 433.9,-18.36 584.88,-172.64 77.46,-72.2 25.61,-176.57 -0.67,-257.98z"/>
   <path class="fil2" d="M18739.68 10408.15c639.36,-158.21 1310.88,-170.02 1966,-116.21 372.19,22.33 726.01,145.09 1088.35,221.23 13.79,2.62 40.05,7.22 53.84,9.84 351.18,315.76 737.82,626.88 945.91,1061.45 -130.63,392.55 -7.22,835.64 -229.1,1203.24 9.84,-309.84 54.48,-628.86 -32.15,-931.48 -225.83,-599.97 -762.78,-1047.01 -1360.13,-1253.11 -624.91,-259.95 -1327.97,-293.43 -1989,-183.14 328.21,122.09 663,225.16 992.53,343.96 -19.04,164.78 -99.78,307.87 -231.05,408.96 -542.22,-215.96 -1131.68,-236.3 -1705.42,-277.66 121.44,-86.01 227.13,-192.34 327.58,-302.6 -1.98,95.17 -3.3,189.7 -3.95,284.88 252.73,18.38 506.76,32.17 760.8,32.17 -76.8,-189.05 -150.98,-443.1 -389.26,-475.26 -88.61,39.37 -171.32,88.61 -254.71,137.2 19.71,-54.49 39.4,-108.97 59.76,-163.45z"/>
   <path class="fil2" d="M16610.87 12492.3c275.04,-146.37 470.02,-393.2 693.18,-601.94 238.3,-29.55 479.86,-1.97 719.46,-19.71 279.64,215.97 678.08,216.62 940.01,475.27 -124.06,222.53 -273.07,431.92 -471.97,594.07 -497.58,-135.88 -1005.65,-272.41 -1525.55,-261.26 -166.75,-4.6 -341.34,13.14 -498.23,-55.13l60.4 -4.6c517.28,101.75 1215.06,-82.06 1356.2,-656.43 -188.41,-42.01 -406.34,-95.18 -577.67,25.6 -184.46,139.82 -332.82,320.34 -502.83,476.57 -47.91,7.22 -144.41,20.34 -192.98,27.56z"/>
   <path class="fil2" d="M14558.21 12603.91c66.3,-124.08 214.66,-152.31 338.07,-186.43 -7.22,84.68 -14.44,169.35 -21.01,254.69 78.79,38.72 158.86,78.12 238.29,118.16 -200.87,95.18 -414.86,162.13 -638.7,166.72l5.9 -30.85c21.01,-108.31 36.77,-219.24 77.46,-322.3z"/>
   <path class="fil2" d="M24855.64 13026.65c40.05,3.27 119.46,9.17 158.86,11.82 -35.45,179.86 -64.33,361.02 -93.88,542.19 -241.57,385.33 -653.14,603.93 -1035.19,824.48 55.13,-343.97 257.31,-641.34 456.21,-918.34 142.44,-179.22 290.15,-381.39 513.99,-460.15z"/>
   <path class="fil2" d="M11917.4 13637.78c-8.54,-110.27 7.22,-219.26 19.69,-327.55 -3.95,126.68 0.65,252.73 5.89,380.06 66.97,-69.57 134.57,-138.5 201.55,-207.42 -40.7,103.05 -84.69,204.8 -128.68,307.22 47.27,103.04 95.85,206.11 144.42,309.82 159.51,-82.06 378.09,-111.59 466.07,-285.54 -40.7,-142.44 -167.38,-240.92 -262.57,-347.91 189.06,35.45 324.28,196.27 403.04,361.7 54.49,229.1 38.75,466.7 53.84,700.4 -118.81,34.8 -241.57,51.86 -364.32,59.08 -187.09,-310.49 -525.81,-561.25 -538.94,-949.86z"/>
   <path class="fil2" d="M14671.11 13891.16c156.88,-143.74 355.78,-229.1 548.12,-313.76 459.5,24.93 962.33,3.27 1345.03,305.24 -150.33,182.48 -314.43,355.13 -502.83,498.88 -548.11,-66.95 -1087.05,142.44 -1523.55,460.81 -256.68,-142.44 -559.95,-170.02 -804.15,-335.44 238.94,-126.7 488.39,-235.67 710.27,-391.9 -14.44,22.33 -42.67,66.3 -57.11,88.63 -158.2,111.59 -324.29,213.99 -471.32,341.34 188.39,45.96 406.32,172.64 587.51,36.1 311.81,-217.93 632.8,-482.48 752.26,-858.61 -294.75,30.21 -541.56,192.33 -720.76,422.09 44.64,-84.68 88.63,-170.02 136.54,-253.39z"/>
   <path class="fil2" d="M10890.73 13601.68c292.11,122.76 339.39,538.94 172.64,779.84 -119.46,-161.48 -238.29,-323.61 -368.27,-477.22 61.73,-57.11 123.43,-113.56 185.79,-169.37 2.62,-33.47 7.22,-100.42 9.84,-133.25z"/>
   <path class="fil2" d="M27836.49 14155.05c110.29,64.32 219.91,129.32 330.85,194.3 -13.14,42.01 -40.05,125.36 -53.16,167.38 -238.97,-28.23 -509.4,-3.94 -697.13,-185.11 107.64,-9.84 215.31,-18.38 323.6,-26.25 23.63,-37.42 72.22,-112.91 95.85,-150.33z"/>
   <path class="fil2" d="M7509.45 14827.89c149.01,-145.09 332.82,-246.82 535.65,-294.1 -108.31,86.01 -268.48,145.74 -273.06,306.57 310.48,32.17 677.43,170.02 826.43,456.86 -64.98,257.33 -179.87,500.85 -236.32,760.8 -176.57,-263.22 -415.52,-467.35 -662.33,-661 48.56,4.59 145.72,14.44 193.65,19.68 -38.07,-175.26 -80.74,-349.88 -126.03,-523.16 -86.01,-21.68 -171.99,-43.34 -257.99,-65.65z"/>
   <path class="fil2" d="M28352.43 14579.11c112.92,-71.57 206.13,63 300,110.91 -154.26,404.38 -258.63,857.98 -139.82,1285.97l5.25 25.58c-30.85,194.96 -65.63,389.26 -97.8,584.24 -181.19,-324.94 -32.83,-702.4 -59.73,-1051.61 14.44,-310.5 -145.09,-620.98 -36.12,-924.91l28.22 -30.18z"/>
   <path class="fil2" d="M13406.83 15845.35c162.15,-256 410.29,-463.43 705.67,-544.83 -19.04,123.4 -34.79,250.74 -91.25,364.32 -105.02,188.39 -189.7,389.26 -225.15,603.25 -105.7,120.78 -190.38,257.31 -271.12,395.17 -40.69,11.16 -122.75,33.5 -164.11,44.64 -32.8,-283.58 -110.92,-601.29 45.96,-862.55z"/>
   <path class="fil2" d="M17384.79 15540.12c152.31,99.77 303.93,205.45 423.4,344.62 -125.38,0.65 -172.64,118.16 -232.37,206.77 -237.62,433.25 -741.12,628.88 -1201.93,718.81 -715.49,97.8 -1474.99,143.09 -2154.38,-145.09 -151.64,-347.26 110.94,-661.02 334.77,-896.67 45.96,112.24 64.98,257.31 189.71,315.08 386.63,244.2 866.49,227.12 1302.35,166.07 511.36,-66.3 1015.51,-296.7 1338.46,-709.59z"/>
   <path class="fil2" d="M22915.23 15909.02c161.48,-154.25 333.47,-313.76 554.68,-374.16 -157.53,232.37 -202.85,510.71 -191.03,787.06 -245.49,143.76 -506.1,268.48 -786.4,325.6 -36.12,-12.49 -108.96,-37.42 -145.72,-49.89 154.25,-256.66 362.33,-473.95 568.47,-688.61z"/>
   <path class="fil2" d="M9831.9 15672.72l24.96 -36.75c87.31,40.69 175.26,82.04 263.87,123.4 -22.96,137.85 -80.74,265.2 -159.5,380.74 -238.94,22.33 -462.13,115.53 -696.48,162.13 262.57,-131.28 403.72,-400.43 567.15,-629.52z"/>
   <path class="fil2" d="M25310.54 15942.5l70.25 -35.45c9.19,72.87 20.33,145.74 32.82,218.61 28.88,28.22 86.64,84.01 115.54,112.24 103.72,61.71 212.01,114.87 320.33,170 -20.34,36.78 -40.05,72.87 -60.38,109.64l-30.2 41.35c-260.6,-7.22 -560.6,43.34 -768.03,-153.61 191.03,-13.79 294.08,-162.8 293.43,-346.58 6.57,-28.9 19.68,-86.66 26.25,-116.21z"/>
   <path class="fil2" d="M10223.8 16605.5c76.79,62.35 135.22,145.07 204.15,215.96 9.85,238.29 -25.6,474.6 -78.77,706.32 -106.99,43.99 -214.01,87.31 -320.99,131.3l-17.06 -15.76c-150.34,-149.01 -337.42,-248.79 -524.5,-343.31 218.61,-235.02 509.4,-375.49 792.98,-514 -214.66,-59.73 -435.23,-103.04 -659.06,-99.12 198.9,-36.1 420.78,17.09 603.25,-81.39z"/>
   <path class="fil2" d="M20577.68 17219.27c208.75,-21.66 418.14,6.54 623.61,42.02 -62.36,13.76 -187.08,41.34 -249.44,55.13 -84.68,-29.55 -168.72,-57.78 -253.38,-85.34 -66.31,57.11 -131.3,115.54 -199.57,170.02 -267.17,159.51 -580.29,230.4 -844.16,401.74 248.13,-273.74 594.07,-430.63 922.93,-583.56z"/>
   <path class="fil2" d="M3047.05 18155.99c85.98,-324.28 177.89,-670.23 407.65,-924.91 -107.02,429.3 -170.68,883.56 -67.62,1320.75 76.79,327.55 211.36,675.46 515.94,855.98 543.52,339.37 1235.4,315.73 1828.82,131.28 -10.49,26.25 -32.82,79.42 -43.32,105.69 355.13,100.45 710.26,-61.7 1069.99,-9.19 -59.08,104.37 -117.51,209.4 -179.87,311.81 -0.65,-103.72 -2.63,-207.44 -7.22,-311.16 -101.75,51.21 -215.96,102.42 -250.76,221.88 -246.81,575.04 -479.84,1166.48 -876.99,1658.8 -7.22,-322.96 -99.77,-638.7 -268.47,-913.74 -64.35,233.68 -137.85,466.07 -253.39,680.04 -38.07,11.17 -113.56,32.83 -150.98,43.99 -19.69,-225.8 66.31,-448.34 22.98,-672.17 -21.01,-134.57 -54.49,-265.87 -85.34,-398.46 -238.94,4.6 -454.25,97.8 -628.2,259.95 -32.15,-1.32 -96.5,-5.24 -128,-7.22 204.15,-311.81 598,-422.09 822.5,-721.41 -525.13,-15.11 -1146.13,43.97 -1547.21,-368.9 -351.18,-322.98 -269.12,-845.49 -180.51,-1262.98z"/>
   <path class="fil2" d="M26631.93 17356.46l50.56 -15.11c35.45,36.12 70.9,72.87 106.99,109.64 -8.54,55.13 -16.41,110.27 -24.28,166.07 160.15,43.32 347.91,99.13 376.79,290.8 -114.87,-81.38 -233.7,-158.2 -351.18,-234.99 -75.5,288.83 -78.14,587.5 -110.29,882.88 24.28,-284.23 -8.55,-569.77 28.23,-853.35 -194.98,-49.89 -414.21,-69.58 -543.54,-244.19 156.23,-28.23 313.79,-55.13 466.72,-101.75z"/>
   <path class="fil2" d="M21453.36 17936.08c32.17,-65.65 64.97,-131.27 99.12,-196.27 15.09,43.99 44.64,131.3 59.73,174.61 -423.4,374.17 -1006.96,491.66 -1557.71,484.44 -9.19,-33.47 -28.22,-100.43 -37.42,-133.27 275.72,-143.09 500.22,-383.34 814.64,-449.64 215.31,-74.82 447.02,-22.31 621.64,120.13z"/>
   <path class="fil2" d="M12604.01 18226.23c230.41,-86.01 458.2,-246.16 714.19,-205.45 -1.95,150.98 3.3,306.55 71.57,444.39 -111.6,62.36 -242.24,68.28 -360.38,26.91 -137.85,-95.18 -277.67,-187.08 -425.38,-265.85z"/>
   <path class="fil2" d="M22469.51 18457.3c44.64,-45.96 89.28,-91.9 134.57,-137.85 133.25,50.56 264.55,105.69 395.18,164.11 61.05,157.53 129.32,315.73 249.44,438.49 -60.4,84.68 -128.01,164.11 -193.65,244.86 235,269.79 473.29,540.9 741.77,778.51 28.88,-12.46 86.63,-36.74 116.18,-49.21 83.37,89.26 130.63,198.9 95.18,322.95 -576.99,-280.28 -1161.88,-592.76 -1562.3,-1110.67 168.05,-186.43 155.58,-449.01 23.63,-651.18zm263.23 429.97l0 0c-38.07,101.08 -93.86,231.72 28.22,301.3 168.05,52.51 180.54,-162.8 151.64,-275.04 -45.29,-6.57 -135.22,-19.71 -179.86,-26.26z"/>
   <path class="fil2" d="M18833.53 19834.47c154.93,-248.13 386.64,-437.17 651.84,-556.63 235.67,49.88 487.06,122.08 650.51,312.46l0 39.39c5.92,328.21 129.33,645.92 82.71,978.09 -192.32,-202.85 -212.67,-518.59 -448.99,-685.33 -84.66,469.99 -423.4,945.27 -910.46,1048.99 147.71,-364.35 141.79,-779.84 -25.61,-1136.97z"/>
   <path class="fil2" d="M17766.85 21524.8c133.25,39.37 263.22,90.58 389.91,149.01 -61.05,0.65 -182.48,1.97 -243.54,3.27 28.88,49.24 58.43,98.48 88.61,147.71 -118.16,85.99 -89.26,223.83 -79.41,349.21 -98.48,-212.69 -208.77,-418.79 -311.16,-629.5 39.39,-4.6 116.86,-15.09 155.58,-19.69z"/>
   <path class="fil2" d="M18041.24 22527.17c42.66,66.95 62.35,143.09 62.35,223.18 18.38,487.06 47.26,992.52 -135.22,1455.95 -246.16,781.82 -859.26,1459.91 -1648.96,1707.39 -585.53,194.3 -1222.26,47.27 -1743.46,-252.73 -110.94,405.02 -240.27,827.1 -527.79,1144.16 -279.63,-457.54 -798.87,-674.81 -1280.01,-855.33 -70.9,-32.15 -137.2,-75.49 -203.5,-114.86 531.72,-157.56 1128.4,-393.21 1373.26,-932.8 124.05,-215.31 124.05,-470 106.34,-709.59 -19.03,-221.88 -45.96,-442.45 -57.1,-664.98 282.9,334.13 290.12,810.04 517.91,1176.32 18.36,235 40.05,469.37 63,704.35 118.84,-559.28 195.63,-1127.08 225.83,-1698.19 25.6,269.14 6.57,542.87 52.51,810.04 290.15,290.8 752.93,359.06 1133.65,224.5 998.43,-329.52 1822.26,-1185.53 2061.2,-2217.41z"/>
   <path class="fil3" d="M15389.91 987.7c384.02,11.82 773.27,-47.91 1153.35,40.05 495.61,76.8 946.59,303.93 1387.04,531.7 -137.85,107.67 -256.01,271.12 -442.44,286.86 -334.12,49.91 -621.63,-164.75 -926.87,-259.28 -288.84,-150.33 -548.79,-365.63 -881.59,-416.18 -86.66,-69.58 -182.51,-125.38 -280.31,-177.9l-9.19 -5.25z"/>
   <path class="fil3" d="M13316.9 1170.85c515.96,-46.61 1030.6,-200.22 1550.49,-110.94 -225.15,305.24 -586.85,442.44 -895.38,641.32 -483.79,-11.81 -950.5,126.71 -1377.84,344.64 -157.55,22.98 -315.76,43.32 -470,83.36 -14.44,-217.28 146.37,-382.03 289.49,-522.51 264.53,-205.47 571.07,-375.49 903.24,-435.87z"/>
   <path class="fil3" d="M18426.55 1646.76c-48.56,-87.96 84.69,-108.97 141.8,-82.71 496.25,192.33 842.19,636.09 1062.11,1104.11 12.46,63.03 37.39,187.76 50.53,250.11 -273.74,-113.56 -550.09,-219.24 -831.05,-312.46 -4.59,-254.04 -164.1,-460.81 -236.3,-695.15 -17.07,-84.04 -32.17,-168.72 -45.29,-253.41 -47.92,-3.92 -95.18,-6.54 -141.8,-10.49z"/>
   <path class="fil3" d="M11309.53 2794.22c12.49,13.76 37.42,40.69 49.91,53.81 -83.37,417.49 -206.13,834.98 -186.43,1264.28 7.87,516.61 466.07,867.14 577.01,1351.58 74.84,392.55 -87.31,770.65 -205.47,1136.29 -144.42,300.65 -378.76,543.52 -607.85,780.49 235,-340.01 365.62,-753.58 347.26,-1168.44 -14.46,-661.68 -343.32,-1256.41 -458.86,-1898.39 -89.93,-553.39 138.52,-1097.57 484.44,-1519.63z"/>
   <path class="fil3" d="M20381.4 3140.14c278.34,152.96 479.86,420.13 634.13,691.21 110.26,311.16 258.62,608.52 343.96,929.52 -278.99,-177.24 -592.1,-313.12 -832.35,-542.22 -49.24,-235 -74.17,-475.26 -130.62,-708.94 -11.82,-122.76 -13.79,-246.16 -15.12,-369.57z"/>
   <path class="fil3" d="M21776.98 5933.26c-23.63,-221.88 68.92,-437.84 195.63,-615.74 194.3,284.24 330.17,607.87 399.1,945.26 -9.19,54.48 -28.23,162.8 -37.42,217.28 -185.12,-182.48 -392.55,-345.27 -557.31,-546.79z"/>
   <path class="fil3" d="M22889.63 7681.99c177.24,162.8 366.94,329.52 453.59,561.23 41.34,169.37 20.33,345.3 16.41,517.94 -210.06,-40.72 -214.66,-283.58 -267.83,-447.04 -45.94,-185.76 -186.43,-322.95 -314.43,-455.55 -9.85,-41.37 -28.88,-124.73 -38.72,-166.75 38.07,-2.62 113.56,-7.22 150.98,-9.84z"/>
   <path class="fil3" d="M19831.33 8153.96c178.53,-169.35 408.28,-273.07 626.88,-382.04 19.68,114.21 39.37,229.1 59.73,343.97 -231.72,98.45 -473.94,166.08 -717.49,224.51 7.23,-46.62 22.98,-139.83 30.88,-186.44z"/>
   <path class="fil3" d="M19603.54 9185.86c183.81,-89.93 377.45,-156.88 567.8,-231.72 26.28,81.41 78.12,185.78 0.67,257.98 -150.98,154.28 -387.95,135.88 -584.88,172.64 5.24,-66.3 10.5,-132.6 16.41,-198.9z"/>
   <path class="fil3" d="M22475.41 9097.9c289.49,89.28 536.97,267.17 787.06,431.93l11.84 7.87c227.12,450.32 207.41,1050.31 -172,1412.66 -42.66,-312.46 138.5,-623.61 28.88,-932.13 -126.03,-364.33 -387.95,-653.16 -655.78,-920.33z"/>
   <path class="fil3" d="M18567.05 10592.61c55.78,-62.38 112.88,-124.73 172.64,-184.46 -20.36,54.48 -40.05,108.96 -59.76,163.45 83.39,-48.59 166.1,-97.83 254.71,-137.2 238.29,32.15 312.46,286.21 389.26,475.26 -254.04,0 -508.07,-13.79 -760.8,-32.17 0.65,-95.18 1.97,-189.71 3.95,-284.88z"/>
   <path class="fil3" d="M22564.69 12787.7c221.88,-367.6 98.47,-810.69 229.1,-1203.24 187.74,388.61 251.42,833.02 155.58,1255.76 -83.36,285.53 -264.55,532.35 -487.08,726.65 -54.48,-103.72 -190.36,-202.84 -139.81,-334.1 66.29,-156.23 166.07,-294.75 242.21,-445.07z"/>
   <path class="fil3" d="M17306.68 11988.17c171.33,-120.78 389.26,-67.6 577.67,-25.6 -141.14,574.37 -838.92,758.18 -1356.2,656.43l-17.06 -69.57c24.93,-14.46 74.82,-43.34 99.77,-57.13 48.57,-7.22 145.07,-20.34 192.98,-27.56 170.02,-156.23 318.38,-336.75 502.83,-476.57z"/>
   <path class="fil3" d="M20302.64 12308.51c397.78,114.22 772.62,297.37 1110.02,536.95 294.08,376.79 512.67,829.08 561.25,1310.24 36.77,441.77 -135.23,905.89 -492.98,1178.94 -56.45,-150.98 -126.05,-298.67 -156.24,-457.52 185.12,-477.22 235.02,-1043.74 -16.39,-1507.17 -211.37,-452.94 -620.33,-764.08 -1005.65,-1061.45z"/>
   <path class="fil3" d="M24608.16 12598.64c288.83,-137.19 538.27,139.17 703.7,343.32l-8.55 13.12c-133.24,205.47 -245.51,423.4 -382.69,625.58 29.55,-181.17 58.43,-362.33 93.88,-542.19 -39.4,-2.65 -118.81,-8.55 -158.86,-11.82 -308.52,-40.72 -631.5,84.66 -844.82,307.86 -228.45,222.53 -388.61,500.87 -591.45,744.39 287.53,-561.9 594.07,-1188.8 1188.8,-1480.26z"/>
   <path class="fil3" d="M25576.4 12825.12c349.88,-194.3 794.93,-179.87 1123.8,50.56 445.72,364.97 693.86,911.11 1136.29,1279.38 -23.63,37.42 -72.22,112.91 -95.85,150.33 -108.29,7.87 -215.96,16.41 -323.6,26.25 -83.39,-122.75 -149.67,-256.01 -212.69,-390.56 -23.63,15.09 -71.57,43.97 -95.2,58.41 -223.18,-25.61 -459.48,-21.66 -651.16,-153.61 320.33,-229.75 56.45,-747.68 -302.62,-708.27 -152.96,13.76 -215.97,162.78 -283.58,277.01 -125.38,-181.17 -279.65,-359.72 -295.4,-589.48zm1253.78 735.87l0 0c1.32,112.24 147.03,94.52 223.19,115.53 3.27,-74.84 1.95,-149.67 -4.6,-223.85 -87.98,-77.46 -235.65,-9.84 -218.59,108.32z"/>
   <path class="fil3" d="M12144.53 13482.87c13.11,-13.14 39.37,-40.04 53.16,-53.83 41.35,9.84 124.71,28.23 166.08,37.42 95.18,106.99 221.86,205.47 262.57,347.91 -87.98,173.95 -306.55,203.49 -466.07,285.54 -48.57,-103.72 -97.15,-206.79 -144.42,-309.82 43.99,-102.42 87.98,-204.17 128.68,-307.22z"/>
   <path class="fil3" d="M17527.91 13427.07c60.38,-9.2 181.16,-28.88 242.21,-38.72 419.47,16.41 813.99,179.86 1228.83,229.08 615.09,347.26 1219.65,793.62 1536.05,1444.81 193,374.82 214.01,875.01 -82.71,1203.22 -293.43,377.45 -767.35,527.77 -1215.71,627.56 -21,-103.72 -43.99,-207.44 -66.29,-310.5 362.99,-97.15 719.43,-275.69 947.23,-584.23 199.55,-238.94 205.47,-596.68 71.55,-867.79 -168.05,-300.65 -410.94,-557.31 -690.56,-757.53 -469.35,-340.04 -989.9,-614.42 -1546.56,-780.49 -144.42,-46.61 -307.87,-57.11 -424.05,-165.42z"/>
   <path class="fil3" d="M10129.93 13875.41c139.81,-97.81 281.59,-193 425.36,-286.19 111.6,7.87 223.19,11.14 335.44,12.46 -2.62,32.83 -7.22,99.78 -9.84,133.25 -62.36,55.81 -124.06,112.26 -185.79,169.37 -188.38,8.54 -391.22,70.89 -565.17,-28.88z"/>
   <path class="fil3" d="M14534.58 14144.55c179.21,-229.76 426.02,-391.88 720.76,-422.09 -119.46,376.14 -440.46,640.69 -752.26,858.61 -181.19,136.54 -399.12,9.85 -587.51,-36.1 147.03,-127.35 313.12,-229.75 471.32,-341.34 14.44,-22.33 42.67,-66.3 57.11,-88.63 71.54,-78.76 147.04,-153.61 227.12,-223.85 -47.91,83.37 -91.9,168.72 -136.54,253.39z"/>
   <path class="fil3" d="M7004.01 15068.13c582.24,-730.6 1586.6,-975.44 2478.66,-817.91 -40.69,84.04 -110.94,143.77 -183.78,197.6 -235.67,-94.53 -491.01,-61.05 -737.17,-51.21 -171.99,45.29 -345.95,86.01 -516.62,137.19 -202.84,47.27 -386.64,149.01 -535.65,294.1 86.01,22.31 171.99,43.97 257.99,65.65 45.29,173.29 87.96,347.91 126.03,523.16 -47.92,-5.24 -145.09,-15.09 -193.65,-19.68 -227.78,-117.51 -452.94,-242.24 -695.82,-328.89z"/>
   <path class="fil3" d="M28512.61 15976c-118.81,-428 -14.44,-881.59 139.82,-1285.97 63.67,234.36 49.23,478.55 5.92,715.52 -67.62,184.46 -106.35,378.11 -145.74,570.45z"/>
   <path class="fil3" d="M22550.25 15528.29c353.17,-319.03 744.39,-697.78 1253.13,-690.56 168.7,116.84 297.37,275.72 384.66,460.81 -248.78,382.71 -510.69,780.49 -909.16,1023.38 -11.82,-276.36 33.5,-554.69 191.03,-787.06l21.66 -39.39c112.91,-3.28 227.78,-7.87 341.35,-11.82 59.08,-246.81 -226.48,-401.74 -439.15,-341.99 -307.87,64.33 -561.91,259.28 -843.52,386.63z"/>
   <path class="fil3" d="M12486.5 15532.89c468.06,-304.59 1026.68,-464.08 1585.96,-403.04 27.55,7.22 82.71,20.33 110.27,26.9 -1.98,30.85 -5.25,91.26 -7.22,122.11 -15.74,5.24 -47.27,16.41 -63.02,21.66 -295.38,81.39 -543.52,288.83 -705.67,544.83 -156.88,261.26 -78.76,578.97 -45.96,862.55 -592.08,358.41 -1291.85,480.52 -1976.51,429.97 -9.19,-5.9 -27.58,-17.73 -36.75,-23.63 118.16,-395.18 349.89,-739.15 582.26,-1073.92 21.66,112.24 25.6,234.35 99.77,328.87 385.99,24.29 781.81,-529.73 456.86,-836.29zm431.3 271.75l0 0c-26.26,163.45 173.29,152.31 278.32,121.46 1.3,-49.24 4.6,-147.05 6.57,-196.3 -94.53,-5.89 -274.4,-71.54 -284.89,74.84z"/>
   <path class="fil3" d="M15388.6 15295.27c401.07,-122.09 818.56,-221.88 1240.66,-175.94 290.8,16.41 559.27,145.09 846.79,180.54l27.56 4.57c829.07,519.24 1302.37,1510.46 1303.67,2465.57 -219.26,93.85 -454.9,158.85 -693.85,173.94 -372.85,-25.58 -748.33,-48.56 -1112.64,-140.47 489.04,-6.57 976.11,-80.07 1445.44,-217.28 -10.49,-619.66 -223.18,-1235.4 -638.05,-1701.47 -119.46,-139.17 -271.09,-244.86 -423.4,-344.62 -322.95,412.89 -827.1,643.29 -1338.46,709.59 -435.87,61.05 -915.73,78.14 -1302.35,-166.07 350.53,63.03 766.05,-103.72 889.46,-456.21 52.51,-168.7 -138.5,-247.49 -244.84,-332.15z"/>
   <path class="fil3" d="M24524.8 15304.45c433.24,-146.39 952.48,-0.65 1202.59,393.21 347.23,527.77 469.34,1183.54 904.54,1658.8 -152.93,46.62 -310.49,73.52 -466.72,101.75 -160.82,-279.64 -201.52,-602.6 -275.05,-911.14 -25.58,-7.22 -75.49,-22.31 -101.07,-29.53 20.33,-36.77 40.04,-72.85 60.38,-109.64 -108.32,-55.13 -216.61,-108.29 -320.33,-170 88.61,-91.88 177.24,-202.82 118.81,-336.75 -85.99,-46.61 -179.86,-13.78 -267.17,5.9l-70.25 35.45c-6.57,29.55 -19.68,87.31 -26.25,116.21 -86.66,-189.73 -240.92,-329.55 -442.44,-387.29 -52.51,46.59 -104.37,94.52 -155.58,143.09l-49.23 46.61c-19.69,-111.59 -39.4,-223.18 -84.01,-328.21 -10.52,-76.14 -19.71,-152.28 -28.23,-228.45z"/>
   <path class="fil3" d="M9258.18 15786.27c183.16,-72.2 374.84,-121.43 573.72,-113.56 -163.43,229.08 -304.59,498.23 -567.15,629.52 -118.81,57.76 -240.24,109.62 -360.37,164.1 -29.55,-216.62 -90.61,-467.37 28.88,-665.62 -28.88,212.67 -35.45,428.66 -12.47,642.64 128,-210.71 226.45,-437.19 337.39,-657.08z"/>
   <path class="fil3" d="M6329.19 16248.4c451.63,112.24 934.1,296.7 1186.18,715.51 288.18,459.5 230.4,1030.6 87.96,1528.83 -127.35,201.52 -340.04,328.87 -529.73,466.07 -413.56,257.96 -865.83,468.03 -1341.75,580.28 -593.41,184.44 -1285.29,208.09 -1828.82,-131.28 -304.59,-180.52 -439.15,-528.43 -515.94,-855.98 -103.07,-437.19 -39.4,-891.45 67.62,-1320.75 4.6,-20.34 14.44,-61.7 19.68,-82.06 152.96,-165.42 279.64,-354.46 448.36,-505.45 108.29,-68.27 242.86,-75.49 366.28,-98.47 -41.37,-3.27 -123.43,-9.17 -164.77,-11.82 235.67,-99.77 476.57,-182.48 723.38,-248.13 -109.62,149.67 -290.15,351.84 -129.97,534.35 281.59,360.37 792.3,372.19 1208.48,326.9 262.59,-40.69 575.05,-158.85 664.98,-435.22 59.73,-204.15 -137.2,-338.72 -261.93,-462.78zm-2039.52 1046.36l0 0c24.93,89.26 7.22,239.59 133.92,253.38 144.42,41.34 409.61,23.63 409.61,-171.99 -82.06,-224.5 -373.5,-160.18 -543.52,-81.39z"/>
   <path class="fil3" d="M9560.8 16757.14c14.46,-17.73 44.64,-52.51 59.75,-70.25 223.83,-3.92 444.41,39.39 659.06,99.12 -283.58,138.52 -574.37,278.99 -792.98,514 187.08,94.52 374.16,194.3 524.5,343.31 -236.97,109.64 -498.23,105.69 -752.94,102.42 -69.57,-372.87 173.32,-689.26 422.74,-933.45 -30.18,-13.79 -90.58,-41.37 -120.13,-55.14z"/>
   <path class="fil3" d="M20577.68 17219.27c376.8,-123.43 769.99,-269.14 1173.05,-200.22 161.47,34.12 250.09,183.16 334.77,310.48 -143.76,205.47 -282.91,418.16 -473.29,584.89 -15.09,-43.31 -44.64,-130.62 -59.73,-174.61 -18.39,-72.87 -33.47,-147.04 -43.99,-221.23 -275.04,-256 -674.81,-206.12 -1009.59,-117.49 68.27,-54.48 133.25,-112.91 199.57,-170.02 84.66,27.56 168.7,55.79 253.38,85.34 62.36,-13.79 187.08,-41.37 249.44,-55.13 -205.47,-35.48 -414.86,-63.68 -623.61,-42.02z"/>
   <path class="fil3" d="M22552.22 17661.7c102.4,5.25 204.82,11.82 307.22,18.39 198.89,154.25 442.42,275.69 563.88,508.07 291.45,527.77 261.9,1156.63 489.68,1708.04 -29.55,12.47 -87.3,36.75 -116.18,49.21 -268.48,-237.61 -506.77,-508.72 -741.77,-778.51 65.63,-80.74 133.25,-160.18 193.65,-244.86 68.27,-166.73 153.61,-374.17 58.41,-547.46 -154.26,-276.36 -387.29,-531.05 -701.73,-617.06 -13.11,-24.28 -39.37,-72.2 -53.16,-95.83z"/>
   <path class="fil3" d="M26680.52 18555.75c32.15,-295.38 34.79,-594.05 110.29,-882.88 117.48,76.79 236.3,153.61 351.18,234.99 91.9,203.5 32.17,459.51 -64.33,657.1 -221.88,478.54 -565.18,949.19 -501.5,1505.19 -86.66,-164.1 -160.83,-342.66 -158.21,-531.7 -9.84,-348.56 185.11,-652.49 262.58,-982.69z"/>
   <path class="fil3" d="M17527.91 18484.21c549.41,-124.06 1171.06,-74.84 1620.05,295.4 -252.05,33.47 -501.5,82.71 -750.93,128.65 -286.22,-149.01 -587.51,-267.82 -869.12,-424.05z"/>
   <path class="fil3" d="M6320.66 19858.12c34.8,-119.46 149.01,-170.67 250.76,-221.88 4.59,103.72 6.57,207.44 7.22,311.16 -239.59,993.83 -919.66,1891.83 -1855.73,2324.42 -0.65,-10.5 -1.3,-30.85 -1.97,-41.35 328.88,-120.14 486.41,-475.26 722.73,-713.54 397.15,-492.31 630.18,-1083.76 876.99,-1658.8z"/>
   <path class="fil3" d="M20218.6 20607.77c46.62,-332.16 -76.79,-649.87 -82.71,-978.09 399.78,427.35 598.68,1030.6 552.07,1612.19 -3.28,595.38 -343.99,1104.76 -641.34,1593.8 -34.79,11.82 -104.38,34.8 -139.15,45.96 -68.92,-191.01 -133.27,-384.01 -180.54,-580.94 163.48,-229.75 336.12,-461.47 418.16,-735.2 115.53,-306.55 58.41,-638.69 73.51,-957.72z"/>
   <path class="fil3" d="M4080.26 20516.51c173.95,-162.15 389.26,-255.35 628.2,-259.95 30.85,132.6 64.33,263.9 85.34,398.46 43.34,223.83 -42.67,446.37 -22.98,672.17 1.97,31.5 5.92,95.18 8.54,127.35 -49.24,59.08 -98.47,118.16 -148.36,177.24 49.24,-215.96 126.7,-456.21 18.38,-666.27 -100.42,-237.63 -351.84,-343.31 -569.12,-449.01z"/>
   <path class="fil3" d="M23893.31 20557.22c38.08,-30.85 78.11,-60.38 119.48,-87.96 131.3,70.89 257.98,150.98 381.38,235.67 49.89,152.93 125.38,325.57 48.59,483.13 -234.35,480.51 -659.06,830.38 -909.82,1301.7 24.95,-416.18 235,-781.82 417.51,-1144.16 132.59,-236.97 103.69,-565.18 -128.03,-729.95 17.74,-14.44 53.18,-43.32 70.9,-58.43z"/>
   <path class="fil3" d="M26885.32 20598.57c27.56,-13.14 84.01,-39.39 111.59,-52.52 137.85,101.76 304.59,141.14 471.32,168.06 -19.69,18.36 -59.08,54.48 -78.77,72.84 -51.86,35.45 -104.37,68.95 -158.2,100.45 -156.23,44.64 -284.91,-91.25 -410.94,-160.16 16.42,-32.17 48.59,-96.5 65,-128.66z"/>
   <path class="fil3" d="M15658.39 21908.14c613.76,-392.53 1396.23,-572.39 2108.46,-383.34 -38.72,4.6 -116.19,15.09 -155.58,19.69 102.39,210.71 212.67,416.81 311.16,629.5 48.56,103.72 89.28,210.74 129.97,317.72l-11.16 35.45c-238.94,1031.89 -1062.77,1887.9 -2061.2,2217.41 -380.73,134.57 -843.51,66.3 -1133.65,-224.5 -45.94,-267.17 -26.91,-540.9 -52.51,-810.04 28.23,-679.41 271.1,-1412.63 864.52,-1801.9z"/>
   <path class="fil3" d="M17913.22 21677.08c61.06,-1.3 182.49,-2.62 243.54,-3.27 563.22,293.42 980.06,840.89 1169.77,1442.17 225.8,756.21 91.25,1578.71 -269.8,2270.59 -1003.04,1948.28 -2948.68,3382.58 -5103.09,3779.08 -544.83,86.64 -1102.79,163.45 -1652.88,75.49 1164.5,-95.18 2296.2,-470.65 3337.28,-991.88 929.5,-484.44 1822.25,-1089.66 2482.63,-1914.8 582.91,-674.15 982.66,-1563.63 889.46,-2470.82 -61.7,-447.02 -190.38,-893.4 -443.75,-1271.5 -157.53,-277.66 -387.29,-503.47 -564.53,-767.35 -30.18,-49.23 -59.73,-98.47 -88.61,-147.71z"/>
   <path class="fil3" d="M23706.89 23688.39c-99.13,-65.65 -42.69,-177.89 -29.55,-269.79 225.15,17.06 322.3,289.49 567.8,263.88 -33.47,32.15 -66.95,64.33 -99.77,96.5l57.78 -68.93c-163.48,-8.52 -339.39,41.35 -496.27,-21.66z"/>
   <path class="fil3" d="M13054.33 24679.6c330.83,-160.16 644.62,-357.1 989.9,-487.06 17.71,239.59 17.71,494.28 -106.34,709.59 -244.86,539.59 -841.54,775.24 -1373.26,932.8 74.82,-414.87 219.91,-826.46 489.7,-1155.33z"/>
   <path class="fil4" d="M15399.09 992.95c97.8,52.52 193.65,108.32 280.31,177.9 123.41,358.4 15.74,741.11 -193,1043.06 -15.09,-108.96 14.44,-213.33 36.75,-318.36 13.79,-306.55 -118.81,-596.7 -124.06,-902.6z"/>
   <path class="fil4" d="M18426.55 1646.76c46.62,3.95 93.88,6.57 141.8,10.49 13.12,84.69 28.22,169.37 45.29,253.41 -292.11,337.39 -534.99,718.78 -871.75,1016.14 222.54,-426.03 508.75,-824.48 666.95,-1281.36l17.71 1.32z"/>
   <path class="fil4" d="M13814.47 2597.27c43.34,-458.2 513.99,-655.76 880.94,-814.61 268.48,134.54 187.74,450.3 110.94,677.41 -189.71,149.69 -430.62,226.48 -604.58,399.77 -240.24,206.79 -294.07,554.69 -550.74,747.69 -40.69,-1.97 -122.75,-6.57 -163.45,-8.54 198.25,-298.67 305.24,-645.27 326.9,-1001.72z"/>
   <path class="fil4" d="M12124.17 2129.24c154.25,-40.04 312.46,-60.38 470,-83.36 452.28,90.58 940.67,441.77 870.42,958.38 -82.04,-222.53 -198.22,-445.71 -411.57,-567.82 -301.3,-175.91 -653.8,-210.06 -988.58,-274.39 15.09,-7.87 44.64,-24.28 59.73,-32.82z"/>
   <path class="fil4" d="M15965.61 2263.15c261.91,-64.33 530.38,-97.15 799.52,-65.65 91.25,24.96 183.81,42.02 277.01,58.43l23.63 27.56c120.14,129.97 211.39,282.27 259.3,453.59 -701.72,-170.67 -1429.7,-190.36 -2142.59,-80.74 217.28,-207.44 510.71,-287.51 783.14,-393.2z"/>
   <path class="fil4" d="M12043.43 2676.71c344.62,9.84 727.98,150.98 850.73,504.12 345.29,830.4 256.01,1952.89 -503.47,2530.55 6.57,-242.89 193.65,-422.09 253.38,-649.87 191.01,-620.31 145.72,-1324.68 -160.18,-1901.67 -98.45,-200.2 -264.55,-352.51 -440.46,-483.13z"/>
   <path class="fil4" d="M10387.25 3980.38c28.88,-544.84 450.98,-966.27 922.28,-1186.16 -345.93,422.06 -574.37,966.24 -484.44,1519.63 115.54,641.97 444.41,1236.71 458.86,1898.39 18.36,414.86 -112.26,828.43 -347.26,1168.44 -79.44,99.8 -174.61,184.46 -266.52,271.77 191.68,-264.55 276.36,-592.75 239.59,-917.04 -86.63,-933.44 -529.08,-1808.46 -522.51,-2755.02z"/>
   <path class="fil4" d="M19197.85 4231.14c411.6,-370.89 777.89,-787.73 1182.24,-1165.83l1.3 74.84c1.33,123.41 3.3,246.81 15.12,369.57 -45.3,43.34 -89.94,85.99 -134.58,129.32 -290.8,287.53 -650.53,535.65 -1064.08,592.11z"/>
   <path class="fil4" d="M17030.99 3357.42c416.83,194.95 868.45,-65 1300.39,39.4 101.08,54.48 198.89,114.21 294.07,179.86 19.71,112.24 40.7,225.15 61.05,337.39 -352.49,-162.78 -745.04,-171.32 -1122.5,-229.75 -203.49,-42.02 -434.55,-130.62 -533,-326.9z"/>
   <path class="fil4" d="M18295.93 4260.02c241.56,38.72 419.45,213.33 635.42,311.81 332.82,164.1 691.21,344.62 886.84,675.47 45.94,84.66 88.6,171.31 132.59,257.96 -356.45,-202.84 -764.73,-293.42 -1117.24,-502.18 -271.09,-164.09 -441.11,-448.33 -537.6,-743.06z"/>
   <path class="fil4" d="M20487.75 5927.34c439.8,-225.8 883.56,-471.31 1301.7,-717.48l23.63 34.8c34.8,80.74 48.59,166.07 40.69,256.01 -76.79,31.5 -151.63,64.32 -227.12,97.15 -364.97,150.33 -739.8,309.82 -1138.91,329.52z"/>
   <path class="fil4" d="M19411.21 5818.37c276.36,197.6 695.8,217.93 852.03,556.01 72.22,131.28 95.2,282.26 109.64,429.97 -3.94,47.26 -10.5,142.44 -14.44,189.7 -26.26,55.14 -55.14,108.97 -85.33,161.48 -24.95,-3.95 -76.15,-12.47 -101.76,-17.06 -230.4,-253.38 -519.23,-468.03 -658.38,-790.36 -80.74,-164.75 -92.56,-349.88 -101.75,-529.73z"/>
   <path class="fil4" d="M19564.14 8102.11c885.54,-789.04 2285.05,-1071.32 3325.5,-420.13 -37.42,2.62 -112.91,7.22 -150.98,9.84 -249.46,-3.27 -477.89,-135.87 -726.68,-154.25 -480.51,-73.52 -964.3,45.29 -1421.82,185.75 -32.83,12.49 -98.48,36.12 -131.95,48.59 -218.61,108.97 -448.36,212.69 -626.88,382.04 -7.9,46.61 -23.64,139.82 -30.88,186.44l-7.22 51.83c-53.81,10.52 -161.47,31.53 -215.96,41.37 -3.94,-110.29 -8.54,-221.23 -13.14,-331.48z"/>
   <path class="fil4" d="M24013.43 8262.26c245.51,406.32 133.27,922.29 -124.06,1294.48 -36.77,-87.96 -129.32,-182.48 -49.88,-275.69 172.64,-308.54 256.65,-669.57 173.94,-1018.79z"/>
   <path class="fil4" d="M19232 9185.86c716.16,-528.42 1643.04,-836.29 2532.52,-659.71 599.95,127.36 1187.47,457.54 1497.95,1003.69 -250.09,-164.77 -497.57,-342.66 -787.06,-431.93 -678.74,-341.32 -1496.65,-492.31 -2216.1,-178.54 -21.68,8.52 -65.65,26.26 -87.98,34.79 -190.35,74.84 -384,141.79 -567.8,231.72 -26.26,18.39 -78.12,54.48 -104.37,72.22 -14.44,59.73 -26.91,119.46 -38.72,179.21 -126.7,23.63 -252.08,50.54 -376.15,83.36 15.76,-124.08 21.01,-269.14 147.71,-334.78z"/>
   <path class="fil4" d="M23959.61 9733.99c149.02,194.96 263.88,426.03 266.5,676.12 31.53,433.9 -187.73,829.72 -421.41,1178.29 39.39,357.1 73.52,753.59 -109.62,1078.51 -18.38,-382.69 -82.71,-764.07 -224.5,-1121.17 488.38,-452.94 689.91,-1173.7 489.03,-1811.76z"/>
   <path class="fil4" d="M18469.87 10258.47c1052.93,-473.27 2357.25,-385.96 3324.17,254.71 -362.33,-76.14 -716.16,-198.9 -1088.35,-221.23 -655.13,-53.81 -1326.65,-42.01 -1966,116.21 -59.76,59.73 -116.86,122.08 -172.64,184.46 -100.45,110.26 -206.13,216.6 -327.58,302.6 -24.95,9.84 -75.49,28.88 -100.43,38.07 92.56,-233.68 249.44,-435.87 330.83,-674.82z"/>
   <path class="fil4" d="M17093.34 11591.68c1508.47,-582.91 3356.33,-43.97 4319.32,1253.78 -337.4,-239.59 -712.24,-422.73 -1110.02,-536.95 -257.33,-83.37 -493,-222.53 -753.59,-296.06 -491.66,-149.01 -1015.49,-213.98 -1525.53,-141.79 -239.6,17.74 -481.16,-9.84 -719.46,19.71 -223.17,208.74 -418.14,455.56 -693.18,601.94 -24.95,13.79 -74.84,42.67 -99.77,57.13l17.06 69.57 -60.4 4.6c-72.87,8.54 -143.09,27.56 -214.66,42.66 342,-305.89 620.99,-672.84 840.24,-1074.57z"/>
   <path class="fil4" d="M14420.37 12475.91c68.27,-193 215.31,-397.81 439.15,-404.38 252.73,1.33 477.22,139.83 689.91,261.26 67.6,53.16 190.35,84.69 170.67,197.6 -271.12,-55.14 -538.28,-170.68 -823.83,-112.91 -123.41,34.12 -271.77,62.35 -338.07,186.43 -40.69,103.05 -56.45,213.99 -77.46,322.3 -36.1,-145.06 -114.87,-299.98 -60.38,-450.3z"/>
   <path class="fil4" d="M13738.98 12420.75c108.99,0.65 218.59,1.98 328.21,5.92 123.43,178.54 208.75,385.98 160.83,607.2 -52.51,-121.46 -84.01,-277.69 -220.56,-330.2 -144.41,-55.13 -280.96,40.7 -403.04,104.37 -87.31,-64.32 -173.95,-128.65 -259.95,-193 124.71,-77.44 257.98,-139.81 394.5,-194.3z"/>
   <path class="fil4" d="M11937.09 13310.23c140.46,-267.18 432.58,-552.71 758.83,-411.6 400.43,173.32 733.9,496.27 975.46,855.34 -316.41,-151.64 -571.1,-418.16 -912.44,-521.2 -206.11,-58.43 -428.66,35.44 -561.25,196.27 -13.79,13.79 -40.05,40.69 -53.16,53.83 -66.98,68.92 -134.58,137.85 -201.55,207.42 -5.24,-127.33 -9.84,-253.38 -5.89,-380.06z"/>
   <path class="fil4" d="M9992.73 13729.67c284.23,-322.96 602.6,-685.96 1063.42,-718.78 202.84,-13.14 525.15,-34.15 585.54,217.93 79.44,213.34 56.46,450.98 -5.25,666.28 -49.23,-193.65 -35.44,-439.17 -206.11,-573.74 -315.11,-34.77 -622.31,87.31 -875.04,267.85 -143.77,93.2 -285.56,188.38 -425.36,286.19 -45.96,-48.59 -91.91,-97.15 -137.2,-145.74z"/>
   <path class="fil4" d="M24920.62 13580.67c137.19,-202.18 249.46,-420.11 382.69,-625.58 85.99,403.7 -106.34,800.85 -358.41,1104.79 -181.16,234.99 -450.3,418.79 -749.64,450.3 -105.02,-30.18 -205.45,-74.82 -309.82,-105.02 382.04,-220.55 793.62,-439.15 1035.19,-824.48z"/>
   <path class="fil4" d="M16057.51 13106.06c1004.34,-139.81 2034.94,69.6 2941.45,511.37 -414.84,-49.23 -809.36,-212.67 -1228.83,-229.08 -267.17,-12.49 -542.21,42.66 -802.8,-38.75 -586.86,3.95 -1185.51,49.24 -1748.08,227.8 -192.34,84.66 -391.24,170.02 -548.12,313.76 -80.07,70.24 -155.58,145.09 -227.12,223.85 -221.88,156.23 -471.33,265.2 -710.27,391.9 -57.75,-3.95 -114.86,-6.57 -171.97,-9.84 360.38,-273.09 669.55,-605.24 962.98,-947.89 485.76,-221.88 999.74,-386.64 1532.77,-443.1z"/>
   <path class="fil4" d="M25871.8 13414.6c67.6,-114.22 130.62,-263.25 283.58,-277.01 359.06,-39.4 622.95,478.53 302.62,708.27l-21.66 26.25c-209.4,-124.7 -403.7,-273.72 -564.53,-457.52z"/>
   <path class="fil4" d="M26830.18 13560.99c-17.06,-118.16 130.62,-185.78 218.59,-108.32 6.55,74.17 7.87,149.01 4.6,223.85 -76.17,-21.01 -221.88,-3.28 -223.19,-115.53z"/>
   <path class="fil4" d="M25933.5 13983.05c194.3,94.53 387.29,229.75 613.76,212.69 205.45,7.89 393.21,-87.96 561.9,-196.27 23.63,-14.44 71.57,-43.32 95.2,-58.41 63.02,134.55 129.3,267.82 212.69,390.56 187.73,181.17 458.17,156.88 697.13,185.11 53.81,11.82 161.47,34.8 215.31,46.62l-5.27 45.94c-108.97,303.93 50.56,614.41 36.12,924.91 26.9,349.21 -121.46,726.67 59.73,1051.61 96.5,130.62 190.36,277.66 347.89,341.32 99.13,32.18 137.87,132.6 187.08,214.66 19.71,-15.76 59.08,-47.91 78.12,-64.32 112.26,190.35 324.29,113.56 496.27,67.6 -171.32,301.95 -530.38,535.65 -883.54,452.29 -175.29,-51.86 -185.78,-234.35 -148.36,-384.68 55.78,-6.57 168.05,-21.01 223.83,-28.23 -250.08,-150.98 -528.42,-315.76 -638.04,-602.6 -137.2,-386.64 20.34,-788.38 21.66,-1181.58 1.3,-217.28 -119.48,-403.7 -228.43,-580.94 36.77,-53.16 73.51,-105.69 110.27,-158.85 -728.65,-3.28 -1497.97,-179.22 -2053.31,-677.45z"/>
   <path class="fil4" d="M7965.67 14090.07c529.76,-107.67 1094.3,-49.24 1590.56,165.42l-73.55 -5.27c-892.07,-157.53 -1896.42,87.31 -2478.66,817.91 -183.81,-38.72 -367.6,-78.76 -552.71,-109.61 411.57,-421.43 931.47,-750.96 1514.36,-868.45z"/>
   <path class="fil4" d="M8933.26 15800.71c223.18,-644.61 745.69,-1314.83 1478.94,-1351.58 248.78,533.67 462.12,1159.25 231.72,1737.57 14.44,-454.91 -107,-934.1 -470,-1234.75 -368.92,192.34 -729.31,450.31 -915.74,834.32 -110.94,219.9 -209.39,446.37 -337.39,657.08 -22.98,-213.98 -16.41,-429.97 12.47,-642.64z"/>
   <path class="fil4" d="M15221.2 14986.09c755.55,-166.73 1578.72,-73.51 2254.85,313.79 -287.53,-35.45 -556,-164.13 -846.79,-180.54 -422.09,-45.94 -839.59,53.84 -1240.66,175.94 106.34,84.66 297.35,163.45 244.84,332.15 -123.41,352.49 -538.94,519.24 -889.46,456.21 -124.73,-57.76 -143.76,-202.84 -189.71,-315.08 -223.83,235.65 -486.41,549.41 -334.77,896.67 105.69,204.17 271.75,372.2 473.92,483.14 705.67,396.47 1513.74,548.78 2307.37,655.11 364.32,91.91 739.79,114.89 1112.64,140.47 -662.35,97.81 -1338.47,86.01 -2004.07,30.85 -677.44,-85.33 -1396.23,-204.79 -1941.07,-648.54 -311.14,-246.16 -462.8,-670.22 -372.19,-1058.16 35.45,-213.99 120.13,-414.86 225.15,-603.25 288.83,-377.45 748.34,-574.39 1199.95,-678.76z"/>
   <path class="fil4" d="M12242.98 15293.31c527.78,-368.27 1244.59,-429.31 1829.48,-163.45 -559.28,-61.05 -1117.9,98.45 -1585.96,403.04 324.94,306.55 -70.87,860.58 -456.86,836.29 -74.17,-94.52 -78.11,-216.62 -99.77,-328.87 -232.37,334.77 -464.1,678.74 -582.26,1073.92 9.17,5.9 27.56,17.73 36.75,23.63 615.08,453.59 1462.53,429.97 2139.97,133.27 1.3,26.25 3.94,79.41 5.25,105.67 -582.92,262.58 -1241.97,387.96 -1877.41,278.32 -245.49,-60.38 -494.93,-158.85 -676.77,-340.02 57.78,-829.08 590.8,-1568.88 1267.57,-2021.8z"/>
   <path class="fil4" d="M23278.88 16321.92c398.46,-242.89 660.38,-640.67 909.16,-1023.38 68.93,449.01 -244.83,838.27 -552.05,1126.45 -364.98,362.35 -956.41,484.44 -1428.4,282.91 94.53,-21.01 189.7,-41.35 284.89,-60.38 280.29,-57.11 540.9,-181.84 786.4,-325.6z"/>
   <path class="fil4" d="M12917.8 15804.65c10.49,-146.37 190.36,-80.73 284.89,-74.84 -1.97,49.24 -5.27,147.05 -6.57,196.3 -105.04,30.85 -304.59,41.99 -278.32,-121.46z"/>
   <path class="fil4" d="M2453.63 16977.69c789.68,-758.83 1864.27,-1192.07 2953.28,-1253.11 616.39,-36.75 1276.11,2.62 1807.14,349.88 773.3,505.45 960.38,1694.92 389.28,2418.3 142.44,-498.23 200.22,-1069.34 -87.96,-1528.83 -252.08,-418.81 -734.55,-603.27 -1186.18,-715.51 124.73,124.06 321.66,258.63 261.93,462.78 -89.93,276.37 -402.39,394.53 -664.98,435.22 -416.18,45.29 -926.88,33.47 -1208.48,-326.9 -160.18,-182.51 20.34,-384.68 129.97,-534.35 -246.81,65.65 -487.71,148.36 -723.38,248.13 -885.53,231.72 -1629.92,871.75 -2117.65,1632.55 -573.72,884.88 -631.48,2013.28 -380.73,3014.99 114.21,510.04 336.09,983.98 567.8,1449.38 -506.76,-592.08 -833.67,-1334.51 -968.89,-2099.25 -225.15,-1293.17 280.96,-2659.19 1228.83,-3553.27z"/>
   <path class="fil4" d="M24686.27 15814.5c51.21,-48.57 103.07,-96.5 155.58,-143.09 201.52,57.75 355.78,197.57 442.44,387.29 0.65,183.78 -102.4,332.79 -293.43,346.58 -142.44,-160.15 -359.06,-358.4 -304.59,-590.78z"/>
   <path class="fil4" d="M25380.79 15907.05c87.31,-19.68 181.17,-52.51 267.17,-5.9 58.43,133.93 -30.2,244.87 -118.81,336.75 -28.9,-28.23 -86.66,-84.03 -115.54,-112.24 -12.49,-72.87 -23.63,-145.74 -32.82,-218.61z"/>
   <path class="fil4" d="M25758.89 16558.89l30.2 -41.35c25.58,7.22 75.49,22.31 101.07,29.53 73.53,308.54 114.24,631.5 275.05,911.14 129.33,174.61 348.56,194.3 543.54,244.19 -36.78,283.58 -3.95,569.12 -28.23,853.35 -77.47,330.2 -272.42,634.13 -262.58,982.69 -2.62,189.05 71.55,367.6 158.21,531.7 53.16,212.69 374.16,279.64 309.17,528.43 -16.41,32.17 -48.57,96.5 -65,128.66 126.03,68.92 254.71,204.8 410.94,160.16 53.83,-31.5 106.34,-65 158.2,-100.45 -140.49,215.34 -408.3,266.52 -647.89,280.96 -172.64,8.55 -374.18,-97.15 -389.91,-284.88 25.6,-80.74 68.27,-154.28 107.64,-228.45 57.1,9.2 171.99,27.58 229.1,36.77 -264.55,-238.94 -579.62,-528.43 -523.18,-922.95 -19.69,-508.72 413.56,-934.74 305.89,-1447.41 -19.68,-114.24 -66.94,-221.23 -103.72,-329.55 43.99,-30.85 131.3,-93.2 175.29,-124.05 -717.48,-170.7 -1445.46,-487.08 -1901.04,-1091.65 321.66,286.85 868.47,237.62 1117.26,-116.86z"/>
   <path class="fil4" d="M9536.52 16745.97l24.28 11.17c29.55,13.78 89.94,41.35 120.13,55.14 -249.43,244.19 -492.31,560.58 -422.74,933.45 97.18,392.53 380.73,710.24 723.38,913.08 -36.09,-200.87 -76.79,-401.08 -111.58,-601.95 565.18,374.84 1303.67,390.58 1916.11,123.41 -371.54,448.99 -936.72,750.96 -1520.93,788.38 -488.39,11.17 -1052.28,-184.46 -1255.11,-666.28 -253.38,-556.63 21.01,-1243.27 526.46,-1556.4z"/>
   <path class="fil4" d="M4289.67 17294.76c170.02,-78.79 461.47,-143.1 543.52,81.39 0,195.62 -265.19,213.33 -409.61,171.99 -126.7,-13.79 -108.99,-164.11 -133.92,-253.38z"/>
   <path class="fil4" d="M21612.21 17914.42c190.38,-166.73 329.53,-379.42 473.29,-584.89 133.92,394.53 -121.44,772.62 -445.71,976.12 -388.63,247.47 -862.55,441.77 -1329.28,328.88 -158.86,-42.02 -338.72,-72.87 -447.02,-208.09 47.91,-7.22 143.1,-21.01 191.01,-27.58 550.76,7.22 1134.32,-110.27 1557.71,-484.44z"/>
   <path class="fil4" d="M13318.2 17995.16c72.22,-59.73 144.44,-118.81 218.61,-175.26 -19.69,246.81 -55.13,492.31 -97.15,737.17 -12.47,-22.98 -37.42,-68.92 -49.89,-91.91 -68.27,-137.84 -73.52,-293.42 -71.57,-444.39l0 -25.61z"/>
   <path class="fil4" d="M12469.44 18197.35c33.48,7.22 101.1,21.66 134.57,28.88 147.71,78.77 287.53,170.67 425.38,265.85 131.93,120.13 246.16,259.95 389.91,366.95 86.66,48.57 173.95,-32.17 256.68,-55.14 271.75,-129.3 534.97,-280.29 773.27,-464.75 80.73,-92.56 197.58,-85.99 301.95,-38.74 -356.45,397.13 -857.95,615.08 -1343.04,809.39 -395.85,-202.84 -704.37,-540.25 -938.72,-912.44z"/>
   <path class="fil4" d="M22092.73 18481.59c114.86,-26.26 229.75,-55.81 342.64,-91.91 8.54,16.41 25.6,50.54 34.13,67.62 131.95,202.17 144.42,464.75 -23.63,651.18 400.42,517.91 985.31,830.4 1562.3,1110.67 12.47,5.92 37.42,18.39 50.54,24.28 67.62,43.99 135.23,87.98 204.17,131.95 -84.04,29.55 -170.02,57.11 -250.11,93.88 -41.37,27.58 -81.39,57.11 -119.48,87.96 -863.85,-379.41 -1612.19,-1127.1 -1800.57,-2075.63z"/>
   <path class="fil4" d="M15519.89 18486.18c317.04,175.92 607.19,394.51 880.27,632.8 187.08,171.32 355.78,400.42 330.17,668.9 384.02,-345.94 843.52,-614.41 1345.69,-745.06 -368.9,277.02 -734.54,576.34 -967.58,983.34 -322.3,126.68 -729.28,150.96 -1006.31,-89.94 -246.16,-210.04 -502.17,-519.23 -414.21,-865.17 31.53,-212.02 -70.24,-405.02 -168.04,-584.88z"/>
   <path class="fil4" d="M8119.28 18856.4c27.58,-0.65 83.37,-2.63 110.94,-3.94 163.46,520.55 686.63,853.36 779.84,1410.67 -62.35,152.29 -129.3,303.92 -206.12,450.31 -11.81,-160.83 6.57,-324.93 -32.15,-482.48 -156.89,-487.08 -561.26,-861.23 -652.51,-1374.57z"/>
   <path class="fil4" d="M22732.74 18887.26c44.64,6.55 134.57,19.69 179.86,26.26 28.9,112.24 16.41,327.55 -151.64,275.04 -122.08,-69.58 -66.29,-200.22 -28.22,-301.3z"/>
   <path class="fil4" d="M18491.55 19464.27c311.81,-183.81 683.34,-210.72 1037.15,-208.09l-43.32 21.66c-265.2,119.46 -496.92,308.51 -651.84,556.63 167.4,357.13 173.32,772.62 25.61,1136.97l-15.09 47.26c-379.42,-347.92 -852.06,-588.84 -1357.51,-688.61 295.4,-330.18 624.93,-635.42 1005,-865.82z"/>
   <path class="fil4" d="M3893.84 20506.67l58.43 2.62c31.5,1.98 95.85,5.9 128,7.22 217.28,105.7 468.7,211.37 569.12,449.01 108.32,210.06 30.86,450.31 -18.38,666.27 -35.45,93.21 -103.72,167.4 -166.07,243.54 -80.74,-491.01 -195.63,-1012.21 -571.1,-1368.65z"/>
   <path class="fil4" d="M23689.81 20678.66c32.83,-15.76 99.13,-47.26 132.6,-63.02 231.72,164.77 260.61,492.98 128.03,729.95 -182.51,362.33 -392.56,727.98 -417.51,1144.16 -14.44,129.32 -31.5,259.3 -30.85,389.91 -22.33,210.06 284.23,320.99 175.27,538.94 -13.14,91.9 -69.58,204.14 29.55,269.79 156.88,63.02 332.79,13.14 496.27,21.66l-57.78 68.93c-265.2,173.94 -661.68,182.49 -917.04,-15.11 -101.74,-61.05 -72.22,-196.92 -100.42,-294.07 46.59,-49.89 94.53,-98.48 143.74,-145.74 85.36,-13.14 159.53,45.94 238.94,69.57 -200.2,-213.34 -329.52,-479.84 -398.44,-762.1 -1.98,-584.88 508.72,-971.52 632.8,-1513.08 2.62,-149.01 -18.39,-296.06 -55.16,-439.8z"/>
   <path class="fil4" d="M14903.49 21612.76c529.73,-452.28 1228.18,-708.95 1926.63,-687.94 656.42,-19.71 1310.88,252.73 1767.77,722.73 379.41,403.7 628.85,924.26 728.63,1468.44 -189.71,-601.29 -606.55,-1148.76 -1169.77,-1442.17 -126.7,-58.43 -256.66,-109.64 -389.91,-149.01 -712.22,-189.05 -1494.7,-9.19 -2108.46,383.34 -593.41,389.28 -836.29,1122.5 -864.52,1801.9 -30.2,571.1 -106.99,1138.91 -225.83,1698.19 -22.95,-234.99 -44.64,-469.35 -63,-704.35 -5.27,-606.54 -49.24,-1211.77 -143.1,-1811.08 -76.14,-489.04 191.68,-959.71 541.56,-1280.04z"/>
   <path class="fil4" d="M8376.6 21241.22c198.23,-20.36 397.8,-65 598,-35.45 6.57,95.83 14.44,191.68 22.98,288.18l-160.16 -53.18c26.25,46.61 77.46,140.49 103.07,187.74 -43.99,-24.31 -132.6,-72.87 -177.24,-97.16l38.07 137.2c-181.84,-0.67 -363.67,-3.28 -545.51,0l15.12 -84.68c-34.8,10.49 -103.72,30.85 -138.52,41.34l0.65 -64.97c-79.42,-26.93 -149.66,-70.9 -219.91,-112.92 171.35,-26.25 339.39,-78.11 463.45,-206.11z"/>
   <path class="fil4" d="M11440.82 25435.81c621.63,-915.07 1486.81,-1695.57 2533.17,-2086.15 3.27,44.64 9.84,133.92 13.14,177.89 11.14,222.53 38.07,443.1 57.1,664.98 -345.27,129.97 -659.06,326.9 -989.9,487.06 -535.65,213.34 -1016.81,548.78 -1443.49,933.45 -286.21,277.66 -582.24,565.84 -747.68,935.39 123.41,-402.39 349.88,-762.1 577.66,-1112.63z"/>
   <path class="fil4" d="M11413.91 26350.22c382.71,-193 789.01,-345.95 1207.17,-440.47 36.77,9.84 110.27,30.2 147.05,40.04 481.14,180.52 1000.39,397.78 1280.01,855.33 10.52,17.06 30.86,49.89 40.72,66.95 -592.76,-480.51 -1377.84,-654.46 -2128.15,-588.15 -180.51,31.5 -363.67,52.51 -546.81,66.3z"/>
   <path class="fil5" d="M14673.09 19686.78c80.74,-22.98 162.12,-45.28 242.89,-67.62 382.03,-118.16 576.48,-608.72 391.46,-963.35l-18.62 -21.3c-99.12,-90.58 -190.35,-6.55 -267.8,64.33l-309.2 379.41c65,204.17 53.84,413.56 -38.72,608.52z"/>
   <path class="fil4" d="M12157.64 19300.82c-244.19,-252.08 -292.76,-652.51 -59.73,-929.52 11.82,32.17 59.08,88.18 71.57,119.68l257.3 332.61c-79.41,154.9 -187.02,373.46 -187.67,555.3 -21.01,-1.95 -69.71,-64.16 -81.46,-78.08z"/>
  </g>
 </g>
</svg>
