<?xml version="1.0" encoding="UTF-8"?>
<!DOCTYPE svg PUBLIC "-//W3C//DTD SVG 1.1//EN" "http://www.w3.org/Graphics/SVG/1.1/DTD/svg11.dtd">
<!-- Creator: CorelDRAW 2018 (64-Bit) -->
<svg xmlns="http://www.w3.org/2000/svg" xml:space="preserve" width="7.45044in" height="8.33247in" version="1.1" style="shape-rendering:geometricPrecision; text-rendering:geometricPrecision; image-rendering:optimizeQuality; fill-rule:evenodd; clip-rule:evenodd"
viewBox="0 0 748.96 837.62"
 xmlns:xlink="http://www.w3.org/1999/xlink">
 <defs>
  <style type="text/css">
   <![CDATA[
    .str0 {stroke:white;stroke-width:7.92;stroke-miterlimit:2.61313}
    .fil6 {fill:none}
    .fil5 {fill:#FEFEFE}
    .fil0 {fill:black;fill-rule:nonzero}
    .fil2 {fill:#BE1F1C;fill-rule:nonzero}
    .fil3 {fill:#C8C8C8;fill-rule:nonzero}
    .fil1 {fill:#DE302B;fill-rule:nonzero}
    .fil4 {fill:#E9B023;fill-rule:nonzero}
   ]]>
  </style>
 </defs>
 <g id="Layer_x0020_1">
  <metadata id="CorelCorpID_0Corel-Layer"/>
  <g id="_1175852496">
   <path class="fil0" d="M190.62 20.34c4.85,-5.73 10.05,-11.75 17.05,-14.84 8.08,31.62 23.14,62.93 49.24,83.53 8.9,7.12 18.91,12.79 29.43,17.13 10.89,-10.78 17.13,-25.62 18.5,-40.78 1.9,-20.32 -2.54,-41.09 -11.62,-59.33 32.7,0.21 65.59,10.56 91.6,30.55 20.83,15.88 37.2,37.65 46.27,62.25 1.31,-20.57 -3.5,-41.38 -13.53,-59.39 31.04,11.09 59.06,31.31 78.05,58.4 16.25,22.94 26.03,50.55 27.52,78.64 3.19,-16.49 2.66,-33.66 -0.33,-50.16 15.37,25.95 20.59,57.83 15.76,87.54 76.74,36.3 135.76,104.08 168.99,181.45 27.46,63.46 40.44,133.36 36.9,202.43 -7.96,-21.53 -18.62,-41.97 -30.35,-61.66 -5.18,-8.06 -10.03,-16.6 -17.11,-23.21 -0.35,75 -26.91,150.68 -77.85,206.32 -32.03,35.34 -74.33,61.72 -120.92,72.67 13.53,-25.93 25.52,-53.12 31.56,-81.84 -19.32,27.77 -44.65,51.06 -72.4,70.25 -31.04,21.2 -66.43,36.84 -103.83,42.05 18.23,-14.86 36.02,-31.96 44.77,-54.29 -31.06,22.71 -68.02,35.46 -104.82,45.51 -47.7,12.36 -96.9,19.36 -146.2,20.05 -23.21,0 -46.68,-0.98 -69.21,-6.98 69.07,-45.53 122.58,-111.94 159.07,-185.69 -18.74,8.08 -39.58,12.18 -59.94,9.54 30.1,-18.87 54.72,-47.8 65.89,-81.71 -10.35,11.07 -24.27,18.74 -39.39,20.83 -23.1,3.03 -46.47,-2.01 -68.27,-9.45 21.86,-6.92 34.77,-27.69 43.69,-47.46 5.38,-11.64 10.58,-23.39 16.56,-34.73 -21.24,1.9 -43.26,11.89 -53.25,31.72 -2.62,-21.67 10.42,-43.28 30.16,-52.12 2.6,-1.82 7.29,-1.66 8.88,-4.42 -23.62,2.23 -49.09,5.26 -68.88,19.97 -14.02,9.97 -22.78,26.09 -25.07,43 -24.68,-7.92 -50.73,-18.38 -66.73,-39.82 -10.42,-13.51 -10.6,-33.19 -0.92,-47.15 14.82,-22.04 40.89,-33.34 66.12,-38.41 6.98,-15.14 20.38,-26.23 34.91,-33.83 -18.09,-0.49 -36.49,-3.09 -52.84,-11.28 -23.8,-11.52 -41.62,-33.13 -51.32,-57.46 -12.13,-29.59 -14.69,-62.39 -11.6,-94.01 17.76,23.06 46.31,35.71 74.88,38.15 12.46,1.08 25.35,-0.16 36.86,-5.34 -4.32,-3.42 -9.95,-4.54 -14.67,-7.33 -25.35,-12.83 -43.16,-38.12 -48.72,-65.77 -8.8,-41.83 5.14,-86.13 31.45,-119.04 5.85,28.57 20.16,56.4 43.98,73.96 20.03,15.23 46.19,21.2 70.99,17.97 -36,-30.86 -37.35,-89.96 -9.29,-126.45zm137.89 13.02l0 0c2.29,15.57 1.96,31.58 -2.62,46.72 -3.13,12.26 -10.13,22.88 -16.84,33.34 8.17,1.66 16.35,3.25 24.64,4.13 10.33,0.82 20.69,1.62 31.06,1.9 -26.03,9.11 -54.62,11.17 -81.79,6.69 -34.63,-5.98 -67.72,-28.63 -79.73,-62.56 -4.17,5.53 -3.09,13.4 -3.5,19.99 1.86,33.17 26.58,61.45 56.3,74.22 -13.61,10.85 -30.53,16.64 -47.5,19.54 -26.19,4.28 -53.74,1.74 -78.27,-8.68 -15.53,-6.67 -28.67,-17.82 -39.13,-30.98 -0.57,-2.84 -2.91,-4.91 -4.44,-7.26 -0.9,11.73 -0.96,23.64 1.56,35.18 4.09,21.24 17.95,40.35 36.9,50.81 16.58,9.64 35.98,12.36 54.84,13.04 -10.56,22.55 -32.56,37.51 -55.36,45.88 -26.95,10.05 -58.18,10.6 -84.19,-2.54 0.86,4.38 1.96,8.72 3.32,12.97l0.22 0.16c6.16,32.13 33.75,60.1 67.12,62.6 0.51,-7.55 1.78,-15.12 5.61,-21.75 4.97,-8.49 13.02,-15.12 22.39,-18.15 -4.5,6.06 -9.39,12.91 -8.08,20.91 0.16,5.16 3.58,9.8 8.33,11.73 6.28,1.9 12.87,-0.61 18.17,-3.99 13.59,-9.54 23.14,-23.43 32.8,-36.67 10.44,-15.63 20.12,-31.76 29.88,-47.82 11.15,-18.56 24.95,-35.53 40.99,-50.08 12.95,-11.68 27.61,-21.53 43.59,-28.57 -14.14,2.05 -27.3,7.84 -40.89,11.89 17.07,-12.73 36.18,-22.57 56.28,-29.57 19.93,-6.53 40.78,-11.42 61.9,-10.42 0.14,-25.46 -6.63,-50.96 -19.63,-72.85 10.36,7.31 18.34,17.23 26.28,26.97 -5.22,-13.53 -13.63,-25.5 -22.49,-36.84 -9.58,-11.07 -20.42,-21.53 -33.87,-27.69 -1.31,-0.76 -2.58,-1.51 -3.85,-2.27zm-30.86 178.3l0 0c-32.15,22.86 -53.98,56.89 -72.44,91.09 9.8,-14.51 19.48,-29.43 32.64,-41.19 22.18,-20.67 54.07,-28.79 83.8,-25.29 16.11,1.74 30.86,9.02 44.24,17.76 3.93,4.42 8.64,8.06 12.46,12.59 17.76,20.07 27.61,46.31 30.33,72.77 3.42,32.39 -3.91,66.94 -24.93,92.46 18.32,-13.04 32.48,-31.72 40.31,-52.78 -2.86,33.81 -16.97,69.15 -45.9,88.81 33.15,18.4 61.86,45.1 81.73,77.44 16.06,26.58 26.62,57.75 23.53,89.1 0.22,1 0.7,3.03 0.92,4.03 12.65,-23.02 16.78,-49.91 14.39,-75.88 -3.09,-33.87 -15.74,-67.45 -38.55,-93.01 37.67,13.87 65.36,47.19 79.54,83.94 18.44,47.64 19.71,100.99 7.76,150.37 16.17,-20.98 25.19,-46.41 32.29,-71.64 10.27,-39.84 14.98,-82.41 5.03,-122.8 4.13,2.21 6.59,6.38 9.33,10.03 10.7,15.49 15.33,33.99 19.38,52.1 0.1,5.28 0.51,10.58 1.35,15.82 15.86,-48.34 12.87,-100.99 0.76,-149.8 -14.12,-54.95 -41.03,-108.19 -83.82,-146.32 -3.6,-3.42 -7.98,-5.96 -11.23,-9.72 28.79,7.12 56.03,19.91 80.48,36.61 -21.08,-26.66 -47.05,-49.44 -75.92,-67.35 -55.07,-34.24 -120.78,-47.93 -185.06,-47.31 8,-8 17.91,-13.71 28.49,-17.58 -32.03,-1.64 -64.81,6.86 -90.92,25.76zm-22.04 71.85l0 0c-17.68,16.68 -29.51,38.29 -43.06,58.2 22.72,-16.02 43.71,-38.02 72.55,-42.03 18.87,-2.76 35.79,8.21 48.87,20.59 -4.01,0.94 -7.98,-0.31 -11.95,-0.7 -9.19,-0.88 -18.54,0.18 -27.3,3.03 0.29,20.44 -3.93,42.22 -18.01,57.85 -10.21,11.66 -24.88,17.56 -39.45,21.61 18.01,2.23 36.2,0.84 53.92,-2.8 -11.21,8.6 -24.27,14.45 -38.02,17.56 1.39,3.34 6.38,1.86 9.29,2.95 24.17,3.34 49.07,-2.11 69.68,-15.1 -8.76,14.1 -22.24,25.23 -37.41,31.9 3.17,2.17 7.16,1.62 10.78,1.88 16.29,0.68 33.19,-3.54 46.09,-13.83 20.05,-15.84 29.84,-42.24 29.37,-67.31 1.47,-28.2 -8.82,-58.26 -30.45,-77.15 -26.38,-23.17 -69.76,-20.34 -94.89,3.36zm-51 98.78l0 0c16.13,1.55 34.01,-0.25 46.76,-11.23 9.97,-8.37 14.04,-21.55 14.73,-34.15 -21.26,14.08 -39.72,32.01 -61.49,45.39zm-112 25.91l0 0c9.54,0.39 19.07,0.94 28.53,2.35 -30,4.46 -61.27,11.97 -85.01,31.98 -9.88,8.12 -18.66,20.87 -14.96,34.26 4.03,12.81 16.62,19.87 28.04,25.19 3.25,-14.16 13.34,-25.42 25.83,-32.35 25.29,-14.12 54.68,-18.19 83.15,-20.16 18.42,-0.55 36.96,-0.86 55.23,1.82 -13.34,-5.07 -27.44,-7.43 -41.46,-9.78 23.43,-2.86 47.17,-0.29 70.56,1.99 -25.8,-13.61 -55.66,-14.18 -82.84,-23.66 -15.25,-4.91 -30.72,-13.65 -37.59,-28.85 -11.34,2.29 -21.53,8.98 -29.47,17.21zm199.59 57.22l0 0c9.41,13.32 14.04,29.14 18.07,44.71 0.61,11.52 1.86,23.06 0.31,34.58 -6.41,-16.9 -14.2,-34.26 -27.34,-47.03 4.77,39.02 -7.27,77.17 -17.84,114.21 -4.5,17.93 -9.99,36.57 -6.63,55.19 2.6,15.22 15.59,27.05 30.22,30.78 12.18,3.4 25.05,1.02 36.77,-3.01 -7.76,-9.11 -14.18,-19.48 -17.07,-31.19 -4.85,-18.29 -0.31,-37.16 6.18,-54.41 1.35,14.26 1.96,29.51 10.38,41.77 14.88,25.83 48.81,39.05 76.97,28.9 17.09,-4.83 32.62,-16.94 40.62,-32.99 8.82,-18.09 7.29,-39.37 0.76,-57.89 -11.01,-31.6 -33.29,-58.08 -58.67,-79.3 -26.95,-21.45 -58.53,-38.53 -92.72,-44.33zm-80.53 30.2l0 0c-18.38,17.46 -25.64,42.48 -38.25,63.79 -2.35,4.36 -5.93,7.82 -9.6,11.07 13.45,0.25 27.07,-5.1 35.96,-15.35 19.48,-21.34 23.92,-51.81 41.73,-74.2 -11.24,1.39 -21.92,6.57 -29.84,14.69z"/>
   <path class="fil1" d="M328.51 33.36c1.27,0.76 2.54,1.51 3.85,2.27 -0.88,4.5 -0.29,9.07 1.13,13.4 6.45,22.22 6.88,46.29 0.2,68.51 -8.29,-0.88 -16.47,-2.48 -24.64,-4.13 6.71,-10.46 13.71,-21.08 16.84,-33.34 4.58,-15.14 4.91,-31.15 2.62,-46.72z"/>
   <path class="fil1" d="M86.68 130.42c1.53,2.35 3.87,4.42 4.44,7.26 0.61,3.83 1.35,7.69 3.44,11.03 7.82,13.53 18.54,25.46 31.47,34.26 26.28,18.52 59.16,25.19 90.84,25.05 14.96,-0.02 29.53,-3.66 44.3,-5.32 -16.04,14.55 -29.84,31.51 -40.99,50.08 -9.76,16.06 -19.44,32.19 -29.88,47.82 -9.66,13.24 -19.22,27.14 -32.8,36.67 -5.3,3.38 -11.89,5.89 -18.17,3.99 -4.75,-1.92 -8.17,-6.57 -8.33,-11.73 -1.31,-8 3.58,-14.86 8.08,-20.91 -9.37,3.03 -17.42,9.66 -22.39,18.15 -23.62,-0.94 -46,-12.32 -62.07,-29.39 -3.4,-3.97 -6.2,-8.53 -10.66,-11.46l-0.22 -0.16c-1.35,-4.26 -2.46,-8.59 -3.32,-12.97 26.01,13.14 57.24,12.59 84.19,2.54 22.8,-8.37 44.8,-23.33 55.36,-45.88 -18.87,-0.68 -38.27,-3.4 -54.84,-13.04 -18.95,-10.46 -32.8,-29.57 -36.9,-50.81 -2.52,-11.54 -2.46,-23.45 -1.56,-35.18z"/>
   <path class="fil1" d="M275.61 283.51c25.13,-23.7 68.51,-26.52 94.89,-3.36 21.63,18.89 31.92,48.95 30.45,77.15 -5.53,15.63 -12.13,31.68 -25.13,42.63 -2.13,1.35 -4.44,2.31 -6.71,3.38 8.08,-27.69 5.03,-61.15 -15.14,-83.04 -13.08,-12.38 -30,-23.35 -48.87,-20.59 -28.83,4.01 -49.83,26.01 -72.55,42.03 13.55,-19.91 25.38,-41.52 43.06,-58.2z"/>
   <path class="fil1" d="M312.2 465.42c34.2,5.79 65.77,22.88 92.72,44.33 25.38,21.22 47.66,47.7 58.67,79.3 6.53,18.52 8.06,39.8 -0.76,57.89 -8,16.04 -23.53,28.16 -40.62,32.99 -8.25,-3.36 -17.03,-6.22 -23.64,-12.44 -10.95,-9.9 -18.93,-22.59 -25.52,-35.67 -16.64,-36 -23.7,-75.33 -37.29,-112.43 -1.19,-3.44 -3.44,-6.32 -5.51,-9.25 -4.03,-15.57 -8.66,-31.39 -18.07,-44.71z"/>
   <path class="fil2" d="M333.48 49.03c-1.41,-4.34 -2.01,-8.9 -1.13,-13.4 13.45,6.16 24.29,16.62 33.87,27.69 8.86,11.34 17.27,23.31 22.49,36.84 -7.94,-9.74 -15.92,-19.67 -26.28,-26.97 13,21.9 19.77,47.4 19.63,72.85 -21.12,-1 -41.97,3.89 -61.9,10.42 -20.1,7 -39.21,16.84 -56.28,29.57 13.59,-4.05 26.75,-9.84 40.89,-11.89 -15.98,7.04 -30.63,16.88 -43.59,28.57 -14.77,1.66 -29.35,5.3 -44.3,5.32 -31.68,0.14 -64.56,-6.53 -90.84,-25.05 -12.93,-8.8 -23.66,-20.73 -31.47,-34.26 -2.09,-3.34 -2.82,-7.2 -3.44,-11.03 10.46,13.16 23.59,24.31 39.13,30.98 24.54,10.42 52.08,12.95 78.27,8.68 16.97,-2.91 33.89,-8.7 47.5,-19.54 -29.71,-12.77 -54.43,-41.05 -56.3,-74.22 0.41,-6.59 -0.68,-14.47 3.5,-19.99 12.01,33.93 45.1,56.58 79.73,62.56 27.18,4.48 55.76,2.41 81.79,-6.69 -10.38,-0.29 -20.73,-1.08 -31.06,-1.9 6.67,-22.22 6.24,-46.29 -0.2,-68.51z"/>
   <path class="fil2" d="M43.98 285.93c4.46,2.93 7.26,7.49 10.66,11.46 16.06,17.07 38.45,28.45 62.07,29.39 -3.83,6.63 -5.1,14.2 -5.61,21.75 -33.38,-2.5 -60.96,-30.47 -67.12,-62.6z"/>
   <path class="fil2" d="M314.71 322.6c8.76,-2.84 18.11,-3.91 27.3,-3.03 3.97,0.39 7.94,1.64 11.95,0.7 20.18,21.9 23.23,55.36 15.14,83.04 2.27,-1.06 4.58,-2.03 6.71,-3.38 13,-10.95 19.6,-26.99 25.13,-42.63 0.47,25.07 -9.31,51.47 -29.37,67.31 -12.89,10.29 -29.8,14.51 -46.09,13.83 -3.62,-0.27 -7.61,0.29 -10.78,-1.88 15.16,-6.67 28.65,-17.8 37.41,-31.9 -20.61,12.99 -45.51,18.44 -69.68,15.1 -2.91,-1.08 -7.9,0.39 -9.29,-2.95 13.75,-3.11 26.81,-8.96 38.02,-17.56 -17.72,3.64 -35.91,5.03 -53.92,2.8 14.57,-4.05 29.24,-9.95 39.45,-21.61 14.08,-15.63 18.3,-37.41 18.01,-57.85z"/>
   <path class="fil2" d="M303.23 497.69c13.14,12.77 20.93,30.12 27.34,47.03 1.56,-11.52 0.31,-23.06 -0.31,-34.58 2.07,2.93 4.32,5.81 5.51,9.25 13.59,37.1 20.65,76.43 37.29,112.43 6.59,13.08 14.57,25.76 25.52,35.67 6.61,6.22 15.39,9.09 23.64,12.44 -28.16,10.15 -62.09,-3.07 -76.97,-28.9 -8.41,-12.26 -9.02,-27.5 -10.38,-41.77 -6.49,17.25 -11.03,36.12 -6.18,54.41 2.89,11.71 9.31,22.08 17.07,31.19 -11.73,4.03 -24.6,6.41 -36.77,3.01 -14.63,-3.72 -27.63,-15.55 -30.22,-30.78 -3.36,-18.62 2.13,-37.27 6.63,-55.19 10.58,-37.04 22.61,-75.19 17.84,-114.21z"/>
   <path class="fil3" d="M385.89 254.02c3.85,0.72 7.71,1.6 11.21,3.44 39.31,18.87 73.45,47.82 100.42,81.96 31.27,38.72 54.02,84.33 66.14,132.63 0.51,1.82 1.35,3.5 2.5,5.03 6.18,-27.89 3.62,-57.09 -2.72,-84.7 -1,-6.1 -4.95,-11.81 -3.99,-18.09 38.86,37.88 61.27,90 71.32,142.72 2.54,17.99 5.85,36.41 2.76,54.54 -4.05,-18.11 -8.68,-36.61 -19.38,-52.1 -2.74,-3.64 -5.2,-7.82 -9.33,-10.03 9.95,40.4 5.24,82.96 -5.03,122.8 -7.1,25.23 -16.13,50.67 -32.29,71.64 11.95,-49.38 10.68,-102.73 -7.76,-150.37 -14.18,-36.75 -41.87,-70.07 -79.54,-83.94 22.82,25.56 35.46,59.14 38.55,93.01 2.39,25.97 -1.74,52.86 -14.39,75.88 -0.23,-1 -0.7,-3.03 -0.92,-4.03 3.09,-31.35 -7.47,-62.52 -23.53,-89.1 -19.87,-32.33 -48.58,-59.04 -81.73,-77.44 28.94,-19.67 43.04,-55.01 45.9,-88.81 -7.84,21.06 -22,39.74 -40.31,52.78 21.02,-25.52 28.34,-60.06 24.93,-92.46 -2.72,-26.46 -12.57,-52.7 -30.33,-72.77 -3.83,-4.52 -8.53,-8.17 -12.46,-12.59z"/>
   <path class="fil4" d="M112.61 408.2c7.94,-8.23 18.13,-14.92 29.47,-17.21 6.88,15.2 22.35,23.94 37.59,28.85 27.18,9.47 57.03,10.05 82.84,23.66 -23.39,-2.27 -47.13,-4.85 -70.56,-1.99 14.02,2.35 28.12,4.71 41.46,9.78 -18.27,-2.68 -36.81,-2.37 -55.23,-1.82 -28.47,1.96 -57.85,6.04 -83.15,20.16 -12.48,6.94 -22.57,18.19 -25.83,32.35 -11.42,-5.32 -24,-12.38 -28.04,-25.19 -3.7,-13.38 5.07,-26.13 14.96,-34.26 23.74,-20.01 55.01,-27.52 85.01,-31.98 -9.45,-1.41 -18.99,-1.96 -28.53,-2.35z"/>
   <path class="fil4" d="M231.67 495.62c7.92,-8.12 18.6,-13.3 29.84,-14.69 -17.8,22.39 -22.24,52.86 -41.73,74.2 -8.88,10.25 -22.51,15.59 -35.96,15.35 3.66,-3.25 7.24,-6.71 9.6,-11.07 12.61,-21.3 19.87,-46.33 38.25,-63.79z"/>
   <path class="fil5" d="M397.1 257.46c39.31,18.87 73.45,47.82 100.42,81.96 31.27,38.72 54.02,84.33 66.14,132.63 0.51,1.82 1.35,3.5 2.5,5.03 6.18,-27.89 3.62,-57.09 -2.72,-84.7 -1,-6.1 -4.95,-11.81 -3.99,-18.09 38.86,37.88 61.27,90 71.32,142.72 2.54,17.99 5.85,36.41 2.76,54.54 0.1,5.28 0.51,10.58 1.35,15.82 15.86,-48.34 12.87,-100.99 0.76,-149.8 -14.12,-54.95 -41.03,-108.19 -83.82,-146.32 -3.6,-3.42 -7.98,-5.96 -11.23,-9.72 28.79,7.12 56.03,19.91 80.48,36.61 -21.08,-26.66 -47.05,-49.44 -75.92,-67.35 -55.07,-34.24 -120.78,-47.93 -185.06,-47.31 8,-8 17.91,-13.71 28.49,-17.58 -32.03,-1.64 -64.81,6.86 -90.92,25.76 -32.15,22.86 -53.98,56.89 -72.44,91.09 9.8,-14.51 19.48,-29.43 32.64,-41.19 22.18,-20.67 54.07,-28.79 83.8,-25.29 16.11,1.74 30.86,9.02 44.24,17.76 3.85,0.72 7.71,1.6 11.21,3.44z"/>
   <path class="fil5" d="M271.37 371.06c9.97,-8.37 14.04,-21.55 14.73,-34.15 -21.26,14.08 -39.72,32.01 -61.49,45.39 16.13,1.55 34.01,-0.25 46.76,-11.23z"/>
   <path class="fil6 str0" d="M522.79 126.37c15.37,25.95 20.59,57.83 15.76,87.54 76.74,36.3 135.76,104.08 168.99,181.45 27.46,63.46 40.44,133.36 36.9,202.43 -7.96,-21.53 -18.62,-41.97 -30.35,-61.66 -5.18,-8.06 -10.03,-16.6 -17.11,-23.21 -0.35,75 -26.91,150.68 -77.85,206.32 -32.03,35.34 -74.33,61.72 -120.92,72.67 13.53,-25.93 25.52,-53.12 31.56,-81.84 -19.32,27.77 -44.65,51.06 -72.4,70.25 -31.04,21.2 -66.43,36.84 -103.83,42.05 18.23,-14.86 36.02,-31.96 44.77,-54.29 -31.06,22.71 -68.02,35.46 -104.82,45.51 -47.7,12.36 -96.9,19.36 -146.2,20.05 -23.21,0 -46.68,-0.98 -69.21,-6.98 69.07,-45.53 122.58,-111.94 159.07,-185.69 -18.74,8.08 -39.58,12.18 -59.94,9.54 30.1,-18.87 54.72,-47.8 65.89,-81.71 -10.35,11.07 -24.27,18.74 -39.39,20.83 -23.1,3.03 -46.47,-2.01 -68.27,-9.45 21.86,-6.92 34.77,-27.69 43.69,-47.46 5.38,-11.64 10.58,-23.39 16.56,-34.73 -21.24,1.9 -43.26,11.89 -53.25,31.72 -2.62,-21.67 10.42,-43.28 30.16,-52.12 2.6,-1.82 7.29,-1.66 8.88,-4.42 -23.62,2.23 -49.09,5.26 -68.88,19.97 -14.02,9.97 -22.78,26.09 -25.07,43 -24.68,-7.92 -50.73,-18.38 -66.73,-39.82 -10.42,-13.51 -10.6,-33.19 -0.92,-47.15 14.82,-22.04 40.89,-33.34 66.12,-38.41 6.98,-15.14 20.38,-26.23 34.91,-33.83 -18.09,-0.49 -36.49,-3.09 -52.84,-11.28 -23.8,-11.52 -41.62,-33.13 -51.32,-57.46 -12.13,-29.59 -14.69,-62.39 -11.6,-94.01 17.76,23.06 46.31,35.71 74.88,38.15 12.46,1.08 25.35,-0.16 36.86,-5.34 -4.32,-3.42 -9.95,-4.54 -14.67,-7.33 -25.35,-12.83 -43.16,-38.12 -48.72,-65.77 -8.8,-41.83 5.14,-86.13 31.45,-119.04 5.85,28.57 20.16,56.4 43.98,73.96 20.03,15.23 46.19,21.2 70.99,17.97 -36,-30.86 -37.35,-89.96 -9.29,-126.45 4.85,-5.73 10.05,-11.75 17.05,-14.84 8.08,31.62 23.14,62.93 49.24,83.53 8.9,7.12 18.91,12.79 29.43,17.13 10.89,-10.78 17.13,-25.62 18.5,-40.78 1.9,-20.32 -2.54,-41.09 -11.62,-59.33 32.7,0.21 65.59,10.56 91.6,30.55 20.83,15.88 37.2,37.65 46.27,62.25 1.31,-20.57 -3.5,-41.38 -13.53,-59.39 31.04,11.09 59.06,31.31 78.05,58.4 16.25,22.94 26.03,50.55 27.52,78.64 3.19,-16.49 2.66,-33.66 -0.33,-50.16z"/>
  </g>
 </g>
</svg>
