<?xml version="1.0" encoding="UTF-8"?>
<!DOCTYPE svg PUBLIC "-//W3C//DTD SVG 1.1//EN" "http://www.w3.org/Graphics/SVG/1.1/DTD/svg11.dtd">
<!-- Creator: CorelDRAW 2018 (64-Bit) -->
<svg xmlns="http://www.w3.org/2000/svg" xml:space="preserve" width="0.520709in" height="0.307839in" version="1.1" style="shape-rendering:geometricPrecision; text-rendering:geometricPrecision; image-rendering:optimizeQuality; fill-rule:evenodd; clip-rule:evenodd"
viewBox="0 0 4.97 2.94"
 xmlns:xlink="http://www.w3.org/1999/xlink">
 <defs>
  <style type="text/css">
   <![CDATA[
    .fil1 {fill:black;fill-rule:nonzero}
    .fil7 {fill:#380001;fill-rule:nonzero}
    .fil4 {fill:#383838;fill-rule:nonzero}
    .fil3 {fill:#666666;fill-rule:nonzero}
    .fil2 {fill:#858585;fill-rule:nonzero}
    .fil6 {fill:#B3B3B3;fill-rule:nonzero}
    .fil0 {fill:#FDFDFD;fill-rule:nonzero}
    .fil5 {fill:white;fill-rule:nonzero}
   ]]>
  </style>
 </defs>
 <g id="Layer_x0020_1">
  <metadata id="CorelCorpID_0Corel-Layer"/>
  <g id="_1015501472">
   <g>
    <g>
     <path class="fil0" d="M0.03 0.07c0.01,-0.04 0.05,-0.06 0.09,-0.07 0.04,-0 0.09,0.02 0.12,0.04 0.05,0.04 0.1,0.08 0.14,0.13 0.07,0.08 0.15,0.14 0.24,0.2 0.18,0.11 0.36,0.2 0.55,0.28 0.11,0.05 0.22,0.09 0.33,0.13 0.13,0.04 0.26,0.11 0.36,0.2 0.2,-0.08 0.41,-0.08 0.62,-0.05 0.14,-0.02 0.28,-0.03 0.42,-0.01 0.07,0.01 0.13,0.03 0.2,0.05 0.09,-0.08 0.2,-0.14 0.32,-0.18 0.1,-0.03 0.2,-0.07 0.3,-0.11 0.21,-0.09 0.42,-0.18 0.61,-0.3 0.09,-0.06 0.18,-0.12 0.25,-0.19 0.06,-0.06 0.12,-0.13 0.19,-0.17 0.04,-0.02 0.1,-0.03 0.14,-0 0.03,0.02 0.04,0.06 0.05,0.09 0.02,0.09 0.01,0.18 -0.02,0.27 -0.03,0.09 -0.07,0.18 -0.12,0.26 -0.02,0.02 -0.04,0.05 -0.06,0.07 -0.05,0.05 -0.07,0.13 -0.09,0.2 -0.02,0.07 -0.02,0.14 -0.05,0.21 -0.04,0.11 -0.1,0.2 -0.17,0.29 -0.11,0.13 -0.24,0.25 -0.38,0.34 -0.05,0.03 -0.1,0.05 -0.15,0.08 -0.09,0.04 -0.19,0.09 -0.27,0.14 -0.03,0.02 -0.06,0.04 -0.09,0.08 -0.01,0.01 -0.01,0.03 -0.02,0.05 -0.02,0.06 -0.06,0.11 -0.1,0.15 -0.03,0.14 -0.12,0.26 -0.25,0.32 -0.02,0.01 -0.03,0.01 -0.05,0 -0.01,-0.01 -0.02,-0.02 -0.03,-0.02 -0.02,0 -0.03,0.02 -0.04,0.03 -0.02,0.03 -0.05,0.06 -0.06,0.1 -0.03,0.09 -0.11,0.16 -0.19,0.2 -0.11,0.05 -0.24,0.07 -0.36,0.07 -0.13,0 -0.25,-0.02 -0.37,-0.07 -0.08,-0.04 -0.15,-0.1 -0.18,-0.19 -0.01,-0.04 -0.04,-0.08 -0.07,-0.11 -0.01,-0.01 -0.02,-0.02 -0.04,-0.01 -0.02,0.02 -0.04,0.03 -0.06,0.02 -0.12,-0.06 -0.21,-0.17 -0.25,-0.31 -0,-0.01 -0,-0.02 -0.01,-0.02 -0.05,-0.05 -0.09,-0.1 -0.1,-0.17 -0,-0.03 -0.03,-0.04 -0.05,-0.06 -0.08,-0.06 -0.16,-0.11 -0.25,-0.15 -0.08,-0.04 -0.16,-0.07 -0.24,-0.12 -0.08,-0.05 -0.16,-0.11 -0.23,-0.18 -0.1,-0.09 -0.19,-0.2 -0.26,-0.32 -0.04,-0.07 -0.06,-0.14 -0.08,-0.21 -0.01,-0.07 -0.02,-0.13 -0.04,-0.2 -0.01,-0.04 -0.03,-0.09 -0.06,-0.12 -0.02,-0.02 -0.04,-0.04 -0.06,-0.07 -0.06,-0.09 -0.1,-0.18 -0.13,-0.29 -0.02,-0.1 -0.03,-0.2 0.01,-0.3zm0.05 0.02l0 0c-0.03,0.07 -0.03,0.14 -0.02,0.21 0.02,0.1 0.05,0.19 0.1,0.27 0.02,0.04 0.04,0.07 0.07,0.1 0.03,0.03 0.05,0.06 0.07,0.09 0.03,0.08 0.05,0.16 0.06,0.24 0.02,0.13 0.08,0.24 0.16,0.34 0.08,0.11 0.18,0.2 0.28,0.28 0.07,0.05 0.14,0.1 0.21,0.13 0.07,0.03 0.13,0.06 0.2,0.1 0.07,0.04 0.13,0.07 0.19,0.12 0.02,0.02 0.05,0.05 0.06,0.08 0.01,0.07 0.05,0.12 0.11,0.16 0.02,0.13 0.11,0.25 0.23,0.31 0.02,-0.02 0.06,-0.04 0.09,-0.02 0.05,0.03 0.08,0.08 0.1,0.13 0.02,0.08 0.08,0.15 0.16,0.18 0.11,0.06 0.23,0.07 0.35,0.07 0.11,0 0.23,-0.01 0.34,-0.06 0.07,-0.03 0.14,-0.09 0.17,-0.17 0.01,-0.03 0.03,-0.06 0.05,-0.09 0.02,-0.03 0.04,-0.05 0.08,-0.06 0.03,-0.01 0.05,0.01 0.07,0.03 0.12,-0.06 0.21,-0.18 0.23,-0.31 0.05,-0.04 0.1,-0.1 0.11,-0.17 0.01,-0.04 0.04,-0.06 0.06,-0.08 0.08,-0.06 0.17,-0.11 0.26,-0.15 0.08,-0.04 0.16,-0.07 0.23,-0.11 0.08,-0.05 0.15,-0.11 0.22,-0.17 0.09,-0.08 0.16,-0.17 0.22,-0.27 0.05,-0.08 0.09,-0.17 0.1,-0.26 0.02,-0.09 0.03,-0.18 0.07,-0.26 0.02,-0.05 0.07,-0.08 0.1,-0.13 0.05,-0.08 0.09,-0.17 0.12,-0.27 0.02,-0.08 0.03,-0.18 -0,-0.26 -0.01,-0.02 -0.03,-0.04 -0.05,-0.04 -0.03,0 -0.06,0.02 -0.09,0.03 -0.05,0.04 -0.09,0.08 -0.13,0.13 -0.06,0.06 -0.12,0.12 -0.19,0.17 -0.1,0.07 -0.21,0.13 -0.32,0.19 -0.2,0.1 -0.41,0.19 -0.63,0.26 -0.13,0.04 -0.26,0.11 -0.37,0.21 -0.06,-0.03 -0.12,-0.04 -0.18,-0.06 -0.14,-0.03 -0.28,-0.03 -0.43,-0 -0.01,0 -0.03,0.01 -0.04,0 -0.11,-0.02 -0.21,-0.03 -0.32,-0.02 -0.1,0.01 -0.21,0.03 -0.3,0.08 -0.07,-0.07 -0.15,-0.12 -0.24,-0.16 -0.06,-0.03 -0.11,-0.04 -0.17,-0.06 -0.27,-0.1 -0.54,-0.21 -0.79,-0.36 -0.09,-0.05 -0.17,-0.11 -0.25,-0.18 -0.05,-0.04 -0.08,-0.09 -0.13,-0.14 -0.04,-0.03 -0.08,-0.07 -0.13,-0.08 -0.03,-0.01 -0.06,0 -0.07,0.03z"/>
    </g>
    <path class="fil0" d="M1.94 2.24c0.02,-0.01 0.03,-0.01 0.05,-0.01 -0.01,0.04 -0,0.09 0.02,0.13 0,0.01 0.01,0.02 0.02,0.03 0.01,0.01 0.01,0.02 0.01,0.02 -0.07,-0.03 -0.1,-0.1 -0.1,-0.17z"/>
    <path class="fil0" d="M2.99 2.23c0.02,-0 0.04,0 0.06,0.01 0.01,0.07 -0.03,0.15 -0.1,0.17 0,-0 0.01,-0.01 0.01,-0.02 0.02,-0.02 0.02,-0.04 0.03,-0.06 0,-0.03 0,-0.07 -0,-0.1z"/>
    <path class="fil0" d="M2.09 2.62c-0.02,-0.05 -0.01,-0.11 0.02,-0.15 -0.01,0.06 -0,0.13 0.04,0.17 -0.02,0 -0.05,-0 -0.06,-0.02z"/>
    <path class="fil0" d="M2.88 2.47c0.04,0.04 0.04,0.1 0.02,0.15 -0.02,0.01 -0.04,0.02 -0.06,0.02 0.04,-0.05 0.04,-0.11 0.04,-0.17z"/>
   </g>
   <g>
    <g>
     <path class="fil1" d="M0.07 0.08c0.01,-0.03 0.05,-0.04 0.07,-0.03 0.05,0.01 0.09,0.05 0.13,0.08 0.05,0.04 0.08,0.09 0.13,0.14 0.08,0.07 0.16,0.13 0.25,0.18 0.25,0.15 0.52,0.26 0.79,0.36 0.06,0.02 0.12,0.04 0.17,0.06 0.09,0.04 0.17,0.09 0.24,0.16 0.09,-0.05 0.2,-0.07 0.3,-0.08 0.11,-0.01 0.22,-0 0.32,0.02 0.01,0 0.03,-0 0.04,-0 0.14,-0.02 0.29,-0.02 0.43,0 0.06,0.01 0.12,0.03 0.18,0.06 0.1,-0.1 0.23,-0.17 0.37,-0.21 0.21,-0.07 0.42,-0.16 0.63,-0.26 0.11,-0.06 0.22,-0.12 0.32,-0.19 0.07,-0.05 0.14,-0.1 0.19,-0.17 0.04,-0.05 0.08,-0.09 0.13,-0.13 0.03,-0.02 0.05,-0.03 0.09,-0.03 0.02,-0 0.04,0.01 0.05,0.04 0.03,0.08 0.03,0.17 0,0.26 -0.02,0.1 -0.06,0.19 -0.12,0.27 -0.03,0.05 -0.07,0.08 -0.1,0.13 -0.04,0.08 -0.06,0.17 -0.07,0.26 -0.01,0.09 -0.05,0.18 -0.1,0.26 -0.06,0.1 -0.14,0.19 -0.22,0.27 -0.07,0.06 -0.14,0.12 -0.22,0.17 -0.07,0.05 -0.15,0.08 -0.23,0.11 -0.09,0.04 -0.18,0.09 -0.26,0.15 -0.03,0.02 -0.06,0.05 -0.06,0.08 -0.01,0.07 -0.05,0.12 -0.11,0.17 -0.02,0.13 -0.11,0.25 -0.23,0.31 -0.02,-0.02 -0.04,-0.03 -0.07,-0.03 -0.03,0.01 -0.06,0.04 -0.08,0.06 -0.02,0.03 -0.04,0.06 -0.05,0.09 -0.03,0.08 -0.09,0.14 -0.17,0.17 -0.1,0.05 -0.22,0.06 -0.34,0.06 -0.12,0 -0.25,-0.01 -0.35,-0.07 -0.07,-0.04 -0.13,-0.1 -0.16,-0.18 -0.02,-0.05 -0.05,-0.1 -0.1,-0.13 -0.03,-0.02 -0.06,-0 -0.09,0.02 -0.12,-0.06 -0.21,-0.18 -0.23,-0.31 -0.05,-0.04 -0.1,-0.1 -0.11,-0.16 -0.01,-0.03 -0.03,-0.06 -0.06,-0.08 -0.06,-0.05 -0.12,-0.09 -0.19,-0.12 -0.07,-0.03 -0.13,-0.07 -0.2,-0.1 -0.08,-0.03 -0.15,-0.08 -0.21,-0.13 -0.11,-0.08 -0.2,-0.18 -0.28,-0.28 -0.08,-0.1 -0.14,-0.22 -0.16,-0.34 -0.01,-0.08 -0.03,-0.16 -0.06,-0.24 -0.02,-0.04 -0.04,-0.07 -0.07,-0.09 -0.03,-0.03 -0.05,-0.07 -0.07,-0.1 -0.05,-0.08 -0.08,-0.18 -0.1,-0.27 -0.01,-0.07 -0.01,-0.14 0.02,-0.21zm0.02 0.11l0 0c-0,0.03 0,0.07 0.01,0.1 0,-0.03 0,-0.06 0.02,-0.08 0.02,-0.02 0.05,-0.02 0.07,-0.01 0.04,0.02 0.07,0.05 0.09,0.09 -0.02,-0.04 -0.04,-0.08 -0.07,-0.11 -0.02,-0.02 -0.06,-0.04 -0.09,-0.03 -0.02,0 -0.03,0.02 -0.04,0.04zm4.69 -0.02l0 0c-0.04,0.03 -0.06,0.07 -0.08,0.12 0.03,-0.03 0.06,-0.07 0.1,-0.09 0.02,-0.01 0.05,-0.01 0.07,0.01 0.02,0.02 0.02,0.05 0.02,0.08 0.01,-0.03 0.01,-0.06 0.01,-0.09 -0,-0.02 -0.01,-0.04 -0.03,-0.05 -0.03,-0.01 -0.06,0 -0.08,0.02zm-4.45 0.12l0 0c0.03,0.09 0.1,0.16 0.16,0.22 0.13,0.12 0.28,0.22 0.44,0.3 0.16,0.09 0.32,0.17 0.45,0.29 0.09,0.09 0.17,0.2 0.19,0.32 0.02,0.08 0.02,0.16 0.01,0.24 -0,0.01 -0,0.02 -0.01,0.03 0.04,-0.05 0.07,-0.1 0.1,-0.16 0.04,-0.08 0.08,-0.16 0.1,-0.24 0.01,-0.09 -0.01,-0.19 -0.07,-0.26 -0.06,-0.07 -0.15,-0.1 -0.23,-0.13 -0.14,-0.04 -0.27,-0.09 -0.4,-0.15 -0.18,-0.08 -0.36,-0.18 -0.53,-0.3 -0.07,-0.05 -0.14,-0.1 -0.2,-0.16 -0,-0 -0.01,-0.01 -0.01,-0.01zm4.29 0.03l0 0c-0.13,0.12 -0.28,0.22 -0.43,0.31 -0.18,0.1 -0.36,0.19 -0.55,0.25 -0.06,0.02 -0.13,0.03 -0.19,0.06 -0.07,0.03 -0.13,0.06 -0.17,0.12 -0.05,0.07 -0.07,0.15 -0.06,0.23 0.01,0.06 0.03,0.12 0.06,0.18 0.04,0.08 0.09,0.16 0.14,0.23 -0.02,-0.09 -0.02,-0.18 -0,-0.27 0.02,-0.1 0.08,-0.2 0.15,-0.27 0.13,-0.14 0.3,-0.24 0.47,-0.33 0.16,-0.09 0.32,-0.17 0.45,-0.3 0.07,-0.07 0.14,-0.15 0.18,-0.24 -0.01,0.01 -0.02,0.02 -0.04,0.03zm-4.49 0.03l0 0c-0.01,0.02 -0.01,0.04 -0,0.07 0.02,0.05 0.06,0.1 0.1,0.13 0.08,0.06 0.18,0.09 0.28,0.09 -0,-0.01 -0.01,-0.02 -0.02,-0.03 -0.04,-0.04 -0.09,-0.09 -0.12,-0.13 -0.04,-0.06 -0.08,-0.11 -0.15,-0.14 -0.03,-0.01 -0.06,-0.01 -0.09,0.01zm4.62 -0.01l0 0c-0.05,0.03 -0.09,0.07 -0.12,0.12 -0.05,0.06 -0.1,0.12 -0.16,0.17 0.1,-0 0.2,-0.03 0.29,-0.1 0.04,-0.03 0.08,-0.08 0.1,-0.13 0.01,-0.02 0.01,-0.05 -0.01,-0.07 -0.03,-0.02 -0.06,-0.02 -0.09,-0zm-4.44 0.33l0 0c0.07,0.07 0.16,0.12 0.25,0.15 0.12,0.05 0.25,0.07 0.37,0.08 -0.07,-0.06 -0.15,-0.11 -0.23,-0.15 -0.12,-0.05 -0.26,-0.08 -0.39,-0.09zm3.93 0.11l0 0c-0.07,0.03 -0.14,0.07 -0.19,0.13 0.13,-0.01 0.27,-0.04 0.39,-0.09 0.08,-0.03 0.17,-0.08 0.23,-0.15 -0.15,0.01 -0.29,0.04 -0.43,0.1zm-3.82 0.06l0 0c0.03,0.03 0.06,0.06 0.1,0.08 0.14,0.11 0.3,0.2 0.47,0.24 0.14,0.04 0.26,0.12 0.36,0.21 0.04,0.04 0.08,0.09 0.12,0.13 0,-0.12 -0.03,-0.24 -0.11,-0.32 -0.1,-0.11 -0.24,-0.17 -0.38,-0.2 -0.07,-0.02 -0.15,-0.02 -0.22,-0.04 -0.11,-0.02 -0.22,-0.06 -0.33,-0.11zm3.72 0.12l0 0c-0.12,0.02 -0.24,0.05 -0.34,0.1 -0.08,0.04 -0.16,0.1 -0.2,0.18 -0.05,0.08 -0.07,0.17 -0.07,0.26 0.02,-0.01 0.02,-0.03 0.04,-0.05 0.11,-0.14 0.26,-0.25 0.44,-0.3 0.16,-0.04 0.31,-0.12 0.44,-0.22 0.04,-0.03 0.09,-0.07 0.12,-0.1 -0.14,0.06 -0.28,0.1 -0.43,0.12zm-3.67 -0l0 0c-0,0 -0,0.01 -0,0.01 0.01,0.09 0.05,0.18 0.12,0.24 0.05,0.05 0.12,0.07 0.18,0.1 0.07,0.04 0.15,0.07 0.21,0.13 -0.04,-0.1 -0.11,-0.18 -0.2,-0.24 -0.03,-0.02 -0.07,-0.03 -0.11,-0.05 -0.08,-0.04 -0.15,-0.11 -0.2,-0.19zm4.05 0l0 0c-0.05,0.08 -0.12,0.14 -0.2,0.18 -0.03,0.02 -0.07,0.03 -0.1,0.05 -0.09,0.06 -0.16,0.14 -0.2,0.24 0.04,-0.04 0.09,-0.07 0.14,-0.09 0.05,-0.03 0.11,-0.05 0.16,-0.08 0.05,-0.02 0.09,-0.05 0.12,-0.1 0.05,-0.06 0.07,-0.13 0.08,-0.2 -0,-0 -0,-0 -0,-0zm-2.16 0.08l0 0c0.01,0.02 0.02,0.04 0.03,0.06 0.02,0.07 0.01,0.14 -0.02,0.2 -0.03,0.08 -0.09,0.16 -0.15,0.22 -0.02,0.02 -0.05,0.04 -0.08,0.06 -0.05,0.04 -0.1,0.1 -0.13,0.16 0.05,-0.04 0.11,-0.05 0.17,-0.05 0.07,-0 0.14,0.01 0.2,0.03 -0.01,-0.02 -0.01,-0.04 -0.01,-0.06 0,-0.04 0.01,-0.08 0.02,-0.12 0.04,-0.1 0.06,-0.21 0.05,-0.32 -0.01,-0.06 -0.04,-0.13 -0.09,-0.17zm-0.43 0.03l0 0c0.02,0.05 0.02,0.11 -0,0.16 -0.02,0.06 -0.07,0.11 -0.11,0.16 -0.06,0.08 -0.11,0.18 -0.12,0.28 0.01,-0.02 0.02,-0.05 0.04,-0.07 0.03,-0.03 0.08,-0.05 0.13,-0.06 -0.03,0.07 -0.02,0.16 0.04,0.21 0.01,-0.09 0.07,-0.17 0.15,-0.22 0.05,-0.03 0.1,-0.08 0.14,-0.13 0.04,-0.05 0.08,-0.11 0.09,-0.18 0.01,-0.04 0.01,-0.09 -0.02,-0.12 -0.03,-0.03 -0.07,-0.05 -0.11,-0.05 -0.08,-0.01 -0.15,0 -0.23,0.02zm0.59 0.13l0 0c-0.02,0.11 0.01,0.23 0.05,0.34 0.01,0.06 0.03,0.12 0.01,0.17 0.07,-0.02 0.13,-0.03 0.2,-0.02 0.06,0 0.12,0.01 0.17,0.05 -0.03,-0.07 -0.08,-0.13 -0.15,-0.17 -0.08,-0.05 -0.14,-0.12 -0.18,-0.2 -0.04,-0.07 -0.07,-0.15 -0.05,-0.23 0,-0.03 0.02,-0.06 0.03,-0.08 -0.05,0.03 -0.08,0.1 -0.09,0.16zm0.26 -0.14l0 0c-0.04,0.01 -0.09,0.04 -0.1,0.09 -0.01,0.06 0.01,0.13 0.04,0.18 0.05,0.08 0.11,0.16 0.2,0.21 0.07,0.05 0.12,0.11 0.14,0.2 -0,0.01 0,0.02 0,0.03 0.05,-0.05 0.07,-0.14 0.04,-0.21 0.05,0 0.1,0.02 0.13,0.06 0.02,0.02 0.03,0.04 0.04,0.06 -0.01,-0.11 -0.06,-0.2 -0.12,-0.28 -0.04,-0.05 -0.08,-0.1 -0.1,-0.16 -0.02,-0.05 -0.02,-0.11 -0,-0.16 -0,-0 -0.01,-0 -0.02,-0l-0 0c-0.08,-0.01 -0.16,-0.03 -0.24,-0.01zm-1.87 0.14l0 0c0.02,0.07 0.05,0.15 0.09,0.22 0.04,0.09 0.09,0.17 0.16,0.24 0.04,0.04 0.08,0.07 0.12,0.11 0.06,0.06 0.12,0.12 0.16,0.19 0.01,-0.01 0.01,-0.03 0.01,-0.05 0.02,-0.1 -0,-0.21 -0.05,-0.3 -0.05,-0.11 -0.14,-0.2 -0.23,-0.27 -0.08,-0.06 -0.17,-0.11 -0.26,-0.14zm2.81 0.21l0 0c-0.06,0.06 -0.12,0.13 -0.15,0.2 -0.05,0.1 -0.06,0.21 -0.04,0.32 0,0.01 0,0.02 0.01,0.02 0.04,-0.07 0.09,-0.12 0.15,-0.17 0.05,-0.04 0.1,-0.08 0.14,-0.13 0.06,-0.07 0.11,-0.15 0.15,-0.24 0.03,-0.07 0.06,-0.14 0.09,-0.21 -0.12,0.05 -0.24,0.12 -0.34,0.21zm-3.15 -0.11l0 0c0.03,0.05 0.07,0.09 0.11,0.13 0.13,0.14 0.3,0.26 0.48,0.33 -0.03,-0.07 -0.08,-0.12 -0.14,-0.18 -0.13,-0.12 -0.28,-0.22 -0.45,-0.29zm3.43 0.24l0 0c-0.07,0.06 -0.14,0.13 -0.18,0.22 0.15,-0.06 0.29,-0.15 0.41,-0.26 0.07,-0.06 0.13,-0.13 0.18,-0.2 -0.15,0.06 -0.28,0.14 -0.4,0.24zm-2.37 0.17l0 0c-0.02,0.02 -0.03,0.05 -0.04,0.08 -0.04,0.11 -0.04,0.22 -0.02,0.33 0,0 0,0 0,0.01 0.01,-0.03 0.03,-0.06 0.06,-0.08 0.04,-0.02 0.08,-0.02 0.12,-0.02 -0.05,-0.02 -0.08,-0.06 -0.1,-0.11 -0.03,-0.07 -0.03,-0.16 -0.02,-0.23 -0.01,0.01 -0.01,0.02 -0.02,0.03zm0.12 -0.03l0 0c-0.02,0.06 -0.04,0.12 -0.02,0.18 0.01,0.04 0.06,0.06 0.09,0.06 0.02,-0.02 0.05,-0.04 0.05,-0.07 0,-0.03 -0.02,-0.05 -0.05,-0.06 -0.03,-0.03 -0.07,-0.06 -0.08,-0.1zm1.41 0.09l0 0c-0.02,0.02 -0.06,0.04 -0.06,0.07 -0.01,0.04 0.02,0.06 0.05,0.08 0.04,-0 0.08,-0.02 0.09,-0.06 0.02,-0.06 0,-0.12 -0.02,-0.18 -0.01,0.04 -0.04,0.06 -0.06,0.09zm0.17 -0.09l0 0c0.01,0.08 0.01,0.16 -0.02,0.23 -0.02,0.05 -0.05,0.09 -0.1,0.11 0.05,0 0.09,0 0.13,0.03 0.03,0.02 0.04,0.05 0.05,0.08 0.02,-0.1 0.02,-0.22 -0.01,-0.32 -0.01,-0.02 -0.01,-0.04 -0.03,-0.06 -0.01,-0.02 -0.02,-0.04 -0.03,-0.06zm-1.36 0.14l0 0c-0.05,0.04 -0.06,0.11 -0.06,0.17 -0,0.05 0.02,0.11 0.07,0.13 -0.01,-0.03 -0.01,-0.08 0.03,-0.09 0.02,0.09 0.08,0.16 0.15,0.2 0.07,0.04 0.16,0.06 0.24,0.06 -0.04,-0.01 -0.09,-0.02 -0.13,-0.04 -0.06,-0.03 -0.13,-0.07 -0.17,-0.12 -0.03,-0.05 -0.05,-0.11 -0.04,-0.17 0.01,-0.05 0.04,-0.09 0.09,-0.11 0.06,-0.03 0.12,-0.02 0.18,-0.01 0.05,0.01 0.11,0.02 0.15,0.05l0 -0c0.05,-0.02 0.09,-0.03 0.14,-0.04 0.04,-0.01 0.08,-0.02 0.11,-0.01 0.06,0 0.12,0.03 0.15,0.08 0.03,0.04 0.03,0.09 0.02,0.14 -0.01,0.06 -0.05,0.11 -0.1,0.14 -0.07,0.05 -0.15,0.08 -0.24,0.11 0.08,-0 0.17,-0.02 0.24,-0.06 0.07,-0.04 0.13,-0.11 0.15,-0.2 0.03,0.02 0.04,0.06 0.03,0.09 0.02,-0.01 0.04,-0.03 0.05,-0.06 0.02,-0.05 0.02,-0.1 0,-0.15 -0.01,-0.05 -0.05,-0.09 -0.09,-0.12 -0.07,-0.04 -0.14,-0.04 -0.22,-0.04 -0.09,0.01 -0.17,0.02 -0.26,0.04 -0.11,-0.03 -0.22,-0.05 -0.34,-0.04 -0.06,0 -0.13,0.02 -0.18,0.07zm0.18 0.1l0 0c-0.04,0.04 -0.04,0.09 -0.03,0.14 0.01,0.06 0.05,0.1 0.1,0.13 0.07,0.04 0.15,0.05 0.23,0.04 0.02,-0 0.04,-0.01 0.06,-0 0.1,0.01 0.2,0 0.28,-0.06 0.06,-0.05 0.09,-0.13 0.06,-0.2 -0.01,-0.03 -0.03,-0.06 -0.06,-0.07 -0.04,-0.02 -0.08,-0.02 -0.12,-0.02 -0.03,0 -0.05,0.02 -0.08,0.03 -0.04,0.01 -0.08,0.02 -0.12,0.02 -0.05,-0.01 -0.1,-0.02 -0.15,-0.04 -0.06,-0.02 -0.13,-0.01 -0.18,0.03zm-0.52 0.23l0 0c-0.01,0.05 -0,0.11 0.02,0.16 0.02,0.05 0.06,0.1 0.11,0.13 0,-0.02 -0,-0.04 0,-0.07 0.01,-0.05 0.03,-0.1 0.07,-0.13 0.04,-0.04 0.1,-0.05 0.16,-0.05 -0.01,-0.01 -0.02,-0.02 -0.03,-0.03 -0.07,-0.05 -0.15,-0.09 -0.24,-0.08 -0.04,0 -0.08,0.03 -0.09,0.07zm1.39 0.02l0 0c-0.01,0.01 -0.02,0.02 -0.02,0.02 0.06,-0 0.13,0.02 0.18,0.07 0.04,0.05 0.05,0.12 0.05,0.18 0.05,-0.03 0.09,-0.07 0.12,-0.13l-0 -0c0.01,-0.03 0.02,-0.07 0.02,-0.1 0,-0.03 -0.01,-0.07 -0.03,-0.1 -0.03,-0.03 -0.08,-0.03 -0.12,-0.02 -0.07,0.01 -0.13,0.04 -0.18,0.09zm-1.09 0.07l0 0c-0.01,0.07 0.03,0.15 0.1,0.17 -0,-0.01 -0.01,-0.02 -0.01,-0.02 -0.01,-0.04 -0,-0.09 0.03,-0.12 -0.01,-0.02 -0.04,-0.03 -0.06,-0.04 -0.02,0 -0.03,0.01 -0.05,0.01zm1 0.02l0 0c0.02,0.02 0.03,0.05 0.03,0.08 0,0.02 -0,0.04 -0,0.06 -0,0 -0.01,0.01 -0.01,0.02 0.07,-0.03 0.1,-0.1 0.1,-0.17 -0.02,-0.01 -0.04,-0.01 -0.06,-0.01 -0.02,0 -0.04,0.02 -0.05,0.03zm-0.82 0.04l0 0c-0,0.08 0.01,0.16 0.07,0.22 0.07,0.07 0.17,0.09 0.27,0.09 0.05,-0 0.1,0 0.16,-0 0.07,-0.01 0.15,-0.04 0.19,-0.09 0.05,-0.06 0.06,-0.14 0.06,-0.21 -0.09,0.04 -0.19,0.05 -0.29,0.05 -0.04,0 -0.07,-0 -0.11,-0 -0.12,0.01 -0.24,-0.01 -0.35,-0.05zm-0.08 0.31l0 0c0,-0.05 -0.02,-0.11 -0.06,-0.15 -0.02,-0.02 -0.05,-0.04 -0.07,-0.07 -0.02,-0.02 -0.02,-0.05 -0.02,-0.08 -0.02,0.12 0.05,0.24 0.15,0.29zm1.07 -0.29l0 0c-0,0.03 -0.01,0.06 -0.03,0.08 -0.02,0.03 -0.05,0.04 -0.07,0.06 -0.04,0.04 -0.06,0.09 -0.06,0.15 0.1,-0.05 0.17,-0.18 0.15,-0.29zm-0.99 0.15l0 0c-0.04,0.04 -0.04,0.1 -0.02,0.15 0.02,0.01 0.04,0.02 0.06,0.02 0.02,-0 0.04,-0.02 0.05,-0.04 -0.02,-0.01 -0.04,-0.01 -0.05,-0.03 -0.03,-0.03 -0.03,-0.08 -0.03,-0.12 -0,0 -0.01,0.01 -0.01,0.01zm0.76 -0.01l0 0c-0,0.03 -0,0.06 -0.02,0.09 -0.01,0.03 -0.04,0.05 -0.06,0.05 0.01,0.02 0.03,0.03 0.05,0.04 0.02,0 0.04,-0 0.06,-0.02 0.02,-0.05 0.01,-0.11 -0.02,-0.15 -0,-0.01 -0.01,-0.01 -0.01,-0.01zm-0.79 0.26l0 0c-0,0 -0,0.01 0,0.01 0.04,0.04 0.08,0.06 0.13,0.08 0.09,0.04 0.19,0.04 0.29,0.03 0.07,0 0.14,0 0.21,-0.01 0.07,-0.02 0.15,-0.05 0.2,-0.11 -0.03,-0.03 -0.06,-0.06 -0.11,-0.07 -0.05,-0.01 -0.11,0 -0.16,0.01 -0.05,0.01 -0.1,0.01 -0.15,0.01 -0.04,0 -0.08,0.01 -0.12,0 -0.05,-0.01 -0.1,-0.02 -0.16,-0.02 -0.06,-0 -0.11,0.02 -0.15,0.06z"/>
    </g>
    <path class="fil1" d="M2.23 1.97c0.03,-0.02 0.07,-0.03 0.1,-0.02 0.03,0.01 0.05,0.03 0.05,0.06 -0.01,0.04 0.01,0.08 0.03,0.12 -0.06,0.01 -0.12,0 -0.16,-0.03 -0.02,-0.02 -0.05,-0.04 -0.05,-0.07 -0,-0.02 0.01,-0.04 0.03,-0.05z"/>
    <path class="fil1" d="M2.63 1.96c0.04,-0.03 0.08,-0.02 0.12,0 0.02,0.01 0.04,0.04 0.03,0.06 -0.01,0.03 -0.03,0.06 -0.06,0.07 -0.05,0.03 -0.1,0.03 -0.15,0.03 0.01,-0.04 0.03,-0.07 0.03,-0.11 -0,-0.02 0.01,-0.04 0.03,-0.05z"/>
   </g>
   <g>
    <path class="fil2" d="M0.09 0.19c0,-0.02 0.02,-0.04 0.04,-0.04 0.03,-0.01 0.07,0.01 0.09,0.03 0.03,0.03 0.05,0.07 0.07,0.11 -0.03,-0.03 -0.05,-0.07 -0.09,-0.09 -0.02,-0.01 -0.05,-0.01 -0.07,0.01 -0.02,0.02 -0.02,0.05 -0.02,0.08 -0.01,-0.03 -0.02,-0.07 -0.01,-0.1z"/>
    <path class="fil2" d="M4.78 0.17c0.02,-0.02 0.05,-0.03 0.08,-0.02 0.02,0.01 0.03,0.03 0.03,0.05 0,0.03 -0,0.06 -0.01,0.09 -0,-0.03 -0,-0.06 -0.02,-0.08 -0.02,-0.02 -0.04,-0.02 -0.07,-0.01 -0.04,0.02 -0.07,0.05 -0.1,0.09 0.02,-0.04 0.04,-0.09 0.08,-0.12z"/>
    <path class="fil2" d="M4.62 0.32c0.01,-0.01 0.02,-0.02 0.04,-0.03 -0.04,0.09 -0.11,0.17 -0.18,0.24 -0.13,0.12 -0.29,0.21 -0.45,0.3 -0.17,0.09 -0.34,0.19 -0.47,0.33 -0.07,0.08 -0.13,0.17 -0.15,0.27 -0.02,0.09 -0.02,0.18 0,0.27 -0.05,-0.07 -0.1,-0.15 -0.14,-0.23 -0.03,-0.06 -0.05,-0.12 -0.06,-0.18 -0.01,-0.08 0.01,-0.17 0.06,-0.23 0.04,-0.06 0.11,-0.09 0.17,-0.12 0.06,-0.02 0.13,-0.04 0.19,-0.06 0.19,-0.06 0.38,-0.15 0.55,-0.25 0.15,-0.09 0.3,-0.19 0.43,-0.31z"/>
    <path class="fil2" d="M0.57 0.5c-0.01,-0.01 -0.03,-0.02 -0.03,-0.03 0.16,0.12 0.34,0.22 0.53,0.3 0.13,0.06 0.26,0.11 0.4,0.15 0.08,0.02 0.17,0.06 0.23,0.13 0.06,0.07 0.08,0.17 0.07,0.26 -0.02,0.09 -0.06,0.17 -0.1,0.24 -0.03,0.05 -0.06,0.11 -0.1,0.16 0,-0.01 0,-0.02 0.01,-0.03 0.05,-0.07 0.09,-0.15 0.11,-0.23 0.03,-0.11 0.01,-0.24 -0.06,-0.33 -0.07,-0.09 -0.17,-0.13 -0.27,-0.17 -0.16,-0.06 -0.31,-0.14 -0.46,-0.22 -0.12,-0.06 -0.23,-0.14 -0.33,-0.22z"/>
    <path class="fil2" d="M2.15 1.09c0.03,0.01 0.07,0.03 0.08,0.07 0.01,0.05 -0.01,0.09 -0.04,0.13 -0.07,0.1 -0.16,0.18 -0.24,0.27 -0.01,0.01 -0.02,0.03 -0.04,0.05 0,-0.06 0.04,-0.11 0.08,-0.15 0.04,-0.05 0.09,-0.08 0.12,-0.13 0.03,-0.05 0.06,-0.1 0.06,-0.16 0,-0.03 -0.01,-0.06 -0.02,-0.08z"/>
    <path class="fil2" d="M1.64 1.71c0,-0.01 0.01,-0.02 0.02,-0.03 -0.01,0.08 -0.01,0.16 0.02,0.23 0.02,0.05 0.05,0.09 0.1,0.11 -0.04,-0 -0.08,0 -0.12,0.02 -0.04,-0.06 -0.04,-0.14 -0.03,-0.22 0,-0.04 0.02,-0.08 0.02,-0.12z"/>
    <g>
     <path class="fil2" d="M2.6 1.91c0.03,-0.01 0.05,-0.02 0.08,-0.03 0.04,-0.01 0.08,-0 0.12,0.02 0.03,0.01 0.05,0.04 0.06,0.07 0.02,0.07 -0,0.16 -0.06,0.2 -0.08,0.06 -0.18,0.07 -0.28,0.06 -0.01,-0 -0.01,-0.01 -0.02,-0.01 -0,-0.1 0,-0.19 -0,-0.29 -0,-0 -0.01,-0 -0.01,-0 0.04,-0 0.08,-0.01 0.12,-0.02zm0.04 0.05l0 0c-0.02,0.01 -0.03,0.03 -0.03,0.05 0,0.04 -0.02,0.07 -0.03,0.11 0.05,0.01 0.11,0 0.15,-0.03 0.03,-0.02 0.05,-0.04 0.06,-0.07 0,-0.02 -0.01,-0.05 -0.03,-0.06 -0.04,-0.02 -0.09,-0.03 -0.12,-0z"/>
    </g>
    <path class="fil2" d="M1.64 2.15c0.01,-0.04 0.05,-0.07 0.09,-0.07 0.09,-0.01 0.17,0.03 0.24,0.08 -0.01,0.01 -0.03,-0 -0.04,-0 -0.07,-0.02 -0.14,-0.02 -0.2,0.02 -0.04,0.03 -0.06,0.08 -0.07,0.13 -0.02,-0.05 -0.03,-0.1 -0.02,-0.16z"/>
    <path class="fil2" d="M3.03 2.17c0.05,-0.05 0.12,-0.08 0.18,-0.09 0.04,-0.01 0.09,-0.01 0.12,0.02 0.03,0.02 0.04,0.06 0.03,0.1 -0,0.04 -0.01,0.07 -0.02,0.1 -0.01,-0.04 -0.02,-0.09 -0.06,-0.13 -0.04,-0.03 -0.1,-0.04 -0.15,-0.04 -0.04,0 -0.07,0.01 -0.11,0.02z"/>
   </g>
   <g>
    <path class="fil3" d="M0.33 0.29c0,0 0.01,0.01 0.01,0.01 0.06,0.06 0.13,0.11 0.2,0.16 0,0.01 0.02,0.02 0.03,0.03 0.1,0.09 0.21,0.16 0.33,0.22 0.15,0.08 0.3,0.16 0.46,0.22 0.1,0.04 0.2,0.09 0.27,0.17 0.07,0.09 0.09,0.22 0.06,0.33 -0.02,0.08 -0.06,0.16 -0.11,0.23 0.01,-0.08 0.01,-0.16 -0.01,-0.24 -0.03,-0.13 -0.1,-0.24 -0.19,-0.32 -0.13,-0.12 -0.29,-0.21 -0.45,-0.29 -0.16,-0.08 -0.31,-0.18 -0.44,-0.3 -0.07,-0.06 -0.13,-0.14 -0.16,-0.22z"/>
    <path class="fil3" d="M2.36 1.03c0.05,0.04 0.08,0.1 0.09,0.17 0.01,0.11 -0.01,0.22 -0.05,0.32 -0.01,0.04 -0.02,0.08 -0.02,0.12 -0,0.02 0,0.04 0.01,0.06 -0.07,-0.02 -0.14,-0.03 -0.2,-0.03 -0.06,0 -0.13,0.01 -0.17,0.05 0.03,-0.06 0.07,-0.12 0.13,-0.16 0.02,-0.02 0.05,-0.03 0.08,-0.06 0.07,-0.06 0.12,-0.13 0.15,-0.22 0.03,-0.06 0.04,-0.14 0.02,-0.2 -0.01,-0.02 -0.02,-0.04 -0.03,-0.06z"/>
    <g>
     <path class="fil3" d="M1.94 1.06c0.08,-0.01 0.15,-0.03 0.23,-0.02 0.04,0.01 0.09,0.02 0.11,0.05 0.03,0.03 0.02,0.08 0.02,0.12 -0.02,0.07 -0.05,0.13 -0.09,0.18 -0.04,0.05 -0.08,0.1 -0.14,0.13 -0.08,0.05 -0.14,0.13 -0.15,0.22 -0.05,-0.06 -0.07,-0.14 -0.04,-0.21 -0.05,0 -0.09,0.02 -0.13,0.06 -0.02,0.02 -0.03,0.04 -0.04,0.07 0.01,-0.1 0.06,-0.2 0.12,-0.28 0.04,-0.05 0.09,-0.1 0.11,-0.16 0.02,-0.05 0.02,-0.11 0,-0.16zm0.21 0.03l0 0c0.02,0.02 0.03,0.05 0.02,0.08 -0,0.06 -0.03,0.11 -0.06,0.16 -0.04,0.05 -0.08,0.08 -0.12,0.13 -0.04,0.04 -0.07,0.09 -0.08,0.15 0.01,-0.02 0.02,-0.03 0.04,-0.05 0.08,-0.09 0.18,-0.17 0.24,-0.27 0.03,-0.04 0.05,-0.08 0.04,-0.13 -0.01,-0.03 -0.04,-0.06 -0.08,-0.07z"/>
    </g>
    <path class="fil3" d="M2.79 1.05c0.08,-0.02 0.16,-0.01 0.24,0.01 -0.02,0.01 -0.04,0.01 -0.06,0.01 -0.06,0.01 -0.12,0.04 -0.15,0.1 -0.03,0.05 -0.01,0.11 0.02,0.16 0.04,0.08 0.12,0.14 0.17,0.21 0.04,0.05 0.07,0.11 0.07,0.18 -0,0 -0,0.01 -0.01,0.01 -0.02,-0.08 -0.07,-0.15 -0.14,-0.2 -0.08,-0.05 -0.15,-0.13 -0.2,-0.21 -0.03,-0.05 -0.06,-0.12 -0.04,-0.18 0.01,-0.05 0.05,-0.08 0.1,-0.09z"/>
    <path class="fil3" d="M3.33 1.68c0.01,0.02 0.02,0.04 0.03,0.06 0.02,0.1 0.02,0.21 -0.02,0.31 -0.04,-0.02 -0.09,-0.03 -0.13,-0.03 0.05,-0.02 0.08,-0.06 0.1,-0.11 0.03,-0.07 0.03,-0.16 0.02,-0.23z"/>
    <path class="fil3" d="M1.6 1.78c0.01,-0.03 0.02,-0.05 0.04,-0.08 -0,0.04 -0.02,0.08 -0.02,0.12 -0.01,0.07 -0.01,0.15 0.03,0.22 -0.03,0.02 -0.05,0.04 -0.06,0.08 -0,-0 -0,-0 -0,-0.01 -0.02,-0.11 -0.02,-0.22 0.02,-0.33z"/>
    <path class="fil3" d="M1.98 1.82c0.05,-0.05 0.12,-0.06 0.18,-0.07 0.11,-0.01 0.23,0.02 0.34,0.04 -0,0.03 0,0.06 -0,0.09l-0 0c-0.05,-0.02 -0.1,-0.04 -0.15,-0.05 -0.06,-0.01 -0.12,-0.02 -0.18,0.01 -0.05,0.02 -0.08,0.06 -0.09,0.11 -0.01,0.06 0,0.12 0.04,0.17 0.04,0.06 0.1,0.1 0.17,0.12 0.04,0.02 0.09,0.03 0.13,0.04 -0.08,-0 -0.17,-0.02 -0.24,-0.06 -0.08,-0.04 -0.13,-0.12 -0.15,-0.2 -0.03,0.02 -0.04,0.06 -0.03,0.09 -0.05,-0.02 -0.07,-0.08 -0.07,-0.13 0,-0.06 0.02,-0.13 0.06,-0.17z"/>
    <path class="fil3" d="M1.72 2.18c0.06,-0.04 0.14,-0.04 0.2,-0.02 0.01,0 0.03,0.01 0.04,0 0.01,0.01 0.02,0.02 0.03,0.03 -0.06,-0 -0.12,0.01 -0.16,0.05 -0.04,0.03 -0.06,0.08 -0.07,0.13 -0,0.02 -0,0.04 -0,0.07 -0.05,-0.03 -0.09,-0.07 -0.11,-0.13 0.01,-0.05 0.02,-0.1 0.07,-0.13z"/>
    <path class="fil3" d="M3.03 2.17c0.04,-0.01 0.07,-0.02 0.11,-0.02 0.05,-0 0.11,0 0.15,0.04 0.04,0.03 0.05,0.08 0.06,0.13l0 0c-0.02,0.05 -0.06,0.1 -0.12,0.13 0,-0.06 -0.01,-0.13 -0.05,-0.18 -0.04,-0.05 -0.11,-0.07 -0.18,-0.07 0.01,-0.01 0.01,-0.02 0.02,-0.02z"/>
   </g>
   <g>
    <path class="fil4" d="M0.14 0.35c0.02,-0.02 0.06,-0.02 0.09,-0.01 0.06,0.03 0.11,0.09 0.15,0.14 0.04,0.05 0.08,0.09 0.12,0.13 0.01,0.01 0.02,0.01 0.02,0.03 -0.1,-0 -0.2,-0.03 -0.28,-0.09 -0.04,-0.03 -0.08,-0.08 -0.1,-0.13 -0.01,-0.02 -0.01,-0.05 0,-0.07z"/>
    <path class="fil4" d="M4.76 0.34c0.03,-0.02 0.07,-0.02 0.09,0 0.02,0.02 0.02,0.05 0.01,0.07 -0.02,0.05 -0.05,0.1 -0.1,0.13 -0.08,0.06 -0.18,0.09 -0.29,0.1 0.06,-0.05 0.11,-0.11 0.16,-0.17 0.03,-0.05 0.07,-0.09 0.12,-0.12z"/>
    <path class="fil4" d="M0.32 0.67c0.13,0.01 0.27,0.04 0.39,0.09 0.08,0.04 0.17,0.08 0.23,0.15 -0.13,-0.01 -0.25,-0.03 -0.37,-0.08 -0.09,-0.04 -0.18,-0.08 -0.25,-0.15z"/>
    <path class="fil4" d="M4.25 0.78c0.13,-0.06 0.28,-0.1 0.43,-0.1 -0.06,0.07 -0.15,0.11 -0.23,0.15 -0.13,0.05 -0.26,0.08 -0.39,0.09 0.06,-0.05 0.12,-0.09 0.19,-0.13z"/>
    <path class="fil4" d="M0.42 0.83c0.11,0.04 0.21,0.08 0.33,0.11 0.07,0.02 0.15,0.02 0.22,0.04 0.14,0.03 0.28,0.09 0.38,0.2 0.08,0.09 0.12,0.21 0.11,0.32 -0.04,-0.05 -0.07,-0.09 -0.12,-0.13 -0.1,-0.1 -0.22,-0.18 -0.36,-0.21 -0.17,-0.04 -0.33,-0.13 -0.47,-0.24 -0.03,-0.03 -0.07,-0.05 -0.1,-0.08z"/>
    <path class="fil4" d="M4.14 0.96c0.15,-0.02 0.29,-0.07 0.43,-0.12 -0.04,0.04 -0.08,0.07 -0.12,0.1 -0.13,0.1 -0.28,0.18 -0.44,0.22 -0.17,0.05 -0.32,0.16 -0.44,0.3 -0.01,0.01 -0.02,0.03 -0.04,0.05 -0,-0.09 0.02,-0.18 0.07,-0.26 0.05,-0.08 0.12,-0.14 0.2,-0.18 0.11,-0.06 0.22,-0.09 0.34,-0.1z"/>
    <path class="fil4" d="M0.47 0.96c0.05,0.08 0.12,0.14 0.2,0.19 0.04,0.02 0.07,0.03 0.11,0.05 0.09,0.06 0.16,0.14 0.2,0.24 -0.06,-0.06 -0.14,-0.09 -0.21,-0.13 -0.06,-0.03 -0.13,-0.05 -0.18,-0.1 -0.07,-0.06 -0.11,-0.15 -0.12,-0.24 0,-0 0,-0.01 0,-0.01z"/>
    <path class="fil4" d="M4.52 0.96c0,0 0,0 0,0 -0.01,0.07 -0.03,0.15 -0.08,0.2 -0.03,0.04 -0.08,0.07 -0.12,0.1 -0.05,0.03 -0.11,0.05 -0.16,0.08 -0.05,0.03 -0.1,0.05 -0.14,0.09 0.04,-0.1 0.11,-0.19 0.2,-0.24 0.03,-0.02 0.07,-0.03 0.1,-0.05 0.08,-0.04 0.15,-0.11 0.2,-0.18z"/>
    <path class="fil4" d="M2.53 1.19c0.01,-0.06 0.04,-0.12 0.09,-0.16 -0.01,0.03 -0.03,0.05 -0.03,0.08 -0.02,0.08 0.01,0.16 0.05,0.23 0.05,0.08 0.1,0.16 0.18,0.2 0.06,0.04 0.11,0.1 0.15,0.17 -0.05,-0.04 -0.11,-0.05 -0.17,-0.05 -0.07,-0 -0.14,0.01 -0.2,0.02 0.02,-0.06 -0,-0.12 -0.01,-0.17 -0.04,-0.11 -0.07,-0.22 -0.05,-0.34z"/>
    <path class="fil4" d="M3.03 1.06l0 -0c0,0 0.01,0 0.02,0 -0.02,0.05 -0.02,0.11 0,0.16 0.02,0.06 0.07,0.1 0.1,0.16 0.06,0.08 0.11,0.18 0.12,0.28 -0.01,-0.02 -0.02,-0.04 -0.04,-0.06 -0.03,-0.04 -0.08,-0.06 -0.13,-0.06 0.03,0.07 0.02,0.16 -0.04,0.21 -0,-0.01 -0.01,-0.02 -0,-0.03 0,-0 0,-0.01 0.01,-0.01 -0,-0.07 -0.03,-0.13 -0.07,-0.18 -0.05,-0.07 -0.12,-0.13 -0.17,-0.21 -0.03,-0.05 -0.04,-0.11 -0.02,-0.16 0.03,-0.06 0.09,-0.09 0.15,-0.1 0.02,-0.01 0.04,-0 0.06,-0.01z"/>
    <path class="fil4" d="M0.92 1.19c0.09,0.04 0.18,0.08 0.26,0.14 0.1,0.07 0.18,0.16 0.23,0.27 0.05,0.09 0.06,0.2 0.05,0.3 -0,0.02 -0,0.03 -0.01,0.05 -0.04,-0.07 -0.1,-0.13 -0.16,-0.19 -0.04,-0.04 -0.08,-0.07 -0.12,-0.11 -0.06,-0.07 -0.11,-0.16 -0.16,-0.24 -0.03,-0.07 -0.06,-0.14 -0.09,-0.22z"/>
    <path class="fil4" d="M3.73 1.4c0.1,-0.09 0.22,-0.16 0.34,-0.21 -0.02,0.07 -0.05,0.14 -0.09,0.21 -0.04,0.08 -0.09,0.17 -0.15,0.24 -0.04,0.05 -0.09,0.08 -0.14,0.13 -0.05,0.05 -0.11,0.11 -0.15,0.17 -0.01,-0.01 -0.01,-0.02 -0.01,-0.02 -0.02,-0.11 -0.01,-0.22 0.04,-0.32 0.04,-0.08 0.09,-0.15 0.15,-0.2z"/>
    <path class="fil4" d="M0.58 1.29c0.16,0.07 0.32,0.16 0.45,0.29 0.05,0.05 0.1,0.11 0.14,0.18 -0.18,-0.07 -0.35,-0.19 -0.48,-0.33 -0.04,-0.04 -0.07,-0.08 -0.11,-0.13z"/>
    <path class="fil4" d="M4.01 1.53c0.12,-0.1 0.26,-0.18 0.4,-0.24 -0.05,0.08 -0.11,0.14 -0.18,0.2 -0.12,0.11 -0.26,0.2 -0.41,0.26 0.05,-0.08 0.11,-0.15 0.18,-0.22z"/>
    <path class="fil4" d="M3.37 1.74c0.01,0.02 0.02,0.04 0.03,0.06 0.03,0.1 0.03,0.21 0.01,0.32 -0.01,-0.03 -0.03,-0.06 -0.05,-0.08 0.04,-0.1 0.04,-0.21 0.02,-0.31z"/>
    <path class="fil4" d="M2.49 1.8c0.08,-0.02 0.17,-0.04 0.26,-0.04 0.07,-0 0.15,0 0.22,0.04 0.05,0.03 0.08,0.07 0.09,0.12 0.01,0.05 0.02,0.1 -0,0.15 -0.01,0.03 -0.03,0.05 -0.05,0.06 0.01,-0.03 0.01,-0.07 -0.03,-0.09 -0.02,0.08 -0.08,0.16 -0.15,0.2 -0.07,0.04 -0.16,0.06 -0.24,0.06 0.08,-0.02 0.17,-0.05 0.24,-0.11 0.05,-0.04 0.09,-0.09 0.1,-0.14 0.01,-0.05 0.01,-0.1 -0.02,-0.14 -0.03,-0.05 -0.09,-0.07 -0.15,-0.08 -0.04,-0 -0.08,0 -0.11,0.01 -0.05,0.01 -0.09,0.02 -0.14,0.04 0,-0.03 0,-0.06 0,-0.09z"/>
    <path class="fil4" d="M2.04 2.61c-0.1,-0.05 -0.17,-0.18 -0.15,-0.29 0,0.03 0.01,0.06 0.02,0.08 0.02,0.03 0.05,0.04 0.07,0.07 0.04,0.04 0.06,0.09 0.06,0.15z"/>
    <path class="fil4" d="M3.1 2.31c0.02,0.12 -0.05,0.24 -0.15,0.29 -0,-0.05 0.02,-0.11 0.06,-0.15 0.02,-0.02 0.05,-0.04 0.07,-0.06 0.02,-0.03 0.02,-0.06 0.03,-0.08z"/>
    <path class="fil4" d="M2.08 2.72c0.03,-0.04 0.09,-0.07 0.15,-0.06 0.05,-0 0.1,0.01 0.16,0.02 0.04,0 0.08,0 0.12,-0 0.05,0.01 0.1,0.01 0.15,-0.01 0.05,-0.01 0.11,-0.02 0.16,-0.01 0.04,0.01 0.08,0.03 0.11,0.07 -0.05,0.06 -0.13,0.09 -0.2,0.11 -0.07,0.02 -0.14,0.02 -0.21,0.01 -0.1,0.01 -0.2,0 -0.29,-0.03 -0.05,-0.02 -0.09,-0.04 -0.13,-0.08 -0,-0 -0,-0.01 -0,-0.01z"/>
   </g>
   <g>
    <path class="fil5" d="M1.76 1.68c0.01,0.04 0.05,0.08 0.08,0.1 0.02,0.02 0.05,0.04 0.05,0.06 -0,0.03 -0.03,0.05 -0.05,0.07 -0.04,-0 -0.08,-0.02 -0.09,-0.06 -0.02,-0.06 -0,-0.12 0.02,-0.18z"/>
    <path class="fil5" d="M3.17 1.77c0.03,-0.02 0.06,-0.05 0.06,-0.09 0.02,0.06 0.04,0.12 0.02,0.18 -0.01,0.04 -0.06,0.06 -0.09,0.06 -0.03,-0.02 -0.06,-0.05 -0.05,-0.08 0.01,-0.03 0.04,-0.05 0.06,-0.07z"/>
   </g>
   <g>
    <g>
     <path class="fil6" d="M2.16 1.92c0.05,-0.04 0.12,-0.05 0.18,-0.03 0.05,0.02 0.1,0.03 0.15,0.04 0,0 0.01,0 0.01,0 0,0.1 0,0.19 0,0.29 0,0 0.01,0.01 0.02,0.01 -0.02,-0 -0.04,0 -0.06,0 -0.08,0 -0.16,-0 -0.23,-0.04 -0.05,-0.03 -0.09,-0.08 -0.1,-0.13 -0.01,-0.05 -0,-0.11 0.03,-0.14zm0.07 0.04l0 0c-0.02,0.01 -0.03,0.03 -0.03,0.05 0,0.03 0.02,0.06 0.05,0.07 0.05,0.03 0.11,0.04 0.16,0.03 -0.02,-0.04 -0.04,-0.07 -0.03,-0.12 -0,-0.03 -0.03,-0.05 -0.05,-0.06 -0.03,-0.01 -0.07,0 -0.1,0.02z"/>
    </g>
    <path class="fil6" d="M1.99 2.23c0.03,0 0.05,0.01 0.06,0.04 -0.03,0.03 -0.03,0.08 -0.03,0.12 -0.01,-0.01 -0.01,-0.02 -0.02,-0.03 -0.02,-0.04 -0.03,-0.09 -0.02,-0.13z"/>
    <path class="fil6" d="M2.94 2.26c0.01,-0.02 0.03,-0.03 0.05,-0.03 0,0.03 0.01,0.07 0,0.1 -0,0.02 -0.01,0.05 -0.03,0.06 0,-0.02 0.01,-0.04 0,-0.06 -0,-0.03 -0.01,-0.05 -0.03,-0.08z"/>
    <path class="fil6" d="M2.11 2.47c0,-0 0.01,-0.01 0.01,-0.01 0,0.04 0.01,0.08 0.03,0.12 0.01,0.02 0.03,0.02 0.05,0.03 -0.01,0.02 -0.03,0.03 -0.05,0.04 -0.04,-0.04 -0.05,-0.11 -0.04,-0.17z"/>
    <path class="fil6" d="M2.87 2.46c0,0 0.01,0.01 0.01,0.01 0,0.06 -0,0.12 -0.04,0.17 -0.02,-0 -0.04,-0.02 -0.05,-0.04 0.03,-0.01 0.05,-0.03 0.06,-0.05 0.01,-0.03 0.02,-0.06 0.02,-0.09z"/>
   </g>
   <g>
    <path class="fil7" d="M2.12 2.3c0.11,0.04 0.23,0.06 0.35,0.05 0.04,-0 0.07,0 0.11,0 0.1,0 0.2,-0.01 0.29,-0.05 0.01,0.07 -0.01,0.15 -0.06,0.21 -0.05,0.06 -0.12,0.08 -0.19,0.09 -0.05,0.01 -0.1,0 -0.16,0 -0.09,0 -0.2,-0.02 -0.27,-0.09 -0.06,-0.06 -0.07,-0.14 -0.07,-0.22z"/>
   </g>
  </g>
 </g>
</svg>
