<?xml version="1.0" encoding="UTF-8"?>
<!DOCTYPE svg PUBLIC "-//W3C//DTD SVG 1.1//EN" "http://www.w3.org/Graphics/SVG/1.1/DTD/svg11.dtd">
<!-- Creator: CorelDRAW 2018 (64-Bit) -->
<svg xmlns="http://www.w3.org/2000/svg" xml:space="preserve" width="0.61737in" height="0.446626in" version="1.1" style="shape-rendering:geometricPrecision; text-rendering:geometricPrecision; image-rendering:optimizeQuality; fill-rule:evenodd; clip-rule:evenodd"
viewBox="0 0 6.51 4.71"
 xmlns:xlink="http://www.w3.org/1999/xlink">
 <defs>
  <style type="text/css">
   <![CDATA[
    .fil1 {fill:black;fill-rule:nonzero}
    .fil4 {fill:#310D3E;fill-rule:nonzero}
    .fil2 {fill:#581C71;fill-rule:nonzero}
    .fil3 {fill:#BC62BE;fill-rule:nonzero}
    .fil0 {fill:#E6E6E6;fill-rule:nonzero}
   ]]>
  </style>
 </defs>
 <g id="Layer_x0020_1">
  <metadata id="CorelCorpID_0Corel-Layer"/>
  <g id="_1008337776">
   <path class="fil0" d="M6.34 0.03c0.06,-0.01 0.11,-0.01 0.17,-0.02 -0.05,0.09 -0.1,0.18 -0.11,0.28 -0.02,0.12 0.01,0.25 -0.01,0.37 -0.02,0.14 -0.06,0.28 -0.13,0.41 -0,0.23 -0.07,0.47 -0.23,0.64 -0.02,0.14 -0.09,0.27 -0.2,0.37 -0.03,0.03 -0.07,0.05 -0.09,0.08 -0.09,0.13 -0.25,0.22 -0.4,0.25 -0.06,0.04 -0.11,0.08 -0.17,0.11 -0.18,0.09 -0.39,0.13 -0.59,0.12 0.01,0.12 -0.02,0.24 -0.1,0.33 -0.02,0.09 -0.05,0.18 -0.11,0.24 -0.03,0.04 -0.08,0.06 -0.12,0.08 0.09,0.11 0.18,0.22 0.31,0.27 0.07,0.03 0.14,0.06 0.22,0.08 -0.1,0.05 -0.19,0.12 -0.29,0.16 -0.13,0.04 -0.27,0.05 -0.4,0.02 0.02,0.15 0.02,0.31 -0.01,0.45 -0.01,0.06 -0.03,0.12 -0.05,0.18 -0.13,-0.05 -0.24,-0.12 -0.36,-0.19 0,0.02 0,0.03 0,0.05 -0.11,0.15 -0.23,0.32 -0.39,0.43 -0.1,-0.05 -0.17,-0.14 -0.24,-0.23 -0.05,-0.06 -0.1,-0.12 -0.14,-0.18 -0.02,-0.02 -0.01,-0.04 -0.01,-0.07 -0.11,0.08 -0.23,0.14 -0.35,0.19 -0.02,-0.06 -0.04,-0.13 -0.05,-0.19 -0.03,-0.15 -0.03,-0.29 -0.01,-0.44 -0.16,0.05 -0.34,0.02 -0.49,-0.05 -0.07,-0.04 -0.13,-0.08 -0.2,-0.12 0.11,-0.04 0.23,-0.07 0.32,-0.14 0.08,-0.06 0.15,-0.14 0.21,-0.21 -0.08,-0.03 -0.16,-0.09 -0.19,-0.18 -0.02,-0.04 -0.03,-0.1 -0.05,-0.14 -0.08,-0.09 -0.12,-0.21 -0.1,-0.33 -0.26,0.01 -0.53,-0.05 -0.73,-0.21 -0.03,-0.02 -0.06,-0.02 -0.09,-0.03 -0.15,-0.04 -0.27,-0.14 -0.36,-0.26 -0.15,-0.09 -0.24,-0.25 -0.27,-0.42 -0.08,-0.09 -0.14,-0.19 -0.18,-0.3 -0.04,-0.11 -0.05,-0.22 -0.06,-0.34 -0.09,-0.17 -0.15,-0.36 -0.14,-0.55 0.01,-0.11 0,-0.23 -0.03,-0.34 -0.03,-0.06 -0.06,-0.11 -0.09,-0.17 0.1,0.02 0.2,0.02 0.3,0.06 0.09,0.04 0.17,0.11 0.25,0.17 0.17,0.14 0.34,0.29 0.49,0.45 0.17,0.17 0.4,0.25 0.63,0.3 0.14,0.03 0.28,0.05 0.42,0.05 0.14,0.01 0.28,0.05 0.37,0.16 0.01,0.01 0.02,0.02 0.03,0.02 0,-0.08 0.02,-0.16 0.06,-0.23 0.03,-0.06 0.08,-0.1 0.12,-0.16 0.03,0.05 0.05,0.1 0.08,0.14 0.02,0.03 0.06,0.06 0.11,0.05 0.13,-0.04 0.27,-0.05 0.41,-0.05 0.13,0.01 0.27,0.02 0.39,0.05 0.04,0.01 0.09,-0.02 0.11,-0.05 0.03,-0.05 0.05,-0.09 0.08,-0.14 0.05,0.07 0.12,0.13 0.14,0.21 0.02,0.05 0.02,0.11 0.03,0.17 0.03,-0.02 0.04,-0.05 0.07,-0.07 0.09,-0.08 0.21,-0.11 0.33,-0.12 0.19,-0 0.37,-0.03 0.55,-0.08 0.14,-0.04 0.28,-0.1 0.41,-0.19 0.08,-0.06 0.15,-0.14 0.22,-0.21 0.16,-0.15 0.33,-0.31 0.51,-0.43 0.07,-0.05 0.15,-0.09 0.23,-0.1zm-6.17 0.09l0 0c0.05,0.12 0.06,0.25 0.05,0.38 -0.01,0.19 0.04,0.38 0.14,0.54 -0.01,0.2 0.05,0.42 0.18,0.57 0.01,0.02 0.04,0.03 0.04,0.06 0.02,0.14 0.09,0.26 0.2,0.34 0.02,0.02 0.05,0.03 0.06,0.05 0.08,0.13 0.22,0.21 0.37,0.24 0.04,0.01 0.06,0.04 0.1,0.06 0.22,0.15 0.5,0.19 0.76,0.14 -0.01,0.05 -0.03,0.1 -0.03,0.15 -0.01,0.1 0.03,0.19 0.1,0.26 0.01,0.09 0.04,0.18 0.11,0.23 0.06,0.05 0.14,0.06 0.21,0.05 -0.12,0.19 -0.27,0.37 -0.48,0.46 0.08,0.04 0.17,0.07 0.27,0.08 0.12,0.01 0.23,-0.03 0.33,-0.09 -0.06,0.22 -0.07,0.45 -0.01,0.67 0.12,-0.06 0.24,-0.13 0.33,-0.23 0.03,-0.03 0.04,-0.06 0.05,-0.09 0.01,0.06 0,0.13 0,0.19 0,0.04 -0.01,0.08 0.02,0.11 0.09,0.11 0.17,0.23 0.28,0.32 0.11,-0.1 0.2,-0.22 0.29,-0.34 -0,-0.09 0,-0.19 0,-0.28 0.02,0.03 0.03,0.07 0.06,0.09 0.09,0.1 0.21,0.17 0.33,0.23 0.06,-0.22 0.05,-0.45 -0.01,-0.67 0.05,0.03 0.1,0.06 0.15,0.07 0.15,0.05 0.31,0.02 0.45,-0.05 -0.21,-0.09 -0.36,-0.27 -0.48,-0.46 0.07,0.01 0.15,-0 0.21,-0.05 0.07,-0.06 0.1,-0.15 0.11,-0.23 0.06,-0.05 0.09,-0.12 0.1,-0.2 0.01,-0.07 -0.01,-0.14 -0.03,-0.21 0.29,0.05 0.61,-0.01 0.84,-0.2 0.15,-0.02 0.3,-0.11 0.38,-0.24 0.02,-0.03 0.05,-0.04 0.07,-0.06 0.11,-0.08 0.18,-0.21 0.2,-0.34 -0,-0.02 0.01,-0.02 0.02,-0.04 0.14,-0.14 0.2,-0.35 0.2,-0.55 0,-0.02 -0,-0.04 0.01,-0.06 0.09,-0.16 0.15,-0.34 0.13,-0.53 -0.01,-0.13 0,-0.26 0.05,-0.38 -0.11,0.03 -0.2,0.1 -0.29,0.16 -0.19,0.14 -0.36,0.31 -0.53,0.48 -0.12,0.11 -0.27,0.19 -0.42,0.25 -0.22,0.08 -0.45,0.11 -0.68,0.12 -0.12,0.01 -0.25,0.05 -0.32,0.14 -0.06,0.07 -0.06,0.17 -0.05,0.26 -0.04,-0.07 -0.09,-0.13 -0.15,-0.19 0.03,-0.11 0.02,-0.24 -0.05,-0.33 -0.03,0.04 -0.06,0.09 -0.12,0.11 -0.05,0.02 -0.11,0.01 -0.16,-0.01 -0.22,-0.05 -0.44,-0.05 -0.66,0 -0.06,0.02 -0.13,0.03 -0.18,-0.01 -0.04,-0.02 -0.06,-0.06 -0.09,-0.09 -0.06,0.1 -0.07,0.22 -0.05,0.33 -0.06,0.06 -0.11,0.12 -0.15,0.19 0.01,-0.08 0.01,-0.17 -0.04,-0.24 -0.05,-0.08 -0.13,-0.12 -0.22,-0.15 -0.09,-0.03 -0.19,-0.02 -0.29,-0.03 -0.21,-0.02 -0.41,-0.07 -0.61,-0.15 -0.13,-0.06 -0.25,-0.14 -0.35,-0.24 -0.15,-0.16 -0.32,-0.31 -0.49,-0.44 -0.09,-0.07 -0.18,-0.14 -0.3,-0.17z"/>
   <path class="fil0" d="M2.82 1.8c-0.02,-0.05 -0.01,-0.12 0.02,-0.17 0.03,0.03 0.07,0.06 0.09,0.1l0.08 0.11c0.02,0.02 0.03,0.03 0.05,0.05 -0.09,0.05 -0.21,0 -0.25,-0.09z"/>
   <path class="fil0" d="M3.58 1.74c0.02,-0.04 0.06,-0.07 0.09,-0.1 0.12,0.14 -0.07,0.34 -0.23,0.26 0.02,-0.02 0.03,-0.03 0.05,-0.05l0.09 -0.11z"/>
   <path class="fil0" d="M3.53 1.81c0.01,-0.02 0.04,0 0.03,0.02 -0.01,0.02 -0.04,-0 -0.03,-0.02z"/>
   <path class="fil1" d="M0.17 0.12c0.11,0.03 0.21,0.1 0.3,0.17 0.17,0.13 0.33,0.29 0.49,0.44 0.1,0.1 0.22,0.18 0.35,0.24 0.19,0.08 0.4,0.13 0.61,0.15 0.1,0.01 0.19,0 0.29,0.03 0.09,0.02 0.17,0.07 0.22,0.15 0.04,0.07 0.05,0.16 0.04,0.24 0.04,-0.07 0.09,-0.13 0.15,-0.19 -0.03,-0.11 -0.02,-0.23 0.05,-0.33 0.03,0.03 0.05,0.07 0.09,0.09 0.05,0.04 0.12,0.03 0.18,0.01 0.22,-0.05 0.44,-0.05 0.66,-0 0.05,0.02 0.11,0.03 0.16,0.01 0.05,-0.02 0.09,-0.06 0.12,-0.11 0.06,0.1 0.08,0.22 0.05,0.33 0.06,0.06 0.11,0.12 0.15,0.19 -0.01,-0.09 -0,-0.19 0.05,-0.26 0.07,-0.1 0.2,-0.14 0.32,-0.14 0.23,-0.01 0.46,-0.04 0.68,-0.12 0.15,-0.06 0.3,-0.13 0.42,-0.25 0.17,-0.17 0.34,-0.33 0.53,-0.48 0.09,-0.07 0.18,-0.14 0.29,-0.16 -0.05,0.12 -0.06,0.25 -0.05,0.38 0.01,0.18 -0.04,0.37 -0.13,0.53 -0.01,0.02 -0.01,0.04 -0.01,0.06 0,0.2 -0.06,0.4 -0.2,0.55 -0.01,0.01 -0.02,0.02 -0.02,0.04 -0.02,0.13 -0.09,0.26 -0.2,0.34 -0.02,0.02 -0.05,0.03 -0.07,0.06 -0.08,0.13 -0.23,0.22 -0.38,0.24 -0.23,0.19 -0.55,0.25 -0.84,0.2 0.02,0.07 0.04,0.14 0.03,0.21 -0.01,0.07 -0.05,0.15 -0.1,0.2 -0.01,0.09 -0.04,0.18 -0.11,0.23 -0.06,0.05 -0.13,0.06 -0.21,0.05 0.12,0.19 0.27,0.37 0.48,0.46 -0.14,0.07 -0.3,0.1 -0.45,0.05 -0.05,-0.02 -0.1,-0.04 -0.15,-0.07 0.06,0.22 0.07,0.45 0.01,0.67 -0.12,-0.06 -0.24,-0.13 -0.33,-0.23 -0.03,-0.03 -0.04,-0.06 -0.06,-0.09 0,0.09 -0,0.19 -0,0.28 -0.09,0.12 -0.18,0.25 -0.29,0.34 -0.11,-0.09 -0.19,-0.21 -0.28,-0.32 -0.03,-0.03 -0.02,-0.08 -0.02,-0.11 -0,-0.06 0,-0.13 -0,-0.19 -0.02,0.03 -0.03,0.07 -0.05,0.09 -0.09,0.1 -0.21,0.17 -0.33,0.23 -0.06,-0.22 -0.05,-0.45 0.01,-0.67 -0.1,0.06 -0.21,0.1 -0.33,0.09 -0.09,-0.01 -0.19,-0.03 -0.27,-0.08 0.21,-0.09 0.36,-0.27 0.48,-0.46 -0.07,0.01 -0.15,-0 -0.21,-0.05 -0.07,-0.05 -0.1,-0.15 -0.11,-0.23 -0.07,-0.06 -0.11,-0.16 -0.1,-0.26 0,-0.05 0.01,-0.1 0.03,-0.15 -0.26,0.05 -0.54,0 -0.76,-0.14 -0.03,-0.02 -0.06,-0.05 -0.1,-0.06 -0.15,-0.02 -0.29,-0.11 -0.37,-0.24 -0.01,-0.02 -0.04,-0.04 -0.06,-0.05 -0.11,-0.08 -0.18,-0.21 -0.2,-0.34 -0,-0.03 -0.03,-0.04 -0.04,-0.06 -0.14,-0.15 -0.19,-0.37 -0.18,-0.57 -0.1,-0.16 -0.15,-0.35 -0.14,-0.54 0.01,-0.13 -0,-0.26 -0.05,-0.38zm0.95 1.14l0 0c0.18,0.1 0.38,0.15 0.58,0.18 0.09,0.01 0.18,0.02 0.27,0.05 0.13,0.06 0.23,0.17 0.3,0.29 0.01,-0.01 0.01,-0.03 0.01,-0.04 0.04,-0.12 -0.01,-0.27 -0.11,-0.35 -0.12,-0.09 -0.28,-0.12 -0.43,-0.12 -0.16,-0 -0.32,-0.06 -0.47,-0.13 -0.16,-0.08 -0.31,-0.18 -0.44,-0.3 -0.07,-0.06 -0.12,-0.13 -0.19,-0.2 -0.07,-0.07 -0.13,-0.14 -0.21,-0.2 -0.01,-0.01 -0.02,-0.02 -0.03,-0.04 0.14,0.34 0.38,0.66 0.71,0.84zm4.7 -0.56l0 0c-0.04,0.04 -0.07,0.09 -0.11,0.12 -0.14,0.13 -0.29,0.23 -0.46,0.32 -0.15,0.07 -0.31,0.13 -0.48,0.13 -0.15,0.01 -0.3,0.03 -0.42,0.12 -0.09,0.06 -0.14,0.17 -0.13,0.28 0,0.04 0,0.09 0.02,0.12 0,-0.01 0,-0.02 0,-0.02 0.03,-0.04 0.06,-0.08 0.09,-0.12 0.08,-0.09 0.18,-0.16 0.29,-0.18 0.07,-0.01 0.14,-0.02 0.22,-0.03 0.21,-0.03 0.42,-0.09 0.6,-0.21 0.22,-0.14 0.4,-0.34 0.54,-0.56 0.03,-0.05 0.06,-0.09 0.07,-0.14 0.02,-0.04 0.05,-0.07 0.06,-0.11 -0.1,0.09 -0.19,0.19 -0.29,0.29zm-0.02 0.47l0 0c-0.07,0.05 -0.14,0.1 -0.23,0.11l0.01 0c0.05,0.11 0.13,0.19 0.23,0.25 0.06,-0.06 0.1,-0.13 0.12,-0.2l0 -0c0.04,-0.11 0.06,-0.22 0.06,-0.34 -0.06,0.06 -0.13,0.12 -0.2,0.18zm-5.22 0.18l0 0c0.03,0.07 0.07,0.13 0.12,0.19 0.1,-0.06 0.19,-0.15 0.24,-0.26 -0.01,0 -0.02,0.01 -0.02,0.01 -0.16,-0.05 -0.28,-0.17 -0.4,-0.29 -0,0.12 0.01,0.24 0.06,0.35zm2.33 -0.1l0 0c-0.02,0.03 -0.01,0.07 -0.01,0.1 -0.08,-0.01 -0.13,-0.08 -0.18,-0.14 0.01,0.04 0,0.09 0.02,0.13 0.05,0.1 0.11,0.19 0.19,0.26 0.05,0.08 0.13,0.13 0.2,0.19 0.02,0.01 0.06,0.05 0.08,0.02 0.02,-0.05 -0.01,-0.1 -0.04,-0.13 -0,-0.01 -0.01,-0.03 -0.02,-0.03 0.05,0.01 0.08,0.04 0.11,0.07 0.02,-0.02 0.05,-0.05 0.08,-0.06l-0 -0.01c0,0.01 0.01,0.02 0.01,0.02 -0.03,0.04 -0.05,0.08 -0.05,0.13 0,0.02 0.03,0.03 0.04,0.02 0.06,-0.04 0.11,-0.09 0.17,-0.13 0.09,-0.08 0.17,-0.17 0.23,-0.28 0.03,-0.06 0.07,-0.13 0.06,-0.2 -0,0.01 -0.01,0.02 -0.01,0.02 -0.05,0.04 -0.1,0.12 -0.17,0.12 -0,-0.03 0,-0.07 -0.01,-0.1 -0.1,-0.03 -0.21,-0.05 -0.32,-0.05 -0.05,-0.01 -0.1,-0.01 -0.15,0 -0.07,0.01 -0.15,0.02 -0.22,0.05zm-0.24 0.22l0 0c-0.05,0.06 -0.08,0.12 -0.09,0.19 -0.01,0.06 -0.01,0.12 0.03,0.18 0,0.01 0,0.03 0,0.04 -0.03,-0.02 -0.06,-0.04 -0.08,-0.07 0,0.02 0,0.03 0.01,0.05 -0.02,0.16 0.12,0.29 0.26,0.32 0.11,0.03 0.23,-0.02 0.32,-0.08 0.01,-0.03 0,-0.06 0.01,-0.09 0.01,-0.02 0.02,-0.04 0.03,-0.06 -0.05,0.01 -0.09,0.04 -0.13,0.04 -0.05,0.01 -0.1,-0.01 -0.15,-0.01 -0.05,-0.04 -0.1,-0.09 -0.12,-0.15 -0.03,-0.08 -0.01,-0.16 0.02,-0.23 -0.03,-0.04 -0.07,-0.09 -0.1,-0.13zm1.16 -0l0 0 0 0.01c-0.04,0.04 -0.07,0.08 -0.1,0.12 0.02,0.06 0.04,0.12 0.04,0.18 -0.01,0.11 -0.11,0.21 -0.23,0.22 -0.06,0.01 -0.11,-0.02 -0.17,-0.04 -0.01,-0 -0.02,-0 -0.02,-0.01 0.04,0.04 0.03,0.1 0.04,0.15 0.07,0.05 0.14,0.08 0.22,0.09 0.16,0.01 0.33,-0.1 0.36,-0.26 0.01,-0.04 0.02,-0.08 -0,-0.11l-0 0.01c-0.02,0.02 -0.05,0.03 -0.07,0.05 0.06,-0.13 0.05,-0.31 -0.07,-0.41zm-3.1 0.12l0 0c0.01,0.07 0.02,0.13 0.05,0.2 0.03,0.05 0.07,0.09 0.11,0.12 0.06,-0.02 0.11,-0.04 0.16,-0.07 0.08,-0.05 0.14,-0.13 0.14,-0.23l-0.01 0.01c-0.07,0 -0.14,0.01 -0.21,0.01 -0.08,-0 -0.16,-0.02 -0.25,-0.04zm4.58 0.02l0 0 0.01 0.01c0.02,0.15 0.16,0.25 0.3,0.28 0.05,-0.02 0.09,-0.07 0.11,-0.12l0 0c0.03,-0.06 0.04,-0.13 0.05,-0.19 -0.15,0.04 -0.32,0.06 -0.47,0.02zm-2.49 0.2l0 0c0.04,0.09 0.16,0.14 0.25,0.09 -0.02,-0.02 -0.03,-0.03 -0.05,-0.05l-0.08 -0.11c-0.03,-0.04 -0.06,-0.07 -0.09,-0.1 -0.03,0.05 -0.04,0.11 -0.02,0.17zm0.75 -0.07l0 0 -0.09 0.11c-0.02,0.01 -0.03,0.03 -0.05,0.05 0.07,0.04 0.17,0.02 0.22,-0.05 0.05,-0.06 0.05,-0.15 0,-0.21 -0.03,0.03 -0.07,0.06 -0.09,0.1zm-2.03 0.07l0 0c-0.02,0.01 -0.04,0.01 -0.06,0.02 -0.17,0.08 -0.36,0.11 -0.55,0.1 0.04,0.06 0.09,0.11 0.16,0.15 0.06,0.04 0.13,0.06 0.19,0.08 0.14,-0.1 0.26,-0.24 0.32,-0.4 -0.02,0.02 -0.05,0.03 -0.07,0.05zm3.35 -0.05l0 0c0,0 0.01,0.01 0.01,0.02 0.01,0.04 0.03,0.08 0.05,0.11 0.06,0.1 0.14,0.18 0.23,0.25 0.01,0.01 0.02,0.02 0.04,0.01 0.06,-0.01 0.12,-0.04 0.18,-0.07 0.06,-0.04 0.11,-0.09 0.16,-0.15 -0.18,0 -0.36,-0.02 -0.53,-0.09 -0.05,-0.02 -0.09,-0.05 -0.14,-0.08zm-3.05 0.14l0 0c-0.01,0.01 -0.02,0.01 -0.03,0.02 -0.14,0.11 -0.3,0.19 -0.45,0.27 0.04,0.05 0.1,0.09 0.16,0.11 0.06,0.02 0.12,0.04 0.19,0.05 0.09,-0.15 0.18,-0.32 0.16,-0.5 -0.01,0.01 -0.02,0.02 -0.03,0.04zm2.79 -0.03l0 0c-0.01,0.18 0.07,0.34 0.16,0.49 0.06,-0.01 0.12,-0.03 0.18,-0.05 0.06,-0.03 0.12,-0.06 0.17,-0.11 -0.09,-0.04 -0.18,-0.09 -0.27,-0.14 -0.09,-0.05 -0.17,-0.11 -0.24,-0.18l-0 -0.01c-0,0 -0.01,0 -0.01,0zm-1.44 0.16l0 0c0,0.07 0,0.15 0.05,0.2l-0 0c0.01,0.01 0.01,0.01 0.02,0.02 0.06,-0.06 0.06,-0.15 0.07,-0.22 -0,-0.04 -0.05,-0.07 -0.09,-0.06 -0.02,0.02 -0.05,0.03 -0.05,0.06zm-1.02 0.56l0 0c-0.03,0.07 -0.01,0.14 0.03,0.2l0 0.01c0.02,-0.05 0.03,-0.11 0.06,-0.15 0,0.05 0.01,0.1 0.03,0.15 0,0.01 0.01,0.03 0.01,0.03 0.02,-0.06 0.05,-0.13 0.1,-0.18 0.01,0.05 0.01,0.11 0.04,0.15 0.01,0.01 0.01,0.02 0.02,0.03 0.02,-0.05 0.04,-0.1 0.07,-0.14 0.02,-0.02 0.03,-0.05 0.03,-0.08 -0.02,-0.05 -0.09,-0.04 -0.12,-0 -0.01,-0.02 -0.02,-0.03 -0.04,-0.05 -0.04,-0.01 -0.08,-0.01 -0.12,0.01 -0,-0.02 -0.02,-0.04 -0.03,-0.05 -0.04,-0 -0.08,0.02 -0.1,0.06zm1.64 -0.02l0 0c-0.03,0.06 -0.06,0.12 -0.11,0.17 -0.03,-0.04 -0.06,-0.09 -0.08,-0.14 -0.1,0.09 -0.16,0.22 -0.18,0.35 -0.02,0.07 -0.01,0.14 -0.02,0.22 0.01,-0.01 0.02,-0.03 0.03,-0.04l-0.01 0c0.06,-0.09 0.12,-0.18 0.19,-0.26 0.02,0.03 0.04,0.06 0.06,0.09 0.05,-0.03 0.09,-0.07 0.11,-0.12 0.05,-0.1 0.05,-0.21 0.03,-0.32 -0.01,0.01 -0.01,0.03 -0.01,0.05zm-1.12 -0.05l0 0c-0,0.02 -0,0.05 0,0.07 -0.03,0.13 0.02,0.3 0.14,0.37 0.02,-0.03 0.04,-0.06 0.06,-0.09 0.07,0.08 0.12,0.17 0.19,0.25 0,0.01 0.01,0.02 0.02,0.03 0,-0.2 -0.05,-0.41 -0.2,-0.55 -0.03,0.05 -0.05,0.09 -0.08,0.13 -0.06,-0.06 -0.09,-0.14 -0.13,-0.22zm1.52 0.06l0 0c-0.03,-0.03 -0.09,-0.04 -0.12,-0.01l-0 -0c-0.01,0.01 -0.01,0.03 -0.02,0.04 -0.03,-0.04 -0.1,-0.05 -0.12,-0.01 -0.01,0.04 0.02,0.07 0.04,0.1 0.03,0.04 0.05,0.08 0.07,0.13 -0,0 -0,0.01 -0,0.01 0.06,-0.05 0.06,-0.12 0.06,-0.19 0.03,0.03 0.06,0.06 0.07,0.1 0.01,0.03 0.02,0.06 0.03,0.08l0 -0.01c0.04,-0.05 0.04,-0.12 0.04,-0.18 0.03,0.04 0.04,0.09 0.05,0.13l-0 0.01c0.02,-0 0.03,-0.02 0.03,-0.04 0.02,-0.05 0.04,-0.12 0.01,-0.17 -0.02,-0.04 -0.07,-0.07 -0.11,-0.05 -0.01,0.02 -0.01,0.03 -0.02,0.05zm-1.94 0.34l0 0c0.01,0.09 0.12,0.15 0.21,0.12 0.03,-0.02 0.05,-0.07 0.02,-0.1 -0.05,-0.03 -0.09,0.02 -0.14,0.02 -0.03,-0.02 -0.06,-0.03 -0.09,-0.05zm1.84 0.03l0 0c0,0 0,0 0,0.01l-0 -0.01c-0.03,-0.01 -0.08,-0.03 -0.1,-0 -0.02,0.03 0,0.06 0.02,0.09 0.09,0.04 0.21,-0.02 0.22,-0.12 -0.04,0.02 -0.09,0.06 -0.13,0.03zm-1.63 0.41l0 0c-0.07,0.05 -0.13,0.12 -0.19,0.19 0.08,0 0.17,-0.03 0.23,-0.09 0.01,-0.01 0.03,-0.02 0.04,-0.03 -0.03,0.01 -0.07,0.01 -0.1,0.02 0.04,-0.05 0.08,-0.11 0.1,-0.18 -0.03,0.03 -0.05,0.05 -0.07,0.08zm1.49 -0.08l0 0c0.01,0.01 0.02,0.03 0.03,0.04 0.02,0.05 0.04,0.09 0.08,0.13 -0.02,-0 -0.04,-0 -0.06,-0 -0.01,-0.01 -0.03,-0.01 -0.04,-0.02 0.06,0.08 0.17,0.12 0.26,0.12 -0.04,-0.05 -0.09,-0.09 -0.13,-0.13 -0.05,-0.04 -0.09,-0.1 -0.13,-0.14zm-1.25 0.67l0 0c-0.01,-0.06 -0.02,-0.13 -0.03,-0.19 -0,0.01 -0.01,0.02 -0.01,0.02 -0.04,0.09 -0.05,0.2 -0.03,0.3 0.08,-0.05 0.15,-0.11 0.21,-0.18 0.03,-0.04 0.06,-0.08 0.07,-0.13 0.02,-0.02 0.03,-0.05 0.04,-0.08 -0.07,0.09 -0.15,0.19 -0.25,0.26zm0.83 -0.26l0 0c0.05,0.17 0.17,0.31 0.32,0.39 0.01,-0.11 0.01,-0.23 -0.05,-0.33 0.01,0.04 0.01,0.09 -0.01,0.13 -0.01,0.02 -0.01,0.05 -0.02,0.07 -0.08,-0.05 -0.14,-0.13 -0.2,-0.2 -0.01,-0.02 -0.03,-0.05 -0.04,-0.07zm-0.4 0.15l0 0c-0,0.02 -0.01,0.05 -0.01,0.07 -0.02,0.1 -0.03,0.2 -0.05,0.3 0.04,0.05 0.08,0.11 0.14,0.15 0.01,0.01 0.02,0.02 0.02,0.03l-0 0.01c0.07,-0.05 0.12,-0.12 0.18,-0.18 -0.02,-0.12 -0.04,-0.25 -0.06,-0.37 -0,0.02 -0.01,0.05 -0.01,0.07 -0.02,0.09 -0,0.18 -0.01,0.27 -0.03,0.04 -0.06,0.07 -0.09,0.11 -0.03,-0.04 -0.07,-0.07 -0.1,-0.12 -0,-0.11 0.01,-0.23 -0.01,-0.34z"/>
   <path class="fil2" d="M1.12 1.26c-0.33,-0.18 -0.57,-0.5 -0.71,-0.84 0.01,0.01 0.02,0.02 0.03,0.04 0.04,0.1 0.11,0.19 0.17,0.27 0.07,0.1 0.16,0.19 0.25,0.26 0.09,0.07 0.18,0.13 0.28,0.19 0.11,0.07 0.23,0.12 0.35,0.15 0.13,0.03 0.26,0.02 0.39,0.06 0.12,0.03 0.23,0.08 0.31,0.18 0.05,0.05 0.07,0.12 0.09,0.19 0,0.01 0.01,0.03 -0.01,0.04 -0.07,-0.12 -0.17,-0.24 -0.3,-0.29 -0.08,-0.04 -0.18,-0.04 -0.27,-0.05 -0.2,-0.03 -0.4,-0.08 -0.58,-0.18z"/>
   <path class="fil2" d="M5.9 0.73c0.05,-0.06 0.1,-0.14 0.15,-0.2 -0.01,0.05 -0.04,0.09 -0.07,0.14 -0.13,0.22 -0.31,0.42 -0.54,0.56 -0.18,0.11 -0.39,0.18 -0.6,0.21 -0.07,0.01 -0.14,0.02 -0.22,0.03 -0.11,0.02 -0.22,0.09 -0.29,0.18 -0.03,0.04 -0.06,0.08 -0.09,0.12 -0,-0.15 0.11,-0.27 0.24,-0.33 0.15,-0.08 0.31,-0.08 0.47,-0.1 0.21,-0.03 0.39,-0.14 0.56,-0.25 0.15,-0.09 0.27,-0.22 0.38,-0.36z"/>
   <path class="fil2" d="M3.13 1.2c0.05,-0.01 0.1,-0.01 0.15,-0 0.12,0.03 0.24,0.07 0.34,0.15 0.07,-0 0.12,-0.08 0.17,-0.12 -0.01,0.03 -0.02,0.07 -0.04,0.1 -0.07,0.11 -0.16,0.2 -0.25,0.28 -0.04,0.03 -0.08,0.07 -0.12,0.09 -0.02,-0.01 -0.01,-0.04 -0.02,-0.05 -0.01,-0 -0.02,-0.01 -0.03,-0.01l0 0.01 0 0.01c-0.04,0 -0.06,0.03 -0.08,0.06 -0.03,-0.03 -0.06,-0.06 -0.11,-0.07 0,0.01 0.01,0.03 0.02,0.03 -0.01,0.02 -0.01,0.03 -0.02,0.05 -0.09,-0.02 -0.15,-0.08 -0.22,-0.12 -0.08,-0.07 -0.15,-0.16 -0.19,-0.26 -0.02,-0.04 -0.02,-0.08 -0.02,-0.13 0.05,0.06 0.1,0.13 0.18,0.14 0.07,-0.07 0.16,-0.12 0.26,-0.14 -0.01,-0 -0.02,-0 -0.03,-0z"/>
   <path class="fil2" d="M0.92 1.28c0.01,-0 0.02,-0.01 0.02,-0.01 -0.05,0.11 -0.14,0.2 -0.24,0.26 -0.05,-0.05 -0.09,-0.12 -0.12,-0.19 -0,-0 -0,-0.01 -0,-0.02 0.12,0.02 0.24,0.01 0.34,-0.05z"/>
   <path class="fil2" d="M5.58 1.28c0.11,0.05 0.24,0.07 0.36,0.05 -0.02,0.08 -0.07,0.15 -0.12,0.2 -0.1,-0.06 -0.19,-0.15 -0.23,-0.25z"/>
   <path class="fil2" d="M3.74 1.58c0.03,-0.04 0.06,-0.08 0.1,-0.12 0.07,0.15 0.05,0.33 -0.03,0.47 0.03,-0.02 0.07,-0.05 0.1,-0.07 0.02,-0.02 0.05,-0.03 0.07,-0.05 -0,0.16 -0.16,0.3 -0.32,0.31 -0.07,-0 -0.14,-0.03 -0.21,-0.07 -0.01,-0.04 -0.04,-0.08 -0.07,-0.12 0.05,0.02 0.11,0.05 0.17,0.04 0.11,-0.01 0.21,-0.11 0.23,-0.22 0,-0.06 -0.01,-0.12 -0.04,-0.18z"/>
   <path class="fil2" d="M2.61 1.83c0.01,-0.09 0.01,-0.19 0.06,-0.27 0.03,0.01 0.07,0.02 0.1,0.03 -0.03,0.07 -0.05,0.16 -0.02,0.23 0.02,0.06 0.07,0.11 0.12,0.15 0.05,0.05 0.1,0.08 0.15,0.11 -0.12,0.05 -0.26,0.04 -0.36,-0.03 -0.07,-0.05 -0.1,-0.12 -0.13,-0.2 -0,-0.02 -0.01,-0.03 -0.01,-0.05 0.03,0.02 0.05,0.05 0.08,0.07 0,-0.01 0,-0.03 0,-0.04z"/>
   <path class="fil2" d="M1.18 1.61l0.01 -0.01c-0.01,0.09 -0.07,0.17 -0.14,0.23 -0.05,0.03 -0.11,0.05 -0.16,0.07 -0.05,-0.03 -0.08,-0.07 -0.11,-0.12 0.05,-0.01 0.09,-0.02 0.14,-0.03 0.1,-0.02 0.19,-0.07 0.27,-0.14z"/>
   <path class="fil2" d="M5.32 1.61c0.12,0.1 0.26,0.15 0.41,0.16 -0.02,0.05 -0.06,0.1 -0.11,0.12 -0.14,-0.03 -0.28,-0.13 -0.3,-0.28z"/>
   <path class="fil2" d="M1.55 1.8c0.02,-0.02 0.04,-0.04 0.07,-0.05 -0.06,0.16 -0.18,0.3 -0.32,0.4 -0.07,-0.01 -0.14,-0.04 -0.19,-0.08 0.06,-0.02 0.13,-0.04 0.19,-0.08 0.09,-0.06 0.19,-0.12 0.26,-0.2z"/>
   <path class="fil2" d="M4.91 1.78c0.16,0.12 0.31,0.25 0.5,0.3 -0.06,0.03 -0.12,0.06 -0.18,0.07 -0.02,0 -0.03,-0 -0.04,-0.01 -0.09,-0.07 -0.17,-0.15 -0.23,-0.25 -0.02,-0.04 -0.04,-0.07 -0.05,-0.11z"/>
   <path class="fil2" d="M1.85 1.9c0.01,-0.02 0.02,-0.03 0.03,-0.04 0.01,0.18 -0.07,0.35 -0.16,0.5 -0.06,-0.01 -0.13,-0.03 -0.19,-0.05 0.08,-0.05 0.15,-0.12 0.2,-0.2 0.05,-0.07 0.09,-0.13 0.12,-0.21z"/>
   <path class="fil2" d="M4.63 1.87c0,-0 0.01,-0 0.01,-0l0 0.01c0,0 0,0.01 0,0.02 0.08,0.16 0.18,0.32 0.33,0.42 -0.06,0.02 -0.12,0.04 -0.18,0.05 -0.09,-0.15 -0.17,-0.31 -0.16,-0.49z"/>
   <path class="fil2" d="M3.19 2.03c-0,-0.03 0.03,-0.05 0.05,-0.06 0.05,0.08 0.06,0.19 0,0.27 -0.05,-0.06 -0.05,-0.14 -0.05,-0.2z"/>
   <path class="fil2" d="M2.27 2.54c0.01,0.01 0.03,0.03 0.03,0.05 -0.01,0.02 -0.02,0.05 -0.04,0.07 -0.03,0.05 -0.04,0.1 -0.06,0.15l-0 -0.01c-0.01,-0.05 -0.01,-0.11 -0.01,-0.16 0.01,-0.04 0.04,-0.07 0.07,-0.1z"/>
   <path class="fil2" d="M2.69 2.53c0.03,0.08 0.06,0.16 0.13,0.22 0.03,-0.04 0.06,-0.09 0.08,-0.13 0.15,0.14 0.2,0.35 0.2,0.55 -0,-0.01 -0.01,-0.02 -0.02,-0.03 -0.02,-0.14 -0.1,-0.27 -0.2,-0.38 -0.02,0.03 -0.04,0.06 -0.06,0.09 -0.08,-0.06 -0.1,-0.16 -0.13,-0.25 -0,-0.02 -0,-0.05 -0,-0.07z"/>
   <path class="fil2" d="M4.21 2.6c0.01,-0.02 0.01,-0.03 0.02,-0.05 0.03,0.01 0.07,0.03 0.08,0.06 0.02,0.06 0.02,0.13 -0.01,0.18 -0.02,-0.05 -0.03,-0.09 -0.05,-0.13 -0.01,-0.02 -0.02,-0.04 -0.04,-0.06z"/>
   <path class="fil2" d="M2.32 2.64c0.02,-0.04 0.06,-0.05 0.1,-0.06 0.01,0.02 0.02,0.03 0.04,0.05 -0.02,0.02 -0.03,0.03 -0.04,0.05 -0.05,0.05 -0.08,0.11 -0.1,0.18 -0,-0.01 -0.01,-0.03 -0.01,-0.03 -0,-0.06 -0.01,-0.12 0.02,-0.17z"/>
   <path class="fil2" d="M3.7 2.75c0.05,-0.05 0.08,-0.11 0.11,-0.17 0,0.1 -0.04,0.21 -0.12,0.27 -0.02,-0.03 -0.04,-0.06 -0.06,-0.09 -0.11,0.1 -0.17,0.24 -0.21,0.39l0.01 -0 0.01 -0c-0.01,0.01 -0.02,0.03 -0.03,0.04 0.01,-0.07 0.01,-0.14 0.02,-0.22 0.03,-0.13 0.08,-0.26 0.18,-0.35 0.03,0.05 0.05,0.09 0.08,0.14z"/>
   <path class="fil2" d="M4.08 2.58l0 0c0.04,0.01 0.08,0.01 0.1,0.05 0.04,0.05 0.03,0.13 0.02,0.19 0,0.01 0,0.02 0,0.02l0 0.01c-0.02,-0.03 -0.02,-0.06 -0.03,-0.08 -0.02,-0.04 -0.04,-0.07 -0.07,-0.1 -0.01,-0.01 -0.02,-0.03 -0.04,-0.04 0.01,-0.01 0.01,-0.03 0.02,-0.04z"/>
   <path class="fil2" d="M2.48 2.64c0.02,-0.03 0.06,-0.01 0.09,-0.01 -0,0.03 -0.01,0.06 -0.03,0.08 -0.04,0.04 -0.05,0.09 -0.07,0.14 -0.01,-0.01 -0.01,-0.02 -0.02,-0.03 0,-0.06 -0.02,-0.14 0.03,-0.18z"/>
   <path class="fil2" d="M3.97 2.71c-0.02,-0.03 -0.05,-0.06 -0.04,-0.1 0,0 0,0.01 0,0.02 0.02,-0.01 0.05,-0.03 0.07,-0.01 0.07,0.05 0.05,0.15 0.03,0.22 -0.02,-0.04 -0.04,-0.09 -0.07,-0.13z"/>
   <path class="fil2" d="M2.36 2.99c0.05,-0 0.09,-0.05 0.14,-0.02 0.03,0.03 0.01,0.08 -0.02,0.1 -0.05,-0.02 -0.11,-0.03 -0.15,-0.07 0.01,-0 0.02,-0 0.03,-0.01z"/>
   <path class="fil2" d="M4.01 2.97c0.03,-0.03 0.07,-0.01 0.1,0l0 0.01c0,0 0,0.01 0,0.01 0.02,0 0.04,0 0.07,0.01 -0.05,0.04 -0.1,0.05 -0.16,0.06 -0.01,-0.03 -0.04,-0.06 -0.02,-0.09z"/>
   <path class="fil2" d="M2.48 3.38c0.02,-0.03 0.04,-0.06 0.07,-0.08 -0.02,0.06 -0.06,0.12 -0.1,0.18 0.03,-0.01 0.07,-0.02 0.1,-0.02 -0.01,0.01 -0.02,0.02 -0.04,0.03 -0.04,0.01 -0.08,0.02 -0.12,0.03 0.03,-0.04 0.06,-0.08 0.08,-0.13z"/>
   <path class="fil2" d="M3.99 3.34c0.05,0.05 0.09,0.11 0.13,0.17 -0.04,-0.01 -0.08,-0.02 -0.11,-0.04 0.02,0 0.04,0 0.06,0 -0.03,-0.04 -0.06,-0.08 -0.08,-0.13z"/>
   <path class="fil2" d="M2.72 3.96c0.1,-0.07 0.17,-0.17 0.25,-0.26 -0.01,0.03 -0.02,0.06 -0.04,0.08 -0.07,0.09 -0.15,0.17 -0.24,0.23 -0.02,-0.07 -0.01,-0.15 -0.01,-0.22 0,-0.01 0.01,-0.02 0.01,-0.02 0,0.06 0.01,0.13 0.03,0.19z"/>
   <path class="fil2" d="M3.59 3.77c0.07,0.06 0.12,0.14 0.2,0.2 0.01,-0.02 0.01,-0.05 0.02,-0.07 0.01,-0.01 0.01,-0.03 0.02,-0.04 0.01,0.05 0.01,0.11 -0,0.16 -0.09,-0.07 -0.19,-0.14 -0.24,-0.25z"/>
   <path class="fil2" d="M3.15 3.85c0.03,0.11 0.01,0.22 0.01,0.34 0.02,0.05 0.06,0.08 0.1,0.12 0.03,-0.04 0.07,-0.07 0.09,-0.11 0.01,-0.09 -0.01,-0.18 0.01,-0.27 0.01,0.1 0.01,0.19 0.02,0.29 -0.04,0.07 -0.08,0.13 -0.13,0.19 -0.01,-0.01 -0.02,-0.02 -0.02,-0.03 -0.02,-0.05 -0.05,-0.09 -0.08,-0.14 -0.02,-0.03 -0.01,-0.07 -0.01,-0.1 0.01,-0.07 0,-0.14 0,-0.22 0,-0.02 0,-0.05 0.01,-0.07z"/>
   <path class="fil3" d="M5.82 0.7c0.09,-0.1 0.19,-0.19 0.29,-0.29 -0.02,0.04 -0.04,0.08 -0.06,0.11 -0.05,0.07 -0.1,0.14 -0.15,0.2 -0.11,0.14 -0.23,0.27 -0.38,0.36 -0.17,0.11 -0.35,0.22 -0.56,0.25 -0.16,0.02 -0.33,0.02 -0.47,0.1 -0.13,0.06 -0.24,0.18 -0.24,0.33 -0,0.01 -0,0.02 -0,0.02 -0.02,-0.04 -0.02,-0.08 -0.02,-0.12 -0,-0.11 0.05,-0.21 0.13,-0.28 0.12,-0.09 0.27,-0.11 0.42,-0.12 0.17,-0 0.33,-0.06 0.48,-0.13 0.17,-0.08 0.32,-0.19 0.46,-0.32 0.04,-0.04 0.07,-0.08 0.11,-0.12z"/>
   <path class="fil3" d="M5.8 1.17c0.07,-0.05 0.13,-0.12 0.2,-0.18 -0,0.11 -0.01,0.23 -0.06,0.34l-0 0c-0.12,0.02 -0.24,-0 -0.36,-0.05l-0.01 -0c0.09,-0.01 0.16,-0.06 0.23,-0.11z"/>
   <path class="fil3" d="M2.91 1.24c0.07,-0.02 0.15,-0.03 0.22,-0.05 0.01,0 0.02,0 0.03,0 -0.1,0.02 -0.19,0.07 -0.26,0.14 0,-0.03 -0,-0.07 0.01,-0.1z"/>
   <path class="fil3" d="M3.79 1.22c0,-0.01 0.01,-0.02 0.01,-0.02 0.01,0.07 -0.03,0.14 -0.06,0.2 -0.06,0.11 -0.15,0.2 -0.23,0.28 -0.05,0.05 -0.11,0.1 -0.17,0.13 -0.01,0.01 -0.04,-0 -0.04,-0.02 -0.01,-0.05 0.02,-0.09 0.05,-0.13 -0,-0.01 -0.01,-0.02 -0.01,-0.02l-0 -0.01c0.01,0 0.02,0.01 0.03,0.01 0,0.02 -0.01,0.05 0.02,0.05 0.04,-0.02 0.08,-0.06 0.12,-0.09 0.09,-0.09 0.18,-0.18 0.25,-0.28 0.02,-0.03 0.03,-0.06 0.04,-0.1z"/>
   <path class="fil3" d="M3.83 1.46c0.11,0.1 0.12,0.27 0.07,0.41 -0.03,0.03 -0.06,0.05 -0.1,0.07 0.09,-0.14 0.11,-0.32 0.03,-0.47l-0 -0.01z"/>
   <path class="fil3" d="M5.31 1.6c0.16,0.03 0.32,0.01 0.47,-0.02 -0,0.07 -0.02,0.13 -0.05,0.19l-0 -0c-0.15,-0.01 -0.3,-0.06 -0.41,-0.16l-0.01 -0.01z"/>
   <path class="fil3" d="M4.9 1.76c0.05,0.02 0.09,0.06 0.14,0.08 0.17,0.07 0.35,0.1 0.53,0.09 -0.04,0.06 -0.1,0.11 -0.16,0.15 -0.19,-0.05 -0.35,-0.18 -0.5,-0.3 -0,-0 -0.01,-0.01 -0.01,-0.02z"/>
   <path class="fil3" d="M3.97 1.8c0.02,0.03 0.01,0.08 0,0.11 -0.03,0.16 -0.2,0.27 -0.36,0.26 -0.08,-0.01 -0.16,-0.04 -0.22,-0.09 -0.01,-0.05 0,-0.11 -0.04,-0.15 0.01,0 0.02,0 0.02,0.01 0.03,0.03 0.06,0.07 0.07,0.12 0.06,0.03 0.13,0.06 0.21,0.07 0.16,-0.01 0.31,-0.14 0.32,-0.31l0 -0.01z"/>
   <path class="fil3" d="M4.65 1.89c-0,-0 -0,-0.01 -0,-0.02 0.07,0.08 0.15,0.13 0.24,0.18 0.09,0.05 0.18,0.1 0.27,0.14 -0.05,0.05 -0.11,0.09 -0.17,0.11 -0.15,-0.1 -0.25,-0.26 -0.33,-0.42z"/>
   <path class="fil3" d="M3.23 1.97c0.04,-0 0.09,0.02 0.09,0.06 -0,0.08 -0,0.17 -0.07,0.22 -0.01,-0.01 -0.01,-0.01 -0.02,-0.02l0 -0c0.05,-0.08 0.05,-0.19 -0,-0.27z"/>
   <path class="fil3" d="M3.81 2.58c-0,-0.02 0,-0.03 0.01,-0.05 0.02,0.11 0.02,0.22 -0.03,0.32 -0.02,0.05 -0.07,0.09 -0.11,0.12 -0.02,-0.03 -0.04,-0.06 -0.06,-0.09 -0.07,0.08 -0.13,0.17 -0.19,0.26l-0.01 0c0.04,-0.14 0.11,-0.28 0.21,-0.39 0.02,0.03 0.04,0.06 0.06,0.09 0.08,-0.07 0.12,-0.17 0.12,-0.27z"/>
   <path class="fil3" d="M4.23 2.54c0.04,-0.02 0.09,0.01 0.11,0.05 0.03,0.05 0.01,0.12 -0.01,0.17 -0.01,0.01 -0.01,0.03 -0.03,0.04l0 -0.01c0.02,-0.06 0.03,-0.13 0.01,-0.18 -0.01,-0.03 -0.05,-0.05 -0.08,-0.06z"/>
   <path class="fil3" d="M4.09 2.58c0.04,-0.02 0.09,-0.02 0.12,0.01 0.01,0.02 0.03,0.04 0.04,0.06 -0.01,0.06 -0.01,0.13 -0.04,0.18 0,-0.01 0,-0.02 -0,-0.02 0.01,-0.06 0.03,-0.13 -0.02,-0.19 -0.02,-0.03 -0.07,-0.04 -0.1,-0.05z"/>
   <path class="fil3" d="M3.94 2.62c0.03,-0.05 0.1,-0.03 0.12,0.01 0.01,0.01 0.02,0.03 0.04,0.04 -0,0.07 -0.01,0.14 -0.06,0.19 0,-0 0,-0.01 0,-0.01 0.03,-0.07 0.04,-0.17 -0.03,-0.22 -0.03,-0.02 -0.05,0 -0.07,0.01 -0,-0 -0,-0.01 -0,-0.02z"/>
   <path class="fil3" d="M4.11 2.97c0.04,0.03 0.09,-0.01 0.13,-0.03 -0.01,0.1 -0.13,0.16 -0.22,0.12 0.06,-0.01 0.11,-0.02 0.16,-0.06 -0.02,-0 -0.04,-0 -0.07,-0.01 -0,-0 -0,-0.01 -0,-0.01 -0,-0 -0,-0 -0,-0.01z"/>
   <path class="fil3" d="M3.96 3.3c0.05,0.04 0.09,0.09 0.13,0.14 0.04,0.04 0.09,0.09 0.13,0.13 -0.1,-0.01 -0.2,-0.05 -0.26,-0.12 0.01,0.01 0.03,0.01 0.04,0.02 0.04,0.02 0.07,0.03 0.11,0.04 -0.04,-0.06 -0.09,-0.11 -0.13,-0.17 -0.01,-0.01 -0.02,-0.03 -0.03,-0.04z"/>
   <path class="fil3" d="M3.55 3.7c0.02,0.02 0.03,0.04 0.04,0.07 0.05,0.11 0.15,0.18 0.24,0.25 0.01,-0.05 0.01,-0.11 0,-0.16 -0.01,0.01 -0.01,0.03 -0.02,0.04 0.02,-0.04 0.01,-0.09 0.01,-0.13 0.06,0.1 0.06,0.22 0.05,0.33 -0.15,-0.08 -0.27,-0.22 -0.32,-0.39z"/>
   <path class="fil3" d="M3.36 3.86c0.02,0.12 0.04,0.25 0.06,0.37 -0.06,0.06 -0.1,0.14 -0.18,0.18l0 -0.01c0.05,-0.06 0.09,-0.13 0.13,-0.19 -0.01,-0.1 -0.01,-0.19 -0.02,-0.29 -0,-0.02 0,-0.05 0.01,-0.07z"/>
   <path class="fil4" d="M0.43 0.45c0.08,0.06 0.14,0.13 0.21,0.2 0.07,0.06 0.12,0.14 0.19,0.2 0.13,0.12 0.28,0.22 0.44,0.3 0.15,0.07 0.3,0.12 0.47,0.13 0.15,0.01 0.31,0.03 0.43,0.12 0.11,0.08 0.16,0.23 0.11,0.35 -0.02,-0.07 -0.04,-0.13 -0.09,-0.19 -0.08,-0.09 -0.19,-0.15 -0.31,-0.18 -0.13,-0.03 -0.26,-0.03 -0.39,-0.06 -0.13,-0.03 -0.24,-0.09 -0.35,-0.15 -0.1,-0.06 -0.19,-0.11 -0.28,-0.19 -0.09,-0.08 -0.17,-0.17 -0.25,-0.26 -0.07,-0.08 -0.13,-0.17 -0.17,-0.27z"/>
   <path class="fil4" d="M0.58 1.34c-0.05,-0.11 -0.06,-0.23 -0.06,-0.35 0.12,0.11 0.24,0.23 0.4,0.29 -0.11,0.05 -0.23,0.07 -0.34,0.05 0,0 0,0.01 0,0.02z"/>
   <path class="fil4" d="M3.28 1.19c0.11,0 0.22,0.02 0.32,0.05 0.02,0.03 0.01,0.07 0.01,0.1 -0.1,-0.08 -0.22,-0.12 -0.34,-0.15z"/>
   <path class="fil4" d="M2.67 1.46c0.04,0.04 0.07,0.08 0.1,0.13 -0.03,-0.01 -0.07,-0.02 -0.1,-0.03 -0.05,0.08 -0.05,0.18 -0.06,0.27 -0.03,-0.05 -0.03,-0.12 -0.03,-0.18 0.01,-0.07 0.04,-0.14 0.09,-0.19z"/>
   <path class="fil4" d="M0.73 1.58c0.08,0.02 0.16,0.03 0.25,0.04 0.07,0.01 0.14,-0 0.21,-0.01 -0.07,0.07 -0.17,0.12 -0.27,0.14 -0.05,0.01 -0.09,0.01 -0.14,0.03 -0.03,-0.06 -0.04,-0.13 -0.05,-0.2z"/>
   <path class="fil4" d="M2.93 1.59c0.07,0.04 0.14,0.11 0.22,0.12 0.01,-0.02 0.01,-0.03 0.02,-0.05 0.03,0.04 0.05,0.09 0.04,0.13 -0.02,0.03 -0.05,-0 -0.08,-0.02 -0.07,-0.06 -0.15,-0.12 -0.2,-0.19z"/>
   <path class="fil4" d="M1.49 1.82c0.02,-0.01 0.04,-0.01 0.06,-0.02 -0.08,0.08 -0.17,0.14 -0.26,0.2 -0.06,0.04 -0.12,0.06 -0.19,0.08 -0.06,-0.04 -0.12,-0.09 -0.16,-0.15 0.19,0 0.38,-0.02 0.55,-0.1z"/>
   <path class="fil4" d="M2.54 1.85c0.03,0.07 0.07,0.15 0.13,0.2 0.1,0.08 0.25,0.08 0.36,0.03 -0.05,-0.04 -0.11,-0.07 -0.15,-0.11 0.05,0 0.1,0.02 0.15,0.01 0.05,-0 0.09,-0.04 0.13,-0.04 -0.01,0.02 -0.02,0.04 -0.03,0.06 -0.01,0.03 0,0.06 -0.01,0.09 -0.09,0.06 -0.21,0.11 -0.32,0.08 -0.14,-0.03 -0.28,-0.16 -0.26,-0.32z"/>
   <path class="fil4" d="M1.82 1.92c0.01,-0.01 0.02,-0.01 0.03,-0.02 -0.03,0.08 -0.07,0.14 -0.12,0.21 -0.06,0.08 -0.12,0.15 -0.2,0.2 -0.06,-0.03 -0.12,-0.06 -0.16,-0.11 0.16,-0.08 0.32,-0.16 0.45,-0.27z"/>
   <path class="fil4" d="M2.17 2.6c0.02,-0.04 0.06,-0.06 0.1,-0.06 -0.03,0.03 -0.07,0.05 -0.07,0.1 -0.01,0.05 -0,0.11 0.01,0.16 -0.04,-0.06 -0.06,-0.13 -0.03,-0.2z"/>
   <path class="fil4" d="M2.3 2.59c0.04,-0.02 0.08,-0.02 0.12,-0.01 -0.04,0.02 -0.08,0.03 -0.1,0.06 -0.03,0.05 -0.03,0.11 -0.02,0.17 -0.03,-0.05 -0.03,-0.1 -0.03,-0.15 0.01,-0.02 0.03,-0.05 0.04,-0.07z"/>
   <path class="fil4" d="M2.45 2.62c0.03,-0.04 0.1,-0.05 0.12,0 -0.03,-0 -0.07,-0.02 -0.09,0.01 -0.05,0.05 -0.03,0.12 -0.03,0.18 -0.03,-0.04 -0.03,-0.1 -0.04,-0.15 0.01,-0.02 0.03,-0.03 0.04,-0.05z"/>
   <path class="fil4" d="M2.69 2.6c0.03,0.09 0.05,0.19 0.13,0.25 0.02,-0.03 0.04,-0.06 0.06,-0.09 0.1,0.1 0.18,0.23 0.2,0.38 -0.06,-0.08 -0.12,-0.18 -0.19,-0.25 -0.02,0.03 -0.04,0.06 -0.06,0.09 -0.13,-0.07 -0.17,-0.23 -0.14,-0.37z"/>
   <path class="fil4" d="M2.27 2.94c0.03,0.02 0.06,0.03 0.09,0.05 -0.01,0 -0.02,0 -0.03,0.01 0.04,0.04 0.1,0.05 0.15,0.07 -0.09,0.03 -0.2,-0.03 -0.21,-0.12z"/>
   <path class="fil4" d="M2.29 3.56c0.06,-0.06 0.12,-0.13 0.19,-0.19 -0.02,0.04 -0.05,0.08 -0.08,0.13 0.04,-0.01 0.08,-0.02 0.12,-0.03 -0.06,0.06 -0.14,0.09 -0.23,0.09z"/>
   <path class="fil4" d="M2.69 4.01c0.09,-0.06 0.17,-0.14 0.24,-0.23 -0.01,0.05 -0.04,0.09 -0.07,0.13 -0.06,0.07 -0.13,0.14 -0.21,0.18 -0.02,-0.1 -0.01,-0.2 0.03,-0.3 -0,0.07 -0.01,0.15 0.01,0.22z"/>
   <path class="fil4" d="M3.09 4.23c0.02,-0.1 0.03,-0.2 0.05,-0.3 -0,0.07 0,0.14 -0,0.22 -0,0.03 -0.01,0.07 0.01,0.1 0.03,0.04 0.06,0.09 0.08,0.14 -0.06,-0.04 -0.1,-0.1 -0.14,-0.15z"/>
  </g>
 </g>
</svg>
