<?xml version="1.0" encoding="UTF-8"?>
<!DOCTYPE svg PUBLIC "-//W3C//DTD SVG 1.1//EN" "http://www.w3.org/Graphics/SVG/1.1/DTD/svg11.dtd">
<!-- Creator: CorelDRAW 2018 (64-Bit) -->
<svg xmlns="http://www.w3.org/2000/svg" xml:space="preserve" width="0.520709in" height="0.307835in" version="1.1" style="shape-rendering:geometricPrecision; text-rendering:geometricPrecision; image-rendering:optimizeQuality; fill-rule:evenodd; clip-rule:evenodd"
viewBox="0 0 4.87 2.88"
 xmlns:xlink="http://www.w3.org/1999/xlink">
 <defs>
  <style type="text/css">
   <![CDATA[
    .fil8 {fill:#C79933}
    .fil1 {fill:black;fill-rule:nonzero}
    .fil7 {fill:#380001;fill-rule:nonzero}
    .fil4 {fill:#383838;fill-rule:nonzero}
    .fil3 {fill:#666666;fill-rule:nonzero}
    .fil2 {fill:#858585;fill-rule:nonzero}
    .fil6 {fill:#B3B3B3;fill-rule:nonzero}
    .fil5 {fill:#FCED20;fill-rule:nonzero}
    .fil0 {fill:#FDFDFD;fill-rule:nonzero}
   ]]>
  </style>
 </defs>
 <g id="Layer_x0020_1">
  <metadata id="CorelCorpID_0Corel-Layer"/>
  <g id="_1015468128">
   <g>
    <g>
     <g>
      <path class="fil0" d="M0.03 0.06c0.01,-0.04 0.05,-0.06 0.09,-0.06 0.04,-0 0.08,0.02 0.12,0.04 0.05,0.04 0.09,0.08 0.14,0.13 0.07,0.08 0.15,0.14 0.24,0.19 0.17,0.11 0.36,0.19 0.54,0.27 0.11,0.04 0.22,0.09 0.33,0.12 0.13,0.04 0.25,0.1 0.35,0.19 0.19,-0.08 0.41,-0.08 0.61,-0.05 0.14,-0.02 0.28,-0.03 0.41,-0.01 0.07,0.01 0.13,0.03 0.19,0.05 0.09,-0.08 0.2,-0.14 0.31,-0.18 0.1,-0.03 0.2,-0.07 0.29,-0.11 0.21,-0.08 0.41,-0.18 0.6,-0.29 0.09,-0.05 0.17,-0.11 0.24,-0.19 0.06,-0.06 0.11,-0.13 0.19,-0.17 0.04,-0.02 0.1,-0.03 0.14,-0 0.03,0.02 0.04,0.06 0.05,0.09 0.02,0.09 0.01,0.18 -0.02,0.27 -0.03,0.09 -0.07,0.17 -0.12,0.25 -0.02,0.02 -0.03,0.05 -0.05,0.07 -0.05,0.05 -0.07,0.12 -0.08,0.19 -0.02,0.07 -0.02,0.14 -0.04,0.21 -0.04,0.1 -0.09,0.2 -0.16,0.28 -0.11,0.13 -0.23,0.25 -0.38,0.34 -0.05,0.03 -0.1,0.05 -0.15,0.08 -0.09,0.04 -0.18,0.09 -0.27,0.14 -0.03,0.02 -0.06,0.04 -0.09,0.07 -0.01,0.01 -0.01,0.03 -0.02,0.05 -0.02,0.06 -0.06,0.11 -0.1,0.15 -0.03,0.13 -0.12,0.26 -0.24,0.32 -0.01,0.01 -0.03,0.01 -0.05,0 -0.01,-0.01 -0.02,-0.02 -0.03,-0.02 -0.02,0 -0.03,0.02 -0.04,0.03 -0.02,0.03 -0.05,0.06 -0.06,0.09 -0.03,0.09 -0.1,0.16 -0.19,0.19 -0.11,0.05 -0.23,0.07 -0.35,0.07 -0.12,0 -0.25,-0.02 -0.36,-0.07 -0.08,-0.04 -0.15,-0.1 -0.18,-0.19 -0.01,-0.04 -0.04,-0.08 -0.07,-0.11 -0.01,-0.01 -0.02,-0.02 -0.03,-0.01 -0.02,0.02 -0.04,0.03 -0.06,0.02 -0.12,-0.06 -0.21,-0.17 -0.24,-0.3 -0,-0.01 -0,-0.02 -0.01,-0.02 -0.05,-0.04 -0.09,-0.1 -0.1,-0.17 -0,-0.03 -0.03,-0.04 -0.05,-0.06 -0.07,-0.06 -0.16,-0.1 -0.25,-0.15 -0.08,-0.04 -0.16,-0.07 -0.23,-0.12 -0.08,-0.05 -0.15,-0.11 -0.22,-0.18 -0.1,-0.09 -0.19,-0.2 -0.25,-0.32 -0.03,-0.06 -0.06,-0.13 -0.07,-0.21 -0.01,-0.06 -0.02,-0.13 -0.04,-0.19 -0.01,-0.04 -0.03,-0.09 -0.06,-0.12 -0.02,-0.02 -0.04,-0.04 -0.06,-0.07 -0.06,-0.09 -0.1,-0.18 -0.13,-0.28 -0.02,-0.09 -0.03,-0.2 0.01,-0.29zm0.05 0.02l0 0c-0.03,0.06 -0.03,0.14 -0.02,0.2 0.02,0.09 0.05,0.18 0.1,0.27 0.02,0.04 0.04,0.07 0.07,0.1 0.03,0.03 0.05,0.06 0.07,0.09 0.03,0.08 0.05,0.16 0.06,0.24 0.02,0.12 0.08,0.24 0.15,0.34 0.08,0.1 0.17,0.2 0.28,0.28 0.06,0.05 0.13,0.1 0.21,0.13 0.07,0.03 0.13,0.06 0.2,0.09 0.06,0.03 0.13,0.07 0.19,0.12 0.02,0.02 0.05,0.04 0.05,0.08 0.01,0.07 0.05,0.12 0.1,0.16 0.02,0.13 0.1,0.25 0.22,0.3 0.02,-0.02 0.06,-0.04 0.08,-0.02 0.05,0.03 0.08,0.08 0.1,0.12 0.02,0.08 0.08,0.14 0.15,0.18 0.11,0.06 0.23,0.07 0.35,0.07 0.11,0 0.23,-0.01 0.33,-0.06 0.07,-0.03 0.14,-0.09 0.16,-0.17 0.01,-0.03 0.03,-0.06 0.05,-0.09 0.02,-0.03 0.04,-0.05 0.07,-0.06 0.03,-0.01 0.05,0.01 0.07,0.03 0.12,-0.06 0.2,-0.17 0.22,-0.3 0.05,-0.04 0.1,-0.1 0.11,-0.16 0.01,-0.03 0.04,-0.06 0.06,-0.08 0.08,-0.06 0.16,-0.11 0.25,-0.15 0.07,-0.04 0.15,-0.07 0.22,-0.11 0.08,-0.05 0.15,-0.11 0.22,-0.17 0.08,-0.08 0.16,-0.17 0.22,-0.26 0.05,-0.08 0.09,-0.16 0.1,-0.25 0.02,-0.09 0.03,-0.18 0.07,-0.26 0.02,-0.05 0.07,-0.08 0.1,-0.12 0.05,-0.08 0.09,-0.17 0.11,-0.26 0.02,-0.08 0.03,-0.17 -0,-0.25 -0.01,-0.02 -0.03,-0.04 -0.05,-0.04 -0.03,0 -0.06,0.02 -0.08,0.03 -0.05,0.03 -0.09,0.08 -0.13,0.12 -0.05,0.06 -0.12,0.12 -0.19,0.16 -0.1,0.07 -0.21,0.13 -0.32,0.18 -0.2,0.1 -0.4,0.18 -0.61,0.26 -0.13,0.04 -0.26,0.11 -0.36,0.2 -0.05,-0.03 -0.11,-0.04 -0.17,-0.06 -0.14,-0.03 -0.28,-0.03 -0.42,-0 -0.01,0 -0.02,0.01 -0.04,0 -0.1,-0.02 -0.21,-0.02 -0.31,-0.02 -0.1,0.01 -0.2,0.03 -0.29,0.07 -0.07,-0.07 -0.15,-0.12 -0.24,-0.16 -0.05,-0.03 -0.11,-0.04 -0.17,-0.06 -0.27,-0.1 -0.53,-0.21 -0.77,-0.35 -0.09,-0.05 -0.17,-0.11 -0.24,-0.17 -0.05,-0.04 -0.08,-0.09 -0.13,-0.13 -0.04,-0.03 -0.07,-0.07 -0.12,-0.08 -0.03,-0.01 -0.06,0 -0.07,0.03z"/>
     </g>
     <path class="fil0" d="M1.9 2.19c0.02,-0.01 0.03,-0.01 0.05,-0.01 -0.01,0.04 -0,0.09 0.02,0.13 0,0.01 0.01,0.02 0.02,0.03 0.01,0.01 0.01,0.02 0.01,0.02 -0.07,-0.03 -0.1,-0.1 -0.1,-0.17z"/>
     <path class="fil0" d="M2.93 2.18c0.02,-0 0.04,0 0.06,0.01 0.01,0.07 -0.03,0.14 -0.1,0.17 0,-0 0.01,-0.01 0.01,-0.02 0.02,-0.02 0.02,-0.04 0.03,-0.06 0,-0.03 0,-0.07 -0,-0.1z"/>
     <path class="fil0" d="M2.04 2.57c-0.02,-0.05 -0.01,-0.11 0.02,-0.15 -0.01,0.06 -0,0.12 0.04,0.17 -0.02,0 -0.04,-0 -0.06,-0.02z"/>
     <path class="fil0" d="M2.82 2.42c0.03,0.04 0.04,0.1 0.02,0.15 -0.02,0.01 -0.04,0.02 -0.06,0.02 0.03,-0.05 0.04,-0.11 0.04,-0.16z"/>
    </g>
    <g>
     <g>
      <path class="fil1" d="M0.07 0.08c0.01,-0.03 0.05,-0.04 0.07,-0.03 0.05,0.01 0.09,0.05 0.12,0.08 0.05,0.04 0.08,0.09 0.13,0.13 0.07,0.07 0.16,0.12 0.24,0.17 0.24,0.14 0.51,0.25 0.77,0.35 0.06,0.02 0.11,0.04 0.17,0.06 0.09,0.04 0.17,0.09 0.24,0.16 0.09,-0.04 0.19,-0.06 0.29,-0.07 0.1,-0.01 0.21,-0 0.31,0.02 0.01,0 0.02,-0 0.04,-0 0.14,-0.02 0.28,-0.02 0.42,0 0.06,0.01 0.12,0.03 0.17,0.06 0.1,-0.1 0.23,-0.16 0.36,-0.2 0.21,-0.07 0.42,-0.16 0.61,-0.26 0.11,-0.05 0.22,-0.11 0.32,-0.18 0.07,-0.05 0.13,-0.1 0.19,-0.16 0.04,-0.05 0.08,-0.09 0.13,-0.12 0.03,-0.02 0.05,-0.03 0.08,-0.03 0.02,-0 0.04,0.01 0.05,0.04 0.03,0.08 0.02,0.17 0,0.25 -0.02,0.09 -0.06,0.18 -0.11,0.26 -0.03,0.05 -0.07,0.08 -0.1,0.12 -0.04,0.08 -0.06,0.17 -0.07,0.26 -0.01,0.09 -0.05,0.18 -0.1,0.25 -0.06,0.1 -0.14,0.18 -0.22,0.26 -0.07,0.06 -0.14,0.12 -0.22,0.17 -0.07,0.05 -0.15,0.07 -0.22,0.11 -0.09,0.04 -0.18,0.09 -0.25,0.15 -0.03,0.02 -0.05,0.05 -0.06,0.08 -0.01,0.07 -0.05,0.12 -0.11,0.16 -0.02,0.13 -0.1,0.25 -0.22,0.3 -0.02,-0.02 -0.04,-0.03 -0.07,-0.03 -0.03,0.01 -0.06,0.03 -0.07,0.06 -0.02,0.03 -0.04,0.06 -0.05,0.09 -0.03,0.08 -0.09,0.13 -0.16,0.17 -0.1,0.05 -0.22,0.06 -0.33,0.06 -0.12,0 -0.24,-0.01 -0.35,-0.07 -0.07,-0.04 -0.13,-0.1 -0.15,-0.18 -0.02,-0.05 -0.05,-0.1 -0.1,-0.12 -0.03,-0.02 -0.06,-0 -0.08,0.02 -0.12,-0.06 -0.2,-0.17 -0.22,-0.3 -0.05,-0.04 -0.09,-0.09 -0.1,-0.16 -0.01,-0.03 -0.03,-0.06 -0.05,-0.08 -0.06,-0.05 -0.12,-0.08 -0.19,-0.12 -0.06,-0.03 -0.13,-0.06 -0.2,-0.09 -0.08,-0.03 -0.14,-0.08 -0.21,-0.13 -0.1,-0.08 -0.2,-0.17 -0.28,-0.28 -0.07,-0.1 -0.14,-0.21 -0.15,-0.34 -0.01,-0.08 -0.03,-0.16 -0.06,-0.24 -0.02,-0.04 -0.04,-0.07 -0.07,-0.09 -0.03,-0.03 -0.05,-0.07 -0.07,-0.1 -0.04,-0.08 -0.08,-0.17 -0.1,-0.27 -0.01,-0.07 -0.01,-0.14 0.02,-0.2zm0.02 0.1l0 0c-0,0.03 0,0.07 0.01,0.1 0,-0.03 0,-0.06 0.02,-0.08 0.02,-0.02 0.05,-0.02 0.07,-0.01 0.04,0.02 0.07,0.05 0.09,0.09 -0.02,-0.04 -0.04,-0.08 -0.07,-0.11 -0.02,-0.02 -0.06,-0.04 -0.09,-0.03 -0.02,0 -0.03,0.02 -0.04,0.04zm4.59 -0.02l0 0c-0.04,0.03 -0.06,0.07 -0.08,0.12 0.03,-0.03 0.05,-0.07 0.1,-0.09 0.02,-0.01 0.05,-0.01 0.06,0.01 0.02,0.02 0.02,0.05 0.02,0.08 0.01,-0.03 0.01,-0.06 0.01,-0.09 -0,-0.02 -0.01,-0.04 -0.03,-0.05 -0.03,-0.01 -0.06,0 -0.08,0.02zm-4.36 0.12l0 0c0.03,0.08 0.09,0.16 0.16,0.22 0.13,0.12 0.28,0.21 0.43,0.29 0.15,0.08 0.31,0.17 0.44,0.29 0.09,0.08 0.16,0.19 0.19,0.32 0.02,0.08 0.02,0.16 0.01,0.24 -0,0.01 -0,0.02 -0.01,0.03 0.04,-0.05 0.07,-0.1 0.1,-0.15 0.04,-0.08 0.08,-0.15 0.1,-0.24 0.01,-0.09 -0.01,-0.19 -0.07,-0.26 -0.06,-0.07 -0.14,-0.1 -0.23,-0.13 -0.13,-0.03 -0.26,-0.09 -0.39,-0.14 -0.18,-0.08 -0.35,-0.18 -0.52,-0.29 -0.07,-0.05 -0.13,-0.1 -0.19,-0.16 -0,-0 -0.01,-0.01 -0.01,-0.01zm4.21 0.03l0 0c-0.13,0.12 -0.27,0.21 -0.42,0.3 -0.17,0.1 -0.35,0.18 -0.54,0.24 -0.06,0.02 -0.12,0.03 -0.18,0.06 -0.06,0.03 -0.13,0.06 -0.17,0.12 -0.05,0.06 -0.07,0.15 -0.06,0.23 0.01,0.06 0.03,0.12 0.06,0.18 0.04,0.08 0.08,0.15 0.14,0.23 -0.02,-0.09 -0.02,-0.18 -0,-0.27 0.02,-0.1 0.08,-0.19 0.14,-0.27 0.13,-0.14 0.3,-0.23 0.46,-0.32 0.15,-0.08 0.31,-0.17 0.44,-0.29 0.07,-0.07 0.14,-0.14 0.18,-0.24 -0.01,0.01 -0.02,0.02 -0.04,0.03zm-4.4 0.03l0 0c-0.01,0.02 -0.01,0.04 -0,0.06 0.02,0.05 0.06,0.09 0.1,0.13 0.08,0.06 0.18,0.09 0.28,0.09 -0,-0.01 -0.01,-0.02 -0.02,-0.03 -0.04,-0.04 -0.08,-0.08 -0.12,-0.13 -0.04,-0.05 -0.08,-0.11 -0.14,-0.14 -0.03,-0.01 -0.06,-0.01 -0.08,0.01zm4.53 -0.01l0 0c-0.05,0.03 -0.09,0.07 -0.12,0.12 -0.04,0.06 -0.1,0.12 -0.15,0.17 0.1,-0 0.2,-0.03 0.28,-0.09 0.04,-0.03 0.08,-0.08 0.1,-0.13 0.01,-0.02 0.01,-0.05 -0.01,-0.07 -0.03,-0.02 -0.06,-0.02 -0.09,-0zm-4.35 0.32l0 0c0.07,0.07 0.15,0.12 0.24,0.15 0.12,0.04 0.24,0.07 0.37,0.08 -0.07,-0.06 -0.15,-0.11 -0.23,-0.14 -0.12,-0.05 -0.25,-0.08 -0.38,-0.09zm3.85 0.1l0 0c-0.07,0.03 -0.14,0.07 -0.19,0.13 0.13,-0.01 0.26,-0.04 0.39,-0.08 0.08,-0.03 0.16,-0.08 0.22,-0.14 -0.14,0.01 -0.29,0.04 -0.42,0.1zm-3.75 0.06l0 0c0.03,0.03 0.06,0.06 0.09,0.08 0.14,0.11 0.29,0.19 0.46,0.23 0.13,0.03 0.25,0.11 0.35,0.21 0.04,0.04 0.08,0.08 0.11,0.13 0,-0.11 -0.03,-0.23 -0.11,-0.32 -0.1,-0.11 -0.24,-0.17 -0.38,-0.2 -0.07,-0.02 -0.14,-0.02 -0.21,-0.04 -0.11,-0.02 -0.22,-0.06 -0.32,-0.1zm3.64 0.12l0 0c-0.12,0.02 -0.23,0.04 -0.34,0.1 -0.08,0.04 -0.15,0.1 -0.2,0.18 -0.05,0.08 -0.07,0.17 -0.07,0.26 0.01,-0.01 0.02,-0.03 0.04,-0.05 0.11,-0.13 0.26,-0.25 0.43,-0.29 0.16,-0.04 0.3,-0.12 0.43,-0.21 0.04,-0.03 0.08,-0.06 0.12,-0.1 -0.13,0.06 -0.27,0.1 -0.42,0.12zm-3.6 -0l0 0c-0,0 -0,0.01 -0,0.01 0.01,0.09 0.05,0.18 0.12,0.24 0.05,0.05 0.11,0.07 0.17,0.1 0.07,0.04 0.15,0.07 0.2,0.13 -0.04,-0.09 -0.11,-0.18 -0.19,-0.23 -0.03,-0.02 -0.07,-0.03 -0.11,-0.05 -0.08,-0.04 -0.15,-0.11 -0.19,-0.18zm3.97 0l0 0c-0.05,0.08 -0.12,0.14 -0.19,0.18 -0.03,0.02 -0.07,0.03 -0.1,0.05 -0.09,0.05 -0.16,0.14 -0.2,0.24 0.04,-0.04 0.09,-0.07 0.14,-0.09 0.05,-0.03 0.11,-0.05 0.16,-0.08 0.05,-0.02 0.09,-0.05 0.12,-0.09 0.05,-0.06 0.07,-0.13 0.08,-0.2 -0,-0 -0,-0 -0,-0zm-2.11 0.07l0 0c0.01,0.02 0.02,0.04 0.03,0.06 0.02,0.07 0.01,0.14 -0.02,0.2 -0.03,0.08 -0.09,0.15 -0.15,0.21 -0.02,0.02 -0.05,0.04 -0.08,0.06 -0.05,0.04 -0.09,0.1 -0.12,0.16 0.05,-0.04 0.11,-0.05 0.17,-0.05 0.07,-0 0.13,0.01 0.2,0.02 -0.01,-0.02 -0.01,-0.04 -0.01,-0.06 0,-0.04 0.01,-0.08 0.02,-0.12 0.04,-0.1 0.06,-0.21 0.05,-0.32 -0.01,-0.06 -0.04,-0.13 -0.09,-0.17zm-0.42 0.03l0 0c0.02,0.05 0.02,0.11 -0,0.15 -0.02,0.06 -0.07,0.1 -0.11,0.16 -0.06,0.08 -0.11,0.17 -0.11,0.27 0.01,-0.02 0.02,-0.05 0.04,-0.06 0.03,-0.03 0.08,-0.05 0.12,-0.06 -0.03,0.07 -0.02,0.15 0.04,0.21 0.01,-0.09 0.07,-0.17 0.15,-0.22 0.05,-0.03 0.1,-0.08 0.13,-0.13 0.04,-0.05 0.08,-0.11 0.09,-0.18 0.01,-0.04 0.01,-0.08 -0.01,-0.12 -0.03,-0.03 -0.07,-0.05 -0.11,-0.05 -0.07,-0.01 -0.15,0 -0.22,0.02zm0.58 0.13l0 0c-0.02,0.11 0.01,0.23 0.05,0.33 0.01,0.05 0.03,0.11 0.01,0.17 0.06,-0.02 0.13,-0.03 0.2,-0.02 0.06,0 0.12,0.01 0.17,0.05 -0.03,-0.07 -0.08,-0.13 -0.14,-0.17 -0.08,-0.05 -0.14,-0.12 -0.18,-0.2 -0.04,-0.07 -0.06,-0.15 -0.05,-0.23 0,-0.03 0.02,-0.05 0.03,-0.08 -0.05,0.03 -0.07,0.09 -0.09,0.15zm0.25 -0.14l0 0c-0.04,0.01 -0.09,0.04 -0.1,0.08 -0.01,0.06 0.01,0.12 0.04,0.18 0.05,0.08 0.11,0.16 0.19,0.21 0.07,0.05 0.12,0.11 0.14,0.19 -0,0.01 0,0.02 0,0.02 0.05,-0.05 0.07,-0.14 0.04,-0.21 0.05,0 0.09,0.02 0.13,0.06 0.02,0.02 0.02,0.04 0.04,0.06 -0.01,-0.1 -0.06,-0.2 -0.12,-0.28 -0.03,-0.05 -0.08,-0.09 -0.1,-0.15 -0.02,-0.05 -0.02,-0.11 -0,-0.16 -0,-0 -0.01,-0 -0.01,-0l-0 0c-0.08,-0.01 -0.16,-0.03 -0.24,-0.01zm-1.83 0.14l0 0c0.02,0.07 0.05,0.14 0.09,0.21 0.04,0.08 0.09,0.17 0.15,0.24 0.03,0.04 0.08,0.07 0.11,0.1 0.06,0.06 0.12,0.11 0.16,0.19 0.01,-0.01 0.01,-0.03 0.01,-0.05 0.02,-0.1 -0,-0.21 -0.05,-0.3 -0.05,-0.11 -0.14,-0.19 -0.23,-0.26 -0.08,-0.06 -0.16,-0.1 -0.25,-0.14zm2.75 0.21l0 0c-0.06,0.06 -0.12,0.12 -0.15,0.2 -0.05,0.1 -0.06,0.21 -0.04,0.31 0,0.01 0,0.02 0.01,0.02 0.04,-0.07 0.09,-0.12 0.14,-0.17 0.04,-0.04 0.1,-0.08 0.14,-0.13 0.06,-0.07 0.11,-0.15 0.15,-0.23 0.03,-0.07 0.06,-0.14 0.08,-0.21 -0.12,0.05 -0.23,0.12 -0.33,0.21zm-3.09 -0.11l0 0c0.03,0.05 0.07,0.09 0.1,0.13 0.13,0.14 0.29,0.26 0.47,0.32 -0.03,-0.06 -0.08,-0.12 -0.13,-0.17 -0.13,-0.12 -0.28,-0.22 -0.44,-0.28zm3.36 0.24l0 0c-0.07,0.06 -0.14,0.13 -0.18,0.21 0.15,-0.05 0.28,-0.15 0.4,-0.25 0.06,-0.06 0.13,-0.13 0.17,-0.2 -0.14,0.06 -0.28,0.14 -0.39,0.24zm-2.32 0.17l0 0c-0.02,0.02 -0.03,0.05 -0.04,0.08 -0.04,0.1 -0.04,0.22 -0.02,0.32 0,0 0,0 0,0.01 0.01,-0.03 0.03,-0.06 0.06,-0.08 0.04,-0.02 0.08,-0.02 0.12,-0.02 -0.05,-0.02 -0.08,-0.06 -0.1,-0.11 -0.03,-0.07 -0.03,-0.15 -0.02,-0.23 -0.01,0.01 -0.01,0.02 -0.01,0.03zm0.12 -0.02l0 0c-0.02,0.05 -0.04,0.12 -0.02,0.17 0.01,0.04 0.05,0.06 0.09,0.06 0.02,-0.02 0.05,-0.04 0.05,-0.07 0,-0.03 -0.02,-0.05 -0.04,-0.06 -0.03,-0.03 -0.07,-0.06 -0.08,-0.1zm1.38 0.09l0 0c-0.02,0.02 -0.05,0.04 -0.06,0.07 -0.01,0.04 0.02,0.06 0.05,0.08 0.04,-0 0.08,-0.02 0.09,-0.06 0.02,-0.06 0,-0.12 -0.02,-0.18 -0.01,0.04 -0.04,0.06 -0.06,0.09zm0.16 -0.09l0 0c0.01,0.08 0.01,0.16 -0.02,0.23 -0.02,0.05 -0.05,0.09 -0.1,0.11 0.04,0 0.09,0 0.13,0.03 0.03,0.02 0.04,0.04 0.05,0.07 0.02,-0.1 0.02,-0.21 -0.01,-0.31 -0.01,-0.02 -0.01,-0.04 -0.03,-0.06 -0.01,-0.02 -0.02,-0.04 -0.03,-0.06zm-1.33 0.14l0 0c-0.05,0.04 -0.06,0.11 -0.06,0.17 -0,0.05 0.02,0.1 0.07,0.13 -0.01,-0.03 -0.01,-0.07 0.03,-0.09 0.02,0.08 0.08,0.15 0.15,0.2 0.07,0.04 0.16,0.06 0.24,0.06 -0.04,-0.01 -0.09,-0.02 -0.13,-0.04 -0.06,-0.03 -0.12,-0.07 -0.16,-0.12 -0.03,-0.05 -0.05,-0.11 -0.04,-0.17 0.01,-0.05 0.04,-0.09 0.09,-0.11 0.05,-0.03 0.12,-0.02 0.17,-0.01 0.05,0.01 0.1,0.02 0.15,0.05l0 -0c0.04,-0.02 0.09,-0.03 0.14,-0.04 0.04,-0.01 0.07,-0.02 0.11,-0.01 0.06,0 0.11,0.03 0.14,0.07 0.03,0.04 0.03,0.09 0.02,0.14 -0.01,0.06 -0.05,0.11 -0.1,0.14 -0.07,0.05 -0.15,0.08 -0.23,0.1 0.08,-0 0.17,-0.02 0.24,-0.06 0.07,-0.04 0.13,-0.11 0.15,-0.19 0.03,0.02 0.03,0.06 0.03,0.09 0.02,-0.01 0.04,-0.03 0.05,-0.06 0.02,-0.05 0.01,-0.1 0,-0.15 -0.01,-0.05 -0.05,-0.09 -0.09,-0.12 -0.06,-0.04 -0.14,-0.04 -0.21,-0.04 -0.09,0.01 -0.17,0.02 -0.25,0.04 -0.11,-0.03 -0.22,-0.05 -0.33,-0.04 -0.06,0 -0.13,0.02 -0.18,0.07zm0.17 0.1l0 0c-0.04,0.03 -0.04,0.09 -0.03,0.14 0.01,0.05 0.05,0.1 0.09,0.13 0.07,0.04 0.15,0.05 0.23,0.04 0.02,-0 0.04,-0.01 0.06,-0 0.09,0.01 0.2,0 0.27,-0.06 0.06,-0.05 0.08,-0.13 0.06,-0.2 -0.01,-0.03 -0.03,-0.06 -0.06,-0.07 -0.04,-0.02 -0.08,-0.02 -0.12,-0.02 -0.03,0 -0.05,0.02 -0.07,0.03 -0.04,0.01 -0.08,0.02 -0.11,0.02 -0.05,-0.01 -0.1,-0.02 -0.15,-0.04 -0.06,-0.02 -0.13,-0.01 -0.17,0.03zm-0.51 0.23l0 0c-0.01,0.05 -0,0.1 0.02,0.15 0.02,0.05 0.06,0.1 0.11,0.13 0,-0.02 -0,-0.04 0,-0.06 0.01,-0.05 0.03,-0.1 0.06,-0.13 0.04,-0.04 0.1,-0.05 0.16,-0.05 -0.01,-0.01 -0.02,-0.02 -0.03,-0.03 -0.06,-0.05 -0.15,-0.09 -0.23,-0.08 -0.04,0 -0.08,0.03 -0.09,0.07zm1.36 0.02l0 0c-0.01,0.01 -0.01,0.02 -0.02,0.02 0.06,-0 0.13,0.02 0.18,0.06 0.04,0.05 0.05,0.11 0.05,0.18 0.05,-0.03 0.09,-0.07 0.11,-0.13l-0 -0c0.01,-0.03 0.02,-0.07 0.02,-0.1 0,-0.03 -0.01,-0.07 -0.03,-0.1 -0.03,-0.03 -0.08,-0.03 -0.12,-0.02 -0.07,0.01 -0.13,0.04 -0.18,0.08zm-1.06 0.07l0 0c-0.01,0.07 0.03,0.14 0.1,0.17 -0,-0.01 -0.01,-0.02 -0.01,-0.02 -0.01,-0.04 -0,-0.09 0.03,-0.12 -0.01,-0.02 -0.04,-0.03 -0.06,-0.03 -0.02,0 -0.03,0.01 -0.05,0.01zm0.98 0.02l0 0c0.02,0.02 0.03,0.05 0.03,0.07 0,0.02 -0,0.04 -0,0.06 -0,0 -0.01,0.01 -0.01,0.02 0.07,-0.03 0.1,-0.1 0.1,-0.17 -0.02,-0.01 -0.04,-0.01 -0.06,-0.01 -0.02,0 -0.04,0.02 -0.05,0.03zm-0.8 0.04l0 0c-0,0.08 0.01,0.16 0.07,0.22 0.07,0.07 0.17,0.09 0.26,0.09 0.05,-0 0.1,0 0.15,-0 0.07,-0.01 0.14,-0.04 0.19,-0.09 0.05,-0.06 0.06,-0.13 0.06,-0.21 -0.09,0.04 -0.19,0.05 -0.28,0.05 -0.03,0 -0.07,-0 -0.1,-0 -0.12,0.01 -0.23,-0.01 -0.34,-0.05zm-0.08 0.3l0 0c0,-0.05 -0.02,-0.1 -0.06,-0.14 -0.02,-0.02 -0.05,-0.04 -0.07,-0.07 -0.02,-0.02 -0.02,-0.05 -0.02,-0.08 -0.02,0.11 0.05,0.23 0.15,0.29zm1.05 -0.29l0 0c-0,0.03 -0.01,0.06 -0.03,0.08 -0.02,0.03 -0.04,0.04 -0.06,0.06 -0.04,0.04 -0.06,0.09 -0.06,0.14 0.1,-0.05 0.17,-0.17 0.15,-0.29zm-0.97 0.15l0 0c-0.04,0.04 -0.04,0.1 -0.02,0.15 0.02,0.01 0.04,0.02 0.06,0.02 0.02,-0 0.04,-0.02 0.05,-0.04 -0.02,-0.01 -0.04,-0.01 -0.05,-0.03 -0.03,-0.03 -0.03,-0.07 -0.03,-0.11 -0,0 -0.01,0.01 -0.01,0.01zm0.74 -0.01l0 0c-0,0.03 -0,0.06 -0.02,0.09 -0.01,0.03 -0.04,0.04 -0.06,0.05 0.01,0.02 0.03,0.03 0.05,0.04 0.02,0 0.04,-0 0.06,-0.02 0.02,-0.05 0.01,-0.11 -0.02,-0.15 -0,-0.01 -0.01,-0.01 -0.01,-0.01zm-0.78 0.25l0 0c-0,0 -0,0.01 0,0.01 0.04,0.04 0.08,0.06 0.13,0.08 0.09,0.04 0.19,0.04 0.28,0.03 0.07,0 0.14,0 0.21,-0.01 0.07,-0.02 0.14,-0.05 0.2,-0.1 -0.03,-0.03 -0.06,-0.06 -0.1,-0.07 -0.05,-0.01 -0.11,0 -0.16,0.01 -0.05,0.01 -0.1,0.01 -0.14,0.01 -0.04,0 -0.08,0.01 -0.12,0 -0.05,-0.01 -0.1,-0.02 -0.15,-0.02 -0.05,-0 -0.11,0.02 -0.14,0.06z"/>
     </g>
     <path class="fil1" d="M2.18 1.93c0.03,-0.02 0.06,-0.03 0.1,-0.02 0.03,0.01 0.05,0.03 0.05,0.06 -0.01,0.04 0.01,0.08 0.03,0.11 -0.05,0.01 -0.11,0 -0.16,-0.03 -0.02,-0.02 -0.05,-0.04 -0.05,-0.07 -0,-0.02 0.01,-0.04 0.03,-0.05z"/>
     <path class="fil1" d="M2.58 1.92c0.04,-0.02 0.08,-0.02 0.12,0 0.02,0.01 0.04,0.03 0.03,0.06 -0.01,0.03 -0.03,0.06 -0.06,0.07 -0.04,0.03 -0.1,0.03 -0.15,0.02 0.01,-0.03 0.03,-0.07 0.03,-0.11 -0,-0.02 0.01,-0.04 0.03,-0.05z"/>
    </g>
    <g>
     <path class="fil2" d="M0.09 0.18c0,-0.02 0.02,-0.04 0.04,-0.04 0.03,-0.01 0.07,0.01 0.09,0.03 0.03,0.03 0.05,0.07 0.07,0.11 -0.03,-0.03 -0.05,-0.07 -0.09,-0.09 -0.02,-0.01 -0.05,-0.01 -0.07,0.01 -0.02,0.02 -0.02,0.05 -0.02,0.08 -0.01,-0.03 -0.02,-0.06 -0.01,-0.1z"/>
     <path class="fil2" d="M4.69 0.16c0.02,-0.02 0.05,-0.03 0.08,-0.02 0.02,0.01 0.03,0.03 0.03,0.05 0,0.03 -0,0.06 -0.01,0.09 -0,-0.03 -0,-0.06 -0.02,-0.08 -0.02,-0.02 -0.04,-0.02 -0.06,-0.01 -0.04,0.02 -0.07,0.05 -0.1,0.09 0.02,-0.04 0.04,-0.09 0.08,-0.12z"/>
     <path class="fil2" d="M4.53 0.32c0.01,-0.01 0.02,-0.02 0.04,-0.03 -0.04,0.09 -0.1,0.17 -0.18,0.24 -0.13,0.12 -0.29,0.21 -0.44,0.29 -0.16,0.09 -0.33,0.18 -0.46,0.32 -0.07,0.08 -0.12,0.17 -0.14,0.27 -0.02,0.09 -0.02,0.18 0,0.27 -0.05,-0.07 -0.1,-0.15 -0.14,-0.23 -0.03,-0.06 -0.05,-0.12 -0.06,-0.18 -0.01,-0.08 0.01,-0.16 0.06,-0.23 0.04,-0.06 0.1,-0.09 0.17,-0.12 0.06,-0.02 0.12,-0.04 0.18,-0.06 0.19,-0.06 0.37,-0.15 0.54,-0.24 0.15,-0.09 0.29,-0.18 0.42,-0.3z"/>
     <path class="fil2" d="M0.56 0.49c-0.01,-0.01 -0.03,-0.02 -0.03,-0.03 0.16,0.12 0.34,0.21 0.52,0.29 0.13,0.06 0.26,0.11 0.39,0.14 0.08,0.02 0.17,0.06 0.23,0.13 0.06,0.07 0.08,0.17 0.07,0.26 -0.02,0.09 -0.06,0.16 -0.1,0.24 -0.03,0.05 -0.06,0.1 -0.1,0.15 0,-0.01 0,-0.02 0.01,-0.03 0.05,-0.07 0.09,-0.15 0.11,-0.23 0.03,-0.11 0.01,-0.23 -0.06,-0.32 -0.07,-0.08 -0.17,-0.13 -0.27,-0.17 -0.15,-0.06 -0.3,-0.14 -0.45,-0.21 -0.12,-0.06 -0.23,-0.13 -0.33,-0.22z"/>
     <path class="fil2" d="M2.11 1.07c0.03,0.01 0.06,0.03 0.07,0.07 0.01,0.05 -0.01,0.09 -0.04,0.13 -0.07,0.1 -0.16,0.17 -0.24,0.26 -0.01,0.01 -0.02,0.03 -0.04,0.05 0,-0.06 0.04,-0.11 0.08,-0.15 0.04,-0.04 0.08,-0.08 0.12,-0.13 0.03,-0.04 0.06,-0.1 0.06,-0.15 0,-0.03 -0.01,-0.05 -0.02,-0.08z"/>
     <path class="fil2" d="M1.61 1.67c0,-0.01 0.01,-0.02 0.01,-0.03 -0.01,0.08 -0.01,0.16 0.02,0.23 0.02,0.05 0.05,0.09 0.1,0.11 -0.04,-0 -0.08,0 -0.12,0.02 -0.04,-0.06 -0.04,-0.14 -0.03,-0.21 0,-0.04 0.02,-0.08 0.02,-0.12z"/>
     <g>
      <path class="fil2" d="M2.55 1.87c0.03,-0.01 0.05,-0.02 0.07,-0.03 0.04,-0.01 0.08,-0 0.12,0.02 0.03,0.01 0.05,0.04 0.06,0.07 0.02,0.07 -0,0.15 -0.06,0.2 -0.08,0.06 -0.18,0.07 -0.27,0.06 -0.01,-0 -0.01,-0.01 -0.01,-0.01 -0,-0.1 0,-0.19 -0,-0.29 -0,-0 -0.01,-0 -0.01,-0 0.04,-0 0.08,-0.01 0.11,-0.02zm0.04 0.05l0 0c-0.02,0.01 -0.03,0.03 -0.03,0.05 0,0.04 -0.02,0.07 -0.03,0.11 0.05,0.01 0.1,0 0.15,-0.02 0.03,-0.02 0.05,-0.04 0.06,-0.07 0,-0.02 -0.01,-0.05 -0.03,-0.06 -0.04,-0.02 -0.08,-0.03 -0.12,-0z"/>
     </g>
     <path class="fil2" d="M1.6 2.11c0.01,-0.04 0.05,-0.07 0.09,-0.07 0.08,-0.01 0.17,0.03 0.23,0.08 -0.01,0.01 -0.03,-0 -0.04,-0 -0.07,-0.02 -0.14,-0.02 -0.2,0.02 -0.04,0.03 -0.05,0.08 -0.07,0.13 -0.02,-0.05 -0.03,-0.1 -0.02,-0.15z"/>
     <path class="fil2" d="M2.96 2.13c0.05,-0.04 0.11,-0.07 0.18,-0.08 0.04,-0.01 0.09,-0.01 0.12,0.02 0.03,0.02 0.03,0.06 0.03,0.1 -0,0.03 -0.01,0.07 -0.02,0.1 -0.01,-0.04 -0.02,-0.09 -0.06,-0.12 -0.04,-0.03 -0.1,-0.04 -0.15,-0.03 -0.04,0 -0.07,0.01 -0.11,0.02z"/>
    </g>
    <g>
     <path class="fil3" d="M0.32 0.28c0,0 0.01,0.01 0.01,0.01 0.06,0.06 0.13,0.11 0.19,0.16 0,0.01 0.02,0.02 0.03,0.03 0.1,0.08 0.21,0.16 0.33,0.22 0.15,0.08 0.29,0.15 0.45,0.21 0.1,0.04 0.2,0.09 0.27,0.17 0.07,0.09 0.08,0.21 0.06,0.32 -0.02,0.08 -0.06,0.16 -0.11,0.23 0.01,-0.08 0.01,-0.16 -0.01,-0.24 -0.03,-0.12 -0.1,-0.23 -0.19,-0.32 -0.13,-0.12 -0.29,-0.2 -0.44,-0.29 -0.15,-0.08 -0.31,-0.17 -0.43,-0.29 -0.06,-0.06 -0.12,-0.13 -0.16,-0.22z"/>
     <path class="fil3" d="M2.32 1.01c0.05,0.04 0.08,0.1 0.09,0.17 0.01,0.11 -0.01,0.21 -0.05,0.32 -0.01,0.04 -0.02,0.08 -0.02,0.12 -0,0.02 0,0.04 0.01,0.06 -0.07,-0.02 -0.13,-0.03 -0.2,-0.02 -0.06,0 -0.12,0.01 -0.17,0.05 0.03,-0.06 0.07,-0.11 0.12,-0.16 0.02,-0.02 0.05,-0.03 0.08,-0.06 0.07,-0.06 0.12,-0.13 0.15,-0.21 0.03,-0.06 0.04,-0.13 0.02,-0.2 -0.01,-0.02 -0.02,-0.04 -0.03,-0.06z"/>
     <g>
      <path class="fil3" d="M1.9 1.04c0.07,-0.01 0.15,-0.03 0.22,-0.02 0.04,0.01 0.08,0.02 0.11,0.05 0.02,0.03 0.02,0.08 0.01,0.12 -0.02,0.07 -0.05,0.12 -0.09,0.18 -0.04,0.05 -0.08,0.09 -0.13,0.13 -0.08,0.05 -0.14,0.13 -0.15,0.22 -0.05,-0.06 -0.07,-0.14 -0.04,-0.21 -0.05,0 -0.09,0.02 -0.12,0.06 -0.02,0.02 -0.03,0.04 -0.04,0.06 0.01,-0.1 0.06,-0.19 0.11,-0.27 0.04,-0.05 0.08,-0.1 0.11,-0.16 0.02,-0.05 0.02,-0.11 0,-0.15zm0.21 0.03l0 0c0.01,0.02 0.02,0.05 0.02,0.08 -0,0.06 -0.03,0.11 -0.06,0.15 -0.04,0.05 -0.08,0.08 -0.12,0.13 -0.04,0.04 -0.07,0.09 -0.08,0.15 0.01,-0.02 0.02,-0.03 0.04,-0.05 0.08,-0.09 0.17,-0.16 0.24,-0.26 0.03,-0.04 0.05,-0.08 0.04,-0.13 -0.01,-0.03 -0.04,-0.06 -0.07,-0.07z"/>
     </g>
     <path class="fil3" d="M2.73 1.03c0.08,-0.02 0.16,-0.01 0.24,0.01 -0.02,0.01 -0.04,0.01 -0.06,0.01 -0.06,0.01 -0.12,0.04 -0.15,0.1 -0.03,0.05 -0.01,0.11 0.02,0.15 0.04,0.08 0.11,0.13 0.16,0.2 0.04,0.05 0.07,0.11 0.07,0.18 -0,0 -0,0.01 -0.01,0.01 -0.02,-0.08 -0.07,-0.15 -0.14,-0.19 -0.08,-0.05 -0.14,-0.13 -0.19,-0.21 -0.03,-0.05 -0.05,-0.11 -0.04,-0.18 0.01,-0.05 0.05,-0.07 0.1,-0.08z"/>
     <path class="fil3" d="M3.27 1.65c0.01,0.02 0.02,0.04 0.03,0.06 0.02,0.1 0.02,0.21 -0.02,0.3 -0.04,-0.02 -0.09,-0.02 -0.13,-0.03 0.05,-0.02 0.08,-0.06 0.1,-0.11 0.03,-0.07 0.03,-0.15 0.02,-0.23z"/>
     <path class="fil3" d="M1.57 1.75c0.01,-0.03 0.02,-0.05 0.04,-0.08 -0,0.04 -0.02,0.08 -0.02,0.12 -0.01,0.07 -0.01,0.15 0.03,0.21 -0.03,0.02 -0.05,0.04 -0.06,0.08 -0,-0 -0,-0 -0,-0.01 -0.02,-0.11 -0.02,-0.22 0.02,-0.32z"/>
     <path class="fil3" d="M1.94 1.79c0.05,-0.05 0.11,-0.06 0.18,-0.07 0.11,-0.01 0.22,0.02 0.33,0.04 -0,0.03 0,0.06 -0,0.08l-0 0c-0.05,-0.02 -0.1,-0.03 -0.15,-0.05 -0.06,-0.01 -0.12,-0.02 -0.17,0.01 -0.04,0.02 -0.08,0.06 -0.09,0.11 -0.01,0.06 0,0.12 0.04,0.17 0.04,0.06 0.1,0.09 0.16,0.12 0.04,0.02 0.08,0.03 0.13,0.04 -0.08,-0 -0.17,-0.02 -0.24,-0.06 -0.07,-0.04 -0.13,-0.11 -0.15,-0.2 -0.03,0.02 -0.04,0.06 -0.03,0.09 -0.05,-0.02 -0.07,-0.08 -0.07,-0.13 0,-0.06 0.02,-0.13 0.06,-0.17z"/>
     <path class="fil3" d="M1.69 2.13c0.06,-0.04 0.13,-0.04 0.2,-0.02 0.01,0 0.03,0.01 0.04,0 0.01,0.01 0.02,0.02 0.03,0.03 -0.06,-0 -0.11,0.01 -0.16,0.05 -0.04,0.03 -0.06,0.08 -0.06,0.13 -0,0.02 -0,0.04 -0,0.06 -0.05,-0.03 -0.09,-0.07 -0.11,-0.13 0.01,-0.05 0.02,-0.1 0.07,-0.13z"/>
     <path class="fil3" d="M2.96 2.13c0.04,-0.01 0.07,-0.02 0.11,-0.02 0.05,-0 0.11,0 0.15,0.03 0.04,0.03 0.05,0.08 0.06,0.12l0 0c-0.02,0.05 -0.06,0.1 -0.11,0.13 0,-0.06 -0.01,-0.13 -0.05,-0.18 -0.04,-0.05 -0.11,-0.07 -0.18,-0.06 0.01,-0.01 0.01,-0.02 0.02,-0.02z"/>
    </g>
    <g>
     <path class="fil4" d="M0.13 0.34c0.02,-0.02 0.06,-0.02 0.08,-0.01 0.06,0.03 0.11,0.08 0.14,0.14 0.04,0.05 0.08,0.09 0.12,0.13 0.01,0.01 0.02,0.01 0.02,0.03 -0.1,-0 -0.2,-0.03 -0.28,-0.09 -0.04,-0.03 -0.08,-0.08 -0.1,-0.13 -0.01,-0.02 -0.01,-0.05 0,-0.06z"/>
     <path class="fil4" d="M4.66 0.34c0.03,-0.01 0.06,-0.02 0.09,0 0.02,0.02 0.02,0.04 0.01,0.07 -0.02,0.05 -0.05,0.1 -0.1,0.13 -0.08,0.06 -0.18,0.09 -0.28,0.09 0.05,-0.05 0.11,-0.11 0.15,-0.17 0.03,-0.05 0.07,-0.09 0.12,-0.12z"/>
     <path class="fil4" d="M0.31 0.66c0.13,0.01 0.26,0.04 0.38,0.09 0.08,0.04 0.16,0.08 0.23,0.14 -0.12,-0.01 -0.25,-0.03 -0.37,-0.08 -0.09,-0.03 -0.18,-0.08 -0.24,-0.15z"/>
     <path class="fil4" d="M4.16 0.76c0.13,-0.06 0.28,-0.1 0.42,-0.1 -0.06,0.07 -0.14,0.11 -0.22,0.14 -0.12,0.05 -0.25,0.08 -0.39,0.08 0.05,-0.05 0.12,-0.09 0.19,-0.13z"/>
     <path class="fil4" d="M0.41 0.82c0.1,0.04 0.21,0.08 0.32,0.1 0.07,0.02 0.14,0.02 0.21,0.04 0.14,0.03 0.28,0.09 0.38,0.2 0.08,0.09 0.11,0.2 0.11,0.32 -0.04,-0.05 -0.07,-0.09 -0.11,-0.13 -0.1,-0.1 -0.22,-0.17 -0.35,-0.21 -0.17,-0.04 -0.32,-0.13 -0.46,-0.23 -0.03,-0.03 -0.07,-0.05 -0.09,-0.08z"/>
     <path class="fil4" d="M4.06 0.94c0.14,-0.02 0.28,-0.06 0.42,-0.12 -0.04,0.04 -0.08,0.07 -0.12,0.1 -0.13,0.1 -0.27,0.18 -0.43,0.21 -0.17,0.04 -0.32,0.16 -0.43,0.29 -0.01,0.01 -0.02,0.03 -0.04,0.05 -0,-0.09 0.02,-0.18 0.07,-0.26 0.05,-0.08 0.12,-0.14 0.2,-0.18 0.1,-0.05 0.22,-0.08 0.34,-0.1z"/>
     <path class="fil4" d="M0.46 0.94c0.05,0.08 0.12,0.14 0.19,0.18 0.03,0.02 0.07,0.03 0.11,0.05 0.09,0.05 0.15,0.14 0.19,0.23 -0.06,-0.06 -0.13,-0.09 -0.2,-0.13 -0.06,-0.03 -0.12,-0.05 -0.17,-0.1 -0.07,-0.06 -0.11,-0.15 -0.12,-0.24 0,-0 0,-0.01 0,-0.01z"/>
     <path class="fil4" d="M4.43 0.94c0,0 0,0 0,0 -0.01,0.07 -0.03,0.14 -0.08,0.2 -0.03,0.04 -0.07,0.07 -0.12,0.09 -0.05,0.03 -0.11,0.05 -0.16,0.08 -0.05,0.03 -0.1,0.05 -0.14,0.09 0.04,-0.1 0.11,-0.18 0.2,-0.24 0.03,-0.02 0.07,-0.03 0.1,-0.05 0.08,-0.04 0.15,-0.1 0.19,-0.18z"/>
     <path class="fil4" d="M2.48 1.17c0.01,-0.06 0.03,-0.12 0.09,-0.15 -0.01,0.03 -0.03,0.05 -0.03,0.08 -0.02,0.08 0.01,0.16 0.05,0.23 0.04,0.08 0.1,0.15 0.18,0.2 0.06,0.04 0.11,0.1 0.14,0.17 -0.05,-0.03 -0.11,-0.05 -0.17,-0.05 -0.07,-0 -0.13,0.01 -0.2,0.02 0.02,-0.06 -0,-0.11 -0.01,-0.17 -0.04,-0.11 -0.07,-0.22 -0.05,-0.33z"/>
     <path class="fil4" d="M2.97 1.04l0 -0c0,0 0.01,0 0.01,0 -0.02,0.05 -0.02,0.11 0,0.16 0.02,0.06 0.07,0.1 0.1,0.15 0.06,0.08 0.11,0.18 0.12,0.28 -0.01,-0.02 -0.02,-0.04 -0.04,-0.06 -0.03,-0.04 -0.08,-0.06 -0.13,-0.06 0.03,0.07 0.02,0.16 -0.04,0.21 -0,-0.01 -0.01,-0.02 -0,-0.02 0,-0 0,-0.01 0.01,-0.01 -0,-0.06 -0.03,-0.13 -0.07,-0.18 -0.05,-0.07 -0.12,-0.13 -0.16,-0.2 -0.03,-0.05 -0.04,-0.1 -0.02,-0.15 0.03,-0.05 0.09,-0.08 0.15,-0.1 0.02,-0.01 0.04,-0 0.06,-0.01z"/>
     <path class="fil4" d="M0.9 1.17c0.09,0.04 0.17,0.08 0.25,0.14 0.09,0.07 0.18,0.15 0.23,0.26 0.05,0.09 0.06,0.2 0.05,0.3 -0,0.02 -0,0.03 -0.01,0.05 -0.04,-0.07 -0.1,-0.13 -0.16,-0.19 -0.04,-0.04 -0.08,-0.07 -0.11,-0.1 -0.06,-0.07 -0.11,-0.15 -0.15,-0.24 -0.03,-0.07 -0.06,-0.14 -0.09,-0.21z"/>
     <path class="fil4" d="M3.65 1.37c0.1,-0.09 0.21,-0.15 0.33,-0.21 -0.02,0.07 -0.05,0.14 -0.08,0.21 -0.04,0.08 -0.09,0.16 -0.15,0.23 -0.04,0.05 -0.09,0.08 -0.14,0.13 -0.05,0.05 -0.11,0.1 -0.14,0.17 -0.01,-0.01 -0.01,-0.01 -0.01,-0.02 -0.02,-0.1 -0.01,-0.22 0.04,-0.31 0.04,-0.08 0.09,-0.14 0.15,-0.2z"/>
     <path class="fil4" d="M0.57 1.26c0.16,0.07 0.31,0.16 0.44,0.28 0.05,0.05 0.1,0.11 0.13,0.17 -0.18,-0.07 -0.34,-0.18 -0.47,-0.32 -0.04,-0.04 -0.07,-0.08 -0.1,-0.13z"/>
     <path class="fil4" d="M3.93 1.5c0.12,-0.1 0.25,-0.18 0.39,-0.24 -0.05,0.07 -0.11,0.14 -0.17,0.2 -0.12,0.11 -0.25,0.2 -0.4,0.25 0.04,-0.08 0.11,-0.15 0.18,-0.21z"/>
     <path class="fil4" d="M3.3 1.71c0.01,0.02 0.02,0.04 0.03,0.06 0.03,0.1 0.03,0.21 0.01,0.31 -0.01,-0.03 -0.03,-0.06 -0.05,-0.07 0.04,-0.1 0.04,-0.2 0.02,-0.3z"/>
     <path class="fil4" d="M2.44 1.76c0.08,-0.02 0.17,-0.04 0.25,-0.04 0.07,-0 0.15,0 0.21,0.04 0.04,0.02 0.08,0.07 0.09,0.12 0.01,0.05 0.02,0.1 -0,0.15 -0.01,0.02 -0.03,0.04 -0.05,0.06 0.01,-0.03 0.01,-0.07 -0.03,-0.09 -0.02,0.08 -0.07,0.15 -0.15,0.19 -0.07,0.04 -0.16,0.06 -0.24,0.06 0.08,-0.02 0.16,-0.05 0.23,-0.1 0.05,-0.04 0.08,-0.08 0.1,-0.14 0.01,-0.05 0.01,-0.1 -0.02,-0.14 -0.03,-0.05 -0.09,-0.07 -0.14,-0.07 -0.04,-0 -0.08,0 -0.11,0.01 -0.05,0.01 -0.09,0.02 -0.14,0.04 0,-0.03 0,-0.06 0,-0.08z"/>
     <path class="fil4" d="M2 2.56c-0.1,-0.05 -0.17,-0.17 -0.15,-0.29 0,0.03 0.01,0.06 0.02,0.08 0.02,0.03 0.05,0.04 0.07,0.07 0.04,0.04 0.06,0.09 0.06,0.14z"/>
     <path class="fil4" d="M3.04 2.27c0.02,0.11 -0.05,0.23 -0.15,0.29 -0,-0.05 0.02,-0.1 0.06,-0.14 0.02,-0.02 0.05,-0.04 0.06,-0.06 0.02,-0.02 0.02,-0.05 0.03,-0.08z"/>
     <path class="fil4" d="M2.04 2.66c0.03,-0.04 0.09,-0.06 0.14,-0.06 0.05,-0 0.1,0.01 0.15,0.02 0.04,0 0.08,0 0.12,-0 0.05,0.01 0.1,0.01 0.14,-0.01 0.05,-0.01 0.1,-0.02 0.16,-0.01 0.04,0.01 0.08,0.03 0.1,0.07 -0.05,0.05 -0.12,0.09 -0.2,0.1 -0.07,0.02 -0.14,0.02 -0.21,0.01 -0.1,0.01 -0.19,0 -0.28,-0.03 -0.05,-0.02 -0.09,-0.04 -0.13,-0.08 -0,-0 -0,-0.01 -0,-0.01z"/>
    </g>
    <g>
     <path class="fil5" d="M1.72 1.65c0.01,0.04 0.05,0.07 0.08,0.1 0.02,0.02 0.04,0.03 0.04,0.06 -0,0.03 -0.03,0.05 -0.05,0.07 -0.04,-0 -0.08,-0.02 -0.09,-0.06 -0.02,-0.06 -0,-0.12 0.02,-0.17z"/>
     <path class="fil5" d="M3.1 1.73c0.03,-0.02 0.06,-0.05 0.06,-0.09 0.02,0.05 0.04,0.12 0.02,0.18 -0.01,0.04 -0.05,0.06 -0.09,0.06 -0.03,-0.02 -0.06,-0.04 -0.05,-0.08 0.01,-0.03 0.04,-0.05 0.06,-0.07z"/>
    </g>
    <g>
     <g>
      <path class="fil6" d="M2.11 1.88c0.05,-0.04 0.12,-0.05 0.17,-0.03 0.05,0.02 0.1,0.03 0.15,0.04 0,0 0.01,0 0.01,0 0,0.1 0,0.19 0,0.29 0,0 0.01,0.01 0.01,0.01 -0.02,-0 -0.04,0 -0.06,0 -0.08,0 -0.16,-0 -0.23,-0.04 -0.05,-0.03 -0.08,-0.07 -0.09,-0.13 -0.01,-0.05 -0,-0.1 0.03,-0.14zm0.07 0.04l0 0c-0.02,0.01 -0.03,0.03 -0.03,0.05 0,0.03 0.02,0.05 0.05,0.07 0.05,0.03 0.11,0.04 0.16,0.03 -0.02,-0.04 -0.03,-0.07 -0.03,-0.11 -0,-0.03 -0.03,-0.05 -0.05,-0.06 -0.03,-0.01 -0.07,0 -0.1,0.02z"/>
     </g>
     <path class="fil6" d="M1.95 2.18c0.02,0 0.05,0.01 0.06,0.03 -0.03,0.03 -0.03,0.08 -0.03,0.12 -0.01,-0.01 -0.01,-0.02 -0.02,-0.03 -0.02,-0.04 -0.03,-0.09 -0.02,-0.13z"/>
     <path class="fil6" d="M2.88 2.22c0.01,-0.02 0.03,-0.03 0.05,-0.03 0,0.03 0.01,0.07 0,0.1 -0,0.02 -0.01,0.05 -0.03,0.06 0,-0.02 0.01,-0.04 0,-0.06 -0,-0.03 -0.01,-0.05 -0.03,-0.07z"/>
     <path class="fil6" d="M2.07 2.42c0,-0 0.01,-0.01 0.01,-0.01 0,0.04 0.01,0.08 0.03,0.11 0.01,0.01 0.03,0.02 0.05,0.03 -0.01,0.02 -0.03,0.03 -0.05,0.04 -0.04,-0.04 -0.05,-0.11 -0.04,-0.17z"/>
     <path class="fil6" d="M2.81 2.41c0,0 0.01,0.01 0.01,0.01 0,0.06 -0,0.12 -0.04,0.16 -0.02,-0 -0.04,-0.02 -0.05,-0.04 0.03,-0.01 0.05,-0.03 0.06,-0.05 0.01,-0.03 0.02,-0.06 0.02,-0.09z"/>
    </g>
    <g>
     <path class="fil7" d="M2.08 2.25c0.11,0.04 0.23,0.05 0.34,0.05 0.03,-0 0.07,0 0.1,0 0.1,0 0.19,-0.01 0.28,-0.05 0.01,0.07 -0.01,0.15 -0.06,0.21 -0.05,0.06 -0.12,0.08 -0.19,0.09 -0.05,0.01 -0.1,0 -0.15,0 -0.09,0 -0.19,-0.02 -0.26,-0.09 -0.06,-0.06 -0.07,-0.14 -0.07,-0.22z"/>
    </g>
   </g>
   <path class="fil8" d="M1.72 1.65c-0.02,0.05 -0.04,0.12 -0.02,0.17 0.01,0.03 0.05,0.05 0.08,0.06 -0.05,-0.04 -0.07,-0.1 -0.05,-0.2 -0.01,-0.01 -0.01,-0.02 -0.01,-0.03z"/>
   <path class="fil8" d="M3.15 1.69c0.02,0.08 0.01,0.14 -0.03,0.19 0.03,-0.01 0.06,-0.02 0.07,-0.05 0.02,-0.06 0,-0.12 -0.02,-0.18 -0,0.01 -0.01,0.03 -0.02,0.04z"/>
  </g>
 </g>
</svg>
