<?xml version="1.0" encoding="UTF-8"?>
<!DOCTYPE svg PUBLIC "-//W3C//DTD SVG 1.1//EN" "http://www.w3.org/Graphics/SVG/1.1/DTD/svg11.dtd">
<!-- Creator: CorelDRAW 2018 (64-Bit) -->
<svg xmlns="http://www.w3.org/2000/svg" xml:space="preserve" width="0.525913in" height="0.521453in" version="1.1" style="shape-rendering:geometricPrecision; text-rendering:geometricPrecision; image-rendering:optimizeQuality; fill-rule:evenodd; clip-rule:evenodd"
viewBox="0 0 4.38 4.35"
 xmlns:xlink="http://www.w3.org/1999/xlink">
 <defs>
  <style type="text/css">
   <![CDATA[
    .str0 {stroke:#2B2A29;stroke-width:0;stroke-miterlimit:2.61313}
    .fil6 {fill:none}
    .fil7 {fill:#C79933}
    .fil8 {fill:#FBEB58}
    .fil2 {fill:black;fill-rule:nonzero}
    .fil5 {fill:#82533C;fill-rule:nonzero}
    .fil4 {fill:#A46848;fill-rule:nonzero}
    .fil3 {fill:#D59276;fill-rule:nonzero}
    .fil0 {fill:white;fill-rule:nonzero}
    .fil1 {fill:white;fill-rule:nonzero}
   ]]>
  </style>
 </defs>
 <g id="Layer_x0020_1">
  <metadata id="CorelCorpID_0Corel-Layer"/>
  <g id="_988856592">
   <g>
    <path class="fil0" d="M1.48 1.64c0.07,-0.01 0.14,0 0.2,0.04 0.05,0.03 0.1,0.07 0.13,0.12 -0.04,0.03 -0.08,0.05 -0.13,0.05 -0.11,-0 -0.2,-0.1 -0.2,-0.21z"/>
    <path class="fil0" d="M2.75 1.66c0.05,-0.02 0.11,-0.02 0.16,-0.02 -0,0.11 -0.1,0.21 -0.21,0.21 -0.05,0 -0.09,-0.02 -0.12,-0.05 0.04,-0.06 0.1,-0.12 0.17,-0.14z"/>
    <path class="fil1" d="M0.66 0.03c0.11,-0.03 0.23,-0.04 0.35,-0.01 0.15,0.04 0.24,0.18 0.37,0.23 0.04,0.01 0.09,0.05 0.13,0.02 0.22,-0.08 0.46,-0.07 0.67,-0 0.09,-0.02 0.18,-0.05 0.27,-0.05 0.14,-0.01 0.28,0.01 0.41,0.06 0.01,0 0.03,0.01 0.04,0.01 0.07,-0.02 0.14,-0.05 0.19,-0.09 0.07,-0.05 0.13,-0.11 0.2,-0.14 0.09,-0.04 0.19,-0.04 0.28,-0.03 0.15,0.01 0.3,0.08 0.42,0.18 0.12,0.11 0.2,0.26 0.2,0.43 0.01,0.19 -0.06,0.38 -0.21,0.5 0.2,0.23 0.32,0.53 0.37,0.83 0.05,0.32 0.03,0.66 -0.09,0.97 -0.07,0.17 -0.17,0.33 -0.31,0.45 -0.09,0.08 -0.2,0.15 -0.32,0.19 -0.07,0.03 -0.14,0.06 -0.2,0.1 -0.13,0.09 -0.28,0.16 -0.43,0.21 -0.08,0.02 -0.15,0.03 -0.23,0.05 -0.02,0 -0.04,0.02 -0.05,0.03 -0.14,0.12 -0.29,0.24 -0.45,0.34 -0.03,0.02 -0.05,0.04 -0.08,0.05 -0.2,-0.12 -0.38,-0.27 -0.56,-0.43 -0.08,-0.02 -0.15,-0.03 -0.23,-0.05 -0.18,-0.05 -0.34,-0.13 -0.49,-0.24 -0.13,-0.07 -0.26,-0.11 -0.38,-0.19 -0.24,-0.16 -0.39,-0.42 -0.47,-0.7 -0.1,-0.36 -0.08,-0.76 0.04,-1.11 0.05,-0.16 0.13,-0.32 0.24,-0.45 0.02,-0.02 0.04,-0.04 0.05,-0.07 -0.11,-0.08 -0.18,-0.21 -0.2,-0.34 -0.03,-0.13 -0.01,-0.27 0.05,-0.4 0.08,-0.17 0.24,-0.29 0.42,-0.34zm-0.01 0.07l0 0c-0.15,0.05 -0.28,0.16 -0.35,0.3 -0.07,0.14 -0.07,0.31 -0.02,0.45 0.04,0.1 0.11,0.2 0.22,0.24 -0.05,0.05 -0.09,0.11 -0.14,0.16 -0.19,0.28 -0.29,0.63 -0.3,0.97 -0.01,0.32 0.06,0.66 0.26,0.92 0.1,0.14 0.24,0.25 0.39,0.33 -0.07,-0.09 -0.13,-0.17 -0.17,-0.28 -0.01,-0.03 -0.02,-0.06 -0.02,-0.09 0.03,0.08 0.09,0.16 0.14,0.22 0.1,0.12 0.22,0.22 0.34,0.3 0.14,0.09 0.28,0.16 0.44,0.19 -0.12,-0.1 -0.22,-0.22 -0.28,-0.36 0.12,0.13 0.25,0.25 0.41,0.34 0.04,0.03 0.08,0.07 0.13,0.11 0.15,0.13 0.31,0.25 0.48,0.36 0.21,-0.14 0.4,-0.29 0.59,-0.46 0.03,-0.02 0.06,-0.04 0.09,-0.06 0.13,-0.08 0.23,-0.19 0.34,-0.3 -0.06,0.14 -0.17,0.26 -0.29,0.36 0.17,-0.04 0.32,-0.11 0.47,-0.21 0.19,-0.13 0.37,-0.3 0.47,-0.51 -0.01,0.14 -0.11,0.26 -0.19,0.37 0.22,-0.1 0.4,-0.29 0.51,-0.52 0.15,-0.33 0.18,-0.7 0.11,-1.06 -0.06,-0.3 -0.18,-0.59 -0.4,-0.81 0.09,-0.04 0.16,-0.12 0.2,-0.22 0.05,-0.12 0.06,-0.25 0.03,-0.38 -0.04,-0.15 -0.15,-0.29 -0.3,-0.36 -0.12,-0.06 -0.27,-0.08 -0.41,-0.07 -0.1,0.01 -0.17,0.08 -0.25,0.14 -0.08,0.07 -0.18,0.11 -0.28,0.14 -0.21,-0.09 -0.45,-0.1 -0.67,-0.02 -0.02,0.01 -0.03,0.01 -0.05,0 -0.22,-0.08 -0.47,-0.07 -0.68,0.02 -0.08,-0.02 -0.16,-0.05 -0.23,-0.1 -0.09,-0.06 -0.17,-0.15 -0.28,-0.17 -0.11,-0.02 -0.22,-0.01 -0.33,0.02z"/>
    <path class="fil2" d="M0.65 0.1c0.11,-0.03 0.22,-0.04 0.33,-0.02 0.11,0.02 0.18,0.11 0.28,0.17 0.07,0.05 0.15,0.08 0.23,0.1 0.21,-0.09 0.46,-0.1 0.68,-0.02 0.02,0.01 0.03,0 0.05,-0 0.22,-0.07 0.46,-0.07 0.67,0.02 0.1,-0.03 0.2,-0.07 0.28,-0.14 0.07,-0.06 0.15,-0.13 0.25,-0.14 0.14,-0.02 0.28,0 0.41,0.07 0.14,0.07 0.25,0.2 0.3,0.36 0.03,0.12 0.02,0.26 -0.03,0.38 -0.04,0.09 -0.11,0.18 -0.2,0.22 0.21,0.22 0.34,0.51 0.4,0.81 0.07,0.35 0.04,0.73 -0.11,1.06 -0.1,0.22 -0.28,0.41 -0.51,0.52 0.08,-0.11 0.17,-0.23 0.19,-0.37 -0.1,0.21 -0.28,0.38 -0.47,0.51 -0.14,0.1 -0.3,0.17 -0.47,0.21 0.12,-0.1 0.22,-0.22 0.29,-0.36 -0.1,0.11 -0.21,0.21 -0.34,0.3 -0.03,0.02 -0.06,0.04 -0.09,0.06 -0.19,0.16 -0.38,0.32 -0.59,0.46 -0.17,-0.11 -0.33,-0.24 -0.48,-0.36 -0.04,-0.04 -0.08,-0.07 -0.13,-0.11 -0.15,-0.09 -0.28,-0.21 -0.41,-0.34 0.06,0.14 0.17,0.26 0.28,0.36 -0.16,-0.03 -0.31,-0.1 -0.44,-0.19 -0.13,-0.08 -0.25,-0.18 -0.34,-0.3 -0.06,-0.07 -0.11,-0.14 -0.14,-0.22 -0,0.03 0.01,0.06 0.02,0.09 0.04,0.1 0.1,0.19 0.17,0.28 -0.16,-0.07 -0.29,-0.19 -0.39,-0.33 -0.19,-0.26 -0.26,-0.6 -0.26,-0.92 0.01,-0.34 0.1,-0.68 0.3,-0.97 0.04,-0.06 0.09,-0.11 0.14,-0.16 -0.1,-0.04 -0.18,-0.14 -0.22,-0.24 -0.05,-0.14 -0.06,-0.31 0.02,-0.45 0.07,-0.14 0.2,-0.25 0.35,-0.3zm-0.15 0.24l0 0c-0.01,0 -0.02,0.01 -0.03,0.02 0.05,-0 0.1,0 0.14,0.02 -0.08,0.02 -0.17,0.06 -0.19,0.15 -0.03,0.1 -0.03,0.21 0.02,0.3 0.04,0.07 0.1,0.12 0.18,0.15 0.02,-0.02 0.04,-0.03 0.06,-0.05 0.02,-0.02 0.05,-0.04 0.06,-0.06 -0.04,-0.01 -0.08,-0.03 -0.11,-0.06 0.07,0.01 0.14,-0.01 0.21,-0.03 0.04,-0.02 0.08,-0.04 0.11,-0.06 0.02,-0.01 0.05,-0.02 0.07,-0.04 -0.07,-0.02 -0.14,-0.06 -0.21,-0.06 -0.04,-0 -0.08,0.01 -0.11,0.02 0.02,-0.08 0.09,-0.13 0.15,-0.17 -0.08,0.01 -0.18,0.03 -0.24,0.09 -0.06,0.05 -0.07,0.14 -0.07,0.22 -0,-0 -0.01,-0 -0.01,-0 -0.01,-0.03 -0.04,-0.07 -0.04,-0.1 -0.02,-0.07 0.02,-0.14 0.07,-0.19 0.06,-0.05 0.14,-0.08 0.22,-0.08 0.1,0.01 0.2,0.06 0.3,0.08 -0.09,0.03 -0.2,0.01 -0.26,0.09 0.07,-0.01 0.15,-0.01 0.22,0.01 0.03,0.01 0.06,0.03 0.1,0.05 -0.18,0.13 -0.34,0.28 -0.47,0.46 -0.04,0.05 -0.08,0.11 -0.11,0.17 -0.2,0.33 -0.26,0.75 -0.14,1.13 0.01,-0.15 0.08,-0.29 0.17,-0.41 -0.03,0.21 0.01,0.43 0.1,0.63 0.06,0.14 0.13,0.27 0.22,0.39 -0.04,-0.15 -0.05,-0.3 -0.01,-0.45 0.01,0.03 0.01,0.07 0.02,0.1 0.03,0.12 0.1,0.22 0.18,0.31 0.09,0.1 0.2,0.18 0.32,0.24 -0.12,-0.28 -0.21,-0.57 -0.23,-0.87 -0.04,0.07 -0.05,0.16 -0.05,0.24 -0.05,-0.15 -0.07,-0.31 -0.09,-0.47 -0,-0.02 -0,-0.03 -0.01,-0.05 -0.02,0.05 -0.03,0.1 -0.04,0.15 -0.02,-0.07 -0.02,-0.14 -0.01,-0.21 0.02,-0.11 0.09,-0.2 0.16,-0.27 -0.04,0.12 -0.04,0.26 -0,0.39 0.04,-0.05 0.08,-0.09 0.14,-0.13 0.02,0.14 0.06,0.28 0.12,0.41 0.13,-0.12 0.25,-0.25 0.36,-0.4 -0.11,0.04 -0.24,0.02 -0.32,-0.07 -0.06,-0.06 -0.08,-0.16 -0.07,-0.24 -0.03,0.02 -0.06,0.05 -0.09,0.07 0.02,-0.09 0.09,-0.18 0.17,-0.23 0.04,-0.03 0.1,-0.05 0.15,-0.03 0.14,0.05 0.27,0.14 0.35,0.26 0.02,-0.03 0.04,-0.05 0.06,-0.08 0.02,-0.02 0.03,-0.06 0.01,-0.08 -0.09,-0.12 -0.18,-0.24 -0.28,-0.35 -0.04,-0.04 -0.07,-0.07 -0.12,-0.1 -0.01,-0.01 -0.03,-0.01 -0.04,-0 -0.08,0.01 -0.15,0.04 -0.22,0.07 0.04,0.03 0.08,0.07 0.1,0.11 -0.08,0 -0.16,0.02 -0.22,0.07 -0.05,0.04 -0.07,0.11 -0.08,0.17 -0.03,-0.05 -0.04,-0.12 -0.01,-0.18 0.03,-0.06 0.08,-0.09 0.13,-0.12 -0.03,-0.01 -0.07,-0.01 -0.1,-0.02 0.11,-0.11 0.25,-0.17 0.4,-0.2 0.02,-0 0.05,-0.02 0.07,-0 0.08,0.03 0.15,0.08 0.22,0.14 0.1,0.09 0.17,0.21 0.25,0.32 0.03,-0.05 0.06,-0.1 0.09,-0.15 -0.01,0.12 -0.05,0.24 -0.1,0.36 0.08,-0.01 0.16,-0.01 0.24,-0 -0.05,-0.12 -0.09,-0.24 -0.1,-0.37 0.02,0.05 0.05,0.11 0.09,0.16 0,0 0.01,0 0.01,0 0.11,-0.17 0.23,-0.34 0.41,-0.43 0.03,-0.01 0.06,-0.04 0.1,-0.03 0.16,0.03 0.32,0.09 0.43,0.21 -0.03,0 -0.07,0.01 -0.1,0.02 0.05,0.04 0.11,0.07 0.14,0.14 0.02,0.05 0,0.11 -0.02,0.16 -0.01,-0.06 -0.03,-0.12 -0.07,-0.16 -0.06,-0.06 -0.15,-0.08 -0.23,-0.08 0.01,-0.03 0.04,-0.06 0.06,-0.08 0.01,-0.01 0.02,-0.02 0.03,-0.03 -0.08,-0.04 -0.17,-0.07 -0.25,-0.07 -0.07,0.03 -0.12,0.09 -0.17,0.15 -0.08,0.1 -0.16,0.2 -0.24,0.3 -0.02,0.02 -0.01,0.05 0,0.08 0.02,0.03 0.04,0.06 0.06,0.09 0.08,-0.12 0.21,-0.21 0.35,-0.26 0.05,-0.02 0.1,0 0.14,0.03 0.08,0.05 0.15,0.14 0.18,0.23 -0.03,-0.02 -0.05,-0.05 -0.09,-0.07 0.02,0.09 -0.01,0.19 -0.08,0.25 -0.08,0.07 -0.2,0.09 -0.31,0.05 0.11,0.14 0.22,0.28 0.36,0.4 0.06,-0.13 0.1,-0.27 0.12,-0.41 0.05,0.03 0.09,0.08 0.14,0.12 0.04,-0.12 0.04,-0.26 -0,-0.38 0.06,0.05 0.11,0.12 0.14,0.2 0.04,0.09 0.04,0.19 0.01,0.28 -0.01,-0.05 -0.02,-0.11 -0.05,-0.15 -0.01,0.16 -0.03,0.32 -0.08,0.47 -0,0.01 -0,0.03 -0.02,0.03 -0.01,-0.08 -0.02,-0.16 -0.05,-0.22 -0.02,0.3 -0.11,0.6 -0.23,0.87 0.14,-0.06 0.26,-0.16 0.35,-0.27 0.09,-0.11 0.15,-0.24 0.16,-0.38 0.03,0.09 0.03,0.2 0.02,0.29 -0,0.05 -0.02,0.11 -0.03,0.16 0.11,-0.16 0.2,-0.33 0.26,-0.51 0.05,-0.16 0.07,-0.34 0.05,-0.5 0.1,0.12 0.15,0.26 0.17,0.41 0.02,-0.07 0.03,-0.14 0.04,-0.21 0.05,-0.32 -0.03,-0.66 -0.2,-0.93 -0.03,-0.05 -0.06,-0.1 -0.09,-0.15l-0 -0c-0.08,-0.1 -0.16,-0.2 -0.26,-0.29 -0.07,-0.06 -0.14,-0.13 -0.22,-0.18 0.03,-0.01 0.06,-0.03 0.09,-0.04 0.07,-0.03 0.15,-0.03 0.23,-0.01 -0.01,-0.02 -0.04,-0.04 -0.06,-0.05 -0.06,-0.03 -0.14,-0.02 -0.2,-0.04 0.09,-0.02 0.17,-0.06 0.26,-0.07 0.09,-0.02 0.18,0.02 0.25,0.07 0.06,0.04 0.11,0.12 0.09,0.2 -0.01,0.04 -0.03,0.08 -0.05,0.12 -0.01,-0.06 -0,-0.13 -0.04,-0.18 -0.06,-0.09 -0.17,-0.12 -0.27,-0.13 0.02,0.02 0.04,0.03 0.06,0.05 0.04,0.03 0.07,0.07 0.08,0.12 -0.04,-0.01 -0.07,-0.02 -0.11,-0.02 -0.08,-0 -0.15,0.03 -0.22,0.06 0.06,0.03 0.11,0.06 0.16,0.09 0.03,0.02 0.08,0.02 0.11,0.03 0.04,0.01 0.08,0.01 0.12,0.01 -0.03,0.03 -0.07,0.05 -0.11,0.06 0.02,0.02 0.04,0.04 0.06,0.05 0.02,0.02 0.04,0.04 0.06,0.06 0.07,-0.02 0.14,-0.07 0.17,-0.14 0.05,-0.09 0.05,-0.21 0.02,-0.31 -0.03,-0.08 -0.11,-0.12 -0.19,-0.14 0.04,-0.02 0.09,-0.02 0.14,-0.02 -0.01,-0.01 -0.03,-0.02 -0.04,-0.02 -0.11,-0.07 -0.24,-0.12 -0.37,-0.12 -0.07,0 -0.14,0.04 -0.19,0.09 -0.07,0.06 -0.15,0.11 -0.24,0.14 0.03,0.02 0.05,0.05 0.08,0.07 0.01,0.01 0.02,0.03 0.03,0.04 -0.15,-0.09 -0.33,-0.14 -0.5,-0.14 -0.17,-0 -0.33,0.04 -0.49,0.09 -0.15,-0.06 -0.32,-0.09 -0.48,-0.09 -0.17,0 -0.35,0.05 -0.5,0.13 0,-0.02 0.02,-0.03 0.03,-0.04 0.03,-0.02 0.06,-0.04 0.08,-0.07 -0.07,-0.03 -0.14,-0.07 -0.2,-0.11 -0.06,-0.05 -0.13,-0.11 -0.22,-0.11 -0.14,-0.01 -0.28,0.04 -0.39,0.12zm0.97 1.3l0 0c0,0.11 0.09,0.21 0.2,0.21 0.05,0 0.1,-0.02 0.13,-0.05 -0.04,-0.05 -0.08,-0.1 -0.13,-0.12 -0.06,-0.03 -0.13,-0.04 -0.2,-0.04zm1.27 0.02l0 0c-0.07,0.03 -0.13,0.08 -0.17,0.14 0.03,0.03 0.08,0.05 0.12,0.05 0.11,-0 0.21,-0.1 0.21,-0.21 -0.05,-0 -0.11,-0 -0.16,0.02zm-0.65 0.14l0 0c-0.08,0.01 -0.15,0.05 -0.2,0.11 -0.01,0.21 -0.12,0.4 -0.25,0.57 -0.08,0.1 -0.15,0.21 -0.16,0.34 -0.01,0.17 0.07,0.32 0.15,0.47 0.17,-0.1 0.36,-0.17 0.55,-0.16 0.2,-0 0.39,0.06 0.56,0.17 0.03,-0.06 0.06,-0.12 0.09,-0.19 0.05,-0.12 0.08,-0.26 0.04,-0.39 -0.04,-0.13 -0.14,-0.22 -0.22,-0.33 -0.09,-0.14 -0.16,-0.29 -0.17,-0.46 -0.04,-0.04 -0.08,-0.07 -0.13,-0.09 -0.08,-0.03 -0.17,-0.03 -0.26,-0.02zm-0.24 1.51l0 0c-0.02,0.01 -0.03,0.01 -0.04,0.03 0.09,0.05 0.18,0.07 0.28,0.08 0.16,0.01 0.33,-0 0.47,-0.08 -0.09,-0.05 -0.19,-0.08 -0.29,-0.1 -0.04,-0.01 -0.08,-0.01 -0.12,-0.01 -0.1,0.01 -0.2,0.03 -0.3,0.08z"/>
    <path class="fil2" d="M1.82 2.42c0.2,-0.15 0.51,-0.16 0.72,-0.02 0.04,0.03 0.07,0.05 0.09,0.1 0,0.03 -0.01,0.06 -0.03,0.08 -0.03,0.06 -0.08,0.12 -0.15,0.15 0.02,-0.04 0.04,-0.08 0.02,-0.12 -0.02,-0.03 -0.05,-0.02 -0.08,-0.01 -0.06,0.03 -0.09,0.11 -0.07,0.17 0.02,0.03 0.05,0 0.07,0.01 -0.05,0.07 -0.12,0.13 -0.21,0.13 -0.09,-0 -0.16,-0.07 -0.21,-0.13 0.02,-0.01 0.04,0.01 0.06,0 0.02,-0.02 0.01,-0.06 0.01,-0.09 -0.01,-0.05 -0.06,-0.1 -0.11,-0.1 -0.02,-0 -0.04,0.01 -0.04,0.04 -0,0.04 0.01,0.07 0.03,0.1 -0.08,-0.04 -0.14,-0.12 -0.17,-0.2 -0.02,-0.05 0.03,-0.08 0.06,-0.11zm0.04 0.05l0 0c0.22,-0.03 0.44,-0.03 0.66,0 -0.02,-0.03 -0.06,-0.04 -0.09,-0.06 -0.08,-0.03 -0.16,-0.05 -0.25,-0.05 -0.11,0.01 -0.23,0.04 -0.32,0.11z"/>
    <path class="fil3" d="M0.51 0.34c0.12,-0.07 0.25,-0.12 0.39,-0.12 0.08,0 0.15,0.06 0.22,0.11 0.06,0.05 0.13,0.08 0.2,0.11 -0.02,0.03 -0.05,0.05 -0.08,0.07 -0.12,-0.05 -0.21,-0.16 -0.34,-0.21 -0.09,-0.03 -0.18,-0.02 -0.26,0 -0.04,0.01 -0.09,0.03 -0.13,0.03z"/>
    <path class="fil3" d="M3.3 0.3c0.06,-0.04 0.12,-0.08 0.19,-0.09 0.13,-0 0.26,0.04 0.37,0.12 -0.03,0 -0.05,-0.01 -0.08,-0.02 -0.1,-0.02 -0.2,-0.04 -0.3,-0.01 -0.12,0.05 -0.22,0.15 -0.34,0.21 -0.03,-0.02 -0.05,-0.05 -0.08,-0.07 0.09,-0.03 0.16,-0.08 0.24,-0.14z"/>
    <path class="fil3" d="M1.21 0.55c0.15,-0.09 0.32,-0.13 0.5,-0.13 0.17,-0 0.33,0.03 0.48,0.09 0.16,-0.06 0.32,-0.09 0.49,-0.09 0.18,0 0.35,0.05 0.5,0.14 0.02,0.02 0.04,0.05 0.06,0.07 0.08,0.05 0.15,0.12 0.22,0.18 0.09,0.09 0.18,0.18 0.26,0.29 -0.03,-0.01 -0.05,-0.04 -0.07,-0.06 -0.14,-0.12 -0.3,-0.23 -0.47,-0.32 -0.14,-0.07 -0.3,-0.11 -0.46,-0.11 -0.06,-0 -0.13,0.01 -0.19,0.03 -0.12,0.03 -0.24,0.06 -0.33,0.13 -0.11,-0.09 -0.26,-0.12 -0.39,-0.15 -0.17,-0.04 -0.35,-0 -0.51,0.06 -0.23,0.09 -0.44,0.24 -0.62,0.41l-0 -0.01c0.13,-0.18 0.29,-0.33 0.47,-0.46 0.02,-0.02 0.04,-0.05 0.07,-0.07z"/>
    <path class="fil3" d="M2.1 1.8c0.09,-0.01 0.18,-0.01 0.26,0.02 0.05,0.02 0.09,0.05 0.13,0.09 0.01,0.17 0.08,0.32 0.17,0.46 0.07,0.11 0.17,0.2 0.22,0.33 0.05,0.13 0.01,0.27 -0.04,0.39 -0.03,0.06 -0.06,0.13 -0.09,0.19 -0.17,-0.1 -0.36,-0.17 -0.56,-0.17 -0.2,-0 -0.39,0.07 -0.55,0.16 -0.08,-0.14 -0.15,-0.3 -0.15,-0.47 0,-0.13 0.08,-0.24 0.16,-0.34 0.13,-0.16 0.24,-0.35 0.25,-0.57 0.05,-0.06 0.13,-0.1 0.2,-0.11zm-0.28 0.62l0 0c-0.03,0.03 -0.08,0.06 -0.06,0.11 0.03,0.08 0.09,0.16 0.17,0.2 -0.01,-0.03 -0.03,-0.07 -0.03,-0.1 0,-0.02 0.02,-0.04 0.04,-0.04 0.05,0.01 0.1,0.05 0.11,0.1 0.01,0.03 0.01,0.07 -0.01,0.09 -0.02,0.01 -0.04,-0.01 -0.06,-0 0.05,0.07 0.12,0.13 0.21,0.13 0.09,0 0.16,-0.06 0.21,-0.13 -0.02,-0.01 -0.06,0.02 -0.07,-0.01 -0.02,-0.06 0.01,-0.14 0.07,-0.17 0.02,-0.01 0.06,-0.02 0.08,0.01 0.01,0.04 -0.01,0.08 -0.02,0.12 0.07,-0.03 0.11,-0.09 0.15,-0.15 0.01,-0.03 0.03,-0.05 0.03,-0.08 -0.02,-0.04 -0.05,-0.07 -0.09,-0.1 -0.21,-0.14 -0.51,-0.14 -0.72,0.02z"/>
    <path class="fil3" d="M1.86 3.31c0.09,-0.05 0.2,-0.07 0.3,-0.08 0.04,-0 0.08,0 0.12,0.01 0.1,0.02 0.2,0.05 0.29,0.1 -0.14,0.08 -0.31,0.09 -0.47,0.08 -0.1,-0.01 -0.19,-0.03 -0.28,-0.08 0.01,-0.01 0.03,-0.02 0.04,-0.03z"/>
    <path class="fil4" d="M0.64 0.31c0.09,-0.02 0.18,-0.03 0.26,-0 0.12,0.05 0.21,0.15 0.34,0.21 -0.01,0.01 -0.02,0.02 -0.03,0.04 -0.03,0.02 -0.05,0.05 -0.07,0.07 -0.03,-0.01 -0.06,-0.03 -0.1,-0.05 -0.07,-0.03 -0.15,-0.03 -0.22,-0.01 0.06,-0.08 0.17,-0.06 0.26,-0.09 -0.1,-0.02 -0.2,-0.07 -0.3,-0.08 -0.08,-0 -0.16,0.03 -0.22,0.08 -0.05,0.05 -0.09,0.12 -0.07,0.19 0,0.04 0.03,0.07 0.04,0.1 0.02,0.07 0.09,0.11 0.14,0.15 -0.02,0.02 -0.04,0.03 -0.06,0.05 -0.08,-0.02 -0.14,-0.08 -0.18,-0.15 -0.05,-0.09 -0.05,-0.2 -0.02,-0.3 0.03,-0.08 0.11,-0.13 0.19,-0.15 -0.04,-0.02 -0.09,-0.02 -0.14,-0.02 0.01,-0.01 0.02,-0.02 0.03,-0.02 0.04,-0 0.09,-0.02 0.13,-0.03z"/>
    <path class="fil4" d="M3.48 0.31c0.1,-0.03 0.21,-0.01 0.3,0.01 0.03,0.01 0.05,0.02 0.08,0.02 0.02,-0 0.03,0.02 0.04,0.02 -0.05,-0 -0.1,0 -0.14,0.02 0.08,0.02 0.16,0.06 0.19,0.14 0.03,0.1 0.03,0.22 -0.02,0.31 -0.04,0.07 -0.1,0.12 -0.17,0.14 -0.02,-0.02 -0.04,-0.04 -0.06,-0.06 0.04,-0.02 0.08,-0.05 0.12,-0.09 0.01,-0.01 0.02,-0.03 0.02,-0.04 0.01,-0.04 0.04,-0.07 0.05,-0.12 0.02,-0.08 -0.03,-0.16 -0.09,-0.2 -0.07,-0.05 -0.16,-0.08 -0.25,-0.07 -0.09,0.01 -0.17,0.06 -0.26,0.07 0.06,0.03 0.14,0.01 0.2,0.04 0.02,0.01 0.05,0.03 0.06,0.05 -0.08,-0.02 -0.15,-0.01 -0.23,0.01 -0.03,0.01 -0.06,0.03 -0.09,0.04 -0.02,-0.02 -0.04,-0.05 -0.06,-0.07 -0.01,-0.01 -0.02,-0.03 -0.03,-0.04 0.12,-0.05 0.21,-0.16 0.34,-0.21z"/>
    <path class="fil4" d="M1.29 0.68c0.16,-0.06 0.34,-0.1 0.51,-0.06 0.14,0.03 0.28,0.06 0.39,0.15 0.1,-0.07 0.22,-0.11 0.33,-0.13 0.06,-0.01 0.13,-0.03 0.19,-0.03 0.16,-0 0.32,0.04 0.46,0.11 0.17,0.08 0.32,0.19 0.47,0.32 0.02,0.02 0.04,0.05 0.07,0.06l0 0c0.03,0.05 0.07,0.1 0.09,0.15 0.01,0.06 0.04,0.12 0.05,0.19 0.04,0.18 0.05,0.36 0.06,0.54 -0.06,-0.07 -0.12,-0.13 -0.2,-0.18 -0.01,0.21 -0.03,0.42 -0.12,0.6 -0,-0.13 -0,-0.26 -0.03,-0.39 -0.03,-0.13 -0.09,-0.24 -0.16,-0.35 -0.01,-0.02 -0.03,-0.04 -0.04,-0.06 -0.01,-0.03 0,-0.06 -0,-0.09 -0,-0.07 -0.03,-0.14 -0.05,-0.21 0.02,-0 0.04,-0.01 0.06,-0.01 -0.06,-0.12 -0.15,-0.22 -0.27,-0.29 -0.1,-0.05 -0.22,-0.09 -0.33,-0.11 -0.03,-0.01 -0.06,0.01 -0.08,0.03 -0.12,0.07 -0.24,0.16 -0.33,0.27 -0.03,0.04 -0.06,0.08 -0.09,0.13 -0.04,-0.02 -0.06,-0.05 -0.1,-0.06 -0.04,0.02 -0.06,0.05 -0.1,0.06 -0.08,-0.16 -0.21,-0.27 -0.35,-0.36 -0.04,-0.02 -0.08,-0.05 -0.12,-0.06 -0.17,0.03 -0.35,0.08 -0.48,0.21 -0.06,0.05 -0.1,0.12 -0.14,0.19 0.02,0.01 0.04,0.01 0.06,0.01 -0.03,0.08 -0.05,0.15 -0.05,0.23 -0,0.03 0.01,0.06 -0.02,0.09 -0.12,0.14 -0.19,0.32 -0.21,0.51 -0.01,0.09 -0.01,0.18 -0.01,0.27 -0.09,-0.19 -0.11,-0.41 -0.12,-0.61 -0.08,0.05 -0.15,0.11 -0.2,0.18 0.01,-0.18 0.02,-0.36 0.06,-0.54 0.01,-0.06 0.03,-0.11 0.04,-0.17 0.03,-0.06 0.07,-0.12 0.11,-0.17l0 0.01c0.18,-0.17 0.39,-0.32 0.62,-0.41z"/>
    <path class="fil4" d="M1.42 1.23c0.05,-0.02 0.1,-0.04 0.15,-0.04 0.01,-0 0.02,0 0.03,0.01 0.09,0.08 0.17,0.17 0.25,0.26 0.04,0.05 0.08,0.1 0.11,0.15 -0.01,0.02 -0.01,0.04 -0.02,0.06 -0.02,-0.02 -0.04,-0.04 -0.06,-0.06 -0.09,-0.09 -0.21,-0.15 -0.34,-0.16 -0.1,-0.01 -0.21,0.01 -0.3,0.07 -0.03,0.02 -0.04,0.04 -0.07,0.06 0.01,-0.07 0.05,-0.13 0.11,-0.17 0.06,-0.03 0.12,-0.04 0.18,-0.05 0.01,-0.05 -0.01,-0.09 -0.04,-0.13z"/>
    <path class="fil4" d="M2.48 1.53c0.1,-0.12 0.19,-0.24 0.31,-0.35 0.06,-0.01 0.11,0.02 0.17,0.04 -0.02,0.04 -0.04,0.08 -0.03,0.13 0.08,0.01 0.17,0.03 0.23,0.09 0.04,0.03 0.05,0.08 0.06,0.13 -0.04,-0.03 -0.08,-0.07 -0.13,-0.09 -0.14,-0.06 -0.3,-0.05 -0.43,0.01 -0.08,0.04 -0.16,0.1 -0.22,0.17 -0.01,-0.02 -0.02,-0.04 -0.03,-0.06 0.01,-0.03 0.03,-0.05 0.05,-0.08z"/>
    <path class="fil5" d="M0.6 0.56c0.07,-0.06 0.16,-0.08 0.24,-0.09 -0.06,0.04 -0.13,0.09 -0.15,0.17 0.04,-0.01 0.07,-0.02 0.11,-0.02 0.07,-0 0.14,0.03 0.21,0.06 -0.02,0.02 -0.05,0.03 -0.07,0.04 -0.04,0.02 -0.07,0.05 -0.11,0.06 -0.07,0.01 -0.14,0.03 -0.21,0.03 0.03,0.03 0.07,0.05 0.11,0.06 -0.01,0.02 -0.04,0.04 -0.06,0.06 -0.05,-0.04 -0.13,-0.08 -0.14,-0.15 0,0 0.01,0 0.01,0 -0.01,-0.08 0.01,-0.16 0.07,-0.22z"/>
    <path class="fil5" d="M3.54 0.47c0.1,0.01 0.22,0.04 0.27,0.13 0.04,0.05 0.03,0.12 0.04,0.18 -0,0.02 -0.01,0.03 -0.02,0.04 -0.03,0.03 -0.07,0.07 -0.12,0.09 -0.02,-0.02 -0.04,-0.04 -0.06,-0.05 0.04,-0.02 0.08,-0.03 0.11,-0.06 -0.04,0 -0.08,0 -0.12,-0.01 -0.04,-0.01 -0.08,-0.01 -0.11,-0.03 -0.05,-0.03 -0.11,-0.06 -0.16,-0.09 0.07,-0.03 0.14,-0.06 0.22,-0.06 0.04,-0 0.07,0.01 0.11,0.02 -0.01,-0.05 -0.04,-0.09 -0.08,-0.12 -0.02,-0.02 -0.05,-0.03 -0.06,-0.05z"/>
    <path class="fil5" d="M1.62 0.89c0.04,0.01 0.08,0.04 0.12,0.06 0.14,0.09 0.28,0.21 0.35,0.36 0.04,-0.02 0.06,-0.05 0.1,-0.06 0.04,0.01 0.07,0.04 0.1,0.06 0.03,-0.04 0.05,-0.09 0.09,-0.13 0.09,-0.11 0.2,-0.2 0.33,-0.27 0.02,-0.01 0.05,-0.04 0.08,-0.03 0.11,0.02 0.23,0.06 0.33,0.11 0.12,0.06 0.21,0.17 0.27,0.29 -0.02,0 -0.04,0.01 -0.06,0.01 0.02,0.07 0.05,0.13 0.05,0.21 0,0.03 -0,0.06 0,0.09 0.01,0.02 0.03,0.04 0.04,0.06 0.08,0.1 0.13,0.22 0.16,0.35 0.03,0.13 0.03,0.26 0.03,0.39 0.09,-0.19 0.11,-0.4 0.12,-0.6 0.08,0.04 0.15,0.11 0.2,0.18 -0.01,-0.18 -0.02,-0.36 -0.06,-0.54 -0.01,-0.06 -0.04,-0.13 -0.05,-0.19 0.17,0.27 0.24,0.61 0.2,0.93 -0.01,0.07 -0.03,0.14 -0.04,0.21 -0.02,-0.15 -0.08,-0.29 -0.17,-0.41 0.02,0.17 0,0.34 -0.05,0.5 -0.06,0.18 -0.15,0.35 -0.26,0.51 0.01,-0.05 0.02,-0.11 0.03,-0.16 0.01,-0.1 0.01,-0.2 -0.02,-0.29 -0.01,0.14 -0.08,0.27 -0.16,0.38 -0.09,0.12 -0.21,0.22 -0.35,0.27 0.12,-0.28 0.21,-0.57 0.23,-0.87 0.04,0.07 0.05,0.15 0.05,0.22 0.01,-0.01 0.01,-0.02 0.02,-0.03 0.05,-0.15 0.06,-0.31 0.08,-0.47 0.03,0.04 0.04,0.1 0.05,0.15 0.03,-0.09 0.03,-0.19 -0.01,-0.28 -0.03,-0.08 -0.08,-0.14 -0.14,-0.2 0.04,0.12 0.04,0.26 0,0.38 -0.04,-0.04 -0.08,-0.09 -0.14,-0.12 -0.02,0.14 -0.05,0.28 -0.12,0.41 -0.13,-0.12 -0.25,-0.25 -0.36,-0.4 0.1,0.03 0.22,0.02 0.31,-0.05 0.07,-0.06 0.1,-0.16 0.08,-0.25 0.03,0.02 0.06,0.04 0.09,0.07 -0.03,-0.1 -0.09,-0.18 -0.18,-0.23 -0.04,-0.02 -0.09,-0.04 -0.14,-0.03 -0.14,0.05 -0.27,0.14 -0.35,0.26 -0.02,-0.03 -0.04,-0.06 -0.06,-0.09 -0.01,-0.02 -0.02,-0.05 -0,-0.08 0.08,-0.1 0.15,-0.2 0.24,-0.3 0.05,-0.05 0.1,-0.11 0.17,-0.15 0.09,-0 0.17,0.03 0.25,0.07 -0.01,0.01 -0.02,0.02 -0.03,0.03 -0.03,0.02 -0.05,0.05 -0.06,0.08 0.08,0 0.17,0.02 0.23,0.08 0.04,0.04 0.06,0.1 0.07,0.16 0.02,-0.05 0.04,-0.11 0.02,-0.16 -0.02,-0.06 -0.08,-0.1 -0.14,-0.14 0.03,-0.01 0.07,-0.01 0.1,-0.02 -0.11,-0.12 -0.27,-0.18 -0.43,-0.21 -0.03,-0.01 -0.07,0.01 -0.1,0.03 -0.18,0.09 -0.3,0.26 -0.41,0.43 -0,-0 -0.01,-0 -0.01,-0 -0.03,-0.05 -0.06,-0.1 -0.09,-0.16 0.01,0.13 0.05,0.25 0.1,0.37 -0.08,-0.01 -0.16,-0.01 -0.24,0 0.04,-0.11 0.09,-0.23 0.1,-0.36 -0.03,0.05 -0.05,0.1 -0.09,0.15 -0.08,-0.11 -0.15,-0.23 -0.25,-0.32 -0.06,-0.06 -0.14,-0.11 -0.22,-0.14 -0.02,-0.01 -0.05,0 -0.07,0 -0.15,0.03 -0.29,0.09 -0.4,0.2 0.03,0 0.07,0.01 0.1,0.02 -0.05,0.03 -0.1,0.07 -0.13,0.12 -0.03,0.06 -0.02,0.12 0.01,0.18 0.01,-0.06 0.03,-0.13 0.08,-0.17 0.06,-0.05 0.14,-0.06 0.22,-0.07 -0.02,-0.05 -0.06,-0.08 -0.1,-0.11 0.07,-0.04 0.15,-0.07 0.22,-0.07 0.01,-0 0.03,-0 0.04,0 0.05,0.02 0.08,0.06 0.12,0.1 0.1,0.11 0.19,0.23 0.28,0.35 0.02,0.03 0.01,0.06 -0.01,0.08 -0.02,0.03 -0.04,0.05 -0.06,0.08 -0.08,-0.12 -0.21,-0.21 -0.35,-0.26 -0.05,-0.02 -0.11,0 -0.15,0.03 -0.08,0.05 -0.14,0.14 -0.17,0.23 0.03,-0.03 0.06,-0.05 0.09,-0.07 -0.02,0.09 0,0.18 0.07,0.24 0.08,0.08 0.21,0.1 0.32,0.07 -0.11,0.14 -0.22,0.28 -0.36,0.4 -0.06,-0.13 -0.1,-0.27 -0.12,-0.41 -0.05,0.03 -0.1,0.08 -0.14,0.13 -0.04,-0.13 -0.04,-0.26 0,-0.39 -0.08,0.08 -0.14,0.17 -0.16,0.27 -0.01,0.07 -0.01,0.14 0.01,0.21 0.01,-0.05 0.02,-0.1 0.04,-0.15 0.01,0.02 0.01,0.03 0.01,0.05 0.01,0.16 0.03,0.32 0.09,0.47 0,-0.08 0.02,-0.17 0.05,-0.24 0.02,0.3 0.11,0.6 0.23,0.87 -0.13,-0.05 -0.23,-0.14 -0.32,-0.24 -0.08,-0.09 -0.14,-0.2 -0.18,-0.31 -0.01,-0.03 -0.01,-0.07 -0.02,-0.1 -0.04,0.15 -0.03,0.3 0.01,0.45 -0.09,-0.12 -0.16,-0.25 -0.22,-0.39 -0.08,-0.2 -0.13,-0.42 -0.1,-0.63 -0.09,0.12 -0.16,0.26 -0.17,0.41 -0.11,-0.37 -0.06,-0.8 0.14,-1.13 -0.01,0.06 -0.03,0.11 -0.04,0.17 -0.04,0.18 -0.05,0.36 -0.06,0.54 0.06,-0.07 0.12,-0.13 0.2,-0.18 0.01,0.21 0.03,0.42 0.12,0.61 0,-0.09 -0,-0.18 0.01,-0.27 0.02,-0.18 0.09,-0.36 0.21,-0.51 0.02,-0.02 0.02,-0.06 0.02,-0.09 -0,-0.08 0.02,-0.16 0.05,-0.23 -0.02,-0 -0.04,-0.01 -0.06,-0.01 0.04,-0.07 0.08,-0.13 0.14,-0.19 0.13,-0.13 0.31,-0.17 0.48,-0.21zm-0.2 0.34l0 0c0.02,0.04 0.04,0.08 0.04,0.13 -0.06,0.01 -0.13,0.02 -0.18,0.05 -0.06,0.03 -0.1,0.1 -0.11,0.17 0.03,-0.01 0.05,-0.04 0.07,-0.06 0.09,-0.06 0.2,-0.08 0.3,-0.07 0.13,0.01 0.25,0.07 0.34,0.16 0.02,0.02 0.04,0.04 0.06,0.06 0.01,-0.02 0.02,-0.04 0.02,-0.06 -0.03,-0.05 -0.07,-0.1 -0.11,-0.15 -0.08,-0.09 -0.16,-0.18 -0.25,-0.26 -0.01,-0.01 -0.02,-0.02 -0.03,-0.01 -0.05,0.01 -0.1,0.03 -0.15,0.04zm1.06 0.31l0 0c-0.02,0.03 -0.04,0.05 -0.05,0.08 0,0.02 0.01,0.04 0.03,0.06 0.06,-0.07 0.13,-0.13 0.22,-0.17 0.13,-0.06 0.29,-0.07 0.43,-0.01 0.05,0.02 0.09,0.06 0.13,0.09 -0.01,-0.05 -0.03,-0.09 -0.06,-0.13 -0.06,-0.06 -0.15,-0.08 -0.23,-0.09 -0.01,-0.05 0.01,-0.09 0.03,-0.13 -0.06,-0.02 -0.11,-0.05 -0.17,-0.04 -0.12,0.1 -0.22,0.22 -0.31,0.35z"/>
    <path class="fil5" d="M1.86 2.46c0.09,-0.07 0.21,-0.1 0.32,-0.11 0.09,0 0.17,0.02 0.25,0.05 0.03,0.02 0.07,0.03 0.09,0.06 -0.22,-0.03 -0.44,-0.03 -0.66,-0z"/>
   </g>
   <path class="fil6 str0" d="M1.55 1.64c-0.01,0.12 0.06,0.18 0.21,0.2"/>
   <path class="fil6 str0" d="M2.84 1.64c-0.01,0.12 -0.08,0.18 -0.21,0.2"/>
   <path class="fil7" d="M2.84 1.64c-0.01,0.12 -0.08,0.18 -0.21,0.2 0.02,0.01 0.04,0.01 0.07,0.01 0.11,-0 0.21,-0.1 0.21,-0.21 -0.02,-0 -0.04,-0 -0.06,-0z"/>
   <path class="fil7" d="M1.48 1.64c0,0.11 0.09,0.21 0.2,0.21 0.02,0 0.05,-0 0.07,-0.01 -0.15,-0.02 -0.22,-0.08 -0.21,-0.2 -0.02,-0 -0.05,-0 -0.07,0z"/>
   <path class="fil8" d="M2.75 1.66c-0.07,0.03 -0.13,0.08 -0.17,0.14 0.02,0.01 0.04,0.03 0.06,0.04 0.13,-0.01 0.2,-0.08 0.21,-0.2 -0.03,0 -0.07,0.01 -0.1,0.02z"/>
   <path class="fil8" d="M1.55 1.64c-0.01,0.12 0.06,0.18 0.21,0.2 0.02,-0.01 0.04,-0.02 0.06,-0.04 -0.04,-0.05 -0.08,-0.1 -0.13,-0.12 -0.04,-0.02 -0.09,-0.03 -0.13,-0.04z"/>
  </g>
 </g>
</svg>
