<?xml version="1.0" encoding="UTF-8"?>
<!DOCTYPE svg PUBLIC "-//W3C//DTD SVG 1.1//EN" "http://www.w3.org/Graphics/SVG/1.1/DTD/svg11.dtd">
<!-- Creator: CorelDRAW 2018 (64-Bit) -->
<svg xmlns="http://www.w3.org/2000/svg" xml:space="preserve" width="8.02911in" height="8.317in" version="1.1" style="shape-rendering:geometricPrecision; text-rendering:geometricPrecision; image-rendering:optimizeQuality; fill-rule:evenodd; clip-rule:evenodd"
viewBox="0 0 1153.72 1195.09"
 xmlns:xlink="http://www.w3.org/1999/xlink">
 <defs>
  <style type="text/css">
   <![CDATA[
    .str0 {stroke:#FEFEFE;stroke-width:11.31;stroke-miterlimit:2.61313}
    .fil51 {fill:none}
    .fil52 {fill:#FEFEFE}
    .fil45 {fill:#6E0600}
    .fil53 {fill:#C79933}
    .fil46 {fill:#D2746E}
    .fil47 {fill:#DB2A14}
    .fil49 {fill:#E85D3D}
    .fil48 {fill:#E86F42}
    .fil50 {fill:#F8FCFB}
    .fil54 {fill:#FBEB58}
    .fil0 {fill:#010101;fill-rule:nonzero}
    .fil42 {fill:#404040;fill-rule:nonzero}
    .fil1 {fill:#454545;fill-rule:nonzero}
    .fil7 {fill:#4B464B;fill-rule:nonzero}
    .fil22 {fill:#5F0E07;fill-rule:nonzero}
    .fil11 {fill:#620D05;fill-rule:nonzero}
    .fil37 {fill:#711513;fill-rule:nonzero}
    .fil17 {fill:#A2A9A8;fill-rule:nonzero}
    .fil44 {fill:#A3A8A7;fill-rule:nonzero}
    .fil25 {fill:#A3A9A8;fill-rule:nonzero}
    .fil27 {fill:#A6A8A8;fill-rule:nonzero}
    .fil10 {fill:#A6AAA9;fill-rule:nonzero}
    .fil16 {fill:#A7ACAA;fill-rule:nonzero}
    .fil3 {fill:#AAAEAD;fill-rule:nonzero}
    .fil38 {fill:#AC837D;fill-rule:nonzero}
    .fil20 {fill:#ACADAD;fill-rule:nonzero}
    .fil5 {fill:#B8BAB8;fill-rule:nonzero}
    .fil24 {fill:#C58785;fill-rule:nonzero}
    .fil34 {fill:#C8878D;fill-rule:nonzero}
    .fil30 {fill:#C89793;fill-rule:nonzero}
    .fil28 {fill:#CA8983;fill-rule:nonzero}
    .fil29 {fill:#CE776F;fill-rule:nonzero}
    .fil33 {fill:#CE7873;fill-rule:nonzero}
    .fil9 {fill:#CE7971;fill-rule:nonzero}
    .fil23 {fill:#CF7A77;fill-rule:nonzero}
    .fil41 {fill:#D2746E;fill-rule:nonzero}
    .fil32 {fill:#D52A17;fill-rule:nonzero}
    .fil35 {fill:#D52B16;fill-rule:nonzero}
    .fil6 {fill:#D52B18;fill-rule:nonzero}
    .fil40 {fill:#D58069;fill-rule:nonzero}
    .fil4 {fill:#D6706C;fill-rule:nonzero}
    .fil31 {fill:#D9786C;fill-rule:nonzero}
    .fil26 {fill:#DA2F35;fill-rule:nonzero}
    .fil8 {fill:#DA8F8D;fill-rule:nonzero}
    .fil36 {fill:#DC8476;fill-rule:nonzero}
    .fil12 {fill:#DE858B;fill-rule:nonzero}
    .fil39 {fill:#E85D3D;fill-rule:nonzero}
    .fil19 {fill:#F8FBF8;fill-rule:nonzero}
    .fil13 {fill:#F8FCFB;fill-rule:nonzero}
    .fil18 {fill:#FBFBFB;fill-rule:nonzero}
    .fil15 {fill:#FBFDFA;fill-rule:nonzero}
    .fil14 {fill:#FCFCFA;fill-rule:nonzero}
    .fil2 {fill:#FCFCFB;fill-rule:nonzero}
    .fil21 {fill:#FCFDFC;fill-rule:nonzero}
    .fil43 {fill:#FDFFFB;fill-rule:nonzero}
   ]]>
  </style>
 </defs>
 <g id="Layer_x0020_1">
  <metadata id="CorelCorpID_0Corel-Layer"/>
  <g id="_1015510688">
   <path class="fil0" d="M819.9 14.87c16.73,-6.15 35.8,-13.52 53.34,-6.12 16.1,6.18 22.37,24.14 25.34,39.67 6.84,30.02 -1.32,62.76 -20.78,86.45 -8.58,11.63 -21.08,20.9 -35.41,23.69 -12.95,1.95 -24.23,-7.95 -30.32,-18.44 -11.87,-20.42 -9.06,-46.66 3.27,-66.21 -48.01,11.33 -77,58.2 -86.15,103.87 4.44,2.61 8.9,5.28 13.34,7.98 -1.92,7.47 -3.42,15.05 -4.23,22.76 44.02,8.85 83.99,33.07 116.41,63.63 51.19,-1.62 101.35,-21.59 152.81,-12.68 46.57,6.03 90.89,32.62 115.12,73.28 24.53,37.18 29.81,84.05 22.22,127.2 -6.12,32.44 -18.74,64.95 -42.61,88.52 -3.33,4.74 -8.94,3.57 -13.85,3.36 -4.05,-7.05 -6.72,-15.02 -6.45,-23.21 5.91,-50.38 1.92,-102.16 -13.67,-150.56 -3.87,-11.15 -8.28,-22.16 -14.36,-32.29 1.23,-1.62 2.43,-3.21 3.63,-4.83 -1.56,-0.06 -4.65,-0.15 -6.21,-0.18 -13.46,-24.8 -32.2,-49.36 -59.55,-59.43 -35.89,-1.86 -75.92,2.64 -103.63,27.95 6.03,-0.09 12.83,-4.17 18.29,-0.09 22.55,14.93 43.81,35.56 50.86,62.49 -4.53,22.94 -14.12,45.22 -28.58,63.72 -0.18,31.61 -4.71,62.94 -10.52,93.95 -4.65,18.38 -8.52,37.15 -16.52,54.42 26.9,7.74 53.97,19.46 72.45,41.26 7.8,13.85 5.28,31.36 15.38,44.17 18.41,29.99 2.43,71.13 -26.66,87.71 -20.09,12.68 -35.23,32.17 -44.68,53.79 -8.4,19.61 -26.78,36.07 -48.79,37.24 -24.56,1.5 -48.13,-8.94 -68.1,-22.4 -11.66,-7.05 -20.57,-18.14 -33.29,-23.51 -23.45,-10.35 -47.8,-18.5 -72.27,-26.06 -9.63,-3.27 -19.97,-3.84 -29.96,-2.16 -8.25,3.6 -15.2,9.78 -23.9,12.47 -13.97,5.61 -29.18,6.03 -44.02,5.49 0.3,0.96 0.9,2.91 1.23,3.87 14.15,5.22 26.96,13.31 40.45,19.97 19.7,10.52 40.81,19.46 57.06,35.29 26.54,23.63 44.65,56.43 49.9,91.64 3.93,20.12 0.87,40.57 -2.55,60.48 63.57,20.69 133.02,21.17 197.36,3.6 -45.58,78.38 -130.59,127.71 -218.45,143.21 -6.09,0.78 -12.17,1.44 -18.17,2.79 -9.95,1.95 -21.65,-1.02 -30.02,6 -24.83,18.92 -56.28,26.63 -86.75,30.44 -51.43,2.82 -103.57,-10.4 -147.83,-36.67 -41.92,-24.11 -75.83,-61.14 -97.99,-103.96 -27.92,-55.02 -37.45,-117.75 -35.35,-178.96 -36.88,-7.68 -72.45,-28.04 -92.93,-60.33 -12.95,-18.83 -19.16,-41.71 -20.84,-64.32 -1.2,-4.29 1.41,-10.56 -2.61,-13.46 -58.74,-14.09 -113.77,-48.49 -147.41,-99.31 -16.73,-23.84 -26.66,-51.64 -33.94,-79.64 -4.92,-24.38 -6.54,-52.69 9.95,-73.26 11.66,-15.71 31.42,-22.19 50.26,-23.33 -22.55,-32.11 -44.26,-65.82 -55.14,-103.93 -8.31,-24.98 -10.65,-52.24 -4.83,-77.99 10.52,-40.21 45.94,-71.64 86.27,-79.91 27.95,-6.27 57.15,-3.51 84.71,3.33 56.1,14.78 106.87,46.51 147.92,87.14 19.22,20 36.49,42.16 48.52,67.32 -1.14,-32.98 -5.16,-66.03 -1.26,-98.95 1.86,-46.69 11.42,-94.07 34.36,-135.15 14.75,-23.57 31.87,-47.14 56.25,-61.5 9.69,-5.91 20.99,-8.88 32.33,-8.34 27.56,6.9 48.28,29.12 59.25,54.54 6.45,13.31 9.35,27.86 12.89,42.13 1.05,9.86 1.17,19.82 1.14,29.75 38.68,-21.41 86.72,-23.78 128.19,-9.42 19.61,-40.78 41.83,-80.9 72.18,-114.79 13.55,-14.51 28.82,-28.52 47.89,-35.17zm70.08 627.75c8.22,5.07 15.71,11.15 23.15,17.3 -13.55,-2.49 -27.02,-5.76 -40.78,-6.84 -5.91,2.37 -8.58,9.15 -12.53,13.82l-1.47 1.95c-2.31,2.94 -4.77,5.79 -6.51,9.09 11.12,7.62 23.24,13.7 35.32,19.64 0.84,1.23 2.49,3.66 3.3,4.86 -17.99,3.39 -35.26,-8.28 -53.46,-7.77 -5.19,5.55 -10.65,10.85 -15.35,16.82 -2.97,2.16 -5.94,4.23 -8.88,6.39 16.04,10.13 32.03,20.39 47.26,31.75l0.3 0.87c2.25,3 4.56,6 6.87,9.03 -12.95,-1.59 -24.17,-8.73 -36.28,-12.98 -9.12,0.21 -18.23,-4.74 -27.05,-2.85 -10.5,14.81 -17.09,39.4 -0.99,52.84 8.76,7.08 17.06,16.31 28.22,19.34 22.01,14.81 59.91,10.29 69.75,-16.97 5.94,-13.28 13.91,-25.49 21.2,-38.02 -4.92,1.17 -11.24,0.51 -14.63,5.04 5.28,-10.79 18.23,-13.43 28.46,-17.45 19.31,-5.43 34.63,-21.08 41.74,-39.55 3.57,-11.12 -2.31,-22.7 -8.01,-32.02 -20,-28.43 -52.12,-44.26 -82.04,-60.03l0 0c-2.25,6.06 -5.1,11.87 -8.4,17.42 3.39,3.03 6.93,5.88 10.82,8.33zm-53.28 -107.23l5.46 -0.06c0.48,23.09 -5.82,45.64 -5.13,68.73 2.7,-0.63 8.04,-1.89 10.73,-2.52 -6.57,5.28 -13.49,10.59 -16.97,18.5 -0.51,1.26 -1.56,3.78 -2.1,5.07 -8.07,25.1 -17.63,50.11 -32.77,71.91 10.7,-6.81 18.83,-16.7 27.38,-25.88 39.1,-43.27 66.27,-97.57 75.2,-155.36 -5.85,-5.4 -11.81,-10.71 -17.3,-16.43 -6.9,-10.56 -14.69,-21.38 -14.21,-34.63 5.22,-2.37 10.41,-4.77 15.47,-7.44 31.69,-16.73 53.94,-47.77 64.08,-81.65 -4.47,-16.37 -13.82,-33.1 -29.21,-41.41 -1.89,7.74 -4.53,15.29 -7.89,22.52l3.81 0.6 -2.55 0.78c-5.94,7.62 -11.39,15.89 -14.57,25.04 -7.71,7.92 -14.75,16.49 -21.65,25.1l-1.2 0.3c-4.44,4.5 -9.15,8.88 -14.99,11.42 1.47,-1.53 2.97,-3.09 4.47,-4.59l-0.03 -2.46c11.36,-13.25 19.16,-29.09 26.99,-44.59 2.52,-6.69 8.31,-14.72 2.67,-21.38 -21.65,-35.02 -50.47,-66.12 -85.73,-87.71 -19.07,-12.35 -39.79,-22.85 -62.16,-27.53l-0.6 -1.83c-1.95,-0.09 -5.91,-0.3 -7.89,-0.39 0.03,7.41 -0.27,14.81 -0.21,22.22 0.12,4.08 0.27,8.28 0.66,12.38 0.84,8.34 2.01,16.67 3.48,24.95 9.72,48.13 34.99,93.11 72.39,125.13 -4.2,-1.98 -8.4,-3.96 -12.65,-5.79 -43.15,-33.76 -68.34,-86.06 -76.43,-139.49 -3.42,-25.04 -5.04,-50.26 -4.17,-75.5 -18.29,-7.08 -36.67,-14.51 -56.25,-17.18 -31.1,-5.73 -65.67,-1.11 -90.83,19.16l0 0c12.08,-1.95 23.54,-6.84 35.83,-8.04 23.3,-0.03 48.1,1.14 68.46,13.76 -3.63,11.87 -2.52,24.38 -2.94,36.61 -1.81,87.01 29.54,180.44 116.94,215.39 -0.12,1.26 -0.36,3.78 -0.51,5.04 -6.33,8.43 -12.32,17.24 -20.15,24.41 -19.76,19.67 -50.86,25.1 -77.09,17.21 -10.14,-1.56 -18.65,-8.58 -28.85,-9.3 -5.34,5.55 -7.41,13.67 -11.21,20.39 -1.47,-7.32 -2.97,-14.6 -4.68,-21.83 -2.01,-16.37 -4.14,-32.8 -8.43,-48.73 0.84,-5.55 0.72,-11.19 -0.72,-16.58 -4.71,-19.37 -9.39,-38.83 -17.33,-57.15 -6.57,-21.26 -19.1,-40.18 -34.57,-55.98 -25.64,-23.12 -63.39,-31 -96.1,-19.91 -0.63,1.11 -1.86,3.33 -2.49,4.44 -32.24,15.92 -56.37,45.76 -69.06,79.04 -14.72,33.85 -14.84,74.66 2.61,107.56 23,45.34 77.27,74.07 127.41,64.62 -11.72,-3.33 -23.06,-7.89 -34.63,-11.63 -1.14,-0.36 -3.42,-1.05 -4.56,-1.38 -4.23,-8.64 -14.48,-11.06 -21.44,-16.91 -14.24,-11.39 -26.6,-25.16 -34.87,-41.5 -8.25,-18.89 -6.27,-40.03 -5.1,-60.06 4.47,-33.04 19.19,-66.99 47.29,-86.51 19.55,-13.88 47.8,-14.78 67.2,-0.18 5.1,3.27 9.15,8.61 15.05,10.4 5.43,10.35 13.64,18.89 18.74,29.45 19.07,36.67 25.49,78.05 31.42,118.44 3.72,23.96 2.49,48.25 5.49,72.27 0.75,21.23 0.3,42.82 5.61,63.57 2.88,23.96 8.04,48.01 18.5,69.93 8.46,18.95 23.84,35.71 44.26,41.53 17.81,4.53 35.65,-3.63 48.88,-15.14 33.25,-29.15 54.48,-69.42 69.06,-110.56 7.86,-23.6 14.75,-47.77 16.7,-72.66zm33.94 -497.31l0 0c3.84,26.69 3.84,55.56 -9.33,79.91 -3.81,7.95 -11.57,13.37 -14.15,22.01 18.68,-6.69 30.44,-24.11 35.62,-42.52 9.42,-25.37 1.53,-53.37 -12.02,-75.65 -2.94,5.04 -0.57,10.88 -0.12,16.25zm-395.54 61.62l0 0c-1.23,0.63 -3.72,1.86 -4.95,2.49 -13.01,12.86 -22.1,29.27 -29.15,46.06 -22.76,50.65 -25.19,107.56 -22.67,162.22 9.09,-7.29 13.61,-18.68 21.47,-27.2 4.47,-5.43 8.79,-10.94 13.28,-16.31 4.86,-4.92 11.45,-9.36 12.11,-16.82 3.42,-19.49 9,-38.47 14.36,-57.48 3.21,-12.86 8.1,-25.31 15.05,-36.61 -6.51,26.75 -7.32,54.45 -12.83,81.35 4.86,-0.57 8.04,-4.62 11.81,-7.26 15.2,-12.2 32.26,-21.89 49.66,-30.62 3.06,-24.56 1.41,-50.23 -9,-72.96 -7.11,-15.68 -17.6,-32.62 -35.71,-36.64 -8.31,0.48 -19.01,1.74 -23.45,9.78zm61.29 127.35l0 0c36.7,-15.17 78.38,-23.93 117.03,-10.67 0.48,-2.34 1.47,-6.96 1.95,-9.3 -11.3,-2.88 -22.64,-6.57 -34.42,-6.3 -29.66,2.04 -59.82,9.15 -84.56,26.27zm-443.07 11.91l0 0c-19.58,7.86 -36.61,24.92 -40.39,46.12 -4.26,10.68 -1.89,22.34 0,33.28 10.5,46.48 29.78,92.18 62.34,127.56 38.98,44.47 96.43,72.45 155.48,75.53 2.16,-4.53 6.3,-9.42 3.51,-14.63 -11.67,-36.76 -34.54,-68.64 -58.83,-98.08 -4.77,-5.37 -8.82,-11.69 -15.32,-15.08 -0.36,-0.75 -1.11,-2.22 -1.47,-2.97 -11.75,-12.86 -23.93,-25.34 -35.71,-38.17 45.52,33.97 88.13,73.05 119.64,120.63 4.08,6.78 7.83,13.73 11.28,20.84 21.05,-17.48 44.41,-33.67 71.43,-40 -1.26,-19.52 -9.24,-37.81 -15.98,-55.92 -7.11,-14.69 -12.83,-30.5 -23.33,-43.21 -8.25,-16.46 -20.57,-30.53 -32.95,-43.99 -36.1,-37.66 -82.79,-65.43 -133.56,-77.81 -21.89,-6.09 -45.34,-2.34 -66.12,5.91zm986.59 79.91l0 0c5.73,11.69 15.47,20.96 20.06,33.34 24.56,47.68 24.98,104.32 10.59,155.15 11.99,-17.54 16.4,-38.59 21.32,-58.89 7.8,-38.05 -3.57,-79.07 -28.94,-108.31 -6.9,-7.83 -13.46,-16.55 -23.03,-21.29zm-565.14 43.63l0 0c-6.45,6.69 -11.79,14.57 -15.17,23.24 -4.5,12.65 -3.18,26.33 -3.99,39.52 9.03,-3.12 18.44,-4.74 28.01,-4.53 -1.77,-20.72 3.63,-40.9 9.45,-60.6 1.23,-2.64 2.46,-5.28 3.6,-7.95 -7.53,2.76 -15.68,4.98 -21.89,10.32zm17.45 57.87c19.13,3.75 36.16,13.49 50.83,26.15l0.09 1.2c1.23,0.84 3.63,2.55 4.83,3.42 3.81,5.07 7.59,10.14 11.33,15.26 1.26,0.36 3.78,1.08 5.04,1.44 -6.3,-15.86 -5.07,-33.76 -11.33,-49.75 -4.56,-20.54 -13.67,-41.92 -29.75,-56.34l-1.14 -0.24c-5.49,-3.33 -11.21,-6.24 -16.94,-9.15 -11.9,14.07 -13.27,51.09 -12.95,68.01zm-7.32 20.84l0 0c-3.96,1.05 -8.01,1.83 -12.02,2.67 -5.01,2.31 -9.96,4.65 -14.87,7.08 4.5,27.92 36.1,33.32 55.11,48.43 0.49,-18.26 5.36,-34.76 6.75,-50.89 -7.05,-4.11 -15.17,-5.49 -22.97,-7.41 -4.02,-0.03 -8.01,0.03 -11.99,0.12zm41.17 13.16l0 0c-0.94,18.29 -3.27,32 -3.15,51.28 8.16,9.75 17.12,18.83 25.13,28.76 6.33,7.74 10.5,17.27 18.05,23.96 -0.48,-22.88 -0.87,-45.79 -1.74,-68.67 -4.98,-6.75 -10.32,-13.28 -16.64,-18.8 -5.76,-6.93 -12.59,-14.36 -21.65,-16.52zm331.82 12.05l0 0c2.94,4.17 8.1,8.79 6.36,14.36 -0.99,5.55 -7.98,6.21 -10.29,10.88 2.91,2.1 6.06,3.96 9.18,5.79 3.84,-12.23 5.1,-25.01 4.89,-37.78 -3.42,2.25 -6.78,4.53 -10.14,6.75zm-11.87 15.17l0 0c1.59,0.3 4.77,0.87 6.39,1.14 0.33,-1.38 1.05,-4.14 1.41,-5.52 -2.31,-7.74 -9.69,-1.41 -7.8,4.38zm-829.95 31.22l0 0c-5.49,16.19 0.6,33.64 7.11,48.61 20.06,58.32 74.52,99.04 132.36,115.65 3.78,-7.29 9.09,-13.58 13.58,-20.39 3.33,-9.54 4.95,-19.61 7.89,-29.24 -3.27,-1.02 -6.54,-2.04 -9.81,-3.06 -20.93,-11 -43.45,-21.86 -58.08,-41.05 19.25,10 29.88,3.29 18.77,9.96 16.79,8.94 35.59,14.03 54.24,16.97 5.79,-11.39 9.68,-23.72 14.81,-35.41 0.9,-3.51 1.59,-7.05 2.22,-10.61 -10.38,-0.75 -19.85,-5.16 -29.72,-7.95 -24.88,-10.73 -51.43,-24.04 -73.08,-40.3 -3.39,-2.64 -7.29,-4.47 -11.27,-5.88 -1.26,-2.16 -2.97,-3.84 -5.13,-5.07 -11.36,-7.77 -25.73,-8.7 -39.07,-8.28 -10.31,0.15 -21.11,6.06 -24.83,16.04zm299.35 -8.25l0 0c-39.13,13.67 -61.5,55.83 -63.33,95.53 0.93,-0.9 2.82,-2.67 3.75,-3.57 8.97,-5.07 17.81,-10.4 27.14,-14.78l-0.27 -2.1c26.6,-10.47 55.14,-13.4 82.7,-20.06 -4.38,-4.14 -9.54,-7.32 -15.26,-9.18l-1.8 -3.03c-10.17,-4.05 -24.41,-0.78 -31.7,-11.18 15.02,-3.51 30.29,-0.93 45.37,0.48 -7.41,-12.5 -14.57,-22.94 -16.61,-37.54 -9.9,0.96 -18.71,2.26 -29.99,5.43zm76.58 71.34l0 0c-6.54,1.83 -16.1,2.52 -17,11.09 -23.63,2.1 -47.68,4.83 -69.9,13.58 -22.31,9.47 -29.18,36.01 -49.69,48.1 1.32,-3.87 2.64,-7.77 3.99,-11.63 -14.36,8.96 -31.51,8.64 -47.32,12.65 -11.69,6.78 -18.74,19.64 -23.03,32.11 -3.9,9.45 -2.01,19.82 -3.87,29.63 -3.54,17.75 0.06,36.01 4.2,53.34 0.36,1.86 1.05,5.55 1.41,7.41 7.2,22.1 22.7,41.26 42.73,52.98 12.86,6.72 30.05,20.45 43.9,9.78 7.38,-4.59 15.11,-9.42 20.15,-16.64 5.91,-10.34 2.49,-22.97 -2.82,-32.8 -8.22,-19.88 -18.41,-39.25 -30.41,-57.18 -0.18,-0.99 -0.57,-2.97 -0.75,-3.93 1.98,3.48 5.88,3.87 9.45,4.62 15.32,10.59 28.28,24.62 36.85,41.23 0.39,-0.12 1.17,-0.36 1.56,-0.48 9.27,12.86 10.73,28.85 17.81,42.73 16.07,2.64 31.15,-4.32 44.05,-13.19 -0.24,-27.47 -1.65,-54.96 -6.09,-82.07 -2.7,-14.93 -5.94,-30.26 -14.72,-42.94 9.72,-1.23 17.12,10.26 24.56,15.71 11.63,31.28 9.89,65.04 13.46,97.69 4.11,2.07 8.22,4.14 12.32,6.27l2.67 -1.05c10.79,2.07 22.01,2.1 32.89,0.51 10.17,-2.19 21.68,-10.17 20.69,-21.8 0.57,-33.94 -0.39,-67.86 -0.6,-101.8 0.48,-18.47 -12.68,-32.95 -21.68,-47.83 14.93,11.66 29.87,23.42 43.93,36.13 -0.12,21.98 4.02,44.62 -3.3,65.91l0.72 1.77c-3.75,8.31 -4.62,18.32 -0.96,26.84 3.81,-2.76 7.65,-5.49 11.45,-8.25 2.01,-0.66 3.09,-1.92 3.3,-3.81 20.63,-16.88 30.62,-45.16 27.41,-71.37 -3.18,-14.39 -13.58,-25.88 -25.46,-34 -0.09,-0.24 -0.3,-0.78 -0.39,-1.02 -12.08,-9.03 -25.7,-15.95 -36.49,-26.57 -10.49,-9.66 -17.54,-22.49 -28.34,-31.75 -11.4,-6.54 -24.77,-2.55 -36.7,0.03zm479.38 30.95l0 0c1.08,7.83 10.46,7.74 16.04,11 12.56,4.29 22.25,14.63 35.08,17.93 -11.3,-16.82 -31.69,-25.67 -51.12,-28.94zm-182.1 154.64l0 0c0.48,1.02 1.44,3.03 1.92,4.05 8.79,3.36 17.48,7.38 26.99,8.19 -0.69,-1.98 -2.07,-5.91 -2.76,-7.89 -5.58,-8.85 -17.66,-3.15 -26.15,-4.35zm-282.11 55.56l0 0c-22.52,9.09 -43.21,24.02 -58.95,42.82 -4.05,5.01 -8.64,10.05 -10.19,16.46 -6.57,7.05 -9.45,16.49 -12.83,25.28 -9.6,28.1 -12.62,59.37 -5.52,88.34 2.89,-9.39 6.42,-17.35 9.53,-26.77 4.2,-12.67 3.82,-10.68 9.23,-25.03 4.91,-13.02 14.22,-24.42 21.52,-35.93 9.89,-15.61 20.26,-24.85 34.89,-36.01l1.93 -1.45c17.86,-12.86 36.89,-21.6 57.68,-28.57 17.9,-6.48 36.37,-10.89 55.14,-13.94 9.93,-1.59 20.15,-0.6 29.96,-3 -5.97,-2.31 -12.02,-4.41 -18.35,-5.34 -37.27,-10.5 -77.33,-8.94 -114.04,3.15zm84.56 43.72l0 0 -1.8 0.86c-58.61,27.39 -106.5,63.05 -121.45,129.29 -5.78,25.61 -11.71,66.14 1.2,89.67 9.9,18.04 18.99,33.58 40.16,42.01 -3.03,-11.84 -3.72,-24.8 -9.36,-35.65 -3.12,-79.97 -3.02,-123.8 65.99,-175.18 8.76,-6.52 16.76,-12.95 26.1,-18.57l3.17 -1.52c10.14,-4.77 20.96,-7.74 31.25,-12.05 32.12,-10.32 66.12,-13.19 99.64,-9.96 -15.98,-11.93 -35.14,-19.16 -54.48,-23.63 -27.56,-3.99 -54.96,4.92 -80.42,14.72zm98.02 36.73l0 0c-21.02,5.76 -42.04,13.31 -59.88,26.12 14.51,-0.81 27.08,-9.9 41.77,-9.86 8.28,0.21 18.38,-2.61 25.07,3.81 10.32,8.55 17.75,19.88 25.1,30.98 -10.11,12.77 -22.46,24.08 -29.66,38.89 10.91,-5.79 21.68,-12.65 34.21,-14.27 16.37,-3.54 33.13,0.75 47.71,8.43 3.87,-21.83 2.76,-46.36 -10.59,-64.89 -17.6,-21.23 -48.22,-25.28 -73.73,-19.19zm-9.72 152.36l0 0c-11.9,30.26 9.39,64.65 39.46,73.26l1.41 -0.57c20.27,3.09 41.14,2.85 61.38,-0.54 47.53,-6.75 92.21,-27.53 131.67,-54.36 10.85,-6.9 21.53,-14.3 30.62,-23.48 3.36,-1.89 6.09,-4.71 8.97,-7.23 -37.45,6.24 -75.98,7.68 -113.53,1.17 -19.46,-3.12 -38.11,-9.69 -57.03,-15.05 -19.55,-5.79 -39.55,-15.56 -60.45,-10.85 -19.94,3.15 -35.74,19.16 -42.49,37.66z"/>
   <path class="fil1" d="M870.64 38.08c-0.45,-5.37 -2.82,-11.22 0.12,-16.25 13.55,22.28 21.44,50.29 12.02,75.65 -5.19,18.41 -16.94,35.83 -35.62,42.52 2.58,-8.64 10.35,-14.06 14.15,-22.01 13.16,-24.35 13.16,-53.22 9.33,-79.91z"/>
   <path class="fil1" d="M1079.91 318.87c9.57,4.74 16.13,13.46 23.03,21.29 25.37,29.24 36.73,70.26 28.94,108.31 -4.92,20.3 -9.33,41.35 -21.32,58.89 14.39,-50.83 13.97,-107.47 -10.58,-155.15 -4.59,-12.38 -14.33,-21.65 -20.06,-33.34z"/>
   <path class="fil2" d="M475.09 99.7c4.44,-8.04 15.14,-9.3 23.45,-9.78 18.11,4.02 28.61,20.96 35.71,36.64 10.41,22.73 12.05,48.4 9,72.96 -17.39,8.73 -34.45,18.41 -49.66,30.62 -3.78,2.64 -6.96,6.69 -11.81,7.26 5.52,-26.9 6.33,-54.6 12.83,-81.35 -6.96,11.3 -11.84,23.75 -15.05,36.61 0.09,-2.1 0.3,-6.33 0.39,-8.43 -16.19,24.38 -23.18,54 -26.87,82.73 -4.5,5.37 -8.81,10.88 -13.28,16.31 -1.92,-17.57 -1.77,-35.23 -1.83,-52.87 1.68,-20.66 5.55,-41.08 10.49,-61.17 6.69,-23.99 18.02,-46.27 26.63,-69.54z"/>
   <path class="fil3" d="M470.15 102.19c1.23,-0.63 3.72,-1.86 4.95,-2.49 -8.61,23.27 -19.94,45.55 -26.63,69.54 -4.95,20.09 -8.81,40.51 -10.49,61.17 0.06,17.63 -0.09,35.29 1.83,52.87 -7.86,8.52 -12.38,19.91 -21.47,27.2 -2.52,-54.66 -0.09,-111.58 22.67,-162.22 7.05,-16.79 16.13,-33.19 29.15,-46.06z"/>
   <path class="fil4" d="M744.25 361.54c-23,-27.26 -32.92,-62.55 -40.21,-96.76 -4.77,-20.99 -4.62,-42.67 -4.17,-64.05 -4.32,-2.01 -8.64,-4.08 -13.07,-5.76 -17.87,-6.63 -37,-8.34 -55.8,-10.56 -7.74,0.96 -15.5,1.68 -23.18,2.94 -12.29,1.2 -23.75,6.09 -35.83,8.04 25.16,-20.27 59.73,-24.89 90.83,-19.16 19.58,2.67 37.96,10.11 56.25,17.18 -0.87,25.25 0.75,50.47 4.17,75.5 8.1,53.43 33.28,105.73 76.43,139.49 -23.54,-7.92 -40.12,-28.28 -55.41,-46.87z"/>
   <path class="fil5" d="M453.08 266.96c3.69,-28.73 10.68,-58.35 26.87,-82.73 -0.09,2.1 -0.3,6.33 -0.39,8.43 -5.37,19.01 -10.94,37.99 -14.36,57.48 -0.66,7.47 -7.26,11.9 -12.11,16.82z"/>
   <path class="fil6" d="M686.79 194.97c4.44,1.68 8.76,3.75 13.07,5.76 -0.45,21.38 -0.6,43.06 4.17,64.05 7.29,34.21 17.21,69.51 40.21,96.76 15.29,18.59 31.88,38.95 55.41,46.87 4.26,1.83 8.46,3.81 12.65,5.79 -37.39,-32.03 -62.67,-77 -72.39,-125.13 -1.86,-10.29 -1.47,-20.84 1.98,-30.74 21.41,2.46 41.2,12.32 58.62,24.59 20.51,15.11 39.67,32.62 53.94,53.88 9,13.25 19.16,27.95 17.42,44.8 -0.36,9.75 -5.55,18.29 -9.21,27.05 0,1.08 0,3.21 0.03,4.29l0.03 2.46c-1.5,1.5 -3,3.06 -4.47,4.59 5.85,-2.55 10.56,-6.93 14.99,-11.42l1.2 -0.3c6.9,-8.61 13.94,-17.18 21.65,-25.1 3.18,-9.14 8.64,-17.42 14.57,-25.04 7.2,6.39 15.41,13.52 17.24,23.42 -1.77,21.2 -16.58,37.12 -26.42,54.84 -7.35,6.99 -15.17,13.61 -24.29,18.23 -12.41,0.12 -19.43,13.73 -14.39,24.53 6.21,12.05 13.64,23.93 14.81,37.84 -5.31,29.48 -13.85,59.07 -29.9,84.56 -2.7,0.63 -8.04,1.89 -10.73,2.52 -0.69,-23.09 5.61,-45.64 5.13,-68.73l-5.46 0.06c0.75,-9.18 1.23,-18.35 1.95,-27.5 -2.28,11.6 -5.28,23.06 -8.58,34.42 -8.94,25.79 -19.1,51.09 -29.39,76.34 -14.63,28.94 -29.78,58.62 -53.82,80.99 -12.59,10.35 -28.34,19.43 -45.28,16.7 -18.32,-1.86 -29.09,-18.8 -38.95,-32.36 -11.03,-25.79 -20.39,-52.68 -21.71,-80.96 -0.51,6.42 -1.26,12.8 -1.62,19.25 -5.31,-20.75 -4.86,-42.34 -5.61,-63.57 -3,-24.02 -1.77,-48.31 -5.49,-72.27 -5.94,-40.39 -12.35,-81.77 -31.42,-118.44 -5.1,-10.56 -13.31,-19.1 -18.74,-29.45 -5.91,-1.8 -9.95,-7.14 -15.05,-10.4 -19.4,-14.6 -47.65,-13.7 -67.2,0.18 -28.1,19.52 -42.82,53.46 -47.29,86.51 -1.17,20.03 -3.15,41.17 5.1,60.06 8.28,16.34 20.63,30.11 34.87,41.5 6.96,5.85 17.21,8.28 21.44,16.91 -16.91,-2.73 -31.73,-11.6 -44.95,-22.01 -21.11,-15.86 -35.74,-40.21 -39.1,-66.45 -5.46,-37.72 5.97,-76.1 25.07,-108.46 11,-14.66 23.51,-28.46 39.28,-38.11 9.57,-6.72 21.8,-5.79 32.89,-7.47 29.54,3.27 52.95,25.76 70.44,48.31 16.49,23.03 27.02,49.42 36.55,75.86 1.56,5.04 2.76,10.17 3.84,15.32 1.35,2.52 4.08,7.5 5.43,9.99 4.29,15.92 6.42,32.35 8.43,48.73 1.71,7.23 3.21,14.51 4.68,21.83 3.81,-6.72 5.88,-14.84 11.21,-20.39 10.19,0.72 18.71,7.74 28.85,9.3 26.24,7.89 57.33,2.46 77.09,-17.21 7.83,-7.17 13.82,-15.98 20.15,-24.41 0.15,-1.26 0.39,-3.78 0.51,-5.04 -57.21,-22.88 -97.24,-78.32 -108.82,-137.84 -7.74,-25.04 -8.67,-51.55 -8.13,-77.54 0.42,-12.23 -0.69,-24.74 2.94,-36.61 -20.36,-12.62 -45.16,-13.79 -68.46,-13.76 7.68,-1.26 15.44,-1.98 23.18,-2.94 18.8,2.22 37.93,3.93 55.8,10.56z"/>
   <path class="fil7" d="M536.38 227.05c24.74,-17.12 54.9,-24.23 84.56,-26.27 11.78,-0.27 23.12,3.42 34.42,6.3 -0.48,2.34 -1.47,6.96 -1.95,9.3 -38.65,-13.25 -80.33,-4.5 -117.03,10.68z"/>
   <path class="fil8" d="M851.83 677.95c1.74,-3.3 4.2,-6.15 6.51,-9.09l1.47 -1.95c-0.51,1.26 -1.56,3.81 -2.1,5.07 8.34,8.28 18.41,14.45 27.11,22.31 0.57,0.81 1.74,2.46 2.34,3.3 -12.08,-5.94 -24.2,-12.02 -35.32,-19.64z"/>
   <path class="fil8" d="M812.76 717.89c2.94,-2.16 5.91,-4.23 8.88,-6.39 8.22,7.86 17.09,14.99 25.91,22.19 5.07,4.44 11.04,8.91 12.47,15.95 -15.23,-11.36 -31.22,-21.62 -47.26,-31.75z"/>
   <path class="fil9" d="M744.49 231.73c22.37,4.68 43.09,15.17 62.16,27.53 35.26,21.59 64.08,52.68 85.73,87.71 5.64,6.66 -0.15,14.69 -2.67,21.38 -7.83,15.5 -15.62,31.34 -26.99,44.59 -0.03,-1.08 -0.03,-3.21 -0.03,-4.29 3.66,-8.76 8.85,-17.3 9.21,-27.05 1.74,-16.85 -8.43,-31.54 -17.42,-44.8 -14.27,-21.26 -33.43,-38.77 -53.94,-53.88 -17.42,-12.26 -37.21,-22.13 -58.62,-24.59 -3.45,9.9 -3.84,20.45 -1.98,30.74 -1.47,-8.28 -2.64,-16.61 -3.48,-24.95 -0.39,-4.11 -0.54,-8.31 -0.66,-12.38 -0.06,-7.41 0.24,-14.81 0.21,-22.22 1.98,0.09 5.94,0.3 7.89,0.39l0.6 1.83z"/>
   <path class="fil10" d="M52.92 318.36c-1.89,-10.94 -4.26,-22.61 0,-33.28 2.01,33.28 13.55,65.73 31.39,93.8 20.87,37.3 50.38,70.5 87.68,91.94 22.55,13.1 48.61,19.4 74.54,20.6 -3.78,-22.13 -14.75,-41.89 -24.95,-61.56 -6.51,-12.44 -15.89,-23.24 -21.5,-36.19 6.51,3.39 10.55,9.72 15.32,15.08 24.29,29.45 47.17,61.32 58.83,98.08 2.79,5.22 -1.35,10.11 -3.51,14.63 -59.04,-3.09 -116.49,-31.07 -155.48,-75.53 -32.56,-35.38 -51.85,-81.08 -62.34,-127.56z"/>
   <path class="fil11" d="M490.63 290.68c32.71,-11.09 70.47,-3.21 96.1,19.91 15.47,15.8 28.01,34.72 34.57,55.98 7.95,18.32 12.62,37.78 17.33,57.15 1.44,5.4 1.56,11.03 0.72,16.58 -1.35,-2.49 -4.08,-7.47 -5.43,-9.99 -1.08,-5.16 -2.28,-10.29 -3.84,-15.32 -9.54,-26.45 -20.06,-52.83 -36.55,-75.86 -17.48,-22.55 -40.9,-45.04 -70.44,-48.31 -11.81,-0.9 -23.75,0.36 -34.96,4.29 0.63,-1.11 1.86,-3.33 2.49,-4.44z"/>
   <path class="fil12" d="M488.14 295.12c11.21,-3.93 23.15,-5.19 34.96,-4.29 -11.09,1.68 -23.33,0.75 -32.89,7.47 -15.77,9.66 -28.28,23.45 -39.28,38.11 -19.1,32.35 -30.53,70.74 -25.07,108.46 3.36,26.24 17.99,50.59 39.1,66.45 13.22,10.4 28.04,19.28 44.95,22.01 1.14,0.33 3.42,1.02 4.56,1.38 11.57,3.75 22.91,8.31 34.63,11.63 -50.14,9.45 -104.41,-19.28 -127.41,-64.62 -17.45,-32.89 -17.33,-73.7 -2.61,-107.56 12.68,-33.28 36.82,-63.12 69.06,-79.04z"/>
   <path class="fil13" d="M897.89 466.43c3.36,-2.22 6.72,-4.5 10.14,-6.75 0.21,12.78 -1.05,25.55 -4.89,37.78 -3.12,-1.83 -6.27,-3.69 -9.18,-5.79 2.31,-4.68 9.3,-5.34 10.29,-10.88 1.74,-5.58 -3.42,-10.2 -6.36,-14.36z"/>
   <path class="fil13" d="M886.02 481.6c-1.89,-5.79 5.49,-12.11 7.8,-4.38 -0.36,1.38 -1.08,4.14 -1.41,5.52 -1.62,-0.27 -4.8,-0.84 -6.39,-1.14z"/>
   <path class="fil13" d="M191.88 552.31c-0.24,-0.93 -0.69,-2.79 -0.9,-3.72 6.18,2.52 12.35,5.07 18.47,7.71 9.87,2.79 19.34,7.2 29.72,7.95 -0.63,3.57 -1.32,7.11 -2.22,10.62 -0.3,-2.19 -0.9,-6.57 -1.2,-8.76 -14.93,-3.51 -29.6,-8.16 -43.87,-13.79z"/>
   <path class="fil14" d="M514.76 362.5c6.21,-5.34 14.36,-7.56 21.89,-10.32 -1.14,2.67 -2.37,5.31 -3.6,7.95 -5.82,19.7 -11.21,39.88 -9.44,60.6 -9.57,-0.21 -18.98,1.41 -28.01,4.53 0.81,-13.19 -0.51,-26.87 3.99,-39.52 3.39,-8.67 8.73,-16.55 15.17,-23.24z"/>
   <path class="fil15" d="M545.17 352.36c5.73,2.91 11.45,5.82 16.94,9.15 -3.57,-0.75 -7.14,-1.68 -10.64,-2.64 -3.03,-0.03 -6.27,0.24 -8.79,2.13 -0.36,1.29 -1.08,3.93 -1.47,5.22 27.02,17.06 38.08,50.11 41.83,80.3 -14.66,-12.65 -31.7,-22.4 -50.83,-26.15 -0.34,-18.32 0.66,-53.48 12.95,-68.01z"/>
   <path class="fil16" d="M325.94 354.85c10.5,12.71 16.22,28.52 23.33,43.21 6.75,18.11 14.72,36.4 15.98,55.92 -27.02,6.33 -50.38,22.52 -71.43,40 -3.45,-7.11 -7.2,-14.06 -11.27,-20.84 19.43,-13.49 39.58,-25.97 61.05,-35.95 -1.95,-28.22 -12.65,-54.69 -17.66,-82.34z"/>
   <path class="fil17" d="M542.68 361c2.52,-1.89 5.76,-2.16 8.79,-2.13 3.51,0.96 7.08,1.89 10.64,2.64l1.14 0.24c16.07,14.42 25.19,35.8 29.75,56.34 6.27,15.98 5.04,33.88 11.33,49.75 -1.26,-0.36 -3.78,-1.08 -5.04,-1.44 -3.75,-5.13 -7.53,-10.19 -11.33,-15.26 -1.2,-0.87 -3.6,-2.58 -4.83,-3.42l-0.09 -1.2c-3.75,-30.2 -14.81,-63.24 -41.83,-80.3 0.39,-1.29 1.11,-3.93 1.47,-5.22z"/>
   <path class="fil18" d="M524.9 441.21c3.99,-0.09 7.98,-0.15 12,-0.12 7.8,1.92 15.92,3.3 22.97,7.41 -1.68,17.38 -6.85,34.23 -6.75,50.89 -19.01,-15.11 -50.62,-20.51 -55.11,-48.43 4.92,-2.43 9.87,-4.77 14.87,-7.08 4.02,-0.84 8.07,-1.62 12.02,-2.67z"/>
   <path class="fil19" d="M566.07 454.38c9.06,2.16 15.89,9.6 21.65,16.52 -1.11,21.17 1.71,42.34 0.33,63.51 -8.01,-9.93 -16.97,-19.01 -25.13,-28.76 -0.12,-19.28 2.21,-32.99 3.15,-51.28z"/>
   <path class="fil20" d="M587.72 470.9c6.33,5.52 11.67,12.05 16.64,18.8 0.87,22.88 1.26,45.79 1.74,68.67 -7.56,-6.69 -11.72,-16.22 -18.05,-23.96 1.38,-21.17 -1.44,-42.34 -0.33,-63.51z"/>
   <path class="fil21" d="M56.07 512.82c3.72,-9.99 14.51,-15.89 24.83,-16.04 13.34,-0.42 27.71,0.51 39.07,8.28 2.16,1.23 3.87,2.91 5.13,5.07 5.04,13.55 18.05,20.87 28.28,30.11 16.13,14 34.9,24.86 54.93,32.33 1.11,6.93 2.19,13.88 3.27,20.87 -24.57,-1.37 -43.38,-0.17 -62.46,-10.07 14.63,19.19 37.15,30.05 58.08,41.05 -7.2,9.9 -12.86,21.32 -22.64,29 -5.4,4.68 -13.01,2.01 -19.01,0.15 -24.77,-9.98 -45.34,-27.65 -64.83,-45.49 -13.58,-14.6 -27.32,-29.39 -37.54,-46.63 -6.51,-14.96 -12.59,-32.41 -7.11,-48.61z"/>
   <path class="fil22" d="M402.02 536.69c-15.08,-1.41 -30.35,-3.99 -45.37,-0.48 7.29,10.41 21.53,7.14 31.69,11.19l1.8 3.03c-25.01,-1.35 -46.18,14.51 -68.07,24.26 0.18,1.23 0.48,3.72 0.63,4.98l0.27 2.1c-9.33,4.38 -18.17,9.72 -27.14,14.78 7.59,-9.21 7.56,-21.74 11.99,-32.38 6.23,-30.18 46.2,-58.41 78.44,-61.91l15.74 34.44z"/>
   <path class="fil23" d="M881.19 499.35c5.49,5.73 11.45,11.03 17.3,16.43 -8.93,57.78 -36.1,112.09 -75.2,155.36 -8.55,9.18 -16.67,19.07 -27.38,25.88 15.14,-21.8 24.71,-46.81 32.77,-71.91 0.54,-1.29 1.59,-3.81 2.1,-5.07 3.48,-7.92 10.4,-13.22 16.97,-18.5 16.04,-25.49 24.59,-55.08 29.9,-84.56 -1.17,-13.91 -8.61,-25.79 -14.81,-37.84 -5.04,-10.79 1.98,-24.41 14.39,-24.53 9.12,-4.62 16.94,-11.24 24.29,-18.23 9.83,-17.72 24.65,-33.64 26.42,-54.84 -1.83,-9.89 -10.05,-17.03 -17.24,-23.42l2.55 -0.78 -3.81 -0.6c3.36,-7.23 6,-14.78 7.89,-22.52 15.38,8.31 24.74,25.04 29.21,41.41 -10.14,33.88 -32.38,64.92 -64.08,81.65 -5.07,2.67 -10.25,5.07 -15.47,7.44 -0.48,13.25 7.32,24.08 14.21,34.63z"/>
   <path class="fil24" d="M830.06 542.33c3.3,-11.36 6.3,-22.82 8.58,-34.42 -0.72,9.15 -1.2,18.32 -1.95,27.5 -1.95,24.89 -8.85,49.06 -16.7,72.66 -14.57,41.14 -35.8,81.41 -69.06,110.56 -13.22,11.52 -31.06,19.67 -48.88,15.14 -20.42,-5.82 -35.8,-22.58 -44.26,-41.53 -10.46,-21.92 -15.62,-45.97 -18.5,-69.93 0.36,-6.45 1.11,-12.83 1.62,-19.25 1.32,28.28 10.68,55.17 21.71,80.96 9.87,13.55 20.63,30.5 38.95,32.36 16.94,2.73 32.68,-6.36 45.28,-16.7 24.05,-22.37 39.19,-52.05 53.82,-80.99 10.29,-25.25 20.45,-50.56 29.39,-76.34z"/>
   <path class="fil25" d="M125.1 510.12c3.99,1.41 7.89,3.24 11.27,5.88 28.32,21.28 68.75,40.25 102.79,48.25 0.3,2.19 -2.52,8.43 -2.22,10.62 -5.13,11.7 -9.03,24.02 -14.81,35.41 -18.65,-2.94 -37.45,-8.04 -54.24,-16.97 1.65,-0.99 4.92,-3.03 6.54,-4.02l2.13 -0.72c11.48,2.7 23.24,4.2 35.02,4.86 -1.08,-6.99 -2.16,-13.94 -3.27,-20.87 -20.03,-7.47 -38.8,-18.32 -54.93,-32.33 -10.23,-9.24 -23.24,-16.55 -28.28,-30.11z"/>
   <path class="fil26" d="M322.08 574.68c21.89,-9.75 43.06,-25.61 68.07,-24.26 5.73,1.86 10.88,5.04 15.26,9.18 -27.56,6.66 -56.1,9.6 -82.7,20.06 -0.15,-1.26 -0.45,-3.75 -0.63,-4.98z"/>
   <path class="fil27" d="M63.18 561.43c10.23,17.24 23.96,32.02 37.54,46.63 19.49,17.84 40.06,35.5 64.83,45.49 6,1.86 13.61,4.53 19.01,-0.15 9.77,-7.68 15.44,-19.1 22.64,-29 3.27,1.02 6.54,2.04 9.81,3.06 -2.94,9.63 -4.56,19.7 -7.89,29.24 -4.5,6.81 -9.81,13.1 -13.58,20.39 -57.84,-16.61 -112.3,-57.33 -132.36,-115.66z"/>
   <path class="fil28" d="M432 575.91c11.93,-2.58 25.31,-6.57 36.7,-0.03 10.79,9.26 17.84,22.1 28.34,31.75 10.79,10.61 24.41,17.54 36.49,26.57 -1.53,0.48 -4.53,1.5 -6.06,1.98 -21.29,-13.61 -42.13,-29.42 -57.42,-49.75 -15.8,-9.98 -36.31,-5.67 -51.99,2.55 -14.6,8.25 -32.41,3.15 -47.23,10.71 -16.64,7.29 -42.19,8.94 -45.25,31.31 -8.22,9.45 -17.54,18.38 -29.84,22.1 -15.17,7.44 -33.19,-3 -47.68,6.69 -5.43,2.85 -5.91,9.6 -8.19,14.63 -11.93,14.75 -12.29,34.15 -12.89,52.21 1.89,12.62 3.87,25.34 2.4,38.17 -4.14,-17.33 -7.74,-35.59 -4.2,-53.34 1.86,-9.81 -0.03,-20.18 3.87,-29.63 4.29,-12.47 11.33,-25.34 23.03,-32.11 15.8,-4.02 32.95,-3.69 47.32,-12.65 -1.35,3.87 -2.67,7.77 -3.99,11.63 20.51,-12.08 27.38,-38.62 49.69,-48.1 22.22,-8.76 46.27,-11.49 69.9,-13.58 0.9,-8.58 10.47,-9.27 17,-11.09z"/>
   <path class="fil29" d="M418.06 588.98c15.68,-8.22 36.19,-12.53 51.99,-2.55 15.29,20.33 36.13,36.13 57.42,49.75 1.53,-0.48 4.53,-1.5 6.06,-1.98 0.09,0.24 0.3,0.78 0.39,1.02 2.34,12.14 17.12,19.31 13.55,32.68 1.17,0.03 3.51,0.12 4.68,0.15 1.38,15.53 -1.95,31.03 -6.78,45.76 -2.94,9.75 -13.49,15.98 -13.4,26.78 -0.21,1.89 -1.29,3.15 -3.3,3.81 -4.89,-5.31 -7.71,-12.05 -10.49,-18.59l-0.72 -1.77c7.32,-21.29 3.18,-43.93 3.3,-65.91 -14.06,-12.71 -29,-24.47 -43.93,-36.13 9,14.87 22.16,29.36 21.68,47.83 0.21,33.94 1.17,67.86 0.6,101.8 0.99,11.63 -10.53,19.61 -20.69,21.8 -10.88,1.59 -22.1,1.56 -32.89,-0.51 12.23,-5.16 25.4,-7.59 37.78,-12.38 1.29,-26.84 5.94,-53.7 1.02,-80.48 -4.29,-25.52 -12.89,-53.25 -34.66,-69.24 -7.5,-5.91 -15.65,-11.37 -24.98,-13.82 -13.76,-3.81 -28.19,-2.25 -42.28,-3.09 -11.78,-3.72 -23.24,2.37 -34.72,4.56 -8.64,1.41 -15.68,6.93 -22.1,12.53 3.06,-22.37 28.61,-24.02 45.25,-31.31 14.81,-7.56 32.62,-2.46 47.23,-10.71z"/>
   <path class="fil30" d="M911.39 606.85c19.43,3.27 39.82,12.11 51.13,28.94 -12.83,-3.3 -22.52,-13.64 -35.08,-17.93 -5.58,-3.27 -14.96,-3.18 -16.04,-11z"/>
   <path class="fil30" d="M334.76 785.51c5.31,9.84 8.73,22.46 2.82,32.8 -5.04,7.23 -12.77,12.05 -20.15,16.64 -1.44,0.06 -4.32,0.15 -5.76,0.21 1.89,-2.07 3.78,-4.08 5.73,-6.06 16.91,-7.56 17.81,-27.59 17.36,-43.6z"/>
   <path class="fil31" d="M347.68 618.46c11.48,-2.19 22.94,-8.28 34.72,-4.56 -17.03,4.23 -35.38,7.86 -48.52,20.51 -16.94,15.83 -35.14,32.15 -58.59,37.09 -0.18,-2.52 -0.54,-7.56 -0.72,-10.07 -13.31,-1.68 -24.71,5.07 -34.69,12.98 2.28,-5.04 2.76,-11.78 8.19,-14.63 14.48,-9.69 32.5,0.75 47.68,-6.69 12.29,-3.72 21.62,-12.65 29.84,-22.1 6.42,-5.61 13.46,-11.12 22.1,-12.53z"/>
   <path class="fil32" d="M333.89 634.41c13.13,-12.65 31.49,-16.28 48.52,-20.51 14.09,0.84 28.52,-0.72 42.28,3.09 9.33,2.46 17.48,7.92 24.98,13.82 21.77,15.98 30.38,43.72 34.66,69.24 4.92,26.78 0.27,53.64 -1.02,80.48 -12.38,4.8 -25.55,7.23 -37.78,12.38l-2.67 1.05c-6.18,-20.51 -5.1,-42.28 -9.83,-63.12 -3.39,-14.12 -4.35,-30.56 -15.95,-40.84 -7.44,-5.46 -14.84,-16.94 -24.56,-15.71l-2.46 1.5c4.41,23.9 12.38,47.26 13.28,71.76 0.36,14.48 1.65,29.18 -0.84,43.54 -4.68,8.76 -13.82,13.73 -21.86,18.98 -1.35,-1.02 -4.08,-3.06 -5.46,-4.08 -1.98,2.13 -3.96,4.32 -5.91,6.51 -7.08,-13.88 -8.55,-29.87 -17.81,-42.73 -0.39,0.12 -1.17,0.36 -1.56,0.48 -8.58,-16.61 -21.53,-30.65 -36.85,-41.23 -3.57,-0.75 -7.47,-1.14 -9.45,-4.62 0.18,0.96 0.57,2.94 0.75,3.93 11.99,17.93 22.19,37.3 30.41,57.18 0.45,16.01 -0.45,36.04 -17.36,43.6 -1.95,1.98 -3.84,3.99 -5.73,6.06 1.44,-0.06 4.32,-0.15 5.76,-0.21 -13.85,10.68 -31.04,-3.06 -43.9,-9.78l5.01 -1.89c-8.07,-11.99 -18.8,-21.89 -26.72,-33.97 -7.44,-10.4 -11.9,-22.46 -17.24,-33.97 -2.31,5.34 -3.75,11 -3.78,16.85 -0.36,-1.86 -1.05,-5.55 -1.41,-7.41 1.47,-12.83 -0.51,-25.55 -2.4,-38.17 0.6,-18.05 0.96,-37.45 12.89,-52.21 9.99,-7.92 21.38,-14.66 34.69,-12.98 0.18,2.52 0.54,7.56 0.72,10.07 23.45,-4.95 41.65,-21.26 58.59,-37.09z"/>
   <path class="fil33" d="M887.55 616.87c29.92,15.77 62.04,31.6 82.04,60.03 5.7,9.33 11.57,20.9 8.01,32.02 -7.11,18.47 -22.43,34.12 -41.74,39.55 -10.22,4.02 -23.18,6.66 -28.46,17.45 3.39,-4.53 9.71,-3.87 14.63,-5.04 -7.29,12.53 -15.26,24.74 -21.2,38.02 -9.83,27.26 -47.74,31.78 -69.75,16.97 14.51,1.68 29.84,3.21 42.94,-4.77 12.11,-12.02 17.51,-28.37 24.23,-43.63 9.06,-20.18 30.97,-29.36 43.09,-47.2 5.79,-8.16 9.57,-19.01 5.64,-28.76 -5.31,-15.56 -21.11,-23.09 -33.85,-31.6 -7.44,-6.15 -14.93,-12.23 -23.15,-17.3 -3.9,-2.46 -7.44,-5.31 -10.82,-8.33 3.3,-5.55 6.15,-11.36 8.4,-17.42z"/>
   <path class="fil34" d="M533.93 635.22c11.87,8.13 22.28,19.61 25.46,34 3.21,26.21 -6.78,54.48 -27.41,71.37 -0.09,-10.8 10.47,-17.03 13.4,-26.78 4.83,-14.72 8.16,-30.23 6.78,-45.76 -1.17,-0.03 -3.51,-0.12 -4.68,-0.15 3.57,-13.37 -11.21,-20.54 -13.55,-32.68z"/>
   <path class="fil35" d="M859.81 666.92c3.96,-4.68 6.63,-11.45 12.53,-13.82 13.76,1.08 27.23,4.35 40.78,6.84 12.74,8.52 28.55,16.04 33.85,31.6 3.93,9.75 0.15,20.6 -5.64,28.76 -12.11,17.84 -34.03,27.02 -43.09,47.2 -6.72,15.26 -12.11,31.6 -24.23,43.63 -13.1,7.98 -28.43,6.45 -42.94,4.77 -11.15,-3.03 -19.46,-12.26 -28.22,-19.34 -16.1,-13.43 -9.51,-38.02 0.99,-52.84 8.81,-1.89 17.93,3.06 27.05,2.85 12.11,4.26 23.33,11.39 36.28,12.98 -2.31,-3.03 -4.62,-6.03 -6.87,-9.03l-0.3 -0.87c-1.44,-7.05 -7.41,-11.51 -12.47,-15.95 -8.82,-7.2 -17.69,-14.33 -25.91,-22.19 4.71,-5.97 10.17,-11.27 15.35,-16.82 18.2,-0.51 35.47,11.16 53.46,7.77 -0.81,-1.2 -2.46,-3.63 -3.3,-4.86 -0.6,-0.84 -1.77,-2.49 -2.34,-3.3 -8.7,-7.86 -18.77,-14.03 -27.11,-22.31 0.54,-1.26 1.59,-3.81 2.1,-5.07z"/>
   <path class="fil36" d="M390.05 675.79l2.46 -1.5c8.79,12.68 12.02,28.01 14.72,42.94 4.44,27.11 5.85,54.6 6.09,82.07 -12.89,8.88 -27.98,15.83 -44.05,13.19 1.95,-2.19 3.93,-4.38 5.91,-6.51 1.38,1.02 4.11,3.06 5.46,4.08 8.04,-5.25 17.18,-10.23 21.86,-18.98 2.49,-14.36 1.2,-29.06 0.84,-43.54 -0.9,-24.5 -8.88,-47.86 -13.28,-71.76z"/>
   <path class="fil37" d="M417.07 690c11.6,10.28 12.56,26.72 15.95,40.84 4.74,20.84 3.66,42.61 9.84,63.12 -4.11,-2.13 -8.22,-4.2 -12.32,-6.27 -3.57,-32.65 -1.83,-66.42 -13.46,-97.69z"/>
   <path class="fil38" d="M517.22 752.64c-3.66,-8.52 -2.79,-18.53 0.96,-26.84 2.79,6.54 5.61,13.28 10.49,18.59 -3.81,2.76 -7.65,5.49 -11.45,8.25z"/>
   <path class="fil39" d="M230.8 772.19c0.03,-5.85 1.47,-11.51 3.78,-16.85 5.34,11.51 9.81,23.57 17.24,33.97 7.92,12.08 18.65,21.98 26.72,33.97l-5.01 1.89c-20.03,-11.72 -35.53,-30.89 -42.73,-52.98z"/>
   <path class="fil40" d="M729.28 761.49c8.49,1.2 20.57,-4.5 26.15,4.35 0.69,1.98 2.07,5.91 2.76,7.89 -9.51,-0.81 -18.2,-4.83 -26.99,-8.19 -0.48,-1.02 -1.44,-3.03 -1.92,-4.05z"/>
   <path class="fil41" d="M447.18 817.05c36.7,-12.08 76.76,-13.64 114.04,-3.15 6.33,0.93 12.38,3.03 18.35,5.34 -9.81,2.4 -20.03,1.41 -29.96,3 -18.77,3.06 -43.22,9.54 -61.12,16.02 -0.18,-0.01 -23.19,-11.89 -26.5,-13.17 -4.32,-1.8 -8.58,-3.78 -12.35,-6.51l-2.46 -1.53z"/>
   <path class="fil42" d="M629.76 897.51c25.52,-6.09 56.13,-2.04 73.73,19.19 13.34,18.53 14.45,43.06 10.58,64.89 -14.57,-7.68 -31.33,-11.96 -47.71,-8.43 -12.53,1.62 -23.3,8.49 -34.21,14.27 7.2,-14.81 19.55,-26.12 29.66,-38.89 -7.35,-11.09 -14.78,-22.43 -25.1,-30.98 -6.69,-6.42 -16.79,-3.6 -25.07,-3.81 -14.69,-0.03 -27.26,9.06 -41.77,9.86 17.84,-12.8 38.86,-20.36 59.88,-26.12z"/>
   <path class="fil43" d="M620.04 1049.86c6.75,-18.5 22.55,-34.51 42.49,-37.66 20.9,-4.71 40.9,5.07 60.45,10.85 18.92,5.37 37.57,11.93 57.03,15.05 37.54,6.51 76.07,5.07 113.53,-1.17 -2.88,2.52 -5.61,5.34 -8.97,7.23 -48.91,18.32 -97.93,38.11 -150.05,45.13 -39.13,4.83 -82.94,6.39 -116.43,-17.93 0.6,-7.17 1.11,-14.36 1.95,-21.5z"/>
   <path class="fil44" d="M734.53 1089.29c52.12,-7.02 101.14,-26.81 150.05,-45.13 -9.09,9.18 -19.76,16.58 -30.62,23.48 -39.46,26.84 -84.14,47.62 -131.67,54.36 -20.24,3.39 -41.11,3.63 -61.38,0.54l-1.41 0.57c-30.08,-8.61 -51.36,-43 -39.46,-73.26 -0.84,7.14 -1.35,14.33 -1.95,21.5 33.49,24.32 77.3,22.76 116.43,17.93z"/>
   <path class="fil45" d="M408.49 990.93c-2.2,9.74 -4.42,21.63 -5.61,33.93l7.39 15.29c7.11,17.3 16.7,33.7 30.23,46.81 -0.15,-3.84 -0.29,-7.59 -0.42,-11.26 -0.94,-27.03 -1.08,-49.82 2.46,-70.28l0.01 -0.16c-2.26,-2.17 -5.47,-4.96 -7.06,-6.72 -6.5,-8.37 -18.24,-16.64 -21.39,-26.98 -2.2,6.17 -4.08,12.63 -5.61,19.38z"/>
   <path class="fil46" d="M535.75 891.69c10.14,-4.77 20.96,-7.74 31.25,-12.05 32.12,-10.32 66.12,-13.19 99.64,-9.96 -15.98,-11.93 -35.14,-19.16 -54.48,-23.63 -27.56,-3.99 -54.96,4.92 -80.42,14.72 3.73,2.3 4.51,30.4 4.02,30.91z"/>
   <path class="fil47" d="M535.75 891.69c0.49,-0.51 -0.29,-28.61 -4.02,-30.91l-1.8 0.86c-52.62,24.59 -96.59,55.84 -115.84,109.91 3.15,10.34 14.89,18.61 21.39,26.98 1.59,1.76 4.8,4.56 7.06,6.72 6.02,-34.69 22.64,-62.73 63.93,-93.47 8.76,-6.52 16.76,-12.95 26.1,-18.57l3.17 -1.52z"/>
   <path class="fil48" d="M440.49 1086.96c-13.52,-13.1 -23.12,-29.51 -30.23,-46.81l-7.39 -15.29c-1.95,20.04 -1.19,41.15 6.81,55.73 9.9,18.04 18.99,33.58 40.16,42.01 -3.03,-11.84 -3.72,-24.8 -9.36,-35.65z"/>
   <path class="fil47" d="M399.96 902.22c9.89,-15.61 20.26,-24.85 34.89,-36.01l1.93 -1.45c16.14,-11.61 33.22,-19.87 51.7,-26.5 -0.18,-0.01 -23.19,-11.89 -26.5,-13.17 -4.32,-1.8 -8.58,-3.78 -12.35,-6.51l-2.46 -1.53c-22.52,9.09 -43.21,24.02 -58.95,42.82 -4.05,5.01 -8.64,10.05 -10.19,16.46 0.66,1.5 1.65,6.09 2.34,7.59 1.02,2.88 7.75,28.83 10.22,33.77 3.09,-5.26 6.2,-10.47 9.37,-15.47z"/>
   <path class="fil45" d="M377.7 877.89c-8.6,28.23 -9.04,59.48 -9.7,88.82 0.41,-1.16 0.81,-2.33 1.21,-3.53 4.2,-12.67 3.82,-10.68 9.23,-25.03 2.85,-7.56 7.18,-14.57 11.74,-21.37 -2.73,-6.61 -8.85,-30.13 -9.82,-32.87 -0.69,-1.5 -1.68,-6.09 -2.34,-7.59l-0.33 1.56z"/>
   <path class="fil48" d="M368 966.72c0.66,-29.34 1.1,-60.6 9.7,-88.82l0.33 -1.56c-6.57,7.05 -9.45,16.49 -12.83,25.28 -9.6,28.1 -12.62,59.37 -5.52,88.34 2.53,-8.2 5.53,-15.3 8.33,-23.24z"/>
   <path class="fil49" d="M307.83 564.15c6.21,-30.08 45.92,-58.21 78.1,-61.87 -0.2,-1.03 -0.38,-2.07 -0.53,-3.14 -9.9,0.96 -18.71,2.26 -29.99,5.43 -39.13,13.67 -61.5,55.83 -63.33,95.53 0.93,-0.9 2.82,-2.67 3.75,-3.57 7.59,-9.21 7.56,-21.74 11.99,-32.38z"/>
   <path class="fil50" d="M282.55 473.15c19.43,-13.49 39.58,-25.97 61.05,-35.95 -1.95,-28.22 -12.65,-54.69 -17.66,-82.34 -8.25,-16.46 -20.57,-30.53 -32.95,-43.99 -36.1,-37.66 -82.79,-65.43 -133.56,-77.81 -21.89,-6.09 -45.34,-2.34 -66.12,5.91 -19.58,7.86 -36.61,24.92 -40.39,46.12 2.01,33.28 13.55,65.73 31.4,93.8 20.87,37.3 50.38,70.5 87.68,91.94 22.55,13.1 48.61,19.4 74.55,20.6 -3.78,-22.13 -14.75,-41.89 -24.95,-61.56 -6.51,-12.44 -15.89,-23.24 -21.5,-36.19 -0.36,-0.75 -1.11,-2.22 -1.47,-2.97 -11.75,-12.86 -23.93,-25.34 -35.71,-38.17 45.52,33.97 88.13,73.05 119.64,120.63z"/>
   <path class="fil51 str0" d="M873.24 8.76c16.1,6.18 22.37,24.14 25.34,39.67 6.84,30.02 -1.32,62.76 -20.78,86.45 -8.58,11.63 -21.08,20.9 -35.41,23.69 -12.95,1.95 -24.23,-7.95 -30.32,-18.44 -11.87,-20.42 -9.06,-46.66 3.27,-66.21 -48.01,11.33 -77,58.2 -86.15,103.87 4.44,2.61 8.9,5.28 13.34,7.98 -1.92,7.47 -3.42,15.05 -4.23,22.76 44.02,8.85 83.99,33.07 116.41,63.63 51.19,-1.62 101.35,-21.59 152.81,-12.68 46.57,6.03 90.89,32.62 115.12,73.28 24.53,37.18 29.81,84.05 22.22,127.2 -6.12,32.44 -18.74,64.95 -42.61,88.52 -3.33,4.74 -8.94,3.57 -13.85,3.36 -4.05,-7.05 -6.72,-15.02 -6.45,-23.21 5.91,-50.38 1.92,-102.16 -13.67,-150.56 -3.87,-11.15 -8.28,-22.16 -14.36,-32.29 1.23,-1.62 2.43,-3.21 3.63,-4.83 -1.56,-0.06 -4.65,-0.15 -6.21,-0.18 -13.46,-24.8 -32.2,-49.36 -59.55,-59.43 -35.89,-1.86 -75.92,2.64 -103.63,27.95 6.03,-0.09 12.83,-4.17 18.29,-0.09 22.55,14.93 43.81,35.56 50.86,62.49 -4.53,22.94 -14.12,45.22 -28.58,63.72 -0.18,31.61 -4.71,62.94 -10.52,93.95 -4.65,18.38 -8.52,37.15 -16.52,54.42 26.9,7.74 53.97,19.46 72.45,41.26 7.8,13.85 5.28,31.36 15.38,44.17 18.41,29.99 2.43,71.13 -26.66,87.71 -20.09,12.68 -35.23,32.17 -44.68,53.79 -8.4,19.61 -26.78,36.07 -48.79,37.24 -24.56,1.5 -48.13,-8.94 -68.1,-22.4 -11.66,-7.05 -20.57,-18.14 -33.29,-23.51 -23.45,-10.35 -47.8,-18.5 -72.27,-26.06 -9.63,-3.27 -19.97,-3.84 -29.96,-2.16 -8.25,3.6 -15.2,9.78 -23.9,12.47 -13.97,5.61 -29.18,6.03 -44.02,5.49 0.3,0.96 0.9,2.91 1.23,3.87 14.15,5.22 26.96,13.31 40.45,19.97 19.7,10.52 40.81,19.46 57.06,35.29 26.54,23.63 44.65,56.43 49.9,91.64 3.93,20.12 0.87,40.57 -2.55,60.48 63.57,20.69 133.02,21.17 197.36,3.6 -45.58,78.38 -130.59,127.71 -218.45,143.21 -6.09,0.78 -12.17,1.44 -18.17,2.79 -9.95,1.95 -21.65,-1.02 -30.02,6 -24.83,18.92 -56.28,26.63 -86.75,30.44 -51.43,2.82 -103.57,-10.4 -147.83,-36.67 -41.92,-24.11 -75.83,-61.14 -97.99,-103.96 -27.92,-55.02 -37.45,-117.75 -35.35,-178.96 -36.88,-7.68 -72.45,-28.04 -92.93,-60.33 -12.95,-18.83 -19.16,-41.71 -20.84,-64.32 -1.2,-4.29 1.41,-10.56 -2.61,-13.46 -58.74,-14.09 -113.77,-48.49 -147.41,-99.31 -16.73,-23.84 -26.66,-51.64 -33.94,-79.64 -4.92,-24.38 -6.54,-52.69 9.95,-73.26 11.66,-15.71 31.42,-22.19 50.26,-23.33 -22.55,-32.11 -44.26,-65.82 -55.14,-103.93 -8.31,-24.98 -10.65,-52.24 -4.83,-77.99 10.52,-40.21 45.94,-71.64 86.27,-79.91 27.95,-6.27 57.15,-3.51 84.71,3.33 56.1,14.78 106.87,46.51 147.92,87.14 19.22,20 36.49,42.16 48.52,67.32 -1.14,-32.98 -5.16,-66.03 -1.26,-98.95 1.86,-46.69 11.42,-94.07 34.36,-135.15 14.75,-23.57 31.87,-47.14 56.25,-61.5 9.69,-5.91 20.99,-8.88 32.33,-8.34 27.56,6.9 48.28,29.12 59.25,54.54 6.45,13.31 9.35,27.86 12.89,42.13 1.05,9.86 1.17,19.82 1.14,29.75 38.68,-21.41 86.72,-23.78 128.19,-9.42 19.61,-40.78 41.83,-80.9 72.18,-114.79 13.55,-14.51 28.82,-28.52 47.89,-35.17 16.73,-6.15 35.8,-13.52 53.34,-6.12z"/>
   <path class="fil52" d="M710.97 421.91c-19.64,-31.75 -38.12,-64.61 -45.76,-100.76 -21.22,16.98 -33.6,46.33 -18.54,70.15 13.38,20.03 39.92,28.27 64.3,30.61z"/>
   <path class="fil53" d="M669.66 336.1c-22.64,29.21 -20.27,55.58 7.13,79.11 -14.08,-5.39 -26.27,-13.93 -33.33,-26.54 -13.08,-23.85 0.86,-51.67 21.82,-68.25 1.37,5.23 2.82,10.47 4.38,15.68z"/>
   <path class="fil54" d="M676.79 415.2c-27.39,-23.53 -29.77,-49.9 -7.13,-79.11 9.87,30.05 23.84,59.09 43.07,86.47 -12.06,-0.73 -24.61,-3.02 -35.94,-7.36z"/>
   <path class="fil53" d="M904.73 495.73c-1.01,0.8 -2.05,1.55 -3.13,2.27 0.7,0.35 1.41,0.69 2.15,1.04 0.34,-1.06 0.67,-2.16 0.98,-3.31z"/>
   <path class="fil54" d="M901.61 498c1.08,-0.72 2.12,-1.47 3.13,-2.27 2.51,-9.38 3.81,-21.92 3.91,-37.6 -18.48,5.92 -23.76,9.22 -33.12,16.82 5.36,7.7 9.41,14.77 26.08,23.05z"/>
  </g>
 </g>
</svg>
