<?xml version="1.0" encoding="UTF-8"?>
<!DOCTYPE svg PUBLIC "-//W3C//DTD SVG 1.1//EN" "http://www.w3.org/Graphics/SVG/1.1/DTD/svg11.dtd">
<!-- Creator: CorelDRAW 2018 (64-Bit) -->
<svg xmlns="http://www.w3.org/2000/svg" xml:space="preserve" width="0.3405in" height="0.415965in" version="1.1" style="shape-rendering:geometricPrecision; text-rendering:geometricPrecision; image-rendering:optimizeQuality; fill-rule:evenodd; clip-rule:evenodd"
viewBox="0 0 2.01 2.45"
 xmlns:xlink="http://www.w3.org/1999/xlink">
 <defs>
  <style type="text/css">
   <![CDATA[
    .str0 {stroke:white;stroke-width:0.04;stroke-miterlimit:2.61313}
    .str1 {stroke:#2B2A29;stroke-width:0;stroke-miterlimit:2.61313}
    .fil26 {fill:none}
    .fil2 {fill:#8D6F52}
    .fil3 {fill:#8E6F52}
    .fil0 {fill:#C19F7E}
    .fil27 {fill:#C79933}
    .fil28 {fill:#FBEB58}
    .fil1 {fill:white}
    .fil21 {fill:#170F13;fill-rule:nonzero}
    .fil12 {fill:#1A0F11;fill-rule:nonzero}
    .fil7 {fill:#1A0F13;fill-rule:nonzero}
    .fil14 {fill:#1B0F11;fill-rule:nonzero}
    .fil15 {fill:#1B0F13;fill-rule:nonzero}
    .fil25 {fill:#666364;fill-rule:nonzero}
    .fil9 {fill:#6B6768;fill-rule:nonzero}
    .fil23 {fill:#8D6E4F;fill-rule:nonzero}
    .fil6 {fill:#8E6F52;fill-rule:nonzero}
    .fil4 {fill:#C09F82;fill-rule:nonzero}
    .fil10 {fill:#C19F7E;fill-rule:nonzero}
    .fil16 {fill:#C19F80;fill-rule:nonzero}
    .fil18 {fill:#C3A084;fill-rule:nonzero}
    .fil22 {fill:#CAAC90;fill-rule:nonzero}
    .fil5 {fill:#D2C4C8;fill-rule:nonzero}
    .fil17 {fill:#D2C5C9;fill-rule:nonzero}
    .fil8 {fill:#D2C5CA;fill-rule:nonzero}
    .fil11 {fill:#D4C4C8;fill-rule:nonzero}
    .fil24 {fill:#E3CCBE;fill-rule:nonzero}
    .fil19 {fill:#E6D2B8;fill-rule:nonzero}
    .fil13 {fill:#FAFCFD;fill-rule:nonzero}
    .fil20 {fill:#FBFCFF;fill-rule:nonzero}
   ]]>
  </style>
 </defs>
 <g id="Layer_x0020_1">
  <metadata id="CorelCorpID_0Corel-Layer"/>
  <g id="_1184453984">
   <g>
    <g>
     <path class="fil0" d="M1.27 1.44c0.02,0.04 0.03,0.08 0.03,0.13 0.01,-0 0.01,-0.01 0.02,-0.01 0.01,-0.01 0.03,-0.02 0.04,-0.04 0.03,-0.02 0.04,-0.05 0.06,-0.08 0.03,-0.06 0.05,-0.14 0.05,-0.21 0.03,0.04 0.04,0.1 0.04,0.15 0,0.03 -0.01,0.05 -0.01,0.07 0.06,-0.11 0.09,-0.25 0.06,-0.38 -0.01,-0.01 -0.02,-0.01 -0.03,-0.02 -0.01,-0.02 -0.03,-0.03 -0.04,-0.05 0.01,-0.01 0.01,0 0.02,0.01 0.03,0.02 0.07,0.02 0.11,0.01 0.04,-0.01 0.08,-0.03 0.11,-0.06 0.04,-0.02 0.08,-0.04 0.12,-0.06 0,-0 0.01,-0 0.01,-0 0,-0 0.01,-0 0.01,-0 -0,-0 -0,-0 -0,-0 0,-0.01 -0.01,-0.01 -0.02,-0.02 -0.02,-0.01 -0.04,-0.02 -0.06,-0.03 -0.03,-0.01 -0.06,-0.01 -0.1,-0.01 -0.01,0 -0.01,0 -0.02,0.01 0.02,0 0.03,0 0.05,0.01 0,0 -0.01,0.01 -0.05,0.01l-0.05 0.02c-0.02,0.01 -0.05,0.02 -0.07,0.03l-0 0c-0.03,0.02 -0.06,0.03 -0.07,0.06 -0.01,0.04 -0.04,0.08 -0.07,0.11 -0.02,0.02 -0.05,0.02 -0.07,0.03 0.02,0.01 0.03,0.01 0.05,0.02 -0.05,0.02 -0.12,-0 -0.14,-0.05 0.03,0 0.05,0.01 0.08,0 -0.03,-0 -0.06,-0.01 -0.09,-0.02 0,0.07 -0.01,0.15 -0.06,0.2 0,-0.03 0.01,-0.05 0.01,-0.08 0,-0.04 0,-0.09 -0.01,-0.13 -0,-0.01 -0.01,-0.01 -0.02,-0.01 -0.03,-0 -0.05,-0.02 -0.07,-0.04 -0.03,0.01 -0.06,0.01 -0.07,0.04 -0.03,0.07 -0.02,0.15 -0,0.22 -0.03,0.01 -0.07,0.02 -0.09,0.04 -0.02,0.01 -0.04,0.03 -0.06,0.04l0.01 -0c0.02,-0.01 0.05,-0.02 0.07,-0.03 0.03,-0.01 0.06,-0.02 0.09,-0.01 0.05,0.01 0.09,0.02 0.14,0.05 0.02,-0 0.04,-0.01 0.06,0 0.03,0.01 0.04,0.04 0.05,0.07l0 0z"/>
     <path class="fil1" d="M1.52 0.73c0.05,-0.03 0.11,-0.05 0.15,-0.09l0.01 -0.01c-0,-0 -0,-0 -0,-0 0,-0 0.01,-0.01 0.01,-0.01 -0,0.01 -0,0.02 -0.01,0.03 0.03,-0.02 0.04,-0.05 0.07,-0.07 -0,0 -0,0.01 -0,0.01 0,-0 0,-0 0,-0 0,-0 0,-0.01 0.01,-0.01 0.02,-0.04 0.02,-0.08 0.01,-0.13 -0,-0.01 -0,-0.01 -0.01,-0.02 -0.01,-0.04 -0.02,-0.09 -0.04,-0.11 -0,-0 -0,-0 -0,-0.01 -0,-0 -0,-0.01 -0,-0.01 -0,0 -0,0.01 -0,0.01 -0,0 -0,0.03 -0,0.04 -0,0.05 -0.01,0.08 -0.02,0.12 -0.01,0.02 -0.02,0.04 -0.03,0.07 -0.01,0.02 -0.03,0.04 -0.05,0.05 -0.03,0.03 -0.07,0.05 -0.11,0.06 -0,0.03 -0,0.05 0,0.08z"/>
     <path class="fil2" d="M1.11 0.21c0.04,-0 0.07,-0 0.11,-0 0.07,0 0.13,0.02 0.2,0.04 0,0 0,0 0.01,0 -0.01,-0.01 -0.02,-0.02 -0.04,-0.03 -0.05,-0.03 -0.12,-0.06 -0.18,-0.06 -0.04,-0.01 -0.08,-0.01 -0.12,-0 -0,0 -0,0 -0,0 -0,0 -0,0 -0.01,0 0,0 0,0 0,0 -0,0 0.01,0.01 0.01,0.02 0.01,0.01 0.01,0.02 0.02,0.03z"/>
     <path class="fil2" d="M0.69 0.56c0.05,0 0.09,0.02 0.13,0.05 -0,-0.02 -0.01,-0.03 -0.02,-0.05 0.06,0.03 0.11,0.08 0.13,0.15 0.01,0.03 0.01,0.07 0,0.11 -0,-0 -0,-0 -0.01,-0 -0.01,-0.04 -0.02,-0.08 -0.05,-0.11 -0,0.03 -0.01,0.06 -0.03,0.09 -0,-0.1 -0.07,-0.18 -0.16,-0.23zm0.05 0.22c0.02,0.02 0.04,0.04 0.05,0.06 0.02,0.02 0.03,0.06 0.05,0.08 -0,0 -0,0.01 -0,0.02 0.01,0.01 0.01,0.03 0.01,0.04l0 0c0.05,0.01 0.08,-0.03 0.1,-0.07 0,0.03 -0,0.06 -0.02,0.08 -0.02,0.03 -0.05,0.05 -0.09,0.06 -0.02,0.07 -0.01,0.15 0,0.22 -0.05,-0.06 -0.07,-0.13 -0.06,-0.21l-0 0.01c-0.02,0.06 -0.09,0.08 -0.15,0.07 0.02,-0.01 0.03,-0.01 0.05,-0.02 -0.03,-0.01 -0.05,-0.01 -0.07,-0.03 -0.04,-0.03 -0.06,-0.08 -0.08,-0.12l0.01 0c-0.01,-0.02 -0.03,-0.03 -0.04,-0.04 -0.03,-0.02 -0.05,-0.03 -0.07,-0.04l-0.02 -0.01c-0.03,-0.01 -0.07,-0.02 -0.1,-0.03 0.03,-0.01 0.03,-0 0.05,-0.02 -0.05,-0 -0.15,0 -0.19,0.05 -0.01,0.02 0.02,0.02 0.04,0.02 0.08,0.03 0.14,0.1 0.21,0.11 0.03,0.01 0.07,0 0.12,-0.02l0.01 -0c0.01,-0 -0.01,0.01 -0.01,0.01 -0.01,0.02 -0.03,0.03 -0.05,0.05 -0.02,0.01 -0.01,0 -0.02,0.02 -0.01,0.05 -0.01,0.09 -0.01,0.15 0,0.04 0.01,0.07 0.02,0.11 0.01,0.02 0.01,0.04 0.03,0.06 0,0.02 0.01,0.04 0.02,0.06 -0.02,-0.07 -0.01,-0.15 0.02,-0.21 0,-0 0.01,-0 0.01,-0.01 0,0 0,0.01 0,0.01 0.01,0.04 0.02,0.07 0.03,0.11 0.02,0.04 0.05,0.09 0.09,0.12 -0.01,-0.03 -0.03,-0.05 -0.03,-0.08 0.02,0.04 0.05,0.07 0.09,0.09 0,-0.01 0,-0.02 0,-0.04 0.02,-0.02 0.03,-0.05 0.05,-0.07 -0,-0 -0,-0.01 -0,-0.01 0.01,0 0.01,0.01 0.02,0.01l0 0c0.02,-0.01 0.05,0.01 0.06,-0.01l-0.01 0c0.02,-0.01 0.04,-0.03 0.06,-0.04 0.03,-0.02 0.06,-0.03 0.09,-0.04 -0.01,-0.07 -0.03,-0.15 0,-0.22 0.01,-0.03 0.05,-0.03 0.07,-0.04l0 -0c-0.02,-0.03 -0.02,-0.06 -0.02,-0.09 0.02,0.03 0.03,0.05 0.07,0.07 0.01,0 0.03,0.01 0.04,-0.01 0.01,-0.02 0.02,-0.03 0.03,-0.04l-0 -0c-0,-0.01 -0.02,-0.02 -0.01,-0.03 0.01,-0.03 0.03,-0.07 0.04,-0.1 -0.02,0.01 -0.04,0.02 -0.05,0.04 0,-0.05 0.01,-0.1 0.03,-0.15 0.01,-0.03 0.04,-0.06 0.06,-0.09 -0.06,0.04 -0.1,0.11 -0.1,0.19 -0.02,-0.03 -0.02,-0.06 -0.03,-0.09 -0.01,0.02 -0.03,0.04 -0.04,0.06 -0.01,0.02 -0.01,0.04 -0.02,0.06 -0.02,-0.07 0,-0.14 0.04,-0.19 -0.03,0.01 -0.06,0.02 -0.09,0.03 0.02,-0.02 0.05,-0.04 0.06,-0.07 -0.03,0.01 -0.06,0.04 -0.1,0.03 -0.03,-0 -0.05,-0.02 -0.06,-0.05 -0.01,-0.04 -0,-0.08 0.01,-0.12 0.02,-0.06 0.07,-0.11 0.13,-0.13 0.04,-0.01 0.09,0 0.13,0.02 -0.02,-0.03 -0.04,-0.07 -0.07,-0.09 -0,0 -0,0.01 -0,0.01 -0.04,-0.04 -0.12,-0.06 -0.18,-0.08 -0.09,-0.02 -0.19,-0.02 -0.27,0.02 -0.04,0.01 -0.07,0.03 -0.1,0.06 -0.02,0.02 -0,0.01 0.02,0.01 0.02,-0 0.03,-0.01 0.04,-0.01 0.03,-0 0.05,-0 0.08,0 -0.07,0.02 -0.14,0.06 -0.18,0.13 -0.02,0.04 -0.03,0.07 -0.03,0.11 0.02,-0.02 0.03,-0.03 0.05,-0.04 0.01,-0 0.02,-0.01 0.03,-0.01 -0.04,0.06 -0.05,0.14 -0.02,0.2 0.02,-0.02 0.05,-0.03 0.08,-0.03l0 0.01c-0.01,0.03 -0.01,0.07 0,0.1 0.03,0.05 0.07,0.08 0.11,0.12 -0.01,-0.02 -0.01,-0.04 -0.02,-0.06z"/>
     <path class="fil1" d="M0.26 0.61c0.02,0.03 0.04,0.05 0.06,0.07 0.01,0.01 0.01,0.01 0.02,0.02 -0,-0 -0,-0 -0,-0 -0,-0 -0.01,-0.01 -0.01,-0.01 0.03,0 0.05,0.03 0.08,0.03 -0.01,-0.01 -0.03,-0.03 -0.04,-0.04 -0.02,-0.02 -0.04,-0.04 -0.06,-0.06 0.01,0 0.01,0 0.02,0.01 -0.01,-0 -0.01,-0.01 -0.02,-0.01 -0.02,-0.05 -0.04,-0.09 -0.05,-0.14 -0,-0.06 -0,-0.11 0.01,-0.17 0.01,0.06 0.01,0.11 0.03,0.17 -0.02,-0.06 -0.02,-0.12 -0.03,-0.18l-0 -0.02c-0,0 -0,0 -0,0 -0,-0 -0.01,0.02 -0.01,0.03 -0,0.01 -0.01,0.02 -0.01,0.03 -0.01,0.03 -0.02,0.06 -0.03,0.1 -0.01,0.04 -0.01,0.07 0,0.11l0 0.01c0.01,0.02 0.01,0.03 0.02,0.05z"/>
     <path class="fil3" d="M0.89 1.94c-0.01,0.03 -0.02,0.07 -0.01,0.1 0,0.01 0.01,0.02 0.01,0.03 0.02,0.04 0.05,0.07 0.07,0.1 0.01,0.01 0.02,0.03 0.02,0.04 0.02,0.03 0.02,0.06 0.03,0.09l0.01 -0c0.03,-0.07 0.04,-0.16 0.02,-0.23 -0.01,-0.04 -0.03,-0.08 -0.06,-0.11 0.03,-0.01 0.07,-0.02 0.09,-0.04 -0.05,0 -0.09,0 -0.13,-0.01 -0.03,-0.01 -0.06,-0.03 -0.09,-0.04 -0,0 -0,0.01 -0,0.02 -0.01,0.04 -0.02,0.07 -0.03,0.11 -0,0 -0,0 -0,0 0.03,-0.02 0.04,-0.04 0.07,-0.05z"/>
     <path class="fil4" d="M0.78 1.36c-0.02,0.02 -0.04,0.05 -0.05,0.07 -0,0.01 -0,0.02 -0,0.04 -0.04,-0.02 -0.07,-0.05 -0.09,-0.09 -0,0.03 0.02,0.06 0.03,0.08 -0.04,-0.03 -0.06,-0.07 -0.09,-0.12 -0.02,-0.03 -0.02,-0.07 -0.03,-0.11 -0,0.05 0.01,0.09 0.02,0.14 0.02,0.08 0.07,0.15 0.14,0.19 0.01,-0.04 0.02,-0.08 0.03,-0.13 0.01,-0.03 0.03,-0.06 0.06,-0.08 -0.01,-0 -0.01,-0.01 -0.02,-0.01 0,0 0,0.01 0,0.01z"/>
     <path class="fil5" d="M1.69 0.64c0,-0.01 0,-0.02 0.01,-0.03 -0.01,0 -0.01,0.01 -0.01,0.01 0,0 0,0 0,0 0,0 0,0 0,0.01 0,0 0,0 0,0 -0,-0 -0,0 -0,0l-0.01 0.01c0,0 0,0 0,0l-0 0 -0.04 0.03c0,0 -0,0 -0,0 -0.03,0.03 -0.06,0.05 -0.1,0.08 -0,0.01 0.01,0.02 0.02,0.02 0.03,-0.02 0.05,-0.04 0.08,-0.06 0.03,-0.02 0.05,-0.05 0.08,-0.08 0.01,-0.01 0.01,-0.02 0.02,-0.03 0.01,-0.02 0.02,-0.03 0.03,-0.05 0,-0 0,-0 0,-0.01 -0.02,0.02 -0.04,0.05 -0.07,0.07z"/>
     <path class="fil6" d="M0.92 1.66l-0.01 -0c-0.01,-0 -0.01,-0.01 -0.02,-0.01 -0.04,-0.03 -0.07,-0.08 -0.06,-0.13 0,-0.01 0.01,-0.02 0.01,-0.03 0,0.02 0.01,0.05 0.02,0.07 0.02,-0 0.04,-0 0.05,0.01 0.02,0.03 0.02,0.06 0.02,0.1 -0,-0 -0.01,-0.01 -0.02,-0.01zm0.08 -0.19c0.01,-0.03 0.04,-0.04 0.06,-0.06 -0.03,-0.01 -0.07,-0.01 -0.1,-0.02 -0.02,-0 -0.04,0.01 -0.06,0.01 0.01,0.02 0.02,0.04 0.01,0.06 -0.02,-0.02 -0.04,-0.04 -0.07,-0.04 -0.02,0 -0.03,0.01 -0.03,0.03 -0.02,0.07 -0.04,0.14 -0.03,0.21 0.03,-0.01 0.07,-0 0.1,0.01 0.04,0.02 0.09,0.04 0.13,0.04 -0.03,-0.08 -0.04,-0.17 -0,-0.25z"/>
     <path class="fil7" d="M1.43 0.89c-0.01,0.04 -0.04,0.07 -0.08,0.09 -0.04,0.02 -0.08,0.02 -0.12,0.01 0.04,-0.04 0.09,-0.07 0.14,-0.1 0.02,-0.01 0.04,-0 0.06,0zm-0.86 -0c0.02,-0 0.03,-0.01 0.05,-0.01 0.05,0.03 0.1,0.06 0.14,0.1 -0.01,0.01 -0.02,0.01 -0.03,0.01 -0.04,0 -0.08,-0.01 -0.11,-0.03 -0.03,-0.02 -0.05,-0.05 -0.06,-0.08zm1.28 0c-0,0 -0,0 -0.01,0 -0.04,0.02 -0.08,0.04 -0.12,0.06 -0.04,0.02 -0.07,0.05 -0.11,0.06 -0.04,0.01 -0.08,0.01 -0.11,-0.01 -0.01,-0 -0.01,-0.01 -0.02,-0.01 0.01,0.02 0.03,0.03 0.04,0.05 0.01,0.01 0.02,0.01 0.03,0.02 0.03,0.13 0,0.27 -0.06,0.38 -0,-0.02 0.01,-0.05 0.01,-0.07 0,-0.05 -0.01,-0.1 -0.04,-0.15 -0,0.07 -0.02,0.15 -0.05,0.21 -0.02,0.03 -0.03,0.06 -0.06,0.08 -0.01,0.02 -0.03,0.02 -0.04,0.04 -0.01,0 -0.01,0.01 -0.02,0.01 -0.01,-0.04 -0.02,-0.09 -0.03,-0.13l-0 -0c-0.01,-0.03 -0.02,-0.06 -0.05,-0.07 -0.02,-0.01 -0.04,-0.01 -0.06,-0 -0.04,-0.03 -0.09,-0.04 -0.14,-0.05 -0.03,-0.01 -0.06,0 -0.09,0.01 -0.03,0.01 -0.05,0.02 -0.07,0.03 -0.02,0.02 -0.04,0 -0.06,0.01l-0 -0c-0.03,0.02 -0.05,0.05 -0.06,0.08 -0.01,0.04 -0.02,0.08 -0.03,0.13 -0.07,-0.04 -0.12,-0.11 -0.14,-0.19 -0.01,-0.04 -0.02,-0.09 -0.02,-0.14 -0,-0 -0,-0.01 -0,-0.01 -0,0 -0.01,0 -0.01,0.01 -0.03,0.07 -0.04,0.14 -0.02,0.21 -0.01,-0.02 -0.02,-0.04 -0.02,-0.06 -0.02,-0.02 -0.02,-0.04 -0.03,-0.06 -0.01,-0.03 -0.02,-0.07 -0.02,-0.11 -0,-0 -0,-0 -0,-0.01 -0,-0 -0,-0.01 -0,-0.01 -0,-0 -0,-0.01 -0,-0.01 -0,-0 -0,-0 -0,-0 -0,-0.03 -0,-0.07 0,-0.1 0,-0 0,-0 0,-0 0,-0 0,-0 0,-0.01 0,-0 0,-0.01 0,-0.01 0,-0 0,-0 0,-0 0,-0.01 0,-0.01 0,-0.01 0,-0 0,-0 0.01,-0 0,-0 0,-0 0,-0 0,-0 0,-0 0,-0 0,-0 0,-0 0,-0 0,-0 0,-0 0,-0 0,-0 0.01,-0 0.01,-0.01 0,-0 0,-0 0,-0 0,-0 0,-0 0.01,-0.01 0,-0 0,-0 0,-0 0,-0 0,-0 0.01,-0.01 0,-0 0,-0 0,-0 0,-0 0.01,-0.01 0.01,-0.01 0,-0 0,-0 0,-0 0,-0 0,-0 0,-0.01 0,-0 0.01,-0.01 0.01,-0.01 -0,0 -0,0 -0.01,0 -0,0 -0,0 -0,0 -0.05,0.02 -0.09,0.03 -0.12,0.02 -0.03,-0.01 -0.06,-0.02 -0.08,-0.04 -0.03,-0.02 -0.07,-0.05 -0.11,-0.07 -0,-0 -0.01,-0 -0.02,-0.01 -0.01,-0 -0.03,-0.01 -0.04,-0.01 -0,-0 -0,-0.01 0,-0.01 0,-0 0,-0 0,-0 0.02,-0.02 0.05,-0.03 0.08,-0.04 0.04,-0.01 0.08,-0.01 0.11,-0.01 -0.01,0.01 -0.01,0.01 -0.02,0.01 -0.01,0 -0.02,0 -0.03,0.01 0,0 0,0 0,0 0.03,0.01 0.06,0.01 0.08,0.02 0,0 0.01,0 0.01,0.01 0,0 0,0 0,0 0.01,0 0.01,0 0.02,0.01 0.02,0.01 0.05,0.02 0.07,0.04 0.02,0.01 0.04,0.02 0.04,0.04 0.04,0.05 0.09,0.09 0.16,0.09 -0.03,0.01 -0.05,0.01 -0.08,0.01 0,0 0.01,0.01 0.01,0.01 0.05,0.01 0.11,0.01 0.16,-0l0 -0.01c-0,0.07 0.01,0.15 0.06,0.21 -0.02,-0.07 -0.02,-0.15 -0,-0.22 0.04,-0 0.07,-0.02 0.09,-0.06 0.01,-0.03 0.02,-0.05 0.02,-0.08 -0.02,0.03 -0.05,0.08 -0.1,0.07l-0 -0c-0.02,-0.03 -0.04,-0.05 -0.06,-0.07 -0.01,-0 -0.02,-0.01 -0.03,-0.02l-0 0c-0.04,-0.03 -0.09,-0.05 -0.13,-0.09 -0.02,-0.02 -0.04,-0.05 -0.04,-0.08 -0,-0.04 0.02,-0.07 0.05,-0.1l-0 -0.01c-0.03,0.01 -0.05,0.02 -0.08,0.03 -0.03,-0.06 -0.02,-0.15 0.02,-0.2 -0.01,0 -0.02,0.01 -0.03,0.01 -0.02,0.01 -0.04,0.03 -0.05,0.04 0,-0.01 0,-0.02 0,-0.03 0,-0 0,-0 0,-0 0,-0 0,-0 0,-0 0,-0.03 0.01,-0.05 0.02,-0.07 0,-0 0,-0 0,-0 0,-0 0,-0 0,-0 0.02,-0.03 0.04,-0.06 0.07,-0.08 0,-0 0,-0 0,-0 0,-0 0.01,-0.01 0.01,-0.01 0.03,-0.02 0.07,-0.04 0.1,-0.04 -0.01,-0 -0.01,-0 -0.02,-0 -0,-0 -0,-0 -0,-0 -0,-0 -0,-0 -0,-0 -0,-0 -0,-0 -0,-0 -0,-0 -0,-0 -0,-0 -0,-0 -0,-0 -0.01,-0 -0.02,-0 -0.03,-0 -0.04,0 -0.01,0 -0.03,0 -0.04,0.01 -0.01,0 -0.03,0.01 -0.03,0 0,-0 0,-0 0,-0 0,-0 0,-0 0.01,-0.01 0,-0 0,-0 0,-0 0.03,-0.03 0.07,-0.05 0.1,-0.06 0.09,-0.03 0.18,-0.04 0.27,-0.02 0.04,0.01 0.07,0.02 0.11,0.03 0.02,0.01 0.05,0.02 0.07,0.04 0,-0 0,-0.01 0,-0.01 -0.01,-0.01 -0.02,-0.02 -0.02,-0.03 -0.01,-0.01 -0.01,-0.02 -0.02,-0.03 -0.01,-0.01 -0.01,-0.01 -0.01,-0.02 -0,-0 -0,-0 -0,-0 0,-0 0,-0 0.01,-0 0,-0 0,-0 0,-0 0.04,-0 0.08,-0 0.12,0 0.06,0.01 0.13,0.03 0.18,0.06 0.01,0.01 0.02,0.01 0.03,0.02 0,0 0.01,0.01 0.01,0.01 0,0 0.01,0.01 0.01,0.01 -0,-0 -0,-0 -0,-0 -0.01,-0 -0.02,-0.01 -0.03,-0.01 -0,-0 -0.01,-0 -0.01,-0 -0.01,-0 -0.02,-0 -0.04,-0 -0.02,-0 -0.04,0 -0.06,0 0,0 0.01,0 0.01,0 0,0 0.01,0 0.01,0 0,0 0,0 0.01,0 0,0 0,0 0.01,0 0.02,0.01 0.03,0.01 0.05,0.02 0,0 0,0 0,0 0,0 0.01,0 0.01,0.01 0.01,0.01 0.02,0.01 0.03,0.02 0,0 0.01,0 0.01,0.01 0.02,0.01 0.03,0.03 0.04,0.05 0.01,0.02 0.02,0.04 0.03,0.06 0.01,0.02 0.01,0.05 0.01,0.07 -0.02,-0.03 -0.05,-0.05 -0.09,-0.05 0.03,0.02 0.04,0.06 0.04,0.1 0,0.04 -0,0.07 -0.01,0.1 -0.02,-0 -0.04,-0.02 -0.06,-0.03l-0.02 -0.01c-0,0 -0,0.01 -0,0.01 0.04,0.03 0.06,0.07 0.05,0.11 -0,0.04 -0.03,0.06 -0.06,0.08 -0.05,0.04 -0.11,0.07 -0.15,0.11l0 0c-0.01,0.01 -0.02,0.02 -0.03,0.04 -0.01,0.02 -0.03,0.01 -0.04,0.01 -0.03,-0.01 -0.05,-0.04 -0.07,-0.07 -0,0.03 0.01,0.06 0.02,0.09l-0 0c0.02,0.02 0.04,0.04 0.07,0.04 0.01,0 0.02,0 0.02,0.01 0.01,0.04 0.01,0.09 0.01,0.13 -0,0.03 -0.01,0.05 -0.01,0.08 0.05,-0.05 0.06,-0.13 0.06,-0.2 0.03,0.01 0.06,0.02 0.09,0.02 0.03,-0.01 0.06,-0 0.08,-0.02 -0.02,-0 -0.05,0 -0.07,-0.01 0.03,-0 0.06,-0.01 0.09,-0.03 0.03,-0.01 0.04,-0.04 0.06,-0.05 0.01,-0.03 0.04,-0.05 0.07,-0.06l0 0c0.02,-0.01 0.05,-0.02 0.07,-0.03 0,-0 0,-0 0,-0 0,-0 0,-0 0.01,-0 0,-0 0.01,-0 0.01,-0 0,-0 0,-0 0,-0 0.01,-0 0.02,-0.01 0.03,-0.01 0.03,-0.01 0.05,-0.01 0.05,-0.01 -0.02,-0 -0.03,-0 -0.05,-0.01 0,-0 0,-0 0,-0 0,-0 0,-0 0,-0 0,-0 0,-0 0,-0 0,-0 0,-0 0,-0 0,-0 0,-0 0,-0 0,-0 0,-0 0,-0 0.03,-0 0.07,-0 0.1,0.01 0.02,0.01 0.04,0.02 0.06,0.03 0.01,0.01 0.02,0.01 0.02,0.02 0,0 0,0 0,0 -0,0 -0.01,0 -0.01,0zm-0.75 0.78c-0.03,0.01 -0.06,0.02 -0.1,0.03 -0.05,-0.01 -0.09,-0.02 -0.13,-0.04 -0.03,-0.01 -0.06,-0.02 -0.1,-0.01 -0,-0.07 0.01,-0.14 0.03,-0.21 0,-0.02 0.01,-0.03 0.03,-0.03 0.03,-0.01 0.05,0.02 0.07,0.04 0,-0.02 -0.01,-0.04 -0.01,-0.06 0.02,-0.01 0.04,-0.01 0.06,-0.01 0.04,-0.01 0.07,-0 0.11,0 0.01,0 0.02,0.01 0.04,0.01 -0.01,0.02 -0.02,0.04 -0.01,0.06 0.02,-0.03 0.06,-0.05 0.09,-0.03 0.02,0.03 0.03,0.07 0.03,0.11 0.01,0.04 0.01,0.08 0.01,0.12 -0.04,-0.01 -0.09,0 -0.12,0.02zm0.11 0.43c-0.01,-0.03 -0.02,-0.05 -0.04,-0.07 -0.01,-0.01 -0.02,-0.02 -0.04,-0.03 0,0.01 0,0.02 0,0.03 0,0.02 -0,0.04 -0,0.05 -0,0 -0,0.01 -0,0.01 -0,0.03 -0.01,0.05 -0.02,0.07 -0.01,0.03 -0.02,0.06 -0.04,0.09 -0.01,0.01 -0.02,0.02 -0.03,0.03l-0.02 0.02 -0.01 0.01c0,-0 -0,-0.01 -0,-0.01 -0.01,-0.03 -0.01,-0.06 -0.03,-0.09 -0.01,-0.01 -0.01,-0.03 -0.02,-0.04 -0.03,-0.04 -0.05,-0.07 -0.07,-0.1 -0.01,-0.01 -0.01,-0.02 -0.01,-0.03 -0.01,-0.03 -0,-0.07 0.01,-0.1 -0.01,0.01 -0.02,0.01 -0.03,0.02 -0.01,0.01 -0.03,0.02 -0.04,0.03 0,-0 0,-0 0,-0 0.01,-0.04 0.02,-0.07 0.03,-0.11 0,-0.01 0,-0.02 0,-0.03 0.03,0.01 0.06,0.02 0.1,0.03 -0.01,-0.01 -0.03,-0.02 -0.04,-0.03l-0 -0c-0.04,-0.04 -0.08,-0.07 -0.1,-0.12 0.04,0 0.07,0.01 0.1,0.03 0.02,0.01 0.05,0.02 0.07,0.02 0.04,0.01 0.07,-0 0.11,-0.01l0 -0c0.04,-0.02 0.08,-0.04 0.12,-0.04 -0.03,0.06 -0.08,0.11 -0.14,0.15 0.01,-0 0.02,-0 0.04,-0 0.02,-0.01 0.04,-0.01 0.06,-0.02 -0,0.03 0,0.06 0.01,0.09l0 0c0,0.01 0.01,0.03 0.02,0.04 0.01,0.01 0.01,0.03 0.01,0.04 0,0.01 0,0.01 0,0.02 0.01,0.02 0.01,0.04 0.01,0.06zm-0.5 0.05l-0 -0c0,0 0,0 0,0l-0 -0zm-0.48 -1.59c-0,-0 -0,-0 -0,-0 -0,-0 -0,-0 -0,-0 -0.01,-0.03 -0.01,-0.07 -0,-0.11 0.01,-0.03 0.02,-0.07 0.03,-0.1 0,-0.01 0.01,-0.02 0.01,-0.03 0,-0.01 0.01,-0.03 0.01,-0.03 0,-0 0,-0 0,-0 0,0.01 0,0.01 0,0.02 0,0 0,0 0,0 0.01,0.05 0.01,0.12 0.03,0.18 0,0 0,0 0,0.01 0.01,0.02 0.02,0.04 0.03,0.06 0.01,0.01 0.02,0.02 0.03,0.03 -0,-0.01 -0,-0.01 -0.01,-0.02 -0,-0.01 -0,-0.01 -0,-0.02 0,0 0,0 0,0 0.02,0.01 0.03,0.02 0.05,0.03 0,0 0.01,0 0.01,0 0.02,0.01 0.03,0.01 0.05,0.02 0.01,0.04 0.01,0.08 0.01,0.13 -0.02,-0.01 -0.04,-0.02 -0.06,-0.03 -0,-0 -0,-0 -0,-0 -0,-0 -0.01,-0 -0.01,-0.01 -0,-0 -0,-0 -0.01,-0 -0,-0 -0.01,-0 -0.01,-0.01 -0,-0 -0.01,-0 -0.01,-0 -0,-0 -0.01,-0 -0.01,-0 -0,-0 -0.01,-0 -0.01,-0.01 -0,-0 -0,-0 -0.01,-0 -0,-0 -0,-0 -0,-0 -0,-0 -0,-0 -0,-0 -0,-0 -0.01,-0.01 -0.01,-0.01 -0,-0 -0.01,-0.01 -0.01,-0.01 -0.01,-0 -0.01,-0.01 -0.02,-0.01 0,0 0,0 0,0 0,0 0,0 0.01,0.01 0.01,0.02 0.03,0.03 0.04,0.04 0,0 0.01,0.01 0.01,0.01 0.01,0.01 0.03,0.03 0.04,0.04l0 0c0.02,0.01 0.04,0.03 0.06,0.04 -0.01,0.01 -0.02,0.02 -0.03,0.02 -0.01,-0.01 -0.03,-0.02 -0.04,-0.03 -0,-0 -0,-0 -0,-0 -0,-0 -0.01,-0 -0.01,-0.01 -0,-0 -0.01,-0 -0.01,-0.01 -0,-0 -0,-0 -0,-0 -0,-0 -0,-0 -0,-0 -0.01,-0.01 -0.02,-0.02 -0.03,-0.03 -0.01,-0.01 -0.01,-0.01 -0.02,-0.02 -0.02,-0.02 -0.04,-0.05 -0.06,-0.07 -0.01,-0.02 -0.02,-0.03 -0.02,-0.05zm1.29 0.08c0,-0.01 0,-0.03 0.01,-0.04 0.04,-0.01 0.08,-0.03 0.11,-0.06 -0,0.01 -0.01,0.03 -0.01,0.04 0.02,-0.01 0.03,-0.03 0.05,-0.05 0.01,-0.03 0.02,-0.05 0.03,-0.07 0,-0 0,-0.01 0,-0.01 0,-0 0,-0 0,-0.01 0,-0 0,-0 0,-0 0,-0 0,-0.01 0,-0.01 0,-0 0,-0 0,-0 0,-0 0,-0 0,-0.01 0.01,-0.02 0.01,-0.05 0.01,-0.08 0,-0.01 -0,-0.04 0,-0.04 0,-0 0,-0.01 0,-0.01 0,0 0,0.01 0,0.01 0,0 0,0 0,0.01 0.02,0.03 0.03,0.07 0.04,0.11 0,0.01 0,0.01 0.01,0.02 0.01,0.04 0.01,0.09 -0.01,0.13 -0,0 -0,0.01 -0.01,0.01 -0.01,0.02 -0.02,0.03 -0.03,0.05 -0.03,0.04 -0.06,0.07 -0.1,0.1 -0.02,0.02 -0.05,0.04 -0.08,0.06 -0.01,-0.01 -0.02,-0.01 -0.02,-0.02 0.03,-0.02 0.07,-0.05 0.1,-0.08 0,0 0,0 0,0l0.04 -0.03 0 -0 0 -0 0.01 -0.01 0 -0c0,-0 0,-0 0,-0 0,-0.01 0,-0.01 -0,-0.01 -0,-0 -0,0 -0.01,0 -0,0 -0,0 -0,0 -0.05,0.04 -0.1,0.06 -0.15,0.09 -0,-0.03 -0,-0.05 -0,-0.08zm0.47 0.31c-0.03,-0.04 -0.04,-0.06 -0.06,-0.1 -0.02,-0.04 -0.05,-0.06 -0.09,-0.08 -0.02,-0.01 -0.05,-0.01 -0.07,-0.02 -0.03,-0.02 0.01,-0.07 0.03,-0.09 0.01,-0.02 0.02,-0.03 0.03,-0.06 0.03,-0.08 0.03,-0.17 0,-0.25 -0.02,-0.05 -0.03,-0.1 -0.06,-0.15 -0.03,-0.06 -0.06,-0.09 -0.1,-0.14 -0.05,-0.06 -0.06,-0.08 -0.05,0.01 0.02,0.11 0.03,0.22 0.02,0.33 -0,0.02 0,0.02 -0.01,0.01 -0.03,-0.03 -0.04,-0.03 -0.05,-0.07 -0.01,-0.05 -0.04,-0.1 -0.08,-0.14 -0.12,-0.11 -0.28,-0.15 -0.43,-0.13 -0.09,0.01 -0.08,0.01 -0.17,-0 -0.08,-0.01 -0.16,-0.01 -0.24,0.02 -0.1,0.03 -0.22,0.11 -0.25,0.21 -0.01,0.03 -0,0.05 -0.03,0.07 -0.01,0.01 -0.02,0.02 -0.03,0.03 -0,0 -0.01,0.01 -0.01,0.01l-0 0 -0 -0 0 0c-0,0 -0,-0 -0,-0 -0.02,-0.07 0,-0.26 0.02,-0.33 0.01,-0.03 0.03,-0.1 -0.02,-0.05 -0.06,0.06 -0.11,0.14 -0.15,0.22 -0.02,0.04 -0.03,0.07 -0.04,0.12 -0,0.01 -0.01,0.04 -0.01,0.04 -0.01,0.02 -0.01,0.06 -0.01,0.08 -0,0.07 0.03,0.16 0.08,0.21 0.02,0.02 0.05,0.05 0.01,0.05 -0.03,0 -0.06,0.01 -0.09,0.03 -0.05,0.04 -0.07,0.05 -0.11,0.11 -0.02,0.03 -0.04,0.06 0.01,0.06 0.06,0.01 0.08,0.02 0.13,0.04 0.02,0.01 0.12,0.05 0.12,0.06l-0 0c-0.01,0.03 -0.03,0.08 -0.03,0.11 -0.01,0.07 -0.02,0.16 -0.01,0.23 0.01,0.04 0.01,0.08 0.02,0.12 0.01,0.03 0.02,0.06 0.03,0.1 0.01,0.02 0.02,0.04 0.03,0.06 0.02,0.05 0.05,0.08 0.08,0.13 0,0 0.03,0.04 0.03,0.04 0,0 0.01,0 0.01,-0 0,-0 -0.01,-0.07 -0.01,-0.09 0,-0.04 0.04,0.01 0.04,0.03 0.02,0.06 0.05,0.11 0.06,0.17 0.01,0.03 0.01,0.05 0.02,0.08 0,0.01 0,0.01 0,0.02 0,0.04 -0,0.07 0.04,0.02 0.05,-0.06 0.03,-0.1 0.06,-0.01 0.03,0.09 0.09,0.18 0.17,0.23 0.01,-0.03 -0,-0.04 -0,-0.07 0.01,-0.01 0.02,0.01 0.02,0.02 0.04,0.05 0.05,0.09 0.05,0.15 0,0.02 -0.01,0.03 0.02,0.03 0.07,-0.01 0.09,0.01 0.15,-0.04 0.02,-0.02 0.04,-0.06 0.06,-0.08 0.01,-0.02 0.03,-0.08 0.04,-0.09 0.01,0.01 -0.01,0.08 0,0.08 0.01,0.01 0.06,-0.03 0.07,-0.05 0.05,-0.07 0.09,-0.11 0.11,-0.2 0,-0 0,-0.04 0.01,-0.03 0.01,0 0.03,0.06 0.06,0.08 0,-0.01 0.01,-0.03 0.01,-0.05 0.01,-0.08 0.02,-0.14 0.06,-0.22 0,-0.01 0.05,-0.11 0.06,-0.1 0.01,0.01 0,0.08 0,0.09 -0,0.01 -0,0.03 0.01,0.01 0.02,-0.02 0.02,-0.03 0.02,-0.04 0.02,-0.03 0.04,-0.06 0.06,-0.09 0.04,-0.07 0.08,-0.17 0.1,-0.25 0.02,-0.09 0.03,-0.15 0.01,-0.25 -0.01,-0.05 -0.01,-0.07 -0.03,-0.12 -0.01,-0.04 -0.03,-0.05 0.01,-0.07 0.06,-0.03 0.16,-0.08 0.23,-0.09 0.01,-0 0.04,0 0.03,-0.01z"/>
     <path class="fil8" d="M1.64 0.54c-0.03,0.02 -0.07,0.04 -0.11,0.06 -0,0.01 -0.01,0.03 -0.01,0.04 0.04,-0.01 0.07,-0.03 0.11,-0.06 0.01,-0.01 0.01,-0.03 0.01,-0.04z"/>
     <polygon class="fil9" points="0.36,0.42 0.36,0.42 0.36,0.42 0.36,0.42 0.35,0.42 "/>
     <path class="fil10" d="M1.2 0.33c-0.04,-0.02 -0.09,-0.03 -0.13,-0.02 -0.06,0.02 -0.11,0.07 -0.13,0.13 -0.01,0.04 -0.02,0.08 -0.01,0.12 0.01,0.03 0.03,0.05 0.06,0.05 0.04,0 0.07,-0.02 0.1,-0.03 -0.01,0.03 -0.03,0.05 -0.06,0.07 0.03,-0.01 0.06,-0.02 0.09,-0.03 0.01,-0.01 0.01,-0.01 0.02,-0.02 0.02,-0.02 0.05,-0.04 0.07,-0.05 0,0 0,0.01 0,0.01 -0.01,0.02 -0.02,0.03 -0.02,0.05 0.03,-0.02 0.06,-0.04 0.1,-0.05 0.01,-0 0.02,-0 0.03,-0 -0.02,0.01 -0.04,0.02 -0.05,0.04 -0.02,0.03 -0.05,0.05 -0.06,0.09 -0.02,0.05 -0.03,0.1 -0.03,0.15 0.02,-0.02 0.03,-0.03 0.05,-0.04 -0.01,0.03 -0.03,0.07 -0.04,0.1 -0.01,0.01 0,0.02 0.01,0.03 0.05,-0.05 0.1,-0.07 0.15,-0.11 0.03,-0.02 0.06,-0.04 0.06,-0.08 0.01,-0.04 -0.01,-0.09 -0.05,-0.11 0,-0 0,-0.01 0,-0.01l0.02 0.01c0.02,0.01 0.04,0.02 0.06,0.03 0.01,-0.03 0.02,-0.07 0.01,-0.1 -0.01,-0.04 -0.01,-0.08 -0.04,-0.1 0.03,0.01 0.07,0.02 0.09,0.05 0,-0.02 -0,-0.05 -0.01,-0.07 -0.01,-0.02 -0.02,-0.04 -0.03,-0.06 -0.01,-0.02 -0.03,-0.03 -0.04,-0.05 -0,-0 -0.01,-0 -0.01,-0.01 -0.01,-0.01 -0.02,-0.01 -0.03,-0.02 -0,-0 -0.01,-0 -0.01,-0.01 -0,-0 -0,-0 -0,-0 -0.02,-0.01 -0.03,-0.02 -0.05,-0.02 -0,-0 -0,-0 -0.01,-0 -0,-0 -0,-0 -0.01,-0 -0,-0 -0.01,-0 -0.01,-0 -0,-0 -0.01,-0 -0.01,-0 0.02,-0 0.04,-0.01 0.06,-0 0.01,0 0.03,0 0.04,0 0,0 0.01,0 0.01,0 0.01,0 0.02,0 0.03,0.01 0,0 0,0 0,0 -0,-0 -0.01,-0.01 -0.01,-0.01 -0,-0 -0,-0 -0.01,-0 -0.06,-0.02 -0.13,-0.04 -0.2,-0.04 -0.04,-0 -0.07,-0 -0.11,0 0.01,0.01 0.01,0.02 0.02,0.03 0.03,0.02 0.05,0.05 0.07,0.09z"/>
     <path class="fil10" d="M1.21 2.04c-0,-0 -0,-0 -0,-0 0,-0 0,-0.01 -0,-0.01 -0,-0.01 -0.01,-0.03 -0.01,-0.04 -0.01,-0.01 -0.01,-0.03 -0.02,-0.04l-0 -0c-0.01,-0.03 -0.02,-0.06 -0.01,-0.09 -0.02,0.01 -0.04,0.01 -0.06,0.02 -0.01,-0 -0.02,0 -0.04,0 0.06,-0.04 0.11,-0.09 0.14,-0.15 -0.04,-0 -0.08,0.02 -0.12,0.04l-0 0c-0.04,0.01 -0.07,0.02 -0.11,0.01 -0.03,-0 -0.05,-0.01 -0.07,-0.02l-0.01 -0c0.03,0.02 0.05,0.03 0.08,0.03 0.03,0.01 0.07,0 0.1,-0 0,0 0.01,0 0.01,0 -0.03,0.03 -0.07,0.06 -0.12,0.06 -0.03,0 -0.05,-0 -0.08,-0.01 0.01,0.01 0.03,0.02 0.04,0.03 -0.03,-0 -0.06,-0.01 -0.1,-0.03 -0,0.01 -0,0.02 -0,0.03 0,-0 0,-0.01 0,-0.02 0.03,0.01 0.06,0.03 0.09,0.04 0.04,0.02 0.09,0.02 0.13,0.01 -0.03,0.02 -0.06,0.03 -0.09,0.04 0.03,0.03 0.05,0.07 0.06,0.11 0.02,0.08 0.01,0.16 -0.02,0.23l-0.01 0c-0,0 0,0.01 0,0.01l0.01 -0.01 0.02 -0.02 0 -0c0.01,-0.01 0.02,-0.02 0.03,-0.03 0.02,-0.03 0.03,-0.06 0.04,-0.09 0.01,-0.02 0.02,-0.05 0.02,-0.07 0,-0.01 0,-0.02 0,-0.04 0,-0.01 0,-0.02 0,-0.03 0,-0.01 -0,-0.02 -0,-0.03 0.02,0.01 0.03,0.02 0.04,0.03 0.02,0.02 0.03,0.05 0.04,0.07 0,-0.02 0,-0.05 -0.01,-0.06 -0,-0 -0,-0 -0,-0.01z"/>
     <path class="fil11" d="M0.26 0.48c0,0.05 0.02,0.1 0.05,0.14 0.01,0 0.01,0 0.02,0.01 0,0 0.01,0.01 0.01,0.01 0,0 0.01,0.01 0.01,0.01 0,0 0,0 0,0 0,0 0,0 0.01,0 0,0 0.01,0 0.01,0.01 0,0 0.01,0 0.01,0 0,0 0.01,0 0.01,0 0,0 0.01,0 0.01,0.01 0,0 0,0 0.01,0 0,0 0.01,0 0.01,0.01 0,0 0,0 0,0 0.02,0.01 0.04,0.02 0.06,0.03 0.01,-0.04 0.01,-0.09 -0.01,-0.13 -0.02,-0.01 -0.03,-0.01 -0.05,-0.02 -0,-0 -0.01,-0 -0.01,-0 -0.02,-0.01 -0.03,-0.02 -0.05,-0.03 -0,-0 -0,-0 -0,-0 0,0.01 0,0.01 0,0.02 0,0.01 0,0.01 0.01,0.02 -0.01,-0.01 -0.02,-0.02 -0.03,-0.03 -0.01,-0.02 -0.02,-0.04 -0.03,-0.06 -0,-0 -0,-0 -0,-0.01 -0.02,-0.05 -0.02,-0.11 -0.03,-0.17 -0.02,0.05 -0.02,0.11 -0.01,0.17z"/>
     <path class="fil12" d="M1.13 1.56c-0.01,-0 -0.03,-0.01 -0.04,0.01 -0.03,0.03 -0.03,0.07 -0.03,0.1 0.04,-0.01 0.07,-0.04 0.09,-0.08 0.02,-0.03 0.02,-0.07 -0,-0.1 0,0.03 -0,0.05 -0.02,0.07z"/>
     <path class="fil13" d="M0.74 1c0.01,-0 0.02,0 0.03,-0.01 -0.04,-0.04 -0.09,-0.07 -0.14,-0.1 -0.02,-0.01 -0.04,0 -0.05,0.01 0.01,0.03 0.03,0.06 0.06,0.08 0.03,0.02 0.07,0.03 0.11,0.03z"/>
     <path class="fil14" d="M1.29 0.56c-0.04,0.01 -0.07,0.02 -0.1,0.05 0.01,-0.02 0.01,-0.03 0.02,-0.05 -0,-0 -0,-0.01 -0,-0.01 -0.02,0.02 -0.05,0.03 -0.07,0.05 -0.01,0.01 -0.01,0.01 -0.02,0.02 -0.04,0.05 -0.06,0.13 -0.04,0.19 0.01,-0.02 0.01,-0.04 0.02,-0.06 0.01,-0.02 0.02,-0.04 0.04,-0.06 0.01,0.03 0.01,0.06 0.03,0.09 0,-0.08 0.05,-0.14 0.1,-0.19 0.02,-0.01 0.03,-0.03 0.05,-0.04 -0.01,0 -0.02,0 -0.03,0z"/>
     <path class="fil15" d="M0.8 0.56c0.01,0.02 0.02,0.03 0.02,0.05 -0.04,-0.03 -0.08,-0.04 -0.13,-0.05 0.08,0.05 0.15,0.13 0.16,0.23 0.02,-0.03 0.03,-0.06 0.03,-0.09 0.03,0.03 0.04,0.07 0.05,0.11 0,0 0,0 0.01,0 0,-0.04 0.01,-0.07 -0,-0.11 -0.02,-0.06 -0.07,-0.12 -0.13,-0.15z"/>
     <path class="fil16" d="M0.84 0.92c-0.02,-0.03 -0.03,-0.06 -0.05,-0.08 -0.02,-0.02 -0.03,-0.04 -0.05,-0.06 0.01,0.02 0.01,0.04 0.02,0.06 -0.04,-0.03 -0.08,-0.07 -0.11,-0.12 -0.02,-0.03 -0.01,-0.06 -0,-0.1 -0.03,0.02 -0.06,0.06 -0.05,0.1 0,0.03 0.01,0.06 0.04,0.08 0.04,0.03 0.09,0.06 0.13,0.09l0 -0 0 0c0.01,0.01 0.02,0.02 0.03,0.02 0.02,0.02 0.04,0.04 0.06,0.07 0,-0.01 -0,-0.03 -0.01,-0.04 0,-0 0,-0.01 0,-0.02z"/>
     <path class="fil16" d="M1.15 1.59c-0.02,0.04 -0.05,0.07 -0.09,0.08 -0,-0.04 0,-0.08 0.03,-0.1 0.01,-0.01 0.03,-0.01 0.04,-0.01 0.01,-0.02 0.02,-0.05 0.02,-0.07 0.02,0.03 0.02,0.07 0,0.1zm0.03 -0.16c-0.03,-0.02 -0.07,0 -0.09,0.03 -0,-0.02 0,-0.04 0.01,-0.06 -0.01,-0 -0.02,-0.01 -0.04,-0.01 -0,0 -0.01,0.01 -0.01,0.02 -0.02,0.02 -0.05,0.03 -0.06,0.06 -0.04,0.08 -0.03,0.17 0,0.25 0.03,-0.01 0.07,-0.02 0.1,-0.03 0.04,-0.02 0.08,-0.03 0.12,-0.02 -0,-0.04 -0,-0.08 -0.01,-0.12 -0.01,-0.04 -0.01,-0.08 -0.03,-0.11z"/>
     <path class="fil17" d="M0.34 0.71c0.01,0.01 0.02,0.02 0.03,0.03 0,0 0,0 0.01,0 0,0 0.01,0 0.01,0.01 0,0 0.01,0 0.01,0.01 0,0 0,0 0,0 0.01,0.01 0.03,0.02 0.04,0.03 0.01,-0.01 0.02,-0.01 0.03,-0.02 -0.02,-0.01 -0.04,-0.03 -0.06,-0.04l-0 -0c-0.03,-0 -0.05,-0.02 -0.08,-0.03 0,0 0.01,0.01 0.01,0.01z"/>
     <path class="fil18" d="M0.6 1.08c0.02,0.02 0.05,0.02 0.07,0.03 -0.01,0.01 -0.03,0.02 -0.05,0.02 0.06,0.01 0.13,-0.01 0.15,-0.07 -0.05,0.02 -0.11,0.02 -0.16,0 -0,-0 -0.01,-0.01 -0.01,-0.01 0.03,-0 0.05,-0 0.08,-0.01 -0.06,-0 -0.12,-0.04 -0.16,-0.09l-0.01 -0c0.02,0.05 0.04,0.09 0.08,0.12z"/>
     <polygon class="fil19" points="0.75,0.88 0.76,0.88 0.75,0.88 "/>
     <path class="fil20" d="M1.37 0.89c-0.05,0.03 -0.1,0.06 -0.14,0.1 0.04,0.01 0.08,0.01 0.12,-0.01 0.04,-0.02 0.06,-0.05 0.08,-0.09 -0.02,-0.01 -0.04,-0.02 -0.06,-0z"/>
     <path class="fil6" d="M1.24 1.08c0.03,0.05 0.09,0.07 0.14,0.05 -0.02,-0.01 -0.03,-0.01 -0.05,-0.02 0.03,-0.01 0.05,-0.01 0.07,-0.03 0.04,-0.03 0.06,-0.07 0.07,-0.11 -0.02,0.02 -0.04,0.04 -0.06,0.05 -0.03,0.02 -0.06,0.03 -0.09,0.03 0.02,0.01 0.05,0.01 0.07,0.01 -0.02,0.02 -0.06,0.01 -0.08,0.02 -0.03,0.01 -0.05,0 -0.08,-0z"/>
     <path class="fil21" d="M0.87 1.56c-0.01,-0.02 -0.02,-0.04 -0.02,-0.07 -0,0.01 -0.01,0.02 -0.01,0.03 -0.01,0.05 0.02,0.1 0.06,0.13 0.01,0 0.01,0.01 0.02,0.01l0.01 0c0,0 0.01,0.01 0.02,0.01 -0,-0.03 -0,-0.07 -0.02,-0.1 -0.01,-0.01 -0.03,-0.01 -0.05,-0.01z"/>
     <path class="fil22" d="M1.07 1.39c-0.04,-0.01 -0.07,-0.01 -0.11,-0 0.03,0.01 0.07,0.01 0.1,0.02 0,-0 0.01,-0.01 0.01,-0.02z"/>
     <path class="fil23" d="M0.97 1.85c0.05,-0 0.09,-0.03 0.12,-0.06 -0,-0 -0.01,-0 -0.01,-0 -0.03,0 -0.07,0.01 -0.1,0 -0.03,-0.01 -0.06,-0.02 -0.08,-0.03l0.01 0c-0.03,-0.02 -0.07,-0.03 -0.1,-0.03 0.02,0.05 0.06,0.09 0.1,0.12l0 0c0.03,0 0.05,0.01 0.08,0.01z"/>
     <path class="fil24" d="M1.21 2.04l-0 -0c0,0 0,0 0,0z"/>
     <path class="fil25" d="M0.72 2.16l0 0c-0,-0 -0,-0 -0,-0l0 0z"/>
    </g>
    <path class="fil26 str0" d="M1.84 0.36c0.02,0.08 0.03,0.17 -0,0.25 -0.01,0.02 -0.02,0.04 -0.03,0.06 -0.01,0.02 -0.06,0.08 -0.03,0.09 0.02,0.01 0.04,0.01 0.07,0.02 0.04,0.02 0.07,0.04 0.09,0.08 0.02,0.04 0.03,0.06 0.06,0.1 0.01,0.01 -0.02,0 -0.03,0.01 -0.07,0.01 -0.17,0.06 -0.23,0.09 -0.04,0.02 -0.02,0.02 -0.01,0.07 0.01,0.05 0.02,0.07 0.03,0.12 0.01,0.09 0.01,0.15 -0.01,0.25 -0.02,0.08 -0.05,0.18 -0.1,0.25 -0.02,0.03 -0.04,0.06 -0.06,0.09 -0.01,0.01 -0.01,0.02 -0.02,0.04 -0.01,0.01 -0.01,-0 -0.01,-0.01 0,-0.02 0.01,-0.08 -0,-0.09 -0.01,-0.01 -0.05,0.09 -0.06,0.1 -0.03,0.08 -0.05,0.13 -0.06,0.22 -0,0.01 -0,0.03 -0.01,0.05 -0.04,-0.02 -0.06,-0.08 -0.06,-0.08 -0,-0 -0.01,0.03 -0.01,0.03 -0.02,0.09 -0.06,0.13 -0.11,0.2 -0.01,0.01 -0.06,0.05 -0.07,0.05 -0.01,-0.01 0.01,-0.07 -0,-0.08 -0.01,0.01 -0.02,0.07 -0.04,0.09 -0.02,0.03 -0.04,0.06 -0.06,0.08 -0.05,0.06 -0.07,0.04 -0.15,0.04 -0.02,0 -0.02,-0.01 -0.02,-0.03 -0,-0.06 -0.01,-0.1 -0.05,-0.15 -0,-0.01 -0.02,-0.03 -0.02,-0.02 0,0.03 0.01,0.03 0,0.07 -0.08,-0.05 -0.14,-0.15 -0.17,-0.23 -0.03,-0.09 -0.01,-0.05 -0.06,0.01 -0.05,0.05 -0.03,0.01 -0.04,-0.04 -0.01,-0.03 -0.01,-0.06 -0.02,-0.08 -0.01,-0.06 -0.04,-0.11 -0.06,-0.17 -0,-0.01 -0.04,-0.07 -0.04,-0.03 -0,0.02 0.01,0.09 0.01,0.09 -0,0 -0.01,0 -0.01,0 -0,-0 -0.03,-0.04 -0.03,-0.04 -0.03,-0.05 -0.06,-0.08 -0.08,-0.13 -0.01,-0.02 -0.02,-0.04 -0.03,-0.06 -0.01,-0.03 -0.02,-0.06 -0.03,-0.1 -0.01,-0.04 -0.02,-0.08 -0.02,-0.12 -0.01,-0.07 -0,-0.16 0.01,-0.23 0.01,-0.03 0.02,-0.08 0.03,-0.11 0.01,-0.02 -0.11,-0.06 -0.12,-0.07 -0.05,-0.03 -0.08,-0.04 -0.13,-0.04 -0.04,-0.01 -0.02,-0.03 -0.01,-0.06 0.03,-0.06 0.06,-0.07 0.11,-0.11 0.02,-0.02 0.06,-0.03 0.09,-0.03 0.04,-0 0.01,-0.03 -0.01,-0.05 -0.05,-0.05 -0.08,-0.14 -0.08,-0.21 0,-0.02 0,-0.06 0.01,-0.08 0,-0 0,-0.03 0.01,-0.04 0.01,-0.04 0.02,-0.07 0.04,-0.12 0.04,-0.08 0.09,-0.16 0.15,-0.22 0.05,-0.05 0.02,0.02 0.02,0.05 -0.01,0.07 -0.03,0.26 -0.02,0.33 0,0 0,0 0,0l-0 0 0.01 -0.01c0.01,-0.01 0.02,-0.02 0.03,-0.03 0.02,-0.02 0.02,-0.04 0.03,-0.07 0.04,-0.1 0.15,-0.18 0.25,-0.21 0.08,-0.02 0.16,-0.03 0.24,-0.02 0.09,0.02 0.08,0.02 0.17,0 0.16,-0.02 0.32,0.01 0.43,0.13 0.04,0.04 0.06,0.09 0.08,0.14 0.01,0.05 0.03,0.04 0.05,0.07 0.01,0.01 0,0.01 0.01,-0.01 0.01,-0.12 0,-0.22 -0.02,-0.33 -0.02,-0.08 -0,-0.07 0.05,-0.01 0.04,0.05 0.07,0.08 0.1,0.14 0.03,0.05 0.04,0.1 0.06,0.15z"/>
   </g>
   <path class="fil26 str1" d="M0.61 0.88c0.01,0.05 0.04,0.09 0.1,0.12"/>
   <path class="fil26 str1" d="M1.39 0.88c-0.02,0.06 -0.05,0.1 -0.1,0.12"/>
   <path class="fil27" d="M1.39 0.88c-0.02,0.06 -0.05,0.1 -0.1,0.12 0.02,-0 0.04,-0.01 0.06,-0.02 0.04,-0.02 0.06,-0.05 0.08,-0.09 -0.01,-0 -0.03,-0.01 -0.04,-0.01z"/>
   <path class="fil27" d="M0.57 0.89c0.01,0.03 0.03,0.06 0.06,0.08 0.02,0.02 0.05,0.03 0.08,0.03 -0.06,-0.03 -0.09,-0.06 -0.1,-0.12 -0.01,0 -0.03,0.01 -0.04,0.01z"/>
   <path class="fil28" d="M1.37 0.89c-0.05,0.03 -0.1,0.06 -0.14,0.1 0.02,0.01 0.04,0.01 0.06,0.01 0.04,-0.02 0.08,-0.06 0.1,-0.12 -0.01,0 -0.01,0 -0.02,0.01z"/>
   <path class="fil28" d="M0.61 0.88c0.01,0.05 0.04,0.09 0.1,0.12 0.01,0 0.02,0 0.03,-0 0.01,-0 0.02,0 0.03,-0.01 -0.04,-0.04 -0.09,-0.07 -0.14,-0.1 -0,-0 -0.01,-0 -0.01,-0z"/>
  </g>
 </g>
</svg>
