<?xml version="1.0" encoding="UTF-8"?>
<!DOCTYPE svg PUBLIC "-//W3C//DTD SVG 1.1//EN" "http://www.w3.org/Graphics/SVG/1.1/DTD/svg11.dtd">
<!-- Creator: CorelDRAW 2018 (64-Bit) -->
<svg xmlns="http://www.w3.org/2000/svg" xml:space="preserve" width="7.6872in" height="8.23831in" version="1.1" style="shape-rendering:geometricPrecision; text-rendering:geometricPrecision; image-rendering:optimizeQuality; fill-rule:evenodd; clip-rule:evenodd"
viewBox="0 0 4781.78 5124.6"
 xmlns:xlink="http://www.w3.org/1999/xlink">
 <defs>
  <style type="text/css">
   <![CDATA[
    .str0 {stroke:#2B2A29;stroke-width:4.31;stroke-miterlimit:2.61313}
    .fil15 {fill:none}
    .fil14 {fill:#182F28}
    .fil16 {fill:#C79933}
    .fil17 {fill:#FBEB58}
    .fil8 {fill:#FEFEFE;fill-rule:nonzero}
    .fil10 {fill:#081713;fill-rule:nonzero}
    .fil11 {fill:#9FB563;fill-rule:nonzero}
    .fil2 {fill:#ACBA1F;fill-rule:nonzero}
    .fil4 {fill:#AEB915;fill-rule:nonzero}
    .fil3 {fill:#AEB91A;fill-rule:nonzero}
    .fil6 {fill:#B1BA06;fill-rule:nonzero}
    .fil1 {fill:#B3BA06;fill-rule:nonzero}
    .fil0 {fill:#EFF1EF;fill-rule:nonzero}
    .fil12 {fill:#F7FAF9;fill-rule:nonzero}
    .fil5 {fill:#F8FAF9;fill-rule:nonzero}
    .fil7 {fill:#FAFBFB;fill-rule:nonzero}
    .fil9 {fill:#FBFBFB;fill-rule:nonzero}
    .fil13 {fill:#FCFCFC;fill-rule:nonzero}
   ]]>
  </style>
 </defs>
 <g id="Layer_x0020_1">
  <metadata id="CorelCorpID_0Corel-Layer"/>
  <g id="_1008355344">
   <path class="fil0" d="M2113.77 128.95c220.39,-67.21 447.24,-120.57 678.33,-128.2 189.31,-5.89 382.41,22.49 555.58,101.99 64.7,33.38 130.31,66.31 187.27,112.31 61.82,44.08 114.16,99.43 167.66,152.86 78.54,88.8 150.04,185.92 197.64,295.09 47.09,107.76 73.81,223.46 85.78,340.19 3.33,81.43 3.39,162.99 1.15,244.48 -7.04,147.83 -30.27,225.67 -46.64,362.23 95.01,-10.7 191.36,-11.15 286.38,-0.9 124.93,11.73 246.91,43.18 366.59,79.89 64,20.63 126.72,44.97 188.29,72.01 -23.38,98.73 -58.81,194.12 -99.3,287.02 -49.33,101.54 -108.08,199.69 -184.12,283.62 -67.78,74.89 -149.59,139.34 -243.77,177.14 50.12,155.65 105.58,330.54 104.23,493.82 0.13,83.29 3.78,166.89 -5.06,249.86 -30.81,308.09 -155.36,605.42 -351.21,845.03 -125.57,156.83 -278.24,292.78 -451.09,395.6 -164.52,102.83 -351.01,165.67 -540.27,204.76 -138.89,31.26 -279.39,56.12 -420.85,72.65 -18.96,3.59 -50.58,5.04 -69.48,0.56l12.72 -6.07c65.6,-30.17 123.71,-73.61 182.08,-115.57 24.02,-19.22 50.87,-35.94 69.9,-60.67 -38.5,-1.41 -76.5,5.96 -114.94,6.66 -78.67,10.76 -158.56,0.9 -237.36,10.51 -67.66,1.01 -160.44,11.67 -218.98,26.59 -115.25,24.41 -223.4,74.38 -324.24,134.34 -113.72,70.98 -218.27,155.42 -318.47,244.22 -35.36,31.9 -73.23,60.93 -107.44,94.05 -4.04,1.41 -12.04,4.23 -16.02,5.64 -4.16,-106.67 18.32,-212.38 48.05,-314.31 -105.13,66.5 -189.7,159.2 -277.47,246.08 -21.85,23 -46.9,43.05 -65.41,69 -2.18,3.33 -6.47,9.93 -8.58,13.2 -12.81,-33.25 -8.33,-69.38 -8.97,-104.17 -3.84,-150.04 30.88,-300.21 94.05,-436.03 76.95,-162.09 202.19,-295.66 339.17,-409.06 109.23,-90.46 227.69,-168.94 338.46,-257.35 40.17,-33.31 81.11,-67.01 111.92,-109.42 -38.5,-9.93 -78.42,-9.23 -117.88,-10.19 -116.73,-3.78 -236.79,12.81 -340.9,68.23 -46.9,23.06 -86.55,57.34 -127.81,88.8 -47.47,-23 -94.11,-49.65 -146.84,-58.75 -47.6,-12.17 -96.99,-7.81 -145.62,-9.42 -27.68,-61.25 -62.78,-119.74 -108.53,-169.33 -57.14,-62.78 -131.46,-105.58 -204.5,-147.16 -1.34,-32.23 5.7,-65.67 -5.7,-96.74 -6.79,-17.94 -8.39,-37.16 -6.92,-56.12 1.67,-36.77 4.68,-74.64 -6.53,-110.26 -5.57,-22.81 -16.27,-44.33 -18.64,-67.78 6.53,-22.42 21.91,-40.94 32.54,-61.44 22.42,-38.12 27.49,-82.84 34.08,-125.7 58.11,-28.83 118.84,-52.6 181.37,-70.15 23.19,-6.92 49.72,-8.52 67.66,-26.71 125.89,-118.84 260.1,-228.65 397.97,-333.21 42.22,-30.49 84.38,-61.06 127.04,-90.78 15.44,-9.29 20.95,-27.1 27.16,-42.86 19.16,-52.41 44.01,-102.64 72.14,-150.75 12.49,-26.97 36.01,-45.3 61.57,-58.94 176.63,-107.25 366.71,-193.16 565.25,-250.69 23.83,-8.78 56.38,-6.92 70.22,-32.16 31.45,-52.98 62.98,-106.41 103.14,-153.37 10.77,-12.11 19.6,-25.75 26.14,-40.49 -60.67,1.41 -119.99,-12.69 -180.28,-16.15 -106.93,-13.9 -213.08,-32.35 -319.24,-51.25 -76.43,-13.45 -154.27,-13.64 -231.6,-11.92 -85.66,2.44 -170.93,21.98 -248.57,58.3 -97.89,51.25 -182.46,125.19 -253.44,209.3 -3.53,2.82 -10.57,8.33 -14.1,11.15 -14.22,-55.67 -2.82,-113.14 1.67,-169.26 5.7,-54.33 24.79,-106.16 47.15,-155.62 67.27,-112.31 190.08,-175.73 310.59,-215.71 111.51,-33.44 196.25,-46.52 313.86,-59.97 137.35,-10.51 275.42,-0.77 413.03,-3.84 78.16,2.69 155.55,-8.9 233.14,-15.95 159.52,-20.37 318.28,-56.63 466.08,-121.15 57.21,-25.18 114.36,-54.14 160.16,-97.32 -28,-34.47 -75.4,-36.26 -116.21,-35.17 -50.42,-1.6 -99.82,10.64 -147.86,24.54 -116.41,37.54 -225.9,92.96 -332.63,152.03 -24.47,13.52 -50.48,24.86 -72.2,42.73 -4.42,0 -13.26,0 -17.68,0 16.4,-96.8 51.51,-190.4 101.74,-274.71 38.51,-62.08 91.68,-114.16 149.66,-158.18 66.12,-49.46 141.71,-85.85 220.96,-108.78 26.33,-8.33 55.29,-9.8 78.93,-25.24 -49.39,-17.55 -101.03,-32.29 -153.95,-31.2 -49.2,0.45 -98.72,-2.5 -147.61,3.97 -100.13,15.63 -198.03,42.86 -295.09,71.37 -154.14,44.72 -306.68,95.01 -460.83,139.79 -118.84,33.76 -238,66.56 -358.13,95.71 -211.87,49.65 -424.82,96.74 -640.72,125.12 -39.08,2.11 -77.97,5.96 -116.79,10.25 -84.76,5.96 -170.29,6.4 -254.85,-2.18 -75.66,-1.99 -150.36,-17.17 -223.33,-36.2 -140.3,-38.95 -277.34,-112.82 -363.57,-233.33 -74.06,-94.75 -108.65,-217.18 -103.53,-336.67 -3.27,-70.34 13.07,-139.47 34.92,-205.78 13.9,-39.66 27.87,-79.64 48.88,-116.22 18.77,27.93 23.45,62.14 36.33,92.83 37.16,104.17 80.66,212.57 167.08,286.18 103.66,88.03 244.09,120.38 377.41,120.31 89.95,0.38 180.28,1.47 269.52,-11.02 101.22,-11.6 201.55,-29.66 301.17,-51 16.53,-3.2 32.55,-9.16 46.38,-18.96 -92.83,-12.11 -181.88,-50.23 -255.81,-107.5 -29.41,-27.81 -55.29,-59.2 -79.38,-91.68 -45.93,-59.96 -67.65,-136.2 -68.74,-211.16 -1.28,-62.08 -1.47,-124.67 10.12,-185.92 3.91,-21.08 8.14,-42.09 12.3,-63.17 9.29,13.9 18.84,27.61 27.93,41.64 36.2,58.81 76.82,115.25 124.1,165.74 46.96,42.92 106.35,71.24 167.92,86.17 34.02,9.16 69.51,9.55 104.17,14.67 25.75,3.59 51.51,-0.64 77.13,-3.46 98.98,-5.19 195.85,-28.38 291.12,-54.46 142.42,-42.09 278.75,-101.8 420.72,-145.36zm434.94 -13.13l0 0 -90.08 16.13c-32.23,2.88 -64.32,14.75 -95.78,21.61 -149.21,36.45 -295.6,83.54 -439.43,137.17 -155.94,58.81 -316.74,109.74 -483.18,126.08 -83.54,1.34 -168.94,8.52 -250.56,-13.07 -68.87,-15.31 -135.24,-48.24 -184.96,-98.79 -15.05,-14.03 -23.38,-33.96 -39.97,-46.38 3.39,94.3 47.86,186.82 120.12,247.87 85.59,68.68 196.81,94.62 304.06,103.27 62.02,1.54 124.16,1.86 186.11,-1.02 42.41,-6.92 85.53,-8.4 127.81,-16.66 72.46,-8.71 143.19,-27.42 214.43,-42.86 33,-9.8 65.73,-20.24 98.98,-29.15 -15.05,11.98 -31.58,21.97 -49.27,29.6 -185.15,89.82 -381.32,154.59 -579.67,208.22 -184.13,47.98 -371.9,84.18 -561.99,95.78 -74.83,0.64 -149.66,1.54 -224.42,-0.45 -38.38,0.06 -75.02,-14.86 -113.59,-13.32 2.95,-1.73 5.89,-3.4 8.84,-5.06 -29.6,-1.09 -57.53,-11.4 -85.46,-20.31 -110.06,-36.13 -210.97,-106.8 -272.98,-205.78 -17.49,-27.61 -26.14,-59.71 -44.78,-86.55 -1.35,23.83 -2.44,47.66 -5.06,71.43 -1.99,85.14 21.91,170.22 65.41,243.32 28.44,46.7 67.27,86.1 108.52,121.53 80.02,64.26 177.98,101.42 277.15,123.97 84.39,14.63 114.52,19.92 196.42,25.63 80.08,0 160.87,4.87 240.31,-7.56 30.69,-6.09 62.34,-1.54 93.09,-7.37 78.59,-13.91 115.78,-17.54 199.31,-32.1 265.74,-49.33 528.93,-113.01 788.14,-189.83 214.68,-61.12 425.59,-135.56 642.71,-188.1 52.15,-9.16 103.85,-22.87 157.09,-23.96 110.51,-13.65 223.78,6.28 325.9,49.39 41.96,19.09 86.3,40.23 114.23,78.42 17.42,21.97 16.72,53.62 4.61,77.97 -43.56,1.79 -87.64,-2.88 -130.63,5.51 -91.04,13.58 -182.14,40.04 -259.28,91.42 -56.7,33 -103.34,80.15 -145.94,129.29 -17.62,27.29 -41.71,52.53 -48.82,84.95 42.8,-19.41 83.16,-43.95 126.53,-62.4 111.92,-50.16 234.55,-88.47 358.51,-73.23 37.09,7.94 76.36,17.88 103.98,45.81 25.63,22.55 50.8,53.3 46.58,89.76 -12.94,34.02 -40.04,60.8 -69.38,81.3 -51.7,38.76 -109.42,68.74 -168.94,93.34 -159.33,66.5 -329.36,103.92 -500.29,124.16 -30.24,-0.06 -59.71,7.56 -89.56,10.89 -156.06,5.57 -312.26,0.9 -468.32,2.11 -141.71,9.1 -286.31,24.99 -417.71,82.65 -95.46,37.42 -182.84,103.6 -231.92,195.02 -9.42,13.58 -15.76,29.02 -15.31,45.87 7.37,-6.84 8.17,-10.38 15.28,-17.36l6.5 -6.6c98.98,-93.99 234.1,-139.41 367.93,-152.09 51.12,-2.31 102.31,-3.01 153.5,-1.47 99.81,-0.77 196.81,26.01 295.15,39.01 101.67,15.44 203.47,31.71 306.23,39.79 36.13,8.01 73.23,4.48 109.81,7.49 42.86,7.37 86.87,1.03 129.35,11.66 -121.15,92.51 -224.61,210.52 -289.26,349.48 -25.94,16.66 -58.23,18.77 -87,28.7 -196.04,56.96 -385.29,138.51 -559.04,245.95 -9.93,6.79 -21.59,12.37 -27.93,23.13 -36.84,58.11 -63.3,122.11 -84.57,187.39 -2.69,12.24 -14.48,18.39 -23.7,25.24 -141.9,97.38 -278.3,202.64 -408.23,315.4 -56.12,44.33 -104.62,97.38 -159.72,142.86 -66.31,17.81 -134.41,33.76 -195.98,65.61 -8.71,48.62 -31.52,92.45 -51.89,136.84 8.01,33.63 20.44,66.95 19.86,102.06 1.73,35.17 -6.54,71.37 5.38,105.58 6.34,18.52 5.7,38.12 7.62,57.4 13.26,13.39 31.78,19.73 47.15,30.3 75.92,49.59 143.38,113.2 193.48,189.06 13.52,20.44 25.05,42.22 39.6,62.02 50.55,-2.82 100.71,7.11 149.14,20.69 24.54,7.11 46.64,21.14 71.56,26.97 13.07,-5.06 23.7,-14.67 35.55,-21.97 119.74,-83.67 268.69,-118.84 413.48,-114.93 94.24,-2.56 188.87,5.76 281.12,25.11 0.32,30.05 -14.67,57.02 -27.93,83.09 -38.89,70.09 -100.46,123.46 -162.08,173.04 -119.74,94.24 -246.65,179.06 -362.42,278.24 -52.79,42.99 -98.15,93.79 -145.43,142.55 -87.32,100.01 -156.64,217.44 -192.58,345.83 -11.79,42.35 -22.68,85.53 -23.32,129.8 8.14,-4.23 16.53,-8.26 23.45,-14.41 128.2,-116.21 269.14,-218.91 421.55,-301.17 6.66,-2.76 13.65,-4.48 20.89,-5.26 -48.82,73.1 -87.32,153.18 -112.69,237.43 -6.47,26.65 -18.58,53.94 -11.66,81.81 49.33,-41.71 98.92,-83.35 152.28,-119.87 159.46,-117.56 343.01,-209.11 541.04,-235.7 68.04,-13.07 137.74,-10.19 206.29,-18.52 187.71,-0.83 377.48,-12.49 558.08,-67.71 32.23,-8.59 63.11,-22.3 96.23,-27.68 -13.84,24.79 -36.84,42.15 -55.99,62.46 -49.07,44.97 -100,88.09 -154.27,126.78 -8.2,5.45 -15.31,12.24 -20.89,20.44 30.18,0.06 59.32,-8.65 88.93,-13.58 239.41,-49.27 467.81,-151.9 661.99,-300.66 183.36,-137.61 337.76,-314.95 443.72,-518.55 55.61,-98.08 94.37,-205.01 124.16,-313.47 47.22,-165.16 57.4,-338.33 47.03,-509.13 -10.64,-102.55 -8.68,-99.41 -16.34,-134.8 -22.23,-124.73 -58.3,-247.42 -111.28,-362.67 63.43,-38.44 128.07,-75.53 186.56,-121.53 46.06,-41.2 93.54,-81.49 132.55,-129.8 98.98,-115.9 161.96,-258.44 197.39,-405.79 -144.98,-59.84 -298.42,-100.96 -454.87,-114.1 -125.06,-11.92 -250.75,-2.24 -375.04,12.69l43.44 -216.67c14.93,-85.08 28.45,-170.8 28.96,-257.35 7.81,-44.46 4.87,-89.69 4.8,-134.54 -8.07,-55.29 -5.83,-111.67 -16.59,-166.63 -20.82,-127.75 -62.85,-254.02 -136.14,-361.59 -109.87,-167.72 -261.9,-311.23 -445.71,-394.52 -114.74,-52.34 -239.93,-79.57 -365.3,-89.5 -130.63,-8.27 -261.77,1.09 -390.74,22.23z"/>
   <path class="fil1" d="M2966.03 348.31c3.91,-3.39 7.94,-6.92 11.92,-10.38 -39.08,-10.51 -75.09,-29.73 -113.97,-40.75 -93.41,-30.43 -191.62,-45.36 -289.77,-46.64 -64.45,-0.19 -128.9,-1.41 -193.28,1.22l-108.91 3.91 6.6 -1.8c17.3,-4.55 34.72,-8.52 52.15,-12.56 34.72,-8.39 69.45,-16.79 104.68,-22.81 84.95,-23.26 172.98,-31.14 260.49,-37.22 155.23,-6.79 313.22,9.61 460.44,60.86 101.8,37.48 200.46,87.64 283.11,158.76 101.67,84.69 181.11,194.18 237.62,313.34 8.91,17.04 15.19,35.49 15.44,54.9 -58.23,-44.08 -121.4,-81.43 -186.43,-114.55 -129.99,-67.27 -272.15,-114.04 -418.86,-122.75 -122.88,-11.92 -246.78,4.61 -366.78,31.01 -68.8,20.37 -139.21,35.75 -206.61,60.61 -103.08,38.37 -206.42,76.11 -309.82,113.59 -113.2,44.01 -228.58,82.52 -346.02,113.33 -49.2,12.75 -98.66,25.5 -149.47,29.28 -1.09,-3.39 -3.33,-10.25 -4.42,-13.65 38.7,-9.48 76.11,-23.32 112.44,-39.72 60.8,-26.91 121.72,-53.81 179.51,-86.94 156.64,-82.9 302.51,-185.22 463.13,-260.81 54.14,-25.88 110.07,-48.05 166.06,-69.57 110.38,-34.28 224.61,-60.54 340.77,-60.67z"/>
   <path class="fil2" d="M3172.71 1537.82c83.16,-35.69 165.67,-79.06 228.52,-145.56 2.05,3.84 6.02,11.6 8.01,15.44 -22.04,41 -45.94,81.62 -79.12,114.68 -39.14,43.37 -93.41,68.3 -146.52,90.08 -95.33,35.49 -199.5,31.2 -299.38,25.5 -21.78,-0.96 -43.56,-1.09 -65.35,-1.86 -1.86,-2.88 -5.64,-8.58 -7.49,-11.47 9.86,-4.17 19.6,-9.61 30.62,-9.93 43.76,-0.07 86.17,-11.53 129.54,-15.5 68.93,-13.71 135.82,-35.68 201.17,-61.37z"/>
   <path class="fil3" d="M3532.95 2078.28c83.86,-60.99 176.2,-111.04 276.2,-139.29 3.67,-0.63 15.39,-4.83 21.45,-6.75 -17.74,21.78 -51.7,56.99 -68.29,79.73 -21.78,28.7 -39.98,60.09 -62.59,88.15 2.05,3.01 6.28,9.03 8.39,12.04 50.87,-37.22 110.71,-58.56 168.88,-81.3 80.47,-28.19 162.6,-53.18 247.68,-62.53 60.86,-11.53 122.75,-13.39 184.32,-18.07 35.36,-1.73 70.92,-2.63 106.28,0.45 -2.24,3.65 -11.47,9.45 -13.71,13.1 -105.39,70.22 -204.69,144.56 -317.64,202.29 -49.01,23.58 -97.38,48.43 -147.48,69.44 -0.26,2.44 -0.84,7.43 -1.09,9.87 61.2,6.68 110.22,15.21 172.75,15.93 14.56,0 32.71,1.27 47.22,2.5 -42.8,12.49 -113.04,47.63 -155.39,61.4 -140.11,51.32 -291.24,60.1 -439.17,57.08 -35.3,-2.24 -70.73,-3.33 -105.71,-8.78 19.22,-12.88 41,-20.95 61.89,-30.62 59.97,-29.41 119.48,-60.22 174.26,-98.66 -66.05,-17.3 -134.67,-2.82 -201.17,4.42 -45.68,4.23 -83.48,12.78 -135.69,20.38 47.73,-73.61 111.28,-135.31 178.62,-190.79z"/>
   <path class="fil4" d="M2249.91 2263.23c127.17,-41.64 252.93,-89.05 384.01,-117.49 2.82,-0.26 8.46,-0.77 11.28,-1.02 -1.28,2.31 -3.97,6.98 -5.26,9.29 -19.22,18.71 -41.13,34.27 -61.18,52.02 -24.8,20.37 -47.47,44.65 -77.71,57.02 -82.71,32.1 -161.45,73.55 -239.8,114.93 -27.49,17.3 -54.78,35.3 -85.14,47.41 10.64,-24.73 28.57,-45.04 48.05,-63.11 9.93,-9.93 19.61,-20.05 29.34,-30.05 -41.96,7.62 -84.51,11.72 -126.34,20.31 -51.19,12.36 -102.44,24.67 -152.09,42.22 -3.97,1.03 -11.92,3.08 -15.89,4.1 8.14,-8.39 16.33,-17.17 26.97,-22.29 39.91,-18.07 79.89,-36.13 120.06,-53.75 47.02,-21.85 95.07,-41.45 143.7,-59.58z"/>
   <path class="fil5" d="M2659.03 2435.76c37.86,-5.25 75.21,-17.49 113.91,-13.13 -46.26,52.53 -101.48,97.12 -146.2,151.38 -6.47,9.23 -17.49,13.13 -28,15.7 -206.55,42.22 -402.4,134.09 -568.9,263.06 57.27,-114.68 149.27,-210.65 257.86,-278.18 112.44,-71.88 241.59,-111.66 371.32,-138.83z"/>
   <path class="fil6" d="M3978.79 2904.92c-3.33,-16.59 -9.74,-32.48 -21.46,-44.91l-3.14 6.02c1.15,56.44 -41.68,134.49 -60.26,185.81l-2.72 -33.97c-8.91,-68.36 -7.56,-138.38 -26.59,-205.2 -12.17,-37.03 -23.13,-74.89 -43.12,-108.65 -71.43,0.19 -144.53,2.05 -213.59,-19.09 -83.41,-21.91 -160.04,-64.39 -228.97,-115.45 -10.76,-7.37 -54.89,-31.86 -66.23,-38.07l32.59 4.76c6.79,0.64 13.65,1.6 20.5,2.82 163.24,47.79 338.78,60.1 505.48,23.45 49.52,-9.61 95.01,-32.67 143.83,-44.14 24.79,74.64 52.34,148.5 72.27,224.68 23.77,108.59 49.14,218.14 49.33,330 6.28,63.87 -1.73,127.81 -3.07,191.75 -9.8,84.12 -23.39,168.37 -49.33,249.21 -39.66,125.19 -87.45,248.83 -157.67,360.37 -21.65,40.11 -47.67,77.65 -70.41,117.11 -5.51,10.12 -14.41,17.55 -24.22,23.38 4.23,-11.85 8.9,-23.57 14.99,-34.59 19.16,-32.67 36.9,-66.24 52.02,-100.97 77.71,-185.79 126.59,-386.32 120.96,-588.57 3.52,-129.67 -12.81,-259.4 -41.19,-385.74z"/>
   <path class="fil7" d="M2564.6 2768.71c88.28,-94.75 207.76,-162.92 336.86,-180.54 -11.66,35.24 -36.13,63.94 -58.81,92.58 -15.5,20.05 -37.09,34.66 -50.48,56.44 35.3,-3.07 67.59,-19.86 102.95,-22.81 -17.43,43.12 -50.55,77.2 -82.96,109.42 -41.32,42.35 -92.83,72.33 -142.99,102.7 60.41,7.43 119.8,20.82 179.83,30.37 -25.44,20.63 -58.62,25.88 -88.03,38.51 -74.96,25.11 -152.8,41.32 -231.47,48.75 -40.62,0.64 -81.3,0.32 -121.92,0.19 -25.69,0.7 -50.42,-7.82 -76.05,-7.24 13.13,31.71 41.96,52.72 64.51,77.52 -50.48,2.56 -99.3,-12.88 -147.61,-25.18 -71.37,-22.74 -140.56,-58.05 -193.41,-112.05 -8.01,-7.56 -15.82,-15.7 -18.64,-26.65 91.81,-44.08 194.57,-54.52 294.32,-66.82 48.12,-1.15 96.23,-1.73 144.34,-1.15 29.02,-38.63 56.31,-78.8 89.56,-114.04z"/>
   <path class="fil8" d="M2241.11 2803.25c57.09,-43.77 205.61,-99.08 278.01,-123.21 2.56,-0.83 7.69,-2.56 10.25,-3.4l-90.14 122.44c-65.99,-6.93 -132.04,-4.28 -198.12,4.16z"/>
   <path class="fil9" d="M1270.09 3075.85c50.68,-48.18 96.8,-101.22 150.11,-146.58 -4.42,49.84 10.95,106.03 53.37,136.4 47.92,36.26 110.58,49.46 169.71,49.27 5.77,99.62 -20.82,201.1 -74.7,285.22 -30.75,50.8 -75.27,90.97 -119.55,129.8 -14.03,10.63 -28.06,24.41 -46.7,25.11 -45.17,1.6 -90.4,-0.96 -135.5,1.67 -38.18,3.72 -76.43,10.06 -114.61,12.11 -24.41,-19.73 -45.81,-43.31 -73.55,-58.68 -16.46,-12.17 -38.82,-16.4 -51.64,-33.06 -1.09,-20.57 4.55,-40.49 7.62,-60.61 46.77,-0.58 95.46,5.64 140.37,-10.63 90.01,-27.49 161.64,-94.31 218.4,-167.02 -26.52,-56.63 -69.83,-104.68 -122.17,-138.7 -10.96,-3.97 -10.44,-18.71 -1.15,-24.28z"/>
   <path class="fil10" d="M2354.53 3057.07c49.52,-6.02 99.49,-2.5 149.27,-3.78 15.31,0.38 31.71,-1.54 46.13,4.74 -56.95,6.22 -114.42,-3.01 -171.18,5.19 -8.78,1.92 -16.98,-1.67 -24.22,-6.15z"/>
   <path class="fil1" d="M2976.03 3544.55c6.92,1.22 13.84,2.31 20.82,3.33 76.37,-21.4 150.43,-53.18 213.92,-101.22 54.01,-43.18 96.93,-99.05 127.49,-160.87 56.12,-106.03 72.91,-226.09 92.06,-342.81 29.53,36.58 30.94,86.23 42.54,130.05 22.93,99.05 30.43,204.18 -0.32,302.52 -17.43,63.74 -56.44,119.67 -104.04,164.65 -40.87,33.7 -86.17,62.53 -135.12,83.09 -99.49,40.23 -205.65,63.81 -312.9,68.1 -81.3,1.73 -162.6,1.34 -243.9,-0.07 -58.05,-2.91 -109.17,-9.83 -164.07,-13.58 -2.37,-1.73 -38.34,-1.89 -40.71,-3.69 4.1,-1.22 43.53,-7.08 47.57,-8.29 108.65,-24.03 216.28,-59.58 311.42,-118.27 47.73,-27.74 94.69,-57.91 134.03,-96.99 25.94,-25.82 55.42,-48.43 77.01,-78.35l31.76 -35.16 -24.84 68.73c-15.25,50.42 -41.45,96.74 -72.72,138.83z"/>
   <path class="fil11" d="M1055.91 3347.48c2.05,-15.18 3.91,-30.37 7.56,-45.23 6.22,-19.6 18,-36.52 31.01,-52.15 16.59,2.56 33.25,4.93 49.97,6.79 30.49,1.09 62.02,-4.61 91.42,6.41 -9.23,9.67 -18.58,19.34 -29.02,27.74 -24.54,16.72 -51.06,30.81 -79.51,39.78 -21.4,7.18 -43.37,12.56 -65.73,15.76l-5.7 0.9z"/>
   <path class="fil12" d="M1234.91 3665.89c67.33,-13.33 136.78,-12.62 205.33,-14.29 56.44,0.45 113.14,-1.54 169.45,3.27 -9.99,11.6 -25.88,13.07 -39.47,17.94 -56.57,16.85 -110.19,42.22 -161.57,70.99 -23.51,-6.6 -46.7,-14.8 -70.79,-18.97 -22.36,-3.46 -47.86,-0.25 -66.37,-15.89 -13.45,-13.07 -29.66,-25.05 -36.58,-43.05z"/>
   <path class="fil13" d="M2310.58 3779.93c67.53,16.4 134.99,33.76 204.11,41.96 102.57,11.6 206.48,12.75 309.5,5.45 3.01,1.47 9.1,4.36 12.17,5.76 -46.83,54.01 -93.28,108.46 -144.15,158.76 -42.92,36.9 -81.68,79.06 -130.76,108.21 23.7,13.2 50.74,1.28 75.92,0.32 46.77,-4.68 90.72,-23.26 136.72,-30.75 -26.78,75.34 -78.22,139.98 -135.24,195.15 -42.15,42.09 -95.91,69.51 -150.04,92.96 -59.13,24.41 -123.33,32.54 -186.43,39.72 -28.06,5.96 -56.31,11.66 -85.14,11.47 3.08,1.79 6.21,3.59 9.42,5.51 -25.69,-1.09 -50.36,5.96 -74.89,12.43 -124.93,29.28 -242.68,82.96 -351.98,149.53 31.07,-77.2 81.56,-144.34 134.86,-207.45 -11.47,0.07 -22.87,0.26 -34.15,1.92 -136.97,30.3 -269.59,81.62 -390.22,153.5 39.08,-70.09 99.24,-125.44 157.22,-179.9 57.72,-49.59 119.68,-93.92 182.52,-136.84 117.43,-77.52 241.59,-148.37 341.22,-249.34 51.19,-50.68 93.28,-111.03 119.35,-178.36z"/>
   <path class="fil14" d="M3472.54 3375.54c-17.43,63.74 -56.44,119.67 -104.04,164.65 -40.87,33.7 -86.17,62.53 -135.12,83.09 -99.49,40.23 -205.65,63.81 -312.9,68.1 -81.3,1.73 -162.6,1.34 -243.9,-0.07 -58.05,-2.91 -109.17,-9.83 -164.07,-13.58 -2.37,-1.73 -38.34,-1.89 -40.71,-3.69 4.1,-1.22 43.53,-7.08 47.57,-8.29 108.65,-24.03 216.28,-59.58 311.42,-118.27 47.73,-27.74 94.69,-57.91 134.03,-96.99 25.94,-25.82 55.42,-48.43 77.01,-78.35l31.76 -35.16 -24.84 68.73c-15.25,50.42 -41.45,96.74 -72.72,138.83 6.92,1.22 13.84,2.31 20.82,3.33 76.37,-21.4 150.43,-53.18 213.92,-101.22 54.01,-43.18 96.93,-99.05 127.49,-160.87 56.12,-106.03 72.91,-226.09 92.06,-342.81 29.53,36.58 30.94,86.23 42.54,130.05 22.93,99.05 30.43,204.18 -0.32,302.52zm-2403.74 -2282.47c78.59,-13.91 115.78,-17.54 199.31,-32.1 8.2,-1.52 16.39,-3.06 24.58,-4.6 257.39,-48.67 512.34,-110.78 763.56,-185.22 214.68,-61.12 425.59,-135.56 642.71,-188.1 52.15,-9.16 103.85,-22.87 157.09,-23.96 110.51,-13.65 223.78,6.28 325.9,49.39 41.96,19.09 86.3,40.23 114.23,78.42 17.42,21.98 16.72,53.63 4.61,77.97 -43.57,1.8 -87.64,-2.88 -130.63,5.51 -91.04,13.58 -182.14,40.04 -259.28,91.42 -56.7,32.99 -103.34,80.14 -145.94,129.28 -17.62,27.29 -41.71,52.53 -48.82,84.95 42.8,-19.41 83.16,-43.95 126.53,-62.4 111.92,-50.16 234.54,-88.47 358.51,-73.23 37.09,7.94 76.37,17.88 103.98,45.81 25.63,22.55 50.81,53.3 46.58,89.76 -12.94,34.02 -40.04,60.8 -69.38,81.3 -51.7,38.76 -109.43,68.74 -168.94,93.34 -159.33,66.5 -329.36,103.92 -500.29,124.16 -30.24,-0.06 -59.71,7.56 -89.56,10.89 -156.06,5.57 -312.26,0.9 -468.32,2.11 -141.71,9.1 -286.31,24.99 -417.71,82.65 -95.46,37.41 -182.84,103.59 -231.92,195.01 -9.42,13.58 -15.76,29.02 -15.31,45.87 7.37,-6.84 8.17,-10.38 15.28,-17.36l6.5 -6.6c98.98,-93.98 234.09,-139.41 367.93,-152.09 51.12,-2.3 102.31,-3.01 153.5,-1.47 99.81,-0.77 196.81,26.01 295.15,39.02 101.67,15.44 203.47,31.71 306.23,39.78 36.13,8.01 73.23,4.48 109.81,7.5 42.86,7.37 86.87,1.03 129.35,11.66 -121.15,92.51 -224.61,210.52 -289.26,349.48 -25.95,16.66 -58.23,18.77 -87,28.7 -196.04,56.95 -385.29,138.51 -559.04,245.95 -9.93,6.79 -21.59,12.36 -27.93,23.13 -36.84,58.11 -63.29,122.11 -84.56,187.39 -2.69,12.24 -14.48,18.39 -23.71,25.24 -141.9,97.38 -278.3,202.64 -408.23,315.4 -0.54,0.43 -1.08,0.86 -1.63,1.29 -55.43,44.07 -103.53,96.53 -158.09,141.58 -66.31,17.81 -134.41,33.76 -195.98,65.6 -8.71,48.63 -31.52,92.45 -51.89,136.85 8.01,33.63 20.44,66.95 19.86,102.06 1.73,35.17 -6.54,71.37 5.38,105.58 6.34,18.52 5.7,38.12 7.62,57.4 13.26,13.39 31.78,19.73 47.15,30.3 75.92,49.59 143.38,113.2 193.48,189.06 13.52,20.44 25.05,42.22 39.59,62.01 31.21,-1.74 62.27,1.38 92.87,7.22 18.96,3.62 37.75,8.28 56.27,13.47 24.54,7.11 46.64,21.14 71.56,26.97 13.07,-5.06 23.7,-14.67 35.56,-21.97 119.74,-83.67 268.69,-118.84 413.48,-114.93 94.24,-2.56 188.87,5.76 281.12,25.11 0.32,30.05 -14.67,57.02 -27.93,83.09 -38.89,70.09 -100.46,123.46 -162.09,173.04 -119.74,94.24 -246.65,179.06 -362.42,278.24 -52.79,42.99 -98.15,93.79 -145.43,142.55 -65.78,75.34 -121.35,160.57 -160.13,252.92l0 179.51c119.45,-104.42 249.52,-196.99 389.22,-272.39 6.66,-2.76 13.65,-4.48 20.89,-5.26 -48.82,73.1 -87.32,153.18 -112.69,237.43 -6.47,26.65 -18.58,53.94 -11.66,81.81 49.33,-41.71 98.92,-83.35 152.28,-119.87 159.46,-117.56 343.01,-209.11 541.03,-235.7 68.04,-13.07 137.74,-10.19 206.29,-18.52 187.71,-0.83 377.48,-12.49 558.08,-67.71 32.23,-8.59 63.11,-22.3 96.23,-27.68 -13.84,24.79 -36.84,42.16 -55.99,62.47 -49.07,44.97 -100,88.09 -154.27,126.78 -8.2,5.45 -15.31,12.24 -20.89,20.44 30.17,0.06 59.32,-8.65 88.92,-13.58 239.41,-49.27 467.81,-151.9 661.99,-300.66 183.36,-137.61 337.75,-314.95 443.72,-518.55 55.61,-98.08 94.37,-205.01 124.16,-313.47 47.22,-165.16 57.4,-338.33 47.03,-509.13 -10.64,-102.55 -8.68,-99.41 -16.34,-134.8 -22.23,-124.74 -58.3,-247.42 -111.28,-362.67 63.43,-38.44 128.07,-75.53 186.56,-121.53 46.06,-41.19 93.54,-81.49 132.55,-129.8 98.98,-115.89 161.96,-258.44 197.39,-405.79 -144.98,-59.84 -298.42,-100.97 -454.87,-114.1 -125.06,-11.92 -250.75,-2.24 -375.04,12.69l43.44 -216.67c14.93,-85.08 28.45,-170.8 28.96,-257.35 7.81,-44.46 4.87,-89.69 4.8,-134.54 -8.07,-55.29 -5.83,-111.67 -16.59,-166.63 -20.82,-127.75 -62.85,-254.02 -136.14,-361.59 -109.87,-167.72 -261.9,-311.23 -445.71,-394.52 -114.74,-52.34 -239.93,-79.57 -365.3,-89.5 -130.63,-8.27 -261.77,1.09 -390.74,22.23l-90.08 16.13c-32.23,2.88 -64.32,14.75 -95.78,21.61 -149.21,36.45 -295.6,83.54 -439.43,137.16 -155.94,58.81 -316.74,109.75 -483.18,126.08 -83.55,1.34 -168.94,8.52 -250.56,-13.07 -68.87,-15.31 -135.24,-48.24 -184.96,-98.79 -15.05,-14.03 -23.38,-33.96 -39.97,-46.38 3.4,94.3 47.86,186.82 120.12,247.87 25.27,20.28 52.78,36.83 81.76,50.31 39.89,18.56 82.57,31.3 126.05,39.93 31.91,6.33 64.26,10.45 96.25,13.03 62.02,1.54 124.16,1.86 186.11,-1.02 42.41,-6.92 85.53,-8.4 127.81,-16.66 72.46,-8.71 143.19,-27.42 214.43,-42.86 32.99,-9.8 65.73,-20.24 98.98,-29.15 -15.06,11.98 -31.58,21.97 -49.27,29.6 -185.15,89.82 -381.32,154.59 -579.67,208.22 -31.45,8.19 -63,16.05 -94.65,23.49 -153.68,36.14 -309.71,62.67 -467.34,72.29 -74.83,0.64 -149.66,1.54 -224.42,-0.45 -38.38,0.06 -75.02,-14.86 -113.59,-13.32 2.95,-1.73 5.89,-3.4 8.84,-5.06 -29.6,-1.09 -57.53,-11.4 -85.46,-20.31 -110.06,-36.13 -210.97,-106.8 -272.98,-205.78 -10.39,-16.41 -17.66,-34.4 -25.77,-51.94l-20.99 0c-0.78,12.28 -1.73,24.56 -3.08,36.82 -1.99,85.14 21.91,170.22 65.41,243.32 28.44,46.7 67.27,86.1 108.52,121.53 80.02,64.26 177.98,101.42 277.15,123.97 84.39,14.63 114.52,19.92 196.42,25.63 80.08,0 160.87,4.87 240.31,-7.56 30.69,-6.09 62.34,-1.54 93.09,-7.37zm223.88 2022.15c-6.96,-5.3 -14.11,-10.34 -21.44,-15.1 -10.95,-3.97 -10.44,-18.71 -1.15,-24.28 7.62,-7.24 15.14,-14.6 22.59,-22.02 42.12,-41.93 82.23,-86.02 127.51,-124.56 -4.42,49.84 10.95,106.03 53.37,136.4 47.92,36.26 110.58,49.46 169.71,49.27 5.77,99.62 -20.82,201.1 -74.7,285.22 -30.75,50.8 -75.28,90.97 -119.55,129.8 -14.03,10.63 -28.06,24.41 -46.7,25.11 -36.54,1.3 -73.12,-0.13 -109.64,0.66 -8.62,0.19 -17.24,0.5 -25.86,1 -38.18,3.72 -76.43,10.06 -114.61,12.11 -24.41,-19.73 -45.81,-43.31 -73.55,-58.68 -16.46,-12.17 -38.82,-16.4 -51.64,-33.06 -1.09,-20.57 4.55,-40.49 7.62,-60.61 46.77,-0.58 95.46,5.64 140.37,-10.63 43.36,-13.24 82.45,-35.6 117.66,-63.36 37.9,-29.87 71.31,-65.97 100.74,-103.66 -22.81,-48.7 -58.03,-91.06 -100.74,-123.6zm0 604.2c-7.61,-1.96 -14.81,-5.11 -21.18,-10.49 -13.45,-13.07 -29.66,-25.05 -36.58,-43.05 19.11,-3.78 38.39,-6.44 57.76,-8.33 48.91,-4.79 98.47,-4.76 147.57,-5.96 56.44,0.45 113.14,-1.54 169.45,3.27 -9.99,11.6 -25.88,13.07 -39.46,17.94 -56.57,16.85 -110.2,42.22 -161.57,70.98 -23.51,-6.6 -46.7,-14.8 -70.79,-18.96 -14.66,-2.27 -30.68,-1.67 -45.19,-5.4zm-198.19 -469.33c16.59,2.56 33.25,4.93 49.97,6.79 30.49,1.09 62.02,-4.61 91.42,6.41 -9.23,9.67 -18.58,19.34 -29.02,27.74 -24.54,16.72 -51.06,30.81 -79.51,39.78 -21.4,7.18 -43.37,12.56 -65.73,15.76l-5.7 0.9c2.05,-15.18 3.91,-30.37 7.56,-45.23 6.22,-19.6 18,-36.52 31.01,-52.15zm1666.48 -254.73c-74.96,25.11 -152.8,41.32 -231.47,48.75 -40.62,0.64 -81.3,0.32 -121.92,0.19 -25.69,0.71 -50.42,-7.81 -76.05,-7.24 13.13,31.71 41.96,52.72 64.52,77.52 -50.49,2.56 -99.3,-12.88 -147.61,-25.18 -71.37,-22.74 -140.56,-58.04 -193.41,-112.05 -8.01,-7.56 -15.82,-15.7 -18.64,-26.65 91.81,-44.08 194.57,-54.52 294.32,-66.82 48.11,-1.15 96.23,-1.73 144.34,-1.15 29.02,-38.63 56.31,-78.8 89.56,-114.04 88.28,-94.75 207.76,-162.92 336.86,-180.54 -11.66,35.24 -36.13,63.94 -58.81,92.58 -15.5,20.05 -37.09,34.66 -50.49,56.44 35.3,-3.07 67.59,-19.86 102.96,-22.81 -17.43,43.12 -50.55,77.2 -82.96,109.42 -41.32,42.35 -92.83,72.33 -142.99,102.7 60.41,7.43 119.8,20.82 179.83,30.37 -25.44,20.63 -58.62,25.88 -88.03,38.5zm-162.21 -405.66c-206.55,42.22 -402.4,134.09 -568.9,263.05 57.27,-114.68 149.27,-210.65 257.86,-278.17 112.44,-71.88 241.59,-111.67 371.32,-138.83 37.86,-5.25 75.21,-17.49 113.91,-13.13 -46.26,52.53 -101.48,97.12 -146.2,151.39 -6.47,9.23 -17.49,13.13 -28,15.7zm-48.82 468.32c-56.95,6.22 -114.42,-3.01 -171.18,5.19 -8.77,1.92 -16.98,-1.67 -24.22,-6.15 49.52,-6.02 99.49,-2.5 149.27,-3.78 15.31,0.38 31.71,-1.54 46.13,4.74zm1344 -6.2l-2.72 -33.97c-8.91,-68.36 -7.56,-138.38 -26.59,-205.2 -12.17,-37.03 -23.13,-74.89 -43.12,-108.65 -71.43,0.19 -144.53,2.05 -213.59,-19.09 -83.41,-21.91 -160.04,-64.39 -228.97,-115.45 -10.76,-7.37 -54.89,-31.86 -66.23,-38.07l32.59 4.76c6.79,0.64 13.65,1.6 20.5,2.82 163.24,47.79 338.78,60.1 505.48,23.45 49.52,-9.61 95.01,-32.67 143.83,-44.14 24.79,74.64 52.34,148.5 72.27,224.68 23.77,108.59 49.14,218.14 49.33,330 6.28,63.87 -1.73,127.81 -3.07,191.75 -9.8,84.12 -23.39,168.37 -49.33,249.21 -39.66,125.19 -87.45,248.83 -157.67,360.37 -21.65,40.11 -47.67,77.65 -70.41,117.11 -5.51,10.12 -14.41,17.55 -24.22,23.38 4.23,-11.85 8.9,-23.57 14.99,-34.59 19.16,-32.67 36.9,-66.24 52.02,-100.97 77.71,-185.79 126.59,-386.32 120.96,-588.57 3.52,-129.67 -12.81,-259.4 -41.19,-385.74 -3.33,-16.59 -9.74,-32.48 -21.46,-44.91l-3.14 6.02c1.15,56.44 -41.68,134.49 -60.26,185.81zm-1248.74 -907.12c-1.28,2.31 -3.97,6.98 -5.26,9.29 -19.22,18.71 -41.13,34.27 -61.18,52.02 -24.8,20.37 -47.47,44.65 -77.71,57.02 -82.71,32.1 -161.45,73.55 -239.8,114.93 -27.49,17.3 -54.78,35.3 -85.14,47.41 10.64,-24.73 28.57,-45.04 48.05,-63.11 9.93,-9.93 19.61,-20.05 29.34,-30.05 -41.96,7.62 -84.51,11.72 -126.34,20.31 -51.19,12.36 -102.44,24.67 -152.09,42.22 -3.97,1.03 -11.92,3.08 -15.89,4.1 8.14,-8.39 16.33,-17.17 26.97,-22.29 39.91,-18.07 79.89,-36.13 120.06,-53.75 47.02,-21.85 95.07,-41.45 143.7,-59.58 127.17,-41.64 252.93,-89.05 384.01,-117.49 2.82,-0.26 8.46,-0.77 11.28,-1.02zm1354.73 180.53c-140.11,51.32 -291.24,60.1 -439.17,57.08 -35.3,-2.24 -70.73,-3.33 -105.71,-8.78 19.22,-12.88 41,-20.95 61.89,-30.62 59.97,-29.41 119.48,-60.22 174.26,-98.66 -66.05,-17.3 -134.67,-2.82 -201.17,4.42 -45.68,4.23 -83.48,12.78 -135.69,20.38 47.73,-73.61 111.28,-135.31 178.62,-190.79 83.86,-60.99 176.2,-111.04 276.2,-139.29 3.67,-0.63 15.39,-4.83 21.45,-6.75 -17.74,21.78 -51.7,56.99 -68.29,79.73 -21.78,28.7 -39.98,60.09 -62.59,88.15 2.05,3.01 6.28,9.03 8.39,12.04 50.87,-37.22 110.71,-58.56 168.88,-81.3 80.47,-28.19 162.6,-53.18 247.68,-62.53 60.86,-11.53 122.75,-13.39 184.32,-18.07 35.36,-1.73 70.92,-2.63 106.28,0.45 -2.24,3.65 -11.47,9.45 -13.71,13.1 -105.39,70.22 -204.69,144.56 -317.64,202.29 -49.01,23.58 -97.38,48.43 -147.48,69.44 -0.26,2.44 -0.84,7.43 -1.09,9.87 61.2,6.68 110.22,15.21 172.75,15.93 14.56,0 32.71,1.27 47.22,2.5 -42.8,12.49 -113.04,47.63 -155.39,61.4zm-669.81 -802.87c-39.14,43.37 -93.41,68.3 -146.52,90.08 -95.33,35.49 -199.5,31.2 -299.38,25.5 -21.78,-0.96 -43.56,-1.09 -65.35,-1.86 -1.86,-2.88 -5.64,-8.58 -7.49,-11.47 9.86,-4.17 19.6,-9.61 30.62,-9.93 43.76,-0.07 86.17,-11.53 129.54,-15.5 68.93,-13.71 135.82,-35.68 201.17,-61.37 83.16,-35.69 165.67,-79.06 228.52,-145.56 2.05,3.84 6.02,11.6 8.01,15.44 -22.04,41 -45.94,81.62 -79.12,114.68zm-1472.1 -671.99c-49.2,12.75 -98.66,25.5 -149.47,29.28 -1.09,-3.39 -3.33,-10.25 -4.42,-13.65 38.7,-9.48 76.11,-23.32 112.44,-39.72 60.8,-26.91 121.72,-53.81 179.51,-86.94 156.64,-82.9 302.51,-185.22 463.13,-260.81 54.14,-25.88 110.07,-48.05 166.06,-69.57 110.38,-34.28 224.61,-60.54 340.77,-60.67 3.91,-3.39 7.94,-6.92 11.92,-10.38 -39.08,-10.51 -75.09,-29.73 -113.97,-40.75 -93.41,-30.43 -191.62,-45.36 -289.77,-46.64 -64.45,-0.19 -128.9,-1.41 -193.28,1.22l-108.91 3.91 6.6 -1.8c17.3,-4.55 34.72,-8.52 52.15,-12.56 34.72,-8.39 69.45,-16.79 104.68,-22.81 84.95,-23.26 172.98,-31.14 260.49,-37.22 155.23,-6.79 313.22,9.61 460.44,60.86 101.8,37.48 200.46,87.64 283.11,158.76 101.67,84.69 181.11,194.18 237.62,313.34 8.91,17.04 15.19,35.49 15.44,54.9 -58.23,-44.08 -121.4,-81.43 -186.43,-114.55 -129.99,-67.27 -272.15,-114.04 -418.86,-122.75 -122.88,-11.92 -246.78,4.61 -366.78,31.01 -68.8,20.37 -139.21,35.75 -206.61,60.61 -103.08,38.37 -206.42,76.11 -309.82,113.59 -113.2,44.01 -228.58,82.52 -346.02,113.33zm581.21 1948.7c-65.99,-6.93 -132.04,-4.28 -198.12,4.16 57.09,-43.77 205.61,-99.08 278.01,-123.21 2.56,-0.83 7.69,-2.56 10.25,-3.4l-90.14 122.44zm-128.65 980.84c67.53,16.4 134.99,33.76 204.11,41.96 102.57,11.6 206.48,12.75 309.5,5.45 3.01,1.47 9.1,4.36 12.17,5.76 -46.83,54.01 -93.28,108.46 -144.15,158.76 -42.92,36.9 -81.68,79.06 -130.76,108.21 23.7,13.2 50.74,1.28 75.92,0.32 46.77,-4.68 90.72,-23.26 136.72,-30.75 -26.78,75.34 -78.23,139.98 -135.24,195.15 -42.15,42.09 -95.91,69.51 -150.04,92.96 -59.13,24.41 -123.33,32.54 -186.43,39.72 -28.06,5.96 -56.31,11.66 -85.14,11.47 3.08,1.79 6.21,3.59 9.42,5.51 -25.69,-1.09 -50.35,5.96 -74.89,12.43 -124.93,29.28 -242.68,82.96 -351.98,149.53 31.07,-77.2 81.56,-144.34 134.86,-207.45 -11.47,0.07 -22.87,0.26 -34.15,1.92 -136.97,30.3 -269.59,81.62 -390.23,153.5 39.08,-70.09 99.24,-125.44 157.22,-179.9 57.72,-49.59 119.68,-93.92 182.52,-136.84 117.43,-77.52 241.59,-148.38 341.21,-249.34 51.19,-50.68 93.28,-111.03 119.35,-178.36z"/>
   <path class="fil15 str0" d="M2466.07 2698.58c-15.31,48.59 -48.36,80.78 -99.16,96.57"/>
   <path class="fil16" d="M2466.07 2698.58c-15.31,48.59 -48.36,80.78 -99.16,96.57 24.11,0.16 48.22,1.41 72.32,3.94l90.14 -122.44c-2.56,0.84 -7.69,2.56 -10.25,3.4 -14.93,4.98 -33.1,11.28 -53.04,18.53z"/>
   <path class="fil17" d="M2366.91 2795.15c50.8,-15.79 83.85,-47.98 99.16,-96.57 -76.73,27.92 -179.65,69.93 -224.96,104.68 41.95,-5.36 83.89,-8.38 125.8,-8.1z"/>
  </g>
 </g>
</svg>
