<?xml version="1.0" encoding="UTF-8"?>
<!DOCTYPE svg PUBLIC "-//W3C//DTD SVG 1.1//EN" "http://www.w3.org/Graphics/SVG/1.1/DTD/svg11.dtd">
<!-- Creator: CorelDRAW 2018 (64-Bit) -->
<svg xmlns="http://www.w3.org/2000/svg" xml:space="preserve" width="7.73771in" height="8.23831in" version="1.1" style="shape-rendering:geometricPrecision; text-rendering:geometricPrecision; image-rendering:optimizeQuality; fill-rule:evenodd; clip-rule:evenodd"
viewBox="0 0 1108.94 1180.68"
 xmlns:xlink="http://www.w3.org/1999/xlink">
 <defs>
  <style type="text/css">
   <![CDATA[
    .str0 {stroke:#2B2A29;stroke-width:0.99;stroke-miterlimit:2.61313}
    .fil7 {fill:none}
    .fil9 {fill:#C79933}
    .fil8 {fill:#FBEB58}
    .fil4 {fill:#00AAA0;fill-rule:nonzero}
    .fil6 {fill:#015B55;fill-rule:nonzero}
    .fil0 {fill:#020001;fill-rule:nonzero}
    .fil5 {fill:#85FFF4;fill-rule:nonzero}
    .fil2 {fill:#D2CE83;fill-rule:nonzero}
    .fil1 {fill:#FBFBFB;fill-rule:nonzero}
    .fil3 {fill:white;fill-rule:nonzero}
   ]]>
  </style>
 </defs>
 <g id="Layer_x0020_1">
  <metadata id="CorelCorpID_0Corel-Layer"/>
  <g id="_1184467168">
   <g>
    <path class="fil0" d="M103.1 96.85c24.34,-23.4 51.63,-43.98 81.66,-59.54 -28.85,40.41 -55.14,83.56 -70.02,131.23 -7,23.57 -11.8,48.77 -7,73.27 0.78,2.41 0.77,5.69 2.73,7.37 6.86,1.29 13.92,0.62 20.84,0.47 30,-1.53 59.88,-4.87 89.64,-8.86 16.17,-2.4 32.62,-4.26 47.99,-10.08 28.65,-4.93 57.89,-4.9 86.86,-6.23 1.55,-0.62 2.39,-2.24 3.58,-3.35 27.59,-31.58 66.1,-52.89 107.12,-61.04 28.5,-5.74 58.1,-6.26 86.74,-1.21 4.02,0.24 7.92,-1.12 11.91,-1.51 52.92,-6.79 109.35,3.79 153.04,35.41 12.95,8.99 24.02,20.33 34.77,31.71 29.02,1.31 58.27,1.29 86.97,6.22 18.69,6.93 38.75,8.59 58.36,11.46 31.05,3.72 62.23,7.57 93.56,7.71 2.57,-0.53 7.23,0.85 7.87,-2.75 6.39,-22.24 2.84,-45.92 -2.57,-67.97 -13.84,-51.88 -42.14,-98.47 -73.01,-141.86 37.97,19.91 71.93,47.24 100.42,79.22 34.83,39.32 60.36,87.54 69.92,139.39 1.6,22.38 -4.59,45.92 -19.41,63.1 -12.51,14.64 -30.6,23.46 -49.17,27.56 -17.24,4.1 -35.06,3.69 -52.64,4.36 -13.83,0.45 -27.66,0.84 -41.48,1.32 10.93,5.69 22.04,12.44 28.81,23.09 -6.96,12.79 -20.73,19.96 -34.19,24 -7.98,2.4 -16.23,3.65 -24.49,4.47 14.38,9.77 29.56,18.66 42.55,30.29 -33.64,31.73 -82.67,43.41 -127.75,36.75 2.8,32.4 8.09,64.71 17.54,95.86 3.05,9.29 5.84,18.81 10.88,27.28 50.49,91.75 100.91,183.55 151.4,275.31 -5.89,15.73 -14.77,30.13 -24.37,43.83 -23.84,33.47 -53.69,62.23 -85.68,87.85 -53.12,42.21 -112.6,75.79 -174.1,104.15 -51.27,23.57 -104.21,43.42 -157.94,60.67 -83.09,-26.74 -164.61,-59.54 -240.42,-103.07 -41.8,-24.12 -81.87,-51.57 -117.77,-83.92 -21.11,-19.1 -40.81,-39.9 -57.56,-62.96 -10.39,-14.5 -20.03,-29.79 -26.33,-46.56 51.43,-93.54 102.92,-187.04 154.27,-280.63 8.48,-19.75 13.62,-40.78 17.83,-61.81 3.56,-18.52 6.18,-37.22 7.71,-56 -45.07,6.62 -94.24,-4.96 -127.75,-36.86 13.09,-11.47 28.16,-20.43 42.54,-30.19 -17.37,-1.66 -35.48,-5.74 -49.26,-17.07 -3.85,-3.18 -7.13,-7.06 -9.4,-11.52 6.89,-10.38 17.66,-17.42 28.72,-22.73 -23.77,-1.42 -47.62,-1.38 -71.41,-2.63 -23.43,-1.65 -47.71,-8.19 -65.46,-24.34 -17.17,-15.35 -25.69,-38.59 -26.03,-61.3 -0.55,-9.77 2.54,-19.18 4.84,-28.54 14.2,-53.03 44.77,-100.84 84.1,-138.81zm-22.31 46.08l0 0c-14.2,18.69 -26.96,38.69 -35.87,60.49 -7.24,17.83 -11.83,37.12 -10.44,56.47 1.19,20.87 10.52,41.21 25.8,55.55 4.5,4.09 9.16,8.82 15.58,9.41 29.96,5.51 60.57,5.85 90.94,6.23 57.14,-0.16 114.25,-3.05 171.2,-7.67 1.62,-2.4 3.27,-4.79 4.9,-7.17 -12.65,2.24 -25.54,2.68 -38.37,2.67 -29.18,-0.2 -58.36,-2.32 -87.3,-6.05 32.12,-4.07 64.32,-7.77 96.11,-13.93 6.59,-1.39 13.25,-2.67 19.55,-5.08 5.98,-2.26 9.24,-8.26 11.57,-13.82 4.36,-11.06 6.05,-22.96 6.97,-34.75 -20.9,0.81 -41.75,2.32 -62.6,3.73 -21.37,1.96 -43.01,2.87 -63.91,8.15 -29.59,5.07 -59.65,6.39 -89.53,8.79 8.79,12.5 19.28,23.64 29.99,34.47 -22.21,-3.31 -44.14,-12.55 -59.89,-28.94 -4.61,-3.42 -9.9,-6.08 -13.57,-10.64 -10.07,-11.32 -12,-27.43 -10.59,-41.97 2.39,-23.24 10.98,-45.29 20.65,-66.38 14.16,-30.2 31.74,-58.7 50.83,-86.02 -26.2,23.24 -50.65,48.65 -72.03,76.43zm875.35 -76.33l0 0c14.44,20.6 27.94,41.92 39.81,64.12 11.73,22.12 22.36,45.11 28.4,69.52 3.91,16.71 6.11,35.2 -1.28,51.32 -3.78,8.52 -11.05,14.72 -18.94,19.34 -15.97,16.6 -38.05,26.25 -60.66,29.55 10.72,-10.83 21.21,-21.99 30,-34.47 -30.41,-2.47 -61.04,-3.71 -91.13,-9.1 -14.85,-3.93 -30.24,-4.88 -45.45,-6.46 -26.45,-2.16 -52.93,-3.98 -79.44,-5.11 0.91,11.79 2.58,23.68 6.96,34.73 2.23,5.28 5.21,10.95 10.69,13.45 5.96,2.54 12.41,3.72 18.71,5.11 32.36,6.46 65.22,10.01 97.89,14.38 -13.05,1.73 -26.15,2.83 -39.26,3.91 -28.75,1.83 -57.89,3.95 -86.49,-0.64 1.62,2.36 3.27,4.71 4.84,7.11 36.15,3.18 72.42,5.08 108.68,6.53 42.37,1.35 84.9,2.31 127.2,-1.42 10.92,-1.29 22.19,-1.82 32.6,-5.52 20.69,-14.06 33.78,-38.25 35.13,-63.14 1.85,-27.36 -7.77,-54.04 -20.65,-77.75 -14.31,-26.17 -32.97,-49.68 -53.02,-71.66 -14.26,-15.19 -28.81,-30.19 -44.6,-43.78zm-560.82 138.07l0 0c-6.39,12.15 -15.32,22.72 -22.89,34.13 12.95,-11.83 29.59,-20.12 47.25,-21.21 -13.42,5.82 -21.28,19.41 -26.35,32.47 -1.24,6.83 -3.69,13.67 -9.27,18.19 2.51,6.46 2.33,13.49 0.88,20.18 11.47,0.33 21.8,7.48 29.04,15.9 -10.99,0.23 -21.04,5.28 -30.54,10.35 -2.3,1.35 -5.07,2.46 -6.2,5.08 -7.99,15.48 -20.02,29.25 -35.48,37.57 2.78,7.34 3.55,15.43 1.75,23.12 -4.61,20.28 -18.77,37.78 -37.12,47.41 -23.68,12.92 -52.24,12.89 -77.85,6.43 0,-0.5 0,-1.49 0,-1.99 17.28,-7.21 33.71,-16.57 48.69,-27.84 8.31,-6.43 16.47,-13.28 22.9,-21.64 -29.48,6.15 -59.72,1.69 -88.83,-4.2 -0.7,-0.4 -2.12,-1.21 -2.83,-1.6 10.41,-9.1 23.5,-14.24 36.48,-18.49 9.49,-2.94 19.06,-5.78 28.94,-7.04 -3.04,-0.4 -6.11,-0.7 -9.16,-0.62 -19.4,0.48 -38.79,0.88 -58.19,1.29 -6.57,-0.01 -12.65,2.84 -18.39,5.74 -9.74,5.25 -19.18,11.19 -27.75,18.2 6.67,5.35 14.8,8.33 22.76,11.17 14.23,4.93 28.8,8.78 43.44,12.28 -14.34,13.23 -30.63,24.11 -46.67,35.13 30.85,18.54 67.13,30.06 103.38,26.88 2.97,-0.75 7.2,-0.07 9.13,-2.77 -0.58,-3.81 -2.94,-6.96 -4.73,-10.25 12.99,7.23 20.05,22.49 17.65,37.14 9.4,-18.02 15.8,-37.37 22.87,-56.36 0.27,-0.04 0.82,-0.16 1.09,-0.2 10.92,19.17 15.82,41.02 21.24,62.22 3.18,13.13 4.47,26.89 9.85,39.44 5.45,13.23 12.85,25.57 20.97,37.33 1.12,1.68 2.58,3.1 4.02,4.52 -0.91,-3.82 -2.29,-7.5 -3.49,-11.23 16.24,15.63 23.29,37.9 29.29,58.98 8.79,14.95 18.9,29.19 29.35,43.02 -6.82,-23.46 -10.28,-48.16 -7.31,-72.53 2.91,-23.85 11.73,-47.57 27.9,-65.64 -0.7,-1.12 -1.38,-2.23 -2.06,-3.34l-0.41 0.21c-2.67,-4.33 -4.88,-8.92 -6.59,-13.72 -11.19,-5 -22.31,-10.25 -32.79,-16.61 -3.02,-1.68 -5.18,-4.44 -6.79,-7.44 -6.16,-11.16 -10.14,-23.34 -14.67,-35.2 -3.56,-5.79 -9.57,-9.56 -14.21,-14.41 2.09,0.6 4.16,1.22 6.26,1.82l-0.27 0.2c25.53,8.07 48.38,23.73 65.93,43.86 -2.23,-8.08 -6.96,-15.18 -11.81,-21.88 -12.86,-16.91 -29.22,-30.77 -46.28,-43.26 -4.91,-3.38 -9.56,-7.27 -15.08,-9.64l-1.15 -1.7c13.73,0.38 26.58,5.91 39.29,10.59 5.41,2.14 10.76,4.42 16.1,6.76 -0.43,-7.5 -1.7,-14.95 -1.25,-22.46 0.7,-23.94 11.16,-47.08 27.49,-64.42 2.06,-2.17 4.5,-4.09 5.65,-6.94 1.14,-0.24 2.29,-0.48 3.44,-0.71 -10.35,15.83 -16.41,34.38 -18.66,53.12 -3.48,31.78 6.29,64.48 25.39,89.95 -0.16,-13.83 -0.85,-27.66 -0.77,-41.49 11.73,17.79 18.56,38.74 19.38,60.03 1.05,16.67 -2.27,33.14 -6.49,49.16 -1.43,2.6 -2.64,5.34 -4.34,7.78 -18.4,26.65 -27.67,59.25 -27.19,91.56 2.2,-2.71 4.76,-5.13 6.99,-7.81 12.13,-8.38 28.04,-6.72 40.89,-0.97 6.29,2.07 10.54,7.4 16.06,10.75 9.31,5.92 20.19,9.61 31.27,9.83 15.22,-0.28 29.7,-7.14 40.89,-17.22 9.37,-5.67 20.56,-8.87 31.55,-8.07 7.09,0.4 13.38,4 18.73,8.42 1.06,1.86 2.54,3.45 3.9,5.13 0.7,-32.97 -9.17,-66.18 -28.16,-93.19 -2.26,-3.32 -2.91,-7.35 -4.56,-10.95 -3.18,-12.65 -5.52,-25.6 -5.38,-38.68 -0.14,-23.26 6.7,-46.43 19.57,-65.8 0.01,13.84 -0.67,27.67 -0.78,41.53 17.52,-23.47 27.22,-52.96 25.94,-82.3 -1.08,-21.34 -7.57,-42.58 -19.08,-60.6 2.3,0.28 4.62,0.5 6.92,0.88 -1.08,-0.01 -3.24,-0.07 -4.32,-0.09 16.67,15.99 29.42,36.78 32.77,59.91 1.97,11.16 0.82,22.46 -0.21,33.65 5.94,-2.57 11.83,-5.24 17.96,-7.28l0.01 -0.35c11.53,-4.03 23.05,-8.52 35.27,-9.94 -1.08,3.55 -4.73,4.91 -7.45,6.93 -12.23,8.35 -23.9,17.56 -34.66,27.75 -12.34,12.07 -24.71,25.42 -30.13,42.16 8.36,-9.16 17.22,-17.95 27.56,-24.89 11.96,-8.59 25.52,-14.45 39.13,-19.86l0.41 0.3c1.53,-0.54 3.1,-1.05 4.67,-1.53 -4.37,5.04 -10.48,8.59 -13.97,14.37 -4.53,11.86 -8.5,24.01 -14.65,35.19 -1.62,2.97 -3.73,5.76 -6.74,7.45 -10.48,6.32 -21.51,11.69 -32.74,16.54 -1.8,4.64 -3.82,9.22 -6.52,13.43 -0.97,1.09 -1.9,2.22 -2.83,3.37 13.72,15.12 22.09,34.5 26.23,54.35 5.75,27.87 2.46,56.88 -5.48,84 9.6,-12.38 18.27,-25.49 26.88,-38.58 4.49,-6.46 4.94,-14.57 7.7,-21.77 5.27,-15.21 12.35,-30.47 24.14,-41.75 -1.25,3.73 -2.63,7.44 -3.56,11.27 3.83,-3.41 6.3,-7.98 9.16,-12.17 9.87,-15.49 18.79,-32.15 21.81,-50.46 1.43,-8.15 3.45,-16.22 5.34,-24.22 4.59,-18.59 9.53,-37.37 18.44,-54.43 0.24,-1.35 2.47,-3.59 2.87,-1.01 6.83,18.69 13.23,37.67 22.46,55.35 -0.23,-4.16 -0.5,-8.36 0.2,-12.5 1.38,-10.42 8.62,-19.34 17.44,-24.65 -1.56,3.55 -5.64,7.4 -4.07,11.36 7.34,2.23 15.14,2.24 22.73,2.24 31.54,-0.72 62.28,-11.27 89.14,-27.46 -16.05,-11.02 -32.36,-21.88 -46.67,-35.14 16.83,-4.06 33.62,-8.43 49.82,-14.63 5.75,-2.4 11.9,-4.66 16.3,-9.29 -9.77,-6.93 -19.61,-13.87 -30.41,-19.08 -4.94,-2.36 -10.19,-4.44 -15.76,-4.39 -17.93,-0.38 -35.87,-0.75 -53.81,-1.19 -4.49,-0.18 -9,-0.11 -13.46,0.36 10.42,1.69 20.65,4.5 30.68,7.77 12.31,4.1 24.61,9.2 34.59,17.72l-0.4 0.87c-29.65,7.14 -60.83,11.22 -91.04,5.15 14.7,18.06 34.72,30.98 55.09,41.82 5.89,3.38 12.51,5.38 18.15,9.23 -20.15,5.22 -41.76,6.79 -61.98,1.08 -19.98,-5.55 -38.41,-18.61 -48.08,-37.23 -6.82,-12.1 -10.31,-27.09 -4.86,-40.38 -16.17,-8.58 -28.17,-23.27 -36.55,-39.25 -10.58,-7.1 -22.79,-13.12 -35.72,-13.77 7.34,-8.35 17.58,-15.59 29.08,-15.87 -1.45,-6.69 -1.65,-13.73 0.88,-20.19 -5.58,-4.53 -8.05,-11.37 -9.29,-18.22 -5.06,-13.12 -13.04,-26.55 -26.35,-32.56 17.62,1.31 34.16,9.46 47.21,21.19 -7.61,-11.33 -16.46,-21.9 -22.83,-33.99 -48.56,-24.64 -105.76,-34.16 -159.12,-21.48 -53.37,-12.68 -110.58,-3.15 -159.14,21.48zm14.82 254.48l0 0c4.46,8.39 8.42,17.14 13.89,24.95 7.09,5.03 15.22,8.48 22.82,12.72 -4.09,-7.85 -7.94,-16.24 -14.87,-22.04 -6.76,-5.91 -14.27,-10.86 -21.84,-15.63zm266.11 16.24l0 0c-6.57,5.74 -10.22,13.87 -14.23,21.43 7.6,-4.23 15.73,-7.68 22.83,-12.71 5.47,-7.79 9.41,-16.56 13.9,-24.93 -7.85,4.9 -15.6,10.04 -22.51,16.22zm-362.06 91.22l0 0c-22.05,56.2 -43.85,112.51 -67.29,168.16 -8.78,17.83 -10.12,38.1 -10.55,57.63 -0.27,31.85 3.21,63.6 7.99,95.03 0.78,5.59 3.62,10.59 6.6,15.29 7.48,11.69 16.77,22.05 25.91,32.43 -9.14,-3.14 -17.75,-7.62 -26.41,-11.86 15.59,28.65 28.6,58.61 42.19,88.26 2.33,4.64 3.58,10.11 7.67,13.64 15.15,14.41 33.25,25.25 51.59,35.1 24.31,12.81 49.57,23.81 75.26,33.55 19.57,7.55 39.3,15.07 59.51,20.8 8.01,3.59 16.77,5.51 25.15,8.22 -22.53,-17.59 -40.1,-40.54 -56.58,-63.67 -27.36,-39.16 -50.71,-80.96 -72.46,-123.43 -15.97,-11.94 -27.28,-28.81 -36.56,-46.22 -18.27,-35.7 -29.92,-74.36 -39.27,-113.24 -12.98,36.72 -9.41,77.03 0.3,114.09 7.43,29.96 20.19,58.17 31.35,86.86 -3.85,-3.15 -6.09,-7.85 -10.21,-10.68 -6.46,-11.54 -14.26,-22.32 -20.36,-34.09 -13.38,-24.49 -24.74,-50.05 -34.9,-76.02 -2.78,-7.48 -6.22,-14.88 -6.99,-22.9 -1.55,-14.63 0.16,-29.32 1.42,-43.9 1.59,-14.7 2.47,-29.45 3.75,-44.17 3.96,-27.36 10.81,-54.21 17.28,-81.08 8.02,-32.74 17.04,-65.23 25.63,-97.82zm480.48 -0.03l0 0c10.62,39.7 21.46,79.37 30.9,119.37 5.65,25.32 12.41,50.65 13.38,76.7 1.26,17.51 3.56,34.94 4.33,52.51 0.31,10.08 0.35,20.5 -3.22,30.1 -7.87,21.3 -16.73,42.24 -26.55,62.72 -7.3,15.82 -16.33,30.73 -24.61,46.03 -6.63,7.38 -11.12,16.56 -18.56,23.27 13.46,-34.02 28.4,-67.79 35.31,-103.91 6.4,-31.96 7.4,-66 -3.68,-97.05 -9.07,37.78 -20.33,75.37 -37.74,110.23 -8.09,15.48 -17.32,30.78 -30.32,42.7 -2.63,2.58 -6.15,4.29 -8.29,7.33 -23.46,46.19 -49.09,91.5 -79.67,133.39 -14.35,19.27 -29.79,38.11 -48.84,52.95 9.34,-3.21 19.4,-5.01 28.16,-9.54 1.73,-0.26 3.46,-0.58 5.18,-0.99 18.16,-5.94 36.02,-12.72 53.97,-19.24l0.28 -0.38c25,-9.66 49.63,-20.39 73.31,-32.97 17.1,-9.24 33.92,-19.35 48.35,-32.49 1.92,-1.83 4.02,-3.55 5.38,-5.85 15.21,-32.87 29.42,-66.28 46.72,-98.14 -8.66,4.22 -17.25,8.7 -26.38,11.86 10.41,-11.94 21.24,-23.77 28.98,-37.68 4.59,-8.16 4.29,-17.85 5.94,-26.82 3.69,-28.27 6.33,-56.81 5.38,-85.35 -0.72,-16.87 -2.48,-34.18 -9.94,-49.57 -23.66,-55.96 -45.49,-112.64 -67.76,-169.15zm-453.07 79.51l0 0c-3.36,35.87 -4.02,72.09 -0.16,107.94 2.87,25.33 7.87,50.72 17.95,74.26 -1.26,-16.7 -3.55,-33.74 -0.19,-50.32 2.47,5.27 3.54,11.05 5.5,16.53 17.88,55.53 39.62,110 67.29,161.43 21.1,38.34 45.35,75.99 78.71,104.86 -0.37,-0.74 -1.09,-2.2 -1.46,-2.94 -25.93,-40.62 -51.63,-81.59 -72.67,-125.02 -6.05,-13.16 -12.34,-26.54 -14.6,-40.98 9,10.28 17.22,21.21 26.23,31.49 -19.85,-38.34 -38.73,-78.48 -43.68,-121.87 -5.72,-7.92 -11.93,-15.6 -16.8,-24.14 -28.44,-47.6 -41.26,-103.33 -42.6,-158.42 -1.8,8.97 -2.57,18.09 -3.52,27.18zm392 108l0 0c-7.78,16.93 -17.85,32.77 -29.22,47.44 -4.91,43.36 -23.9,83.43 -43.61,121.8 8.9,-10.32 17.15,-21.2 26.15,-31.44 -1.07,7.33 -3.39,14.4 -6.05,21.28 -6.35,16.2 -14.31,31.71 -22.52,47.03 -12.86,23.74 -26.75,46.91 -41.04,69.82 -6.19,10.38 -13.39,20.16 -19.17,30.77 9.02,-7.57 17.25,-16.04 24.99,-24.92 25.4,-29.38 45.38,-63.02 62.96,-97.53 25.97,-51.47 46.46,-105.57 63.41,-160.64 3.71,16.6 1.19,33.78 -0.01,50.55 14.04,-33.17 18.63,-69.48 20.21,-105.2 1.12,-34.73 -0.51,-69.66 -5.85,-104.02 -1.29,46.37 -10.48,92.93 -30.26,135.06zm-256.39 -109.89l0 0c-7.62,3.89 -11.39,12 -14.65,19.45 -6.83,11.83 -8.95,25.83 -7.81,39.32 1.6,19.42 8.33,38.11 17.31,55.31 -19.86,-12.81 -34.65,-32.53 -43.36,-54.33 0.2,20.48 2.85,40.99 8.55,60.67 6.63,22.88 18.2,44.68 35.37,61.41 21.31,20.99 50.53,33.54 80.32,35.34 18.61,-0.24 37,-5.57 53.57,-13.9 22.85,-11.53 41.53,-30.64 53.32,-53.29 14.58,-27.73 19.81,-59.38 20.52,-90.42 -8.82,21.82 -23.54,41.67 -43.49,54.51 8.32,-15.92 14.67,-33.08 16.88,-50.97 1.89,-14.78 0.23,-30.44 -7.33,-43.52 -3.68,-8.7 -8.73,-18.69 -18.77,-21.07 -11.4,-2.29 -20.33,6.62 -29.62,11.57 -13.32,7.44 -27.57,16.63 -43.53,14.53 -5.67,0.58 -11.43,0.36 -16.83,-1.55 -14.4,-4.78 -27.15,-13.26 -40.04,-21.06 -6.01,-3.65 -13.91,-5.47 -20.4,-2zm-284.14 95.09l0 0c-9.07,16.1 -18.83,31.92 -26.37,48.83 -1.95,10.95 -1.09,22.6 -5.18,33.18 -8.56,16.71 -17.07,33.48 -25.15,50.44 2.34,4.22 4.33,8.62 6.5,12.92 0.64,2.61 2.64,0.31 2.91,-1.02 25.6,-49.07 51.74,-97.87 77.21,-146.99 7.51,-31.52 14.21,-63.57 27.31,-93.37 -19.44,31.78 -38.52,63.8 -57.24,96.01zm665.51 -96.03l0 0c13.12,29.79 19.79,61.87 27.3,93.37 25.91,49.84 52.31,99.48 78.46,149.19 0.27,-0.03 0.81,-0.09 1.08,-0.11 2.51,-4.59 4.53,-9.44 7.11,-14 -8.24,-17.29 -17.02,-34.3 -25.59,-51.42 -3.25,-10 -3.25,-20.67 -4.39,-31.02 -3.49,-9.34 -8.8,-17.89 -13.47,-26.67 -22.69,-40.25 -46.46,-79.88 -70.51,-119.34zm-674.37 207.35l0 0c-6.59,19.84 -12.85,39.8 -18.37,59.96 5.42,7.01 11.77,13.23 17.85,19.68 11.67,12 23.36,24.01 35.36,35.71 -7.54,-16.41 -14.54,-33.07 -20.59,-50.08 -7.19,-21.07 -14.36,-42.77 -14.24,-65.27zm740.5 0.11l0 0c0.21,15.96 -3.75,31.59 -8.22,46.8 -7.13,23.4 -16.34,46.12 -26.61,68.3 9.02,-8.45 17.49,-17.44 26.23,-26.18 9.12,-9.56 18.73,-18.73 26.96,-29.08 -5.54,-20.12 -11.73,-40.06 -18.36,-59.83z"/>
    <path class="fil0" d="M354.9 462.61c2.04,12.72 5.57,25.19 11.05,36.86 11.8,25.76 28.53,49.06 47.64,69.87 0.34,0.41 1.04,1.25 1.38,1.68 -17.86,-8.33 -32.57,-22.73 -42.37,-39.76 -10.12,-17.42 -15.36,-37.29 -17.46,-57.22 -0.44,0.8 -1.33,2.37 -1.78,3.17 1.79,-4.66 1.56,-9.7 1.55,-14.6z"/>
    <path class="fil0" d="M752.92 463.9c0.68,-0.11 1.39,-0.21 2.1,-0.28 -0.2,0.94 -0.6,2.81 -0.78,3.76 -1.75,27.5 -9.49,55.67 -27.4,77.19 -9.07,10.81 -20.05,20.39 -32.91,26.38 0.98,-1.12 2,-2.2 3.01,-3.29 21.06,-23.67 39.76,-50.15 50.82,-80.05 2.41,-7.7 5.72,-15.48 5.17,-23.7z"/>
    <path class="fil0" d="M474.46 655.96c8.92,8.79 17.44,18.02 26.82,26.34 1.48,1.35 3.27,2.23 5.03,3.21 -0.35,-5.35 -2.78,-10.18 -4.17,-15.28 4.98,9.26 10.08,18.54 13.38,28.57 3.11,10.69 1.77,22.07 -0.2,32.84 -2.98,-3.46 -6.26,-6.73 -10.2,-9.1 -3.42,-2.27 -7.57,-3.73 -10,-7.23 -4.61,-6.35 -7.38,-13.79 -10.08,-21.1 -4.36,-12.5 -7.88,-25.29 -10.58,-38.25z"/>
    <path class="fil0" d="M607.68 682.24c9.36,-8.31 17.83,-17.52 26.75,-26.27 -3.44,16.02 -7.77,31.93 -14.01,47.11 -3,6.55 -6.02,14.11 -13.01,17.31 -5.32,2.75 -9.97,6.62 -13.84,11.16 -2.07,-11.35 -3.46,-23.44 0.41,-34.57 3.41,-9.37 8.05,-18.23 12.95,-26.89 -1.6,5.08 -3.95,10 -4.35,15.39 1.78,-0.94 3.59,-1.87 5.1,-3.24z"/>
    <path class="fil0" d="M510.1 770.83c19.11,-8.51 40.79,-12.65 61.51,-8.43 21.92,3.9 43.7,14.04 57.44,32.1 4.47,5.78 7.91,12.3 10.61,19.1 -19.48,-15.62 -42.97,-27.53 -68.18,-29.35 -6.6,-0.71 -13.18,0.64 -19.76,0.28 -30.16,-3.05 -59.41,10.56 -82.45,29.07 7.01,-19.13 22.36,-34.5 40.85,-42.77z"/>
    <path class="fil1" d="M892.31 0c22.45,12.77 44.39,26.45 65.76,40.98 19.45,13.36 38.61,27.36 55.62,43.78 42.34,40.34 75.06,91.53 90.18,148.25 2.29,9.34 5.24,18.7 5.07,28.41 0.23,25.66 -8.41,52.03 -26.55,70.58 -15.01,15.65 -35.57,24.95 -56.63,29.09 -18.03,3.81 -36.55,3.39 -54.87,4.08 1.78,3.05 3.46,6.16 5.11,9.29 -5.14,18.16 -21.81,29.35 -38.21,36.44 7.26,5.24 15.38,10.07 20.12,17.92 1.46,2.21 2.93,4.44 4.4,6.66 -15.42,18.39 -36.24,31.58 -58.49,40.13 -22.63,8.7 -47.13,12.11 -71.29,10.96 3.78,30.59 9.43,61.17 20.11,90.16 1.59,4.66 4.09,8.93 6.49,13.22 50.89,92.58 101.81,185.16 152.7,277.75 -4.47,15.82 -12.77,30.2 -21.55,43.96 -23.8,36.28 -54.75,67.33 -88.11,94.84 -52.1,42.65 -110.65,76.79 -171.34,105.64 -57.05,27.03 -116.25,49.38 -176.4,68.55 -96.17,-30.8 -190.58,-69.32 -276.37,-123.08 -41.66,-26.3 -81.26,-56.3 -115.61,-91.74 -18.27,-18.97 -35.09,-39.47 -48.73,-62.04 -6.8,-11.42 -13.09,-23.3 -16.66,-36.15 51.42,-93.5 102.8,-187.02 154.25,-280.5 4.13,-6.89 6.45,-14.61 8.99,-22.16 8.05,-25.5 12.82,-51.94 16.06,-78.45 -40.04,2.12 -81.26,-9.3 -112.83,-34.45 -6.3,-4.84 -11.6,-10.81 -16.95,-16.64 3.34,-4.69 5.91,-10.02 10.31,-13.83 4.53,-4 9.51,-7.45 14.37,-11.05 -16.73,-6.37 -33.07,-18.16 -38.38,-36.07 1.62,-3.17 3.32,-6.29 5.13,-9.36 -20.19,-0.68 -40.68,-0.3 -60.42,-5.31 -21.35,-5.04 -41.79,-15.97 -55.79,-33.14 -16.73,-20.38 -23.78,-47.79 -21.31,-73.82 13.43,-70.74 54.44,-134.58 108.96,-180.88 32.18,-25.81 68.67,-45.65 105.73,-63.47 -6.46,12.5 -12.62,25.16 -19.3,37.54 -26.68,37.59 -51.16,77.46 -65.8,121.4 -7,21.92 -12.14,45.22 -8.97,68.31 32.2,-0.97 64.24,-4.71 96.17,-8.85 15.49,-2.36 31.35,-3.75 46.1,-9.37 28.36,-5.94 57.52,-5.95 86.36,-7.07 28.16,-31.52 66.3,-53.73 107.5,-63.03 31.38,-7.2 64.18,-8.18 95.96,-3.05 4.67,0.19 9.24,-1.26 13.9,-1.6 52.08,-5.81 107,3.85 151.29,32.79 15.04,9.76 28.7,21.58 40.71,34.87 20.36,0.61 40.74,1.26 61.03,3.22 9.54,1.05 19.21,1.93 28.43,4.79 10.85,4.32 22.61,5.27 34.02,7.2 34.92,4.77 70,9.04 105.26,10.07 3.21,-24.55 -2.58,-49.24 -10.41,-72.39 -14.8,-42.3 -38.51,-80.79 -64.32,-117.17 -7.27,-15.24 -13.83,-30.83 -20.79,-46.2zm-789.21 96.85l0 0c-39.33,37.97 -69.9,85.78 -84.1,138.81 -2.3,9.36 -5.4,18.77 -4.84,28.54 0.34,22.7 8.86,45.95 26.03,61.3 17.75,16.14 42.03,22.69 65.46,24.34 23.78,1.25 47.64,1.21 71.41,2.63 -11.06,5.31 -21.84,12.35 -28.72,22.73 2.27,4.46 5.55,8.33 9.4,11.52 13.77,11.33 31.89,15.41 49.26,17.07 -14.38,9.76 -29.45,18.71 -42.54,30.19 33.51,31.91 82.68,43.48 127.75,36.86 -1.53,18.79 -4.15,37.49 -7.71,56 -4.22,21.03 -9.36,42.06 -17.83,61.81 -51.36,93.59 -102.84,187.09 -154.27,280.63 6.29,16.77 15.93,32.06 26.33,46.56 16.76,23.06 36.45,43.86 57.56,62.96 35.9,32.35 75.97,59.79 117.77,83.92 75.81,43.53 157.33,76.33 240.42,103.07 53.73,-17.25 106.66,-37.1 157.94,-60.67 61.5,-28.36 120.98,-61.94 174.1,-104.15 31.99,-25.62 61.84,-54.38 85.68,-87.85 9.6,-13.7 18.47,-28.1 24.37,-43.83 -50.49,-91.75 -100.91,-183.55 -151.4,-275.31 -5.04,-8.46 -7.82,-17.99 -10.88,-27.28 -9.44,-31.15 -14.74,-63.46 -17.54,-95.86 45.08,6.66 94.11,-5.01 127.75,-36.75 -12.99,-11.63 -28.17,-20.52 -42.55,-30.29 8.26,-0.82 16.51,-2.07 24.49,-4.47 13.46,-4.03 27.23,-11.2 34.19,-24 -6.77,-10.65 -17.88,-17.39 -28.81,-23.09 13.82,-0.48 27.65,-0.87 41.48,-1.32 17.58,-0.67 35.4,-0.26 52.64,-4.36 18.57,-4.1 36.66,-12.92 49.17,-27.56 14.82,-17.18 21.01,-40.72 19.41,-63.1 -9.56,-51.86 -35.09,-100.08 -69.92,-139.39 -28.48,-31.98 -62.45,-59.31 -100.42,-79.22 30.87,43.39 59.17,89.98 73.01,141.86 5.41,22.05 8.96,45.73 2.57,67.97 -0.64,3.61 -5.3,2.23 -7.87,2.75 -31.32,-0.14 -62.5,-3.99 -93.56,-7.71 -19.61,-2.87 -39.67,-4.53 -58.36,-11.46 -28.7,-4.93 -57.95,-4.91 -86.97,-6.22 -10.75,-11.37 -21.82,-22.72 -34.77,-31.71 -43.69,-31.62 -100.12,-42.2 -153.04,-35.41 -3.99,0.38 -7.89,1.75 -11.91,1.51 -28.64,-5.06 -58.25,-4.53 -86.74,1.21 -41.02,8.15 -79.53,29.46 -107.12,61.04 -1.19,1.11 -2.03,2.73 -3.58,3.35 -28.97,1.33 -58.2,1.31 -86.86,6.23 -15.38,5.82 -31.82,7.68 -47.99,10.08 -29.76,3.99 -59.64,7.33 -89.64,8.86 -6.93,0.16 -13.99,0.82 -20.84,-0.47 -1.96,-1.68 -1.94,-4.96 -2.73,-7.37 -4.8,-24.49 0,-49.7 7,-73.27 14.88,-47.67 41.16,-90.82 70.02,-131.23 -30.03,15.56 -57.32,36.14 -81.66,59.54z"/>
    <path class="fil2" d="M80.79 142.93c21.38,-27.79 45.83,-53.19 72.03,-76.43 -19.1,27.32 -36.68,55.82 -50.83,86.02 -9.67,21.09 -18.26,43.14 -20.65,66.38 -1.41,14.54 0.53,30.66 10.59,41.97 3.68,4.56 8.96,7.21 13.57,10.64 15.75,16.39 37.68,25.63 59.89,28.94 -10.71,-10.83 -21.2,-21.98 -29.99,-34.47 29.87,-2.4 59.93,-3.72 89.53,-8.79 20.9,-5.28 42.54,-6.19 63.91,-8.15 20.86,-1.42 41.7,-2.92 62.6,-3.73 -0.92,11.79 -2.61,23.68 -6.97,34.75 -2.33,5.55 -5.59,11.56 -11.57,13.82 -6.3,2.41 -12.96,3.69 -19.55,5.08 -31.79,6.16 -64,9.85 -96.11,13.93 28.94,3.73 58.12,5.85 87.3,6.05 12.82,0.01 25.72,-0.43 38.37,-2.67 -1.63,2.39 -3.28,4.77 -4.9,7.17 -56.95,4.61 -114.06,7.51 -171.2,7.67 -30.37,-0.38 -60.99,-0.72 -90.94,-6.23 -6.42,-0.6 -11.08,-5.32 -15.58,-9.41 -15.28,-14.34 -24.61,-34.67 -25.8,-55.55 -1.39,-19.35 3.2,-38.64 10.44,-56.47 8.9,-21.8 21.67,-41.8 35.87,-60.49z"/>
    <path class="fil2" d="M956.14 66.59c15.79,13.59 30.34,28.58 44.6,43.78 20.05,21.98 38.71,45.49 53.02,71.66 12.88,23.71 22.49,50.39 20.65,77.75 -1.35,24.89 -14.44,49.09 -35.13,63.14 -10.41,3.71 -21.68,4.23 -32.6,5.52 -42.3,3.73 -84.83,2.77 -127.2,1.42 -36.26,-1.45 -72.53,-3.35 -108.68,-6.53 -1.58,-2.4 -3.22,-4.76 -4.84,-7.11 28.6,4.59 57.73,2.47 86.49,0.64 13.11,-1.08 26.21,-2.17 39.26,-3.91 -32.67,-4.37 -65.53,-7.92 -97.89,-14.38 -6.3,-1.39 -12.75,-2.57 -18.71,-5.11 -5.48,-2.5 -8.46,-8.16 -10.69,-13.45 -4.37,-11.05 -6.05,-22.95 -6.96,-34.73 26.51,1.14 52.99,2.95 79.44,5.11 15.21,1.58 30.6,2.53 45.45,6.46 30.09,5.4 60.72,6.63 91.13,9.1 -8.79,12.48 -19.28,23.64 -30,34.47 22.61,-3.29 44.68,-12.95 60.66,-29.55 7.89,-4.61 15.16,-10.82 18.94,-19.34 7.38,-16.12 5.18,-34.6 1.28,-51.32 -6.03,-24.41 -16.67,-47.4 -28.4,-69.52 -11.87,-22.21 -25.37,-43.52 -39.81,-64.12z"/>
    <path class="fil3" d="M403.99 452.83c10.11,6.37 20.14,12.99 29.16,20.88 9.25,7.74 14.39,18.94 19.85,29.43 -10.14,-5.67 -21.01,-10.28 -30.47,-16.99 -7.3,-10.43 -12.59,-22.11 -18.54,-33.31z"/>
    <path class="fil3" d="M672.73 471.99c8.77,-7.85 18.63,-14.39 28.62,-20.62 -5.7,10.65 -10.72,21.79 -17.67,31.7 -9.03,6.39 -19.37,10.78 -29.03,16.16 5.09,-9.61 9.73,-19.95 18.09,-27.24z"/>
    <path class="fil2" d="M477.2 644.2c6.49,-3.46 14.4,-1.65 20.4,2 12.89,7.79 25.64,16.27 40.04,21.06 5.4,1.9 11.16,2.13 16.83,1.55 15.96,2.1 30.22,-7.09 43.53,-14.53 9.29,-4.96 18.22,-13.86 29.62,-11.57 10.04,2.39 15.09,12.37 18.77,21.07 7.55,13.08 9.22,28.74 7.33,43.52 -2.22,17.89 -8.56,35.06 -16.88,50.97 19.95,-12.84 34.67,-32.69 43.49,-54.51 -0.71,31.04 -5.94,62.69 -20.52,90.42 -11.79,22.65 -30.47,41.76 -53.32,53.29 -16.57,8.33 -34.96,13.66 -53.57,13.9 -29.79,-1.8 -59.01,-14.36 -80.32,-35.34 -17.17,-16.73 -28.74,-38.54 -35.37,-61.41 -5.69,-19.68 -8.35,-40.2 -8.55,-60.67 8.72,21.8 23.5,41.52 43.36,54.33 -8.97,-17.2 -15.7,-35.88 -17.31,-55.31 -1.14,-13.49 0.98,-27.49 7.81,-39.32 3.27,-7.45 7.03,-15.56 14.65,-19.45zm-2.74 11.76l0 0c2.7,12.96 6.22,25.76 10.58,38.25 2.7,7.31 5.47,14.75 10.08,21.1 2.43,3.49 6.57,4.96 10,7.23 3.93,2.37 7.21,5.64 10.2,9.1 1.97,-10.78 3.31,-22.15 0.2,-32.84 -3.29,-10.02 -8.39,-19.31 -13.38,-28.57 1.39,5.1 3.82,9.92 4.17,15.28 -1.76,-0.98 -3.55,-1.86 -5.03,-3.21 -9.39,-8.32 -17.9,-17.55 -26.82,-26.34zm133.22 26.28l0 0c-1.51,1.36 -3.32,2.3 -5.1,3.24 0.4,-5.4 2.74,-10.31 4.35,-15.39 -4.9,8.66 -9.54,17.52 -12.95,26.89 -3.88,11.13 -2.48,23.23 -0.41,34.57 3.88,-4.54 8.52,-8.41 13.84,-11.16 6.99,-3.19 10.01,-10.76 13.01,-17.31 6.25,-15.18 10.58,-31.1 14.01,-47.11 -8.92,8.75 -17.39,17.96 -26.75,26.27zm-97.58 88.59l0 0c-18.49,8.26 -33.84,23.64 -40.85,42.77 23.05,-18.5 52.3,-32.12 82.45,-29.07 6.59,0.35 13.16,-0.99 19.76,-0.28 25.22,1.82 48.7,13.73 68.18,29.35 -2.7,-6.8 -6.13,-13.32 -10.61,-19.1 -13.73,-18.06 -35.51,-28.2 -57.44,-32.1 -20.72,-4.22 -42.4,-0.07 -61.51,8.43z"/>
    <path class="fil4" d="M395.32 204.67c48.56,-24.64 105.77,-34.16 159.14,-21.48 53.36,-12.68 110.55,-3.15 159.12,21.48 6.38,12.1 15.22,22.66 22.83,33.99 -13.05,-11.73 -29.59,-19.88 -47.21,-21.19 13.32,6.01 21.3,19.44 26.35,32.56 1.24,6.84 3.71,13.69 9.29,18.22 -2.53,6.46 -2.33,13.5 -0.88,20.19 -11.5,0.28 -21.74,7.53 -29.08,15.87 12.94,0.65 25.15,6.67 35.72,13.77 8.38,15.97 20.38,30.67 36.55,39.25 -5.45,13.29 -1.96,28.28 4.86,40.38 9.67,18.62 28.1,31.68 48.08,37.23 20.22,5.71 41.83,4.15 61.98,-1.08 6.11,-2.76 11.84,-6.3 18.2,-8.52 -15.65,-5.91 -30.22,-14.74 -42.5,-26.1 12.59,-0.79 24.92,-5.24 35.27,-12.41 3.32,-2.14 5.45,-5.54 6.83,-9.17l0.4 -0.87c-9.98,-8.52 -22.28,-13.62 -34.59,-17.72 -10.04,-3.27 -20.26,-6.08 -30.68,-7.77 4.46,-0.47 8.97,-0.54 13.46,-0.36 17.95,0.44 35.88,0.81 53.81,1.19 5.57,-0.06 10.82,2.03 15.76,4.39 10.81,5.21 20.65,12.15 30.41,19.08 -4.4,4.63 -10.55,6.89 -16.3,9.29 -16.2,6.19 -33,10.56 -49.82,14.63 14.31,13.26 30.63,24.12 46.67,35.14 -26.87,16.19 -57.61,26.74 -89.14,27.46 -7.6,0 -15.39,-0.01 -22.73,-2.24 -1.56,-3.96 2.51,-7.81 4.07,-11.36 -8.82,5.31 -16.06,14.23 -17.44,24.65 -0.7,4.13 -0.43,8.33 -0.2,12.5 -9.23,-17.68 -15.63,-36.66 -22.46,-55.35 -0.4,-2.58 -2.63,-0.34 -2.87,1.01 -8.92,17.05 -13.86,35.84 -18.44,54.43 -2.1,-6.06 -2.6,-12.62 -5.54,-18.39 0.18,-0.95 0.58,-2.83 0.78,-3.76 -0.71,0.07 -1.42,0.17 -2.1,0.28 0.55,8.22 -2.75,16 -5.17,23.7 -11.06,29.9 -29.76,56.38 -50.82,80.05 -3.37,-3.28 -4.07,-8.21 -6.42,-12.15 -8.43,-15.95 -24.17,-26.35 -40.11,-33.78 2.7,-4.22 4.71,-8.79 6.52,-13.43 11.23,-4.86 22.26,-10.22 32.74,-16.54 3.01,-1.69 5.13,-4.49 6.74,-7.45 6.15,-11.18 10.12,-23.33 14.65,-35.19 3.49,-5.78 9.6,-9.33 13.97,-14.37 -1.58,0.48 -3.14,0.99 -4.67,1.53l-0.41 -0.3c-3.18,-3.28 -7.79,-2.88 -11.97,-2.97 6.11,-10.08 13.9,-18.9 21.16,-28.13 -1.24,-0.35 -2.41,-0.7 -3.63,-0.98 -12.23,1.42 -23.74,5.91 -35.27,9.94 1.93,-24.56 -7.17,-49.21 -23.39,-67.57 -6.5,-7.16 -13.16,-15.58 -22.83,-18.26 -2.3,-0.38 -4.61,-0.6 -6.92,-0.88 11.52,18.02 18,39.26 19.08,60.6 1.28,29.34 -8.42,58.83 -25.94,82.3 0.11,-13.86 0.8,-27.69 0.78,-41.53 -12.86,19.37 -19.71,42.54 -19.57,65.8 -0.14,13.08 2.2,26.03 5.38,38.68 -8.51,-15.21 -12.62,-32.86 -10.76,-50.25 2.34,-23.71 9.71,-47.28 23.83,-66.71 -14.97,7.33 -23.41,22.79 -29.55,37.54 -11.56,28.87 -11.37,62.15 0.47,90.9 5.15,12.86 11.35,26.51 8.56,40.72 -3.19,17.44 -15.49,31.08 -26.86,43.93 11.66,-7.4 24.2,-15.66 38.61,-14.95 10.91,0.41 20.11,8.18 24.52,17.82 -5.35,-4.42 -11.64,-8.02 -18.73,-8.42 -10.99,-0.81 -22.18,2.4 -31.55,8.07 -11.19,10.08 -25.67,16.94 -40.89,17.22 -11.08,-0.21 -21.95,-3.9 -31.27,-9.83 -5.52,-3.35 -9.77,-8.68 -16.06,-10.75 -12.85,-5.75 -28.77,-7.41 -40.89,0.97 4.74,-8.26 13.15,-14.6 22.89,-15.05 14.1,-0.88 26.44,7.16 37.94,14.24 -11.13,-13.3 -23.77,-27.08 -26.25,-44.97 -2.48,-17.25 7.27,-32.6 12.24,-48.43 9.93,-31.2 6.65,-66.48 -9.4,-95.08 -5.44,-9.71 -12.67,-19 -22.96,-23.85 14.53,20.26 22.07,44.87 23.93,69.56 1.41,18.3 -3.99,36.69 -13.83,52.05 4.22,-16.02 7.54,-32.49 6.49,-49.16 -0.82,-21.3 -7.65,-42.24 -19.38,-60.03 -0.09,13.83 0.61,27.66 0.77,41.49 -19.1,-25.47 -28.87,-58.17 -25.39,-89.95 2.24,-18.74 8.31,-37.29 18.66,-53.12 -1.15,0.23 -2.3,0.47 -3.44,0.71 -3.95,0.53 -7.64,2.16 -10.71,4.69 -24.25,19.61 -40.71,50.66 -37.29,82.38 -12.71,-4.69 -25.56,-10.21 -39.29,-10.59l1.15 1.7c6.79,9.17 14.53,17.65 20.32,27.55 -4.56,-0.34 -9.56,-0.65 -12.81,3.18 -2.1,-0.6 -4.17,-1.22 -6.26,-1.82 4.64,4.86 10.65,8.62 14.21,14.41 4.53,11.86 8.5,24.04 14.67,35.2 1.6,3 3.76,5.76 6.79,7.44 10.48,6.36 21.6,11.61 32.79,16.61 1.7,4.8 3.92,9.39 6.59,13.72 -12.84,6.77 -25.83,14.54 -34.42,26.58 -4.76,6.2 -7.27,13.69 -10.66,20.65 -19.11,-20.82 -35.84,-44.12 -47.64,-69.87 -5.48,-11.67 -9,-24.14 -11.05,-36.86 0.01,4.9 0.24,9.94 -1.55,14.6 -1.5,4.59 -1.99,9.4 -2.8,14.14 -5.42,-21.2 -10.32,-43.05 -21.24,-62.22 -0.27,0.04 -0.82,0.16 -1.09,0.2 -7.07,18.98 -13.48,38.34 -22.87,56.36 2.4,-14.65 -4.66,-29.92 -17.65,-37.14 1.79,3.29 4.15,6.45 4.73,10.25 -1.93,2.7 -6.16,2.02 -9.13,2.77 -36.25,3.18 -72.53,-8.33 -103.38,-26.88 16.05,-11.02 32.33,-21.89 46.67,-35.13 -14.64,-3.51 -29.21,-7.36 -43.44,-12.28 -7.97,-2.84 -16.09,-5.82 -22.76,-11.17 8.56,-7.01 18,-12.95 27.75,-18.2 5.74,-2.9 11.81,-5.75 18.39,-5.74 19.4,-0.41 38.79,-0.81 58.19,-1.29 3.05,-0.07 6.12,0.23 9.16,0.62 -9.88,1.26 -19.45,4.1 -28.94,7.04 -12.98,4.25 -26.07,9.39 -36.48,18.49 0.71,0.4 2.13,1.21 2.83,1.6 1.19,3.28 3.12,6.29 6.13,8.18 10.37,7.2 22.73,11.74 35.38,12.38 -12.32,11.49 -27.06,20.18 -42.7,26.37 6.62,1.86 12.4,5.58 18.42,8.75 25.61,6.46 54.17,6.49 77.85,-6.43 18.35,-9.63 32.5,-27.13 37.12,-47.41 1.8,-7.68 1.04,-15.77 -1.75,-23.12 15.46,-8.32 27.49,-22.09 35.48,-37.57 1.14,-2.63 3.9,-3.73 6.2,-5.08 9.5,-5.07 19.55,-10.12 30.54,-10.35 -7.24,-8.42 -17.56,-15.58 -29.04,-15.9 1.45,-6.69 1.63,-13.72 -0.88,-20.18 5.58,-4.52 8.04,-11.36 9.27,-18.19 5.07,-13.06 12.94,-26.65 26.35,-32.47 -17.66,1.09 -34.31,9.39 -47.25,21.21 7.57,-11.42 16.5,-21.98 22.89,-34.13zm79.7 3.12l0 0c-8.18,3.44 -16.5,6.67 -24.18,11.17 -21.21,12.21 -38.56,31.39 -47.67,54.21 6.42,0.16 12.91,1.24 18.63,4.3 12.38,6.12 20.55,17.69 28.74,28.36 1.26,-14.03 7.43,-27.39 16.91,-37.76 13.67,-15.08 33.15,-23.77 52.89,-27.53 -23.83,-5.48 -49.02,-2.1 -71.54,6.97 10.25,-10.15 21.67,-19.18 34.02,-26.65 17.86,-10.69 39.47,-16.78 60.2,-12.35 -11.29,-3.14 -22.29,-8.02 -34.15,-8.46 -11.77,-0.57 -23.12,3.38 -33.86,7.74zm97.35 -0.57l0 0c9.14,-0.28 18.42,-0.33 27.35,2.03 24.11,5.88 44.51,21.43 62.08,38.35 -22.32,-9.14 -47.34,-12.42 -71.04,-7.23 13.84,3.32 27.62,7.99 39.32,16.33 16.34,11.16 28.33,29.32 29.87,49.3 4.88,-6.45 9.6,-13.11 15.43,-18.76 8.39,-8.5 19.91,-14.48 32.09,-13.99 -9.04,-22.22 -25.64,-41.12 -46.22,-53.36 -8.19,-5 -17.15,-8.51 -25.97,-12.2 -9.93,-4.02 -20.32,-7.68 -31.17,-7.7 -10.99,-0.06 -21.53,3.59 -31.75,7.21zm-106.71 144.05l0 0c-6.03,17.75 -8.01,36.9 -5.86,55.53 1.19,11.5 4.44,22.61 7.61,33.67 -0.28,-4.34 -0.94,-8.66 -1.31,-12.99 -1.25,-17.73 4.25,-35.63 14.57,-50.02 -2.67,-0.68 -5.55,-2.06 -5.79,-5.17 -1.48,-12.24 3.21,-24.07 4.23,-36.17 -7.48,1.24 -11.03,8.8 -13.45,15.15zm169.64 22.21l0 0c-0.61,2.63 -3.38,3.27 -5.59,3.91 13.38,17.86 17.64,41.39 13.12,63.09 7.4,-21.33 10.92,-44.37 7.34,-66.82 -1.75,-10.62 -3.73,-21.62 -9.49,-30.91 -1.93,-3.32 -5.25,-5.44 -8.69,-6.94 -0.55,12.59 6.11,25 3.31,37.68zm-276.61 59.3l0 0c4.53,31.92 16.64,62.38 31.71,90.73 3.22,6.5 6.16,13.28 10.93,18.83 2.07,2.3 4.83,4.74 8.19,4.29 3.93,-0.8 5.55,-4.93 7.47,-7.97 3.73,-7.1 10.71,-11.49 17.25,-15.69 -16.67,-6.06 -31.71,-16.53 -42.95,-30.26 -14.6,-17.69 -23.71,-39.01 -32.6,-59.94zm392.8 0.24l0 0c-9.93,24.62 -21.17,49.83 -40.57,68.55 -9.83,9.68 -22.05,16.4 -34.69,21.67 6.69,3.69 13.32,8.29 17.11,15.14 1.79,2.81 3.15,6.3 6.35,7.87 3.21,1.39 6.55,-0.78 8.7,-3.05 6.22,-6.7 9.34,-15.46 13.63,-23.39 12.59,-23.77 22.26,-49.16 27.93,-75.47 0.94,-3.71 1.51,-7.5 1.53,-11.32z"/>
    <path class="fil4" d="M314.18 566.6c-8.59,32.59 -17.61,65.07 -25.63,97.82 -6.48,26.86 -13.32,53.72 -17.28,81.08 -1.28,14.72 -2.16,29.48 -3.75,44.17 -1.26,14.58 -2.97,29.28 -1.42,43.9 0.77,8.02 4.2,15.42 6.99,22.9 10.17,25.97 21.53,51.53 34.9,76.02 6.11,11.77 13.9,22.55 20.36,34.09 4.16,9.78 10.39,18.49 16.09,27.43 5.96,8.46 11.5,17.37 18.69,24.89 -6.79,-14.17 -13.92,-28.23 -19,-43.14 -9.14,-26.14 -15.6,-53.55 -16.54,-81.3 8.46,23.91 20.33,46.67 35.26,67.18 -2.81,-8.15 -6.6,-15.95 -8.65,-24.35 -4.09,-15.62 -6.69,-31.65 -8.01,-47.74 9.29,17.41 20.59,34.28 36.56,46.22 21.75,42.47 45.1,84.27 72.46,123.43 16.48,23.13 34.05,46.08 56.58,63.67 -8.38,-2.71 -17.14,-4.63 -25.15,-8.22 -31.64,-31.89 -62.83,-64.28 -92.25,-98.24 -5.96,-6.59 -11.4,-13.64 -17.62,-20.01 6.53,12.38 10.46,25.86 16.09,38.64 7.11,14.78 15.04,29.16 23.12,43.44 3.1,5.54 6.97,10.61 11.16,15.38 -25.69,-9.74 -50.95,-20.75 -75.26,-33.55 -18.33,-9.85 -36.43,-20.69 -51.59,-35.1 -4.09,-3.54 -5.34,-9 -7.67,-13.64 -13.59,-29.65 -26.59,-59.61 -42.19,-88.26 8.66,4.23 17.27,8.72 26.41,11.86 -9.14,-10.38 -18.43,-20.74 -25.91,-32.43 -2.98,-4.7 -5.82,-9.7 -6.6,-15.29 -4.79,-31.44 -8.26,-63.19 -7.99,-95.03 0.43,-19.54 1.78,-39.8 10.55,-57.63 23.44,-55.65 45.24,-111.96 67.29,-168.16zm-22.63 367.36l0 0c6.59,17.41 14.33,34.38 21.21,51.67 -12.55,-9 -23.09,-20.52 -32.1,-32.98 2.2,7.2 5.21,14.16 7.26,21.44 5.52,19 17.73,35.16 30.7,49.75 17.74,19.42 39.8,35.94 65.73,42.27 -4.23,-6.09 -9.17,-11.61 -13.66,-17.49 -28.87,-36.44 -55.12,-74.87 -79.13,-114.66zm79.71 11.53l0 0c2.68,12.76 8.11,24.81 13.45,36.65 8.78,17.89 19.44,35.71 35.33,48.18 -5.89,-15.11 -13.94,-29.24 -21.82,-43.38 -7.8,-14.57 -19.68,-26.54 -26.95,-41.45z"/>
    <path class="fil4" d="M794.67 566.57c22.26,56.51 44.1,113.2 67.76,169.15 7.45,15.39 9.22,32.7 9.94,49.57 0.95,28.54 -1.69,57.08 -5.38,85.35 -1.65,8.97 -1.35,18.66 -5.94,26.82 -7.74,13.92 -18.57,25.74 -28.98,37.68 9.13,-3.15 17.72,-7.64 26.38,-11.86 -17.3,31.86 -31.51,65.27 -46.72,98.14 -1.36,2.3 -3.46,4.02 -5.38,5.85 -14.43,13.13 -31.25,23.24 -48.35,32.49 -23.68,12.58 -48.31,23.31 -73.31,32.97 4.76,-6.22 9.23,-12.65 12.85,-19.59 9.63,-17.72 20.03,-35.21 26.57,-54.38 2.64,-7.64 6.08,-14.95 9.46,-22.28 -28.67,32.98 -57.81,65.63 -88.57,96.7 -6.55,6.76 -13.43,13.19 -19.74,20.18 -8.76,4.53 -18.81,6.33 -28.16,9.54 19.05,-14.84 34.49,-33.68 48.84,-52.95 30.59,-41.89 56.21,-87.2 79.67,-133.39 2.14,-3.04 5.67,-4.74 8.29,-7.33 12.99,-11.91 22.22,-27.22 30.32,-42.7 -0.01,3.11 0.11,6.26 -0.31,9.37 -2.44,17.28 -4.81,34.72 -10.69,51.23 -1.79,4.93 -4.02,9.68 -5.76,14.63 15.21,-20.12 26.2,-43.05 35.54,-66.38 -1.41,28.94 -8.16,57.49 -18.16,84.61 -5.1,14.18 -12.04,27.57 -18.7,41.05 16.51,-20.74 31.68,-42.9 42.75,-67.05 8.28,-15.31 17.31,-30.22 24.61,-46.03 9.83,-20.48 18.69,-41.42 26.55,-62.72 3.58,-9.6 3.54,-20.02 3.22,-30.1 -0.77,-17.56 -3.07,-35 -4.33,-52.51 -0.97,-26.06 -7.72,-51.39 -13.38,-76.7 -9.44,-40 -20.28,-79.67 -30.9,-119.37zm23.8 367.6l0 0c-27.01,46.52 -58.86,90.05 -92.46,131.98 29.58,-7.21 53.98,-27.46 72.98,-50.51 9.27,-11.77 18.22,-24.28 22.68,-38.76 2.56,-8.21 5.42,-16.29 8.33,-24.37 -9.16,12.52 -19.75,24.11 -32.33,33.25 5.2,-12.72 10.56,-25.37 15.82,-38.07 1.77,-4.47 4.09,-8.78 4.98,-13.53zm-98.64 40.67l0 0c-5.06,7.04 -8.97,14.78 -13.22,22.31 -5.84,10.81 -11.73,21.65 -16.13,33.14 10.48,-7.89 18.33,-18.71 25.32,-29.69 10.88,-17.93 19.14,-37.49 24.51,-57.76 -4.9,11.8 -13.2,21.64 -20.47,32z"/>
    <path class="fil4" d="M341.6 646.09c0.95,-9.09 1.72,-18.2 3.52,-27.18 1.33,55.09 14.16,110.82 42.6,158.42 4.87,8.53 11.07,16.22 16.8,24.14 4.94,43.39 23.83,83.53 43.68,121.87 -9,-10.28 -17.22,-21.21 -26.23,-31.49 2.26,14.44 8.55,27.82 14.6,40.98 21.04,43.44 46.74,84.4 72.67,125.02 0.37,0.74 1.09,2.2 1.46,2.94 -33.35,-28.87 -57.61,-66.52 -78.71,-104.86 -27.67,-51.43 -49.41,-105.9 -67.29,-161.43 -1.96,-5.48 -3.02,-11.26 -5.5,-16.53 -3.37,16.59 -1.08,33.62 0.19,50.32 -10.08,-23.54 -15.08,-48.93 -17.95,-74.26 -3.86,-35.85 -3.21,-72.07 0.16,-107.94zm26.01 119.16l0 0c-1.38,4.15 -1.89,8.56 -0.97,12.88 2.51,13.65 8.79,26.18 14.27,38.82 9.07,22.87 18.3,45.75 29.51,67.69 -6.5,-18.94 -9.54,-38.78 -14.53,-58.12 -4.9,-17.68 -11.06,-35.2 -20.38,-51.07 -2.43,-3.54 -4.17,-7.82 -7.91,-10.2z"/>
    <path class="fil4" d="M733.59 754.09c19.78,-42.13 28.97,-88.69 30.26,-135.06 5.34,34.36 6.97,69.29 5.85,104.02 -1.58,35.73 -6.16,72.03 -20.21,105.2 1.21,-16.77 3.72,-33.95 0.01,-50.55 -16.95,55.06 -37.44,109.16 -63.41,160.64 -17.58,34.52 -37.56,68.16 -62.96,97.53 -7.74,8.87 -15.97,17.35 -24.99,24.92 5.78,-10.61 12.98,-20.39 19.17,-30.77 14.28,-22.9 28.17,-46.08 41.04,-69.82 8.21,-15.32 16.17,-30.83 22.52,-47.03 2.66,-6.89 4.98,-13.96 6.05,-21.28 -9,10.24 -17.25,21.11 -26.15,31.44 19.71,-38.37 38.69,-78.44 43.61,-121.8 11.37,-14.67 21.44,-30.51 29.22,-47.44zm2.92 18.84l0 0c-8.52,13.5 -14.18,28.57 -19.05,43.7 -5.48,17.17 -8.15,35.03 -12.72,52.42 -1.24,4.83 -3.07,9.51 -3.78,14.47 13.69,-28.23 24.69,-57.62 37.14,-86.39 3.62,-10.08 8.56,-21.21 4.73,-31.96 -2.83,1.92 -4.5,4.96 -6.32,7.75z"/>
    <path class="fil4" d="M193.06 739.29c18.71,-32.22 37.8,-64.24 57.24,-96.01 -13.09,29.8 -19.79,61.85 -27.31,93.37 -25.47,49.11 -51.61,97.92 -77.21,146.99 -0.27,1.33 -2.27,3.63 -2.91,1.02 -2.17,-4.3 -4.16,-8.7 -6.5,-12.92 8.08,-16.95 16.58,-33.72 25.15,-50.44 4.09,-10.58 3.24,-22.24 5.18,-33.18 7.54,-16.91 17.29,-32.73 26.37,-48.83z"/>
    <path class="fil4" d="M858.58 643.26c24.05,39.46 47.82,79.09 70.51,119.34 4.67,8.78 9.98,17.32 13.47,26.67 1.14,10.35 1.14,21.03 4.39,31.02 8.56,17.11 17.35,34.12 25.59,51.42 -2.58,4.56 -4.6,9.41 -7.11,14 -0.27,0.03 -0.81,0.09 -1.08,0.11 -26.15,-49.71 -52.55,-99.35 -78.46,-149.19 -7.51,-31.51 -14.18,-63.58 -27.3,-93.37z"/>
    <path class="fil4" d="M184.2 850.61c-0.11,22.51 7.06,44.2 14.24,65.27 6.05,17.01 13.05,33.67 20.59,50.08 -12,-11.7 -23.68,-23.71 -35.36,-35.71 -6.08,-6.45 -12.42,-12.67 -17.85,-19.68 5.52,-20.16 11.78,-40.13 18.37,-59.96z"/>
    <path class="fil4" d="M924.7 850.73c6.63,19.78 12.82,39.72 18.36,59.83 -8.24,10.35 -17.85,19.52 -26.96,29.08 -8.73,8.75 -17.21,17.74 -26.23,26.18 10.27,-22.18 19.48,-44.9 26.61,-68.3 4.47,-15.21 8.43,-30.84 8.22,-46.8z"/>
    <path class="fil5" d="M475.01 207.79c10.75,-4.36 22.09,-8.31 33.86,-7.74 11.86,0.44 22.86,5.33 34.15,8.46 -20.73,-4.43 -42.34,1.66 -60.2,12.35 -12.35,7.47 -23.77,16.5 -34.02,26.65 22.52,-9.07 47.71,-12.45 71.54,-6.97 -19.74,3.76 -39.22,12.45 -52.89,27.53 -9.48,10.37 -15.65,23.73 -16.91,37.76 -8.19,-10.66 -16.36,-22.24 -28.74,-28.36 -5.72,-3.07 -12.21,-4.15 -18.63,-4.3 9.1,-22.82 26.45,-42 47.67,-54.21 7.68,-4.5 16,-7.74 24.18,-11.17z"/>
    <path class="fil5" d="M572.36 207.22c10.22,-3.62 20.76,-7.27 31.75,-7.21 10.85,0.01 21.24,3.68 31.17,7.7 8.82,3.69 17.78,7.2 25.97,12.2 20.57,12.24 37.17,31.14 46.22,53.36 -12.18,-0.5 -23.7,5.48 -32.09,13.99 -5.84,5.65 -10.55,12.31 -15.43,18.76 -1.55,-19.98 -13.53,-38.14 -29.87,-49.3 -11.7,-8.33 -25.47,-13.01 -39.32,-16.33 23.7,-5.2 48.72,-1.92 71.04,7.23 -17.56,-16.93 -37.97,-32.47 -62.08,-38.35 -8.93,-2.36 -18.2,-2.31 -27.35,-2.03z"/>
    <path class="fil5" d="M465.66 351.27c2.41,-6.35 5.96,-13.92 13.45,-15.15 -1.02,12.1 -5.71,23.93 -4.23,36.17 0.24,3.11 3.12,4.49 5.79,5.17 -10.32,14.4 -15.82,32.29 -14.57,50.02 0.37,4.33 1.02,8.65 1.31,12.99 -3.17,-11.06 -6.42,-22.16 -7.61,-33.67 -2.14,-18.63 -0.17,-37.78 5.86,-55.53z"/>
    <path class="fil5" d="M635.29 373.48c2.8,-12.68 -3.86,-25.09 -3.31,-37.68 3.44,1.5 6.76,3.62 8.69,6.94 5.75,9.29 7.74,20.29 9.49,30.91 3.58,22.45 0.06,45.49 -7.34,66.82 4.52,-21.7 0.26,-45.22 -13.12,-63.09 2.21,-0.64 4.98,-1.28 5.59,-3.91z"/>
    <path class="fil5" d="M600.35 453.55c6.13,-14.75 14.58,-30.22 29.55,-37.54 -14.11,19.42 -21.48,42.99 -23.83,66.71 -1.86,17.39 2.26,35.04 10.76,50.25 1.65,3.59 2.3,7.63 4.56,10.95 18.98,27.01 28.85,60.22 28.16,93.19 -1.36,-1.68 -2.84,-3.27 -3.9,-5.13 -4.42,-9.64 -13.62,-17.41 -24.52,-17.82 -14.41,-0.71 -26.95,7.55 -38.61,14.95 11.37,-12.85 23.67,-26.49 26.86,-43.93 2.78,-14.21 -3.41,-27.86 -8.56,-40.72 -11.84,-28.75 -12.03,-62.04 -0.47,-90.9z"/>
    <path class="fil5" d="M480.71 416.09c10.29,4.86 17.52,14.14 22.96,23.85 16.05,28.6 19.33,63.88 9.4,95.08 -4.97,15.83 -14.72,31.18 -12.24,48.43 2.48,17.89 15.12,31.66 26.25,44.97 -11.5,-7.09 -23.84,-15.12 -37.94,-14.24 -9.74,0.45 -18.15,6.79 -22.89,15.05 -2.23,2.68 -4.79,5.1 -6.99,7.81 -0.48,-32.3 8.79,-64.9 27.19,-91.56 1.7,-2.44 2.91,-5.18 4.34,-7.78 9.84,-15.36 15.24,-33.75 13.83,-52.05 -1.86,-24.69 -9.4,-49.3 -23.93,-69.56z"/>
    <path class="fil5" d="M358.68 432.77c8.89,20.93 18,42.24 32.6,59.94 11.25,13.73 26.28,24.2 42.95,30.26 -6.55,4.2 -13.52,8.59 -17.25,15.69 -1.92,3.04 -3.54,7.17 -7.47,7.97 -3.37,0.45 -6.12,-1.99 -8.19,-4.29 -4.77,-5.55 -7.71,-12.33 -10.93,-18.83 -15.07,-28.36 -27.18,-58.81 -31.71,-90.73z"/>
    <path class="fil5" d="M751.49 433.02c-0.03,3.82 -0.6,7.61 -1.53,11.32 -5.67,26.31 -15.34,51.7 -27.93,75.47 -4.29,7.92 -7.41,16.68 -13.63,23.39 -2.16,2.27 -5.5,4.44 -8.7,3.05 -3.2,-1.56 -4.56,-5.06 -6.35,-7.87 -3.79,-6.84 -10.42,-11.44 -17.11,-15.14 12.64,-5.27 24.86,-11.98 34.69,-21.67 19.4,-18.73 30.64,-43.93 40.57,-68.55z"/>
    <path class="fil5" d="M367.61 765.25c3.73,2.37 5.48,6.66 7.91,10.2 9.31,15.87 15.48,33.4 20.38,51.07 4.98,19.34 8.02,39.18 14.53,58.12 -11.2,-21.94 -20.43,-44.81 -29.51,-67.69 -5.48,-12.64 -11.76,-25.18 -14.27,-38.82 -0.92,-4.32 -0.41,-8.73 0.97,-12.88z"/>
    <path class="fil5" d="M736.52 772.93c1.82,-2.8 3.49,-5.84 6.32,-7.75 3.83,10.75 -1.11,21.88 -4.73,31.96 -12.45,28.77 -23.46,58.16 -37.14,86.39 0.71,-4.96 2.54,-9.64 3.78,-14.47 4.57,-17.39 7.24,-35.26 12.72,-52.42 4.87,-15.14 10.54,-30.2 19.05,-43.7z"/>
    <path class="fil5" d="M291.55 933.96c24.01,39.79 50.27,78.22 79.13,114.66 4.49,5.88 9.43,11.4 13.66,17.49 -25.93,-6.33 -47.99,-22.85 -65.73,-42.27 -12.96,-14.6 -25.18,-30.75 -30.7,-49.75 -2.04,-7.28 -5.06,-14.24 -7.26,-21.44 9.02,12.47 19.55,23.98 32.1,32.98 -6.89,-17.29 -14.63,-34.26 -21.21,-51.67z"/>
    <path class="fil5" d="M818.46 934.17c-0.89,4.76 -3.21,9.06 -4.98,13.53 -5.25,12.69 -10.62,25.35 -15.82,38.07 12.58,-9.14 23.17,-20.73 32.33,-33.25 -2.91,8.08 -5.78,16.16 -8.33,24.37 -4.46,14.48 -13.4,26.99 -22.68,38.76 -19,23.05 -43.41,43.29 -72.98,50.51 33.61,-41.93 65.46,-85.46 92.46,-131.98z"/>
    <path class="fil5" d="M719.82 974.84c7.27,-10.37 15.58,-20.21 20.47,-32 -5.37,20.28 -13.63,39.83 -24.51,57.76 -6.99,10.98 -14.84,21.8 -25.32,29.69 4.4,-11.49 10.29,-22.33 16.13,-33.14 4.25,-7.53 8.16,-15.26 13.22,-22.31z"/>
    <path class="fil5" d="M371.26 945.49c7.27,14.91 19.15,26.88 26.95,41.45 7.88,14.14 15.93,28.27 21.82,43.38 -15.89,-12.47 -26.55,-30.29 -35.33,-48.18 -5.34,-11.84 -10.76,-23.88 -13.45,-36.65z"/>
    <path class="fil6" d="M457.81 332.33c3.07,-2.53 6.76,-4.16 10.71,-4.69 -1.15,2.85 -3.59,4.77 -5.65,6.94 -16.33,17.34 -26.79,40.48 -27.49,64.42 -0.45,7.51 0.82,14.97 1.25,22.46 -5.34,-2.34 -10.69,-4.61 -16.1,-6.76 -3.42,-31.72 13.04,-62.77 37.29,-82.38z"/>
    <path class="fil6" d="M639.7 327.91c1.08,0.01 3.24,0.07 4.32,0.09 9.67,2.68 16.33,11.1 22.83,18.26 16.22,18.36 25.32,43.01 23.39,67.57l-0.01 0.35c-6.13,2.04 -12.03,4.71 -17.96,7.28 1.04,-11.19 2.19,-22.49 0.21,-33.65 -3.35,-23.13 -16.1,-43.92 -32.77,-59.91z"/>
    <path class="fil6" d="M808.82 382.82c30.22,6.06 61.4,1.99 91.04,-5.15 -1.38,3.63 -3.51,7.03 -6.83,9.17 -10.35,7.17 -22.68,11.61 -35.27,12.41 12.28,11.36 26.85,20.19 42.5,26.1 -6.36,2.22 -12.1,5.76 -18.2,8.52 -5.64,-3.85 -12.25,-5.85 -18.15,-9.23 -20.38,-10.83 -40.4,-23.76 -55.09,-41.82z"/>
    <path class="fil6" d="M211.28 378.62c29.11,5.89 59.35,10.35 88.83,4.2 -6.43,8.36 -14.6,15.21 -22.9,21.64 -14.98,11.27 -31.41,20.63 -48.69,27.84 0,0.5 0,1.49 0,1.99 -6.02,-3.17 -11.8,-6.89 -18.42,-8.75 15.63,-6.19 30.37,-14.88 42.7,-26.37 -12.65,-0.64 -25.02,-5.18 -35.38,-12.38 -3.01,-1.89 -4.94,-4.9 -6.13,-8.18z"/>
    <path class="fil6" d="M725.5 403.89c1.22,0.28 2.4,0.62 3.63,0.98 -7.26,9.23 -15.05,18.05 -21.16,28.13 4.17,0.09 8.79,-0.31 11.97,2.97 -13.62,5.41 -27.18,11.27 -39.13,19.86 -10.34,6.94 -19.2,15.73 -27.56,24.89 5.42,-16.74 17.79,-30.09 30.13,-42.16 10.76,-10.18 22.43,-19.4 34.66,-27.75 2.73,-2.02 6.38,-3.38 7.45,-6.93z"/>
    <path class="fil6" d="M382.38 405.82c5.52,2.37 10.17,6.26 15.08,9.64 17.05,12.5 33.41,26.35 46.28,43.26 4.86,6.7 9.58,13.8 11.81,21.88 -17.55,-20.13 -40.4,-35.8 -65.93,-43.86l0.27 -0.2c3.25,-3.83 8.25,-3.52 12.81,-3.18 -5.79,-9.9 -13.53,-18.37 -20.32,-27.55z"/>
    <path class="fil6" d="M754.24 467.38c2.94,5.76 3.44,12.32 5.54,18.39 -1.89,8.01 -3.9,16.07 -5.34,24.22 -3.02,18.32 -11.94,34.97 -21.81,50.46 -2.85,4.19 -5.32,8.76 -9.16,12.17 0.94,-3.83 2.31,-7.54 3.56,-11.27 -11.79,11.27 -18.87,26.54 -24.14,41.75 -2.75,7.2 -3.21,15.31 -7.7,21.77 -8.6,13.09 -17.28,26.2 -26.88,38.58 7.94,-27.12 11.23,-56.13 5.48,-84 -4.13,-19.85 -12.51,-39.23 -26.23,-54.35 0.92,-1.15 1.86,-2.27 2.83,-3.37 15.95,7.43 31.68,17.83 40.11,33.78 2.34,3.95 3.05,8.87 6.42,12.15 -1.01,1.09 -2.03,2.17 -3.01,3.29 12.86,-5.99 23.84,-15.58 32.91,-26.38 17.92,-21.51 25.66,-49.68 27.4,-77.19z"/>
    <path class="fil6" d="M353.36 477.2c0.44,-0.8 1.33,-2.37 1.78,-3.17 2.1,19.94 7.34,39.8 17.46,57.22 9.8,17.02 24.51,31.42 42.37,39.76 -0.34,-0.43 -1.04,-1.26 -1.38,-1.68 3.39,-6.96 5.91,-14.44 10.66,-20.65 8.59,-12.04 21.58,-19.81 34.42,-26.58l0.41 -0.21c0.68,1.11 1.36,2.22 2.06,3.34 -16.17,18.08 -24.99,41.79 -27.9,65.64 -2.97,24.37 0.5,49.07 7.31,72.53 -10.45,-13.83 -20.56,-28.07 -29.35,-43.02 -6.01,-21.09 -13.05,-43.35 -29.29,-58.98 1.21,3.73 2.58,7.41 3.49,11.23 -1.43,-1.42 -2.9,-2.84 -4.02,-4.52 -8.12,-11.76 -15.52,-24.1 -20.97,-37.33 -5.38,-12.55 -6.67,-26.31 -9.85,-39.44 0.81,-4.74 1.29,-9.56 2.8,-14.14z"/>
    <path class="fil6" d="M307.21 890.41c-9.71,-37.06 -13.28,-77.37 -0.3,-114.09 9.36,38.88 21,77.54 39.27,113.24 1.32,16.09 3.92,32.12 8.01,47.74 2.04,8.41 5.84,16.2 8.65,24.35 -14.92,-20.5 -26.79,-43.27 -35.26,-67.18 0.94,27.76 7.4,55.16 16.54,81.3 5.08,14.91 12.21,28.97 19,43.14 -7.19,-7.53 -12.72,-16.43 -18.69,-24.89 -5.69,-8.95 -11.93,-17.65 -16.09,-27.43 4.12,2.83 6.36,7.53 10.21,10.68 -11.16,-28.68 -23.93,-56.9 -31.35,-86.86z"/>
    <path class="fil6" d="M801.96 776.32c11.07,31.05 10.08,65.09 3.68,97.05 -6.92,36.12 -21.85,69.89 -35.31,103.91 7.44,-6.72 11.93,-15.89 18.56,-23.27 -11.08,24.15 -26.24,46.3 -42.75,67.05 6.66,-13.48 13.6,-26.86 18.7,-41.05 10,-27.12 16.76,-55.67 18.16,-84.61 -9.34,23.33 -20.33,46.26 -35.54,66.38 1.75,-4.94 3.98,-9.7 5.76,-14.63 5.88,-16.51 8.25,-33.95 10.69,-51.23 0.43,-3.11 0.3,-6.26 0.31,-9.37 17.41,-34.86 28.67,-72.44 37.74,-110.23z"/>
    <path class="fil6" d="M376.77 996.41c6.22,6.36 11.66,13.42 17.62,20.01 29.42,33.96 60.62,66.35 92.25,98.24 -20.21,-5.74 -39.94,-13.25 -59.51,-20.8 -4.19,-4.77 -8.07,-9.84 -11.16,-15.38 -8.08,-14.27 -16,-28.65 -23.12,-43.44 -5.62,-12.78 -9.56,-26.25 -16.09,-38.64z"/>
    <path class="fil6" d="M644.99 1093.19c30.77,-31.07 59.91,-63.71 88.57,-96.7 -3.38,7.33 -6.82,14.64 -9.46,22.28 -6.53,19.17 -16.94,36.66 -26.57,54.38 -3.62,6.94 -8.09,13.38 -12.85,19.59l-0.28 0.38c-17.95,6.52 -35.81,13.3 -53.97,19.24 -1.72,0.41 -3.45,0.74 -5.18,0.99 6.3,-6.99 13.19,-13.42 19.74,-20.18z"/>
   </g>
   <path class="fil7 str0" d="M411.26 457.48c5.26,15.79 15.89,29.27 31.89,40.45"/>
   <path class="fil7 str0" d="M694.82 455.52c-7.76,18.36 -18.86,31.71 -33.31,40.06"/>
   <path class="fil8" d="M663.18 494.58c11.23,-6.91 20.36,-16.97 27.4,-30.15 1.51,-2.83 2.92,-5.8 4.24,-8.91 -7.72,5.01 -15.23,10.34 -22.09,16.47 -8.36,7.29 -13,17.64 -18.09,27.24 2.26,-1.26 4.56,-2.47 6.87,-3.65 0.56,-0.32 1.12,-0.66 1.67,-1z"/>
   <path class="fil8" d="M453 503.13c-5.46,-10.49 -10.6,-21.69 -19.85,-29.43 -6.85,-5.99 -14.29,-11.25 -21.89,-16.22 0.34,1.03 0.71,2.05 1.1,3.06 4.07,10.58 10.65,20.09 19.74,28.52 3.34,3.1 7.03,6.06 11.05,8.87 3.31,1.69 6.62,3.39 9.85,5.2z"/>
   <path class="fil9" d="M432.09 489.06c-9.09,-8.43 -15.67,-17.93 -19.74,-28.52 -0.39,-1.01 -0.76,-2.03 -1.1,-3.06 -2.41,-1.58 -4.84,-3.12 -7.27,-4.66 5.95,11.21 11.24,22.88 18.54,33.31 6.45,4.57 13.54,8.17 20.62,11.79 -4.02,-2.81 -7.71,-5.77 -11.05,-8.87z"/>
   <path class="fil9" d="M690.58 464.43c-7.04,13.19 -16.17,23.24 -27.4,30.15 -0.55,0.34 -1.11,0.67 -1.67,1 0.52,-0.27 1.05,-0.54 1.57,-0.81 7.05,-3.6 14.15,-7.14 20.59,-11.7 4.98,-7.1 8.97,-14.83 12.92,-22.55 1.57,-3.06 3.13,-6.13 4.75,-9.15 -2.19,1.36 -4.37,2.74 -6.53,4.15 -1.32,3.11 -2.73,6.09 -4.24,8.91z"/>
  </g>
 </g>
</svg>
