<?xml version="1.0" encoding="UTF-8"?>
<!DOCTYPE svg PUBLIC "-//W3C//DTD SVG 1.1//EN" "http://www.w3.org/Graphics/SVG/1.1/DTD/svg11.dtd">
<!-- Creator: CorelDRAW 2018 (64-Bit) -->
<svg xmlns="http://www.w3.org/2000/svg" xml:space="preserve" width="8.2555in" height="8.31703in" version="1.1" style="shape-rendering:geometricPrecision; text-rendering:geometricPrecision; image-rendering:optimizeQuality; fill-rule:evenodd; clip-rule:evenodd"
viewBox="0 0 1717.01 1729.81"
 xmlns:xlink="http://www.w3.org/1999/xlink">
 <defs>
  <style type="text/css">
   <![CDATA[
    .str0 {stroke:white;stroke-width:16.38;stroke-miterlimit:2.61313}
    .str1 {stroke:#2B2A29;stroke-width:1.44;stroke-miterlimit:2.61313}
    .fil4 {fill:none}
    .fil6 {fill:#C79933}
    .fil5 {fill:#FBEB58}
    .fil1 {fill:#062C2E;fill-rule:nonzero}
    .fil3 {fill:#079C5F;fill-rule:nonzero}
    .fil2 {fill:#17C881;fill-rule:nonzero}
    .fil0 {fill:white;fill-rule:nonzero}
   ]]>
  </style>
 </defs>
 <g id="Layer_x0020_1">
  <metadata id="CorelCorpID_0Corel-Layer"/>
  <g id="_1175802864">
   <g>
    <g>
     <g>
      <path class="fil0" d="M441.87 76.03c21.91,-11.6 47.43,-13.41 71.76,-11.83 36.94,3.15 72.74,14.07 107.11,27.63 50.12,19.6 96.74,46.72 142.18,75.31 -24.38,-13.08 -46.9,-29.64 -72.34,-40.84 -54.5,-24.93 -114.08,-42.47 -174.51,-39.85 -30.34,2.09 -62.15,10.49 -84.49,32.28 -17.29,16.08 -26.97,38.75 -30.67,61.74 -3.3,17.29 -0.66,34.87 -1.99,52.31 -5.49,-35.8 -9.33,-73.59 2.67,-108.52 6.89,-20.28 21.09,-38.34 40.28,-48.23z"/>
      <path class="fil0" d="M1062.68 106.3c44.56,-20.41 91.48,-37.72 140.65,-42.09 28.93,-1.99 60.46,1.28 84.03,19.78 19.83,15.32 30.34,39.73 33.84,64.03 4.23,28.13 1.21,56.76 -3.17,84.69 -1.31,-19.78 1.64,-39.91 -3.4,-59.33 -5.33,-27.65 -21.91,-53.24 -46.24,-67.76 -29.24,-17.59 -64.56,-20.88 -97.95,-19.07 -53.79,4.25 -106.05,20.93 -154.31,44.68 -21.49,10.62 -41.04,24.68 -62.17,35.88 35.38,-21.74 70.78,-43.68 108.72,-60.81z"/>
      <path class="fil0" d="M694.98 96.66c28.68,0.91 57.29,4.43 85.29,10.74 28.46,7.15 60.21,15.58 78.37,40.41 17.06,-24.38 47.78,-32.48 75.05,-39.7 28.93,-6.79 58.57,-10.47 88.26,-11.47 -1.43,1.61 -3.14,2.82 -5.08,3.65 -41.11,8.15 -80.89,24.23 -116.09,47.02 7.47,-0.4 14.95,-0.53 22.44,-0.05 -9.31,4.55 -19.72,6.26 -28.88,11.22 -14.21,6.79 -26.54,17.18 -35.83,29.89 -6.64,-8.38 -13.91,-16.45 -22.97,-22.32 -12.43,-9.36 -27.75,-12.83 -41.82,-18.8 7.42,-0.48 14.89,-0.35 22.34,0.08 -35.1,-22.92 -74.93,-38.85 -115.99,-47.02 -1.96,-0.86 -3.67,-2.06 -5.11,-3.65z"/>
      <path class="fil0" d="M464.09 141.14c23.63,-11.83 52.26,-15.27 77.49,-6.47 17.84,5.69 33.44,16.61 47.38,28.91 34.55,30.7 56.84,71.88 86.07,107.08 -2.09,9.23 -2.94,18.72 -3.52,28.18 -36.26,-39.5 -61.99,-87.48 -99.33,-126.05 -15.25,-15.62 -33.14,-29.79 -54.5,-35.7 -17.66,-4.98 -36.73,-2.74 -53.59,4.05z"/>
      <path class="fil0" d="M1137.76 155.48c24.91,-20.46 58.98,-31.45 90.8,-22.97 6.39,2.47 14.22,2.26 19.58,6.97 -20.43,-7.55 -43.8,-6.74 -63.33,3.05 -25.97,12.68 -45.54,34.87 -63.33,57.01 -25.89,32.71 -47.86,68.49 -76.03,99.33 -0.58,-9.46 -1.41,-18.92 -3.55,-28.15 31.8,-38.39 55.78,-84.19 95.86,-115.23z"/>
      <path class="fil0" d="M332.6 201.18c8.98,-7.25 20.91,-8.78 32,-6.94 2.19,6.72 4.03,13.56 6.39,20.23 0.28,1.18 0.83,3.55 1.11,4.73 -13.97,2.09 -26.37,10.06 -35.55,20.58 -14.87,17.03 -24.25,38.55 -28.28,60.69 -4.53,-7.7 -9.33,-15.25 -14.19,-22.72 -2.92,-3.57 -0.18,-7.87 0.63,-11.67 7.65,-23.85 17.49,-49.04 37.89,-64.89z"/>
      <path class="fil0" d="M1352.48 194.11c11.55,-1.76 23.88,0.13 33.01,7.9 20.88,17.26 30.77,43.88 38.17,69.14 1.91,3.37 -0.75,6.49 -2.39,9.21 -4.48,6.49 -8.45,13.31 -12.58,20.03 -3.57,-19.78 -11.57,-38.87 -23.6,-54.98 -9.81,-13.08 -23.75,-23.85 -40.28,-26.19 0.4,-1.36 1.21,-4.05 1.61,-5.38 1.91,-6.62 3.77,-13.23 6.06,-19.72z"/>
      <path class="fil0" d="M716.02 224.3l0.6 -0.73c-4.2,17.36 -10.62,35.55 -5.43,53.49 3.55,19.55 21.26,36.23 41.51,36.28 16.45,1.58 33.61,-5.49 43.6,-18.77 8.43,-10.92 11.07,-25.24 10.32,-38.75 15,15.62 13.13,40.71 7.05,59.96 22.29,-7.8 37.56,-27.85 45.24,-49.44 4.81,18.34 17.18,34.34 33.24,44.31 3.29,2.16 7.27,2.64 11.05,3.55 -6.62,-18.79 -6.92,-43.05 6.99,-58.77 -1.26,18.82 5.38,39.73 22.22,49.99 11.8,8.23 26.92,9.49 40.73,6.89 16.66,-4.25 29.92,-18.9 32.66,-35.85 4.78,-17.74 -1.31,-35.65 -5.36,-52.84l0.53 0.63c16.1,18.22 18.67,44.71 14.04,67.73 -3.7,17.23 -14.19,35.33 -32.18,40.36 -18.77,4.81 -36.91,-4.91 -51.98,-15.1 6.39,13.81 15.98,25.69 25.86,37.11 -28.25,-11.83 -57.16,-23.98 -88.01,-26.54 -38.07,-3.02 -74.15,12.18 -108.49,26.57 9.64,-11.5 19.98,-23 25.39,-37.24 -14.57,10.82 -33.06,19.85 -51.6,15.15 -18.47,-5.31 -28.96,-24.1 -32.36,-41.87 -4.15,-22.57 -1.43,-48.41 14.39,-66.12z"/>
      <path class="fil0" d="M564.58 298.45c-12.68,-19.7 -15.78,-45.64 -5.61,-67.08 26.95,46.4 62.27,88.67 106.25,119.74 -39.22,-0.23 -79.58,-18.74 -100.64,-52.66z"/>
      <path class="fil0" d="M1051.81 351.13c44.11,-31.07 78.88,-73.67 106.55,-119.66 8.83,20.56 7.2,44.76 -4.2,63.98 -20.41,35.75 -62.05,55.4 -102.35,55.68z"/>
      <path class="fil0" d="M129.83 262.54c27.05,-13.41 59.35,-10.89 86.85,-0.13 30.32,11.88 57.14,31.9 79.03,55.83 -30.37,-21.76 -65.89,-39.38 -103.94,-40.13 -31.45,0.15 -61.01,17.13 -79.21,42.45 -28.05,38.67 -38.22,87.38 -40.48,134.33 -1.23,7.35 2.67,16.83 -2.72,22.67 -5.94,-50.09 -8.93,-102.53 8.03,-150.94 9.21,-26.52 26.62,-51.6 52.43,-64.08z"/>
      <path class="fil0" d="M1515.04 257.59c27.07,-7.5 57.87,-5.56 81.62,10.39 25.44,16.66 40.23,45.24 47.65,74 12.86,49.84 7.83,101.95 1.11,152.3 -1.38,-20.66 0.78,-41.44 -2.21,-62.02 -5.01,-42.72 -16.91,-86.88 -45.67,-120.04 -20.05,-23.47 -51.48,-36.73 -82.3,-33.59 -34.42,3.52 -66.17,19.7 -93.95,39.55 25.44,-27.53 57.29,-50.5 93.75,-60.59z"/>
      <path class="fil0" d="M693.3 480.96c15.75,27.3 25.23,58.17 27.93,89.57 0.91,11.3 -0.35,22.64 0.43,33.97 -0.63,0.25 -1.89,0.75 -2.52,1.01 1.13,8.03 -1.08,15.9 -2.87,23.63 -1.38,0.05 -4.1,0.1 -5.46,0.15 -4.78,-2.74 -9.56,-5.43 -14.42,-8 12.08,-26.77 14.67,-56.96 11.27,-85.87 -2.59,-17.16 -5.31,-35 -13.86,-50.32 -0.13,-1.03 -0.38,-3.09 -0.5,-4.13z"/>
      <path class="fil0" d="M1001.04 631.37c-13.08,-50.82 -3.09,-106.05 23.05,-151.14 -18.67,44.13 -23.07,96.44 -3.55,141.05 -4.63,2.49 -9.26,4.98 -13.91,7.45 -1.41,0.68 -4.2,1.99 -5.59,2.64z"/>
      <path class="fil0" d="M561.26 676.05c23.5,-16.4 53.11,-19.52 80.97,-20.3 47.25,0.35 94.13,9.96 138.51,25.94 -4.81,0.3 -9.49,-0.8 -14.09,-1.89 -41.77,-8.83 -84.69,-12.51 -127.29,-9.33 -22.9,2.49 -46.27,7.72 -65.59,20.81 -14.59,9.76 -24.91,25.64 -27.75,42.97 -3.75,22.47 1.91,44.91 9.16,66.07 -11.57,-22.74 -20.28,-47.8 -19.98,-73.59 0.1,-19.78 9.61,-39.45 26.07,-50.67z"/>
      <path class="fil0" d="M1031.55 658.54c34.65,-3.9 70.93,-5.06 104.16,7.02 21.03,7.37 39.78,24.23 44.26,46.75 6.01,30.34 -4.78,61.11 -18.19,88.04 8.05,-23.4 14.19,-48.89 7.47,-73.39 -5.36,-19.6 -20.86,-35.02 -39.15,-43.13 -35.3,-16.43 -75.26,-15.12 -113.22,-13.64 -24.33,2.26 -48.68,5.31 -72.49,10.94 -2.44,0.73 -4.96,0.75 -7.42,0.25 30.62,-10.89 62.32,-18.79 94.58,-22.85z"/>
      <path class="fil0" d="M582.24 890.17c29.89,18.14 65.34,28.68 100.44,24.83 4.35,-1.03 8.23,2.49 12.61,1.74 0.08,7.4 -3.47,13.94 -5.91,20.71 -9.76,29.69 -12.48,61.54 -8.55,92.49 -30.24,-29.51 -40.18,-73.69 -42.52,-114.5 -13.54,31.58 -17.31,66.55 -18.95,100.62 -0.58,18.52 1.18,37.04 4.28,55.28 -20.1,-33.72 -33.31,-71.2 -42.9,-109.15 -4.78,-19.62 -8.28,-39.63 -9.33,-59.83 2.11,-5.06 7.3,-8.13 10.84,-12.18z"/>
      <path class="fil0" d="M1034.42 915c35.12,3.93 70.42,-6.87 100.44,-24.78 3.4,4.15 8.86,7.1 10.64,12.28 -1.79,32.38 -9.41,64.21 -19.4,94.98 -8.63,25.49 -18.69,50.72 -32.76,73.77 7.52,-41.56 4.58,-84.51 -4.75,-125.55 -2.84,-10.26 -5.11,-20.83 -9.86,-30.39 -1.79,34.29 -9.54,69.37 -28.63,98.4 -4.23,5.51 -7.9,12.13 -14.42,15.22 5.61,-34.92 0.35,-71.4 -12.91,-104.06 -0.6,-2.77 -1.03,-5.56 -1.26,-8.35 4.38,1.76 8.38,-2.99 12.91,-1.51z"/>
      <path class="fil0" d="M695.61 922.4c1.71,-1.01 3.45,-1.96 5.21,-2.89 22.54,7.17 46.35,8.88 69.77,11.37 66.02,5.16 132.6,4.86 198.47,-2.29 15.8,-2.29 31.88,-3.93 47.08,-9.08 1.74,0.93 3.45,1.89 5.21,2.89 -4.7,27.5 -9.71,56.69 -24.58,80.54 -12.15,-21.59 -18.39,-45.77 -23.17,-69.85 -3.09,22.27 -8.88,44.48 -19.6,64.36 -13.28,-16.58 -20.68,-36.96 -25.74,-57.34 -4.98,19.65 -9.66,39.85 -20.78,57.11 -13.89,-16 -19.62,-37.01 -25.29,-56.94 -5.01,19.98 -12.58,39.33 -22.47,57.39 -0.58,0.08 -1.69,0.25 -2.26,0.35 -10.17,-18.12 -17.29,-37.74 -23,-57.67 -3.87,15.6 -8.48,31.2 -16.66,45.14 -2.49,3.98 -4.4,8.75 -8.78,11.07 -10.74,-17.18 -15.42,-37.06 -20.28,-56.46 -4.96,20.58 -12.83,40.73 -25.74,57.69 -10.57,-20.1 -16.53,-42.32 -19.7,-64.74 -4.53,24.46 -11.37,48.64 -23.3,70.63 -10.16,-19 -17.11,-39.65 -20.81,-60.84 -1.13,-6.84 -1.11,-13.91 -3.57,-20.46z"/>
      <path class="fil0" d="M628.21 1267.7c1.86,-15.65 8.3,-31.6 20.05,-42.45 -3.37,16.51 -3.3,34.22 2.67,50.14 5.11,-10.84 9.16,-24.23 20.1,-30.47 -6.67,25.97 -0.98,53.24 8.81,77.62 -6.52,1.61 -13.84,3.12 -19.98,-0.53 -10.87,-5.46 -14.95,-18.67 -13.28,-30.07 -11.7,-1.16 -19.98,-12.88 -18.37,-24.25z"/>
      <path class="fil0" d="M1068.64 1225.36c11.47,10.04 17.31,25.29 19.93,40.01 2.47,11.93 -5.41,25.44 -18.14,26.52 1.56,11.4 -2.41,24.66 -13.31,30.12 -6.14,3.67 -13.46,2.16 -19.95,0.6 9.61,-24.38 15.55,-51.63 8.68,-77.54 11.37,5.94 14.62,20.05 20.81,30.44 4.48,-16.28 5.86,-33.59 1.99,-50.14z"/>
      <path class="fil0" d="M724.72 1257.79c14.57,58.32 35.78,116.62 72.54,164.9 -20.76,-2.62 -41.31,-6.77 -61.49,-12.3 -10.37,-25.34 -14.52,-52.69 -16.4,-79.83 -1.23,-24.36 -0.28,-48.99 5.36,-72.76z"/>
      <path class="fil0" d="M976.25 1312.64c6.44,-17.99 11.37,-36.46 15.77,-55.03 6.04,23.75 6.69,48.51 5.56,72.89 -2.09,27.02 -5.64,54.62 -16.61,79.66 -19.93,6.14 -40.63,9.76 -61.27,12.45 25.56,-32.68 42.6,-71.15 56.54,-109.98z"/>
      <path class="fil0" d="M811.02 1367.99c0.53,-2.69 0.35,-6.06 3.04,-7.6 5.26,22.92 12.78,45.61 25.19,65.72 -9.06,-0.28 -18.09,-0.91 -27.1,-1.51 -4.03,-18.57 -3.9,-37.89 -1.13,-56.61z"/>
      <path class="fil0" d="M902.86 1360.44c2.79,1.48 2.47,4.96 3.12,7.67 2.64,18.69 2.97,38.02 -1.26,56.51 -9.01,0.55 -18.02,1.18 -27.05,1.46 12.46,-20.03 19.93,-42.77 25.19,-65.64z"/>
     </g>
     <g>
      <g>
       <path class="fil1" d="M386.39 45.89c22.22,-25.39 56.51,-36.99 89.55,-37.61 48.48,-1.06 95.51,15.5 138.18,37.29 6.67,3.12 12.71,7.75 19.85,9.79 35.25,-4.38 71.1,-3.07 106.23,2.09 41.16,6.37 82.4,17.54 118.25,39.38 44.68,-26.9 96.87,-38.14 148.27,-42.87 25.94,-1.94 52.06,-1.41 77.87,1.21 39.28,-21.49 81.24,-39.83 126.05,-45.34 32.84,-4.15 68.08,-0.91 96.79,16.73 24.1,14.52 40.96,39.33 47.86,66.4 4.93,18.54 5.81,37.89 4.58,56.99 20.58,-5.21 43.91,-3.37 61.27,9.79 22.52,16.83 33.34,44.28 40.48,70.55 30.02,-30.29 70.05,-55.03 113.98,-54.37 30.69,-0.25 59.96,15.32 79.78,38.24 26.02,29.66 39.15,68.21 46.45,106.4 9.74,53.32 7.93,107.99 2.94,161.71 -9.26,87.03 -31.15,172.32 -60.31,254.7 22.74,35.3 33.11,76.86 40.61,117.72 8.48,50.8 11.42,102.93 4.88,154.13 -5.16,37.11 -20.3,71.93 -36.84,105.27 -31.48,61.37 -71.71,117.85 -115.59,170.94 -88.26,105.85 -192.58,198.21 -307.69,273.9 -109.22,71.63 -229.29,127.71 -356.2,159.44 -6.69,1.31 -13.46,4.81 -20.28,2.52 -186.89,-44.96 -358.49,-141.78 -504.54,-265.39 -70.85,-60.13 -136.17,-126.96 -193.36,-200.25 -34.04,-43.86 -65.32,-90.05 -90.78,-139.44 -19.32,-38.37 -36.31,-79.05 -39.55,-122.36 -4.55,-58.9 0.45,-118.56 14.59,-175.92 7.35,-28.05 16.66,-56.16 32.76,-80.54 -36.13,-102.76 -62.12,-210.34 -64.16,-319.69 -1.03,-51.02 3.3,-103.21 22.19,-151.06 12.45,-31.43 32.81,-61.44 63.08,-77.97 26.87,-15.02 60.08,-15.75 88.79,-5.74 27.8,9.59 52.56,26.92 72.99,47.88 6.99,-26.54 18.12,-54.25 40.94,-71.05 17.34,-12.83 40.36,-14.57 60.79,-9.41 -2.79,-36.46 4.08,-76.11 29.29,-104.04zm55.48 30.14l0 0c-19.2,9.89 -33.39,27.95 -40.28,48.23 -12,34.92 -8.15,72.71 -2.67,108.52 4.68,28.68 14.77,56.29 21.54,84.44 -20.76,-32.05 -37.69,-66.8 -49.54,-103.13l0.08 0.38c-2.36,-6.67 -4.2,-13.51 -6.39,-20.23 -11.1,-1.84 -23.02,-0.3 -32,6.94 -20.41,15.85 -30.24,41.04 -37.89,64.89 -0.8,3.8 -3.55,8.1 -0.63,11.67 4.86,7.47 9.66,15.02 14.19,22.72 15.47,28.33 29.21,57.79 38.7,88.72 -14.62,-25.23 -30.42,-50.32 -51.25,-70.93 -21.89,-23.93 -48.71,-43.96 -79.03,-55.83 -27.5,-10.77 -59.81,-13.29 -86.85,0.13 -25.81,12.48 -43.23,37.56 -52.43,64.08 -16.96,48.41 -13.96,100.84 -8.03,150.94l-0.91 0.88c18.9,126.73 51.83,250.87 89.57,373.18 30.67,98.03 63.83,195.47 104.29,289.92l-0.63 0.58c13.84,30.62 26.59,62.07 45.14,90.2 -33.31,-101.95 -54.3,-207.83 -63.61,-314.63 -3.12,-30.9 -5.13,-61.94 -5.31,-92.99 32.18,99.11 70.32,196.45 117.1,289.67 43.98,89.34 95.31,174.89 150.18,257.94 15.27,22.29 29.59,45.36 46.09,66.75 -1.84,-13.66 -6.21,-26.8 -8.38,-40.38 -5.31,-30.82 -9.31,-62.12 -7.95,-93.42 9.74,30.02 20.98,59.58 34.17,88.26 31.3,67.88 72.84,132.9 131.14,180.7 37.97,31.15 83.83,54.02 133,59.71 43.35,5.18 87.94,-3.52 126.86,-23.05 43.75,-21.41 80.97,-54.5 111.51,-92.11 51.15,-62.67 84.94,-137.43 110.78,-213.54 0.93,45.19 -6.94,89.92 -16.86,133.8 17.76,-22.82 32.99,-47.63 49.31,-71.53 55.81,-84.64 107.69,-172.02 152.09,-263.23 44.21,-90.15 81.37,-183.75 111.76,-279.43 0.53,37.72 -3.27,75.31 -6.89,112.79 -10.09,100.01 -30.57,198.97 -61.62,294.58 7.42,-10.29 12.76,-21.89 18.74,-33.04 21.11,-42.4 38.52,-86.48 55.86,-130.51 0.93,-2.69 1.56,-5.43 1.91,-8.25 2.64,-4.33 4.15,-9.18 5.94,-13.89 37.79,-101.67 70.98,-205.06 99.76,-309.65 21.61,-79.91 41.39,-160.6 52.99,-242.62 6.72,-50.35 11.75,-102.45 -1.11,-152.3 -7.42,-28.76 -22.22,-57.34 -47.65,-74 -23.75,-15.95 -54.55,-17.89 -81.62,-10.39 -36.46,10.09 -68.31,33.06 -93.75,60.59 -20.93,20.63 -36.53,45.89 -51.5,71 9.84,-30.87 23.35,-60.44 38.9,-88.79 4.13,-6.72 8.1,-13.54 12.58,-20.03 1.64,-2.72 4.3,-5.84 2.39,-9.21 -7.4,-25.26 -17.28,-51.88 -38.17,-69.14 -9.13,-7.77 -21.46,-9.66 -33.01,-7.9 -2.29,6.49 -4.15,13.11 -6.06,19.72 -12.5,36.23 -28.86,71.35 -50.02,103.33 6.99,-28.15 16.91,-55.75 21.64,-84.46 4.38,-27.93 7.4,-56.56 3.17,-84.69 -3.5,-24.31 -14.02,-48.71 -33.84,-64.03 -23.58,-18.49 -55.1,-21.76 -84.03,-19.78 -49.16,4.38 -96.09,21.69 -140.65,42.09 -37.94,17.13 -73.34,39.07 -108.72,60.81 -10.77,5.13 -19.73,13.16 -30.12,18.92 0.73,-1.08 2.19,-3.25 2.92,-4.33 27.95,-29.36 58.9,-55.66 90.12,-81.42 1.94,-0.83 3.65,-2.04 5.08,-3.65 -29.69,1.01 -59.33,4.68 -88.26,11.47 -27.27,7.22 -57.99,15.32 -75.05,39.7 -18.17,-24.83 -49.92,-33.26 -78.37,-40.41 -28,-6.31 -56.61,-9.84 -85.29,-10.74 1.43,1.59 3.15,2.79 5.11,3.65 31.2,25.71 62.05,52.01 90,81.27 0.78,1.11 2.31,3.35 3.07,4.45 -10.47,-5.69 -19.4,-13.86 -30.24,-18.9 -45.44,-28.58 -92.06,-55.71 -142.18,-75.31 -34.37,-13.56 -70.17,-24.48 -107.11,-27.63 -24.33,-1.58 -49.84,0.23 -71.76,11.83z"/>
      </g>
      <g>
       <path class="fil1" d="M464.09 141.14c16.86,-6.79 35.93,-9.03 53.59,-4.05 21.36,5.91 39.25,20.08 54.5,35.7 37.34,38.57 63.08,86.55 99.33,126.05 0.58,-9.46 1.43,-18.95 3.52,-28.18 6.62,-19.63 19.25,-41.72 40.99,-46.37 -15.83,17.71 -18.54,43.55 -14.39,66.12 3.4,17.76 13.89,36.56 32.36,41.87 18.54,4.71 37.04,-4.33 51.6,-15.15 -5.41,14.24 -15.75,25.74 -25.39,37.24 34.35,-14.39 70.42,-29.59 108.49,-26.57 30.85,2.57 59.76,14.72 88.01,26.54 -9.89,-11.42 -19.47,-23.3 -25.86,-37.11 15.07,10.19 33.21,19.9 51.98,15.1 17.99,-5.03 28.48,-23.12 32.18,-40.36 4.63,-23.02 2.06,-49.52 -14.04,-67.73 21.74,4.78 34.39,26.77 40.94,46.47 2.14,9.23 2.97,18.69 3.55,28.15 28.18,-30.85 50.14,-66.62 76.03,-99.33 17.79,-22.14 37.36,-44.33 63.33,-57.01 19.53,-9.79 42.9,-10.59 63.33,-3.05 14.44,5.64 27.75,13.61 40.16,22.85 -20.58,-4.78 -42.42,-2.57 -61.62,6.21 -5.59,2.19 -10.62,5.43 -15.35,9.06 11.42,24.25 16,52.16 9.89,78.48 -8.5,40.91 -38.55,74.63 -74.45,94.5 -17.74,10.19 -37.46,16 -57.29,20.43 28.08,5.96 57.19,-0.63 84.09,-9.16 -24.76,29.29 -64.36,41.49 -101.67,41.89 -11.93,0.35 -23.42,-3.35 -35.25,-4 17.94,15.95 36.56,32.28 48.38,53.54 -4.4,-2.57 -8.58,-5.51 -12.45,-8.78 -77.02,-60.74 -180.8,-84.84 -277.04,-67.2 -54.72,10.09 -107.66,32.66 -151.31,67.35 -3.85,3.2 -7.93,6.09 -12.23,8.63 11.75,-21.31 30.42,-37.54 48.28,-53.57 -11.77,0.65 -23.22,4.38 -35.07,4.03 -37.39,-0.35 -76.84,-12.63 -101.77,-41.77 27,8.63 55.96,14.54 84.24,9.38 -25.66,-6.04 -51.23,-14.64 -72.71,-30.39 -31.78,-21.84 -56.28,-56.18 -60.91,-95.06 -3.67,-23.17 2.44,-46.4 10.79,-67.86 -2.64,-5.28 -9.59,-6.79 -14.57,-9.48 -18.14,-8.38 -38.62,-10.59 -58.27,-7.22 8.73,-9.41 20.91,-14.42 32.1,-20.2zm100.49 157.3l0 0c21.06,33.92 61.42,52.43 100.64,52.66 -43.98,-31.07 -79.31,-73.34 -106.25,-119.74 -10.17,21.44 -7.07,47.38 5.61,67.08zm487.23 52.69l0 0c40.31,-0.28 81.95,-19.93 102.35,-55.68 11.4,-19.22 13.03,-43.43 4.2,-63.98 -27.68,45.99 -62.45,88.59 -106.55,119.66z"/>
      </g>
      <g>
       <path class="fil1" d="M133 399.79c8.81,-21.91 25.89,-41.74 48.91,-49.04 18.74,-6.26 40.28,-1.79 55.38,10.79 14.22,11.45 23.32,28.05 28.46,45.34 13.54,46.04 23.85,92.99 37.09,139.14 0.73,-1.76 2.21,-5.28 2.97,-7.04 8.5,-17.11 18.52,-34.04 33.87,-45.89 -15.22,49.54 -12.45,102.56 -4.78,153.18 2.99,22.64 9.56,44.73 19.12,65.47 -0.03,-20.73 -0.98,-41.84 4.63,-62.05 6.34,-27.9 22.22,-53.29 44.56,-71.15 -4.81,12.58 -10.97,24.73 -14.12,37.92 -10.59,41.99 -7.07,86.4 3.82,127.97 3.02,11.17 5.96,22.49 11.27,32.84 6.89,-28.08 18.72,-55.2 36.13,-78.35 -11.32,36.48 -18.9,75.83 -9.81,113.67 5.94,26.39 21.76,52.18 47.05,63.76 23.55,11.27 52.48,5.18 72.06,-11.27 -6.57,-8.71 -14.49,-16.3 -20.76,-25.24 -20.43,-28.23 -33.92,-61.37 -39.9,-95.63 -4.91,-29.36 -0.28,-62.17 20.41,-84.82 25.29,-28.26 65.16,-37.14 101.67,-36.99 10.17,-26.27 6.44,-55.33 0.83,-82.2 11.72,11.27 21.18,24.83 27.27,39.93 4.28,10.92 7.17,22.29 9.54,33.77 7.95,-5.46 12.03,-14.54 16.46,-22.74 18.24,-38.19 22.95,-82.93 13.76,-124.17 -0.91,-4.18 -1.81,-8.33 -2.57,-12.53 7.95,7.15 11.88,17.39 16.98,26.52 0.13,1.03 0.38,3.1 0.5,4.13 8.55,15.32 11.27,33.16 13.86,50.32 3.4,28.91 0.81,59.1 -11.27,85.87 4.86,2.57 9.64,5.26 14.42,8 26.12,14.29 49.94,32.53 72.06,52.41l-2.14 0c-44.38,-15.98 -91.26,-25.59 -138.51,-25.94 -27.85,0.78 -57.47,3.9 -80.97,20.3 -16.46,11.22 -25.97,30.9 -26.07,50.67 -0.3,25.79 8.4,50.85 19.98,73.59 12.91,26.04 33.79,48.18 58.98,62.7 33.89,20.96 77.27,26.02 115.11,13.64 22.77,-6.82 41.89,-21.41 59.3,-37.09 -8.43,20.76 -24.88,36.51 -40.89,51.53 72.84,14.95 148.75,14.74 221.61,0.05 -15.98,-15.12 -32.53,-30.82 -40.89,-51.68 10.49,8.3 19.83,18.17 31.7,24.61 42.85,26.29 100.24,25.31 142.79,-1.08 25.13,-14.54 45.99,-36.63 58.9,-62.65 13.41,-26.92 24.2,-57.69 18.19,-88.04 -4.48,-22.52 -23.22,-39.38 -44.26,-46.75 -33.24,-12.08 -69.52,-10.92 -104.16,-7.02 -32.26,4.05 -63.96,11.95 -94.58,22.85 -0.68,-0.13 -2.06,-0.33 -2.74,-0.45 22.77,-19.17 46.24,-37.74 72.39,-52.21 4.65,-2.47 9.28,-4.96 13.91,-7.45 -19.52,-44.61 -15.12,-96.92 3.55,-141.05 4.85,-9.61 10.01,-19.15 16.91,-27.5 -0.96,4.78 -1.99,9.51 -2.94,14.29 -8.05,34.34 -5.03,70.83 5.64,104.26 5.43,15.6 12.4,31.15 23.95,43.25 3.22,-11.5 5.76,-23.22 10.11,-34.37 6.14,-15.07 15.57,-28.66 27.3,-39.9 -5.66,26.67 -8.73,55.05 0.13,81.42 34.52,1.51 71.71,7.67 97.62,32.56 24.25,22.64 30.82,58.32 25.19,89.95 -7.88,44.43 -27.98,87.46 -60.34,119.34 10.39,12.18 27.25,17.71 42.92,18.39 22.29,1.61 43.48,-10.87 56.84,-28.08 16.71,-21.66 23.25,-49.74 22.77,-76.71 0.6,-26.72 -6.01,-52.84 -13.54,-78.27 17.74,23.22 28.76,50.7 36.68,78.6 18.67,-49.44 27.27,-104.29 15.57,-156.42 -2.92,-14.82 -9.66,-28.38 -15,-42.4 25.44,20.2 41.84,50.35 46.7,82.32 3.45,16.76 1.86,33.89 2.62,50.82 7.45,-17.99 14.27,-36.43 17.18,-55.78 9.06,-53.72 12.96,-110.1 -2.97,-162.94 15.15,12.23 25.41,29.04 33.89,46.32 0.73,1.66 2.19,5.03 2.92,6.69 12.96,-46.27 23.48,-93.22 37.01,-139.34 5.41,-18.34 15.5,-35.98 31.2,-47.35 14.67,-10.79 34.5,-14.42 51.93,-8.81 21.79,6.59 38.44,24.63 47.7,44.94 12.25,27.22 14.49,58.25 9.66,87.51 -3.5,-23.65 -12.33,-47.85 -30.97,-63.76 -10.54,-9.38 -26.34,-14.69 -39.75,-8.5 -14.06,6.39 -21.74,20.88 -26.92,34.67 -31.83,105.25 -63.43,211.17 -110.91,310.66 -1.94,4.03 -3.8,8.15 -4.55,12.61 -5.99,52.79 -19.85,104.34 -36.53,154.66 -27.78,80.56 -63.45,159.39 -114.33,228.15 -2.09,2.82 -4.25,5.91 -7.82,6.89 17.34,-39.48 30.87,-80.49 44.08,-121.5 14.89,-49.29 28.98,-99.03 37.36,-149.91 -12.68,12.18 -26.09,23.47 -40.68,33.26 -14.12,19.3 -24.83,41.01 -35.9,62.2 -42.65,83.98 -66.8,175.54 -102.91,262.25 -19.55,45.89 -44.08,90.7 -79.83,126.05 -10.37,11.22 -23.83,19.02 -34.07,30.29 30.8,-8.53 59.4,-23.85 86.38,-40.76 16.18,-10.62 31.9,-22.12 45.79,-35.63 -4.3,13.54 -15.5,23 -22.29,35.15 -24.78,28 -53.69,52.61 -86.53,70.68 -94.3,52.53 -212.61,57.89 -311.99,16.45 -46.22,-19.05 -87.31,-49.42 -120.17,-86.95 -6.84,-12.2 -18.04,-21.74 -22.39,-35.3 27.5,26.07 60.16,46.32 94.43,62.27 12.35,5.38 24.61,11.35 37.89,14.14 -3.12,-3.45 -6.26,-6.74 -9.99,-9.46 -27.83,-20.71 -50.27,-47.88 -68.56,-77.17 -29.21,-47.23 -48.18,-99.76 -66.72,-151.82 -28.88,-82.45 -57.94,-165.98 -105.45,-239.91 -4.03,-5.21 -10.21,-8.03 -15.37,-11.9 -10.01,-6.82 -18.09,-15.95 -27.38,-23.65 8.13,50.22 22.09,99.36 36.73,148.02 13.34,41.77 27.22,83.43 44.68,123.66 -3.12,-1.94 -5.94,-4.38 -7.95,-7.45 -51.6,-69.8 -87.61,-149.91 -115.54,-231.75 -14.39,-43.23 -25.92,-87.46 -33.04,-132.47 -1.64,-9.91 -1.26,-20.43 -6.04,-29.54 -47.88,-99.94 -79.66,-206.44 -111.66,-312.24 -5.23,-13.74 -12.83,-28.23 -26.85,-34.65 -13.41,-6.24 -29.24,-0.96 -39.75,8.45 -18.67,15.9 -27.63,40.08 -31.02,63.78 -4.71,-27.75 -2.69,-56.99 7.77,-83.23zm449.24 490.38l0 0c-3.55,4.05 -8.73,7.12 -10.84,12.18 1.06,20.2 4.55,40.21 9.33,59.83 9.59,37.94 22.8,75.43 42.9,109.15 -3.1,-18.24 -4.86,-36.76 -4.28,-55.28 1.64,-34.07 5.41,-69.04 18.95,-100.62 2.34,40.81 12.28,84.99 42.52,114.5 -3.92,-30.95 -1.21,-62.8 8.55,-92.49 2.44,-6.77 5.99,-13.31 5.91,-20.71 -4.38,0.75 -8.25,-2.77 -12.61,-1.74 -35.1,3.85 -70.55,-6.69 -100.44,-24.83zm452.18 24.83l0 0c-4.53,-1.48 -8.53,3.27 -12.91,1.51 0.23,2.79 0.66,5.59 1.26,8.35 13.26,32.66 18.52,69.14 12.91,104.06 6.52,-3.09 10.19,-9.71 14.42,-15.22 19.1,-29.04 26.85,-64.11 28.63,-98.4 4.76,9.56 7.02,20.13 9.86,30.39 9.33,41.04 12.28,83.99 4.75,125.55 14.07,-23.05 24.13,-48.28 32.76,-73.77 9.99,-30.77 17.61,-62.6 19.4,-94.98 -1.79,-5.18 -7.25,-8.13 -10.64,-12.28 -30.02,17.91 -65.32,28.71 -100.44,24.78zm-338.81 7.4l0 0c2.47,6.54 2.44,13.61 3.57,20.46 3.7,21.19 10.64,41.84 20.81,60.84 11.93,-21.99 18.77,-46.17 23.3,-70.63 3.17,22.42 9.13,44.64 19.7,64.74 12.91,-16.96 20.78,-37.11 25.74,-57.69 4.86,19.4 9.54,39.28 20.28,56.46 4.38,-2.32 6.29,-7.1 8.78,-11.07 8.18,-13.94 12.78,-29.54 16.66,-45.14 5.71,19.93 12.83,39.55 23,57.67 0.58,-0.1 1.69,-0.28 2.26,-0.35 9.89,-18.06 17.46,-37.41 22.47,-57.39 5.66,19.93 11.4,40.94 25.29,56.94 11.12,-17.26 15.8,-37.46 20.78,-57.11 5.06,20.38 12.45,40.76 25.74,57.34 10.72,-19.88 16.51,-42.09 19.6,-64.36 4.78,24.08 11.02,48.26 23.17,69.85 14.87,-23.85 19.88,-53.04 24.58,-80.54 -1.76,-1.01 -3.47,-1.96 -5.21,-2.89 -15.2,5.16 -31.27,6.79 -47.08,9.08 -65.87,7.15 -132.44,7.45 -198.47,2.29 -23.42,-2.49 -47.23,-4.2 -69.77,-11.37 -1.76,0.93 -3.5,1.89 -5.21,2.89zm-67.4 345.3l0 0c-1.61,11.37 6.67,23.1 18.37,24.25 -1.66,11.4 2.42,24.61 13.28,30.07 6.14,3.65 13.46,2.14 19.98,0.53 -9.79,-24.38 -15.47,-51.65 -8.81,-77.62 -10.95,6.24 -15,19.63 -20.1,30.47 -5.96,-15.93 -6.04,-33.64 -2.67,-50.14 -11.75,10.84 -18.19,26.8 -20.05,42.45zm440.43 -42.35l0 0c3.87,16.56 2.49,33.87 -1.99,50.14 -6.19,-10.39 -9.44,-24.51 -20.81,-30.44 6.87,25.92 0.93,53.16 -8.68,77.54 6.49,1.56 13.81,3.07 19.95,-0.6 10.89,-5.46 14.87,-18.72 13.31,-30.12 12.73,-1.08 20.61,-14.59 18.14,-26.52 -2.62,-14.72 -8.45,-29.97 -19.93,-40.01zm-343.92 32.43l0 0c-5.64,23.78 -6.59,48.41 -5.36,72.76 1.89,27.15 6.04,54.5 16.4,79.83 20.18,5.53 40.73,9.69 61.49,12.3 -36.76,-48.28 -57.97,-106.58 -72.54,-164.9zm251.53 54.85l0 0c-13.94,38.82 -30.97,77.29 -56.54,109.98 20.63,-2.69 41.34,-6.32 61.27,-12.45 10.97,-25.04 14.52,-52.64 16.61,-79.66 1.13,-24.38 0.48,-49.14 -5.56,-72.89 -4.4,18.57 -9.33,37.04 -15.77,55.03zm-165.23 55.35l0 0c-2.77,18.72 -2.89,38.04 1.13,56.61 9.01,0.6 18.04,1.23 27.1,1.51 -12.4,-20.1 -19.93,-42.8 -25.19,-65.72 -2.69,1.53 -2.52,4.91 -3.04,7.6zm91.84 -7.55l0 0c-5.26,22.87 -12.73,45.62 -25.19,65.64 9.03,-0.28 18.04,-0.91 27.05,-1.46 4.23,-18.49 3.9,-37.82 1.26,-56.51 -0.65,-2.72 -0.33,-6.19 -3.12,-7.67z"/>
      </g>
      <path class="fil1" d="M463.51 381.8c7.45,6.06 12.63,14.34 19.8,20.76 31.75,32.51 77.34,54.1 123.49,48.58 -22.87,14.9 -52.84,20.18 -78.5,9.51 -33.09,-13.61 -53.82,-46.12 -64.79,-78.85z"/>
      <path class="fil1" d="M1232.41 403.77c7.62,-6.77 13.26,-15.42 20.98,-22.04 -9.36,28.33 -25.84,55.71 -51.38,72.11 -26.27,17.01 -63.4,16.81 -88.56,-1.94 44.48,3.22 88.04,-16.88 118.96,-48.13z"/>
      <path class="fil1" d="M828.23 477.41c53.01,-7.72 111.56,5.03 150.84,42.97 -39.58,-19.42 -84.36,-25.21 -128.02,-24.33 -38.87,0.45 -78.22,7.27 -113.37,24.36 24.38,-23.78 57.29,-37.41 90.55,-43z"/>
      <path class="fil1" d="M807.17 571.61c52.86,-17.49 115.18,-6.67 156.62,31.35 -41.97,-20.61 -90.05,-24 -135.99,-20.25 -25.01,2.82 -50.32,7.85 -72.66,19.9 13.74,-15.1 33.01,-24.33 52.03,-31z"/>
      <path class="fil1" d="M616.21 746.96c4.68,-14.87 23.3,-21.41 37.29,-16.18 19.47,6.67 34.9,21.91 46.19,38.7 4.93,8.45 11.67,19.02 6.39,28.83 -6.82,2.87 -14.24,2.59 -21.46,2.54 8.1,8.78 19.78,12.68 30.32,17.74 -30.62,-2.24 -59.98,-16.08 -82.53,-36.68 -9.08,-9.13 -19.05,-21.13 -16.2,-34.95z"/>
      <path class="fil1" d="M1015.25 772.77c11.9,-19.12 29.34,-36.99 51.7,-42.85 16.13,-4.96 38.02,8.45 33.94,26.82 -4.63,16.33 -18.24,28.03 -31.65,37.44 -19.93,13.51 -43.15,22.74 -67.28,24.43 10.57,-5.03 22.22,-9.01 30.42,-17.74 -7.07,-0.45 -14.95,1.18 -21.21,-2.97 -5.86,-7.9 0.4,-17.69 4.08,-25.14z"/>
     </g>
     <g>
      <g>
       <path class="fil2" d="M431.58 118.73c22.34,-21.79 54.15,-30.19 84.49,-32.28 60.44,-2.62 120.02,14.92 174.51,39.85 25.44,11.2 47.96,27.75 72.34,40.84 10.84,5.03 19.78,13.21 30.24,18.9 -0.75,-1.11 -2.29,-3.35 -3.07,-4.45 -27.95,-29.26 -58.8,-55.55 -90,-81.27 41.06,8.18 80.89,24.1 115.99,47.02 -7.45,-0.43 -14.92,-0.55 -22.34,-0.08 14.06,5.96 29.39,9.44 41.82,18.8 9.06,5.86 16.33,13.94 22.97,22.32 9.28,-12.71 21.61,-23.1 35.83,-29.89 9.16,-4.96 19.58,-6.67 28.88,-11.22 -7.5,-0.48 -14.97,-0.35 -22.44,0.05 35.2,-22.8 74.98,-38.87 116.09,-47.02 -31.22,25.76 -62.17,52.06 -90.12,81.42 -0.73,1.08 -2.19,3.25 -2.92,4.33 10.39,-5.76 19.35,-13.79 30.12,-18.92 21.13,-11.2 40.68,-25.26 62.17,-35.88 48.26,-23.75 100.52,-40.43 154.31,-44.68 33.39,-1.81 68.71,1.48 97.95,19.07 24.33,14.52 40.91,40.11 46.24,67.76 5.03,19.42 2.09,39.55 3.4,59.33 -4.73,28.71 -14.64,56.31 -21.64,84.46 21.16,-31.98 37.51,-67.1 50.02,-103.33 -0.4,1.33 -1.21,4.03 -1.61,5.38 16.53,2.34 30.47,13.11 40.28,26.19 12.03,16.1 20.03,35.2 23.6,54.98 -15.55,28.36 -29.06,57.92 -38.9,88.79 14.97,-25.11 30.57,-50.37 51.5,-71 27.78,-19.85 59.53,-36.03 93.95,-39.55 30.82,-3.15 62.25,10.11 82.3,33.59 28.76,33.16 40.66,77.32 45.67,120.04 2.99,20.58 0.83,41.36 2.21,62.02 -11.6,82.02 -31.38,162.71 -52.99,242.62 -28.78,104.59 -61.97,207.98 -99.76,309.65 -1.79,4.71 -3.3,9.56 -5.94,13.89 -10.69,16.81 -13.76,37.41 -24.56,54.04 -0.25,-1.51 -0.73,-4.5 -0.98,-6.01 34.22,-105.55 60.03,-213.91 75.98,-323.74 8.68,-66.07 14.95,-132.97 9.44,-199.6 -3.4,-37.87 -9.79,-76.74 -29.11,-110.08 -6.16,-11.12 -15.27,-20.03 -23.4,-29.61 5.18,-13.79 12.86,-28.28 26.92,-34.67 13.41,-6.19 29.21,-0.88 39.75,8.5 18.64,15.9 27.48,40.11 30.97,63.76 4.83,-29.26 2.59,-60.28 -9.66,-87.51 -9.26,-20.3 -25.92,-38.34 -47.7,-44.94 -17.44,-5.61 -37.26,-1.99 -51.93,8.81 -15.7,11.37 -25.79,29.01 -31.2,47.35 -13.54,46.12 -24.05,93.07 -37.01,139.34 -0.73,-1.66 -2.19,-5.03 -2.92,-6.69 1.59,-4.53 2.82,-9.33 1.66,-14.11 -7.65,-50.09 -43.4,-96.69 -92.04,-112.74 17.39,32.16 23.55,69.02 24.08,105.25 0.23,17.99 -0.55,36.1 -4.15,53.79 -7.32,-7.15 -12.71,-16 -20.38,-22.77 -17.84,-16.58 -39.98,-28.23 -63.4,-34.6 -5.28,-1.53 -10.82,-1.74 -16.25,-1.89 23.85,25.94 36.99,59.61 45.74,93.22 5.84,26.52 9.86,54.09 6.06,81.22 -6.39,-22.04 -15.65,-43.91 -31.9,-60.54 -17.18,-19.52 -40.43,-33.72 -65.87,-39.28 -18.87,-3.65 -39.75,-3.1 -56.61,7.02 -3.95,1.76 -9.16,6.79 -12.76,1.79 -15.2,-14.74 -20.23,-37.24 -18.57,-57.79 -0.48,0.58 -1.41,1.74 -1.89,2.31 -11.73,11.25 -21.16,24.83 -27.3,39.9 -28.56,-30.27 -36.63,-73.09 -39.7,-113.15 0.96,-4.78 1.99,-9.51 2.94,-14.29 -6.89,8.35 -12.05,17.89 -16.91,27.5 -26.14,45.09 -36.13,100.31 -23.05,151.14 1.38,-0.65 4.18,-1.96 5.59,-2.64 -26.14,14.47 -49.62,33.04 -72.39,52.21 0.68,0.13 2.06,0.33 2.74,0.45 2.47,0.5 4.98,0.48 7.42,-0.25 23.8,-5.64 48.16,-8.68 72.49,-10.94 37.97,-1.49 77.92,-2.79 113.22,13.64 18.29,8.1 33.79,23.53 39.15,43.13 6.72,24.51 0.58,49.99 -7.47,73.39 -12.91,26.02 -33.77,48.11 -58.9,62.65 -16,0.73 -31.9,4.43 -47.96,2.64 -43,-2.79 -84.59,-24.2 -111.03,-58.32 -18.17,-22.54 -29.04,-50.2 -33.76,-78.58 -6.49,4.55 -9.79,11.95 -13.06,18.92 -9.71,22.02 -14.07,45.94 -16.51,69.75 -10.27,-8.33 -16.2,-20.18 -21.11,-32.15 -0.48,0.02 -1.46,0.08 -1.94,0.1 -4.93,11.85 -10.77,23.75 -21.06,31.9 -3.8,-30.95 -8.98,-63.93 -28.68,-89.22 -5.08,16.76 -7.95,34.32 -16.33,49.94 -22.72,48.96 -72.94,83.36 -126.68,87.38 -16.93,2.09 -33.77,-1.28 -50.62,-2.34 -25.19,-14.52 -46.07,-36.66 -58.98,-62.7 -7.25,-21.16 -12.91,-43.6 -9.16,-66.07 2.84,-17.34 13.16,-33.21 27.75,-42.97 19.32,-13.08 42.7,-18.32 65.59,-20.81 42.6,-3.17 85.52,0.5 127.29,9.33 4.61,1.08 9.28,2.19 14.09,1.89l2.14 0c-22.12,-19.88 -45.94,-38.12 -72.06,-52.41 1.36,-0.05 4.08,-0.1 5.46,-0.15 1.79,-7.72 4,-15.6 2.87,-23.63 0.63,-0.25 1.89,-0.76 2.52,-1.01 -0.78,-11.32 0.48,-22.67 -0.43,-33.97 -2.69,-31.4 -12.18,-62.27 -27.93,-89.57 -5.11,-9.13 -9.03,-19.37 -16.98,-26.52 0.76,4.2 1.66,8.35 2.57,12.53 -3.2,40.01 -10.97,83.03 -39.75,113.15 -6.09,-15.1 -15.55,-28.66 -27.27,-39.93 -0.48,-0.58 -1.43,-1.74 -1.91,-2.31 1.64,19.47 -2.84,40.18 -15.78,55.28 -2.64,3.02 -6.79,7.02 -10.72,3.45 -15.25,-10.04 -34.09,-13.46 -52.08,-11.1 -29.77,3.37 -56.94,19.73 -76.39,42.17 -16.1,16.13 -23.9,37.92 -31.02,59.03 -4.03,-41.74 4.28,-84.11 20.1,-122.71 7.8,-18.89 18.37,-36.66 32.21,-51.75 -13.59,-0.28 -26.57,4.53 -38.85,9.86 -16.18,7.07 -31.02,17.06 -43.75,29.29 -6.24,6.37 -11.22,13.84 -17.66,20.05 -6.42,-34.47 -5.11,-70.12 0.93,-104.54 2.99,-19.2 10.62,-37.06 19.05,-54.4 -49.21,16.4 -85.24,63.73 -92.29,114.61 -0.85,4.1 0.78,8.05 2.11,11.88 -0.76,1.76 -2.24,5.28 -2.97,7.04 -13.23,-46.14 -23.55,-93.09 -37.09,-139.14 -5.13,-17.29 -14.24,-33.89 -28.46,-45.34 -15.1,-12.58 -36.63,-17.06 -55.38,-10.79 -23.02,7.3 -40.11,27.12 -48.91,49.04 -10.47,26.24 -12.48,55.48 -7.77,83.23 3.4,-23.7 12.35,-47.88 31.02,-63.78 10.52,-9.41 26.34,-14.69 39.75,-8.45 14.01,6.42 21.61,20.91 26.85,34.65 -7.62,9.31 -16.61,17.59 -22.57,28.15 -9.74,16.91 -16.83,35.3 -21.24,54.3 -9.61,40.31 -11.12,82.02 -10.77,123.29 3.35,113.05 24.33,224.78 51.73,334.23 11.75,45.09 24.51,89.95 39.48,134.08 2.09,6.42 5.13,12.71 5.61,19.55l-2.77 2.52c-40.46,-94.45 -73.62,-191.9 -104.29,-289.92 -37.74,-122.31 -70.68,-246.45 -89.57,-373.18l0.91 -0.88c5.39,-5.84 1.49,-15.32 2.72,-22.67 2.26,-46.95 12.43,-95.66 40.48,-134.33 18.19,-25.31 47.76,-42.29 79.21,-42.45 38.04,0.75 73.57,18.37 103.94,40.13 20.83,20.61 36.63,45.69 51.25,70.93 -9.49,-30.92 -23.22,-60.38 -38.7,-88.72 4.03,-22.14 13.41,-43.65 28.28,-60.69 9.18,-10.52 21.59,-18.49 35.55,-20.58 -0.28,-1.18 -0.83,-3.55 -1.11,-4.73l-0.08 -0.38c11.85,36.33 28.78,71.08 49.54,103.13 -6.77,-28.15 -16.86,-55.76 -21.54,-84.44 1.33,-17.44 -1.31,-35.02 1.99,-52.31 3.7,-23 13.38,-45.67 30.67,-61.74zm32.51 22.42l0 0c-11.2,5.79 -23.37,10.79 -32.1,20.2 19.65,-3.37 40.13,-1.16 58.27,7.22 -6.99,5.51 -15.73,8.1 -22.87,13.36 -15.12,10.79 -26.8,26.7 -31.85,44.63 13.16,-10.01 24.38,-23.68 40.71,-28.66 -7.67,11.07 -18.04,20.38 -23.22,33.06 -12.2,24.61 -13.59,53.99 -3.85,79.68 15.05,42.19 52.96,72.94 94.6,87.01 31.78,11.27 66.35,12.96 99.56,8.15l1.86 -2.06c11.85,0.35 23.3,-3.37 35.07,-4.03 -17.86,16.03 -36.53,32.26 -48.28,53.57 4.3,-2.54 8.38,-5.43 12.23,-8.63 7.1,-1.33 13.06,-5.54 19.47,-8.53 27.9,-13.31 57.32,-23.35 87.38,-30.32 4.18,-1.08 8.48,-1.48 12.81,-1.18 -11.55,8.13 -25.94,11.9 -35.95,22.34 24,-10.06 49.19,-17.41 75.03,-20.73 49.09,-6.99 99.61,-4.96 147.72,7.3 10.72,2.47 20.66,7.72 31.65,9.11 -8,-8.63 -20.36,-10.64 -28.96,-18.24 8.28,-0.3 16.15,2.49 24.1,4.38 26.27,6.19 51.63,15.85 75.96,27.48 6.31,2.92 12.25,6.82 19.15,8.25 3.87,3.27 8.05,6.21 12.45,8.78 -11.82,-21.26 -30.44,-37.59 -48.38,-53.54 11.83,0.65 23.32,4.35 35.25,4l1.69 1.99c50.32,8.08 104.79,-1.53 146.11,-32.41 27.63,-19.95 48.61,-50.25 53.52,-84.34 4.18,-25.94 -3.72,-52.89 -18.95,-74 -4.33,-5.89 -9.74,-10.97 -13.54,-17.23 16.08,5.43 27.7,18.47 40.56,28.88 -4.3,-16.88 -15.25,-31.75 -28.71,-42.55 -7.8,-6.59 -17.99,-9.21 -25.89,-15.55 19.2,-8.78 41.04,-10.99 61.62,-6.21 -12.4,-9.23 -25.71,-17.21 -40.16,-22.85 -5.36,-4.7 -13.18,-4.5 -19.58,-6.97 -31.83,-8.48 -65.89,2.52 -90.8,22.97 -40.08,31.05 -64.06,76.84 -95.86,115.23 -6.54,-19.7 -19.2,-41.69 -40.94,-46.47l-0.53 -0.63c4.05,17.18 10.14,35.1 5.36,52.84 -2.74,16.96 -16,31.6 -32.66,35.85 -13.81,2.59 -28.93,1.33 -40.73,-6.89 -16.83,-10.27 -23.48,-31.17 -22.22,-49.99 -13.91,15.73 -13.61,39.98 -6.99,58.77 -3.77,-0.91 -7.75,-1.38 -11.05,-3.55 -16.05,-9.96 -28.43,-25.97 -33.24,-44.31 -7.67,21.59 -22.95,41.64 -45.24,49.44 6.09,-19.25 7.95,-44.33 -7.05,-59.96 0.75,13.51 -1.89,27.83 -10.32,38.75 -9.99,13.28 -27.15,20.35 -43.6,18.77 -20.25,-0.05 -37.97,-16.73 -41.51,-36.28 -5.18,-17.94 1.23,-36.13 5.43,-53.49l-0.6 0.73c-21.74,4.65 -34.37,26.75 -40.99,46.37 -29.24,-35.2 -51.53,-76.39 -86.07,-107.08 -13.94,-12.3 -29.54,-23.22 -47.38,-28.91 -25.24,-8.81 -53.87,-5.36 -77.49,6.47zm-0.58 240.66l0 0c10.97,32.73 31.7,65.24 64.79,78.85 25.66,10.67 55.63,5.38 78.5,-9.51 -46.14,5.51 -91.74,-16.08 -123.49,-48.58 -7.17,-6.42 -12.35,-14.69 -19.8,-20.76zm768.9 21.96l0 0c-30.92,31.25 -74.47,51.35 -118.96,48.13 25.16,18.74 62.3,18.95 88.56,1.94 25.54,-16.4 42.02,-43.78 51.38,-72.11 -7.72,6.62 -13.36,15.27 -20.98,22.04zm-404.18 73.64l0 0c-33.26,5.59 -66.17,19.22 -90.55,43 35.15,-17.08 74.5,-23.9 113.37,-24.36 43.65,-0.88 88.44,4.91 128.02,24.33 -39.28,-37.94 -97.82,-50.7 -150.84,-42.97zm-21.06 94.2l0 0c-19.02,6.67 -38.29,15.9 -52.03,31 22.34,-12.05 47.65,-17.08 72.66,-19.9 45.94,-3.75 94.02,-0.35 135.99,20.25 -41.44,-38.02 -103.76,-48.84 -156.62,-31.35zm-190.97 175.34l0 0c-2.84,13.81 7.12,25.81 16.2,34.95 22.54,20.61 51.91,34.44 82.53,36.68 -10.54,-5.06 -22.22,-8.96 -30.32,-17.74 7.22,0.05 14.64,0.33 21.46,-2.54 5.28,-9.81 -1.46,-20.38 -6.39,-28.83 -11.3,-16.78 -26.72,-32.03 -46.19,-38.7 -13.99,-5.23 -32.61,1.31 -37.29,16.18zm399.04 25.81l0 0c-3.67,7.45 -9.94,17.23 -4.08,25.14 6.26,4.15 14.14,2.52 21.21,2.97 -8.2,8.73 -19.85,12.71 -30.42,17.74 24.13,-1.69 47.35,-10.92 67.28,-24.43 13.41,-9.41 27.02,-21.11 31.65,-37.44 4.08,-18.37 -17.81,-31.78 -33.94,-26.82 -22.37,5.86 -39.8,23.73 -51.7,42.85z"/>
      </g>
      <path class="fil2" d="M415.65 887.2c9.28,7.7 17.36,16.83 27.38,23.65 5.16,3.87 11.35,6.69 15.37,11.9 47.5,73.92 76.56,157.45 105.45,239.91 18.54,52.06 37.51,104.59 66.72,151.82 18.29,29.29 40.74,56.46 68.56,77.17 3.72,2.72 6.87,6.01 9.99,9.46 -13.28,-2.79 -25.54,-8.76 -37.89,-14.14 -34.27,-15.95 -66.93,-36.21 -94.43,-62.27 -4.88,-8.96 -11.37,-16.86 -16.71,-25.51 -26.72,-42.65 -45.89,-89.37 -65.06,-135.72 0.4,-1.58 3.22,-2.82 2.04,-4.58 -17.46,-40.23 -31.35,-81.9 -44.68,-123.66 -14.64,-48.66 -28.61,-97.8 -36.73,-148.02z"/>
      <path class="fil2" d="M1260.72 920.26c14.59,-9.79 28,-21.09 40.68,-33.26 -8.38,50.87 -22.47,100.62 -37.36,149.91 -13.21,41.01 -26.75,82.02 -44.08,121.5 -0.1,0.33 -0.35,0.96 -0.48,1.28 0.78,1.48 1.61,2.97 2.49,4.48 -20.78,48.11 -40.23,97.22 -69.14,141.2 -4.38,6.32 -9.03,12.48 -12.66,19.3 -13.89,13.51 -29.61,25.01 -45.79,35.63 -26.97,16.91 -55.58,32.23 -86.38,40.76 10.24,-11.27 23.7,-19.07 34.07,-30.29 35.75,-35.35 60.29,-80.16 79.83,-126.05 36.1,-86.7 60.26,-178.26 102.91,-262.25 11.07,-21.19 21.79,-42.9 35.9,-62.2z"/>
      <path class="fil2" d="M599.2 1359.99c32.86,37.54 73.95,67.91 120.17,86.95 99.38,41.44 217.69,36.08 311.99,-16.45 32.83,-18.07 61.74,-42.67 86.53,-70.68 -1.94,5.51 -5.76,9.91 -9.96,13.86 -7.52,7.15 -12.05,16.61 -17.51,25.29 -25.46,41.11 -63.86,73.77 -107.79,93.8 -90.3,42.02 -202.44,34.92 -285.42,-20.78 -32.1,-21.97 -59.25,-51.13 -78.1,-85.22 -4.93,-10.24 -15.8,-16.08 -19.9,-26.77z"/>
     </g>
     <g>
      <path class="fil3" d="M490.25 168.57c4.98,2.69 11.93,4.2 14.57,9.48 -8.35,21.46 -14.47,44.69 -10.79,67.86 4.63,38.87 29.13,73.22 60.91,95.06 21.49,15.75 47.05,24.36 72.71,30.39 -28.28,5.16 -57.24,-0.75 -84.24,-9.38 24.93,29.14 64.39,41.41 101.77,41.77l-1.86 2.06c-33.21,4.81 -67.78,3.12 -99.56,-8.15 -41.64,-14.07 -79.56,-44.81 -94.6,-87.01 -9.74,-25.69 -8.35,-55.08 3.85,-79.68 5.18,-12.68 15.55,-21.99 23.22,-33.06 -16.33,4.98 -27.55,18.64 -40.71,28.66 5.06,-17.94 16.73,-33.84 31.85,-44.63 7.15,-5.26 15.88,-7.85 22.87,-13.36z"/>
      <path class="fil3" d="M1211.33 177.6c4.73,-3.62 9.76,-6.87 15.35,-9.06 7.9,6.34 18.09,8.96 25.89,15.55 13.46,10.79 24.41,25.66 28.71,42.55 -12.86,-10.42 -24.48,-23.45 -40.56,-28.88 3.8,6.26 9.21,11.35 13.54,17.23 15.22,21.11 23.12,48.06 18.95,74 -4.91,34.09 -25.89,64.39 -53.52,84.34 -41.31,30.87 -95.79,40.48 -146.11,32.41l-1.69 -1.99c37.31,-0.4 76.92,-12.61 101.67,-41.89 -26.9,8.53 -56.01,15.12 -84.09,9.16 19.83,-4.43 39.55,-10.24 57.29,-20.43 35.9,-19.88 65.94,-53.59 74.45,-94.5 6.11,-26.32 1.54,-54.22 -9.89,-78.48z"/>
      <path class="fil3" d="M795.52 377.3c96.24,-17.64 200.03,6.47 277.04,67.2 -6.89,-1.43 -12.83,-5.33 -19.15,-8.25 -24.33,-11.62 -49.69,-21.29 -75.96,-27.48 -7.95,-1.89 -15.83,-4.68 -24.1,-4.38 8.6,7.6 20.96,9.61 28.96,18.24 -11,-1.38 -20.93,-6.64 -31.65,-9.11 -48.11,-12.25 -98.63,-14.29 -147.72,-7.3 -25.84,3.32 -51.03,10.67 -75.03,20.73 10.01,-10.44 24.41,-14.22 35.95,-22.34 -4.33,-0.3 -8.63,0.1 -12.81,1.18 -30.07,6.97 -59.48,17.01 -87.38,30.32 -6.42,2.99 -12.38,7.2 -19.47,8.53 43.65,-34.7 96.59,-57.27 151.31,-67.35z"/>
      <path class="fil3" d="M303.69 527.11c7.05,-50.88 43.07,-98.2 92.29,-114.61 -8.43,17.34 -16.05,35.2 -19.05,54.4 -6.04,34.42 -7.35,70.07 -0.93,104.54 6.44,-6.21 11.42,-13.69 17.66,-20.05 12.73,-12.23 27.58,-22.22 43.75,-29.29 12.28,-5.33 25.26,-10.14 38.85,-9.86 -13.84,15.1 -24.41,32.86 -32.21,51.75 -15.83,38.6 -24.13,80.97 -20.1,122.71 7.12,-21.11 14.92,-42.9 31.02,-59.03 19.45,-22.44 46.62,-38.8 76.39,-42.17 17.99,-2.36 36.84,1.06 52.08,11.1 3.92,3.57 8.08,-0.43 10.72,-3.45 12.93,-15.1 17.41,-35.8 15.78,-55.28 0.48,0.58 1.43,1.74 1.91,2.31 5.61,26.87 9.33,55.93 -0.83,82.2 -36.51,-0.15 -76.39,8.73 -101.67,36.99 -20.68,22.64 -25.31,55.45 -20.41,84.82 5.99,34.27 19.47,67.4 39.9,95.63 6.26,8.93 14.19,16.53 20.76,25.24 -19.58,16.46 -48.51,22.54 -72.06,11.27 -25.29,-11.57 -41.11,-37.36 -47.05,-63.76 -9.08,-37.84 -1.51,-77.19 9.81,-113.67 -17.41,23.15 -29.24,50.27 -36.13,78.35 -5.31,-10.34 -8.25,-21.66 -11.27,-32.84 -10.89,-41.56 -14.42,-85.97 -3.82,-127.97 3.15,-13.18 9.31,-25.34 14.12,-37.92 -22.34,17.86 -38.22,43.25 -44.56,71.15 -5.61,20.2 -4.65,41.31 -4.63,62.05 -9.56,-20.73 -16.13,-42.82 -19.12,-65.47 -7.67,-50.62 -10.44,-103.64 4.78,-153.18 -15.35,11.85 -25.36,28.78 -33.87,45.89 -1.33,-3.82 -2.97,-7.77 -2.11,-11.88z"/>
      <path class="fil3" d="M1320.95 412.52c48.64,16.05 84.39,62.65 92.04,112.74 1.16,4.78 -0.08,9.59 -1.66,14.11 -8.48,-17.28 -18.74,-34.09 -33.89,-46.32 15.93,52.84 12.03,109.22 2.97,162.94 -2.92,19.35 -9.74,37.79 -17.18,55.78 -0.75,-16.93 0.83,-34.07 -2.62,-50.82 -4.86,-31.98 -21.26,-62.12 -46.7,-82.32 5.33,14.01 12.08,27.58 15,42.4 11.7,52.13 3.09,106.98 -15.57,156.42 -7.93,-27.9 -18.95,-55.38 -36.68,-78.6 7.52,25.44 14.14,51.55 13.54,78.27 0.48,26.97 -6.06,55.05 -22.77,76.71 -13.36,17.21 -34.55,29.69 -56.84,28.08 -15.67,-0.68 -32.53,-6.21 -42.92,-18.39 32.36,-31.88 52.46,-74.9 60.34,-119.34 5.64,-31.63 -0.93,-67.3 -25.19,-89.95 -25.92,-24.88 -63.1,-31.05 -97.62,-32.56 -8.86,-26.37 -5.79,-54.75 -0.13,-81.42 0.48,-0.58 1.41,-1.74 1.89,-2.31 -1.66,20.56 3.37,43.05 18.57,57.79 3.6,5.01 8.81,-0.03 12.76,-1.79 16.86,-10.11 37.74,-10.67 56.61,-7.02 25.44,5.56 48.69,19.75 65.87,39.28 16.25,16.63 25.51,38.5 31.9,60.54 3.8,-27.12 -0.23,-54.7 -6.06,-81.22 -8.76,-33.61 -21.89,-67.28 -45.74,-93.22 5.43,0.15 10.97,0.35 16.25,1.89 23.42,6.37 45.57,18.02 63.4,34.6 7.67,6.77 13.06,15.63 20.38,22.77 3.6,-17.69 4.38,-35.8 4.15,-53.79 -0.53,-36.23 -6.69,-73.09 -24.08,-105.25z"/>
      <path class="fil3" d="M222.85 445.43c32,105.8 63.78,212.3 111.66,312.24 4.78,9.11 4.4,19.63 6.04,29.54 7.12,45.01 18.64,89.24 33.04,132.47 27.93,81.85 63.93,161.96 115.54,231.75 2.01,3.07 4.83,5.51 7.95,7.45 1.18,1.76 -1.64,2.99 -2.04,4.58 19.17,46.35 38.34,93.07 65.06,135.72 5.33,8.65 11.83,16.56 16.71,25.51 4.35,13.56 15.55,23.1 22.39,35.3 4.1,10.69 14.97,16.53 19.9,26.77 18.85,34.09 45.99,63.25 78.1,85.22 82.98,55.7 195.12,62.8 285.42,20.78 43.93,-20.03 82.32,-52.69 107.79,-93.8 5.46,-8.68 9.99,-18.14 17.51,-25.29 4.2,-3.95 8.03,-8.35 9.96,-13.86 6.79,-12.15 17.99,-21.61 22.29,-35.15 3.62,-6.82 8.28,-12.98 12.66,-19.3 28.91,-43.98 48.36,-93.09 69.14,-141.2 -0.88,-1.51 -1.71,-2.99 -2.49,-4.48 0.13,-0.33 0.38,-0.96 0.48,-1.28 3.57,-0.98 5.74,-4.08 7.82,-6.89 50.87,-68.76 86.55,-147.59 114.33,-228.15 16.68,-50.32 30.55,-101.87 36.53,-154.66 0.75,-4.45 2.62,-8.58 4.55,-12.61 47.48,-99.48 79.08,-205.41 110.91,-310.66 8.13,9.59 17.23,18.49 23.4,29.61 19.32,33.34 25.71,72.21 29.11,110.08 5.51,66.63 -0.75,133.53 -9.44,199.6 -15.95,109.83 -41.77,218.19 -75.98,323.74 0.25,1.51 0.73,4.5 0.98,6.01 10.79,-16.63 13.86,-37.24 24.56,-54.04 -0.35,2.82 -0.98,5.56 -1.91,8.25 -17.34,44.03 -34.75,88.11 -55.86,130.51 -5.99,11.15 -11.32,22.74 -18.74,33.04 31.05,-95.61 51.53,-194.57 61.62,-294.58 3.62,-37.49 7.42,-75.08 6.89,-112.79 -30.39,95.69 -67.56,189.28 -111.76,279.43 -44.41,91.21 -96.29,178.59 -152.09,263.23 -16.33,23.9 -31.55,48.71 -49.31,71.53 9.91,-43.88 17.79,-88.61 16.86,-133.8 -25.84,76.11 -59.63,150.86 -110.78,213.54 -30.55,37.62 -67.76,70.7 -111.51,92.11 -38.92,19.53 -83.51,28.23 -126.86,23.05 -49.16,-5.69 -95.03,-28.56 -133,-59.71 -58.3,-47.81 -99.84,-112.82 -131.14,-180.7 -13.18,-28.68 -24.43,-58.25 -34.17,-88.26 -1.36,31.3 2.64,62.6 7.95,93.42 2.16,13.59 6.54,26.72 8.38,40.38 -16.51,-21.39 -30.82,-44.46 -46.09,-66.75 -54.87,-83.05 -106.2,-168.6 -150.18,-257.94 -46.77,-93.22 -84.92,-190.57 -117.1,-289.67 0.18,31.05 2.19,62.1 5.31,92.99 9.31,106.81 30.29,212.68 63.61,314.63 -18.54,-28.13 -31.3,-59.58 -45.14,-90.2l0.63 -0.58 2.77 -2.52c-0.48,-6.84 -3.52,-13.13 -5.61,-19.55 -14.97,-44.13 -27.73,-88.99 -39.48,-134.08 -27.4,-109.45 -48.38,-221.19 -51.73,-334.23 -0.35,-41.26 1.16,-82.98 10.77,-123.29 4.4,-19 11.5,-37.39 21.24,-54.3 5.96,-10.57 14.95,-18.85 22.57,-28.15z"/>
      <path class="fil3" d="M678.88 466.97c9.18,41.24 4.48,85.97 -13.76,124.17 -4.43,8.2 -8.5,17.29 -16.46,22.74 -2.36,-11.47 -5.26,-22.85 -9.54,-33.77 28.78,-30.12 36.56,-73.14 39.75,-113.15z"/>
      <path class="fil3" d="M1043.68 571.29c-10.67,-33.44 -13.69,-69.92 -5.64,-104.26 3.07,40.05 11.15,82.88 39.7,113.15 -4.35,11.15 -6.89,22.87 -10.11,34.37 -11.55,-12.1 -18.52,-27.65 -23.95,-43.25z"/>
      <path class="fil3" d="M791.45 777.98c8.38,-15.63 11.25,-33.19 16.33,-49.94 19.7,25.29 24.88,58.27 28.68,89.22 10.29,-8.15 16.13,-20.05 21.06,-31.9 0.48,-0.02 1.46,-0.08 1.94,-0.1 4.91,11.98 10.84,23.83 21.11,32.15 2.44,-23.8 6.79,-47.73 16.51,-69.75 3.27,-6.97 6.57,-14.37 13.06,-18.92 4.73,28.38 15.6,56.03 33.76,78.58 26.44,34.12 68.03,55.53 111.03,58.32 16.05,1.79 31.95,-1.91 47.96,-2.64 -42.55,26.39 -99.94,27.38 -142.79,1.08 -11.88,-6.44 -21.21,-16.3 -31.7,-24.61 8.35,20.86 24.91,36.56 40.89,51.68 -72.86,14.69 -148.77,14.9 -221.61,-0.05 16,-15.02 32.46,-30.77 40.89,-51.53 -17.41,15.67 -36.53,30.27 -59.3,37.09 -37.84,12.38 -81.22,7.32 -115.11,-13.64 16.86,1.06 33.69,4.43 50.62,2.34 53.74,-4.03 103.96,-38.42 126.68,-87.38z"/>
     </g>
    </g>
    <path class="fil4 str0" d="M1421.14 159.71c22.52,16.83 33.34,44.28 40.48,70.55 30.02,-30.29 70.05,-55.03 113.98,-54.37 30.69,-0.25 59.96,15.32 79.78,38.24 26.02,29.66 39.15,68.21 46.45,106.4 9.74,53.32 7.93,107.99 2.94,161.71 -9.26,87.03 -31.15,172.32 -60.31,254.7 22.74,35.3 33.11,76.86 40.61,117.73 8.48,50.8 11.42,102.93 4.88,154.13 -5.16,37.11 -20.3,71.93 -36.83,105.27 -31.48,61.37 -71.71,117.85 -115.59,170.94 -88.26,105.85 -192.58,198.21 -307.69,273.9 -109.22,71.63 -229.29,127.72 -356.2,159.44 -6.69,1.31 -13.46,4.81 -20.28,2.52 -186.89,-44.96 -358.49,-141.78 -504.54,-265.39 -70.85,-60.13 -136.17,-126.96 -193.36,-200.25 -34.04,-43.86 -65.32,-90.05 -90.78,-139.44 -19.32,-38.37 -36.31,-79.05 -39.55,-122.36 -4.55,-58.9 0.45,-118.56 14.59,-175.92 7.35,-28.05 16.66,-56.16 32.76,-80.54 -36.13,-102.76 -62.12,-210.34 -64.16,-319.69 -1.03,-51.02 3.3,-103.21 22.19,-151.06 12.45,-31.43 32.81,-61.44 63.08,-77.97 26.87,-15.02 60.08,-15.75 88.79,-5.74 27.8,9.59 52.56,26.92 72.99,47.88 6.99,-26.55 18.12,-54.25 40.94,-71.05 17.34,-12.83 40.36,-14.57 60.79,-9.41 -2.79,-36.46 4.08,-76.11 29.29,-104.04 22.22,-25.39 56.51,-36.99 89.55,-37.61 48.48,-1.06 95.51,15.5 138.18,37.29 6.67,3.12 12.71,7.75 19.85,9.79 35.25,-4.38 71.1,-3.07 106.23,2.09 41.16,6.37 82.4,17.54 118.25,39.38 44.68,-26.9 96.87,-38.14 148.27,-42.87 25.94,-1.94 52.06,-1.41 77.87,1.21 39.27,-21.49 81.24,-39.83 126.05,-45.34 32.84,-4.15 68.08,-0.91 96.79,16.73 24.1,14.52 40.96,39.32 47.85,66.4 4.93,18.54 5.81,37.89 4.58,56.99 20.58,-5.21 43.91,-3.37 61.27,9.79z"/>
   </g>
   <path class="fil4 str1" d="M568.36 246.83c-4.15,36.6 12.37,68.27 49.56,95.02"/>
   <path class="fil4 str1" d="M1143.46 254.83c1.86,37.67 -12.69,66.57 -43.66,86.7"/>
   <path class="fil5" d="M665.22 351.11c-39.04,-27.58 -71.26,-63.99 -96.86,-104.28 -4.15,36.6 12.37,68.27 49.56,95.02 15.02,6.01 31.26,9.17 47.3,9.26z"/>
   <path class="fil5" d="M1143.46 254.83c-25,36.93 -55.12,70.57 -91.65,96.3 16.28,-0.11 32.77,-3.38 47.99,-9.6 30.96,-20.14 45.51,-49.04 43.66,-86.7z"/>
   <path class="fil6" d="M1143.46 254.83c1.86,37.67 -12.69,66.57 -43.66,86.7 22.48,-9.18 42.19,-24.77 54.36,-46.08 11.4,-19.22 13.03,-43.43 4.2,-63.98 -4.75,7.9 -9.72,15.7 -14.9,23.36z"/>
   <path class="fil6" d="M617.92 341.85c-37.19,-26.75 -53.71,-58.42 -49.56,-95.02 -3.24,-5.09 -6.37,-10.25 -9.39,-15.46 -10.17,21.44 -7.07,47.38 5.61,67.08 12.45,20.04 31.63,34.71 53.34,43.4z"/>
  </g>
 </g>
</svg>
