<?xml version="1.0" encoding="UTF-8"?>
<!DOCTYPE svg PUBLIC "-//W3C//DTD SVG 1.1//EN" "http://www.w3.org/Graphics/SVG/1.1/DTD/svg11.dtd">
<!-- Creator: CorelDRAW 2018 (64-Bit) -->
<svg xmlns="http://www.w3.org/2000/svg" xml:space="preserve" width="0.402846in" height="0.470157in" version="1.1" style="shape-rendering:geometricPrecision; text-rendering:geometricPrecision; image-rendering:optimizeQuality; fill-rule:evenodd; clip-rule:evenodd"
viewBox="0 0 3.03 3.53"
 xmlns:xlink="http://www.w3.org/1999/xlink">
 <defs>
  <style type="text/css">
   <![CDATA[
    .str0 {stroke:white;stroke-width:0.05;stroke-miterlimit:2.61313}
    .str1 {stroke:#2B2A29;stroke-width:0;stroke-miterlimit:2.61313}
    .fil5 {fill:none}
    .fil7 {fill:#C79933}
    .fil6 {fill:#FBEB58}
    .fil1 {fill:#FEFEFE;fill-rule:nonzero}
    .fil2 {fill:#898989;fill-rule:nonzero}
    .fil3 {fill:#BC6A56;fill-rule:nonzero}
    .fil4 {fill:#984C37;fill-rule:nonzero}
    .fil0 {fill:#222223;fill-rule:nonzero}
   ]]>
  </style>
 </defs>
 <g id="Layer_x0020_1">
  <metadata id="CorelCorpID_0Corel-Layer"/>
  <g id="_1011836432">
   <g>
    <g>
     <path class="fil0" d="M2.47 2c0,-0.02 0.01,-0.03 0.01,-0.05 0.02,-0 0.03,-0 0.05,0 0.03,0.01 0.06,0.01 0.09,0.03 -0.05,0.01 -0.1,0.01 -0.15,0.01zm-0.05 -0.4c-0,-0 -0.01,-0.01 -0.01,-0.01 -0.01,-0.01 -0.02,-0.02 -0.04,-0.03 0.01,0.05 0.03,0.1 0.03,0.16 0.01,0.07 -0.01,0.15 -0.03,0.22 -0.01,0.03 -0.03,0.06 -0.05,0.08 -0,-0.02 -0,-0.04 -0.01,-0.07 -0,-0.03 -0.01,-0.07 -0.02,-0.1 -0.01,-0.06 -0.04,-0.13 -0.07,-0.19 -0.03,-0.06 -0.07,-0.11 -0.1,-0.16 0.05,-0.02 0.1,-0.06 0.11,-0.11 -0.03,0.01 -0.06,0.03 -0.09,0.03 -0.02,0 -0.05,0 -0.07,-0 0.03,-0.01 0.05,-0.02 0.08,-0.04 0.02,-0.01 0.04,-0.03 0.05,-0.04 0.03,-0.03 0.05,-0.06 0.07,-0.1 0.01,-0.02 0.02,-0.05 0.01,-0.07 -0.01,-0.02 -0.04,-0.03 -0.05,-0.05 0.03,-0.02 0.06,-0 0.09,0 -0.02,-0.06 -0.07,-0.09 -0.13,-0.1 -0.04,-0.01 -0.09,0.01 -0.13,0.02 -0.1,0.04 -0.17,0.1 -0.27,0.15 -0.03,0.01 -0.07,0.03 -0.11,0.02 -0.03,-0.01 -0.05,-0.04 -0.08,-0.06 -0,0.05 0.01,0.09 0.02,0.13 -0.02,0 -0.04,0.01 -0.07,0.01 -0.05,-0 -0.09,0 -0.14,-0 0.01,-0.05 0.03,-0.09 0.01,-0.14 -0,0 -0.01,0.01 -0.01,0.01 -0.02,0.03 -0.05,0.06 -0.09,0.06 -0.05,-0.01 -0.1,-0.03 -0.15,-0.06 -0.06,-0.04 -0.13,-0.08 -0.2,-0.11 -0.05,-0.02 -0.11,-0.03 -0.16,-0.02 -0.05,0.01 -0.09,0.05 -0.1,0.09 0.03,-0.01 0.06,-0.02 0.1,-0.01 -0.02,0.02 -0.04,0.03 -0.05,0.04 -0.01,0.01 -0.01,0.04 -0,0.05 0.02,0.05 0.05,0.1 0.08,0.14 0.03,0.03 0.06,0.04 0.09,0.07 -0.02,0 -0.04,0 -0.06,-0.01 -0.02,-0.01 -0.05,-0.02 -0.07,-0.03 0,0.03 0.02,0.06 0.05,0.08 0.02,0.02 0.04,0.03 0.07,0.04 -0.01,0.02 -0.03,0.04 -0.05,0.06 -0.07,0.1 -0.12,0.21 -0.13,0.33 -0.01,0.03 -0,0.06 -0.01,0.1 -0.02,-0 -0.03,-0.02 -0.04,-0.03 -0,-0.01 -0.01,-0.01 -0.01,-0.02 -0.02,-0.05 -0.03,-0.09 -0.04,-0.14 -0.01,-0.05 -0,-0.09 0.01,-0.14 0.01,-0.04 0.02,-0.07 0.02,-0.11 -0.04,0.03 -0.06,0.07 -0.09,0.1 -0.04,-0.04 -0.05,-0.09 -0.06,-0.14 -0.03,-0.14 0,-0.28 0.06,-0.41 0.03,-0.06 0.06,-0.13 0.1,-0.18 0.05,-0.05 0.08,-0.11 0.12,-0.17 0.01,-0.03 0.02,-0.06 0.05,-0.08 0.07,-0.04 0.13,-0.1 0.16,-0.18 0.01,-0.03 -0.01,-0.06 -0.03,-0.09 -0.03,-0.04 -0.07,-0.06 -0.12,-0.06 -0.05,0.02 -0.1,0.06 -0.11,0.12 0.02,-0 0.04,-0.01 0.06,-0.01 -0.03,0.09 -0.07,0.18 -0.12,0.26 -0.03,0.04 -0.05,0.08 -0.09,0.11 -0.02,0.02 -0.04,0.04 -0.06,0.04 -0.03,-0.02 -0.04,-0.06 -0.05,-0.09 -0.03,-0.1 -0.04,-0.2 -0.04,-0.3 0,-0.03 0.01,-0.05 0.01,-0.08 -0,0 -0,0 -0,0 0,-0 0,-0 0,-0 0,-0 0,-0 0,-0 0,-0 0,-0.01 0,-0.01 0,-0 0,-0 0,-0 0,-0 0,-0.01 0,-0.01 0,-0 0,-0 0,-0 0,-0 0,-0.01 0,-0.01 0,-0 0,-0 0,-0 0,-0 0,-0.01 0.01,-0.01 0,-0 0,-0 0,-0 0,-0 0,-0.01 0.01,-0.01 0,-0 0,-0 0,-0 0,-0 0,-0.01 0.01,-0.01 0,-0 0,-0 0,-0 0,-0 0,-0.01 0.01,-0.01 0,-0 0,-0 0,-0 0,-0 0,-0 0.01,-0.01 0,-0 0,-0 0,-0 0,-0 0.01,-0 0.01,-0.01 0.04,-0.03 0.09,-0.03 0.13,-0.02 -0,0.02 -0,0.04 -0,0.05l0 0c-0,0.02 -0,0.04 -0,0.05 0,0.01 0,0.03 0.01,0.04 0.02,-0.03 0.02,-0.06 0.04,-0.08 0,-0.01 0.01,-0.01 0.01,-0.02 0,0 -0,0 -0,0 0,-0 0,-0 0,-0 0,-0 0,-0.01 0.01,-0.01 0,-0 0,-0 0,-0 0,-0 0,-0.01 0.01,-0.01 0,-0 0,-0 0,-0 0,-0 0,-0.01 0.01,-0.01 0,-0 0,-0 0,-0 0,-0 0,-0.01 0.01,-0.01 0,-0 0,-0 0,-0 0,-0 0.01,-0.01 0.01,-0.01 0,-0 0,-0 0,-0 0,-0 0.01,-0.01 0.01,-0.01 0,-0 0,-0 0,-0 0,-0 0.01,-0.01 0.01,-0.01 0,-0 0,-0 0,-0 0,-0 0.01,-0.01 0.01,-0.01 0.04,-0.03 0.1,-0.04 0.15,-0.03 0,0 0.01,0 0.01,0 0,0 0,0 0,0 0,0 0,0 0.01,0 0,0 0,0 0,0 0,0 0,0 0.01,0 0,0 0,0 0,0 0,0 0,0 0.01,0 0,0 0,0 0,0 0,0 0,0 0.01,0 0,0 0,0 0,0 0,0 0.01,0 0.01,0 0,0 0,0 0,0 0,0 0,0 0.01,0 0,0 0,0 0,0 0,0 0,0 0,0 0,0 0,0 0,0 0,0 0,0 0,0 0,0 0,0 0,0 0,0 0,0 0.01,0 0,0 0,0 0,0 0,0 0,0 0.01,0.01 0,0 0,0 0,0 0,0 0,0 0.01,0.01 0,0 0,0 0,0 0,0 0,0 0,0 0,0 0,0 0,0 0,0 0,0 0,0 -0,0 -0,-0 -0,-0 0.01,0.01 0.01,0.01 0.02,0.02 0.01,0.01 0.02,0.03 0.03,0.02 0.02,-0.01 0.04,-0.03 0.06,-0.04 0.07,-0.04 0.15,-0.07 0.24,-0.08 0.06,-0.01 0.12,-0.01 0.17,-0.01 0.08,0 0.15,0.02 0.22,0.04 0.06,0.02 0.11,0.04 0.16,0.07 0,0 0,0 0.01,0 0,0 0,0 0,0 0,0 0,0 0,0 0,0 0,0 0.01,0 0,0 0,0 0,0 0,0 0,0 0,0 0,0 0.01,0 0.01,0.01 0.02,-0.01 0.03,-0.02 0.04,-0.04 0.01,-0.01 0.01,-0.01 0.02,-0.02 -0,0 -0,0 -0,0 0,-0 0,-0 0,-0 0,-0 0,-0 0,-0 0,-0 0.01,-0 0.01,-0.01 0,-0 0,-0 0,-0 0,-0 0,-0 0.01,-0.01 0,-0 0,-0 0,-0 0,-0 0.01,-0.01 0.01,-0.01 0,-0 0,-0 0,-0 0,-0 0.01,-0 0.01,-0.01 0,-0 0,-0 0,-0 0,-0 0.01,-0 0.01,-0 0,-0 0,-0 0,-0 0,-0 0.01,-0 0.01,-0.01 0.05,-0.03 0.12,-0.02 0.16,0.01 0,0 0.01,0 0.01,0.01 0,0 0,0 0,0 0,0 0.01,0.01 0.01,0.01 0,0 0,0 0,0 0,0 0.01,0.01 0.01,0.01 0,0 0,0 0,0 0,0 0.01,0.01 0.01,0.01 0,0 0,0 0,0 0,0 0.01,0.01 0.01,0.01 0,0 0,0 0,0 0,0 0,0.01 0.01,0.01 0,0 0,0 0,0 0,0 0,0.01 0.01,0.01 0,0 0,0 0,0 0,0 0,0.01 0.01,0.01 0,0 0,0 0,0 0,0 0,0 0,0 0,0.01 0.01,0.01 0.01,0.02 0.02,0.03 0.03,0.07 0.05,0.1 0.02,-0.03 0.01,-0.07 0.01,-0.11 0,0 0,0 -0,0 0,-0 -0,-0 -0,-0 -0,-0.01 -0,-0.01 -0,-0.02 -0,-0 -0,-0 -0,-0 -0,-0.01 -0,-0.01 -0,-0.02 0.05,-0.02 0.11,-0.01 0.15,0.03 0,0 0.01,0.01 0.01,0.01 0,0 0,0 0,0 0,0 0,0 0,0.01 0,0 0,0 0,0 0,0 0,0 0,0.01 0,0 0,0 0,0 0,0 0,0 0,0.01 0,0 0,0 0,0 0,0 0,0 0,0.01 0,0 0,0 0,0 0,0 0,0.01 0,0.01 0,0 0,0 0,0 0,0 0,0.01 0,0.01 -0,-0 -0,-0 -0,-0 0.01,0.04 0.02,0.08 0.02,0.12 0,0.1 -0.02,0.2 -0.05,0.3 -0.01,0.02 -0.02,0.04 -0.03,0.06 -0.02,0 -0.03,-0.01 -0.04,-0.02 -0.03,-0.02 -0.05,-0.05 -0.08,-0.08 -0.05,-0.07 -0.09,-0.15 -0.13,-0.23 -0.01,-0.03 -0.02,-0.05 -0.03,-0.08 0.02,-0.01 0.04,0 0.05,0 -0.01,-0.06 -0.07,-0.11 -0.13,-0.12 -0.04,0.01 -0.07,0.03 -0.1,0.07 -0.02,0.02 -0.04,0.05 -0.03,0.09 0.03,0.07 0.08,0.13 0.14,0.17 0.01,0.01 0.03,0.02 0.03,0.03 0.01,0.02 0.02,0.05 0.03,0.07 0.02,0.03 0.04,0.07 0.06,0.1 0.03,0.05 0.07,0.08 0.1,0.13 0.03,0.05 0.05,0.1 0.07,0.15 0.02,0.05 0.03,0.1 0.04,0.15 0.02,0.1 0.01,0.2 -0.02,0.3 -0.01,0.02 -0.02,0.04 -0.04,0.06 -0.01,-0.02 -0.03,-0.04 -0.05,-0.06zm-0.02 0.63c-0.01,0.02 -0.03,0.04 -0.04,0.06 -0.03,-0.01 -0.07,-0.02 -0.11,-0.01 0.01,-0.02 0.01,-0.04 0.02,-0.05 0.02,-0.02 0.04,-0.03 0.06,-0.05 0.01,-0.01 0.03,-0.03 0.04,-0.04 0.02,-0.01 0.04,-0.01 0.07,-0.01 -0.01,0.04 -0.03,0.07 -0.05,0.1zm-0.01 0.39c-0.05,-0.04 -0.1,-0.07 -0.15,-0.11 -0.02,-0.02 -0.04,-0.03 -0.06,-0.05 0,-0.01 0,-0.02 0.01,-0.02 0,0 0.01,0.01 0.01,0.01 0.02,0.02 0.05,0.04 0.08,0.04 -0.01,-0.02 -0.02,-0.04 -0.03,-0.05 -0.01,-0.01 -0.02,-0.02 -0.03,-0.04 0.02,-0.02 0.05,-0.03 0.08,-0.02 0.02,0.02 0.03,0.05 0.04,0.08 0.03,0.06 0.05,0.11 0.08,0.17 -0.01,-0 -0.02,-0 -0.02,-0.01zm-0.56 -1.32c0.03,-0.02 0.07,-0.04 0.1,-0.06 0.04,-0.02 0.07,-0.04 0.1,-0.06 0.04,-0 0.08,-0.01 0.12,0.01 -0,0.02 -0.01,0.04 -0.03,0.05 -0.02,0.02 -0.04,0.05 -0.07,0.06 -0.06,0.03 -0.12,0.03 -0.18,0.01 -0.01,-0 -0.03,-0.01 -0.04,-0.02zm-0.9 -0.07c-0.01,-0.01 -0.02,-0.03 -0.02,-0.04 0.03,-0.01 0.07,-0.01 0.1,-0.01 0.01,0 0.02,-0 0.03,0 0.04,0.02 0.08,0.05 0.12,0.07 0.03,0.02 0.05,0.03 0.08,0.04 -0.02,0.01 -0.04,0.02 -0.06,0.02 -0.04,0 -0.08,0 -0.11,-0 -0.05,-0.01 -0.1,-0.05 -0.13,-0.09zm1.22 0.92c-0.02,0.03 -0.04,0.06 -0.08,0.07 -0.03,0.01 -0.07,-0 -0.1,-0.01 -0.09,-0.02 -0.17,-0.06 -0.24,-0.11 -0.06,-0.04 -0.11,-0.09 -0.14,-0.15 -0.01,-0.01 -0.01,-0.03 -0.01,-0.04 0.01,-0.01 0.03,-0.02 0.04,-0.03 0.01,-0.02 0.02,-0.04 0.03,-0.06 0.02,-0.03 0.04,-0.06 0.07,-0.08 0.02,-0 0.02,0.02 0.03,0.04 0,0 0.01,0 0.01,0 0.02,-0.02 0.04,-0.05 0.05,-0.07 0,-0.04 -0,-0.08 -0.02,-0.11 -0.02,-0.03 -0.05,-0.04 -0.09,-0.05 -0.08,-0.03 -0.17,-0.03 -0.26,-0.02 -0.05,0.01 -0.1,0.02 -0.14,0.04 -0.02,0.01 -0.03,0.03 -0.03,0.05 -0.01,0.03 -0.02,0.06 -0.01,0.09 0.02,0.03 0.03,0.06 0.06,0.08 0.01,-0.01 0.01,-0.03 0.03,-0.04 0.01,0 0.02,0.01 0.02,0.01 0.03,0.02 0.05,0.05 0.06,0.08 0.01,0.01 0.01,0.03 0.02,0.04 0.01,0.01 0.03,0.02 0.04,0.03 0,0.02 -0.01,0.03 -0.01,0.05 -0.03,0.06 -0.08,0.1 -0.13,0.14 -0.09,0.06 -0.2,0.11 -0.31,0.13 -0.03,0.01 -0.06,-0.01 -0.08,-0.03 -0.03,-0.03 -0.05,-0.08 -0.06,-0.12 -0.01,-0.05 -0.01,-0.09 -0.01,-0.14 0,-0.03 0.01,-0.06 0.02,-0.09 0.01,-0.05 0.03,-0.1 0.05,-0.14 0.04,-0.09 0.1,-0.16 0.18,-0.22 0.03,-0.02 0.06,-0.04 0.1,-0.05 -0.03,0.04 -0.07,0.07 -0.09,0.11 -0.01,0.01 -0,0.02 -0,0.03 0.02,-0.01 0.04,-0.03 0.06,-0.05 0.1,-0.07 0.21,-0.09 0.33,-0.1 0.09,0 0.19,0.02 0.27,0.07 0.04,0.02 0.07,0.05 0.11,0.07 -0,-0.01 0,-0.02 -0,-0.02 -0.02,-0.05 -0.06,-0.08 -0.09,-0.12 0.02,0.01 0.05,0.01 0.06,0.03 0.08,0.05 0.15,0.12 0.19,0.2 0.03,0.05 0.06,0.11 0.07,0.17 0.02,0.04 0.02,0.08 0.02,0.12 0,0.06 -0.01,0.13 -0.03,0.19zm-0.75 -0.52c0,-0.01 0.01,-0.02 0.01,-0.02 0.01,-0.01 0.03,-0.01 0.05,-0.02l0 -0c0.02,-0.01 0.05,-0.01 0.07,-0.01 0.02,0 0.05,0 0.07,0.01 0.02,0.01 0.04,0.02 0.05,0.03 0,0.01 0.01,0.01 0.01,0.02 -0.02,0 -0.04,0 -0.05,-0 -0.04,-0 -0.08,-0 -0.11,-0 -0.03,-0 -0.07,0.01 -0.1,0.01zm0.2 0.55c0.09,0.04 0.16,0.11 0.25,0.15 0.01,0.01 0.04,0.01 0.04,0.03 -0.03,0.01 -0.06,0 -0.08,0 -0.04,-0 -0.07,-0.02 -0.11,-0.03 -0,0 -0,0.01 -0.01,0.01 0.01,0.02 0.01,0.03 0.02,0.05 -0.06,-0.01 -0.13,-0.03 -0.19,-0.03 -0.06,0 -0.11,0.02 -0.17,0.03 0.01,-0.02 0.01,-0.04 0.02,-0.06 -0.04,0.01 -0.07,0.03 -0.11,0.03 -0.03,0 -0.07,0.01 -0.1,-0.01 0.03,-0.02 0.06,-0.03 0.09,-0.05 0.08,-0.05 0.15,-0.11 0.24,-0.14 0.04,-0.01 0.07,-0 0.11,0.01zm0.46 0.31c0,0.01 0,0.02 0,0.03 -0.01,0.01 -0.03,0.02 -0.04,0.03 -0.06,0.03 -0.12,0.05 -0.18,0.07 -0.02,0.01 -0.04,0 -0.05,-0.01 -0.08,-0.06 -0.17,-0.09 -0.27,-0.09 -0.09,0 -0.18,0.03 -0.25,0.09 -0.01,0.01 -0.03,0.02 -0.04,0.02 -0.06,-0.02 -0.11,-0.04 -0.17,-0.06 -0.02,-0.01 -0.04,-0.02 -0.06,-0.04 -0.01,-0.01 -0,-0.02 -0,-0.03 0,-0.02 -0,-0.04 -0,-0.06 0.03,0.01 0.06,0.02 0.09,0.04 0.05,0.03 0.11,0.05 0.17,0.05 0.07,-0 0.14,-0.03 0.22,-0.03 0.04,-0 0.07,-0 0.11,-0 0.09,0.01 0.17,0.04 0.26,0.03 0.05,-0 0.1,-0.02 0.14,-0.05 0.03,-0.02 0.06,-0.03 0.09,-0.03 -0,0.02 -0.01,0.04 -0,0.06zm-0.38 0.22c-0.02,0.06 -0.04,0.11 -0.06,0.17 -0.01,0.04 -0.03,0.07 -0.04,0.11 -0.02,0.04 -0.03,0.09 -0.05,0.13l-0.02 -0.05c-0.04,-0.08 -0.11,-0.29 -0.12,-0.33 -0.01,-0.02 -0.02,-0.04 -0.02,-0.06 0.03,-0.02 0.06,-0.04 0.1,-0.03 0.01,0.06 0.03,0.12 0.04,0.18 0,0.01 0,0.02 0.01,0.03 0,-0 0.01,-0 0.01,0 0,-0.02 0.01,-0.04 0.01,-0.06 0.01,-0.05 0.02,-0.11 0.03,-0.16 0.04,-0.01 0.07,0.02 0.1,0.03 -0,0.01 0,0.02 -0,0.03zm-1.07 -0.58c0.02,0 0.04,-0 0.06,0.01 0.02,0.01 0.03,0.03 0.05,0.04 0.02,0.01 0.04,0.03 0.05,0.04 0.01,0.01 0.01,0.03 0.02,0.05 -0.03,0 -0.06,0.01 -0.09,0.01 -0.02,-0.01 -0.03,-0.03 -0.04,-0.05 -0.02,-0.03 -0.04,-0.06 -0.04,-0.1zm0.25 0.33l-0.22 0.16c0.03,-0.06 0.06,-0.12 0.08,-0.18 0.01,-0.02 0.02,-0.04 0.03,-0.06 0.03,-0.01 0.06,0 0.08,0.02 -0.02,0.03 -0.04,0.05 -0.06,0.08 0.03,-0.01 0.06,-0.03 0.09,-0.05 0,0.01 0.01,0.02 -0,0.03zm-0.3 -0.47c-0.04,-0.01 -0.09,-0.01 -0.13,-0.02 0.03,-0.01 0.06,-0.02 0.09,-0.03 0.01,-0 0.03,-0 0.05,-0 0,0.01 0.01,0.03 0.01,0.04 -0,0.01 -0.02,0.01 -0.02,0.01zm2.35 -0.02c-0.03,-0.01 -0.06,-0.03 -0.1,-0.04 -0.04,-0.02 -0.07,-0.04 -0.11,-0.06 -0.03,-0.02 -0.07,-0.04 -0.1,-0.06 -0,-0.03 -0.02,-0.06 -0.01,-0.09 0.03,-0.06 0.07,-0.12 0.08,-0.18 0.01,-0.04 0.01,-0.08 0.01,-0.11 -0,-0.12 -0.03,-0.24 -0.08,-0.34 -0.01,-0.03 -0.03,-0.05 -0.04,-0.08 0.05,-0.04 0.08,-0.09 0.1,-0.15 0.02,-0.07 0.03,-0.15 0.05,-0.22 0.01,-0.05 0,-0.1 0,-0.15 -0.01,-0.08 -0.03,-0.17 -0.07,-0.24 -0.03,-0.05 -0.08,-0.09 -0.13,-0.1 -0.06,-0.02 -0.12,-0.01 -0.18,-0 -0.02,-0.02 -0.03,-0.04 -0.04,-0.06 -0.03,-0.03 -0.07,-0.06 -0.12,-0.06 -0.04,-0.01 -0.08,0 -0.11,0.01 -0.06,0.02 -0.1,0.07 -0.14,0.11 -0.09,-0.05 -0.19,-0.09 -0.3,-0.11 -0.07,-0.01 -0.14,-0.02 -0.21,-0 -0.11,0.01 -0.21,0.06 -0.31,0.11 -0.03,-0.02 -0.05,-0.05 -0.08,-0.07 -0.03,-0.03 -0.07,-0.04 -0.12,-0.05 -0.04,-0.01 -0.09,0 -0.13,0.03 -0.04,0.02 -0.07,0.06 -0.09,0.09 -0.03,-0.01 -0.06,-0.01 -0.1,-0.01 -0.07,-0 -0.15,0.03 -0.19,0.09 -0.06,0.08 -0.08,0.17 -0.09,0.27 0,0.06 -0.01,0.12 0.01,0.18 0.01,0.03 0.02,0.06 0.02,0.09 0.01,0.07 0.03,0.15 0.08,0.2 0.01,0.01 0.03,0.02 0.03,0.04 -0.04,0.09 -0.08,0.19 -0.1,0.29 -0.01,0.03 -0.01,0.07 -0.01,0.1 -0,0.03 0,0.06 0,0.09 0.01,0.07 0.03,0.14 0.07,0.2 0.01,0.01 0.01,0.02 0.02,0.03 -0,0.03 -0.01,0.05 -0.01,0.07 -0,0.01 -0.01,0.03 -0.02,0.04l-0.35 0.17 0.31 0.07c0.03,0.04 0.05,0.07 0.08,0.11 0.02,0.03 0.05,0.06 0.07,0.09 0.02,0.04 0.04,0.07 0.07,0.1 0.01,0.01 0,0.03 -0,0.05l-0.16 0.43 0.38 -0.25c0.01,-0.01 0.03,-0 0.04,0 0.05,0.03 0.09,0.06 0.14,0.08 0.05,0.03 0.1,0.05 0.15,0.07 0.03,0.01 0.06,0.02 0.09,0.03 0.02,0 0.03,0.01 0.04,0.02 0.01,0.02 0.02,0.03 0.02,0.05l0.2 0.55c0,0.01 0.01,0.03 0.02,0.04 0.02,-0.03 0.02,-0.06 0.03,-0.09l0.18 -0.52c0.01,-0.02 0.03,-0.03 0.05,-0.04 0.09,-0.04 0.18,-0.08 0.28,-0.12 0.03,-0.01 0.05,-0.03 0.07,-0.05 0.02,-0.01 0.04,-0.03 0.06,-0.04 0.01,-0 0.02,-0.01 0.03,-0 0.03,0.02 0.06,0.04 0.09,0.06 0.09,0.06 0.17,0.12 0.26,0.17 0.01,0.01 0.02,0.01 0.03,0.02 -0,-0.03 -0.01,-0.05 -0.02,-0.08 -0.04,-0.12 -0.09,-0.24 -0.13,-0.35 -0.01,-0.02 -0.01,-0.04 -0,-0.05 0.02,-0.03 0.05,-0.07 0.07,-0.1 0.02,-0.03 0.04,-0.06 0.06,-0.09 0.03,-0.04 0.06,-0.07 0.08,-0.11 0.01,-0.01 0.01,-0.02 0.03,-0.02 0.1,-0.02 0.2,-0.04 0.29,-0.06 -0.02,-0.02 -0.04,-0.03 -0.07,-0.04z"/>
     <path class="fil0" d="M1.46 0.9c0.04,0.03 0.09,0.03 0.12,0 0.03,-0.02 0.04,-0.06 0.06,-0.09 0.02,-0.04 0.03,-0.08 0.05,-0.12 0.01,-0.02 0.02,-0.03 0.03,-0.05 -0.02,-0 -0.05,-0 -0.06,0.01 -0.04,0.03 -0.06,0.09 -0.1,0.13 -0.02,0.02 -0.06,0.02 -0.08,0 -0.02,-0.02 -0.04,-0.05 -0.05,-0.08 -0.01,-0.02 -0.03,-0.04 -0.05,-0.06 -0.02,-0.01 -0.04,-0.01 -0.06,-0.01 0.01,0.02 0.03,0.04 0.04,0.06 0.02,0.04 0.02,0.07 0.04,0.11 0.02,0.03 0.03,0.06 0.06,0.08z"/>
     <path class="fil0" d="M1.18 0.76c-0.03,-0.04 -0.09,-0.05 -0.13,-0.03 -0.03,0.01 -0.05,0.04 -0.07,0.06 0.03,0 0.07,-0 0.1,0 0.03,0 0.06,0.02 0.09,0.04 0.03,0.02 0.04,0.05 0.07,0.07 0,-0.01 0.01,-0.02 0,-0.03 -0.01,-0.05 -0.03,-0.09 -0.07,-0.12z"/>
     <path class="fil0" d="M1.94 0.81c0.04,-0.01 0.08,-0.01 0.12,-0.01 -0.02,-0.03 -0.04,-0.05 -0.07,-0.06 -0.03,-0.01 -0.07,-0.01 -0.1,0.01 -0.05,0.03 -0.08,0.09 -0.09,0.14 -0,0.01 0,0.02 0,0.03 0.03,-0.05 0.08,-0.09 0.13,-0.11z"/>
     <path class="fil0" d="M1.14 1.89c-0.02,0.01 -0.03,0.02 -0.04,0.04 0,0.02 0.02,0.03 0.03,0.03 0.02,0 0.05,-0.02 0.06,-0.04 -0,-0.03 -0.03,-0.04 -0.05,-0.03z"/>
     <path class="fil0" d="M1.95 1.93c-0,-0.03 -0.04,-0.05 -0.07,-0.04 -0.01,0 -0.02,0.02 -0.02,0.03 0,0.02 0.03,0.04 0.05,0.04 0.02,0 0.04,-0.01 0.04,-0.03z"/>
     <path class="fil0" d="M1.24 2.03c0.01,0.02 0.04,0.02 0.06,0.02 0.03,-0.01 0.04,-0.04 0.02,-0.06 -0.02,-0.01 -0.04,-0.01 -0.06,-0 -0.02,0.01 -0.03,0.03 -0.02,0.05z"/>
     <path class="fil0" d="M1.74 1.97c-0.02,0.01 -0.03,0.02 -0.02,0.04 0.01,0.03 0.05,0.04 0.08,0.02 0.01,-0.01 0.01,-0.03 0,-0.04 -0.01,-0.02 -0.04,-0.03 -0.07,-0.02z"/>
     <path class="fil0" d="M1.06 2.04c-0.01,0.01 -0.03,0.02 -0.03,0.04 0,0.03 0.04,0.03 0.06,0.02 0.02,-0.01 0.03,-0.03 0.03,-0.05 -0.01,-0.02 -0.04,-0.02 -0.06,-0.01z"/>
     <path class="fil0" d="M2 2.04c-0.02,-0.01 -0.05,-0.01 -0.07,-0.01 -0,0.02 -0.01,0.04 0.01,0.05 0.02,0.02 0.05,0.02 0.07,0.01 0.02,-0.01 0.01,-0.04 -0.01,-0.06z"/>
     <path class="fil1" d="M1.61 1.63c0.02,0 0.04,0 0.05,0 -0,-0.01 -0.01,-0.01 -0.01,-0.02 -0.02,-0.01 -0.03,-0.02 -0.05,-0.03 -0.02,-0.01 -0.05,-0.01 -0.07,-0.01 -0.02,0 -0.05,-0 -0.07,0.01l-0 0c-0.02,0 -0.03,0.01 -0.05,0.02 -0,0.01 -0.01,0.02 -0.01,0.02 0.03,0 0.07,-0.01 0.1,-0.01 0.04,0 0.08,-0 0.11,0z"/>
     <path class="fil2" d="M2.34 2.18c-0.02,0.02 -0.04,0.03 -0.06,0.05 -0.01,0.01 -0.02,0.03 -0.02,0.05 0.04,-0.01 0.07,-0 0.11,0.01 0.02,-0.02 0.03,-0.04 0.04,-0.06 0.02,-0.03 0.04,-0.06 0.05,-0.1 -0.02,0 -0.05,0 -0.07,0.01 -0.02,0.01 -0.03,0.03 -0.04,0.04z"/>
     <path class="fil2" d="M0.69 2.28c0.03,0 0.06,-0 0.09,-0.01 -0,-0.02 -0,-0.03 -0.02,-0.05 -0.02,-0.02 -0.03,-0.03 -0.05,-0.04 -0.02,-0.01 -0.03,-0.03 -0.05,-0.04 -0.02,-0.01 -0.04,-0.01 -0.06,-0.01 0,0.04 0.03,0.07 0.04,0.1 0.01,0.02 0.02,0.04 0.04,0.05z"/>
     <path class="fil2" d="M1.97 2.47c-0.04,0.03 -0.09,0.05 -0.14,0.05 -0.09,0.01 -0.17,-0.03 -0.26,-0.03 -0.04,-0 -0.07,-0 -0.11,0 -0.07,0.01 -0.14,0.03 -0.22,0.03 -0.06,0 -0.12,-0.02 -0.17,-0.05 -0.03,-0.02 -0.06,-0.03 -0.09,-0.04 0,0.02 0.01,0.04 0,0.06 -0,0.01 -0.01,0.03 0,0.03 0.02,0.02 0.04,0.03 0.06,0.04 0.05,0.02 0.11,0.05 0.17,0.06 0.02,0.01 0.03,-0.01 0.04,-0.02 0.07,-0.05 0.16,-0.08 0.25,-0.09 0.1,0 0.19,0.03 0.27,0.09 0.01,0.01 0.03,0.02 0.05,0.01 0.06,-0.02 0.12,-0.04 0.18,-0.07 0.02,-0.01 0.03,-0.02 0.04,-0.03 0,-0.01 -0,-0.02 -0,-0.03 -0,-0.02 0,-0.04 0,-0.06 -0.03,0.01 -0.06,0.02 -0.09,0.03z"/>
     <path class="fil3" d="M1.41 0.86c-0.01,-0.01 -0.01,-0.03 -0,-0.04 -0.02,-0.04 -0.02,-0.07 -0.04,-0.11 -0.01,-0.02 -0.03,-0.04 -0.04,-0.06 0.02,-0 0.05,-0 0.06,0.01 0.02,0.02 0.03,0.04 0.05,0.06 0.02,0.03 0.03,0.06 0.05,0.08 0.02,0.02 0.06,0.02 0.08,-0 0.04,-0.04 0.05,-0.1 0.1,-0.13 0.02,-0.01 0.04,-0.02 0.06,-0.01 -0.01,0.02 -0.02,0.03 -0.03,0.05 -0.02,0.04 -0.03,0.08 -0.05,0.12 0,0.01 0,0.03 -0.01,0.04 -0.01,0.03 -0.02,0.06 -0.05,0.08 -0.02,0.02 -0.05,0.04 -0.08,0.04 -0.02,-0 -0.04,-0.02 -0.06,-0.03 -0.03,-0.02 -0.03,-0.05 -0.05,-0.08zm-0.17 0.05c-0.02,-0.02 -0.04,-0.05 -0.07,-0.07 -0.03,-0.02 -0.06,-0.04 -0.09,-0.04 -0.03,-0 -0.07,0 -0.1,-0 0.02,-0.03 0.04,-0.05 0.07,-0.06 0.04,-0.02 0.1,-0.01 0.13,0.03 0.03,0.03 0.06,0.08 0.07,0.12 0,0.01 -0,0.02 -0,0.03zm0.56 -0.03c0.01,-0.05 0.04,-0.11 0.09,-0.14 0.03,-0.02 0.07,-0.02 0.1,-0.01 0.03,0.01 0.05,0.04 0.07,0.06 -0.04,0 -0.08,-0 -0.12,0.01 -0.06,0.02 -0.1,0.06 -0.13,0.11 -0,-0.01 -0.01,-0.02 -0,-0.03zm-0.34 0.29c0.02,0.02 0.05,0.02 0.08,0.02 0.02,-0 0.04,-0.01 0.05,-0.02 0.01,-0.02 0.01,-0.04 0.02,-0.07 0.01,0.02 0.02,0.04 0.05,0.05 0.03,0.01 0.06,-0 0.09,-0.01 0.07,-0.04 0.13,-0.1 0.18,-0.15 0.06,-0.05 0.12,-0.09 0.19,-0.11 0.04,-0.01 0.09,0 0.13,0 -0.01,-0.03 -0.03,-0.07 -0.03,-0.1 -0,-0.03 -0,-0.06 -0.01,-0.09 -0,-0.02 -0.01,-0.04 -0.03,-0.05 -0.06,-0.04 -0.12,-0.1 -0.14,-0.17 -0.01,-0.03 0.01,-0.06 0.03,-0.09 0.02,-0.03 0.06,-0.06 0.1,-0.07 0.04,-0.01 0.07,0 0.1,0.02 0.03,0.02 0.06,0.05 0.07,0.09 0.04,0.08 0.07,0.18 0.11,0.27 0.01,0.03 0.03,0.06 0.06,0.08 0.01,0.01 0.03,0.01 0.05,0.01 0.03,-0.1 0.05,-0.2 0.05,-0.3 -0,-0.04 -0.01,-0.08 -0.02,-0.12 -0.05,-0.06 -0.11,-0.08 -0.19,-0.08 0,0.04 0.01,0.08 -0.01,0.11 -0.02,-0.03 -0.03,-0.07 -0.05,-0.1 -0,-0.01 -0.01,-0.01 -0.01,-0.02 -0.08,-0.06 -0.18,-0.08 -0.31,-0.04 -0.01,0.01 -0.01,0.01 -0.02,0.02 -0.01,0.01 -0.02,0.03 -0.04,0.04 -0,-0 -0.01,-0 -0.01,-0.01 0,0 0,0 0,0 -0.28,-0.09 -0.58,-0.09 -0.87,0 -0.01,0.01 -0.02,-0.01 -0.03,-0.02 -0.01,-0.01 -0.01,-0.01 -0.02,-0.02 -0.1,-0.06 -0.21,-0.05 -0.33,0.04 -0,0.01 -0.01,0.01 -0.01,0.02 -0.01,0.03 -0.02,0.06 -0.04,0.08 -0.01,-0.01 -0.01,-0.03 -0.01,-0.04 -0,-0.02 0,-0.04 0,-0.05 -0.07,-0.02 -0.13,-0 -0.19,0.06 -0.01,0.03 -0.01,0.05 -0.01,0.08 -0.01,0.1 0.01,0.2 0.04,0.3 0.01,0.01 0.02,0.02 0.02,0.04 0.05,-0.01 0.07,-0.06 0.09,-0.1 0.05,-0.1 0.07,-0.22 0.14,-0.31 0.03,-0.04 0.08,-0.06 0.12,-0.06 0.05,-0 0.09,0.03 0.12,0.06 0.02,0.02 0.04,0.06 0.03,0.09 -0.03,0.08 -0.09,0.14 -0.16,0.18 -0.01,0.04 -0.01,0.08 -0.02,0.12 -0,0.04 -0.02,0.08 -0.04,0.12 0.04,-0.01 0.09,-0.02 0.13,-0.01 0.06,0.01 0.12,0.04 0.17,0.08 0.06,0.04 0.1,0.1 0.16,0.14 0.03,0.03 0.07,0.05 0.11,0.05 0.02,0 0.04,-0.01 0.06,-0.02 0,-0 0.01,-0.01 0.01,-0.01 0,-0 0.01,-0.01 0.01,-0.01 0.01,0.02 0.01,0.04 0.02,0.06z"/>
     <path class="fil3" d="M1.82 1.82c0.01,0.02 0.02,0.05 0.03,0.06 0.03,0 0.05,-0.01 0.08,0 0.02,0.01 0.03,0.03 0.03,0.06 -0,0.01 -0.01,0.03 -0.02,0.04 0.04,0.04 0.11,0.05 0.16,0.04 0.03,-0.01 0.07,-0.04 0.06,-0.07 -0,-0.04 -0.01,-0.07 -0.01,-0.11 -0.01,-0.06 -0.04,-0.12 -0.07,-0.17 -0.04,-0.08 -0.11,-0.15 -0.19,-0.2 -0.02,-0.01 -0.04,-0.02 -0.06,-0.03 0.03,0.04 0.07,0.07 0.09,0.12 0,0.01 0,0.01 0,0.02 -0.04,-0.02 -0.07,-0.06 -0.11,-0.07 -0.08,-0.05 -0.17,-0.07 -0.27,-0.07 -0.11,0 -0.23,0.03 -0.33,0.1 -0.02,0.01 -0.04,0.03 -0.06,0.05 -0,-0.01 -0,-0.02 0,-0.03 0.02,-0.04 0.06,-0.08 0.09,-0.11 -0.04,0.01 -0.07,0.03 -0.1,0.05 -0.08,0.06 -0.14,0.13 -0.18,0.22 -0.02,0.04 -0.04,0.09 -0.05,0.14 -0,0.04 -0.01,0.07 -0.01,0.11 0,0.04 0.04,0.06 0.08,0.07 0.04,0.01 0.08,0 0.11,-0.01 0.01,-0.01 0.03,-0.01 0.03,-0.03 -0,-0.02 -0.01,-0.03 -0.02,-0.04 0,-0.02 0.01,-0.03 0.03,-0.05 0.02,-0.01 0.04,-0.01 0.06,-0.01 0.01,0 0.02,0 0.03,-0.01 0.03,-0.05 0.04,-0.11 0.04,-0.17 -0,-0.03 0,-0.06 0.01,-0.09 0.01,-0.02 0.02,-0.04 0.03,-0.05 0.04,-0.03 0.09,-0.03 0.14,-0.04 0.09,-0.01 0.18,-0.01 0.26,0.02 0.03,0.01 0.07,0.02 0.09,0.05 0.02,0.03 0.03,0.07 0.02,0.11 -0,0.04 0,0.07 0.01,0.11z"/>
     <path class="fil3" d="M1.53 2.28c0.06,0 0.12,0.03 0.19,0.03 -0,-0.01 0,-0.03 -0.01,-0.04 -0.02,-0.03 -0.05,-0.04 -0.08,-0.06 -0.03,-0.02 -0.06,-0.03 -0.09,-0.03 -0.04,-0 -0.08,0.02 -0.11,0.03 -0.03,0.02 -0.05,0.03 -0.07,0.05 -0.01,0.01 -0.01,0.03 -0.01,0.04 0.07,-0 0.13,-0.03 0.2,-0.03z"/>
     <path class="fil4" d="M2.5 0.79c-0.03,-0.02 -0.04,-0.05 -0.06,-0.08 -0.04,-0.09 -0.06,-0.18 -0.11,-0.27 -0.02,-0.04 -0.04,-0.07 -0.07,-0.09 -0.03,-0.02 -0.07,-0.03 -0.1,-0.02 0.06,0 0.12,0.06 0.13,0.12 -0.02,-0 -0.04,-0.01 -0.05,-0 0,0.03 0.02,0.05 0.03,0.08 0.03,0.08 0.08,0.16 0.13,0.23 0.02,0.03 0.05,0.06 0.08,0.08 0.01,0.01 0.03,0.02 0.04,0.02 0.02,-0.01 0.03,-0.04 0.03,-0.06 -0.02,0 -0.03,0 -0.05,-0.01z"/>
     <path class="fil4" d="M0.73 0.39c-0.07,0.09 -0.09,0.21 -0.14,0.31 -0.02,0.04 -0.04,0.09 -0.09,0.1 -0.01,-0.01 -0.02,-0.02 -0.02,-0.04 0.01,0.03 0.02,0.07 0.05,0.09 0.03,-0 0.05,-0.02 0.06,-0.04 0.03,-0.03 0.06,-0.07 0.09,-0.11 0.05,-0.08 0.09,-0.17 0.12,-0.26 -0.02,0 -0.04,0 -0.06,0.01 0.01,-0.06 0.06,-0.1 0.11,-0.12 -0.05,0 -0.1,0.02 -0.12,0.06z"/>
     <path class="fil4" d="M2.52 1.29c-0.01,-0.05 -0.02,-0.1 -0.04,-0.15 -0.02,-0.05 -0.04,-0.1 -0.07,-0.15 -0.02,-0.05 -0.07,-0.09 -0.1,-0.13 -0.02,-0.03 -0.04,-0.07 -0.06,-0.1 -0.01,-0.02 -0.02,-0.05 -0.03,-0.07 -0.01,-0.01 -0.02,-0.02 -0.03,-0.03 0.01,0.01 0.02,0.03 0.03,0.05 0,0.03 0,0.06 0.01,0.09 0,0.04 0.02,0.07 0.03,0.1 -0.04,-0 -0.09,-0.01 -0.13,-0 -0.07,0.01 -0.13,0.06 -0.19,0.11 -0.06,0.05 -0.11,0.11 -0.18,0.15 -0.03,0.01 -0.06,0.02 -0.09,0.01 -0.02,-0.01 -0.03,-0.03 -0.05,-0.05 -0.01,0.02 -0.01,0.05 -0.02,0.07 -0.01,0.02 -0.03,0.02 -0.05,0.02 -0.03,0 -0.06,-0 -0.08,-0.02 -0.01,-0.02 -0.01,-0.04 -0.02,-0.06 -0,0 -0.01,0.01 -0.01,0.01 0.02,0.05 -0,0.09 -0.01,0.14 0.05,0 0.09,0 0.14,0 0.02,0 0.04,-0 0.07,-0.01 -0.01,-0.04 -0.02,-0.09 -0.02,-0.13 0.02,0.02 0.04,0.06 0.08,0.06 0.04,0.01 0.07,-0.01 0.11,-0.02 0.09,-0.04 0.17,-0.11 0.27,-0.15 0.04,-0.02 0.09,-0.03 0.13,-0.02 0.06,0.01 0.11,0.04 0.13,0.1 -0.03,-0 -0.06,-0.02 -0.09,-0 0.02,0.02 0.04,0.03 0.05,0.05 0.01,0.03 -0,0.05 -0.01,0.07 -0.02,0.04 -0.04,0.07 -0.07,0.1 -0.02,0.01 -0.04,0.03 -0.05,0.04 -0.02,0.02 -0.05,0.03 -0.08,0.04 0.02,0.01 0.05,0.01 0.07,0 0.03,-0 0.06,-0.02 0.09,-0.03 -0.01,0.05 -0.06,0.09 -0.11,0.11 0.03,0.05 0.08,0.1 0.1,0.16 0.03,0.06 0.05,0.12 0.07,0.19 0.01,0.03 0.01,0.07 0.02,0.1 0,0.02 0,0.04 0.01,0.07 0.03,-0.02 0.04,-0.05 0.05,-0.08 0.02,-0.07 0.04,-0.14 0.03,-0.22 -0,-0.05 -0.02,-0.11 -0.03,-0.16 0.01,0.01 0.03,0.02 0.04,0.03 0,0 0.01,0.01 0.01,0.01 0.02,0.02 0.03,0.04 0.05,0.06 0.02,-0.02 0.03,-0.04 0.04,-0.06 0.03,-0.1 0.04,-0.2 0.02,-0.3z"/>
     <path class="fil4" d="M1.36 1.17c-0.04,-0 -0.08,-0.02 -0.11,-0.05 -0.06,-0.04 -0.1,-0.1 -0.16,-0.14 -0.05,-0.04 -0.1,-0.08 -0.17,-0.08 -0.04,-0.01 -0.09,0 -0.13,0.01 0.01,-0.04 0.03,-0.08 0.04,-0.12 0,-0.04 0,-0.08 0.02,-0.12 -0.02,0.02 -0.03,0.05 -0.05,0.08 -0.03,0.06 -0.07,0.12 -0.12,0.17 -0.04,0.06 -0.07,0.12 -0.1,0.18 -0.05,0.13 -0.08,0.27 -0.06,0.41 0.01,0.05 0.02,0.1 0.06,0.14 0.03,-0.03 0.05,-0.08 0.09,-0.1 0,0.04 -0.02,0.07 -0.02,0.11 -0.01,0.05 -0.01,0.09 -0.01,0.14 0.01,0.05 0.02,0.1 0.04,0.14 0,0.01 0.01,0.02 0.01,0.02 0.01,0.01 0.02,0.03 0.04,0.03 0.01,-0.03 0,-0.06 0.01,-0.1 0.02,-0.12 0.06,-0.24 0.13,-0.33 0.02,-0.02 0.03,-0.04 0.05,-0.06 -0.02,-0.01 -0.05,-0.02 -0.07,-0.04 -0.03,-0.02 -0.04,-0.05 -0.05,-0.08 0.02,0.01 0.05,0.02 0.07,0.03 0.02,0.01 0.04,0.01 0.06,0.01 -0.03,-0.02 -0.06,-0.04 -0.09,-0.07 -0.04,-0.04 -0.07,-0.09 -0.08,-0.14 -0,-0.02 -0.01,-0.04 0,-0.05 0.02,-0.02 0.04,-0.03 0.05,-0.04 -0.03,-0.01 -0.06,-0 -0.1,0.01 0.02,-0.05 0.06,-0.08 0.1,-0.09 0.05,-0.02 0.11,-0 0.16,0.02 0.07,0.03 0.13,0.07 0.2,0.11 0.05,0.03 0.09,0.06 0.15,0.06 0.04,0 0.07,-0.02 0.09,-0.06 -0.02,0.01 -0.04,0.03 -0.06,0.02z"/>
     <path class="fil4" d="M1.46 0.94c0.02,0.01 0.04,0.03 0.06,0.03 0.03,0 0.06,-0.02 0.08,-0.04 0.02,-0.02 0.03,-0.05 0.05,-0.08 0.01,-0.01 0.01,-0.03 0.01,-0.04 -0.02,0.03 -0.03,0.06 -0.06,0.09 -0.04,0.03 -0.09,0.02 -0.12,-0 -0.03,-0.02 -0.04,-0.05 -0.06,-0.08 -0,0.02 -0,0.03 0,0.04 0.01,0.03 0.02,0.06 0.05,0.08z"/>
     <path class="fil4" d="M1.32 1.98c0.02,0.02 0,0.06 -0.02,0.06 -0.02,0.01 -0.05,0.01 -0.06,-0.02 -0.01,-0.02 0.01,-0.04 0.02,-0.05 0.02,-0.01 0.04,-0.01 0.06,0zm-0.18 -0.02c-0.02,0 -0.03,-0.01 -0.03,-0.03 0,-0.02 0.02,-0.03 0.04,-0.04 0.02,-0.01 0.05,0 0.05,0.03 -0,0.03 -0.03,0.04 -0.06,0.04zm-0.04 0.14c-0.02,0.01 -0.06,0.01 -0.06,-0.02 -0,-0.02 0.01,-0.03 0.03,-0.04 0.02,-0.01 0.05,-0.01 0.06,0.01 0.01,0.02 -0,0.05 -0.03,0.05zm0.11 -0.23c-0.01,0.01 -0.02,0.01 -0.03,0.01 -0.02,-0 -0.04,-0.01 -0.06,0.01 -0.01,0.01 -0.02,0.03 -0.03,0.05 0,0.02 0.01,0.03 0.02,0.04 -0,0.01 -0.02,0.02 -0.03,0.03 -0.04,0.01 -0.08,0.02 -0.11,0.01 -0.03,-0.01 -0.07,-0.03 -0.08,-0.07 -0,-0.04 0.01,-0.07 0.01,-0.11 -0.01,0.03 -0.02,0.06 -0.02,0.09 -0.01,0.05 -0,0.09 0.01,0.14 0.01,0.04 0.03,0.09 0.06,0.12 0.02,0.02 0.05,0.04 0.08,0.03 0.11,-0.02 0.21,-0.07 0.31,-0.13 0.05,-0.04 0.1,-0.08 0.13,-0.14 0.01,-0.02 0.01,-0.03 0.01,-0.05 -0.01,-0.01 -0.03,-0.02 -0.04,-0.03 -0.01,-0.01 -0.01,-0.03 -0.02,-0.04 -0.01,-0.03 -0.04,-0.06 -0.06,-0.08 -0.01,-0.01 -0.01,-0.01 -0.02,-0.01 -0.02,0 -0.02,0.03 -0.03,0.04 -0.03,-0.01 -0.04,-0.05 -0.06,-0.08 0,0.06 -0.01,0.12 -0.04,0.17z"/>
     <path class="fil4" d="M2 2.1c-0.02,0.01 -0.05,0.01 -0.07,-0.01 -0.02,-0.01 -0.01,-0.04 -0.01,-0.05 0.02,-0 0.05,-0.01 0.07,0.01 0.01,0.01 0.02,0.04 0.01,0.06zm-0.1 -0.14c-0.02,0 -0.05,-0.02 -0.05,-0.04 0,-0.01 0.01,-0.02 0.02,-0.03 0.03,-0.01 0.07,0.01 0.07,0.04 -0,0.02 -0.02,0.03 -0.04,0.03zm-0.1 0.08c-0.03,0.02 -0.07,0.01 -0.08,-0.02 -0.01,-0.01 0,-0.03 0.02,-0.04 0.02,-0.01 0.06,-0 0.07,0.02 0.01,0.01 0.01,0.03 -0,0.04zm0.34 -0.2c0,0.04 0.01,0.07 0.01,0.11 0,0.04 -0.03,0.06 -0.06,0.07 -0.05,0.02 -0.12,0.01 -0.16,-0.04 0.01,-0.01 0.02,-0.02 0.02,-0.04 0,-0.02 -0.01,-0.05 -0.03,-0.06 -0.02,-0.01 -0.05,-0 -0.08,-0 -0.02,-0.02 -0.02,-0.04 -0.03,-0.06 -0.01,-0.03 -0.02,-0.07 -0.01,-0.11 -0.01,0.03 -0.03,0.05 -0.05,0.07 -0,-0 -0.01,-0 -0.01,-0 -0.01,-0.01 -0.01,-0.04 -0.03,-0.04 -0.03,0.02 -0.05,0.05 -0.07,0.08 -0.01,0.02 -0.02,0.04 -0.03,0.06 -0.01,0.01 -0.03,0.02 -0.04,0.03 -0.01,0.01 0,0.03 0.01,0.04 0.03,0.06 0.08,0.11 0.14,0.15 0.07,0.05 0.15,0.09 0.24,0.11 0.03,0.01 0.07,0.02 0.1,0.01 0.04,-0.01 0.06,-0.04 0.08,-0.07 0.03,-0.06 0.04,-0.12 0.03,-0.19 -0,-0.04 -0,-0.09 -0.02,-0.12z"/>
     <path class="fil4" d="M1.34 2.26c0.02,-0.02 0.05,-0.03 0.07,-0.05 0.03,-0.02 0.07,-0.04 0.11,-0.03 0.03,0 0.06,0.01 0.09,0.03 0.03,0.02 0.06,0.03 0.08,0.06 0.01,0.01 0.01,0.02 0.01,0.04 -0.06,-0 -0.12,-0.03 -0.19,-0.03 -0.07,-0 -0.13,0.03 -0.2,0.03 0,-0.02 -0,-0.03 0.01,-0.04zm-0.19 0.11c0.03,0.01 0.07,0.01 0.1,0.01 0.04,-0 0.07,-0.02 0.11,-0.03 -0,0.02 -0.01,0.04 -0.02,0.06 0.06,-0.01 0.11,-0.02 0.17,-0.03 0.07,-0 0.13,0.02 0.19,0.03 -0,-0.02 -0.01,-0.03 -0.02,-0.05 0,-0 0,-0.01 0.01,-0.01 0.03,0.01 0.07,0.03 0.11,0.03 0.03,0 0.06,0 0.08,-0 -0.01,-0.02 -0.03,-0.02 -0.04,-0.03 -0.09,-0.04 -0.16,-0.12 -0.25,-0.15 -0.03,-0.01 -0.07,-0.02 -0.11,-0.01 -0.09,0.03 -0.16,0.09 -0.24,0.14 -0.03,0.02 -0.06,0.03 -0.09,0.05z"/>
     <path class="fil1" d="M1.16 1.32c0.02,-0 0.04,-0.01 0.06,-0.02 -0.02,-0.02 -0.05,-0.03 -0.08,-0.04 -0.04,-0.02 -0.08,-0.05 -0.12,-0.07 -0.01,-0 -0.02,-0 -0.03,-0 -0.03,-0 -0.07,-0 -0.1,0.01 0,0.02 0.01,0.03 0.02,0.04 0.03,0.04 0.08,0.08 0.13,0.09 0.04,0 0.08,0 0.11,0z"/>
     <path class="fil1" d="M2.05 1.3c0.03,-0.01 0.05,-0.04 0.07,-0.06 0.01,-0.02 0.02,-0.03 0.03,-0.05 -0.04,-0.01 -0.08,-0.01 -0.12,-0.01 -0.04,0.02 -0.07,0.04 -0.1,0.06 -0.03,0.02 -0.07,0.04 -0.1,0.06 0.01,0.01 0.03,0.01 0.04,0.02 0.06,0.01 0.13,0.01 0.18,-0.01z"/>
     <path class="fil1" d="M0.52 1.96c-0.03,0.01 -0.06,0.01 -0.09,0.03 0.04,0.01 0.08,0.01 0.13,0.02 0.01,-0 0.02,0 0.02,-0.01 -0,-0.01 -0.01,-0.03 -0.01,-0.04 -0.02,-0 -0.03,-0 -0.05,0z"/>
     <path class="fil1" d="M2.48 1.95c-0,0.01 -0.01,0.03 -0.01,0.05 0.05,0 0.1,-0 0.15,-0.01 -0.03,-0.01 -0.06,-0.02 -0.09,-0.03 -0.01,-0 -0.03,-0 -0.05,-0z"/>
     <path class="fil1" d="M0.77 2.49c0.02,-0.03 0.04,-0.05 0.06,-0.08 -0.02,-0.02 -0.05,-0.03 -0.08,-0.02 -0.01,0.02 -0.02,0.04 -0.03,0.06 -0.03,0.06 -0.06,0.12 -0.08,0.18l0.22 -0.16c0.01,-0.01 0,-0.02 0,-0.03 -0.03,0.02 -0.05,0.04 -0.09,0.05z"/>
     <path class="fil1" d="M2.29 2.39c-0.03,-0.01 -0.06,-0 -0.08,0.02 0.01,0.01 0.02,0.03 0.03,0.04 0.02,0.01 0.03,0.03 0.03,0.05 -0.03,-0.01 -0.05,-0.03 -0.08,-0.04 -0,-0 -0.01,-0.01 -0.01,-0.01 -0,0.01 -0.01,0.01 -0.01,0.02 0.02,0.02 0.04,0.03 0.06,0.05 0.05,0.04 0.1,0.07 0.15,0.11 0.01,0.01 0.02,0.01 0.02,0.01 -0.02,-0.06 -0.05,-0.11 -0.08,-0.17 -0.01,-0.03 -0.02,-0.05 -0.04,-0.08z"/>
     <path class="fil1" d="M1.58 2.66c-0.01,0.05 -0.02,0.11 -0.03,0.16 -0,0.02 -0.01,0.04 -0.01,0.06 -0,-0 -0.01,-0 -0.01,-0 -0,-0.01 -0,-0.02 -0.01,-0.03 -0.01,-0.06 -0.03,-0.12 -0.04,-0.18 -0.04,-0 -0.07,0.02 -0.1,0.03 0,0.02 0.01,0.04 0.02,0.06 0.01,0.04 0.08,0.25 0.12,0.33 0.01,0.02 0.02,0.03 0.02,0.03 0.01,-0.04 0.03,-0.08 0.04,-0.12 0.01,-0.04 0.03,-0.07 0.04,-0.11 0.02,-0.06 0.04,-0.11 0.06,-0.17 0,-0.01 0,-0.02 0,-0.03 -0.03,-0.01 -0.06,-0.04 -0.1,-0.03z"/>
     <path class="fil4" d="M1.96 0.3c-0,-0 -0,-0 -0,-0 -0,-0 -0,-0 -0,-0 -0,-0 -0,-0 -0,-0 -0,-0 -0,-0 -0.01,-0 -0,-0 -0,-0 -0,-0 -0,-0 -0,-0 -0,-0 -0,-0 -0,-0 -0.01,-0 -0.05,-0.03 -0.1,-0.06 -0.16,-0.07 -0.07,-0.02 -0.15,-0.04 -0.22,-0.04 -0.06,-0 -0.12,-0 -0.17,0.01 -0.08,0.02 -0.16,0.04 -0.24,0.08 -0.02,0.01 -0.04,0.03 -0.06,0.04 0.3,-0.09 0.59,-0.09 0.87,-0z"/>
     <path class="fil4" d="M1.04 0.27c0,0 0,0 0,0 -0,-0 -0,-0 -0,-0 -0,-0 -0,-0 -0,-0 -0,-0 -0,-0 -0,-0 -0,-0 -0,-0 -0,-0 -0,-0 -0,-0 -0.01,-0.01 -0,-0 -0,-0 -0,-0 -0,-0 -0,-0 -0.01,-0.01 -0,-0 -0,-0 -0,-0 -0,-0 -0,-0 -0.01,-0 -0,-0 -0,-0 -0,-0 -0,-0 -0,-0 -0,-0 -0,-0 -0,-0 -0,-0 -0,-0 -0,-0 -0,-0 -0,-0 -0,-0 -0,-0 -0,-0 -0,-0 -0.01,-0 -0,-0 -0,-0 -0,-0 -0,-0 -0.01,-0 -0.01,-0 -0,-0 -0,-0 -0,-0 -0,-0 -0,-0 -0.01,-0 -0,-0 -0,-0 -0,-0 -0,-0 -0,-0 -0.01,-0 -0,-0 -0,-0 -0,-0 -0,-0 -0,-0 -0.01,-0 -0,-0 -0,-0 -0,-0 -0,-0 -0,-0 -0.01,-0 -0,-0 -0,-0 -0,-0 -0,-0 -0.01,-0 -0.01,-0 -0.05,-0.02 -0.1,-0 -0.15,0.03 -0,0 -0.01,0 -0.01,0.01 -0,0 -0,0 -0,0 -0,0 -0.01,0.01 -0.01,0.01 -0,0 -0,0 -0,0 -0,0 -0.01,0.01 -0.01,0.01 -0,0 -0,0 -0,0 -0,0 -0.01,0.01 -0.01,0.01 -0,0 -0,0 -0,0 -0,0 -0,0.01 -0.01,0.01 -0,0 -0,0 -0,0 -0,0 -0,0.01 -0.01,0.01 -0,0 -0,0 -0,0 -0,0 -0,0.01 -0.01,0.01 -0,0 -0,0 -0,0 -0,0 -0,0.01 -0.01,0.01 -0,0 -0,0 -0,0 0,0 0,0 0,0 0.12,-0.09 0.23,-0.1 0.33,-0.04z"/>
     <path class="fil4" d="M0.65 0.32l0 0c0,-0.02 0,-0.04 0,-0.05 -0.04,-0.01 -0.09,-0.01 -0.13,0.02 -0,0 -0.01,0 -0.01,0.01 -0,0 -0,0 -0,0 -0,0 -0.01,0 -0.01,0.01 -0,0 -0,0 -0,0 -0,0 -0,0.01 -0.01,0.01 -0,0 -0,0 -0,0 -0,0 -0,0.01 -0.01,0.01 -0,0 -0,0 -0,0 -0,0 -0,0.01 -0.01,0.01 -0,0 -0,0 -0,0 -0,0 -0,0.01 -0.01,0.01 -0,0 -0,0 -0,0 -0,0 -0,0.01 -0,0.01 -0,0 -0,0 -0,0 -0,0 -0,0.01 -0,0.01 -0,0 -0,0 -0,0 -0,0 -0,0.01 -0,0.01 -0,0 -0,0 -0,0 -0,0 -0,0 -0,0 0,-0 0,-0 0,-0 0.06,-0.07 0.12,-0.09 0.19,-0.06z"/>
     <path class="fil4" d="M2.33 0.3c0,0 0,0 0,0 -0,-0 -0,-0 -0,-0 -0,-0 -0,-0.01 -0.01,-0.01 -0,-0 -0,-0 -0,-0 -0,-0 -0,-0.01 -0.01,-0.01 -0,-0 -0,-0 -0,-0 -0,-0 -0,-0.01 -0.01,-0.01 -0,-0 -0,-0 -0,-0 -0,-0 -0.01,-0.01 -0.01,-0.01 -0,-0 -0,-0 -0,-0 -0,-0 -0.01,-0.01 -0.01,-0.01 -0,-0 -0,-0 -0,-0 -0,-0 -0.01,-0.01 -0.01,-0.01 -0,-0 -0,-0 -0,-0 -0,-0 -0.01,-0.01 -0.01,-0.01 -0,-0 -0,-0 -0,-0 -0,-0 -0.01,-0 -0.01,-0.01 -0.05,-0.03 -0.11,-0.03 -0.16,-0.01 -0,0 -0.01,0 -0.01,0.01 -0,0 -0,0 -0,0 -0,0 -0.01,0 -0.01,0 -0,0 -0,0 -0,0 -0,0 -0.01,0 -0.01,0.01 -0,0 -0,0 -0,0 -0,0 -0.01,0 -0.01,0.01 -0,0 -0,0 -0,0 -0,0 -0,0 -0.01,0.01 -0,0 -0,0 -0,0 -0,0 -0.01,0 -0.01,0.01 -0,0 -0,0 -0,0 -0,0 -0,0 -0,0 0,-0 0,-0 0,-0 0.13,-0.03 0.23,-0.02 0.31,0.04z"/>
     <path class="fil4" d="M2.58 0.38c0,0 0,0 0,0 -0,-0 -0,-0.01 -0,-0.01 0,-0 -0,-0 -0,-0 -0,-0 -0,-0.01 -0,-0.01 -0,-0 -0,-0 -0,-0 -0,-0 -0,-0 -0,-0.01 -0,-0 -0,-0 -0,-0 -0,-0 -0,-0 -0,-0.01 -0,-0 -0,-0 -0,-0 -0,-0 -0,-0 -0,-0.01 -0,-0 -0,-0 -0,-0 -0,-0 -0,-0 -0,-0.01 -0,-0 -0,-0 -0,-0 -0,-0 -0.01,-0.01 -0.01,-0.01 -0.04,-0.04 -0.1,-0.05 -0.15,-0.03 0,0.01 0,0.01 0,0.02 0,0 0,0 0,0 0,0.01 0,0.01 0,0.02 0,0 0,0 0,0 0,0 0,0 0,0 0.08,-0.01 0.14,0.02 0.19,0.08z"/>
    </g>
    <path class="fil5 str0" d="M2.65 0.25c0.05,0.07 0.06,0.16 0.07,0.24 -0,0.05 0,0.1 -0,0.15 -0.01,0.07 -0.03,0.15 -0.05,0.22 -0.02,0.06 -0.05,0.11 -0.1,0.15 0.01,0.03 0.02,0.05 0.04,0.08 0.05,0.11 0.08,0.23 0.08,0.34 -0.01,0.04 -0,0.08 -0.01,0.11 -0.01,0.07 -0.05,0.13 -0.08,0.18 -0.01,0.03 0.01,0.06 0.01,0.09 0.03,0.02 0.07,0.04 0.1,0.06 0.04,0.02 0.07,0.04 0.11,0.06 0.03,0.02 0.06,0.03 0.1,0.04 0.02,0.01 0.05,0.02 0.07,0.04 -0.1,0.02 -0.19,0.04 -0.29,0.06 -0.01,0 -0.02,0.01 -0.03,0.02 -0.03,0.04 -0.05,0.07 -0.08,0.11 -0.02,0.03 -0.05,0.06 -0.06,0.09 -0.02,0.04 -0.04,0.07 -0.07,0.1 -0.01,0.02 -0.01,0.04 0,0.05 0.04,0.12 0.09,0.24 0.13,0.35 0.01,0.02 0.02,0.05 0.02,0.08 -0.01,-0 -0.02,-0.01 -0.03,-0.02 -0.08,-0.06 -0.17,-0.12 -0.26,-0.17 -0.03,-0.02 -0.06,-0.04 -0.09,-0.06 -0.01,-0.01 -0.02,-0 -0.03,0 -0.02,0.01 -0.04,0.03 -0.06,0.04 -0.03,0.01 -0.05,0.04 -0.07,0.05 -0.09,0.04 -0.18,0.08 -0.28,0.12 -0.02,0.01 -0.04,0.02 -0.05,0.04l-0.18 0.52c-0.01,0.03 -0.02,0.06 -0.03,0.09 -0.01,-0.01 -0.01,-0.03 -0.02,-0.04l-0.2 -0.55c-0.01,-0.02 -0.01,-0.04 -0.02,-0.05 -0.01,-0.02 -0.03,-0.02 -0.04,-0.02 -0.03,-0.01 -0.06,-0.02 -0.09,-0.03 -0.05,-0.02 -0.1,-0.04 -0.15,-0.07 -0.05,-0.03 -0.09,-0.06 -0.14,-0.08 -0.01,-0.01 -0.03,-0.01 -0.04,-0l-0.38 0.25 0.16 -0.43c0.01,-0.02 0.01,-0.03 0,-0.05 -0.02,-0.03 -0.05,-0.07 -0.07,-0.1 -0.02,-0.03 -0.04,-0.06 -0.07,-0.09 -0.03,-0.04 -0.06,-0.07 -0.08,-0.11l-0.31 -0.07 0.35 -0.17c0.01,-0.01 0.02,-0.02 0.02,-0.04 0.01,-0.02 0.01,-0.05 0.01,-0.07 -0,-0.01 -0.01,-0.02 -0.02,-0.03 -0.04,-0.06 -0.07,-0.13 -0.07,-0.2 -0,-0.03 -0.01,-0.06 -0,-0.09 0.01,-0.03 0,-0.07 0.01,-0.1 0.01,-0.1 0.06,-0.2 0.1,-0.29 -0.01,-0.02 -0.02,-0.03 -0.03,-0.04 -0.05,-0.06 -0.07,-0.13 -0.08,-0.2 -0.01,-0.03 -0.01,-0.06 -0.02,-0.09 -0.02,-0.06 -0.01,-0.12 -0.01,-0.18 0.01,-0.09 0.03,-0.19 0.09,-0.27 0.04,-0.06 0.12,-0.09 0.19,-0.09 0.03,-0 0.07,0.01 0.1,0.01 0.03,-0.04 0.05,-0.07 0.09,-0.09 0.04,-0.02 0.09,-0.04 0.13,-0.03 0.04,0.01 0.08,0.03 0.12,0.05 0.03,0.02 0.05,0.05 0.08,0.07 0.09,-0.05 0.2,-0.1 0.31,-0.11 0.07,-0.01 0.14,-0.01 0.21,0 0.11,0.01 0.21,0.06 0.3,0.11 0.04,-0.04 0.09,-0.08 0.14,-0.11 0.03,-0.01 0.07,-0.02 0.11,-0.01 0.04,0.01 0.08,0.03 0.12,0.06 0.02,0.02 0.03,0.04 0.04,0.06 0.06,-0.01 0.12,-0.02 0.18,0 0.05,0.02 0.1,0.06 0.13,0.1z"/>
   </g>
   <path class="fil5 str1" d="M0.95 1.18c0.01,0.08 0.08,0.13 0.21,0.14"/>
   <path class="fil5 str1" d="M2.1 1.18c-0.02,0.08 -0.08,0.13 -0.19,0.15"/>
   <path class="fil6" d="M1.23 1.3c-0.02,-0.02 -0.05,-0.03 -0.08,-0.04 -0.04,-0.02 -0.08,-0.05 -0.12,-0.07 -0.01,-0 -0.02,-0 -0.03,-0 -0.02,-0 -0.03,-0 -0.05,0 0.01,0.08 0.08,0.13 0.21,0.14 0.02,-0 0.04,-0.01 0.06,-0.02z"/>
   <path class="fil7" d="M1.92 1.24c-0.03,0.02 -0.07,0.04 -0.1,0.06 0.01,0.01 0.03,0.01 0.04,0.02 0.01,0 0.03,0.01 0.04,0.01 0.11,-0.02 0.17,-0.07 0.19,-0.15 -0.03,-0 -0.05,-0 -0.08,0 -0.04,0.02 -0.07,0.04 -0.1,0.06z"/>
   <path class="fil7" d="M1.16 1.32c-0.14,-0.01 -0.21,-0.06 -0.21,-0.14 -0.02,0 -0.03,0 -0.05,0.01 0,0.02 0.01,0.03 0.02,0.04 0.03,0.04 0.08,0.08 0.13,0.09 0.04,0 0.08,0 0.11,0z"/>
   <path class="fil7" d="M2.1 1.18c-0.02,0.08 -0.08,0.13 -0.19,0.15 0.05,0 0.1,-0 0.14,-0.02 0.03,-0.01 0.05,-0.04 0.07,-0.06 0.01,-0.02 0.02,-0.03 0.03,-0.05 -0.01,-0 -0.03,-0.01 -0.05,-0.01z"/>
   <path class="fil6" d="M1.91 1.32c0.11,-0.02 0.17,-0.07 0.19,-0.15 -0.03,-0 -0.05,-0 -0.08,0 -0.04,0.02 -0.07,0.04 -0.1,0.06 -0.03,0.02 -0.07,0.04 -0.1,0.06 0.01,0.01 0.03,0.01 0.04,0.02 0.01,0 0.03,0.01 0.04,0.01z"/>
  </g>
 </g>
</svg>
