<?xml version="1.0" encoding="UTF-8"?>
<!DOCTYPE svg PUBLIC "-//W3C//DTD SVG 1.1//EN" "http://www.w3.org/Graphics/SVG/1.1/DTD/svg11.dtd">
<!-- Creator: CorelDRAW 2018 (64-Bit) -->
<svg xmlns="http://www.w3.org/2000/svg" xml:space="preserve" width="0.422291in" height="0.471425in" version="1.1" style="shape-rendering:geometricPrecision; text-rendering:geometricPrecision; image-rendering:optimizeQuality; fill-rule:evenodd; clip-rule:evenodd"
viewBox="0 0 2.96 3.31"
 xmlns:xlink="http://www.w3.org/1999/xlink">
 <defs>
  <style type="text/css">
   <![CDATA[
    .str0 {stroke:#2B2A29;stroke-width:0;stroke-miterlimit:2.61313}
    .fil6 {fill:none}
    .fil1 {fill:#02222D}
    .fil4 {fill:#02222D}
    .fil2 {fill:#02ACEF}
    .fil3 {fill:#03617C}
    .fil5 {fill:#036D92}
    .fil7 {fill:#C79933}
    .fil8 {fill:#FBEB58}
    .fil0 {fill:#FBFBFB}
   ]]>
  </style>
 </defs>
 <g id="Layer_x0020_1">
  <metadata id="CorelCorpID_0Corel-Layer"/>
  <g id="_1184477312">
   <g>
    <path class="fil0" d="M0.28 1.29c-0.01,0.02 -0.03,0.04 -0.04,0.06 -0.04,0.06 -0.07,0.13 -0.1,0.2 -0.02,0.05 -0.03,0.1 -0.04,0.16l-0.01 0.19c0,-0 0.01,-0 0.01,-0 0.01,-0 0,-0.01 0.01,-0 -0.01,0.1 -0.03,0.09 -0.03,0.26 0.02,0.01 0.03,0.02 0.05,0.04 0,0.06 0,0.48 0.01,0.5 0.02,0.04 0.16,0.2 0.21,0.23 0.02,0.01 0.02,0.02 0.04,0.03l0.07 0.06c0.13,0.09 0.26,0.17 0.41,0.24 0.02,0.01 0.17,0.07 0.19,0.07l0.16 -0.14c0.02,-0.01 0.03,-0.02 0.04,-0.03l0.2 -0.13c0.1,-0.05 0.26,-0.12 0.37,-0.12 -0.01,-0.04 -0.05,-0.05 -0.08,-0.07l-0.01 -0c-0.01,-0.01 -0,-0 -0.01,-0.01 0.02,0 0.03,-0 0.05,-0 0.05,-0.01 0.04,-0.01 0.07,-0.04 0.01,-0.01 0.02,-0.02 0.03,-0.03 0.15,-0.18 0.24,-0.17 0.45,-0.22 -0.01,-0 0,-0 -0.01,-0.01 -0.07,-0.03 -0.15,-0.05 -0.24,-0.1 -0.07,-0.04 -0.16,-0.08 -0.21,-0.15 -0.06,-0.08 -0.1,-0.16 -0.08,-0.26 0.01,-0.08 0.02,-0.05 0.07,-0.1l0.04 -0.04c0.01,-0.02 0.03,-0.03 0.05,-0.04 0.01,0.02 0.02,0.06 0.03,0.09 0.01,0.02 0.02,0.07 0.04,0.08 0.02,-0.02 0.06,-0.12 0.07,-0.15l0.03 -0.05c0,0.03 0.02,0.09 0.02,0.12 0.01,0.04 0.03,0.07 0.04,0.1 0.03,-0.01 0.04,-0.08 0.05,-0.11l0.08 -0.22c0.01,-0.02 0.01,-0.04 0.02,-0.05 0.01,-0.02 0.02,-0.04 0.02,-0.06 0.01,0.02 0.03,0.04 0.04,0.06 0.02,0.03 0.03,0.05 0.05,0.05 0,-0.03 0.05,-0.18 0.07,-0.21 0.01,-0.03 0.02,-0.06 0.04,-0.1 0.02,-0.03 0.03,-0.07 0.04,-0.1 0.03,-0.05 0.07,-0.13 0.12,-0.16 0.04,-0.03 0.16,0.01 0.21,-0.21 0,-0.01 0,-0.04 0.01,-0.06 0.02,-0.06 0.05,-0.1 0.04,-0.17 -0.01,-0.08 -0.01,-0.15 -0.07,-0.21 -0.05,-0.05 -0.13,-0.07 -0.2,-0.08 -0.09,-0.01 -0.17,0 -0.25,0.03 -0.07,0.02 -0.03,0.03 -0.1,-0.01 -0.09,-0.04 -0.19,-0.06 -0.29,-0.03 -0.06,0.02 -0.07,-0.02 -0.15,-0.04 -0.06,-0.01 -0.13,-0.01 -0.19,0 -0.07,0.01 -0.11,-0 -0.18,-0.02 -0.04,-0.01 -0.07,-0.02 -0.11,-0.03 -0.02,-0.01 -0.03,-0.01 -0.05,-0.02 -0.02,-0.01 -0.03,-0.01 -0.05,-0.02 -0.04,-0.01 -0.07,-0.02 -0.1,-0.04 -0.13,-0.06 -0.24,-0.12 -0.36,-0.2 0.03,0.11 0.1,0.21 0.11,0.25 -0.13,-0.03 -0.25,-0.07 -0.37,-0.1l-0.28 -0.08c-0.03,-0.01 -0.06,-0.02 -0.1,-0.02 0.01,0.04 0.11,0.13 0.15,0.16 0.02,0.02 0.04,0.03 0.06,0.05 0.02,0.02 0.22,0.15 0.25,0.16 -0.07,0.06 -0.16,0.03 -0.26,0.02 -0.07,-0.01 -0.21,-0.04 -0.27,-0.05 0.01,0.03 0.03,0.05 0.05,0.07 0.02,0.02 0.03,0.04 0.06,0.06 0.01,0.01 0.02,0.02 0.03,0.03l0.07 0.05c0.02,0.01 0.03,0.01 0.04,0.03 -0.07,0 -0.13,0.01 -0.19,0.01 -0.07,-0 -0.14,-0 -0.21,-0 0.05,0.07 0.25,0.15 0.33,0.17 -0.02,0.05 -0.05,0.04 -0.11,0.1 -0.03,0.03 -0.08,0.07 -0.09,0.12 0.05,-0 0.11,-0.02 0.16,-0.02 0,0.06 -0.02,0.06 -0.05,0.1 -0.06,0.09 -0.14,0.21 -0.16,0.32 0.02,-0.01 0.01,-0 0.03,-0.02l0.08 -0.06c0.02,-0.02 0.08,-0.06 0.1,-0.07z"/>
    <path class="fil1" d="M1.11 0.33c-0.12,-0.02 -0.62,-0.17 -0.7,-0.18 0.02,0.03 0.23,0.18 0.28,0.21 0.04,0.02 0.07,0.04 0.11,0.06 -0.02,0.02 -0.08,0.04 -0.1,0.05 -0.07,0.03 -0.04,0.03 -0.13,0.02 -0.15,-0.01 -0.15,-0.02 -0.29,-0.04 0.02,0.03 0.17,0.13 0.22,0.15 -0.03,0.06 -0.06,0.05 -0.14,0.06 -0.07,0.01 -0.13,0.01 -0.2,0.01 0.02,0.04 0.18,0.08 0.23,0.09 -0.02,0.13 -0.1,0.11 -0.16,0.19l0.11 0 -0 0.07c0.02,-0.01 0.03,-0.02 0.04,-0.04 0.02,-0.02 0.02,-0.02 0.05,-0.02 -0.01,0.01 -0.19,0.19 -0.23,0.32 0.02,-0.01 0.05,-0.03 0.07,-0.05 0.05,-0.03 0.17,-0.11 0.22,-0.12 -0.01,0.02 -0.04,0.05 -0.06,0.07 -0.05,0.05 -0.12,0.15 -0.16,0.22 -0.06,0.11 -0.12,0.24 -0.12,0.39 0.03,-0.02 0.05,-0.07 0.08,-0.09 -0.01,0.03 -0.02,0.06 -0.03,0.1 -0.03,0.1 -0.06,0.22 -0.05,0.33 0.07,0.03 0.05,0.11 0.06,0.2l0 0.31c0,0.03 0,0.03 0.02,0.05 0.04,0.05 0.08,0.09 0.12,0.14 0.06,0.06 0.14,0.13 0.21,0.18 0.11,0.08 0.4,0.25 0.52,0.26 0.04,-0.07 0.21,-0.19 0.29,-0.24 0.09,-0.06 0.24,-0.14 0.38,-0.16 -0.05,-0.05 -0.28,-0.01 -0.34,0.01 -0.04,0.01 -0.07,0.02 -0.1,0.03 0.03,-0.05 0.15,-0.09 0.21,-0.11 0.1,-0.03 0.18,-0.02 0.29,-0.04 0.02,-0 0.05,-0.04 0.07,-0.08 0.04,-0.06 0.11,-0.12 0.18,-0.15 0.05,-0.02 0.08,-0.02 0.13,-0.03 -0.04,-0.02 -0.13,-0.04 -0.25,-0.12 -0.07,-0.04 -0.14,-0.11 -0.17,-0.2 -0.03,-0.09 -0.02,-0.16 0,-0.24 0.01,-0.05 0.04,-0.03 0.1,-0.09 0.02,-0.02 0.03,-0.03 0.05,-0.05 0.02,-0.02 0.07,-0.09 0.09,-0.1 0.01,0.04 0.02,0.13 0.05,0.15 0.02,-0.03 0.07,-0.16 0.11,-0.22 0.01,-0.02 0.03,-0.05 0.04,-0.07 0.02,0.03 -0.04,0.14 0.01,0.3 0.02,-0.03 0.09,-0.32 0.18,-0.42 0.02,0.03 0.01,0.1 0.04,0.13 0.01,-0.02 0.02,-0.07 0.03,-0.1 0.01,-0.03 0.02,-0.07 0.04,-0.1 0.18,-0.46 0.32,-0.2 0.38,-0.45 0.01,-0.02 0.01,-0.04 0.01,-0.06 0,-0.05 0.05,-0.08 0.04,-0.17 -0.01,-0.1 -0.02,-0.15 -0.08,-0.19 -0.09,-0.07 -0.23,-0.06 -0.34,-0.03 -0.04,0.01 -0.07,0.03 -0.11,0.03 -0.08,-0.06 -0.14,-0.1 -0.26,-0.07 -0.02,0 -0.08,0.03 -0.09,0.03 -0.03,0 -0.07,-0.04 -0.18,-0.05 -0.07,-0 -0.16,0.02 -0.21,0.01 -0.17,-0.04 -0.37,-0.1 -0.52,-0.17 -0.06,-0.03 -0.1,-0.06 -0.15,-0.09 0.01,0.05 0.06,0.13 0.09,0.16 0.02,0.02 0.03,0.03 0.04,0.05z"/>
    <path class="fil2" d="M0.83 0.48c-0.13,0.04 -0.26,0.16 -0.32,0.24 0.01,0 0.05,-0.04 0.07,-0.05 0.07,-0.06 0.12,-0.09 0.21,-0.13 0.1,-0.04 0.3,-0.06 0.38,-0.01 -0.02,0.03 -0.11,0.15 -0.09,0.2l0.04 -0.01c0,0 -0.01,0.02 -0,0.01 -0.06,0.01 -0.37,0.26 -0.43,0.31 -0.01,0.01 -0.01,0.02 -0.03,0.03l-0.08 0.07c-0.02,0.02 -0.03,0.03 -0.05,0.05 -0.07,0.08 -0.23,0.27 -0.26,0.37l0.02 -0.03c0.02,-0.04 0.07,-0.09 0.09,-0.12 0.03,-0.04 0.06,-0.07 0.1,-0.11 0.03,-0.04 0.07,-0.07 0.1,-0.11 0.06,-0.06 0.16,-0.15 0.22,-0.2 0.04,-0.03 0.08,-0.06 0.12,-0.09 0.05,-0.04 0.21,-0.13 0.28,-0.14 -0.01,0.02 -0.03,0.03 -0.05,0.04 -0.04,0.04 -0.07,0.09 -0.08,0.14 -0.01,0.04 0.01,0.04 0.01,0.04 0,-0.01 0.01,-0.01 0.01,-0.02 0.03,-0.04 0.07,-0.09 0.12,-0.12 -0.01,0.03 -0.05,0.08 -0.07,0.11 -0.13,0.21 -0.22,0.36 -0.34,0.57l-0.09 0.18c-0.01,0.01 -0.01,0.02 -0.02,0.03 -0.01,0.03 -0.01,0.02 -0.02,0.02 -0.02,0.03 -0.09,0.26 -0.08,0.29l0.03 -0.07c0.01,-0.03 0.03,-0.07 0.04,-0.09 0.01,-0.03 0.03,-0.06 0.04,-0.09 0.05,-0.1 0.22,-0.45 0.28,-0.49 -0.01,0.04 -0.03,0.07 -0.03,0.11l0.02 -0.02c0,-0 0.01,-0.01 0.01,-0.02 0.09,-0.14 0.24,-0.38 0.36,-0.46 -0.01,0.06 -0.03,0.08 -0.01,0.15 0.01,0.04 0.05,0.09 0.08,0.1 0.02,-0.02 0.05,-0.04 0.08,-0.05 -0.01,0.03 -0.03,0.06 -0.04,0.09 -0.01,0.03 -0.03,0.06 -0.04,0.09 -0.07,0.17 -0.16,0.45 -0.13,0.63 0,-0 0,-0 0.01,-0.01l0.01 -0.04c0.01,-0.02 0.02,-0.03 0.02,-0.05 0.01,-0.12 0.02,-0.25 0.05,-0.36 0.01,0.02 0.01,0.05 0.02,0.08 0.01,-0.02 0.01,-0.05 0.02,-0.07 0.02,-0.06 0.07,-0.13 0.1,-0.17l0 -0.05c0.03,-0.05 0.01,-0.08 0.05,-0.12 0.02,0.14 0.13,0.14 0.17,0.16 -0.03,0.02 -0.07,0.02 -0.11,0.02 0.04,0.07 0.25,0.02 0.31,0.01 0.07,-0.01 0.12,-0.07 0.18,-0.08 -0.01,0.01 0,0 -0.01,0.01l-0.08 0.06 -0.03 0.08c0.03,-0.02 0.12,-0.1 0.16,-0.14 -0.02,0.05 -0.05,0.1 -0.04,0.16 0.03,-0.06 0.11,-0.24 0.17,-0.27 -0.01,0.05 -0.04,0.09 -0.04,0.14 0.02,-0.05 0.28,-0.29 0.31,-0.31l-0.02 -0c-0.04,-0 -0.08,0.01 -0.11,0.02 0.07,-0.08 0.28,-0.09 0.33,0.01 0.02,-0.01 0.03,-0.02 0.04,-0.05 -0.03,-0.04 -0.03,-0.07 -0.13,-0.09 -0.03,-0.01 -0.07,-0.01 -0.1,-0.01 -0.06,0 -0.04,0.01 -0.07,0.04l-0.01 0.04c-0.04,-0 -0.04,-0.03 -0.16,0.02 -0.05,0.02 -0.09,0.05 -0.12,0.08 0.01,-0.03 0.06,-0.07 0.08,-0.09 0.05,-0.04 0.1,-0.05 0.11,-0.07 -0.16,-0.04 -0.29,0.17 -0.43,0.21l0.02 -0.02c-0.03,0.01 -0.04,0.01 -0.07,0.01 -0.01,0.03 -0.01,0.05 -0.03,0.07 -0.02,-0.01 -0.02,-0.02 -0.04,-0.03 -0.03,-0 -0.08,0.02 -0.15,-0l0.05 -0.01c-0.04,-0.02 -0.11,-0.01 -0.12,-0.07 -0.01,-0.03 0.01,-0.04 0.01,-0.06 0.01,-0.06 -0,-0.02 0.02,-0.09 0.01,0.01 0,-0 0.01,0.01 0,0 0,0.01 0.01,0.01 0.02,0.03 0.05,0.03 0.08,0.03l-0.03 0.02c-0,-0 -0,0 -0,0 0.06,0.01 0.11,-0.01 0.15,-0.04 0.02,-0.01 0.06,-0.08 0.08,-0.1l0.01 0.01c0,-0 0,0 0,0l0.02 -0.01 0.01 0.05c0.04,-0.01 0.12,-0.08 0.21,-0.11 0.03,-0.01 0.02,0 0.02,0 0.03,0.01 0.02,-0.02 0.06,0 0.02,0.01 0.02,0 0.05,0 0.03,-0 0.04,0 0.06,-0.01 0.09,-0.06 0.1,-0.01 0.15,-0.03 0.08,-0.03 0.16,-0.04 0.23,0.01l0.05 0.03c0,0.03 -0.01,0.07 0,0.09 0.01,-0.03 0,-0.05 0.01,-0.07 0,-0.01 0.02,-0.04 0.02,-0.06 -0,-0.02 -0,-0.04 -0.01,-0.06 -0.01,-0.03 -0.02,-0.02 -0.03,-0.05 -0.01,-0.04 -0.02,-0.07 -0.06,-0.08l0.02 0.04c-0.05,-0.02 -0.12,-0.08 -0.2,-0.04 -0.02,0.01 -0.02,0.02 -0.04,0.02 -0.04,0.01 -0.09,0.02 -0.13,0.06 -0,-0 -0,-0 -0,-0 -0.01,-0.02 -0,-0.02 -0.01,-0.03 -0.06,-0.02 -0.12,-0.04 -0.18,-0.04 0,-0.05 -0.06,-0.06 -0.1,-0.05 0.02,0.02 0.04,0.03 0.06,0.04l-0.05 -0 -0.02 0.01 -0.01 0.04c-0.02,-0.01 -0.02,-0.02 -0.05,-0.03 -0.1,-0.05 -0.13,-0.04 -0.16,-0.05 -0.01,-0 -0.01,-0 -0.01,-0.01l0.06 -0.01c-0.05,-0.01 -0.07,-0.02 -0.13,-0.01 -0.03,0 -0.1,0.02 -0.11,0.02l-0.05 0.06c0,-0.03 0.02,-0.05 0.03,-0.07 -0.11,0.02 -0.19,0.1 -0.23,0.2 -0.01,0.03 -0.02,0.09 -0.03,0.11 -0.04,-0.07 -0.01,-0.22 0.04,-0.26 -0.04,-0 -0.09,-0.04 -0.21,-0.05l0.04 -0.02c-0.08,-0.01 -0.16,-0.01 -0.24,0 -0.03,0 -0.19,0.03 -0.2,0.03z"/>
    <path class="fil3" d="M2.01 1.27c-0.06,0.04 -0.2,0.12 -0.28,0.13 0.01,-0 0.04,-0.02 0.05,-0.03 -0.1,0.01 -0.16,0.03 -0.24,-0.05l0.01 0.05c-0.03,-0.02 -0.03,-0.05 -0.03,-0.09 -0.03,0.05 -0.08,0.12 -0.1,0.17 -0.01,0.02 -0.01,0.05 -0.02,0.07 -0.01,-0.03 -0.01,-0.05 -0.02,-0.08 -0.03,0.11 -0.04,0.24 -0.05,0.36l0.09 -0.17c0.02,-0.03 0.09,-0.14 0.11,-0.15 -0.01,0.03 -0.02,0.05 -0.02,0.09 0.04,-0.02 0.07,-0.04 0.12,-0.05l0 0.01c0.03,-0.01 0.06,-0.04 0.11,-0.04 -0.02,0.05 -0.03,0.09 -0.06,0.14 -0.03,0.05 -0.05,0.08 -0.08,0.13 0.06,-0.03 0.3,-0.35 0.32,-0.36 -0.01,0.11 -0.09,0.29 -0.15,0.38 0.09,-0.03 0.24,-0.27 0.29,-0.36 0,0.06 -0.02,0.14 -0.02,0.21l0.07 -0.11c0.04,-0.06 0.19,-0.25 0.23,-0.28l-0.04 0.15c0.06,-0.06 0.19,-0.36 0.34,-0.41l0.04 -0.02c-0.06,-0.02 -0.05,-0.03 -0.12,-0.04 -0.02,-0 -0.03,-0.01 -0.05,0l0.02 0c-0.04,0.02 -0.29,0.26 -0.31,0.31 -0,-0.05 0.02,-0.1 0.04,-0.14 -0.05,0.02 -0.14,0.21 -0.17,0.27 -0,-0.06 0.03,-0.12 0.04,-0.16 -0.04,0.03 -0.13,0.12 -0.16,0.14l0.03 -0.08z"/>
    <path class="fil2" d="M1.05 2.38c0,0.02 -0.1,0.09 -0.11,0.12 -0.01,0.02 -0,0.09 -0,0.12 0,0.02 0.01,0.09 -0,0.11l0.03 0.18c-0.03,-0.03 -0.09,-0.18 -0.12,-0.2 -0.03,-0.02 -0.1,-0.04 -0.21,-0.1 -0.02,-0.01 -0.11,-0.07 -0.12,-0.08 -0.01,0.07 0.01,0.15 0.04,0.2 0.03,0.05 0.36,0.26 0.45,0.28 0.04,-0.08 0.07,-0.15 0.12,-0.22 0.09,-0.13 0.14,-0.16 0.15,-0.19 -0.11,0 -0.18,0.08 -0.2,0.08 -0.02,-0.14 0.14,-0.38 0.19,-0.41 -0.01,-0.01 0.02,-0.01 -0.02,-0.01l-0.07 0.02c-0.03,0.01 -0.05,0.02 -0.08,0.03l0.05 0 -0.1 0.06z"/>
    <path class="fil2" d="M1.01 1.91c-0.03,0.02 -0.07,0.03 -0.1,0.04 -0.04,0.02 -0.06,0.02 -0.07,0.07 -0.01,0.09 -0.01,0.18 -0.01,0.28l0 0.03c0.06,-0.04 0.05,-0.06 0.19,-0.14 0.05,-0.03 0.16,-0.09 0.22,-0.11 -0,-0.02 -0.03,-0.07 -0.03,-0.09l-0.04 -0.09c-0.04,-0 -0.13,-0.01 -0.16,0z"/>
    <path class="fil3" d="M0.64 1.96c0.01,-0.01 0.03,-0.04 0.04,-0.06 0.01,-0.02 0.02,-0.04 0.03,-0.06 0.09,-0.15 0.35,-0.53 0.5,-0.6 0.07,-0.03 0.09,0 0.11,0.06 0.05,-0.07 0.01,-0.05 0.1,-0.14 0,-0 0,-0 0,-0l0.01 -0.01c-0.03,-0.01 -0.07,-0.06 -0.08,-0.1 -0.02,-0.07 0,-0.1 0.01,-0.15 -0.12,0.08 -0.27,0.32 -0.36,0.46 -0,0.01 -0.01,0.01 -0.01,0.02l-0.02 0.02c0,-0.05 0.02,-0.07 0.03,-0.11 -0.07,0.04 -0.23,0.39 -0.28,0.49 -0.02,0.03 -0.03,0.06 -0.04,0.09 -0.01,0.03 -0.03,0.06 -0.04,0.09z"/>
    <path class="fil3" d="M0.3 1.52c0.02,-0.01 0.13,-0.13 0.15,-0.15 0.09,-0.08 0.22,-0.2 0.33,-0.26 0.04,-0.02 0.11,-0.06 0.16,-0.06 0.04,0 0.04,0.01 0.06,0.02 0.03,-0.03 0.04,-0.07 0.08,-0.1l0.01 -0.02c-0,-0 -0.02,0 -0.01,-0.04 0.01,-0.05 0.04,-0.1 0.08,-0.14 0.01,-0.01 0.03,-0.03 0.05,-0.04 -0.07,0.01 -0.22,0.11 -0.28,0.14 -0.04,0.03 -0.08,0.06 -0.12,0.09 -0.07,0.05 -0.16,0.14 -0.22,0.2 -0.03,0.04 -0.07,0.07 -0.1,0.11 -0.04,0.04 -0.06,0.07 -0.1,0.11 -0.03,0.03 -0.07,0.09 -0.09,0.12z"/>
    <path class="fil3" d="M0.56 2.73c-0.03,-0.06 -0.05,-0.13 -0.04,-0.2 0.02,0 0.1,0.06 0.12,0.08 0.11,0.07 0.18,0.09 0.21,0.1 0.02,0.01 0.09,0.17 0.12,0.2l-0.03 -0.18c-0.01,-0.08 -0.03,-0.17 -0.03,-0.25 0.04,-0.03 0.09,-0.08 0.15,-0.1l0.1 -0.06 -0.05 -0c0.02,-0.01 0.04,-0.02 0.08,-0.03l0.07 -0.02c0.04,-0 0.01,-0.01 0.02,0.01 0.02,-0.03 0.06,-0.07 0.08,-0.08 -0.11,-0.02 -0.45,0.22 -0.51,0.28 0,0.05 0.03,0.14 0.04,0.18 -0.07,-0.02 -0.39,-0.22 -0.42,-0.24 -0,0.05 -0.01,0.15 0,0.2 0.01,0.03 0.08,0.1 0.1,0.11z"/>
    <path class="fil4" d="M1.56 0.76c0.03,-0.05 0.12,-0.09 0.2,-0.09 0.09,-0.01 0.17,0.03 0.24,0.05 0.03,0.01 0.06,0.01 0.1,0.01 -0.04,-0.02 -0.09,-0.01 -0.12,-0.05 0.01,-0.01 0.07,-0.02 0.09,-0.03 -0.01,0.02 -0.01,0.01 -0.02,0.03 0.03,-0.01 0.04,-0.02 0.06,-0.03 0.02,-0.01 0.05,0 0.07,-0l-0.09 -0.03c-0.03,-0.02 -0.01,-0 -0.02,-0.03 -0.04,0.07 -0.2,-0.05 -0.24,-0.05 -0.03,0 0.03,0.01 -0.02,0.01 -0.02,-0 -0.06,-0.02 -0.11,-0.01 -0.05,0.01 -0.09,0.03 -0.11,0.06l0.05 -0c-0.01,0.02 -0.01,0.01 -0.02,0.03 -0.01,0.01 -0.01,0.01 -0.02,0.02 -0.02,0.02 -0.02,0.03 -0.04,0.06 -0.03,0.04 -0.05,0.07 -0.05,0.14 0,-0 0,-0 0,-0 0,0.01 0.02,-0.05 0.04,-0.06z"/>
    <path class="fil3" d="M0.83 2.34l-0 -0.03c-0,-0.08 -0.05,-0.28 -0.01,-0.35 0.03,-0.02 0.15,-0.04 0.19,-0.04 0.03,-0.01 0.12,-0.01 0.16,-0l-0.02 -0.09c-0.05,0.01 -0.36,0.07 -0.38,0.09 -0.03,0.06 -0.02,0.27 -0.01,0.34 -0.08,0.01 -0.22,-0.04 -0.31,-0.05 0.03,0.03 0.32,0.13 0.38,0.14z"/>
    <path class="fil3" d="M0.51 0.72c-0.02,0.01 -0.06,0.08 -0.07,0.1l0.12 -0.12c0.15,-0.13 0.33,-0.19 0.54,-0.14 -0.03,0 -0.2,0 -0.22,0.02 0.05,0.01 0.07,0.05 0.06,0.11 -0.01,0.05 -0.03,0.08 -0.05,0.12 0.03,-0.01 0.06,-0.03 0.09,-0.05l0.1 -0.05c0,-0 0,-0 0,-0 0,-0 0,-0 0,-0 -0.02,-0.05 0.07,-0.17 0.09,-0.2 -0.09,-0.05 -0.28,-0.03 -0.38,0.01 -0.09,0.04 -0.14,0.07 -0.21,0.13 -0.01,0.01 -0.06,0.05 -0.07,0.05z"/>
    <path class="fil0" d="M2.1 0.48c0.05,-0 0.1,0 0.1,0.05 0.06,0.01 0.13,0.03 0.18,0.04 0.01,0 -0,0.01 0.01,0.03 0,0 0,0 0,0 0.03,-0.04 0.09,-0.05 0.13,-0.06 0.02,-0.01 0.02,-0.01 0.04,-0.02 0.08,-0.04 0.14,0.02 0.2,0.04l-0.02 -0.04c0.04,0.01 0.05,0.04 0.06,0.08 0,0.03 0.01,0.02 0.03,0.05 0.01,0.02 0.01,0.04 0.01,0.06 0,-0.02 0,-0.04 0,-0.05 0,-0.02 0.02,-0.02 0.01,-0.04 -0,-0.02 -0.03,-0.06 -0.04,-0.07 -0.08,-0.1 -0.25,-0.07 -0.36,-0.02 -0.05,0.02 -0.04,0.02 -0.1,0.01 -0.04,-0 -0.08,-0 -0.11,-0 0.02,-0.01 0.04,-0.01 0.08,-0.02 -0.01,-0.04 -0.09,-0.1 -0.18,-0.08 -0.03,0.01 -0.05,0.02 -0.06,0.03l0.02 0.01z"/>
    <path class="fil2" d="M0.95 1.74l0.25 -0.04 0.04 -0.18c-0,-0.01 -0,-0.01 -0,-0.01 -0.11,0.01 -0.13,0.02 -0.19,0.08 -0.03,0.03 -0.08,0.11 -0.12,0.15 0.01,0.01 -0.02,0.01 0.02,0.01z"/>
    <path class="fil3" d="M0.56 0.87c0.04,-0.01 0.13,-0.05 0.18,-0.05 -0.09,0.03 -0.31,0.21 -0.36,0.29 0.07,-0.03 0.11,-0.07 0.2,-0.11 0.04,-0.02 0.05,-0.01 0.07,-0.04l-0.05 0.01c0.03,-0.03 0.16,-0.11 0.2,-0.13l-0.05 0c0.02,-0.02 0.05,-0.04 0.08,-0.06l-0.08 0c0.03,-0.03 0.06,-0.02 0.07,-0.05l0.01 -0.02c0,-0 0,-0 0,-0 0,-0 0,-0 0,-0l-0.05 0.01c0.01,-0.02 0.01,-0.02 0.04,-0.04 -0.06,0.02 -0.24,0.14 -0.27,0.17z"/>
    <path class="fil3" d="M0.95 1.74c-0.03,0 -0.01,0 -0.02,-0.01 0.03,-0.05 0.08,-0.12 0.12,-0.15 0.06,-0.06 0.08,-0.07 0.19,-0.08 0,0.01 0,0 0,0.01 0.01,-0.01 0.01,-0.05 0.02,-0.06 -0.04,-0 -0.11,0.01 -0.15,0.02 -0.1,0.03 -0.23,0.23 -0.25,0.28 0.02,-0 0.08,-0 0.09,-0.01z"/>
    <path class="fil1" d="M1.93 1.28l-0.02 0.01c-0.05,0.02 -0.15,0.04 -0.21,0.04 -0.04,-0 -0.08,-0.02 -0.1,-0.03 -0.05,-0.03 -0.04,-0.06 -0.07,-0.07l-0 0.05c-0,0.04 0,0.07 0.03,0.09l-0.01 -0.05c0.08,0.08 0.14,0.05 0.24,0.05 -0.01,0.01 -0.04,0.03 -0.05,0.03 0.08,-0.01 0.22,-0.09 0.28,-0.13l0.08 -0.06c0.01,-0.01 0,-0 0.01,-0.01 -0.05,0.02 -0.11,0.07 -0.18,0.08z"/>
    <path class="fil0" d="M1.11 0.95l0.03 -0.02c-0.02,0.03 -0.04,0.06 -0.06,0.09 -0.11,0.17 -0.33,0.54 -0.39,0.72 0,0.01 0,0.01 0.02,-0.02 0.01,-0.01 0.01,-0.02 0.02,-0.03l0.09 -0.18c0.12,-0.21 0.21,-0.37 0.34,-0.57 0.02,-0.03 0.06,-0.08 0.07,-0.11 -0.05,0.02 -0.09,0.08 -0.12,0.12z"/>
    <path class="fil3" d="M1.84 1.09c-0.01,-0.02 -0.02,-0.03 -0.03,-0.04 -0.08,-0 -0.18,0.02 -0.18,-0.08 0.04,-0 0.05,0.02 0.17,0.01l0.01 0.01c-0,-0.02 0.01,-0.03 0.04,-0.03 0.01,-0.03 0.03,-0.02 0.05,-0.01 0.01,-0.04 0.03,-0.07 0.05,-0.11l0.01 -0.02c-0,-0 -0,-0 -0,-0l-0.01 -0.01c-0.02,0.02 -0.06,0.09 -0.08,0.1 -0.04,0.02 -0.09,0.04 -0.15,0.04 0,-0 0,-0 0,-0l0.03 -0.02c-0.03,0 -0.06,-0 -0.08,-0.03 -0,-0.01 -0,-0.01 -0.01,-0.01 -0.01,-0.02 0,-0 -0.01,-0.01 -0.03,0.07 -0.02,0.02 -0.02,0.09 -0,0.03 -0.02,0.03 -0.01,0.06 0.01,0.05 0.07,0.05 0.12,0.07l-0.05 0.01c0.08,0.02 0.12,-0 0.15,0z"/>
    <path class="fil3" d="M1.52 1.22c0.03,0.01 0.02,0.04 0.07,0.07 0.03,0.02 0.06,0.03 0.1,0.03 0.06,0 0.16,-0.01 0.21,-0.04l0.02 -0.01c-0.06,0.01 -0.26,0.07 -0.31,-0.01 0.04,0 0.09,0 0.11,-0.02 -0.03,-0.02 -0.14,-0.01 -0.17,-0.16 -0.04,0.05 -0.02,0.08 -0.05,0.12z"/>
    <path class="fil2" d="M1.63 1.54c-0.01,0.06 -0.02,0.1 -0.05,0.15 -0.02,0.05 -0.05,0.09 -0.06,0.14 0.03,-0.01 0.07,-0.05 0.08,-0.06 0.03,-0.04 0.05,-0.08 0.08,-0.13 0.02,-0.05 0.04,-0.09 0.06,-0.14 -0.05,-0 -0.08,0.03 -0.11,0.04z"/>
    <path class="fil0" d="M0.83 0.48c0.01,0 0.17,-0.03 0.2,-0.03 0.08,-0.01 0.16,-0.01 0.24,-0l-0.04 0.02c0.12,0.01 0.17,0.04 0.21,0.05 0.03,-0.04 0.03,-0.02 0.05,-0.04 0.01,-0.01 0,-0 0.01,-0.01 -0.26,-0.06 -0.43,-0.06 -0.67,0.02z"/>
    <path class="fil5" d="M1.41 2.5l0.23 -0.12c0.03,-0.02 0.06,-0.04 0.07,-0.07 -0,-0 -0,-0 -0,-0l-0.06 -0.05c-0.02,-0.02 -0,-0.01 -0.03,-0.01 -0.02,0.06 -0.04,0.09 -0.09,0.14 -0.02,0.02 -0.1,0.1 -0.12,0.11z"/>
    <path class="fil0" d="M1.56 0.76c0.02,-0.02 0.09,-0.05 0.13,-0.05 -0.03,0.01 -0.05,0.03 -0.06,0.04 0.04,-0 0.08,-0.03 0.14,-0.03 0.07,-0.01 0.1,0.01 0.16,0.02 -0.02,-0.02 -0.06,-0.03 -0.08,-0.04 0.05,0 0.1,0.03 0.15,0.02 -0.08,-0.03 -0.15,-0.06 -0.24,-0.05 -0.08,0.01 -0.17,0.04 -0.2,0.09z"/>
    <path class="fil3" d="M1.74 2.56c0,-0.01 0.09,-0.06 0.1,-0.09 -0.02,-0.01 -0.03,-0.01 -0.05,-0.02 -0.04,-0.02 -0.04,-0.01 -0.03,-0.03 -0.01,0.01 -0.02,0.04 -0.04,0.07 -0.07,0.09 -0.15,0.13 -0.17,0.16 0.04,-0 0.11,-0.04 0.15,-0.06 0.01,-0 0.01,-0.01 0.02,-0.01 0.02,-0.01 0.01,-0 0.02,-0.02z"/>
    <path class="fil5" d="M1.39 2.26c0.05,-0.01 0.08,-0.04 0.12,-0.06 0.03,-0.02 0.03,-0.02 0.05,-0.04 0.01,-0.01 0.01,-0.01 0.02,-0.02l0.01 -0.02c0,-0 0,-0 0,-0 0.01,-0.02 -0.01,-0.04 -0.01,-0.1 -0,-0.02 -0,-0.02 -0.01,-0.03 -0.01,0.02 -0.01,0.02 -0.02,0.04 -0.02,0.05 -0.07,0.13 -0.11,0.18 -0.02,0.03 -0.04,0.04 -0.06,0.06z"/>
    <path class="fil3" d="M0.68 1.43l0.01 -0.01c0.02,-0.02 0.04,-0.06 0.07,-0.09 0.02,-0.02 0.08,-0.08 0.09,-0.09 -0.03,0 -0.04,0.02 -0.07,0.03 0.02,-0.06 0.09,-0.1 0.13,-0.13 -0.1,-0.01 -0.12,0.05 -0.16,0.11 -0.03,0.04 -0.07,0.13 -0.08,0.19z"/>
    <path class="fil0" d="M1.68 0.48c0.01,0 0.08,-0.02 0.11,-0.02 0.05,-0 0.08,0 0.13,0.01l-0.06 0.01c0.01,0 0,0 0.01,0.01 0.03,0.01 0.07,0 0.16,0.05 0.02,0.01 0.03,0.02 0.05,0.03l0.01 -0.04 0.02 -0.01c-0.14,-0.03 -0.29,-0.16 -0.43,-0.04z"/>
    <path class="fil0" d="M0.83 2.3c0.01,-0.09 -0,-0.18 0.01,-0.28 0.01,-0.05 0.02,-0.05 0.07,-0.07 0.03,-0.01 0.07,-0.02 0.1,-0.04 -0.04,0 -0.16,0.02 -0.19,0.04 -0.05,0.07 0.01,0.27 0.01,0.35z"/>
    <path class="fil0" d="M2.48 0.87c0.03,-0.02 0.01,-0.04 0.07,-0.04 0.03,-0 0.07,0 0.1,0.01 0.1,0.02 0.11,0.05 0.13,0.09 0.03,-0.06 -0.08,-0.16 -0.23,-0.12 -0.05,0.01 -0.05,0.02 -0.07,0.06z"/>
    <path class="fil3" d="M1.21 2c0.01,0.03 0.03,0.08 0.03,0.09 0.02,-0.01 0.12,-0.05 0.13,-0.06l-0.1 -0.09 -0.01 0.1c-0.02,-0.01 -0.03,-0.03 -0.05,-0.05z"/>
    <path class="fil0" d="M1.9 1.05c0.03,0 0.04,-0 0.07,-0.01 0.02,-0.01 0.03,-0.02 0.04,-0.04 -0,-0.01 -0.02,-0.05 -0.03,-0.05 -0.02,-0.01 0.01,-0.01 -0.01,0.01 -0.01,-0.02 -0.01,-0.05 -0.01,-0.08 -0.03,0.03 -0.06,0.12 -0.07,0.18z"/>
    <path class="fil0" d="M1.51 0.41c0.01,-0.02 -0.01,0 -0,-0.02 0,-0 0,-0 0,-0 -0.1,-0.03 -0.21,-0.06 -0.3,-0.1 -0.03,-0.01 -0.06,-0.03 -0.09,-0.04 0.02,0.02 0.14,0.1 0.17,0.11 0.03,0.01 0.08,0.01 0.11,0.02 0.04,0.01 0.07,0.02 0.11,0.03z"/>
    <path class="fil0" d="M1.96 0.62c-0.03,-0.02 -0.15,-0.04 -0.2,-0.04 -0,0.04 0,0.04 0.03,0.05 0.02,0.01 0.04,0.02 0.05,0.02 0.05,0.01 0.09,-0 0.11,-0.03z"/>
    <path class="fil0" d="M0.93 2.73c0.01,-0.02 0,-0.09 0,-0.11 -0,-0.03 -0.01,-0.1 0,-0.12 0.01,-0.03 0.12,-0.11 0.11,-0.12 -0.05,0.02 -0.11,0.07 -0.15,0.1 -0,0.08 0.02,0.17 0.03,0.25z"/>
    <path class="fil2" d="M1.76 2.41c-0,0.02 -0.01,0.01 0.03,0.03 0.02,0.01 0.03,0.01 0.05,0.02 -0.01,0.03 -0.1,0.08 -0.1,0.09 0.03,-0.01 0.14,-0.07 0.16,-0.1 -0.01,-0.01 0.01,-0 -0.01,-0.01 -0.04,-0.02 -0.04,-0 -0.12,-0.05l-0.01 0.01z"/>
    <path class="fil0" d="M2.38 0.76c0.01,0.04 0.03,0.1 0.07,0.1 0,-0.02 -0,-0.04 0,-0.05 0,-0.02 0.01,-0.03 0.02,-0.05 -0.04,-0.02 -0.06,-0.02 -0.09,-0z"/>
    <path class="fil0" d="M1.81 0.99c0.01,0.03 0.02,0.07 0.05,0.09l0 -0.01c0,-0 0,-0 0,-0l0.02 -0.06c0,-0 0.01,0.02 0.02,-0.03 -0.01,-0.01 -0.01,-0.01 -0.02,-0.02l-0.03 -0.01c-0.02,0 -0.04,0.01 -0.04,0.03z"/>
    <path class="fil1" d="M2.76 0.62c-0.01,-0.01 -0.02,-0.01 -0.04,-0.02 -0.02,-0.01 -0.02,-0.01 -0.04,-0.02 -0.12,-0.07 -0.09,0.04 -0.02,0.03 0.03,-0 0.01,-0.01 0.04,0 0.02,0.01 0.02,0.01 0.05,0.01z"/>
   </g>
   <path class="fil6 str0" d="M1.93 0.61c-0.03,0.03 -0.07,0.03 -0.14,0.02"/>
   <path class="fil7" d="M1.84 0.65c0.05,0.01 0.09,-0 0.11,-0.03 -0.01,-0 -0.02,-0.01 -0.03,-0.01 -0.03,0.03 -0.07,0.03 -0.14,0.02 0.02,0.01 0.04,0.02 0.05,0.02z"/>
   <path class="fil8" d="M1.79 0.63c0.06,0.01 0.11,0 0.14,-0.02 -0.05,-0.01 -0.13,-0.03 -0.17,-0.03 -0,0.04 0,0.04 0.03,0.05z"/>
  </g>
 </g>
</svg>
