<?xml version="1.0" encoding="UTF-8"?>
<!DOCTYPE svg PUBLIC "-//W3C//DTD SVG 1.1//EN" "http://www.w3.org/Graphics/SVG/1.1/DTD/svg11.dtd">
<!-- Creator: CorelDRAW 2018 (64-Bit) -->
<svg xmlns="http://www.w3.org/2000/svg" xml:space="preserve" width="8.52381in" height="8.23831in" version="1.1" style="shape-rendering:geometricPrecision; text-rendering:geometricPrecision; image-rendering:optimizeQuality; fill-rule:evenodd; clip-rule:evenodd"
viewBox="0 0 2198.78 2125.13"
 xmlns:xlink="http://www.w3.org/1999/xlink">
 <defs>
  <style type="text/css">
   <![CDATA[
    .str0 {stroke:#2B2A29;stroke-width:1.79;stroke-miterlimit:2.61313}
    .fil9 {fill:none}
    .fil7 {fill:#016FBC}
    .fil8 {fill:#29ABDF}
    .fil10 {fill:#C79933}
    .fil11 {fill:#FBEB58}
    .fil1 {fill:#111111;fill-rule:nonzero}
    .fil4 {fill:gray;fill-rule:nonzero}
    .fil5 {fill:#B3B3B3;fill-rule:nonzero}
    .fil3 {fill:#CACCC8;fill-rule:nonzero}
    .fil0 {fill:#E7E7E7;fill-rule:nonzero}
    .fil2 {fill:#F8F8F8;fill-rule:nonzero}
    .fil6 {fill:#F9F9F9;fill-rule:nonzero}
   ]]>
  </style>
 </defs>
 <g id="Layer_x0020_1">
  <metadata id="CorelCorpID_0Corel-Layer"/>
  <g id="_1011844784">
   <path class="fil0" d="M507.64 0c159,140.18 336.53,266.56 539.9,332.74 21.4,9 44.25,-2.4 66.35,1.11 37.82,8.07 76.52,2.69 114.75,4.03 24.73,0.82 49.51,0.41 73.95,-4.03 177.24,9.7 360.15,49.63 507.46,153.57 80.38,58.86 157.89,122.93 221.61,199.92 88.8,103.94 140.76,235.93 156.67,371.08 28.64,210.03 0,432.69 -105.52,618.7 -34.2,57.05 -77.86,110.02 -134.86,145.5 -85.52,54.07 -184.31,82.72 -283.16,100.61 2.81,-82.37 3.57,-166.72 -19.99,-246.51 -9.41,-29.05 -24.38,-61.61 -55.36,-72.48 -29.11,-9.65 -61.38,5.26 -78.62,29.29 -29.52,38.58 -36.13,88.27 -44.25,134.63 -1.64,2.92 -4.97,8.83 -6.6,11.81 -4.62,32.03 -1.58,64.53 -3.04,96.8 -1.11,15.61 2.51,30.81 8.53,45.13 7.6,68.1 15.67,136.67 32.85,203.25 -79.38,-102.24 -165.08,-199.51 -255.86,-291.76 -86.05,-86.11 -176.65,-169 -280.06,-234 -129.83,-79.5 -268.08,-149.94 -417.91,-182.33 -84.41,-19.12 -171.28,-23.26 -257.5,-21.16 117.96,-62.96 248.79,-106.62 383.42,-109.08l0.23 -5.2c-157.13,-28.65 -317.83,-41.1 -477.24,-28.47 -65.24,6.72 -130.71,16.37 -193.38,36.36 67.64,-81.55 142.81,-156.61 222.02,-226.87 94.93,-83.24 197.64,-158.88 311.05,-215.18 71.55,-34.66 147.84,-61.26 227.16,-69.97 -89.44,-75.17 -159.59,-177.88 -179.81,-294.39 -0.23,-3.74 -0.7,-11.22 -0.93,-14.96 -10,-52.55 -0.99,-106.27 10.4,-157.77 -36.48,-86.69 -74.77,-174.96 -84.82,-269.43 -2.22,-13.68 0.99,-27.36 2.57,-40.92zm106.21 176.95l0 0c30.69,82.37 87.86,151.87 149.36,213.37 75.23,75.99 161.92,139.54 251.07,198.05 -38.17,-4.03 -75.12,-15.31 -111.3,-27.82 -91.89,-33.96 -177.3,-83.36 -257.33,-139.48 3.04,46.41 20.23,90.26 42.5,130.59 58.87,104.99 141.76,193.96 226.75,278.25 -110.25,12.51 -217.22,46.06 -318,91.89 -148.89,69.33 -286.2,164.55 -402.06,281 111.36,-21.22 226.11,-22.51 338.52,-9.64 151.58,20.52 302.16,69.27 428.49,156.96 -134.04,-22.74 -274.51,-25.14 -405.63,14.62 130.47,19.47 252.77,72.48 371.08,128.66 85.17,38.58 160.11,95.93 230.9,156.25 86.11,75.35 167.77,155.9 242.65,242.48 -8.3,-72.31 -5.14,-146.79 14.5,-217.11 14.2,-48.28 40.74,-97.45 87.16,-121.3 48.4,-25.9 113.7,-25.78 157.19,10.17 32.09,25.78 50.39,64.36 62.26,102.88 17.42,59.45 22.92,121.94 19.87,183.73 34.72,-7.07 69.15,-16.43 101.13,-31.8 78.1,-35.83 140.41,-100.25 182.27,-174.43 51.67,-91.54 80.61,-194.08 99.26,-296.96 21.57,-145.85 2.92,-295.15 -35.19,-436.67 -17.01,-67.81 -55.59,-127.55 -98.32,-181.86 -91.54,-116.86 -214.01,-209.98 -352.67,-263.52 -96.45,-36.24 -198.69,-55.36 -301.17,-63.25 -8.94,-12.39 -24.9,-8.94 -38,-9.82 -31.63,0.53 -63.43,-1.75 -94.82,3.27l6.84 6.72c-45.25,4.27 -90.61,10 -134.51,22.27 -9.59,2.1 -19.87,7.77 -29.29,1.87 -85.17,-35.42 -165.26,-81.72 -244.7,-128.31 -63.78,-38.99 -127.49,-78.27 -188.81,-121.07zm1054.61 1740.78l0 0 4.21 -0.41c-0.58,-46.94 1.58,-94 -2.63,-140.82 -3.8,46.94 -0.53,94.17 -1.58,141.23z"/>
   <path class="fil1" d="M613.85 176.95c61.32,42.79 125.04,82.07 188.81,121.07 79.44,46.59 159.53,92.89 244.7,128.31 9.41,5.91 19.7,0.24 29.29,-1.87 43.9,-12.28 89.26,-18.01 134.51,-22.27 41.91,-2.75 84,-3.1 125.97,-0.18 102.47,7.89 204.72,27.01 301.17,63.25 138.66,53.55 261.13,146.67 352.67,263.52 42.73,54.31 81.31,114.05 98.32,181.86 38.11,141.52 56.76,290.82 35.19,436.67 -18.65,102.88 -47.58,205.42 -99.26,296.96 -41.86,74.18 -104.17,138.6 -182.27,174.43 -31.98,15.37 -66.41,24.73 -101.13,31.8 3.04,-61.79 -2.45,-124.28 -19.87,-183.73 -11.87,-38.52 -30.16,-77.1 -62.26,-102.88 -43.49,-35.95 -108.79,-36.07 -157.19,-10.17 -46.41,23.85 -72.95,73.01 -87.16,121.3 -19.64,70.32 -22.8,144.8 -14.5,217.11 -74.88,-86.58 -156.55,-167.13 -242.65,-242.48 -70.79,-60.33 -145.73,-117.67 -230.9,-156.25 -118.32,-56.18 -240.61,-109.2 -371.08,-128.66 131.12,-39.75 271.59,-37.36 405.63,-14.62 -126.32,-87.68 -276.91,-136.44 -428.49,-156.96 -112.41,-12.86 -227.16,-11.57 -338.52,9.64 115.86,-116.45 253.18,-211.67 402.06,-281 102.7,-46.49 205.74,-78.7 317.98,-91.9 -86.26,-85.98 -166.37,-171.38 -226.73,-278.25 -22.27,-40.33 -39.46,-84.18 -42.5,-130.59 80.03,56.12 165.43,105.52 257.33,139.48 36.19,12.51 73.13,23.79 111.3,27.82 -89.15,-58.51 -175.84,-122.06 -251.07,-198.05 -61.5,-61.5 -118.67,-131 -149.36,-213.37zm110.54 803.89c-76.93,31.98 -149.47,75.47 -215,127.03 88.27,2.4 176.95,-2.34 264.63,9.53 133.16,12.63 266.33,44.08 384.35,108.5 46.94,27.65 91.43,60.62 127.9,101.6 -6.08,-23.73 -19.52,-44.78 -34.96,-63.48 -10.86,-12.95 -53.34,-51.54 -55.42,-55.53 -61.26,-43.02 -129.42,-75.35 -201.85,-94.58 10.4,-0.41 20.87,-0.58 31.33,-0.7 36.51,5.37 68.83,13.1 97.21,24.43 51.28,14.29 123.24,49.69 157.77,72.96 25.78,23.68 56.47,41.27 82.83,64.48 46.36,41.56 89.85,86.87 125.1,138.42 1.23,2.1 3.63,6.31 4.85,8.42 2.69,-38.87 5.96,-79.62 26.19,-113.93 11.69,-20.81 35.95,-33.38 59.74,-30.57 46.47,4.68 87.04,31.04 123.05,59.1 3.74,-3.92 7.54,-7.77 11.4,-11.57 39.81,-42.32 67.28,-95.99 84,-151.23 16.84,-35.72 15.02,-78.27 7.95,-116.21l0.47 -1.23c-8.42,-41.74 -28.82,-79.62 -53.66,-113.76l8.01 -0.41c9.41,4.68 18.3,11.46 28.93,13.15 10,15.08 23.09,27.88 32.68,43.32 27.53,40.28 37.24,90.02 37.47,138.13 -20.69,31.68 -38.52,70.73 -27.53,109.14 6.72,25.54 30.16,40.33 50.39,54.54l3.16 -0.64c19.18,7.07 25.66,27.47 39.69,40.57 7.42,18.53 23.79,31.45 40.28,41.62 -24.9,-46.82 -30.51,-101.89 -23.85,-153.86 14.26,-50.43 41.24,-111.61 49.9,-160.8 1.98,-11.24 1.52,-8.73 3.6,-20.24 9.53,-52.51 1.29,-98.11 -19.02,-146.88 -7.33,-16.92 -11.15,-29.85 -20.16,-47.22 -18.18,-35.04 -44.06,-70.61 -66.22,-103.66 -18.14,-27.04 -49.86,-56.98 -75.5,-76.92 -47.23,-36.75 -100.22,-64.14 -154.82,-88.12 9.29,16.78 24.73,28.82 35.31,44.72 37.76,52.26 47.64,121.3 33.03,183.44 -6.84,-5.67 -12.57,-13.15 -20.87,-16.54 -26.37,-28.64 -58.63,-51.03 -90.73,-72.72 -82.43,-51.65 -171.44,-88.23 -265.74,-112.04 -13.93,-3.52 -26.69,-4.08 -41.75,-7.92 -40.46,-10.31 -73.26,-14.26 -114.92,-15.72l0 0c26.7,10.04 80.83,38.39 99.74,59.07 10.4,11.38 23.89,22.19 35.25,34.24 32.69,34.71 52.2,68.77 69.38,113.03 -4.62,-1.99 -8.94,-4.09 -13.62,-5.79 -12.65,-22.49 -43.16,-32.84 -66.89,-39.2 -73.56,-18.55 -119.95,-8.83 -191.49,-11.93 -81.17,-3.52 -189.71,-63.34 -259.95,-104.21 -11.75,-6.85 -23.38,-13.54 -35.37,-19.98 8.94,18.94 20.46,36.48 34.14,52.32 109.54,113.11 262.05,171.38 409.74,216.18 24.19,7.34 25.64,6.31 -0.63,7.07 -39.45,1.14 -80.53,-1.35 -120.55,-1.15 -44.94,0.22 -77.46,-2.17 -122.9,4.7 -35.49,5.36 -75.93,13.69 -111.17,21.36 -8.35,1.82 -16.32,3.85 -24.55,6.13 -57.58,16.33 -116.7,34.91 -170.35,61.56zm856.56 320.46l0 0c-4.21,20.29 -10.52,41.1 -5.9,61.91 7.54,48.17 41.68,87.92 80.49,115.28 38.52,27.82 93,24.96 125.98,61.85 45.48,43.67 52.73,109.9 50.8,169.64 -8.3,21.22 -9.53,44.43 -15.61,66.35 61.2,-51.67 114.81,-116.21 141.23,-192.79 18.18,-50.92 17.07,-108.79 -5.38,-158.18 -2.63,41.86 -7.42,87.27 -37.76,119.25 5.67,-43.49 10.11,-89.79 -7.19,-131.35 -9.41,-23.26 -33.67,-38.76 -58.81,-37 -46.01,0.99 -92.01,0.88 -138.08,1.46 -28.06,-1.93 -57.58,-2.98 -82.95,-16.48 -23.09,-12.74 -36.94,-36.3 -46.82,-59.92z"/>
   <path class="fil2" d="M1113.89 333.85c62.78,-5.38 125.86,-4.62 188.7,0 -24.43,4.44 -49.22,4.85 -73.95,4.03 -38.23,-1.34 -76.93,4.03 -114.75,-4.03z"/>
   <path class="fil2" d="M1204.32 395.46c31.39,-5.03 63.19,-2.75 94.82,-3.28 13.09,0.88 29.05,-2.57 38,9.82 -41.97,-2.92 -84.06,-2.57 -125.97,0.18l-6.84 -6.72z"/>
   <path class="fil3" d="M1831.85 1245.83c-10.99,-38.41 6.84,-77.46 27.53,-109.14 1.75,17.19 4.21,34.26 7.42,51.27 3.04,22.04 7.95,43.84 14.62,65.12 3.21,11.57 7.01,23.03 11.98,34.02l13.29 30.03c-8.78,-4.53 -13.54,-9.99 -24.46,-16.76 -20.23,-14.21 -43.67,-28.99 -50.39,-54.54z"/>
   <path class="fil4" d="M1580.96 1301.3c9.88,23.62 23.73,47.17 46.82,59.92 25.37,13.5 54.89,14.56 82.95,16.48 60.74,45.42 125.68,96.63 149.41,171.86 18.77,54.31 -1.05,112.53 -27.82,160.4 1.93,-59.74 -5.32,-125.97 -50.8,-169.64 -32.97,-36.89 -87.45,-34.02 -125.97,-61.85 -38.81,-27.36 -72.95,-67.11 -80.49,-115.28 -4.62,-20.81 1.7,-41.62 5.9,-61.91z"/>
   <path class="fil5" d="M1710.73 1377.7c46.06,-0.58 92.07,-0.47 138.08,-1.46 25.14,-1.75 49.39,13.74 58.81,37 17.3,41.56 12.86,87.86 7.19,131.35 30.34,-31.98 35.13,-77.4 37.76,-119.25 22.45,49.39 23.56,107.27 5.38,158.18 -26.42,76.58 -80.03,141.11 -141.23,192.79 6.08,-21.92 7.31,-45.13 15.61,-66.35 26.77,-47.88 46.59,-106.1 27.82,-160.4 -23.73,-75.23 -88.68,-126.44 -149.41,-171.86z"/>
   <path class="fil6" d="M1459.95 1779.94c1.64,-2.98 4.97,-8.89 6.61,-11.81 -4.03,51.15 -3.92,102.53 -1.11,153.74 -6.02,-14.32 -9.65,-29.52 -8.54,-45.13 1.46,-32.27 -1.58,-64.77 3.04,-96.8z"/>
   <path class="fil6" d="M1668.47 1917.72c1.05,-47.06 -2.22,-94.29 1.58,-141.23 4.21,46.82 2.05,93.88 2.63,140.82l-4.21 0.41z"/>
   <path class="fil7" d="M1096.66 1060.94c-86.08,-34.03 -165.55,-52.7 -255.58,-71.76 -28.15,-5.96 -97.96,-15.67 -124.17,-5.19 -74.15,31.66 -144.12,73.99 -207.53,123.88 88.27,2.4 176.95,-2.34 264.63,9.53 133.16,12.63 266.33,44.08 384.35,108.5 46.94,27.65 91.43,60.62 127.9,101.6 -6.08,-23.73 -19.52,-44.78 -34.96,-63.48 -10.86,-12.95 -53.34,-51.54 -55.42,-55.53 -61.26,-43.02 -129.42,-75.35 -201.85,-94.58 10.4,-0.41 20.87,-0.58 31.33,-0.7 36.51,5.37 68.83,13.1 97.21,24.43 51.28,14.29 123.24,49.69 157.77,72.96 25.78,23.68 56.47,41.27 82.83,64.48 46.36,41.56 89.85,86.87 125.1,138.42 -10.4,-21.63 -17.59,-44.72 -28.93,-65.94l-1.96 -3.52c-39.77,-71.61 -97.69,-130.33 -163.62,-178.28 -64.53,-46.93 -123.43,-75.47 -197.13,-104.8z"/>
   <path class="fil7" d="M1821.92 998.56c27.53,40.28 37.24,90.02 37.47,138.13 1.75,17.19 4.21,34.26 7.42,51.27 3.04,22.04 7.95,43.84 14.62,65.12 3.21,11.57 7.01,23.03 11.98,34.02l13.29 30.03c5.97,7.79 11.18,16.44 18.39,23.17 -5.9,-17.36 -11.87,-34.72 -16.6,-52.43 -11.87,-68.28 -14.2,-137.84 -24.61,-206.29 -7.01,-44.78 -25.43,-90.9 -63.37,-118.08 -8.89,-7.07 -20.75,-6.31 -31.28,-8.24 10,15.08 23.09,27.88 32.68,43.32z"/>
   <path class="fil8" d="M1805.96 1056.25c-8.42,-41.74 -28.82,-79.62 -53.66,-113.76l8.01 -0.41c9.41,4.68 18.3,11.46 28.93,13.15 10.52,1.93 22.39,1.17 31.28,8.24 37.94,27.18 56.35,73.3 63.37,118.08 10.41,68.45 12.74,138.02 24.61,206.29 4.74,17.71 10.7,35.07 16.6,52.43 7.42,18.53 23.79,31.45 40.28,41.62 -24.9,-46.82 -30.51,-101.89 -23.85,-153.86 14.26,-50.43 41.24,-111.61 49.9,-160.8 1.98,-11.24 1.52,-8.73 3.6,-20.24 9.53,-52.51 1.29,-98.11 -19.02,-146.88 -7.33,-16.92 -11.15,-29.85 -20.16,-47.22 -18.18,-35.04 -44.06,-70.61 -66.22,-103.66 -18.14,-27.04 -49.86,-56.98 -75.5,-76.92 -47.23,-36.75 -100.22,-64.14 -154.82,-88.12 9.29,16.78 24.73,28.82 35.31,44.72 37.76,52.26 47.64,121.3 33.03,183.44 -6.84,-5.67 -12.57,-13.15 -20.87,-16.54 -26.37,-28.64 -58.63,-51.03 -90.73,-72.72 -82.43,-51.65 -171.44,-88.23 -265.74,-112.04 -13.93,-3.52 -26.69,-4.08 -41.75,-7.92 -40.46,-10.31 -73.26,-14.26 -114.92,-15.72 26.7,10.04 80.83,38.39 99.74,59.07 10.4,11.38 23.89,22.19 35.25,34.24 32.69,34.71 52.2,68.77 69.38,113.03 -4.62,-1.99 -8.94,-4.09 -13.62,-5.79 -12.65,-22.49 -43.16,-32.84 -66.89,-39.2 -73.56,-18.55 -119.95,-8.83 -191.49,-11.93 -81.17,-3.52 -189.71,-63.34 -259.95,-104.21 -11.75,-6.85 -23.38,-13.54 -35.37,-19.98 8.94,18.94 20.46,36.48 34.14,52.32 109.54,113.11 262.05,171.38 409.74,216.18 24.19,7.34 25.64,6.31 -0.63,7.07 -39.45,1.14 -80.53,-1.35 -120.55,-1.15 -44.94,0.22 -77.46,-2.17 -122.9,4.7 -35.49,5.36 -75.93,13.69 -111.17,21.36 -8.35,1.82 -16.32,3.85 -24.55,6.13 -57.58,16.33 -116.7,34.91 -170.35,61.56 -2.5,1.04 -4.99,2.09 -7.47,3.15 26.21,-10.49 96.01,-0.77 124.17,5.19 90.03,19.06 169.5,37.73 255.58,71.76 73.7,29.32 132.6,57.87 197.13,104.8 65.93,47.95 123.85,106.67 163.62,178.28l1.96 3.52c11.34,21.22 18.53,44.31 28.93,65.94 1.23,2.1 3.63,6.31 4.85,8.42 2.69,-38.87 5.96,-79.62 26.19,-113.93 11.69,-20.81 35.95,-33.38 59.74,-30.57 46.47,4.68 87.04,31.04 123.05,59.1 3.74,-3.92 7.54,-7.77 11.4,-11.57 39.81,-42.32 67.28,-95.99 84,-151.23 16.84,-35.72 15.02,-78.27 7.95,-116.21l0.47 -1.23z"/>
   <path class="fil9 str0" d="M1862.55 1162.4c-20.8,37.76 -24.31,76.09 -10.52,115"/>
   <path class="fil10" d="M1852.04 1277.4c-13.79,-38.91 -10.28,-77.24 10.52,-115 -1.24,-8.55 -2.29,-17.12 -3.17,-25.71 -20.7,31.68 -38.52,70.73 -27.53,109.14 3.37,12.8 10.93,22.89 20.18,31.57z"/>
   <path class="fil11" d="M1862.55 1162.4c-20.8,37.76 -24.31,76.09 -10.52,115 9.22,8.65 20.11,15.88 30.21,22.97 10.92,6.77 15.68,12.23 24.46,16.76l-13.29 -30.03c-4.97,-10.99 -8.77,-22.45 -11.98,-34.02 -6.66,-21.28 -11.57,-43.08 -14.62,-65.12 -1.61,-8.5 -3.02,-17.02 -4.26,-25.55z"/>
  </g>
 </g>
</svg>
