<?xml version="1.0" encoding="UTF-8"?>
<!DOCTYPE svg PUBLIC "-//W3C//DTD SVG 1.1//EN" "http://www.w3.org/Graphics/SVG/1.1/DTD/svg11.dtd">
<!-- Creator: CorelDRAW 2018 (64-Bit) -->
<svg xmlns="http://www.w3.org/2000/svg" xml:space="preserve" width="7.11701in" height="8.23831in" version="1.1" style="shape-rendering:geometricPrecision; text-rendering:geometricPrecision; image-rendering:optimizeQuality; fill-rule:evenodd; clip-rule:evenodd"
viewBox="0 0 4456.01 5158.06"
 xmlns:xlink="http://www.w3.org/1999/xlink">
 <defs>
  <style type="text/css">
   <![CDATA[
    .str0 {stroke:#2B2A29;stroke-width:4.34;stroke-miterlimit:2.61313}
    .fil6 {fill:none}
    .fil8 {fill:#C79933}
    .fil7 {fill:#FBEB58}
    .fil0 {fill:#FEFEFE;fill-rule:nonzero}
    .fil1 {fill:#212746;fill-rule:nonzero}
    .fil3 {fill:#DD6C2D;fill-rule:nonzero}
    .fil5 {fill:#DEDEDE;fill-rule:nonzero}
    .fil2 {fill:#F4802E;fill-rule:nonzero}
    .fil4 {fill:#FCFCFC;fill-rule:nonzero}
   ]]>
  </style>
 </defs>
 <g id="Layer_x0020_1">
  <metadata id="CorelCorpID_0Corel-Layer"/>
  <g id="_1011786672">
   <path class="fil0" d="M3462.33 334.07c120.85,-104.85 234.54,-217.71 344.27,-334.07 7.39,0.18 14.85,0.48 22.37,0.66 43.73,131.7 71.46,268.16 94.26,404.83 58.01,363.87 65.39,739.12 -9.1,1101.19 34.63,30.98 63.9,67.32 93.3,103.1 138.82,174.6 251.19,370.42 330.82,578.81 75.85,198.41 118.21,410.28 117.73,622.97 0.75,76.16 -19.51,150.34 -37.62,223.68 -23.69,88.46 -54.27,175.26 -94.35,257.7 -59.46,121.95 -142.3,237.88 -259.72,309.81 6.68,-113.03 1.67,-226.54 -9.01,-339.17 -11.12,-102.88 -26.98,-206.63 -65.52,-303.22 -21.97,-53.09 -53.26,-107.62 -106.92,-133.73 -3.65,31.99 -18.15,61.22 -30.67,90.44 -49.22,106.66 -108.85,208.13 -171.78,307.22 -120.41,187.21 -256.42,364.92 -411.11,525.19 -148.27,112.28 -296.85,224.69 -454.22,324.14 -88.46,55.46 -178.99,108.81 -275.98,148.01 24.87,-39.77 41.84,-83.8 60.82,-126.52 33,-78.09 64.07,-156.97 92.68,-236.78 17.8,-52.61 38.54,-104.9 46.58,-160.14 -18.68,10.33 -35.99,22.81 -53.79,34.54 -200.83,135.92 -402.76,271.15 -615.9,387.29 -13.49,8.09 -30.1,5.89 -44.3,12.22 -64.25,23.51 -123.92,57.88 -181.49,94.48 -181.93,118.08 -338.38,272.33 -471.54,442.84 -117.38,151 -216.43,316.01 -298.66,488.5l-1.89 0c-13.89,-38.37 -19.16,-79.01 -24.92,-119.18 -16.74,-130.87 -19.51,-263.5 -9.85,-395.03 11.64,-149.85 40.52,-299.66 99.19,-438.53 50.14,-118.78 124.85,-229.09 226.01,-310.17 40.3,-37.62 82.4,-73.3 123.05,-110.57 61.22,-55.72 120.67,-113.42 177.19,-173.94 89.82,-96.63 173.93,-200.04 237.52,-316.1 32.43,-60.6 60.29,-124.94 72.12,-192.96 -7.51,-31.86 -29.66,-57.92 -51.42,-81.39 -60.2,-61.48 -142.34,-97.56 -226.1,-113.03 -93.16,-17.23 -189.19,-11.51 -281.91,5.67 -95.67,17.89 -188.75,47.94 -278.88,84.46 -24.57,10.99 -50.8,17.67 -76.55,25.18 -66.09,17.62 -139.13,8.7 -197.84,-26.81 -17.84,-12.48 -40.74,-8.83 -61.08,-13.36 -159.35,-25.45 -318.47,-83.1 -441.26,-190.55 -31.82,3.82 -63.85,-0.53 -95.27,-5.23 -56.78,-9.53 -113.2,-25.57 -163.52,-54.1 -38.41,-21.97 -73.61,-53.88 -89.08,-96.28 -18.28,-50.05 -6.81,-106.39 17.18,-152.4 32.04,-48.78 75.32,-88.81 118.79,-127.22 105.86,-90.75 223.9,-166.02 344.49,-235.5 179.78,-102.79 367.65,-190.72 557.98,-272.07 -22.59,-71.23 -10.86,-151.13 26.85,-215.07 41.79,-71.45 110.17,-123.04 182.59,-160.66 15.25,-6.55 31.25,-11.43 45.35,-20.48 94.66,-54.76 190.24,-108.15 289.16,-154.95 324.85,-155.3 673.03,-258.49 1027.05,-321.24 23.6,-51.94 62.88,-94.57 102.92,-134.3 56.38,-54.62 118.65,-102.75 182.9,-147.66 125.73,-87.49 259.67,-162.46 395.6,-232.82 57.66,-37.79 110,-83.1 162.47,-127.71zm26.19 110l0 0c-51.2,46.27 -104.94,90.48 -164.89,125.02 -21.93,13.01 -45.88,21.84 -68.73,32.96 -111.58,53 -220.3,112.76 -320.93,184.57 -105.29,75.98 -205.8,165.63 -266.31,282.48 -261.34,31.33 -520.1,89.21 -767.42,179.96 -173.15,63.94 -341.46,143.04 -495.75,244.86 -30.06,19.25 -57.7,42.1 -88.59,60.07 -57.13,36.56 -113.51,77.3 -154.78,131.93 -26.06,34.63 -44.52,79.58 -33.18,123.27 9.58,39.38 39.95,68.86 72.16,91.27 -198.06,78.4 -393.67,163.39 -583.77,259.59 -126.56,64.86 -251.59,134.12 -366.29,218.63 -50.45,37.97 -100.02,78.53 -138.91,128.67 -13.67,18.72 -27.77,38.93 -30.8,62.53 2.77,23.56 12.04,46.93 29.31,63.68 29.04,28.92 68.29,44.43 106.87,56.03 46.01,12.79 93.69,20.83 141.51,21.09 24.96,-4.83 47.59,8.4 70.44,15.91 147.48,56.43 292.54,119 439.01,177.85 49.31,27.64 106.96,35.47 162.73,34.63 9.63,-0.44 19.6,0.09 28.87,-3.03 132.98,-60.91 274.83,-116.46 423.64,-111.8 106.66,-6.29 215.29,-2.99 319,24.83 74.23,20.13 146.87,54.84 200.04,111.67 35.82,38.63 63.28,87.45 68.86,140.49 -1.06,60.12 -17.49,119.09 -40.43,174.38 -35.64,84.68 -86.97,161.85 -143.79,233.74 -86.05,108.02 -185.23,205.01 -290.7,293.91 -46.41,39.9 -97.73,73.92 -141.19,117.25 -140.54,133.24 -237.66,308.63 -286.53,495.31 -38.81,146.87 -51.55,300.5 -39.07,451.89 154.64,-236.52 335.48,-459.32 557.84,-635.5 113.69,-89.03 238.14,-167.74 376.31,-212.48 298.87,-103.89 559.43,-302.26 759.16,-545.67 3.73,-6.81 10.28,-1.1 8.79,4.84 12.7,84.73 3.08,170.9 -10.46,254.97 -17.44,99.58 -40.96,198.5 -74.75,293.86 33.97,-8.79 64.91,-26.06 95.1,-43.46 61.26,-36.52 118.21,-79.76 173.85,-124.23 93.65,-75.76 183.12,-156.62 269.21,-240.82 160.27,-159.26 289.82,-346.47 404.16,-540.53 64.29,-111.09 125.68,-224.25 177.28,-341.85 45.48,-2.29 90.75,15.82 124.67,45.7 38.01,33.18 63.85,77.78 83.5,123.71 28.78,68.56 44.69,141.81 55.63,215.16 14.33,99.93 18.9,201.14 16.13,302.04 29.66,-23.69 52.51,-55.02 74.44,-85.83 48.96,-72.07 81.52,-154.16 103.8,-238.1 27.68,-105.47 39.81,-214.55 42.67,-323.4 1.01,-87.71 0.97,-176.27 -15.82,-262.66 -19.12,-109.47 -47.55,-217.31 -85.78,-321.64 -85.6,-234.71 -223.02,-451.32 -404.61,-623.5 -7.69,-9.62 -24.52,-17.09 -19.82,-31.64 35.73,-245.66 47.77,-494.74 36.08,-742.68 -9.05,-184.35 -29.88,-368.53 -70.09,-548.79 -9.4,-38.58 -17.49,-77.87 -32.78,-114.65 -88.2,110.3 -180.53,218.01 -284.9,313.51z"/>
   <path class="fil1" d="M3488.53 444.07c104.37,-95.49 196.7,-203.21 284.9,-313.51 15.3,36.78 23.38,76.07 32.78,114.65 40.21,180.26 61.04,364.44 70.09,548.79 11.69,247.94 -0.35,497.02 -36.08,742.68 -4.7,14.55 12.13,22.02 19.82,31.64 181.58,172.18 319,388.79 404.61,623.5 38.23,104.33 66.67,212.17 85.78,321.64 16.79,86.4 16.83,174.95 15.82,262.66 -2.86,108.85 -14.99,217.93 -42.67,323.4 -22.28,83.94 -54.84,166.02 -103.8,238.1 -21.93,30.8 -44.78,62.14 -74.44,85.83 2.77,-100.9 -1.8,-202.1 -16.13,-302.04 -10.94,-73.35 -26.85,-146.6 -55.63,-215.16 -19.64,-45.92 -45.48,-90.53 -83.5,-123.71 -33.93,-29.88 -79.19,-47.99 -124.67,-45.7 -51.59,117.6 -112.98,230.76 -177.28,341.85 -114.34,194.06 -243.9,381.27 -404.16,540.53 -86.09,84.2 -175.56,165.06 -269.21,240.82 -55.63,44.47 -112.59,87.71 -173.85,124.23 -30.19,17.4 -61.13,34.67 -95.1,43.46 33.79,-95.36 57.31,-194.28 74.75,-293.86 13.54,-84.07 23.16,-170.24 10.46,-254.97 1.5,-5.93 -5.05,-11.65 -8.79,-4.84 -199.73,243.42 -460.29,441.79 -759.16,545.67 -138.17,44.74 -262.62,123.44 -376.31,212.48 -222.36,176.18 -403.2,398.98 -557.84,635.5 -12.48,-151.39 0.26,-305.03 39.07,-451.89 48.87,-186.68 145.99,-362.07 286.53,-495.31 43.46,-43.33 94.79,-77.34 141.19,-117.25 105.47,-88.9 204.66,-185.89 290.7,-293.91 56.82,-71.89 108.15,-149.06 143.79,-233.74 22.94,-55.28 39.37,-114.26 40.43,-174.38 -5.58,-53.04 -33.05,-101.87 -68.86,-140.49 -53.17,-56.82 -125.82,-91.54 -200.04,-111.67 -103.71,-27.82 -212.34,-31.11 -319,-24.83 -148.8,-4.66 -290.66,50.89 -423.64,111.8 -9.27,3.12 -19.25,2.59 -28.87,3.03 -55.77,0.84 -113.42,-6.99 -162.73,-34.63 -146.47,-58.84 -291.53,-121.42 -439.01,-177.85 -22.85,-7.51 -45.48,-20.74 -70.44,-15.91 -47.81,-0.26 -95.49,-8.3 -141.51,-21.09 -38.58,-11.6 -77.83,-27.11 -106.87,-56.03 -17.27,-16.74 -26.55,-40.12 -29.31,-63.68 3.03,-23.6 17.14,-43.82 30.8,-62.53 38.89,-50.14 88.46,-90.7 138.91,-128.67 114.7,-84.51 239.73,-153.77 366.29,-218.63 190.11,-96.2 385.71,-181.19 583.77,-259.59 -32.21,-22.41 -62.58,-51.9 -72.16,-91.27 -11.34,-43.68 7.12,-88.64 33.18,-123.27 41.27,-54.62 97.65,-95.36 154.78,-131.93 30.89,-17.97 58.54,-40.83 88.59,-60.07 154.29,-101.82 322.61,-180.93 495.75,-244.86 247.32,-90.75 506.08,-148.62 767.42,-179.96 60.51,-116.85 161.02,-206.5 266.31,-282.48 100.64,-71.81 209.36,-131.57 320.93,-184.57 22.85,-11.12 46.8,-19.95 68.73,-32.96 59.94,-34.54 113.69,-78.75 164.89,-125.02zm250.66 -143l0 0c-100.11,163.26 -247.5,292.11 -406.76,395.77 -41.66,26.46 -83.85,52.38 -128.59,73.3 -60.16,12.74 -113.6,44.65 -165.76,75.89 -71.94,44.34 -140.84,93.3 -208.48,143.92 -35.38,27.11 -72.29,52.86 -102,86.48 -79.32,86.66 -118.34,203.82 -124.8,319.75 -23.25,-17.67 -35.59,-46.06 -37.75,-74.71 -5.8,-60.78 15.69,-119.05 30.19,-177.06 -259.28,55.9 -514.43,131.8 -761.09,229.4 -159.92,64.21 -317.59,135.75 -464.94,225.48 -48.6,31.95 -98.18,65.3 -133.9,112.06 -18.32,24.21 -32.96,56.08 -22.02,86.57 12.96,5.54 22.5,17.31 36.65,20.43 29.75,8.04 60.82,-1.23 88.46,-12.52 37.31,-16.3 72.69,-37.7 103.98,-63.76 23.69,-25.84 48.87,-50.58 77.96,-70.36 75.63,-53.75 170.2,-75.98 262,-72.6 39.07,9.53 74.44,30.85 104.59,57.13 46.67,41.13 83.23,93.03 110.21,148.89 8.17,18.63 17.89,37.57 17.97,58.45 -8.35,-7.34 -13.54,-17.23 -20,-26.06 -26.72,-36.92 -57.13,-71.54 -92.68,-100.24 -36.83,-28.87 -79.8,-55.02 -127.79,-57.04 22.33,37.05 30.81,81.78 24.87,124.5 -7.21,24.48 -3.47,50.76 -12.96,74.71 -17.27,50.71 -63.59,84.77 -111.49,104.33 -51.06,20.66 -106.26,30.67 -161.28,31.25 -16.52,0.84 -32.74,-5.58 -49.22,-2.64 -51.02,6.68 -100.37,22.33 -148.62,39.73 -78.84,28.39 -154.69,64.16 -231.33,97.87 -7.52,3.6 -15.51,5.98 -23.82,6.59 27.55,-33.79 65.57,-56.73 103.27,-77.52 74.36,-39.51 153.41,-69.3 233.53,-94.7 -11.56,-14.15 -27.16,-24.21 -39.29,-37.79l-1.93 2.37c-8.75,-11.29 -9.67,-25.45 -10.81,-39.02 -169.59,60.42 -333.5,136.06 -493.73,217.92 -130.91,67.5 -259.41,139.79 -384.17,218.06 -19.2,11.34 -26.45,34.15 -32.56,54.23 -6.46,25.62 -11.69,52.25 -8.79,78.75 -6.81,34.1 -12.92,68.42 -21.45,102.13 -7.47,17.18 -10.77,35.95 -12.31,54.58 -0.39,10.55 0.04,23.82 10.2,30.02 18.63,12.48 38.58,22.81 58.14,33.71 72.2,38.41 145.9,74.93 223.29,101.65l-0.22 1.1c36.3,14.9 74.84,24.74 113.95,27.91 38.76,-31.64 85.08,-51.15 129.42,-73.39 104.46,-50.27 211.07,-96.73 321.9,-131.27 91.41,-28.7 183.3,-57.74 278.4,-71.11 115.8,-18.15 237.09,-16.21 348.62,22.68 56.56,20.57 112.81,50.14 150.82,98.09 -16.57,-7.16 -30.28,-19.47 -46.49,-27.42 -118.61,-65.57 -259.45,-78.58 -392.26,-63.5 -97.03,12.7 -193.32,34.01 -285.08,68.38 -105.91,38.63 -205.45,92.86 -299.01,155.3 -20.57,16.66 -50.58,12.88 -70.31,30.72 -7.34,12 9.71,19.77 18.5,24.04 25.75,9.54 56.56,20.92 82.66,6.68 50.05,-23.03 103.4,-38.1 153.5,-60.99 44.52,-13.97 90.4,-23.25 136.06,-32.61 164.97,-31.68 337.33,-40.39 501.77,-0.92 85.25,21.23 169.58,54.14 239.02,109.12 46.41,35.59 78.22,89.39 87.71,147.04 10.55,61.83 -1.27,125.11 -21.05,183.91 -29.8,86.35 -76.69,165.76 -128.67,240.51 -78.09,110.08 -167.21,212.7 -266.62,304.02 -181.58,135.53 -330.95,313.51 -435.02,514.69 -30.14,59.24 -57.3,120.41 -74.75,184.7 -4.22,18.41 -10.11,37.66 -6.11,56.69 6.81,3.52 12.7,-2.68 18.5,-5.36 20.22,-10.15 28.91,-32.3 44.69,-47.29 19.64,-24.39 43.2,-45.66 62.14,-70.31 25,-24.04 49.35,-48.87 73.56,-73.65l1.45 -0.4c34.06,-31.6 68.2,-63.11 103.49,-93.29 130.69,-110.66 274.48,-207.12 431.02,-277.25 61.3,-28.08 125.9,-47.94 187.08,-76.38 173.76,-78.66 339.17,-181.41 473.16,-318.34 85.12,-87.32 155.52,-190.72 195.2,-306.61 46.76,69.87 94.53,142.03 114.26,224.87 9.75,-11.82 15.25,-26.28 21.58,-40.04 23.73,-56.25 39.99,-115.45 51.02,-175.39 27.91,-152.09 18.11,-311.97 -35.16,-457.56 -49.44,-137.73 -137.29,-259.28 -243.99,-358.51 22.81,-2.59 45.7,-5.67 68.73,-4.13 65.57,3.25 128.1,29.88 181.32,67.37 57.61,40.65 106.31,92.9 147.88,149.59 0.88,-20.79 -2.99,-41.31 -6.77,-61.66 -17.93,-88.99 -55.28,-174.16 -109.03,-247.37 -70.67,-97.25 -172.36,-169.89 -284.77,-211.38 -100.24,-36.96 -207.6,-54.36 -314.38,-51.2 -171.74,4.09 -341.5,37.75 -506.25,84.86 -172.31,49.62 -339.52,115.93 -501.64,192.31 -6.9,28.52 -18.19,55.9 -32.12,81.65 -11.03,19.42 -23.42,39.11 -41.97,52.21 12.44,-54.32 18.81,-114.74 -6.24,-166.47 -16.3,-34.15 -53.31,-53.88 -90.22,-55.46 -73.3,-3.91 -143.48,22.41 -210.89,47.9 -141.9,56.69 -273.03,137.99 -392.61,232.65 -20.96,16.17 -40.03,35.64 -65,45.79 22.15,-19.38 42.32,-40.87 59.9,-64.47 57.61,-69.04 128.41,-126.39 205.53,-172.27 39.77,-24.79 83.72,-41.62 124.41,-64.77 72.82,-37.8 149.02,-71.77 230.23,-86.57 47.15,-7.96 98.22,-9.1 142.12,12.57 39.29,19.07 67.32,59.37 70.71,103.01 43.72,-24.61 86.48,-51.06 131.26,-73.74 169.23,-88.2 349.9,-153.94 535.48,-197.89 75.1,-18.11 150.95,-34.19 228.21,-39.55 191.16,-15.55 388.04,19.03 558.07,109.43 104.81,50.32 198.41,127.31 260.51,226.28 50.1,79.41 78.7,171.56 86.18,264.95 5.58,76.91 1.45,156.14 -23.64,229.57 -7.47,-16 -10.02,-33.84 -18.9,-49.26 -30.98,-59.85 -78.22,-109.42 -127.44,-154.64 -23.86,-20.43 -47.37,-42.37 -76.11,-55.77 2.15,3.47 4.53,6.77 7.21,9.93 90.4,98.35 135.49,229.26 157.77,358.86 27.81,168.62 22.23,341.41 -2.42,510.08 -18.59,61.74 -35.82,123.92 -57.04,184.83 13.84,-8.04 25,-19.69 37.49,-29.53 232.73,-197.45 426.18,-440.69 567.82,-710.99 49.92,-95.93 94.22,-195.07 128.14,-297.86 3.12,-7.21 3.21,-16.66 9.23,-22.15 76.82,-1.06 154.55,20.17 217.97,64.16 58.23,39.86 103.49,96.33 136.89,157.99 49.13,91.58 76.77,193.84 87.23,296.94 24.78,-135.13 33.88,-273.25 24.96,-410.41 -13.93,-217.27 -75.63,-431.46 -180.96,-622.09 -60.65,-109.12 -133.64,-212.21 -221.88,-300.85l0.22 -1.1c-21,-16.57 -34.89,-39.95 -55.11,-57.08 -63.59,114.3 -172.22,197.71 -290.61,249.43 -24.65,9.75 -49.35,21.58 -76.03,23.77 49.83,-66.53 90.27,-139.48 128.72,-213 28.04,-55.85 59.24,-111.53 73.3,-172.71 11.6,-28.17 19.42,-57.7 28.52,-86.75 59.64,-202.72 89.34,-413.35 99.41,-624.11 8.83,-196.66 2.07,-394.32 -23.11,-589.62zm-2082.4 1427.92l0 0c-73.43,33.53 -145.9,69.04 -217.53,106.22 -7.03,4.44 -17.27,8.22 -17.75,17.97 1.49,14.63 14.24,24.12 25.22,32.17 19.25,13.93 43.59,24.78 67.72,18.72 27.6,-6.46 55.33,-15.47 78.27,-32.7 39.38,-29.05 66.62,-71.46 86.88,-115.36 6.24,-14.11 -5.01,-37.97 -22.81,-27.03z"/>
   <path class="fil2" d="M3739.19 301.07c25.18,195.29 31.95,392.96 23.11,589.62 -10.06,210.76 -39.77,421.39 -99.41,624.11 -9.1,29.05 -16.92,58.58 -28.52,86.75 -1.8,-8.26 -3.3,-16.74 -1.63,-25.18 10.5,-80.11 15.12,-160.84 21.05,-241.35 -0.09,-29.53 5.14,-58.71 4.48,-88.24 -0.62,-23.42 4.26,-46.63 3.3,-70.09 -21.18,38.72 -31.77,82.75 -56.08,119.8 -0.57,-18.24 2.55,-36.21 5.36,-54.14 13.97,-115.23 26.37,-230.93 26.28,-347.12 1.27,-85.3 -1.14,-171.26 -18.98,-254.97 -6.46,-27.47 -14.11,-55.02 -28.61,-79.5 -7.82,16.39 -11.65,34.85 -23.64,49.04 -48.16,61.04 -116.89,101.12 -185.85,134.65 -45.75,24.35 -95.1,41.13 -140.67,65.87 -68.82,32.48 -135.75,69.48 -196.83,115.05 -94.39,70.53 -178.33,157.02 -237.26,259.59 -43.81,74.88 -75.59,157.19 -90.48,242.8 -1.98,12.48 -4.17,24.92 -6.64,37.31 -65.52,11.73 -129.24,32.04 -192.92,51.11 37.13,15.6 74.75,30.1 112.19,45.04 5.71,2.42 10.94,5.84 16.17,9.23 -50.27,4.83 -100.15,12.79 -150.16,19.51 -33.35,4.22 -66.88,13.4 -100.59,7.43 -88.46,-13.4 -176.35,-30.02 -264.37,-46.06 -55.37,-11.25 -111.49,-20.22 -165.19,-38.19 -135.26,-25.84 -273.87,13.54 -393.8,75.63 -39.29,21.18 -77.56,44.25 -113.55,70.62 -21.1,16.88 -36.26,40.43 -59.85,54.36 -56.73,36.26 -119.97,60.78 -182.81,84.2 -10.94,-30.5 3.69,-62.36 22.02,-86.57 35.73,-46.76 85.3,-80.11 133.9,-112.06 147.35,-89.74 305.03,-161.28 464.94,-225.48 246.67,-97.6 501.81,-173.5 761.09,-229.4 -14.5,58.01 -35.99,116.28 -30.19,177.06 2.15,28.65 14.5,57.04 37.75,74.71 6.46,-115.93 45.48,-233.09 124.8,-319.75 29.71,-33.62 66.62,-59.37 102,-86.48 67.63,-50.63 136.54,-99.58 208.48,-143.92 52.16,-31.24 105.6,-63.15 165.76,-75.89 44.74,-20.92 86.93,-46.85 128.59,-73.3 159.26,-103.67 306.65,-232.51 406.76,-395.77z"/>
   <path class="fil2" d="M3852.61 1779.13c0.35,-1.71 0.97,-5.19 1.27,-6.9 88.24,88.64 161.24,191.73 221.88,300.85 105.34,190.64 167.04,404.83 180.96,622.09 8.92,137.15 -0.18,275.28 -24.96,410.41 -10.46,-103.1 -38.1,-205.36 -87.23,-296.94 -33.4,-61.66 -78.66,-118.13 -136.89,-157.99 -63.41,-43.99 -141.15,-65.21 -217.97,-64.16 -6.02,5.49 -6.11,14.94 -9.23,22.15 -33.93,102.79 -78.22,201.93 -128.14,297.86 -141.64,270.31 -335.09,513.55 -567.82,710.99 -12.48,9.84 -23.64,21.49 -37.49,29.53 21.22,-60.91 38.45,-123.09 57.04,-184.83 19.03,-13.23 36.96,-28.3 51.33,-46.58 43.99,-49.18 80.95,-104.06 117.38,-158.87 92.81,-141.11 174.77,-288.9 256.86,-436.33 -0.74,63.06 -5.27,126.26 -15.82,188.48 10.02,-12.3 17.54,-26.37 24.39,-40.65 33.09,-63.94 59.99,-130.83 88.42,-196.92 46.19,-114.04 91.5,-228.61 128.5,-346.03 1.76,-12.66 17.05,-8.09 25.84,-7.95 76.91,11.25 146.91,47.46 215.68,81.69 34.59,16.17 67.24,36.08 101.43,52.96 -6.55,-56.21 -33.62,-107.05 -58.8,-156.75 -36.52,-68.03 -82.44,-130.34 -129.38,-191.43 -17.93,-23.12 -38.19,-44.47 -53.75,-69.3 19.16,-0.22 38.19,3.34 56.38,9.54 54.1,19.03 102.3,51.02 148.8,83.94 12.22,8.75 22.41,20.43 36.61,26.23 -6.77,-37.53 -25,-71.67 -38.94,-106.87 -58.62,-128.1 -130.69,-249.57 -206.37,-368.22z"/>
   <path class="fil2" d="M851.84 2127.84c160.22,-81.87 324.14,-157.5 493.73,-217.92 1.14,13.58 2.07,27.73 10.81,39.02 -11.43,10.06 -24.92,17.36 -37.79,25.27 -143.4,83.23 -288.46,163.52 -433.3,244.2 -153.33,86.22 -307.75,170.55 -458.97,260.47 -2.9,-26.5 2.33,-53.13 8.79,-78.75 6.11,-20.08 13.36,-42.89 32.56,-54.23 124.76,-78.27 253.26,-150.56 384.17,-218.06z"/>
   <path class="fil3" d="M3565.91 609.79c12,-14.2 15.82,-32.65 23.64,-49.04 14.5,24.48 22.15,52.03 28.61,79.5 17.84,83.72 20.26,169.67 18.98,254.97 0.09,116.19 -12.31,231.9 -26.28,347.12 -2.81,17.93 -5.93,35.9 -5.36,54.14 24.3,-37.05 34.89,-81.08 56.08,-119.8 0.97,23.47 -3.91,46.67 -3.3,70.09 0.66,29.53 -4.57,58.71 -4.48,88.24 -5.93,80.51 -10.55,161.23 -21.05,241.35 -1.67,8.44 -0.18,16.92 1.63,25.18 -14.06,61.17 -45.26,116.85 -73.3,172.71 -38.45,73.52 -78.88,146.47 -128.72,213 26.68,-2.2 51.37,-14.02 76.03,-23.77 118.39,-51.73 227.02,-135.13 290.61,-249.43 20.22,17.14 34.1,40.52 55.11,57.08l-0.22 1.1c-0.31,1.71 -0.92,5.19 -1.27,6.9 75.68,118.65 147.75,240.12 206.37,368.22 13.93,35.2 32.17,69.35 38.94,106.87 -14.2,-5.8 -24.39,-17.49 -36.61,-26.23 -46.49,-32.91 -94.7,-64.91 -148.8,-83.94 -18.19,-6.2 -37.22,-9.76 -56.38,-9.54 15.56,24.83 35.82,46.19 53.75,69.3 46.94,61.08 92.86,123.4 129.38,191.43 25.18,49.7 52.25,100.55 58.8,156.75 -34.19,-16.88 -66.84,-36.78 -101.43,-52.96 -68.77,-34.23 -138.78,-70.44 -215.68,-81.69 -8.79,-0.13 -24.08,-4.7 -25.84,7.95 -37,117.42 -82.31,231.99 -128.5,346.03 -28.43,66.09 -55.33,132.98 -88.42,196.92 -6.86,14.28 -14.37,28.34 -24.39,40.65 10.55,-62.23 15.08,-125.42 15.82,-188.48 -82.09,147.44 -164.05,295.23 -256.86,436.33 -36.43,54.8 -73.39,109.69 -117.38,158.87 -14.37,18.28 -32.3,33.35 -51.33,46.58 24.65,-168.66 30.23,-341.46 2.42,-510.08 -22.28,-129.6 -67.37,-260.51 -157.77,-358.86 -2.68,-3.16 -5.05,-6.46 -7.21,-9.93 28.74,13.4 52.25,35.33 76.11,55.77 49.22,45.22 96.46,94.79 127.44,154.64 8.88,15.42 11.43,33.27 18.9,49.26 25.09,-73.43 29.22,-152.67 23.64,-229.57 -7.47,-93.38 -36.08,-185.54 -86.18,-264.95 -62.1,-98.96 -155.7,-175.96 -260.51,-226.28 -170.03,-90.4 -366.9,-124.98 -558.07,-109.43 -77.26,5.36 -153.11,21.45 -228.21,39.55 -185.58,43.95 -366.24,109.69 -535.48,197.89 -44.78,22.68 -87.54,49.13 -131.26,73.74 -3.39,-43.64 -31.42,-83.94 -70.71,-103.01 -43.9,-21.66 -94.97,-20.52 -142.12,-12.57 -81.21,14.81 -157.41,48.78 -230.23,86.57 -40.69,23.16 -84.64,39.99 -124.41,64.77 -77.12,45.88 -147.92,103.23 -205.53,172.27 -17.58,23.6 -37.75,45.09 -59.9,64.47 -47.9,23.91 -108.06,17.58 -150.12,-15.47 8.53,-33.71 14.63,-68.03 21.45,-102.13 151.21,-89.91 305.64,-174.24 458.97,-260.47 144.84,-80.68 289.91,-160.97 433.3,-244.2 12.87,-7.91 26.37,-15.21 37.79,-25.27l1.93 -2.37c12.13,13.58 27.73,23.64 39.29,37.79 -80.11,25.4 -159.17,55.2 -233.53,94.7 -37.7,20.79 -75.72,43.73 -103.27,77.52 8.31,-0.61 16.3,-2.99 23.82,-6.59 76.64,-33.71 152.49,-69.48 231.33,-97.87 48.25,-17.4 97.6,-33.05 148.62,-39.73 16.48,-2.94 32.7,3.47 49.22,2.64 55.02,-0.57 110.22,-10.59 161.28,-31.25 47.9,-19.55 94.22,-53.61 111.49,-104.33 9.49,-23.95 5.76,-50.23 12.96,-74.71 5.93,-42.71 -2.55,-87.45 -24.87,-124.5 47.99,2.02 90.97,28.17 127.79,57.04 35.55,28.69 65.96,63.32 92.68,100.24 6.46,8.83 11.65,18.72 20,26.06 -0.09,-20.87 -9.8,-39.81 -17.97,-58.45 -26.98,-55.85 -63.54,-107.75 -110.21,-148.89 -30.15,-26.28 -65.52,-47.59 -104.59,-57.13 -91.8,-3.38 -186.38,18.85 -262,72.6 -29.09,19.77 -54.27,44.52 -77.96,70.36 -31.29,26.06 -66.67,47.46 -103.98,63.76 -27.64,11.29 -58.71,20.57 -88.46,12.52 -14.15,-3.12 -23.69,-14.9 -36.65,-20.43 62.84,-23.42 126.08,-47.94 182.81,-84.2 23.6,-13.93 38.76,-37.49 59.85,-54.36 35.99,-26.37 74.27,-49.44 113.55,-70.62 119.93,-62.09 258.53,-101.47 393.8,-75.63 53.7,17.97 109.82,26.94 165.19,38.19 88.02,16.04 175.91,32.65 264.37,46.06 33.71,5.98 67.24,-3.21 100.59,-7.43 50.01,-6.72 99.89,-14.68 150.16,-19.51 -5.23,-3.38 -10.46,-6.81 -16.17,-9.23 -37.44,-14.94 -75.06,-29.44 -112.19,-45.04 63.68,-19.07 127.4,-39.38 192.92,-51.11 2.46,-12.39 4.66,-24.83 6.64,-37.31 14.9,-85.61 46.67,-167.92 90.48,-242.8 58.93,-102.57 142.87,-189.05 237.26,-259.59 61.08,-45.57 128.01,-82.57 196.83,-115.05 45.57,-24.74 94.92,-41.53 140.67,-65.87 68.95,-33.53 137.68,-73.61 185.85,-134.65z"/>
   <path class="fil4" d="M1656.79 1728.99c17.8,-10.94 29.05,12.92 22.81,27.03 -20.26,43.9 -47.51,86.31 -86.88,115.36 -22.94,17.23 -50.67,26.24 -78.27,32.7 -24.13,6.06 -48.47,-4.79 -67.72,-18.72 -10.99,-8.04 -23.73,-17.54 -25.22,-32.17 0.48,-9.76 10.72,-13.54 17.75,-17.97 71.63,-37.18 144.1,-72.69 217.53,-106.22z"/>
   <path class="fil4" d="M1895.67 2165.9c164.75,-47.11 334.52,-80.77 506.25,-84.86 106.79,-3.16 214.15,14.24 314.38,51.2 112.41,41.49 214.1,114.13 284.77,211.38 53.74,73.21 91.1,158.38 109.03,247.37 3.78,20.35 7.64,40.87 6.77,61.66 -41.57,-56.69 -90.27,-108.94 -147.88,-149.59 -53.22,-37.49 -115.75,-64.11 -181.32,-67.37 -23.03,-1.54 -45.92,1.54 -68.73,4.13 106.7,99.23 194.55,220.78 243.99,358.51 53.26,145.59 63.06,305.47 35.16,457.56 -11.03,59.94 -27.29,119.14 -51.02,175.39 -6.33,13.75 -11.82,28.21 -21.58,40.04 -19.73,-82.84 -67.5,-155 -114.26,-224.87 -39.68,115.88 -110.08,219.29 -195.2,306.61 -133.99,136.94 -299.4,239.68 -473.16,318.34 -61.17,28.43 -125.77,48.3 -187.08,76.38 -156.53,70.14 -300.32,166.6 -431.02,277.25 -1.27,-12.22 6.37,-22.59 11.95,-32.7 39.16,-64.25 91.89,-118.7 145.46,-170.99 45.4,-41.09 90.18,-83.23 140.05,-118.92 183.08,-105.08 359.39,-222.58 523.22,-355.87 59.77,-48.25 116.85,-101.25 159.61,-165.54 81.17,-120.15 112.85,-267.85 110.3,-411.29 -0.22,-80.33 -13.27,-159.96 -29.09,-238.54 30.19,2.81 54.49,23.64 76.73,42.54 42.67,42.15 77.43,91.93 106.3,144.36 2.94,4.83 6.59,9.18 10.28,13.54 -6.24,-52.12 -21.97,-102.74 -37.97,-152.62 -31.2,-94.44 -78.18,-184.97 -145.59,-258.75 -39.6,-41.92 -84.73,-79.32 -136.14,-105.82 -87.49,-46.85 -188.39,-65.48 -287.05,-61.08 -29.53,0.26 -58.58,5.49 -87.89,8.17 4.66,-3.78 9.32,-7.65 14.59,-10.59 56.34,-29.49 117.25,-48.74 175.08,-74.93 -41.84,-3.82 -83.76,2.2 -125.38,5.93 -164.4,19.73 -326.65,54.98 -486.48,97.74 -19.73,4.13 -35.29,17.53 -52.52,26.94 -115.05,64.86 -237.57,115.22 -360.75,162.29 -28.74,12.09 -60.64,11.25 -90.35,19.95 -119.75,31.02 -230.49,88.68 -336.4,151.35 -13.05,7.03 -24.47,17.49 -38.8,21.88 -25.09,-5.84 -53.13,-15.82 -77.56,-2.33 -15.43,7.91 -19.78,25.49 -22.19,41.22 -77.39,-26.72 -151.09,-63.24 -223.29,-101.65 -19.55,-10.9 -39.51,-21.23 -58.14,-33.71 -10.15,-6.2 -10.59,-19.47 -10.2,-30.02 1.54,-18.63 4.84,-37.4 12.31,-54.58 42.06,33.05 102.22,39.38 150.12,15.47 24.96,-10.15 44.03,-29.62 65,-45.79 119.58,-94.66 250.71,-175.96 392.61,-232.65 67.41,-25.49 137.59,-51.81 210.89,-47.9 36.92,1.58 73.92,21.31 90.22,55.46 25.05,51.72 18.68,112.15 6.24,166.47 18.55,-13.1 30.94,-32.78 41.97,-52.21 13.93,-25.75 25.22,-53.13 32.12,-81.65 162.11,-76.38 329.33,-142.69 501.64,-192.31z"/>
   <path class="fil4" d="M1403.18 4326.83c4.22,-4.96 10.5,-6.94 16.66,-8.13 -24.21,24.79 -48.56,49.61 -73.56,73.65 2.28,-7.12 4.75,-14.33 10.72,-19.16 15.78,-15.12 30.9,-30.85 46.19,-46.36z"/>
   <path class="fil5" d="M2149.24 2281.91c41.62,-3.73 83.54,-9.75 125.38,-5.93 -57.83,26.19 -118.74,45.44 -175.08,74.93 -5.27,2.94 -9.93,6.81 -14.59,10.59 29.31,-2.68 58.36,-7.91 87.89,-8.17 98.66,-4.4 199.56,14.24 287.05,61.08 51.42,26.5 96.55,63.9 136.14,105.82 67.41,73.78 114.39,164.31 145.59,258.75 16,49.88 31.73,100.5 37.97,152.62 -3.69,-4.35 -7.34,-8.7 -10.28,-13.54 -28.87,-52.43 -63.63,-102.22 -106.3,-144.36 -22.24,-18.89 -46.54,-39.73 -76.73,-42.54 15.82,78.57 28.87,158.2 29.09,238.54 2.55,143.44 -29.14,291.14 -110.3,411.29 -42.76,64.29 -99.84,117.29 -159.61,165.54 -163.83,133.29 -340.14,250.8 -523.22,355.87 -49.88,35.68 -94.66,77.83 -140.05,118.92 -53.57,52.29 -106.31,106.74 -145.46,170.99 -5.58,10.11 -13.23,20.48 -11.95,32.7 -35.29,30.19 -69.43,61.7 -103.49,93.29l-1.45 0.4c-6.15,1.19 -12.44,3.16 -16.66,8.13 -15.29,15.51 -30.41,31.25 -46.19,46.36 -5.98,4.83 -8.44,12.04 -10.72,19.16 -18.94,24.65 -42.5,45.92 -62.14,70.31 -15.78,14.98 -24.48,37.13 -44.69,47.29 -5.8,2.68 -11.69,8.88 -18.5,5.36 -4,-19.03 1.89,-38.28 6.11,-56.69 17.45,-64.29 44.61,-125.46 74.75,-184.7 104.06,-201.18 253.44,-379.16 435.02,-514.69 99.4,-91.32 188.53,-193.93 266.62,-304.02 51.99,-74.75 98.88,-154.16 128.67,-240.51 19.77,-58.8 31.6,-122.08 21.05,-183.91 -9.49,-57.66 -41.31,-111.45 -87.71,-147.04 -69.44,-54.98 -153.77,-87.89 -239.02,-109.12 -164.44,-39.46 -336.8,-30.76 -501.77,0.92 -45.66,9.36 -91.54,18.64 -136.06,32.61 -50.1,22.89 -103.45,37.97 -153.5,60.99 -26.1,14.24 -56.91,2.86 -82.66,-6.68 -8.79,-4.26 -25.84,-12.04 -18.5,-24.04 19.73,-17.84 49.75,-14.06 70.31,-30.72 93.56,-62.45 193.1,-116.68 299.01,-155.3 91.76,-34.36 188.04,-55.68 285.08,-68.38 132.8,-15.07 273.65,-2.07 392.26,63.5 16.21,7.95 29.93,20.26 46.49,27.42 -38.01,-47.94 -94.26,-77.52 -150.82,-98.09 -111.53,-38.89 -232.82,-40.83 -348.62,-22.68 -95.1,13.36 -186.99,42.41 -278.4,71.11 -110.83,34.54 -217.44,80.99 -321.9,131.27 -44.34,22.23 -90.66,41.75 -129.42,73.39 -39.11,-3.16 -77.65,-13.01 -113.95,-27.91l0.22 -1.1c2.42,-15.73 6.77,-33.31 22.19,-41.22 24.43,-13.49 52.47,-3.52 77.56,2.33 14.33,-4.4 25.75,-14.85 38.8,-21.88 105.91,-62.67 216.65,-120.32 336.4,-151.35 29.71,-8.7 61.61,-7.87 90.35,-19.95 123.18,-47.07 245.7,-97.43 360.75,-162.29 17.23,-9.41 32.78,-22.81 52.52,-26.94 159.83,-42.76 322.08,-78 486.48,-97.74z"/>
   <path class="fil6 str0" d="M1640.7 1736.38c-6.73,67.94 -53.87,124.41 -141.42,169.4"/>
   <path class="fil7" d="M1499.27 1905.78c87.55,-45 134.7,-101.46 141.42,-169.4 -67.93,31.35 -135.04,64.37 -201.44,98.83 -7.03,4.44 -17.27,8.22 -17.75,17.97 1.49,14.63 14.24,24.12 25.22,32.17 15.21,11.01 33.6,20.09 52.55,20.43z"/>
   <path class="fil8" d="M1592.72 1871.37c39.38,-29.05 66.62,-71.46 86.88,-115.36 6.24,-14.11 -5.01,-37.97 -22.81,-27.03 -5.37,2.45 -10.73,4.91 -16.09,7.39 -6.73,67.94 -53.87,124.41 -141.42,169.4 5.04,0.09 10.11,-0.44 15.17,-1.71 27.6,-6.46 55.33,-15.47 78.27,-32.7z"/>
  </g>
 </g>
</svg>
