<?xml version="1.0" encoding="UTF-8"?>
<!DOCTYPE svg PUBLIC "-//W3C//DTD SVG 1.1//EN" "http://www.w3.org/Graphics/SVG/1.1/DTD/svg11.dtd">
<!-- Creator: CorelDRAW 2018 (64-Bit) -->
<svg xmlns="http://www.w3.org/2000/svg" xml:space="preserve" width="9.07237in" height="8.31698in" version="1.1" style="shape-rendering:geometricPrecision; text-rendering:geometricPrecision; image-rendering:optimizeQuality; fill-rule:evenodd; clip-rule:evenodd"
viewBox="0 0 9759.35 8946.76"
 xmlns:xlink="http://www.w3.org/1999/xlink">
 <defs>
  <style type="text/css">
   <![CDATA[
    .str0 {stroke:white;stroke-width:84.7;stroke-miterlimit:2.61313}
    .str1 {stroke:#2B2A29;stroke-width:7.45;stroke-miterlimit:2.61313}
    .fil11 {fill:none}
    .fil12 {fill:#C79933}
    .fil13 {fill:#FBEB58}
    .fil2 {fill:#181B1B;fill-rule:nonzero}
    .fil3 {fill:#1A1B18;fill-rule:nonzero}
    .fil0 {fill:#1B1D1C;fill-rule:nonzero}
    .fil1 {fill:#826C71;fill-rule:nonzero}
    .fil4 {fill:#826D71;fill-rule:nonzero}
    .fil7 {fill:#826D73;fill-rule:nonzero}
    .fil10 {fill:#826E73;fill-rule:nonzero}
    .fil6 {fill:#E8E8E8;fill-rule:nonzero}
    .fil9 {fill:#FAFAFA;fill-rule:nonzero}
    .fil8 {fill:#FBFCFC;fill-rule:nonzero}
    .fil5 {fill:#FCFBFC;fill-rule:nonzero}
   ]]>
  </style>
 </defs>
 <g id="Layer_x0020_1">
  <metadata id="CorelCorpID_0Corel-Layer"/>
  <g id="_1184482400">
   <g>
    <g>
     <path class="fil0" d="M4608.31 63.37c322.39,-54.81 650.96,4.5 961.55,94.44 411.48,123.38 802.73,359.21 1049.24,718.13 164.14,230.48 233.85,508.74 327.16,771.82 115.52,335.31 212.21,676.54 299.05,1020.57 26.71,123.67 130.98,205.74 194.79,310.02 61.84,84.32 100.06,197.31 204.9,239.48 202.94,98.37 394.63,219.23 573.67,356.67 592.22,456.75 1084.65,1034.06 1492.21,1658.6 -103.15,215.58 -224.58,421.89 -356.96,620.32 -414.01,612.74 -916,1160.54 -1443.01,1676.87 -285.29,278.82 -590.24,535.71 -884.52,803.86 -23.89,3.09 -47.23,6.18 -69.71,9.27 199,-326.88 388.16,-659.95 561.86,-1001.17 -791.49,607.11 -1646.23,1135.8 -2560.27,1536.89 -46.09,19.39 -98.37,38.51 -145.6,12.92 -895.77,-390.69 -1734.48,-902.23 -2526.82,-1471.68 156.27,334.48 356.68,645.9 536,968.01 -208.28,-146.16 -389.28,-327.17 -581.81,-492.71 -707.74,-653.49 -1385.68,-1353.07 -1910.16,-2165.37 -104.28,-161.34 -195.91,-330.26 -281.35,-501.99 276.86,-439.88 607.39,-845.18 971.94,-1215.35 329.42,-325.48 695.09,-623.42 1117.54,-819.6 93.32,-36.55 126.2,-138.86 181.29,-213.9 59.87,-100.34 154.87,-181.86 183.54,-299.06 145.6,-557.93 306.93,-1113.89 529.82,-1646.23 6.18,-17.43 15.18,-34.58 25.02,-51.16 112.15,-171.17 243.97,-330.54 405.3,-458.15 327.45,-259.99 735.56,-400.24 1145.36,-461.51zm-191.69 233.85l0 0c-509.02,112.71 -1021.42,401.94 -1240.36,896.34 -201.53,516.05 -361.46,1048.39 -496.09,1585.52 -26.14,100.91 -107.36,171.74 -163.86,255.5 -167.52,240.87 -297.37,506.48 -399.68,780.81 -164.43,461.52 -294,949.74 -262.24,1443.58 82.07,-232.17 137.44,-474.73 249.31,-695.93 196.47,-433.13 510.71,-830 940.18,-1049.52 -88.82,420.48 -37.38,861.48 99.5,1265.38 66.33,-109.33 86.57,-243.68 177.63,-339.81 21.08,254.09 86.29,506.2 216.43,727.41 57.05,-200.41 87.7,-414.86 213.61,-588.56 25.58,-53.13 99.22,-105.69 64.08,-170.32 -41.6,-89.39 -56.49,-186.64 -58.18,-284.16 -66.89,19.11 -132.67,39.35 -198.44,59.02 114.4,-137.16 290.06,-180.73 451.12,-236.94 -178.21,-24.17 -348.81,33.44 -509.58,102.59 -16.58,-276.29 104.28,-555.4 304.96,-743.71 217.27,163.87 456.74,327.17 734.43,357.53 56.78,-40.47 98.37,-97.81 144.47,-149.81 -1.12,38.51 -1.4,76.73 -1.12,115.23 123.67,-15.18 248.75,-14.34 372.98,-0.84 0,-46.1 0.55,-92.47 1.68,-138.29 58.46,64.93 103.72,199 212.49,166.39 253.81,-50.03 467.7,-204.62 676.26,-349.09 189.44,195.91 323.23,465.17 300.18,743.43 -167.8,-73.92 -346.84,-118.89 -530.1,-124.51 139.14,85.16 320.98,95.57 431.73,227.67 -55.37,-6.75 -109.9,-15.46 -163.87,-24.45 3.09,109.61 -21.08,217.27 -69.14,315.64 77.29,105.96 151.77,215.58 198.71,339.25 54.53,124.52 62.68,261.68 90.5,393.22 128.17,-223.45 209.12,-478.38 208.84,-737.53 98.09,83.19 126.76,213.89 182.98,324.35 98.93,-224.29 115.52,-472.48 142.78,-712.79 21.08,-179.88 -16.86,-358.65 -30.63,-537.4 494.12,241.72 825.21,723.19 1023.37,1222.65 72.52,160.77 94.16,339.54 173.14,497.78 20.24,-326.88 -36.26,-655.45 -119.18,-971.1 -113.83,-420.48 -274.88,-833.09 -519.98,-1195.11 -67.45,-103.16 -166.39,-190.28 -192.25,-315.08 -99.22,-386.75 -205.18,-772.1 -339.53,-1147.9 -79.27,-220.35 -140.26,-454.2 -284.16,-643.36 -167.8,-229.92 -404.74,-401.93 -663.04,-516.89 -426.67,-186.63 -913.76,-264.2 -1369.94,-146.16zm-3675.56 4307.69l0 0c-125.64,166.11 -275.44,319.01 -363.98,509.57 62.12,-50.59 119.46,-106.8 178.2,-161.9 345.15,-314.23 764.8,-530.1 1190.33,-714.48 60.44,-273.2 184.1,-524.76 298.5,-778.01 -510.71,281.35 -933.43,698.75 -1303.05,1144.81zm6972.79 -1145.36l0 0c117.77,251.83 238.92,504.79 299.06,778.56 129.85,67.74 268.71,116.08 398.83,184.1 236.38,119.73 462.08,261.96 670.64,425.82 125.91,96.13 230.19,216.43 349.66,320.43 -222.33,-356.12 -496.65,-677.38 -785.03,-981.22 -280.79,-277.41 -582.66,-541.91 -933.16,-727.69zm-3675 195.62l0 0c-42.72,32.6 -26.42,102.88 -12.37,148.41 102.88,70.54 231.61,6.74 342.06,-13.5 -116.64,-29.23 -217.83,-96.12 -329.7,-134.91zm1371.63 134.63l0 0c92.19,22.48 186.07,55.37 282.76,41.6 71.11,-42.16 70.27,-129.29 32.03,-193.65 -99.78,61.55 -208.28,105.12 -314.8,152.05zm-1121.47 230.76l0 0c-96.69,61.84 -204.62,136.6 -236.38,252.41 71.11,183.54 250.72,288.66 405.31,394.9 -104,-6.75 -205.75,-30.65 -303.56,-63.81 -48.34,-13.49 -109.62,-44.13 -145.87,7.59 -170.61,190.01 -242.01,458.15 -221.77,709.99 80.11,-129.85 149.53,-291.75 309.46,-339.54 111.02,-49.75 220.36,24.17 331.66,28.11 299.34,-26.99 601.77,-26.99 901.4,0 111.02,-3.37 219.79,-77.85 331.94,-29.23 163.3,45.25 230.48,211.37 313.95,340.94 20.24,-265.9 -63.8,-554.27 -256.33,-743.71 -143.91,25.3 -278.26,89.1 -423.86,106.52 142.22,-118.89 324.07,-207.14 402.77,-386.75 23.05,-47.22 -19.39,-90.5 -44.69,-125.64 -137.17,-156.84 -341.78,-259.42 -552.58,-250.15 -68.58,103.43 -121.43,218.39 -203.78,311.99 -9,0 -26.7,0 -35.69,-0.28 -85.44,-91.35 -135.76,-208.28 -203.77,-311.71 -129.29,-0.56 -259.15,26.99 -368.2,98.37zm-324.08 1320.47l0 0c-21.64,189.16 -10.68,383.66 46.1,566.36 84.88,-177.36 141.94,-378.04 290.62,-516.61 11.24,45.26 22.48,91.07 34.57,136.88 92.76,-26.7 198.44,-38.22 262.8,-119.45 6.47,13.22 19.39,39.64 25.86,52.85 81.51,21.64 169.2,0 253.81,5.34 100.05,-7.59 211.08,28.67 300.18,-33.44 73.64,64.08 173.14,71.95 265.05,91.07 3.65,-44.69 8.43,-89.38 14.33,-133.79 141.94,139.97 210.24,332.5 282.47,513.79 55.37,-142.22 75.33,-298.78 73.93,-451.11 -13.22,-135.47 -69.99,-290.06 -206.03,-344.32 -87.7,-26.7 -147,55.09 -192.53,114.96 -37.38,-21.36 -69.71,-60.99 -114.4,-60.16 -49.47,14.06 -94.72,37.1 -142.22,52.85 -41.6,-18.27 -78.13,-45.82 -119.18,-62.13 -56.78,-7.03 -109.33,17.71 -160.77,34.86 -67.74,-28.39 -154.58,-62.4 -215.29,-2.53 -68.58,74.49 -145.88,-36.54 -224.3,-24.17 -35.69,16.3 -64.37,43.01 -96.97,62.4 -26.14,-30.08 -48.34,-62.68 -69.14,-95.56 -148.97,-81.23 -277.41,81.23 -308.9,211.93zm518.86 729.66l0 0c-33.17,20.8 -83.47,39.92 -72.23,87.98 14.34,146.16 60.71,287.25 90.23,431.16 22.77,140.82 143.06,245.1 272.63,289.79 203.5,71.11 443.26,-82.64 484.29,-288.94 37.1,-160.49 80.67,-320.14 94.72,-484.85 -129.29,-81.79 -277.13,-135.48 -430.88,-138.57 -14.62,120.02 -24.45,240.88 -34.29,361.46 -46.38,-116.36 -19.39,-244.81 -39.07,-365.95 -127.6,12.65 -254.37,43 -365.39,107.93zm-428.35 667.82l0 0c13.77,137.45 26.7,320.98 177.92,378.89 55.09,31.2 103.43,-18.27 150.94,-42.44 26.14,28.1 52.84,56.49 80.38,84.88 95.28,-7.31 189.73,-1.97 276.01,44.69 83.76,-7.31 166.68,-25.3 250.44,3.09 95.28,-41.6 195.06,-58.47 299.62,-49.47 21.36,-25.58 43.28,-51.16 66.05,-76.73 51.99,21.64 106.25,68.02 166.11,39.35 146.72,-63.52 166.4,-243.12 181.86,-382.53 -178.76,137.15 -388.16,225.7 -604.87,277.69 -156.27,4.78 -312.26,5.34 -467.98,-1.68 -206.03,-60.16 -406.43,-142.5 -576.48,-275.74zm1599.57 475.57l0 0c-155.15,89.67 -331.94,132.67 -507.05,161.05 -333.91,25.86 -684.97,20.24 -991.06,-132.1 -106.8,-49.47 -184.1,-139.69 -270.11,-216.15 16.03,114.96 82.64,214.74 167.52,291.75 133.51,130.14 319.58,171.74 489.34,233.86 -146.43,23.61 -287.81,-18.27 -421.32,-73.64 184.94,219.52 464.61,371.85 756.92,356.39 261.96,-3.93 550.33,-101.18 707.73,-321.26 -121.98,32.03 -247.06,52.27 -372.98,40.47 139.97,-50.59 289.23,-84.88 411.77,-173.7 132.94,-86.57 229.07,-224.58 263.08,-379.72 -75.33,73.92 -141.1,159.93 -233.85,213.04z"/>
     <path class="fil1" d="M4416.63 297.22c456.18,-118.04 943.27,-40.47 1369.94,146.16 258.3,114.95 495.24,286.97 663.04,516.89 143.91,189.16 204.9,423.01 284.16,643.36 134.35,375.8 240.31,761.15 339.53,1147.9 25.86,124.79 124.8,211.92 192.25,315.08 245.1,362.02 406.15,774.63 519.98,1195.11 82.92,315.64 139.41,644.21 119.18,971.1 -78.98,-158.24 -100.62,-337 -173.14,-497.78 -198.16,-499.46 -529.26,-980.93 -1023.37,-1222.65 13.77,178.76 51.72,357.52 30.63,537.4 -27.26,240.31 -43.85,488.51 -142.78,712.79 -56.22,-110.46 -84.88,-241.16 -182.98,-324.35 0.28,259.15 -80.67,514.08 -208.84,737.53 -27.82,-131.54 -35.97,-268.71 -90.5,-393.22 -46.94,-123.67 -121.42,-233.28 -198.71,-339.25 48.06,-98.37 72.23,-206.03 69.14,-315.64 53.96,9 108.49,17.7 163.87,24.45 -110.75,-132.1 -292.59,-142.5 -431.73,-227.67 183.26,5.62 362.3,50.59 530.1,124.51 23.05,-278.26 -110.74,-547.53 -300.18,-743.43 -208.56,144.47 -422.45,299.06 -676.26,349.09 -108.77,32.61 -154.03,-101.46 -212.49,-166.39 -1.13,45.82 -1.68,92.19 -1.68,138.29 -124.24,-13.5 -249.31,-14.34 -372.98,0.84 -0.28,-38.51 0,-76.73 1.12,-115.23 -46.1,51.99 -87.7,109.34 -144.47,149.81 -277.69,-30.35 -517.17,-193.66 -734.43,-357.53 -200.68,188.32 -321.54,467.42 -304.96,743.71 160.77,-69.14 331.38,-126.76 509.58,-102.59 -161.06,56.21 -336.73,99.78 -451.12,236.94 65.77,-19.67 131.54,-39.91 198.44,-59.02 1.69,97.53 16.58,194.78 58.18,284.16 35.13,64.64 -38.51,117.2 -64.08,170.32 -125.91,173.7 -156.56,388.15 -213.61,588.56 -130.14,-221.21 -195.35,-473.32 -216.43,-727.41 -91.06,96.12 -111.3,230.47 -177.63,339.81 -136.89,-403.9 -188.32,-844.9 -99.5,-1265.38 -429.47,219.52 -743.71,616.39 -940.18,1049.52 -111.87,221.21 -167.23,463.76 -249.31,695.93 -31.76,-493.84 97.81,-982.06 262.24,-1443.58 102.31,-274.32 232.16,-539.93 399.68,-780.81 56.5,-83.76 137.72,-154.59 163.86,-255.5 134.63,-537.12 294.56,-1069.47 496.09,-1585.52 218.95,-494.4 731.34,-783.62 1240.36,-896.34zm-589.12 1519.75l0 0c-149.81,150.93 -301.87,312.83 -383.94,511.83 201.81,-204.62 419.36,-401.08 682.16,-524.47 -56.78,93.88 -133.22,174.54 -180.45,274.05 116.08,-73.09 224.86,-159.09 352.18,-213.34 322.95,-153.46 707.45,-176.52 1043.33,-50.03 172.29,58.75 321.55,163.87 472.2,263.65 -44.41,-101.47 -122.54,-181.29 -179.89,-274.33 248.75,111.58 444.94,304.96 653.21,474.73 -77.58,-181.29 -217.84,-325.76 -355.84,-462.36 -186.35,-169.2 -394.62,-322.1 -631,-412.89 46.1,57.62 96.12,112.43 143.91,169.2 -365.96,-123.67 -765.08,-116.64 -1131.87,-0.56 61.55,-68.58 131.26,-129.86 198.15,-193.66 -257.46,89.1 -480.35,259.14 -682.16,438.19zm-156.56 741.19l0 0c-136.88,175.95 -245.94,374.94 -314.8,587.15 -50.04,163.87 -68.58,347.12 -15.46,512.11 44.97,-163.58 92.75,-331.66 202.93,-465.17 82.92,-100.05 171.17,-211.08 294.56,-261.4 71.4,23.61 134.08,66.89 202.09,99.5 171.74,87.7 357.8,145.6 548.09,176.52 -6.19,-28.67 -11.53,-57.34 -16.31,-85.73 198.72,65.49 417.39,67.18 614.14,-6.46 -16.01,30.91 -31.19,62.11 -45.81,93.03 247.62,-33.44 484.57,-123.39 699.58,-249.31 95.85,-73.64 184.1,43.01 254.65,99.22 172.86,148.97 243.12,369.05 321.54,574.51 83.19,-387.88 -102.59,-770.7 -329.42,-1073.97 -17.42,-30.64 -57.9,-11.81 -68.86,13.21 -142.5,191.13 -346.83,333.91 -572.25,409.52 65.21,-82.92 145.87,-155.16 192.81,-251.56 -236.38,132.39 -479.51,284.72 -760.02,288.38 -279.38,-5.34 -522.5,-157.68 -757.77,-290.63 46.1,84.04 109.34,156.55 168.37,232.16 -222.61,-56.78 -406.99,-212.49 -548.94,-387.87 -13.21,-23.61 -52.84,-43.57 -69.14,-13.21z"/>
     <path class="fil1" d="M4483.8 6070.69c111.02,-64.93 237.79,-95.28 365.39,-107.93 19.68,121.14 -7.31,249.58 39.07,365.95 9.84,-120.58 19.67,-241.43 34.29,-361.46 153.75,3.09 301.59,56.78 430.88,138.57 -14.05,164.71 -57.62,324.35 -94.72,484.85 -41.03,206.31 -280.78,360.05 -484.29,288.94 -129.57,-44.69 -249.86,-148.97 -272.63,-289.79 -29.51,-143.91 -75.89,-285 -90.23,-431.16 -11.24,-48.06 39.06,-67.17 72.23,-87.98z"/>
     <path class="fil2" d="M3827.5 1816.97c201.81,-179.04 424.69,-349.09 682.16,-438.19 -66.89,63.8 -136.6,125.08 -198.15,193.66 366.79,-116.08 765.91,-123.11 1131.87,0.56 -47.79,-56.78 -97.81,-111.58 -143.91,-169.2 236.38,90.79 444.66,243.69 631,412.89 138,136.6 278.26,281.07 355.84,462.36 -208.28,-169.77 -404.46,-363.15 -653.21,-474.73 57.34,93.04 135.48,172.86 179.89,274.33 -150.65,-99.78 -299.91,-204.9 -472.2,-263.65 -335.88,-126.48 -720.38,-103.43 -1043.33,50.03 -127.32,54.24 -236.1,140.25 -352.18,213.34 47.22,-99.5 123.67,-180.17 180.45,-274.05 -262.8,123.39 -480.34,319.86 -682.16,524.47 82.07,-199 234.13,-360.9 383.94,-511.83z"/>
     <path class="fil3" d="M3670.95 2558.16c16.3,-30.36 55.93,-10.4 69.14,13.21 141.95,175.39 326.33,331.1 548.94,387.87 -59.03,-75.61 -122.27,-148.12 -168.37,-232.16 235.26,132.94 478.38,285.29 757.77,290.63 280.51,-3.66 523.64,-155.99 760.02,-288.38 -46.94,96.4 -127.6,168.64 -192.81,251.56 225.42,-75.61 429.76,-218.39 572.25,-409.52 10.96,-25.02 51.44,-43.85 68.86,-13.21 226.83,303.27 412.61,686.09 329.42,1073.97 -78.42,-205.46 -148.69,-425.54 -321.54,-574.51 -70.55,-56.21 -158.8,-172.85 -254.65,-99.22 -215.01,125.92 -451.96,215.87 -699.58,249.31 14.62,-30.92 29.8,-62.12 45.81,-93.03 -196.75,73.64 -415.42,71.95 -614.14,6.46 4.78,28.39 10.12,57.06 16.31,85.73 -190.28,-30.92 -376.35,-88.82 -548.09,-176.52 -68.02,-32.6 -130.7,-75.89 -202.09,-99.5 -123.39,50.31 -211.64,161.34 -294.56,261.4 -110.18,133.51 -157.96,301.59 -202.93,465.17 -53.13,-164.99 -34.58,-348.24 15.46,-512.11 68.86,-212.21 177.92,-411.2 314.8,-587.15z"/>
     <path class="fil3" d="M4342.14 4298.83c16.59,-78.98 118.05,-135.76 193.66,-111.87 110.74,100.35 193.93,243.13 343.19,292.32 159.08,-48.63 236.38,-211.08 365.95,-302.15 78.7,5.06 141.66,56.21 184.1,120.3 -99.22,107.08 -210.52,221.76 -353.86,261.39 -131.83,-25.86 -270.68,-45.53 -396.31,14.9 -125.36,-71.68 -261.68,-146.72 -336.72,-274.89z"/>
     <path class="fil4" d="M741.06 4604.91c369.62,-446.06 792.34,-863.45 1303.05,-1144.81 -114.4,253.24 -238.07,504.81 -298.5,778.01 -425.53,184.38 -845.18,400.25 -1190.33,714.48 -58.74,55.09 -116.08,111.3 -178.2,161.9 88.54,-190.56 238.34,-343.46 363.98,-509.57z"/>
     <path class="fil4" d="M7713.86 3459.55c350.5,185.78 652.37,450.27 933.16,727.69 288.38,303.84 562.7,625.1 785.03,981.22 -119.46,-104 -223.74,-224.3 -349.66,-320.43 -208.55,-163.86 -434.25,-306.09 -670.64,-425.82 -130.13,-68.02 -268.99,-116.36 -398.83,-184.1 -60.15,-273.77 -181.29,-526.73 -299.06,-778.56z"/>
     <path class="fil5" d="M4038.86 3655.17c111.87,38.79 213.06,105.68 329.7,134.91 -110.46,20.24 -239.19,84.04 -342.06,13.5 -14.05,-45.53 -30.35,-115.81 12.37,-148.41z"/>
     <path class="fil6" d="M5410.49 3789.81c106.52,-46.93 215.02,-90.5 314.8,-152.05 38.23,64.36 39.07,151.49 -32.03,193.65 -96.69,13.78 -190.57,-19.11 -282.76,-41.6z"/>
     <path class="fil7" d="M4289.02 4020.56c109.05,-71.39 238.91,-98.94 368.2,-98.37 68.02,103.43 118.33,220.36 203.77,311.71 9,0.28 26.7,0.28 35.69,0.28 82.36,-93.59 135.2,-208.55 203.78,-311.99 210.8,-9.27 415.42,93.32 552.58,250.15 25.3,35.13 67.74,78.42 44.69,125.64 -78.7,179.61 -260.56,267.86 -402.77,386.75 145.6,-17.42 279.95,-81.23 423.86,-106.52 192.53,189.44 276.57,477.82 256.33,743.71 -83.47,-129.57 -150.66,-295.69 -313.95,-340.94 -112.15,-48.62 -220.92,25.86 -331.94,29.23 -299.62,-26.99 -602.05,-26.99 -901.4,0 -111.3,-3.93 -220.64,-77.85 -331.66,-28.11 -159.93,47.79 -229.35,209.69 -309.46,339.54 -20.24,-251.84 51.16,-519.98 221.77,-709.99 36.25,-51.72 97.53,-21.08 145.87,-7.59 97.81,33.16 199.56,57.06 303.56,63.81 -154.59,-106.25 -334.2,-211.37 -405.31,-394.9 31.76,-115.81 139.69,-190.57 236.38,-252.41zm53.12 278.26l0 0c75.05,128.17 211.37,203.21 336.72,274.89 125.64,-60.43 264.48,-40.76 396.31,-14.9 143.34,-39.63 254.64,-154.31 353.86,-261.39 -42.44,-64.09 -105.4,-115.24 -184.1,-120.3 -129.57,91.06 -206.86,253.52 -365.95,302.15 -149.25,-49.18 -232.45,-191.97 -343.19,-292.32 -75.61,-23.89 -177.07,32.89 -193.66,111.87z"/>
     <path class="fil8" d="M3964.94 5341.04c31.49,-130.7 159.93,-293.16 308.9,-211.93 20.79,32.88 43,65.48 69.14,95.56 32.61,-19.39 61.28,-46.1 96.97,-62.4 78.41,-12.37 155.71,98.66 224.3,24.17 60.71,-59.87 147.56,-25.86 215.29,2.53 51.44,-17.15 104,-41.89 160.77,-34.86 41.04,16.31 77.58,43.85 119.18,62.13 47.5,-15.75 92.76,-38.79 142.22,-52.85 44.69,-0.83 77.01,38.79 114.4,60.16 45.54,-59.87 104.84,-141.66 192.53,-114.96 136.03,54.25 192.81,208.84 206.03,344.32 1.4,152.34 -18.55,308.9 -73.93,451.11 -72.23,-181.29 -140.53,-373.82 -282.47,-513.79 -5.9,44.41 -10.68,89.1 -14.33,133.79 -91.92,-19.12 -191.41,-26.99 -265.05,-91.07 -89.1,62.11 -200.12,25.85 -300.18,33.44 -84.61,-5.34 -172.3,16.3 -253.81,-5.34 -6.47,-13.21 -19.39,-39.63 -25.86,-52.85 -64.36,81.23 -170.04,92.75 -262.8,119.45 -12.09,-45.81 -23.33,-91.62 -34.57,-136.88 -148.69,138.57 -205.74,339.25 -290.62,516.61 -56.78,-182.7 -67.74,-377.2 -46.1,-566.36z"/>
     <path class="fil9" d="M4055.45 6738.51c170.05,133.23 370.45,215.58 576.48,275.74 155.71,7.03 311.71,6.46 467.98,1.68 216.7,-51.99 426.1,-140.54 604.87,-277.69 -15.46,139.41 -35.13,319.01 -181.86,382.53 -59.86,28.67 -114.12,-17.71 -166.11,-39.35 -22.77,25.58 -44.69,51.16 -66.05,76.73 -104.57,-9 -204.34,7.87 -299.62,49.47 -83.76,-28.39 -166.68,-10.41 -250.44,-3.09 -86.29,-46.66 -180.73,-52 -276.01,-44.69 -27.55,-28.4 -54.24,-56.78 -80.38,-84.88 -47.5,24.17 -95.85,73.64 -150.94,42.44 -151.22,-57.91 -164.15,-241.44 -177.92,-378.89z"/>
     <path class="fil10" d="M5655.02 7214.08c92.75,-53.12 158.52,-139.12 233.85,-213.04 -34.01,155.15 -130.14,293.15 -263.08,379.72 -122.54,88.82 -271.8,123.11 -411.77,173.7 125.92,11.8 250.99,-8.44 372.98,-40.47 -157.39,220.07 -445.77,317.32 -707.73,321.26 -292.32,15.46 -571.98,-136.88 -756.92,-356.39 133.51,55.37 274.89,97.25 421.32,73.64 -169.76,-62.12 -355.83,-103.72 -489.34,-233.86 -84.88,-77.01 -151.5,-176.79 -167.52,-291.75 86.01,76.46 163.31,166.68 270.11,216.15 306.09,152.33 657.14,157.96 991.06,132.1 175.11,-28.39 351.89,-71.39 507.05,-161.05z"/>
    </g>
    <path class="fil11 str0" d="M7644.99 3217.83c202.93,98.37 394.62,219.23 573.66,356.67 592.23,456.74 1084.66,1034.06 1492.21,1658.59 -103.16,215.58 -224.58,421.89 -356.97,620.33 -414.01,612.74 -916.01,1160.54 -1443.02,1676.87 -285.28,278.82 -590.24,535.72 -884.52,803.85 -23.89,3.1 -47.23,6.2 -69.71,9.28 199,-326.88 388.16,-659.95 561.86,-1001.17 -791.49,607.11 -1646.23,1135.81 -2560.27,1536.9 -46.09,19.39 -98.38,38.51 -145.6,12.92 -895.77,-390.68 -1734.48,-902.23 -2526.82,-1471.68 156.27,334.48 356.68,645.9 536.01,968.01 -208.28,-146.15 -389.29,-327.17 -581.82,-492.71 -707.73,-653.49 -1385.68,-1353.07 -1910.15,-2165.37 -104.28,-161.34 -195.91,-330.26 -281.35,-501.99 276.85,-439.88 607.39,-845.18 971.94,-1215.35 329.42,-325.48 695.09,-623.42 1117.54,-819.59 93.32,-36.55 126.2,-138.86 181.28,-213.91 59.87,-100.34 154.87,-181.85 183.54,-299.06 145.6,-557.92 306.94,-1113.88 529.81,-1646.22 6.19,-17.44 15.18,-34.58 25.02,-51.17 112.15,-171.17 243.97,-330.53 405.3,-458.14 327.45,-259.99 735.56,-400.24 1145.36,-461.52 322.38,-54.8 650.95,4.5 961.54,94.44 411.48,123.39 802.73,359.22 1049.24,718.13 164.14,230.48 233.84,508.74 327.16,771.82 115.52,335.32 212.21,676.54 299.06,1020.57 26.7,123.67 130.98,205.74 194.78,310.02 61.84,84.32 100.07,197.31 204.9,239.48z"/>
   </g>
   <path class="fil11 str1" d="M4072.5 3667.74c-47.55,117.55 25.06,164.53 217.83,140.96"/>
   <path class="fil11 str1" d="M5677.97 3665.34c51.47,98.98 -12.18,147.05 -190.95,144.2"/>
   <path class="fil12" d="M4290.33 3808.7c-192.77,23.57 -265.38,-23.42 -217.83,-140.97 -11.12,-4.43 -22.33,-8.64 -33.64,-12.56 -42.72,32.6 -26.42,102.88 -12.37,148.41 79.32,54.39 174.01,28.92 263.84,5.12z"/>
   <path class="fil12" d="M5677.97 3665.34c51.47,98.98 -12.18,147.05 -190.95,144.2 67.55,17.31 136.15,31.84 206.23,21.86 71.11,-42.16 70.27,-129.29 32.03,-193.65 -15.57,9.61 -31.36,18.78 -47.32,27.59z"/>
   <path class="fil13" d="M5487.02 3809.55c178.76,2.85 242.41,-45.22 190.95,-144.2 -86.28,47.65 -177.58,84.86 -267.48,124.46 25.38,6.19 50.88,13.17 76.53,19.74z"/>
   <path class="fil13" d="M4368.56 3790.08c-104.84,-26.27 -197.2,-82.98 -296.05,-122.35 -47.55,117.55 25.06,164.54 217.83,140.97 26.68,-7.07 52.93,-13.99 78.22,-18.62z"/>
  </g>
 </g>
</svg>
