<?xml version="1.0" encoding="UTF-8"?>
<!DOCTYPE svg PUBLIC "-//W3C//DTD SVG 1.1//EN" "http://www.w3.org/Graphics/SVG/1.1/DTD/svg11.dtd">
<!-- Creator: CorelDRAW 2018 (64-Bit) -->
<svg xmlns="http://www.w3.org/2000/svg" xml:space="preserve" width="0.508398in" height="0.774476in" version="1.1" style="shape-rendering:geometricPrecision; text-rendering:geometricPrecision; image-rendering:optimizeQuality; fill-rule:evenodd; clip-rule:evenodd"
viewBox="0 0 3.9 5.94"
 xmlns:xlink="http://www.w3.org/1999/xlink">
 <defs>
  <style type="text/css">
   <![CDATA[
    .str0 {stroke:#FEFEFE;stroke-width:0.08;stroke-miterlimit:2.61313}
    .str2 {stroke:#FEFEFE;stroke-width:0.03;stroke-miterlimit:2.61313}
    .str1 {stroke:#2B2A29;stroke-width:0.02;stroke-miterlimit:2.61313}
    .fil75 {fill:none}
    .fil73 {fill:#AC7345}
    .fil70 {fill:#AD7343}
    .fil78 {fill:#C79933}
    .fil76 {fill:#C79933}
    .fil69 {fill:#C89E69}
    .fil72 {fill:#C89E6A}
    .fil74 {fill:#DDC4AC}
    .fil71 {fill:#EEC6A4}
    .fil77 {fill:#FBEB58}
    .fil2 {fill:#181015;fill-rule:nonzero}
    .fil21 {fill:#1C1010;fill-rule:nonzero}
    .fil1 {fill:#1C1013;fill-rule:nonzero}
    .fil39 {fill:#1C1013;fill-rule:nonzero}
    .fil45 {fill:#1D0000;fill-rule:nonzero}
    .fil16 {fill:#1D1012;fill-rule:nonzero}
    .fil42 {fill:#1F0B12;fill-rule:nonzero}
    .fil38 {fill:#220A0B;fill-rule:nonzero}
    .fil29 {fill:#230A0B;fill-rule:nonzero}
    .fil4 {fill:#240A0B;fill-rule:nonzero}
    .fil49 {fill:#2A0A09;fill-rule:nonzero}
    .fil44 {fill:#2B0300;fill-rule:nonzero}
    .fil50 {fill:#2C130A;fill-rule:nonzero}
    .fil47 {fill:#300F07;fill-rule:nonzero}
    .fil51 {fill:#310B06;fill-rule:nonzero}
    .fil48 {fill:#380E08;fill-rule:nonzero}
    .fil52 {fill:#39110B;fill-rule:nonzero}
    .fil46 {fill:#391207;fill-rule:nonzero}
    .fil20 {fill:#393D40;fill-rule:nonzero}
    .fil0 {fill:#4D4D4D;fill-rule:nonzero}
    .fil23 {fill:#535252;fill-rule:nonzero}
    .fil67 {fill:#575354;fill-rule:nonzero}
    .fil17 {fill:#5B575F;fill-rule:nonzero}
    .fil60 {fill:#615F60;fill-rule:nonzero}
    .fil30 {fill:#676466;fill-rule:nonzero}
    .fil26 {fill:#686768;fill-rule:nonzero}
    .fil3 {fill:#6F6A6C;fill-rule:nonzero}
    .fil59 {fill:#7E7C7D;fill-rule:nonzero}
    .fil53 {fill:#858384;fill-rule:nonzero}
    .fil58 {fill:#878586;fill-rule:nonzero}
    .fil32 {fill:#878787;fill-rule:nonzero}
    .fil68 {fill:#898788;fill-rule:nonzero}
    .fil41 {fill:#A46D3C;fill-rule:nonzero}
    .fil40 {fill:#A9703D;fill-rule:nonzero}
    .fil37 {fill:#AA7546;fill-rule:nonzero}
    .fil12 {fill:#AC7142;fill-rule:nonzero}
    .fil35 {fill:#AC7343;fill-rule:nonzero}
    .fil22 {fill:#AC7345;fill-rule:nonzero}
    .fil34 {fill:#AC7346;fill-rule:nonzero}
    .fil33 {fill:#AC7446;fill-rule:nonzero}
    .fil13 {fill:#AD7343;fill-rule:nonzero}
    .fil55 {fill:#AE7145;fill-rule:nonzero}
    .fil31 {fill:#AE7346;fill-rule:nonzero}
    .fil36 {fill:#B87A43;fill-rule:nonzero}
    .fil7 {fill:#C89E69;fill-rule:nonzero}
    .fil9 {fill:#C89E6A;fill-rule:nonzero}
    .fil5 {fill:#C99E68;fill-rule:nonzero}
    .fil11 {fill:#CA9D69;fill-rule:nonzero}
    .fil6 {fill:#CA9E68;fill-rule:nonzero}
    .fil54 {fill:#CA9E6A;fill-rule:nonzero}
    .fil63 {fill:#D2C7B1;fill-rule:nonzero}
    .fil18 {fill:#DBC5A8;fill-rule:nonzero}
    .fil10 {fill:#DCB4A2;fill-rule:nonzero}
    .fil27 {fill:#DDC4AC;fill-rule:nonzero}
    .fil66 {fill:#DDC5A8;fill-rule:nonzero}
    .fil8 {fill:#DEC7B3;fill-rule:nonzero}
    .fil64 {fill:#DECEB7;fill-rule:nonzero}
    .fil19 {fill:#DFC4A3;fill-rule:nonzero}
    .fil15 {fill:#EEC6A4;fill-rule:nonzero}
    .fil28 {fill:#F0D0B7;fill-rule:nonzero}
    .fil61 {fill:#FAFCFB;fill-rule:nonzero}
    .fil62 {fill:#FBFBF9;fill-rule:nonzero}
    .fil65 {fill:#FBFDF9;fill-rule:nonzero}
    .fil56 {fill:#FBFDFC;fill-rule:nonzero}
    .fil14 {fill:#FCFDFA;fill-rule:nonzero}
    .fil57 {fill:#FCFDFC;fill-rule:nonzero}
    .fil25 {fill:#FDFDFA;fill-rule:nonzero}
    .fil43 {fill:#FDFDFC;fill-rule:nonzero}
    .fil24 {fill:#FFFCF9;fill-rule:nonzero}
   ]]>
  </style>
 </defs>
 <g id="Layer_x0020_1">
  <metadata id="CorelCorpID_0Corel-Layer"/>
  <g id="_986366128">
   <g>
    <g>
     <path class="fil0" d="M0.24 1.13c-0,0.01 -0,0.01 0,0z"/>
     <path class="fil1" d="M3.29 3.64c0,0.03 -0.05,0.01 -0.08,0.07 -0.06,0.12 -0.16,0.06 -0.06,0.19 0.16,0.24 0.1,0.44 0.2,0.67 0.11,0.24 0.16,0.41 0.04,0.67 -0.16,0.33 -0.59,0.53 -0.93,0.61 -0.46,0.1 -0.92,0.07 -1.35,-0.11 -0.25,-0.1 -0.43,-0.24 -0.58,-0.46 -0.12,-0.18 -0.12,-0.43 -0.03,-0.62 0.04,-0.09 0.07,-0.13 0.09,-0.24 0.02,-0.14 0.02,-0.23 0.07,-0.36 0.04,-0.09 0.05,-0.13 0.11,-0.21 0.03,-0.04 -0.01,-0.05 -0.05,-0.1 -0.07,-0.06 -0.14,-0.11 -0.18,-0.2 -0.02,-0.04 -0.11,-0.12 -0.14,-0.18 -0.11,-0.17 -0.21,-0.37 -0.26,-0.57 -0.01,-0.04 -0.04,-0.12 -0.05,-0.16 -0.02,-0.19 -0.06,-0.29 -0.05,-0.5 0.01,-0.38 0.06,-0.68 0.2,-1.02 0.05,-0.11 0.09,-0.19 0.16,-0.3 0.01,-0.02 -0.01,-0.04 -0.01,-0.11 0.01,-0.16 0.09,-0.33 0.28,-0.31 0.07,0 0.08,-0.04 0.13,-0.08 0.03,-0.02 0.09,-0.07 0.13,-0.1 0.25,-0.18 0.6,-0.26 0.89,-0.14 0.21,0.09 0.12,0.02 0.36,-0.03 0.3,-0.07 0.63,0.03 0.86,0.23 0.04,0.03 0.05,0.02 0.08,0.06 0.11,0.12 0.18,-0.02 0.3,0.12 0.14,0.17 0.04,0.24 0.14,0.43 0.38,0.77 0.43,1.66 -0.02,2.41 -0.05,0.08 -0.15,0.21 -0.22,0.28 -0.01,0.01 -0.03,0.03 -0.03,0.04zm0.03 -1.1c-0.01,0.01 -0.02,0.01 -0.03,0.02 0.08,-0.02 0.12,-0.04 0.17,-0.1 0.04,0.02 0.05,-0.23 0.05,-0.25 -0.01,-0.2 -0.1,-0.4 -0.19,-0.57 -0.02,-0.04 -0.04,-0.1 -0.07,-0.15 -0.03,-0.05 -0.05,-0.1 -0.08,-0.15 -0.03,0.05 -0.03,0.11 -0.06,0.16 -0,-0 -0,-0.01 -0,-0.01 0.01,-0.05 0.02,-0.11 0.01,-0.16 -0.01,-0.09 -0.01,-0.14 -0.04,-0.23 -0.03,-0.08 -0.09,-0.16 -0.18,-0.19 -0.04,-0.01 -0.09,0 -0.13,0.01l-0 0c-0.06,0.03 -0.12,0.06 -0.17,0.11 0,-0.05 0.04,-0.09 0.06,-0.13 0.05,-0.04 0.11,-0.08 0.17,-0.1 -0.02,-0.01 -0.04,-0.01 -0.06,-0.02 -0.01,-0.01 -0.02,-0.02 -0.03,-0.03 0.05,0.02 0.1,0.03 0.15,0.02 -0.02,-0.02 -0.16,-0.14 -0.19,-0.14 -0.01,-0 -0.02,-0.03 -0.08,-0.04 0.01,-0.02 -0.01,-0.01 -0.03,-0.02 -0.21,-0.11 -0.42,-0.2 -0.64,-0.05 -0.18,-0.16 -0.44,-0.06 -0.62,0.04 -0.03,0.02 -0.06,0.03 -0.09,0.05 -0.01,0 -0.02,0 -0.02,0l-0.01 0.01 -0.01 -0c-0.07,0.05 -0.14,0.09 -0.2,0.15 0.06,0.01 0.11,-0 0.16,-0.02 -0.03,0.02 -0.07,0.04 -0.1,0.05 0.07,0.01 0.13,0.06 0.18,0.11 0.01,0.03 0.03,0.06 0.05,0.09 0,0.01 0,0.02 0,0.03 -0.02,-0.02 -0.03,-0.03 -0.05,-0.05l-0.01 -0c-0.07,-0.05 -0.15,-0.09 -0.24,-0.08 -0.23,0.07 -0.24,0.37 -0.22,0.57 -0,0 -0,0.01 -0,0.01 -0.01,-0.03 -0.03,-0.07 -0.04,-0.1 -0,-0.02 -0,-0.04 -0.01,-0.06 -0.08,0.08 -0.29,0.56 -0.32,0.67 -0.05,0.2 -0.11,0.48 0.15,0.55 0.11,0.03 -0.03,-0 -0.09,-0.14 -0.06,-0.14 0.01,-0.29 0.06,-0.41 0.04,-0.06 0.07,-0.11 0.11,-0.16 0,0 0,0.01 0.01,0.01 -0.03,0.06 -0.05,0.12 -0.06,0.19 -0.03,0.09 -0.03,0.19 -0.01,0.28 0.01,0.05 0.04,0.11 0.09,0.13 -0.03,-0.06 -0.05,-0.13 -0.05,-0.2 0,-0.02 0.01,-0.05 0.02,-0.07 0,0 0.01,0.01 0.01,0.01 -0,0.11 0.06,0.21 0.16,0.25 0.02,-0.01 0.03,-0.02 0.05,-0.03 0.04,-0.04 0.09,-0.06 0.14,-0.1 0.02,-0.06 0.05,-0.12 0.1,-0.16 0.07,-0.06 0.17,-0.08 0.26,-0.11 0,-0.13 -0.09,-0.25 -0.18,-0.33 0.07,0.01 0.12,0.08 0.18,0.11 -0.02,-0.06 -0.06,-0.11 -0.1,-0.16 -0.02,-0.02 -0.04,-0.05 -0.07,-0.06 -0.07,-0.08 -0.18,-0.1 -0.28,-0.14 0.03,-0 0.07,-0 0.1,-0 -0.06,-0.06 -0.11,-0.12 -0.11,-0.2 -0,-0.06 0.03,-0.11 0.07,-0.15 -0.03,-0.01 -0.07,-0.02 -0.1,-0.02 0.02,-0.02 0.04,-0.03 0.07,-0.04 0.05,-0.01 0.12,-0 0.16,0.04 0.14,0.12 0.12,0.33 0.26,0.44 0.05,0.04 0.11,0.05 0.17,0.04 0,0 0.01,0.01 0.01,0.01 -0.05,0.03 -0.11,0.05 -0.18,0.04 0.01,0.01 0.02,0.03 0.04,0.04 0.03,0.05 0.07,0.1 0.09,0.15l0 0c0.01,0.04 0.02,0.07 0.04,0.11 -0,0.03 0,0.06 0.01,0.09 0.03,-0.01 0.05,-0.04 0.06,-0.06 0.02,-0.03 0.02,-0.07 0.04,-0.09 0,0.04 0,0.08 0,0.13 -0,0.01 -0.01,0.02 -0.01,0.03 -0,0.01 -0,0.03 -0,0.04 0.04,0.02 0.09,0.04 0.13,0.06 0.03,0.04 0.06,0.07 0.08,0.12 0.01,0.03 -0,0.07 -0,0.1 -0.04,0.05 -0.08,0.08 -0.14,0.1 0.02,-0.03 0.05,-0.05 0.06,-0.09 0.02,-0.06 -0.02,-0.12 -0.08,-0.15 -0.15,-0.07 -0.33,-0.06 -0.46,0.03 -0.06,0.04 -0.11,0.1 -0.1,0.18 0.01,0.06 0.06,0.11 0.12,0.12 0.01,0.01 0.03,0.02 0.05,0.03 -0.1,-0 -0.21,-0.04 -0.26,-0.12 -0.01,0.01 -0.02,0.01 -0.03,0.02 -0.08,0.07 -0.16,0.15 -0.2,0.25 -0.12,0.16 -0.12,0.47 -0.1,0.07 0,-0.06 -0.02,0 -0.04,0.04 -0.11,0.2 -0.13,0.51 0.07,0.66 0.02,0.02 0.03,0.02 0.06,0.03 0.08,0.05 0.18,0.07 0.27,0.07 0.16,-0.01 0.33,-0.05 0.47,-0.13 0.07,-0.03 0.14,-0.08 0.19,-0.14 0.07,-0.07 0.12,-0.17 0.16,-0.26 0.04,-0.01 0.05,-0.06 0.08,-0.08 0.04,0.17 0.13,0.33 0.27,0.43 0.11,0.08 0.25,0.13 0.38,0.16 0.58,0.11 0.87,-0.28 0.56,-0.79 0,0.01 0,0.02 0,0.02 -0.01,0 -0.04,0.01 -0.05,0.02 -0.02,-0.05 -0.04,-0.09 -0.07,-0.13 -0.06,-0.09 -0.13,-0.17 -0.21,-0.23 -0.06,0.09 -0.16,0.12 -0.26,0.12 0.03,-0.02 0.06,-0.03 0.09,-0.05l0 -0c0.06,-0.03 0.09,-0.1 0.07,-0.17 -0.03,-0.1 -0.14,-0.15 -0.23,-0.17 -0.11,-0.03 -0.23,-0.01 -0.33,0.03 -0.02,0.02 -0.04,0.04 -0.06,0.06 -0.01,0.02 -0.03,0.05 -0.01,0.06 0.02,0.01 0.03,0.03 0.02,0.05 -0,0.03 0.03,0.04 0.04,0.06 -0.05,-0.02 -0.1,-0.04 -0.13,-0.09 -0.03,-0.04 -0.03,-0.09 -0.02,-0.13 0.02,-0.03 0.04,-0.06 0.07,-0.09 0.04,-0.04 0.1,-0.06 0.15,-0.08 -0.01,-0.02 -0.01,-0.04 -0.02,-0.06 -0.01,-0.05 -0,-0.09 0.01,-0.14 0.01,0.03 0.02,0.06 0.03,0.09 0.01,0.03 0.04,0.05 0.07,0.07 0.01,-0.06 0.02,-0.13 0.05,-0.19 0.03,-0.06 0.06,-0.1 0.09,-0.16 0.02,-0.01 0.03,-0.03 0.05,-0.04 -0.07,0 -0.14,-0.01 -0.19,-0.06 0.01,0 0.03,0 0.03,0 0.02,0.02 0.05,0.01 0.07,-0l0.01 0.01c0.1,-0.04 0.16,-0.14 0.19,-0.23 0.04,-0.1 0.07,-0.21 0.17,-0.27 0.06,-0.04 0.13,-0.02 0.19,0.01 -0,0.01 -0,0.02 -0,0.02 -0.03,-0.02 -0.06,0 -0.09,0.01 0.01,0.02 0.03,0.03 0.04,0.05 0.02,0.03 0.03,0.07 0.03,0.11 0,0.08 -0.06,0.15 -0.11,0.21 0.03,-0 0.06,-0 0.09,0 -0.08,0.03 -0.17,0.05 -0.24,0.11 -0.04,0.03 -0.08,0.06 -0.11,0.1 -0.04,0.05 -0.07,0.1 -0.08,0.15 0.03,-0.04 0.08,-0.07 0.12,-0.1 0.01,-0 0.03,-0.01 0.04,-0.01l-0.01 0.02c-0.09,0.07 -0.16,0.18 -0.16,0.3 0.04,0.01 0.09,0.02 0.13,0.04 0.1,0.05 0.21,0.12 0.22,0.24 0.02,0.01 0.03,0.02 0.05,0.04 0.05,0.02 0.09,0.06 0.13,0.09 0.02,-0 0.04,-0.02 0.06,-0.03 0.01,0 0.03,0.01 0.04,0.01 0.02,0.03 0.03,0.06 0.06,0.07 0.01,-0 0.02,-0.01 0.03,-0.02 0.01,-0.03 0.04,-0.05 0.06,-0.08 0.08,-0.18 -0.04,-0.28 0.01,-0.34 0.02,-0.03 0.02,0.02 0.05,-0 0.07,0.18 0.11,0.35 -0.06,0.49zm-2.3 -1.89l-0 -0c0.25,-0.17 0.62,-0.45 0.93,-0.26 0.32,-0.18 0.66,0.07 0.92,0.25 0,0 0.08,0.07 0.09,0.08 0.07,-0.07 0.09,-0.11 0.13,-0.2 -0.24,-0.29 -0.68,-0.44 -1.03,-0.29 -0.15,0.06 -0.07,0.05 -0.21,-0.01 -0.37,-0.15 -0.73,0.02 -1,0.27 -0.04,0.04 -0.03,0.02 0.01,0.09 0.03,0.05 0.06,0.09 0.09,0.14 0.03,-0.02 0.06,-0.04 0.09,-0.07zm-0.19 0.13c-0.02,0.05 -0.02,0.09 -0.06,0.12 0.02,-0.11 0.01,-0.3 -0.12,-0.35 -0.11,-0.04 -0.22,0.19 -0.08,0.35 -0.04,0.09 0.04,0.07 -0.02,0.08 -0.07,0.01 0.01,0.04 -0.07,-0.02 -0.02,-0.01 -0.17,0.39 -0.19,0.45 -0.07,0.26 -0.12,0.59 -0.08,0.86 0.01,0.1 0.02,-0.05 0.04,-0.09 0.09,-0.34 0.26,-0.65 0.45,-0.93 0.06,-0.09 -0.03,-0.29 0.23,-0.43 -0.02,-0.01 -0.07,-0.05 -0.09,-0.05l-0.01 0.01zm2.86 1.33c-0,-0.37 -0.08,-0.73 -0.24,-1.06 -0.01,-0.03 -0.03,-0.05 -0.05,-0.07 -0.11,0.11 -0.17,0.14 -0.13,0.3 -0.19,-0.16 0.02,-0.27 -0.06,-0.31 -0.08,-0.03 0.11,0.01 0.15,-0.16 0.04,-0.17 -0.12,-0.42 -0.25,-0.12 -0.03,0.08 -0.02,0.15 -0.01,0.23 -0.05,-0.06 -0.05,-0.08 -0.07,-0.15 -0.15,0.09 -0.07,0 0.05,0.16 0.1,0.13 0.03,0.23 0.12,0.35 0.2,0.31 0.33,0.59 0.44,0.94 0.05,0.17 0.03,0 0.04,-0.07l0 -0.04zm-2.66 -0.93l0 0c-0.02,0.04 -0.04,0.08 -0.03,0.13 0.02,0.08 0.09,0.14 0.17,0.18 -0.07,-0.1 -0.08,-0.22 -0.14,-0.31zm1.81 0l0 0c-0.05,0.1 -0.08,0.21 -0.13,0.31 0.07,-0.04 0.14,-0.1 0.16,-0.18 0.01,-0.04 0,-0.1 -0.03,-0.13zm-1.2 2.54l0 0 -0 0.01c-0,0.01 -0.01,0.01 -0.01,0.01 -0.04,0.18 0.02,0.37 0.1,0.52 0.05,0.07 0.11,0.15 0.21,0.15 0.11,-0 0.18,-0.11 0.22,-0.19 0.04,-0.1 0.08,-0.2 0.09,-0.3 0.02,-0.08 0.01,-0.17 -0.05,-0.23 -0.05,-0.05 -0.12,-0.1 -0.19,-0.09 -0.05,0.01 -0.06,0.07 -0.08,0.11 -0,-0.01 -0,-0.03 -0.01,-0.04l-0.01 0c-0.01,-0.02 -0.01,-0.04 -0.02,-0.05 -0.1,-0.05 -0.21,0.03 -0.26,0.11zm-0.4 -0.01l0 0c0.02,0.1 0.08,0.2 0.17,0.26 -0.03,-0.09 -0.04,-0.2 -0.02,-0.29 -0.05,0.02 -0.1,0.02 -0.15,0.04zm1.24 -0.03l0 0c0.01,0.1 0.01,0.2 -0.02,0.29 0.09,-0.05 0.14,-0.16 0.18,-0.25 -0.05,-0.01 -0.1,-0.02 -0.16,-0.04zm0.26 1.04c0.02,0.02 0.03,0.05 0.05,0.07 0.1,-0.11 0.13,-0.18 0.19,-0.32 -0.02,0.17 -0.03,0.22 -0.12,0.37 0.24,0.13 0.24,0.03 0.27,-0.21 0.03,-0.28 -0.02,-0.53 -0.13,-0.79 0.01,0.32 -0.05,0.62 -0.25,0.88zm-1.88 -0.83l0 0c-0.14,0.34 -0.15,0.66 -0.05,1.01 0.08,0.01 0.13,-0.01 0.2,-0.05 -0.07,-0.13 -0.09,-0.2 -0.12,-0.35 0.01,0 0.01,0 0.02,0 0.03,0.11 0.1,0.2 0.16,0.29 0.02,-0.02 0.04,-0.05 0.06,-0.07 -0.09,-0.1 -0.15,-0.22 -0.18,-0.35 -0.05,-0.19 -0.07,-0.32 -0.07,-0.52 -0.01,0.01 -0.02,0.02 -0.02,0.04zm0.52 0.62l0 0c0.04,0.09 0.02,0.19 -0.03,0.27 0.03,-0.01 0.07,-0.02 0.09,-0.05 0.08,-0.04 0.11,-0.13 0.13,-0.21 -0.01,-0.01 -0.03,-0.02 -0.04,-0.03l0 -0.01c-0.05,-0.03 -0.11,-0.02 -0.15,0.02zm0.95 -0.02l0 0 0.01 0.01 -0.01 -0.01c-0.04,0.03 -0.03,0.08 -0.01,0.12 0.02,0.04 0.04,0.08 0.08,0.1 0.03,0.03 0.07,0.06 0.12,0.07 -0.06,-0.08 -0.07,-0.18 -0.04,-0.27 -0.04,-0.04 -0.1,-0.05 -0.15,-0.02zm-0.61 0.04l0 0c-0.04,0.02 -0.07,0.04 -0.1,0.07 0.01,0.09 0,0.18 -0.01,0.28 -0.03,0.15 -0.06,0.25 -0.15,0.38 0.24,-0.1 0.38,-0.34 0.42,-0.59 0,-0.03 0.01,-0.07 -0.02,-0.08 -0.01,0.07 -0.01,0.15 -0.05,0.21 0,-0.05 0.01,-0.1 0.01,-0.14 -0,-0.04 -0.01,-0.08 -0.02,-0.12 -0.03,-0 -0.05,-0 -0.08,0zm0.36 -0.01l0 0 0 0.01 -0.01 0.01c-0.02,0.08 -0.01,0.16 -0.01,0.25 -0.04,-0.07 -0.04,-0.14 -0.04,-0.22 -0.03,0.03 -0.02,0.08 -0.02,0.12 0.03,0.21 0.15,0.41 0.33,0.52 0.15,0.09 0.06,0.05 -0.01,-0.14 -0.06,-0.16 -0.08,-0.3 -0.07,-0.47 -0.04,-0.05 -0.1,-0.09 -0.17,-0.08zm0.43 1.08c-0.19,-0.02 -0.16,-0 -0.33,-0.08 -0.4,-0.17 -0.42,0.06 -0.8,0.09 0.12,0.14 0.51,0.19 0.7,0.16 0.16,-0.02 0.28,-0.08 0.42,-0.16 0,-0 0.01,-0.01 0.01,-0.01z"/>
     <path class="fil2" d="M1.65 0.77c0.1,-0.04 0.21,-0.05 0.31,0 0.08,-0.06 0.19,-0.04 0.28,-0.01 0.08,0.03 0.16,0.09 0.21,0.16 -0.01,-0.01 -0.02,-0.01 -0.04,-0.02 -0.11,-0.07 -0.24,-0.11 -0.36,-0.08 -0.04,0.01 -0.07,0.04 -0.1,0.07 -0.02,-0.03 -0.05,-0.06 -0.09,-0.07 -0.13,-0.04 -0.27,0.01 -0.39,0.09 -0,0 -0.01,0.01 -0.01,0.01l-0 -0.02c0.02,-0.01 0.03,-0.02 0.05,-0.04 0.04,-0.04 0.09,-0.07 0.14,-0.09z"/>
     <path class="fil3" d="M2.7 5.77c-0.01,0 -0.01,0 0,0z"/>
     <path class="fil4" d="M1.42 3.19c0,-0.04 0.01,-0.08 0.04,-0.11 0.03,0.04 0.01,0.11 -0.04,0.11z"/>
     <path class="fil4" d="M1.25 3.34c0,-0.04 0.01,-0.08 0.04,-0.11 0.04,-0 0.03,0.04 0.01,0.06 -0.01,0.02 -0.03,0.03 -0.05,0.05z"/>
     <path class="fil4" d="M2.79 3.49c-0.05,0.01 -0.09,-0.09 -0.04,-0.1 0.03,0.03 0.04,0.06 0.04,0.1z"/>
     <path class="fil5" d="M2.89 0.65c0.01,-0.02 -0.03,-0.01 -0.07,-0.04 -0.17,-0.13 -0.3,-0.18 -0.49,-0.27 -0.04,-0.02 0.08,-0 -0.03,-0.02 -0.26,-0.04 0.13,-0.08 0.19,-0.07 0.12,0.01 0.37,0.08 0.46,0.16 0.13,0.11 0.16,0.09 0.05,0.24 -0.06,0.09 -0.05,0.06 -0.11,0.02l-0.01 -0.01 0 -0.01z"/>
     <path class="fil6" d="M1.02 0.65l0 0c-0.03,0.03 -0.06,0.05 -0.09,0.07 -0.05,-0.07 -0.09,-0.13 -0.12,-0.2 0.17,-0.17 0.34,-0.26 0.58,-0.27 0.11,-0 0.2,0.01 0.31,0.04 -0.04,0.03 -0.14,0.05 -0.19,0.07 -0.2,0.08 -0.31,0.16 -0.49,0.28z"/>
     <path class="fil7" d="M1.4 0.55c0.12,-0.05 0.24,-0.07 0.37,-0.06 0.07,0.01 0.13,0.05 0.18,0.1 0.03,-0.03 0.07,-0.07 0.11,-0.08 0.26,-0.07 0.43,0.07 0.51,0.06 0.01,-0 0.06,-0.01 0.05,0.02 0.05,0.01 0.05,0.03 0.08,0.04 0.03,0.01 0.16,0.12 0.18,0.14 -0.05,0.01 -0.1,-0 -0.15,-0.02 0.01,0.01 0.02,0.02 0.03,0.03 0.02,0.01 0.04,0.01 0.06,0.02 -0.06,0.02 -0.12,0.06 -0.17,0.1 -0.01,0.05 -0.06,0.08 -0.06,0.13 0.05,-0.05 0.1,-0.09 0.17,-0.11l0 -0c0.04,-0.01 0.09,-0.02 0.13,-0.01 0.09,0.02 0.15,0.1 0.18,0.19 0.04,0.08 0.04,0.14 0.04,0.23 0,0.05 -0,0.11 -0.01,0.16 0,0 0,0.01 0,0.01 0.03,-0.05 0.03,-0.11 0.06,-0.16 0.04,0.07 0.05,0.07 -0.01,0.05 0.05,0.12 0.12,0.24 0.15,0.37 0.01,0.02 0.09,0.33 0.08,0.33 -0,-0 -0.08,-0.15 -0.1,-0.17 -0.02,-0.03 -0.04,-0.06 -0.06,-0.08 0.03,0.08 0.07,0.15 0.07,0.24 -0,0.06 -0.02,0.12 -0.04,0.17 -0.01,-0.03 -0.01,-0.05 -0.02,-0.07 -0,0.01 -0,0.02 -0,0.03 -0.06,0.04 -0.13,0.1 -0.21,0.08 -0.1,-0.03 -0.17,-0.12 -0.21,-0.22 -0.05,-0.11 -0.07,-0.24 -0.03,-0.36 0.02,-0.06 0.06,-0.11 0.09,-0.17 -0.04,0.02 -0.08,0.03 -0.13,0.04 0.07,-0.06 0.16,-0.08 0.24,-0.11 -0.03,-0 -0.06,-0 -0.09,-0 0.05,-0.06 0.11,-0.12 0.11,-0.21 0,-0.04 -0.02,-0.07 -0.03,-0.11 -0.01,-0.02 -0.03,-0.03 -0.04,-0.05 0.03,-0.01 0.06,-0.03 0.09,-0.01 0,-0.01 0,-0.02 0,-0.02 -0,-0 -0,-0.01 -0.01,-0.02 -0.02,-0.01 -0.05,-0.02 -0.07,-0.03 -0.09,-0.01 -0.19,0.02 -0.25,0.09 -0.09,0.11 -0.11,0.26 -0.2,0.38 -0.02,0.03 -0.05,0.04 -0.08,0.06 -0.01,0 -0.02,0.01 -0.03,0.01 -0.01,-0 -0.03,-0 -0.03,-0 0.05,0.05 0.12,0.06 0.19,0.06 -0.02,0.01 -0.03,0.03 -0.05,0.04 -0.1,0.06 -0.18,0.16 -0.21,0.27 -0.01,-0.03 -0.02,-0.06 -0.03,-0.09 -0.02,0.04 -0.02,0.09 -0.01,0.14 -0.01,-0.02 -0.01,-0.04 -0.02,-0.05 -0.03,0.05 -0.06,0.09 -0.1,0.12 0,-0.02 0,-0.05 0,-0.07 -0.06,0.06 -0.13,0.12 -0.21,0.1 -0.06,-0.01 -0.11,-0.06 -0.15,-0.1 0.01,0.02 0.01,0.05 0.02,0.07 -0.02,-0.01 -0.04,-0.01 -0.06,-0.01 0.01,0.02 0.03,0.04 0.04,0.06 -0.04,-0.02 -0.09,-0.04 -0.13,-0.06 0,-0.01 0,-0.03 0,-0.04 0.02,0.03 0.06,0.05 0.09,0.02 -0.02,-0.03 -0.03,-0.06 -0.05,-0.08 -0.01,0.01 -0.02,0.02 -0.02,0.03 0,-0.04 0,-0.08 -0,-0.13 -0.02,0.02 -0.02,0.06 -0.04,0.09 -0.02,-0.12 -0.11,-0.22 -0.21,-0.28 -0.02,-0.01 -0.03,-0.03 -0.04,-0.04 0.06,0.01 0.12,-0.01 0.18,-0.04 -0,-0 -0.01,-0.01 -0.01,-0.01 -0.04,-0.03 -0.1,-0.04 -0.13,-0.08 -0.09,-0.11 -0.11,-0.26 -0.19,-0.37 -0.06,-0.08 -0.18,-0.11 -0.27,-0.07 -0.02,0.01 -0.05,0.03 -0.07,0.04 0.03,0 0.07,0 0.1,0.02 -0.04,0.04 -0.08,0.09 -0.07,0.15 -0,0.08 0.06,0.15 0.11,0.2 -0.03,-0 -0.07,-0 -0.1,0 0.1,0.03 0.21,0.06 0.28,0.14 -0.05,-0.02 -0.1,-0.05 -0.16,-0.07 0.06,0.1 0.11,0.2 0.1,0.32 -0.01,0.15 -0.07,0.32 -0.2,0.41 -0.07,0.04 -0.15,0.03 -0.21,-0.01 -0.02,-0.02 -0.04,-0.04 -0.06,-0.05 -0,-0 -0.01,-0.01 -0.01,-0.01 -0.01,0.02 -0.01,0.05 -0.02,0.07 -0.02,-0.06 -0.03,-0.12 -0.04,-0.18 0,-0.01 0,-0.03 0,-0.04 0.01,-0.06 0.03,-0.13 0.06,-0.19 -0,-0 -0,-0.01 -0.01,-0.01 -0.04,0.05 -0.07,0.11 -0.11,0.16 -0.01,-0.05 -0,-0.09 0.01,-0.14 0.04,-0.17 0.11,-0.33 0.19,-0.47 0.01,0.03 0.02,0.07 0.04,0.1 0,-0 0,-0.01 0,-0.01 -0.02,-0.2 -0.02,-0.5 0.22,-0.57 0.09,-0.02 0.17,0.03 0.24,0.08l0.01 0c0.01,0.02 0.03,0.03 0.05,0.05 0,-0.01 -0,-0.02 -0,-0.03 -0.02,-0.03 -0.04,-0.06 -0.05,-0.09 -0.05,-0.04 -0.11,-0.09 -0.18,-0.11 0.04,-0.01 0.07,-0.03 0.1,-0.05 -0.05,0.01 -0.11,0.02 -0.16,0.02 0.06,-0.05 0.13,-0.1 0.2,-0.15 0,0 0.01,0 0.01,0l0.01 -0.01c0.01,-0 0.02,-0 0.02,-0 0.06,-0 0.1,-0.04 0.16,-0.05zm0.11 0.31c-0.02,0.01 -0.03,0.03 -0.05,0.04l0 0.02c0,-0 0.01,-0.01 0.01,-0.01 0.02,0.01 0.04,-0.01 0.07,-0.01 0.06,-0.03 0.13,-0.03 0.19,-0.04 0.09,-0 0.17,0.04 0.22,0.11 0.06,-0.12 0.21,-0.13 0.33,-0.1 0.04,0.01 0.08,0.04 0.12,0.03 0.01,0.01 0.02,0.01 0.04,0.02 -0.05,-0.07 -0.13,-0.13 -0.21,-0.16l0.02 -0c-0.06,-0.05 -0.13,-0.07 -0.21,-0.08 -0.09,-0.02 -0.18,-0 -0.26,0.02l0 0c-0.05,0.01 -0.11,0.03 -0.14,0.07 -0.05,0.02 -0.1,0.05 -0.14,0.09zm0.24 0.33l0 0c-0.06,0.05 -0.1,0.13 -0.12,0.21 0,-0.01 0.01,-0.02 0.02,-0.02 0.04,-0.01 0.06,-0.04 0.09,-0.06 0.11,-0.07 0.25,-0.09 0.37,-0.03 0.06,0.02 0.1,0.08 0.15,0.12 0,-0.09 -0.06,-0.18 -0.13,-0.23 -0.11,-0.07 -0.27,-0.06 -0.38,0.02z"/>
     <path class="fil7" d="M2.14 2.26c0.01,-0.02 0.04,-0.04 0.06,-0.06 0.11,-0.04 0.22,-0.06 0.33,-0.03 0.1,0.02 0.2,0.07 0.23,0.17 0.02,0.06 -0.01,0.14 -0.07,0.17l-0 0c-0.03,0.01 -0.06,0.03 -0.09,0.05 0.1,0 0.21,-0.03 0.26,-0.12 0.08,0.06 0.15,0.14 0.21,0.23 0.01,0.1 0.03,0.21 -0.03,0.29 -0.06,0.1 -0.19,0.11 -0.3,0.12 0.01,0.02 0.01,0.04 0.02,0.05l-0.02 -0.01c-0,-0.01 -0.01,-0.02 -0.01,-0.03 -0,-0.01 -0.01,-0.02 -0.01,-0.03 -0.16,-0.03 -0.33,-0.08 -0.46,-0.19 0.05,0.01 0.11,0.02 0.16,0.02 -0.06,-0.04 -0.13,-0.05 -0.18,-0.1 -0.12,-0.09 -0.2,-0.24 -0.19,-0.39 0,-0.07 -0.06,-0.14 -0,-0.2 -0.01,0.04 -0.01,0.09 0.02,0.13 0.03,0.04 0.08,0.07 0.13,0.09 -0.01,-0.02 -0.04,-0.04 -0.04,-0.06 0.01,-0.02 -0,-0.04 -0.02,-0.05 -0.03,-0.01 -0,-0.04 0.01,-0.06zm0.43 0.19c0.02,-0.01 0.03,-0.02 0.05,-0.02 0,-0.01 0.01,-0.02 0.02,-0.03 0,-0.01 0,-0.02 0,-0.03 -0.01,-0.02 -0.02,-0.04 -0.03,-0.05 -0.07,-0.05 -0.15,-0.05 -0.23,-0.06 -0.03,0 -0.06,0.01 -0.1,0.02 0,0.04 0.05,0.07 0.08,0.08 0.04,0.02 0.08,0.04 0.12,0.04l-0.01 0.02c-0.03,0 -0.07,-0 -0.1,-0.01 0.01,0.01 0.02,0.01 0.02,0.02 0.06,0.02 0.12,0.02 0.18,0.01z"/>
     <path class="fil7" d="M1.75 4.27c-0.09,-0.16 -0.15,-0.34 -0.1,-0.52 -0,0.05 -0,0.1 -0,0.15 0.08,-0.05 0.16,-0.09 0.25,-0.11 0.07,-0 0.14,0.01 0.21,0.03 0.06,0.02 0.11,0.05 0.17,0.08 0,0.01 0,0.03 0.01,0.03 -0.01,0.11 -0.05,0.21 -0.09,0.3 -0.05,0.09 -0.11,0.19 -0.22,0.19 -0.09,0 -0.16,-0.08 -0.21,-0.15z"/>
     <path class="fil8" d="M1.21 0.62l0.01 0c-0,-0 -0.01,-0 -0.01,-0z"/>
     <path class="fil9" d="M0.78 0.87c-0.01,0.05 -0.02,0.05 -0.08,0.08 -0.03,0.02 -0.14,-0.07 -0.15,-0.13 -0.03,-0.15 0.09,-0.24 0.19,-0.13 0.06,0.07 0.02,0.09 0.04,0.16l0 0.02z"/>
     <path class="fil10" d="M2.89 0.65c-0.02,0.02 -0.02,-0.04 0,-0.01 0,0 0,0.01 -0,0.01z"/>
     <path class="fil11" d="M3.19 1.22c-0.04,-0.15 -0.01,-0.29 -0.19,-0.39 -0.05,-0.03 -0.04,-0 0.04,-0.05 0.04,-0.03 0.02,0.01 0.05,0.07 0.01,0.03 0.02,0.04 0.04,0.06 -0.05,-0.37 0.3,-0.36 0.21,-0.04 0.05,0.02 -0.1,0.08 -0.12,0.08 -0.02,0 0.01,0.01 0.04,0.03 -0.03,0.1 -0.07,0.1 -0.02,0.22 0.01,0.02 0.03,0.07 0,0.09 -0.02,-0.01 -0.04,-0.06 -0.04,-0.07z"/>
     <path class="fil12" d="M1.78 0.7c0.09,-0.02 0.18,-0.03 0.26,-0.02 0.07,0.01 0.15,0.03 0.21,0.08l-0.02 0c-0.09,-0.03 -0.19,-0.04 -0.28,0.01 -0.09,-0.06 -0.21,-0.04 -0.31,-0 0.03,-0.05 0.09,-0.06 0.14,-0.07z"/>
     <path class="fil13" d="M0.9 0.84c-0.24,0.16 -0.14,0.33 -0.2,0.41 -0.2,0.28 -0.39,0.69 -0.47,1.02 -0.02,0.07 -0.01,0.01 -0.02,-0.03 -0.03,-0.27 0.02,-0.63 0.1,-0.89 0.12,0.14 0.27,-0.07 0.29,-0.2 0.01,-0.03 0,-0.09 0.02,-0.02 0.02,0.09 -0.07,0.23 0.03,0.08 0.07,-0.1 0.03,-0.15 -0.02,-0.25 0.11,-0.06 0.16,-0.05 0.2,-0.18 0.01,-0.04 0.01,-0.03 0.06,0 0.03,0.02 0.05,0.01 0,0.04z"/>
     <path class="fil14" d="M0.87 3.89c0.01,0.02 0.02,0.04 0.02,0.06 -0,0.35 -0.03,0.57 0.14,0.9 -0.07,0.03 -0.12,0.06 -0.2,0.05 -0.1,-0.35 -0.09,-0.67 0.05,-1.01z"/>
     <path class="fil14" d="M2.1 4.51c0.07,-0.01 0.12,0.03 0.17,0.08 -0.02,0.24 0.03,0.45 0.16,0.65 -0.03,-0.01 -0.06,-0.03 -0.08,-0.05 0,-0.01 0.01,-0.02 0.01,-0.03 -0.11,-0.1 -0.18,-0.25 -0.22,-0.39 -0.03,-0.08 -0.01,-0.17 -0.04,-0.26l-0 -0.01z"/>
     <path class="fil15" d="M1.47 0.91c0.11,-0.07 0.25,-0.13 0.39,-0.09 0.04,0.01 0.06,0.04 0.09,0.07 0.03,-0.03 0.05,-0.06 0.1,-0.07 0.12,-0.03 0.25,0.01 0.36,0.08 -0.04,0.01 -0.08,-0.02 -0.12,-0.03 -0.12,-0.03 -0.27,-0.02 -0.33,0.1 -0.05,-0.07 -0.13,-0.11 -0.22,-0.11 -0.07,0 -0.13,0.01 -0.19,0.04 -0.02,0.01 -0.04,0.03 -0.07,0.01z"/>
     <path class="fil16" d="M0.68 0.96c-0.1,0.05 -0.03,0.01 -0,0.13 0.02,0.08 -0.03,0.14 -0.08,0.2 0.06,-0.16 0.01,-0.18 -0.08,-0.28 0.02,-0.02 0.03,-0.02 0.06,-0.02 -0.02,-0.03 -0.02,-0.05 -0,-0.08 0.06,0.04 0.09,0.03 0.11,0.04l-0 0z"/>
     <path class="fil17" d="M3.58 0.96c-0,-0.01 -0,-0.01 0,0z"/>
     <path class="fil18" d="M2.7 1.12c0.06,-0.08 0.16,-0.1 0.25,-0.09 0.02,0.01 0.05,0.02 0.07,0.03 0,0 0,0.01 0.01,0.02 -0.06,-0.03 -0.13,-0.05 -0.19,-0.01 -0.09,0.06 -0.13,0.17 -0.17,0.27 -0.03,0.1 -0.09,0.19 -0.19,0.23l-0.01 -0.01c-0.02,0.02 -0.05,0.02 -0.07,0 0.01,-0 0.02,-0.01 0.03,-0.01 0.03,-0.02 0.06,-0.03 0.08,-0.06 0.09,-0.11 0.11,-0.26 0.2,-0.38z"/>
     <path class="fil19" d="M0.94 1.05c0.09,-0.04 0.21,-0.01 0.27,0.07 0.09,0.11 0.11,0.26 0.19,0.37 0.03,0.04 0.08,0.05 0.13,0.08 -0.06,0.01 -0.12,0 -0.17,-0.04 -0.14,-0.11 -0.12,-0.33 -0.26,-0.44 -0.04,-0.04 -0.1,-0.05 -0.16,-0.04z"/>
     <path class="fil20" d="M0.27 1.05c-0,0 -0,0 0,0z"/>
     <path class="fil21" d="M1.75 1.2c0.11,-0.08 0.26,-0.09 0.38,-0.02 0.08,0.05 0.14,0.14 0.13,0.23 -0.04,-0.08 -0.12,-0.16 -0.21,-0.18 -0.15,-0.05 -0.32,0.02 -0.4,0.15 -0,0.01 -0.01,0.02 -0.02,0.02 0.02,-0.08 0.05,-0.16 0.12,-0.21z"/>
     <path class="fil22" d="M3.52 1.83c-0.08,-0.17 -0.16,-0.34 -0.26,-0.49 -0.03,-0.04 -0.01,-0.1 0.01,-0.08 0.06,0.04 -0.02,-0 0.02,-0.13 0.03,0.12 0.09,0.3 0.25,0.28 0.07,-0.01 0.02,-0.16 0.1,0.12 0.07,0.27 0.08,0.51 0.06,0.78 -0.06,-0.17 -0.09,-0.31 -0.17,-0.47z"/>
     <path class="fil22" d="M2.12 2.05c0.04,-0.03 0.07,-0.07 0.1,-0.12 0.01,0.02 0.01,0.03 0.02,0.05 0.01,0.02 0.01,0.04 0.02,0.06 -0.05,0.02 -0.11,0.04 -0.15,0.08 -0.02,0.03 -0.04,0.06 -0.07,0.09 -0.06,0.06 0.01,0.13 0,0.2 -0,0.15 0.07,0.3 0.19,0.39 0.05,0.04 0.12,0.06 0.18,0.1 -0.05,-0 -0.11,-0.01 -0.16,-0.02 0.13,0.11 0.3,0.16 0.46,0.19 0,0.01 0.01,0.02 0.01,0.03 -0.06,0.04 -0,0.12 0.05,0.13 -0.01,-0.03 -0.02,-0.07 -0.03,-0.1l0.02 0.01c-0.01,-0.02 -0.01,-0.04 -0.02,-0.05 0.11,-0.01 0.24,-0.02 0.3,-0.12 0.06,-0.09 0.04,-0.2 0.03,-0.29 0.03,0.04 0.05,0.09 0.07,0.13 0.03,0.06 0.04,0.11 0.05,0.18 0.02,-0.06 0.01,-0.14 -0,-0.2 -0,-0.01 -0,-0.02 -0,-0.02 0.18,0.3 0.2,0.65 -0.18,0.79 -0.13,0.04 -0.25,0.03 -0.38,-0 -0.13,-0.03 -0.27,-0.08 -0.38,-0.16 -0.14,-0.1 -0.23,-0.26 -0.27,-0.43 -0.01,-0.06 -0.02,-0.13 -0.04,-0.2l-0 0.01c0,0.09 -0.02,0.18 -0.04,0.27 -0.04,0.1 -0.09,0.19 -0.16,0.26 -0.05,0.06 -0.12,0.11 -0.19,0.14 -0.15,0.08 -0.31,0.12 -0.47,0.13 -0.09,-0 -0.19,-0.02 -0.27,-0.07 -0.2,-0.07 -0.24,-0.34 -0.19,-0.52 0.02,-0.09 0.05,-0.15 0.1,-0.22 -0,0.08 -0.01,0.14 -0.01,0.22 0.03,-0.11 0.04,-0.18 0.1,-0.27 0.04,-0.1 0.12,-0.18 0.2,-0.25 0.01,-0.01 0.02,-0.01 0.03,-0.02 0.06,0.09 0.16,0.12 0.26,0.12 -0.02,-0.01 -0.03,-0.02 -0.05,-0.03 -0.06,-0.01 -0.11,-0.06 -0.12,-0.12 -0.01,-0.07 0.04,-0.14 0.1,-0.18 0.14,-0.09 0.32,-0.09 0.46,-0.03 0.05,0.03 0.09,0.09 0.08,0.15 -0.02,0.03 -0.04,0.06 -0.06,0.09 0.06,-0.02 0.11,-0.05 0.14,-0.1 -0,-0.03 0.01,-0.07 0,-0.1 -0.01,-0.05 -0.05,-0.08 -0.08,-0.12 -0.01,-0.02 -0.03,-0.04 -0.04,-0.06 0.02,-0.01 0.04,0 0.06,0.01 -0.01,-0.02 -0.01,-0.05 -0.02,-0.07 0.04,0.04 0.08,0.09 0.15,0.1 0.08,0.02 0.16,-0.04 0.21,-0.1 -0,0.02 -0,0.05 -0,0.07zm0.46 1.23c0.01,0.01 0.03,0.03 0.04,0.05 0.01,0 0.02,0 0.03,0 -0.01,-0.03 -0.01,-0.07 -0.04,-0.09 -0.03,-0.03 -0.03,0.03 -0.03,0.04zm-0.12 -0.09c-0,-0.03 -0.01,-0.07 -0.02,-0.1 -0.01,-0 -0.02,-0.01 -0.03,-0.02l0 0c-0.03,0.04 0,0.1 0.05,0.12zm-0.07 0.1c0.01,0.01 0.02,0.03 0.03,0.04 0.02,0.02 0.04,0.03 0.06,0.04 0,-0.06 -0.04,-0.13 -0.1,-0.14l0 0c0,0.01 0.01,0.04 0.01,0.05zm-1.29 -0.09c0.05,0.04 0.07,-0.03 0.09,-0.07 -0,-0.01 -0.01,-0.03 -0.02,-0.04 -0.03,0.03 -0.05,0.07 -0.07,0.11zm0.21 -0.92c-0.02,0.02 -0.06,0.05 -0.06,0.09 0,0.04 0.04,0.06 0.07,0.06 0.07,0.02 0.14,0.01 0.21,-0.03 -0.04,0 -0.09,0.02 -0.13,-0.01 0.07,-0.03 0.17,-0.04 0.21,-0.12 -0.01,-0.01 -0.02,-0.02 -0.04,-0.03 -0.09,-0 -0.18,-0 -0.26,0.04zm0.1 1.09c0.02,-0.02 0.04,-0.04 0.06,-0.06 0.01,-0.02 0.02,-0.05 0.02,-0.08 -0.06,0.01 -0.09,0.08 -0.1,0.13l0 0 0.02 0zm0 -0.19l0 0c0.05,-0 0.08,-0.07 0.04,-0.11 -0.03,0.03 -0.04,0.07 -0.04,0.11zm-0.18 0.15l0 0c0.02,-0.01 0.04,-0.03 0.05,-0.05 0.02,-0.02 0.03,-0.07 -0.01,-0.06 -0.03,0.03 -0.04,0.07 -0.04,0.11zm-0.44 0.02l0 0c0.04,-0.01 0.08,-0.06 0.03,-0.09 -0.03,0.02 -0.04,0.06 -0.03,0.09zm2.24 -0.07c0,0.1 0.11,0.07 0.04,-0 -0.01,-0.01 -0.03,-0.02 -0.04,0zm-2.06 0.01l0 0c-0.02,0.02 -0.03,0.05 -0.03,0.09 0.02,0.04 0.06,-0.02 0.06,-0.04 0.02,-0.02 0,-0.07 -0.03,-0.04zm1.9 -0l0 0c-0.02,0.03 0,0.06 0.02,0.09 0.01,0.01 0.04,0.03 0.04,0.01 0,-0.03 -0.01,-0.11 -0.06,-0.09zm-1.75 0.1l0 0c-0.02,0.02 -0.03,0.05 -0.03,0.08 0.05,0.04 0.1,-0.11 0.03,-0.08zm1.66 0.09l0 0c-0,-0.04 -0.01,-0.07 -0.04,-0.1 -0.05,0.01 -0.01,0.11 0.04,0.1z"/>
     <path class="fil23" d="M0.22 1.17c-0,0.01 -0,0.01 0,0z"/>
     <path class="fil24" d="M1.04 1.18c0.07,0.09 0.08,0.22 0.14,0.31 -0.07,-0.04 -0.15,-0.1 -0.17,-0.18 -0.01,-0.04 0,-0.09 0.03,-0.13z"/>
     <path class="fil25" d="M2.85 1.18c0.03,0.03 0.04,0.08 0.03,0.13 -0.03,0.08 -0.09,0.14 -0.16,0.18 0.05,-0.1 0.08,-0.21 0.13,-0.31z"/>
     <path class="fil26" d="M0.2 1.2c-0,0 -0,0.01 0,0z"/>
     <path class="fil27" d="M2.08 4.53l0.01 -0.01c0.03,0.08 0.01,0.17 0.04,0.26 0.04,0.14 0.11,0.29 0.22,0.39 -0,0.01 -0.01,0.02 -0.01,0.03 -0.18,-0.11 -0.3,-0.31 -0.33,-0.52 -0,-0.04 -0.02,-0.09 0.02,-0.12 0.01,0.07 0.01,0.15 0.04,0.22 -0,-0.08 -0.01,-0.17 0.01,-0.25z"/>
     <path class="fil28" d="M1.65 1.38c0.08,-0.13 0.25,-0.2 0.4,-0.15 0.09,0.02 0.17,0.09 0.21,0.18 -0.05,-0.04 -0.09,-0.1 -0.15,-0.12 -0.12,-0.06 -0.26,-0.04 -0.37,0.03 -0.03,0.02 -0.05,0.05 -0.09,0.06z"/>
     <path class="fil29" d="M2.78 3.23c-0.05,-0.01 -0.11,-0.09 -0.05,-0.13 0,0.01 0.01,0.02 0.01,0.03 0.02,0.03 0.03,0.07 0.03,0.1z"/>
     <path class="fil30" d="M0.19 1.25c-0,0.01 -0,0.01 0,0z"/>
     <path class="fil31" d="M0.74 1.33c0,0.02 0,0.04 0.01,0.06 -0.08,0.15 -0.15,0.31 -0.19,0.47 -0.01,0.04 -0.02,0.09 -0.01,0.14 -0.09,0.2 -0.16,0.42 0.07,0.56 -0.27,-0.06 -0.27,-0.26 -0.21,-0.49 0.05,-0.22 0.19,-0.51 0.3,-0.7 0.01,-0.02 0.02,-0.02 0.03,-0.04z"/>
     <path class="fil32" d="M1.2 5.78c-0.01,-0 -0.01,-0 0,0z"/>
     <path class="fil33" d="M3.16 1.39c0.07,0.02 0.04,0.01 0.09,0.1 0.04,0.07 0.05,0.08 0.06,0.13 0,0.01 0.01,0.02 0.01,0.02 0.09,0.15 0.16,0.33 0.19,0.51 0.02,0.09 0.01,0.19 -0.02,0.29 -0.03,0.07 -0,0 -0.04,0.05 -0.04,0.05 -0.09,0.07 -0.15,0.08 0.01,-0.01 0.02,-0.01 0.03,-0.02 0.18,-0.15 0.11,-0.31 0.06,-0.51 -0.02,-0.07 -0.03,-0.13 -0.05,-0.2 -0.01,-0.03 -0.01,-0.05 -0.02,-0.07 -0.03,-0.13 -0.1,-0.25 -0.15,-0.37z"/>
     <path class="fil34" d="M1.03 1.53c0.05,0.03 0.1,0.05 0.16,0.07 0.03,0.01 0.05,0.04 0.07,0.06 0.04,0.05 0.08,0.1 0.1,0.16 -0.06,-0.04 -0.11,-0.1 -0.18,-0.11 0.1,0.08 0.19,0.2 0.18,0.33 -0.09,0.02 -0.19,0.04 -0.26,0.11 -0.05,0.04 -0.08,0.1 -0.1,0.16 -0.04,0.03 -0.09,0.06 -0.14,0.1 -0.02,0.01 -0.03,0.02 -0.05,0.03 -0.1,-0.05 -0.16,-0.15 -0.16,-0.25 0.02,0.02 0.04,0.04 0.06,0.05 0.06,0.05 0.15,0.06 0.21,0.01 0.13,-0.09 0.19,-0.25 0.2,-0.41 0.01,-0.12 -0.04,-0.22 -0.1,-0.32zm-0.44 0.79c-0.03,-0.09 -0.02,-0.19 0.01,-0.28 -0,0.01 -0,0.03 -0,0.04 0,0.06 0.01,0.12 0.04,0.18 0.01,0.07 0.02,0.14 0.05,0.2 -0.05,-0.03 -0.08,-0.08 -0.09,-0.13z"/>
     <path class="fil35" d="M2.74 1.58c0.04,-0.01 0.09,-0.02 0.13,-0.04 -0.03,0.05 -0.07,0.1 -0.09,0.17 -0.04,0.12 -0.02,0.25 0.03,0.36 0.04,0.1 0.11,0.19 0.21,0.22 0.08,0.02 0.15,-0.03 0.21,-0.08 -0,0.07 -0.03,0.14 -0.08,0.18 -0.01,0 -0.02,0.01 -0.02,0.02 -0.02,0.01 -0.04,0.03 -0.06,0.03 -0.04,-0.03 -0.08,-0.07 -0.13,-0.09 -0.02,-0.01 -0.04,-0.02 -0.05,-0.04 -0.02,-0.12 -0.12,-0.19 -0.22,-0.24 -0.04,-0.01 -0.09,-0.02 -0.13,-0.04 0.01,-0.12 0.07,-0.23 0.16,-0.3l0.01 -0.02c-0.01,0 -0.03,0.01 -0.04,0.01 -0.04,0.03 -0.09,0.06 -0.12,0.1 0.01,-0.06 0.05,-0.11 0.08,-0.15 0.03,-0.04 0.07,-0.08 0.11,-0.1z"/>
     <path class="fil36" d="M1.4 1.66c0.1,0.06 0.19,0.16 0.21,0.28 -0.02,0.03 -0.04,0.05 -0.06,0.06 -0,-0.03 -0.01,-0.06 -0.01,-0.09 -0.02,-0.03 -0.03,-0.07 -0.04,-0.11l-0 -0c-0.03,-0.05 -0.06,-0.1 -0.09,-0.15z"/>
     <path class="fil37" d="M2.28 1.94c0.04,-0.11 0.11,-0.21 0.21,-0.27 -0.03,0.05 -0.07,0.1 -0.09,0.16 -0.03,0.06 -0.04,0.13 -0.05,0.19 -0.03,-0.02 -0.05,-0.04 -0.07,-0.07z"/>
     <path class="fil38" d="M3.23 1.84c0.02,0.02 0.22,0.26 0.1,0.21 -0.01,-0 -0.02,0.02 -0.02,0.02l-0 0c-0.01,-0.08 -0.04,-0.16 -0.07,-0.24z"/>
     <path class="fil39" d="M2.28 2.28c0.03,-0.01 0.06,-0.02 0.1,-0.02 0.08,0 0.16,0.01 0.23,0.06 0.01,0.02 0.02,0.03 0.03,0.05 0,0.01 0,0.02 -0,0.03 -0,0.01 -0.01,0.02 -0.02,0.03 -0.02,0.01 -0.03,0.02 -0.05,0.02 -0.06,0.01 -0.12,0.01 -0.18,-0.01 -0.01,-0 -0.02,-0.01 -0.02,-0.02 0.03,0 0.07,0.01 0.1,0.01l0.01 -0.02c-0.04,-0 -0.08,-0.02 -0.12,-0.04 -0.03,-0.02 -0.08,-0.04 -0.08,-0.08z"/>
     <path class="fil38" d="M0.8 3.36c-0.01,-0.04 0,-0.07 0.03,-0.09 0.04,0.03 0,0.08 -0.03,0.09z"/>
     <path class="fil38" d="M0.98 3.3c0.03,-0.03 0.05,0.02 0.03,0.04 -0.01,0.02 -0.04,0.08 -0.06,0.04 0,-0.03 0.01,-0.06 0.03,-0.09z"/>
     <path class="fil38" d="M1.13 3.4c0.06,-0.03 0.02,0.12 -0.03,0.08 -0,-0.03 0.01,-0.06 0.03,-0.08z"/>
     <path class="fil40" d="M1.68 1.94c0.02,0.03 0.04,0.05 0.05,0.08 -0.04,0.03 -0.07,0.01 -0.09,-0.02 0,-0.01 0.01,-0.02 0.01,-0.03 0.01,-0.01 0.02,-0.02 0.02,-0.03z"/>
     <path class="fil41" d="M3.31 2.07l0 -0c0.01,0.09 0.02,0.1 0.01,0.2 -0.01,0.07 -0.05,0.14 -0.11,0.18 0.02,-0.06 0.05,-0.13 0.05,-0.2l0 -0.01c0.02,-0.06 0.04,-0.11 0.04,-0.17z"/>
     <path class="fil42" d="M3.32 2.39c-0.02,0.03 -0.04,0.05 -0.06,0.08 -0.01,0 -0.02,0.01 -0.03,0.02 -0.03,-0.01 -0.04,-0.04 -0.06,-0.07 -0.01,-0 -0.03,-0.01 -0.04,-0.01 0.01,-0 0.02,-0.01 0.02,-0.02 0.05,-0.05 0.08,-0.12 0.08,-0.18 0,-0.01 0,-0.02 0,-0.03 0.01,0.02 0.02,0.05 0.02,0.07l-0 0.01c-0,0.07 -0.03,0.14 -0.05,0.2 0.06,-0.05 0.1,-0.11 0.11,-0.18 0,-0.04 0,-0.21 0.03,-0.05 0.01,0.06 -0,0.11 -0.03,0.17z"/>
     <path class="fil43" d="M3.01 4.02c-0.03,0.05 -0.01,0 -0.01,-0.09 -0,-0.12 0,-0.12 0.05,0 0.1,0.27 0.13,0.6 0.05,0.88 -0.04,0.14 -0.14,0.08 -0.23,0.02 0.14,-0.24 0.17,-0.55 0.15,-0.82l-0 -0z"/>
     <path class="fil44" d="M1.94 2.76l0 -0.01c0.01,0.07 0.02,0.13 0.04,0.2 -0.03,0.02 -0.04,0.07 -0.08,0.08 0.03,-0.09 0.04,-0.18 0.04,-0.27z"/>
     <path class="fil45" d="M3.14 2.79c0.01,-0 0.04,-0.01 0.05,-0.02 0.01,0.06 0.03,0.14 0,0.2 -0.01,-0.07 -0.02,-0.12 -0.05,-0.18z"/>
     <path class="fil46" d="M2.42 3.08c0.01,0 0.02,0.01 0.03,0.02 0.01,0.03 0.01,0.07 0.02,0.1 -0.04,-0.02 -0.07,-0.07 -0.05,-0.12z"/>
     <path class="fil47" d="M1.11 3.21c0.02,-0.04 0.04,-0.08 0.07,-0.11 0,0.01 0.01,0.03 0.02,0.04 -0.02,0.03 -0.04,0.1 -0.09,0.07z"/>
     <path class="fil48" d="M2.58 3.28c0,-0.02 0,-0.08 0.03,-0.04 0.02,0.03 0.03,0.06 0.04,0.09 -0.01,-0 -0.02,-0 -0.03,-0 -0.01,-0.02 -0.03,-0.03 -0.04,-0.05z"/>
     <path class="fil49" d="M1.41 3.38c0.01,-0.05 0.04,-0.12 0.1,-0.13 -0,0.03 -0.01,0.05 -0.02,0.08 -0.02,0.02 -0.04,0.04 -0.06,0.06l-0.02 -0z"/>
     <path class="fil50" d="M2.39 3.25c0.06,0.01 0.1,0.08 0.1,0.14 -0.02,-0.01 -0.05,-0.02 -0.06,-0.04 -0.01,-0.01 -0.02,-0.03 -0.03,-0.04 -0,-0.01 -0.01,-0.04 -0.01,-0.05z"/>
     <path class="fil51" d="M3.08 3.36c-0.07,-0 -0.05,-0.13 0,-0.06 0.01,0.02 0.02,0.05 -0,0.06z"/>
     <path class="fil52" d="M2.88 3.3c0.05,-0.02 0.06,0.06 0.06,0.09 0,0.03 -0.03,0 -0.04,-0.01 -0.02,-0.02 -0.04,-0.06 -0.02,-0.09z"/>
     <path class="fil53" d="M0.72 3.93c-0.01,0.01 0.01,-0.01 0,0z"/>
     <path class="fil54" d="M2.46 5.59c0.24,-0 -0.26,0.08 -0.27,0.08 -0.1,0.01 0.09,-0.05 -0.04,-0.03 -0.17,0.02 -0.28,0.02 -0.45,-0.01 0.07,0.05 0.08,0.05 -0.04,0.03 -0.07,-0.01 -0.11,-0.02 -0.17,-0.05 0.38,-0.14 0.4,-0.16 0.8,-0.05 0.05,0.02 0.11,0.02 0.16,0.02z"/>
     <path class="fil55" d="M1.94 3.7c0.02,-0.04 0.03,-0.1 0.08,-0.11 0.08,-0.01 0.14,0.04 0.19,0.09 0.06,0.06 0.06,0.15 0.05,0.23 -0,-0.01 -0,-0.03 -0.01,-0.03 -0.06,-0.02 -0.11,-0.06 -0.17,-0.08 -0.07,-0.02 -0.14,-0.03 -0.21,-0.03 -0.09,0.02 -0.18,0.07 -0.26,0.12 0,-0.05 0,-0.11 0.01,-0.15 0,-0.01 0,-0.01 0.01,-0.02 0.05,-0.08 0.16,-0.17 0.26,-0.11 0.01,0.02 0.01,0.04 0.02,0.05l0.01 -0c0,0.01 0,0.03 0.01,0.04z"/>
     <path class="fil56" d="M1.25 3.72c0.05,-0.01 0.1,-0.02 0.15,-0.04 -0.02,0.1 -0.01,0.2 0.02,0.29 -0.09,-0.06 -0.15,-0.16 -0.17,-0.26z"/>
     <path class="fil57" d="M2.49 3.68c0.05,0.01 0.1,0.02 0.16,0.04 -0.04,0.1 -0.08,0.2 -0.18,0.25 0.03,-0.09 0.03,-0.19 0.02,-0.29z"/>
     <path class="fil58" d="M0.69 3.99c-0,0.01 -0.01,0.01 0,0z"/>
     <path class="fil59" d="M0.7 3.95c-0,0.01 -0,0.01 0,0z"/>
     <path class="fil60" d="M2.77 5.75c-0,0 -0.01,0 0,0z"/>
     <path class="fil61" d="M1.39 4.5c0.04,-0.04 0.1,-0.05 0.15,-0.02l-0 0.01c-0.02,0.08 -0.05,0.17 -0.1,0.24 -0.02,0.03 -0.06,0.03 -0.09,0.05 0.05,-0.08 0.07,-0.18 0.03,-0.27z"/>
     <path class="fil62" d="M2.35 4.48c0.05,-0.03 0.11,-0.02 0.15,0.02 -0.03,0.09 -0.02,0.2 0.04,0.27 -0.05,-0.01 -0.09,-0.03 -0.12,-0.07 -0.02,-0.07 -0.04,-0.14 -0.06,-0.21l-0.01 -0.01z"/>
     <path class="fil63" d="M1.45 4.73c0.04,-0.08 0.07,-0.16 0.1,-0.24 0.01,0.01 0.03,0.02 0.04,0.03 -0.02,0.08 -0.05,0.17 -0.13,0.21z"/>
     <path class="fil64" d="M2.34 4.6c-0.02,-0.04 -0.04,-0.09 0.01,-0.12l0.01 0.01c0.02,0.07 0.05,0.14 0.06,0.21 -0.04,-0.02 -0.06,-0.07 -0.08,-0.1z"/>
     <path class="fil65" d="M1.63 4.59c0.03,-0.03 0.06,-0.05 0.1,-0.07 0.01,0 0.03,0 0.04,0 0,0.04 0,0.09 0,0.13 -0,0.12 -0.05,0.23 -0.1,0.34 -0.02,0.04 -0.15,0.23 -0.18,0.24 -0.07,0.03 -0.01,-0.01 0.04,-0.1 0.04,-0.08 0.06,-0.17 0.08,-0.26 0.01,-0.09 0.02,-0.18 0.01,-0.28z"/>
     <path class="fil66" d="M1.87 4.57c0.04,0.01 0.02,0.05 0.02,0.08 -0.03,0.24 -0.14,0.44 -0.36,0.56 0.05,-0.08 0.11,-0.14 0.15,-0.22 0.05,-0.1 0.09,-0.22 0.1,-0.34 -0,-0.04 -0,-0.09 -0,-0.13 -0.01,-0 -0.03,-0 -0.04,-0 0.02,-0.01 0.05,-0.01 0.08,-0 0.01,0.04 0.01,0.08 0.02,0.12 0,0.05 -0,0.1 -0.01,0.14 0.04,-0.06 0.04,-0.14 0.05,-0.21z"/>
     <path class="fil67" d="M1.17 5.76c0,0 -0.01,-0 0,0z"/>
     <path class="fil68" d="M2.74 5.76c-0.01,0.01 -0.01,0.01 0,0z"/>
     <path class="fil7" d="M1.76 2.26c-0.01,-0.02 -0.04,-0.04 -0.06,-0.06 -0.11,-0.04 -0.22,-0.06 -0.33,-0.03 -0.1,0.02 -0.2,0.07 -0.23,0.17 -0.02,0.06 0.01,0.14 0.07,0.17l0 0c0.03,0.01 0.06,0.03 0.09,0.05 -0.1,0 -0.21,-0.03 -0.26,-0.12 -0.08,0.06 -0.15,0.14 -0.21,0.23 -0.01,0.1 -0.03,0.21 0.03,0.29 0.06,0.1 0.19,0.11 0.3,0.12 -0.01,0.02 -0.01,0.04 -0.02,0.05l0.02 -0.01c0,-0.01 0.01,-0.02 0.01,-0.03 0,-0.01 0.01,-0.02 0.01,-0.03 0.16,-0.03 0.33,-0.08 0.46,-0.19 -0.05,0.01 -0.11,0.02 -0.16,0.02 0.06,-0.04 0.13,-0.05 0.18,-0.1 0.12,-0.09 0.2,-0.24 0.19,-0.39 -0,-0.07 0.06,-0.14 0,-0.2 0.01,0.04 0.01,0.09 -0.02,0.13 -0.03,0.04 -0.08,0.07 -0.13,0.09 0.01,-0.02 0.04,-0.03 0.04,-0.06 0.01,-0.01 0.01,-0.01 0.03,-0.05 0.01,-0.02 -0.01,-0.05 -0.02,-0.07zm-0.43 0.19c-0.02,-0.01 -0.03,-0.02 -0.05,-0.02 -0,-0.01 -0.01,-0.02 -0.02,-0.03 -0,-0.01 -0,-0.02 -0,-0.03 0.01,-0.02 0.02,-0.04 0.03,-0.05 0.07,-0.05 0.15,-0.05 0.23,-0.06 0.03,0 0.06,0.01 0.1,0.02 -0,0.04 -0.05,0.07 -0.08,0.08 -0.04,0.02 -0.08,0.04 -0.12,0.04l0.01 0.02c0.03,0 0.07,-0 0.1,-0.01 -0.01,0 -0.02,0.01 -0.02,0.02 -0.06,0.02 -0.12,0.02 -0.18,0.01z"/>
     <path class="fil39" d="M1.62 2.28c-0.03,-0.01 -0.06,-0.02 -0.1,-0.02 -0.08,0 -0.16,0.01 -0.23,0.06 -0.01,0.02 -0.02,0.03 -0.03,0.05 0,0.01 0,0.02 0,0.03 0,0.01 0.01,0.02 0.02,0.03 0.02,0.01 0.03,0.02 0.05,0.02 0.06,0.01 0.12,0.01 0.18,-0.01 0.01,-0 0.02,-0.01 0.02,-0.02 -0.03,0 -0.07,0.01 -0.1,0.01l-0.01 -0.02c0.04,-0 0.08,-0.02 0.12,-0.04 0.03,-0.02 0.08,-0.04 0.08,-0.08z"/>
     <path class="fil13" d="M3.68 2.26c0.03,-0.28 -0.01,-0.63 -0.1,-0.9 -0.08,0.03 -0.1,0.08 -0.2,-0.03 -0.06,-0.06 -0.08,-0.14 -0.09,-0.23 -0.04,0.14 0.04,0.26 -0.04,0.12 -0.07,-0.11 -0.04,-0.15 0.02,-0.25 -0.13,-0.07 -0.15,-0.05 -0.2,-0.2 -0.01,-0.03 -0.04,0.01 -0.08,0.03 -0.02,0.01 0.04,0.04 0.06,0.06 0.19,0.16 0.08,0.26 0.18,0.41 0.19,0.27 0.36,0.64 0.44,0.96l0.02 0.05 0.01 -0.02z"/>
     <path class="fil69" d="M3.29 1.16c0.02,0.06 0.04,0.12 0.07,0.17 0,0 0.01,0.01 0.01,0.01 0.1,0.1 0.12,0.06 0.19,0.03 0,-0.01 0.01,-0.02 0.01,-0.01 -0.03,-0.11 -0.07,-0.21 -0.12,-0.31 -0.01,-0.03 -0.03,-0.05 -0.05,-0.07 -0.06,0.06 -0.1,0.09 -0.13,0.14 0,0.01 0,0.03 0.01,0.04z"/>
     <path class="fil70" d="M3.38 0.81c0.04,-0.17 -0.12,-0.42 -0.25,-0.12 -0.03,0.07 -0.02,0.14 -0.01,0.21 0,0 0,0 0,0 -0.04,-0.35 0.3,-0.34 0.21,-0.03 0.01,0 0.01,0.01 0.01,0.01 0.02,-0.02 0.03,-0.04 0.04,-0.08z"/>
     <path class="fil71" d="M1.7 0.3c-0.01,0.01 -0.03,0.02 -0.06,0.03 0.1,-0.01 0.2,-0 0.3,0.06 0.14,-0.08 0.27,-0.08 0.41,-0.03 -0.01,-0 -0.01,-0 -0.02,-0.01 -0.04,-0.02 0.08,-0 -0.03,-0.02 -0.26,-0.04 0.13,-0.08 0.19,-0.07 0.12,0.01 0.37,0.08 0.46,0.16 0.02,0.02 0.05,0.04 0.06,0.05 -0.25,-0.24 -0.65,-0.37 -0.98,-0.23 -0.15,0.06 -0.07,0.05 -0.21,-0.01 -0.34,-0.14 -0.69,0 -0.95,0.23 0.15,-0.12 0.3,-0.19 0.51,-0.19 0.11,-0 0.2,0.01 0.31,0.04z"/>
     <path class="fil71" d="M1.77 0.5c0.07,0.01 0.13,0.05 0.18,0.1 0.03,-0.03 0.07,-0.07 0.11,-0.08 0.26,-0.07 0.43,0.07 0.51,0.06 0,-0 0.02,-0 0.03,-0 -0,-0 -0.01,-0 -0.01,-0.01 -0.21,-0.11 -0.42,-0.2 -0.64,-0.05 -0.18,-0.16 -0.44,-0.06 -0.62,0.04 -0.03,0.02 -0.06,0.03 -0.09,0.05 0.06,-0 0.1,-0.04 0.16,-0.05 0.12,-0.05 0.24,-0.07 0.37,-0.06z"/>
     <path class="fil71" d="M0.65 0.56c-0.11,-0.04 -0.22,0.19 -0.08,0.35 -0,0 -0,0.01 -0.01,0.01 0,-0 0,-0.01 0.01,-0.01 0.04,0.03 0.07,0.03 0.09,0.04 -0.05,-0.02 -0.11,-0.08 -0.12,-0.13 -0.03,-0.15 0.09,-0.24 0.19,-0.13 0.06,0.07 0.02,0.09 0.04,0.16l0 0.01c0.01,-0.11 -0.01,-0.27 -0.12,-0.3z"/>
     <path class="fil72" d="M0.52 1c-0,0 0,0 0,0zm-0.04 -0.03c-0.02,-0.01 -0.12,0.26 -0.17,0.39 0.12,0.14 0.27,-0.07 0.29,-0.2 0,-0.02 0,-0.05 0.01,-0.05 -0.02,-0.03 -0.05,-0.06 -0.09,-0.1 0.01,-0.01 0.01,-0.02 0.02,-0.02 -0.02,0 -0.02,0.01 -0.02,0.01 -0,-0 -0.01,-0.01 -0.04,-0.03z"/>
     <path class="fil73" d="M1.41 5.62c0.14,0.12 0.5,0.16 0.68,0.14 0.16,-0.02 0.28,-0.07 0.41,-0.15 -0.08,0.02 -0.31,0.06 -0.31,0.06 -0.1,0.01 0.09,-0.05 -0.04,-0.03 -0.17,0.02 -0.28,0.02 -0.45,-0.01 0.07,0.05 0.08,0.05 -0.04,0.03 -0.07,-0.01 -0.11,-0.02 -0.17,-0.05 0.03,-0.01 0.06,-0.02 0.09,-0.03 -0.07,0.02 -0.13,0.04 -0.16,0.03 -0,-0 -0.01,-0 -0.01,-0z"/>
     <path class="fil74" d="M2.19 5.51c-0.4,-0.17 -0.42,0.06 -0.8,0.09 0.01,0.01 0.01,0.01 0.02,0.02 0,0 0.01,0 0.01,0 0.03,0 0.09,-0.01 0.16,-0.03 0.3,-0.11 0.35,-0.12 0.71,-0.01 0.05,0.02 0.11,0.02 0.16,0.02 0.04,-0 0.06,0 0.06,0 0,-0 0,-0 0,-0 -0.19,-0.02 -0.16,-0 -0.33,-0.08z"/>
     <path class="fil74" d="M0.89 3.95c-0,0.24 -0.01,0.42 0.03,0.61 -0,-0.02 -0.01,-0.04 -0.01,-0.06 0.01,0 0.01,0 0.02,0 0.03,0.11 0.1,0.2 0.16,0.29 0.02,-0.02 0.04,-0.05 0.06,-0.07 -0.09,-0.1 -0.15,-0.22 -0.18,-0.35 -0.05,-0.19 -0.07,-0.32 -0.07,-0.52 -0.01,0.01 -0.02,0.02 -0.02,0.04 0.01,0.02 0.02,0.04 0.02,0.06z"/>
     <path class="fil74" d="M3 4.04c-0.02,0.25 -0.09,0.47 -0.24,0.68 0.02,0.02 0.03,0.05 0.05,0.07 0.1,-0.11 0.13,-0.18 0.19,-0.32 -0,0.04 -0.01,0.07 -0.01,0.1 0.05,-0.18 0.06,-0.37 0.04,-0.55l-0 -0c-0.01,0.01 -0.01,0.02 -0.02,0.02z"/>
    </g>
    <path class="fil75 str0" d="M2.77 5.75c-0,0 -0.01,0 0,0zm-2.51 -4.69c-0,0 -0,0 0,0zm2.89 2.85c0.16,0.24 0.1,0.44 0.2,0.67 0.11,0.24 0.16,0.41 0.04,0.67 -0.11,0.24 -0.36,0.41 -0.62,0.51 -0.1,0.04 -0.21,0.08 -0.31,0.1 -0.46,0.1 -0.92,0.07 -1.35,-0.11 -0.25,-0.1 -0.43,-0.24 -0.58,-0.46 -0.12,-0.18 -0.12,-0.43 -0.03,-0.62 0.04,-0.09 0.07,-0.13 0.09,-0.24 0.02,-0.14 0.02,-0.23 0.07,-0.36 0.04,-0.09 0.05,-0.13 0.11,-0.21 0.03,-0.04 -0.01,-0.05 -0.05,-0.1 -0.07,-0.06 -0.14,-0.11 -0.18,-0.2 -0.02,-0.04 -0.11,-0.12 -0.14,-0.18 -0.11,-0.17 -0.21,-0.37 -0.26,-0.57 -0.01,-0.04 -0.04,-0.12 -0.05,-0.16 -0.02,-0.19 -0.06,-0.29 -0.05,-0.5 0.01,-0.38 0.06,-0.68 0.2,-1.02 0.01,-0.03 0.02,-0.05 0.03,-0.07 0.04,-0.08 0.07,-0.14 0.12,-0.22 0.01,-0.02 -0.01,-0.04 -0.01,-0.11 0.01,-0.16 0.09,-0.33 0.28,-0.31 0.07,0 0.08,-0.04 0.13,-0.08 0.03,-0.02 0.09,-0.07 0.13,-0.1 0.25,-0.18 0.6,-0.26 0.89,-0.14 0.21,0.09 0.12,0.02 0.36,-0.03 0.3,-0.07 0.63,0.03 0.86,0.23 0.04,0.03 0.05,0.02 0.08,0.06 0.11,0.12 0.18,-0.02 0.3,0.12 0.14,0.17 0.04,0.24 0.14,0.43 0.38,0.77 0.43,1.66 -0.02,2.41 -0.05,0.08 -0.15,0.21 -0.22,0.28 -0.01,0.01 -0.03,0.03 -0.03,0.04 0,0.03 -0.05,0.01 -0.08,0.07 -0.06,0.12 -0.16,0.06 -0.06,0.19zm-0.41 1.86c-0.01,0.01 -0.01,0.01 0,0zm-1.54 0.02c-0.01,-0 -0.01,-0 0,0zm-0.5 -1.83c-0,0.01 -0,0.01 0,0zm-0.01 0.03c-0,0.01 -0.01,0.01 0,0zm-0.48 -2.78c-0,0 -0,0.01 0,0z"/>
   </g>
   <path class="fil75 str1" d="M2.83 1.21c0.03,0.06 0.02,0.13 -0.04,0.22"/>
   <path class="fil76" d="M2.83 1.21c0.03,0.06 0.02,0.13 -0.04,0.22 0.04,-0.03 0.07,-0.08 0.09,-0.13 0.01,-0.04 0,-0.1 -0.03,-0.13 -0.01,0.01 -0.01,0.02 -0.01,0.03z"/>
   <path class="fil76" d="M1.06 1.2c-0.04,0.07 -0.02,0.15 0.04,0.22 0.03,0.03 0.06,0.05 0.09,0.06 -0.06,-0.09 -0.07,-0.2 -0.13,-0.29z"/>
   <path class="fil77" d="M1.06 1.2c-0.04,0.07 -0.02,0.15 0.04,0.22 0.03,0.03 0.06,0.05 0.09,0.06 -0.06,-0.09 -0.07,-0.2 -0.13,-0.29z"/>
   <path class="fil77" d="M2.83 1.21c-0.04,0.09 -0.07,0.19 -0.12,0.28 0.03,-0.02 0.05,-0.03 0.08,-0.05 0.06,-0.09 0.07,-0.17 0.04,-0.22z"/>
   <path class="fil78" d="M1.04 1.18c-0.02,0.04 -0.04,0.08 -0.03,0.13 0.01,0.05 0.04,0.09 0.08,0.12 -0.06,-0.08 -0.07,-0.15 -0.04,-0.22 -0,-0.01 -0.01,-0.02 -0.02,-0.02z"/>
   <rect class="fil75 str2" transform="matrix(0.664777 0.209853 -0.16917 0.360518 0.248769 1.04134)" width="0.06" height="0.04"/>
  </g>
 </g>
</svg>
