<?xml version="1.0" encoding="UTF-8"?>
<!DOCTYPE svg PUBLIC "-//W3C//DTD SVG 1.1//EN" "http://www.w3.org/Graphics/SVG/1.1/DTD/svg11.dtd">
<!-- Creator: CorelDRAW 2018 (64-Bit) -->
<svg xmlns="http://www.w3.org/2000/svg" xml:space="preserve" width="7.20486in" height="8.23831in" version="1.1" style="shape-rendering:geometricPrecision; text-rendering:geometricPrecision; image-rendering:optimizeQuality; fill-rule:evenodd; clip-rule:evenodd"
viewBox="0 0 1597.28 1826.39"
 xmlns:xlink="http://www.w3.org/1999/xlink">
 <defs>
  <style type="text/css">
   <![CDATA[
    .str0 {stroke:#2B2A29;stroke-width:1.54;stroke-miterlimit:2.61313}
    .fil4 {fill:none}
    .fil3 {fill:#FEFEFE}
    .fil6 {fill:#C79933}
    .fil5 {fill:#FBEB58}
    .fil1 {fill:#1F2351;fill-rule:nonzero}
    .fil0 {fill:#C5B699;fill-rule:nonzero}
    .fil2 {fill:#D04646;fill-rule:nonzero}
   ]]>
  </style>
 </defs>
 <g id="Layer_x0020_1">
  <metadata id="CorelCorpID_0Corel-Layer"/>
  <g id="_1007988128">
   <path class="fil0" d="M971.28 0c1.73,3.02 3.45,6.05 5.39,8.98 5.39,6.45 10.98,12.79 15.7,19.64 9.57,10.56 17.25,22.35 26.68,33.02 3.51,4.6 7.66,8.87 10.36,13.9 0.78,0.54 2.31,1.65 3.07,2.19 2.17,6.58 9.62,10.69 11.66,17.43 2.87,4.69 6.62,9.2 8.07,14.39 4.23,7.02 7.31,14.53 9.82,22.06 4.58,1.35 6.4,-3 9.2,-5.12 15.66,-12.32 34.81,-23.03 56.46,-24.04 18.43,-1.74 36.79,5.25 50,16.19 15.39,12.2 26.72,28.24 31.94,45.79 1.88,10.26 1.57,20.91 -0.62,31.12 -4.35,-7.24 -9.76,-14.55 -18.45,-18.31 -2.21,-0.49 -4.35,-1.01 -6.5,-1.62 -7.94,-0.9 -15.41,1.56 -22.7,3.97 -4.95,2.91 -10.42,5.73 -13.04,10.64 -1.2,1.72 -2.37,3.45 -3.55,5.16 -0.35,1.01 -1.05,3.02 -1.4,4.02 -3.53,9.07 -7.8,18.18 -7.84,27.94 4.29,0.25 7.57,-2.41 11.64,-2.98 14.53,-7.53 31.55,-11.62 48.47,-12.11 0.78,-0.31 2.35,-0.92 3.14,-1.22 2.83,-0.07 5.76,-0.18 8.36,1.1 10.34,0.25 20.82,0.99 30.81,3.41 4.71,1.45 9.62,2.34 14.61,2.82 5.43,2.53 10.94,4.94 16.55,7.15 10.79,6 20.45,13.51 29.39,21.52 3.45,3.07 5.37,7.31 9.7,9.65 2.95,4.13 5.92,8.26 8.23,12.7 1.96,2.07 4.09,4.17 4.46,6.97 0.35,0.99 1.01,3 1.34,4.01 3.22,1.98 3.12,5.75 4.44,8.66 9.33,19.65 10.15,41.25 11.54,62.23 11.33,-0.43 18.49,-10.74 29.76,-11.62 5.82,-4.76 13.66,-6.65 20.68,-9.61 14.88,-6.31 29.8,-12.67 45.42,-17.46 5.24,-2.39 10.52,-5.32 16.61,-5.53 4.33,-3.5 10.57,-3.75 15.64,-6.18 5.98,-0.88 11.14,-4.8 17.31,-4.53 19.07,-7.76 40.2,-10.71 60.79,-13.78 17.6,-0.86 35.25,0.04 52.85,-0.52 -9.31,37.58 -17.87,75.65 -35.49,111.13 -5.12,11.86 -12.22,23 -18.84,34.26 -2.64,4.38 -5.92,8.43 -8.73,12.72 -3.47,5.73 -8.79,10.4 -12.46,16.02 -3.86,6.81 -11.89,10.74 -15.62,17.59 -11.87,9.54 -22.2,20.61 -35,29.25 -7.43,7.06 -18.41,10.47 -25.59,17.82 0.02,1.74 0.21,3.5 0.52,5.25 5.49,15.02 8.36,30.69 13.35,45.85 3.4,14.79 8.36,29.27 11.68,44.05 4.56,10.17 16.74,16.04 21.46,26.23 0.58,0.65 1.77,1.98 2.37,2.62 2.52,4.69 6.93,8.86 7.1,14.26 5.68,9.04 6.09,19.76 7.28,29.8 -2.17,19.83 -6.6,39.76 -15.17,58.3 -1.32,6.97 -5.96,13.04 -7.97,19.87 -2.97,5.35 -5.98,10.67 -9,16.01 -6.58,12.32 -13.25,24.9 -22.47,35.91 -2.25,6.25 -7.74,10.83 -11.37,16.37 -5.14,8.46 -12.88,15.52 -18.59,23.52 -3.49,4.81 -9.41,8.41 -10.92,14.16 -0.83,-0.31 -2.48,-0.93 -3.3,-1.24 2.13,4.06 -2.95,5.73 -5.59,8.1 -3.38,6.79 -12.44,9.88 -15.81,16.73 -4.42,4.22 -9.12,8.21 -13.83,12.22 0.06,0.86 0.19,2.59 0.27,3.45 2.21,2.62 1.69,6 2.31,9.05 1.42,2.19 1.69,4.73 2.17,7.2 1.34,2.23 1.67,4.72 2.15,7.2 0.99,2.28 1.49,4.69 1.98,7.11 1.67,2.79 1.61,5.98 1.96,9.05 0.7,1.76 1.44,3.54 2.23,5.32 1.86,3.36 1.4,7.17 1.75,10.8 0.89,1.76 1.71,3.59 2.46,5.44 1.34,2.84 1.34,5.93 1.75,8.95 6.11,21.4 10.71,43.23 17.09,64.62 0.99,3.59 1.47,7.29 1.84,10.99 6.44,20.28 11.82,40.98 16.24,61.71 -19.13,2.43 -37.58,8.01 -56.48,11.53 -17.23,3.52 -34.15,8.32 -51.45,11.19 -1.13,6.43 2.79,12.09 4.89,18.02 2.04,4.19 6.31,7.91 6.25,12.65 2.04,2.03 4.77,4.04 4,7.1 7.59,7.67 12.9,16.94 20.08,24.99 0.99,2.01 1.96,4.02 2.97,6.05 0.43,0.18 1.28,0.54 1.71,0.7 8.52,17.7 11.23,37.85 4.44,56.34 -0.39,3.72 -2.06,7.19 -3.8,10.56 -0.87,5.16 -3.9,9.7 -6.46,14.32 -9.55,16.71 -22.12,31.91 -35.82,46.19 -8.34,9.47 -19.07,17.01 -28.4,25.69 -7.29,6.92 -16.16,12.29 -24.21,18.47 -8.42,6.7 -20.24,9.22 -31.26,10.56 -5.35,0.52 -8.07,5.1 -12.51,7.2 -9.27,8.78 -21.34,14.84 -32.3,21.9 -2.35,1.19 -4.29,3.68 -7.41,2.95 -0.85,0.77 -2.54,2.3 -3.38,3.05 -4.83,2.1 -9.58,4.4 -14.59,6.18 -7.99,2.82 -16.26,5.07 -24.66,6.72 -36.17,8.66 -74.85,5.28 -110.09,-5.14 -3.18,-1.56 -6.4,-3.09 -9.99,-3.68 -7.26,-3.04 -13.27,-8.64 -20.9,-10.51 -1.63,-1.85 -2.97,-4.31 -6.13,-3.95 -11.31,-7.37 -22.35,-14.97 -32.42,-23.59 -2.15,-0.41 -4.27,-0.83 -6.36,-1.24 -15.08,0.65 -27.9,-7.46 -39.93,-13.71 -3.69,-3.34 -7.92,-6.97 -13.62,-7.02 -9.72,9.77 -20.99,18.31 -31.16,27.72 -0.35,0.68 -1.03,2.07 -1.38,2.77 -5.68,1.65 -10.07,6.34 -12.11,11.17 -1.07,-0.05 -3.24,-0.14 -4.33,-0.2 0.31,0.66 0.95,1.98 1.26,2.64 -7.97,5.52 -13.68,13.03 -21.58,18.61 -3.59,6.72 -11.21,10.62 -16.01,16.53 -9.93,10.37 -20.24,20.44 -29.63,31.21 -7.12,7.73 -13.87,15.72 -21.15,23.32 -1.05,3.22 -4.4,5.12 -7.12,7.24l0.91 1.58c-6.52,5.28 -10.65,12.31 -16.34,18.2 -3.69,5.01 -8.63,9.31 -11.8,14.61 -2.87,3.66 -5.82,7.29 -9.47,10.42 0.19,4.37 -5.1,7.04 -7.16,10.76 -6.83,8.1 -11.64,17.43 -19.09,25.13 -2.37,6.25 -8.21,10.73 -11.82,16.38 -2.08,4.42 -5.47,8.28 -7.66,12.68 -1.86,2.34 -3.67,4.69 -5.65,6.95 -4.23,7.49 -8.07,15.34 -14.51,21.63 -2.44,3.41 -4.27,7.11 -6.36,10.71 -1.61,3.18 -3.47,6.29 -5.98,9.02 -0.89,3.38 -3.2,6.2 -5.28,9.11 -1.09,1.72 -2.17,3.47 -3.24,5.23 -2.02,2.98 -4.25,5.87 -6.25,8.87 -0.87,1.9 -1.75,3.79 -2.64,5.71 -12.84,22.06 -25.61,44.14 -38.14,66.33 -6.03,12.11 -11.93,24.31 -19.01,35.98 -0.23,0.92 -0.66,2.75 -0.89,3.67 -1.8,2.86 -3.51,5.77 -5.22,8.69 -1.22,3.5 -2.58,6.99 -4.04,10.44 -0.21,-25.96 -5.14,-51.78 -5.41,-77.79 -2.15,-9.54 -1.63,-19.28 -2.42,-28.92 -1.77,-10.83 -1.63,-21.79 -1.67,-32.7 -3.8,-9.04 -1.3,-19.31 -1.94,-28.83 -2.6,-2.16 -1.59,-5.41 -1.84,-8.08 0.02,-6.32 0.08,-12.63 -0.25,-18.92 -0.58,-0.97 -1.73,-2.89 -2.31,-3.86 -3.61,-5.52 -8.38,-10.37 -12.01,-15.83 -1.65,-3.65 -5.43,-6.04 -8.17,-8.98 -2.91,-5.41 -8.15,-9.72 -12.46,-14.34 -1.11,-3.68 -5.24,-5.61 -8.01,-8.26 -4.62,-3.49 -6.77,-9.45 -13.08,-11.07 0.12,-0.65 0.41,-1.92 0.56,-2.55 -5.45,-0.58 -8.63,-5.25 -13.13,-7.51 -1.07,0.07 -3.22,0.25 -4.29,0.32 -13.56,4.42 -27.9,6.92 -42.24,8.37 -20.51,3.45 -41.52,1.35 -61.91,-1.83 -8.11,-1.54 -16.3,-3.05 -23.79,-6.31 -10.42,-2.33 -19.58,-7.35 -29.37,-11.05 -1.69,-1.72 -2.83,-4.69 -6.05,-3.79 -13.87,-8.32 -28.7,-15.76 -43.98,-21.58l-0.16 -1.78c-4.5,0.23 -7.66,-3.04 -11.19,-4.92 -7.88,-2.95 -15.43,-6.74 -22.7,-10.71 -9.43,-2.7 -16.34,-9.74 -26.21,-11.59 16.98,-2.23 33.02,-8.19 50.1,-10.04 1.26,-6.31 -6.85,-6.18 -11.74,-6.88 -21.67,-5.52 -43.69,-10.89 -63.7,-20.21 -7.86,-2.93 -16.08,-5.84 -22.72,-10.62 -8.3,-3.65 -15.23,-9.18 -22.89,-13.58 -11.87,-9.72 -24.16,-19.37 -33.12,-31.35 -6.54,-4.51 -7.3,-12.95 -13.29,-18.07 -2.15,-3.04 -4.33,-6.02 -6.48,-9.02 -9.68,-13.42 -18.24,-27.76 -29.41,-40.37 3.51,0.65 7.08,1.33 10.19,2.96 15.31,2.16 30.64,4.81 45.48,8.78 13.93,1.29 27.38,5.23 41.27,7.08 7.47,0.75 14.98,1.08 22.49,1.19 0.83,0.3 2.48,0.93 3.28,1.24 9.88,0.14 19.79,0.16 29.65,-0.34 2.93,-1.22 6.17,-1.13 9.33,-1.26 0.02,-1.11 0.08,-3.34 0.1,-4.46 -5.65,-0.41 -10.46,-3.05 -15.35,-5.28 -9.08,-2.44 -17.05,-7.2 -25.8,-10.35 -9.49,-4.67 -20.12,-7.04 -29.96,-10.99 -2.97,-0.31 -5.9,-0.88 -8.44,-2.3 -6.85,-1.69 -14.16,-2.19 -20.49,-5.21 -4.25,-0.23 -8.69,-0.18 -12.55,-1.96 -6.75,-1.67 -14.18,-0.97 -20.55,-3.65 -17.31,-1.08 -34.65,-3.81 -52.04,-1.98 0.58,-1.2 1.75,-3.63 2.35,-4.83 2.52,-9.22 10.42,-16.42 15.99,-24.34 2.02,-2.08 1.46,-4.98 1.86,-7.44 -4.07,0.23 -7.97,1.28 -11.62,2.88 -2.64,1.6 -5.3,3.16 -7.99,4.72 -9.2,5.62 -19.21,10.19 -28.75,15.41 0.43,-1.42 1.28,-4.26 1.71,-5.68 4.73,-16.22 9.51,-32.46 14.65,-48.6 2.66,-7.92 4.62,-16.01 7.18,-23.95 10.03,-20.48 22.02,-40.89 40.43,-56.65 0.08,-0.56 0.21,-1.69 0.29,-2.25 8.44,-6.45 15.15,-14.41 23.67,-20.75 0.74,-0.04 2.19,-0.09 2.93,-0.13 3.24,-2.86 6.38,-5.84 9.88,-8.46 14.75,-8.66 28.85,-18.7 45.71,-24.33 12.79,-5.8 25.9,-11.3 39.95,-14.37 0.02,-1.13 0.08,-3.4 0.1,-4.53 -22.74,-0.61 -46.74,1.08 -66.51,11.77 -0.76,-0.09 -2.27,-0.31 -3.03,-0.4 -0.64,0.84 -1.96,2.53 -2.62,3.38 -2.99,0 -5.2,1.62 -7.39,3.2 -2.29,0.86 -4.13,2.35 -5.94,3.83 -5.14,1.44 -8.15,5.8 -12.73,8.12 -12.22,7.19 -22.7,16.4 -35.23,23.19 -2.02,1.96 -4,3.95 -5.96,5.98l-1.94 -1.4c-4.11,3.54 -7.41,8.57 -13.37,9.84l1.16 2.21c-0.76,0.02 -2.31,0.07 -3.1,0.11 5.57,-11.82 8.13,-24.54 13.29,-36.51 1.96,-5.41 3.57,-10.92 6.25,-16.1 0.76,-4.36 2.13,-8.62 4.15,-12.67 5.68,-16.49 14.42,-32.14 25.05,-46.62 5.72,-8.37 15.02,-14.14 21.81,-21.77 13.54,-10.2 27.59,-20.16 43.87,-26.89 6.56,-3.45 13.54,-6.32 20.51,-9.09 3.47,-1.2 7.04,-2.16 10.61,-3.09 0.8,-0.56 2.39,-1.69 3.2,-2.25 13.97,-3.23 27.65,-8.28 41.97,-10.58 3.14,-0.88 6.29,-1.78 9.33,-2.89 -0.19,-2.3 -0.33,-4.6 -0.43,-6.9 -3.94,2.07 -5.49,-2.88 -8.81,-3.72 -3.26,-2.21 -6.69,-4.26 -10.17,-6.16 -4.05,-0.75 -7.22,-3.18 -11,-4.47 -0.8,-0.83 -2.44,-2.44 -3.24,-3.25 -0.72,0.05 -2.15,0.2 -2.85,0.27 -7.39,-3.07 -15.11,-5.5 -22.25,-9.02 -8.75,-1.51 -16.28,-5.95 -25.05,-7.33 -2.02,-0.63 -4.07,-1.19 -6.13,-1.67 -2.06,-0.65 -4.13,-1.29 -6.19,-1.92 -2.79,-0.4 -5.59,-0.75 -8.23,-1.69 -2.83,-0.43 -5.74,-0.7 -8.3,-1.9 -2.79,-0.48 -5.74,-0.57 -8.23,-1.89 -10.98,-1.02 -21.5,-4.29 -32.65,-4.29 8.17,-4.65 16.3,-9.38 24.43,-14.05 4.79,-2.21 9.1,-5.43 14.61,-6.16 4.6,-2.19 9.25,-4.42 14.34,-5.64 6.17,-1.76 12.28,-3.65 18.51,-5.21 12.03,-3.5 24.52,-5.86 37.1,-7.06 9.35,-3.02 19.71,-2.01 29.3,-4.24 11.23,-1.1 22.66,-0.7 33.82,0.9 15.81,0.05 31.35,2.71 47.01,4.04 0,-1.2 0.04,-3.59 0.04,-4.78 -4.44,-3.54 -9.43,-6.79 -11.82,-11.75 -6.58,-6.23 -14.32,-11.5 -20.62,-17.97 -1.44,-1.63 -3.36,-2.89 -5.78,-2.98 -3.69,-2.88 -6.44,-7.22 -11.8,-7.78 0.29,-0.95 0.85,-2.87 1.11,-3.83l-3.38 1.91c-1.88,-2.01 -3.8,-3.99 -5.78,-5.93 -16.49,-9.47 -30.85,-21.56 -47.59,-30.78 -4.27,-3 -8.5,-6.59 -14.2,-7.26 28.33,-1.1 56.75,-0.23 85.12,-0.49 -0.02,-1.2 -0.04,-3.61 -0.06,-4.8 -2.87,-0.22 -5.22,-1.37 -7,-3.29 -8.3,-5.12 -17.07,-9.81 -22.91,-17.3 -0.56,0.4 -1.71,1.17 -2.29,1.56 -5.08,-7.17 -13.29,-12.16 -19.52,-18.54 -1.32,-5.01 -10.42,-6.29 -8.4,-12.09 -0.87,0.45 -2.64,1.37 -3.53,1.81 0.02,-6.32 -7.9,-8.57 -11.1,-13.47 -2.89,-4.58 -8.01,-7.56 -11.06,-11.98 -6.31,-5.34 -11.54,-11.62 -17.48,-17.27 -6.67,-6.16 -11.45,-13.81 -19.44,-18.83 0.25,-0.47 0.74,-1.37 0.99,-1.83 -6.36,-3.58 -10.13,-9.5 -16.2,-13.31 17.19,6.22 35.29,10.47 52.38,16.92 22.25,5.98 43.91,13.53 66.04,19.87 15.81,5.41 32.15,9.68 47.52,16.06 2.79,0.23 5.55,0.65 8.28,1.2 8.13,4.78 18.49,1.74 27.2,4.58 6.79,-1.1 13.54,-2.28 20.22,-3.75 13.14,-6.79 25.82,-14.8 34.73,-25.76 1.4,-0.9 2.83,-1.78 4.23,-2.64 0.12,-4.33 6.09,-5.68 7.22,-9.65 4.83,-4.28 8.75,-9.2 13.39,-13.58 5.39,-0.45 3.9,-6.97 -1.11,-6.47 -10.44,1.29 -21.01,1.02 -31.49,1.96 -8.75,2.52 -18.43,1.56 -27.09,4.4 -6.15,0.45 -12.32,0.74 -18.47,1.29 -11.02,1.06 -21.96,2.77 -33.02,3.66 -11.47,1.1 -22.82,2.79 -34.28,4.11 -1.55,-0.16 -4.68,-0.45 -6.25,-0.61 7.59,-1.8 11.68,-7.73 16.98,-12.2 2.81,-1.78 5.84,-3.65 6.03,-6.97 0.7,-0.05 2.13,-0.16 2.83,-0.22 1.07,-2.1 2.75,-3.9 4.62,-5.48 11.74,-10.12 23.13,-20.52 34.86,-30.63 2.21,-1.83 4.85,-3.45 5.82,-6.07 6.87,-2.69 10.01,-9.65 17.11,-11.98 11.02,-9.56 24.27,-16.73 36.73,-24.72 6.38,-2.91 12.05,-6.9 18.76,-9.32 4.81,-2.05 9.6,-4.11 14.28,-6.36 9.33,-4.36 19.19,-7.83 29.43,-10.22 6.21,-5.21 11.95,-11.01 19.46,-14.88 6.6,-3.23 11.54,-9.07 19.4,-10.13 16.96,-7.91 36.4,-12.13 55.68,-12.02 0.7,-0.57 2.11,-1.72 2.81,-2.3 0.95,-11.75 2.04,-24.36 10.26,-34.22 -0.06,-0.43 -0.23,-1.28 -0.29,-1.71 4.52,-4.42 6.03,-11.12 12.05,-14.27 3.22,-3.65 3.55,-8.17 2.52,-12.56 -3.34,-5.64 -5.55,-11.86 -6.81,-18.09 -2.23,-3.54 -3.67,-7.4 -4.25,-11.41 -5.26,-17.77 -9.2,-35.95 -9.8,-54.33 -0.66,-5.03 -2.99,-10.55 0.06,-15.32 0.16,-2.73 0.31,-5.46 0.47,-8.19 14.55,14.03 31.08,26.3 47.28,38.79 1.88,2.68 3.88,5.8 7.97,5.91 5.16,3.25 7.8,9.81 14.49,10.83 3.65,4.6 9.78,6.54 13.91,10.6 2.56,0.29 5.14,0.56 7.72,0.77 -4.5,-14.34 -12.3,-27.81 -16.3,-42.31 -6.15,-15.77 -10.07,-32.23 -14.01,-48.52 -2.39,-8.43 -3.78,-17.09 -6.83,-25.37 23.22,1.78 46.91,-1.69 69.81,3.05 17.64,2.48 34.38,8.21 51.47,12.49 -0.91,-9.36 -4.83,-18.29 -5.22,-27.7 -5.57,-24.61 -3.69,-49.85 -2.81,-74.75 0.31,-0.72 0.93,-2.17 1.24,-2.89 0.47,-3.61 0.06,-7.42 1.98,-10.76 0.39,-3 0.64,-6.05 1.82,-8.93 0.78,-1.81 1.61,-3.61 2.48,-5.39 0.27,-1.83 0.54,-3.66 0.83,-5.48 1.11,-1.71 2.21,-3.43 3.28,-5.14 -0.72,-5.84 4.29,-10.73 6.05,-16.19 4.31,-7.65 7.3,-15.83 11.99,-23.34 1.53,-4.38 3.78,-8.55 6.38,-12.54 3.22,-8.57 8.07,-16.67 12.69,-24.68 4.89,-13.87 13.93,-26.52 18.14,-40.55 4.73,14.84 3.61,30.99 7.14,46.19 2.23,24.97 6.6,49.71 9.12,74.65 0.74,1.72 1.4,3.49 2,5.28 3.14,7.62 7.97,14.64 10.86,22.33 1.16,0.07 3.49,0.22 4.64,0.31 0.27,-3.4 -0.23,-6.97 1.67,-10.08 0.45,-2.44 0.95,-4.89 1.92,-7.2 1.51,-4.38 3.9,-8.48 6.56,-12.41 0.16,-0.97 0.54,-2.88 0.7,-3.84 1.69,-1.45 2.91,-3.16 3.65,-5.1 8.38,-12.45 18.94,-23.66 30.33,-34.1 6.11,-6.61 11.52,-13.78 18.57,-19.71 0.23,-0.65 0.7,-1.96 0.95,-2.62 3.03,-2.73 6.21,-5.35 9.35,-8.03 0.6,-4.96 7.04,-6.7 9.24,-11.01 2.54,-2.82 5.02,-5.7 7.39,-8.64 1.75,8.3 4.58,16.4 6.05,24.74 4.7,17.34 9.27,34.75 14.3,52.05 4.11,10.33 8.98,20.46 15.19,29.95 2.37,2.69 3.88,6.81 8.34,7.31 4.62,-2.17 6.5,-6.7 9.45,-10.22 6.21,-9.67 9.99,-20.21 14.43,-30.51 1.42,-11.12 4.6,-22.1 4.29,-33.36 -0.1,-34.94 0.78,-69.94 -0.47,-104.85zm43.85 103.18l0 0c0.89,39.85 -13.35,81.22 -45.87,110.13 -6.56,5.75 -17.17,6.45 -25.36,3.16 -9.1,-3.49 -16.3,-9.77 -22.45,-16.4 -16.22,-18.45 -24.58,-40.89 -31.37,-63.06 -10.63,11.82 -23.4,22.42 -30.97,36.11 -9.02,15.07 -8.23,34.1 1.53,48.74 9.84,17.01 24.08,34.67 46.2,40.17 -18.94,6.5 -40.76,7.35 -59.82,0.74 -20.02,-6.79 -35.8,-20.43 -48.64,-35.03 -6.23,-8.35 -11.76,-17.1 -17.91,-25.49 -5.74,-12.22 -12.11,-24.31 -15.66,-37.21 -0.33,-0.13 -0.99,-0.38 -1.34,-0.5 -0.12,1.08 -0.39,3.27 -0.54,4.35 -5.84,10.42 -7.41,22.1 -10.3,33.29 -6.73,52.8 5.16,107.31 33.22,154.47 -25.53,-10.51 -51.63,-19.98 -78.29,-28.13 -19.5,-5.68 -39.52,-10.71 -60.16,-11.77 12.67,52.05 35.72,103.45 76.11,144.08 -21.23,-8.44 -44.84,-9.99 -67.05,-15.59 -19.42,-4.62 -38.22,-12.34 -53.01,-24.38 -4.89,-3.9 -8.54,-8.82 -13.62,-12.56 8.03,26.09 28.02,47.43 48.85,66.74 6.38,6.52 13.99,13.01 15.89,21.77 0.06,6.85 -6.34,11.79 -12.03,15.68 -7.06,5.23 -18.02,5.55 -25.65,1.06 -13.99,-7.62 -21.32,-21.13 -28.62,-33.45 -4.85,8.39 -8.15,17.7 -7.64,27.2 -0.06,14.5 7.04,27.99 15.25,40.28 -14.69,-11.53 -35.54,-13.76 -54.52,-12.52 -17.11,1.49 -34.61,4.38 -49.69,11.93 5.78,3.11 12.96,2.34 19.07,4.81 18.43,4.65 33.93,15.24 47.07,27.07 -14.09,-5.96 -29.22,-11.53 -45.21,-10.94 -10.42,0.49 -20.88,-0.49 -31.22,0.97 -27.05,3.04 -51.59,14.34 -75.1,25.67 -17.25,11.1 -35.08,21.76 -50.15,35.16 31.68,-6.05 64.82,-6.65 96.66,-1.08 27.76,5.16 55.08,15.25 76.25,31.98 -12.51,0.27 -25.03,0.81 -37.37,2.61 -22.25,2.95 -46.06,9.14 -60.88,24.85 -13.39,16.1 -28.44,31.53 -47.3,42.96 -19.81,12.22 -45.32,18.09 -69.32,13.83 -24.91,-3.32 -47.22,-14.16 -70.93,-20.88 26.33,27.16 62.4,46.93 101.92,55.91 63.39,14.86 130.15,10.22 194.19,1.26 -13.45,4.37 -27.3,7.76 -40.55,12.63 -24.06,8.3 -47.83,18.11 -73.63,21.68 -37.97,5.48 -76.68,4.29 -114.96,2.73 -8.44,0.11 -16.86,-0.5 -25.22,-1.44 7.47,4.83 15.77,8.82 21.89,15.07 13.35,12.9 24.23,28.65 42.57,36.79 24.04,10.35 51.78,11.43 78.07,10.13 -13.02,12.92 -28.73,24.56 -47.57,30.36 -15.6,4.8 -32.52,5.14 -48.78,3.27 -24.87,-2.43 -49.49,-6.72 -74.48,-7.99 -28,-0.52 -56.58,-1.26 -83.97,4.42 27.8,2.89 53.96,13.28 76.56,27.45 23.26,13.87 43.6,32.23 70.74,40.51 10.83,4.56 23.07,6.34 33.82,10.74 -60.2,2.19 -121.53,10.06 -176.19,33.18 -29.39,12.97 -57.76,31.15 -72.54,57.54 15.33,-8.44 32.56,-13.99 50.31,-17.1 40.92,-6.85 83.43,-1.99 122.79,9.09 12.67,3.14 24.49,8.64 37.5,10.69 23.55,3.83 46,-5.91 69.23,-7.42 -18.45,8.66 -31.45,25.17 -52.48,29.64 -16.8,2.55 -33.99,1.56 -50.83,3.83 -52.81,5.12 -105.78,19.17 -148.73,47.18 -31.24,20.28 -57.06,47.91 -69.81,80.25 36.09,-17.64 78.48,-22.8 119.32,-22.82 48.58,0.79 96.54,10.46 141.85,25.44 -5.06,3.72 -10.28,7.33 -14.84,11.53 -24.58,20.68 -60.9,28.19 -94.2,23.52 -13.54,-2.43 -27.38,-2.73 -41.05,-4.35 -28.83,-1.02 -57.16,9.02 -79.63,24.27 23.48,-4.6 48.12,-0.93 70.23,6.75 31.06,10.26 58.83,26.91 90.61,35.61 14.69,2.88 29.43,6.34 44.57,6.58 25.36,0.66 51.16,-0.45 75.45,-7.31 13.85,-2.28 26.41,-7.83 39.83,-11.21 7.86,-3.09 15.56,-6.49 23.63,-9.16 -9.16,11.5 -22,20.82 -36.2,27.27 -43.81,15.63 -92.39,18.47 -135.19,36.67 -22.6,11.05 -49.38,12.47 -74.74,12.25 -19.93,0.47 -39.79,-2.05 -59.25,-5.61 17.71,25.71 47.4,43.33 78.67,54.69 44.26,16.58 92.31,22.53 139.13,31.04 16.86,3.31 34.19,6.2 49.65,13.22 6.07,2.62 11.16,6.65 15.02,11.48 -17.75,-3.45 -36.34,-3.77 -54.11,-0.27 -20.8,3.95 -40.12,12.14 -60.82,16.4 12.9,4.28 23.71,12 35.82,17.64 15.27,7.69 32.17,12.79 49.57,15.29 30.19,3.32 61.02,-0.54 89.56,-9.47 8.42,-2.68 17.42,0.2 24.54,4.29 15.79,8.84 27.36,22.26 37.17,35.99 2.29,2.6 3.18,6.9 7.41,7.64 -2.7,-108.24 9.95,-216.14 23.22,-323.61 0.41,-6.14 1.4,-12.23 2.95,-18.23 1.59,105.85 12.59,211.35 24.37,316.66 1.03,13.24 5.45,26.07 5.47,39.38 2.25,13.1 3.1,26.32 4.29,39.51 1.88,9.7 0.33,19.96 5.01,29.19 3.94,-7.69 8.75,-14.98 13.04,-22.51 9.47,-13.44 15.64,-28.6 27.01,-41 5.57,-6.2 9.1,-13.49 14.14,-19.98 62.38,-83.81 137.29,-160.09 217.79,-231.04 9.55,-7.56 17.69,-16.38 27.71,-23.5 15.25,13.83 30.42,28.03 48.29,39.42 7.51,3.34 16.3,3.34 24.56,3.68 20.39,16.87 42.12,33.42 68.16,43.28 34.42,11.19 73.4,11.25 107.89,0.13 26.17,-9.83 48.04,-26.39 68.43,-43.41 9.95,-0.56 21.52,0 29.2,-6.54 16.26,-11.95 31.9,-24.63 45.85,-38.63 17.54,-18.36 34.65,-38.55 40.06,-62.47 3.38,-13.08 0.6,-27.42 -8.07,-38.55 -24.5,-28.37 -39.44,-62.02 -50.52,-95.9 37.62,-9.18 75.26,-18.36 113.33,-26.03 -9.55,-37.1 -19.15,-74.18 -28.83,-111.26 -4.35,-13.47 -8.38,-27.06 -11.08,-40.85 -2.7,-13.37 -8.07,-26.3 -9.6,-39.83 4.77,-7.17 10.83,-13.64 16.16,-20.5 39.87,-36.88 73.73,-79.16 97.03,-125.7 10.52,-21.52 19.52,-44.09 21.75,-67.53 1.92,-22.4 -14.2,-42.36 -33.08,-56.12 -11.8,-43.42 -23.94,-86.81 -35.78,-130.23 49.32,-20.3 87.46,-57.38 112.08,-99.24 17.6,-29.39 29.1,-61.28 37.21,-93.6 -35.91,2.16 -69.67,14.3 -102.67,26.01 -43.09,15.88 -85.1,33.96 -126.25,53.36 -6.05,18.63 -14.63,36.6 -24.74,53.84 -14.82,25.46 -33.72,49.6 -59.53,67.53 -14.53,10.8 -30.6,19.78 -46.47,28.94 -6.07,5.68 -14.03,9.36 -22.64,11.21 5.26,-2.96 8.56,-8.19 14.49,-10.29 7.1,-2.59 12.51,-7.53 18.35,-11.71 38.14,-30 64.36,-70.21 79.51,-112.68 8.36,-21.97 10.42,-45.33 10.48,-68.32 -0.27,-26.32 -5.1,-53.97 -22.29,-76.23 -19.27,-22.65 -53.49,-36.54 -85.83,-30.69 -33.6,6.31 -62.01,27.34 -78.03,53.43 -2.35,-8.44 -4.79,-16.89 -6.46,-25.47 -6.54,-30.54 -2.81,-63.1 13.37,-90.98 7.16,-12.58 16.05,-25.87 31.16,-32.16 8.73,-3.61 18.24,-0.72 25.82,3.59 -9.62,-10.33 -23.4,-19.74 -39.5,-19.08 -13.64,-0.18 -25.86,6.4 -35.93,13.8 -26.25,21.24 -48.54,46.67 -61.68,75.87 5.65,-42.2 -1.05,-87.89 -29.18,-123.57z"/>
   <path class="fil0" d="M723.98 374.67c12.09,3.4 24.33,6.36 36.34,10.01 -1.15,-0.07 -3.45,-0.25 -4.58,-0.34 7.37,19.06 13.81,39.27 29.08,54.88 27.12,29.21 56.01,57.13 83.43,86.11l-1.96 -0.02c-24.08,-20.57 -48.15,-41.18 -73.16,-60.92 -10.57,-8.79 -22.64,-16.24 -31.86,-26.23 -17.36,-18.59 -29.14,-40.73 -37.29,-63.49z"/>
   <path class="fil0" d="M969.74 412.79c16.16,-3.27 32.34,2.95 45.38,10.87 12.44,7.13 23.01,17.48 27.2,30.15 6.01,18.31 0.16,38.12 -10.11,54.38 1.88,-8.57 6.25,-17.19 3.73,-26.05 -5.12,-20.48 -20.94,-39.79 -43.87,-47.52 -15.37,-5.41 -32.4,-4.33 -48.45,-2.23 6.07,-8.68 14.36,-17.01 26.13,-19.6z"/>
   <path class="fil0" d="M1029.46 512.2c0.08,-0.14 0.29,-0.41 0.37,-0.56 -0.08,0.14 -0.29,0.41 -0.37,0.56z"/>
   <path class="fil0" d="M786.45 530.22c2.99,-5.86 5.37,-12 9.64,-17.3 -11.6,42.2 -23.61,84.35 -34.79,126.64 -16.24,12.38 -30.95,28.37 -33.2,47.72 -1.69,15.72 4.58,30.94 8.23,46.12 -12.11,38.84 -24.85,77.61 -34.03,117.1 -4.85,18.42 -7.06,37.22 -11.04,55.78 -1.34,13.55 -5.88,26.77 -5.65,40.46 6.71,-7.74 9.41,-17.39 15.87,-25.24 6.21,-7.67 11.37,-15.92 17.48,-23.66 -0.58,9.97 -0.37,19.94 0.08,29.91 -2.27,55.26 5.16,110.52 17.56,164.65 14.14,59.88 37.06,118.29 69.54,172.52 6.56,10.64 12.67,21.54 20.84,31.33 -18.78,16.69 -37.89,33.15 -55.68,50.66 -19.19,-28.33 -33.18,-59.07 -44.8,-90.29 -15.58,-42.45 -26.1,-86.2 -33.93,-130.23 -7.8,-44.93 -13.02,-90.26 -14.55,-135.69 -7.74,23.32 -10.92,47.72 -13.76,71.84 -6.6,66.47 -2.02,133.34 6.11,199.54 6.34,48.76 14.9,97.28 25.86,145.41 0.62,5.1 4.77,11.35 -0.6,15.47 -17.33,17.68 -33.68,36.07 -50.58,54.09 -30.09,-163.54 -34.94,-330.62 -13.66,-495.2 0.12,-14.97 4.21,-29.57 6.48,-44.32 2.75,-18.86 6.67,-37.57 10.17,-56.32 7.12,-24.07 12.4,-48.58 21.01,-72.31 26.33,-72.58 54.48,-144.69 86.69,-215.46 9.76,-21.23 19.65,-42.47 30.71,-63.22z"/>
   <path class="fil0" d="M832.84 521.29c6.65,1.33 13.31,2.68 20.04,3.74 -5.26,28.28 -11.04,56.52 -15.08,84.94 22.84,9.56 40.16,26.36 56.36,42.87 -22.23,-5.64 -45.79,-6.16 -68.66,-3.74 29.02,6.68 56.36,19.08 78.91,36.34 14.73,11.35 26.31,25.35 37,39.63 5.72,7.74 11.95,15.24 16.61,23.53 -19.85,-19.78 -39.37,-40.35 -63.89,-55.93 -32.87,-20.12 -73.75,-30.6 -113.89,-28.35 21.23,3.23 40.53,11.84 59,21.18 1.24,12.45 1.05,25.28 6,37.21 10.44,23.7 26.39,47.32 52.64,60 22.02,10.73 46.04,17.82 69.85,24.88 6.93,12.07 13.06,24.52 17.44,37.51 -0.47,-0.84 -1.4,-2.55 -1.86,-3.4 -7.51,-1.04 -14.92,-2.41 -22.35,-3.74 -0.33,-1.24 -1.01,-3.72 -1.34,-4.96 -37.13,-12.61 -72.95,-29.23 -103.04,-52.21 -13.04,-9.47 -23.03,-21.47 -32.65,-33.51 1.57,5.25 3.61,10.38 5.94,15.43 -15.23,-16.06 -30.11,-32.54 -40.61,-51.38 1.49,20.8 10.52,40.71 21.58,58.98 17.93,28.87 40.74,55.28 65.38,80.04 16.12,15.06 32.42,30.6 53.28,40.76l-1.65 0.86c-13.46,-4.65 -25.84,-11.25 -38.38,-17.46 -12.96,-6.25 -24.87,-14.48 -33.68,-24.94 -37.27,-42.18 -71.96,-88.3 -85.27,-140.99 -5.51,-19.13 1.16,-39.94 15.75,-54.8 11.45,-13.11 27.92,-22.12 38.86,-35.55 -5.86,-1.4 -11.93,-1.02 -17.81,-0.04 8.89,-32.23 17.21,-64.6 25.51,-96.94z"/>
   <path class="fil0" d="M1285.22 526.73c7.18,2.07 14.61,3.54 21.69,5.95 2.91,4.47 4.04,9.63 5.96,14.48 7.37,19.94 14.69,39.9 21.96,59.88 1.48,4.24 4.81,7.67 7.97,11.05 7.3,7.73 14.4,15.59 21.81,23.26 -17.56,5.19 -34.46,11.91 -51.22,18.79 -65.38,27.7 -126.71,64.86 -172.58,114.5 -0.99,-3.75 -1.94,-7.51 -2.93,-11.25 16.32,-26.79 33.14,-53.79 55.8,-76.98 -4.95,7.69 -11.66,14.57 -15,23 -2.37,5.98 -1.9,12.41 -1.82,18.63 39.54,-36.83 87.42,-67.33 140.88,-86.97 -17.93,-3.81 -36.42,-0.67 -54,3.02 9.88,-11.71 22.68,-21.52 37.25,-28.6 2.81,-2.17 10.24,-3.07 8.61,-7.29 -8.87,-26.98 -15.79,-54.42 -24.37,-81.46z"/>
   <path class="fil0" d="M949.82 680.68c35.35,6.9 69.36,18.07 104.07,27.02 10.36,2.57 21.46,6.49 32.23,3.18 35.35,-9.92 69.42,-24.16 106.42,-28.98l0.58 0.07c-0.64,2.14 -3.96,2.07 -5.78,3.04 -28.87,8.59 -53.67,24.65 -77.3,40.98 -8.38,1.64 -17.21,0.22 -25.78,0.56 -15.04,-0.41 -30.25,0.77 -45.19,-0.65 -26.43,-18.97 -55.49,-35.99 -88.53,-44.84l-0.72 -0.38z"/>
   <path class="fil0" d="M894.35 723.83c20.57,12.92 37.68,29.75 51.9,47.95 -13.31,-3.05 -26.54,-7.47 -37.76,-14.53 -11.68,-7.64 -15.37,-21.31 -14.14,-33.42z"/>
   <path class="fil0" d="M1259.26 771.78c14.22,-18.18 31.33,-35.03 51.9,-47.95 1.26,12.14 -2.5,25.89 -14.26,33.49 -11.21,7.02 -24.37,11.41 -37.64,14.46z"/>
   <path class="fil0" d="M1327.28 866.24c-1.77,9.95 -7.12,19.04 -10.52,28.6 -7.76,22.01 -18.51,43.15 -25.57,65.34 -20.06,52.06 -40.51,103.98 -60.82,155.96 -0.74,1.38 -0.76,2.77 -0.08,4.15 14.88,31.98 30.42,63.74 45.4,95.67 -22.66,-28.55 -43.52,-58.23 -65.73,-87.08 -1.79,-2.57 -4.09,-4.94 -5.08,-7.83 40.63,-84.99 82.34,-169.61 122.39,-254.81z"/>
   <path class="fil0" d="M897.92 893.68c9.31,-0.25 18.63,-0.18 27.94,-0.61 -0.37,0.18 -1.09,0.54 -1.44,0.74 -3.34,0.2 -6.64,0.32 -9.97,0.4 10.01,11.61 21.03,22.6 29.86,34.96 19.6,25.12 34.26,52.91 44.86,81.8 -5.72,8.79 -12.28,17.19 -20.41,24.42 -20.47,-48.31 -41.38,-96.89 -70.84,-141.69z"/>
   <path class="fil0" d="M944.35 1185.17c31.97,-61.86 56.27,-127.43 63.56,-195.25 1.34,16.4 -1.01,32.8 -2.25,49.17 -2.37,27.11 -4.71,54.42 -12.4,80.88 -14.94,40.42 -39.62,78.13 -48.6,120.17 -2.72,13.82 9,24.74 16.45,35.75 11.84,17.71 28.54,32.32 43.93,47.66 5.86,5.8 13.46,9.97 21.19,13.64 -11.83,4.38 -24.95,10.44 -38.03,6.72 -20.51,-12.45 -37.52,-28.76 -53.86,-45.11 -11.91,-12.54 -19.87,-27.9 -23.22,-43.85 -1.67,-10.64 0.64,-21.88 8.17,-30.56 10.19,-12.11 17.79,-25.65 25.05,-39.22z"/>
   <path class="fil0" d="M987.51 1238.06c0.31,3.68 -0.52,7.76 2.15,10.98 0.78,0.43 2.33,1.29 3.12,1.71 6.29,-2.5 13.52,-6.65 20.06,-2.08 17.64,11.57 28.44,29.01 38.86,45.51 0.1,1.19 0.29,3.58 0.39,4.76 -6.97,-2.55 -10.96,-8.41 -16.14,-12.86 -6.58,-5.8 -10.67,-13.42 -17.66,-18.86 -8.79,-7.38 -22.21,-8.52 -30.31,-16.69 -2.29,-3.86 -0.39,-8.37 -0.45,-12.45z"/>
   <path class="fil0" d="M1022.53 1358.41c11.06,-3.99 21.65,-8.97 33.04,-12.25 0.31,10.22 6.5,19.71 14.14,27.18 15.25,12.13 36.26,18.27 56.79,17.98 -1.13,1.81 -2.27,3.66 -3.38,5.52 -7.66,1.4 -15.52,3.75 -23.4,2.3 -11.78,-1.85 -23.88,-3.99 -34.03,-9.81 -15.6,-8.97 -29.08,-20.3 -43.15,-30.92z"/>
   <path class="fil1" d="M1015.14 103.18c28.13,35.68 34.83,81.37 29.18,123.57 13.15,-29.19 35.43,-54.63 61.68,-75.87 10.07,-7.4 22.29,-13.98 35.93,-13.8 16.1,-0.67 29.88,8.75 39.5,19.08 -7.57,-4.31 -17.09,-7.2 -25.82,-3.59 -15.11,6.29 -24,19.58 -31.16,32.16 -16.18,27.88 -19.91,60.44 -13.37,90.98 1.67,8.59 4.11,17.03 6.46,25.47 16.01,-26.08 44.43,-47.12 78.03,-53.43 32.34,-5.86 66.55,8.03 85.83,30.69 17.19,22.26 22.02,49.91 22.29,76.23 -0.06,23 -2.13,46.35 -10.48,68.32 -15.15,42.47 -41.37,82.68 -79.51,112.68 -5.84,4.19 -11.25,9.13 -18.35,11.71 -5.92,2.1 -9.22,7.33 -14.49,10.29 -2.06,0.95 -4.13,1.92 -6.15,2.89 8.73,-12.29 11.87,-26.52 15.68,-40.35 3.42,-8.8 2.91,-18.22 5.06,-27.24 2.27,-9.95 2.15,-20.14 3.43,-30.18 -10.4,10.92 -21.63,21.5 -35.68,28.94 -16.36,10.46 -34.67,18.51 -53.76,24.45 -12.36,3.11 -24.74,7.08 -37.78,6.79 -15.75,0.81 -31.62,-0.9 -47.24,1.31 0.85,-4.26 2.44,-8.39 5.06,-12.09 0.08,-0.14 0.29,-0.41 0.37,-0.56 0.6,-0.86 1.78,-2.59 2.37,-3.45 10.28,-16.26 16.12,-36.08 10.11,-54.38 -4.19,-12.67 -14.75,-23.01 -27.2,-30.15 -13.04,-7.92 -29.22,-14.14 -45.38,-10.87 -11.76,2.59 -20.06,10.92 -26.13,19.6 -61.25,-15.41 -122,-32.43 -183.29,-47.72 -12.01,-3.65 -24.25,-6.61 -36.34,-10.01 8.15,22.76 19.94,44.9 37.29,63.49 9.22,9.99 21.3,17.44 31.86,26.23 25.01,19.74 49.07,40.35 73.16,60.92 -4.48,0.07 -8.96,0.13 -13.41,-0.29 -6.73,-1.06 -13.39,-2.41 -20.04,-3.74 -8.3,32.34 -16.61,64.71 -25.51,96.94 5.88,-0.99 11.95,-1.37 17.81,0.04 -10.94,13.44 -27.4,22.44 -38.86,35.55 -14.59,14.86 -21.26,35.66 -15.75,54.8 13.31,52.69 48,98.81 85.27,140.99 8.81,10.46 20.72,18.68 33.68,24.94 12.55,6.22 24.93,12.81 38.38,17.46l-2 1.06c-9.31,0.43 -18.63,0.36 -27.94,0.61 29.47,44.81 50.37,93.39 70.84,141.69 8.13,-7.22 14.69,-15.63 20.41,-24.42 7.22,-10.58 13.23,-21.7 19.48,-32.7 -0.35,3.88 -0.64,7.76 -0.74,11.66 -7.28,67.82 -31.59,133.39 -63.56,195.25 -7.26,13.56 -14.86,27.11 -25.05,39.22 -7.53,8.68 -9.84,19.92 -8.17,30.56 3.34,15.95 11.31,31.31 23.22,43.85 16.34,16.35 33.35,32.66 53.86,45.11 13.08,3.72 26.21,-2.34 38.03,-6.72 13.89,-2.35 26.74,-7.98 37.74,-15.65 5.14,-4.53 5.32,-11.39 7.37,-17.16 6.52,-19.94 10.52,-40.4 14.3,-60.85 2.44,-24.36 5.1,-48.76 4.73,-73.25 -0.37,-15.52 0.89,-31.13 -0.91,-46.6 -12.03,5.82 -23.55,12.5 -36.03,17.61 0.45,-22.8 -4.4,-45.34 -4.54,-68.11 -0.5,-16.76 -3.76,-33.36 -3.9,-50.12 0,-12.06 -1.88,-24 -3.01,-35.99 -1.55,-14.35 -0.8,-28.83 -2.93,-43.14 -2.75,-18.49 -1.78,-37.17 -4.15,-55.66 -1.18,-9.59 -2.17,-19.19 -2.29,-28.83 -0.12,-15 -2.77,-29.86 -3.76,-44.81 -0.43,-6.09 0.12,-12.36 -2.33,-18.16 -11.02,-28.91 -28.6,-55.5 -47.13,-81.19 -8.91,-11.84 -17.97,-23.68 -28.85,-34.24 33.04,8.86 62.09,25.87 88.53,44.84 14.94,1.42 30.15,0.23 45.19,0.65 8.56,-0.34 17.4,1.08 25.78,-0.56 23.63,-16.33 48.43,-32.39 77.3,-40.98 1.82,-0.97 5.14,-0.9 5.78,-3.04l-0.58 -0.07c1.49,-0.32 3.01,-0.65 4.56,-0.97 -1.11,1.83 -2.25,3.66 -3.43,5.48 -22.66,23.19 -39.48,50.2 -55.8,76.98 0.99,3.74 1.94,7.49 2.93,11.25 45.87,-49.64 107.2,-86.79 172.58,-114.5 16.76,-6.88 33.66,-13.6 51.22,-18.79 -7.41,-7.67 -14.51,-15.54 -21.81,-23.26 -3.16,-3.38 -6.48,-6.81 -7.97,-11.05 -7.26,-19.98 -14.59,-39.94 -21.96,-59.88 -1.92,-4.85 -3.05,-10.01 -5.96,-14.48 -7.08,-2.41 -14.51,-3.88 -21.69,-5.95 -11.8,-2.93 -23.5,-6.18 -35.27,-9.22 25.82,-17.93 44.72,-42.08 59.53,-67.53 10.11,-17.25 18.7,-35.21 24.74,-53.84 41.15,-19.4 83.16,-37.48 126.25,-53.36 33,-11.71 66.76,-23.86 102.67,-26.01 -8.11,32.32 -19.61,64.21 -37.21,93.6 -24.62,41.86 -62.76,78.94 -112.08,99.24 11.85,43.42 23.98,86.81 35.78,130.23 18.88,13.76 35,33.72 33.08,56.12 -2.23,23.44 -11.23,46.01 -21.75,67.53 -23.3,46.55 -57.16,88.82 -97.03,125.7 -5.32,6.86 -11.39,13.33 -16.16,20.5 1.53,13.53 6.89,26.46 9.6,39.83 2.7,13.8 6.73,27.38 11.08,40.85 9.68,37.08 19.27,74.16 28.83,111.26 -38.07,7.67 -75.71,16.85 -113.33,26.03 11.08,33.88 26.02,67.53 50.52,95.9 8.67,11.14 11.45,25.47 8.07,38.55 -5.41,23.91 -22.51,44.11 -40.06,62.47 -13.95,13.99 -29.59,26.68 -45.85,38.63 -7.68,6.54 -19.25,5.98 -29.2,6.54 -20.39,17.01 -42.26,33.58 -68.43,43.41 -34.48,11.12 -73.46,11.07 -107.89,-0.13 -26.04,-9.86 -47.77,-26.41 -68.16,-43.28 -8.25,-0.34 -17.05,-0.34 -24.56,-3.68 -17.87,-11.39 -33.04,-25.58 -48.29,-39.42 -10.03,7.11 -18.16,15.94 -27.71,23.5 -80.5,70.95 -155.41,147.23 -217.79,231.04 -5.04,6.49 -8.56,13.78 -14.14,19.98 -11.37,12.4 -17.54,27.56 -27.01,41 -4.29,7.53 -9.1,14.82 -13.04,22.51 -4.68,-9.23 -3.14,-19.49 -5.01,-29.19 -1.2,-13.19 -2.04,-26.41 -4.29,-39.51 -0.02,-13.31 -4.44,-26.14 -5.47,-39.38 -11.78,-105.31 -22.78,-210.81 -24.37,-316.66 -1.55,6 -2.54,12.09 -2.95,18.23 -13.27,107.47 -25.92,215.37 -23.22,323.61 -4.23,-0.74 -5.12,-5.03 -7.41,-7.64 -9.8,-13.73 -21.38,-27.15 -37.17,-35.99 -7.12,-4.1 -16.12,-6.97 -24.54,-4.29 -28.54,8.93 -59.37,12.79 -89.56,9.47 -17.4,-2.5 -34.3,-7.6 -49.57,-15.29 -12.11,-5.64 -22.93,-13.37 -35.82,-17.64 20.7,-4.26 40.01,-12.45 60.82,-16.4 17.77,-3.5 36.36,-3.18 54.11,0.27 -3.86,-4.83 -8.96,-8.86 -15.02,-11.48 -15.46,-7.02 -32.79,-9.92 -49.65,-13.22 -46.82,-8.52 -94.86,-14.46 -139.13,-31.04 -31.26,-11.35 -60.96,-28.98 -78.67,-54.69 19.46,3.56 39.31,6.07 59.25,5.61 25.36,0.22 52.15,-1.2 74.74,-12.25 42.8,-18.2 91.38,-21.04 135.19,-36.67 14.2,-6.45 27.03,-15.77 36.2,-27.27 -8.07,2.68 -15.77,6.07 -23.63,9.16 -13.41,3.38 -25.98,8.93 -39.83,11.21 -24.29,6.86 -50.08,7.98 -75.45,7.31 -15.15,-0.23 -29.88,-3.7 -44.57,-6.58 -31.78,-8.69 -59.56,-25.35 -90.61,-35.61 -22.1,-7.69 -46.74,-11.35 -70.23,-6.75 22.47,-15.25 50.81,-25.3 79.63,-24.27 13.66,1.62 27.51,1.92 41.05,4.35 33.31,4.67 69.63,-2.84 94.2,-23.52 4.56,-4.2 9.78,-7.81 14.84,-11.53 -45.32,-14.98 -93.28,-24.65 -141.85,-25.44 -40.84,0.02 -83.23,5.17 -119.32,22.82 12.75,-32.34 38.57,-59.97 69.81,-80.25 42.94,-28.01 95.92,-42.06 148.73,-47.18 16.84,-2.26 34.03,-1.28 50.83,-3.83 21.03,-4.47 34.03,-20.98 52.48,-29.64 -23.24,1.51 -45.69,11.25 -69.23,7.42 -13,-2.05 -24.83,-7.55 -37.5,-10.69 -39.35,-11.08 -81.86,-15.94 -122.79,-9.09 -17.75,3.11 -34.98,8.66 -50.31,17.1 14.78,-26.39 43.15,-44.57 72.54,-57.54 54.67,-23.12 116,-30.99 176.19,-33.18 -10.75,-4.4 -22.99,-6.18 -33.82,-10.74 -27.14,-8.28 -47.48,-26.64 -70.74,-40.51 -22.6,-14.17 -48.76,-24.56 -76.56,-27.45 27.38,-5.68 55.97,-4.94 83.97,-4.42 24.99,1.28 49.61,5.57 74.48,7.99 16.26,1.87 33.18,1.53 48.78,-3.27 18.84,-5.8 34.54,-17.44 47.57,-30.36 -26.29,1.29 -54.03,0.22 -78.07,-10.13 -18.35,-8.14 -29.22,-23.89 -42.57,-36.79 -6.13,-6.25 -14.43,-10.24 -21.89,-15.07 8.36,0.93 16.78,1.54 25.22,1.44 38.28,1.56 76.99,2.75 114.96,-2.73 25.8,-3.58 49.57,-13.38 73.63,-21.68 13.25,-4.87 27.1,-8.26 40.55,-12.63 -64.03,8.96 -130.79,13.6 -194.19,-1.26 -39.52,-8.98 -75.59,-28.74 -101.92,-55.91 23.71,6.72 46.02,17.55 70.93,20.88 24,4.26 49.51,-1.62 69.32,-13.83 18.86,-11.43 33.91,-26.86 47.3,-42.96 14.82,-15.7 38.63,-21.9 60.88,-24.85 12.34,-1.8 24.87,-2.34 37.37,-2.61 -21.17,-16.73 -48.5,-26.82 -76.25,-31.98 -31.84,-5.57 -64.98,-4.98 -96.66,1.08 15.06,-13.4 32.89,-24.06 50.15,-35.16 23.5,-11.34 48.04,-22.64 75.1,-25.67 10.34,-1.45 20.8,-0.48 31.22,-0.97 15.99,-0.59 31.12,4.98 45.21,10.94 -13.14,-11.84 -28.64,-22.42 -47.07,-27.07 -6.11,-2.48 -13.29,-1.71 -19.07,-4.81 15.08,-7.55 32.58,-10.44 49.69,-11.93 18.98,-1.24 39.83,0.99 54.52,12.52 -8.21,-12.29 -15.31,-25.78 -15.25,-40.28 -0.52,-9.5 2.79,-18.81 7.64,-27.2 7.3,12.33 14.63,25.84 28.62,33.45 7.64,4.49 18.59,4.17 25.65,-1.06 5.7,-3.9 12.09,-8.84 12.03,-15.68 -1.9,-8.77 -9.51,-15.25 -15.89,-21.77 -20.82,-19.31 -40.82,-40.66 -48.85,-66.74 5.08,3.74 8.73,8.66 13.62,12.56 14.8,12.04 33.6,19.76 53.01,24.38 22.2,5.61 45.81,7.15 67.05,15.59 -40.39,-40.64 -63.44,-92.04 -76.11,-144.08 20.64,1.06 40.65,6.09 60.16,11.77 26.66,8.16 52.77,17.62 78.29,28.13 -28.07,-47.16 -39.95,-101.67 -33.22,-154.47 2.89,-11.19 4.46,-22.87 10.3,-33.29 0.14,-1.08 0.41,-3.27 0.54,-4.35 0.35,0.13 1.01,0.38 1.34,0.5 3.55,12.9 9.93,24.99 15.66,37.21 6.15,8.39 11.68,17.14 17.91,25.49 12.84,14.61 28.62,28.24 48.64,35.03 19.07,6.61 40.88,5.77 59.82,-0.74 -22.12,-5.5 -36.36,-23.16 -46.2,-40.17 -9.76,-14.64 -10.55,-33.67 -1.53,-48.74 7.57,-13.69 20.35,-24.29 30.97,-36.11 6.79,22.17 15.15,44.61 31.37,63.06 6.15,6.63 13.35,12.92 22.45,16.4 8.19,3.29 18.8,2.59 25.36,-3.16 32.52,-28.91 46.76,-70.28 45.87,-110.13zm-228.69 427.04l0 0c-11.06,20.75 -20.95,41.99 -30.71,63.22 -32.21,70.77 -60.36,142.88 -86.69,215.46 -8.61,23.73 -13.89,48.24 -21.01,72.31 -3.51,18.76 -7.43,37.46 -10.17,56.32 -2.27,14.75 -6.36,29.36 -6.48,44.32 -21.28,164.58 -16.43,331.66 13.66,495.2 16.9,-18.02 33.24,-36.42 50.58,-54.09 5.37,-4.11 1.22,-10.37 0.6,-15.47 -10.96,-48.13 -19.52,-96.65 -25.86,-145.41 -8.13,-66.2 -12.71,-133.07 -6.11,-199.54 2.85,-24.13 6.03,-48.53 13.76,-71.84 1.53,45.44 6.75,90.76 14.55,135.69 7.82,44.03 18.35,87.78 33.93,130.23 11.62,31.22 25.61,61.96 44.8,90.29 17.79,-17.52 36.9,-33.97 55.68,-50.66 13.19,-10.65 26.58,-21.09 40.45,-31.06 1.13,-9.47 -2,-19.47 1.8,-28.74 4.48,-12.79 16.01,-22.22 22.99,-33.88 24.52,-38.41 38.09,-81.22 49.14,-123.84 1.13,-9.67 6.19,-18.97 4.87,-28.78 -25.63,-46.64 -51.3,-93.37 -80.48,-138.44 -8.25,-13.4 -22.35,-22.92 -32.15,-35.34 -9.64,-10.82 -20.7,-20.61 -29.72,-31.84 -25.47,-29.7 -46.47,-62.34 -61.7,-96.94 -2.17,-4.62 -2.91,-9.68 -5.84,-13.99 -3.65,-15.18 -9.93,-30.4 -8.23,-46.12 2.25,-19.35 16.96,-35.34 33.2,-47.72 11.19,-42.29 23.2,-84.44 34.79,-126.64 -4.27,5.3 -6.64,11.44 -9.64,17.3zm472.82 241.56l0 0c13.27,-3.05 26.43,-7.44 37.64,-14.46 11.76,-7.6 15.52,-21.34 14.26,-33.49 -20.57,12.92 -37.68,29.77 -51.9,47.95zm68.02 94.46l0 0c-40.05,85.19 -81.76,169.81 -122.39,254.81 0.99,2.89 3.28,5.26 5.08,7.83 22.21,28.85 43.07,58.53 65.73,87.08 -14.98,-31.92 -30.52,-63.69 -45.4,-95.67 -0.68,-1.38 -0.66,-2.77 0.08,-4.15 20.31,-51.97 40.76,-103.89 60.82,-155.96 7.06,-22.19 17.81,-43.33 25.57,-65.34 3.4,-9.56 8.75,-18.65 10.52,-28.6zm-271.78 479.23l0 0 0.06 0.68c-11.39,3.29 -21.98,8.26 -33.04,12.25 14.07,10.62 27.55,21.95 43.15,30.92 10.15,5.82 22.25,7.96 34.03,9.81 7.88,1.45 15.75,-0.9 23.4,-2.3 1.11,-1.85 2.25,-3.7 3.38,-5.52l0.47 0c8.73,-14.64 13.39,-30.74 15.97,-46.98 -3.18,-4.37 -10.63,-3.93 -15.6,-6.29 -10.81,-4.82 -23.24,-4.22 -34.94,-3.18 -13,1.55 -24.21,8.12 -36.9,10.6z"/>
   <path class="fil1" d="M780.23 664.33c40.14,-2.25 81.02,8.23 113.89,28.35 24.52,15.58 44.04,36.15 63.89,55.93 13.39,14.79 27.61,29.66 35.56,47.39 5.35,29.09 10.13,58.3 13.99,87.58 -0.06,8.19 2.6,16.69 -0.6,24.65 -6.85,-21.15 -13.66,-42.31 -21.79,-63.11 -4.37,-12.99 -10.5,-25.44 -17.44,-37.51 -23.81,-7.06 -47.84,-14.16 -69.85,-24.88 -26.25,-12.68 -42.2,-36.31 -52.64,-60 -4.95,-11.93 -4.77,-24.76 -6,-37.21 -18.47,-9.34 -37.76,-17.95 -59,-21.18zm114.12 59.5l0 0c-1.24,12.11 2.46,25.78 14.14,33.42 11.23,7.06 24.45,11.48 37.76,14.53 -14.22,-18.2 -31.33,-35.03 -51.9,-47.95z"/>
   <path class="fil1" d="M823.94 747.31c9.62,12.04 19.6,24.04 32.65,33.51 30.09,22.98 65.91,39.6 103.04,52.21 0.33,1.24 1.01,3.72 1.34,4.96 1.98,7.58 4.42,15.06 6.25,22.65 -22.7,-7.13 -44.06,-17.17 -64.26,-28.56 -30.29,-17.44 -57.72,-40.26 -73.07,-69.33 -2.33,-5.05 -4.37,-10.19 -5.94,-15.43z"/>
   <path class="fil1" d="M987.51 1238.06c-0.89,-13.17 14.38,-23.23 28.66,-21.67 13.6,2.96 20.74,15.02 24.83,25.71 2.54,8.39 5.51,16.69 8.19,25.04 2.87,8.86 -0.37,18.2 2.5,27.02 -10.42,-16.49 -21.21,-33.94 -38.86,-45.51 -6.54,-4.56 -13.76,-0.41 -20.06,2.08 -0.78,-0.41 -2.33,-1.28 -3.12,-1.71 -2.66,-3.22 -1.84,-7.29 -2.15,-10.98z"/>
   <path class="fil2" d="M755.74 384.34c1.14,0.09 3.43,0.27 4.58,0.34 61.29,15.29 122.04,32.3 183.29,47.72 16.06,-2.1 33.08,-3.18 48.45,2.23 22.93,7.73 38.75,27.04 43.87,47.52 2.52,8.86 -1.86,17.48 -3.73,26.05 -0.6,0.86 -1.77,2.59 -2.37,3.45 -0.08,0.14 -0.29,0.41 -0.37,0.56 -2.62,3.7 -4.21,7.83 -5.06,12.09 15.62,-2.21 31.49,-0.5 47.24,-1.31 13.04,0.29 25.42,-3.68 37.78,-6.79 19.09,-5.95 37.39,-14 53.76,-24.45 14.05,-7.44 25.28,-18.02 35.68,-28.94 -1.28,10.04 -1.16,20.23 -3.43,30.18 -2.15,9.02 -1.63,18.43 -5.06,27.24 -3.82,13.83 -6.95,28.06 -15.68,40.35 2.02,-0.97 4.09,-1.94 6.15,-2.89 8.61,-1.85 16.57,-5.53 22.64,-11.21 15.87,-9.16 31.95,-18.15 46.47,-28.94 11.76,3.04 23.46,6.29 35.27,9.22 8.59,27.04 15.5,54.47 24.37,81.46 1.63,4.22 -5.8,5.12 -8.61,7.29 -14.57,7.08 -27.36,16.89 -37.25,28.6 17.58,-3.68 36.07,-6.83 54,-3.02 -53.47,19.64 -101.34,50.14 -140.88,86.97 -0.08,-6.22 -0.56,-12.65 1.82,-18.63 3.34,-8.43 10.05,-15.31 15,-23 1.18,-1.81 2.31,-3.65 3.43,-5.48 -1.55,0.32 -3.08,0.65 -4.56,0.97 -37,4.81 -71.07,19.06 -106.42,28.98 -10.77,3.31 -21.87,-0.61 -32.23,-3.18 -34.71,-8.95 -68.72,-20.12 -104.07,-27.02l0.72 0.38c10.88,10.56 19.93,22.4 28.85,34.24 18.53,25.69 36.11,52.28 47.13,81.19 2.46,5.8 1.9,12.07 2.33,18.16 0.99,14.95 3.63,29.8 3.76,44.81 0.12,9.65 1.11,19.24 2.29,28.83 2.37,18.49 1.4,37.17 4.15,55.66 2.13,14.3 1.38,28.78 2.93,43.14 1.14,11.98 3.01,23.93 3.01,35.99 0.14,16.76 3.4,33.36 3.9,50.12 0.14,22.76 4.99,45.31 4.54,68.11 12.48,-5.1 24,-11.78 36.03,-17.61 1.8,15.47 0.54,31.08 0.91,46.6 0.37,24.49 -2.29,48.88 -4.73,73.25 -3.78,20.44 -7.78,40.91 -14.3,60.85 -2.04,5.77 -2.23,12.63 -7.37,17.16 -11,7.67 -23.86,13.29 -37.74,15.65 -7.74,-3.66 -15.33,-7.83 -21.19,-13.64 -15.39,-15.34 -32.09,-29.95 -43.93,-47.66 -7.45,-11.01 -19.17,-21.94 -16.45,-35.75 8.98,-42.04 33.66,-79.75 48.6,-120.17 7.7,-26.46 10.03,-53.77 12.4,-80.88 1.24,-16.37 3.59,-32.77 2.25,-49.17 0.1,-3.9 0.39,-7.78 0.74,-11.66 -6.25,10.99 -12.26,22.12 -19.48,32.7 -10.61,-28.89 -25.26,-56.68 -44.86,-81.8 -8.83,-12.36 -19.85,-23.35 -29.86,-34.96 3.32,-0.07 6.62,-0.2 9.97,-0.4 0.35,-0.2 1.07,-0.56 1.44,-0.74l2 -1.06 1.65 -0.86c-20.86,-10.17 -37.17,-25.71 -53.28,-40.76 -24.64,-24.76 -47.44,-51.17 -65.38,-80.04 -11.06,-18.27 -20.1,-38.18 -21.58,-58.98 10.5,18.85 25.38,35.32 40.61,51.38 15.35,29.07 42.78,51.88 73.07,69.33 20.2,11.39 41.56,21.43 64.26,28.56 -1.84,-7.6 -4.27,-15.07 -6.25,-22.65 7.43,1.33 14.84,2.69 22.35,3.74 0.45,0.84 1.38,2.55 1.86,3.4 8.13,20.8 14.94,41.97 21.79,63.11 3.2,-7.96 0.54,-16.46 0.6,-24.65 -3.86,-29.28 -8.65,-58.5 -13.99,-87.58 -7.95,-17.73 -22.16,-32.61 -35.56,-47.39 -4.66,-8.3 -10.9,-15.79 -16.61,-23.53 -10.69,-14.28 -22.27,-28.28 -37,-39.63 -22.56,-17.27 -49.9,-29.66 -78.91,-36.34 22.87,-2.43 46.43,-1.9 68.66,3.74 -16.2,-16.51 -33.51,-33.31 -56.36,-42.87 4.04,-28.42 9.82,-56.66 15.08,-84.94 4.46,0.41 8.94,0.36 13.41,0.29l1.96 0.02c-27.43,-28.98 -56.32,-56.9 -83.43,-86.11 -15.27,-15.61 -21.71,-35.82 -29.08,-54.88zm231.77 853.72l0 0c0.06,4.08 -1.84,8.59 0.45,12.45 8.11,8.17 21.52,9.31 30.31,16.69 7,5.44 11.08,13.06 17.66,18.86 5.18,4.46 9.16,10.31 16.14,12.86 -0.1,-1.19 -0.29,-3.58 -0.39,-4.76 -2.87,-8.82 0.37,-18.16 -2.5,-27.02 -2.68,-8.35 -5.65,-16.65 -8.19,-25.04 -4.09,-10.69 -11.23,-22.74 -24.83,-25.71 -14.28,-1.56 -29.55,8.5 -28.66,21.67z"/>
   <path class="fil2" d="M736.32 733.39c2.93,4.31 3.67,9.38 5.84,13.99 15.23,34.6 36.24,67.25 61.7,96.94 9.02,11.23 20.08,21.02 29.72,31.84 9.8,12.41 23.9,21.94 32.15,35.34 29.18,45.08 54.85,91.8 80.48,138.44 1.32,9.81 -3.73,19.12 -4.87,28.78 -11.04,42.61 -24.62,85.43 -49.14,123.84 -6.97,11.66 -18.51,21.09 -22.99,33.88 -3.8,9.27 -0.66,19.28 -1.8,28.74 -13.87,9.97 -27.26,20.41 -40.45,31.06 -8.17,-9.79 -14.28,-20.7 -20.84,-31.33 -32.48,-54.24 -55.41,-112.64 -69.54,-172.52 -12.4,-54.13 -19.83,-109.39 -17.56,-164.65 -0.45,-9.97 -0.66,-19.94 -0.08,-29.91 -6.11,7.74 -11.27,15.99 -17.48,23.66 -6.46,7.85 -9.16,17.5 -15.87,25.24 -0.23,-13.69 4.31,-26.91 5.65,-40.46 3.98,-18.56 6.19,-37.37 11.04,-55.78 9.18,-39.49 21.92,-78.26 34.03,-117.1z"/>
   <path class="fil2" d="M1055.5 1345.48c12.69,-2.48 23.9,-9.05 36.9,-10.6 11.7,-1.04 24.12,-1.63 34.94,3.18 4.97,2.35 12.42,1.92 15.6,6.29 -2.58,16.24 -7.24,32.34 -15.97,46.98l-0.47 0c-20.53,0.29 -41.54,-5.86 -56.79,-17.98 -7.64,-7.47 -13.83,-16.96 -14.14,-27.18l-0.06 -0.68z"/>
   <path class="fil3" d="M1460.49 342.78c33,-11.71 66.76,-23.86 102.67,-26.01 -8.11,32.32 -19.6,64.21 -37.21,93.6 -24.62,41.86 -62.76,78.94 -112.08,99.24 11.84,43.42 23.98,86.81 35.78,130.23 18.88,13.76 35,33.72 33.08,56.12 -2.23,23.44 -11.23,46.01 -21.75,67.53 -23.3,46.55 -57.16,88.82 -97.03,125.7 -5.32,6.86 -11.39,13.33 -16.16,20.5 1.53,13.53 6.89,26.46 9.6,39.83 2.7,13.8 6.73,27.38 11.08,40.85 9.68,37.08 19.27,74.16 28.83,111.26 -38.07,7.67 -75.71,16.85 -113.33,26.03 11.08,33.88 26.02,67.53 50.52,95.9 8.67,11.14 11.45,25.47 8.07,38.55 -5.41,23.91 -22.51,44.11 -40.06,62.47 -13.95,13.99 -29.59,26.68 -45.85,38.63 -7.68,6.54 -19.25,5.98 -29.2,6.54 -20.39,17.01 -42.26,33.58 -68.43,43.4 -34.48,11.12 -73.46,11.07 -107.89,-0.13 -26.04,-9.86 -47.77,-26.41 -68.16,-43.28 -8.25,-0.34 -17.04,-0.34 -24.56,-3.68 -17.87,-11.39 -33.04,-25.58 -48.29,-39.42 -10.03,7.11 -18.16,15.94 -27.71,23.5 -80.5,70.95 -155.41,147.23 -217.79,231.04 -5.04,6.49 -8.56,13.78 -14.14,19.98 -11.37,12.4 -17.54,27.56 -27.01,41 -4.29,7.53 -9.1,14.82 -13.04,22.51 -4.68,-9.23 -3.14,-19.49 -5.01,-29.19 -1.2,-13.19 -2.04,-26.41 -4.29,-39.51 -0.02,-13.31 -4.44,-26.14 -5.47,-39.38 -11.78,-105.31 -22.78,-210.81 -24.37,-316.66 -1.55,6 -2.54,12.09 -2.95,18.24 -13.27,107.47 -25.92,215.37 -23.22,323.61 -4.23,-0.74 -5.12,-5.03 -7.41,-7.64 -9.8,-13.73 -21.38,-27.15 -37.17,-35.99 -7.12,-4.1 -16.12,-6.97 -24.54,-4.29 -28.54,8.93 -59.37,12.79 -89.56,9.47 -17.4,-2.5 -34.3,-7.6 -49.57,-15.29 -12.11,-5.64 -22.93,-13.37 -35.82,-17.64 20.7,-4.26 40.01,-12.45 60.82,-16.4 17.77,-3.5 36.36,-3.18 54.11,0.27 -3.86,-4.83 -8.96,-8.86 -15.02,-11.48 -15.46,-7.02 -32.79,-9.92 -49.65,-13.22 -46.82,-8.52 -94.86,-14.46 -139.13,-31.04 -31.26,-11.35 -60.96,-28.98 -78.67,-54.69 19.46,3.56 39.31,6.07 59.25,5.61 25.36,0.22 52.15,-1.2 74.74,-12.25 42.8,-18.2 91.38,-21.04 135.19,-36.67 14.2,-6.45 27.03,-15.77 36.2,-27.27 -8.07,2.68 -15.77,6.07 -23.63,9.16 -13.41,3.38 -25.98,8.93 -39.83,11.21 -24.29,6.86 -50.08,7.98 -75.45,7.31 -15.15,-0.23 -29.88,-3.7 -44.57,-6.58 -31.78,-8.69 -59.56,-25.35 -90.61,-35.61 -22.1,-7.69 -46.74,-11.35 -70.23,-6.75 22.47,-15.25 50.81,-25.3 79.63,-24.27 13.66,1.62 27.51,1.92 41.05,4.35 33.31,4.67 69.63,-2.84 94.2,-23.52 4.56,-4.2 9.78,-7.81 14.84,-11.53 -45.32,-14.98 -93.28,-24.65 -141.85,-25.44 -40.84,0.02 -83.23,5.17 -119.32,22.82 12.75,-32.34 38.57,-59.97 69.81,-80.25 42.94,-28.01 95.92,-42.06 148.73,-47.18 16.84,-2.26 34.03,-1.28 50.83,-3.83 21.03,-4.47 34.03,-20.98 52.48,-29.64 -23.24,1.51 -45.69,11.25 -69.23,7.42 -13,-2.05 -24.83,-7.54 -37.5,-10.69 -39.35,-11.08 -81.86,-15.94 -122.79,-9.09 -17.75,3.11 -34.98,8.66 -50.31,17.1 14.78,-26.39 43.15,-44.57 72.54,-57.54 54.67,-23.12 116,-30.99 176.19,-33.18 -10.75,-4.4 -22.99,-6.18 -33.82,-10.74 -27.14,-8.28 -47.48,-26.64 -70.74,-40.51 -22.6,-14.17 -48.76,-24.56 -76.56,-27.45 27.38,-5.68 55.97,-4.94 83.97,-4.42 24.99,1.28 49.61,5.57 74.48,7.99 16.26,1.87 33.18,1.53 48.78,-3.27 18.84,-5.8 34.55,-17.44 47.57,-30.36 -26.29,1.29 -54.03,0.22 -78.07,-10.13 -18.34,-8.14 -29.22,-23.89 -42.57,-36.79 -6.13,-6.25 -14.43,-10.24 -21.89,-15.07 8.36,0.93 16.78,1.54 25.22,1.44 38.28,1.56 76.99,2.75 114.96,-2.73 25.8,-3.58 49.57,-13.38 73.63,-21.68 13.25,-4.87 27.09,-8.26 40.55,-12.63 -64.03,8.97 -130.79,13.6 -194.19,-1.26 -39.52,-8.98 -75.59,-28.75 -101.92,-55.91 23.71,6.72 46.02,17.55 70.93,20.88 24,4.26 49.51,-1.62 69.32,-13.83 18.86,-11.43 33.91,-26.86 47.3,-42.96 14.82,-15.7 38.63,-21.9 60.88,-24.85 12.34,-1.8 24.87,-2.34 37.37,-2.6 -21.17,-16.73 -48.5,-26.82 -76.25,-31.98 -31.84,-5.57 -64.98,-4.98 -96.66,1.08 15.06,-13.4 32.89,-24.06 50.15,-35.16 23.5,-11.34 48.04,-22.64 75.1,-25.67 10.34,-1.45 20.8,-0.48 31.22,-0.97 15.99,-0.59 31.12,4.98 45.21,10.94 -13.15,-11.84 -28.64,-22.42 -47.07,-27.07 -6.11,-2.48 -13.29,-1.71 -19.07,-4.81 15.08,-7.55 32.58,-10.44 49.69,-11.93 18.99,-1.24 39.83,0.99 54.52,12.52 -8.21,-12.29 -15.31,-25.78 -15.25,-40.28 -0.52,-9.5 2.79,-18.81 7.64,-27.2 7.3,12.33 14.63,25.84 28.62,33.45 7.64,4.49 18.59,4.17 25.65,-1.06 5.7,-3.9 12.09,-8.84 12.03,-15.68 -1.9,-8.77 -9.51,-15.25 -15.89,-21.77 -20.82,-19.31 -40.82,-40.66 -48.85,-66.74 5.08,3.74 8.73,8.66 13.62,12.56 14.8,12.04 33.6,19.76 53.01,24.38 22.2,5.61 45.81,7.15 67.05,15.59 -40.39,-40.64 -63.44,-92.04 -76.11,-144.08 20.64,1.06 40.65,6.09 60.16,11.77 26.66,8.16 52.77,17.62 78.29,28.13 -28.07,-47.16 -39.95,-101.67 -33.22,-154.47 2.89,-11.19 4.46,-22.87 10.3,-33.29 0.14,-1.08 0.41,-3.27 0.54,-4.35 0.35,0.13 1.01,0.38 1.34,0.5 3.55,12.9 9.93,24.99 15.66,37.21 6.15,8.39 11.68,17.14 17.91,25.49 12.84,14.61 28.62,28.24 48.64,35.03 19.07,6.61 40.88,5.77 59.82,-0.74 -22.12,-5.5 -36.36,-23.16 -46.2,-40.17 -9.76,-14.64 -10.55,-33.67 -1.53,-48.74 7.57,-13.69 20.35,-24.29 30.97,-36.11 6.79,22.17 15.15,44.61 31.37,63.06 6.15,6.63 13.35,12.92 22.45,16.4 8.19,3.29 18.8,2.59 25.36,-3.16 32.52,-28.91 46.76,-70.28 45.87,-110.13 28.13,35.68 34.83,81.37 29.18,123.57 13.15,-29.19 35.43,-54.63 61.68,-75.87 10.07,-7.4 22.29,-13.98 35.93,-13.8 16.1,-0.67 29.88,8.75 39.5,19.08 -7.57,-4.31 -17.09,-7.2 -25.82,-3.59 -15.11,6.29 -24,19.58 -31.16,32.16 -16.18,27.88 -19.91,60.44 -13.37,90.98 1.67,8.59 4.11,17.03 6.46,25.48 16.01,-26.09 44.43,-47.12 78.03,-53.43 32.34,-5.86 66.55,8.03 85.83,30.68 17.19,22.26 22.02,49.91 22.29,76.23 -0.06,23 -2.13,46.35 -10.48,68.32 -15.15,42.47 -41.38,82.68 -79.51,112.68 -5.84,4.19 -11.25,9.13 -18.35,11.71 -5.92,2.1 -9.22,7.33 -14.49,10.29 8.61,-1.85 16.57,-5.53 22.64,-11.21 15.87,-9.16 31.94,-18.14 46.47,-28.94 25.82,-17.93 44.72,-42.08 59.53,-67.53 10.11,-17.25 18.7,-35.21 24.74,-53.84 41.15,-19.4 83.16,-37.48 126.25,-53.36zm83.95 -60.24c-20.59,3.07 -41.73,6.02 -60.79,13.78 -6.17,-0.27 -11.33,3.65 -17.31,4.53 -5.08,2.43 -11.31,2.68 -15.64,6.18 -6.09,0.22 -11.37,3.14 -16.61,5.53 -15.62,4.8 -30.54,11.16 -45.42,17.46 -7.02,2.96 -14.86,4.85 -20.68,9.61 -11.27,0.88 -18.43,11.19 -29.76,11.62 -1.38,-20.98 -2.21,-42.58 -11.54,-62.23 -1.32,-2.91 -1.22,-6.68 -4.44,-8.66 -0.33,-1.01 -0.99,-3.02 -1.34,-4.01 -0.37,-2.8 -2.5,-4.9 -4.46,-6.97 -2.31,-4.44 -5.28,-8.57 -8.23,-12.7 -4.33,-2.34 -6.25,-6.57 -9.7,-9.65 -8.94,-8.01 -18.59,-15.52 -29.39,-21.52 -5.61,-2.21 -11.12,-4.62 -16.55,-7.15 -4.99,-0.49 -9.9,-1.37 -14.61,-2.82 -9.99,-2.43 -20.47,-3.16 -30.81,-3.41 -2.6,-1.28 -5.53,-1.17 -8.36,-1.1 -0.78,0.31 -2.35,0.92 -3.14,1.22 -16.92,0.49 -33.95,4.58 -48.47,12.11 -4.07,0.57 -7.35,3.23 -11.64,2.98 0.04,-9.76 4.31,-18.86 7.84,-27.94 0.35,-1.01 1.05,-3.02 1.4,-4.02 1.18,-1.71 2.35,-3.43 3.55,-5.16 2.62,-4.9 8.09,-7.73 13.04,-10.64 7.28,-2.41 14.75,-4.87 22.7,-3.97 2.15,0.61 4.29,1.13 6.5,1.62 8.69,3.75 14.1,11.07 18.45,18.31 2.19,-10.2 2.5,-20.86 0.62,-31.12 -5.22,-17.55 -16.55,-33.6 -31.94,-45.79 -13.21,-10.94 -31.57,-17.93 -50,-16.19 -21.65,1.01 -40.8,11.71 -56.46,24.04 -2.81,2.12 -4.62,6.47 -9.2,5.12 -2.52,-7.53 -5.59,-15.04 -9.82,-22.06 -1.44,-5.19 -5.2,-9.7 -8.07,-14.39 -2.04,-6.74 -9.49,-10.85 -11.66,-17.43 -0.76,-0.54 -2.29,-1.65 -3.07,-2.19 -2.7,-5.03 -6.85,-9.31 -10.36,-13.9 -9.43,-10.67 -17.11,-22.46 -26.68,-33.02 -4.73,-6.85 -10.32,-13.19 -15.7,-19.64 -1.94,-2.93 -3.65,-5.96 -5.39,-8.98 1.26,34.91 0.37,69.9 0.47,104.85 0.31,11.26 -2.87,22.24 -4.29,33.36 -4.44,10.29 -8.21,20.84 -14.43,30.51 -2.95,3.52 -4.83,8.05 -9.45,10.22 -4.46,-0.5 -5.96,-4.62 -8.34,-7.31 -6.21,-9.49 -11.08,-19.62 -15.19,-29.95 -5.04,-17.3 -9.6,-34.71 -14.3,-52.05 -1.47,-8.34 -4.29,-16.44 -6.05,-24.74 -2.37,2.95 -4.85,5.82 -7.39,8.64 -2.21,4.31 -8.65,6.05 -9.24,11.01 -3.14,2.68 -6.31,5.3 -9.35,8.03 -0.25,0.66 -0.72,1.98 -0.95,2.62 -7.06,5.93 -12.46,13.1 -18.57,19.71 -11.39,10.44 -21.96,21.65 -30.33,34.1 -0.74,1.94 -1.96,3.65 -3.65,5.1 -0.16,0.97 -0.54,2.87 -0.7,3.84 -2.66,3.93 -5.06,8.03 -6.56,12.41 -0.97,2.32 -1.47,4.76 -1.92,7.2 -1.9,3.11 -1.4,6.68 -1.67,10.08 -1.15,-0.09 -3.49,-0.23 -4.64,-0.31 -2.89,-7.69 -7.72,-14.71 -10.85,-22.33 -0.6,-1.8 -1.26,-3.56 -2,-5.28 -2.52,-24.94 -6.89,-49.67 -9.12,-74.65 -3.53,-15.2 -2.41,-31.35 -7.14,-46.19 -4.21,14.03 -13.25,26.68 -18.14,40.55 -4.62,8.01 -9.47,16.11 -12.69,24.68 -2.6,3.99 -4.85,8.16 -6.38,12.54 -4.68,7.51 -7.68,15.68 -11.99,23.34 -1.75,5.46 -6.77,10.35 -6.05,16.19 -1.07,1.71 -2.17,3.43 -3.28,5.14 -0.29,1.81 -0.56,3.65 -0.83,5.48 -0.87,1.78 -1.69,3.58 -2.48,5.39 -1.18,2.87 -1.42,5.93 -1.82,8.93 -1.92,3.34 -1.51,7.15 -1.98,10.76 -0.31,0.72 -0.93,2.17 -1.24,2.89 -0.89,24.9 -2.77,50.14 2.81,74.75 0.39,9.41 4.31,18.34 5.22,27.7 -17.09,-4.28 -33.82,-10.01 -51.47,-12.49 -22.91,-4.74 -46.6,-1.28 -69.81,-3.05 3.05,8.28 4.44,16.94 6.83,25.37 3.94,16.29 7.86,32.75 14.01,48.52 4,14.5 11.8,27.97 16.3,42.31 -2.58,-0.22 -5.16,-0.49 -7.72,-0.77 -4.13,-4.06 -10.26,-6 -13.91,-10.6 -6.69,-1.02 -9.33,-7.58 -14.49,-10.83 -4.09,-0.11 -6.09,-3.23 -7.97,-5.91 -16.2,-12.49 -32.73,-24.76 -47.28,-38.79 -0.16,2.73 -0.31,5.46 -0.47,8.19 -3.05,4.78 -0.72,10.29 -0.06,15.32 0.6,18.38 4.54,36.56 9.8,54.33 0.58,4.01 2.02,7.87 4.25,11.41 1.26,6.23 3.47,12.45 6.81,18.09 1.03,4.38 0.7,8.91 -2.52,12.56 -6.03,3.14 -7.53,9.84 -12.05,14.26 0.06,0.43 0.23,1.28 0.29,1.71 -8.21,9.86 -9.31,22.48 -10.26,34.22 -0.7,0.57 -2.11,1.72 -2.81,2.3 -19.27,-0.11 -38.71,4.11 -55.68,12.02 -7.86,1.06 -12.79,6.9 -19.4,10.13 -7.51,3.86 -13.25,9.67 -19.46,14.88 -10.24,2.39 -20.1,5.86 -29.43,10.22 -4.68,2.25 -9.47,4.31 -14.28,6.36 -6.71,2.42 -12.38,6.41 -18.76,9.32 -12.46,7.99 -25.71,15.16 -36.73,24.72 -7.1,2.34 -10.24,9.29 -17.11,11.98 -0.97,2.62 -3.61,4.24 -5.82,6.07 -11.72,10.12 -23.11,20.52 -34.86,30.63 -1.88,1.58 -3.55,3.38 -4.62,5.48 -0.7,0.05 -2.13,0.16 -2.83,0.22 -0.19,3.32 -3.22,5.19 -6.03,6.97 -5.3,4.47 -9.39,10.4 -16.98,12.2 1.57,0.16 4.7,0.45 6.25,0.61 11.45,-1.33 22.8,-3.02 34.28,-4.11 11.06,-0.9 22,-2.61 33.02,-3.67 6.15,-0.56 12.32,-0.84 18.47,-1.29 8.67,-2.84 18.35,-1.89 27.09,-4.4 10.48,-0.93 21.05,-0.66 31.49,-1.96 5.02,-0.5 6.5,6.02 1.11,6.47 -4.64,4.38 -8.56,9.31 -13.39,13.58 -1.14,3.97 -7.1,5.32 -7.22,9.65 -1.4,0.86 -2.83,1.74 -4.23,2.64 -8.91,10.96 -21.59,18.97 -34.73,25.76 -6.69,1.47 -13.43,2.66 -20.22,3.75 -8.71,-2.84 -19.07,0.2 -27.2,-4.58 -2.72,-0.56 -5.49,-0.97 -8.28,-1.2 -15.37,-6.38 -31.72,-10.65 -47.52,-16.06 -22.12,-6.34 -43.79,-13.89 -66.04,-19.87 -17.09,-6.45 -35.18,-10.71 -52.38,-16.92 6.07,3.81 9.84,9.74 16.2,13.31 -0.25,0.47 -0.74,1.37 -0.99,1.83 7.99,5.01 12.77,12.67 19.44,18.83 5.94,5.64 11.16,11.93 17.48,17.26 3.05,4.42 8.17,7.4 11.06,11.98 3.2,4.91 11.12,7.15 11.1,13.47 0.89,-0.45 2.66,-1.37 3.53,-1.81 -2.02,5.8 7.08,7.08 8.4,12.09 6.23,6.38 14.45,11.37 19.52,18.54 0.58,-0.4 1.73,-1.17 2.29,-1.56 5.84,7.49 14.61,12.18 22.91,17.3 1.77,1.92 4.13,3.07 6.99,3.29 0.02,1.19 0.04,3.59 0.06,4.8 -28.38,0.25 -56.79,-0.61 -85.12,0.49 5.7,0.67 9.93,4.26 14.2,7.26 16.74,9.22 31.1,21.31 47.59,30.77 1.98,1.94 3.9,3.92 5.78,5.93l3.38 -1.9c-0.27,0.95 -0.82,2.87 -1.11,3.83 5.37,0.56 8.11,4.9 11.8,7.78 2.41,0.09 4.33,1.35 5.78,2.98 6.29,6.47 14.03,11.73 20.62,17.97 2.39,4.96 7.39,8.21 11.82,11.75 0,1.19 -0.04,3.58 -0.04,4.78 -15.66,-1.33 -31.2,-3.99 -47.01,-4.04 -11.16,-1.6 -22.6,-1.99 -33.82,-0.9 -9.6,2.23 -19.95,1.22 -29.3,4.24 -12.59,1.2 -25.07,3.56 -37.1,7.06 -6.23,1.56 -12.34,3.45 -18.51,5.21 -5.1,1.22 -9.74,3.45 -14.34,5.64 -5.51,0.74 -9.82,3.95 -14.61,6.16 -8.13,4.67 -16.26,9.39 -24.43,14.05 11.14,0 21.67,3.27 32.65,4.29 2.5,1.31 5.45,1.4 8.23,1.89 2.56,1.2 5.47,1.47 8.3,1.9 2.64,0.93 5.45,1.29 8.23,1.69 2.06,0.63 4.13,1.28 6.19,1.92 2.06,0.48 4.11,1.04 6.13,1.67 8.77,1.38 16.3,5.82 25.05,7.33 7.14,3.52 14.86,5.95 22.25,9.02 0.7,-0.07 2.13,-0.22 2.85,-0.27 0.8,0.81 2.44,2.43 3.24,3.25 3.78,1.29 6.95,3.72 11,4.47 3.49,1.9 6.91,3.95 10.17,6.16 3.32,0.84 4.87,5.78 8.81,3.72 0.1,2.3 0.25,4.6 0.43,6.9 -3.03,1.11 -6.19,2.01 -9.33,2.89 -14.32,2.3 -28,7.35 -41.97,10.58 -0.8,0.56 -2.39,1.69 -3.2,2.25 -3.57,0.93 -7.14,1.89 -10.61,3.09 -6.98,2.77 -13.95,5.64 -20.51,9.09 -16.28,6.74 -30.34,16.69 -43.87,26.89 -6.79,7.64 -16.1,13.4 -21.81,21.77 -10.63,14.48 -19.38,30.13 -25.05,46.62 -2.02,4.04 -3.38,8.3 -4.15,12.67 -2.68,5.17 -4.29,10.69 -6.25,16.1 -5.16,11.96 -7.72,24.68 -13.29,36.51 0.78,-0.04 2.33,-0.09 3.1,-0.11l-1.16 -2.21c5.96,-1.28 9.26,-6.31 13.37,-9.84l1.94 1.4c1.96,-2.03 3.94,-4.02 5.96,-5.98 12.53,-6.79 23.01,-16.01 35.23,-23.19 4.58,-2.32 7.59,-6.68 12.73,-8.12 1.82,-1.47 3.65,-2.96 5.94,-3.83 2.19,-1.58 4.4,-3.2 7.39,-3.2 0.66,-0.84 1.98,-2.53 2.62,-3.38 0.76,0.09 2.27,0.31 3.03,0.4 19.77,-10.69 43.77,-12.38 66.51,-11.77 -0.02,1.13 -0.08,3.4 -0.1,4.53 -14.05,3.07 -27.16,8.57 -39.95,14.37 -16.86,5.62 -30.95,15.67 -45.71,24.33 -3.51,2.62 -6.65,5.61 -9.88,8.46 -0.74,0.04 -2.19,0.09 -2.93,0.13 -8.52,6.34 -15.23,14.3 -23.67,20.75 -0.08,0.56 -0.21,1.69 -0.29,2.25 -18.41,15.76 -30.4,36.16 -40.43,56.65 -2.56,7.94 -4.52,16.02 -7.18,23.95 -5.14,16.13 -9.93,32.37 -14.65,48.6 -0.43,1.42 -1.28,4.26 -1.71,5.68 9.53,-5.23 19.54,-9.79 28.75,-15.41 2.68,-1.56 5.35,-3.13 7.99,-4.72 3.65,-1.6 7.55,-2.64 11.62,-2.88 -0.39,2.46 0.16,5.35 -1.86,7.44 -5.57,7.92 -13.48,15.13 -15.99,24.34 -0.6,1.2 -1.78,3.63 -2.35,4.83 17.4,-1.83 34.73,0.9 52.04,1.98 6.38,2.68 13.81,1.98 20.55,3.65 3.86,1.78 8.3,1.72 12.55,1.96 6.33,3.02 13.64,3.52 20.49,5.21 2.54,1.42 5.47,1.99 8.44,2.3 9.84,3.95 20.47,6.32 29.96,10.99 8.75,3.14 16.71,7.9 25.8,10.35 4.89,2.23 9.7,4.87 15.35,5.28 -0.02,1.11 -0.08,3.34 -0.1,4.46 -3.16,0.13 -6.4,0.04 -9.33,1.26 -9.86,0.5 -19.77,0.48 -29.65,0.34 -0.81,-0.31 -2.46,-0.93 -3.28,-1.24 -7.51,-0.11 -15.02,-0.43 -22.49,-1.19 -13.89,-1.85 -27.34,-5.79 -41.27,-7.08 -14.84,-3.97 -30.17,-6.63 -45.48,-8.78 -3.12,-1.63 -6.69,-2.32 -10.19,-2.96 11.17,12.61 19.73,26.95 29.41,40.37 2.15,3 4.33,5.98 6.48,9.02 5.98,5.12 6.75,13.56 13.29,18.07 8.96,11.98 21.26,21.63 33.12,31.35 7.66,4.4 14.59,9.94 22.89,13.58 6.64,4.78 14.86,7.69 22.72,10.62 20.02,9.32 42.04,14.7 63.7,20.21 4.89,0.7 13,0.57 11.74,6.88 -17.09,1.85 -33.12,7.82 -50.1,10.04 9.86,1.85 16.78,8.89 26.21,11.59 7.26,3.97 14.82,7.76 22.7,10.71 3.53,1.89 6.69,5.16 11.19,4.92l0.16 1.78c15.27,5.82 30.11,13.26 43.98,21.58 3.22,-0.9 4.35,2.07 6.05,3.79 9.78,3.7 18.94,8.71 29.37,11.05 7.49,3.25 15.68,4.76 23.79,6.31 20.39,3.18 41.4,5.28 61.91,1.83 14.34,-1.46 28.69,-3.95 42.24,-8.37 1.07,-0.07 3.22,-0.25 4.29,-0.32 4.5,2.26 7.68,6.93 13.13,7.51 -0.14,0.63 -0.43,1.9 -0.56,2.55 6.31,1.62 8.46,7.58 13.08,11.07 2.77,2.66 6.89,4.58 8.01,8.26 4.31,4.62 9.56,8.93 12.46,14.34 2.75,2.95 6.52,5.34 8.17,8.98 3.63,5.46 8.4,10.31 12.01,15.83 0.58,0.97 1.73,2.89 2.31,3.86 0.33,6.29 0.27,12.59 0.25,18.92 0.25,2.68 -0.76,5.93 1.84,8.08 0.64,9.52 -1.86,19.8 1.94,28.83 0.04,10.91 -0.1,21.86 1.67,32.7 0.78,9.65 0.27,19.38 2.41,28.92 0.27,26.01 5.2,51.83 5.41,77.79 1.47,-3.45 2.83,-6.94 4.05,-10.44 1.71,-2.93 3.42,-5.84 5.22,-8.69 0.23,-0.92 0.66,-2.75 0.89,-3.67 7.08,-11.68 12.98,-23.88 19.01,-35.98 12.53,-22.19 25.3,-44.27 38.14,-66.33 0.89,-1.92 1.77,-3.81 2.64,-5.71 2,-3 4.23,-5.89 6.25,-8.87 1.07,-1.76 2.15,-3.5 3.24,-5.23 2.08,-2.91 4.4,-5.73 5.28,-9.11 2.52,-2.73 4.38,-5.84 5.98,-9.02 2.08,-3.59 3.92,-7.29 6.36,-10.71 6.44,-6.29 10.28,-14.14 14.51,-21.63 1.98,-2.26 3.8,-4.62 5.65,-6.95 2.19,-4.4 5.57,-8.26 7.66,-12.68 3.61,-5.66 9.45,-10.13 11.82,-16.38 7.45,-7.71 12.26,-17.03 19.09,-25.13 2.06,-3.72 7.35,-6.4 7.16,-10.76 3.65,-3.13 6.6,-6.75 9.47,-10.42 3.18,-5.3 8.11,-9.59 11.8,-14.61 5.7,-5.89 9.82,-12.92 16.34,-18.2l-0.91 -1.58c2.72,-2.12 6.07,-4.02 7.12,-7.24 7.28,-7.6 14.03,-15.59 21.15,-23.32 9.39,-10.76 19.71,-20.84 29.63,-31.21 4.81,-5.91 12.42,-9.81 16.01,-16.53 7.9,-5.59 13.62,-13.1 21.59,-18.61 -0.31,-0.66 -0.95,-1.98 -1.26,-2.64 1.09,0.05 3.26,0.14 4.33,0.2 2.04,-4.83 6.44,-9.52 12.11,-11.17 0.35,-0.7 1.03,-2.08 1.38,-2.77 10.17,-9.41 21.44,-17.95 31.16,-27.72 5.7,0.05 9.93,3.68 13.62,7.02 12.03,6.25 24.85,14.35 39.93,13.71 2.08,0.41 4.21,0.83 6.36,1.24 10.07,8.62 21.11,16.22 32.42,23.59 3.16,-0.36 4.5,2.1 6.13,3.95 7.64,1.87 13.64,7.47 20.9,10.51 3.59,0.59 6.81,2.12 9.99,3.68 35.25,10.42 73.92,13.8 110.09,5.14 8.4,-1.65 16.67,-3.9 24.66,-6.72 5.01,-1.78 9.76,-4.08 14.59,-6.18 0.85,-0.75 2.54,-2.28 3.38,-3.05 3.12,0.74 5.06,-1.76 7.41,-2.95 10.96,-7.06 23.03,-13.11 32.3,-21.9 4.44,-2.1 7.16,-6.68 12.51,-7.2 11.02,-1.35 22.84,-3.86 31.26,-10.56 8.05,-6.18 16.92,-11.55 24.21,-18.47 9.33,-8.68 20.06,-16.22 28.4,-25.69 13.7,-14.28 26.27,-29.48 35.82,-46.19 2.56,-4.62 5.59,-9.16 6.46,-14.32 1.73,-3.38 3.4,-6.85 3.8,-10.56 6.79,-18.49 4.09,-38.64 -4.44,-56.34 -0.43,-0.16 -1.28,-0.52 -1.71,-0.7 -1.01,-2.03 -1.98,-4.04 -2.97,-6.05 -7.18,-8.05 -12.48,-17.32 -20.08,-24.99 0.76,-3.05 -1.96,-5.07 -4,-7.1 0.06,-4.74 -4.21,-8.46 -6.25,-12.65 -2.11,-5.93 -6.03,-11.59 -4.89,-18.02 17.29,-2.88 34.21,-7.67 51.45,-11.19 18.9,-3.52 37.35,-9.11 56.48,-11.53 -4.42,-20.73 -9.8,-41.43 -16.24,-61.71 -0.37,-3.7 -0.85,-7.4 -1.84,-10.99 -6.38,-21.4 -10.98,-43.23 -17.09,-64.62 -0.41,-3.02 -0.41,-6.11 -1.75,-8.95 -0.74,-1.85 -1.57,-3.68 -2.46,-5.44 -0.35,-3.63 0.1,-7.44 -1.75,-10.8 -0.78,-1.78 -1.53,-3.56 -2.23,-5.32 -0.35,-3.07 -0.29,-6.27 -1.96,-9.05 -0.5,-2.42 -0.99,-4.83 -1.98,-7.11 -0.47,-2.48 -0.81,-4.98 -2.15,-7.2 -0.47,-2.48 -0.74,-5.01 -2.17,-7.2 -0.62,-3.05 -0.1,-6.43 -2.31,-9.05 -0.08,-0.86 -0.21,-2.59 -0.27,-3.45 4.71,-4.01 9.41,-7.99 13.83,-12.22 3.36,-6.84 12.42,-9.94 15.81,-16.73 2.64,-2.37 7.72,-4.04 5.59,-8.1 0.82,0.3 2.48,0.93 3.3,1.24 1.51,-5.75 7.43,-9.34 10.92,-14.16 5.72,-7.99 13.45,-15.05 18.59,-23.52 3.63,-5.53 9.12,-10.11 11.37,-16.37 9.22,-11.01 15.89,-23.59 22.47,-35.91 3.01,-5.34 6.03,-10.65 9,-16.01 2,-6.83 6.64,-12.9 7.97,-19.87 8.56,-18.54 13,-38.46 15.17,-58.3 -1.2,-10.04 -1.61,-20.77 -7.28,-29.8 -0.16,-5.41 -4.58,-9.58 -7.1,-14.26 -0.6,-0.65 -1.79,-1.98 -2.37,-2.62 -4.73,-10.19 -16.9,-16.06 -21.46,-26.23 -3.32,-14.79 -8.28,-29.27 -11.68,-44.05 -4.99,-15.16 -7.86,-30.83 -13.35,-45.85 -0.31,-1.74 -0.5,-3.5 -0.52,-5.25 7.18,-7.35 18.16,-10.76 25.59,-17.82 12.79,-8.64 23.13,-19.71 35,-29.25 3.74,-6.84 11.76,-10.78 15.62,-17.59 3.67,-5.62 9,-10.29 12.46,-16.02 2.81,-4.29 6.09,-8.34 8.73,-12.72 6.62,-11.26 13.72,-22.4 18.84,-34.26 17.62,-35.48 26.19,-73.55 35.49,-111.13 -17.6,0.56 -35.25,-0.34 -52.85,0.52z"/>
   <path class="fil3" d="M1322.69 713.13c-29.76,18.68 -54.5,43.05 -75.06,69.35 19.19,-4.42 38.23,-10.76 54.44,-20.92 17.01,-10.99 22.44,-30.87 20.62,-48.43z"/>
   <path class="fil3" d="M955.37 780.17c-19.19,-24.56 -42.28,-47.28 -70.05,-64.72 -1.67,16.34 3.31,34.8 19.08,45.1 15.15,9.53 33.01,15.49 50.97,19.62z"/>
   <path class="fil4 str0" d="M892.8 720.35c2.14,20.48 14.22,37.85 36.25,52.12"/>
   <path class="fil4 str0" d="M1310.99 720.95c0.18,22.57 -12.4,40.64 -37.75,54.22"/>
   <path class="fil5" d="M955.37 780.17c-17.44,-22.32 -38.1,-43.12 -62.57,-59.82 0.28,2.64 0.72,5.23 1.32,7.77 2.8,11.7 9.11,22.3 18.94,31.81 4.57,4.42 9.9,8.6 15.99,12.54 8.53,3.16 17.41,5.65 26.31,7.7z"/>
   <path class="fil5" d="M1310.99 720.95c-24.61,17.44 -45.55,38.77 -63.36,61.53 8.65,-1.99 17.27,-4.37 25.61,-7.32 9.91,-5.31 17.87,-11.3 23.88,-17.99 8.66,-9.64 13.27,-20.7 13.81,-33.2 0.04,-1 0.06,-2.01 0.05,-3.03z"/>
   <path class="fil6" d="M1310.94 723.97c-0.55,12.5 -5.15,23.56 -13.81,33.2 -6.01,6.68 -13.97,12.68 -23.88,17.99 10.17,-3.59 19.92,-8.02 28.83,-13.6 17.01,-10.99 22.44,-30.87 20.62,-48.43 -3.99,2.5 -7.89,5.11 -11.7,7.81 0.01,1.02 -0.01,2.03 -0.05,3.03z"/>
   <path class="fil6" d="M913.07 759.93c-9.83,-9.51 -16.14,-20.11 -18.94,-31.81 -0.61,-2.54 -1.05,-5.13 -1.32,-7.77 -2.46,-1.68 -4.95,-3.31 -7.49,-4.9 -1.67,16.34 3.31,34.8 19.08,45.1 7.64,4.81 15.97,8.71 24.66,11.92 -6.09,-3.94 -11.42,-8.13 -15.99,-12.54z"/>
  </g>
 </g>
</svg>
