<?xml version="1.0" encoding="UTF-8"?>
<!DOCTYPE svg PUBLIC "-//W3C//DTD SVG 1.1//EN" "http://www.w3.org/Graphics/SVG/1.1/DTD/svg11.dtd">
<!-- Creator: CorelDRAW 2018 (64-Bit) -->
<svg xmlns="http://www.w3.org/2000/svg" xml:space="preserve" width="0.541449in" height="0.53715in" version="1.1" style="shape-rendering:geometricPrecision; text-rendering:geometricPrecision; image-rendering:optimizeQuality; fill-rule:evenodd; clip-rule:evenodd"
viewBox="0 0 5.05 5.01"
 xmlns:xlink="http://www.w3.org/1999/xlink">
 <defs>
  <style type="text/css">
   <![CDATA[
    .str0 {stroke:#FEFEFE;stroke-width:0.06;stroke-miterlimit:2.61313}
    .str1 {stroke:#2B2A29;stroke-width:0.01;stroke-miterlimit:2.61313}
    .fil5 {fill:none}
    .fil6 {fill:#AA6C20}
    .fil7 {fill:#FBEB58}
    .fil2 {fill:#E31E24;fill-rule:nonzero}
    .fil3 {fill:#010101;fill-rule:nonzero}
    .fil1 {fill:#AA6C20;fill-rule:nonzero}
    .fil0 {fill:#DBB467;fill-rule:nonzero}
    .fil4 {fill:#FBFBFB;fill-rule:nonzero}
   ]]>
  </style>
 </defs>
 <g id="Layer_x0020_1">
  <metadata id="CorelCorpID_0Corel-Layer"/>
  <g id="_1184480000">
   <g>
    <g>
     <path class="fil0" d="M3.14 0.25c0.06,-0.03 0.12,-0.06 0.18,-0.07 0.13,-0.02 0.25,0.06 0.38,0.06 0.05,-0.01 0.1,0.01 0.15,0.02 -0.01,-0.01 -0.02,-0.02 -0.02,-0.03 0.07,-0.01 0.13,-0.04 0.2,-0.03 0.05,0.01 0.07,0.06 0.1,0.1 0.02,0.03 0.04,0.05 0.05,0.09 -0.05,-0 -0.1,-0.01 -0.14,-0.01 -0.02,0 -0.02,-0.02 -0.02,-0.03 -0.01,-0.03 -0.03,-0.06 -0.04,-0.09 0,0.04 0.01,0.08 0.01,0.12 -0.04,0.01 -0.08,0.02 -0.13,0.02 -0.04,-0.04 -0.08,-0.08 -0.14,-0.09 0.03,0.03 0.07,0.06 0.08,0.1 -0.03,0.03 -0.08,0.04 -0.12,0.04 -0.11,-0.01 -0.21,-0.06 -0.32,-0.09 -0.12,-0.02 -0.23,0.05 -0.3,0.14 0.04,-0.03 0.07,-0.06 0.12,-0.08 0.04,-0.02 0.09,-0.02 0.12,0 -0.02,0.03 -0.04,0.05 -0.05,0.09 -0.01,0.05 -0.01,0.11 -0.01,0.16 -0.03,0.03 -0.06,0.06 -0.09,0.09 0.02,-0.01 0.03,-0.02 0.05,-0.03 0.12,-0.09 0.26,-0.15 0.4,-0.18 -0,0.01 -0.01,0.02 -0.02,0.02 -0.04,0.03 -0.08,0.06 -0.12,0.09 0.03,-0.01 0.06,-0.03 0.09,-0.05 0.13,-0.07 0.27,-0.14 0.42,-0.15 0.12,-0.02 0.25,0.01 0.37,0.04 0.13,0.05 0.26,0.11 0.38,0.18 0.02,0.02 0.05,0.03 0.07,0.05 -0.06,0.01 -0.11,-0.01 -0.17,-0.03 -0.13,-0.04 -0.26,-0.08 -0.39,-0.12 0,0.01 0.01,0.02 0.02,0.03 -0,-0 -0.01,-0 -0.02,-0 0.01,0.01 0.02,0.02 0.03,0.03 -0.07,-0.01 -0.15,-0.04 -0.22,-0.01 -0.1,-0.04 -0.22,-0.02 -0.32,0.03 -0.02,0.01 -0.02,0.04 -0.03,0.06 -0.05,0.02 -0.1,0.05 -0.14,0.09 -0.04,0.04 -0.08,0.08 -0.1,0.13 -0.23,0.04 -0.45,0.12 -0.66,0.2 -0.2,0.08 -0.4,0.18 -0.59,0.3 -0.04,0.03 -0.09,0.06 -0.12,0.1 -0.02,0.02 -0.03,0.03 -0.05,0.05 0.4,-0.27 0.87,-0.4 1.34,-0.5 -0,0.01 -0,0.03 -0,0.03 0,-0 0.01,-0 0.02,-0 -0.11,0.03 -0.21,0.06 -0.31,0.1 -0.3,0.12 -0.58,0.27 -0.83,0.48 -0.09,0.07 -0.17,0.15 -0.25,0.24 -0.02,0.02 -0.04,0.03 -0.06,0.03 -0.01,-0.08 -0.02,-0.17 -0.04,-0.25 -0.02,-0.05 -0.04,-0.09 -0.06,-0.13 -0,0.02 -0,0.03 -0,0.05 -0.01,-0.03 -0.01,-0.06 -0.02,-0.09 -0.01,0.03 0,0.06 -0,0.09 -0.01,0.19 -0.03,0.39 -0.06,0.58 -0.07,0.05 -0.13,0.11 -0.18,0.18 -0.1,0.13 -0.19,0.27 -0.26,0.42 -0.14,0.28 -0.26,0.57 -0.35,0.87 -0.04,0.14 -0.09,0.29 -0.07,0.44 0.03,-0.04 0.04,-0.09 0.07,-0.14 0.19,-0.41 0.51,-0.75 0.85,-1.04 -0.09,0.18 -0.16,0.37 -0.21,0.56 -0.08,0.29 -0.13,0.58 -0.17,0.87 -0.02,0.12 -0.04,0.24 -0.05,0.37 -0.18,-0.07 -0.35,-0.16 -0.5,-0.28 -0.17,-0.13 -0.32,-0.3 -0.42,-0.48 -0.17,-0.29 -0.26,-0.62 -0.29,-0.95 0.37,-0.53 0.74,-1.05 1.19,-1.52 0.07,-0.01 0.14,-0.01 0.21,-0.02 -0.1,-0 -0.2,-0.05 -0.29,-0.11 -0.08,-0.06 -0.14,-0.14 -0.18,-0.24 0.09,0.01 0.19,-0.01 0.28,-0.04 0.12,-0.04 0.23,-0.1 0.35,-0.12 0.13,-0.03 0.26,-0.01 0.39,0.02 0,-0.04 -0.02,-0.08 -0.05,-0.11 0.33,-0.25 0.69,-0.47 1.07,-0.65zm-0.32 0.26l0 0c-0.02,0.01 -0.05,0.04 -0.06,0.07 0.01,0.05 0.08,0.07 0.12,0.05 0.05,-0.02 0.07,-0.06 0.09,-0.11 0.01,-0.03 -0.01,-0.05 -0.03,-0.07 -0.05,-0.01 -0.09,0.04 -0.13,0.06zm1.12 -0.02l0 0c-0.09,0.01 -0.16,0.07 -0.23,0.12 0.16,-0.08 0.35,-0.08 0.51,-0.02 -0.08,-0.06 -0.18,-0.11 -0.28,-0.1zm-1.12 0.27l0 0c-0.04,0 -0.07,0.03 -0.11,0.03 -0.11,0 -0.2,0.09 -0.27,0.17 -0.04,0.04 -0.07,0.11 -0.03,0.16 0.04,0.05 0.1,0.06 0.16,0.06 0.1,-0.01 0.21,-0.04 0.27,-0.12 0.05,-0.06 0.09,-0.15 0.08,-0.23 -0.01,-0.05 -0.06,-0.08 -0.11,-0.07zm0.4 0.06l0 0c-0.03,0.02 -0.05,0.05 -0.04,0.08 0.02,0.04 0.09,0.06 0.13,0.03 0.04,-0.02 0.08,-0.05 0.07,-0.1 -0.02,-0.01 -0.04,-0.03 -0.06,-0.02 -0.04,0 -0.07,0 -0.11,0.02zm-1.9 0.44l0 0c-0.04,0.01 -0.08,-0.01 -0.12,-0.03 0.01,0.04 0.06,0.04 0.1,0.05 0.01,0.02 0.02,0.04 0.04,0.06 0.05,0.04 0.13,0.04 0.19,0.04 -0.05,-0.03 -0.12,-0.03 -0.15,-0.09 0.08,0.02 0.16,-0.01 0.23,-0.04 0.05,-0.02 0.1,-0.04 0.15,-0.01 0.02,0.01 0.01,0.04 0,0.05 -0.03,0.06 -0.1,0.08 -0.16,0.1 0.09,0.01 0.2,0.01 0.27,-0.05 0.04,-0.03 0.04,-0.09 0.01,-0.13 -0.05,-0.06 -0.13,-0.11 -0.21,-0.1 -0.13,0.02 -0.23,0.12 -0.36,0.14zm0.74 -0.07l0 0c-0.04,0.03 -0.01,0.08 0.01,0.11 0.03,0.03 0.07,0.07 0.11,0.06 0.03,-0 0.05,-0.03 0.05,-0.06 -0.01,-0.03 -0.03,-0.06 -0.06,-0.08 -0.04,-0.02 -0.08,-0.05 -0.12,-0.03zm-0.63 0.48l0 0c-0.05,0.01 -0.09,0.06 -0.14,0.09 -0.02,0.01 -0.04,0.03 -0.04,0.05 -0.01,0.05 0.03,0.1 0.08,0.11 0.06,0.01 0.13,-0.04 0.15,-0.1 0.02,-0.04 0.04,-0.09 0.01,-0.13 -0.01,-0.02 -0.04,-0.03 -0.06,-0.02zm-0.19 0.41l0 0c-0.1,0.03 -0.2,0.08 -0.28,0.15 -0.04,0.04 -0.07,0.09 -0.08,0.14 -0.02,0.09 0.02,0.18 0.1,0.23 0.04,0.02 0.07,0.06 0.12,0.06 0.06,0.01 0.11,-0.04 0.15,-0.08 0.08,-0.09 0.12,-0.22 0.12,-0.35 -0,-0.05 0.01,-0.1 -0.02,-0.14 -0.03,-0.03 -0.07,-0.03 -0.11,-0.02zm-0.79 0.79l0 0c-0.03,0.04 -0.05,0.08 -0.06,0.13 -0.01,0.04 -0.02,0.09 -0.01,0.13 0.01,0.04 0.06,0.06 0.1,0.06 0.06,-0.01 0.12,-0.04 0.15,-0.09 0.04,-0.04 0.03,-0.11 0.05,-0.16 0.02,-0.08 0.05,-0.18 0.02,-0.26 -0.02,-0.01 -0.04,-0.01 -0.06,0 -0.08,0.05 -0.13,0.12 -0.18,0.19zm0.52 0.04l0 0c-0.05,0.02 -0.09,0.06 -0.13,0.09 -0.04,0.04 -0.06,0.11 -0.04,0.17 0.02,0.06 0.09,0.11 0.15,0.08 0.06,-0.03 0.11,-0.08 0.12,-0.14 0.01,-0.05 0.01,-0.1 0,-0.15 -0.01,-0.04 -0.05,-0.06 -0.09,-0.04zm-0.4 0.47l0 0c-0.04,0.02 -0.06,0.06 -0.08,0.09 -0.02,0.05 -0.04,0.1 -0.03,0.15 0.02,0.05 0.08,0.07 0.12,0.05 0.04,-0.02 0.05,-0.08 0.05,-0.12 0.01,-0.05 0.02,-0.12 -0.02,-0.16 -0.01,-0.01 -0.03,-0.01 -0.04,-0.01z"/>
     <path class="fil0" d="M4.27 0.22c0,0 0,0 0,0 -0,-0 -0,-0 -0,-0z"/>
     <path class="fil0" d="M4.28 0.24c0,0 0,0 0,0 -0,-0 -0,-0 -0,-0z"/>
     <path class="fil1" d="M4.39 0.66c0,0 0.01,0.01 0.01,0.01 0.03,0 0.06,0.01 0.09,0.02 0.02,0.01 0.05,0.01 0.07,0.02 0.05,0.01 0.09,0.03 0.14,0.04 0.02,0 0.04,0.01 0.06,0.02 0.01,0 0.02,0 0.03,0.01 0.02,0 0.05,0 0.07,0 0.01,-0 0.01,-0.01 0.02,-0.01 0.01,0.03 0.04,0.04 0.04,0.07 -0,0.05 -0.04,0.08 -0.08,0.11 0.02,-0.04 0.03,-0.07 0.02,-0.11 -0.01,-0.01 -0.01,-0.02 -0.02,-0.03 -0,0.02 -0.01,0.04 -0.01,0.05 0,0.04 -0.03,0.07 -0.04,0.1 -0.03,0.01 -0.06,-0.01 -0.09,-0.02 -0.03,-0.01 -0.05,-0.03 -0.08,-0.05 0.02,-0 0.04,-0.01 0.06,-0.01 0.01,-0.01 0.01,-0.03 0.01,-0.05 -0.01,-0.01 -0.02,-0.02 -0.02,-0.03 -0.02,-0.01 -0.04,-0.03 -0.06,-0.04 -0.02,-0.01 -0.04,-0.01 -0.07,-0.01 -0.01,0.01 -0.02,0.02 -0.03,0.03 -0,0.01 -0,0.02 -0,0.03 -0.05,-0.03 -0.09,-0.07 -0.12,-0.12 -0,-0 -0,-0.01 -0,-0.02z"/>
     <path class="fil0" d="M2.83 1.47c0.18,-0.08 0.35,-0.17 0.54,-0.23 -0,0.02 -0,0.04 -0,0.06 0.01,-0 0.02,-0.01 0.03,-0.01 -0.09,0.04 -0.18,0.1 -0.26,0.15 -0.17,0.12 -0.34,0.25 -0.5,0.4 -0.09,0.08 -0.16,0.17 -0.24,0.26 0.03,-0.03 0.06,-0.06 0.09,-0.09 0.01,0.01 0.01,0.01 0.02,0.02 -0,0 -0.01,0.01 -0.01,0.02 0.03,-0.04 0.07,-0.07 0.1,-0.1 0.02,-0.02 0.04,-0.04 0.06,-0.06 0.16,-0.13 0.32,-0.25 0.5,-0.35 0,0.01 0,0.02 0,0.02 -0,-0 -0.01,-0 -0.02,-0 -0.04,0.04 -0.09,0.08 -0.13,0.12 -0.09,0.09 -0.18,0.19 -0.24,0.3 -0.04,0.08 -0.09,0.14 -0.13,0.22 0.04,-0.02 0.08,-0.05 0.13,-0.07 -0.04,0.07 -0.09,0.14 -0.13,0.21 -0.06,-0.03 -0.11,-0.1 -0.17,-0.13 -0.01,-0 -0.02,-0 -0.03,-0 0,-0 0.01,-0.01 0.02,-0.01 -0.02,-0.02 -0.05,-0.03 -0.07,-0.05 -0.01,0.01 -0.02,0.01 -0.03,0.02 0.01,-0.01 0.01,-0.02 0.02,-0.03 -0.1,-0.08 -0.23,-0.11 -0.35,-0.15 0.06,-0.05 0.12,-0.1 0.18,-0.14 0.2,-0.14 0.41,-0.26 0.63,-0.36z"/>
     <path class="fil0" d="M4.4 1.24c0.02,0 0.04,0 0.06,0l-0 -0.01c0.11,0 0.21,-0 0.32,0 0,0.01 0,0.02 0,0.02 0.01,-0 0.02,-0 0.02,-0l-0 0.01 0.01 -0c-0,0.01 -0.01,0.02 -0.01,0.02l0.02 -0.01 -0.01 0.02c0.01,-0 0.02,-0.01 0.02,-0.01 -0,0.01 -0,0.02 -0,0.04 -0.01,-0 -0.03,-0 -0.04,-0 0,0.01 0,0.02 0.01,0.02l-0.02 -0 0 0.02c-0.01,-0 -0.02,-0.01 -0.02,-0.01l-0 0.01c-0.03,-0 -0.05,-0 -0.08,-0l0 0.01c-0.01,-0 -0.03,-0 -0.04,-0l0 -0.01c-0.02,0 -0.04,0 -0.06,0l-0 -0.01c-0.02,-0 -0.03,-0 -0.05,-0l0 -0.01c-0.02,-0 -0.03,-0.01 -0.05,-0.01l0 -0.01c-0.01,0 -0.02,0.01 -0.02,0.01l0 -0.01c-0.01,-0 -0.02,-0.01 -0.02,-0.01 -0.01,0 -0.02,0 -0.02,0 0,-0.01 0,-0.02 0.01,-0.02 -0.02,0 -0.04,0 -0.05,0 -0,-0.01 -0,-0.02 -0,-0.04 0.01,0 0.02,0.01 0.02,0.01l-0.01 -0.02z"/>
     <path class="fil2" d="M3.16 2.07c0.03,0.01 0.05,0.03 0.08,0.04 0.07,0.04 0.15,0.09 0.18,0.17 0.02,0.06 0,0.12 0,0.18 0.02,-0.09 0.03,-0.2 0,-0.29 0.07,0.03 0.14,0.07 0.16,0.15 0.02,0.05 -0,0.11 -0.02,0.16 -0.06,0.14 -0.15,0.26 -0.16,0.41 -0.01,0.1 0.03,0.2 0.1,0.27 0.03,0.04 0.07,0.08 0.08,0.13 0.01,0.05 -0.01,0.09 -0.01,0.14 -0,0.03 0,0.05 -0.01,0.08 -0.03,-0.01 -0.06,-0.02 -0.08,-0.04 0.06,-0.04 0.07,-0.11 0.07,-0.18 -0.04,0.02 -0.08,0.02 -0.13,0.02 -0.06,-0 -0.1,-0.05 -0.16,-0.05 -0.03,0 -0.05,0.02 -0.07,0.04 -0.03,-0.07 -0.04,-0.15 -0.05,-0.22 -0.01,-0.15 0.01,-0.3 0.06,-0.44 0.02,-0.08 0.04,-0.16 -0,-0.24 0,0.04 0.01,0.07 0,0.11 -0.02,0.08 -0.08,0.14 -0.09,0.21 0,-0.15 0,-0.3 0.02,-0.46 0.01,-0.06 0.03,-0.12 0.03,-0.19zm0.13 0.88l0 0c-0.01,0.05 0,0.11 0.04,0.15 0.05,0.05 0.1,0.09 0.15,0.14 -0.05,-0.07 -0.1,-0.14 -0.12,-0.23 -0.03,-0.1 -0.01,-0.2 -0.01,-0.3 -0.03,0.08 -0.06,0.16 -0.07,0.25z"/>
     <path class="fil3" d="M3.16 0.08c0.07,-0.04 0.16,-0.07 0.25,-0.05 0.06,0.01 0.11,0.04 0.17,0.06 0.06,0.02 0.12,0.05 0.19,0.03 0.03,-0.01 0.07,-0 0.1,-0.03 0.01,-0 0.03,0 0.04,-0.01 0.05,-0 0.09,-0.03 0.13,-0.02 0.04,0 0.08,-0 0.11,0.01 0.05,0.04 0.08,0.09 0.12,0.14 0,0 0,0 0,0l0.01 0.02c0,0 0,0 0,0 0.03,0.04 0.05,0.08 0.07,0.13 0.05,0.02 0.1,0.04 0.15,0.06 0.05,0.02 0.1,0.05 0.15,0.07 0.05,0.04 0.1,0.07 0.15,0.11 0.06,0.04 0.1,0.1 0.16,0.14 0.03,0.02 0.03,0.05 0.05,0.08 0.01,0.02 0.01,0.05 0.01,0.07 0,0 0.01,0.01 0.01,0.02 0,0.09 0,0.19 -0,0.28 -0.02,0.02 -0.01,0.06 -0.01,0.08 -0.01,0.02 -0.01,0.04 -0.01,0.06 -0.01,0.01 -0.01,0.02 -0.01,0.04 -0,0.01 -0.01,0.02 -0.01,0.02 0,0.02 -0,0.04 -0.01,0.05l-0.01 -0c-0,-0 -0.01,-0 -0.01,-0 -0.02,0.06 -0.01,0.13 -0.04,0.18 -0.02,0.03 -0.03,0.07 -0.05,0.11 -0.04,0.08 -0.12,0.13 -0.19,0.18 -0.01,0 -0.02,0 -0.03,0.01 0,-0.11 0.01,-0.22 -0.02,-0.32 -0.04,0.01 -0.06,-0.02 -0.09,-0.04 -0.03,0.02 -0.07,0.02 -0.1,-0 -0.15,0.12 -0.28,0.25 -0.4,0.39 -0.04,0.05 -0.09,0.1 -0.12,0.16 -0.04,0.06 -0.05,0.12 -0.08,0.19 -0.09,0.33 -0.12,0.67 -0.14,1.01 0.1,0.02 0.2,-0.01 0.29,-0.05 0.01,0.05 0.01,0.11 0,0.16 -0.02,0.08 -0.07,0.15 -0.14,0.19 -0.05,0.03 -0.1,0.03 -0.15,0.05 -0.01,0.11 -0.08,0.23 -0.19,0.27 -0.1,0.03 -0.21,-0 -0.29,-0.05 0.01,0.08 0.04,0.15 0.06,0.22 0.06,0.16 0.15,0.32 0.27,0.44 -0,0 -0,0.01 -0,0.02 -0.08,0.05 -0.16,0.1 -0.25,0.14 -0.05,0.02 -0.1,0.05 -0.15,0.06 -0.16,0.07 -0.33,0.12 -0.5,0.16 -0.14,0.02 -0.28,0.06 -0.43,0.06 -0.1,0 -0.2,0.01 -0.3,0 -0.07,-0 -0.14,0 -0.21,-0.01 -0.1,-0.01 -0.19,-0.03 -0.28,-0.05 -0.16,-0.05 -0.32,-0.11 -0.46,-0.2 -0.24,-0.14 -0.44,-0.35 -0.58,-0.59 -0.21,-0.34 -0.32,-0.74 -0.34,-1.14 -0.01,-0.04 0.03,-0.06 0.04,-0.09 0.32,-0.51 0.7,-0.98 1.1,-1.43 -0.09,-0.09 -0.16,-0.21 -0.17,-0.33 -0,-0.04 -0,-0.07 -0,-0.11 0.09,0.03 0.18,-0 0.26,-0.02 0.19,-0.06 0.37,-0.13 0.57,-0.16 0.02,-0 0.05,-0.01 0.07,-0.02 0.39,-0.29 0.8,-0.57 1.27,-0.74zm-0.02 0.17l0 0c-0.38,0.18 -0.73,0.4 -1.07,0.65 0.02,0.03 0.05,0.07 0.05,0.11 -0.13,-0.03 -0.26,-0.05 -0.39,-0.02 -0.12,0.02 -0.23,0.08 -0.35,0.12 -0.09,0.03 -0.18,0.05 -0.28,0.04 0.03,0.09 0.1,0.18 0.18,0.24 0.08,0.07 0.18,0.11 0.29,0.11 -0.07,0.01 -0.14,0.02 -0.21,0.02 -0.45,0.46 -0.82,0.99 -1.19,1.52 0.03,0.33 0.12,0.66 0.29,0.95 0.11,0.19 0.25,0.35 0.42,0.48 0.15,0.12 0.32,0.21 0.5,0.28 0.01,-0.12 0.03,-0.25 0.05,-0.37 0.04,-0.29 0.09,-0.59 0.17,-0.87 0.06,-0.19 0.13,-0.38 0.21,-0.56 -0.34,0.29 -0.66,0.63 -0.85,1.04 -0.02,0.05 -0.04,0.09 -0.07,0.14 -0.02,-0.15 0.03,-0.29 0.07,-0.44 0.09,-0.3 0.21,-0.59 0.35,-0.87 0.08,-0.15 0.16,-0.29 0.26,-0.42 0.05,-0.07 0.11,-0.13 0.18,-0.18 0.03,-0.19 0.05,-0.38 0.06,-0.58 0,-0.03 -0.01,-0.06 0,-0.09 0.01,0.03 0.01,0.06 0.02,0.09 0.02,0.17 0.02,0.35 -0,0.53 0.03,-0.01 0.06,-0.03 0.09,-0.03 0.09,-0.01 0.18,0.04 0.25,0.08 0.14,0.09 0.25,0.21 0.37,0.33 0.04,0.03 0.04,0.08 0.06,0.12 0.09,0.25 0.17,0.5 0.29,0.74 0.06,0.1 0.11,0.22 0.21,0.29 0,-0.02 -0.02,-0.03 -0.02,-0.05 -0.04,-0.1 -0.07,-0.21 -0.08,-0.31 0.03,0.07 0.05,0.15 0.09,0.22 0.05,0.1 0.12,0.2 0.22,0.26 0.07,0.03 0.14,0.02 0.2,-0.02 -0.06,-0.01 -0.12,-0.02 -0.17,-0.05 -0.05,-0.03 -0.09,-0.09 -0.13,-0.14 -0.06,-0.1 -0.1,-0.2 -0.13,-0.31 -0.04,-0.12 -0.05,-0.24 -0.06,-0.37 -0.01,-0.11 -0.02,-0.22 -0.01,-0.34 0.01,-0.19 0.03,-0.39 0.08,-0.58 0.01,-0.06 0.04,-0.12 0.05,-0.18 0.01,-0.01 0.03,-0.02 0.01,-0.03 0,-0.01 0.01,-0.02 0.01,-0.04 -0.06,0.07 -0.13,0.13 -0.19,0.21 -0,0.01 -0.01,0.01 -0.02,0 0.02,-0 0.02,-0.03 0.03,-0.04 0.09,-0.16 0.23,-0.28 0.38,-0.38 -0.01,-0.04 -0.02,-0.09 -0.03,-0.14 -0.07,0.04 -0.14,0.07 -0.21,0.12 -0.18,0.1 -0.34,0.22 -0.5,0.35 -0.02,0.02 -0.04,0.03 -0.06,0.06 -0.03,0.02 -0.06,0.04 -0.08,0.08 -0.01,-0.01 -0.01,-0.01 -0.02,-0.02 0.07,-0.06 0.12,-0.12 0.19,-0.18 0.31,-0.29 0.68,-0.53 1.1,-0.64 0.03,-0.01 0.07,-0.02 0.1,-0.02 -0.14,0.06 -0.28,0.13 -0.41,0.19 -0,0.05 0.01,0.09 0.01,0.14 0.03,-0 0.06,-0.03 0.09,-0.04 0.27,-0.13 0.55,-0.24 0.85,-0.29 0.11,-0.01 0.22,-0.02 0.33,-0.01 0,-0.02 0.01,-0.05 0.01,-0.07 0,-0.02 0,-0.03 0,-0.05 -0.2,-0.09 -0.37,-0.24 -0.5,-0.42l-0 -0c-0,-0.01 -0.01,-0.02 -0.02,-0.03 0.13,0.04 0.26,0.09 0.39,0.12 0.05,0.02 0.11,0.03 0.17,0.03 -0.02,-0.02 -0.05,-0.03 -0.07,-0.05 -0.12,-0.07 -0.24,-0.14 -0.38,-0.18 -0.12,-0.04 -0.24,-0.06 -0.37,-0.04 -0.15,0.01 -0.29,0.08 -0.42,0.15 -0.03,0.02 -0.06,0.04 -0.09,0.05 0.04,-0.03 0.08,-0.06 0.12,-0.09 0.01,-0.01 0.01,-0.01 0.02,-0.02 -0.14,0.04 -0.28,0.09 -0.4,0.18 -0.02,0.01 -0.03,0.02 -0.05,0.03 0.03,-0.03 0.06,-0.06 0.09,-0.09 0,-0.05 -0.01,-0.11 0.01,-0.16 0.01,-0.03 0.03,-0.06 0.05,-0.09 -0.04,-0.02 -0.09,-0.02 -0.12,-0 -0.05,0.02 -0.08,0.06 -0.12,0.08 0.06,-0.1 0.18,-0.17 0.3,-0.14 0.11,0.03 0.21,0.09 0.32,0.09 0.04,0 0.09,-0.01 0.12,-0.04 -0.02,-0.04 -0.05,-0.07 -0.08,-0.1 0.06,0.01 0.1,0.05 0.14,0.09 0.04,-0 0.08,-0.01 0.13,-0.02 0,-0.04 -0.01,-0.08 -0.01,-0.12 0.01,0.03 0.02,0.06 0.04,0.09 0.01,0.01 0.01,0.03 0.02,0.03 0.05,0 0.1,0.01 0.14,0.01 -0.01,-0.03 -0.04,-0.06 -0.05,-0.09 -0.03,-0.04 -0.05,-0.09 -0.1,-0.1 -0.07,-0.01 -0.13,0.02 -0.2,0.03 0.01,0.01 0.01,0.02 0.02,0.03 -0.05,-0.01 -0.1,-0.03 -0.15,-0.02 -0.13,0.01 -0.25,-0.07 -0.38,-0.06 -0.07,0.01 -0.12,0.05 -0.18,0.07zm0.21 0.21l0 0c-0.02,0.04 -0.04,0.08 -0.04,0.13 0.03,-0.02 0.06,-0.05 0.09,-0.06 0.04,-0.02 0.08,-0.03 0.12,-0.05l0.01 -0.01c-0.06,-0.01 -0.12,-0.05 -0.18,-0.01zm1.03 0.19l0 0c0,0 0,0.01 0,0.02 0.03,0.05 0.08,0.09 0.12,0.12 0,-0.01 0,-0.02 0,-0.03 0.01,-0.01 0.02,-0.02 0.03,-0.03 0.02,-0 0.05,0.01 0.07,0.01 0.02,0.02 0.04,0.03 0.06,0.04 -0,0.01 0,0.02 0.02,0.03 -0,0.02 -0.01,0.03 -0.01,0.05 -0.02,0 -0.04,0.01 -0.06,0.01 0.03,0.01 0.05,0.04 0.08,0.05 0.03,0.01 0.05,0.03 0.09,0.02 0.01,-0.03 0.04,-0.06 0.04,-0.1 0,-0.02 0,-0.04 0.01,-0.05 0.01,0.01 0.01,0.02 0.02,0.03 0,0.04 -0,0.08 -0.02,0.11 0.03,-0.03 0.07,-0.06 0.08,-0.11 0,-0.03 -0.03,-0.04 -0.04,-0.07 -0.01,0 -0.01,0.01 -0.02,0.01 -0.02,0 -0.05,0 -0.07,-0 -0.01,-0.01 -0.02,-0.01 -0.03,-0.01 -0.02,-0.01 -0.04,-0.02 -0.06,-0.02 -0.04,-0.02 -0.09,-0.03 -0.14,-0.04 -0.02,-0.01 -0.05,-0.02 -0.07,-0.02 -0.03,-0.01 -0.06,-0.02 -0.09,-0.02 -0,-0 -0.01,-0.01 -0.01,-0.01zm0.43 0.38l0 0c-0,0.04 -0.02,0.08 -0.02,0.12 0.06,0.01 0.1,0.06 0.13,0.11 0.01,-0.11 0.02,-0.22 0.01,-0.33 -0.04,0.03 -0.07,0.07 -0.12,0.1zm-0.41 0.2l0 0 0.01 0.02c-0.01,-0 -0.02,-0.01 -0.02,-0.01 0,0.01 0,0.02 0,0.04 0.02,0 0.04,-0 0.05,-0 -0,0.01 -0,0.02 -0.01,0.02 0.01,-0 0.02,-0 0.02,-0 0.01,0 0.02,0.01 0.02,0.01l-0 0.01c0.01,-0 0.02,-0.01 0.02,-0.01l-0 0.01c0.02,0 0.03,0.01 0.05,0.01l-0 0.01c0.02,0 0.03,0 0.05,0l0 0.01c0.02,-0 0.04,-0 0.06,-0l-0 0.01c0.01,0 0.03,0 0.04,0l-0 -0.01c0.03,0 0.05,0 0.08,0l0 -0.01c0.01,0 0.02,0.01 0.02,0.01l-0 -0.02 0.02 0c-0,-0.01 -0,-0.02 -0.01,-0.02 0.01,0 0.03,0 0.04,0 0,-0.01 0,-0.02 0,-0.04 -0.01,0 -0.02,0.01 -0.02,0.01l0.01 -0.02 -0.02 0.01c0,-0.01 0.01,-0.02 0.01,-0.02l-0.01 0 0 -0.01c-0.01,0 -0.02,0 -0.02,0 0,-0.01 0,-0.02 -0,-0.02 -0.11,-0 -0.21,0 -0.32,-0l0 0.01c-0.02,-0 -0.04,-0 -0.06,-0zm-0.4 0.11l0 0c0,0.02 0.02,0.04 0.03,0.06 0.02,0.05 0.04,0.09 0.05,0.14 0.01,0.07 0,0.15 -0.01,0.22 0.04,-0.07 0.09,-0.12 0.11,-0.2 0.03,-0.09 0.05,-0.19 0.04,-0.29 -0.07,0.03 -0.16,0.03 -0.23,0.07zm0.28 -0.06l0 0c-0,0.05 0.02,0.1 0.04,0.14 0,0.01 0.01,0.02 0.02,0.03 0.02,-0.03 0.06,-0.06 0.07,-0.1 -0.01,-0.01 -0.03,-0.01 -0.04,-0.02 -0.03,-0.01 -0.06,-0.04 -0.09,-0.05zm0.57 0.06l0 0c-0.02,0.02 -0.03,0.04 -0.05,0.06 -0.01,0.04 -0.02,0.08 -0.03,0.11 -0.01,0.03 -0.05,0.07 -0.08,0.04 0.03,0.05 0.04,0.11 0.03,0.16 0,0.01 -0.01,0.03 0.01,0.04 0.08,-0.13 0.14,-0.27 0.13,-0.42 -0,-0 -0.01,-0 -0.01,-0zm-0.41 0.04l0 0c0,0.03 0,0.06 0.02,0.09 0.01,0.01 0.01,0.03 0.03,0.03 0.02,-0.03 0.03,-0.06 0.04,-0.09 -0.03,-0.01 -0.05,-0.02 -0.08,-0.03zm0.25 0.05l0 0c-0.01,0.02 -0.02,0.03 -0.01,0.05 0.01,0.02 0.02,0.03 0.03,0.05 0.02,-0.04 0.03,-0.08 0.04,-0.12 -0.02,0.01 -0.04,0.01 -0.06,0.02zm-0.13 0.02l0 0c0.01,0.02 0.02,0.05 0.04,0.06 0.02,-0.02 0.03,-0.05 0.05,-0.07 -0.03,-0 -0.06,-0 -0.09,-0.01 0,0.01 0,0.02 0,0.03zm-1.41 0.62l0 0c-0,0.06 -0.02,0.12 -0.03,0.19 -0.02,0.15 -0.02,0.3 -0.02,0.46 0.02,-0.08 0.07,-0.14 0.09,-0.21 0.01,-0.04 0,-0.07 -0,-0.11 0.04,0.07 0.02,0.16 0,0.24 -0.04,0.14 -0.07,0.29 -0.06,0.44 0.01,0.07 0.02,0.15 0.05,0.22 0.02,-0.02 0.05,-0.04 0.07,-0.04 0.06,-0 0.1,0.05 0.16,0.05 0.04,0 0.09,0 0.13,-0.02 0,0.06 -0.01,0.14 -0.07,0.18 0.02,0.03 0.05,0.03 0.08,0.04 0.01,-0.03 0.01,-0.05 0.01,-0.08 0,-0.05 0.03,-0.09 0.01,-0.14 -0.01,-0.05 -0.05,-0.09 -0.08,-0.13 -0.07,-0.07 -0.11,-0.17 -0.1,-0.27 0.01,-0.15 0.1,-0.28 0.16,-0.41 0.01,-0.05 0.03,-0.1 0.02,-0.16 -0.02,-0.08 -0.09,-0.12 -0.16,-0.15 0.03,0.09 0.02,0.2 -0,0.29 -0,-0.06 0.02,-0.12 -0,-0.18 -0.03,-0.08 -0.11,-0.13 -0.18,-0.17 -0.03,-0.01 -0.05,-0.03 -0.08,-0.04zm0.08 1.23l0 0c-0.03,0.06 0,0.12 0.02,0.18 0.02,0.01 0.04,0.02 0.05,0.02 0.1,-0.01 0.17,-0.09 0.22,-0.17 -0.04,0.01 -0.08,0.02 -0.11,0.02 -0.04,0 -0.08,-0.03 -0.12,-0.04 -0.02,-0.01 -0.04,-0 -0.06,-0zm0.47 0.09l0 0c-0.03,-0 -0.05,-0.02 -0.08,-0.02 -0.01,0.05 -0.01,0.1 -0,0.15 0.01,0.02 0.02,0.03 0.03,0.04 0.04,0 0.08,-0 0.12,-0.03 0.06,-0.04 0.1,-0.1 0.13,-0.15 0,-0.01 0,-0.02 0,-0.02 -0.06,0.04 -0.14,0.04 -0.21,0.03z"/>
     <path class="fil3" d="M2.82 0.51c0.04,-0.02 0.08,-0.06 0.13,-0.06 0.02,0.02 0.03,0.04 0.03,0.07 -0.01,0.04 -0.04,0.09 -0.09,0.11 -0.05,0.02 -0.11,-0 -0.12,-0.05 0,-0.03 0.03,-0.05 0.06,-0.07z"/>
     <path class="fil3" d="M3.94 0.48c0.1,-0.02 0.2,0.04 0.28,0.1 -0.17,-0.06 -0.36,-0.06 -0.51,0.02 0.07,-0.05 0.14,-0.1 0.23,-0.12z"/>
     <path class="fil3" d="M3.74 0.65c0.1,-0.05 0.21,-0.07 0.32,-0.03 0.07,0.02 0.12,0.08 0.15,0.15 -0.03,-0.07 -0.11,-0.09 -0.17,-0.1 -0.08,-0.01 -0.16,-0.01 -0.23,0.03 0.1,0.01 0.22,0.04 0.27,0.14 -0.04,-0.03 -0.08,-0.07 -0.14,-0.08 -0.14,-0.04 -0.29,0.04 -0.36,0.16 -0.04,0 -0.07,0.01 -0.11,0.02 0.02,-0.05 0.07,-0.09 0.1,-0.13 0.04,-0.04 0.09,-0.07 0.14,-0.09 0,-0.02 0,-0.05 0.03,-0.06z"/>
     <path class="fil3" d="M2.82 0.75c0.05,-0.01 0.1,0.02 0.11,0.07 0.02,0.08 -0.03,0.17 -0.08,0.23 -0.06,0.08 -0.17,0.12 -0.27,0.12 -0.06,0 -0.12,-0.01 -0.16,-0.06 -0.04,-0.05 -0.01,-0.12 0.03,-0.16 0.07,-0.08 0.15,-0.17 0.27,-0.17 0.04,0 0.07,-0.02 0.11,-0.03z"/>
     <path class="fil3" d="M3.22 0.81c0.03,-0.02 0.07,-0.01 0.11,-0.02 0.02,-0 0.04,0.01 0.06,0.02 0.01,0.05 -0.03,0.08 -0.07,0.1 -0.04,0.03 -0.11,0.01 -0.13,-0.03 -0.01,-0.03 0.01,-0.06 0.04,-0.08z"/>
     <path class="fil3" d="M2.97 1.11c0.36,-0.12 0.75,-0.2 1.13,-0.16 -0.1,0.01 -0.21,0.01 -0.31,0.03 -0.1,0.02 -0.21,0.05 -0.31,0.08 -0.01,0.01 -0.01,0.03 -0.01,0.04 -0.03,0 -0.05,0.01 -0.08,0.02 -0,0 -0.01,0 -0.02,0 0,-0.01 0,-0.03 0,-0.03 -0.47,0.09 -0.94,0.23 -1.34,0.5 0.02,-0.02 0.03,-0.03 0.05,-0.05 0.26,-0.19 0.57,-0.32 0.87,-0.43z"/>
     <path class="fil3" d="M3.8 1.06c0.06,-0.01 0.13,-0.03 0.2,-0.03 -0.18,0.04 -0.36,0.1 -0.54,0.17 0,0.02 0,0.03 0,0.05 -0.02,0.01 -0.05,0.02 -0.07,0.03 -0.01,0 -0.02,0.01 -0.03,0.01 0,-0.02 0,-0.04 0,-0.06 -0.18,0.07 -0.36,0.15 -0.54,0.23 -0.22,0.11 -0.43,0.23 -0.63,0.36 -0.06,0.04 -0.12,0.09 -0.18,0.14 -0.03,0.03 -0.06,0.06 -0.09,0.08 0.11,-0.13 0.25,-0.24 0.38,-0.35 0.23,-0.17 0.49,-0.32 0.76,-0.43 0.24,-0.1 0.48,-0.18 0.74,-0.22z"/>
     <path class="fil3" d="M1.32 1.25c0.13,-0.02 0.23,-0.12 0.36,-0.14 0.08,-0.01 0.16,0.04 0.21,0.1 0.03,0.04 0.03,0.09 -0.01,0.13 -0.08,0.06 -0.18,0.06 -0.27,0.05 0.06,-0.02 0.13,-0.04 0.16,-0.1 0,-0.02 0.02,-0.04 -0,-0.05 -0.05,-0.03 -0.1,-0 -0.15,0.01 -0.07,0.02 -0.15,0.06 -0.23,0.04 0.03,0.06 0.1,0.06 0.15,0.09 -0.06,-0.01 -0.14,-0 -0.19,-0.04 -0.02,-0.01 -0.02,-0.04 -0.04,-0.06 -0.04,-0.01 -0.08,-0.01 -0.1,-0.05 0.04,0.02 0.08,0.04 0.12,0.03z"/>
     <path class="fil3" d="M2.07 1.18c0.04,-0.01 0.09,0.01 0.12,0.03 0.03,0.02 0.05,0.04 0.06,0.08 0,0.03 -0.02,0.06 -0.05,0.06 -0.05,0.01 -0.09,-0.03 -0.11,-0.06 -0.02,-0.03 -0.05,-0.08 -0.01,-0.11z"/>
     <path class="fil3" d="M1.44 1.66c0.02,-0.01 0.05,-0 0.06,0.02 0.02,0.04 0,0.09 -0.01,0.13 -0.02,0.06 -0.08,0.1 -0.15,0.1 -0.05,-0.01 -0.09,-0.06 -0.08,-0.11 0,-0.02 0.02,-0.04 0.04,-0.05 0.04,-0.03 0.08,-0.07 0.14,-0.09z"/>
     <path class="fil3" d="M1.26 2.07c0.04,-0.01 0.08,-0.01 0.11,0.02 0.03,0.04 0.02,0.1 0.02,0.14 0,0.13 -0.04,0.25 -0.12,0.35 -0.04,0.04 -0.09,0.09 -0.15,0.08 -0.05,0 -0.08,-0.03 -0.12,-0.06 -0.07,-0.05 -0.11,-0.15 -0.1,-0.23 0.01,-0.06 0.04,-0.11 0.08,-0.14 0.07,-0.08 0.18,-0.12 0.28,-0.15z"/>
     <path class="fil3" d="M0.47 2.86c0.05,-0.07 0.11,-0.14 0.18,-0.19 0.02,-0.01 0.04,-0.01 0.06,-0 0.04,0.08 0,0.18 -0.02,0.26 -0.02,0.05 -0.02,0.11 -0.05,0.16 -0.04,0.05 -0.09,0.09 -0.15,0.09 -0.04,0.01 -0.08,-0.02 -0.1,-0.06 -0.01,-0.04 -0,-0.09 0.01,-0.13 0.02,-0.04 0.03,-0.09 0.06,-0.13z"/>
     <path class="fil3" d="M3.3 2.95c0.01,-0.08 0.04,-0.17 0.07,-0.25 -0.01,0.1 -0.02,0.2 0.01,0.3 0.02,0.09 0.06,0.16 0.12,0.23 -0.05,-0.04 -0.11,-0.09 -0.15,-0.14 -0.03,-0.04 -0.04,-0.1 -0.04,-0.15z"/>
     <path class="fil3" d="M0.99 2.9c0.04,-0.02 0.08,0.01 0.09,0.04 0.01,0.05 0.01,0.1 -0,0.15 -0.01,0.06 -0.06,0.11 -0.12,0.14 -0.06,0.03 -0.13,-0.02 -0.15,-0.08 -0.02,-0.06 -0,-0.13 0.04,-0.17 0.04,-0.04 0.08,-0.07 0.13,-0.09z"/>
     <path class="fil3" d="M0.59 3.37c0.01,-0 0.03,-0 0.04,0.01 0.04,0.05 0.03,0.11 0.02,0.16 -0.01,0.04 -0.01,0.09 -0.05,0.12 -0.05,0.01 -0.11,-0.01 -0.12,-0.05 -0,-0.05 0.01,-0.1 0.03,-0.15 0.02,-0.04 0.04,-0.07 0.08,-0.09z"/>
     <path class="fil4" d="M3.36 0.47c0.06,-0.04 0.12,0.01 0.18,0.01l-0.01 0.01c-0.04,0.02 -0.08,0.03 -0.12,0.05 -0.03,0.01 -0.06,0.04 -0.09,0.06 0,-0.05 0.01,-0.09 0.04,-0.13z"/>
     <path class="fil4" d="M4.25 0.61c0,0 0.01,0 0.02,0l0 0c0.13,0.17 0.29,0.33 0.5,0.42 -0,0.02 -0,0.04 -0,0.05 -0,0.02 -0.01,0.05 -0.01,0.07 -0.11,-0.01 -0.22,0 -0.33,0.01 -0.3,0.04 -0.58,0.16 -0.85,0.29 -0.03,0.01 -0.06,0.03 -0.09,0.04 -0,-0.05 -0.02,-0.09 -0.01,-0.14 0.14,-0.06 0.28,-0.13 0.41,-0.19 -0.04,-0 -0.07,0.01 -0.1,0.02 -0.42,0.11 -0.78,0.35 -1.1,0.64 -0.07,0.06 -0.12,0.12 -0.19,0.18 0.01,0.01 0.01,0.01 0.02,0.02 0.02,-0.03 0.05,-0.05 0.08,-0.08 -0.03,0.04 -0.07,0.06 -0.1,0.1 0,-0 0.01,-0.01 0.01,-0.02 -0.01,-0.01 -0.01,-0.01 -0.02,-0.02 -0.03,0.03 -0.06,0.06 -0.09,0.09 0.08,-0.09 0.15,-0.19 0.24,-0.26 0.15,-0.15 0.32,-0.28 0.5,-0.4 0.08,-0.06 0.17,-0.11 0.26,-0.15 0.02,-0.01 0.05,-0.02 0.07,-0.03 -0,-0.02 -0,-0.03 -0,-0.05 0.17,-0.07 0.35,-0.13 0.54,-0.17 -0.07,0 -0.13,0.01 -0.2,0.03 -0.25,0.04 -0.5,0.12 -0.74,0.22 -0.27,0.11 -0.52,0.26 -0.76,0.43 -0.14,0.1 -0.27,0.21 -0.38,0.35 0.03,-0.03 0.06,-0.05 0.09,-0.08 0.12,0.05 0.25,0.07 0.35,0.15 -0.01,0.01 -0.01,0.02 -0.02,0.03 0.01,-0.01 0.02,-0.01 0.03,-0.02 0.03,0.02 0.05,0.03 0.07,0.05 -0,0 -0.01,0.01 -0.02,0.01 0.01,0 0.02,0 0.03,0 0.06,0.04 0.11,0.1 0.17,0.13 0.04,-0.07 0.09,-0.14 0.13,-0.21 -0.04,0.02 -0.09,0.05 -0.13,0.07 0.04,-0.08 0.09,-0.15 0.13,-0.22 0.06,-0.11 0.15,-0.21 0.24,-0.3 0.04,-0.04 0.09,-0.08 0.13,-0.12 0,0 0.01,0 0.02,0 -0,-0.01 -0,-0.02 -0,-0.02 0.07,-0.04 0.14,-0.08 0.21,-0.12 0.01,0.05 0.01,0.09 0.03,0.14 -0.14,0.1 -0.29,0.22 -0.38,0.38 -0.01,0.01 -0.01,0.04 -0.03,0.04 0.01,0 0.01,0 0.02,-0 0.05,-0.08 0.12,-0.14 0.19,-0.21 -0,0.01 -0.01,0.02 -0.01,0.04 0.02,0.01 -0,0.02 -0.01,0.03 -0.01,0.06 -0.04,0.12 -0.05,0.18 -0.05,0.19 -0.07,0.38 -0.08,0.58 -0.01,0.11 0,0.23 0.01,0.34 0.02,0.12 0.03,0.25 0.06,0.37 0.03,0.11 0.07,0.21 0.13,0.31 0.04,0.05 0.07,0.1 0.13,0.14 0.05,0.04 0.11,0.05 0.17,0.05 -0.06,0.04 -0.14,0.05 -0.2,0.02 -0.1,-0.06 -0.17,-0.16 -0.22,-0.26 -0.04,-0.07 -0.06,-0.14 -0.09,-0.22 0,0.11 0.03,0.22 0.08,0.31 0.01,0.02 0.03,0.03 0.02,0.05 -0.1,-0.07 -0.15,-0.19 -0.21,-0.29 -0.12,-0.24 -0.2,-0.49 -0.29,-0.74 -0.02,-0.04 -0.02,-0.09 -0.06,-0.12 -0.12,-0.11 -0.23,-0.24 -0.37,-0.33 -0.07,-0.05 -0.16,-0.09 -0.25,-0.08 -0.03,0 -0.06,0.02 -0.09,0.03 0.02,-0.17 0.03,-0.35 0,-0.53 0,-0.02 0,-0.03 0,-0.05 0.02,0.04 0.04,0.09 0.06,0.13 0.02,0.08 0.03,0.17 0.04,0.25 0.03,0 0.05,-0.01 0.06,-0.03 0.08,-0.08 0.16,-0.16 0.25,-0.24 0.24,-0.21 0.53,-0.36 0.83,-0.48 0.1,-0.04 0.2,-0.08 0.31,-0.1 0.03,-0.01 0.05,-0.01 0.08,-0.02 0,-0.01 0.01,-0.03 0.01,-0.04 0.1,-0.03 0.2,-0.06 0.31,-0.08 0.1,-0.02 0.2,-0.02 0.31,-0.03 -0.38,-0.04 -0.77,0.04 -1.13,0.16 -0.31,0.11 -0.61,0.23 -0.87,0.43 0.03,-0.05 0.08,-0.07 0.12,-0.1 0.18,-0.12 0.38,-0.22 0.59,-0.3 0.22,-0.08 0.43,-0.16 0.66,-0.2 0.03,-0.01 0.07,-0.01 0.11,-0.02 0.07,-0.12 0.22,-0.2 0.36,-0.16 0.05,0.01 0.1,0.05 0.14,0.08 -0.05,-0.1 -0.17,-0.13 -0.27,-0.14 0.07,-0.04 0.16,-0.04 0.23,-0.03 0.07,0.01 0.14,0.04 0.17,0.1 -0.02,-0.07 -0.08,-0.12 -0.15,-0.15 0.07,-0.03 0.15,0 0.22,0.01 -0.01,-0.01 -0.02,-0.02 -0.03,-0.03z"/>
     <path class="fil4" d="M4.81 1.04c0.05,-0.02 0.07,-0.07 0.12,-0.1 0.01,0.11 0.01,0.22 -0.01,0.33 -0.03,-0.05 -0.07,-0.09 -0.13,-0.11 0.01,-0.04 0.02,-0.08 0.02,-0.12z"/>
     <path class="fil4" d="M4 1.35c0.07,-0.04 0.15,-0.04 0.23,-0.07 0.01,0.1 -0,0.2 -0.04,0.29 -0.02,0.07 -0.07,0.13 -0.11,0.2 0.01,-0.07 0.02,-0.15 0.01,-0.22 -0.01,-0.05 -0.03,-0.1 -0.05,-0.14 -0.01,-0.02 -0.03,-0.03 -0.03,-0.06z"/>
     <path class="fil4" d="M4.29 1.29c0.03,0.01 0.06,0.04 0.09,0.05 0.01,0.01 0.03,0.01 0.04,0.02 -0.01,0.04 -0.05,0.06 -0.07,0.1 -0.01,-0.01 -0.02,-0.01 -0.02,-0.03 -0.02,-0.05 -0.04,-0.09 -0.04,-0.14z"/>
     <path class="fil4" d="M4.86 1.35c0,0 0.01,0 0.01,0 0.01,0.15 -0.05,0.29 -0.13,0.42 -0.01,-0.01 -0.01,-0.03 -0.01,-0.04 0,-0.06 -0.01,-0.11 -0.03,-0.16 0.03,0.03 0.07,-0 0.08,-0.04 0.01,-0.04 0.02,-0.07 0.03,-0.11 0.02,-0.02 0.03,-0.04 0.05,-0.06z"/>
     <path class="fil4" d="M4.46 1.39c0.03,0.01 0.05,0.02 0.08,0.03 -0.01,0.03 -0.02,0.06 -0.04,0.09 -0.02,0 -0.02,-0.02 -0.03,-0.03 -0.01,-0.03 -0.01,-0.06 -0.02,-0.09z"/>
     <path class="fil4" d="M4.71 1.44c0.02,-0.01 0.04,-0.01 0.06,-0.02 -0,0.04 -0.02,0.08 -0.04,0.12 -0.01,-0.02 -0.02,-0.03 -0.03,-0.05 -0.01,-0.02 0,-0.04 0.01,-0.05z"/>
     <path class="fil4" d="M4.58 1.45c-0,-0.01 -0,-0.02 -0,-0.03 0.03,0.01 0.06,0.01 0.09,0.01 -0.01,0.03 -0.03,0.05 -0.05,0.07 -0.02,-0.01 -0.03,-0.04 -0.04,-0.06z"/>
     <path class="fil4" d="M4.95 1.44c0,0 0.01,0 0.01,0 -0.02,0.01 -0.01,0.03 -0.01,0.05 -0.02,0.01 -0.01,0.04 -0.01,0.05 -0.02,0.01 -0,0.04 0,0.06 -0.01,0 -0.02,0 -0.02,0 0,0.01 -0,0.02 -0,0.03 -0.02,0.02 -0.04,0.04 -0.05,0.07l0.01 0c-0.01,0.01 -0.02,0.02 -0.03,0.03 0.02,-0.03 0.03,-0.07 0.05,-0.11 0.03,-0.06 0.02,-0.12 0.04,-0.18z"/>
     <path class="fil4" d="M3.24 3.31c0.02,0 0.04,-0 0.06,0 0.04,0.02 0.07,0.05 0.12,0.04 0.04,0 0.08,-0.01 0.11,-0.02 -0.05,0.08 -0.12,0.16 -0.22,0.17 -0.02,-0.01 -0.04,-0.01 -0.05,-0.02 -0.02,-0.06 -0.05,-0.12 -0.02,-0.18z"/>
     <path class="fil4" d="M3.72 3.4c0.07,0.01 0.15,0.01 0.21,-0.03 -0,0.01 -0,0.02 -0,0.02 -0.04,0.06 -0.07,0.12 -0.13,0.15 -0.03,0.02 -0.08,0.03 -0.12,0.03 -0.01,-0.01 -0.02,-0.03 -0.03,-0.04 -0.01,-0.05 -0,-0.1 0,-0.15 0.03,-0 0.05,0.02 0.08,0.02z"/>
    </g>
    <path class="fil5 str0" d="M5.02 0.91c0,0.09 0,0.19 -0,0.28 -0.02,0.02 -0.01,0.06 -0.01,0.08 -0.01,0.02 -0.01,0.04 -0.01,0.06 -0.01,0.01 -0.01,0.02 -0.01,0.04 -0,0.01 -0.01,0.02 -0.01,0.02 0,0.02 -0,0.04 -0.01,0.05l-0.01 -0c-0.02,0.01 -0.01,0.03 -0.01,0.05 -0.02,0.01 -0.01,0.04 -0.01,0.05 -0.02,0.01 -0,0.04 0,0.06 -0.01,0 -0.02,0 -0.02,0 0,0.01 -0,0.02 -0,0.03 -0.02,0.02 -0.04,0.04 -0.05,0.07l0.01 0c-0.01,0.01 -0.02,0.02 -0.03,0.03 -0.04,0.08 -0.12,0.13 -0.19,0.18 -0.01,0 -0.02,0 -0.03,0.01 0,-0.11 0.01,-0.22 -0.02,-0.32 -0.04,0.01 -0.06,-0.02 -0.09,-0.04 -0.03,0.02 -0.07,0.02 -0.1,-0 -0.15,0.12 -0.28,0.25 -0.4,0.39 -0.04,0.05 -0.09,0.1 -0.12,0.16 -0.04,0.06 -0.05,0.12 -0.08,0.19 -0.09,0.33 -0.12,0.67 -0.14,1.01 0.1,0.02 0.2,-0.01 0.29,-0.05 0.01,0.05 0.01,0.11 0,0.16 -0.02,0.08 -0.07,0.15 -0.14,0.19 -0.05,0.03 -0.1,0.03 -0.15,0.05 -0.01,0.11 -0.08,0.23 -0.19,0.27 -0.1,0.03 -0.21,-0 -0.29,-0.05 0.01,0.08 0.04,0.15 0.06,0.22 0.06,0.16 0.15,0.32 0.27,0.44 -0,0 -0,0.01 -0,0.02 -0.08,0.05 -0.16,0.1 -0.25,0.14 -0.05,0.02 -0.1,0.05 -0.15,0.06 -0.16,0.07 -0.33,0.12 -0.5,0.16 -0.14,0.02 -0.28,0.06 -0.43,0.06 -0.1,0 -0.2,0.01 -0.3,0 -0.07,-0 -0.14,0 -0.21,-0.01 -0.1,-0.01 -0.19,-0.03 -0.28,-0.05 -0.16,-0.05 -0.32,-0.11 -0.46,-0.2 -0.24,-0.14 -0.44,-0.35 -0.58,-0.59 -0.21,-0.34 -0.32,-0.74 -0.34,-1.14 -0.01,-0.04 0.03,-0.06 0.04,-0.09 0.32,-0.51 0.7,-0.98 1.1,-1.43 -0.09,-0.09 -0.16,-0.21 -0.17,-0.33 -0,-0.04 -0,-0.07 -0,-0.11 0.09,0.03 0.18,-0 0.26,-0.02 0.19,-0.06 0.37,-0.13 0.57,-0.16 0.02,-0 0.05,-0.01 0.07,-0.02 0.39,-0.29 0.8,-0.57 1.27,-0.74 0.07,-0.04 0.16,-0.07 0.25,-0.05 0.06,0.01 0.11,0.04 0.17,0.06 0.06,0.02 0.12,0.05 0.19,0.03 0.03,-0.01 0.07,-0 0.1,-0.03 0.01,-0 0.03,0 0.04,-0.01 0.05,-0 0.09,-0.03 0.13,-0.02 0.04,0 0.08,-0 0.11,0.01 0.05,0.04 0.08,0.09 0.12,0.14 0,0 0,0 0,0l0.01 0.02c0,0 0,0 0,0 0.03,0.04 0.05,0.08 0.07,0.13 0.05,0.02 0.1,0.04 0.15,0.06 0.05,0.02 0.1,0.05 0.15,0.07 0.05,0.04 0.1,0.07 0.15,0.11 0.06,0.04 0.1,0.1 0.16,0.14 0.03,0.02 0.03,0.05 0.05,0.08 0.01,0.02 0.01,0.05 0.01,0.07 0,0 0.01,0.01 0.01,0.02z"/>
   </g>
   <path class="fil5 str1" d="M3.33 0.53c0.03,-0.05 0.08,-0.08 0.14,-0.07"/>
   <path class="fil6" d="M3.36 0.47c-0.01,0.02 -0.02,0.04 -0.03,0.07 0.03,-0.05 0.08,-0.08 0.14,-0.07 -0.04,-0.01 -0.07,-0.02 -0.11,0.01z"/>
   <path class="fil7" d="M3.46 0.46c-0.06,-0 -0.1,0.02 -0.14,0.07 -0.01,0.02 -0.01,0.04 -0.01,0.06 0.03,-0.02 0.06,-0.05 0.09,-0.06 0.04,-0.02 0.08,-0.03 0.12,-0.05l0.01 -0.01c-0.02,-0 -0.05,-0.01 -0.07,-0.02z"/>
  </g>
 </g>
</svg>
