<?xml version="1.0" encoding="UTF-8"?>
<!DOCTYPE svg PUBLIC "-//W3C//DTD SVG 1.1//EN" "http://www.w3.org/Graphics/SVG/1.1/DTD/svg11.dtd">
<!-- Creator: CorelDRAW 2018 (64-Bit) -->
<svg xmlns="http://www.w3.org/2000/svg" xml:space="preserve" width="7.73155in" height="8.2383in" version="1.1" style="shape-rendering:geometricPrecision; text-rendering:geometricPrecision; image-rendering:optimizeQuality; fill-rule:evenodd; clip-rule:evenodd"
viewBox="0 0 650.62 693.26"
 xmlns:xlink="http://www.w3.org/1999/xlink">
 <defs>
  <style type="text/css">
   <![CDATA[
    .fil1 {fill:#FEFEFE;fill-rule:nonzero}
    .fil0 {fill:#452C01;fill-rule:nonzero}
    .fil5 {fill:#EA9E16;fill-rule:nonzero}
    .fil2 {fill:#FAD95E;fill-rule:nonzero}
    .fil3 {fill:#FDFDFD;fill-rule:nonzero}
    .fil4 {fill:red;fill-rule:nonzero}
   ]]>
  </style>
 </defs>
 <g id="Layer_x0020_1">
  <metadata id="CorelCorpID_0Corel-Layer"/>
  <g id="_1017829408">
   <g>
    <g>
     <path class="fil0" d="M226.27 20.45c32.1,-10.92 69.32,-9.96 99.06,7.32 19.54,-11.42 42.7,-15.72 65.15,-14.13 15.5,1.13 30.94,4.7 45.01,11.36 0.29,0.27 0.87,0.79 1.16,1.05 -5.79,1.11 -11.67,2.4 -16.87,5.31 31.76,-0.21 62.81,12.96 86.48,33.81 3.72,3.45 7.5,6.9 10.52,11 -8.95,-2.95 -18.34,-5.21 -27.83,-4.75 26.05,13.03 45.09,36.03 61.8,59.25 12.21,16.87 23.33,34.54 36.39,50.78 11.36,13.86 25.05,28.07 43.47,31.35 -5.71,11.62 -15.88,21.13 -28.25,25.21 -9.05,3.16 -18.78,3.64 -28.27,2.94 12.74,12.59 21.01,29.13 25.14,46.45 7.82,32.78 4,68.22 -10.39,98.67 -2.33,-16.32 -7.81,-33.71 -21.35,-44.21 6.87,15.28 7.31,32.57 5.27,48.95 -2.49,19.18 -8.39,37.85 -16.84,55.21 -7.17,14.53 -16.25,28.39 -28.37,39.29 3.23,-10.81 4.6,-22.09 4.87,-33.34 0.1,-6.88 -0.18,-13.85 -1.73,-20.57 -1.15,2.87 -1.32,5.98 -1.95,8.99 -6.59,34.1 -21.75,66.29 -42.7,93.89 -20.74,27.22 -47.08,50.49 -77.63,66.12 4.55,-10.12 9.15,-20.56 9.73,-31.8 -5.26,7.44 -11.42,14.22 -18.58,19.89 -12.37,10.02 -25.83,18.66 -37.66,29.37 -14.18,12.62 -26.11,27.75 -35.11,44.46 -0.58,0.64 -0.67,2.2 -1.82,1.99 -8.15,-15.2 -18.38,-29.33 -30.79,-41.34 -11.51,-11.38 -24.94,-20.53 -37.81,-30.27 -9.12,-6.8 -17.48,-14.7 -23.88,-24.15 0.54,11.25 5.18,21.7 9.7,31.84 -25.91,-13.21 -48.76,-32.03 -67.76,-53.96 -24.23,-28.04 -42.27,-61.66 -50.79,-97.82 -1.58,-5.65 -1.94,-11.6 -3.71,-17.17 -1.52,6.41 -1.79,13.03 -1.75,19.59 0.18,11.56 1.62,23.14 4.85,34.26 -12.45,-11.25 -21.73,-25.56 -28.97,-40.58 -7.57,-15.85 -12.99,-32.77 -15.68,-50.14 -2.61,-17.53 -2.64,-36.2 4.71,-52.67 -13.35,10.46 -19.24,27.68 -21.07,44 -1.07,-1.29 -1.73,-2.81 -2.32,-4.36 -9.66,-22.33 -13.63,-47.04 -11.89,-71.29 1.56,-20.75 7.32,-41.73 19.66,-58.75 2.66,-3.83 6.01,-7.08 9.06,-10.57 -13.04,1.09 -26.83,-0.54 -38.11,-7.58 -7.99,-4.85 -14.18,-12.26 -18.4,-20.52 8.4,-1.49 16.17,-5.43 22.89,-10.6 10.29,-7.9 18.6,-17.99 26.42,-28.27 19.5,-26.05 35.96,-54.62 59.03,-77.85 9.73,-9.94 20.99,-18.33 33.3,-24.78 -9.49,-0.3 -18.85,1.85 -27.81,4.82 10.96,-13.4 25.47,-23.57 40.84,-31.35 17.36,-8.63 36.64,-13.64 56.09,-13.42 -5.19,-3.05 -11.17,-4.2 -16.99,-5.4 3.72,-2.66 8.25,-3.87 12.47,-5.53zm53.59 17.1l0 0c0.25,0.07 0.76,0.18 1.02,0.25 7.15,7.67 13,16.69 16.04,26.8 -10.25,-6.87 -22.66,-9.23 -34.68,-10.8 -14.65,-1.67 -29.6,-1.77 -44.14,0.86 -2.99,0.55 -5.98,1.15 -8.77,2.4 4.01,-0.26 7.97,0.53 11.95,0.66 11.98,2.56 23.86,5.97 34.78,11.64 15.82,8.09 30.58,19.6 39.57,35.16 -17.21,-8.15 -36.44,-12.15 -55.48,-11.04 -5.9,0.56 -12,1.16 -17.43,3.71 6.77,2.29 13.18,5.5 19.28,9.2 15.16,9.27 28.71,21.29 39.19,35.67 15.38,-0.13 30.75,3.94 44.12,11.52 13.41,-7.58 28.79,-11.64 44.21,-11.55 5.91,-8.08 12.69,-15.53 20.36,-21.98 11.33,-9.58 23.95,-17.98 38.05,-22.86 -5.44,-2.54 -11.56,-3.16 -17.47,-3.71 -19.04,-1.12 -38.3,2.93 -55.54,11.07 9.88,-16.76 26.1,-28.94 43.52,-37.05 9.52,-4.6 19.78,-7.21 29.99,-9.69 4.3,-0.15 8.56,-0.99 12.88,-0.82 -2.8,-1.16 -5.76,-1.79 -8.72,-2.33 -15.52,-2.8 -31.49,-2.56 -47.09,-0.5 -11.04,1.65 -22.38,4.09 -31.77,10.44 3.04,-10.09 8.85,-19.14 16.04,-26.77 0.22,-0.06 0.67,-0.17 0.9,-0.23 -3.62,-0.3 -7.23,0.24 -10.77,0.92 -12.52,2.49 -24.7,7.61 -34.58,15.82 -12.75,-10.27 -29.05,-16.58 -45.46,-16.79zm-100.04 97.52l0 0c-1.88,7.71 -0.66,15.87 2.38,23.1 4.05,9.84 11.37,19.31 21.76,22.84 -7.67,-9.09 -12.6,-21.04 -11.24,-33.06 7.58,-0.8 15.33,0.62 22.25,3.76 11.89,5.38 21.26,15.21 28.03,26.19 -18.59,7.61 -35.64,20.02 -46.98,36.75 9.24,-4.74 19.13,-9.05 29.65,-9.51 -6.24,4.06 -11.43,9.55 -15.95,15.42 -10.8,14.24 -17.55,31.69 -18.22,49.61 4.87,-7.65 11.86,-14.35 20.5,-17.46 1.89,19.93 11.48,37.84 17.95,56.48 3.64,9.88 5.97,20.17 7.43,30.59 3.92,-9.9 8.17,-21.04 4.04,-31.59 9.37,7.12 13.12,19.87 10.48,31.16l0.27 0.42c-0.71,2.66 -1.24,5.38 -1.93,8.05 4.58,8.82 13.01,15.36 22.65,17.72 -8.93,1.68 -18.32,0.39 -26.55,-3.42 -1.24,4.39 -1.97,8.9 -2.61,13.42 8.08,6.28 19.07,8.68 29.01,6.09 -7.3,6.29 -17.17,9.21 -26.7,9.2 2.37,6.17 7.12,11.21 12.48,14.95 7.9,0.74 15.8,-2.6 21.99,-7.39 -1.88,4.08 -4.68,7.62 -7.7,10.91 13.77,-0.74 27.67,-3.21 40.33,-8.79 4.52,-5.13 6.62,-12.96 3.97,-19.46 -0.91,-2.47 -2.9,-4.24 -4.52,-6.23 -2.56,-6.52 -5.18,-13.49 -10.72,-18.12 -1.95,-1.59 -4.89,-2.99 -7.29,-1.5 -2.33,1.56 -2.43,4.61 -2.7,7.1 -4.3,-2.49 -8.28,-5.51 -11.64,-9.17 -4.65,-5.56 -7.02,-12.8 -6.34,-20.04 0.88,-5.64 2.79,-11.1 5.75,-15.98l0.21 0.26c-0.72,8.35 1.78,17.29 8.35,22.85 2.49,-1.51 5.3,-2.85 8.31,-2.23 9.9,1.24 19.68,3.95 29.73,3.63 9.72,0.07 19.12,-2.7 28.72,-3.7 2.73,-0.41 5.16,1.02 7.44,2.3 6.47,-5.52 9.09,-14.38 8.3,-22.67 0.1,-0.11 0.3,-0.33 0.39,-0.43 2.71,4.98 4.78,10.33 5.61,15.97 0.67,7.24 -1.69,14.5 -6.35,20.05 -3.35,3.67 -7.34,6.67 -11.63,9.17 -0.29,-2.5 -0.37,-5.55 -2.7,-7.1 -2.42,-1.48 -5.36,-0.08 -7.33,1.53 -5.34,4.52 -8.09,11.21 -10.44,17.62 -1.28,2.14 -3.5,3.62 -4.44,5.99 -3.05,6.25 -1.12,13.79 2.76,19.23 0.78,1.24 2.29,1.59 3.55,2.14 12.03,4.58 24.83,6.98 37.66,7.58 -3.03,-3.29 -5.79,-6.86 -7.73,-10.91 5.06,3.88 11.01,6.7 17.41,7.38 1.74,0.05 3.8,0.83 5.31,-0.43 5.1,-3.68 9.19,-8.64 11.97,-14.27 -9.57,-0.45 -19.55,-3 -26.91,-9.44 9.94,2.59 20.93,0.19 29.02,-6.08 -0.59,-4.53 -1.42,-9.02 -2.58,-13.42 -8.22,3.68 -17.62,5.29 -26.48,3.26 9.68,-2.15 18,-8.89 22.58,-17.62 -0.6,-2.37 -1.61,-4.8 -1.1,-7.29 -0.5,0.1 -1.5,0.28 -2.01,0.37 0.41,-0.77 0.82,-1.54 1.23,-2.32 -2.26,-11.11 1.54,-23.36 10.66,-30.37 -4,10.33 -0.04,21.27 3.8,30.98 1.06,-2.12 1.04,-4.53 1.46,-6.81 2.02,-12.22 6.3,-23.91 10.84,-35.39 5.63,-14.32 11.92,-28.73 13.32,-44.24 8.67,3.06 15.64,9.81 20.53,17.46 -1.08,-25.22 -13.71,-49.78 -33.76,-65.15 10.32,0.85 20.07,4.85 29.18,9.59 -11.27,-16.71 -28.33,-29.14 -46.9,-36.66 4.88,-8.16 11.31,-15.46 19.02,-21.05 8.94,-6.47 20.16,-10.19 31.24,-8.95 1.41,12.06 -3.68,23.88 -11.15,33.09 10.3,-3.69 17.64,-13 21.68,-22.86 3.05,-7.24 4.24,-15.4 2.41,-23.1 -8.76,-2.26 -18,-2.17 -26.86,-0.57 -16.56,3.03 -32.02,11.31 -44.05,23.03 -4.68,4.38 -8.48,9.56 -12.26,14.71 -13.54,-2.29 -28.3,-1.74 -40.63,4.83 7.18,0.3 14.1,2.35 20.69,5.08 1.84,1.13 3.81,2.09 5.36,3.64 -5,-0.56 -10.02,0.31 -14.86,1.49 -12.45,3.33 -24.65,9.49 -32.93,19.6 -3.9,-4.79 -8.73,-8.73 -14.05,-11.83 -10.29,-5.81 -22.05,-10.06 -34.01,-9.29 1.8,-1.38 3.79,-2.48 5.73,-3.68 3.21,-1.01 6.25,-2.56 9.56,-3.3 3.63,-1.13 7.46,-1.11 11.14,-2 -12.66,-5.92 -27.15,-6.99 -40.79,-4.56 -3.69,-5.19 -7.54,-10.3 -12.19,-14.67 -9.52,-9.28 -21.15,-16.4 -33.81,-20.46 -11.89,-3.83 -24.87,-5.11 -37.07,-2.04zm-78.02 137.86l0 0c6.14,-16.12 18.37,-29.12 32.05,-39.26 9.61,-6.96 20.16,-13.03 31.77,-15.85 -12.1,-3.64 -25.19,-0.28 -36.2,5.2 1.56,-5.64 4.71,-10.58 8.19,-15.21 -23.47,12 -37.21,39.15 -35.8,65.11zm411.19 -65.14l0 0c3.54,4.6 6.64,9.59 8.23,15.23 -11,-5.46 -24.07,-8.84 -36.16,-5.21 11.6,2.87 22.15,8.9 31.74,15.88 13.67,10.12 25.83,23.12 32.05,39.19 1.36,-25.96 -12.38,-53.09 -35.87,-65.09zm-385.97 84.14l0 0c-7.14,19.94 -10.4,42.03 -5.15,62.81 0.96,-2.96 1.38,-6.05 2.2,-9.04 3.24,-12.18 9.89,-23.85 20.31,-31.25 -7.49,43.55 3.92,89.48 28.53,125.88 0.2,-6.92 1.51,-13.73 2.52,-20.56 1.37,-3.57 2.12,-7.32 3.37,-10.92 5.74,-17.55 15.03,-34.1 17.33,-52.65 2.44,-18.07 -2.2,-36.26 -9.4,-52.73 -1.31,2.34 -0.92,5.17 -1.14,7.76 -0.27,8.63 1.47,17.86 -2.29,25.96 -2.14,-11.61 -7.78,-22.13 -11.83,-33.12 -5.47,-14.04 -8.67,-29.28 -6.78,-44.37 0.35,-4.5 1.74,-8.83 2.21,-13.3 0.78,-1.17 0.92,-2.63 1.38,-3.92 -20.15,9.57 -33.71,29 -41.26,49.46zm355.37 -49.46l0 0c0.41,1.31 0.55,2.82 1.38,3.99 0.38,4.27 1.76,8.38 2.13,12.67 2.05,15.47 -1.28,31.13 -6.94,45.51 -4.03,10.79 -9.54,21.14 -11.61,32.57 -3.88,-8.45 -1.92,-18 -2.32,-26.96 -0.25,-2.25 0.14,-4.78 -1.15,-6.76 -7.14,16.51 -11.83,34.67 -9.35,52.74 2.31,18.56 11.59,35.1 17.34,52.66 1.25,3.59 1.97,7.36 3.37,10.92 0.97,6.86 2.34,13.67 2.48,20.62 24.58,-36.47 36.07,-82.38 28.55,-125.98 5.33,3.8 9.78,8.79 13.18,14.37 5.01,7.8 7.21,16.89 9.33,25.79 3.08,-11.43 3.11,-23.49 1.64,-35.17 -2.35,-17.59 -8.19,-34.86 -17.93,-49.75 -7.46,-11.45 -17.69,-21.28 -30.08,-27.22zm-267.56 164.15l0 0c-8.27,14.95 -12.59,32.09 -12.11,49.19 0.47,19.91 6.81,39.3 16.02,56.83 4.87,7.34 11.17,13.65 17.58,19.68 22.7,20.62 50.21,35.38 71.69,57.45 -0.75,-2.44 -2.5,-4.34 -3.96,-6.35 -8.24,-11.12 -17.73,-21.23 -27.23,-31.26 -9.87,-10.49 -20.16,-20.81 -27.81,-33.1 5.71,3.13 11.78,5.47 18.03,7.29 8.51,2.54 15.88,7.95 21.74,14.54 -2.07,-6.92 -5.92,-13.18 -10.21,-18.93 -9.8,-12.87 -22.48,-23.07 -33.95,-34.36 -11.01,-10.72 -21.31,-22.85 -26.52,-37.52 -5.42,-14.53 -4.84,-30.46 -1.82,-45.44 -0.35,0.5 -1.08,1.49 -1.44,1.99zm219.61 -1.91l0 0c1.38,8.65 2.8,17.38 2.06,26.17 -0.76,13.21 -5.56,26.02 -13.16,36.81 -11.65,16.81 -28.24,29.18 -42.29,43.83 -8.01,8.5 -15.68,17.99 -19.14,29.34 5.81,-6.61 13.19,-11.97 21.69,-14.52 6.24,-1.86 12.39,-4.1 18.06,-7.36 -8,12.93 -18.93,23.64 -29.25,34.68 -10.96,11.7 -22.1,23.45 -30.78,37 3.53,-3.42 7.01,-6.88 10.73,-10.08 22.29,-19.75 49.02,-34.12 69.64,-55.81 4.61,-5.07 9.5,-10.14 12.17,-16.56 10.59,-21.66 16.56,-46.34 12.51,-70.42 -2.08,-11.6 -5.81,-23.15 -12.24,-33.07zm-129.08 17.77l0 0c-15,4.65 -30.84,7.59 -46.59,6.2 -4.33,12.9 -1.01,27.05 5.14,38.78 0.88,-11.95 7.81,-23.05 17.68,-29.7 1.31,14.44 3.12,29.62 11.22,42.04 8.2,12.25 22.17,18.47 32.51,28.57 9.58,-9.33 22.09,-15.32 30.54,-25.84 9.79,-12.71 11.78,-29.29 13.18,-44.76 9.87,6.64 16.86,17.77 17.65,29.74 6.2,-11.72 9.49,-25.9 5.2,-38.82 -6.8,0.71 -13.66,0.35 -20.43,-0.44 -16.03,-2.07 -31.93,-6.47 -46.13,-14.3 -6.34,3.52 -13.05,6.33 -19.95,8.54z"/>
    </g>
    <g>
     <path class="fil0" d="M232.35 225.4c6.72,-5.3 15.52,-9.34 24.22,-7.26 8.49,2.14 14.74,8.82 20.31,15.18 6.13,6.87 11.57,14.67 19.37,19.8 5.02,3.53 11.44,4.54 17.36,3 -4.85,4.62 -10.83,8.55 -17.76,8.7 -5.61,5.87 -9.75,13.02 -12.67,20.57 -1.27,3.25 -1.8,6.73 -3.12,9.96 -2.17,-5.65 -3.38,-11.68 -3.37,-17.73 0.03,-2.6 0.26,-5.21 0.5,-7.79 -9.07,1.26 -18.77,-0.25 -26.32,-5.63 -8.37,-5.72 -13.34,-15.22 -15.4,-24.95 -0.13,-0.69 -0.41,-2.07 -0.55,-2.76 3.27,-3.66 7.61,-5.95 11.97,-8.03 -4.56,-2.1 -9.49,-3.45 -14.54,-3.04zm17.36 15.85l0 0c1.88,6.23 5.82,12.06 11.68,15.16 5.79,3.21 12.73,3.45 19.12,2.22 -7.15,-6.38 -13.71,-13.39 -20.62,-20 -3.58,-0.45 -7.06,1.03 -10.18,2.62z"/>
    </g>
    <g>
     <path class="fil0" d="M385.07 222.43c4.32,-3.15 9.62,-5.2 15.03,-4.82 6.7,0.43 12.95,3.67 18.15,7.77 -5.04,-0.35 -9.95,0.97 -14.49,3.04 4.33,2.12 8.66,4.4 11.94,8.02 -0.13,0.68 -0.39,2.05 -0.53,2.74 -2.04,9.72 -7.01,19.22 -15.34,24.95 -7.56,5.4 -17.29,6.96 -26.37,5.66 0.21,2.6 0.43,5.22 0.48,7.84 0.01,6.04 -1.2,12.06 -3.37,17.7 -1.82,-5.12 -2.85,-10.53 -5.45,-15.36 -2.84,-5.37 -5.85,-11.05 -10.51,-15.01 -6.83,-0.59 -12.81,-4.17 -17.62,-8.88 5.94,1.57 12.38,0.56 17.43,-3 12.12,-8.21 18.82,-22.1 30.64,-30.67zm5.66 16.25l0 0c-6.97,6.54 -13.4,13.67 -20.66,19.9 6.63,1.37 13.89,0.99 19.83,-2.54 5.52,-3.16 9.23,-8.79 11.04,-14.79 -3.13,-1.54 -6.67,-3.18 -10.21,-2.57z"/>
    </g>
   </g>
   <g>
    <g>
     <path class="fil1" d="M202.71 16.31c37.29,-20.01 84.28,-22.06 122.6,-3.65 38.3,-18.38 85.27,-16.37 122.55,3.62 8.55,4.24 17.01,8.69 25.61,12.8 36.01,14.94 66.37,42.68 85.26,76.7 -4.77,-1.67 -9.47,-3.49 -14.22,-5.18 19.36,23.47 34.62,49.97 53.84,73.55 8.91,10.77 19.53,21.01 33.05,25.55 6.17,2.12 12.71,2.89 19.21,2.99 -5.52,16.47 -15.61,31.99 -30.47,41.41 -6.11,4.12 -13.2,6.38 -20.07,8.67 9.01,16.23 15.29,34.09 17.12,52.62 3.54,33.23 -5.57,66.47 -19.46,96.43 -4.55,9.83 -9.63,19.43 -15.08,28.8 -1.26,2.13 -2.33,4.42 -4.06,6.23 -0.23,-3.11 -0.35,-6.22 -0.71,-9.32 -5.07,14.82 -11.16,29.45 -20.14,42.37 -9.23,13.5 -21.16,24.83 -33.34,35.62 -3.32,3.39 -7.78,5.8 -10.11,10.04 -13.21,23.42 -29.86,45.1 -50.38,62.59 -25.21,21.56 -54.91,36.93 -84.42,51.66 2.27,-4.97 4.75,-9.84 7.02,-14.81 -11.7,8.77 -22.78,18.53 -31.91,29.99 -11.86,14.72 -20.36,31.69 -29.28,48.26 -7.43,-13.78 -14.53,-27.8 -23.55,-40.63 -10.17,-14.69 -23.36,-27.01 -37.66,-37.61 2.29,4.95 4.75,9.82 7.02,14.78 -28.52,-14.2 -57.15,-29.03 -81.83,-49.45 -21.52,-17.75 -38.96,-40.04 -52.66,-64.24 -0.79,-1.42 -1.61,-2.86 -2.85,-3.93 -13.2,-11.58 -26.58,-23.2 -37.26,-37.25 -10.9,-14.01 -17.91,-30.5 -23.78,-47.11 -0.39,3 -0.49,6.03 -0.71,9.05 -4.53,-6.13 -7.81,-13.11 -11.55,-19.74 -10.16,-19.25 -18.62,-39.53 -23.53,-60.78 -4.33,-18.82 -5.69,-38.47 -2.64,-57.61 2.52,-16.23 8.23,-31.9 16.47,-46.09 -13.1,-3.22 -25.3,-10.21 -34.15,-20.45 -7.54,-8.53 -12.95,-18.78 -16.64,-29.5 7.31,-0.13 14.69,-1.1 21.51,-3.84 11,-4.28 20,-12.38 27.72,-21.11 20.81,-24.3 36.38,-52.54 56.95,-77.03 -4.85,1.43 -9.49,3.48 -14.29,5.07 18.89,-33.99 49.2,-61.71 85.17,-76.66 8.63,-4.11 17.09,-8.56 25.65,-12.82zm23.55 4.14l0 0c-4.21,1.67 -8.74,2.87 -12.47,5.53 5.81,1.2 11.8,2.35 16.99,5.4 -19.45,-0.22 -38.73,4.8 -56.09,13.42 -15.37,7.78 -29.87,17.95 -40.84,31.35 8.95,-2.97 18.32,-5.11 27.81,-4.82 -12.31,6.45 -23.57,14.84 -33.3,24.78 -23.07,23.23 -39.53,51.79 -59.03,77.85 -7.81,10.27 -16.12,20.37 -26.42,28.27 -6.72,5.17 -14.5,9.11 -22.89,10.6 4.22,8.26 10.42,15.66 18.4,20.52 11.28,7.05 25.07,8.68 38.11,7.58 -3.04,3.49 -6.4,6.74 -9.06,10.57 -12.33,17.02 -18.1,38 -19.66,58.75 -1.73,24.24 2.23,48.96 11.89,71.29 0.58,1.55 1.24,3.06 2.32,4.36 1.84,-16.32 7.73,-33.54 21.07,-44 -7.35,16.47 -7.32,35.14 -4.71,52.67 2.69,17.37 8.11,34.29 15.68,50.14 7.25,15.02 16.53,29.33 28.97,40.58 -3.24,-11.12 -4.67,-22.7 -4.85,-34.26 -0.04,-6.56 0.23,-13.18 1.75,-19.59 1.76,5.57 2.13,11.52 3.71,17.17 8.51,36.16 26.55,69.78 50.79,97.82 19.01,21.93 41.85,40.74 67.76,53.96 -4.52,-10.14 -9.16,-20.59 -9.7,-31.84 6.4,9.45 14.76,17.35 23.88,24.15 12.87,9.74 26.3,18.88 37.81,30.27 12.41,12.01 22.65,26.14 30.79,41.34 1.15,0.21 1.24,-1.35 1.82,-1.99 9,-16.71 20.93,-31.84 35.11,-44.46 11.83,-10.71 25.29,-19.34 37.66,-29.37 7.15,-5.67 13.32,-12.45 18.58,-19.89 -0.57,11.24 -5.18,21.68 -9.73,31.8 30.55,-15.63 56.9,-38.89 77.63,-66.12 20.95,-27.6 36.11,-59.8 42.7,-93.89 0.63,-3.01 0.8,-6.12 1.95,-8.99 1.55,6.72 1.83,13.68 1.73,20.57 -0.28,11.25 -1.65,22.53 -4.87,33.34 12.12,-10.9 21.2,-24.75 28.37,-39.29 8.45,-17.36 14.35,-36.03 16.84,-55.21 2.04,-16.38 1.61,-33.67 -5.27,-48.95 13.54,10.49 19.03,27.89 21.35,44.21 14.39,-30.45 18.21,-65.9 10.39,-98.67 -4.14,-17.32 -12.4,-33.86 -25.14,-46.45 9.49,0.7 19.22,0.22 28.27,-2.94 12.37,-4.08 22.54,-13.59 28.25,-25.21 -18.42,-3.27 -32.11,-17.49 -43.47,-31.35 -13.07,-16.24 -24.19,-33.91 -36.39,-50.78 -16.71,-23.22 -35.74,-46.22 -61.8,-59.25 9.49,-0.46 18.87,1.8 27.83,4.75 -3.03,-4.1 -6.8,-7.55 -10.52,-11 -23.67,-20.84 -54.72,-34.02 -86.48,-33.81 5.2,-2.91 11.08,-4.2 16.87,-5.31 -0.29,-0.26 -0.87,-0.79 -1.16,-1.05 -14.08,-6.65 -29.51,-10.23 -45.01,-11.36 -22.44,-1.59 -45.61,2.71 -65.15,14.13 -29.74,-17.27 -66.96,-18.23 -99.06,-7.32z"/>
    </g>
    <path class="fil2" d="M280.88 37.8c17.83,3.48 33.57,14.8 44.45,29.14 10.88,-14.31 26.59,-25.71 44.45,-29.1 -7.19,7.63 -13,16.68 -16.04,26.77 9.39,-6.35 20.73,-8.79 31.77,-10.44 15.6,-2.06 31.57,-2.3 47.09,0.5 2.96,0.54 5.93,1.17 8.72,2.33 -4.32,-0.16 -8.58,0.67 -12.88,0.82 -5.42,-0.76 -10.82,0.41 -16.13,1.34 -17.53,3.33 -34.71,9.99 -48.78,21.15 -8.97,6.96 -16.4,15.91 -21.54,26.04 -3.09,-4.44 -2.79,-10.17 -2.58,-15.32 0.23,-5.99 1.99,-11.75 3.27,-17.57 -8.41,3.62 -14.37,11.18 -17.53,19.61 -2.51,-8.67 -9.02,-16.02 -17.29,-19.58 2.5,9.05 4.59,18.58 2.93,27.98 -0.27,1.81 -1.21,3.38 -2.15,4.9 -8.26,-16.73 -23.08,-29.53 -39.8,-37.4 -12.29,-5.91 -25.65,-9.45 -39.15,-11.17 -2.79,-0.43 -5.61,-0.33 -8.41,-0.08 -3.98,-0.13 -7.94,-0.92 -11.95,-0.66 2.79,-1.25 5.78,-1.86 8.77,-2.4 14.54,-2.63 29.49,-2.53 44.14,-0.86 12.02,1.57 24.43,3.94 34.68,10.8 -3.04,-10.11 -8.89,-19.13 -16.04,-26.8z"/>
    <g>
     <path class="fil2" d="M235.28 201.05c12.5,-12.45 30.19,-18.97 47.71,-18.95 -1.93,1.2 -3.93,2.3 -5.73,3.68 15.38,1.83 29.32,10.63 38.98,22.52 3.55,4.18 6.29,8.94 9.08,13.64 9.55,-18.22 26.86,-33.8 47.94,-36.03l-0.15 -0.11c-1.55,-1.55 -3.52,-2.51 -5.36,-3.64 16.8,-0.09 33.84,5.93 46.15,17.52 10.92,10.22 18.59,23.73 22.72,38.02 -3.09,-2.9 -6.02,-6.38 -10.41,-7.24 2.24,9.27 2.1,19.17 -1.15,28.2 -4.91,14.3 -13.87,26.76 -19.19,40.91 -3.29,-4.35 -4.21,-9.8 -4.34,-15.12 -6.74,5 -11.13,12.46 -13.87,20.26 -3.6,9.44 -5.03,19.94 -10.93,28.35 -0.83,-5.64 -2.9,-10.99 -5.61,-15.97 -0.1,0.11 -0.3,0.33 -0.39,0.43 -3.24,3.78 -6.7,7.52 -11.32,9.61 -14.35,7.05 -30.97,8.03 -46.64,6.24 -12.18,-1.65 -25.44,-5.47 -32.89,-16.03l-0.21 -0.26c-2.97,4.88 -4.87,10.34 -5.75,15.98 -6.03,-8.68 -7.44,-19.49 -11.24,-29.16 -2.64,-7.57 -7.17,-14.5 -13.46,-19.52 -0.39,5.29 -1.07,10.85 -4.44,15.2 -4.65,-12.01 -11.52,-22.96 -16.81,-34.67 -4.75,-10.59 -6.83,-22.81 -3.39,-34.1 -4.6,0.11 -7.46,4.12 -10.57,6.91 3.94,-13.7 11.2,-26.58 21.29,-36.7zm-2.93 24.35l0 0c5.06,-0.4 9.99,0.95 14.54,3.04 -4.36,2.09 -8.7,4.38 -11.97,8.03 0.13,0.69 0.41,2.07 0.55,2.76 0.03,11.28 4.05,22.94 12.35,30.81 7.45,7.28 18.79,10.46 28.87,7.56 -0.01,6.05 1.2,12.08 3.37,17.73l-0.18 0.47c2.06,6.21 5.01,12.59 10.27,16.73 -0.54,-6.78 -1.24,-13.76 0.86,-20.37 2.94,-11.29 12.6,-20.2 23.83,-22.97 14.61,-4.19 32.17,0.82 40.68,13.86 5.85,8.59 6.17,19.43 5,29.41 5.32,-4.02 8.1,-10.51 10.26,-16.64l-0.2 -0.48c2.17,-5.64 3.38,-11.66 3.37,-17.7 9.68,2.71 20.47,-0.02 27.91,-6.7 8.94,-7.87 13.24,-20.05 13.32,-31.75 0.13,-0.69 0.39,-2.06 0.53,-2.74 -3.28,-3.63 -7.61,-5.91 -11.94,-8.02 4.54,-2.08 9.45,-3.4 14.49,-3.04 -5.21,-4.1 -11.45,-7.33 -18.15,-7.77 -5.41,-0.38 -10.71,1.67 -15.03,4.82 -11.82,8.57 -18.52,22.46 -30.64,30.67 -5.17,0.11 -10.48,0.25 -15.38,-1.68 -5.76,-2.02 -10.23,-6.43 -13.7,-11.32 -2.84,3.66 -5.84,7.35 -10.03,9.55 -5.72,3.49 -12.58,3.73 -19.07,3.47 -7.8,-5.13 -13.24,-12.93 -19.37,-19.8 -5.57,-6.36 -11.82,-13.04 -20.31,-15.18 -8.7,-2.08 -17.5,1.96 -24.22,7.26z"/>
    </g>
    <path class="fil2" d="M101.8 272.93c-1.41,-25.96 12.33,-53.11 35.8,-65.11 -3.48,4.62 -6.63,9.57 -8.19,15.21 11.01,-5.48 24.1,-8.84 36.2,-5.2 -11.61,2.82 -22.16,8.89 -31.77,15.85 -13.67,10.14 -25.91,23.13 -32.05,39.26z"/>
    <path class="fil2" d="M512.99 207.79c23.49,12 37.23,39.13 35.87,65.09 -6.21,-16.07 -18.37,-29.07 -32.05,-39.19 -9.59,-6.98 -20.15,-13 -31.74,-15.88 12.08,-3.63 25.15,-0.25 36.16,5.21 -1.59,-5.64 -4.69,-10.64 -8.23,-15.23z"/>
    <path class="fil2" d="M127.02 291.93c7.54,-20.45 21.11,-39.88 41.26,-49.46 -0.46,1.28 -0.59,2.75 -1.38,3.92 -2.78,3.47 -4.25,7.69 -5.76,11.81 -5.85,15.99 -6.64,33.42 -4.38,50.18 3.29,24.94 11.34,48.93 15.46,73.72 2.28,12.44 2.86,25.07 3.21,37.68 -1.01,6.83 -2.32,13.64 -2.52,20.56 -24.62,-36.4 -36.02,-82.34 -28.53,-125.88 -10.42,7.4 -17.07,19.07 -20.31,31.25 -0.82,2.99 -1.24,6.08 -2.2,9.04 -5.25,-20.78 -1.99,-42.88 5.15,-62.81z"/>
    <path class="fil2" d="M482.39 242.48c12.4,5.95 22.63,15.77 30.08,27.22 9.75,14.89 15.59,32.16 17.93,49.75 1.47,11.68 1.45,23.74 -1.64,35.17 -2.12,-8.9 -4.32,-17.99 -9.33,-25.79 -3.41,-5.58 -7.85,-10.57 -13.18,-14.37 7.52,43.6 -3.97,89.51 -28.55,125.98 -0.14,-6.95 -1.51,-13.77 -2.48,-20.62 0.25,-13.72 1.14,-27.45 3.76,-40.94 4.11,-23.02 11.33,-45.39 14.64,-68.56 2.43,-16.88 2.05,-34.46 -3.64,-50.68 -1.69,-4.54 -3.1,-9.35 -6.22,-13.16 -0.83,-1.17 -0.97,-2.68 -1.38,-3.99z"/>
   </g>
   <g>
    <path class="fil3" d="M279.86 37.55c16.41,0.21 32.71,6.52 45.46,16.79 9.87,-8.21 22.05,-13.33 34.58,-15.82 3.54,-0.68 7.15,-1.22 10.77,-0.92 -0.23,0.06 -0.68,0.17 -0.9,0.23 -17.86,3.39 -33.57,14.79 -44.45,29.1 -10.88,-14.33 -26.62,-25.66 -44.45,-29.14 -0.26,-0.07 -0.77,-0.18 -1.02,-0.25z"/>
    <path class="fil3" d="M179.82 135.07c12.21,-3.07 25.18,-1.79 37.07,2.04 12.66,4.06 24.29,11.18 33.81,20.46 -1.69,3.59 -1.92,7.57 -1.82,11.48 -8.54,-10.55 -19.65,-19.4 -32.85,-23.2 -10.99,-3.45 -22.65,-3.25 -34.04,-2.71 -0.65,5 -0.39,10.04 0.21,15.03 -3.04,-7.24 -4.26,-15.4 -2.38,-23.1z"/>
    <path class="fil3" d="M444 134.53c8.86,-1.61 18.1,-1.69 26.86,0.57 1.83,7.71 0.63,15.87 -2.41,23.1 0.59,-5 0.86,-10.06 0.2,-15.06 -12.13,-0.57 -24.61,-0.71 -36.2,3.43 -12.3,4.04 -22.56,12.55 -30.67,22.46 0.08,-3.91 -0.14,-7.88 -1.83,-11.47 12.04,-11.72 27.49,-20 44.05,-23.03z"/>
    <path class="fil3" d="M277.27 185.78c11.96,-0.78 23.72,3.48 34.01,9.29 5.31,3.1 10.15,7.05 14.05,11.83 8.28,-10.11 20.48,-16.27 32.93,-19.6 4.84,-1.19 9.86,-2.06 14.86,-1.49l0.15 0.11c-21.08,2.23 -38.4,17.81 -47.94,36.03 -2.79,-4.7 -5.52,-9.47 -9.08,-13.64 -9.66,-11.89 -23.6,-20.69 -38.98,-22.52z"/>
    <path class="fil4" d="M249.71 241.25c3.12,-1.59 6.6,-3.07 10.18,-2.62 6.91,6.62 13.47,13.63 20.62,20 -6.39,1.23 -13.33,0.99 -19.12,-2.22 -5.86,-3.09 -9.81,-8.92 -11.68,-15.16z"/>
    <path class="fil4" d="M390.73 238.68c3.53,-0.61 7.08,1.02 10.21,2.57 -1.81,6 -5.52,11.63 -11.04,14.79 -5.94,3.52 -13.2,3.91 -19.83,2.54 7.27,-6.22 13.69,-13.36 20.66,-19.9z"/>
    <path class="fil3" d="M279.88 317.37c7.45,10.56 20.71,14.38 32.89,16.03 15.67,1.79 32.29,0.8 46.64,-6.24 4.62,-2.1 8.08,-5.83 11.32,-9.61 0.78,8.29 -1.83,17.15 -8.3,22.67 -2.28,-1.27 -4.71,-2.71 -7.44,-2.3 -9.59,1 -19,3.76 -28.72,3.7 -10.05,0.33 -19.83,-2.38 -29.73,-3.63 -3.01,-0.62 -5.82,0.72 -8.31,2.23 -6.57,-5.55 -9.07,-14.5 -8.35,-22.85z"/>
    <path class="fil3" d="M252.19 339.77c2.78,4.56 5.74,9.34 10.54,12.02 5.24,3.25 11.81,3.26 17.52,1.35 3.36,3.67 7.34,6.68 11.64,9.17 0.27,-2.5 0.37,-5.54 2.7,-7.1 2.39,-1.48 5.33,-0.09 7.29,1.5 5.54,4.62 8.17,11.6 10.72,18.12 1.62,1.99 3.61,3.76 4.52,6.23 2.64,6.5 0.55,14.32 -3.97,19.46 -12.66,5.58 -26.56,8.05 -40.33,8.79 3.02,-3.28 5.82,-6.83 7.7,-10.91 -6.2,4.8 -14.09,8.13 -21.99,7.39 -5.35,-3.73 -10.1,-8.78 -12.48,-14.95 9.54,0.01 19.41,-2.91 26.7,-9.2 -9.94,2.59 -20.93,0.19 -29.01,-6.09 0.64,-4.52 1.38,-9.03 2.61,-13.42 8.23,3.81 17.62,5.09 26.55,3.42 -9.64,-2.36 -18.08,-8.9 -22.65,-17.72 0.69,-2.67 1.23,-5.39 1.93,-8.05z"/>
    <path class="fil3" d="M397.31 340.86c0.51,-0.1 1.51,-0.28 2.01,-0.37 -0.51,2.49 0.5,4.91 1.1,7.29 -4.58,8.73 -12.9,15.47 -22.58,17.62 8.86,2.03 18.26,0.42 26.48,-3.26 1.16,4.4 1.98,8.9 2.58,13.42 -8.09,6.27 -19.08,8.67 -29.02,6.08 7.35,6.44 17.33,8.99 26.91,9.44 -2.78,5.63 -6.87,10.59 -11.97,14.27 -1.51,1.26 -3.57,0.48 -5.31,0.43 -6.4,-0.68 -12.35,-3.5 -17.41,-7.38 1.93,4.05 4.7,7.61 7.73,10.91 -12.83,-0.6 -25.63,-3.01 -37.66,-7.58 -1.26,-0.56 -2.78,-0.91 -3.55,-2.14 -3.88,-5.44 -5.8,-12.97 -2.76,-19.23 0.94,-2.37 3.16,-3.86 4.44,-5.99 2.35,-6.41 5.09,-13.1 10.44,-17.62 1.96,-1.61 4.9,-3.02 7.33,-1.53 2.33,1.55 2.41,4.61 2.7,7.1 4.29,-2.5 8.28,-5.51 11.63,-9.17 5.71,1.89 12.26,1.91 17.49,-1.33 3.94,-2.5 7.66,-6.02 9.09,-10.59l0.34 -0.35z"/>
    <path class="fil3" d="M305.37 422.49c6.9,-2.21 13.62,-5.02 19.95,-8.54 14.2,7.83 30.1,12.24 46.13,14.3 6.77,0.79 13.63,1.15 20.43,0.44 4.29,12.92 1,27.1 -5.2,38.82 -0.79,-11.97 -7.78,-23.1 -17.65,-29.74 -1.4,15.47 -3.39,32.06 -13.18,44.76 -8.46,10.52 -20.96,16.52 -30.54,25.84 -10.34,-10.1 -24.31,-16.33 -32.51,-28.57 -8.1,-12.43 -9.91,-27.6 -11.22,-42.04 -9.86,6.65 -16.79,17.75 -17.68,29.7 -6.15,-11.73 -9.47,-25.88 -5.14,-38.78 15.75,1.4 31.59,-1.54 46.59,-6.2z"/>
   </g>
   <g>
    <path class="fil5" d="M221.27 57.72c2.8,-0.26 5.62,-0.35 8.41,0.08 13.5,1.72 26.86,5.27 39.15,11.17 16.73,7.87 31.54,20.67 39.8,37.4 0.95,-1.52 1.89,-3.09 2.15,-4.9 1.66,-9.4 -0.43,-18.93 -2.93,-27.98 8.27,3.56 14.78,10.92 17.29,19.58 3.16,-8.43 9.13,-15.99 17.53,-19.61 -1.28,5.82 -3.04,11.58 -3.27,17.57 -0.21,5.15 -0.52,10.88 2.58,15.32 5.14,-10.13 12.57,-19.08 21.54,-26.04 14.07,-11.16 31.24,-17.82 48.78,-21.15 5.31,-0.93 10.71,-2.1 16.13,-1.34 -10.21,2.48 -20.47,5.09 -29.99,9.69 -17.42,8.11 -33.64,20.29 -43.52,37.05 17.24,-8.14 36.49,-12.19 55.54,-11.07 5.91,0.55 12.03,1.17 17.47,3.71 -14.1,4.87 -26.72,13.27 -38.05,22.86 -7.67,6.45 -14.45,13.9 -20.36,21.98 -15.42,-0.1 -30.79,3.96 -44.21,11.55 -13.38,-7.57 -28.74,-11.65 -44.12,-11.52 -10.48,-14.38 -24.03,-26.4 -39.19,-35.67 -6.1,-3.71 -12.51,-6.91 -19.28,-9.2 5.43,-2.55 11.53,-3.14 17.43,-3.71 19.04,-1.11 38.27,2.89 55.48,11.04 -8.99,-15.56 -23.76,-27.07 -39.57,-35.16 -10.92,-5.68 -22.8,-9.09 -34.78,-11.64z"/>
    <path class="fil5" d="M181.99 143.14c11.38,-0.54 23.05,-0.74 34.04,2.71 13.2,3.8 24.31,12.65 32.85,23.2 -0.1,-3.91 0.12,-7.89 1.82,-11.48 4.65,4.37 8.5,9.48 12.19,14.67 13.64,-2.43 28.13,-1.36 40.79,4.56 -3.68,0.89 -7.51,0.87 -11.14,2 -3.3,0.75 -6.35,2.29 -9.56,3.3 -17.52,-0.02 -35.22,6.5 -47.71,18.95 -10.08,10.12 -17.35,23 -21.29,36.7 3.11,-2.8 5.97,-6.81 10.57,-6.91 -3.44,11.29 -1.36,23.51 3.39,34.1 5.29,11.71 12.16,22.66 16.81,34.67 3.37,-4.35 4.05,-9.9 4.44,-15.2 6.29,5.03 10.82,11.95 13.46,19.52 3.8,9.67 5.21,20.48 11.24,29.16 -0.68,7.24 1.69,14.48 6.34,20.04 -5.72,1.91 -12.29,1.9 -17.52,-1.35 -4.81,-2.68 -7.77,-7.46 -10.54,-12.02l-0.27 -0.42c2.63,-11.29 -1.11,-24.03 -10.48,-31.16 4.13,10.55 -0.12,21.69 -4.04,31.59 -1.47,-10.42 -3.79,-20.71 -7.43,-30.59 -6.47,-18.64 -16.07,-36.56 -17.95,-56.48 -8.64,3.11 -15.63,9.81 -20.5,17.46 0.67,-17.92 7.42,-35.37 18.22,-49.61 4.52,-5.87 9.71,-11.36 15.95,-15.42 -10.52,0.46 -20.41,4.77 -29.65,9.51 11.34,-16.73 28.39,-29.14 46.98,-36.75 -6.77,-10.98 -16.13,-20.81 -28.03,-26.19 -6.92,-3.14 -14.67,-4.57 -22.25,-3.76 -1.36,12.03 3.57,23.98 11.24,33.06 -10.4,-3.52 -17.71,-12.99 -21.76,-22.84 -0.6,-4.99 -0.86,-10.03 -0.21,-15.03z"/>
    <path class="fil5" d="M432.44 146.56c11.6,-4.14 24.07,-4 36.2,-3.43 0.66,5 0.39,10.06 -0.2,15.06 -4.04,9.85 -11.38,19.17 -21.68,22.86 7.48,-9.21 12.56,-21.04 11.15,-33.09 -11.09,-1.24 -22.3,2.48 -31.24,8.95 -7.71,5.58 -14.13,12.89 -19.02,21.05 18.57,7.53 35.63,19.95 46.9,36.66 -9.11,-4.75 -18.85,-8.74 -29.18,-9.59 20.05,15.37 32.68,39.93 33.76,65.15 -4.89,-7.64 -11.86,-14.39 -20.53,-17.46 -1.4,15.5 -7.69,29.91 -13.32,44.24 -4.54,11.48 -8.82,23.17 -10.84,35.39 -0.42,2.28 -0.4,4.69 -1.46,6.81 -3.84,-9.72 -7.8,-20.65 -3.8,-30.98 -9.12,7.01 -12.92,19.26 -10.66,30.37 -0.4,0.78 -0.81,1.55 -1.23,2.32l-0.34 0.35c-1.43,4.57 -5.15,8.09 -9.09,10.59 -5.24,3.25 -11.79,3.22 -17.49,1.33 4.66,-5.55 7.02,-12.81 6.35,-20.05 5.91,-8.42 7.33,-18.91 10.93,-28.35 2.75,-7.8 7.13,-15.26 13.87,-20.26 0.12,5.31 1.04,10.77 4.34,15.12 5.31,-14.15 14.28,-26.61 19.19,-40.91 3.25,-9.03 3.39,-18.93 1.15,-28.2 4.39,0.86 7.32,4.34 10.41,7.24 -4.14,-14.3 -11.81,-27.81 -22.72,-38.02 -12.31,-11.6 -29.35,-17.61 -46.15,-17.52 -6.59,-2.74 -13.51,-4.79 -20.69,-5.08 12.32,-6.57 27.09,-7.11 40.63,-4.83 3.77,-5.15 7.57,-10.33 12.26,-14.71 1.69,3.59 1.91,7.56 1.83,11.47 8.11,-9.91 18.37,-18.42 30.67,-22.46z"/>
    <path class="fil5" d="M235.47 239.24c2.06,9.73 7.03,19.24 15.4,24.95 7.55,5.38 17.25,6.89 26.32,5.63 -0.24,2.59 -0.47,5.19 -0.5,7.79 -10.08,2.89 -21.42,-0.29 -28.87,-7.56 -8.3,-7.87 -12.32,-19.53 -12.35,-30.81z"/>
    <path class="fil5" d="M399.85 264.14c8.33,-5.74 13.3,-15.23 15.34,-24.95 -0.08,11.7 -4.38,23.88 -13.32,31.75 -7.44,6.68 -18.23,9.41 -27.91,6.7 -0.05,-2.62 -0.27,-5.24 -0.48,-7.84 9.08,1.3 18.81,-0.26 26.37,-5.66z"/>
    <path class="fil5" d="M315.33 249.66c4.18,-2.19 7.18,-5.89 10.03,-9.55 3.48,4.88 7.94,9.3 13.7,11.32 4.89,1.92 10.21,1.79 15.38,1.68 -5.05,3.55 -11.49,4.57 -17.43,3 4.81,4.71 10.79,8.28 17.62,8.88 4.66,3.96 7.67,9.64 10.51,15.01 2.59,4.83 3.63,10.24 5.45,15.36l0.2 0.48c-2.16,6.13 -4.94,12.62 -10.26,16.64 1.17,-9.98 0.85,-20.82 -5,-29.41 -8.5,-13.03 -26.06,-18.05 -40.68,-13.86 -11.23,2.77 -20.89,11.68 -23.83,22.97 -2.1,6.61 -1.4,13.59 -0.86,20.37 -5.27,-4.14 -8.22,-10.51 -10.27,-16.73l0.18 -0.47c1.32,-3.23 1.85,-6.71 3.12,-9.96 2.92,-7.55 7.06,-14.7 12.67,-20.57 6.93,-0.15 12.91,-4.08 17.76,-8.7 -5.92,1.54 -12.34,0.54 -17.36,-3 6.49,0.27 13.36,0.02 19.07,-3.47z"/>
    <path class="fil5" d="M161.14 258.2c1.51,-4.12 2.99,-8.34 5.76,-11.81 -0.47,4.47 -1.86,8.8 -2.21,13.3 -1.89,15.09 1.31,30.33 6.78,44.37 4.05,10.99 9.7,21.51 11.83,33.12 3.76,-8.1 2.02,-17.33 2.29,-25.96 0.22,-2.59 -0.17,-5.42 1.14,-7.76 7.2,16.47 11.84,34.66 9.4,52.73 -2.3,18.56 -11.6,35.1 -17.33,52.65 -1.25,3.6 -2,7.35 -3.37,10.92 -0.34,-12.61 -0.93,-25.24 -3.21,-37.68 -4.13,-24.79 -12.17,-48.78 -15.46,-73.72 -2.27,-16.77 -1.47,-34.19 4.38,-50.18z"/>
    <path class="fil5" d="M483.77 246.47c3.12,3.81 4.53,8.62 6.22,13.16 5.69,16.22 6.07,33.8 3.64,50.68 -3.31,23.17 -10.53,45.54 -14.64,68.56 -2.62,13.49 -3.51,27.22 -3.76,40.94 -1.4,-3.55 -2.12,-7.32 -3.37,-10.92 -5.75,-17.56 -15.03,-34.11 -17.34,-52.66 -2.47,-18.07 2.21,-36.23 9.35,-52.74 1.29,1.98 0.9,4.51 1.15,6.76 0.39,8.96 -1.56,18.52 2.32,26.96 2.08,-11.42 7.58,-21.77 11.61,-32.57 5.66,-14.38 8.99,-30.04 6.94,-45.51 -0.36,-4.29 -1.74,-8.4 -2.13,-12.67z"/>
    <path class="fil5" d="M214.84 406.62c0.35,-0.5 1.08,-1.49 1.44,-1.99 -3.02,14.99 -3.6,30.92 1.82,45.44 5.21,14.68 15.51,26.8 26.52,37.52 11.47,11.29 24.16,21.49 33.95,34.36 4.29,5.75 8.14,12.01 10.21,18.93 -5.86,-6.6 -13.22,-12.01 -21.74,-14.54 -6.25,-1.82 -12.32,-4.16 -18.03,-7.29 7.65,12.29 17.93,22.61 27.81,33.1 9.5,10.03 18.99,20.15 27.23,31.26 1.47,2.01 3.22,3.91 3.96,6.35 -21.48,-22.07 -48.99,-36.83 -71.69,-57.45 -6.41,-6.02 -12.71,-12.33 -17.58,-19.68 -9.21,-17.53 -15.55,-36.92 -16.02,-56.83 -0.48,-17.1 3.84,-34.24 12.11,-49.19z"/>
    <path class="fil5" d="M434.45 404.72c6.42,9.92 10.16,21.48 12.24,33.07 4.04,24.07 -1.92,48.76 -12.51,70.42 -2.67,6.42 -7.56,11.48 -12.17,16.56 -20.62,21.7 -47.35,36.06 -69.64,55.81 -3.72,3.21 -7.2,6.66 -10.73,10.08 8.68,-13.55 19.82,-25.3 30.78,-37 10.32,-11.04 21.25,-21.75 29.25,-34.68 -5.67,3.27 -11.82,5.51 -18.06,7.36 -8.5,2.55 -15.88,7.91 -21.69,14.52 3.46,-11.35 11.13,-20.84 19.14,-29.34 14.06,-14.64 30.64,-27.01 42.29,-43.83 7.59,-10.79 12.4,-23.59 13.16,-36.81 0.74,-8.79 -0.68,-17.52 -2.06,-26.17z"/>
   </g>
  </g>
 </g>
</svg>
