<?xml version="1.0" encoding="UTF-8"?>
<!DOCTYPE svg PUBLIC "-//W3C//DTD SVG 1.1//EN" "http://www.w3.org/Graphics/SVG/1.1/DTD/svg11.dtd">
<!-- Creator: CorelDRAW 2018 (64-Bit) -->
<svg xmlns="http://www.w3.org/2000/svg" xml:space="preserve" width="0.668783in" height="0.550276in" version="1.1" style="shape-rendering:geometricPrecision; text-rendering:geometricPrecision; image-rendering:optimizeQuality; fill-rule:evenodd; clip-rule:evenodd"
viewBox="0 0 7.08 5.83"
 xmlns:xlink="http://www.w3.org/1999/xlink">
 <defs>
  <style type="text/css">
   <![CDATA[
    .str0 {stroke:white;stroke-width:0.07;stroke-miterlimit:2.61313}
    .fil14 {fill:none}
    .fil0 {fill:black;fill-rule:nonzero}
    .fil12 {fill:#004922;fill-rule:nonzero}
    .fil13 {fill:#006837;fill-rule:nonzero}
    .fil10 {fill:#009245;fill-rule:nonzero}
    .fil11 {fill:#01662D;fill-rule:nonzero}
    .fil9 {fill:#568231;fill-rule:nonzero}
    .fil8 {fill:#6C9B3C;fill-rule:nonzero}
    .fil2 {fill:#6C9C3D;fill-rule:nonzero}
    .fil3 {fill:#8BC53D;fill-rule:nonzero}
    .fil1 {fill:#ACD038;fill-rule:nonzero}
    .fil6 {fill:#C1C2C4;fill-rule:nonzero}
    .fil7 {fill:#C79933;fill-rule:nonzero}
    .fil5 {fill:#FBEB58;fill-rule:nonzero}
    .fil4 {fill:white;fill-rule:nonzero}
   ]]>
  </style>
 </defs>
 <g id="Layer_x0020_1">
  <metadata id="CorelCorpID_0Corel-Layer"/>
  <g id="_944464240">
   <g>
    <path class="fil0" d="M2.93 0.17c0.27,-0.14 0.59,-0.17 0.88,-0.1 0.23,0.05 0.45,0.18 0.6,0.38 0.04,-0.11 0.13,-0.2 0.24,-0.24 0.14,-0.06 0.3,-0.09 0.45,-0.06 0.11,0.02 0.22,0.07 0.31,0.13 0.06,0.04 0.08,0.14 0.03,0.2 -0.04,0.05 -0.12,0.05 -0.15,0.12 0,0.05 0.03,0.11 0.09,0.11 0.1,0.01 0.18,-0.04 0.27,-0.06 0.13,-0.04 0.27,-0.06 0.41,-0.03 0.11,0.03 0.21,0.1 0.27,0.2 0.02,0.04 0.05,0.09 0.04,0.14 -0.01,0.07 -0.08,0.14 -0.15,0.13 -0.05,-0 -0.12,-0.01 -0.16,0.04 -0.01,0.03 -0.03,0.08 0.01,0.1 0.07,0.03 0.15,0.04 0.23,0.06 0.17,0.05 0.35,0.08 0.5,0.19 0.14,0.1 0.23,0.28 0.24,0.45 -0,0.08 -0.08,0.15 -0.16,0.14 -0.07,-0 -0.11,-0.07 -0.16,-0.09 -0.04,-0.02 -0.09,-0.05 -0.12,-0.01 -0.02,0.01 -0,0.04 0.01,0.05 0.05,0.07 0.13,0.12 0.19,0.18 0.11,0.12 0.17,0.28 0.2,0.44 0.01,0.12 0.01,0.24 -0.05,0.35 -0.05,0.09 -0.19,0.09 -0.24,0.01 -0.04,-0.08 -0.07,-0.19 -0.15,-0.23 0.04,0.09 0.09,0.17 0.11,0.26 0.03,0.17 0.04,0.35 -0.02,0.51 -0.05,0.13 -0.14,0.24 -0.26,0.31 -0.05,0.03 -0.11,0.02 -0.16,-0.02 -0.04,-0.03 -0.05,-0.09 -0.05,-0.14 -0.2,0.33 -0.54,0.54 -0.89,0.68 -0.56,0.21 -1.16,0.27 -1.76,0.27 -0.31,-0.03 -0.63,-0.02 -0.94,-0.02 -0.25,0.01 -0.5,0.02 -0.74,0.06 -0.22,0.04 -0.44,0.11 -0.64,0.22 -0.18,0.1 -0.33,0.25 -0.44,0.42 -0.07,0.11 -0.12,0.24 -0.16,0.37 -0.03,0.09 -0.16,0.13 -0.23,0.06 -0.05,-0.05 -0.05,-0.12 -0.05,-0.19 0.01,-0.41 0.16,-0.83 0.46,-1.12 0.16,-0.16 0.36,-0.27 0.58,-0.34 0.22,-0.07 0.44,-0.1 0.67,-0.13 0.31,-0.04 0.62,-0.05 0.92,-0.1 0.1,-0.02 0.22,-0.05 0.3,-0.13 0.06,-0.06 0.06,-0.16 0.04,-0.24 -0.03,-0.11 -0.06,-0.22 -0.13,-0.3 -0.12,-0.15 -0.31,-0.25 -0.51,-0.27 -0.1,-0.01 -0.21,-0.01 -0.31,-0.01 -0.52,-0.02 -1.04,-0.08 -1.54,-0.24 -0.14,-0.04 -0.27,-0.09 -0.4,-0.16 -0.09,-0.05 -0.19,-0.11 -0.24,-0.21 -0.03,-0.06 -0.02,-0.14 0.01,-0.19 -0.07,-0.06 -0.13,-0.14 -0.14,-0.23 -0.02,-0.09 0.01,-0.19 0.07,-0.27 0.07,-0.1 0.18,-0.16 0.28,-0.22 0.26,-0.14 0.52,-0.26 0.79,-0.38 0.3,-0.13 0.61,-0.25 0.92,-0.35 0.13,-0.04 0.25,-0.08 0.38,-0.1 0.1,-0.18 0.26,-0.34 0.45,-0.43zm0.34 0.03l0 0c-0.18,0.04 -0.36,0.12 -0.5,0.26 -0.16,0.15 -0.25,0.35 -0.29,0.56 -0.03,0.16 -0.03,0.33 -0.01,0.49 -0.04,-0.1 -0.08,-0.21 -0.09,-0.32 -0.02,-0.15 0,-0.31 0.08,-0.45 -0.31,0.07 -0.61,0.18 -0.9,0.29 -0.29,0.12 -0.58,0.24 -0.87,0.38 -0.12,0.06 -0.24,0.12 -0.36,0.19 -0.07,0.05 -0.14,0.11 -0.15,0.19 -0.02,0.08 0.02,0.16 0.08,0.21 0.01,0.01 0.03,0.01 0.05,0.02 0.34,0.06 0.68,0.09 1.03,0.1 0.36,0.01 0.72,0 1.08,-0.02 0.55,-0.03 1.1,-0.08 1.65,-0.15 0.05,-0.01 0.1,-0.02 0.15,-0.02 -0.31,0.1 -0.63,0.16 -0.96,0.2 -0.58,0.07 -1.16,0.1 -1.74,0.1 -0.29,-0 -0.59,-0 -0.88,-0.03 -0.1,-0.01 -0.21,-0.04 -0.31,-0.01 -0.04,0.01 -0.04,0.07 -0.01,0.09 0.08,0.1 0.2,0.14 0.31,0.19 0.53,0.21 1.11,0.29 1.68,0.31 0.6,0.02 1.21,-0.03 1.8,-0.15 0.2,-0.04 0.4,-0.09 0.59,-0.16 0.22,-0.08 0.42,-0.2 0.55,-0.39 0.11,-0.16 0.14,-0.37 0.12,-0.57 -0.01,-0.08 -0.03,-0.16 -0.05,-0.24 0.03,0.02 0.04,0.06 0.07,0.08 0.02,0.04 0.05,0.08 0.07,0.12 0.08,0.15 0.09,0.33 0.07,0.49 -0.02,0.12 -0.06,0.24 -0.11,0.36 -0.01,0.4 -0.07,0.81 -0.26,1.17 -0.17,0.33 -0.45,0.6 -0.78,0.76 -0.11,0.06 -0.22,0.09 -0.33,0.13 -0.15,0.03 -0.29,0.07 -0.44,0.07 0.03,0.01 0.06,0.01 0.09,0.01 0.2,-0.01 0.4,-0.01 0.6,-0.04 0.07,0 0.14,-0.02 0.21,-0.02 0.27,-0.04 0.54,-0.11 0.79,-0.21 0.2,-0.08 0.4,-0.19 0.56,-0.35 0.13,-0.12 0.24,-0.27 0.28,-0.44 0.04,0.02 0.08,0.04 0.11,0.07 0.06,0.06 0.07,0.15 0.08,0.23 0.08,-0.05 0.15,-0.13 0.18,-0.22 0.06,-0.15 0.05,-0.31 0.02,-0.47 -0.02,-0.1 -0.12,-0.19 -0.11,-0.3 0.02,-0.09 0.15,-0.14 0.23,-0.09 0.07,0.05 0.12,0.12 0.15,0.19 0.01,0.02 0.02,0.05 0.04,0.07 0.05,-0.14 0.03,-0.29 -0.02,-0.42 -0.03,-0.08 -0.08,-0.17 -0.15,-0.22 -0.06,-0.05 -0.13,-0.1 -0.17,-0.17 -0.03,-0.05 -0.05,-0.1 -0.03,-0.16 0.03,-0.08 0.12,-0.14 0.2,-0.13 0.09,0.01 0.17,0.06 0.24,0.12 -0.01,-0.1 -0.05,-0.2 -0.12,-0.27 -0.08,-0.09 -0.2,-0.14 -0.31,-0.17 -0.11,-0.03 -0.21,-0.06 -0.32,-0.08 -0.08,-0.02 -0.17,-0.04 -0.22,-0.11 -0.04,-0.07 -0.03,-0.17 0.02,-0.24 0.06,-0.09 0.18,-0.11 0.28,-0.1 -0.03,-0.08 -0.1,-0.16 -0.18,-0.18 -0.1,-0.03 -0.21,-0.02 -0.31,0 -0.12,0.03 -0.24,0.09 -0.37,0.08 -0.07,-0 -0.14,-0.04 -0.18,-0.1 -0.04,-0.06 -0.07,-0.15 -0.04,-0.22 0.03,-0.07 0.1,-0.12 0.16,-0.15 -0.12,-0.09 -0.28,-0.13 -0.44,-0.11 -0.11,0.02 -0.23,0.06 -0.3,0.15 -0.03,0.04 -0.07,0.1 -0.05,0.16 0.02,0.07 0.02,0.14 0.02,0.21 -0.01,0.07 -0.03,0.14 -0.06,0.2 -0.01,0.01 -0.02,0.03 -0.03,0.05 -0,-0.16 -0.04,-0.32 -0.12,-0.45 -0.09,-0.15 -0.22,-0.26 -0.38,-0.33 -0.21,-0.09 -0.46,-0.11 -0.69,-0.06zm0.99 2.64l0 0c-0.32,0.08 -0.64,0.12 -0.97,0.13 0.12,0.06 0.24,0.12 0.34,0.21 0.14,0.12 0.25,0.28 0.25,0.47 0,0.17 -0.05,0.34 -0.15,0.48 -0.07,0.1 -0.17,0.17 -0.27,0.23 -0.02,0 -0.03,0.01 -0.05,0.02 0.46,-0.01 0.92,-0.22 1.21,-0.59 0.27,-0.35 0.39,-0.79 0.42,-1.23 -0.25,0.12 -0.51,0.21 -0.77,0.28zm-0.88 0.45l0 0c0,0.02 0.01,0.03 0.01,0.05l0.01 0c0.04,0.13 0.08,0.29 0.03,0.42 -0.06,0.13 -0.19,0.19 -0.32,0.23 -0.24,0.07 -0.48,0.08 -0.73,0.1 -0.26,0.02 -0.52,0.05 -0.78,0.1 -0.24,0.05 -0.47,0.15 -0.65,0.32 -0.28,0.24 -0.43,0.61 -0.46,0.98 -0.01,0.05 -0.01,0.11 -0,0.16 0.01,-0.02 0.02,-0.04 0.02,-0.06 0.1,-0.32 0.31,-0.6 0.59,-0.78 0.22,-0.14 0.47,-0.22 0.72,-0.27 0.23,-0.04 0.46,-0.04 0.69,-0.05 0.24,-0.02 0.49,-0.05 0.72,-0.14 0.16,-0.06 0.31,-0.17 0.39,-0.33 0.07,-0.12 0.11,-0.26 0.07,-0.4 -0.04,-0.15 -0.17,-0.27 -0.31,-0.33z"/>
    <path class="fil0" d="M3.36 0.43c0.15,-0.03 0.3,0 0.43,0.08 0.16,0.1 0.27,0.26 0.3,0.45 0.02,0.16 -0.02,0.33 -0.12,0.46 -0.1,0.13 -0.25,0.23 -0.42,0.25 -0.19,0.03 -0.38,-0.04 -0.52,-0.17 -0.1,-0.1 -0.17,-0.23 -0.19,-0.37 -0.02,-0.16 0.02,-0.33 0.12,-0.45 0.09,-0.13 0.24,-0.21 0.39,-0.24zm0.22 0.35l0 0c-0.05,0.07 -0.02,0.17 0.06,0.21 0.06,0.03 0.14,0.02 0.18,-0.04 0.05,-0.06 0.04,-0.15 -0.01,-0.2 -0.06,-0.06 -0.18,-0.05 -0.23,0.03zm-0.35 0.1l0 0c-0.05,0.07 -0.06,0.17 -0.04,0.25l0 0c0.04,0.15 0.2,0.24 0.35,0.2 0.13,-0.03 0.22,-0.14 0.23,-0.27 -0.07,0.02 -0.15,0.01 -0.2,-0.04l-0 0.01c-0.03,-0.04 -0.07,-0.08 -0.08,-0.13 -0.01,-0.05 0,-0.11 0.02,-0.15 -0.11,-0.01 -0.22,0.04 -0.29,0.13z"/>
    <path class="fil1" d="M3.26 0.2c0.23,-0.05 0.47,-0.03 0.69,0.06 0.16,0.07 0.29,0.18 0.38,0.33 0.08,0.14 0.12,0.3 0.12,0.45 0.01,-0.02 0.02,-0.03 0.03,-0.05 0.01,0.11 -0.03,0.22 -0.08,0.32 -0.06,0.13 -0.15,0.26 -0.27,0.35 -0.07,0.06 -0.16,0.1 -0.25,0.11 0.06,-0.06 0.13,-0.1 0.18,-0.16 0.12,-0.12 0.19,-0.28 0.19,-0.45 0.01,-0.2 -0.05,-0.4 -0.18,-0.56 -0.13,-0.16 -0.34,-0.25 -0.54,-0.28 -0.2,-0.03 -0.4,-0.01 -0.59,0.06 -0.06,0.02 -0.11,0.05 -0.17,0.07 0.13,-0.14 0.31,-0.22 0.5,-0.26z"/>
    <path class="fil2" d="M4.58 0.42c0.07,-0.09 0.19,-0.13 0.3,-0.15 0.15,-0.03 0.31,0.02 0.44,0.11 -0.07,0.03 -0.13,0.08 -0.16,0.15 -0.03,0.07 -0,0.16 0.04,0.22 0.04,0.06 0.11,0.09 0.18,0.1 0.13,0.01 0.25,-0.05 0.37,-0.08 0.1,-0.02 0.21,-0.04 0.31,-0 0.08,0.03 0.15,0.1 0.18,0.18 -0.1,-0.01 -0.22,0.01 -0.28,0.1 -0.04,0.07 -0.05,0.17 -0.02,0.24 0.05,0.07 0.14,0.09 0.22,0.11 0.11,0.02 0.21,0.05 0.32,0.08 0.12,0.03 0.23,0.08 0.31,0.17 0.07,0.07 0.11,0.17 0.12,0.27 -0.07,-0.06 -0.15,-0.11 -0.24,-0.12 -0.09,-0.01 -0.18,0.05 -0.2,0.13 -0.02,0.06 0,0.11 0.03,0.16 0.04,0.07 0.11,0.12 0.17,0.17 0.08,0.05 0.12,0.13 0.15,0.22 0.05,0.13 0.07,0.28 0.02,0.42 -0.02,-0.02 -0.03,-0.05 -0.04,-0.07 -0.04,-0.07 -0.08,-0.15 -0.15,-0.19 -0.08,-0.06 -0.21,-0 -0.23,0.09 -0.01,0.11 0.09,0.2 0.11,0.3 0.03,0.15 0.04,0.32 -0.02,0.47 -0.04,0.09 -0.1,0.16 -0.18,0.22 -0.01,-0.08 -0.02,-0.17 -0.08,-0.23 -0.03,-0.03 -0.07,-0.05 -0.11,-0.07 -0.05,0.17 -0.16,0.32 -0.28,0.44 -0.16,0.15 -0.36,0.26 -0.56,0.35 -0.25,0.1 -0.52,0.17 -0.79,0.21 -0.07,0.01 -0.14,0.02 -0.21,0.02 0.07,-0.04 0.14,-0.04 0.21,-0.06 0.43,-0.11 0.84,-0.31 1.2,-0.57 0.03,-0.02 0.05,-0.04 0.07,-0.07 0.07,-0.11 0.11,-0.23 0.18,-0.34 0.07,-0.12 0.23,-0.15 0.29,-0.27 0.05,-0.08 0.01,-0.18 0.01,-0.27 0,-0.11 0.08,-0.2 0.15,-0.27 0.04,-0.05 0.1,-0.11 0.08,-0.18 -0.04,-0.11 -0.17,-0.15 -0.2,-0.27 -0.03,-0.14 0.04,-0.27 0.03,-0.41 -0,-0.06 -0.05,-0.13 -0.11,-0.15 -0.11,-0.03 -0.23,0.01 -0.34,-0.03 -0.07,-0.02 -0.14,-0.07 -0.15,-0.15 -0.02,-0.11 0.01,-0.24 -0.05,-0.34 -0.05,-0.08 -0.15,-0.07 -0.23,-0.06 -0.12,0.01 -0.27,0.04 -0.37,-0.04 -0.09,-0.07 -0.11,-0.19 -0.2,-0.25 -0.09,-0.06 -0.19,-0.02 -0.29,-0.03 -0,0.04 -0,0.08 -0.01,0.12 0,-0.07 0,-0.14 -0.02,-0.21 -0.02,-0.06 0.01,-0.12 0.05,-0.16z"/>
    <path class="fil3" d="M2.94 0.4c0.19,-0.07 0.39,-0.09 0.59,-0.06 0.21,0.03 0.41,0.12 0.54,0.28 0.13,0.15 0.18,0.36 0.18,0.56 0,0.17 -0.07,0.33 -0.19,0.45 -0.05,0.06 -0.12,0.1 -0.18,0.16 0.09,-0.01 0.18,-0.05 0.25,-0.11 0.12,-0.09 0.2,-0.22 0.27,-0.35 0.05,-0.1 0.09,-0.21 0.08,-0.32 0.03,-0.06 0.05,-0.13 0.06,-0.2 0.01,-0.04 0.01,-0.08 0.01,-0.12 0.1,0.01 0.21,-0.03 0.29,0.03 0.09,0.07 0.11,0.19 0.2,0.25 0.1,0.09 0.25,0.06 0.37,0.04 0.08,-0.01 0.18,-0.02 0.23,0.06 0.07,0.1 0.03,0.23 0.05,0.34 0.01,0.08 0.08,0.13 0.15,0.15 0.11,0.03 0.23,-0.01 0.34,0.03 0.06,0.02 0.1,0.08 0.11,0.15 0.01,0.14 -0.06,0.27 -0.03,0.41 0.03,0.12 0.17,0.16 0.2,0.27 0.02,0.07 -0.04,0.13 -0.08,0.18 -0.07,0.07 -0.15,0.16 -0.15,0.27 0,0.09 0.04,0.18 -0.01,0.27 -0.06,0.13 -0.22,0.15 -0.29,0.27 -0.07,0.11 -0.1,0.23 -0.18,0.34 -0.02,0.03 -0.04,0.05 -0.07,0.07 -0.36,0.26 -0.77,0.46 -1.2,0.57 -0.07,0.02 -0.15,0.02 -0.21,0.06 -0.2,0.03 -0.4,0.04 -0.6,0.04 -0.03,0 -0.06,-0 -0.09,-0.01 0.15,0 0.3,-0.04 0.44,-0.07 0.03,-0 0.06,0 0.09,-0.01 0.43,-0.09 0.87,-0.24 1.21,-0.52 0.28,-0.22 0.48,-0.54 0.57,-0.88 0.07,-0.26 0.09,-0.53 0.06,-0.8 -0.03,-0.22 -0.11,-0.45 -0.26,-0.62 -0.09,-0.09 -0.19,-0.18 -0.32,-0.21 -0.03,-0.02 -0.05,-0.05 -0.07,-0.08 0.02,0.08 0.04,0.16 0.05,0.24 0,0.02 0,0.04 -0.01,0.06 -0.09,0.14 -0.22,0.25 -0.36,0.34 -0.2,0.13 -0.42,0.22 -0.65,0.29 -0.41,0.13 -0.83,0.21 -1.26,0.27 -0.83,0.11 -1.68,0.06 -2.49,-0.13 -0.1,-0.02 -0.19,-0.05 -0.29,-0.07 -0.03,-0.02 -0.04,-0.08 0.01,-0.09 0.1,-0.03 0.21,-0 0.31,0.01 0.29,0.03 0.59,0.03 0.88,0.03 0.58,-0 1.16,-0.03 1.74,-0.1 0.32,-0.04 0.65,-0.1 0.96,-0.2 -0.05,-0 -0.1,0.01 -0.15,0.02 -0.55,0.07 -1.1,0.12 -1.65,0.15 -0.36,0.02 -0.72,0.03 -1.08,0.02 -0.34,-0.01 -0.69,-0.04 -1.03,-0.1 -0.02,-0 -0.04,-0 -0.05,-0.02 -0.06,-0.05 -0.1,-0.13 -0.08,-0.21 0.02,-0.08 0.09,-0.14 0.15,-0.19 0.11,-0.07 0.24,-0.13 0.36,-0.19 0.28,-0.14 0.57,-0.26 0.87,-0.38 0.3,-0.11 0.59,-0.23 0.9,-0.29 -0.08,0.13 -0.1,0.29 -0.08,0.45 0.01,0.11 0.05,0.22 0.09,0.32 -0.02,-0.16 -0.02,-0.33 0.01,-0.49 0.04,-0.21 0.13,-0.42 0.29,-0.56 0.06,-0.02 0.11,-0.05 0.17,-0.07zm0.42 0.04l0 0c-0.15,0.03 -0.3,0.12 -0.39,0.24 -0.1,0.13 -0.14,0.3 -0.12,0.45 0.02,0.14 0.09,0.27 0.19,0.37 0.13,0.13 0.33,0.19 0.52,0.17 0.17,-0.02 0.32,-0.11 0.42,-0.25 0.1,-0.13 0.14,-0.3 0.12,-0.46 -0.02,-0.18 -0.14,-0.35 -0.3,-0.45 -0.13,-0.08 -0.29,-0.11 -0.43,-0.08z"/>
    <path class="fil4" d="M3.57 0.78c0.05,-0.08 0.16,-0.09 0.23,-0.03 -0.02,0.04 -0.04,0.07 -0.06,0.11 -0.03,0.05 -0.07,0.09 -0.11,0.13 -0.07,-0.04 -0.1,-0.14 -0.06,-0.21z"/>
    <path class="fil5" d="M3.22 0.88c0.06,-0.09 0.18,-0.14 0.29,-0.13 -0.02,0.05 -0.04,0.1 -0.02,0.15 0.01,0.05 0.04,0.09 0.08,0.13 -0.1,0.08 -0.24,0.12 -0.38,0.1l-0 -0c-0.02,-0.09 -0.01,-0.18 0.04,-0.25z"/>
    <path class="fil6" d="M3.8 0.76c0.05,0.05 0.06,0.14 0.01,0.2 -0.04,0.05 -0.12,0.06 -0.18,0.04 0.04,-0.04 0.08,-0.08 0.11,-0.13 0.02,-0.04 0.04,-0.07 0.06,-0.11z"/>
    <path class="fil7" d="M3.56 1.03l0 -0.01c0.05,0.05 0.13,0.06 0.2,0.04 -0.01,0.13 -0.1,0.24 -0.23,0.27 -0.15,0.04 -0.31,-0.05 -0.35,-0.2 0.13,0.02 0.27,-0.02 0.38,-0.1z"/>
    <path class="fil8" d="M5.4 1.37c0.12,0.04 0.23,0.12 0.32,0.21 0.15,0.17 0.23,0.39 0.26,0.62 0.03,0.27 0.01,0.54 -0.06,0.8 -0.09,0.34 -0.29,0.66 -0.57,0.88 -0.35,0.28 -0.78,0.43 -1.21,0.52 -0.03,0.01 -0.06,0.01 -0.09,0.01 0.11,-0.04 0.23,-0.08 0.33,-0.13 0.33,-0.16 0.61,-0.43 0.78,-0.76 0.19,-0.36 0.26,-0.77 0.26,-1.17 0.05,-0.11 0.1,-0.23 0.11,-0.36 0.03,-0.17 0.01,-0.34 -0.07,-0.49 -0.02,-0.04 -0.05,-0.08 -0.07,-0.12z"/>
    <path class="fil9" d="M5.38 1.53c0.02,0.19 -0.01,0.4 -0.12,0.57 -0.13,0.19 -0.34,0.32 -0.55,0.39 -0.19,0.07 -0.39,0.11 -0.59,0.16 -0.59,0.12 -1.2,0.17 -1.8,0.15 -0.57,-0.02 -1.15,-0.1 -1.68,-0.31 -0.11,-0.05 -0.23,-0.09 -0.31,-0.19 0.1,0.02 0.19,0.05 0.29,0.07 0.81,0.19 1.66,0.24 2.49,0.13 0.43,-0.06 0.85,-0.14 1.26,-0.27 0.22,-0.07 0.45,-0.16 0.65,-0.29 0.14,-0.09 0.26,-0.2 0.36,-0.34 0.01,-0.02 0.01,-0.04 0.01,-0.06z"/>
    <path class="fil10" d="M4.26 2.84c0.27,-0.07 0.53,-0.15 0.77,-0.28 -0.03,0.44 -0.14,0.88 -0.42,1.23 -0.29,0.37 -0.75,0.58 -1.21,0.59 0.02,-0.01 0.03,-0.02 0.05,-0.02 0.11,-0.01 0.21,-0.06 0.3,-0.1 0.17,-0.08 0.32,-0.21 0.41,-0.38 0.11,-0.18 0.15,-0.39 0.14,-0.59 -0,-0.15 -0.03,-0.3 -0.06,-0.44z"/>
    <path class="fil11" d="M3.29 2.97c0.33,-0.01 0.65,-0.05 0.97,-0.13 0.03,0.15 0.06,0.29 0.06,0.44 0,0.21 -0.04,0.42 -0.14,0.59 -0.1,0.16 -0.25,0.29 -0.41,0.38 -0.1,0.05 -0.2,0.09 -0.3,0.1 0.1,-0.06 0.2,-0.14 0.27,-0.23 0.1,-0.14 0.16,-0.31 0.15,-0.48 -0.01,-0.18 -0.12,-0.35 -0.25,-0.47 -0.1,-0.09 -0.22,-0.15 -0.34,-0.21z"/>
    <path class="fil12" d="M3.37 3.29c0.14,0.07 0.27,0.18 0.31,0.33 0.04,0.14 -0.01,0.28 -0.07,0.4 -0.08,0.15 -0.23,0.26 -0.39,0.33 -0.23,0.09 -0.48,0.12 -0.72,0.14 -0.23,0.02 -0.46,0.01 -0.69,0.05 -0.25,0.04 -0.5,0.13 -0.72,0.27 -0.28,0.18 -0.49,0.46 -0.59,0.78 -0.01,0.02 -0.01,0.04 -0.02,0.06 -0,-0.05 -0,-0.11 0,-0.16 0,0.02 0,0.03 0.01,0.05 0.05,-0.18 0.12,-0.36 0.22,-0.52 0.12,-0.2 0.3,-0.37 0.51,-0.47 0.15,-0.08 0.32,-0.13 0.48,-0.16 0.33,-0.07 0.67,-0.08 1.01,-0.12 0.19,-0.03 0.39,-0.05 0.57,-0.14 0.12,-0.06 0.22,-0.16 0.25,-0.29 0.04,-0.17 -0.02,-0.34 -0.11,-0.49 -0,-0 -0.01,-0 -0.01,-0.01l-0.01 -0c-0.01,-0.02 -0.01,-0.03 -0.01,-0.05z"/>
    <path class="fil13" d="M3.39 3.34c0,0 0.01,0 0.01,0.01 0.08,0.15 0.14,0.32 0.11,0.49 -0.03,0.13 -0.13,0.23 -0.25,0.29 -0.18,0.09 -0.37,0.11 -0.57,0.14 -0.34,0.04 -0.68,0.05 -1.01,0.12 -0.17,0.03 -0.33,0.08 -0.48,0.16 -0.21,0.11 -0.39,0.27 -0.51,0.47 -0.1,0.16 -0.17,0.34 -0.22,0.52 -0,-0.02 -0,-0.03 -0.01,-0.05 0.03,-0.37 0.18,-0.73 0.46,-0.98 0.18,-0.16 0.42,-0.26 0.65,-0.32 0.26,-0.05 0.52,-0.08 0.78,-0.1 0.24,-0.02 0.49,-0.04 0.73,-0.1 0.13,-0.04 0.26,-0.1 0.32,-0.23 0.06,-0.14 0.02,-0.29 -0.03,-0.42z"/>
   </g>
   <path class="fil14 str0" d="M6.06 0.62c0.11,0.03 0.21,0.1 0.27,0.2 0.02,0.04 0.05,0.09 0.04,0.14 -0.01,0.07 -0.08,0.14 -0.15,0.13 -0.05,-0 -0.12,-0.01 -0.16,0.04 -0.01,0.03 -0.03,0.08 0.01,0.1 0.07,0.03 0.15,0.04 0.23,0.06 0.17,0.05 0.35,0.08 0.5,0.19 0.14,0.1 0.23,0.28 0.24,0.45 -0,0.08 -0.08,0.15 -0.16,0.14 -0.07,-0 -0.11,-0.07 -0.16,-0.09 -0.04,-0.02 -0.09,-0.05 -0.12,-0.01 -0.02,0.01 -0,0.04 0.01,0.05 0.05,0.07 0.13,0.12 0.19,0.18 0.11,0.12 0.17,0.28 0.2,0.44 0.01,0.12 0.01,0.24 -0.05,0.35 -0.05,0.09 -0.19,0.09 -0.24,0.01 -0.04,-0.08 -0.07,-0.19 -0.15,-0.23 0.04,0.09 0.09,0.17 0.11,0.26 0.03,0.17 0.04,0.35 -0.02,0.51 -0.05,0.13 -0.14,0.24 -0.26,0.31 -0.05,0.03 -0.11,0.02 -0.16,-0.02 -0.04,-0.03 -0.05,-0.09 -0.05,-0.14 -0.2,0.33 -0.54,0.54 -0.89,0.68 -0.56,0.21 -1.16,0.27 -1.76,0.27 -0.31,-0.03 -0.63,-0.02 -0.94,-0.02 -0.25,0.01 -0.5,0.02 -0.74,0.06 -0.22,0.04 -0.44,0.11 -0.64,0.22 -0.18,0.1 -0.33,0.25 -0.44,0.42 -0.07,0.11 -0.12,0.24 -0.16,0.37 -0.03,0.09 -0.16,0.13 -0.23,0.06 -0.05,-0.05 -0.05,-0.12 -0.05,-0.19 0.01,-0.41 0.16,-0.83 0.46,-1.12 0.16,-0.16 0.36,-0.27 0.58,-0.34 0.22,-0.07 0.44,-0.1 0.67,-0.13 0.31,-0.04 0.62,-0.05 0.92,-0.1 0.1,-0.02 0.22,-0.05 0.3,-0.13 0.06,-0.06 0.06,-0.16 0.04,-0.24 -0.03,-0.11 -0.06,-0.22 -0.13,-0.3 -0.12,-0.15 -0.31,-0.25 -0.51,-0.27 -0.1,-0.01 -0.21,-0.01 -0.31,-0.01 -0.52,-0.02 -1.04,-0.08 -1.54,-0.24 -0.14,-0.04 -0.27,-0.09 -0.4,-0.16 -0.09,-0.05 -0.19,-0.11 -0.24,-0.21 -0.03,-0.06 -0.02,-0.14 0.01,-0.19 -0.07,-0.06 -0.13,-0.14 -0.14,-0.23 -0.02,-0.09 0.01,-0.19 0.07,-0.27 0.07,-0.1 0.18,-0.16 0.28,-0.22 0.26,-0.14 0.52,-0.26 0.79,-0.38 0.3,-0.13 0.61,-0.25 0.92,-0.35 0.13,-0.04 0.25,-0.08 0.38,-0.1 0.1,-0.18 0.26,-0.34 0.45,-0.43 0.27,-0.14 0.59,-0.17 0.88,-0.1 0.23,0.05 0.45,0.18 0.6,0.38 0.04,-0.11 0.13,-0.2 0.24,-0.24 0.14,-0.06 0.3,-0.09 0.45,-0.06 0.11,0.02 0.22,0.07 0.31,0.13 0.06,0.04 0.08,0.14 0.03,0.2 -0.04,0.05 -0.12,0.05 -0.15,0.12 0,0.05 0.03,0.11 0.09,0.11 0.1,0.01 0.18,-0.04 0.27,-0.06 0.13,-0.04 0.27,-0.06 0.41,-0.03z"/>
  </g>
 </g>
</svg>
