<?xml version="1.0" encoding="UTF-8"?>
<!DOCTYPE svg PUBLIC "-//W3C//DTD SVG 1.1//EN" "http://www.w3.org/Graphics/SVG/1.1/DTD/svg11.dtd">
<!-- Creator: CorelDRAW 2018 (64-Bit) -->
<svg xmlns="http://www.w3.org/2000/svg" xml:space="preserve" width="0.354307in" height="0.45724in" version="1.1" style="shape-rendering:geometricPrecision; text-rendering:geometricPrecision; image-rendering:optimizeQuality; fill-rule:evenodd; clip-rule:evenodd"
viewBox="0 0 1.89 2.44"
 xmlns:xlink="http://www.w3.org/1999/xlink">
 <defs>
  <style type="text/css">
   <![CDATA[
    .fil55 {fill:#C79933}
    .fil56 {fill:#FBEB58}
    .fil54 {fill:#130603;fill-rule:nonzero}
    .fil12 {fill:#1B0D06;fill-rule:nonzero}
    .fil33 {fill:#1C0D06;fill-rule:nonzero}
    .fil1 {fill:#1D0E06;fill-rule:nonzero}
    .fil17 {fill:#5B4E2E;fill-rule:nonzero}
    .fil18 {fill:#5B4F2E;fill-rule:nonzero}
    .fil24 {fill:#5C502F;fill-rule:nonzero}
    .fil31 {fill:#5F5231;fill-rule:nonzero}
    .fil14 {fill:#615433;fill-rule:nonzero}
    .fil7 {fill:#615433;fill-rule:nonzero}
    .fil13 {fill:#615434;fill-rule:nonzero}
    .fil32 {fill:#625534;fill-rule:nonzero}
    .fil53 {fill:#635636;fill-rule:nonzero}
    .fil27 {fill:#645736;fill-rule:nonzero}
    .fil36 {fill:#663522;fill-rule:nonzero}
    .fil45 {fill:#67161C;fill-rule:nonzero}
    .fil6 {fill:#683623;fill-rule:nonzero}
    .fil37 {fill:#693724;fill-rule:nonzero}
    .fil39 {fill:#695B38;fill-rule:nonzero}
    .fil38 {fill:#695B39;fill-rule:nonzero}
    .fil4 {fill:#6C3927;fill-rule:nonzero}
    .fil9 {fill:#6C5E37;fill-rule:nonzero}
    .fil23 {fill:#6C5E39;fill-rule:nonzero}
    .fil22 {fill:#6C5E3A;fill-rule:nonzero}
    .fil8 {fill:#6E603C;fill-rule:nonzero}
    .fil29 {fill:#6F613D;fill-rule:nonzero}
    .fil3 {fill:#733C2A;fill-rule:nonzero}
    .fil19 {fill:#73623E;fill-rule:nonzero}
    .fil30 {fill:#73643E;fill-rule:nonzero}
    .fil2 {fill:#743C2A;fill-rule:nonzero}
    .fil20 {fill:#74643E;fill-rule:nonzero}
    .fil51 {fill:#838383;fill-rule:nonzero}
    .fil11 {fill:#857642;fill-rule:nonzero}
    .fil41 {fill:#868587;fill-rule:nonzero}
    .fil52 {fill:#897944;fill-rule:nonzero}
    .fil49 {fill:#8A898A;fill-rule:nonzero}
    .fil48 {fill:#8A8A8A;fill-rule:nonzero}
    .fil47 {fill:#8B887B;fill-rule:nonzero}
    .fil46 {fill:#912024;fill-rule:nonzero}
    .fil42 {fill:#929292;fill-rule:nonzero}
    .fil34 {fill:#95834B;fill-rule:nonzero}
    .fil35 {fill:#96844D;fill-rule:nonzero}
    .fil10 {fill:#9C894E;fill-rule:nonzero}
    .fil21 {fill:#9D8A50;fill-rule:nonzero}
    .fil26 {fill:#9E8A4F;fill-rule:nonzero}
    .fil44 {fill:#A2A3A4;fill-rule:nonzero}
    .fil15 {fill:#A39250;fill-rule:nonzero}
    .fil28 {fill:#A49153;fill-rule:nonzero}
    .fil5 {fill:#A7A8A9;fill-rule:nonzero}
    .fil25 {fill:#AF9C56;fill-rule:nonzero}
    .fil50 {fill:#C1C7C9;fill-rule:nonzero}
    .fil43 {fill:#C5C5C0;fill-rule:nonzero}
    .fil40 {fill:#DDDEDE;fill-rule:nonzero}
    .fil0 {fill:#DEDEDE;fill-rule:nonzero}
    .fil16 {fill:#DFDDD6;fill-rule:nonzero}
   ]]>
  </style>
 </defs>
 <g id="Layer_x0020_1">
  <metadata id="CorelCorpID_0Corel-Layer"/>
  <g id="_988839056">
   <g>
    <path class="fil0" d="M0.92 0.02c0.01,-0.01 0.02,-0.02 0.03,-0.01 0.02,0 0.03,0.02 0.05,0.03 0.03,0.03 0.07,0.07 0.1,0.1 0.02,0.02 0.03,0.03 0.04,0.05 0.01,0.02 0.03,0.03 0.04,0.05 0.01,0.01 0.01,0.02 0.02,0.03 0.01,0.02 0.02,0.03 0.03,0.05 0,0 0,0.01 0.01,0.01 0,0 0.01,0.01 0.01,0.01 0,0 0,0 0.01,0 0.01,-0.03 0.03,-0.05 0.05,-0.08 0.01,-0.01 0.03,-0.02 0.04,-0.03 0.01,-0 0.02,0.01 0.03,0.02 0,0.01 0,0.02 0,0.03 -0,0.02 0.01,0.04 0.01,0.05 0.01,0.03 0.03,0.06 0.04,0.09 0.01,0.02 0.02,0.04 0.03,0.06 0,0.01 0.01,0.01 0.01,0.02 0,0.01 0.01,0.01 0.01,0.02 0.02,0.03 0.04,0.06 0.05,0.09 0.01,0.02 0.03,0.04 0.04,0.07 0,0 0,0.01 0.01,0.01 0.01,-0.01 0.02,-0.02 0.02,-0.03 0.01,-0.01 0.01,-0.03 0.03,-0.04 0.01,-0 0.03,-0 0.04,0 0.01,0.01 0.01,0.02 0.02,0.03 0.01,0.04 0.03,0.09 0.03,0.14 0,0.01 0.01,0.01 0.01,0.01 0.05,0.01 0.08,0.05 0.11,0.09 0,0.01 0.01,0.01 0.01,0.02 0.02,0.04 0.03,0.08 0.04,0.12 0.01,0.07 0.01,0.14 -0.01,0.2 -0.01,0.03 -0.02,0.05 -0.03,0.08 -0.01,0.02 -0.03,0.04 -0.04,0.06 -0,0 -0.01,0 -0.01,0.01 -0,0 -0,0.01 0,0.01 0.01,0.02 0.03,0.03 0.05,0.04 0.01,0.01 0.02,0.02 0.02,0.03 -0,0.01 -0.01,0.02 -0.02,0.03 -0.02,0.01 -0.04,0.02 -0.06,0.03 -0.02,0.01 -0.05,0.02 -0.08,0.02 0.01,0.12 0,0.24 -0.04,0.35 -0.01,0.02 -0.02,0.05 -0.03,0.07 -0.01,0.02 -0.04,0.02 -0.05,0.01 -0.01,-0.01 -0.02,-0.03 -0.02,-0.04l-0 -0c-0.01,0.01 -0.01,0.02 -0.01,0.03 -0,0.01 -0.01,0.02 -0.01,0.03 -0,0.01 -0.01,0.01 -0.01,0.02 -0.01,0.03 -0.02,0.05 -0.04,0.08 -0.03,0.05 -0.06,0.09 -0.09,0.13 -0.02,0.03 -0.05,0.05 -0.07,0.08 -0.01,0.01 -0.02,0.02 -0.03,0.02 -0.02,0 -0.03,-0.01 -0.03,-0.03 -0,-0.01 0,-0.01 -0.01,-0.02 -0.01,0.02 -0.02,0.05 -0.03,0.07 -0,0.01 -0.01,0.02 -0.01,0.02 -0.02,0.02 -0.03,0.04 -0.06,0.06 -0.05,0.03 -0.1,0.04 -0.15,0.05 -0.06,0.01 -0.13,0 -0.19,-0.02 -0.04,-0.01 -0.09,-0.03 -0.11,-0.06 -0.01,-0.01 -0.02,-0.03 -0.03,-0.05 -0.01,-0.02 -0.02,-0.05 -0.03,-0.07l-0 -0c0,0.01 -0,0.03 -0.02,0.04 -0.01,0.01 -0.03,0.01 -0.04,-0.01 -0.03,-0.03 -0.05,-0.05 -0.07,-0.08 -0.02,-0.03 -0.05,-0.06 -0.07,-0.09 -0.01,-0.01 -0.02,-0.03 -0.02,-0.04 -0.01,-0.02 -0.03,-0.05 -0.04,-0.08 -0,-0.01 -0.01,-0.01 -0.01,-0.02 -0,-0.01 -0.01,-0.02 -0.01,-0.03 -0,-0.01 -0,-0.01 -0.01,-0.02 -0,-0 -0,-0 -0.01,-0l-0 0c-0.01,0.01 -0.02,0.03 -0.03,0.04 -0.02,0.01 -0.04,0 -0.04,-0.01 -0.04,-0.06 -0.06,-0.13 -0.07,-0.2 -0.01,-0.07 -0.01,-0.15 -0.01,-0.22 -0.03,-0 -0.05,-0.01 -0.08,-0.02 -0.02,-0.01 -0.04,-0.02 -0.06,-0.03 -0.01,-0.01 -0.02,-0.03 -0.01,-0.04 0,-0.01 0.01,-0.02 0.02,-0.02 0.02,-0.01 0.03,-0.02 0.04,-0.04 0,-0 0,-0.01 0,-0.01 -0,-0 -0.01,-0 -0.01,-0.01 -0.02,-0.02 -0.03,-0.03 -0.04,-0.06 -0.04,-0.07 -0.05,-0.14 -0.05,-0.22 0,-0.07 0.02,-0.15 0.05,-0.21 0.03,-0.04 0.06,-0.07 0.11,-0.09 0,-0 0.01,-0 0.01,-0.01 0,-0.05 0.01,-0.1 0.03,-0.15 0,-0.02 0.03,-0.03 0.05,-0.02 0.01,0.01 0.02,0.02 0.02,0.03 0.01,0.02 0.02,0.03 0.03,0.04 0,-0 0.01,-0.01 0.01,-0.01 0,-0.01 0.01,-0.02 0.02,-0.03 0.02,-0.02 0.03,-0.05 0.05,-0.07 0.01,-0.02 0.02,-0.03 0.03,-0.05 0,-0.01 0.01,-0.01 0.01,-0.02 0,-0.01 0.01,-0.01 0.01,-0.02 0.01,-0.02 0.02,-0.04 0.03,-0.06 0.02,-0.04 0.04,-0.08 0.05,-0.12 0,-0.02 -0,-0.03 0.01,-0.05 0.01,-0.01 0.01,-0.01 0.02,-0.02 0.01,-0.01 0.03,0 0.04,0.01 0.03,0.02 0.05,0.05 0.06,0.08 0,0 0,0.01 0.01,0.01 0,-0.01 0.01,-0.02 0.01,-0.02 0.01,-0.02 0.02,-0.03 0.03,-0.05 0.02,-0.03 0.04,-0.05 0.06,-0.08l0 -0c0.01,-0.01 0.02,-0.02 0.02,-0.03 0.04,-0.05 0.09,-0.1 0.14,-0.15zm-0.07 0.12l0 0c-0.07,0.07 -0.13,0.14 -0.18,0.23 -0.02,0.03 -0.03,0.06 -0.04,0.09 -0,-0.02 0,-0.05 -0.01,-0.07 -0.01,-0.05 -0.04,-0.09 -0.08,-0.12 0,0.02 -0,0.04 -0.01,0.05 -0.02,0.05 -0.04,0.1 -0.07,0.15 -0.03,0.06 -0.07,0.12 -0.11,0.18 -0.02,0.03 -0.04,0.07 -0.03,0.1 -0.01,-0.02 -0.03,-0.03 -0.04,-0.05 -0.02,-0.02 -0.03,-0.05 -0.05,-0.07 -0.01,0.01 -0.01,0.02 -0.01,0.03 -0.01,0.05 -0.03,0.1 -0.01,0.15 -0.03,-0 -0.05,0.01 -0.07,0.02 -0.05,0.03 -0.08,0.09 -0.09,0.14 -0.02,0.09 -0.02,0.18 0.01,0.27 0.02,0.05 0.05,0.09 0.1,0.11 -0.02,0.01 -0.03,0.04 -0.05,0.06 -0.01,0.01 -0.03,0.02 -0.04,0.03 0.02,0.01 0.04,0.03 0.06,0.03 0.03,0.01 0.06,0.02 0.09,0.01 -0.01,0.03 -0.01,0.06 -0.01,0.09 -0,0.03 0,0.06 0,0.09 0.01,0.09 0.03,0.18 0.07,0.26 0.02,-0.03 0.04,-0.07 0.06,-0.1 0.04,0.16 0.13,0.32 0.25,0.44 0.01,-0.06 0.01,-0.11 -0.01,-0.17 0.01,0 0.01,0.01 0.01,0.02 0.02,0.02 0.04,0.05 0.05,0.07 0.01,0.01 0,0.02 0.01,0.03 0.01,0.05 0.03,0.1 0.07,0.14 0.02,0.02 0.06,0.04 0.09,0.05 0.08,0.02 0.16,0.03 0.24,0.01 0.04,-0.01 0.08,-0.02 0.12,-0.05 0.04,-0.04 0.06,-0.1 0.07,-0.16 0.02,-0.03 0.05,-0.06 0.07,-0.09 0,0 0,0 0,0 -0.01,0.02 -0.01,0.05 -0.02,0.07 -0,0.03 -0,0.07 0,0.1 0.12,-0.12 0.21,-0.27 0.25,-0.43 0.02,0.04 0.04,0.07 0.06,0.1 0.05,-0.08 0.06,-0.17 0.07,-0.25 0,-0.03 0,-0.06 0,-0.09 -0,-0.03 -0,-0.06 -0.01,-0.09 0.01,0 0.02,0.01 0.03,0 0.05,-0 0.09,-0.02 0.12,-0.05 -0.02,-0.01 -0.04,-0.02 -0.05,-0.04 -0.01,-0.02 -0.02,-0.03 -0.04,-0.04 0.05,-0.02 0.08,-0.07 0.1,-0.11 0.03,-0.08 0.03,-0.17 0.01,-0.25 -0.01,-0.05 -0.03,-0.1 -0.07,-0.13 -0.03,-0.03 -0.06,-0.05 -0.1,-0.04 0.01,-0.05 -0,-0.1 -0.01,-0.15 -0,-0.01 -0.01,-0.02 -0.01,-0.03 -0.01,0.03 -0.03,0.05 -0.05,0.07 -0.01,0.01 -0.03,0.03 -0.04,0.05 0,-0.04 -0.01,-0.07 -0.03,-0.1 -0.04,-0.05 -0.07,-0.11 -0.1,-0.17 -0.03,-0.05 -0.06,-0.11 -0.08,-0.16 -0.01,-0.02 -0.01,-0.03 -0.01,-0.05 -0.05,0.03 -0.08,0.09 -0.09,0.15 -0,0.01 0,0.03 -0,0.04 -0.01,-0.06 -0.05,-0.12 -0.09,-0.17 -0.07,-0.09 -0.15,-0.18 -0.23,-0.26 -0.03,0.03 -0.07,0.07 -0.1,0.1z"/>
    <path class="fil0" d="M0.82 1.49c0.02,-0 0.04,-0 0.07,-0 -0.05,0.01 -0.1,0.01 -0.15,0.02 -0,0.01 -0,0.02 -0,0.03 0,-0 0.01,-0 0.01,-0.01 0.02,-0.01 0.04,-0.01 0.06,0 0.02,-0.01 0.05,-0.02 0.07,-0.02 0.03,-0 0.05,-0.01 0.08,-0.01 0.03,0 0.07,0.01 0.1,0.01 0.01,0 0.02,0.01 0.03,0.01 0.02,-0.01 0.04,-0.02 0.06,-0.01 0,0 0.01,0.01 0.01,0.01 -0,-0.01 0,-0.02 -0,-0.03 -0,-0 -0.01,-0 -0.01,-0.01 0.01,0 0.01,0 0.02,0 0,0.03 0,0.07 -0,0.1 -0,0.02 -0,0.04 -0.01,0.06 -0.02,-0.03 -0.04,-0.07 -0.06,-0.1 -0,0.01 -0,0.02 0,0.03 -0.04,-0 -0.08,-0.01 -0.11,-0.01 -0.01,-0 -0.03,-0 -0.04,-0 -0.04,0.01 -0.09,0.01 -0.13,0.01 0,-0.01 0,-0.02 0,-0.03 -0.02,0.03 -0.04,0.07 -0.06,0.1 -0,-0.04 -0.01,-0.08 -0.01,-0.12 0,-0.01 0,-0.03 0,-0.04 0.01,-0 0.01,-0 0.02,-0 0.02,-0.01 0.05,-0.01 0.07,-0.01z"/>
    <path class="fil0" d="M0.68 1.51c0,-0 0.01,-0 0.01,-0 -0,0.05 0,0.11 0.01,0.16 0.01,0.05 0.01,0.11 0.03,0.16 -0.05,-0.03 -0.09,-0.09 -0.12,-0.15 0,-0.01 0,-0.02 0.01,-0.02 0,-0 0,-0 0,-0 -0,-0.01 -0,-0.02 -0.01,-0.03 0,0 0,0.01 0.01,0.01 0,-0.01 0,-0.03 0.01,-0.04 0.01,-0.02 0.03,-0.02 0.05,-0.03 0,-0.02 0,-0.04 0,-0.06 -0,-0 -0.01,-0 -0.01,-0z"/>
    <path class="fil0" d="M1.21 1.53c0,0 0,0.01 0,0.01 -0,0.01 0,0.02 -0,0.03l0 0c0.01,0.01 0.03,0.01 0.04,0.02 0.01,0.01 0.01,0.02 0.01,0.04l-0 0.01c0,-0 0,-0 0,-0 -0,0.01 -0,0.01 -0,0.02 0,0 0,0 0.01,0 0.01,0 0.01,0.01 0.01,0.02 -0.03,0.06 -0.06,0.11 -0.12,0.15 0.01,-0.03 0.01,-0.06 0.02,-0.09 0.01,-0.07 0.02,-0.14 0.02,-0.21z"/>
    <path class="fil0" d="M0.73 1.98c0.02,0.04 0.03,0.07 0.04,0.11 0.01,0.01 0.01,0.03 0.02,0.04 -0,0.01 -0.01,0.01 -0.02,0.01 -0.01,0 -0.03,-0.01 -0.04,-0.01l0 -0c0,-0 0,-0.01 0.01,-0.01 -0,0 -0,0.01 -0,0.01 0.01,0.01 0.03,0.01 0.04,0.01 0,-0.01 0,-0.01 0,-0.02 -0.01,-0 -0.02,0 -0.03,-0 -0.01,-0 -0.02,-0.01 -0.02,-0.01 -0,-0.02 -0,-0.03 -0,-0.05 -0,-0.03 0,-0.05 0,-0.08z"/>
    <path class="fil0" d="M1.15 2.02c0.01,-0.01 0.01,-0.03 0.02,-0.04 -0,0.02 0,0.04 0,0.07 -0,0.02 -0,0.05 -0,0.07 -0,-0 -0,-0.01 -0,-0.01 -0.01,0 -0.02,0.01 -0.02,0.01 -0.01,0 -0.02,0 -0.03,0 0,0.01 0,0.01 0,0.02 0.01,0 0.03,-0 0.04,-0.01 0,-0.01 0,-0.01 0,-0.02 0,0 0,0 0,0 0,0 -0,0.01 -0,0.01 -0.01,0.01 -0.03,0.01 -0.04,0.01 -0.01,0 -0.01,-0.01 -0.02,-0.01 0.01,-0.04 0.03,-0.07 0.04,-0.11z"/>
    <path class="fil1" d="M0.84 0.13c0.03,-0.04 0.07,-0.07 0.1,-0.1 0.08,0.08 0.16,0.16 0.23,0.26 0.04,0.05 0.07,0.11 0.09,0.17 0,-0.01 -0,-0.03 0,-0.04 0,-0.06 0.04,-0.12 0.09,-0.15 -0,0.02 0,0.04 0.01,0.05 0.02,0.06 0.05,0.11 0.08,0.16 0.03,0.06 0.07,0.11 0.1,0.17 0.02,0.03 0.04,0.07 0.03,0.1 0.01,-0.02 0.03,-0.03 0.04,-0.05 0.02,-0.02 0.03,-0.05 0.05,-0.07 0.01,0.01 0.01,0.02 0.01,0.03 0.01,0.05 0.03,0.1 0.01,0.15 0.04,-0 0.07,0.02 0.1,0.04 0.03,0.04 0.06,0.08 0.07,0.13 0.02,0.08 0.01,0.17 -0.01,0.25 -0.02,0.05 -0.05,0.09 -0.1,0.11 0.02,0.01 0.03,0.03 0.04,0.04 0.01,0.02 0.03,0.03 0.05,0.04 -0.04,0.02 -0.08,0.05 -0.12,0.05 -0.01,0 -0.02,-0 -0.03,-0 0.01,0.03 0.01,0.06 0.01,0.09 0,0.03 -0,0.06 -0,0.09 -0.01,0.09 -0.03,0.18 -0.07,0.25 -0.02,-0.03 -0.04,-0.07 -0.06,-0.1 -0.04,0.16 -0.13,0.32 -0.25,0.43 -0.01,-0.03 -0.01,-0.07 -0,-0.1 0,-0.02 0.01,-0.05 0.02,-0.07 -0,-0 -0,-0 -0,-0 -0.02,0.03 -0.05,0.06 -0.07,0.09 -0.01,0.06 -0.03,0.12 -0.07,0.16 -0.03,0.03 -0.07,0.04 -0.12,0.05 -0.08,0.02 -0.17,0.02 -0.24,-0.01 -0.03,-0.01 -0.06,-0.02 -0.09,-0.05 -0.03,-0.04 -0.06,-0.09 -0.07,-0.14 -0,-0.01 0,-0.02 -0.01,-0.03 -0.02,-0.02 -0.04,-0.05 -0.05,-0.07 -0,-0.01 -0.01,-0.01 -0.01,-0.02 0.02,0.05 0.02,0.11 0.01,0.17 -0.12,-0.12 -0.21,-0.27 -0.25,-0.44 -0.02,0.04 -0.04,0.07 -0.06,0.1 -0.05,-0.08 -0.06,-0.17 -0.07,-0.26 -0,-0.03 -0,-0.06 -0,-0.09 0,-0.03 0,-0.06 0.01,-0.09 -0.03,0.01 -0.06,0 -0.09,-0.01 -0.02,-0.01 -0.04,-0.02 -0.06,-0.03 0.01,-0.01 0.03,-0.02 0.04,-0.03 0.02,-0.02 0.03,-0.04 0.05,-0.06 -0.05,-0.02 -0.08,-0.06 -0.1,-0.11 -0.03,-0.09 -0.03,-0.18 -0.01,-0.27 0.02,-0.05 0.04,-0.11 0.09,-0.14 0.02,-0.01 0.05,-0.02 0.07,-0.02 -0.01,-0.05 0,-0.1 0.01,-0.15 0,-0.01 0.01,-0.02 0.01,-0.03 0.01,0.03 0.03,0.05 0.05,0.07 0.01,0.01 0.03,0.03 0.04,0.05 -0,-0.04 0.01,-0.07 0.03,-0.1 0.04,-0.06 0.08,-0.12 0.11,-0.18 0.03,-0.05 0.05,-0.09 0.07,-0.15 0.01,-0.02 0.01,-0.03 0.01,-0.05 0.04,0.03 0.07,0.07 0.08,0.12 0.01,0.02 0.01,0.05 0.01,0.07 0.01,-0.03 0.02,-0.07 0.04,-0.09 0.05,-0.08 0.11,-0.16 0.18,-0.23zm0.74 1.12c-0,0 -0,0 -0.01,0 0.01,0.01 0.03,0.02 0.04,0.03 0.04,0.01 0.09,-0.01 0.11,-0.05 0,-0 0.01,-0.01 0.01,-0.01 0,-0.01 0,-0.01 0.01,-0.01 0,0.01 0,0.01 0,0.02 -0,0.01 -0,0.02 -0,0.02l-0 0c0,0 0,0 0,0 -0.01,0.02 -0.02,0.04 -0.04,0.05 -0,0 -0.01,0 -0.01,0.01l-0 -0c0,0 0,0 0,0 0.02,0 0.04,-0 0.06,-0.02 0.03,-0.02 0.05,-0.06 0.06,-0.09 0,-0.02 0.01,-0.03 0.01,-0.05l0 0c0,-0.01 0,-0.02 0,-0.02 0.01,-0.02 0,-0.03 0.01,-0.05 0,-0.02 0,-0.04 -0,-0.05 0,-0 0,-0.01 0,-0.01l-0 0c-0,-0.04 -0.01,-0.08 -0.03,-0.12 -0.02,-0.03 -0.05,-0.06 -0.09,-0.07 -0.03,-0 -0.05,0.01 -0.07,0.03l0 0c-0.02,0.02 -0.04,0.04 -0.06,0.06 -0.01,0.01 -0.01,0.01 -0.02,0.02 -0.01,0.01 -0.01,0.02 -0.02,0.02l0 0c-0.01,0.02 -0.03,0.05 -0.04,0.07 -0.01,0.02 -0.01,0.03 -0.02,0.05 -0.01,0.02 -0.01,0.04 -0.02,0.07 0,-0 0.01,-0.01 0.01,-0.01 0.01,-0.02 0.01,-0.03 0.02,-0.05 0.02,-0.04 0.04,-0.08 0.07,-0.12l0 -0c0,-0 0.01,-0.01 0.01,-0.01 0.02,-0.02 0.04,-0.04 0.07,-0.06 0.02,-0.01 0.04,-0.01 0.06,-0.01 0.02,0 0.05,0.02 0.06,0.04 0.02,0.03 0.02,0.06 0.01,0.1 -0,0.01 -0.01,0.03 -0.01,0.04 -0,0 -0.01,0.01 -0.01,0.01 -0,-0 -0,-0.01 -0,-0.01 0,-0.02 0,-0.04 -0,-0.05 -0,-0.02 -0.01,-0.03 -0.01,-0.05 -0.01,-0.02 -0.02,-0.03 -0.04,-0.04 -0.02,-0 -0.04,0 -0.06,0.02 0.03,0 0.05,0.02 0.07,0.04 -0,0 0,0.01 0,0.01 -0.02,-0.01 -0.05,-0.02 -0.07,-0.02 -0.01,-0 -0.03,-0 -0.04,0.01 0,0 0.01,0.01 0.01,0.01 0.02,0.02 0.04,0.04 0.04,0.06 0,0.04 -0.01,0.07 -0.03,0.11 -0.01,0.01 -0.02,0.02 -0.03,0.02 0.01,0 0.01,0.01 0.02,0.01 -0,0 -0,0 -0,0.01 -0,-0 -0.01,-0 -0.01,-0l-0 0zm-0.84 -0.82l0 0c0.01,0.04 0.02,0.08 0.05,0.11 0.03,0.03 0.06,0.04 0.1,0.06 0.01,0.01 0.02,0.01 0.03,0.02 -0,-0.02 -0.01,-0.04 -0.02,-0.05 -0.01,-0.02 -0.03,-0.02 -0.05,-0.03 -0.04,-0.02 -0.07,-0.05 -0.09,-0.08 -0.01,-0.01 -0.01,-0.01 -0.02,-0.02zm0.41 0.01l0 0c-0.03,0.04 -0.06,0.07 -0.1,0.09 -0.02,0.01 -0.03,0.02 -0.05,0.03 -0.01,0.01 -0.02,0.03 -0.02,0.05 0.03,-0.03 0.07,-0.04 0.1,-0.06 0.04,-0.03 0.07,-0.08 0.08,-0.13 -0,0 -0.01,0 -0.01,0.01zm-0.54 0.17l0 0 0 0c-0.02,0 -0.04,0 -0.05,0.01 0.02,0 0.03,0 0.05,0l-0 0c0.07,0.01 0.14,0.03 0.2,0.06 0.01,0 0.01,0.01 0.02,0.01 -0.04,0.01 -0.08,0 -0.13,-0.01 -0.01,-0 -0.03,-0.01 -0.04,-0.01 0.01,0.01 0.03,0.01 0.04,0.02 0.04,0.02 0.08,0.04 0.13,0.05 0.03,0.01 0.05,0.01 0.08,0.01 -0.02,-0.01 -0.05,-0.02 -0.08,-0.03 0.01,-0 0.02,-0 0.03,-0 0.02,-0 0.04,-0.01 0.06,-0.01 -0.01,-0.01 -0.02,-0.02 -0.03,-0.03 -0.03,-0.03 -0.06,-0.06 -0.11,-0.08 -0.06,-0.02 -0.12,-0.01 -0.18,-0zm0.47 0.02l0 0c-0.04,0.02 -0.07,0.06 -0.1,0.08 0.02,0.01 0.04,0.01 0.06,0.01 0.01,0 0.02,0 0.03,0 -0.01,0 -0.01,0.01 -0.02,0.01l0 0c-0.02,0.01 -0.04,0.01 -0.06,0.02 0.02,0 0.04,0 0.06,-0 0.05,-0.01 0.09,-0.03 0.14,-0.05 0.01,-0.01 0.03,-0.01 0.04,-0.02 -0.04,0.01 -0.08,0.02 -0.12,0.02 -0.02,-0 -0.03,0 -0.05,-0.01 0.05,-0.04 0.11,-0.06 0.18,-0.07 0.03,-0.01 0.06,-0.01 0.09,-0.01 -0.01,-0.01 -0.03,-0.01 -0.05,-0.01 -0.01,-0.01 -0.02,-0 -0.03,-0.01 -0.03,-0 -0.07,-0 -0.1,-0 -0.03,0 -0.06,0.01 -0.09,0.03zm-0.67 0.05l0 0c-0.03,0.03 -0.04,0.07 -0.03,0.11 0.01,0.04 0.02,0.08 0.04,0.11 0,0.01 0.01,0.01 0.01,0.02 0,-0.01 0,-0.03 0,-0.04 0.01,-0.04 0.01,-0.08 0.04,-0.1 0.01,-0.01 0.03,-0.01 0.04,-0.02 -0.02,-0.01 -0.04,-0.01 -0.06,-0.01 -0.01,0 -0.03,0.01 -0.04,0.02 0,-0.02 0.01,-0.03 0.02,-0.05 0.01,-0.01 0.02,-0.01 0.02,-0.02 0.01,-0 0.01,-0.01 0.02,-0.01 0.02,-0.01 0.05,-0.02 0.07,-0.03 -0.01,-0.01 -0.02,-0 -0.03,-0.01 -0.04,-0 -0.08,0.01 -0.11,0.03zm0.96 -0.03l0 0c0.03,0.01 0.06,0.02 0.08,0.04 0.01,0.01 0.02,0.02 0.03,0.03 0.01,0.01 0.02,0.03 0.02,0.05 -0.01,-0 -0.02,-0.01 -0.03,-0.02 -0.02,-0.01 -0.05,-0 -0.07,0.01 0.01,0 0.02,0 0.03,0.01 0.02,0.01 0.03,0.03 0.03,0.05 0.01,0.03 0.01,0.07 0.01,0.1 0,-0 0.01,-0.01 0.01,-0.01 0.01,-0.03 0.03,-0.05 0.04,-0.08 0.01,-0.03 0.02,-0.07 0.01,-0.11 -0.01,-0.03 -0.03,-0.05 -0.05,-0.06 -0.03,-0.02 -0.07,-0.02 -0.11,-0.01 -0,0 -0,0 -0.01,0zm-0.79 0.11l0 0c0.02,0 0.04,0.01 0.06,0.02 0.01,0.01 0.02,0.01 0.03,0.02 -0.02,-0 -0.04,-0.01 -0.07,-0.01l-0 -0 -0 0c-0.02,-0 -0.04,0 -0.06,0.01l-0 -0c-0.01,0.01 -0.02,0.01 -0.02,0.02l0 0c-0.02,0.02 -0.03,0.06 -0.03,0.09 -0,0.02 -0,0.04 0.01,0.06 0.01,0.01 0.01,0.03 0.02,0.04l-0 0c0.02,0.03 0.04,0.05 0.06,0.07 -0.01,0 -0.02,0.01 -0.03,0.01 0.02,0.02 0.04,0.04 0.07,0.06 -0.01,0 -0.01,0 -0.02,0.01 -0.03,0 -0.05,0.01 -0.07,0.03l-0 0c-0.02,0.01 -0.03,0.02 -0.04,0.03 0.01,-0 0.02,-0 0.03,-0 0,0 0.01,0 0.01,0 -0,0 -0,0 -0,0 -0.02,0 -0.03,0.02 -0.04,0.03 -0.02,0.02 -0.04,0.05 -0.05,0.07 0,-0 0.01,-0 0.01,-0 0.02,0 0.05,0 0.07,-0 0.03,-0.01 0.05,-0.02 0.07,-0.04 -0.01,-0.03 -0,-0.06 0.01,-0.09 0.01,-0.01 0.01,-0.01 0.01,-0.02 0.01,-0.01 0.02,-0.02 0.03,-0.03 0.01,-0 0.02,-0.01 0.03,-0.01 0.02,-0.01 0.04,-0.01 0.06,-0.01 0.04,0 0.07,0.02 0.1,0.03l0 0c0,0 0,0 0,0 0.01,0.01 0.02,0.02 0.03,0.03 0,-0.02 -0,-0.03 -0,-0.05 0,-0 0.01,0.01 0.01,0.01 0.01,0.04 0.03,0.08 0.06,0.12 -0,-0 -0.01,-0.01 -0.01,-0.01 -0.01,-0.01 -0.01,-0.01 -0.02,-0.02 0,0.01 0,0.02 0.01,0.03 -0,0 -0,0.01 -0,0.01 -0.02,-0.03 -0.05,-0.06 -0.08,-0.09 -0.02,-0.01 -0.04,-0.02 -0.06,-0.03 -0.02,-0.01 -0.04,-0.01 -0.06,-0.01 -0.02,0 -0.04,0.01 -0.05,0.02 -0,0 -0,0.01 -0.01,0.01 -0.01,0.02 -0.02,0.04 -0.01,0.07 0.01,0.03 0.03,0.05 0.05,0.07 0.02,0.01 0.03,0.03 0.05,0.04l-0 0c-0,-0 -0.01,-0 -0.01,-0 -0.01,-0 -0.02,-0.01 -0.02,-0.01 -0.03,-0.01 -0.06,-0.03 -0.08,-0.06 -0.02,-0 -0.04,0 -0.06,0.01l-0 0c-0.02,0.01 -0.03,0.02 -0.04,0.03l-0 -0c-0,0 -0,0 -0,0 -0.01,0.02 -0.03,0.03 -0.04,0.05 0.02,-0.01 0.05,-0.02 0.07,-0.02 0.01,0 0.03,-0.01 0.04,-0 -0.03,0.01 -0.05,0.03 -0.07,0.05l-0 0c-0.01,0.01 -0.02,0.02 -0.03,0.03 -0.01,0.01 -0.02,0.03 -0.01,0.05 0.01,0.02 0.04,0.02 0.05,0.01 0.02,-0.01 0.03,-0.02 0.05,-0.03 0.05,-0.02 0.1,-0.04 0.16,-0.05 0.06,-0.01 0.13,-0.02 0.19,-0.02 0.1,-0 0.2,0 0.3,0.02 0.01,0 0.02,0 0.02,0.01 0.03,0.01 0.06,0.02 0.08,0.03 0.01,0 0.02,0.01 0.02,0.01 0.01,0.01 0.03,0.02 0.04,0.03 0.01,0.01 0.02,0.01 0.03,0.01 0.01,-0 0.03,-0.01 0.03,-0.03 0,-0.01 -0,-0.02 -0.01,-0.03 -0,-0 -0,-0.01 -0,-0.01 -0.01,-0.01 -0.02,-0.02 -0.03,-0.03 -0,-0 -0,-0 -0,-0l-0 -0c-0.02,-0.02 -0.05,-0.04 -0.07,-0.05 0.01,-0 0.03,0 0.04,0 0.02,0 0.05,0.01 0.07,0.02 -0.01,-0.02 -0.03,-0.04 -0.05,-0.06 -0.01,-0.01 -0.03,-0.03 -0.05,-0.03 -0.01,-0.01 -0.03,-0.01 -0.04,-0.01 -0,0 -0.01,0 -0.01,0 -0.03,0.03 -0.07,0.05 -0.12,0.07l0 -0c0.02,-0.01 0.03,-0.03 0.05,-0.05 0.02,-0.02 0.04,-0.04 0.05,-0.07 0.02,-0.04 -0.01,-0.1 -0.05,-0.1 -0.02,-0 -0.05,-0 -0.07,0.01 -0.02,0 -0.04,0.02 -0.06,0.03 -0.03,0.02 -0.06,0.05 -0.08,0.09 0,-0 -0,-0.01 -0,-0.01 0,-0.01 0.01,-0.02 0.01,-0.03 -0.01,0.01 -0.01,0.01 -0.02,0.02 -0,0 -0.01,0.01 -0.01,0.01 0.01,-0.01 0.02,-0.03 0.02,-0.04 0.02,-0.03 0.03,-0.06 0.04,-0.09 0,0 0,0 0,0 -0,0.02 -0,0.03 -0,0.05 0.01,-0.01 0.02,-0.02 0.03,-0.03 0.02,-0.01 0.04,-0.02 0.06,-0.03 0.01,-0 0.01,-0 0.02,-0 0.04,-0.01 0.08,-0.01 0.11,0.01 0.02,0.01 0.03,0.03 0.05,0.05 0,0.01 0,0.01 0.01,0.02l0 0c0.01,0.02 0.01,0.04 0,0.07 0.02,0.02 0.04,0.03 0.06,0.04 0.03,0.01 0.06,0 0.09,0.01 -0.01,-0.03 -0.03,-0.05 -0.05,-0.07 -0.01,-0.01 -0.02,-0.02 -0.04,-0.03 -0,-0 -0,-0 -0,-0 0.01,-0 0.03,-0 0.04,-0 -0.02,-0.03 -0.05,-0.04 -0.08,-0.05l-0 -0c-0.01,-0 -0.02,-0.01 -0.03,-0.01 -0.01,-0 -0.01,-0 -0.02,-0 0,-0 0,-0 0,-0 0,-0 0.01,-0.01 0.01,-0.01 0,-0 0.01,-0 0.01,-0.01l0 0c0.01,-0.01 0.03,-0.02 0.04,-0.04 -0.01,0 -0.02,-0 -0.03,-0.01 0.03,-0.02 0.05,-0.05 0.07,-0.08 0.01,-0.02 0.02,-0.04 0.02,-0.06 0,-0.04 -0.01,-0.08 -0.03,-0.11l0 -0c-0.01,-0.01 -0.01,-0.01 -0.02,-0.02l-0 0c-0.02,-0.01 -0.04,-0.01 -0.06,-0.01l-0 -0 -0 0c-0.02,-0 -0.04,0 -0.06,0.01 -0,-0 -0,-0 -0,-0 0,-0 0,-0.01 0.01,-0.01 0.01,-0 0.02,-0.01 0.03,-0.02l0 -0c0.02,-0.01 0.03,-0.01 0.05,-0.02 -0.01,-0.02 -0.03,-0.03 -0.05,-0.03 -0,0 -0.01,0 -0.01,0 -0.01,0 -0.02,0 -0.03,0.01 -0.01,0 -0.03,0.01 -0.04,0.02 -0.04,0.02 -0.07,0.04 -0.11,0.05 -0.01,0 -0.02,0.01 -0.03,0.01 0.02,0 0.03,0 0.05,-0 -0,0 -0,0 -0,0 -0,0 -0.01,0 -0.01,0.01 -0.02,0 -0.03,0.01 -0.05,0.01 -0.01,-0 -0.02,-0 -0.03,-0 -0.02,-0 -0.05,-0.01 -0.07,-0.02 -0.02,0.01 -0.05,0.01 -0.07,0.02 -0.01,-0 -0.02,-0 -0.03,0 -0.02,-0 -0.03,-0.01 -0.05,-0.01l0 -0c-0,-0 -0.01,-0 -0.01,-0.01 -0,-0 -0,-0 -0,-0 0.02,0 0.03,0 0.05,0 -0.01,-0.01 -0.02,-0.01 -0.03,-0.01 -0.04,-0.01 -0.08,-0.04 -0.12,-0.05l-0 -0 -0 0c-0.02,-0.01 -0.04,-0.02 -0.06,-0.02 -0,-0 -0.01,-0 -0.01,-0 -0.02,-0.01 -0.04,0.01 -0.05,0.03zm-0.42 0.12l0 0c-0.03,0.03 -0.05,0.08 -0.06,0.13 -0,0.01 -0,0.02 -0,0.03 -0,0.03 -0,0.06 -0,0.09 -0,0.01 0,0.01 0,0.02 0,0.01 0,0.01 0,0.02l0 0c0.01,0.05 0.02,0.1 0.06,0.13 0.02,0.02 0.05,0.03 0.07,0.02 -0.01,-0.01 -0.02,-0.01 -0.03,-0.02 -0.01,-0.01 -0.02,-0.02 -0.03,-0.04 0,-0 0,-0 0,-0l-0 -0c-0,-0.01 -0,-0.02 -0,-0.02 -0,-0.01 -0,-0.01 0,-0.02 0,0 0,0.01 0,0.01l0 0c0.01,0.02 0.02,0.03 0.03,0.04l0 -0c0.03,0.03 0.07,0.04 0.1,0.01 0.01,-0.01 0.03,-0.02 0.04,-0.02 -0.01,0 -0.03,0 -0.04,0 -0,-0 -0,-0 -0,-0 0,-0 0,-0 0.01,-0l-0 -0c0,-0 0.01,-0 0.01,-0.01 -0.01,-0 -0.02,-0.01 -0.02,-0.02 -0,-0 -0,-0 -0,-0 -0.02,-0.03 -0.04,-0.07 -0.03,-0.11 0,-0.03 0.02,-0.05 0.04,-0.07 0,-0 0.01,-0 0.01,-0.01 -0,-0 -0.01,-0.01 -0.01,-0.01 -0.02,-0.01 -0.05,-0 -0.07,0 -0.01,0 -0.02,0.01 -0.03,0.02 0,-0.01 0,-0.01 0.01,-0.02l0 -0c0.01,-0.02 0.04,-0.03 0.06,-0.03 -0.02,-0.02 -0.04,-0.02 -0.06,-0.02 -0.02,0 -0.03,0.02 -0.04,0.04l-0 0c-0.01,0.03 -0.02,0.06 -0.01,0.09 -0,0.01 -0,0.01 -0,0.02 -0,-0 -0.01,-0.01 -0.01,-0.01 -0,-0.01 -0.01,-0.03 -0.01,-0.04 -0.01,-0.03 -0.01,-0.06 0.01,-0.09 0.01,-0.02 0.03,-0.03 0.04,-0.04 0.03,-0.01 0.07,-0 0.09,0.01 0.01,0.01 0.02,0.02 0.03,0.03 0,0.01 0.01,0.01 0.02,0.02 0,0 0,0.01 0.01,0.01 0.04,0.05 0.07,0.11 0.09,0.17 0,0 0,0.01 0.01,0.01 -0,-0 -0,-0.01 -0,-0.01 -0.01,-0.05 -0.03,-0.09 -0.04,-0.13 -0.01,-0.01 -0.01,-0.03 -0.02,-0.04l0 -0c-0,-0.01 -0.01,-0.02 -0.02,-0.02 -0.01,-0.01 -0.01,-0.02 -0.02,-0.03l-0 0c-0.02,-0.02 -0.03,-0.04 -0.05,-0.05 -0.02,-0.02 -0.04,-0.04 -0.07,-0.04 -0.03,0 -0.05,0.01 -0.07,0.03zm0.22 0.4l0 0c-0.04,0.03 -0.06,0.07 -0.1,0.1 -0.01,0.01 -0.03,0.02 -0.04,0.02 0.03,0 0.05,0 0.08,-0.01 0.01,-0 0.02,-0.01 0.04,-0.01 -0.03,0.05 -0.04,0.11 -0.05,0.16 -0,0.01 -0,0.02 0,0.02 -0,0.03 -0,0.07 0,0.1 0.01,-0.01 0.01,-0.02 0.01,-0.03 0.02,-0.05 0.03,-0.09 0.06,-0.13 0.01,-0.01 0.02,-0.02 0.02,-0.04 0.02,-0.04 0.04,-0.07 0.06,-0.1 0,-0 0.01,-0.01 0,-0.01 -0.03,-0 -0.06,0 -0.09,0.01 0.01,-0.03 0.02,-0.06 0.04,-0.09 -0.01,0 -0.02,0.01 -0.03,0.02zm1.13 -0.02l0 0c0.02,0.03 0.03,0.06 0.04,0.09 -0.03,-0.01 -0.06,-0.01 -0.09,-0.01 -0,0 -0,0 -0,0 0.02,0.03 0.05,0.07 0.07,0.11 0.01,0.02 0.02,0.03 0.03,0.04 0.01,0.03 0.03,0.05 0.04,0.08 0.01,0.01 0.01,0.03 0.02,0.04l0 -0c0.01,0.01 0.01,0.03 0.02,0.04 0,-0.03 0.01,-0.06 0,-0.1 0,-0.02 -0,-0.05 -0.01,-0.07 0,-0 0,-0.01 -0,-0.01 -0.01,-0.04 -0.02,-0.08 -0.04,-0.11 0.01,0.01 0.02,0.01 0.03,0.01 0.02,0.01 0.05,0.01 0.08,0.01 -0.02,-0.01 -0.03,-0.02 -0.05,-0.03l0 -0c-0.02,-0.02 -0.04,-0.04 -0.06,-0.06 -0.02,-0.02 -0.04,-0.04 -0.07,-0.04zm-0.61 0.22l0 0c-0.02,-0 -0.04,0 -0.07,0 -0.02,0 -0.05,0 -0.07,0.01 -0.01,0 -0.01,0 -0.02,0 -0,0.01 -0,0.03 -0,0.04 -0,0.04 0.01,0.08 0.01,0.12 0.02,-0.03 0.04,-0.07 0.06,-0.1 0,0.01 0,0.02 -0,0.03 0.04,-0.01 0.09,-0.01 0.13,-0.01 0.01,-0 0.03,-0 0.04,0 0.04,0 0.08,0.01 0.11,0.01 -0,-0.01 -0,-0.02 -0,-0.03 0.02,0.03 0.04,0.07 0.06,0.1 0,-0.02 0,-0.04 0.01,-0.06 0,-0.03 0,-0.07 0,-0.1 -0.01,-0 -0.01,-0 -0.02,-0 -0,-0 -0,-0 -0,-0 -0.05,-0.01 -0.09,-0.01 -0.14,-0.01 -0.02,-0 -0.04,-0 -0.05,-0 -0.02,0 -0.04,-0 -0.06,0zm-0.21 0.02l0 0c-0,0 -0,0 -0,0 -0.02,0 -0.04,0.01 -0.06,0.02 -0,0.03 0,0.05 0.01,0.08 -0,0.01 0,0.01 0,0.02 0,0.01 0,0.02 0.01,0.03 -0,0 -0,0 -0,0 -0,-0 -0,-0.01 -0,-0.01l-0 -0c-0.02,-0.03 -0.03,-0.07 -0.04,-0.11 -0.01,0 -0.01,0.01 -0.02,0.01 0.01,0.04 0.02,0.07 0.04,0.11 0,0.01 0.01,0.01 0.01,0.02 0.03,0.06 0.06,0.11 0.12,0.15 -0.02,-0.05 -0.02,-0.11 -0.03,-0.16 -0.01,-0.05 -0.01,-0.11 -0.01,-0.16 -0,0 -0.01,0 -0.01,0zm0.53 -0l0 0 0 0c-0,0 -0,0.01 0,0.01 -0,0.07 -0.01,0.14 -0.02,0.21 -0.01,0.03 -0.01,0.06 -0.02,0.09 0.05,-0.04 0.09,-0.09 0.12,-0.15l0 -0c0.01,-0.01 0.01,-0.02 0.02,-0.03 0.01,-0.03 0.02,-0.06 0.03,-0.09 -0.01,-0 -0.01,-0.01 -0.02,-0.01 -0.01,0.04 -0.02,0.07 -0.04,0.11l-0 -0c-0,0 -0,0.01 -0,0.01 0,0 0,0 0,0 -0,-0 -0,-0 -0.01,-0 -0,-0.01 0,-0.01 0,-0.02 -0,0 0,-0 0,-0l-0.01 -0c0,0 0,0 0.01,0.01 0,-0.01 0,-0.02 0.01,-0.03 0.01,-0.03 0.01,-0.05 0.01,-0.08 -0.03,-0.01 -0.05,-0.01 -0.08,-0.02zm-0.69 0.2l0 0c0,0.01 0.01,0.01 0.01,0.02 0.02,0.04 0.04,0.08 0.04,0.12 -0.02,-0.01 -0.04,-0.02 -0.06,-0.02 0,0 0.01,0.01 0.01,0.01 0.02,0.02 0.04,0.04 0.06,0.07 0.03,0.04 0.06,0.09 0.09,0.13 0,0.01 0.01,0.02 0.02,0.02 0,-0.02 -0,-0.05 0,-0.07 0,-0.01 -0.01,-0.03 -0.01,-0.04 -0.03,-0.06 -0.06,-0.13 -0.1,-0.18 -0.02,-0.02 -0.03,-0.05 -0.05,-0.07zm0.85 0.01l0 0c-0.02,0.03 -0.05,0.06 -0.07,0.09 -0,0 -0.01,0.01 -0.01,0.01 -0.03,0.05 -0.06,0.1 -0.08,0.15 -0,0.01 -0,0.02 -0,0.03 0,0.02 -0,0.04 0,0.06 0.01,-0.01 0.02,-0.03 0.03,-0.05 0.04,-0.06 0.07,-0.11 0.12,-0.16 0.01,-0.01 0.02,-0.02 0.03,-0.03 -0.02,0 -0.04,0.01 -0.06,0.02 -0,-0 -0,-0 -0,-0.01 0,-0.01 0,-0.02 0.01,-0.03 0.01,-0.03 0.02,-0.05 0.03,-0.07 0,-0.01 0.01,-0.02 0.01,-0.03 -0,0 -0.01,0.01 -0.01,0.01zm-0.55 -0l0 0c-0,0.03 -0,0.06 0,0.08 0,0.04 0.01,0.08 0.03,0.12 0.01,0.03 0.03,0.07 0.06,0.09 0.02,0.02 0.06,0.02 0.08,0 0.03,-0.02 0.05,-0.05 0.06,-0.09 0.01,-0.04 0.02,-0.08 0.03,-0.12 0,-0.03 0,-0.05 0,-0.08 -0.02,0.01 -0.04,0.02 -0.06,0.03 -0.03,0.02 -0.05,0.04 -0.07,0.07 -0.02,-0.03 -0.04,-0.05 -0.07,-0.07 -0.02,-0.01 -0.04,-0.03 -0.06,-0.03zm-0.09 0.25l0 0c0,0.03 -0,0.05 -0,0.08 0,0.02 0,0.03 0,0.05l0 0.01 0 0c-0,0.01 -0,0.01 0,0.02l-0 0c0.01,0 0.03,0.01 0.04,0.01 0.01,0 0.01,-0.01 0.02,-0.01 -0,-0.01 -0.01,-0.03 -0.02,-0.04 -0.01,-0.04 -0.03,-0.07 -0.04,-0.11zm0.42 0.04l0 0c-0.01,0.04 -0.03,0.07 -0.04,0.11 0,0.01 0.01,0.01 0.02,0.01 0.01,0 0.03,-0.01 0.04,-0.01 0,-0 0,-0.01 0,-0.01 0,-0 0,-0 0,-0.01 0,-0.02 0,-0.05 0,-0.07 0,-0.02 -0,-0.04 -0,-0.07 -0.01,0.01 -0.01,0.03 -0.02,0.04zm-0.31 0.07l0 0c0,0.01 0.01,0.03 0.01,0.04 0,0.01 0.01,0.02 0.01,0.03 0.03,0.01 0.06,0.02 0.09,0.02 0.03,-0 0.06,-0.01 0.09,-0.02 0,-0.01 0,-0.01 0,-0.02 0,-0 0,-0.01 0,-0.01 0,-0.01 0.01,-0.03 0.01,-0.04 -0.01,0.01 -0.03,0.03 -0.04,0.04 -0,-0 -0,-0.01 -0,-0.01 -0.05,0 -0.09,0 -0.14,0 -0,0 -0,0.01 -0,0.01 -0.01,-0.01 -0.03,-0.03 -0.04,-0.04zm-0.14 0.07l0 0 -0 0c-0,0.01 -0,0.02 0,0.03 0.01,0.03 0.02,0.06 0.03,0.08 0.01,0.02 0.02,0.04 0.04,0.05 0.02,0.01 0.05,0.02 0.08,0.03 0.04,0.01 0.08,0.01 0.13,0.01 0.05,-0 0.1,-0.01 0.14,-0.04 0.02,-0.01 0.03,-0.03 0.04,-0.05 0.01,-0.03 0.03,-0.05 0.03,-0.08 0,-0.01 0,-0.02 0,-0.03 -0,-0 -0,-0.01 -0,-0.01 -0.01,0.01 -0.02,0.01 -0.04,0.02 -0.02,0.01 -0.04,0.01 -0.06,0.01 -0.05,0.01 -0.1,0.02 -0.15,0.03 -0.01,0 -0.01,-0 -0.02,-0 -0.05,-0.01 -0.09,-0.02 -0.14,-0.03 -0.02,-0 -0.04,-0.01 -0.06,-0.02 -0.01,-0 -0.02,-0.01 -0.03,-0.02z"/>
    <path class="fil2" d="M0.74 0.44c0.01,0 0.01,0.01 0.02,0.02 0.03,0.03 0.06,0.06 0.09,0.08 0.02,0.01 0.04,0.02 0.05,0.03 0.01,0.01 0.02,0.03 0.02,0.05 -0.01,-0.01 -0.02,-0.02 -0.03,-0.02 -0.03,-0.02 -0.07,-0.03 -0.1,-0.06 -0.03,-0.03 -0.04,-0.07 -0.05,-0.11z"/>
    <path class="fil3" d="M1.15 0.44c0,-0 0.01,-0.01 0.01,-0.01 -0.01,0.05 -0.04,0.1 -0.08,0.13 -0.03,0.02 -0.07,0.03 -0.1,0.06 0,-0.02 0.01,-0.04 0.02,-0.05 0.01,-0.01 0.03,-0.02 0.05,-0.03 0.04,-0.02 0.07,-0.06 0.1,-0.09z"/>
    <path class="fil4" d="M0.6 0.61c0.06,-0.01 0.12,-0.01 0.18,0 0.04,0.01 0.08,0.05 0.11,0.08 0.01,0.01 0.02,0.02 0.03,0.03 -0.02,0.01 -0.04,0.01 -0.06,0.01 -0.01,0 -0.02,0 -0.03,0 0.03,0.01 0.05,0.02 0.08,0.03 -0.03,0 -0.05,-0 -0.08,-0.01 -0.04,-0.01 -0.08,-0.03 -0.13,-0.05 -0.01,-0.01 -0.03,-0.01 -0.04,-0.02 0.01,0 0.03,0.01 0.04,0.01 0.04,0.01 0.08,0.01 0.13,0.01 -0.01,-0.01 -0.01,-0.01 -0.02,-0.01 -0.06,-0.04 -0.13,-0.06 -0.2,-0.06l0 -0c-0.02,-0 -0.03,-0 -0.05,-0 0.02,-0.01 0.03,-0.01 0.05,-0.01l-0 -0z"/>
    <path class="fil4" d="M1.07 0.63c0.03,-0.02 0.06,-0.02 0.09,-0.03 0.03,-0 0.07,-0 0.1,0 0.01,0 0.02,0 0.03,0.01 0.02,-0 0.03,0 0.05,0.01 -0.03,0 -0.06,0 -0.09,0.01 -0.06,0.01 -0.12,0.04 -0.18,0.07 0.02,0.01 0.03,0.01 0.05,0.01 0.04,0 0.08,-0.01 0.12,-0.02 -0.01,0.01 -0.03,0.01 -0.04,0.02 -0.04,0.02 -0.09,0.04 -0.14,0.05 -0.02,0 -0.04,0.01 -0.06,0 0.02,-0.01 0.04,-0.02 0.06,-0.02l-0 -0c0.01,-0 0.01,-0.01 0.02,-0.01 -0.01,-0 -0.02,-0 -0.03,-0 -0.02,-0 -0.04,-0.01 -0.06,-0.01 0.03,-0.03 0.06,-0.06 0.1,-0.08z"/>
    <path class="fil4" d="M0.51 1.71c0.02,0.02 0.04,0.04 0.05,0.07 0.04,0.06 0.07,0.12 0.1,0.18 0.01,0.01 0.01,0.03 0.01,0.04 -0,0.02 0,0.05 -0,0.07 -0.01,-0.01 -0.01,-0.01 -0.02,-0.02 -0.03,-0.05 -0.06,-0.09 -0.09,-0.13 -0.02,-0.02 -0.04,-0.05 -0.06,-0.07 -0,-0 -0.01,-0.01 -0.01,-0.01 0.02,-0 0.04,0.01 0.06,0.02 -0,-0.04 -0.02,-0.08 -0.04,-0.12 -0,-0.01 -0.01,-0.01 -0.01,-0.02z"/>
    <path class="fil4" d="M1.33 1.85c0,0 0,0 0,0.01 0.02,-0.01 0.04,-0.02 0.06,-0.02 -0.01,0.01 -0.02,0.02 -0.03,0.03 -0.05,0.05 -0.08,0.1 -0.12,0.16 -0.01,0.02 -0.02,0.03 -0.03,0.05 -0,-0.02 0,-0.04 0,-0.06 -0,-0.01 -0,-0.02 0,-0.03 0.02,-0.05 0.05,-0.1 0.08,-0.15 0,-0 0.01,-0.01 0.01,-0.01 0.02,-0.03 0.04,-0.06 0.07,-0.09 0,-0.01 0.01,-0.01 0.01,-0.01 -0,0.01 -0.01,0.02 -0.01,0.03 -0.01,0.02 -0.02,0.05 -0.03,0.07 -0,0.01 -0,0.02 -0.01,0.03z"/>
    <path class="fil5" d="M0.56 1.55c0.01,-0 0.01,-0.01 0.02,-0.01 0.01,0.04 0.02,0.07 0.04,0.11l0 0c0,0 0,0.01 0,0.01 -0.01,0 -0.01,0.01 -0.01,0.02 -0,-0.01 -0.01,-0.01 -0.01,-0.02 -0.02,-0.03 -0.03,-0.07 -0.04,-0.11z"/>
    <path class="fil6" d="M0.45 0.71c-0.01,0.01 -0.02,0.02 -0.02,0.02 -0.01,0.01 -0.02,0.03 -0.02,0.05 0.01,-0.01 0.02,-0.02 0.04,-0.02 0.02,-0 0.04,0 0.06,0.01 -0.01,0 -0.03,0.01 -0.04,0.02 -0.03,0.03 -0.03,0.07 -0.04,0.1 0,0.01 -0,0.03 -0,0.04 -0.01,-0 -0.01,-0.01 -0.01,-0.02 -0.02,-0.03 -0.04,-0.07 -0.04,-0.11 -0.01,-0.04 -0,-0.09 0.03,-0.11 0.03,-0.02 0.07,-0.03 0.11,-0.03 0.01,0 0.02,-0 0.03,0.01 -0.02,0.01 -0.05,0.02 -0.07,0.03 -0.01,0 -0.01,0.01 -0.02,0.01z"/>
    <path class="fil6" d="M1.47 0.67c0.03,0.01 0.05,0.03 0.05,0.06 0.01,0.03 0,0.07 -0.01,0.11 -0.01,0.03 -0.02,0.05 -0.04,0.08 -0,0 -0.01,0.01 -0.01,0.01 -0,-0.03 -0,-0.07 -0.01,-0.1 -0.01,-0.02 -0.02,-0.04 -0.03,-0.05 -0.01,-0.01 -0.02,-0.01 -0.03,-0.01 0.02,-0.01 0.05,-0.01 0.07,-0.01 0.01,0 0.02,0.01 0.03,0.02 -0,-0.02 -0.01,-0.03 -0.02,-0.05 -0.01,-0.01 -0.02,-0.02 -0.03,-0.03 -0.03,-0.02 -0.05,-0.03 -0.08,-0.04 0,-0 0,-0 0.01,-0 0.04,-0.01 0.07,-0 0.11,0.01z"/>
    <path class="fil7" d="M0.56 0.77c0.01,-0.02 0.03,-0.03 0.05,-0.03 0,0 0.01,0 0.01,0 -0,0 -0.01,0.01 -0.01,0.02l-0 0c0.01,0.01 0.01,0.01 0.02,0.02 0.02,0.02 0.05,0.04 0.07,0.06 -0.03,-0.01 -0.06,-0.02 -0.09,-0.02 -0.01,-0 -0.01,-0 -0.02,-0.01 0.02,-0 0.04,0 0.07,0.01 -0.01,-0.01 -0.02,-0.01 -0.03,-0.02 -0.02,-0.01 -0.04,-0.02 -0.06,-0.02z"/>
    <path class="fil8" d="M0.5 1.18c0.02,-0.01 0.05,-0.02 0.07,-0.03 -0.02,0.01 -0.04,0.02 -0.06,0.04 0.02,0 0.04,-0 0.06,-0 -0.01,0.03 -0.02,0.06 -0.01,0.09 -0.02,0.02 -0.05,0.03 -0.07,0.04 -0.02,0 -0.05,0.01 -0.07,0 -0,0 -0.01,0 -0.01,0 0.01,-0.03 0.03,-0.05 0.05,-0.07 0.01,-0.01 0.02,-0.02 0.04,-0.03 0,-0 0,-0 0,-0 -0,-0 -0.01,-0 -0.01,-0 -0.01,0 -0.02,0 -0.03,0 0.01,-0.01 0.02,-0.03 0.04,-0.03l0 -0z"/>
    <path class="fil7" d="M1.28 0.74c0.02,-0.01 0.04,0.01 0.05,0.03 -0.02,0 -0.04,0.01 -0.05,0.02l-0 0c-0.01,0 -0.02,0.01 -0.03,0.02 -0,0 -0,0.01 -0.01,0.01 0,0 0,0 0,0 0.02,-0.01 0.04,-0.01 0.06,-0.01 -0.01,0.01 -0.02,0.01 -0.03,0.01 -0.03,0.01 -0.05,0.02 -0.08,0.02 0.01,-0.01 0.01,-0.01 0.02,-0.01 0.03,-0.02 0.05,-0.04 0.07,-0.06l-0 -0c-0,-0 -0,-0 -0,-0.01 -0,-0 -0.01,-0.01 -0.01,-0.01 0,-0 0.01,-0 0.01,-0z"/>
    <path class="fil9" d="M0.87 0.85c0.02,-0 0.05,-0.01 0.07,-0.02 0.02,0.01 0.05,0.01 0.07,0.02 -0.02,0.01 -0.05,0 -0.07,-0 -0.02,0 -0.05,0.01 -0.07,0z"/>
    <path class="fil10" d="M1.62 0.89c0.02,-0.02 0.04,-0.04 0.07,-0.03 0.04,0 0.07,0.04 0.09,0.07 0.02,0.04 0.03,0.08 0.03,0.12l0 -0c-0,0 -0,0.01 -0,0.01 0,0.02 0,0.04 0,0.05 -0,0.02 -0,0.03 -0.01,0.05 -0.02,0.03 -0.04,0.07 -0.06,0.1 -0.01,0 -0.01,0.01 -0.02,0.01 0,-0.01 0,-0.02 0,-0.02 0,-0.01 0,-0.01 0,-0.02 0,-0.01 0,-0.02 0,-0.03 -0.01,0.02 -0.02,0.04 -0.04,0.05 -0.01,0.01 -0.02,0.01 -0.03,0.01 -0.01,0 -0.03,-0 -0.04,-0.01 0,-0 0.01,-0.01 0.01,-0.01 0,-0 0,-0.01 0,-0.01 -0,-0 -0.01,-0 -0.01,-0.01 0.02,-0.03 0.01,-0.06 0.02,-0.09 0.01,-0.01 0.01,-0.03 0.02,-0.04 0,0 0,0.01 0,0.01 0,0 0,0 0,0 0,-0.01 0,-0.01 0.01,-0.02 0.01,-0.01 0.02,-0.01 0.03,-0.01 0.01,0.02 0.01,0.03 0.01,0.05 0,0 0,0.01 0,0.01 0,-0 0.01,-0.01 0.01,-0.01 0,-0.01 0.01,-0.03 0.01,-0.04 0.01,-0.03 0.01,-0.07 -0.01,-0.1 -0.01,-0.02 -0.03,-0.04 -0.06,-0.04 -0.02,-0 -0.04,0 -0.06,0.01 -0.03,0.01 -0.05,0.03 -0.07,0.06 -0.01,-0.01 -0.01,-0.02 -0.02,-0.03 0,-0.01 0.01,-0.01 0.02,-0.02 0.02,-0.02 0.04,-0.04 0.06,-0.06z"/>
    <path class="fil10" d="M0.7 1.13c0.01,-0 0.02,-0 0.02,-0 0.03,0.01 0.05,0.02 0.08,0.03 0,0 0,0.01 0,0.01 -0.03,-0.02 -0.07,-0.03 -0.1,-0.03z"/>
    <path class="fil11" d="M0.33 0.94l0 -0c0.01,0.01 0.01,0.02 0.02,0.03 -0,0.01 -0.01,0.01 -0.01,0.02 -0,0.01 -0.01,0.01 -0.01,0.02 -0.01,-0.01 -0.01,-0.01 -0.02,-0.02 -0.01,-0.01 -0.02,-0.02 -0.03,-0.03 -0.03,-0.02 -0.06,-0.02 -0.09,-0.01 -0.02,0.01 -0.04,0.02 -0.04,0.04 -0.01,0.03 -0.01,0.06 -0.01,0.09 0,0.01 0.01,0.03 0.01,0.04 0,0.01 0,0.02 0.01,0.03 0.01,-0.02 0.02,-0.05 0.05,-0.06 -0.01,0.04 -0.01,0.08 0.01,0.11 0,0.01 -0,0.02 0,0.02 -0,0 -0,0 -0.01,0.01 0,0 0,0 0,0 -0.01,-0 -0.02,-0 -0.02,0 -0.02,-0.01 -0.02,-0.03 -0.03,-0.05 0,0.01 0,0.02 0,0.03 -0,0.01 -0,0.02 -0,0.03 -0,-0 -0.01,-0 -0.01,-0 -0.02,-0.03 -0.04,-0.06 -0.05,-0.09l-0 0c-0,-0.01 -0,-0.01 -0,-0.02 -0,-0.03 -0,-0.06 0,-0.09 -0,-0.01 0,-0.02 0,-0.03 0.01,-0.05 0.03,-0.09 0.06,-0.13 0.02,-0.02 0.04,-0.03 0.07,-0.03 0.03,0 0.05,0.02 0.07,0.04 0.02,0.02 0.04,0.03 0.05,0.05z"/>
    <path class="fil12" d="M0.53 0.88c0.03,-0.02 0.07,-0.02 0.1,-0.01 0.05,0.01 0.1,0.05 0.14,0.08 0.01,0.01 0.01,0.01 0.02,0.02 0.01,0.01 0.03,0.03 0.04,0.03 0.01,-0.01 0.02,-0.02 0.02,-0.03 0,-0.01 -0,-0.02 -0,-0.04 -0,-0.01 -0.01,-0.02 -0.01,-0.04 0.02,0.01 0.04,0.03 0.05,0.05 0.01,0.03 -0,0.06 -0.02,0.08 -0,0 -0,0 -0.01,0.01 -0.01,0 -0.01,0.01 -0.02,0.01 0.01,0.01 0.01,0.02 0.02,0.03 0,0 0,0.01 0,0.01 -0,-0 -0.01,-0 -0.01,-0 -0.02,-0.01 -0.04,-0.02 -0.07,-0.02 -0.06,-0 -0.12,0.01 -0.17,0.03 -0.01,0 -0.01,0.01 -0.02,0.01 0.01,-0.01 0.01,-0.02 0.02,-0.03 0,-0 0.02,-0.01 0.01,-0.02 -0.03,-0.02 -0.04,-0.05 -0.04,-0.09 -0,-0.02 0,-0.04 0.01,-0.06 -0.01,0 -0.03,-0 -0.04,0.01 -0.01,0.01 -0.01,0.02 -0.02,0.03 -0,0.01 -0,0.02 -0,0.02 -0,-0 -0,-0 -0,-0 -0,-0 -0.01,-0.01 -0.01,-0.01 -0,-0 -0,-0 -0,-0.01 -0,-0.01 -0.01,-0.03 -0,-0.04 0,-0.01 0.01,-0.02 0.02,-0.02zm0.08 0.03l0 0c-0.01,0.03 -0.01,0.05 -0,0.08 0.01,0.02 0.02,0.04 0.04,0.05 0.02,-0.01 0.05,-0.01 0.07,-0.01 0.02,-0 0.04,-0.01 0.06,-0 -0.01,-0.01 -0.02,-0.02 -0.03,-0.03 -0.02,-0.02 -0.04,-0.03 -0.06,-0.05 -0.03,-0.02 -0.05,-0.04 -0.09,-0.04z"/>
    <path class="fil12" d="M1.18 0.9c0.04,-0.03 0.09,-0.05 0.14,-0.04 0.02,0.01 0.04,0.01 0.05,0.03 0.01,0.02 0,0.03 -0,0.05 -0,0 -0,0 -0,0 -0,0.01 -0.01,0.01 -0.01,0.01 -0,-0.01 -0,-0.02 -0,-0.03 -0,-0.01 -0.01,-0.02 -0.02,-0.03 -0.01,-0.01 -0.02,-0.01 -0.04,-0.01 0.01,0.02 0.01,0.03 0.01,0.05 0,0.03 -0.01,0.06 -0.03,0.08 -0.01,0.01 -0.02,0.01 -0.02,0.02 0.01,0.01 0.02,0.02 0.03,0.03 0,0 0,0 0,0.01 -0.01,-0 -0.01,-0.01 -0.02,-0.01 -0.05,-0.02 -0.11,-0.03 -0.16,-0.03 -0.03,0 -0.05,0.01 -0.07,0.02 -0,0 -0.01,0 -0.01,0 0,-0 0,-0.01 0,-0.01 0,-0.01 0.01,-0.02 0.02,-0.03 -0.01,-0 -0.02,-0.01 -0.02,-0.01 -0,-0 -0,-0 -0,-0 -0.02,-0.02 -0.03,-0.04 -0.02,-0.07 0.01,-0.02 0.02,-0.04 0.04,-0.06 0,-0 0,-0 0.01,-0 -0,0.01 -0.01,0.02 -0.01,0.04 -0,0.01 -0.01,0.03 -0,0.04 0,0.01 0.01,0.02 0.02,0.03 0.02,-0.01 0.03,-0.02 0.04,-0.03 0.01,-0 0.01,-0.01 0.02,-0.02 0.02,-0.01 0.03,-0.03 0.05,-0.04 0,-0 0.01,-0.01 0.01,-0.01zm0.06 0.01l0 0c-0.05,0.02 -0.09,0.06 -0.14,0.1 -0,0 -0,0.01 -0,0.01 0.03,-0 0.05,-0 0.08,0 0.02,0 0.04,0.01 0.05,0.01 0.02,-0.01 0.03,-0.03 0.04,-0.05 0.01,-0.03 0.01,-0.06 -0,-0.09 -0.01,0 -0.02,0.01 -0.03,0.01z"/>
    <path class="fil13" d="M0.8 0.87c0.01,0 0.03,0.01 0.03,0.02 0.01,0.01 0.01,0.02 0.01,0.04 0,0.01 0.01,0.02 0,0.04 -0,0.01 -0.01,0.02 -0.02,0.03 -0.02,-0.01 -0.03,-0.02 -0.04,-0.03 -0.01,-0 -0.01,-0.01 -0.02,-0.02 0.02,0 0.03,0.01 0.05,0.01 0.01,-0 0.01,-0.01 0.01,-0.02 -0,-0.02 -0.01,-0.05 -0.02,-0.07z"/>
    <path class="fil14" d="M1.05 0.9c0.01,-0.01 0.02,-0.02 0.04,-0.03 -0.01,0.02 -0.02,0.04 -0.03,0.07 -0,0.01 -0,0.02 0.01,0.02 0.02,0 0.03,-0.01 0.05,-0.01 -0.01,0.01 -0.01,0.01 -0.02,0.02 -0.01,0.01 -0.03,0.02 -0.04,0.03 -0.01,-0.01 -0.01,-0.02 -0.02,-0.03 -0,-0.01 -0,-0.03 0,-0.04 0,-0.01 0.01,-0.02 0.01,-0.04 -0,0 -0,0 -0.01,0z"/>
    <path class="fil15" d="M1.16 0.91c0.01,-0.01 0.01,-0.01 0.02,-0.02l-0 0c-0,0 -0.01,0.01 -0.01,0.01l-0.01 0z"/>
    <path class="fil7" d="M1.3 0.9c0.01,0 0.03,-0 0.04,0.01 0.01,0.01 0.01,0.02 0.02,0.03 0,0.01 0,0.02 0,0.03 0,-0 0.01,-0.01 0.01,-0.01 -0,0.02 -0.01,0.04 -0.03,0.06 -0,-0.01 -0.01,-0.02 -0.01,-0.04 -0,-0 -0,-0.01 -0.01,-0.01 -0,-0 -0,-0 -0.01,-0l-0 -0c-0,-0.02 -0.01,-0.04 -0.01,-0.05z"/>
    <path class="fil16" d="M0.62 0.9c0.03,0 0.06,0.02 0.09,0.04 0.02,0.01 0.04,0.03 0.06,0.05 0.01,0.01 0.02,0.02 0.03,0.03 -0.02,-0 -0.04,0 -0.06,0 -0.02,0 -0.05,0.01 -0.07,0.01 -0.02,-0.01 -0.04,-0.03 -0.04,-0.05 -0.01,-0.03 -0,-0.05 0,-0.08z"/>
    <path class="fil16" d="M1.25 0.91c0.01,-0 0.02,-0 0.03,-0.01 0.01,0.03 0.02,0.06 0,0.09 -0.01,0.02 -0.02,0.03 -0.04,0.05 -0.02,-0 -0.04,-0.01 -0.05,-0.01 -0.03,-0.01 -0.05,-0 -0.08,-0 0,-0 0,-0.01 0,-0.01 0.04,-0.04 0.08,-0.08 0.14,-0.1z"/>
    <path class="fil17" d="M0.95 0.94c0,0 0,0 0,0 0,0.03 0.01,0.06 0.03,0.08 0.01,0.01 0.02,0.01 0.03,0.02 -0.03,0.01 -0.04,0.04 -0.06,0.07 -0,0 -0,0 -0,0 -0.01,-0.03 -0.03,-0.06 -0.06,-0.07 0.04,-0.01 0.05,-0.06 0.06,-0.09z"/>
    <path class="fil18" d="M0.79 1.4c0.05,-0.02 0.11,-0.02 0.16,-0.02 0.05,-0 0.1,0.01 0.15,0.02 -0.04,0 -0.08,-0 -0.11,0.01 -0,0 -0.01,0 -0.01,0.01 0.02,0 0.05,-0 0.07,0 0.06,0 0.12,0.01 0.18,0.03 0.03,0.01 0.06,0.02 0.09,0.03 0.03,0.01 0.06,0.03 0.08,0.05 0.01,-0 0.01,-0 0.02,-0.01 0,-0.01 0,-0.02 0,-0.03 0,0 0,0.01 0,0.01 0.01,0.01 0.01,0.02 0.01,0.03 -0,0.01 -0.02,0.03 -0.03,0.03 -0.01,0 -0.02,0 -0.03,-0.01 -0.01,-0.01 -0.03,-0.02 -0.04,-0.03 -0.01,-0 -0.02,-0.01 -0.02,-0.01 -0.03,-0.01 -0.05,-0.02 -0.08,-0.03 -0.01,-0 -0.02,-0 -0.02,-0.01 -0.1,-0.02 -0.2,-0.03 -0.3,-0.02 -0.07,0 -0.13,0.01 -0.19,0.02 -0.05,0.01 -0.11,0.02 -0.16,0.05 -0.02,0.01 -0.04,0.02 -0.05,0.03 -0.02,0 -0.04,0 -0.05,-0.01 -0.01,-0.02 0,-0.04 0.01,-0.05 0,0.01 -0,0.02 0,0.03 0,0.01 0.01,0.01 0.02,0.01 0.03,-0.02 0.07,-0.04 0.11,-0.05 0.06,-0.02 0.13,-0.03 0.19,-0.04 0.04,-0.01 0.09,-0 0.13,-0.01 -0.01,-0.01 -0.02,-0.01 -0.04,-0.01 -0.03,-0.01 -0.06,-0 -0.09,-0z"/>
    <path class="fil19" d="M0.34 0.98c0,-0.01 0.01,-0.01 0.01,-0.02 0.01,0.01 0.01,0.02 0.02,0.02l-0 0c0.01,0.01 0.02,0.03 0.02,0.04 0.02,0.04 0.03,0.09 0.04,0.13 0,0 0,0.01 0,0.01 -0,-0 -0.01,-0 -0.01,-0.01 -0.02,-0.06 -0.05,-0.11 -0.09,-0.17 -0,-0 -0.01,-0.01 -0.01,-0.01 0,-0.01 0.01,-0.01 0.01,-0.02z"/>
    <path class="fil20" d="M1.53 0.99c0,-0.01 0.01,-0.02 0.02,-0.02 0,0.01 0.01,0.02 0.02,0.03 -0,0 -0.01,0.01 -0.01,0.01l-0 0c-0.03,0.04 -0.05,0.08 -0.07,0.12 -0.01,0.02 -0.01,0.03 -0.02,0.05 -0,0 -0,0.01 -0.01,0.01 0,-0.02 0.01,-0.04 0.02,-0.07 0,-0.02 0.01,-0.03 0.02,-0.05 0.01,-0.03 0.02,-0.05 0.04,-0.07l-0 -0z"/>
    <path class="fil21" d="M0.49 1.44c0.02,-0.02 0.04,-0.04 0.07,-0.05l0 0c0.01,-0.01 0.01,-0.03 0,-0.04 0,0 0.01,0 0.01,0.01 0.03,0.02 0.07,0.03 0.1,0.04 0.02,0.01 0.05,0.01 0.07,0.01 -0.01,-0.01 -0.03,-0.01 -0.04,-0.02 -0.02,-0.01 -0.03,-0.03 -0.05,-0.04 -0.02,-0.02 -0.04,-0.04 -0.05,-0.07 -0.01,-0.02 -0,-0.05 0.01,-0.07 0,-0 0,-0.01 0.01,-0.01 0.01,-0.02 0.03,-0.02 0.05,-0.02 0.02,-0 0.04,0 0.06,0.01 0.02,0 0.04,0.02 0.06,0.03 0.03,0.02 0.06,0.05 0.08,0.09 0,-0 0,-0.01 0,-0.01 0,-0 0,-0.01 0,-0.01 0,-0 0.01,-0 0.01,-0 0,0 0.01,0.01 0.01,0.01 -0.02,-0.04 -0.04,-0.08 -0.06,-0.12 -0,-0 -0,-0.01 -0.01,-0.01 -0,0.01 -0,0.02 -0,0.03 -0.01,-0.01 -0.02,-0.01 -0.03,-0.01 -0,-0 -0,-0 -0,-0l-0 -0c-0,-0 -0,-0.01 -0,-0.01 -0.03,-0.01 -0.05,-0.02 -0.08,-0.03 -0.01,-0 -0.02,-0 -0.02,0 -0.02,0 -0.04,0 -0.06,0.01 -0.01,0 -0.02,0.01 -0.03,0.01 -0.01,0.01 -0.02,0.02 -0.03,0.03 -0,0.01 -0.01,0.01 -0.01,0.02 -0.02,0 -0.04,0.01 -0.06,0 0.02,-0.02 0.04,-0.03 0.06,-0.04 0.01,-0 0.01,-0 0.02,-0.01 -0.02,-0.02 -0.05,-0.03 -0.07,-0.06 0.01,0 0.02,-0 0.03,-0.01 -0.02,-0.02 -0.05,-0.04 -0.06,-0.07l0 -0c-0.01,-0.01 -0.01,-0.02 -0.02,-0.04 -0.01,-0.02 -0.01,-0.04 -0.01,-0.06 0,-0.03 0.01,-0.06 0.03,-0.09l-0 -0c0.01,-0.01 0.01,-0.01 0.02,-0.02l0 0c0.02,-0.01 0.04,-0.01 0.06,-0.01l0 -0 0 0c0.01,0 0.01,0.01 0.02,0.01 0.03,0.01 0.06,0.02 0.09,0.02 -0.02,-0.02 -0.05,-0.04 -0.07,-0.06 -0.01,-0.01 -0.01,-0.01 -0.02,-0.02l0 -0c0,-0.01 0.01,-0.01 0.01,-0.02 0.02,0 0.04,0.01 0.06,0.02l0 -0 0 0c0.04,0.02 0.08,0.04 0.12,0.05 0.01,0 0.02,0.01 0.03,0.01 -0.02,0 -0.03,0 -0.05,-0 0,0 0,0 0,0 0,0 0.01,0 0.01,0.01l-0 0c0.02,0 0.03,0.01 0.05,0.01 0.01,-0 0.02,-0 0.03,-0 0.02,0.01 0.05,0 0.07,-0 0.02,0 0.05,0.01 0.07,0 0.01,-0 0.02,-0 0.03,0 0.02,-0 0.03,-0.01 0.05,-0.01 0,-0 0.01,-0 0.01,-0.01 0,-0 0,-0 0,-0 -0.02,0 -0.03,0 -0.05,0 0.01,-0.01 0.02,-0.01 0.03,-0.01 0.04,-0.01 0.08,-0.04 0.11,-0.05 0.01,-0.01 0.02,-0.01 0.04,-0.02 0.01,-0 0.02,-0.01 0.03,-0.01 0,0 0.01,0.01 0.01,0.01 0,0 0,0 0,0.01l0 0c-0.02,0.02 -0.05,0.04 -0.07,0.06 -0.01,0 -0.01,0.01 -0.02,0.01 0.03,-0.01 0.05,-0.01 0.08,-0.02 0.01,-0 0.02,-0 0.03,-0.01l0 -0 0 0c0.02,-0 0.04,0 0.06,0.01l0 -0c0.01,0.01 0.02,0.01 0.02,0.02l-0 0c0.02,0.03 0.03,0.07 0.03,0.11 0,0.02 -0.01,0.04 -0.02,0.06 -0.02,0.03 -0.04,0.06 -0.07,0.08 0.01,0 0.02,0.01 0.03,0.01 -0.01,0.01 -0.03,0.03 -0.04,0.04l-0 -0c-0,-0 -0.01,0 -0.01,0.01 -0,0 -0.01,0.01 -0.01,0.01 -0,0 -0,0 -0,0 0.01,0 0.01,0 0.02,0 0.02,0.01 0.05,0.02 0.06,0.04 -0.02,0 -0.04,-0 -0.06,-0 -0.01,-0.02 -0.03,-0.04 -0.05,-0.05 -0.03,-0.02 -0.07,-0.02 -0.11,-0.01 -0.01,0 -0.01,0 -0.02,0 -0.01,-0 -0.02,0.01 -0.04,0.01 -0.02,0.01 -0.03,0.02 -0.04,0.03 -0,-0.01 -0,-0.02 -0,-0.03 -0,-0 -0,-0 -0,-0 -0.01,0.03 -0.02,0.06 -0.04,0.09 -0.01,0.01 -0.02,0.03 -0.02,0.04 0,-0 0.01,-0.01 0.01,-0.01 0,0 0.01,0 0.01,0 0,0 0,0.01 0,0.01 0,0 0,0 0,0 0,0 0,0.01 0,0.01 0.02,-0.03 0.05,-0.06 0.08,-0.09 0.02,-0.01 0.04,-0.02 0.06,-0.03 0.02,-0.01 0.05,-0.01 0.07,-0.01 0.04,0.01 0.07,0.06 0.05,0.1 -0.01,0.03 -0.03,0.05 -0.05,0.07 -0.02,0.02 -0.03,0.03 -0.05,0.05 -0.01,0.01 -0.03,0.01 -0.04,0.02 0.03,0.01 0.06,-0 0.08,-0.01 0.03,-0.01 0.07,-0.03 0.1,-0.05 -0.01,0.01 -0.01,0.03 0,0.04l0 -0c0.03,0.01 0.05,0.03 0.07,0.05l0 0c0,0 0,0 0,0 0.01,0.01 0.02,0.02 0.03,0.03 -0,0.01 -0,0.02 -0,0.03 -0,0.01 -0.01,0.01 -0.02,0.01 -0.03,-0.01 -0.05,-0.03 -0.08,-0.05 -0.03,-0.01 -0.06,-0.02 -0.09,-0.03 -0.06,-0.01 -0.12,-0.02 -0.18,-0.03 -0.02,-0 -0.05,0 -0.07,-0 0,-0 0.01,-0 0.01,-0.01 0.04,-0.01 0.08,-0.01 0.11,-0.01 -0.05,-0.02 -0.1,-0.02 -0.15,-0.02 -0.05,-0 -0.11,0.01 -0.16,0.02 0.03,0 0.06,-0 0.09,0 0.01,0 0.03,0 0.04,0.01 -0.04,0 -0.09,0 -0.13,0.01 -0.06,0.01 -0.13,0.02 -0.19,0.04 -0.04,0.01 -0.07,0.03 -0.11,0.05 -0.01,-0 -0.02,0 -0.02,-0.01 -0,-0.01 -0,-0.02 -0,-0.03 0.01,-0.01 0.02,-0.02 0.03,-0.03l0 -0zm0.78 -0.2c-0.01,-0.02 -0.03,-0.03 -0.05,-0.04 -0.03,-0.01 -0.05,-0 -0.08,0 -0.03,0.01 -0.06,0.03 -0.07,0.05 -0.01,0.02 -0.02,0.05 -0.02,0.08 0.01,-0.02 0.03,-0.03 0.05,-0.04 0,0.01 0.01,0.02 0.02,0.02 0.02,0.01 0.05,-0 0.07,-0.01 0.01,-0 0.02,-0.01 0.03,-0.02 0.01,-0.01 0.02,-0.02 0.02,-0.03 0,-0.01 -0.01,-0.02 -0.02,-0.03 0.01,0 0.03,0 0.04,0.01 -0.01,0 -0.01,0 -0.02,0 0,0 0,0.01 0,0.01 0.01,0 0.02,0.01 0.03,0.01 0,-0.01 0,-0.01 0,-0.02 -0,-0 -0,-0 -0,-0.01zm-0.65 0.01c0,0.01 0,0.01 0,0.02 0.01,-0.01 0.02,-0.01 0.03,-0.02 -0,-0 -0.01,-0.01 -0.01,-0.01 0.01,-0 0.02,-0 0.03,-0 -0.01,0.01 -0.02,0.02 -0.02,0.03 -0,0.01 0.01,0.02 0.02,0.03 0.02,0.02 0.04,0.03 0.06,0.03 0.01,0 0.02,0 0.03,-0 0.01,-0 0.01,-0.01 0.02,-0.02 0.02,0.01 0.04,0.02 0.05,0.04 0,-0.03 -0,-0.06 -0.02,-0.09 -0.02,-0.02 -0.04,-0.04 -0.07,-0.05 -0.03,-0.01 -0.07,-0.01 -0.1,0.01 -0.01,0.01 -0.02,0.02 -0.02,0.03 -0,0 -0,0 -0,0.01zm-0.08 -0.37c-0.01,0.01 -0.01,0.01 -0.02,0.02 -0,0.01 -0,0.03 0,0.04 0,0 0,0 0,0.01 0,0.02 0.01,0.04 0.03,0.06 0.01,-0.02 0.01,-0.03 0.02,-0.05 0.01,-0.01 0,-0.02 0.01,-0.03 0,-0.01 0,-0.02 -0,-0.02 -0,-0 -0.01,-0 -0.01,-0 -0.01,0.01 -0.02,0.02 -0.02,0.03 -0,-0 -0,-0 -0,-0 0,-0.01 0.01,-0.02 0.02,-0.03 0.01,-0.01 0.02,-0.01 0.04,-0.01 -0.01,0.02 -0.01,0.04 -0.01,0.06 0,0.03 0.02,0.07 0.04,0.09 0.01,0.01 -0.01,0.01 -0.01,0.02 0,-0.01 0,-0.01 0,-0.02 -0,0 -0.01,0 -0.01,0.01 -0.02,0.01 -0.03,0.03 -0.04,0.05 0.02,-0.01 0.04,-0.01 0.06,-0.02 0.06,-0.02 0.13,-0.02 0.19,-0.01 0.02,0 0.04,0.01 0.06,0.02 -0,-0.02 -0,-0.05 -0.02,-0.06 0,-0.01 0,-0.01 0,-0.02 0.02,-0.02 0.03,-0.05 0.02,-0.08 -0.01,-0.02 -0.03,-0.04 -0.05,-0.05 -0.01,-0.01 -0.02,-0.02 -0.03,-0.02 0.01,0.02 0.02,0.04 0.02,0.07 0,0.01 0,0.02 -0.01,0.02 -0.02,0.01 -0.03,-0.01 -0.05,-0.01 -0.04,-0.04 -0.08,-0.07 -0.14,-0.08 -0.03,-0.01 -0.07,-0.01 -0.1,0.01zm0.84 0.07c0.01,-0.02 0.01,-0.03 0,-0.05 -0.01,-0.02 -0.03,-0.02 -0.05,-0.03 -0.05,-0.01 -0.1,0.01 -0.14,0.04l0 0 0 -0c-0.01,0 -0.02,0.01 -0.02,0.02l0.01 -0c-0.02,0.01 -0.03,0.03 -0.05,0.04 -0.02,0 -0.03,0.01 -0.05,0.01 -0.01,-0 -0.01,-0.01 -0.01,-0.02 0,-0.02 0.02,-0.05 0.03,-0.07 -0.02,0 -0.03,0.02 -0.04,0.03 -0.02,0.01 -0.04,0.03 -0.04,0.06 -0,0.02 0.01,0.05 0.02,0.07 -0,0.01 0.01,0.02 -0,0.03 -0.01,0.02 -0.02,0.04 -0.02,0.06 0.06,-0.03 0.13,-0.04 0.2,-0.03 0.04,0 0.08,0.02 0.11,0.03 -0.01,-0.02 -0.02,-0.04 -0.03,-0.05 -0,-0 -0.01,-0.01 -0.01,-0.01 0,0.01 0.02,0.02 0.02,0.03 -0.01,-0.01 -0.02,-0.02 -0.03,-0.03 0.01,-0.01 0.01,-0.01 0.02,-0.02 0.02,-0.02 0.03,-0.05 0.03,-0.08l0 0c0,0 0,0 0.01,0 0,0 0,0.01 0.01,0.01 0.01,0.01 0.01,0.02 0.01,0.04 0.01,-0.02 0.03,-0.04 0.03,-0.06 0,-0 0,-0 0,-0zm-0.43 -0l0 0c-0,0.04 -0.02,0.08 -0.06,0.09 0.03,0.01 0.05,0.04 0.06,0.07 0,-0 0,-0 0,-0 0.01,-0.03 0.03,-0.06 0.06,-0.07 -0.01,-0.01 -0.02,-0.01 -0.03,-0.02 -0.02,-0.02 -0.03,-0.05 -0.03,-0.08 -0,0 -0,-0 -0,-0z"/>
    <path class="fil22" d="M0.21 1.03l0 0c-0,0.01 -0.01,0.01 -0.01,0.02 0.01,-0 0.02,-0.01 0.03,-0.02 0.02,-0.01 0.04,-0.01 0.07,-0 0.01,0 0.01,0.01 0.01,0.01 -0,0 -0.01,0.01 -0.01,0.01 -0.02,0.02 -0.04,0.04 -0.04,0.07 -0,0.04 0.01,0.08 0.03,0.11 0,0 0,0 0,0 0.01,0.01 0.01,0.01 0.02,0.02 -0,0 -0.01,0 -0.01,0.01l0 0c-0,0 -0,0 -0.01,0 0,0 0,0 0,0 0.01,-0 0.03,-0 0.04,-0 -0.01,0.01 -0.03,0.01 -0.04,0.02 -0.03,0.03 -0.08,0.02 -0.1,-0.01l-0 0c-0.01,-0.01 -0.02,-0.03 -0.03,-0.04l-0 -0c-0,-0 -0,-0.01 -0,-0.01 -0,0.01 -0,0.01 -0,0.02 -0,-0.01 -0,-0.01 -0,-0.02 -0,-0.01 -0,-0.02 -0,-0.03 0.01,0.02 0.02,0.04 0.03,0.05 0.01,-0 0.02,-0 0.02,-0 -0,-0 -0,-0 -0,-0 0,-0 0,-0 0.01,-0.01 -0,-0.01 -0,-0.02 -0,-0.02 -0.02,-0.04 -0.02,-0.08 -0.01,-0.11 -0.03,0.01 -0.04,0.04 -0.05,0.06 -0,-0.01 -0,-0.02 -0.01,-0.03 0,0 0.01,0.01 0.01,0.01 0,-0.01 -0,-0.01 0,-0.02 -0,-0.03 0,-0.06 0.01,-0.09l0 -0c0.01,-0.02 0.02,-0.03 0.04,-0.04 0.02,-0 0.04,0 0.06,0.02 -0.02,0 -0.04,0.01 -0.06,0.03z"/>
    <path class="fil23" d="M1.74 1.06c0.01,0.02 0.01,0.03 0,0.05 -0,-0.02 -0,-0.04 -0.01,-0.05 -0.01,0 -0.02,0.01 -0.03,0.01 -0.01,0 -0.01,0.01 -0.01,0.02 -0,-0 -0,-0 -0,-0 -0,-0 -0,-0.01 -0,-0.01 -0.01,0.01 -0.01,0.03 -0.02,0.04 -0.01,0.03 0.01,0.07 -0.02,0.09 0,0 0.01,0 0.01,0.01 -0,0 -0,0.01 -0,0.01 -0,0 -0.01,0.01 -0.01,0.01 0.01,0.01 0.02,0.01 0.04,0.01 0.01,-0 0.02,-0.01 0.03,-0.01 0.02,-0.01 0.03,-0.03 0.04,-0.05 -0,0.01 -0,0.02 -0,0.03 -0,0.01 -0,0.01 -0,0.02 0,-0.01 0,-0.01 -0,-0.02 -0,0 -0,0.01 -0.01,0.01 -0,0 -0,0.01 -0.01,0.01 -0.02,0.04 -0.07,0.06 -0.11,0.05 -0.01,-0.01 -0.03,-0.02 -0.04,-0.03 0,-0 0,-0 0.01,-0l0 -0c0,0 0.01,0 0.01,0 0,-0 0,-0 0,-0.01 -0.01,-0 -0.01,-0.01 -0.02,-0.01 0.01,-0.01 0.02,-0.01 0.03,-0.02 0.02,-0.03 0.04,-0.07 0.03,-0.11 -0,-0.03 -0.02,-0.05 -0.04,-0.06 -0,-0 -0.01,-0.01 -0.01,-0.01 0.01,-0.01 0.03,-0.01 0.04,-0.01 0.02,-0 0.05,0.01 0.07,0.02 -0,-0 -0,-0.01 -0,-0.01 -0.01,-0.03 -0.04,-0.04 -0.07,-0.04 0.02,-0.01 0.04,-0.02 0.06,-0.02 0.02,0 0.03,0.02 0.04,0.04 0.01,0.02 0.01,0.03 0.01,0.05z"/>
    <path class="fil24" d="M0.86 1.02c0,-0 0,-0 0.01,-0.01 -0,0.01 -0,0.01 -0,0.02 0.02,0.02 0.02,0.04 0.02,0.06 -0.02,-0.01 -0.04,-0.02 -0.06,-0.02 -0.06,-0.01 -0.13,-0.01 -0.19,0.01 -0.02,0 -0.04,0.01 -0.06,0.02 0.01,-0.02 0.02,-0.04 0.04,-0.05 0,-0 0.01,-0 0.01,-0.01 -0,0 -0,0.01 -0,0.02 -0.01,0.01 -0.02,0.02 -0.02,0.03 0.01,-0 0.01,-0.01 0.02,-0.01 0.05,-0.02 0.11,-0.03 0.17,-0.03 0.02,0 0.05,0.01 0.07,0.02 0,0 0.01,0 0.01,0 -0,-0 -0,-0.01 -0,-0.01 -0,-0.01 -0.01,-0.02 -0.02,-0.03 0.01,-0 0.01,-0.01 0.02,-0.01z"/>
    <path class="fil24" d="M1.03 1.02c0,0 0,0 0,0 0.01,0 0.02,0.01 0.02,0.01 -0.01,0.01 -0.01,0.02 -0.02,0.03 -0,0 -0,0.01 -0,0.01 0,-0 0.01,-0 0.01,-0 0.02,-0.01 0.05,-0.02 0.07,-0.02 0.06,-0 0.11,0.01 0.16,0.03 0.01,0 0.01,0.01 0.02,0.01 -0,-0 -0,-0 -0,-0.01 -0,-0.01 -0.02,-0.02 -0.02,-0.03 0,0 0.01,0 0.01,0.01 0.01,0.01 0.03,0.03 0.03,0.05 -0.04,-0.01 -0.07,-0.03 -0.11,-0.03 -0.07,-0.01 -0.14,-0 -0.2,0.03 -0,-0.02 0,-0.04 0.02,-0.06 0.01,-0.01 0,-0.02 0,-0.03z"/>
    <path class="fil25" d="M1.31 1.13c-0.01,-0 0,-0.01 0.01,-0.01 -0,0 -0.01,0 -0.01,0.01z"/>
    <path class="fil26" d="M1.1 1.15c0.01,-0 0.02,-0.01 0.04,-0.01 -0.02,0.01 -0.04,0.02 -0.06,0.03 -0.01,0.01 -0.02,0.02 -0.03,0.03 -0,-0.02 0,-0.03 0,-0.05 0,0.01 0,0.02 0,0.03 0.01,-0.01 0.03,-0.02 0.04,-0.03z"/>
    <path class="fil27" d="M0.08 1.15l0 -0c0.01,0.03 0.03,0.06 0.05,0.09 0,0 0.01,0 0.01,0 0,-0.01 0,-0.02 0,-0.03 0,0.01 0,0.01 0,0.02 0,0.01 0,0.02 0,0.02l0 0c-0,0 -0,0 -0,0 0.01,0.01 0.01,0.03 0.03,0.04 0.01,0.01 0.02,0.02 0.03,0.02 -0.03,0.01 -0.05,-0 -0.07,-0.02 -0.04,-0.03 -0.05,-0.08 -0.06,-0.13l-0 -0c-0,-0.01 -0,-0.01 -0,-0.02z"/>
    <path class="fil28" d="M0.83 1.18c0,-0.01 0,-0.02 0,-0.03 0,0.02 0,0.03 0,0.05 -0.01,-0.01 -0.02,-0.02 -0.03,-0.03 0.01,0 0.02,0.01 0.03,0.01z"/>
    <path class="fil29" d="M1.32 1.15c0.01,0 0.02,0 0.03,0.01l0 0c0.03,0.01 0.06,0.03 0.08,0.05 -0.01,-0 -0.03,-0 -0.04,0 0,0 0,0 0,0 0.02,0 0.03,0.02 0.04,0.03 0.02,0.02 0.04,0.05 0.05,0.07 -0.03,-0 -0.06,0 -0.09,-0.01 -0.02,-0.01 -0.04,-0.02 -0.06,-0.04 0.01,-0.02 0,-0.05 -0,-0.07l-0 -0c-0,-0.01 -0,-0.01 -0.01,-0.02 0.02,0 0.04,0.01 0.06,0 -0.01,-0.02 -0.04,-0.03 -0.06,-0.04z"/>
    <path class="fil30" d="M1.81 1.17c-0,0.02 -0.01,0.03 -0.01,0.05 -0.01,0.03 -0.03,0.07 -0.06,0.09 -0.02,0.01 -0.04,0.02 -0.06,0.02 -0,-0 -0,-0 -0,-0l0 0c0,-0 0.01,-0 0.01,-0.01 0.02,-0.01 0.03,-0.03 0.04,-0.05 -0,-0 -0,-0 -0,-0l0 -0c0.01,-0 0.01,-0.01 0.02,-0.01 0.03,-0.03 0.04,-0.06 0.06,-0.1 0,0.01 -0,0.02 -0,0.02l-0 -0z"/>
    <path class="fil31" d="M0.64 1.21c0.03,-0.02 0.07,-0.02 0.1,-0.01 0.03,0.01 0.06,0.02 0.07,0.05 0.02,0.03 0.02,0.06 0.02,0.09 -0.01,-0.02 -0.03,-0.03 -0.05,-0.04 -0,0.01 -0.01,0.01 -0.02,0.02 -0.01,0 -0.02,0 -0.03,0 -0.02,-0 -0.05,-0.01 -0.06,-0.03 0.01,0 0.02,0.01 0.03,0.01 0.03,0 0.06,0 0.08,-0.02 0.01,0.01 0.02,0.01 0.02,0.02 0.01,0.01 0.01,0.02 0.02,0.02 0,-0.03 -0.01,-0.05 -0.03,-0.07 -0.02,-0.02 -0.05,-0.04 -0.08,-0.04 -0.02,-0 -0.04,-0 -0.06,0.01 -0.01,0.01 -0.02,0.01 -0.03,0.03 0.01,-0 0.01,-0 0.02,-0 0,0 0.01,0.01 0.01,0.01 -0.01,0.01 -0.02,0.01 -0.03,0.02 -0,-0.01 -0,-0.01 -0,-0.02 0,-0 0,-0 0,-0.01 0,-0.01 0.01,-0.02 0.02,-0.03z"/>
    <path class="fil32" d="M1.15 1.21c0.03,-0.01 0.05,-0.01 0.08,-0 0.02,0 0.04,0.02 0.05,0.04 0,0 0,0 0,0.01 -0,0.01 -0,0.01 -0,0.02 -0.01,-0 -0.02,-0.01 -0.03,-0.01 -0,-0 -0,-0.01 -0,-0.01 0.01,-0 0.01,-0 0.02,-0 0,-0 0.01,-0 0.01,-0 -0.02,-0.02 -0.05,-0.03 -0.07,-0.03 -0.04,-0 -0.07,0.01 -0.1,0.04 -0.02,0.02 -0.03,0.05 -0.03,0.07 0.01,-0.02 0.02,-0.03 0.04,-0.05 0.01,0.02 0.04,0.03 0.06,0.03 0.02,0 0.03,-0 0.05,-0.01 -0.01,0.01 -0.02,0.01 -0.03,0.02 -0.02,0.01 -0.05,0.02 -0.07,0.01 -0.01,-0 -0.01,-0.01 -0.02,-0.02 -0.02,0.01 -0.04,0.02 -0.05,0.04 -0,-0.03 0,-0.05 0.02,-0.08 0.01,-0.03 0.04,-0.05 0.07,-0.05z"/>
    <path class="fil33" d="M0.66 1.22c0.02,-0.01 0.04,-0.01 0.06,-0.01 0.03,0 0.06,0.02 0.08,0.04 0.02,0.02 0.03,0.05 0.03,0.07 -0.01,-0.01 -0.01,-0.02 -0.02,-0.02 -0.01,-0.01 -0.01,-0.02 -0.02,-0.02 -0.02,0.02 -0.05,0.03 -0.08,0.02 -0.01,-0 -0.02,-0.01 -0.03,-0.01 -0.01,-0.01 -0.02,-0.02 -0.02,-0.03 -0,-0.01 0.01,-0.02 0.02,-0.03 -0.01,0 -0.02,0 -0.03,0 -0.01,0 -0.01,0 -0.02,0 0.01,-0.01 0.02,-0.02 0.03,-0.03z"/>
    <path class="fil33" d="M1.1 1.25c0.02,-0.03 0.06,-0.04 0.1,-0.04 0.03,-0 0.06,0.01 0.07,0.03 -0,0 -0.01,0 -0.01,0 -0.01,-0 -0.03,-0.01 -0.04,-0.01 0.01,0.01 0.02,0.02 0.02,0.03 0,0.01 -0.01,0.02 -0.02,0.03 -0.02,0.01 -0.03,0.01 -0.05,0.01 -0.02,-0 -0.05,-0.01 -0.06,-0.03 -0.02,0.01 -0.03,0.03 -0.04,0.05 0,-0.03 0.01,-0.05 0.03,-0.07z"/>
    <path class="fil34" d="M0.87 1.28c-0,-0.01 -0.01,-0.02 -0.01,-0.03 0.01,0.01 0.01,0.01 0.02,0.02 -0,0 -0.01,0 -0.01,0 -0,0 -0,0.01 -0,0.01z"/>
    <path class="fil35" d="M1.01 1.26c0.01,-0.01 0.01,-0.01 0.02,-0.02 -0,0.01 -0,0.02 -0.01,0.03 -0,-0 -0,-0 -0,-0 -0,-0 -0,-0.01 -0,-0.01 -0,-0 -0.01,-0 -0.01,-0z"/>
    <path class="fil36" d="M0.36 1.28c0.01,-0.01 0.02,-0.01 0.03,-0.02 -0.02,0.03 -0.03,0.06 -0.04,0.09 0.03,-0.01 0.06,-0.01 0.09,-0.01 0,0 -0,0.01 -0,0.01 -0.02,0.03 -0.05,0.07 -0.06,0.1 -0.01,0.01 -0.01,0.02 -0.02,0.04 -0.02,0.04 -0.04,0.09 -0.06,0.13 -0.01,0.01 -0,0.02 -0.01,0.03 -0,-0.03 -0.01,-0.07 -0,-0.1 -0,-0.01 -0,-0.02 -0,-0.02 0.01,-0.06 0.02,-0.11 0.05,-0.16 -0.01,0 -0.02,0.01 -0.04,0.01 -0.02,0.01 -0.05,0.01 -0.08,0.01 0.01,-0.01 0.03,-0.01 0.04,-0.02 0.04,-0.03 0.06,-0.07 0.1,-0.1z"/>
    <path class="fil37" d="M1.5 1.27c0.03,0.01 0.05,0.02 0.07,0.04 0.02,0.02 0.04,0.04 0.06,0.06l0 0c0.02,0.01 0.03,0.02 0.05,0.03 -0.03,0 -0.05,0 -0.08,-0.01 -0.01,-0 -0.02,-0.01 -0.03,-0.01 0.02,0.04 0.03,0.07 0.04,0.11 0,0 0,0.01 0,0.01 0.01,0.02 0.01,0.04 0.01,0.07 0,0.03 0,0.06 -0,0.1 -0.01,-0.01 -0.01,-0.03 -0.02,-0.04l-0 0c-0,-0.01 -0.01,-0.03 -0.02,-0.04 -0.01,-0.03 -0.02,-0.05 -0.04,-0.08 -0.01,-0.02 -0.02,-0.03 -0.03,-0.04 -0.02,-0.04 -0.04,-0.07 -0.07,-0.11 0,-0 0,-0 0,-0 0.03,-0 0.06,0 0.09,0.01 -0.01,-0.03 -0.02,-0.06 -0.04,-0.09z"/>
    <path class="fil38" d="M0.53 1.33c0.02,-0.01 0.04,-0.01 0.06,-0.01 0.02,0.02 0.05,0.04 0.08,0.06 0.01,0 0.02,0.01 0.02,0.01 0,0 0.01,0 0.01,0l0 -0c0.01,0.01 0.03,0.01 0.04,0.02 -0.02,0.01 -0.05,-0 -0.07,-0.01 -0.04,-0.01 -0.07,-0.02 -0.1,-0.04 -0,-0 -0.01,-0 -0.01,-0.01 0,0.01 0.01,0.03 -0,0.04l-0 -0c-0.01,-0 -0.03,0 -0.04,0 -0.02,0.01 -0.05,0.01 -0.07,0.02 0.01,-0.02 0.03,-0.04 0.04,-0.05 0,-0 0,-0 0,-0l0 0c0.01,-0.01 0.02,-0.03 0.04,-0.03l0 -0z"/>
    <path class="fil39" d="M1.3 1.32c0,-0 0.01,-0 0.01,-0 0.01,-0 0.03,0 0.04,0.01 0.02,0.01 0.03,0.02 0.05,0.03 0.02,0.02 0.03,0.04 0.05,0.06 -0.02,-0.01 -0.05,-0.02 -0.07,-0.02 -0.01,-0 -0.03,-0.01 -0.04,-0l-0 0c-0.01,-0.01 -0.01,-0.03 -0,-0.04 -0.03,0.02 -0.06,0.03 -0.1,0.05 -0.03,0.01 -0.06,0.02 -0.08,0.01 0.01,-0.01 0.03,-0.01 0.04,-0.02l-0 0c0.04,-0.01 0.08,-0.04 0.12,-0.07z"/>
    <path class="fil39" d="M0.91 2.22c0.01,0 0.03,0.01 0.04,0.01 0.01,-0 0.03,-0 0.04,-0.01 -0.01,0.01 -0.02,0.02 -0.02,0.03 0.02,0.01 0.05,0 0.08,0.01 -0.01,0 -0.03,0 -0.04,0 -0.03,0 -0.07,0 -0.1,-0 -0.01,-0 -0.03,-0 -0.04,-0 0.03,-0 0.05,0 0.08,-0.01 -0.01,-0.01 -0.02,-0.02 -0.02,-0.03z"/>
    <path class="fil40" d="M1 1.49c0.05,0 0.09,0 0.14,0.01 -0,0 -0.01,0 -0.01,0 -0.04,-0.01 -0.08,-0.01 -0.12,-0.01z"/>
    <path class="fil40" d="M0.61 1.53c0.02,-0.01 0.04,-0.01 0.06,-0.02l-0 0c-0.01,0.01 -0.02,0.01 -0.04,0.01 -0.01,0 -0.02,0 -0.02,0.01 -0,0.02 0.01,0.05 0,0.07 -0.01,-0.03 -0.01,-0.05 -0.01,-0.08z"/>
    <path class="fil40" d="M0.83 2.09c0.01,0.01 0.03,0.03 0.04,0.04 0,-0 0,-0.01 0,-0.01 0.05,0 0.09,0 0.14,0 0,0 0,0.01 0,0.01 0.01,-0.01 0.03,-0.03 0.04,-0.04 -0,0.01 -0.01,0.03 -0.01,0.04 -0.01,0.01 -0.03,0.01 -0.05,0.02 -0.03,0.01 -0.06,0.01 -0.09,0 -0.02,-0 -0.04,-0.01 -0.05,-0.01 -0,-0 -0.01,-0.01 -0.01,-0.01 -0,-0.01 -0.01,-0.03 -0.01,-0.04z"/>
    <path class="fil41" d="M1.15 1.53c-0.02,-0.01 -0.04,-0.01 -0.06,0.01 -0.01,-0.01 -0.02,-0.01 -0.03,-0.01 -0.03,-0.01 -0.07,-0.01 -0.1,-0.01 -0.03,-0 -0.05,0 -0.08,0.01 -0.03,0 -0.05,0.01 -0.07,0.02 -0.02,-0.01 -0.04,-0.02 -0.06,-0 -0,0 -0.01,0 -0.01,0.01l0 -0.04c0.06,-0.01 0.16,-0.02 0.22,-0.02 0.04,0 0.21,0.02 0.21,0.02l0 0.04c-0,-0 -0.01,-0.01 -0.02,-0.01z"/>
    <path class="fil42" d="M0.69 1.51c-0,0.02 0,0.05 0,0.06 -0.02,0.01 -0.04,0.01 -0.05,0.03 -0.01,0.01 -0,0.03 -0.01,0.04 -0,-0 -0,-0.01 -0.01,-0.01 -0.01,-0.01 -0.01,-0.09 -0.01,-0.1 0,-0.01 0.07,-0.03 0.08,-0.02z"/>
    <path class="fil43" d="M1.2 1.51c0.03,0.01 0.05,0.01 0.08,0.02 0,0.03 -0,0.06 -0.01,0.08 -0.01,-0.01 -0,-0.02 -0,-0.03 0,-0.01 0,-0.03 0,-0.04 -0.02,-0.01 -0.05,-0.01 -0.07,-0.02l-0 -0z"/>
    <path class="fil42" d="M1.2 1.51c0.02,0.01 0.06,0.01 0.08,0.02 0.01,0 -0.01,0.11 -0.02,0.11 -0,-0 -0,-0.01 -0,-0.01 -0,-0.01 -0,-0.03 -0.01,-0.04 -0.01,-0.01 -0.03,-0.02 -0.05,-0.02l-0 -0.06z"/>
    <path class="fil44" d="M1.27 1.65c0.02,-0.03 0.03,-0.07 0.04,-0.11 0.01,0 0.01,0.01 0.02,0.01 -0.01,0.03 -0.02,0.06 -0.03,0.09 -0,0.01 -0.01,0.02 -0.02,0.03l-0 0c-0,-0.01 -0.01,-0.01 -0.01,-0.02 -0,-0 -0,-0 -0,-0 0,-0 0,-0.01 0,-0.01l0 0z"/>
    <path class="fil45" d="M0.82 1.73c0.02,0.01 0.04,0.02 0.06,0.03 0.03,0.02 0.05,0.04 0.07,0.07 0.02,-0.03 0.04,-0.05 0.07,-0.07 0.02,-0.01 0.04,-0.03 0.06,-0.03 0,0.03 0,0.06 -0,0.08 -0.03,-0 -0.06,-0 -0.09,0.01 -0.02,0.01 -0.03,0.02 -0.04,0.04 -0.01,-0.01 -0.02,-0.03 -0.03,-0.03 -0.03,-0.02 -0.06,-0.01 -0.09,-0.01 -0,-0.03 -0,-0.05 -0,-0.08z"/>
    <path class="fil46" d="M0.82 1.81c0.03,-0 0.07,-0 0.09,0.01 0.02,0.01 0.03,0.02 0.03,0.03 0.01,-0.02 0.02,-0.03 0.04,-0.04 0.03,-0.01 0.06,-0.01 0.09,-0.01 -0,0.04 -0.01,0.08 -0.03,0.12 -0.01,0.03 -0.03,0.07 -0.06,0.09 -0.02,0.02 -0.06,0.01 -0.08,-0 -0.03,-0.02 -0.05,-0.05 -0.06,-0.09 -0.01,-0.04 -0.02,-0.08 -0.03,-0.12z"/>
    <path class="fil47" d="M0.34 1.91c0,0 0,0 0.01,0 0,0.01 0,0.01 0.01,0.02 -0,-0.01 -0,-0.02 -0.01,-0.02l0 -0z"/>
    <path class="fil48" d="M0.73 2.11c0.01,0 0.02,0.01 0.02,0.01 0.01,0 0.02,0 0.03,0l0 0.01c-0.01,0.02 -0.04,0.01 -0.06,0 -0.01,-0 -0,-0.02 -0,-0.03z"/>
    <path class="fil49" d="M1.14 2.12c0.01,-0 0.02,-0.01 0.03,-0.01 0,0 -0,0.01 -0,0.01 -0,0 -0,0.02 -0,0.02 -0.02,0.02 -0.06,0.01 -0.06,-0l0 -0.01c0.01,-0 0.02,0 0.03,-0z"/>
    <path class="fil50" d="M0.73 2.11c0,-0 0,-0 0,-0l-0 0 -0 -0z"/>
    <path class="fil51" d="M1 2.15c0.02,-0 0.03,-0.01 0.05,-0.02 -0,0 -0,0.01 -0,0.01 -0,0.01 -0,0.01 -0,0.02 -0.03,0.01 -0.06,0.02 -0.09,0.02 -0.03,-0 -0.06,-0.01 -0.09,-0.02 -0,-0.01 -0.01,-0.02 -0.01,-0.03 0,0 0.01,0.01 0.01,0.01 0.02,0.01 0.03,0.01 0.05,0.01 0.03,0 0.06,0 0.09,-0z"/>
    <path class="fil52" d="M1.17 2.22c-0.01,0.02 -0.02,0.04 -0.04,0.05 -0.02,0.01 -0.04,0.02 -0.06,0.03 -0.01,0 -0.02,0.01 -0.04,0 -0.01,-0 -0.01,-0.01 -0,-0.01 0,-0.01 0.01,-0.02 0.01,-0.03 0.01,-0.01 0.03,-0.01 0.04,-0.02 -0.01,0 -0.03,0 -0.04,0 -0.03,-0 -0.05,0 -0.08,-0.01 0.01,-0.01 0.02,-0.02 0.02,-0.03 -0.01,0 -0.03,0.01 -0.04,0.01 -0.01,0 -0.03,-0 -0.04,-0.01 0.01,0.01 0.02,0.02 0.02,0.03 -0.02,0.01 -0.05,0 -0.08,0.01 -0.02,-0 -0.03,-0 -0.05,-0 0.01,0.01 0.03,0.01 0.05,0.02 0,0.01 0.01,0.02 0.01,0.03 -0,0.01 -0.02,0.01 -0.02,0.01 -0.03,-0.01 -0.05,-0.02 -0.08,-0.03 -0.02,-0.01 -0.03,-0.02 -0.04,-0.04 -0.01,-0.02 -0.02,-0.03 -0.03,-0.05 -0,-0.01 -0,-0.01 -0.01,-0.02l0 -0c0.01,0.01 0.02,0.01 0.03,0.02 0.02,0.01 0.04,0.01 0.06,0.02 0.05,0.01 0.09,0.02 0.14,0.03 0.01,0 0.01,0 0.02,0 0.05,-0.01 0.1,-0.02 0.15,-0.03 0.02,-0.01 0.04,-0.01 0.06,-0.01 0.01,-0 0.03,-0.01 0.04,-0.02 0,0 0,0.01 0,0.01 -0,0 -0,0.01 -0.01,0.01 -0.01,0.01 -0.01,0.02 -0.02,0.04z"/>
    <path class="fil53" d="M0.7 2.19c0.01,0.02 0.02,0.04 0.03,0.05 0.01,0.02 0.02,0.03 0.04,0.04 0.02,0.01 0.05,0.03 0.08,0.03 0.01,0 0.02,0 0.02,-0.01 -0,-0.01 -0.01,-0.02 -0.01,-0.03 0.03,0.01 0.06,0.02 0.08,0.02 0.01,0 0.02,-0 0.03,-0 0.02,-0 0.05,-0.01 0.07,-0.02 -0,0.01 -0.01,0.02 -0.01,0.03 -0,0 -0,0.01 0,0.01 0.01,0 0.03,-0 0.04,-0 0.02,-0.01 0.04,-0.02 0.06,-0.03 0.02,-0.01 0.03,-0.03 0.04,-0.05 0.01,-0.01 0.01,-0.02 0.02,-0.04 0,-0 0,-0.01 0.01,-0.01 0,0.01 0,0.02 -0,0.03 -0.01,0.03 -0.02,0.06 -0.03,0.08 -0.01,0.02 -0.02,0.04 -0.04,0.05 -0.04,0.02 -0.09,0.03 -0.14,0.04 -0.04,0 -0.09,-0 -0.13,-0.01 -0.03,-0.01 -0.05,-0.01 -0.08,-0.03 -0.02,-0.01 -0.03,-0.03 -0.04,-0.05 -0.01,-0.03 -0.03,-0.05 -0.03,-0.08 -0,-0.01 -0,-0.02 0,-0.03 0,0.01 0,0.01 0.01,0.02z"/>
    <path class="fil54" d="M0.81 2.26c0.02,-0 0.03,0 0.05,0 0.01,0 0.03,0 0.04,0 0.03,0 0.07,0 0.1,0 0.01,-0 0.03,-0 0.04,-0 0.01,-0 0.03,-0 0.04,-0 -0.01,0.01 -0.03,0.01 -0.04,0.02 -0.02,0.01 -0.04,0.01 -0.07,0.02 -0.01,0 -0.02,0 -0.03,0 -0.03,-0 -0.06,-0.01 -0.08,-0.02 -0.02,-0.01 -0.03,-0.01 -0.05,-0.02z"/>
    <path class="fil7" d="M0.59 0.9c-0.01,0 -0.03,-0 -0.04,0.01 -0.01,0.01 -0.01,0.02 -0.02,0.03 -0,0.01 -0,0.01 -0,0.02 -0,-0 -0.01,-0.01 -0.01,-0.01 -0,0.02 0.01,0.04 0.03,0.06 0,-0.01 0.01,-0.03 0.01,-0.04 0,-0 0,-0.01 0.01,-0.01 0,-0 0,-0 0.01,-0l0 -0c0,-0.02 0.01,-0.04 0.01,-0.05z"/>
   </g>
   <path class="fil55" d="M0.61 0.98c0.01,0.02 0.02,0.04 0.04,0.05 0.02,-0.01 0.05,-0.01 0.07,-0.01 0.01,-0 0.01,-0 0.02,-0 -0.09,-0 -0.12,-0.04 -0.1,-0.11 -0.01,-0 -0.01,-0 -0.02,-0 -0.01,0.03 -0.01,0.05 -0,0.08z"/>
   <path class="fil55" d="M1.26 0.91c-0.02,0.07 -0.06,0.11 -0.11,0.11 0.01,0 0.03,0 0.04,0 0.02,0 0.04,0.01 0.05,0.01 0.02,-0.01 0.03,-0.03 0.04,-0.05 0.01,-0.03 0.01,-0.06 -0,-0.09 -0,0 -0.01,0 -0.01,0z"/>
   <path class="fil56" d="M1.25 0.91c-0.05,0.02 -0.09,0.06 -0.14,0.1 -0,0 -0,0.01 -0,0.01 0.01,-0 0.03,-0 0.04,-0 0.06,-0 0.1,-0.04 0.11,-0.11 -0,0 -0.01,0 -0.01,0z"/>
   <path class="fil56" d="M0.64 0.91c-0.02,0.07 0.02,0.11 0.1,0.11 0.01,-0 0.03,-0 0.04,-0 -0.01,-0.01 -0.02,-0.02 -0.03,-0.03 -0.02,-0.02 -0.04,-0.03 -0.06,-0.05 -0.02,-0.01 -0.04,-0.03 -0.07,-0.04z"/>
  </g>
 </g>
</svg>
