<?xml version="1.0" encoding="UTF-8"?>
<!DOCTYPE svg PUBLIC "-//W3C//DTD SVG 1.1//EN" "http://www.w3.org/Graphics/SVG/1.1/DTD/svg11.dtd">
<!-- Creator: CorelDRAW 2018 (64-Bit) -->
<svg xmlns="http://www.w3.org/2000/svg" xml:space="preserve" width="0.61737in" height="0.446626in" version="1.1" style="shape-rendering:geometricPrecision; text-rendering:geometricPrecision; image-rendering:optimizeQuality; fill-rule:evenodd; clip-rule:evenodd"
viewBox="0 0 6.34 4.59"
 xmlns:xlink="http://www.w3.org/1999/xlink">
 <defs>
  <style type="text/css">
   <![CDATA[
    .str0 {stroke:#2B2A29;stroke-width:0.01;stroke-miterlimit:2.61313}
    .fil5 {fill:none}
    .fil7 {fill:#C79933}
    .fil6 {fill:#FBEB58}
    .fil1 {fill:black;fill-rule:nonzero}
    .fil4 {fill:#310D3E;fill-rule:nonzero}
    .fil2 {fill:#581C71;fill-rule:nonzero}
    .fil3 {fill:#BC62BE;fill-rule:nonzero}
    .fil0 {fill:#E6E6E6;fill-rule:nonzero}
   ]]>
  </style>
 </defs>
 <g id="Layer_x0020_1">
  <metadata id="CorelCorpID_0Corel-Layer"/>
  <g id="_1008348336">
   <g>
    <path class="fil0" d="M6.18 0.02c0.05,-0.01 0.11,-0.01 0.16,-0.02 -0.05,0.09 -0.1,0.17 -0.11,0.27 -0.02,0.12 0.01,0.24 -0.01,0.36 -0.02,0.14 -0.06,0.27 -0.13,0.4 -0,0.22 -0.07,0.46 -0.22,0.62 -0.02,0.14 -0.09,0.27 -0.2,0.36 -0.03,0.03 -0.07,0.04 -0.09,0.08 -0.09,0.13 -0.24,0.22 -0.39,0.25 -0.05,0.04 -0.11,0.08 -0.17,0.1 -0.18,0.09 -0.38,0.12 -0.57,0.11 0.01,0.11 -0.02,0.24 -0.1,0.32 -0.02,0.09 -0.05,0.17 -0.11,0.24 -0.03,0.03 -0.08,0.05 -0.12,0.08 0.09,0.1 0.18,0.21 0.3,0.27 0.07,0.03 0.14,0.06 0.21,0.08 -0.09,0.05 -0.18,0.12 -0.28,0.15 -0.12,0.04 -0.26,0.05 -0.39,0.02 0.02,0.15 0.02,0.3 -0.01,0.44 -0.01,0.06 -0.03,0.12 -0.05,0.17 -0.12,-0.05 -0.24,-0.12 -0.35,-0.19 0,0.02 0,0.03 0,0.05 -0.11,0.15 -0.22,0.31 -0.38,0.42 -0.1,-0.05 -0.17,-0.14 -0.24,-0.22 -0.05,-0.06 -0.09,-0.12 -0.14,-0.18 -0.02,-0.02 -0.01,-0.04 -0.01,-0.06 -0.11,0.08 -0.22,0.14 -0.35,0.19 -0.02,-0.06 -0.04,-0.12 -0.05,-0.19 -0.03,-0.14 -0.03,-0.29 -0.01,-0.43 -0.16,0.04 -0.33,0.02 -0.48,-0.05 -0.07,-0.03 -0.13,-0.08 -0.19,-0.11 0.11,-0.04 0.22,-0.07 0.31,-0.14 0.08,-0.06 0.14,-0.13 0.2,-0.21 -0.08,-0.03 -0.15,-0.09 -0.19,-0.17 -0.02,-0.04 -0.03,-0.09 -0.05,-0.14 -0.08,-0.09 -0.11,-0.21 -0.1,-0.32 -0.25,0.01 -0.51,-0.05 -0.71,-0.2 -0.03,-0.02 -0.06,-0.02 -0.09,-0.03 -0.14,-0.04 -0.26,-0.14 -0.35,-0.26 -0.14,-0.09 -0.24,-0.24 -0.27,-0.41 -0.07,-0.09 -0.14,-0.18 -0.17,-0.29 -0.04,-0.11 -0.05,-0.22 -0.05,-0.33 -0.09,-0.16 -0.14,-0.35 -0.13,-0.54 0.01,-0.11 0,-0.23 -0.03,-0.33 -0.03,-0.06 -0.05,-0.11 -0.08,-0.17 0.1,0.02 0.2,0.02 0.29,0.06 0.09,0.04 0.17,0.1 0.25,0.16 0.17,0.13 0.33,0.28 0.48,0.44 0.17,0.16 0.39,0.25 0.61,0.3 0.13,0.03 0.27,0.04 0.41,0.05 0.13,0.01 0.28,0.05 0.36,0.16 0.01,0.01 0.02,0.02 0.03,0.02 0,-0.08 0.02,-0.15 0.05,-0.22 0.03,-0.06 0.08,-0.1 0.11,-0.15 0.03,0.05 0.05,0.09 0.08,0.14 0.02,0.03 0.06,0.06 0.1,0.05 0.13,-0.04 0.26,-0.05 0.4,-0.05 0.13,0.01 0.26,0.02 0.38,0.05 0.04,0.01 0.08,-0.02 0.11,-0.05 0.03,-0.04 0.05,-0.09 0.08,-0.14 0.05,0.07 0.11,0.13 0.14,0.21 0.02,0.05 0.02,0.11 0.03,0.17 0.02,-0.02 0.04,-0.05 0.07,-0.07 0.09,-0.08 0.21,-0.11 0.32,-0.12 0.18,-0 0.36,-0.03 0.54,-0.08 0.14,-0.04 0.28,-0.1 0.39,-0.18 0.08,-0.06 0.14,-0.13 0.22,-0.2 0.16,-0.15 0.32,-0.3 0.5,-0.42 0.07,-0.04 0.14,-0.09 0.23,-0.1zm-6.01 0.09l0 0c0.05,0.12 0.06,0.24 0.05,0.37 -0.01,0.18 0.04,0.37 0.14,0.52 -0.01,0.2 0.04,0.41 0.18,0.56 0.01,0.02 0.04,0.03 0.04,0.06 0.02,0.13 0.09,0.26 0.2,0.34 0.02,0.02 0.05,0.03 0.06,0.05 0.08,0.12 0.21,0.21 0.36,0.23 0.04,0.01 0.06,0.04 0.09,0.06 0.22,0.14 0.49,0.18 0.74,0.14 -0.01,0.05 -0.03,0.09 -0.03,0.14 -0.01,0.09 0.03,0.19 0.1,0.25 0.01,0.08 0.04,0.17 0.1,0.22 0.06,0.05 0.13,0.06 0.2,0.05 -0.12,0.18 -0.26,0.36 -0.46,0.45 0.08,0.04 0.17,0.07 0.26,0.07 0.11,0.01 0.23,-0.03 0.32,-0.09 -0.06,0.21 -0.07,0.44 -0.01,0.65 0.12,-0.06 0.23,-0.13 0.32,-0.23 0.02,-0.03 0.04,-0.06 0.05,-0.09 0.01,0.06 0,0.13 0,0.19 0,0.04 -0.01,0.08 0.02,0.11 0.08,0.11 0.16,0.22 0.27,0.31 0.11,-0.1 0.2,-0.22 0.29,-0.34 -0,-0.09 0,-0.18 0,-0.27 0.02,0.03 0.03,0.06 0.06,0.09 0.09,0.1 0.2,0.17 0.32,0.23 0.06,-0.21 0.05,-0.44 -0.01,-0.65 0.05,0.03 0.09,0.06 0.14,0.07 0.14,0.05 0.31,0.02 0.44,-0.05 -0.2,-0.08 -0.35,-0.27 -0.46,-0.45 0.07,0.01 0.14,-0 0.2,-0.05 0.07,-0.05 0.1,-0.14 0.1,-0.23 0.06,-0.05 0.09,-0.12 0.1,-0.19 0.01,-0.07 -0.01,-0.14 -0.03,-0.2 0.28,0.05 0.59,-0.01 0.82,-0.19 0.15,-0.02 0.29,-0.11 0.37,-0.23 0.02,-0.03 0.05,-0.04 0.07,-0.06 0.11,-0.08 0.17,-0.2 0.19,-0.33 -0,-0.02 0.01,-0.02 0.02,-0.03 0.14,-0.14 0.2,-0.34 0.2,-0.53 0,-0.02 -0,-0.04 0.01,-0.05 0.09,-0.15 0.14,-0.34 0.13,-0.52 -0.01,-0.12 0,-0.25 0.05,-0.37 -0.11,0.03 -0.2,0.1 -0.28,0.16 -0.18,0.14 -0.35,0.3 -0.51,0.46 -0.12,0.11 -0.26,0.19 -0.41,0.24 -0.21,0.08 -0.44,0.11 -0.66,0.12 -0.12,0.01 -0.24,0.04 -0.31,0.14 -0.05,0.07 -0.06,0.17 -0.05,0.25 -0.04,-0.07 -0.09,-0.13 -0.14,-0.19 0.03,-0.11 0.02,-0.23 -0.05,-0.33 -0.03,0.04 -0.06,0.09 -0.11,0.1 -0.05,0.02 -0.11,0.01 -0.16,-0.01 -0.21,-0.05 -0.43,-0.05 -0.64,0 -0.06,0.02 -0.12,0.03 -0.18,-0.01 -0.04,-0.02 -0.06,-0.06 -0.09,-0.09 -0.06,0.1 -0.07,0.22 -0.04,0.32 -0.06,0.06 -0.1,0.12 -0.15,0.19 0.01,-0.08 0.01,-0.17 -0.04,-0.24 -0.05,-0.07 -0.13,-0.12 -0.21,-0.14 -0.09,-0.03 -0.19,-0.02 -0.28,-0.03 -0.2,-0.02 -0.4,-0.06 -0.59,-0.15 -0.13,-0.06 -0.25,-0.13 -0.34,-0.23 -0.15,-0.15 -0.31,-0.3 -0.48,-0.43 -0.09,-0.07 -0.18,-0.14 -0.29,-0.16z"/>
    <path class="fil0" d="M2.75 1.76c-0.02,-0.05 -0.01,-0.12 0.02,-0.16 0.03,0.03 0.07,0.06 0.09,0.1l0.08 0.11c0.02,0.01 0.03,0.03 0.05,0.04 -0.09,0.05 -0.2,0 -0.24,-0.09z"/>
    <path class="fil0" d="M3.48 1.69c0.02,-0.04 0.06,-0.07 0.09,-0.1 0.11,0.14 -0.06,0.33 -0.22,0.25 0.02,-0.01 0.03,-0.03 0.05,-0.04l0.08 -0.11z"/>
    <path class="fil0" d="M3.44 1.76c0.01,-0.02 0.04,0 0.03,0.02 -0.01,0.02 -0.04,-0 -0.03,-0.02z"/>
    <path class="fil1" d="M0.17 0.12c0.11,0.03 0.2,0.1 0.29,0.16 0.17,0.13 0.33,0.28 0.48,0.43 0.1,0.1 0.22,0.18 0.34,0.23 0.19,0.08 0.39,0.13 0.59,0.15 0.09,0.01 0.19,0 0.28,0.03 0.08,0.02 0.16,0.07 0.21,0.14 0.04,0.07 0.05,0.16 0.04,0.24 0.04,-0.07 0.09,-0.13 0.15,-0.19 -0.03,-0.11 -0.02,-0.23 0.04,-0.32 0.03,0.03 0.05,0.07 0.09,0.09 0.05,0.03 0.12,0.03 0.18,0.01 0.21,-0.05 0.43,-0.05 0.64,-0 0.05,0.02 0.11,0.03 0.16,0.01 0.05,-0.02 0.08,-0.06 0.11,-0.1 0.06,0.1 0.07,0.22 0.05,0.33 0.06,0.06 0.11,0.12 0.14,0.19 -0.01,-0.09 -0,-0.18 0.05,-0.25 0.07,-0.1 0.2,-0.13 0.31,-0.14 0.22,-0.01 0.45,-0.04 0.66,-0.12 0.15,-0.05 0.29,-0.13 0.41,-0.24 0.16,-0.16 0.33,-0.32 0.51,-0.46 0.09,-0.06 0.18,-0.13 0.28,-0.16 -0.05,0.12 -0.06,0.24 -0.05,0.37 0.01,0.18 -0.04,0.36 -0.13,0.52 -0.01,0.02 -0.01,0.04 -0.01,0.05 0,0.19 -0.06,0.39 -0.2,0.53 -0.01,0.01 -0.02,0.02 -0.02,0.03 -0.02,0.13 -0.08,0.26 -0.19,0.33 -0.02,0.02 -0.05,0.03 -0.07,0.06 -0.08,0.13 -0.22,0.21 -0.37,0.23 -0.22,0.19 -0.53,0.25 -0.82,0.19 0.02,0.06 0.03,0.13 0.03,0.2 -0.01,0.07 -0.04,0.14 -0.1,0.19 -0.01,0.08 -0.04,0.17 -0.1,0.23 -0.06,0.04 -0.13,0.06 -0.2,0.05 0.11,0.18 0.26,0.36 0.46,0.45 -0.13,0.07 -0.29,0.1 -0.44,0.05 -0.05,-0.02 -0.1,-0.04 -0.14,-0.07 0.06,0.21 0.07,0.44 0.01,0.65 -0.12,-0.06 -0.23,-0.13 -0.32,-0.23 -0.02,-0.03 -0.04,-0.06 -0.06,-0.09 0,0.09 -0,0.18 -0,0.27 -0.09,0.12 -0.18,0.24 -0.29,0.34 -0.11,-0.08 -0.19,-0.2 -0.27,-0.31 -0.03,-0.03 -0.02,-0.07 -0.02,-0.11 -0,-0.06 0,-0.13 -0,-0.19 -0.02,0.03 -0.03,0.07 -0.05,0.09 -0.09,0.1 -0.2,0.17 -0.32,0.23 -0.06,-0.21 -0.05,-0.44 0.01,-0.65 -0.09,0.06 -0.21,0.1 -0.32,0.09 -0.09,-0 -0.18,-0.03 -0.26,-0.07 0.21,-0.08 0.35,-0.27 0.46,-0.45 -0.07,0.01 -0.15,-0 -0.2,-0.05 -0.07,-0.05 -0.1,-0.14 -0.1,-0.22 -0.07,-0.06 -0.11,-0.16 -0.1,-0.25 0,-0.05 0.01,-0.1 0.03,-0.14 -0.25,0.04 -0.52,0 -0.74,-0.14 -0.03,-0.02 -0.06,-0.05 -0.09,-0.06 -0.14,-0.02 -0.28,-0.11 -0.36,-0.23 -0.01,-0.02 -0.04,-0.04 -0.06,-0.05 -0.11,-0.08 -0.18,-0.2 -0.2,-0.34 -0,-0.02 -0.03,-0.04 -0.04,-0.06 -0.14,-0.15 -0.19,-0.36 -0.18,-0.56 -0.09,-0.16 -0.15,-0.34 -0.14,-0.52 0.01,-0.12 -0,-0.25 -0.05,-0.37zm0.92 1.11l0 0c0.17,0.1 0.37,0.15 0.57,0.18 0.09,0.01 0.18,0.01 0.26,0.05 0.13,0.06 0.22,0.16 0.29,0.28 0.01,-0.01 0.01,-0.03 0.01,-0.04 0.04,-0.12 -0.01,-0.27 -0.11,-0.34 -0.12,-0.09 -0.27,-0.11 -0.42,-0.12 -0.16,-0 -0.31,-0.06 -0.45,-0.12 -0.16,-0.08 -0.3,-0.18 -0.43,-0.29 -0.07,-0.06 -0.12,-0.13 -0.18,-0.19 -0.07,-0.06 -0.13,-0.14 -0.2,-0.19 -0.01,-0.01 -0.02,-0.02 -0.03,-0.03 0.14,0.34 0.37,0.64 0.7,0.82zm4.58 -0.54l0 0c-0.04,0.04 -0.07,0.08 -0.11,0.12 -0.13,0.12 -0.28,0.23 -0.45,0.31 -0.14,0.07 -0.3,0.12 -0.46,0.13 -0.14,0.01 -0.29,0.03 -0.41,0.11 -0.09,0.06 -0.13,0.16 -0.13,0.27 0,0.04 0,0.08 0.02,0.12 0,-0.01 0,-0.02 0,-0.02 0.03,-0.04 0.06,-0.08 0.09,-0.12 0.07,-0.09 0.17,-0.15 0.28,-0.18 0.07,-0.01 0.14,-0.02 0.21,-0.03 0.2,-0.03 0.41,-0.09 0.58,-0.2 0.22,-0.13 0.39,-0.33 0.52,-0.54 0.02,-0.04 0.05,-0.09 0.07,-0.14 0.02,-0.04 0.04,-0.07 0.06,-0.11 -0.09,0.09 -0.19,0.18 -0.28,0.28zm-0.02 0.45l0 0c-0.07,0.05 -0.14,0.1 -0.22,0.1l0.01 0c0.05,0.1 0.13,0.19 0.23,0.25 0.05,-0.06 0.1,-0.12 0.12,-0.2l0 -0c0.04,-0.1 0.05,-0.22 0.05,-0.33 -0.06,0.06 -0.12,0.12 -0.19,0.17zm-5.09 0.17l0 0c0.03,0.07 0.07,0.13 0.12,0.18 0.1,-0.06 0.18,-0.15 0.24,-0.26 -0.01,0 -0.02,0.01 -0.02,0.01 -0.16,-0.05 -0.27,-0.17 -0.39,-0.28 -0,0.12 0.01,0.23 0.06,0.34zm2.27 -0.1l0 0c-0.02,0.03 -0.01,0.07 -0.01,0.1 -0.08,-0.01 -0.13,-0.08 -0.18,-0.13 0.01,0.04 0,0.08 0.02,0.12 0.04,0.1 0.11,0.18 0.19,0.25 0.05,0.08 0.13,0.13 0.2,0.19 0.02,0.01 0.05,0.05 0.07,0.02 0.02,-0.05 -0.01,-0.09 -0.04,-0.13 -0,-0.01 -0.01,-0.03 -0.02,-0.03 0.04,0.01 0.08,0.04 0.11,0.07 0.02,-0.02 0.05,-0.05 0.08,-0.06l-0 -0.01c0,0.01 0.01,0.02 0.01,0.02 -0.03,0.04 -0.05,0.08 -0.04,0.13 0,0.02 0.03,0.03 0.04,0.02 0.06,-0.04 0.11,-0.08 0.16,-0.13 0.09,-0.08 0.17,-0.17 0.23,-0.27 0.03,-0.06 0.06,-0.12 0.06,-0.19 -0,0.01 -0.01,0.02 -0.01,0.02 -0.05,0.04 -0.1,0.11 -0.17,0.11 -0,-0.03 0,-0.07 -0.01,-0.09 -0.1,-0.03 -0.21,-0.05 -0.31,-0.05 -0.05,-0.01 -0.1,-0.01 -0.15,0 -0.07,0.01 -0.15,0.02 -0.22,0.04zm-0.23 0.21l0 0c-0.04,0.05 -0.08,0.12 -0.09,0.19 -0,0.06 -0.01,0.12 0.03,0.17 0,0.01 0,0.03 0,0.04 -0.03,-0.02 -0.05,-0.04 -0.08,-0.06 0,0.02 0,0.03 0.01,0.05 -0.02,0.15 0.12,0.28 0.26,0.31 0.11,0.03 0.22,-0.02 0.31,-0.08 0.01,-0.03 0,-0.06 0.01,-0.09 0.01,-0.02 0.02,-0.04 0.03,-0.06 -0.05,0.01 -0.08,0.04 -0.13,0.04 -0.05,0.01 -0.1,-0.01 -0.14,-0.01 -0.05,-0.04 -0.1,-0.08 -0.12,-0.14 -0.03,-0.07 -0.01,-0.16 0.02,-0.23 -0.03,-0.04 -0.06,-0.09 -0.1,-0.12zm1.13 -0l0 0 0 0.01c-0.03,0.04 -0.06,0.08 -0.1,0.12 0.02,0.05 0.04,0.11 0.04,0.17 -0.01,0.11 -0.11,0.21 -0.22,0.21 -0.06,0.01 -0.11,-0.02 -0.16,-0.04 -0.01,-0 -0.01,-0 -0.02,-0.01 0.04,0.04 0.03,0.1 0.04,0.15 0.06,0.05 0.14,0.08 0.22,0.09 0.16,0.01 0.32,-0.1 0.35,-0.26 0.01,-0.04 0.02,-0.08 -0,-0.11l-0 0.01c-0.02,0.02 -0.05,0.03 -0.07,0.05 0.05,-0.13 0.05,-0.3 -0.06,-0.4zm-3.03 0.12l0 0c0.01,0.07 0.02,0.13 0.05,0.19 0.03,0.05 0.06,0.09 0.11,0.12 0.05,-0.02 0.11,-0.04 0.16,-0.07 0.07,-0.05 0.13,-0.13 0.14,-0.22l-0.01 0.01c-0.07,0 -0.14,0.01 -0.2,0.01 -0.08,-0 -0.16,-0.02 -0.24,-0.04zm4.47 0.02l0 0 0.01 0.01c0.01,0.15 0.16,0.24 0.29,0.27 0.05,-0.02 0.09,-0.07 0.11,-0.12l0 0c0.03,-0.06 0.04,-0.12 0.05,-0.19 -0.15,0.04 -0.31,0.06 -0.46,0.02zm-2.42 0.19l0 0c0.04,0.09 0.15,0.13 0.24,0.09 -0.02,-0.01 -0.03,-0.03 -0.05,-0.04l-0.08 -0.11c-0.03,-0.04 -0.06,-0.07 -0.09,-0.1 -0.03,0.05 -0.04,0.11 -0.02,0.16zm0.73 -0.06l0 0 -0.08 0.11c-0.02,0.01 -0.03,0.03 -0.05,0.04 0.07,0.04 0.17,0.01 0.22,-0.05 0.05,-0.06 0.05,-0.15 0,-0.2 -0.03,0.03 -0.06,0.06 -0.09,0.1zm-1.98 0.07l0 0c-0.02,0.01 -0.04,0.01 -0.06,0.02 -0.17,0.08 -0.35,0.1 -0.54,0.1 0.04,0.06 0.09,0.11 0.15,0.15 0.06,0.04 0.12,0.06 0.19,0.07 0.14,-0.1 0.25,-0.23 0.31,-0.39 -0.02,0.02 -0.04,0.03 -0.06,0.05zm3.27 -0.05l0 0c0,0 0.01,0.01 0.01,0.02 0.01,0.04 0.03,0.08 0.05,0.11 0.06,0.09 0.13,0.18 0.22,0.24 0.01,0.01 0.02,0.02 0.04,0.01 0.06,-0.01 0.12,-0.04 0.18,-0.07 0.06,-0.04 0.11,-0.09 0.15,-0.15 -0.17,0 -0.35,-0.02 -0.51,-0.09 -0.05,-0.02 -0.09,-0.05 -0.14,-0.08zm-2.98 0.14l0 0c-0.01,0.01 -0.02,0.01 -0.03,0.02 -0.13,0.11 -0.29,0.19 -0.44,0.26 0.04,0.05 0.1,0.08 0.16,0.11 0.06,0.02 0.12,0.04 0.18,0.05 0.09,-0.14 0.17,-0.31 0.16,-0.48 -0.01,0.01 -0.02,0.02 -0.03,0.04zm2.71 -0.03l0 0c-0.01,0.17 0.07,0.34 0.16,0.48 0.06,-0.01 0.12,-0.03 0.18,-0.05 0.06,-0.03 0.12,-0.06 0.17,-0.11 -0.09,-0.04 -0.18,-0.09 -0.26,-0.14 -0.08,-0.05 -0.17,-0.1 -0.23,-0.18l-0 -0.01c-0,0 -0.01,0 -0.01,0zm-1.41 0.16l0 0c0,0.07 0,0.14 0.05,0.2l-0 0c0.01,0.01 0.01,0.01 0.02,0.02 0.06,-0.06 0.06,-0.14 0.06,-0.22 -0,-0.04 -0.05,-0.06 -0.09,-0.06 -0.02,0.02 -0.05,0.03 -0.04,0.06zm-0.99 0.55l0 0c-0.03,0.06 -0.01,0.14 0.03,0.19l0 0.01c0.02,-0.05 0.03,-0.1 0.06,-0.15 0,0.05 0.01,0.1 0.03,0.15 0,0.01 0.01,0.02 0.01,0.03 0.02,-0.06 0.05,-0.13 0.1,-0.17 0.01,0.05 0.01,0.11 0.04,0.15 0.01,0.01 0.01,0.02 0.02,0.03 0.02,-0.05 0.04,-0.1 0.07,-0.14 0.02,-0.02 0.03,-0.05 0.03,-0.08 -0.02,-0.05 -0.09,-0.04 -0.12,-0 -0.01,-0.02 -0.02,-0.03 -0.03,-0.05 -0.04,-0.01 -0.08,-0.01 -0.11,0.01 -0,-0.02 -0.02,-0.04 -0.03,-0.05 -0.04,-0 -0.08,0.02 -0.09,0.06zm1.6 -0.02l0 0c-0.03,0.06 -0.06,0.12 -0.11,0.17 -0.03,-0.04 -0.06,-0.09 -0.08,-0.13 -0.1,0.09 -0.15,0.21 -0.18,0.34 -0.02,0.07 -0.01,0.14 -0.02,0.21 0.01,-0.01 0.02,-0.03 0.03,-0.04l-0.01 0c0.05,-0.09 0.12,-0.18 0.18,-0.26 0.02,0.03 0.04,0.06 0.06,0.09 0.05,-0.03 0.09,-0.06 0.11,-0.11 0.05,-0.1 0.05,-0.21 0.03,-0.31 -0.01,0.01 -0.01,0.03 -0.01,0.04zm-1.09 -0.04l0 0c-0,0.02 -0,0.05 0,0.07 -0.03,0.13 0.02,0.29 0.14,0.36 0.02,-0.03 0.04,-0.06 0.06,-0.09 0.07,0.08 0.12,0.17 0.18,0.25 0,0.01 0.01,0.02 0.02,0.03 0,-0.19 -0.05,-0.4 -0.2,-0.53 -0.02,0.05 -0.05,0.09 -0.08,0.13 -0.06,-0.06 -0.09,-0.14 -0.12,-0.21zm1.48 0.06l0 0c-0.03,-0.03 -0.08,-0.03 -0.12,-0.01l-0 -0c-0.01,0.01 -0.01,0.03 -0.02,0.04 -0.03,-0.04 -0.1,-0.05 -0.12,-0.01 -0.01,0.04 0.02,0.07 0.04,0.09 0.03,0.04 0.04,0.08 0.07,0.12 -0,0 -0,0.01 -0,0.01 0.05,-0.04 0.06,-0.12 0.06,-0.19 0.03,0.03 0.05,0.06 0.07,0.1 0.01,0.03 0.02,0.06 0.03,0.08l0 -0.01c0.04,-0.05 0.04,-0.12 0.04,-0.18 0.02,0.04 0.04,0.09 0.05,0.13l-0 0.01c0.02,-0 0.02,-0.02 0.03,-0.04 0.02,-0.05 0.04,-0.11 0.01,-0.17 -0.02,-0.04 -0.07,-0.07 -0.11,-0.05 -0.01,0.02 -0.01,0.03 -0.02,0.05zm-1.89 0.33l0 0c0.01,0.09 0.12,0.15 0.2,0.12 0.03,-0.02 0.05,-0.07 0.02,-0.1 -0.05,-0.03 -0.09,0.02 -0.14,0.02 -0.03,-0.02 -0.06,-0.03 -0.08,-0.05zm1.79 0.03l0 0c0,0 0,0 0,0.01l-0 -0c-0.03,-0.01 -0.08,-0.03 -0.1,-0 -0.02,0.03 0,0.06 0.02,0.08 0.08,0.04 0.2,-0.02 0.21,-0.12 -0.04,0.02 -0.09,0.06 -0.13,0.03zm-1.59 0.4l0 0c-0.07,0.05 -0.13,0.12 -0.19,0.18 0.08,0 0.16,-0.03 0.22,-0.09 0.01,-0.01 0.02,-0.02 0.04,-0.03 -0.03,0.01 -0.07,0.01 -0.1,0.02 0.04,-0.05 0.08,-0.11 0.1,-0.17 -0.03,0.02 -0.05,0.05 -0.07,0.08zm1.45 -0.08l0 0c0.01,0.01 0.02,0.03 0.03,0.04 0.02,0.05 0.04,0.09 0.07,0.13 -0.02,-0 -0.04,-0 -0.06,-0 -0.01,-0.01 -0.03,-0.01 -0.04,-0.02 0.06,0.07 0.16,0.11 0.26,0.12 -0.04,-0.05 -0.08,-0.09 -0.12,-0.13 -0.05,-0.04 -0.08,-0.09 -0.13,-0.13zm-1.22 0.65l0 0c-0.01,-0.06 -0.02,-0.12 -0.03,-0.19 -0,0.01 -0.01,0.02 -0.01,0.02 -0.04,0.09 -0.04,0.19 -0.03,0.29 0.08,-0.04 0.15,-0.1 0.21,-0.18 0.03,-0.04 0.06,-0.08 0.06,-0.12 0.02,-0.02 0.03,-0.05 0.04,-0.08 -0.07,0.09 -0.14,0.19 -0.24,0.26zm0.81 -0.26l0 0c0.04,0.16 0.16,0.3 0.31,0.38 0.01,-0.11 0.01,-0.23 -0.05,-0.32 0.01,0.04 0.01,0.09 -0.01,0.13 -0.01,0.02 -0.01,0.05 -0.02,0.07 -0.08,-0.05 -0.13,-0.13 -0.2,-0.19 -0.01,-0.02 -0.03,-0.04 -0.04,-0.06zm-0.39 0.15l0 0c-0,0.02 -0.01,0.05 -0.01,0.07 -0.02,0.1 -0.03,0.2 -0.05,0.29 0.04,0.05 0.08,0.11 0.14,0.15 0.01,0.01 0.02,0.02 0.02,0.03l-0 0.01c0.07,-0.04 0.12,-0.12 0.17,-0.18 -0.02,-0.12 -0.03,-0.24 -0.06,-0.36 -0,0.02 -0.01,0.04 -0.01,0.07 -0.02,0.09 -0,0.18 -0.01,0.27 -0.03,0.04 -0.06,0.07 -0.09,0.11 -0.03,-0.04 -0.07,-0.07 -0.09,-0.12 -0,-0.11 0.01,-0.22 -0.01,-0.33z"/>
    <path class="fil2" d="M1.09 1.22c-0.32,-0.18 -0.56,-0.49 -0.7,-0.82 0.01,0.01 0.02,0.02 0.03,0.03 0.04,0.1 0.11,0.18 0.17,0.26 0.07,0.09 0.15,0.18 0.24,0.26 0.08,0.07 0.18,0.13 0.27,0.18 0.11,0.06 0.22,0.12 0.34,0.15 0.13,0.03 0.26,0.02 0.38,0.06 0.11,0.03 0.23,0.08 0.3,0.17 0.04,0.05 0.06,0.12 0.09,0.18 0,0.01 0.01,0.03 -0.01,0.04 -0.07,-0.12 -0.16,-0.23 -0.29,-0.28 -0.08,-0.04 -0.17,-0.04 -0.26,-0.05 -0.2,-0.03 -0.39,-0.08 -0.57,-0.18z"/>
    <path class="fil2" d="M5.75 0.71c0.05,-0.06 0.09,-0.13 0.14,-0.2 -0.01,0.05 -0.04,0.09 -0.07,0.14 -0.13,0.22 -0.3,0.41 -0.52,0.54 -0.18,0.11 -0.38,0.17 -0.58,0.2 -0.07,0.01 -0.14,0.02 -0.21,0.03 -0.11,0.02 -0.21,0.09 -0.28,0.18 -0.03,0.04 -0.06,0.08 -0.09,0.12 -0,-0.14 0.11,-0.27 0.23,-0.32 0.14,-0.07 0.31,-0.08 0.46,-0.1 0.2,-0.03 0.38,-0.14 0.54,-0.24 0.15,-0.09 0.27,-0.22 0.37,-0.35z"/>
    <path class="fil2" d="M3.05 1.16c0.05,-0.01 0.1,-0.01 0.15,-0 0.11,0.03 0.23,0.07 0.33,0.14 0.07,-0 0.12,-0.07 0.17,-0.11 -0.01,0.03 -0.02,0.07 -0.04,0.1 -0.07,0.1 -0.15,0.19 -0.25,0.28 -0.04,0.03 -0.07,0.07 -0.12,0.09 -0.02,-0.01 -0.01,-0.04 -0.01,-0.05 -0.01,-0 -0.02,-0.01 -0.03,-0.01l0 0.01 0 0.01c-0.04,0 -0.06,0.03 -0.08,0.06 -0.03,-0.03 -0.06,-0.06 -0.11,-0.07 0,0.01 0.01,0.03 0.02,0.03 -0.01,0.02 -0.01,0.03 -0.02,0.05 -0.08,-0.02 -0.15,-0.08 -0.22,-0.12 -0.08,-0.07 -0.14,-0.16 -0.19,-0.25 -0.02,-0.04 -0.02,-0.08 -0.02,-0.12 0.05,0.05 0.1,0.13 0.18,0.13 0.07,-0.07 0.16,-0.12 0.26,-0.14 -0.01,-0 -0.02,-0 -0.03,-0z"/>
    <path class="fil2" d="M0.89 1.24c0.01,-0 0.02,-0.01 0.02,-0.01 -0.05,0.11 -0.13,0.2 -0.24,0.26 -0.05,-0.05 -0.09,-0.12 -0.12,-0.18 -0,-0 -0,-0.01 -0,-0.02 0.11,0.02 0.23,0.01 0.33,-0.05z"/>
    <path class="fil2" d="M5.44 1.24c0.11,0.05 0.23,0.07 0.35,0.05 -0.02,0.08 -0.07,0.14 -0.12,0.2 -0.1,-0.06 -0.18,-0.14 -0.23,-0.25z"/>
    <path class="fil2" d="M3.64 1.54c0.03,-0.04 0.06,-0.08 0.1,-0.12 0.07,0.15 0.05,0.32 -0.03,0.46 0.03,-0.02 0.07,-0.04 0.09,-0.07 0.02,-0.02 0.05,-0.03 0.07,-0.05 -0,0.16 -0.15,0.29 -0.31,0.3 -0.07,-0 -0.14,-0.03 -0.2,-0.06 -0.01,-0.04 -0.04,-0.08 -0.07,-0.11 0.05,0.02 0.11,0.04 0.16,0.04 0.11,-0.01 0.21,-0.1 0.22,-0.21 0,-0.06 -0.01,-0.12 -0.04,-0.17z"/>
    <path class="fil2" d="M2.54 1.78c0.01,-0.09 0.01,-0.19 0.06,-0.27 0.03,0.01 0.07,0.02 0.1,0.03 -0.03,0.07 -0.05,0.15 -0.02,0.23 0.02,0.06 0.07,0.1 0.12,0.14 0.04,0.04 0.1,0.07 0.15,0.11 -0.11,0.05 -0.25,0.04 -0.35,-0.03 -0.06,-0.05 -0.1,-0.12 -0.13,-0.19 -0,-0.02 -0.01,-0.03 -0.01,-0.05 0.03,0.02 0.05,0.04 0.08,0.06 0,-0.01 0,-0.03 0,-0.04z"/>
    <path class="fil2" d="M1.15 1.57l0.01 -0.01c-0.01,0.09 -0.07,0.17 -0.14,0.22 -0.05,0.03 -0.1,0.05 -0.16,0.07 -0.05,-0.03 -0.08,-0.07 -0.11,-0.12 0.05,-0.01 0.09,-0.02 0.14,-0.03 0.1,-0.02 0.19,-0.07 0.26,-0.14z"/>
    <path class="fil2" d="M5.18 1.57c0.11,0.09 0.25,0.15 0.4,0.16 -0.02,0.05 -0.06,0.1 -0.11,0.12 -0.13,-0.03 -0.28,-0.13 -0.29,-0.27z"/>
    <path class="fil2" d="M1.51 1.76c0.02,-0.02 0.04,-0.04 0.06,-0.05 -0.06,0.16 -0.17,0.3 -0.31,0.39 -0.07,-0.01 -0.13,-0.04 -0.19,-0.07 0.06,-0.02 0.13,-0.04 0.18,-0.08 0.09,-0.05 0.18,-0.11 0.26,-0.19z"/>
    <path class="fil2" d="M4.79 1.73c0.15,0.11 0.3,0.25 0.49,0.29 -0.05,0.03 -0.11,0.06 -0.18,0.07 -0.01,0 -0.03,-0 -0.04,-0.01 -0.09,-0.06 -0.17,-0.15 -0.22,-0.24 -0.02,-0.03 -0.04,-0.07 -0.05,-0.11z"/>
    <path class="fil2" d="M1.8 1.85c0.01,-0.02 0.02,-0.03 0.03,-0.04 0.01,0.18 -0.07,0.34 -0.16,0.48 -0.06,-0.01 -0.12,-0.03 -0.18,-0.05 0.08,-0.05 0.14,-0.12 0.2,-0.19 0.04,-0.06 0.09,-0.13 0.11,-0.2z"/>
    <path class="fil2" d="M4.51 1.82c0,-0 0.01,-0 0.01,-0l0 0.01c0,0 0,0.01 0,0.02 0.08,0.15 0.18,0.31 0.32,0.41 -0.06,0.02 -0.12,0.04 -0.18,0.05 -0.09,-0.14 -0.17,-0.3 -0.16,-0.48z"/>
    <path class="fil2" d="M3.11 1.98c-0,-0.03 0.03,-0.04 0.04,-0.06 0.05,0.08 0.05,0.18 0,0.26 -0.05,-0.06 -0.05,-0.13 -0.05,-0.2z"/>
    <path class="fil2" d="M2.21 2.47c0.01,0.01 0.03,0.03 0.03,0.05 -0.01,0.02 -0.02,0.05 -0.03,0.07 -0.03,0.04 -0.04,0.1 -0.06,0.15l-0 -0.01c-0.01,-0.05 -0.01,-0.11 -0.01,-0.16 0.01,-0.04 0.04,-0.07 0.07,-0.09z"/>
    <path class="fil2" d="M2.62 2.47c0.03,0.08 0.06,0.15 0.12,0.21 0.03,-0.04 0.06,-0.09 0.08,-0.13 0.15,0.13 0.2,0.34 0.2,0.53 -0,-0.01 -0.01,-0.02 -0.02,-0.03 -0.02,-0.14 -0.1,-0.27 -0.19,-0.37 -0.02,0.03 -0.04,0.06 -0.06,0.09 -0.08,-0.06 -0.1,-0.15 -0.13,-0.24 -0,-0.02 -0,-0.04 -0,-0.07z"/>
    <path class="fil2" d="M4.1 2.53c0.01,-0.02 0.01,-0.03 0.02,-0.05 0.03,0.01 0.06,0.03 0.08,0.06 0.02,0.06 0.01,0.12 -0.01,0.18 -0.02,-0.04 -0.03,-0.09 -0.05,-0.13 -0.01,-0.02 -0.02,-0.04 -0.04,-0.06z"/>
    <path class="fil2" d="M2.26 2.57c0.02,-0.03 0.06,-0.05 0.1,-0.06 0.01,0.02 0.02,0.03 0.03,0.05 -0.01,0.02 -0.03,0.03 -0.04,0.05 -0.05,0.05 -0.07,0.11 -0.1,0.17 -0,-0.01 -0.01,-0.03 -0.01,-0.03 -0,-0.06 -0.01,-0.12 0.02,-0.17z"/>
    <path class="fil2" d="M3.6 2.68c0.05,-0.05 0.08,-0.11 0.11,-0.17 0,0.1 -0.04,0.2 -0.12,0.26 -0.02,-0.03 -0.04,-0.06 -0.06,-0.09 -0.11,0.1 -0.17,0.24 -0.21,0.38l0.01 -0 0.01 -0c-0.01,0.01 -0.02,0.03 -0.03,0.04 0.01,-0.07 0.01,-0.14 0.02,-0.21 0.03,-0.13 0.08,-0.25 0.18,-0.34 0.02,0.05 0.05,0.09 0.08,0.13z"/>
    <path class="fil2" d="M3.98 2.52l0 0c0.04,0.01 0.08,0.01 0.1,0.05 0.04,0.05 0.03,0.12 0.02,0.18 0,0.01 0,0.02 0,0.02l0 0.01c-0.02,-0.03 -0.02,-0.06 -0.03,-0.08 -0.02,-0.04 -0.04,-0.07 -0.07,-0.1 -0.01,-0.01 -0.02,-0.03 -0.04,-0.04 0.01,-0.01 0.01,-0.03 0.02,-0.04z"/>
    <path class="fil2" d="M2.42 2.57c0.02,-0.03 0.06,-0.01 0.09,-0.01 -0,0.03 -0.01,0.06 -0.03,0.08 -0.03,0.04 -0.05,0.09 -0.07,0.14 -0.01,-0.01 -0.01,-0.02 -0.02,-0.03 0,-0.06 -0.01,-0.13 0.03,-0.18z"/>
    <path class="fil2" d="M3.87 2.64c-0.02,-0.03 -0.05,-0.06 -0.04,-0.09 0,0 0,0.01 0,0.02 0.02,-0.01 0.05,-0.03 0.07,-0.01 0.07,0.05 0.05,0.14 0.03,0.21 -0.02,-0.04 -0.04,-0.09 -0.07,-0.12z"/>
    <path class="fil2" d="M2.3 2.91c0.05,-0 0.09,-0.05 0.14,-0.02 0.03,0.03 0.01,0.08 -0.02,0.1 -0.05,-0.02 -0.11,-0.03 -0.15,-0.07 0.01,-0 0.02,-0 0.03,-0.01z"/>
    <path class="fil2" d="M3.9 2.89c0.03,-0.03 0.07,-0.01 0.1,0l0 0c0,0 0,0.01 0,0.01 0.02,0 0.04,0 0.06,0.01 -0.04,0.04 -0.1,0.05 -0.15,0.06 -0.01,-0.02 -0.04,-0.06 -0.02,-0.08z"/>
    <path class="fil2" d="M2.41 3.29c0.02,-0.03 0.04,-0.06 0.07,-0.08 -0.02,0.06 -0.06,0.12 -0.1,0.17 0.03,-0.01 0.07,-0.02 0.1,-0.02 -0.01,0.01 -0.02,0.02 -0.04,0.03 -0.04,0.01 -0.07,0.02 -0.11,0.03 0.03,-0.04 0.06,-0.08 0.08,-0.12z"/>
    <path class="fil2" d="M3.89 3.25c0.04,0.05 0.09,0.11 0.13,0.16 -0.04,-0.01 -0.08,-0.02 -0.11,-0.04 0.02,0 0.04,0 0.06,0 -0.03,-0.04 -0.06,-0.08 -0.07,-0.13z"/>
    <path class="fil2" d="M2.65 3.86c0.1,-0.07 0.17,-0.16 0.24,-0.26 -0.01,0.03 -0.02,0.06 -0.04,0.08 -0.07,0.08 -0.14,0.16 -0.23,0.22 -0.02,-0.07 -0.01,-0.14 -0.01,-0.21 0,-0.01 0.01,-0.02 0.01,-0.02 0,0.06 0.01,0.12 0.03,0.19z"/>
    <path class="fil2" d="M3.5 3.67c0.07,0.06 0.12,0.14 0.2,0.19 0,-0.02 0.01,-0.05 0.02,-0.07 0.01,-0.01 0.01,-0.03 0.02,-0.04 0.01,0.05 0,0.11 -0,0.16 -0.09,-0.07 -0.18,-0.14 -0.23,-0.24z"/>
    <path class="fil2" d="M3.07 3.76c0.03,0.11 0.01,0.22 0.01,0.33 0.02,0.04 0.06,0.08 0.09,0.12 0.03,-0.04 0.06,-0.07 0.09,-0.11 0.01,-0.09 -0.01,-0.18 0.01,-0.27 0.01,0.09 0.01,0.19 0.02,0.28 -0.04,0.06 -0.08,0.13 -0.13,0.19 -0.01,-0.01 -0.02,-0.02 -0.02,-0.03 -0.02,-0.05 -0.05,-0.09 -0.08,-0.13 -0.02,-0.03 -0.01,-0.07 -0.01,-0.1 0.01,-0.07 0,-0.14 0,-0.21 0,-0.02 0,-0.05 0.01,-0.07z"/>
    <path class="fil3" d="M5.67 0.68c0.09,-0.1 0.18,-0.19 0.28,-0.28 -0.02,0.04 -0.04,0.08 -0.06,0.11 -0.05,0.06 -0.09,0.13 -0.14,0.2 -0.11,0.13 -0.23,0.26 -0.37,0.35 -0.17,0.11 -0.34,0.22 -0.54,0.24 -0.16,0.02 -0.32,0.02 -0.46,0.1 -0.13,0.06 -0.23,0.18 -0.23,0.32 -0,0.01 -0,0.02 -0,0.02 -0.02,-0.04 -0.02,-0.08 -0.02,-0.12 -0,-0.1 0.05,-0.21 0.13,-0.27 0.12,-0.08 0.27,-0.11 0.41,-0.11 0.16,-0 0.32,-0.06 0.46,-0.13 0.16,-0.08 0.31,-0.19 0.45,-0.31 0.04,-0.04 0.07,-0.08 0.11,-0.12z"/>
    <path class="fil3" d="M5.65 1.14c0.07,-0.05 0.13,-0.11 0.19,-0.17 -0,0.11 -0.01,0.22 -0.05,0.33l-0 0c-0.12,0.02 -0.24,-0 -0.35,-0.05l-0.01 -0c0.08,-0.01 0.16,-0.06 0.22,-0.1z"/>
    <path class="fil3" d="M2.83 1.21c0.07,-0.02 0.14,-0.03 0.22,-0.04 0.01,0 0.02,0 0.03,0 -0.1,0.02 -0.19,0.07 -0.26,0.14 0,-0.03 -0,-0.07 0.01,-0.1z"/>
    <path class="fil3" d="M3.69 1.19c0,-0.01 0.01,-0.02 0.01,-0.02 0.01,0.07 -0.03,0.14 -0.06,0.19 -0.06,0.1 -0.14,0.19 -0.23,0.27 -0.05,0.05 -0.1,0.09 -0.16,0.13 -0.01,0.01 -0.04,-0 -0.04,-0.02 -0.01,-0.05 0.02,-0.09 0.04,-0.13 -0,-0.01 -0.01,-0.02 -0.01,-0.02l-0 -0.01c0.01,0 0.02,0.01 0.03,0.01 0,0.02 -0.01,0.05 0.01,0.05 0.04,-0.02 0.08,-0.06 0.12,-0.09 0.09,-0.08 0.18,-0.17 0.25,-0.28 0.02,-0.03 0.03,-0.06 0.04,-0.1z"/>
    <path class="fil3" d="M3.73 1.42c0.11,0.1 0.12,0.27 0.06,0.4 -0.03,0.03 -0.06,0.05 -0.09,0.07 0.09,-0.14 0.1,-0.32 0.03,-0.46l-0 -0.01z"/>
    <path class="fil3" d="M5.17 1.56c0.15,0.03 0.31,0.01 0.46,-0.02 -0,0.06 -0.02,0.13 -0.05,0.19l-0 -0c-0.15,-0.01 -0.29,-0.06 -0.4,-0.16l-0.01 -0.01z"/>
    <path class="fil3" d="M4.77 1.71c0.05,0.02 0.09,0.06 0.14,0.08 0.16,0.07 0.34,0.09 0.51,0.09 -0.04,0.06 -0.09,0.11 -0.15,0.15 -0.19,-0.05 -0.34,-0.18 -0.49,-0.29 -0,-0 -0.01,-0.01 -0.01,-0.02z"/>
    <path class="fil3" d="M3.87 1.76c0.02,0.03 0.01,0.07 0,0.11 -0.03,0.16 -0.19,0.27 -0.35,0.26 -0.08,-0.01 -0.16,-0.04 -0.22,-0.09 -0.01,-0.05 0,-0.11 -0.04,-0.15 0.01,0 0.01,0 0.02,0.01 0.03,0.03 0.06,0.07 0.07,0.11 0.06,0.03 0.13,0.06 0.2,0.06 0.16,-0 0.31,-0.14 0.31,-0.3l0 -0.01z"/>
    <path class="fil3" d="M4.53 1.84c-0,-0 -0,-0.01 -0,-0.02 0.06,0.07 0.15,0.13 0.23,0.18 0.08,0.05 0.17,0.1 0.26,0.14 -0.04,0.05 -0.1,0.09 -0.17,0.11 -0.15,-0.1 -0.24,-0.25 -0.32,-0.41z"/>
    <path class="fil3" d="M3.15 1.92c0.04,-0 0.09,0.02 0.09,0.06 -0,0.08 -0,0.16 -0.06,0.22 -0.01,-0.01 -0.01,-0.01 -0.02,-0.02l0 -0c0.05,-0.08 0.05,-0.18 -0,-0.26z"/>
    <path class="fil3" d="M3.71 2.51c-0,-0.02 0,-0.03 0.01,-0.04 0.02,0.1 0.02,0.22 -0.03,0.31 -0.02,0.05 -0.06,0.09 -0.11,0.11 -0.02,-0.03 -0.04,-0.06 -0.06,-0.09 -0.07,0.08 -0.13,0.17 -0.18,0.26l-0.01 0c0.04,-0.14 0.1,-0.28 0.21,-0.38 0.02,0.03 0.04,0.06 0.06,0.09 0.08,-0.06 0.12,-0.16 0.12,-0.26z"/>
    <path class="fil3" d="M4.12 2.48c0.04,-0.02 0.09,0.01 0.11,0.05 0.03,0.05 0.01,0.12 -0.01,0.17 -0.01,0.01 -0.01,0.03 -0.03,0.04l0 -0.01c0.02,-0.06 0.03,-0.12 0.01,-0.18 -0.01,-0.03 -0.05,-0.05 -0.08,-0.06z"/>
    <path class="fil3" d="M3.98 2.52c0.04,-0.02 0.09,-0.02 0.12,0.01 0.01,0.02 0.03,0.04 0.04,0.06 -0.01,0.06 -0.01,0.13 -0.04,0.18 0,-0.01 0,-0.02 -0,-0.02 0.01,-0.06 0.03,-0.13 -0.02,-0.18 -0.02,-0.03 -0.06,-0.04 -0.1,-0.05z"/>
    <path class="fil3" d="M3.84 2.55c0.03,-0.05 0.09,-0.03 0.12,0.01 0.01,0.01 0.02,0.03 0.04,0.04 -0,0.06 -0.01,0.14 -0.06,0.19 0,-0 0,-0.01 0,-0.01 0.03,-0.07 0.04,-0.16 -0.03,-0.21 -0.02,-0.02 -0.05,0 -0.07,0.01 -0,-0 -0,-0.01 -0,-0.02z"/>
    <path class="fil3" d="M4.01 2.9c0.04,0.03 0.09,-0.01 0.13,-0.03 -0.01,0.09 -0.13,0.16 -0.21,0.12 0.05,-0.01 0.11,-0.02 0.15,-0.06 -0.02,-0 -0.04,-0 -0.06,-0.01 -0,-0 -0,-0.01 -0,-0.01 -0,-0 -0,-0 -0,-0.01z"/>
    <path class="fil3" d="M3.86 3.21c0.05,0.04 0.09,0.09 0.13,0.13 0.04,0.04 0.09,0.08 0.12,0.13 -0.1,-0.01 -0.19,-0.05 -0.26,-0.12 0.01,0.01 0.03,0.01 0.04,0.02 0.03,0.02 0.07,0.03 0.11,0.04 -0.04,-0.05 -0.08,-0.11 -0.13,-0.16 -0.01,-0.01 -0.02,-0.03 -0.03,-0.04z"/>
    <path class="fil3" d="M3.46 3.6c0.02,0.02 0.03,0.04 0.04,0.06 0.05,0.1 0.14,0.17 0.23,0.24 0.01,-0.05 0.01,-0.11 0,-0.16 -0.01,0.01 -0.01,0.03 -0.02,0.04 0.02,-0.04 0.01,-0.09 0.01,-0.13 0.06,0.09 0.05,0.21 0.05,0.32 -0.15,-0.08 -0.27,-0.22 -0.31,-0.38z"/>
    <path class="fil3" d="M3.28 3.76c0.02,0.12 0.03,0.24 0.06,0.36 -0.05,0.06 -0.1,0.13 -0.17,0.18l0 -0.01c0.05,-0.06 0.09,-0.12 0.13,-0.19 -0.01,-0.09 -0.01,-0.19 -0.02,-0.28 -0,-0.02 0,-0.04 0.01,-0.07z"/>
    <path class="fil4" d="M0.42 0.44c0.08,0.06 0.14,0.13 0.2,0.19 0.06,0.06 0.11,0.13 0.18,0.19 0.13,0.11 0.27,0.21 0.43,0.29 0.14,0.07 0.3,0.12 0.45,0.12 0.14,0.01 0.3,0.03 0.42,0.12 0.1,0.08 0.15,0.22 0.11,0.34 -0.02,-0.06 -0.04,-0.13 -0.09,-0.18 -0.08,-0.09 -0.19,-0.14 -0.3,-0.17 -0.13,-0.03 -0.26,-0.03 -0.38,-0.06 -0.12,-0.03 -0.24,-0.08 -0.34,-0.15 -0.09,-0.06 -0.19,-0.11 -0.27,-0.18 -0.09,-0.08 -0.17,-0.16 -0.24,-0.26 -0.06,-0.08 -0.13,-0.17 -0.17,-0.26z"/>
    <path class="fil4" d="M0.56 1.31c-0.05,-0.11 -0.06,-0.23 -0.06,-0.34 0.12,0.11 0.23,0.23 0.39,0.28 -0.1,0.05 -0.22,0.07 -0.33,0.05 0,0 0,0.01 0,0.02z"/>
    <path class="fil4" d="M3.2 1.16c0.11,0 0.21,0.02 0.31,0.05 0.02,0.03 0.01,0.06 0.01,0.09 -0.09,-0.07 -0.21,-0.11 -0.33,-0.14z"/>
    <path class="fil4" d="M2.6 1.42c0.04,0.04 0.07,0.08 0.1,0.12 -0.03,-0.01 -0.07,-0.02 -0.1,-0.03 -0.05,0.08 -0.05,0.18 -0.06,0.27 -0.03,-0.05 -0.03,-0.11 -0.03,-0.17 0.01,-0.07 0.04,-0.13 0.09,-0.19z"/>
    <path class="fil4" d="M0.71 1.54c0.08,0.01 0.16,0.03 0.24,0.04 0.07,0.01 0.14,-0 0.2,-0.01 -0.07,0.07 -0.16,0.11 -0.26,0.14 -0.05,0.01 -0.09,0.01 -0.14,0.03 -0.03,-0.06 -0.04,-0.13 -0.05,-0.19z"/>
    <path class="fil4" d="M2.85 1.55c0.07,0.04 0.13,0.1 0.22,0.12 0.01,-0.02 0.01,-0.03 0.02,-0.05 0.03,0.04 0.05,0.08 0.04,0.13 -0.02,0.03 -0.05,-0 -0.07,-0.02 -0.07,-0.06 -0.15,-0.11 -0.2,-0.19z"/>
    <path class="fil4" d="M1.45 1.78c0.02,-0.01 0.04,-0.01 0.06,-0.02 -0.07,0.08 -0.16,0.14 -0.26,0.19 -0.06,0.03 -0.12,0.06 -0.18,0.08 -0.06,-0.04 -0.11,-0.09 -0.15,-0.15 0.18,0 0.37,-0.02 0.54,-0.1z"/>
    <path class="fil4" d="M2.47 1.8c0.03,0.07 0.06,0.14 0.13,0.19 0.1,0.07 0.24,0.08 0.35,0.03 -0.05,-0.04 -0.11,-0.07 -0.15,-0.11 0.05,0 0.09,0.02 0.14,0.01 0.05,-0 0.08,-0.03 0.13,-0.04 -0.01,0.02 -0.02,0.04 -0.03,0.06 -0.01,0.03 0,0.06 -0.01,0.09 -0.09,0.06 -0.2,0.11 -0.31,0.08 -0.14,-0.03 -0.27,-0.16 -0.26,-0.31z"/>
    <path class="fil4" d="M1.77 1.87c0.01,-0.01 0.02,-0.01 0.03,-0.02 -0.03,0.07 -0.07,0.14 -0.11,0.2 -0.05,0.08 -0.12,0.14 -0.2,0.19 -0.06,-0.03 -0.12,-0.06 -0.16,-0.11 0.15,-0.07 0.31,-0.15 0.44,-0.26z"/>
    <path class="fil4" d="M2.11 2.53c0.02,-0.04 0.05,-0.06 0.09,-0.06 -0.03,0.03 -0.06,0.05 -0.07,0.09 -0.01,0.05 -0,0.11 0.01,0.16 -0.04,-0.06 -0.06,-0.13 -0.03,-0.19z"/>
    <path class="fil4" d="M2.24 2.52c0.04,-0.02 0.08,-0.02 0.11,-0.01 -0.03,0.02 -0.08,0.03 -0.1,0.06 -0.03,0.05 -0.02,0.11 -0.02,0.17 -0.02,-0.05 -0.03,-0.1 -0.03,-0.15 0.01,-0.02 0.03,-0.05 0.03,-0.07z"/>
    <path class="fil4" d="M2.39 2.56c0.03,-0.04 0.1,-0.05 0.12,0 -0.03,-0 -0.07,-0.02 -0.09,0.01 -0.05,0.05 -0.03,0.12 -0.03,0.18 -0.03,-0.04 -0.03,-0.1 -0.04,-0.15 0.01,-0.02 0.03,-0.03 0.04,-0.05z"/>
    <path class="fil4" d="M2.62 2.53c0.03,0.09 0.05,0.18 0.13,0.24 0.02,-0.03 0.04,-0.06 0.06,-0.09 0.1,0.1 0.18,0.23 0.19,0.37 -0.06,-0.08 -0.11,-0.17 -0.18,-0.25 -0.02,0.03 -0.04,0.06 -0.06,0.09 -0.12,-0.07 -0.17,-0.23 -0.14,-0.36z"/>
    <path class="fil4" d="M2.21 2.86c0.03,0.01 0.06,0.03 0.08,0.05 -0.01,0 -0.02,0 -0.03,0.01 0.04,0.04 0.09,0.05 0.15,0.07 -0.08,0.02 -0.19,-0.03 -0.2,-0.12z"/>
    <path class="fil4" d="M2.23 3.47c0.06,-0.06 0.12,-0.13 0.19,-0.18 -0.02,0.04 -0.05,0.08 -0.08,0.12 0.04,-0.01 0.08,-0.02 0.11,-0.03 -0.06,0.05 -0.14,0.09 -0.22,0.09z"/>
    <path class="fil4" d="M2.62 3.91c0.09,-0.06 0.17,-0.14 0.23,-0.22 -0.01,0.05 -0.04,0.09 -0.06,0.12 -0.06,0.07 -0.13,0.13 -0.21,0.18 -0.02,-0.1 -0.01,-0.2 0.03,-0.29 -0,0.07 -0.01,0.14 0.01,0.21z"/>
    <path class="fil4" d="M3.01 4.12c0.02,-0.1 0.03,-0.2 0.05,-0.29 -0,0.07 0,0.14 -0,0.21 -0,0.03 -0.01,0.07 0.01,0.1 0.03,0.04 0.06,0.09 0.08,0.13 -0.06,-0.04 -0.1,-0.1 -0.14,-0.15z"/>
   </g>
   <path class="fil5 str0" d="M2.8 1.62c-0.04,0.09 -0.01,0.17 0.08,0.24"/>
   <path class="fil5 str0" d="M3.54 1.63c0.04,0.08 0.01,0.16 -0.09,0.23"/>
   <path class="fil6" d="M2.8 1.62c-0.04,0.09 -0.01,0.17 0.08,0.24 0.04,0.01 0.08,0.01 0.12,-0.01 -0.02,-0.01 -0.03,-0.03 -0.05,-0.04l-0.08 -0.11c-0.02,-0.03 -0.04,-0.05 -0.06,-0.07z"/>
   <path class="fil6" d="M3.48 1.69l-0.08 0.11c-0.02,0.01 -0.03,0.03 -0.05,0.04 0.03,0.02 0.07,0.02 0.1,0.02 0.1,-0.07 0.13,-0.15 0.09,-0.23 -0.02,0.02 -0.04,0.04 -0.05,0.06zm-0.02 0.09c-0.01,0.02 -0.04,-0 -0.03,-0.02 0.01,-0.02 0.04,0 0.03,0.02z"/>
   <path class="fil6" d="M3.44 1.76c-0.01,0.02 0.02,0.04 0.03,0.02 0.01,-0.02 -0.02,-0.04 -0.03,-0.02z"/>
   <path class="fil7" d="M3.54 1.63c0.04,0.08 0.01,0.16 -0.09,0.23 0.02,-0 0.04,-0.01 0.06,-0.02 0.04,-0.02 0.07,-0.06 0.08,-0.1 0.01,-0.05 0,-0.1 -0.03,-0.14 -0.01,0.01 -0.02,0.02 -0.04,0.04z"/>
   <path class="fil7" d="M2.77 1.59c-0.03,0.05 -0.04,0.11 -0.02,0.16 0.02,0.05 0.07,0.09 0.13,0.1 -0.09,-0.07 -0.12,-0.15 -0.08,-0.24 -0.01,-0.01 -0.02,-0.02 -0.03,-0.03z"/>
  </g>
 </g>
</svg>
