<?xml version="1.0" encoding="UTF-8"?>
<!DOCTYPE svg PUBLIC "-//W3C//DTD SVG 1.1//EN" "http://www.w3.org/Graphics/SVG/1.1/DTD/svg11.dtd">
<!-- Creator: CorelDRAW 2018 (64-Bit) -->
<svg xmlns="http://www.w3.org/2000/svg" xml:space="preserve" width="7.9915in" height="8.23831in" version="1.1" style="shape-rendering:geometricPrecision; text-rendering:geometricPrecision; image-rendering:optimizeQuality; fill-rule:evenodd; clip-rule:evenodd"
viewBox="0 0 821.02 846.38"
 xmlns:xlink="http://www.w3.org/1999/xlink">
 <defs>
  <style type="text/css">
   <![CDATA[
    .str0 {stroke:#2B2A29;stroke-width:0.71;stroke-miterlimit:2.61313}
    .fil5 {fill:none}
    .fil4 {fill:#FEFEFE}
    .fil6 {fill:#C79933}
    .fil7 {fill:#FBEB58}
    .fil1 {fill:black;fill-rule:nonzero}
    .fil2 {fill:#575F5F;fill-rule:nonzero}
    .fil3 {fill:#C1272D;fill-rule:nonzero}
    .fil0 {fill:#C4C4C4;fill-rule:nonzero}
   ]]>
  </style>
 </defs>
 <g id="Layer_x0020_1">
  <metadata id="CorelCorpID_0Corel-Layer"/>
  <g id="_1007977216">
   <path class="fil0" d="M137 26.78c20.04,-15.63 44.49,-27.87 70.56,-26.28 18.27,0.34 34.39,12.18 44.71,26.5 2.83,14.94 10.66,27.9 17.15,41.41 15.32,-1.46 29.58,-7.67 44.74,-10.13 28.4,-4.69 57.63,-3.7 85.87,1.74 8.29,1.83 16.84,1.09 25.1,-0.62 28.83,-5.5 58.75,-5.72 87.58,-0.03 11.28,2.14 21.84,7.08 33.27,8.51 8.36,0.81 9.94,-8.45 13.08,-14.07 4.54,-8.58 7.52,-17.8 9.97,-27.18 11.09,-15.53 29.08,-26.56 48.5,-26.63 25.35,1.09 49.87,11.87 68.69,28.71 37.84,33.9 52.23,90.38 38.77,138.88 -2.77,11.77 -10.9,21.03 -16.16,31.66 2.8,9.32 9.88,16.37 15.47,24.08 36.66,47.53 66.33,100.75 84.47,158.08 8.2,29.61 15.47,60.71 10.72,91.56 -4.01,13.86 -6.4,28.77 -14.94,40.79 -7.64,11.28 -9.38,25.26 -15.6,37.28 -7.77,18.05 -20.04,33.62 -33.68,47.57 -3.67,0.25 -7.3,0.5 -10.94,0.71 -21.75,27.43 -40.89,56.85 -62.11,84.69 -6.24,-0.53 -13.14,-3.79 -19.04,-0.37 -21.62,12.4 -42,27.03 -64.68,37.53 -9.38,4.38 -18.33,9.57 -27.34,14.6 -4.57,-3.23 -11.96,-15.01 -16.9,-6.62 -13.3,27.5 -24.58,56.73 -44.77,80.16 -20.16,23.43 -50.7,36.94 -81.56,36.88 -23.8,-0.34 -48.62,2.61 -71.33,-6.4 -20.2,-6.52 -37.78,-19.79 -50.55,-36.63 -16.84,-23.92 -28.37,-50.98 -40.92,-77.27 -1.58,0.06 -4.75,0.16 -6.31,0.22 -2.73,3.26 -5.44,6.52 -8.11,9.82 -15.01,-6.49 -27.84,-16.84 -42.19,-24.54 -13.48,-7.42 -27.93,-13.17 -40.79,-21.78 -4.35,-2.58 -8.42,-5.93 -13.39,-7.3 -5.5,-0.03 -11,0.96 -16.5,0.53 -18.49,-25.23 -36.63,-50.8 -54.87,-76.24 -4.23,-7.18 -13.45,-6.52 -19.7,-10.69 -22,-20.32 -33.83,-48.5 -43.28,-76.27 -10.19,-13.61 -13.89,-30.45 -18.45,-46.54 -5.19,-33.58 3.26,-67.48 13.42,-99.36 19.95,-59.5 52.38,-114.33 91.56,-163.11 4.88,-5.41 5.56,-13.8 0.87,-19.51 -14.79,-20.82 -17.21,-47.38 -15.94,-72.17 3.57,-34.7 18.11,-69.59 45.52,-92.15zm-14.14 35.51l0 0c-17.37,28.55 -23.33,63.97 -16.16,96.65 3.32,15.75 12.33,31.25 27.77,37.69 -51.51,59.43 -94.67,128.16 -114.58,204.86 -5.5,23.55 -10.13,48.28 -5.28,72.36 3.39,-9.69 7.36,-19.17 12.36,-28.12 -1.21,21.72 0.65,43.53 4.63,64.9 4.63,24.3 16.31,46.63 30.85,66.42 -0.12,-10.56 0.09,-21.1 0.93,-31.6 4.82,20.57 18.45,37.22 30.17,54.28 11.4,16.62 23.58,32.71 34.89,49.43 -0.37,-3.64 -1.12,-10.91 -1.52,-14.54 12.21,22.28 33.93,36.6 55.3,49.03 -4.78,-8.89 -7.86,-18.52 -10.1,-28.3 13.92,21.06 32.37,38.77 54.03,51.79 -9.23,-17.58 -16.62,-36.54 -16.03,-56.73 15.53,16.87 31.47,33.52 49.74,47.5 16.78,12.83 21.16,34.67 30.63,52.51 10.47,19.82 19.45,41.35 36.26,56.85 21.47,20.97 53.13,29.21 82.52,25.85 29.02,3.42 59.87,-3.73 82.27,-23.11 19.01,-16.37 28.89,-40.08 40.02,-61.95 8.98,-17.46 13.7,-38.49 30.26,-50.8 18.02,-13.67 33.65,-30.17 48.96,-46.76 0.43,20.38 -6.18,40.2 -17.03,57.29 21.9,-13.08 40.89,-30.73 54.68,-52.23 -1.93,10.07 -4.97,19.88 -10.25,28.74 21.81,-13.39 45.27,-27.56 56.64,-51.64 -0.53,4.04 -1.55,12.12 -2.08,16.16 21.78,-34.21 50.95,-64.25 65.71,-102.53 0.06,9.76 0.09,19.54 0.4,29.3 30.14,-36.29 37.78,-85.66 34.61,-131.45 5.06,10.28 10,20.66 13.7,31.53 2.73,-21.65 0.78,-43.59 -3.82,-64.87 -18.33,-80.59 -63.69,-152.14 -116.72,-214.4 13.55,-5.81 22.8,-18.39 26.44,-32.44 7.92,-30.04 4.32,-62.85 -9.01,-90.84 -14.26,-30.35 -43.43,-54.28 -76.8,-59.59 -13.89,-2.64 -27.84,1.77 -39.18,9.69 7.21,1.03 14.48,1.99 21.75,2.61 -30.38,4.32 -45.3,36.66 -48.31,64 -38.18,-19.64 -82.36,-26.38 -124.71,-19.73 -12.18,1.27 -24.39,6.74 -36.63,2.86 -47.07,-10.41 -97.99,-5.69 -140.83,17.15 -2.27,-27.75 -18.24,-59.93 -48.59,-64.31 7.52,-0.65 15.01,-1.55 22.49,-2.49 -12.09,-8.67 -27.31,-12.58 -42,-9.38 -28.12,5.72 -53.53,23.77 -68.38,48.34z"/>
   <path class="fil0" d="M79.03 296.73c-3.36,35.73 -11.34,70.99 -12.05,107.03 5,-7.52 9.94,-15.04 14.94,-22.56 -4.54,37.19 -3.54,75.68 10.59,110.85 0.87,-13.92 0.81,-27.87 0.87,-41.82 12.12,25.69 22.46,53.78 44.55,72.89 -3.48,-10.38 -7.24,-20.63 -10.59,-31.04 13.3,10.1 24.3,23.05 38.59,31.88 9.44,6.18 20.16,9.94 30.73,13.64 -4.97,-6.9 -9.94,-13.79 -14.76,-20.78 26.94,9.69 56.11,22.49 84.94,12.3 14.23,-3.76 20.16,-18.33 27.74,-29.36 4.26,20.85 6.71,42 9.41,63.1 3.51,27.9 6.8,56.08 4.69,84.2 -3.36,-7.46 -4.97,-16.19 -11.28,-21.87 -10.87,-10.19 -24.23,-17.27 -37.87,-23.02 4.66,7.14 9.85,13.92 15.04,20.69 -23.39,-2.14 -45.02,-13.98 -62.82,-28.83 0.84,1.12 2.52,3.36 3.32,4.47l0.53 3.14c9.54,12.4 18.67,25.1 28.77,37.06 1.96,1.52 3.95,3.04 5.9,4.6 -32.9,-12.64 -60.74,-36.91 -82.46,-64.37 -0.9,17.62 2.98,34.8 7.05,51.76 -14.66,-14.51 -24.11,-33.03 -32.68,-51.54 -1.37,14.88 -1.43,29.82 -1.93,44.77 -12.55,-18.67 -21.93,-39.24 -29.45,-60.4 -2.24,7.64 -4.04,15.38 -5.5,23.24 -23.77,-26.35 -37.31,-59.81 -46.07,-93.73 -3.29,10.35 -6.68,20.66 -10.13,30.94 -8.85,-34.76 -9.07,-71.52 -4.85,-107.06 -5.22,3.11 -10.44,6.24 -15.69,9.29 4.26,-29.98 16.75,-57.72 28.09,-85.53 6.4,-15.13 12.21,-30.82 22.37,-43.93z"/>
   <path class="fil0" d="M742.84 318.36c-1.09,-6.4 -0.81,-12.92 -0.09,-19.32 10.81,14.2 16.4,31.35 23.36,47.57 10.53,25.88 22.31,51.91 25.23,80.03 -4.97,-3.32 -9.91,-6.77 -14.76,-10.16 3.23,35.76 3.14,72.2 -4.6,107.43 -4.1,-10 -7.46,-20.26 -11.68,-30.2 -6.99,34.39 -22.99,66.27 -44.8,93.64 -1.86,-8.02 -3.63,-16.03 -4.97,-24.11 -9.17,20.54 -17.4,41.63 -30.14,60.33 -1.15,-14.26 -0.31,-28.68 -2.76,-42.84 -8.26,18.05 -18.21,35.45 -32.13,49.83 4.23,-17.34 7.95,-34.95 7.52,-52.91 -20.94,29.79 -51.57,51.01 -83.29,67.92 14.63,-15.81 27.4,-33.31 39.46,-51.14 -18.55,14.07 -39.71,26.25 -63.32,28.52 4.91,-7.11 10.22,-13.89 15.47,-20.72 -13.61,5.25 -26.75,12.33 -37.53,22.28 -8.67,7.55 -9.76,19.73 -13.36,29.95 -3.17,-52.75 6.74,-105.17 14.23,-157.21 7.55,12.52 14.63,28.43 30.51,31.72 28.89,8.95 57.72,-3.63 84.07,-14.54 -5.47,7.36 -10.97,14.76 -16.28,22.24 10.84,-3.79 21.72,-7.89 31.38,-14.23 14.14,-8.92 24.98,-21.84 37.9,-32.25 -3.42,11.34 -7.61,22.37 -11.68,33.46 22.06,-19.6 33.68,-47.32 45.11,-73.82 0.87,13.67 1.18,27.37 1.58,41.07 5.78,-17.99 10.72,-36.41 12.3,-55.3 1.62,-18.49 -0.99,-36.97 -1.77,-55.43 4.69,7.27 9.44,14.51 14.35,21.65 -0.65,-28.05 -4.75,-55.86 -9.32,-83.48z"/>
   <path class="fil0" d="M462.82 339.92c9.2,-8.36 12.74,-20.72 14.63,-32.56l0.43 1.18c3.32,12.55 14.45,20.51 20.13,31.78 6.28,11.4 8.76,24.39 9.44,37.28 -0.68,1.06 -2.05,3.17 -2.77,4.23 -2.27,1.06 -4.5,0.96 -6.74,-0.28 -9.17,-4.85 -19.32,-7.27 -29.52,-8.82 16.37,3.45 27.5,16.68 42.5,22.8l1.46 0.65c2.83,10.69 2.05,21.78 -0.47,32.47 -25.01,-31.91 -66.49,-45.61 -105.82,-46.17 -38.43,1.65 -79.57,14.73 -103.33,46.76 -1.43,-9.51 -1.83,-19.08 -1.74,-28.64l0.71 -0.56c12.68,-10.03 25.63,-19.76 40.05,-27.18 -9.6,1.86 -18.7,5.5 -26.94,10.75 -1.71,0.19 -5.13,0.53 -6.84,0.72 -2.77,-27.09 10.22,-53.22 29.86,-71.24 3.76,11.96 8.73,24.61 19.85,31.53 19.45,12.99 44.09,22.87 67.51,15.47 13.58,-4.35 26.84,-10.63 37.56,-20.16z"/>
   <path class="fil1" d="M122.87 62.29c14.85,-24.58 40.26,-42.63 68.38,-48.34 14.7,-3.2 29.92,0.72 42,9.38 -7.49,0.93 -14.98,1.83 -22.49,2.49 30.35,4.38 46.32,36.57 48.59,64.31 42.84,-22.84 93.76,-27.56 140.83,-17.15 12.24,3.88 24.45,-1.58 36.63,-2.86 42.35,-6.65 86.52,0.09 124.71,19.73 3.01,-27.34 17.93,-59.68 48.31,-64 -7.27,-0.62 -14.54,-1.58 -21.75,-2.61 11.34,-7.92 25.29,-12.33 39.18,-9.69 33.37,5.31 62.54,29.24 76.8,59.59 13.33,27.99 16.93,60.8 9.01,90.84 -3.64,14.04 -12.89,26.63 -26.44,32.44 53.03,62.26 98.39,133.81 116.72,214.4 4.6,21.28 6.55,43.22 3.82,64.87 -3.7,-10.87 -8.64,-21.25 -13.7,-31.53 3.17,45.79 -4.47,95.16 -34.61,131.45 -0.31,-9.76 -0.34,-19.54 -0.4,-29.3 -14.76,38.28 -43.93,68.32 -65.71,102.53 0.53,-4.04 1.55,-12.12 2.08,-16.16 -11.37,24.08 -34.83,38.25 -56.64,51.64 5.28,-8.85 8.33,-18.67 10.25,-28.74 -13.8,21.5 -32.78,39.15 -54.68,52.23 10.84,-17.09 17.46,-36.91 17.03,-57.29 -15.32,16.59 -30.94,33.09 -48.96,46.76 -16.56,12.3 -21.28,33.34 -30.26,50.8 -11.12,21.87 -21,45.58 -40.02,61.95 -22.4,19.39 -53.25,26.53 -82.27,23.11 -29.39,3.36 -61.05,-4.88 -82.52,-25.85 -16.81,-15.5 -25.79,-37.03 -36.26,-56.85 -9.48,-17.83 -13.86,-39.67 -30.63,-52.51 -18.27,-13.98 -34.21,-30.63 -49.74,-47.5 -0.59,20.19 6.8,39.15 16.03,56.73 -21.65,-13.02 -40.11,-30.73 -54.03,-51.79 2.24,9.79 5.31,19.42 10.1,28.3 -21.37,-12.43 -43.09,-26.75 -55.3,-49.03 0.4,3.63 1.15,10.9 1.52,14.54 -11.31,-16.72 -23.49,-32.81 -34.89,-49.43 -11.71,-17.06 -25.35,-33.71 -30.17,-54.28 -0.84,10.5 -1.06,21.03 -0.93,31.6 -14.54,-19.79 -26.22,-42.13 -30.85,-66.42 -3.98,-21.37 -5.84,-43.19 -4.63,-64.9 -5,8.95 -8.98,18.42 -12.36,28.12 -4.85,-24.08 -0.22,-48.81 5.28,-72.36 19.91,-76.71 63.07,-145.43 114.58,-204.86 -15.44,-6.43 -24.45,-21.93 -27.77,-37.69 -7.18,-32.68 -1.21,-68.1 16.16,-96.65zm198 21.72l0 0c-43.74,5.47 -79.53,33.65 -111.75,61.58 -43.4,39.24 -83.88,82.15 -117.41,130.24 -4.35,6.83 -9.76,13.27 -12.68,20.91 -10.16,13.11 -15.97,28.8 -22.37,43.93 -11.34,27.81 -23.83,55.55 -28.09,85.53 5.25,-3.04 10.47,-6.18 15.69,-9.29 -4.23,35.54 -4.01,72.3 4.85,107.06 3.45,-10.28 6.83,-20.6 10.13,-30.94 8.76,33.93 22.31,67.39 46.07,93.73 1.46,-7.86 3.26,-15.6 5.5,-23.24 7.52,21.16 16.9,41.72 29.45,60.4 0.5,-14.94 0.56,-29.89 1.93,-44.77 8.58,18.52 18.02,37.03 32.68,51.54 -4.07,-16.96 -7.95,-34.14 -7.05,-51.76 21.72,27.46 49.55,51.73 82.46,64.37 -1.96,-1.55 -3.95,-3.08 -5.9,-4.6 -10.1,-11.96 -19.23,-24.67 -28.77,-37.06l-0.53 -3.14c-0.81,-1.12 -2.49,-3.36 -3.32,-4.47 17.8,14.85 39.43,26.69 62.82,28.83 -5.19,-6.77 -10.38,-13.55 -15.04,-20.69 13.64,5.75 27,12.83 37.87,23.02 6.31,5.69 7.92,14.42 11.28,21.87 -0.06,14.39 2.73,28.71 0.9,43.09 -0.99,24.82 0.78,55.3 24.48,69.72 20.23,9.35 42.31,2.36 62.54,-3.01 24.48,-7.3 47.38,10.5 72.05,7.46 18.14,-0.53 33.59,-14.51 38.18,-31.72 7.02,-25.45 2.61,-52.13 3.6,-78.14 3.6,-10.22 4.69,-22.4 13.36,-29.95 10.78,-9.94 23.92,-17.03 37.53,-22.28 -5.25,6.83 -10.56,13.61 -15.47,20.72 23.61,-2.27 44.77,-14.45 63.32,-28.52 -12.05,17.83 -24.82,35.32 -39.46,51.14 31.72,-16.9 62.35,-38.12 83.29,-67.92 0.43,17.96 -3.29,35.57 -7.52,52.91 13.92,-14.38 23.86,-31.78 32.13,-49.83 2.45,14.17 1.62,28.58 2.76,42.84 12.74,-18.7 20.97,-39.8 30.14,-60.33 1.34,8.08 3.11,16.09 4.97,24.11 21.81,-27.37 37.81,-59.25 44.8,-93.64 4.23,9.94 7.58,20.19 11.68,30.2 7.74,-35.23 7.83,-71.67 4.6,-107.43 4.85,3.39 9.79,6.84 14.76,10.16 -2.92,-28.12 -14.7,-54.15 -25.23,-80.03 -6.96,-16.22 -12.55,-33.37 -23.36,-47.57l0.03 -0.47c-27.09,-45.86 -63.29,-85.56 -100.57,-123.28 -28.4,-26.97 -57.23,-54.37 -91.25,-74.16 -43.19,-21.47 -94.04,-20.13 -140.3,-11.06 0.06,29.73 -0.19,59.47 0.09,89.17 -8.36,-8.76 -17.77,-16.62 -29.05,-21.34 7.86,-0.28 15.57,0.72 23.11,3.05 -7.77,-8.17 -18.05,-12.49 -28.71,-15.44 8.76,-0.81 17.55,-0.34 26.25,0.65 -11.87,-9.97 -26.59,-15.19 -42.03,-16.03 13.36,-2.8 26.94,-2.36 40.17,0.78 -14.94,-10.53 -32.12,-17.77 -50.67,-17.58 15.84,-4.47 32.12,-1.68 47.75,2.05 -17.52,-12.77 -39.12,-15.53 -60.15,-16.99 20.47,-4.97 41.57,-4.01 61.89,1.24 -23.64,-13.45 -51.36,-20.23 -78.45,-15.6z"/>
   <path class="fil1" d="M540.55 222.67c8.98,-3.51 18.8,-2.7 27.71,0.59 15.13,14.48 26.87,34.45 26.78,55.89 -3.04,-3.08 -6.06,-6.15 -9.1,-9.23 2.52,12.55 -0.4,26.6 6.83,37.9 13.11,22.62 31.19,42.19 42.04,66.18 7.3,16.81 5.06,35.42 5.25,53.19 5.16,-6.15 8.95,-13.27 12.12,-20.63 2.98,16.62 -1.49,34.95 -14.7,46.14 -16.19,14.01 -40.48,12.05 -58.81,3.57 -23.27,-10.38 -40.02,-30.35 -55.27,-50.05 0.78,20.26 -9.91,38.09 -13.02,57.66 -9.91,49.96 -16.22,101 -13.3,151.92 -0.9,30.14 5.87,60.12 3.05,90.22 -1.86,20.85 -18.52,39.39 -39.15,43.12 -13.36,2.83 -26.35,-3.17 -39.49,-4.78 -15.35,-1.18 -30.98,-0.65 -45.89,3.54 -16,5.19 -34.3,0.37 -46.01,-11.62 -11.12,-9.94 -15.41,-25.2 -15.57,-39.67 -0.65,-25.94 3.98,-51.67 3.95,-77.58 2.83,-56.23 -4.1,-112.56 -16.28,-167.36 -4.57,-14.91 -10.87,-29.64 -9.63,-45.64 -16.87,20.47 -34.42,42.25 -60.09,51.98 -17.86,7.15 -41.17,7.8 -55.74,-6.49 -12.3,-11.09 -16.75,-28.77 -13.36,-44.71 2.92,7.52 6.8,14.73 12.58,20.5 -1.03,-18.42 -2.52,-37.78 5.22,-55.08 9.48,-19.76 23.7,-36.66 35.51,-55.02 4.63,-7.33 10.22,-14.88 10.56,-23.92 0.59,-8.58 1.55,-17.12 3.35,-25.51 -2.39,2.92 -4.85,5.78 -7.27,8.7l-4.16 -1.06c3.7,-17.4 10.94,-34.49 23.12,-47.69 7.98,-8.36 20.6,-8.95 31.04,-5.44 32.25,7.46 52.94,35.85 71.58,60.89 5.28,-5.47 11.25,-10.19 17.71,-14.14 -3.64,-15.01 -9.32,-29.61 -19.05,-41.82 16.96,6.12 27.65,21.47 37.47,35.73 19.14,-2.7 38.71,-2.61 57.79,0.75 6.49,-6.28 13.73,-12.24 22.77,-14.32 -5.1,5.1 -9.13,11.09 -12.46,17.46 7.89,4.32 15.35,9.48 21.31,16.28 19.14,-24.26 38.87,-52.51 70.59,-60.46zm-158.23 49.27l0 0c-14.82,2.98 -31.38,11.34 -35.11,27.34 -3.73,15.38 4.6,32.81 18.49,40.3 17.93,10.72 40.08,19.14 60.77,11.15 15.84,-6.37 34.64,-14.32 39.99,-32.19 6.77,-14.73 -0.84,-32.87 -15.07,-39.86 -20.91,-11.25 -46.26,-9.54 -69.07,-6.74zm-128.56 33.62l0 0c19.14,-7.24 38.8,-13.8 59.47,-14.6 -7.8,-12.15 -23.15,-20.88 -37.53,-15.29 -12.15,5.06 -18.77,17.77 -21.93,29.89zm246.43 -14.88l0 0c20.54,2.14 41.29,6.28 59.59,16.28 -2.67,-13.17 -9.85,-27 -23.27,-31.69 -14.04,-4.78 -28.52,3.98 -36.32,15.41zm-200.33 60.8l0 0c-5.72,14.66 -3.48,30.6 -3.14,45.92 3.57,-4.16 7.33,-8.11 11.31,-11.84l0 -1.24c1.71,-0.19 5.13,-0.53 6.84,-0.72 -5.87,4.13 -9.97,10.07 -13.11,16.44l-0.71 0.56c-0.09,9.57 0.31,19.14 1.74,28.64 23.77,-32.03 64.9,-45.11 103.33,-46.76 39.33,0.56 80.81,14.26 105.82,46.17 2.52,-10.69 3.29,-21.78 0.47,-32.47l-1.46 -0.65c-3.6,-5.28 -7.89,-10.1 -12.99,-13.98 2.24,1.24 4.47,1.34 6.74,0.28l-0.99 1.55c4.88,4.1 9.69,8.36 14.41,12.68 0.65,-15.57 2.3,-31.94 -3.79,-46.76 -7.15,-17.09 -19.95,-32.03 -36.44,-40.76l-0.43 -1.18c-1.9,11.84 -5.44,24.2 -14.63,32.56 -10.72,9.54 -23.98,15.81 -37.56,20.16 -23.43,7.39 -48.06,-2.49 -67.51,-15.47 -11.12,-6.93 -16.09,-19.57 -19.85,-31.53l2.24 -2.45c-1.27,-0.19 -3.85,-0.53 -5.13,-0.71 -16.44,8.64 -28.68,24.36 -35.14,41.57zm91.12 41.13l0 0c-18.42,2.17 -37.25,6.77 -52.51,17.8 9.72,7.27 21.34,11.15 33.12,13.61 33.62,5.59 68.66,0.25 99.36,-14.42 -0.4,-1.31 -1.24,-3.85 -1.68,-5.16 -24.89,-8.98 -51.67,-16.56 -78.29,-11.84zm-70.87 37.19l0 0c3.23,19.11 10.59,37.34 21.5,53.34 0.56,-18.55 1.77,-37.34 8.42,-54.87 -6.53,-3.42 -13.08,-6.74 -19.57,-10.22 -3.48,3.88 -6.9,7.83 -10.35,11.74zm142.26 -1.68l0 0c6.62,17.59 7.67,36.41 8.42,54.96 10.75,-16.09 18.36,-34.21 21.41,-53.38 -3.42,-3.85 -6.77,-7.67 -10.16,-11.5 -6.56,3.32 -13.14,6.55 -19.67,9.91zm-106.63 2.55l0 0c3.17,9.13 7.36,17.9 12.52,26.07 3.29,-3.76 6.62,-7.46 9.88,-11.22 3.95,5 8.02,9.91 12.18,14.76 5.28,-4.69 10.63,-9.29 15.97,-13.92 4.82,4.1 9.6,8.26 14.51,12.3 3.88,-5.28 7.55,-10.75 11.93,-15.69 6.59,-1.21 9.76,7.49 14.6,10.81 4.26,-7.67 8.02,-15.63 10.5,-24.05 -21.28,2.49 -42.41,7.58 -63.97,6.52 -12.83,-0.81 -25.51,-3.11 -38.12,-5.59zm-10.04 126.14l0 0c-0.68,20.94 6.49,41.79 2.86,62.79 -2.02,13.33 -9.29,25.57 -9.76,39.15 4.01,13.64 12.74,25.2 19.64,37.44 1.18,-0.31 3.51,-0.96 4.66,-1.31 2.05,-3.54 4.1,-7.08 6.15,-10.59 3.73,3.57 7.36,7.24 10.9,11.03 1.52,0.12 4.57,0.37 6.12,0.5 4.29,-4.07 8.67,-8.02 13.17,-11.84 2.45,3.98 4.91,7.95 7.39,11.93 1.46,-0.19 4.41,-0.59 5.9,-0.78 2.55,-3.42 5.13,-6.8 7.7,-10.19 1.27,0.15 3.82,0.5 5.06,0.68 2.95,3.63 5.93,7.27 8.92,10.94 4.1,-5.16 8.14,-10.31 12.24,-15.47 3.48,4.16 6.99,8.36 10.47,12.55 6.93,-11.12 14.67,-22.06 18.89,-34.55 -0.93,-15.97 -9.29,-30.48 -11.09,-46.32 0.84,-16.5 2.95,-32.9 4.41,-49.34 1.43,-11.96 -8.54,-20.82 -16.4,-28.24 -11.93,-8.85 -27.5,-3.14 -39.3,2.95 -4.16,21.25 -1.49,43.15 -5.97,64.37 -0.75,-21.5 -2.3,-43.22 -6.46,-64.31 -11.81,-4.69 -26.07,-12.33 -38.03,-3.82 -7.52,5.84 -14.04,13.48 -17.49,22.43zm-17.68 99.01l0 0c-7.52,22.24 -9.66,49.06 2.8,69.9 11.12,11.99 26.78,-5.28 22.59,-17.74 -6,-18.45 -19.7,-33.43 -25.38,-52.16zm159.16 -0.12l0 0c-6.15,15.16 -14.42,29.27 -22.62,43.37 -5.44,9.26 -4.47,21.69 3.76,28.99 7.89,4.63 16.9,-0.53 19.36,-8.67 7.49,-20.38 5.56,-43.22 -0.5,-63.69zm-51.95 55.64l0 0c-5.37,-4.29 -9.23,-13.27 -16.5,-13.61 -3.6,5.22 -6.77,10.69 -10,16.12 -4.04,-5.34 -7.74,-10.94 -11.12,-16.71 -4.26,4.97 -8.7,9.76 -13.14,14.57 -4.41,-5.06 -8.79,-10.13 -13.08,-15.25 -3.57,5.5 -6.96,11.12 -10.59,16.62 9.13,6.18 19.73,9.26 30.35,11.84 22.24,4.01 46.17,-1.46 64.28,-14.94 -1.96,-5.59 -4.26,-11 -6.4,-16.5 -4.78,5.81 -9.2,11.9 -13.79,17.86z"/>
   <path class="fil1" d="M365.17 288.84c12.09,-3.95 29.42,-2.61 35.14,10.63 5.22,12.09 3.29,32.62 -12.68,34.86 -16.28,3.2 -26.78,-14.26 -24.23,-28.64 -3.6,0.87 -7.21,1.74 -10.81,2.61 2.89,-7.11 4.72,-16.12 12.58,-19.45z"/>
   <path class="fil1" d="M420.04 291.86c9.88,-6.83 24.2,-7.89 33.65,0.31 5.75,4.5 7.02,12.02 8.86,18.64 -3.54,-2.21 -7.08,-4.44 -10.59,-6.68 0.93,10.53 -1.62,23.39 -12.15,28.37 -9.38,5.44 -22.9,0.43 -26.07,-10.07 -4.29,-10.35 -1.27,-22.62 6.31,-30.57z"/>
   <path class="fil2" d="M382.32 271.94c22.8,-2.8 48.16,-4.5 69.07,6.74 14.23,6.99 21.84,25.13 15.07,39.86 -5.34,17.86 -24.14,25.82 -39.99,32.19 -20.69,7.98 -42.84,-0.44 -60.77,-11.15 -13.89,-7.49 -22.21,-24.92 -18.49,-40.3 3.73,-16 20.29,-24.36 35.11,-27.34zm-17.15 16.9l0 0c-7.86,3.32 -9.69,12.33 -12.58,19.45 3.6,-0.87 7.21,-1.74 10.81,-2.61 -2.55,14.38 7.95,31.84 24.23,28.64 15.97,-2.24 17.9,-22.77 12.68,-34.86 -5.72,-13.23 -23.05,-14.57 -35.14,-10.63zm54.87 3.01l0 0c-7.58,7.95 -10.59,20.23 -6.31,30.57 3.17,10.5 16.68,15.5 26.07,10.07 10.53,-4.97 13.08,-17.83 12.15,-28.37 3.51,2.24 7.05,4.47 10.59,6.68 -1.83,-6.62 -3.11,-14.14 -8.86,-18.64 -9.44,-8.2 -23.77,-7.15 -33.65,-0.31z"/>
   <path class="fil3" d="M390.99 392.61c26.63,-4.72 53.41,2.86 78.29,11.84 0.44,1.3 1.27,3.85 1.68,5.16 -30.7,14.66 -65.74,20.01 -99.36,14.42 -11.78,-2.45 -23.4,-6.34 -33.12,-13.61 15.26,-11.03 34.08,-15.63 52.51,-17.8z"/>
   <path class="fil3" d="M345.72 556.81c3.45,-8.95 9.97,-16.59 17.49,-22.43 11.96,-8.51 26.22,-0.87 38.03,3.82 4.16,21.09 5.72,42.81 6.46,64.31 4.47,-21.22 1.8,-43.12 5.97,-64.37 11.81,-6.09 27.37,-11.81 39.3,-2.95 7.86,7.42 17.83,16.28 16.4,28.24 -1.46,16.44 -3.57,32.84 -4.41,49.34 1.8,15.84 10.16,30.35 11.09,46.32 -4.22,12.49 -11.96,23.43 -18.89,34.55 -3.48,-4.19 -6.99,-8.39 -10.47,-12.55 -4.1,5.16 -8.14,10.31 -12.24,15.47 -2.98,-3.67 -5.96,-7.3 -8.92,-10.94 -1.24,-0.19 -3.79,-0.53 -5.06,-0.68 -2.58,3.39 -5.16,6.77 -7.7,10.19 -1.49,0.19 -4.44,0.59 -5.9,0.78 -2.49,-3.98 -4.94,-7.95 -7.39,-11.93 -4.51,3.82 -8.89,7.77 -13.17,11.84 -1.55,-0.12 -4.6,-0.37 -6.12,-0.5 -3.54,-3.79 -7.18,-7.46 -10.9,-11.03 -2.05,3.51 -4.1,7.05 -6.15,10.59 -1.15,0.34 -3.48,0.99 -4.66,1.31 -6.9,-12.24 -15.63,-23.8 -19.64,-37.44 0.47,-13.58 7.74,-25.82 9.76,-39.15 3.63,-21 -3.54,-41.85 -2.86,-62.79z"/>
   <path class="fil4" d="M448.65 266.85c7.89,4.32 15.35,9.48 21.31,16.28 19.14,-24.26 38.87,-52.51 70.59,-60.46 8.98,-3.51 18.8,-2.7 27.71,0.59 15.13,14.48 26.87,34.45 26.78,55.89 -3.04,-3.08 -6.06,-6.15 -9.1,-9.23 2.52,12.55 -0.4,26.59 6.83,37.9 13.11,22.62 31.19,42.19 42.04,66.18 7.3,16.81 5.06,35.42 5.25,53.19 5.16,-6.15 8.95,-13.27 12.12,-20.63 2.98,16.62 -1.49,34.95 -14.7,46.14 -16.19,14.01 -40.48,12.05 -58.81,3.57 -23.27,-10.38 -40.02,-30.35 -55.27,-50.05 0.78,20.26 -9.91,38.09 -13.02,57.66 -9.91,49.96 -16.22,101 -13.3,151.92 -0.9,30.14 5.87,60.12 3.05,90.22 -1.86,20.85 -18.52,39.39 -39.15,43.12 -13.36,2.83 -26.35,-3.17 -39.49,-4.78 -15.35,-1.18 -30.97,-0.65 -45.89,3.54 -16,5.19 -34.3,0.37 -46.01,-11.62 -11.12,-9.94 -15.41,-25.2 -15.57,-39.67 -0.65,-25.94 3.98,-51.67 3.95,-77.58 2.83,-56.23 -4.1,-112.56 -16.28,-167.37 -4.57,-14.91 -10.87,-29.64 -9.63,-45.64 -16.87,20.47 -34.42,42.25 -60.09,51.98 -17.86,7.15 -41.17,7.8 -55.74,-6.49 -12.3,-11.09 -16.75,-28.77 -13.36,-44.71 2.92,7.52 6.8,14.73 12.58,20.5 -1.02,-18.42 -2.52,-37.78 5.22,-55.08 9.48,-19.76 23.7,-36.66 35.51,-55.02 4.63,-7.33 10.22,-14.88 10.56,-23.92 0.59,-8.58 1.55,-17.12 3.35,-25.51 -2.39,2.92 -4.85,5.78 -7.27,8.7l-4.16 -1.06c3.7,-17.4 10.94,-34.49 23.12,-47.69 7.98,-8.36 20.6,-8.95 31.04,-5.44 32.25,7.46 52.94,35.85 71.58,60.89 5.28,-5.47 11.25,-10.19 17.71,-14.14 -3.64,-15.01 -9.32,-29.61 -19.05,-41.82 16.96,6.12 27.65,21.47 37.47,35.73 19.14,-2.7 38.71,-2.61 57.79,0.75 6.49,-6.28 13.73,-12.24 22.77,-14.32 -5.1,5.1 -9.13,11.09 -12.46,17.46zm-37.99 -176.78c0.06,29.73 -0.19,59.47 0.09,89.17 -8.36,-8.76 -17.77,-16.62 -29.05,-21.34 7.86,-0.28 15.57,0.72 23.11,3.05 -7.77,-8.17 -18.05,-12.49 -28.71,-15.44 8.76,-0.81 17.55,-0.34 26.25,0.65 -11.87,-9.97 -26.59,-15.19 -42.03,-16.03 13.36,-2.8 26.94,-2.36 40.17,0.78 -14.94,-10.53 -32.12,-17.77 -50.67,-17.58 15.84,-4.47 32.12,-1.68 47.75,2.05 -17.52,-12.77 -39.12,-15.53 -60.15,-16.99 20.47,-4.97 41.57,-4.01 61.89,1.24 -23.64,-13.45 -51.36,-20.23 -78.45,-15.6 -43.74,5.47 -79.53,33.65 -111.75,61.58 -43.4,39.24 -83.88,82.15 -117.41,130.24 -4.35,6.83 -9.76,13.27 -12.68,20.91 -3.36,35.73 -11.34,70.99 -12.05,107.03 5,-7.52 9.94,-15.04 14.94,-22.56 -4.54,37.19 -3.54,75.68 10.59,110.85 0.87,-13.92 0.81,-27.87 0.87,-41.82 12.12,25.69 22.46,53.78 44.55,72.89 -3.48,-10.38 -7.24,-20.63 -10.59,-31.04 13.3,10.1 24.3,23.05 38.59,31.88 9.44,6.18 20.16,9.94 30.73,13.64 -4.97,-6.9 -9.94,-13.79 -14.76,-20.78 26.94,9.69 56.11,22.49 84.94,12.3 14.23,-3.76 20.16,-18.33 27.74,-29.36 4.26,20.85 6.71,42 9.41,63.1 3.51,27.9 6.8,56.08 4.69,84.2 -0.06,14.39 2.73,28.71 0.9,43.09 -0.99,24.82 0.78,55.3 24.48,69.72 20.23,9.35 42.31,2.36 62.54,-3.01 24.48,-7.3 47.38,10.5 72.05,7.46 18.14,-0.53 33.59,-14.51 38.18,-31.72 7.02,-25.45 2.61,-52.13 3.6,-78.14 -3.17,-52.75 6.74,-105.17 14.23,-157.21 7.55,12.52 14.63,28.43 30.51,31.72 28.89,8.95 57.72,-3.63 84.07,-14.54 -5.47,7.36 -10.97,14.76 -16.28,22.24 10.84,-3.79 21.72,-7.89 31.38,-14.23 14.14,-8.92 24.98,-21.84 37.9,-32.25 -3.42,11.34 -7.61,22.37 -11.68,33.46 22.06,-19.6 33.68,-47.32 45.11,-73.82 0.87,13.67 1.18,27.37 1.58,41.07 5.78,-17.99 10.72,-36.41 12.3,-55.3 1.62,-18.48 -0.99,-36.97 -1.77,-55.42 4.69,7.27 9.44,14.51 14.35,21.65 -0.65,-28.05 -4.75,-55.86 -9.32,-83.48 -1.09,-6.4 -0.81,-12.92 -0.09,-19.32l0.03 -0.47c-27.09,-45.86 -63.29,-85.56 -100.57,-123.28 -28.4,-26.97 -57.23,-54.37 -91.25,-74.16 -43.19,-21.47 -94.04,-20.13 -140.3,-11.06z"/>
   <path class="fil4" d="M536.51 275.27c-14.04,-4.78 -28.52,3.98 -36.32,15.41 20.54,2.14 41.29,6.28 59.59,16.28 -2.67,-13.17 -9.85,-27 -23.27,-31.69z"/>
   <path class="fil4" d="M514.33 349.3c-7.15,-17.09 -19.95,-32.03 -36.44,-40.76 3.32,12.55 14.45,20.51 20.13,31.78 6.28,11.4 8.76,24.39 9.44,37.28 -0.68,1.06 -2.05,3.17 -2.77,4.23l-0.99 1.55c4.88,4.1 9.69,8.36 14.41,12.68 0.65,-15.57 2.3,-31.94 -3.79,-46.76z"/>
   <path class="fil4" d="M308.03 384.32c-2.77,-27.09 10.22,-53.22 29.86,-71.24l2.24 -2.45c-1.27,-0.19 -3.85,-0.53 -5.13,-0.71 -16.44,8.64 -28.68,24.36 -35.14,41.57 -5.72,14.66 -3.48,30.6 -3.14,45.92 3.57,-4.16 7.33,-8.11 11.31,-11.84l0 -1.24z"/>
   <path class="fil4" d="M253.76 305.56c19.14,-7.24 38.8,-13.8 59.47,-14.6 -7.8,-12.15 -23.15,-20.88 -37.53,-15.29 -12.15,5.06 -18.77,17.77 -21.93,29.89z"/>
   <path class="fil4" d="M314.87 383.6c-5.87,4.13 -9.97,10.07 -13.11,16.44 12.68,-10.03 25.63,-19.76 40.05,-27.18 -9.6,1.86 -18.7,5.5 -26.94,10.75z"/>
   <path class="fil4" d="M350.04 428.28c-6.53,-3.42 -13.08,-6.74 -19.57,-10.22 -3.48,3.88 -6.9,7.83 -10.35,11.74 3.23,19.11 10.59,37.34 21.5,53.34 0.56,-18.55 1.77,-37.34 8.42,-54.87z"/>
   <path class="fil4" d="M393.88 436.26c-12.83,-0.81 -25.51,-3.11 -38.12,-5.59 3.17,9.13 7.36,17.9 12.52,26.07 3.29,-3.76 6.62,-7.46 9.88,-11.22 3.95,5 8.02,9.91 12.18,14.76 5.28,-4.69 10.63,-9.29 15.97,-13.92 4.82,4.1 9.6,8.26 14.51,12.3 3.88,-5.28 7.55,-10.75 11.93,-15.69 6.59,-1.21 9.76,7.49 14.6,10.81 4.26,-7.67 8.02,-15.63 10.5,-24.05 -21.28,2.49 -42.41,7.58 -63.97,6.52z"/>
   <path class="fil4" d="M462.38 428.12c6.62,17.58 7.67,36.41 8.42,54.96 10.75,-16.09 18.36,-34.21 21.41,-53.38 -3.42,-3.85 -6.77,-7.67 -10.16,-11.49 -6.56,3.32 -13.14,6.55 -19.67,9.91z"/>
   <path class="fil4" d="M468.44 372.73c16.37,3.45 27.5,16.68 42.5,22.8 -3.6,-5.28 -7.89,-10.1 -12.99,-13.98 -9.17,-4.85 -19.32,-7.27 -29.52,-8.82z"/>
   <path class="fil4" d="M487.2 655.7c-6.15,15.16 -14.42,29.27 -22.62,43.37 -5.44,9.26 -4.47,21.69 3.76,28.99 7.89,4.63 16.9,-0.53 19.36,-8.67 7.49,-20.38 5.56,-43.22 -0.5,-63.69z"/>
   <path class="fil4" d="M455.45 709.97c-1.96,-5.59 -4.26,-11 -6.4,-16.5 -4.78,5.81 -9.2,11.9 -13.79,17.86 -5.37,-4.29 -9.23,-13.27 -16.5,-13.61 -3.6,5.22 -6.77,10.69 -10,16.12 -4.04,-5.34 -7.74,-10.94 -11.12,-16.71 -4.26,4.97 -8.7,9.76 -13.14,14.57 -4.41,-5.06 -8.79,-10.13 -13.08,-15.25 -3.57,5.5 -6.96,11.12 -10.59,16.62 9.13,6.18 19.73,9.26 30.35,11.84 22.24,4.01 46.17,-1.46 64.28,-14.94z"/>
   <path class="fil4" d="M353.42 707.99c-6,-18.45 -19.7,-33.43 -25.38,-52.16 -7.52,22.24 -9.66,49.06 2.8,69.9 11.12,11.99 26.78,-5.28 22.59,-17.74z"/>
   <path class="fil5 str0" d="M509.15 291.75c14.68,-13.13 29.41,-13.78 44.22,-1.94"/>
   <path class="fil6" d="M509.15 291.75c14.68,-13.13 29.41,-13.78 44.22,-1.94 -3.9,-6.54 -9.42,-11.94 -16.85,-14.54 -14.04,-4.78 -28.52,3.98 -36.32,15.41 2.98,0.31 5.97,0.66 8.96,1.07z"/>
   <path class="fil7" d="M553.36 289.81c-14.8,-11.84 -29.54,-11.19 -44.22,1.94 17.56,2.4 34.99,6.66 50.63,15.21 -1.19,-5.88 -3.28,-11.88 -6.42,-17.15z"/>
   <path class="fil6" d="M304.56 291.84c-14.39,-13.44 -29.11,-14.4 -44.16,-2.88 4.04,-6.46 9.67,-11.74 17.16,-14.18 14.14,-4.49 28.43,4.58 35.98,16.18 -2.99,0.25 -5.98,0.54 -8.98,0.88z"/>
   <path class="fil7" d="M260.4 288.97c15.05,-11.52 29.77,-10.56 44.16,2.88 -17.32,2.42 -34.39,6.92 -50.94,14.13 1.32,-5.85 3.53,-11.81 6.78,-17.01z"/>
  </g>
 </g>
</svg>
