<?xml version="1.0" encoding="UTF-8"?>
<!DOCTYPE svg PUBLIC "-//W3C//DTD SVG 1.1//EN" "http://www.w3.org/Graphics/SVG/1.1/DTD/svg11.dtd">
<!-- Creator: CorelDRAW 2018 (64-Bit) -->
<svg xmlns="http://www.w3.org/2000/svg" xml:space="preserve" width="9.81669in" height="8.33065in" version="1.1" style="shape-rendering:geometricPrecision; text-rendering:geometricPrecision; image-rendering:optimizeQuality; fill-rule:evenodd; clip-rule:evenodd"
viewBox="0 0 1141.32 968.54"
 xmlns:xlink="http://www.w3.org/1999/xlink">
 <defs>
  <style type="text/css">
   <![CDATA[
    .str0 {stroke:white;stroke-width:9.15;stroke-miterlimit:2.61313}
    .str1 {stroke:#2B2A29;stroke-width:0.81;stroke-miterlimit:2.61313}
    .fil4 {fill:none}
    .fil3 {fill:#FEFEFE}
    .fil5 {fill:#C79933}
    .fil6 {fill:#FBEB58}
    .fil1 {fill:black;fill-rule:nonzero}
    .fil0 {fill:#025798;fill-rule:nonzero}
    .fil2 {fill:#E63423;fill-rule:nonzero}
   ]]>
  </style>
 </defs>
 <g id="Layer_x0020_1">
  <metadata id="CorelCorpID_0Corel-Layer"/>
  <g id="_986371856">
   <g>
    <g>
     <g>
      <g>
       <path class="fil0" d="M320.87 42.21c24.54,-10.67 50.67,-18.48 77.53,-19.66 10.23,0.26 20.44,1.69 30.41,4.03 -0.02,0.68 -0.06,2.04 -0.07,2.72 -5.97,2.32 -12.09,4.28 -17.92,6.96 -3.51,1.53 -7.3,3.4 -11.23,2.32 -10.32,-2.44 -20.95,-0.47 -31.11,1.68 -9.44,2.17 -18.77,4.9 -27.72,8.63 -7.24,3.1 -14.95,5.1 -21.88,8.91 -5.39,2.93 -11.11,5.24 -16.31,8.52 -3.51,2.2 -7.24,4.01 -11.06,5.59 -5.33,2.2 -10.24,5.27 -15.45,7.75 -12.48,5.97 -24.72,12.44 -36.97,18.87 -11.33,5.26 -22.23,11.37 -33.55,16.62 -8.28,4.31 -16.99,7.72 -25.37,11.81 -7.5,3.69 -15.42,6.38 -23.23,9.31 -3.82,1.46 -7.85,2.18 -11.9,2.59 0.03,-0.56 0.08,-1.68 0.11,-2.24 4.06,-1.68 8.08,-3.46 11.98,-5.46 6.01,-3.09 12.38,-5.44 18.35,-8.61 7.82,-4.26 15.89,-8.05 23.58,-12.56 12.59,-6.4 24.52,-14 36.83,-20.91 9.6,-5.11 18.55,-11.35 28.27,-16.25 13.46,-8.13 28.07,-14.23 41.11,-23.06 4.86,-3.17 10.3,-5.28 15.59,-7.57z"/>
       <path class="fil0" d="M450.22 39.45c16.85,-4.44 34.12,-7.29 51.48,-8.68 12.26,-0.18 24.52,-0.21 36.77,0.02 16.08,1.38 32.01,4.37 47.48,8.96 14.65,3.98 28.51,10.23 42.34,16.4 9.94,4.67 19.2,10.64 28.86,15.85 2.53,1.17 4,3.59 5.33,5.9 -7.34,0.1 -14.7,1.03 -21.76,3.09 -4.22,1.21 -7.79,4.01 -12.02,5.13 -3.22,-0.51 -6.11,-2.17 -9.24,-3.03 -7.4,-2.11 -15.22,-2.87 -22.86,-1.85 -9.32,1.46 -18.84,2.51 -27.68,6 -4.02,1.63 -8.1,3.14 -12.23,4.5 -6.19,1.99 -11.43,6.39 -18.02,7.22 6.43,-10.15 16.45,-17.29 26.61,-23.35 6.69,-4.39 14.79,-5.37 22.3,-7.63 6.38,-1.94 13.09,-1.63 19.62,-2.49 -1.5,-2.53 -3.86,-4.33 -6.72,-5.02 -13.03,-3.74 -25.65,-9.1 -39.18,-10.85 -9.3,-1.05 -18.52,-3.32 -27.94,-3.04 -14.34,0.06 -28.72,-0.73 -43,0.73 -15.88,0.89 -31.55,3.72 -47.19,6.45 -12.78,3.09 -25.84,5.02 -38.38,9.06 -5.8,1.84 -11.77,3.02 -17.6,4.73 -6.2,1.78 -11.91,4.88 -18.07,6.74 -8.61,2.68 -17.08,5.84 -25.89,7.77 2.42,-2.63 5.33,-4.77 8.61,-6.22 14.27,-6.72 28.86,-12.74 43.54,-18.48 7.25,-2.45 14.08,-5.99 21.36,-8.35 6.47,-2.07 12.61,-5.13 19.29,-6.49 4.74,-0.99 9.5,-1.83 14.18,-3.06z"/>
       <path class="fil0" d="M637.74 97.69c9.74,-7.74 22.65,-10.38 34.86,-9.17 16.04,1.87 31.63,6.32 47.08,10.89 11.47,3.45 23.17,6.06 34.91,8.38 19.51,2.54 39.87,3.64 58.82,-2.66 4.53,-1.34 8.8,-3.51 13.43,-4.55 2.86,4.16 3.23,9.39 4.01,14.23 2.13,17.3 1.59,35.3 -4.07,51.93 -1.52,5.12 -2.96,10.32 -5.46,15.07 -6.8,13.24 -15.18,26.08 -26.87,35.52 -5.98,5.08 -12.34,9.83 -19.5,13.15 -6.63,3.43 -13.97,5.01 -20.87,7.74 -4.19,-3.37 -7.95,-7.3 -11.08,-11.67 -0.78,-1.24 -1.95,-2.69 -1.18,-4.21 1.82,-1.41 4.17,-1.78 6.37,-2.24 10.84,-1.94 21.88,-4.4 31.38,-10.19 3.56,-1.84 6.55,-4.6 8.78,-7.93 -4.61,-1.93 -9.37,0.11 -13.97,0.91 -6.77,1.25 -13.67,1.92 -20.57,1.75 -7.43,-0.17 -14.63,-2.57 -21.32,-5.66 -2.34,-0.9 -3.51,-3.21 -4.74,-5.21 8.92,0.71 17.9,0.94 26.85,0.55 15.09,-1.73 30.79,-5.14 42.87,-14.92 2.51,-1.9 4.03,-4.71 5.11,-7.6 -5.34,0.65 -10.12,3.35 -15.36,4.38 -9.22,1.42 -18.77,2.37 -27.88,-0.22 0.07,-1.23 0.15,-2.44 0.23,-3.65 7.94,-0.04 15.72,-1.79 23.13,-4.56 8.3,-2.34 16.28,-6.15 22.73,-11.95 7.69,-7.71 13.12,-18.55 11.61,-29.67 -4.03,3.23 -7.38,7.48 -12.27,9.51 -12.05,5.32 -25.7,4.6 -38.43,2.71 -12.2,-1.83 -23.82,-6.03 -35.57,-9.57 -7.35,-2.41 -14.35,-5.82 -21.84,-7.82 -9.85,-2.64 -19.6,-6.03 -29.83,-6.81 -8.7,-1.03 -17.55,-1.25 -26.22,0.09 -7.69,0.81 -14.82,4.06 -21.68,7.43 -6.43,3.12 -10.8,9.08 -16.92,12.68 0.11,-2.92 0.86,-5.78 2.34,-8.3 5.57,-10.37 11.38,-21.24 21.11,-28.33z"/>
       <path class="fil0" d="M371.94 126.09c4.67,-0.51 9.53,-0.92 14.07,0.56 4.51,1.43 8.28,4.41 12.03,7.18 8.16,5.82 13.34,15.3 14.91,25.08 2.48,13.22 -1.61,27.28 -10.15,37.56 -5.88,7.84 -15.78,13.74 -25.79,12.37 -2.17,-3.26 -3.34,-7.06 -5.27,-10.46 -5.39,-10.4 -14.18,-19.44 -25.44,-23.27 -7.81,-3.75 -16.6,-3.55 -25.03,-3.17 -9.26,0.49 -17.58,4.91 -25.65,9.04 -15.54,7.49 -29,18.57 -41.37,30.45 -7.22,6.93 -13.37,15.71 -23.01,19.48 -5.2,2.19 -11.17,1.78 -16.18,-0.69 -8.52,-4.09 -15.39,-12.08 -17.15,-21.49 -1.15,-4.04 0.53,-8.12 2.09,-11.8 1.55,-3.66 4.14,-6.77 7.15,-9.33 12.64,-11.19 26.24,-21.43 41.24,-29.26 10.21,-6.64 21.69,-10.85 32.96,-15.26 6.48,-2.53 13.33,-3.88 19.87,-6.22 13.8,-4.74 28.27,-6.97 42.67,-9 9.33,-0.9 18.71,-1.12 28.05,-1.79z"/>
       <path class="fil0" d="M225.5 139.96c2.26,-0.64 4.59,-0.91 6.92,-1.14 -2.49,6.08 -8.52,9.23 -12.96,13.67 -7.7,7.5 -15.1,15.34 -22.01,23.58 -6.51,9.7 -11.75,20.43 -14.75,31.76 -5.22,-1.24 -6.23,-7.15 -7.43,-11.55 -1.12,-8.21 -0.79,-17.32 4.16,-24.32 4.73,-6.86 10.55,-13 17.14,-18.1 8.88,-6.01 18.66,-10.73 28.93,-13.88z"/>
       <path class="fil0" d="M94.43 157.43c11.45,-7.95 26.92,-6.51 38.96,-0.69 3.9,1.75 6.95,5.72 6.3,10.18 -0.98,8.48 -3.66,16.69 -6.33,24.77 -2.55,7.62 -0.6,15.71 -1.15,23.55 0.06,1.67 -1.42,2.72 -2.14,4.08 -3.49,-5.47 -5.68,-11.75 -9.82,-16.81 -4.75,-6.01 -10.37,-11.66 -17.45,-14.86 -3.47,-1.46 -7.81,-2.61 -11.19,-0.33 -2.66,1.47 -3.48,4.55 -4.45,7.19 3.02,-0.71 5.98,-1.85 9.1,-1.99 1.49,0.52 2.83,1.37 4.22,2.08 -3.66,3.64 -7.94,6.64 -11.25,10.61 -1.19,1.14 -2.21,2.78 -3.92,3.14 -3.93,-3.3 -6.4,-7.97 -8.53,-12.56 -1.29,-3.19 -2.92,-6.7 -1.81,-10.19 3.34,-11.07 9.42,-21.93 19.48,-28.18z"/>
       <path class="fil0" d="M151.82 169.5c3.24,-2.88 6.81,-5.36 10.39,-7.81 0.86,0.38 1.72,0.78 2.57,1.19 -1.02,5.65 -2.08,11.33 -2.08,17.09 0.01,5.35 -1.32,10.65 -3.69,15.45 -1.73,3.45 -3.59,7.07 -6.81,9.35 -4.96,-3.94 -8.08,-10.19 -8.75,-16.43 0.38,-6.94 2.86,-14.28 8.37,-18.84z"/>
       <g>
        <path class="fil0" d="M312.6 191.14c3.88,-0.62 7.92,-0.92 11.8,-0.19 3.91,3.27 4.77,8.84 5.75,13.59 1.93,8.45 0.82,17.21 -0.73,25.62 -3.74,13.09 -14.08,23.58 -26.19,29.37 -13.7,3.46 -28.59,-2.16 -37.79,-12.6 -3.47,-2.93 -6,-7.41 -4.41,-12.03 2.8,-7.58 7.56,-14.44 13.32,-20.09 4.12,-3.68 7.89,-7.82 12.64,-10.72 8.13,-5.02 15.97,-11.2 25.61,-12.95zm-3.07 1.97l0 0c-3.46,0.94 -6.81,2.3 -9.83,4.24 -6.72,4.36 -13.88,8.18 -19.66,13.8 -7.75,6.25 -14.32,14.26 -17.72,23.69 -0.35,2.09 -0.35,4.27 0.08,6.37 5.83,8.35 14.38,15.09 24.46,17.3 5.25,0.38 10.58,0.4 15.83,-0.06 7.46,-3.29 13.88,-8.62 18.95,-14.97 2.52,-3.42 4.14,-7.37 5.88,-11.2 2.17,-4.9 1.25,-10.35 2.29,-15.46 0.48,-2.87 0.43,-5.84 -0.15,-8.69 -0.88,-4.46 -1.13,-9.21 -3.64,-13.14 -0.8,-0.95 -1.38,-2.65 -2.83,-2.57 -4.54,-0.22 -9.21,-0.46 -13.64,0.7z"/>
       </g>
       <path class="fil0" d="M792.72 246.18c8.48,-8.26 17.95,-15.39 26.91,-23.12 5.84,4.88 10.05,11.26 14.94,17.01 16.67,21.67 31.86,44.43 47.55,66.81 10.13,13.3 20.21,26.68 31.48,39.07 6.93,8.2 14.89,15.45 22.53,22.97 4.07,3.65 7.54,8.48 13.11,9.91 -0.62,-6.53 -5.24,-11.54 -7.65,-17.42 -4.19,-9.55 -10.88,-17.66 -15.9,-26.76 -3.62,-6.45 -8.13,-12.29 -12.4,-18.28 -0.72,-1.61 -2.99,-4.03 -0.99,-5.43 4.39,1.31 7.87,4.43 11.8,6.66 8.45,4.77 16.34,10.44 24.63,15.45 11.32,7 21.16,15.99 31.46,24.35 12.74,10.48 23.54,22.98 34.47,35.26 9.92,12.24 19.36,24.92 27.82,38.22 9.98,14.62 19.35,29.64 28.91,44.52 9.51,13.45 17.73,27.79 28.07,40.64 2.52,3.36 5.46,6.48 7.28,10.31 0.98,3.16 -0.32,6.46 -1,9.56 -5.65,19.67 -10.55,39.65 -18.73,58.48 -4.49,11.41 -8.85,22.91 -14.53,33.81 -2.85,5.12 -3.61,11.68 -8.78,15.2 -1.99,-9.08 -0.91,-18.41 -1.2,-27.61 -0.21,-15.83 0.8,-31.74 -1.35,-47.47 -1.48,-9.56 -1.2,-19.43 -4.24,-28.71 -1.94,-6.11 -3.49,-12.34 -5.71,-18.37 -7.6,-21.28 -19.21,-40.82 -30.94,-60.03 -3.46,-5.99 -7.95,-11.27 -11.72,-17.05 -6.13,-9.24 -13.63,-17.47 -19.78,-26.69 -1.77,-3 -4.37,-5.37 -7.25,-7.28 0.03,4.04 0.81,8.03 2.23,11.81 2.27,6.16 2.93,12.72 4.27,19.12 1.54,7.67 3.08,15.38 3.05,23.23 1.16,12.03 1.27,24.15 0.05,36.17 -0.13,17.57 -5.36,34.5 -9.47,51.42 -2.43,7.78 -5.15,15.49 -8.26,23.03 -3.97,-3.62 -2.96,-9.21 -3.08,-14.01 0.14,-5.18 -0.17,-10.34 -1.06,-15.45 -4.93,-41.51 -14.81,-82.91 -33.64,-120.43 -6.37,-12.43 -13.96,-24.19 -22,-35.61 -6.42,-9.17 -13.76,-17.68 -21.69,-25.58 -4.77,-5.44 -9.67,-10.76 -15.22,-15.43 -21.2,-20.38 -45.68,-37.29 -64.99,-59.63 -8.92,-11.36 -17.43,-23.56 -21.31,-37.65 -0.86,-2.05 1.14,-3.61 2.31,-5.02z"/>
       <path class="fil0" d="M343.8 235.48c3.65,0.68 7.11,2.17 10.81,2.71 4.41,0.85 9.22,0.75 13.15,3.22 3.77,2.36 7.37,4.98 11,7.56 2.94,2.22 6.3,5 6.23,9.05 0.81,8.21 -3.56,15.52 -6.71,22.76 -2.87,6.65 -6.89,12.72 -11.18,18.53 -3.34,4.4 -5.33,9.82 -9.64,13.46 -3.49,2.97 -6.82,6.22 -10.74,8.61 -4.11,2.43 -8.87,0.19 -13.08,-0.75 -4.23,-1.37 -8.91,-1.51 -12.84,-3.69 -1.41,-0.56 -0.95,-2.15 -0.59,-3.25 2.43,-2.02 5.42,-3.18 7.91,-5.11 11.27,-9.33 21.88,-20.96 25.16,-35.65 1.26,-6.31 3.18,-12.66 2.81,-19.15 -0.55,-0.01 -1.65,-0.02 -2.2,-0.03 -2.65,2.43 -4.04,5.83 -5.9,8.83 -2.17,3.82 -5.02,7.21 -8.18,10.25 -6.81,6.69 -14.54,12.84 -23.7,15.95 -7.44,2.46 -15.55,4.11 -23.28,1.89 -6.57,-1.89 -14.4,-1.75 -19.39,-7.11 -4.31,-4.51 -8.72,-9.55 -9.66,-15.96 7.46,0.61 14.08,4.62 21.5,5.44 6,0.67 12.18,1.16 18.16,0.05 8.19,-2.43 16.14,-6.41 22.13,-12.62 5.09,-5.22 10.11,-10.71 13.44,-17.26 1.45,-2.65 2.54,-5.62 4.79,-7.72z"/>
       <path class="fil0" d="M144.33 252.89c3.58,-1.56 7.57,-0.86 11.32,-0.46 6.4,0.87 12.89,0.11 19.31,0.73 -3.99,4.93 -10.07,7.14 -15.06,10.8 -5.56,3.95 -11.5,8.02 -14.51,14.38 6.43,-2.7 12.32,-6.79 19.28,-8.09 8.79,-1.76 18.13,-2.84 26.89,-0.46 -4.78,4.78 -11.62,6.07 -17.18,9.59 -6.21,3.85 -13,6.64 -19.04,10.76 -11.78,7.65 -23.96,15.14 -33.68,25.42 0.58,0.78 1.16,1.57 1.74,2.36 5.67,-2.91 11.83,-4.7 18.08,-5.85 2.09,-0.47 4.21,-0.02 6.29,0.26 -4.44,4.57 -9.91,7.94 -14.59,12.24 -2.57,2.56 -6.18,3.4 -9.66,3.88 -12.25,1.81 -23.01,8.34 -33.65,14.26 -8.9,5.36 -16.89,12.13 -24.26,19.42 -3.53,-4.05 -6.28,-8.69 -9.16,-13.21 -1.73,-2.75 -3.91,-5.25 -5.13,-8.28 -0.54,-2.59 1.32,-4.91 2.62,-6.98 6.71,-8.74 13.2,-17.71 21.02,-25.51 4.53,-4.48 8.92,-9.13 13.95,-13.07 6.18,-4.94 11.73,-10.64 18.15,-15.3 8.99,-6.45 17.23,-13.89 26.44,-20.05 3.55,-2.36 6.89,-5.15 10.84,-6.84z"/>
       <path class="fil0" d="M452.37 277.32c-1.12,-2.23 -1.07,-4.74 -0.75,-7.15 6.26,5.05 11.2,11.57 17.83,16.19 5.47,4.27 12.17,6.38 18.17,9.72 5.24,2.89 11.08,4.38 16.67,6.41 9.65,3.59 20.01,4.4 29.85,7.3 7.44,2.25 15.19,3.5 22.45,6.38 6.05,2.45 11.46,6.61 15.28,11.93 10.45,15.28 15.91,33.42 18.31,51.63 0.39,10.24 0.47,20.51 0.17,30.76 0.02,2.81 -1.13,5.4 -2.33,7.87 -3.96,-6.71 -4.1,-14.72 -6.9,-21.86 -3.64,-9.1 -7.45,-18.3 -13.69,-25.97 -2.88,-3.96 -6.33,-7.69 -10.94,-9.61 -7.22,-3.49 -15.33,-5.33 -23.36,-4.67 -7.79,0.76 -15.64,1.2 -23.3,2.87 -10.03,2.27 -20.28,3.74 -30.57,3.62 -7.51,-0.08 -15.16,0.36 -22.49,-1.57 -10.54,-2.43 -20.61,-6.91 -29.33,-13.33 -10.64,-8.49 -19.57,-18.92 -27.56,-29.89 -0.8,-1.64 -2.93,-4.06 -1.24,-5.69 6.76,2.61 12.4,7.47 19.23,9.98 10.06,3.67 20.12,7.74 30.8,9.28 11.86,2.04 24.03,1.78 35.98,0.73 2.17,-0.62 5.69,-0.13 6.59,-2.67 -1.59,-2.89 -4.09,-5.11 -6.22,-7.58 -3.4,-3.75 -6.23,-8 -9.8,-11.59 -3.06,-3.12 -6.8,-5.59 -9.27,-9.27 -5.1,-7.59 -9.96,-15.41 -13.57,-23.84z"/>
       <path class="fil0" d="M730.43 285.49c1.04,0 2.09,0.01 3.15,0.01 4.27,7.47 6.68,15.79 10.22,23.6 3.71,11.33 7.97,22.65 8.85,34.64 0.55,10.84 0.21,21.76 -1.4,32.49 -1.46,5.83 -2.88,11.69 -4.8,17.4 -6.25,14.78 -15.91,27.99 -27.49,39.05 -5.49,5.76 -12.04,10.31 -18.6,14.74 -10.19,7.14 -21.8,11.81 -33,17.06 -4.12,1.95 -8.47,3.36 -12.88,4.45 -7.63,1.87 -14.84,5.23 -22.68,6.28 -9.29,1.25 -18.42,3.5 -27.69,4.8 -7.3,0.59 -14.56,2.29 -21.93,1.69 1.43,-2.43 3.27,-4.79 6.14,-5.55 13.7,-4.7 25.68,-13.08 38.87,-18.9 11.43,-6.36 22.72,-13.02 33.33,-20.69 11.63,-8.7 23.32,-17.55 32.75,-28.71 9.43,-11.3 18.6,-23.38 23.14,-37.57 1.79,-4.94 4.8,-9.44 5.72,-14.69 1.05,-6.08 3.09,-11.91 4.42,-17.92 1.27,-7.3 2.44,-14.66 2.45,-22.08 0.13,-6.84 2.11,-13.55 1.62,-20.42 -0.22,-3.22 -0.31,-6.45 -0.2,-9.67z"/>
       <path class="fil0" d="M203.33 318.89c9.04,-2.68 18.23,-5.49 27.76,-5.47 9.22,-0.01 18.84,-0.73 27.55,2.86 1.27,0.45 2.35,1.44 2.57,2.83 -1.64,2.8 -4.37,4.71 -6.94,6.59 -5.44,3.87 -10.69,8 -16.4,11.44 -8.25,4.98 -16.91,9.21 -25.58,13.41 -8.48,4.25 -17.6,7.03 -26.25,10.89 -9.3,4.05 -19.66,5.6 -28.32,11.12 7.39,2.57 15.24,0.72 22.77,-0.05 9.45,-1.32 19.06,-1.84 28.33,-4.19 13.28,-3.89 26.93,-7.07 39.28,-13.5 4.93,-2.41 10.18,-4.32 14.57,-7.68 4.18,-3.17 8.32,-6.56 13.38,-8.22 -1.86,7.18 -7.1,12.69 -12.04,17.95 -12.05,12.56 -28.73,19.28 -45.18,23.9 -6.49,1.93 -12.96,3.98 -19.67,4.97 -9.86,1.47 -19.62,3.58 -29.53,4.7 -3.04,0.34 -6.16,0.75 -8.85,2.31 1.65,2.93 5.27,2.96 8.2,3.44 12.64,1.38 25.22,3.96 37.98,3.66 16.34,0.75 32.78,-0.01 48.88,-2.96 4.62,-0.99 9.13,-2.76 13.93,-2.61 -1.33,2.27 -2.8,4.58 -5.11,5.98 -10.96,7.3 -23.75,11.5 -36.71,13.49 -17.61,3.59 -35.66,2.74 -53.52,2.81 -5.57,-0.09 -11.15,0.09 -16.69,-0.6 -3.21,-0.31 -6.47,-0.83 -9.67,-0.26 -0.16,0.31 -0.46,0.91 -0.62,1.21 3.4,3.55 8.3,4.93 12.64,6.97 13.41,6.27 28.08,9.29 42.72,10.99 7.55,0.43 15.14,0.33 22.7,0.28 5.98,-0.17 11.82,-1.61 17.78,-2.03 7.39,-0.44 14.32,-3.43 21.69,-3.93 -5.54,10.34 -16.33,17.38 -27.74,19.47 -10.4,0.65 -20.85,0.39 -31.22,-0.69 -7.72,-0.81 -15.51,-0.76 -23.23,-1.61 -18.22,-1.11 -36.45,0.61 -54.5,3.06 -4.46,0.61 -8.61,2.38 -12.9,3.63 -2.43,0.92 -3.81,-2 -4.9,-3.62 -4.47,-8.13 -9.07,-16.64 -9.9,-26.05 -0.2,-4.33 0.04,-9.48 3.69,-12.44 4.66,-3.76 9.97,-6.68 14.39,-10.77 3.51,-3.06 6.23,-6.87 9.14,-10.47 4,-5.1 10.45,-7.37 14.7,-12.21 3.84,-4.37 7.8,-8.84 10.04,-14.28 2.12,-5.11 4.16,-10.33 4.85,-15.86 0.56,-2.95 0.54,-6.12 1.97,-8.81 3.49,-3.24 8.23,-4.69 12.43,-6.83 10.41,-4.52 20.59,-9.69 31.54,-12.82z"/>
       <path class="fil0" d="M114.19 343.84c8.48,-3.49 17.74,-4.28 26.8,-4.57 2.17,0 5.61,-0.11 5.95,2.78 1.13,9.46 -4.54,17.84 -8.66,25.88 -4.03,-2.3 -7.07,-7.36 -12.09,-7.16 -8.23,1.7 -14.9,7.49 -20.47,13.48 -5.67,7.06 -10.85,15.01 -12.44,24.08 -0.75,3.64 -1.34,7.66 -4.19,10.36 -1.94,1.81 -4.19,4.72 -7.19,3.85 -8.72,-2.67 -15.9,-8.51 -23.13,-13.82 -7.05,-5.22 -12.74,-11.99 -18.49,-18.56 -2.12,-2.53 -4.37,-5.05 -5.75,-8.08 -1.37,-2.6 0.08,-5.46 0.79,-8.02 1.37,-3.53 2.27,-7.61 5.33,-10.11 2.28,0.97 3.41,3.26 4.5,5.32 4.62,9.73 12.73,17.36 21.67,23.14 8.43,-7.88 15.89,-16.76 24.73,-24.22 6.52,-6.2 14.33,-10.98 22.66,-14.36z"/>
       <path class="fil0" d="M814.37 362c0.27,-0.38 0.82,-1.15 1.09,-1.54 5.56,3.22 9.69,8.27 14.46,12.48 9.58,9.73 18.35,20.31 26.11,31.55 4.68,8.4 10.49,16.31 13.48,25.56 2.83,8.54 6.17,17.02 7.2,26.02 0.65,4.57 0.74,9.2 1.08,13.81 0.73,6.9 -0.38,13.8 -0.37,20.71 -0.89,9.91 -2.66,19.75 -5.06,29.39 -0.81,2.82 0.19,5.67 1.02,8.36 4.17,12.33 6.69,25.14 9.68,37.8 3.73,22.84 6.53,46.01 5.27,69.2 -1.1,12.02 -2.51,24.04 -5.1,35.84 -1.64,8.31 -4.61,16.28 -6.46,24.54 -1.13,5.5 -4.63,9.98 -6.95,14.98 -4.04,8.45 -8.09,16.96 -13.38,24.72 -8.63,12.56 -17.7,24.93 -28.69,35.55 -8.48,8.68 -17.95,16.37 -27.91,23.28 -4.08,2.72 -7.67,6.72 -12.78,7.35 4.41,-6.53 10.23,-11.92 14.76,-18.36 11.97,-15.63 20.18,-33.64 27.97,-51.59 3.5,-10.19 5.95,-20.72 7.69,-31.35 2.45,-11.9 3.65,-24.03 4.47,-36.14 0.18,-13.04 -0.03,-26.07 0.06,-39.11 0.12,-7.48 -1.93,-14.8 -1.82,-22.29 -0.06,-2.38 0.11,-4.84 -0.85,-7.07 -3.11,-0.33 -4.85,2.54 -6.41,4.73 -5.67,8.42 -12.42,16.05 -19.39,23.41 -6.65,7.59 -13.84,14.72 -21.51,21.29 -12.8,12.31 -27.27,22.68 -41.3,33.51 -0.44,-0.61 -1.3,-1.84 -1.74,-2.46 6.5,-9.39 11.84,-19.48 17.85,-29.15 6.09,-10.39 12.43,-20.64 17.95,-31.35 11.79,-22.77 24.23,-45.42 32.24,-69.88 3.9,-9.53 6.73,-19.45 9.48,-29.36 2.16,-10.51 5.19,-20.84 6.59,-31.5 2.07,-20.95 2.39,-42.16 -0.47,-63.05 -3.39,-17.15 -8.12,-34.06 -14.53,-50.33 -1.24,-3.2 -2.92,-6.23 -3.74,-9.56z"/>
       <path class="fil0" d="M19.18 376.02c5.16,0.42 6.68,5.72 9.39,9.23 5.16,6.58 10.34,13.3 17.21,18.21 7.7,6.66 15.94,12.64 24.4,18.29 3.94,2.49 8.67,4.01 11.65,7.81 4.07,5.06 6.77,11.06 10.46,16.38 2.14,3.39 4.97,6.3 6.87,9.84 0.67,1.08 0.63,2.6 -0.48,3.39 -4.16,3.79 -9.5,5.91 -14.2,8.93 -7.51,4.49 -16.64,8.98 -25.44,5.48 2.07,-7.19 9.09,-11.68 10.33,-19.24 -7.95,1.59 -15.31,6.88 -23.7,5.56 -4.48,-1.55 -6.43,-6.47 -7.83,-10.61 7.91,-3.17 17.52,-6.3 20.9,-14.99 -4.33,-0.99 -8.62,1.04 -12.97,0.39 -4.71,-0.59 -9.5,-0.73 -14.15,-1.74 -4.28,-0.88 -6.58,-5.07 -8.6,-8.55 -0.8,-1.7 -2.29,-4.23 -0.25,-5.66 5.02,-2.3 10.72,-0.28 15.9,-1.7 1.74,-0.34 2.21,-1.32 1.42,-2.93 -4.73,-2.41 -10.36,-2.86 -14.59,-6.27 -4.11,-3.22 -8.53,-7.1 -9.35,-12.56 -0.89,-6.6 1.99,-12.87 3.03,-19.27z"/>
       <path class="fil0" d="M309.68 401.92c8.94,-3.25 18.83,-2.58 27.83,0.04 7.56,2.03 14.6,5.73 20.77,10.54 4.28,3.36 8.91,6.43 12.4,10.7 5.42,6.77 11,13.56 14.64,21.51 5.06,9.66 7.94,20.32 9.42,31.1 1.17,15.32 -0.31,30.85 -4.6,45.63 -1.95,6.03 -4.99,11.67 -6.41,17.88 -2.99,12.28 -5.49,24.8 -5.46,37.49 -0.02,3.72 -0.68,7.39 -0.83,11.1 -0.3,5.61 0.96,11.16 0.87,16.77 -0.06,10.91 3.36,21.41 4.2,32.23 4.78,24.88 13.29,48.8 20.97,72.88 3.47,9.55 0.51,20 -4.4,28.47 -4.57,9.04 -13.27,16.37 -23.46,17.9 -5.98,0.93 -12.12,0.25 -17.86,-1.59 -7.14,-2.33 -14.49,-3.99 -21.91,-5.16 -15.41,-2.04 -31.09,2.49 -44.25,10.42 -4.51,2.94 -9.4,5.34 -13.48,8.91 -2.31,1.87 -4.37,4.35 -7.31,5.22 -6.35,-0.32 -11.58,-4.8 -15.45,-9.5 -2.53,-2.8 -1.53,-7.03 0.32,-9.9 5.48,-8.74 15.19,-13.61 24.7,-16.75 17.78,-5.44 36.64,-4.93 54.84,-8.1 9.47,-1.58 19.4,-1.43 28.31,-5.44 9.18,-3.64 17.06,-11.48 19.35,-21.25 1.21,-7.71 0.45,-15.68 -1.71,-23.17 -3.5,-12.56 -8.22,-24.78 -10.71,-37.61 -2.52,-8.81 -3.51,-17.91 -4.7,-26.96 -1.6,-7.51 -1.12,-15.21 -1.92,-22.81 -0.22,-7.05 -0.28,-14.13 0.01,-21.18 1.19,-11.65 2.97,-23.38 6.98,-34.44 2.07,-6 4.81,-11.79 6.24,-18 3.02,-14.45 4.34,-29.33 2.93,-44.06 -1.65,-9.01 -3.54,-18.07 -7.03,-26.59 -2.95,-7.68 -7.64,-14.54 -12.82,-20.87 -4.08,-4.39 -8.88,-8.09 -13.96,-11.27 -7.28,-4.54 -15.9,-5.91 -24.26,-6.91 -5.56,-0.68 -11.01,0.85 -16.48,1.6 -4.27,0.57 -8.45,1.65 -12.52,3.04 0.28,-1.69 -0.1,-3.84 1.55,-4.93 4.5,-3.37 9.97,-5.05 15.19,-6.93z"/>
       <path class="fil0" d="M433.06 461.92c2.48,1.62 4.72,3.71 5.77,6.56 3.42,8.21 8.2,15.76 11.5,24.02 2.86,7.17 6.32,14.3 7.14,22.07 0.47,3.72 -1.58,7.03 -3.25,10.18 -3.67,6.57 -6.6,13.51 -9.43,20.46 -2.92,7.2 -6.51,14.11 -9.02,21.47 -1.79,5.26 -4.01,10.36 -5.68,15.67 -3.76,13.24 -8.32,26.47 -8.91,40.34 -0.07,3.97 -0.94,7.88 -2.33,11.59 -3.66,-6.18 -3.44,-13.58 -4.28,-20.48 -1.67,-14.46 0.25,-29.01 2.64,-43.28 1.23,-8.13 4.35,-15.81 5.95,-23.86 1.51,-7.66 4.6,-14.87 6.22,-22.49 2.02,-9.3 4.71,-18.48 5.65,-27.97 0.48,-5.64 1.43,-11.33 0.58,-16.98 -0.82,-5.78 -2.54,-11.43 -2.55,-17.3z"/>
       <path class="fil0" d="M576.34 566.85c0.38,-0.17 1.12,-0.52 1.51,-0.7 1.64,1.58 -0.14,3.62 -0.78,5.26 -3.53,6.19 -6.46,12.69 -9.93,18.9 -1.88,3.34 -3.02,7.01 -4.02,10.69 -1.91,7.08 -5.8,13.38 -8.61,20.12 -2.81,6.7 -5.89,13.29 -9.26,19.73 -3.98,7.41 -6.59,15.42 -10.22,22.98 -7.48,19.1 -14.99,38.2 -21.23,57.75 -2.06,6.89 -5.07,13.49 -6.21,20.64 -0.91,5.42 -3.29,10.42 -4.7,15.71 -4.12,16.25 -8.06,32.59 -10.35,49.22 -1.15,8.38 -3.6,16.63 -3.44,25.17 0.14,6.53 -1.19,13 -0.95,19.54 0.21,9.92 -0.47,19.87 0.72,29.74 0.08,5.36 0.63,10.69 1.88,15.91 1.45,3.91 -2.93,5.94 -5.42,7.96 -4.07,2.63 -6.92,6.68 -10.87,9.44 -2.1,0.03 -2.79,-2.09 -3.49,-3.66 -10.62,-27.29 -15.9,-56.45 -17.36,-85.64 -0.03,-7.06 -1.09,-14.11 -0.55,-21.16 0.42,-5.59 0.85,-11.17 1.36,-16.74 0.34,-4.22 -0.09,-8.53 1.04,-12.65 0.35,-1.87 2.1,-2.91 3.63,-3.74 5.98,-3.1 12.64,-4.96 18.17,-8.92 6.56,-5.12 9.47,-13.22 12.85,-20.52 4.15,-8.55 6.15,-17.93 8,-27.19 1.34,-8.18 3.66,-16.19 4.42,-24.46 1.24,-11.83 3.51,-23.53 4.41,-35.4 0.47,-5.41 1.06,-10.8 1.51,-16.2 0.42,-5.57 -0.39,-11.5 2.02,-16.7 3,-4.67 7.84,-7.7 11.86,-11.44 11.86,-11.2 24.85,-21.09 37.69,-31.1 5.14,-4.54 10.18,-9.37 16.33,-12.55z"/>
      </g>
      <g>
       <g>
        <path class="fil1" d="M249.54 5.88c6.11,-2.13 14.04,-2.07 18.37,3.46 6.06,7.44 10.64,15.98 16.33,23.7 1.03,1.32 2.26,3.11 4.17,2.2 8.22,-2.65 15.41,-7.69 23.48,-10.71 22.55,-8.73 45.9,-15.85 69.96,-18.86 23.27,-2.23 47.15,-1.28 69.58,5.78 6.44,1.84 12.71,5.38 19.62,4.5 32.47,-3.62 65.42,-8.75 98.03,-3.63 30.48,5.46 58.48,19.49 85.63,33.83 18.63,10.04 37.1,20.4 55.36,31.1 7.47,4.29 16,5.99 24.26,8.09 10.84,2.72 21.91,4.49 33.05,5.47 16.83,1.28 34.26,-1.45 49.22,-9.53 4.76,-2.42 9.2,-5.63 14.4,-7.1 2.17,-0.76 4.59,-0.04 6.15,1.62 3.55,3.7 4.59,8.97 6.17,13.68 4.34,13.35 7.26,27.19 8.27,41.2 0.83,20.45 -3.49,41.17 -12.67,59.49 -1.2,2.7 -3.09,5.86 -1.36,8.78 11.99,21.41 27.46,41.1 46.61,56.56 7.27,6.48 15.36,11.89 23.23,17.59 8.44,6.26 17.54,11.56 26.4,17.2 17.18,10.97 34.74,21.38 51.25,33.36 17.92,12.82 35.3,26.51 50.91,42.11 41,39.58 72.9,87.62 99.24,137.89 3.06,5.53 0.7,11.87 -0.14,17.66 -5.25,34.61 -14.35,68.78 -28.54,100.82 -12.41,28.34 -28.89,54.91 -49.1,78.35 -9.81,11.82 -20.64,22.79 -32.26,32.83 -27.33,24.01 -58.3,43.63 -90.76,59.92 -67.38,33.6 -140.25,53.85 -212.54,73.86 -41.55,11.74 -83.32,22.8 -124.32,36.4 -8.53,3.01 -17.43,5.24 -25.33,9.79 -5.35,3.02 -11.42,4.27 -17.17,6.26 -29.94,11.63 -59.04,25.58 -86.17,42.83 -18.58,-25.29 -30.62,-54.93 -37.35,-85.46 -5.97,-27.78 -8.35,-56.24 -8.71,-84.62 -8.01,2.14 -15.02,6.82 -22.94,9.18 -12.86,4.53 -26.36,6.72 -39.81,8.65 -19.3,2.3 -39.31,1.93 -57.92,-4.18 -6.4,-2.27 -12.71,-5.54 -17.17,-10.78 -2.71,-3.15 -4.43,-6.98 -6.19,-10.7 -7.64,-0.27 -15.59,-0.51 -22.55,-4.07 -7.43,-3.75 -14.34,-10.02 -16.22,-18.43 -0.87,-3.12 -0.96,-6.51 -2.51,-9.4 -4.58,-2.27 -9.9,-2.6 -14.43,-5.06 -13.13,-6.43 -22.08,-19.74 -25.2,-33.79 -0.49,-3.61 -1.77,-8.2 1.14,-11.1 5.35,-0.32 10.68,1.39 16.04,0.51 13.88,-1.67 26.76,-10.08 33.4,-22.45 7.3,-13.41 8.42,-30.06 2.69,-44.24 -3.33,-8.33 -9.4,-15.09 -15.29,-21.67 -6.53,-7.13 -13.08,-14.24 -19.49,-21.47 -8.57,-10.14 -16.16,-21.95 -17.84,-35.39 -1.38,-10.48 -2.89,-21.31 -8.23,-30.63 -5.29,-9.18 -13.35,-16.38 -21.62,-22.83 -2.65,-1.88 -5.36,-4.37 -8.83,-4.22 -3.95,5.83 -4.66,13.13 -7.96,19.27 -5.61,-1.27 -10.22,-5.19 -15.91,-6.33 -4.14,19.16 -0.9,38.74 1.98,57.82 -4.03,-2.03 -8.01,-4.15 -12.17,-5.92 -1.89,-0.88 -3.67,-1.99 -5.24,-3.35 -4.85,-4.47 -10.47,-7.95 -15.57,-12.1 -19.1,-15.19 -34.14,-35.23 -44.12,-57.45 -2.65,-6.25 -8.63,-9.84 -13.55,-14.12 -13.41,-11.93 -25.84,-25.46 -33.81,-41.71 -8.82,-17.42 -11.57,-38.13 -6.14,-57 5.7,-20.83 18.8,-38.75 33.85,-53.86 5.31,-4.93 10.44,-10.06 16.16,-14.51 1.84,-1.53 3.86,-2.96 5.17,-5.01 -0.48,-4.07 -3.49,-7.2 -5.32,-10.72 -4.23,-7.31 -8.01,-16.16 -5.09,-24.65 3.32,-8.33 11.37,-13.23 18.52,-17.95 3.93,-2.77 9.19,-4.13 11.75,-8.48 -2.91,-3.06 -6.58,-5.23 -9.69,-8.05 -9.62,-8.49 -15.72,-20.97 -15.98,-33.86 -0.6,-10.99 2.04,-21.97 6.94,-31.77 3.03,-6.35 7.42,-11.89 11.06,-17.86 8.5,-10.14 20.1,-17.95 32.97,-21.25 4.95,-1.22 10.43,0.94 15.07,-1.56 9.61,-5.05 18.7,-11.01 28.16,-16.31 7.64,-3.13 14.3,-8.1 21.67,-11.76 3.72,-1.99 7.71,-3.38 11.53,-5.18 1.26,-0.69 2.85,-1.35 3.22,-2.91 1.33,-4.57 1.4,-9.41 2.82,-13.98 2.76,-9.26 6.9,-18.07 11.84,-26.35 6.55,-10.81 13.96,-21.21 23,-30.09 7.04,-7.17 14.99,-13.89 24.54,-17.39zm71.33 36.34l0 0c-5.3,2.3 -10.73,4.4 -15.59,7.57 -13.05,8.83 -27.66,14.93 -41.11,23.06 -9.72,4.91 -18.67,11.14 -28.27,16.25 -12.3,6.91 -24.24,14.51 -36.83,20.91 -7.69,4.52 -15.75,8.31 -23.58,12.56 -5.98,3.18 -12.34,5.53 -18.35,8.61 -3.9,2.01 -7.92,3.78 -11.98,5.46 -0.03,0.56 -0.08,1.68 -0.11,2.24 4.05,-0.41 8.09,-1.13 11.9,-2.59 7.82,-2.93 15.73,-5.62 23.23,-9.31 8.38,-4.09 17.09,-7.5 25.37,-11.81 11.32,-5.25 22.22,-11.36 33.55,-16.62 12.25,-6.43 24.49,-12.91 36.97,-18.87 5.2,-2.48 10.11,-5.55 15.45,-7.75 3.82,-1.58 7.55,-3.39 11.06,-5.59 5.19,-3.28 10.92,-5.59 16.31,-8.52 6.92,-3.81 14.64,-5.81 21.88,-8.91 8.95,-3.74 18.28,-6.47 27.72,-8.63 10.17,-2.15 20.8,-4.12 31.11,-1.68 3.92,1.08 7.71,-0.79 11.23,-2.32 5.83,-2.68 11.95,-4.64 17.92,-6.96 0.02,-0.69 0.06,-2.04 0.07,-2.72 -9.97,-2.34 -20.18,-3.77 -30.41,-4.03 -26.87,1.18 -52.99,9 -77.53,19.66zm129.35 -2.76l0 0c-4.68,1.23 -9.44,2.07 -14.18,3.06 -6.68,1.36 -12.82,4.41 -19.29,6.49 -7.28,2.37 -14.11,5.9 -21.36,8.35 -14.68,5.74 -29.27,11.76 -43.54,18.48 -3.27,1.45 -6.19,3.59 -8.61,6.22 8.81,-1.93 17.29,-5.09 25.89,-7.77 6.16,-1.86 11.87,-4.95 18.07,-6.74 5.83,-1.71 11.8,-2.89 17.6,-4.73 12.54,-4.04 25.6,-5.97 38.38,-9.06 15.64,-2.73 31.31,-5.56 47.19,-6.45 14.28,-1.47 28.66,-0.68 43,-0.73 9.41,-0.28 18.63,1.99 27.94,3.04 13.53,1.76 26.15,7.12 39.18,10.85 2.86,0.69 5.22,2.49 6.72,5.02 -6.53,0.86 -13.24,0.55 -19.62,2.49 -7.52,2.26 -15.61,3.24 -22.3,7.63 -10.16,6.06 -20.18,13.21 -26.61,23.35 6.59,-0.83 11.83,-5.23 18.02,-7.22 4.13,-1.36 8.21,-2.87 12.23,-4.5 8.85,-3.49 18.36,-4.54 27.68,-6 7.64,-1.02 15.46,-0.26 22.86,1.85 3.12,0.85 6.01,2.52 9.24,3.03 4.23,-1.12 7.8,-3.92 12.02,-5.13 7.05,-2.05 14.41,-2.98 21.76,-3.09 -1.34,-2.31 -2.81,-4.73 -5.33,-5.9 -9.66,-5.2 -18.92,-11.18 -28.86,-15.85 -13.83,-6.17 -27.69,-12.43 -42.34,-16.4 -15.47,-4.59 -31.4,-7.57 -47.48,-8.96 -12.25,-0.23 -24.52,-0.19 -36.77,-0.02 -17.36,1.39 -34.63,4.24 -51.48,8.68zm187.52 58.24l0 0c-9.73,7.08 -15.55,17.95 -21.11,28.33 -1.49,2.52 -2.23,5.38 -2.34,8.3 6.12,-3.6 10.49,-9.55 16.92,-12.68 6.86,-3.36 14,-6.62 21.68,-7.43 8.67,-1.34 17.52,-1.12 26.22,-0.09 10.23,0.78 19.98,4.17 29.83,6.81 7.49,2 14.49,5.41 21.84,7.82 11.76,3.54 23.37,7.74 35.57,9.57 12.73,1.89 26.37,2.6 38.43,-2.71 4.89,-2.03 8.23,-6.27 12.27,-9.51 1.51,11.12 -3.92,21.96 -11.61,29.67 -6.45,5.8 -14.43,9.61 -22.73,11.95 -7.41,2.77 -15.19,4.53 -23.13,4.56 -0.08,1.21 -0.16,2.43 -0.23,3.65 9.11,2.59 18.66,1.65 27.88,0.22 5.24,-1.03 10.02,-3.73 15.36,-4.38 -1.08,2.89 -2.6,5.71 -5.11,7.6 -12.08,9.79 -27.78,13.2 -42.87,14.92 -8.95,0.39 -17.93,0.16 -26.85,-0.55 1.23,2.01 2.4,4.31 4.74,5.21 6.69,3.09 13.88,5.49 21.32,5.66 6.9,0.18 13.79,-0.5 20.57,-1.75 4.6,-0.8 9.36,-2.84 13.97,-0.91 -2.23,3.33 -5.22,6.09 -8.78,7.93 -9.51,5.8 -20.55,8.25 -31.38,10.19 -2.19,0.46 -4.54,0.83 -6.37,2.24 -0.77,1.52 0.4,2.97 1.18,4.21 3.13,4.38 6.89,8.3 11.08,11.67 6.9,-2.73 14.25,-4.31 20.87,-7.74 7.16,-3.32 13.51,-8.07 19.5,-13.15 11.69,-9.44 20.06,-22.28 26.87,-35.52 2.51,-4.75 3.94,-9.95 5.46,-15.07 5.66,-16.63 6.2,-34.63 4.07,-51.93 -0.79,-4.84 -1.15,-10.06 -4.01,-14.23 -4.63,1.04 -8.89,3.22 -13.43,4.55 -18.95,6.3 -39.31,5.19 -58.82,2.66 -11.74,-2.32 -23.44,-4.93 -34.91,-8.38 -15.45,-4.57 -31.04,-9.02 -47.08,-10.89 -12.21,-1.21 -25.12,1.43 -34.86,9.17zm-265.81 28.4l0 0c-9.34,0.67 -18.72,0.89 -28.05,1.79 -14.4,2.03 -28.86,4.26 -42.67,9 -6.54,2.34 -13.39,3.69 -19.87,6.22 -11.27,4.4 -22.75,8.62 -32.96,15.26 -15,7.82 -28.6,18.07 -41.24,29.26 -3,2.57 -5.59,5.67 -7.15,9.33 -1.56,3.68 -3.24,7.76 -2.09,11.8 1.76,9.4 8.62,17.4 17.15,21.49 5.01,2.46 10.98,2.88 16.18,0.69 9.64,-3.77 15.79,-12.55 23.01,-19.48 12.38,-11.89 25.84,-22.96 41.37,-30.45 8.07,-4.14 16.39,-8.55 25.65,-9.04 8.43,-0.38 17.22,-0.58 25.03,3.17 11.26,3.83 20.05,12.87 25.44,23.27 1.93,3.4 3.1,7.2 5.27,10.46 10.01,1.38 19.91,-4.53 25.79,-12.37 8.54,-10.29 12.63,-24.35 10.15,-37.56 -1.57,-9.79 -6.75,-19.26 -14.91,-25.08 -3.75,-2.78 -7.53,-5.75 -12.03,-7.18 -4.54,-1.48 -9.4,-1.07 -14.07,-0.56zm-146.43 13.87l0 0c-10.27,3.15 -20.05,7.87 -28.93,13.88 -6.59,5.1 -12.41,11.24 -17.14,18.1 -4.95,7 -5.28,16.11 -4.16,24.32 1.21,4.4 2.21,10.32 7.43,11.55 3,-11.33 8.23,-22.05 14.75,-31.76 6.9,-8.23 14.3,-16.08 22.01,-23.58 4.44,-4.44 10.47,-7.59 12.96,-13.67 -2.33,0.23 -4.67,0.5 -6.92,1.14zm-131.07 17.47l0 0c-10.06,6.25 -16.14,17.11 -19.48,28.18 -1.11,3.49 0.52,7 1.81,10.19 2.13,4.59 4.6,9.27 8.53,12.56 1.71,-0.36 2.73,-2 3.92,-3.14 3.32,-3.98 7.59,-6.97 11.25,-10.61 -1.39,-0.72 -2.73,-1.56 -4.22,-2.08 -3.12,0.14 -6.08,1.28 -9.1,1.99 0.98,-2.64 1.79,-5.72 4.45,-7.19 3.38,-2.29 7.72,-1.13 11.19,0.33 7.08,3.2 12.7,8.85 17.45,14.86 4.14,5.07 6.33,11.34 9.82,16.81 0.72,-1.36 2.2,-2.41 2.14,-4.08 0.55,-7.83 -1.39,-15.93 1.15,-23.55 2.67,-8.08 5.34,-16.28 6.33,-24.77 0.65,-4.45 -2.4,-8.43 -6.3,-10.18 -12.03,-5.82 -27.51,-7.26 -38.96,0.69zm57.39 12.07l0 0c-5.51,4.55 -7.99,11.9 -8.37,18.84 0.68,6.24 3.79,12.49 8.75,16.43 3.23,-2.28 5.08,-5.9 6.81,-9.35 2.37,-4.8 3.7,-10.09 3.69,-15.45 0,-5.76 1.06,-11.44 2.08,-17.09 -0.86,-0.41 -1.72,-0.81 -2.57,-1.19 -3.58,2.44 -7.15,4.93 -10.39,7.81zm160.77 21.63l0 0c-9.65,1.76 -17.48,7.94 -25.61,12.95 -4.75,2.9 -8.52,7.04 -12.64,10.72 -5.76,5.65 -10.52,12.51 -13.32,20.09 -1.59,4.62 0.95,9.1 4.41,12.03 9.2,10.45 24.09,16.06 37.79,12.6 12.11,-5.79 22.45,-16.28 26.19,-29.37 1.55,-8.41 2.67,-17.17 0.73,-25.62 -0.99,-4.75 -1.84,-10.32 -5.75,-13.59 -3.88,-0.73 -7.92,-0.44 -11.8,0.19zm-210.2 35.28l0 0c-0.25,5.59 -0.05,11.18 0.21,16.76 0.7,4.89 2.96,9.37 5.56,13.51 2.61,-0.25 5.73,0.8 7.77,-1.35 3.26,-2.79 7.17,-4.93 9.71,-8.47 0.32,-3.69 0.3,-7.42 0.06,-11.11 -1.38,-5.16 -5.29,-9.08 -7.37,-13.92 -1.08,-2.74 -3.09,-5 -5.37,-6.8 -1.97,-0.43 -4.01,-0.3 -6.02,-0.39 -2.38,3.53 -3.54,7.69 -4.55,11.77zm690.33 19.77l0 0c-1.17,1.41 -3.18,2.96 -2.31,5.02 3.88,14.09 12.39,26.29 21.31,37.65 19.31,22.33 43.79,39.25 64.99,59.63 5.55,4.67 10.45,9.99 15.22,15.43 7.93,7.91 15.27,16.41 21.69,25.58 8.04,11.42 15.63,23.18 22,35.61 18.83,37.52 28.72,78.92 33.64,120.43 0.89,5.1 1.2,10.27 1.06,15.45 0.11,4.8 -0.89,10.38 3.08,14.01 3.11,-7.54 5.84,-15.25 8.26,-23.03 4.11,-16.92 9.34,-33.85 9.47,-51.42 1.23,-12.02 1.12,-24.14 -0.05,-36.17 0.03,-7.85 -1.51,-15.57 -3.05,-23.23 -1.34,-6.39 -2,-12.96 -4.27,-19.12 -1.42,-3.78 -2.2,-7.77 -2.23,-11.81 2.88,1.91 5.47,4.27 7.25,7.28 6.14,9.22 13.64,17.45 19.78,26.69 3.76,5.78 8.26,11.07 11.72,17.05 11.73,19.22 23.34,38.75 30.94,60.03 2.21,6.03 3.76,12.26 5.71,18.37 3.04,9.27 2.76,19.14 4.24,28.71 2.15,15.73 1.13,31.64 1.35,47.47 0.29,9.2 -0.79,18.53 1.2,27.61 5.18,-3.52 5.93,-10.08 8.78,-15.2 5.68,-10.9 10.04,-22.4 14.53,-33.81 8.18,-18.83 13.08,-38.81 18.73,-58.48 0.69,-3.1 1.98,-6.4 1,-9.56 -1.81,-3.83 -4.76,-6.95 -7.28,-10.31 -10.33,-12.85 -18.56,-27.19 -28.07,-40.64 -9.56,-14.89 -18.93,-29.91 -28.91,-44.52 -8.47,-13.3 -17.9,-25.98 -27.82,-38.22 -10.93,-12.28 -21.73,-24.78 -34.47,-35.26 -10.3,-8.35 -20.14,-17.35 -31.46,-24.35 -8.29,-5.02 -16.18,-10.69 -24.63,-15.45 -3.93,-2.23 -7.42,-5.35 -11.8,-6.66 -2,1.39 0.28,3.82 0.99,5.43 4.27,5.99 8.78,11.83 12.4,18.28 5.02,9.1 11.71,17.2 15.9,26.76 2.41,5.88 7.03,10.89 7.65,17.42 -5.58,-1.43 -9.04,-6.25 -13.11,-9.91 -7.64,-7.52 -15.59,-14.78 -22.53,-22.97 -11.26,-12.39 -21.35,-25.77 -31.48,-39.07 -15.7,-22.38 -30.88,-45.14 -47.55,-66.81 -4.9,-5.74 -9.11,-12.13 -14.94,-17.01 -8.96,7.73 -18.44,14.86 -26.91,23.12zm-448.93 -10.71l0 0c-2.25,2.1 -3.34,5.07 -4.79,7.72 -3.33,6.55 -8.35,12.03 -13.44,17.26 -5.98,6.21 -13.94,10.19 -22.13,12.62 -5.98,1.12 -12.16,0.62 -18.16,-0.05 -7.43,-0.82 -14.04,-4.82 -21.5,-5.44 0.94,6.4 5.34,11.45 9.66,15.96 4.98,5.36 12.82,5.22 19.39,7.11 7.73,2.22 15.84,0.58 23.28,-1.89 9.15,-3.1 16.89,-9.26 23.7,-15.95 3.16,-3.04 6,-6.43 8.18,-10.25 1.86,-3 3.25,-6.4 5.9,-8.83 0.55,0.01 1.65,0.02 2.2,0.03 0.37,6.5 -1.54,12.84 -2.81,19.15 -3.28,14.69 -13.88,26.32 -25.16,35.65 -2.49,1.93 -5.48,3.09 -7.91,5.11 -0.36,1.11 -0.83,2.7 0.59,3.25 3.93,2.17 8.61,2.32 12.84,3.69 4.21,0.94 8.97,3.19 13.08,0.75 3.92,-2.4 7.25,-5.64 10.74,-8.61 4.3,-3.63 6.3,-9.06 9.64,-13.46 4.29,-5.81 8.31,-11.88 11.18,-18.53 3.15,-7.24 7.52,-14.55 6.71,-22.76 0.07,-4.05 -3.29,-6.83 -6.23,-9.05 -3.63,-2.57 -7.23,-5.2 -11,-7.56 -3.93,-2.47 -8.74,-2.38 -13.15,-3.22 -3.7,-0.54 -7.16,-2.04 -10.81,-2.71zm-199.47 17.42l0 0c-3.95,1.69 -7.29,4.48 -10.84,6.84 -9.21,6.16 -17.45,13.61 -26.44,20.05 -6.42,4.66 -11.97,10.35 -18.15,15.3 -5.03,3.94 -9.42,8.59 -13.95,13.07 -7.82,7.8 -14.31,16.77 -21.02,25.51 -1.3,2.07 -3.16,4.39 -2.62,6.98 1.22,3.03 3.4,5.53 5.13,8.28 2.88,4.52 5.63,9.15 9.16,13.21 7.38,-7.3 15.36,-14.06 24.26,-19.42 10.64,-5.92 21.4,-12.44 33.65,-14.26 3.48,-0.47 7.08,-1.32 9.66,-3.88 4.68,-4.3 10.15,-7.67 14.59,-12.24 -2.08,-0.28 -4.2,-0.73 -6.29,-0.26 -6.25,1.15 -12.41,2.95 -18.08,5.85 -0.58,-0.79 -1.16,-1.58 -1.74,-2.36 9.72,-10.28 21.9,-17.77 33.68,-25.42 6.04,-4.12 12.83,-6.91 19.04,-10.76 5.57,-3.52 12.41,-4.81 17.18,-9.59 -8.76,-2.39 -18.1,-1.3 -26.89,0.46 -6.96,1.29 -12.85,5.38 -19.28,8.09 3.01,-6.36 8.95,-10.43 14.51,-14.38 4.99,-3.66 11.08,-5.87 15.06,-10.8 -6.42,-0.62 -12.91,0.14 -19.31,-0.73 -3.75,-0.4 -7.74,-1.1 -11.32,0.46zm308.04 24.43l0 0c3.61,8.43 8.47,16.24 13.57,23.84 2.46,3.68 6.21,6.15 9.27,9.27 3.58,3.59 6.4,7.83 9.8,11.59 2.13,2.47 4.63,4.69 6.22,7.58 -0.9,2.54 -4.41,2.04 -6.59,2.67 -11.95,1.05 -24.12,1.3 -35.98,-0.73 -10.68,-1.54 -20.73,-5.61 -30.8,-9.28 -6.83,-2.51 -12.47,-7.37 -19.23,-9.98 -1.69,1.63 0.44,4.05 1.24,5.69 7.99,10.97 16.92,21.39 27.56,29.89 8.72,6.41 18.79,10.89 29.33,13.33 7.33,1.93 14.98,1.49 22.49,1.57 10.3,0.11 20.55,-1.36 30.57,-3.62 7.66,-1.67 15.51,-2.11 23.3,-2.87 8.03,-0.66 16.14,1.18 23.36,4.67 4.61,1.92 8.06,5.65 10.94,9.61 6.24,7.68 10.05,16.88 13.69,25.97 2.81,7.14 2.95,15.15 6.9,21.86 1.2,-2.47 2.35,-5.06 2.33,-7.87 0.31,-10.25 0.22,-20.52 -0.17,-30.76 -2.4,-18.21 -7.86,-36.36 -18.31,-51.63 -3.82,-5.33 -9.23,-9.48 -15.28,-11.93 -7.26,-2.87 -15.01,-4.13 -22.45,-6.38 -9.84,-2.9 -20.2,-3.71 -29.85,-7.3 -5.59,-2.04 -11.43,-3.52 -16.67,-6.41 -6,-3.35 -12.69,-5.46 -18.17,-9.72 -6.64,-4.62 -11.57,-11.14 -17.83,-16.19 -0.32,2.41 -0.37,4.92 0.75,7.15zm278.06 8.17l0 0c-0.1,3.22 -0.02,6.45 0.2,9.67 0.49,6.87 -1.49,13.58 -1.62,20.42 -0.01,7.43 -1.18,14.79 -2.45,22.08 -1.34,6 -3.37,11.84 -4.42,17.92 -0.92,5.25 -3.93,9.75 -5.72,14.69 -4.54,14.19 -13.71,26.27 -23.14,37.57 -9.43,11.16 -21.11,20.01 -32.75,28.71 -10.61,7.67 -21.9,14.33 -33.33,20.69 -13.2,5.83 -25.18,14.2 -38.87,18.9 -2.87,0.76 -4.71,3.11 -6.14,5.55 7.37,0.6 14.63,-1.1 21.93,-1.69 9.27,-1.29 18.4,-3.54 27.69,-4.8 7.83,-1.05 15.05,-4.41 22.68,-6.28 4.41,-1.09 8.76,-2.5 12.88,-4.45 11.2,-5.25 22.81,-9.92 33,-17.06 6.56,-4.43 13.11,-8.98 18.6,-14.74 11.58,-11.06 21.24,-24.27 27.49,-39.05 1.91,-5.71 3.34,-11.57 4.8,-17.4 1.62,-10.73 1.95,-21.64 1.4,-32.49 -0.87,-11.99 -5.14,-23.31 -8.85,-34.64 -3.54,-7.81 -5.96,-16.12 -10.22,-23.6 -1.06,0 -2.11,-0.01 -3.15,-0.01zm-527.1 33.4l0 0c-10.95,3.13 -21.13,8.31 -31.54,12.82 -4.19,2.14 -8.93,3.59 -12.43,6.83 -1.43,2.7 -1.41,5.86 -1.97,8.81 -0.69,5.53 -2.73,10.75 -4.85,15.86 -2.24,5.45 -6.2,9.92 -10.04,14.28 -4.26,4.84 -10.71,7.11 -14.7,12.21 -2.91,3.61 -5.62,7.42 -9.14,10.47 -4.41,4.09 -9.73,7.01 -14.39,10.77 -3.65,2.96 -3.89,8.11 -3.69,12.44 0.83,9.4 5.43,17.92 9.9,26.05 1.09,1.63 2.47,4.54 4.9,3.62 4.28,-1.25 8.44,-3.02 12.9,-3.63 18.05,-2.44 36.27,-4.16 54.5,-3.06 7.72,0.85 15.51,0.8 23.23,1.61 10.36,1.08 20.82,1.34 31.22,0.69 11.41,-2.09 22.2,-9.13 27.74,-19.47 -7.37,0.5 -14.3,3.49 -21.69,3.93 -5.96,0.42 -11.8,1.86 -17.78,2.03 -7.56,0.06 -15.15,0.15 -22.7,-0.28 -14.64,-1.7 -29.31,-4.72 -42.72,-10.99 -4.34,-2.04 -9.24,-3.42 -12.64,-6.97 0.16,-0.3 0.47,-0.9 0.62,-1.21 3.21,-0.57 6.47,-0.05 9.67,0.26 5.54,0.69 11.12,0.5 16.69,0.6 17.86,-0.06 35.91,0.78 53.52,-2.81 12.96,-2 25.75,-6.19 36.71,-13.49 2.31,-1.39 3.78,-3.71 5.11,-5.98 -4.8,-0.15 -9.31,1.62 -13.93,2.61 -16.11,2.95 -32.55,3.71 -48.88,2.96 -12.76,0.3 -25.34,-2.29 -37.98,-3.66 -2.93,-0.47 -6.55,-0.51 -8.2,-3.44 2.69,-1.56 5.81,-1.97 8.85,-2.31 9.92,-1.12 19.67,-3.23 29.53,-4.7 6.71,-0.99 13.19,-3.04 19.67,-4.97 16.46,-4.62 33.13,-11.34 45.18,-23.9 4.94,-5.25 10.19,-10.76 12.04,-17.95 -5.06,1.65 -9.2,5.05 -13.38,8.22 -4.4,3.35 -9.64,5.27 -14.57,7.68 -12.35,6.43 -26,9.61 -39.28,13.5 -9.27,2.35 -18.87,2.87 -28.33,4.19 -7.53,0.77 -15.38,2.62 -22.77,0.05 8.65,-5.52 19.01,-7.07 28.32,-11.12 8.65,-3.87 17.77,-6.64 26.25,-10.89 8.66,-4.2 17.32,-8.43 25.58,-13.41 5.72,-3.44 10.97,-7.57 16.4,-11.44 2.57,-1.88 5.3,-3.79 6.94,-6.59 -0.22,-1.38 -1.3,-2.38 -2.57,-2.83 -8.72,-3.6 -18.34,-2.87 -27.55,-2.86 -9.53,-0.02 -18.72,2.8 -27.76,5.47zm-89.14 24.94l0 0c-8.33,3.38 -16.13,8.16 -22.66,14.36 -8.84,7.46 -16.3,16.34 -24.73,24.22 -8.94,-5.78 -17.05,-13.41 -21.67,-23.14 -1.09,-2.06 -2.22,-4.36 -4.5,-5.32 -3.07,2.5 -3.97,6.58 -5.33,10.11 -0.71,2.56 -2.16,5.42 -0.79,8.02 1.38,3.03 3.63,5.55 5.75,8.08 5.75,6.57 11.44,13.34 18.49,18.56 7.23,5.31 14.41,11.15 23.13,13.82 3,0.87 5.25,-2.04 7.19,-3.85 2.85,-2.7 3.44,-6.72 4.19,-10.36 1.59,-9.07 6.77,-17.02 12.44,-24.08 5.58,-5.98 12.24,-11.77 20.47,-13.48 5.02,-0.2 8.06,4.86 12.09,7.16 4.13,-8.04 9.8,-16.42 8.66,-25.88 -0.33,-2.89 -3.77,-2.78 -5.95,-2.78 -9.06,0.29 -18.33,1.08 -26.8,4.57zm700.18 18.17l0 0c0.82,3.34 2.5,6.37 3.74,9.56 6.4,16.27 11.13,33.19 14.53,50.33 2.86,20.89 2.55,42.11 0.47,63.05 -1.4,10.66 -4.43,20.99 -6.59,31.5 -2.75,9.91 -5.58,19.83 -9.48,29.36 -8.01,24.46 -20.45,47.11 -32.24,69.88 -5.52,10.71 -11.87,20.96 -17.95,31.35 -6.01,9.67 -11.36,19.77 -17.85,29.15 0.44,0.62 1.3,1.85 1.74,2.46 14.03,-10.83 28.5,-21.2 41.3,-33.51 7.68,-6.57 14.86,-13.7 21.51,-21.29 6.97,-7.36 13.72,-14.99 19.39,-23.41 1.56,-2.19 3.3,-5.06 6.41,-4.73 0.96,2.23 0.79,4.69 0.85,7.07 -0.11,7.48 1.94,14.8 1.82,22.29 -0.08,13.04 0.12,26.07 -0.06,39.11 -0.82,12.11 -2.02,24.24 -4.47,36.14 -1.75,10.62 -4.19,21.16 -7.69,31.35 -7.8,17.95 -16,35.96 -27.97,51.59 -4.53,6.44 -10.35,11.83 -14.76,18.36 5.11,-0.63 8.7,-4.63 12.78,-7.35 9.96,-6.91 19.42,-14.6 27.91,-23.28 10.99,-10.61 20.05,-22.99 28.69,-35.55 5.3,-7.76 9.34,-16.27 13.38,-24.72 2.32,-5 5.82,-9.48 6.95,-14.98 1.85,-8.26 4.81,-16.24 6.46,-24.54 2.59,-11.8 4.01,-23.83 5.1,-35.84 1.26,-23.19 -1.54,-46.35 -5.27,-69.2 -2.99,-12.66 -5.51,-25.46 -9.68,-37.8 -0.83,-2.7 -1.83,-5.55 -1.02,-8.36 2.41,-9.65 4.17,-19.49 5.06,-29.39 -0.01,-6.91 1.1,-13.81 0.37,-20.71 -0.33,-4.61 -0.43,-9.24 -1.08,-13.81 -1.03,-9.01 -4.38,-17.48 -7.2,-26.02 -2.98,-9.25 -8.79,-17.16 -13.48,-25.56 -7.76,-11.24 -16.53,-21.82 -26.11,-31.55 -4.77,-4.21 -8.9,-9.27 -14.46,-12.48 -0.27,0.39 -0.82,1.16 -1.09,1.54zm-795.19 14.01l0 0c-1.04,6.4 -3.92,12.68 -3.03,19.27 0.82,5.46 5.24,9.33 9.35,12.56 4.23,3.41 9.86,3.87 14.59,6.27 0.79,1.61 0.32,2.58 -1.42,2.93 -5.18,1.42 -10.88,-0.59 -15.9,1.7 -2.04,1.43 -0.55,3.96 0.25,5.66 2.02,3.48 4.32,7.67 8.6,8.55 4.66,1.01 9.44,1.14 14.15,1.74 4.35,0.65 8.64,-1.38 12.97,-0.39 -3.38,8.69 -12.99,11.82 -20.9,14.99 1.4,4.14 3.35,9.06 7.83,10.61 8.39,1.32 15.74,-3.97 23.7,-5.56 -1.25,7.56 -8.26,12.04 -10.33,19.24 8.8,3.49 17.94,-0.99 25.44,-5.48 4.7,-3.02 10.04,-5.14 14.2,-8.93 1.12,-0.79 1.15,-2.31 0.48,-3.39 -1.9,-3.54 -4.73,-6.45 -6.87,-9.84 -3.7,-5.33 -6.39,-11.32 -10.46,-16.38 -2.98,-3.79 -7.71,-5.32 -11.65,-7.81 -8.47,-5.65 -16.7,-11.63 -24.4,-18.29 -6.87,-4.92 -12.05,-11.63 -17.21,-18.21 -2.7,-3.5 -4.23,-8.81 -9.39,-9.23zm290.5 25.9l0 0c-5.22,1.89 -10.7,3.56 -15.19,6.93 -1.65,1.1 -1.27,3.24 -1.55,4.93 4.07,-1.39 8.25,-2.47 12.52,-3.04 5.46,-0.74 10.92,-2.28 16.48,-1.6 8.36,1 16.99,2.38 24.26,6.91 5.07,3.18 9.88,6.89 13.96,11.27 5.19,6.33 9.88,13.2 12.82,20.87 3.49,8.52 5.37,17.57 7.03,26.59 1.41,14.73 0.09,29.61 -2.93,44.06 -1.42,6.21 -4.16,12 -6.24,18 -4.01,11.06 -5.79,22.79 -6.98,34.44 -0.29,7.05 -0.23,14.13 -0.01,21.18 0.81,7.59 0.32,15.3 1.92,22.81 1.19,9.05 2.18,18.15 4.7,26.96 2.48,12.83 7.2,25.05 10.71,37.61 2.16,7.49 2.92,15.45 1.71,23.17 -2.29,9.78 -10.17,17.61 -19.35,21.25 -8.9,4.01 -18.84,3.86 -28.31,5.44 -18.2,3.18 -37.06,2.67 -54.84,8.1 -9.51,3.14 -19.22,8.01 -24.7,16.75 -1.86,2.87 -2.85,7.1 -0.32,9.9 3.88,4.69 9.11,9.17 15.45,9.5 2.95,-0.87 5,-3.35 7.31,-5.22 4.07,-3.57 8.97,-5.98 13.48,-8.91 13.17,-7.93 28.85,-12.45 44.25,-10.42 7.43,1.17 14.78,2.83 21.91,5.16 5.74,1.84 11.89,2.52 17.86,1.59 10.19,-1.53 18.88,-8.86 23.46,-17.9 4.91,-8.48 7.86,-18.92 4.4,-28.47 -7.69,-24.08 -16.2,-48 -20.97,-72.88 -0.84,-10.82 -4.26,-21.32 -4.2,-32.23 0.08,-5.61 -1.17,-11.16 -0.87,-16.77 0.15,-3.71 0.81,-7.38 0.83,-11.1 -0.04,-12.69 2.46,-25.21 5.46,-37.49 1.42,-6.21 4.46,-11.85 6.41,-17.88 4.29,-14.78 5.77,-30.31 4.6,-45.63 -1.49,-10.77 -4.37,-21.43 -9.42,-31.1 -3.63,-7.95 -9.22,-14.74 -14.64,-21.51 -3.49,-4.27 -8.11,-7.33 -12.4,-10.7 -6.17,-4.8 -13.22,-8.51 -20.77,-10.54 -9.01,-2.62 -18.89,-3.29 -27.83,-0.04zm-58.87 54.36l0 0c-8.86,4.61 -18.92,6.07 -28.77,6.8 -1.61,-0.1 -2.87,1.48 -2.44,3.04 0.58,4.39 2.38,8.49 3.8,12.67 5.56,15.86 16.24,29.82 29.87,39.63 3.31,2.65 6.81,5.08 10.73,6.74 0.32,-3.22 0.04,-6.47 -0.82,-9.58 -3.65,-14.61 -4.49,-29.76 -3.82,-44.76 0.25,-6.61 2.03,-13.05 2.08,-19.66 -3.66,1.45 -7.16,3.25 -10.63,5.12zm61.92 1.29l0 0c-4.84,5.41 -10.15,10.34 -15.18,15.57 -8.84,9.16 -13.58,21.46 -16.23,33.71 -1.74,10.87 -3.48,21.77 -4.14,32.77 -0.18,10.21 5.46,19.28 11.49,27.09 6.16,7.46 10.26,16.53 12.44,25.93 0.42,6.42 1.25,13.2 -1.11,19.36 -3.79,-5.68 -4.59,-12.62 -7.5,-18.7 -5.78,-11.7 -14.24,-21.75 -21.14,-32.76 -2.92,-4.49 -4.89,-9.58 -5.59,-14.91 -0.58,-2.72 -0.55,-5.69 -1.97,-8.14 -2,-2.07 -4.66,-3.32 -7.09,-4.77 -8.21,-4.64 -15.96,-10.03 -23.56,-15.59 -3.84,-2.72 -6.35,-7.59 -11.47,-8.08 -2.3,13 -2.13,26.84 2.84,39.25 5.84,13.77 15.32,25.5 23.02,38.22 5.59,8.28 10.58,17.09 13.41,26.74 2.46,8.39 5.29,16.91 5.1,25.78 -0.03,6.57 0.25,13.18 -0.73,19.71 -0.73,12.64 -0.47,25.99 5.45,37.52 3.45,8.45 9.61,15.77 17.7,20.07 4.64,2.88 10.41,2.62 15.58,1.78 6.29,-2 10.98,-7.39 13.93,-13.09 -1.47,-2.62 -3.7,-4.69 -5.67,-6.92 -5.53,-5.96 -9.2,-13.32 -12.57,-20.64 7.03,-2.5 14.35,0.64 21.53,0.12 8.64,-0.53 17.64,-1.51 25.27,-5.95 6.01,-3.34 10.41,-9.04 13.22,-15.22 1.86,-4.84 1.15,-10.29 -0.15,-15.19 -2.21,-7.89 -4.34,-15.81 -5.85,-23.86 -1.26,-9.75 -1.84,-19.63 -1.15,-29.45 0.35,-3.54 1.04,-7.14 0.44,-10.68 -0.68,-2.34 -2.68,-3.9 -4.4,-5.45 -5.85,-4.74 -10.73,-10.53 -15.32,-16.46 -5.43,-7.84 -11.31,-15.57 -14.62,-24.61 -3.59,-8.24 -5.35,-17.1 -6.73,-25.94 -1.1,-5.73 0.66,-11.47 0.43,-17.24 0.75,-8.97 2.78,-17.82 5.46,-26.41 0.79,-2.58 1.18,-5.26 1.3,-7.95 -2.33,1.16 -4.73,2.37 -6.46,4.39zm-170.29 5.83l0 0c-10.39,0.98 -20.8,1.67 -31.19,2.5 -2.72,0.14 -4.54,2.38 -6.44,4.04 -6.11,5.98 -14.01,9.67 -21.91,12.7 -3.23,1.33 -6.67,2.32 -9.51,4.43 -0.2,1.68 0.25,3.36 1.09,4.82 9.23,16.13 20.07,31.52 33.54,44.42 4.51,4.47 9.54,8.36 13.87,13.03 1.38,0.05 2.76,0.08 4.14,0.13 -2,-9.16 -3.35,-18.47 -5.8,-27.53 -1.14,-4.81 -6.34,-6.51 -9.53,-9.69 -6.03,-5.68 -11.16,-12.85 -13.01,-21.03 6.82,3.94 11.6,10.74 18.82,14.14 1.11,0.44 2.32,0.49 3.51,0.53 1.96,-5.8 1.88,-12.32 5.4,-17.57 1.58,-0.47 2.68,0.83 3.75,1.76 4.11,3.95 8.25,7.9 12.75,11.41 1.66,1.33 3.84,1.54 5.85,2 0.05,-7.71 1.2,-15.45 4.37,-22.53 6.57,5.35 13.44,10.45 21.2,13.96 1.68,0.61 3.5,0.65 5.27,0.88 0.08,-6.97 -0.96,-14.4 2.35,-20.85 1.89,-0.05 3.47,1.05 4.95,2.07 6.12,4.4 12.4,8.83 19.61,11.24 -0.06,-8.96 -0.27,-17.92 0.16,-26.88 -6.85,-1.84 -14.01,-1.18 -21.02,-1.28 -14.14,-0.14 -28.22,1.34 -42.21,3.29zm290.62 -1.47l0 0c0.01,5.87 1.73,11.52 2.55,17.3 0.85,5.65 -0.1,11.34 -0.58,16.98 -0.94,9.49 -3.63,18.67 -5.65,27.97 -1.62,7.62 -4.71,14.83 -6.22,22.49 -1.6,8.05 -4.72,15.72 -5.95,23.86 -2.39,14.27 -4.31,28.82 -2.64,43.28 0.84,6.9 0.61,14.3 4.28,20.48 1.39,-3.71 2.26,-7.62 2.33,-11.59 0.6,-13.87 5.15,-27.1 8.91,-40.34 1.66,-5.31 3.88,-10.41 5.68,-15.67 2.51,-7.36 6.11,-14.27 9.02,-21.47 2.83,-6.95 5.76,-13.89 9.43,-20.46 1.67,-3.14 3.73,-6.46 3.25,-10.18 -0.82,-7.77 -4.28,-14.91 -7.14,-22.07 -3.31,-8.26 -8.09,-15.82 -11.5,-24.02 -1.05,-2.85 -3.29,-4.94 -5.77,-6.56zm143.28 104.92l0 0c-6.15,3.18 -11.19,8.01 -16.33,12.55 -12.84,10.02 -25.84,19.91 -37.69,31.1 -4.01,3.74 -8.86,6.77 -11.86,11.44 -2.41,5.2 -1.6,11.13 -2.02,16.7 -0.45,5.4 -1.04,10.79 -1.51,16.2 -0.9,11.87 -3.18,23.57 -4.41,35.4 -0.76,8.27 -3.09,16.28 -4.42,24.46 -1.85,9.27 -3.86,18.64 -8,27.19 -3.38,7.3 -6.29,15.4 -12.85,20.52 -5.53,3.96 -12.18,5.82 -18.17,8.92 -1.53,0.83 -3.28,1.87 -3.63,3.74 -1.13,4.12 -0.7,8.43 -1.04,12.65 -0.5,5.57 -0.94,11.15 -1.36,16.74 -0.54,7.05 0.52,14.1 0.55,21.16 1.46,29.19 6.74,58.34 17.36,85.64 0.71,1.57 1.39,3.69 3.49,3.66 3.95,-2.76 6.8,-6.81 10.87,-9.44 2.49,-2.03 6.87,-4.05 5.42,-7.96 -1.25,-5.22 -1.79,-10.55 -1.88,-15.91 -1.19,-9.87 -0.5,-19.82 -0.72,-29.74 -0.24,-6.54 1.09,-13.01 0.95,-19.54 -0.16,-8.53 2.29,-16.78 3.44,-25.17 2.3,-16.63 6.24,-32.96 10.35,-49.22 1.41,-5.29 3.79,-10.29 4.7,-15.71 1.13,-7.15 4.14,-13.75 6.21,-20.64 6.24,-19.55 13.74,-38.65 21.23,-57.75 3.63,-7.56 6.25,-15.58 10.22,-22.98 3.36,-6.44 6.45,-13.03 9.26,-19.73 2.81,-6.74 6.69,-13.04 8.61,-20.12 1,-3.68 2.15,-7.35 4.02,-10.69 3.48,-6.22 6.4,-12.71 9.93,-18.9 0.64,-1.65 2.43,-3.68 0.78,-5.26 -0.38,0.18 -1.12,0.53 -1.51,0.7zm-210.91 104.19l0 0c-7.52,9.78 -19.19,15.66 -31.22,17.56 -4.94,0.75 -9.94,-0.01 -14.89,0.51 -0.21,1.51 -0.28,3.04 -0.34,4.57 6.47,3.4 11.13,9.28 17.57,12.72 5.91,3.28 12.62,6.55 19.57,5.19 7.9,-1.53 13.59,-8.65 15.76,-16.07 2.34,-8.21 -0.19,-16.68 -2.8,-24.49 -1.23,-0.02 -2.44,-0.02 -3.66,-0.01zm-120.46 33.11l0 0c-9.12,5.76 -19.65,10.19 -30.63,9.66 -1.81,0.05 -3.78,-0.16 -5.36,0.89 0,2.06 0.91,3.97 2.33,5.44 6.56,7.05 13.16,14.63 22.2,18.53 6.61,3.07 14.4,2.57 20.98,-0.31 4.97,-2.29 9.75,-5.03 14.33,-8.02 1.85,-1.78 -0.19,-4.38 -1.25,-6.04 -5.93,-8.06 -8.6,-18.04 -9.29,-27.91 -5.42,0.63 -8.89,5.11 -13.32,7.76z"/>
       </g>
      </g>
      <g>
       <path class="fil2" d="M312.73 457.57c1.73,-2.02 4.13,-3.22 6.46,-4.39 -0.12,2.69 -0.51,5.36 -1.3,7.95 -2.68,8.59 -4.7,17.44 -5.46,26.41 0.23,5.77 -1.52,11.5 -0.43,17.24 1.38,8.84 3.14,17.69 6.73,25.94 3.31,9.04 9.19,16.77 14.62,24.61 4.58,5.93 9.47,11.72 15.32,16.46 1.73,1.54 3.73,3.1 4.4,5.45 0.6,3.54 -0.08,7.14 -0.44,10.68 -0.69,9.82 -0.11,19.7 1.15,29.45 1.51,8.06 3.63,15.98 5.85,23.86 1.3,4.9 2.01,10.34 0.15,15.19 -2.81,6.18 -7.2,11.89 -13.22,15.22 -7.63,4.43 -16.63,5.42 -25.27,5.95 -7.18,0.52 -14.5,-2.62 -21.53,-0.12 3.37,7.32 7.04,14.68 12.57,20.64 1.97,2.23 4.2,4.3 5.67,6.92 -2.95,5.71 -7.64,11.1 -13.93,13.09 -5.18,0.84 -10.95,1.1 -15.58,-1.78 -8.09,-4.3 -14.26,-11.63 -17.7,-20.07 -5.93,-11.52 -6.18,-24.88 -5.45,-37.52 0.98,-6.53 0.71,-13.14 0.73,-19.71 0.19,-8.87 -2.64,-17.39 -5.1,-25.78 -2.83,-9.65 -7.82,-18.46 -13.41,-26.74 -7.69,-12.72 -17.18,-24.45 -23.02,-38.22 -4.97,-12.41 -5.14,-26.24 -2.84,-39.25 5.12,0.49 7.63,5.36 11.47,8.08 7.6,5.56 15.35,10.95 23.56,15.59 2.44,1.45 5.09,2.7 7.09,4.77 1.42,2.45 1.39,5.42 1.97,8.14 0.7,5.32 2.67,10.42 5.59,14.91 6.9,11.01 15.36,21.06 21.14,32.76 2.91,6.08 3.71,13.02 7.5,18.7 2.35,-6.16 1.52,-12.94 1.11,-19.36 -2.18,-9.4 -6.28,-18.47 -12.44,-25.93 -6.02,-7.81 -11.66,-16.88 -11.49,-27.09 0.67,-10.99 2.41,-21.89 4.14,-32.77 2.65,-12.25 7.39,-24.54 16.23,-33.71 5.03,-5.22 10.33,-10.16 15.18,-15.57z"/>
      </g>
     </g>
     <path class="fil3" d="M327.51 232.28c2.17,-4.9 1.25,-10.35 2.29,-15.46 0.48,-2.87 0.43,-5.84 -0.15,-8.69 -0.88,-4.46 -1.13,-9.21 -3.64,-13.14 -0.8,-0.95 -1.38,-2.65 -2.83,-2.57 -4.54,-0.22 -9.21,-0.46 -13.64,0.7 -3.46,0.94 -6.81,2.3 -9.83,4.24 -6.72,4.36 -13.88,8.18 -19.66,13.8 -7.75,6.25 -14.32,14.26 -17.72,23.69 -0.35,2.09 -0.35,4.27 0.08,6.37 5.83,8.35 14.38,15.09 24.46,17.3 5.25,0.38 10.58,0.4 15.83,-0.06 7.46,-3.29 13.88,-8.62 18.95,-14.97 2.52,-3.42 4.14,-7.37 5.88,-11.2z"/>
     <path class="fil3" d="M125.71 235.75c-1.38,-5.16 -5.29,-9.08 -7.37,-13.92 -1.08,-2.74 -3.09,-5 -5.37,-6.8 -1.97,-0.43 -4.02,-0.3 -6.02,-0.39 -2.38,3.53 -3.54,7.69 -4.55,11.77 -0.25,5.59 -0.05,11.18 0.21,16.76 0.7,4.89 2.96,9.37 5.56,13.51 2.61,-0.25 5.73,0.8 7.77,-1.35 3.26,-2.79 7.17,-4.93 9.71,-8.47 0.33,-3.69 0.3,-7.42 0.07,-11.11z"/>
     <path class="fil3" d="M250.81 456.27c-8.86,4.61 -18.92,6.07 -28.77,6.8 -1.61,-0.1 -2.87,1.48 -2.44,3.04 0.58,4.39 2.38,8.49 3.8,12.67 5.56,15.86 16.25,29.82 29.87,39.63 3.31,2.65 6.81,5.08 10.73,6.74 0.32,-3.22 0.04,-6.47 -0.82,-9.58 -3.65,-14.61 -4.49,-29.76 -3.82,-44.76 0.25,-6.61 2.03,-13.05 2.08,-19.66 -3.66,1.45 -7.16,3.25 -10.63,5.12z"/>
     <path class="fil3" d="M205.51 488.26c-0.06,-8.96 -0.27,-17.92 0.16,-26.88 -6.85,-1.84 -14.01,-1.18 -21.02,-1.28 -14.14,-0.14 -28.22,1.34 -42.21,3.29 -10.39,0.98 -20.8,1.67 -31.19,2.5 -2.72,0.14 -4.54,2.38 -6.44,4.04 -6.11,5.98 -14.01,9.67 -21.91,12.7 -3.23,1.33 -6.67,2.32 -9.51,4.43 -0.21,1.68 0.25,3.36 1.09,4.82 9.23,16.13 20.07,31.52 33.54,44.42 4.51,4.47 9.54,8.36 13.87,13.03 1.38,0.05 2.76,0.08 4.14,0.13 -2,-9.16 -3.35,-18.47 -5.8,-27.53 -1.14,-4.81 -6.34,-6.5 -9.53,-9.69 -6.03,-5.68 -11.16,-12.85 -13.01,-21.03 6.82,3.94 11.6,10.74 18.82,14.14 1.11,0.44 2.32,0.49 3.51,0.53 1.96,-5.8 1.88,-12.32 5.4,-17.57 1.58,-0.47 2.68,0.83 3.75,1.76 4.11,3.95 8.25,7.9 12.75,11.41 1.66,1.33 3.84,1.54 5.85,2 0.05,-7.71 1.2,-15.45 4.37,-22.53 6.57,5.35 13.44,10.45 21.2,13.96 1.68,0.61 3.5,0.65 5.27,0.88 0.08,-6.97 -0.96,-14.4 2.35,-20.85 1.89,-0.05 3.47,1.05 4.95,2.07 6.12,4.4 12.4,8.83 19.61,11.24z"/>
     <path class="fil3" d="M258.29 696.38c-5.42,0.63 -8.89,5.11 -13.32,7.76 -9.12,5.76 -19.66,10.19 -30.63,9.66 -1.81,0.05 -3.78,-0.16 -5.36,0.89 0,2.06 0.91,3.97 2.33,5.44 6.56,7.05 13.16,14.63 22.2,18.53 6.61,3.07 14.4,2.56 20.98,-0.31 4.97,-2.29 9.75,-5.03 14.33,-8.02 1.85,-1.78 -0.19,-4.38 -1.25,-6.04 -5.93,-8.06 -8.6,-18.04 -9.29,-27.91z"/>
     <path class="fil3" d="M318.98 693.68c6.47,3.4 11.13,9.28 17.57,12.72 5.91,3.28 12.62,6.55 19.57,5.19 7.9,-1.53 13.59,-8.65 15.76,-16.07 2.34,-8.21 -0.2,-16.68 -2.8,-24.49 -1.23,-0.02 -2.44,-0.02 -3.66,-0.01 -7.52,9.78 -19.19,15.66 -31.22,17.56 -4.94,0.75 -9.94,-0.01 -14.89,0.51 -0.21,1.51 -0.28,3.04 -0.34,4.57z"/>
    </g>
    <path class="fil4 str0" d="M837.56 198.93c11.99,21.41 27.46,41.1 46.61,56.56 7.27,6.48 15.36,11.89 23.23,17.59 8.44,6.26 17.54,11.56 26.4,17.2 17.18,10.97 34.74,21.38 51.25,33.36 17.92,12.82 35.3,26.51 50.91,42.11 41,39.58 72.9,87.62 99.24,137.89 3.06,5.53 0.7,11.87 -0.14,17.66 -5.25,34.61 -14.35,68.78 -28.54,100.82 -12.41,28.34 -28.89,54.91 -49.1,78.35 -9.81,11.82 -20.64,22.79 -32.26,32.83 -27.33,24.01 -58.3,43.63 -90.76,59.92 -67.38,33.6 -140.25,53.85 -212.54,73.86 -41.55,11.74 -83.32,22.8 -124.33,36.4 -8.53,3.01 -17.43,5.24 -25.33,9.79 -5.35,3.02 -11.42,4.27 -17.17,6.26 -29.94,11.63 -59.04,25.58 -86.17,42.83 -18.58,-25.29 -30.62,-54.93 -37.35,-85.46 -5.97,-27.78 -8.35,-56.24 -8.71,-84.62 -8.01,2.14 -15.02,6.82 -22.94,9.18 -12.86,4.53 -26.37,6.72 -39.81,8.65 -19.3,2.3 -39.31,1.93 -57.92,-4.18 -6.4,-2.27 -12.71,-5.54 -17.17,-10.78 -2.71,-3.15 -4.43,-6.98 -6.19,-10.7 -7.64,-0.27 -15.59,-0.51 -22.55,-4.07 -7.43,-3.75 -14.34,-10.02 -16.22,-18.43 -0.87,-3.12 -0.96,-6.52 -2.51,-9.4 -4.58,-2.27 -9.9,-2.6 -14.43,-5.06 -13.13,-6.43 -22.08,-19.74 -25.2,-33.79 -0.49,-3.61 -1.77,-8.2 1.14,-11.1 5.35,-0.32 10.68,1.39 16.04,0.51 13.87,-1.67 26.76,-10.08 33.4,-22.45 7.3,-13.41 8.42,-30.06 2.69,-44.24 -3.33,-8.33 -9.4,-15.09 -15.29,-21.67 -6.53,-7.13 -13.08,-14.24 -19.49,-21.47 -8.57,-10.14 -16.16,-21.95 -17.84,-35.39 -1.38,-10.48 -2.89,-21.31 -8.23,-30.63 -5.29,-9.18 -13.35,-16.38 -21.62,-22.83 -2.65,-1.88 -5.36,-4.37 -8.83,-4.22 -3.95,5.83 -4.66,13.13 -7.96,19.27 -5.61,-1.27 -10.22,-5.19 -15.91,-6.33 -4.14,19.16 -0.9,38.74 1.98,57.82 -4.03,-2.03 -8.01,-4.15 -12.17,-5.92 -1.89,-0.88 -3.67,-1.99 -5.24,-3.35 -4.85,-4.47 -10.47,-7.95 -15.57,-12.1 -19.1,-15.18 -34.14,-35.23 -44.12,-57.45 -2.65,-6.25 -8.63,-9.84 -13.55,-14.12 -13.41,-11.93 -25.84,-25.46 -33.81,-41.71 -8.82,-17.42 -11.57,-38.13 -6.14,-57 5.7,-20.83 18.8,-38.75 33.85,-53.86 5.31,-4.93 10.44,-10.06 16.16,-14.51 1.84,-1.53 3.86,-2.96 5.17,-5.01 -0.48,-4.07 -3.48,-7.2 -5.32,-10.72 -4.23,-7.31 -8.01,-16.16 -5.09,-24.65 3.32,-8.33 11.37,-13.23 18.52,-17.95 3.93,-2.77 9.19,-4.13 11.75,-8.48 -2.91,-3.06 -6.58,-5.23 -9.69,-8.05 -9.62,-8.49 -15.72,-20.98 -15.98,-33.86 -0.59,-10.99 2.04,-21.97 6.94,-31.77 3.03,-6.35 7.42,-11.89 11.06,-17.86 8.5,-10.14 20.1,-17.94 32.97,-21.25 4.95,-1.22 10.43,0.94 15.07,-1.56 9.61,-5.05 18.7,-11.01 28.16,-16.31 7.64,-3.13 14.3,-8.1 21.67,-11.77 3.72,-1.99 7.71,-3.38 11.53,-5.18 1.26,-0.69 2.85,-1.35 3.22,-2.91 1.33,-4.57 1.4,-9.41 2.82,-13.98 2.76,-9.26 6.9,-18.07 11.84,-26.35 6.55,-10.81 13.96,-21.21 23,-30.09 7.04,-7.17 14.99,-13.89 24.54,-17.39 6.12,-2.13 14.04,-2.07 18.37,3.46 6.06,7.44 10.64,15.98 16.33,23.7 1.03,1.32 2.26,3.11 4.17,2.2 8.22,-2.65 15.41,-7.69 23.48,-10.71 22.55,-8.73 45.9,-15.85 69.96,-18.86 23.27,-2.23 47.15,-1.28 69.58,5.78 6.44,1.84 12.71,5.38 19.62,4.5 32.47,-3.62 65.42,-8.75 98.03,-3.63 30.48,5.45 58.48,19.49 85.63,33.83 18.63,10.04 37.1,20.4 55.36,31.1 7.47,4.29 16,5.99 24.26,8.09 10.84,2.72 21.91,4.49 33.05,5.47 16.83,1.28 34.26,-1.45 49.22,-9.53 4.76,-2.42 9.2,-5.63 14.4,-7.1 2.17,-0.76 4.59,-0.04 6.15,1.62 3.55,3.7 4.59,8.97 6.17,13.68 4.34,13.35 7.26,27.19 8.27,41.2 0.83,20.45 -3.49,41.17 -12.67,59.49 -1.2,2.7 -3.09,5.86 -1.36,8.78z"/>
   </g>
   <path class="fil4 str1" d="M316.32 192.24c9.11,35.71 -3.07,57.01 -36.53,63.89"/>
   <path class="fil4 str1" d="M109.97 214.71c-7.12,17.02 -6.47,31.02 1.94,42.01"/>
   <path class="fil5" d="M111.91 256.72c-8.41,-10.99 -9.05,-25 -1.94,-42.01 -1.01,-0.03 -2.02,-0.02 -3.02,-0.07 -2.38,3.53 -3.54,7.69 -4.55,11.77 -0.25,5.59 -0.05,11.18 0.21,16.76 0.7,4.89 2.96,9.37 5.56,13.51 1.19,-0.11 2.49,0.04 3.74,0.04z"/>
   <path class="fil5" d="M316.32 192.24c9.11,35.71 -3.07,57.01 -36.53,63.89 2.25,1.03 4.61,1.84 7.06,2.37 5.25,0.38 10.58,0.4 15.83,-0.06 7.46,-3.29 13.88,-8.62 18.95,-14.97 2.52,-3.42 4.14,-7.37 5.88,-11.2 2.17,-4.9 1.25,-10.35 2.29,-15.46 0.48,-2.87 0.43,-5.84 -0.15,-8.69 -0.88,-4.46 -1.13,-9.21 -3.64,-13.14 -0.8,-0.95 -1.38,-2.65 -2.83,-2.57 -2.27,-0.11 -4.57,-0.23 -6.85,-0.17z"/>
   <path class="fil6" d="M279.79 256.13c33.46,-6.88 45.64,-28.18 36.53,-63.89 -2.29,0.06 -4.57,0.29 -6.79,0.87 -3.46,0.94 -6.81,2.3 -9.83,4.24 -6.72,4.36 -13.88,8.18 -19.66,13.8 -7.75,6.25 -14.32,14.26 -17.72,23.69 -0.35,2.09 -0.35,4.27 0.08,6.37 4.41,6.32 10.38,11.72 17.4,14.93z"/>
   <path class="fil6" d="M125.71 235.75c-1.38,-5.16 -5.29,-9.08 -7.37,-13.92 -1.08,-2.74 -3.09,-5 -5.37,-6.8 -0.99,-0.21 -1.99,-0.29 -3,-0.32 -7.12,17.02 -6.47,31.02 1.94,42.01 1.49,0 2.92,-0.22 4.03,-1.39 3.26,-2.79 7.17,-4.93 9.71,-8.47 0.33,-3.69 0.3,-7.42 0.07,-11.11z"/>
  </g>
 </g>
</svg>
