<?xml version="1.0" encoding="UTF-8"?>
<!DOCTYPE svg PUBLIC "-//W3C//DTD SVG 1.1//EN" "http://www.w3.org/Graphics/SVG/1.1/DTD/svg11.dtd">
<!-- Creator: CorelDRAW 2018 (64-Bit) -->
<svg xmlns="http://www.w3.org/2000/svg" xml:space="preserve" width="0.501909in" height="0.355531in" version="1.1" style="shape-rendering:geometricPrecision; text-rendering:geometricPrecision; image-rendering:optimizeQuality; fill-rule:evenodd; clip-rule:evenodd"
viewBox="0 0 4.18 2.96"
 xmlns:xlink="http://www.w3.org/1999/xlink">
 <defs>
  <style type="text/css">
   <![CDATA[
    .str0 {stroke:white;stroke-width:0.05;stroke-miterlimit:2.61313}
    .fil15 {fill:none}
    .fil14 {fill:#000002;fill-rule:nonzero}
    .fil12 {fill:#000100;fill-rule:nonzero}
    .fil1 {fill:#000102;fill-rule:nonzero}
    .fil10 {fill:#020305;fill-rule:nonzero}
    .fil13 {fill:#060606;fill-rule:nonzero}
    .fil0 {fill:#060607;fill-rule:nonzero}
    .fil7 {fill:#5D5F64;fill-rule:nonzero}
    .fil2 {fill:#A0A1A7;fill-rule:nonzero}
    .fil3 {fill:#A6A3AB;fill-rule:nonzero}
    .fil9 {fill:#C79933;fill-rule:nonzero}
    .fil4 {fill:#EFF4FB;fill-rule:nonzero}
    .fil8 {fill:#FBEB58;fill-rule:nonzero}
    .fil5 {fill:#FCFDFC;fill-rule:nonzero}
    .fil11 {fill:#FCFFFF;fill-rule:nonzero}
    .fil6 {fill:#FDFDFF;fill-rule:nonzero}
   ]]>
  </style>
 </defs>
 <g id="Layer_x0020_1">
  <metadata id="CorelCorpID_0Corel-Layer"/>
  <g id="_954173424">
   <path class="fil0" d="M3.1 1.35c0.05,-0.05 0.12,-0.11 0.2,-0.08 0.09,0.04 0.15,0.13 0.24,0.17 0.01,-0 0.04,-0 0.05,-0.01 0.02,-0 0.05,-0 0.07,-0 -0.02,0.02 -0.04,0.05 -0.05,0.08 0.02,0.03 0.04,0.06 0.07,0.09 -0.06,-0.03 -0.12,-0.07 -0.18,-0.07 -0.07,0 -0.14,0.04 -0.19,0.09 -0,-0.01 -0.01,-0.02 -0.01,-0.03 -0.04,-0 -0.09,-0.01 -0.12,-0.05 -0.04,-0.04 -0.03,-0.11 -0.01,-0.16 -0.01,-0 -0.04,-0.01 -0.05,-0.01zm0.14 0.09l0 0c0,0.06 0.07,0.09 0.12,0.07 0.02,-0.01 0.03,-0.02 0.03,-0.03 -0.04,-0 -0.07,-0.04 -0.06,-0.08 0.01,-0.01 0.03,-0.02 0.04,-0.03 -0.02,-0.01 -0.04,-0.03 -0.06,-0.04 -0.04,0.02 -0.09,0.06 -0.07,0.11z"/>
   <path class="fil1" d="M0.26 0.05c0.07,0 0.13,-0.01 0.2,-0.02 0.17,-0 0.34,-0.01 0.51,0.02 0.05,0 0.11,0.01 0.16,0.03 0.16,0.02 0.32,0.09 0.48,0.12 0.05,0.04 0.11,0.06 0.17,0.07 -0.01,-0.08 -0.08,-0.13 -0.13,-0.17 0.01,-0 0.02,-0.01 0.02,-0.01 0.16,-0.01 0.32,0.03 0.47,0.08 0.17,0.07 0.33,0.18 0.47,0.3 0.02,0.02 0.04,0.04 0.07,0.06 0.01,0.01 0.03,0.02 0.04,0.03 0.06,0.05 0.11,0.1 0.17,0.15 0.03,0.02 0.05,0.04 0.07,0.06 0.11,0.1 0.23,0.18 0.37,0.24 0.13,0.06 0.28,0.08 0.41,0.13 0.08,0.05 0.1,0.15 0.16,0.22 0.03,0.04 0.06,0.08 0.07,0.13 -0,0.03 0.02,0.06 0.04,0.08 0.01,0.01 0.02,0.02 0.04,0.04 0.06,0.09 0.16,0.21 0.11,0.33 -0.02,0.1 -0.08,0.19 -0.16,0.24 -0.04,0.01 -0.08,0.01 -0.13,0.02 -0.08,0.04 -0.16,0.04 -0.25,0.03 -0.01,-0 -0.03,-0.01 -0.05,-0.01 -0.02,-0.02 -0.06,-0.04 -0.09,-0.02 -0.07,0.05 -0.14,0.11 -0.18,0.19 -0.1,0.17 -0.13,0.38 -0.14,0.58 -0.07,-0 -0.13,0.01 -0.2,-0.02 -0.06,-0.02 -0.13,-0.02 -0.19,-0.04 -0.07,-0.02 -0.13,-0.04 -0.2,-0.07 -0.16,-0.08 -0.3,-0.18 -0.43,-0.29 -0.15,-0.13 -0.32,-0.24 -0.5,-0.31 -0.12,-0.04 -0.25,-0.08 -0.38,-0.09 -0.08,-0.02 -0.16,-0.01 -0.24,-0.03 0,-0.01 0.01,-0.02 0.02,-0.03 0.21,-0.21 0.5,-0.34 0.8,-0.4 0.08,-0.02 0.17,-0.04 0.26,-0.06 -0,-0.02 -0,-0.04 -0.01,-0.06 0.02,-0 0.05,-0 0.07,-0 0.03,0 0.06,-0 0.08,-0.02 0.03,-0.01 0.06,-0.02 0.08,-0.04 0.07,-0.05 0.12,-0.12 0.16,-0.2 0.01,-0.03 -0.02,-0.03 -0.04,-0.05 -0,-0 -0.01,-0 -0.01,-0.01l-0.01 -0.01c-0.06,-0.05 -0.14,-0.07 -0.22,-0.09 -0.09,-0.03 -0.19,-0.02 -0.28,-0.04 -0.11,-0.02 -0.23,-0.01 -0.34,-0.04 -0.23,-0.02 -0.45,-0.12 -0.65,-0.24 -0.23,-0.15 -0.4,-0.35 -0.62,-0.51 -0.07,-0.07 -0.16,-0.12 -0.25,-0.16 -0,-0.02 -0.01,-0.04 -0.02,-0.06 0.08,0.01 0.14,-0.04 0.22,-0.03zm2.58 0.73c-0.11,-0.1 -0.22,-0.19 -0.33,-0.28 -0.18,-0.14 -0.38,-0.26 -0.6,-0.31 0.06,0.04 0.11,0.07 0.16,0.12 0.11,0.1 0.23,0.19 0.35,0.27 0.14,0.1 0.28,0.2 0.43,0.28 0.01,0 0.02,0.01 0.02,0.01 0.09,0.04 0.17,0.08 0.26,0.11 -0.1,-0.06 -0.2,-0.13 -0.29,-0.21l-0 -0.01zm-0.15 0.13c-0.01,-0 -0.02,-0.01 -0.03,-0.01 -0.11,-0.06 -0.23,-0.12 -0.34,-0.18 -0.29,-0.18 -0.58,-0.35 -0.9,-0.45 -0.14,-0.04 -0.28,-0.08 -0.42,-0.1 -0.07,-0.03 -0.15,-0.03 -0.23,-0.04 -0.16,-0.02 -0.32,-0.01 -0.49,-0.01 0,0.02 0,0.04 0,0.05 0.1,0.03 0.17,0.1 0.26,0.15 0.22,0.21 0.44,0.44 0.73,0.55 0.14,0.05 0.29,0.07 0.44,0.08 -0.15,-0.05 -0.31,-0.09 -0.44,-0.18 -0.12,-0.08 -0.22,-0.18 -0.31,-0.29 -0.05,-0.06 -0.12,-0.1 -0.18,-0.15 -0.05,-0.03 -0.1,-0.07 -0.16,-0.09 -0.02,-0.01 -0.05,-0.02 -0.07,-0.03 -0,-0.01 -0.01,-0.02 -0.01,-0.03 0.09,0 0.19,0.03 0.27,0.07 0.22,0.09 0.42,0.24 0.65,0.3 0.25,0.07 0.51,0.13 0.75,0.23 0.11,0.04 0.21,0.09 0.31,0.15 0.08,0.05 0.16,0.12 0.2,0.21 0.01,0.03 0.02,0.06 0.03,0.08 -0,0 -0.01,0.01 -0.01,0.01 -0.05,-0.1 -0.16,-0.16 -0.25,-0.21 0,0.02 0.01,0.05 0.01,0.07 -0.13,-0.05 -0.27,-0.08 -0.41,-0.11 0.13,0.05 0.28,0.1 0.39,0.19 0.07,0.06 0.09,0.16 0.07,0.24 -0.01,0.07 -0.05,0.12 -0.1,0.17 -0,0 -0.01,0.01 -0.01,0.01 0.01,-0.06 0.01,-0.11 0,-0.17 -0.06,0.07 -0.13,0.15 -0.22,0.16 0.01,0.01 0.02,0.03 0.03,0.04 -0.01,0 -0.04,0.01 -0.05,0.02 -0.04,0.01 -0.08,0.02 -0.13,0.04 -0.01,0 -0.02,0.01 -0.03,0.01 -0.25,0.06 -0.52,0.11 -0.73,0.28 0.22,0.02 0.44,0.04 0.63,0.14 0.14,0.07 0.23,0.19 0.37,0.26 -0.02,-0.07 -0.02,-0.15 0,-0.22 0.1,0.16 0.23,0.31 0.39,0.42 0.11,0.07 0.22,0.12 0.35,0.14 0.01,-0.12 0.04,-0.24 0.1,-0.35 0.02,-0.05 0.06,-0.1 0.09,-0.15 -0.09,0.01 -0.18,0.04 -0.26,0.07 0,-0.02 0.01,-0.04 0.01,-0.06 -0.11,0.01 -0.22,0.01 -0.31,-0.04 -0.06,-0.03 -0.1,-0.09 -0.14,-0.15 0.02,-0 0.04,-0.01 0.06,-0.01 -0.05,-0.11 -0.08,-0.24 -0.02,-0.36 0.01,-0.01 0.01,-0.02 0.02,-0.03l0 0.01c-0.03,0.14 0.02,0.3 0.15,0.38 -0.01,0.01 -0.02,0.02 -0.03,0.03 0.07,0.02 0.13,0.04 0.2,0.03 0.1,-0 0.19,-0.05 0.28,-0.09 -0.01,0.02 -0.02,0.05 -0.03,0.07 0.07,-0.03 0.14,-0.03 0.21,-0.03 -0.01,-0.06 0.01,-0.12 0.04,-0.17 0,-0 0.01,-0 0.02,-0 -0.01,0.07 0.02,0.15 0.09,0.19 0.1,0.06 0.23,0.07 0.33,0.02 0.04,-0.02 0.07,-0.05 0.09,-0.09 -0.04,-0.06 -0.06,-0.12 -0.08,-0.19 0.06,0.02 0.11,0.07 0.17,0.1 0.01,-0.02 0.03,-0.04 0.04,-0.06 0.01,-0.03 -0.01,-0.06 -0.02,-0.09 -0.04,-0.09 -0.1,-0.16 -0.18,-0.23 -0.01,-0.04 -0.03,-0.06 -0.06,-0.09 0.01,-0 0.03,-0 0.04,-0 -0.03,-0.05 -0.06,-0.1 -0.1,-0.14 -0.03,-0.04 -0.05,-0.09 -0.09,-0.11 -0.05,-0.03 -0.11,-0.03 -0.17,-0.03 0.01,0.03 0.02,0.06 0.03,0.1 -0.08,-0.07 -0.17,-0.15 -0.28,-0.18 -0.14,-0.01 -0.26,0.07 -0.35,0.16 0.02,-0.07 0.06,-0.14 0.12,-0.19 -0.06,-0.02 -0.12,-0.05 -0.18,-0.07 -0.06,-0.03 -0.12,-0.05 -0.18,-0.08zm1.27 1.18l0 0c-0.01,0 -0.01,0.01 -0.01,0.02 0.05,-0.03 0.11,-0.07 0.12,-0.13 -0.05,0.02 -0.07,0.08 -0.11,0.11z"/>
   <path class="fil2" d="M1.01 0.16c0.14,0.02 0.28,0.05 0.42,0.1 0.32,0.1 0.61,0.27 0.9,0.45 0.11,0.07 0.22,0.13 0.34,0.18 0.01,0 0.02,0.01 0.03,0.01 0.06,0.03 0.12,0.06 0.18,0.08 0.06,0.02 0.12,0.05 0.18,0.07 -0.05,0.05 -0.09,0.12 -0.12,0.19 0.09,-0.09 0.21,-0.18 0.35,-0.16 0.11,0.02 0.19,0.1 0.28,0.18 -0.01,-0.03 -0.02,-0.06 -0.03,-0.1 0.06,0 0.12,0 0.17,0.03 0.05,0.02 0.06,0.07 0.09,0.11 0.03,0.05 0.07,0.09 0.1,0.14 -0.01,0 -0.03,0 -0.04,0 0.03,0.02 0.05,0.05 0.06,0.09 0.07,0.06 0.14,0.14 0.18,0.23 0.01,0.03 0.03,0.06 0.02,0.09 -0.01,0.02 -0.03,0.04 -0.04,0.06 -0.05,-0.04 -0.1,-0.08 -0.17,-0.1 -0,-0.01 -0.01,-0.02 -0.02,-0.02l-0.01 0.02c-0.03,-0.04 -0.07,-0.07 -0.12,-0.09 -0.05,-0.01 -0.11,-0.02 -0.16,-0 -0.08,0.03 -0.16,0 -0.23,0.03 -0.05,0.01 -0.1,0.03 -0.15,0.05 0.1,-0 0.19,-0.02 0.29,-0.01 -0.02,0.03 -0.03,0.07 -0.04,0.1 -0,0 -0.01,0 -0.02,0 -0.04,0 -0.07,0.02 -0.1,0.03 0,-0.02 0,-0.04 0.01,-0.06 -0.09,0.02 -0.17,0.06 -0.26,0.1 -0.08,0.03 -0.16,0.06 -0.24,0.05 0.01,-0.02 0.02,-0.04 0.03,-0.06 -0.07,-0.01 -0.15,-0.02 -0.19,-0.08 -0.06,-0.06 -0.05,-0.14 -0.07,-0.21l-0 -0.01c-0.01,0.01 -0.02,0.02 -0.02,0.03 -0.06,0.11 -0.03,0.25 0.02,0.36 -0.02,0 -0.04,0.01 -0.06,0.01 0.03,0.06 0.08,0.12 0.14,0.15 0.09,0.05 0.21,0.05 0.31,0.04 -0,0.02 -0.01,0.04 -0.01,0.06 0.08,-0.04 0.17,-0.07 0.26,-0.07 -0.03,0.05 -0.07,0.1 -0.09,0.15 -0.09,-0.02 -0.16,0.04 -0.23,0.08 -0.01,-0.03 -0.02,-0.05 -0.02,-0.08 -0.08,0.05 -0.15,0.11 -0.19,0.2 -0.16,-0.11 -0.29,-0.25 -0.39,-0.42 -0.02,0.07 -0.02,0.15 -0,0.22 -0.14,-0.07 -0.23,-0.19 -0.37,-0.26 -0.19,-0.1 -0.42,-0.13 -0.63,-0.14 0.21,-0.17 0.48,-0.22 0.73,-0.28 0.01,-0 0.02,-0.01 0.03,-0.01 0.04,-0.01 0.08,-0.02 0.13,-0.04 0.01,-0 0.04,-0.01 0.05,-0.02 -0.01,-0.01 -0.02,-0.03 -0.03,-0.04 0.1,-0.02 0.16,-0.09 0.22,-0.16 0.01,0.06 0.01,0.11 -0,0.17 0,-0 0.01,-0.01 0.01,-0.01 0.02,-0.01 0.03,-0.02 0.05,-0.03 0.04,-0.05 0.08,-0.1 0.11,-0.15 0,-0.03 0.01,-0.06 0.01,-0.09 0.02,0 0.03,0.01 0.05,0.01 -0,-0.04 -0.01,-0.09 -0.01,-0.13 0.03,0.01 0.06,0.02 0.09,0.04 0,-0 0.01,-0.01 0.01,-0.01 -0.01,-0.03 -0.02,-0.06 -0.03,-0.08 -0.04,-0.09 -0.12,-0.16 -0.2,-0.21 -0.1,-0.06 -0.2,-0.11 -0.31,-0.15 -0.24,-0.1 -0.5,-0.16 -0.75,-0.23 -0.23,-0.06 -0.43,-0.2 -0.65,-0.3 -0.08,-0.05 -0.17,-0.07 -0.27,-0.07 0,0.01 0.01,0.02 0.01,0.03 0.02,0.01 0.05,0.02 0.07,0.03 0.06,0.02 0.11,0.06 0.16,0.09 0.06,0.04 0.14,0.08 0.18,0.15 0.09,0.11 0.19,0.21 0.31,0.29 0.13,0.09 0.29,0.13 0.44,0.18 -0.15,-0.01 -0.3,-0.03 -0.44,-0.08 -0.29,-0.11 -0.51,-0.35 -0.73,-0.55 -0.09,-0.05 -0.16,-0.12 -0.26,-0.15 -0,-0.02 -0,-0.04 -0,-0.05 0.16,-0 0.33,-0.01 0.49,0.01 0.08,0.01 0.15,0.01 0.23,0.04zm1.82 1.42c-0.01,0.04 -0.03,0.07 -0.05,0.11 0.01,0 0.04,0 0.05,0.01 -0.01,0.03 -0.03,0.06 -0.05,0.09 0.05,-0.02 0.09,-0.05 0.11,-0.09 0,-0.09 -0.02,-0.18 -0.04,-0.27 -0.02,0.05 -0.03,0.11 -0.04,0.16zm0.34 -0.41l0 0c-0.06,0.02 -0.13,0.05 -0.17,0.11 -0,0.02 0.01,0.03 0.02,0.04 -0.02,0.03 -0.03,0.06 -0.04,0.1 0.02,0 0.05,0 0.07,0 -0.02,0.1 0.08,0.2 0.18,0.19 0.01,0.01 0.03,0.02 0.04,0.03 0,-0.02 0,-0.04 0,-0.07 0,0.01 0.01,0.02 0.01,0.03 0.05,-0.05 0.12,-0.09 0.19,-0.09 0.07,0 0.13,0.04 0.18,0.07 -0.02,-0.03 -0.05,-0.06 -0.07,-0.09 0.01,-0.03 0.03,-0.05 0.05,-0.08 -0.02,0 -0.05,0 -0.07,0 0.01,-0 0.02,-0.01 0.03,-0.02 -0.08,-0.05 -0.16,-0.1 -0.23,-0.17 -0.05,-0.06 -0.14,-0.1 -0.22,-0.08z"/>
   <path class="fil3" d="M1.9 0.19c0.22,0.05 0.42,0.17 0.6,0.31 0.11,0.09 0.22,0.18 0.33,0.28l0 0.01c0.09,0.08 0.19,0.15 0.29,0.21 -0.09,-0.03 -0.18,-0.07 -0.26,-0.11 -0.01,-0 -0.02,-0.01 -0.02,-0.01 -0.15,-0.08 -0.29,-0.18 -0.43,-0.28 -0.12,-0.09 -0.24,-0.17 -0.35,-0.27 -0.05,-0.05 -0.11,-0.08 -0.16,-0.12z"/>
   <path class="fil4" d="M3.96 2.08c0.04,-0.03 0.06,-0.09 0.11,-0.11 -0.01,0.07 -0.07,0.1 -0.12,0.13 0,-0.01 0,-0.02 0.01,-0.02z"/>
   <path class="fil4" d="M2.93 2.46c0.07,-0.04 0.14,-0.1 0.23,-0.08 -0.05,0.11 -0.08,0.23 -0.1,0.35 -0.12,-0.02 -0.24,-0.07 -0.35,-0.14 0.04,-0.09 0.11,-0.15 0.19,-0.2 0.01,0.03 0.02,0.05 0.02,0.08z"/>
   <path class="fil5" d="M2.11 0.99c0.14,0.03 0.28,0.06 0.41,0.11 -0,-0.02 -0.01,-0.05 -0.01,-0.07 0.1,0.05 0.2,0.11 0.25,0.21 -0.03,-0.01 -0.06,-0.02 -0.09,-0.04 0.01,0.04 0.01,0.09 0.01,0.13 -0.02,-0 -0.03,-0.01 -0.05,-0.01 -0,0.03 -0.01,0.06 -0.01,0.09 -0.03,0.06 -0.06,0.11 -0.11,0.15 -0.02,0.01 -0.03,0.02 -0.05,0.03 0.04,-0.05 0.08,-0.1 0.1,-0.17 0.02,-0.09 0,-0.19 -0.07,-0.24 -0.11,-0.1 -0.25,-0.14 -0.39,-0.19z"/>
   <path class="fil6" d="M3.17 1.17c0.08,-0.02 0.17,0.01 0.22,0.08 0.06,0.07 0.15,0.12 0.23,0.17 -0.01,0 -0.02,0.01 -0.03,0.02 -0.01,0 -0.04,0 -0.05,0.01 -0.09,-0.04 -0.15,-0.12 -0.24,-0.17 -0.08,-0.03 -0.15,0.03 -0.2,0.08 0.01,0 0.04,0.01 0.05,0.01 -0.02,0.05 -0.03,0.12 0.01,0.16 0.03,0.04 0.08,0.05 0.12,0.05 -0,0.02 -0,0.04 -0,0.07 -0.01,-0.01 -0.03,-0.02 -0.04,-0.03 -0.1,0.01 -0.2,-0.09 -0.18,-0.19 -0.02,-0 -0.05,-0 -0.07,-0 0.01,-0.03 0.03,-0.07 0.04,-0.1 -0.01,-0.01 -0.02,-0.03 -0.02,-0.04 0.04,-0.06 0.11,-0.09 0.17,-0.11z"/>
   <path class="fil6" d="M3.59 1.7c0.05,-0.02 0.11,-0.01 0.16,0 0.05,0.02 0.08,0.06 0.12,0.09l0.01 -0.02c0,0.01 0.01,0.02 0.02,0.02 0.02,0.06 0.04,0.13 0.08,0.19 -0.03,0.03 -0.06,0.07 -0.09,0.09 -0.1,0.05 -0.23,0.03 -0.33,-0.02 -0.06,-0.04 -0.09,-0.11 -0.09,-0.19 0.01,-0.04 0.02,-0.07 0.04,-0.1 0.09,0 0.18,0.04 0.27,0.03 -0.01,-0.02 -0.03,-0.04 -0.05,-0.05 -0.11,-0.03 -0.23,-0.03 -0.35,-0.02 0.07,-0.03 0.16,-0.01 0.23,-0.03zm-0.08 0.23l0 0c0.08,-0.03 0.18,-0.05 0.27,-0.04 0.03,0.01 0.05,-0.03 0.01,-0.04 -0.1,-0.01 -0.21,0 -0.28,0.07zm0.12 0.1l0 0c0.06,-0.03 0.13,-0.04 0.19,-0.06 -0,-0.01 -0.01,-0.02 -0.01,-0.03 -0.07,-0.02 -0.14,0.03 -0.18,0.08z"/>
   <path class="fil7" d="M2.41 1.23c0,0 0.01,0 0.01,0.01l-0 -0 -0 -0z"/>
   <path class="fil8" d="M3.24 1.44c-0.01,-0.05 0.03,-0.09 0.07,-0.11 0.01,0.01 0.02,0.02 0.02,0.03 -0.07,0.04 -0.04,0.14 0.03,0.15 -0.05,0.02 -0.12,-0.02 -0.12,-0.07z"/>
   <path class="fil9" d="M3.31 1.34c0.02,0.01 0.04,0.02 0.06,0.04 -0.01,0.01 -0.03,0.02 -0.04,0.03 -0.02,0.04 0.01,0.08 0.06,0.08 -0,0.01 -0.02,0.02 -0.03,0.03 -0.07,-0.01 -0.1,-0.11 -0.03,-0.15 -0,-0.01 -0.02,-0.02 -0.02,-0.03z"/>
   <path class="fil10" d="M2.87 1.42c0.01,0.09 0.04,0.18 0.04,0.27 -0.02,0.05 -0.07,0.08 -0.11,0.09 0.02,-0.03 0.03,-0.06 0.05,-0.09 -0.01,-0 -0.04,-0 -0.05,-0.01 0.02,-0.03 0.04,-0.07 0.05,-0.11 0.01,-0.05 0.02,-0.11 0.04,-0.16z"/>
   <path class="fil11" d="M2.61 1.65c0.02,0.07 0.02,0.15 0.07,0.21 0.04,0.06 0.12,0.07 0.19,0.08 -0.01,0.02 -0.02,0.04 -0.03,0.06 0.08,0.01 0.17,-0.02 0.24,-0.05 0.08,-0.03 0.17,-0.08 0.26,-0.1 -0,0.02 -0,0.04 -0.01,0.06 0.03,-0.02 0.06,-0.03 0.1,-0.03 -0.03,0.05 -0.04,0.11 -0.04,0.17 -0.07,-0.01 -0.15,0 -0.21,0.03 0.01,-0.02 0.02,-0.05 0.03,-0.07 -0.09,0.04 -0.18,0.09 -0.28,0.09 -0.07,0 -0.14,-0.02 -0.2,-0.03 0.01,-0.01 0.02,-0.02 0.03,-0.03 -0.12,-0.08 -0.17,-0.24 -0.15,-0.38z"/>
   <path class="fil12" d="M3.21 1.78c0.05,-0.02 0.1,-0.03 0.15,-0.05 0.12,-0.01 0.24,-0.01 0.35,0.02 0.03,0 0.04,0.03 0.05,0.05 -0.09,0.01 -0.18,-0.03 -0.27,-0.03 -0.1,-0.01 -0.19,0.01 -0.29,0.01z"/>
   <path class="fil13" d="M3.51 1.93c0.07,-0.07 0.18,-0.09 0.28,-0.07 0.03,0.01 0.01,0.05 -0.01,0.04 -0.09,-0.01 -0.18,0 -0.27,0.04z"/>
   <path class="fil14" d="M3.63 2.03c0.04,-0.05 0.11,-0.1 0.18,-0.08 0,0.01 0.01,0.02 0.01,0.03 -0.06,0.02 -0.13,0.03 -0.19,0.06z"/>
   <path class="fil15 str0" d="M3.96 1.48c-0,0.03 0.02,0.06 0.04,0.08 0.01,0.01 0.02,0.02 0.04,0.04 0.06,0.09 0.16,0.21 0.11,0.33 -0.02,0.1 -0.08,0.19 -0.16,0.24 -0.04,0.01 -0.08,0.01 -0.13,0.02 -0.08,0.04 -0.16,0.04 -0.25,0.03 -0.01,-0 -0.03,-0.01 -0.05,-0.01 -0.02,-0.02 -0.06,-0.04 -0.09,-0.02 -0.07,0.05 -0.14,0.11 -0.18,0.19 -0.1,0.17 -0.13,0.38 -0.14,0.58 -0.07,-0 -0.13,0.01 -0.2,-0.02 -0.06,-0.02 -0.13,-0.02 -0.19,-0.04 -0.07,-0.02 -0.13,-0.04 -0.2,-0.07 -0.16,-0.08 -0.3,-0.18 -0.43,-0.29 -0.15,-0.13 -0.32,-0.24 -0.5,-0.31 -0.12,-0.04 -0.25,-0.08 -0.38,-0.09 -0.08,-0.02 -0.16,-0.01 -0.24,-0.03 0,-0.01 0.01,-0.02 0.02,-0.03 0.21,-0.21 0.5,-0.34 0.8,-0.4 0.08,-0.02 0.17,-0.04 0.26,-0.06 -0,-0.02 -0,-0.04 -0.01,-0.06 0.02,-0 0.05,-0 0.07,-0 0.03,0 0.06,-0 0.08,-0.02 0.03,-0.01 0.06,-0.02 0.08,-0.04 0.07,-0.05 0.12,-0.12 0.16,-0.2 0.01,-0.03 -0.02,-0.03 -0.04,-0.05l-0 -0 -0 -0 -0.01 -0.01c-0.06,-0.05 -0.14,-0.07 -0.22,-0.09 -0.09,-0.03 -0.19,-0.02 -0.28,-0.04 -0.11,-0.02 -0.23,-0.01 -0.34,-0.04 -0.23,-0.02 -0.45,-0.12 -0.65,-0.24 -0.23,-0.15 -0.4,-0.35 -0.62,-0.51 -0.07,-0.07 -0.16,-0.12 -0.25,-0.16 -0,-0.02 -0.01,-0.04 -0.02,-0.06 0.08,0.01 0.14,-0.04 0.22,-0.03 0.07,0 0.13,-0.01 0.2,-0.02 0.17,-0 0.34,-0.01 0.51,0.02 0.05,0 0.11,0.01 0.16,0.03 0.16,0.02 0.32,0.09 0.48,0.12 0.05,0.04 0.11,0.06 0.17,0.07 -0.01,-0.08 -0.08,-0.13 -0.13,-0.17 0.01,-0 0.02,-0.01 0.02,-0.01 0.16,-0.01 0.32,0.03 0.47,0.08 0.17,0.07 0.33,0.18 0.47,0.3 0.02,0.02 0.04,0.04 0.07,0.06 0.01,0.01 0.03,0.02 0.04,0.03 0.06,0.05 0.11,0.1 0.17,0.15 0.03,0.02 0.05,0.04 0.07,0.06 0.11,0.1 0.23,0.18 0.37,0.24 0.13,0.06 0.28,0.08 0.41,0.13 0.08,0.05 0.1,0.15 0.16,0.22 0.03,0.04 0.06,0.08 0.07,0.13z"/>
  </g>
 </g>
</svg>
