<?xml version="1.0" encoding="UTF-8"?>
<!DOCTYPE svg PUBLIC "-//W3C//DTD SVG 1.1//EN" "http://www.w3.org/Graphics/SVG/1.1/DTD/svg11.dtd">
<!-- Creator: CorelDRAW 2018 (64-Bit) -->
<svg xmlns="http://www.w3.org/2000/svg" xml:space="preserve" width="10.9373in" height="8.2383in" version="1.1" style="shape-rendering:geometricPrecision; text-rendering:geometricPrecision; image-rendering:optimizeQuality; fill-rule:evenodd; clip-rule:evenodd"
viewBox="0 0 1444.18 1087.8"
 xmlns:xlink="http://www.w3.org/1999/xlink">
 <defs>
  <style type="text/css">
   <![CDATA[
    .fil1 {fill:#010101;fill-rule:nonzero}
    .fil7 {fill:#05A631;fill-rule:nonzero}
    .fil0 {fill:#06D342;fill-rule:nonzero}
    .fil4 {fill:#5B5C5B;fill-rule:nonzero}
    .fil3 {fill:#857774;fill-rule:nonzero}
    .fil5 {fill:#C79933;fill-rule:nonzero}
    .fil6 {fill:#FBEB58;fill-rule:nonzero}
    .fil2 {fill:#FCFDFD;fill-rule:nonzero}
   ]]>
  </style>
 </defs>
 <g id="Layer_x0020_1">
  <metadata id="CorelCorpID_0Corel-Layer"/>
  <g id="_1007977280">
   <g>
    <g>
     <path class="fil0" d="M252.83 0c8.66,5.62 17.37,11.24 27.25,14.69 39.86,32.01 85.34,56.07 129.1,82.2 21.98,14.64 45.13,27.7 69.64,37.73 1.77,-9.57 -2.38,-22.39 7.6,-28.57 3.39,8.36 12.46,8.86 20.01,11.29 30.24,9.22 61.44,16.97 88.89,33.22 12.91,8.81 28.92,3.09 43.2,1.82 9.67,-2.99 19.65,-4.61 29.68,-6.58 39.15,-2.03 78.61,-3.75 117.55,2.13 18.28,1.98 36.16,9.57 54.85,6.94 38.19,-23.25 82.51,-33.22 124.9,-46.14 -0.66,8.61 -0.91,17.22 -0.71,25.88 56.78,-21.78 105.65,-59.87 158.68,-89.04l12 -7.75c17.93,-13.42 36.67,-25.83 55.66,-37.78 9.73,18.38 22.39,35.05 31.45,53.79 27.25,50.19 40.72,106.82 45.08,163.49 -0.51,37.99 -6.43,75.97 -18.39,112.08 -1.62,17.32 -12,31.3 -21.42,45.18 12.61,24.87 33.53,44.27 47.41,68.48 14.03,24.06 34.49,44.72 45.13,70.5 -21.53,-2.43 -42.9,-6.63 -64.63,-5.87 14.28,31.71 32.57,61.94 51.31,91.22 -16.51,4.05 -33.48,6.63 -49.18,13.22 24.92,12.05 52.32,16.92 79.31,22.08 35.6,1.57 71.31,-0.36 106.97,1.16 -5.93,15.96 -15.65,30.09 -23.7,44.98 -12.61,21.12 -20.41,45.13 -36.47,64.12 -18.64,21.98 -34.34,46.75 -56.73,65.29 -15.95,12.71 -28.16,29.73 -45.48,40.72 -28.26,20.71 -57.13,40.72 -87.82,57.69 -0.76,2.23 -2.18,6.79 -2.94,9.07 11.95,5.87 23.75,12.05 35.3,18.84 -39.91,21.53 -82.15,38.29 -123.33,57.08 -13.27,6.03 -19.9,19.7 -28.57,30.54 -16.97,24.36 -38.95,45.28 -63.97,61.18 -20.46,8 -40.52,-2.38 -59.01,-10.13 -31.66,-25.17 -69.59,-41.13 -102.87,-63.92 -6.03,-0.1 -11.95,-0.1 -17.83,-0.1 -24.01,14.18 -49.99,24.77 -76.23,33.88 -19.8,3.04 -40.06,3.39 -59.81,0.81 -27.4,-5.98 -51.81,-20.41 -76.68,-32.57 -12.91,-6.13 -27.81,-1.27 -38.29,7.29 -27.81,20.46 -61.23,32.01 -87.52,54.55 -15.14,5.12 -29.38,15.7 -46.14,12.51 -15.45,-0.2 -26.39,-12.31 -37.99,-20.77 -24.97,-18.44 -41.28,-45.38 -58.45,-70.6 -2.99,-0.4 -9.01,-1.11 -12.05,-1.52 -38.49,-22.64 -80.94,-38.04 -121.1,-57.54 12.56,-7.75 25.58,-14.79 39.61,-19.7 -0.3,-1.62 -0.81,-4.86 -1.11,-6.53 -82.45,-43.25 -155.13,-106.21 -206.44,-184.16 -16.46,-30.19 -33.98,-59.76 -48.57,-90.91 62.25,-1.67 128.09,4.35 185.93,-23.3 -16.61,-8.15 -35.25,-8.91 -52.62,-14.38 2.48,-1.06 7.45,-3.29 9.93,-4.41 13.32,-29.48 32.92,-55.71 45.03,-85.75 -20.92,0.35 -41.73,3.55 -62.6,2.73 3.8,-10.74 10.48,-20.06 17.02,-29.27 23.91,-34.44 44.87,-71.57 74.91,-101.19 -36.82,-65.54 -51,-144.25 -34.69,-217.99 9.32,-59.21 40.32,-111.02 69.94,-161.92zm5.47 25.93l0 0c-28.62,46.19 -51.56,96.74 -59.26,150.93 -12.46,71.01 2.63,145.97 41.73,206.54 -34.9,29.12 -56.62,69.69 -82.25,106.36 24.87,-1.11 49.38,-5.98 74.35,-6.53 -26.19,31.55 -49.43,66.6 -64.73,104.69 21.98,3.54 43.96,8.05 65.03,15.55 -19.15,17.52 -43.51,27.91 -67.57,36.62 -43.56,15.19 -90.25,11.29 -135.48,14.48 18.18,34.49 35.35,70.05 60.93,99.88 45.94,58.04 106.01,103.63 170.58,139.18 12.56,7.29 27.3,11.45 37.83,22.03 -13.93,6.33 -27.65,12.97 -40.92,20.41 30.49,12.26 58.95,29.53 90.61,38.9 7.75,2.38 16.11,5.17 20.16,12.97 18.13,26.84 38.75,52.57 64.58,72.48 8.81,7.6 22.34,9.67 32.21,2.63 31.86,-18.99 64.02,-37.43 95.93,-56.32 15.25,-10.48 33.78,-17.32 52.47,-15.45 32.11,15.04 63.66,33.68 99.57,38.09 37.89,2.13 72.98,-15.95 105.4,-33.53 12.92,-8.76 29.38,-4.05 43.1,0.1 38.85,21.58 76.93,44.62 115.33,67.06 8.71,5.98 20.82,5.93 29.33,-0.56 29.48,-21.47 52.12,-50.85 71.92,-81.14 34.34,-11.45 67.16,-27.05 99.68,-42.85 0.2,-1.37 0.71,-4.15 0.91,-5.52 -11.45,-6.74 -23.86,-11.55 -35.76,-17.27 25.17,-17.78 54.55,-28.82 79.82,-46.75 49.38,-32.11 94.76,-70.81 131.58,-116.9 24.67,-29.07 40.62,-63.97 58.5,-97.29 -38.9,-4.41 -78.76,0.66 -116.9,-9.62 -30.84,-8.26 -62.7,-19.95 -86.1,-42.39 21.27,-6.58 43.1,-11.35 65.18,-14.69 -15.65,-38.09 -38.49,-73.34 -64.93,-104.84 24.97,-0.05 49.43,5.62 74.4,6.64 -26.74,-35.81 -46.75,-77.75 -82.35,-105.96 18.74,-32.77 35.25,-67.51 40.82,-105.2 16.16,-87.98 -10.53,-179.04 -58.55,-252.99 -77.09,53.49 -159.29,98.81 -240.73,145.21 0,-12.51 0.25,-25.07 0.51,-37.63 -22.74,9.12 -47.15,13.32 -69.44,23.55 -12.31,5.47 -23.04,13.88 -35.3,19.35 -22.13,-0.96 -43.2,-9.42 -65.29,-11.09 -37.02,-2.89 -74.4,-3.34 -111.32,0.71 -20.41,1.98 -39.96,9.07 -60.37,10.59 -9.88,-4.51 -18.54,-11.19 -28.16,-16.11 -24.11,-12.92 -51.51,-16.92 -76.73,-26.84 0.41,12.46 0.56,24.97 0.66,37.48 -81.34,-46.6 -162.53,-93.65 -240.98,-144.95z"/>
    </g>
    <g>
     <path class="fil0" d="M657.21 607.07c3.24,-1.06 9.72,-3.09 12.97,-4.15 0.61,13.52 -2.28,28.87 6.58,40.52 18.94,35.2 81.14,30.39 94.81,-7.04 2.84,-10.99 1.82,-22.54 2.43,-33.78 18.49,0.1 11.24,18.54 11.29,30.49 -0.96,27 7.34,53.48 19.75,77.29 14.94,28.97 40.16,50.75 58.3,77.54 10.74,17.02 14.84,37.12 19.65,56.42 -4.2,12 -11.19,22.64 -18.08,33.23 -3.85,-21.98 -9.22,-43.86 -21.53,-62.75 10.84,31.91 11.8,66.55 1.57,98.76 0.25,-30.03 -3.29,-61.39 -21.12,-86.56 -22.49,-34.49 -63.51,-55.56 -104.49,-54.95 -46.75,1.37 -91.83,30.84 -109.75,74.45 -9.62,20.97 -9.62,44.32 -10.28,66.91 -10.94,-32.11 -9.32,-67.11 1.77,-98.97 -12.86,19.35 -18.39,42.04 -22.18,64.68 -6.28,-11.55 -12.61,-23.1 -19.04,-34.49l0.46 -1.57c6.33,-19.8 10.13,-41.13 22.49,-58.35 18.18,-25.48 41.78,-47.1 56.17,-75.16 18.39,-30.79 22.49,-67.51 18.23,-102.51zm0.71 141.41l0 0c22.03,-4.05 43.96,-10.13 66.65,-9.52 20.82,0.1 40.92,5.77 61.28,9.52 -33.88,-33.43 -94.16,-33.63 -127.94,0z"/>
    </g>
    <path class="fil0" d="M364.77 814.37c26.29,-21.07 56.73,-38.39 89.04,-47.96 21.63,17.37 37.73,41.99 44.11,69.13 -12.91,-5.27 -25.68,-10.84 -38.44,-16.26 6.89,22.49 17.83,43.81 21.02,67.36 -14.08,-18.08 -26.74,-37.48 -44.06,-52.72 2.89,18.64 6.08,37.23 8.71,55.92 -10.13,-5.06 -20.26,-9.98 -30.14,-15.35 -17.68,-19.09 -30.24,-42.85 -50.24,-60.12z"/>
    <path class="fil0" d="M989.26 764.68c32.92,11.55 62.25,30.74 93.34,46.29 -18.59,15.85 -31.2,36.87 -46.8,55.26 -12.05,8.91 -24.82,16.82 -37.38,24.92 2.89,-18.99 6.23,-37.89 9.22,-56.88 -17.47,15.09 -30.14,34.49 -44.52,52.27 5.32,-23.1 14.23,-45.08 21.48,-67.51 -12.97,5.37 -25.78,10.99 -38.64,16.46 6.53,-27.65 23.4,-51.05 43.3,-70.81z"/>
    <path class="fil0" d="M711.4 786.51c6.94,-0.05 13.98,-0.05 21.12,-0.05 0,13.73 -0.15,27.45 -0.46,41.23 25.88,-1.72 44.16,27.6 41.53,51.41 -8.96,-21.73 -28.87,-41.63 -54.24,-37.63 -23.86,-1.98 -40.72,17.98 -48.27,38.29 -3.9,-24.16 14.79,-53.53 40.87,-52.32 -0.3,-13.62 -0.4,-27.3 -0.56,-40.92z"/>
    <path class="fil0" d="M682.38 886.29c3.85,16.26 17.22,26.19 31.81,32.62 21.98,2.63 41.43,-12.41 48.67,-32.52 -1.77,10.99 -6.89,20.92 -12.31,30.49 -8.66,4.05 -17.22,8.36 -25.93,12.21 -22.23,-1.98 -43.36,-19.09 -42.24,-42.8z"/>
   </g>
   <g>
    <path class="fil1" d="M258.3 25.93c78.45,51.31 159.64,98.36 240.98,144.95 -0.1,-12.51 -0.25,-25.02 -0.66,-37.48 25.22,9.93 52.62,13.93 76.73,26.84 9.62,4.91 18.28,11.6 28.16,16.11 20.41,-1.52 39.96,-8.61 60.37,-10.59 36.92,-4.05 74.3,-3.59 111.32,-0.71 22.08,1.67 43.15,10.13 65.29,11.09 12.26,-5.47 22.99,-13.88 35.3,-19.35 22.28,-10.23 46.7,-14.43 69.44,-23.55 -0.25,12.56 -0.51,25.12 -0.51,37.63 81.44,-46.39 163.64,-91.72 240.73,-145.21 48.01,73.95 74.71,165.01 58.55,252.99 -5.57,37.68 -22.08,72.43 -40.82,105.2 35.6,28.21 55.61,70.15 82.35,105.96 -24.97,-1.01 -49.43,-6.69 -74.4,-6.64 26.44,31.5 49.28,66.75 64.93,104.84 -22.08,3.34 -43.91,8.1 -65.18,14.69 23.4,22.44 55.26,34.14 86.1,42.39 38.14,10.28 78,5.22 116.9,9.62 -17.88,33.33 -33.83,68.22 -58.5,97.29 -36.82,46.09 -82.2,84.78 -131.58,116.9 -25.27,17.93 -54.65,28.97 -79.82,46.75 11.9,5.72 24.31,10.54 35.76,17.27 -0.2,1.37 -0.71,4.15 -0.91,5.52 -32.52,15.8 -65.34,31.4 -99.68,42.85 -19.8,30.29 -42.44,59.66 -71.92,81.14 -8.51,6.48 -20.61,6.53 -29.33,0.56 -38.39,-22.44 -76.48,-45.48 -115.33,-67.06 -13.73,-4.15 -30.19,-8.86 -43.1,-0.1 -32.42,17.57 -67.51,35.66 -105.4,33.53 -35.91,-4.41 -67.46,-23.04 -99.57,-38.09 -18.69,-1.87 -37.23,4.96 -52.47,15.45 -31.91,18.89 -64.07,37.33 -95.93,56.32 -9.88,7.04 -23.4,4.96 -32.21,-2.63 -25.83,-19.9 -46.44,-45.63 -64.58,-72.48 -4.05,-7.8 -12.41,-10.59 -20.16,-12.97 -31.66,-9.37 -60.12,-26.64 -90.61,-38.9 13.27,-7.45 27,-14.08 40.92,-20.41 -10.54,-10.59 -25.27,-14.74 -37.83,-22.03 -64.58,-35.56 -124.65,-81.14 -170.58,-139.18 -25.58,-29.83 -42.75,-65.39 -60.93,-99.88 45.23,-3.19 91.93,0.71 135.48,-14.48 24.06,-8.71 48.42,-19.1 67.57,-36.62 -21.07,-7.5 -43.05,-12 -65.03,-15.55 15.3,-38.09 38.54,-73.14 64.73,-104.69 -24.97,0.56 -49.48,5.42 -74.35,6.53 25.63,-36.67 47.36,-77.24 82.25,-106.36 -39.1,-60.57 -54.19,-135.53 -41.73,-206.54 7.7,-54.19 30.64,-104.74 59.26,-150.93zm26.19 81.34l0 0c31.86,48.32 61.44,99.02 76.58,155.39 0.76,14.84 1.98,29.58 3.04,44.42 1.87,-0.4 5.62,-1.21 7.5,-1.62 4.15,-6.13 8.41,-12.21 12.81,-18.23 7.85,-6.18 16.21,-11.8 24.26,-17.83 -3.29,-5.27 -6.48,-10.54 -9.57,-15.85 -2.48,-5.57 -4.91,-11.14 -7.19,-16.71 -1.37,-2.48 -4.1,-7.39 -5.52,-9.83 -25.22,-46.09 -57.69,-90.41 -101.9,-119.73zm866.94 4.96l0 0c-39.56,30.49 -70.2,71.06 -93.85,114.77 -1.32,2.48 -3.9,7.5 -5.22,10.03 -1.21,2.53 -3.65,7.6 -4.86,10.13 -3.34,7.8 -7.34,15.3 -12.11,22.28 8.05,5.87 16.31,11.6 24.21,17.78 4.36,5.98 8.61,12.05 12.97,18.13 1.87,0.4 5.57,1.16 7.45,1.57 0.96,-14.74 2.23,-29.48 3.04,-44.27 14.64,-56.78 45.79,-106.82 76.07,-156.15 -1.93,1.42 -5.77,4.31 -7.7,5.72zm-815.84 4.46l0 0c44.37,48.27 85.65,101.19 106.61,164.25 -40.57,22.44 -81.9,50.29 -102.56,93.39 -32.26,10.38 -65.08,25.32 -87.16,51.96 -6.99,4.66 -13.07,10.74 -19.25,16.31 30.79,3.6 62.45,-1.42 92.89,7.14 -39.15,23.91 -73.9,57.44 -95.02,98.36 -4.76,3.6 -5.62,9.83 -7.75,14.94 24.77,6.64 48.37,18.49 67.77,35.4 -49.33,58.19 -126.52,90.1 -202.29,88.99 0.35,2.18 1.01,6.53 1.37,8.71l1.57 -0.2c1.82,1.52 5.52,4.66 7.34,6.18 9.88,22.03 27.6,39.15 43.25,57.08 47.71,48.88 104.13,90.36 166.94,117.55 -6.74,-22.99 -14.59,-46.29 -12.1,-70.6 3.29,-2.58 9.93,-7.7 13.22,-10.23l0.86 0.66c9.22,-4.91 18.18,-10.28 27.1,-15.85 -14.13,-13.42 -23.7,-30.44 -32.52,-47.56 44.87,-18.89 82.81,-52.93 103.42,-97.34 -17.47,6.53 -35.91,4.2 -53.03,-2.18 23.4,-15.09 36.01,-41.02 45.13,-66.35 9.57,-21.43 19.95,-47.61 43.3,-56.73 -2.03,-1.37 -6.03,-4.15 -8,-5.52 -13.27,-2.99 -26.49,-5.93 -39.86,-7.85 28.36,-26.29 61.33,-48.52 99.32,-57.89 25.17,-4.36 51,-2.48 75.21,5.87 -1.62,-20.77 -8.46,-40.52 -12.26,-60.93 25.42,14.54 47.25,34.49 65.08,57.69 28.26,41.68 45.08,90.76 48.22,141.11l3.24 -2.43c1.72,1.37 5.12,4.1 6.84,5.47 -0.25,19.2 -9.52,38.19 -5.72,57.33 -8.86,-11.65 -5.98,-27 -6.58,-40.52 -3.24,1.06 -9.72,3.09 -12.97,4.15 4.25,35 0.15,71.72 -18.23,102.51 -4.36,-26.69 -0.25,-54.14 -4.41,-80.99 -13.37,6.28 -23.25,17.27 -33.93,27.05 -34.64,32.42 -69.64,64.53 -102.36,98.92 22.99,27.91 42.29,58.35 62.05,88.53l-0.46 1.57c6.43,11.4 12.76,22.94 19.04,34.49 3.8,-22.64 9.32,-45.33 22.18,-64.68 -11.09,31.86 -12.71,66.86 -1.77,98.97 0.66,-22.59 0.66,-45.94 10.28,-66.91 17.93,-43.61 63.01,-73.09 109.75,-74.45 40.97,-0.61 82,20.46 104.49,54.95 17.83,25.17 21.37,56.52 21.12,86.56 10.23,-32.21 9.27,-66.86 -1.57,-98.76 12.31,18.89 17.68,40.77 21.53,62.75 6.89,-10.59 13.88,-21.22 18.08,-33.23 20.11,-30.49 39.56,-61.54 62.7,-89.9 -33.73,-35.05 -69.39,-68.07 -104.99,-101.19 -9.77,-8.81 -18.49,-19.55 -31.25,-24.11 -4.05,26.95 0.91,54.65 -4.41,81.24 -12.41,-23.8 -20.72,-50.29 -19.75,-77.29 -0.05,-11.95 7.19,-30.39 -11.29,-30.49 -0.61,11.24 0.4,22.79 -2.43,33.78 -3.19,-18.59 -13.98,-38.29 -5.77,-57.03l5.12 4.86c4.71,-46.04 16.66,-92.13 42.04,-131.28 17.83,-28.41 42.9,-51.96 72.07,-68.48 -4,20.26 -10.74,40.01 -12.36,60.73 24.26,-8.46 50.09,-9.93 75.47,-6.13 37.38,10.18 70.96,31.05 98.41,58.2 -16.11,2.43 -31.86,6.79 -47.96,8.66 21.02,15.09 35.15,37.78 44.27,61.69 8.31,25.53 22.69,48.67 42.75,66.55 -16.31,6.18 -34.44,8.86 -50.44,0.61 18.33,43.86 55.51,76.73 98.05,96.23 2.84,19.6 -15.75,35.76 -27.5,49.79 4.36,2.73 8.76,5.72 13.52,8.21 8.46,6.63 18.18,11.5 27.55,16.81 2.89,25.07 -5.93,48.83 -12.26,72.58 59.61,-29.22 115.93,-66.4 162.33,-114.26 17.42,-19.45 37.33,-37.89 48.17,-62.09 1.72,-1.98 5.22,-5.93 6.99,-7.9 1.42,-0.25 4.25,-0.81 5.72,-1.06 -9.52,-9.07 -23.5,-5.12 -35.15,-7.09 -64.63,-7.09 -127.02,-37.89 -169.82,-87.17 19.4,-17.52 43.61,-28.82 68.53,-36.31 -2.63,-5.06 -4.31,-10.89 -8.61,-14.74 -21.12,-40.87 -55.76,-74.05 -94.61,-98.05 30.69,-6.94 62.55,-7.5 93.75,-3.14 -6.89,-6.74 -12,-15.2 -20.16,-20.16 -22.08,-26.49 -54.6,-41.99 -87.06,-51.66 -20.67,-43.2 -61.99,-71.36 -102.66,-93.85 10.74,-29.33 24.21,-57.74 41.58,-83.77 17.27,-28.46 41.58,-51.41 61.54,-77.84 -16.82,11.04 -35.05,19.95 -50.9,32.31 -32.72,12.66 -61.39,33.93 -92.64,49.79 -18.44,8.61 -34.49,24.46 -55.56,25.53 0,-14.69 0,-29.43 -0.1,-44.11 -21.22,6.53 -38.9,19.7 -55.92,33.33 -26.89,-2.89 -52.72,-14.13 -80.02,-15.9 -53.89,-9.37 -109.15,-0.76 -161.21,13.98 -5.62,0.86 -12.66,4.81 -17.27,-0.1 -16.01,-13.22 -33.43,-24.56 -52.93,-31.7 -0.25,16.31 0.66,32.92 -3.7,48.88 -28.92,-17.02 -58.35,-33.17 -87.57,-49.64 -14.48,-8.05 -28.21,-17.88 -44.27,-22.54 -21.58,-15.4 -45.58,-27.25 -67.36,-42.39zm159.29 349.72l0 0c-2.08,23.3 -9.93,47 -1.62,70.05 4.2,23.14 19.9,43.46 41.89,52.17 12.21,2.28 25.27,0.25 36.52,7.09 -27,27.1 -59.26,48.01 -95.52,60.27 56.98,-13.37 111.48,-38.64 156.81,-76.02 -11.14,-27.7 -33.73,-48.32 -54.75,-68.63 -23.2,-22.28 -53.49,-34.44 -83.32,-44.93zm318.58 106.41l0 0c-5.32,10.08 7.19,13.98 13.12,19.25 41.99,30.94 90.66,51.81 141.26,63.82 -36.26,-12.36 -68.63,-33.38 -95.73,-60.32 20.51,-1.62 42.54,-6.08 57.94,-20.92 17.73,-15.85 22.74,-40.72 24.77,-63.41 -0.76,-15.04 -5.22,-29.68 -5.62,-44.77 -57.08,16.11 -104.74,56.62 -135.74,106.36zm-370.49 168.66l0 0c-31.66,17.63 -62.4,36.87 -94.1,54.24 4.61,6.74 9.93,12.97 15.9,18.64 20.01,17.27 32.57,41.02 50.24,60.12 27.7,49.38 57.38,99.02 68.88,155.24 1.62,-47.76 -11.29,-94.26 -21.93,-140.35 21.73,37.78 40.62,77.59 51.56,119.99 2.23,-52.27 -16.16,-102.56 -25.27,-153.46 20.92,44.37 48.02,86.1 62.75,133.26 -0.41,-12.61 -0.56,-25.32 -3.95,-37.48 -9.47,-34.64 -18.74,-69.49 -32.06,-102.92 29.22,34.59 48.17,75.92 71.16,114.51 -2.84,-21.58 -9.83,-42.39 -18.64,-62.2 -25.88,-56.52 -57.03,-112.44 -103.88,-154.37 -5.32,-5.06 -13.68,-9.83 -20.66,-5.22zm540.06 2.84l0 0c-38.29,33.68 -66.4,77.34 -89.8,122.21 -14.99,30.49 -32.26,61.69 -34.49,96.23 21.17,-38.19 41.33,-77.19 67.67,-112.29 -11.5,45.28 -31.5,89.04 -33.88,136.24 18.44,-43.66 38.85,-86.76 63.76,-127.08 -12.1,50.34 -28.77,101.75 -25.12,154.02 6.84,-44.62 29.07,-84.99 50.95,-123.94 -10.59,45.94 -23.91,92.23 -21.63,139.89 12.41,-59.46 42.85,-112.89 75.31,-163.39 15.6,-18.39 28.21,-39.4 46.8,-55.26 4.31,-4.71 8.61,-9.57 12.92,-14.43 -29.33,-17.17 -58.6,-34.29 -87.82,-51.46 -7.39,-4.96 -17.73,-8.31 -24.67,-0.76zm-271.63 42.19l0 0c0.15,13.62 0.25,27.3 0.56,40.92 -26.08,-1.21 -44.77,28.16 -40.87,52.32 7.55,-20.31 24.41,-40.27 48.27,-38.29 25.37,-4 45.28,15.9 54.24,37.63 2.63,-23.8 -15.65,-53.13 -41.53,-51.41 0.3,-13.78 0.46,-27.5 0.46,-41.23 -7.14,0 -14.18,0 -21.12,0.05zm-391 48.47l0 0c0.86,24.01 10.99,46.29 22.79,66.8 -4.51,-13.27 -7.75,-27.05 -8.2,-41.08 5.92,1.72 12.81,2.38 17.22,7.5 23.96,22.28 41.28,50.34 57.89,78.3 -18.34,-37.12 -40.32,-73.08 -68.83,-103.22 -4.96,-6.74 -13.62,-6.53 -20.87,-8.31zm748.07 55.1l0 0c13.37,-9.07 22.59,-28.06 40.67,-29.38 -0.71,15.9 -4.51,31.4 -9.27,46.55 9.42,-24.56 26.74,-48.72 21.93,-76.28 -24.51,12.05 -40.62,35.91 -53.33,59.11zm-445.5 27l0 0c9.62,45.53 54.8,80.68 101.4,78.35 41.18,0.35 79.77,-28.62 93.4,-67.06 8.51,-20.41 4.3,-42.8 5.06,-64.22 -3.09,-0.35 -6.08,-0.61 -9.01,-0.81 9.98,19.6 -4.71,43.15 -12.87,61.99 -7.19,-5.52 -14.33,-11.04 -21.37,-16.61 -4.3,5.77 -8.51,11.55 -12.66,17.32 4.66,5.98 19.6,8.41 16.66,17.83 -20.11,14.23 -44.47,23.81 -69.44,21.07 -22.18,0.05 -40.42,-13.68 -59.21,-23.35 7.39,-5.12 14.84,-10.23 22.33,-15.4 -3.14,-4.66 -6.48,-9.17 -9.88,-13.52 -9.62,-2.33 -16.76,11.14 -26.84,7.19 -11.24,-17.83 -12.87,-39.45 -16.61,-59.71 -2.99,18.79 -5.37,38.14 -0.96,56.93zm59.41 -30.79l0 0c-1.11,23.7 20.01,40.82 42.24,42.8 8.71,-3.85 17.27,-8.15 25.93,-12.21 5.42,-9.57 10.54,-19.5 12.31,-30.49 -7.24,20.11 -26.69,35.15 -48.67,32.52 -14.59,-6.43 -27.96,-16.36 -31.81,-32.62z"/>
   </g>
   <g>
    <path class="fil2" d="M284.49 107.27c44.22,29.32 76.68,73.64 101.9,119.73 1.42,2.43 4.15,7.34 5.52,9.83 2.28,5.57 4.71,11.14 7.19,16.71 3.09,5.32 6.28,10.59 9.57,15.85 -8.05,6.03 -16.41,11.65 -24.26,17.83 -5.42,4.41 -10.69,8.86 -15.8,13.47 -1.72,-12.81 -3.65,-25.68 -7.55,-38.04 -15.14,-56.37 -44.72,-107.07 -76.58,-155.39z"/>
    <path class="fil2" d="M1151.43 112.24c1.92,-1.42 5.77,-4.31 7.7,-5.72 -30.29,49.33 -61.44,99.37 -76.07,156.15 -3.95,12.36 -6.08,25.17 -7.6,37.99 -5.27,-4.61 -10.54,-9.07 -15.85,-13.42 -7.9,-6.18 -16.16,-11.9 -24.21,-17.78 4.76,-6.99 8.76,-14.48 12.11,-22.28 1.21,-2.53 3.65,-7.6 4.86,-10.13 1.32,-2.53 3.9,-7.55 5.22,-10.03 23.65,-43.71 54.3,-84.28 93.85,-114.77z"/>
    <path class="fil2" d="M520.81 284.14c12.97,40.01 46.7,68.68 84.18,85.29 7.44,-24.41 21.68,-46.24 42.24,-61.64 -4.86,17.63 -11.6,34.8 -14.74,52.88 -4.71,28.62 -2.84,57.79 -1.82,86.61l-6.48 -5.32c-17.83,-23.2 -39.66,-43.15 -65.08,-57.69 3.8,20.41 10.64,40.16 12.26,60.93 -24.21,-8.36 -50.04,-10.23 -75.21,-5.87 -37.99,9.37 -70.96,31.6 -99.32,57.89 13.37,1.93 26.59,4.86 39.86,7.85 1.97,1.37 5.98,4.15 8,5.52 -23.35,9.12 -33.73,35.3 -43.3,56.73 -9.12,25.32 -21.73,51.26 -45.13,66.35 17.12,6.38 35.56,8.71 53.03,2.18 -20.61,44.42 -58.55,78.45 -103.42,97.34 8.81,17.12 18.39,34.14 32.52,47.56 -8.91,5.57 -17.88,10.94 -27.1,15.85l-0.86 -0.66c-10.03,-7.85 -20.61,-14.84 -31.25,-21.63 -25.12,-16.11 -45.33,-38.34 -64.73,-60.73 84.03,-25.78 145.87,-99.32 176.61,-179.24 -18.28,2.94 -36.41,6.84 -54.4,11.09 17.32,-36.72 37.84,-72.88 67.77,-100.89 30.39,-29.63 71.62,-49.23 114.67,-48.37 -8.86,-36.77 -6.48,-75.42 1.72,-112.03z"/>
    <path class="fil2" d="M839.29 369.48c37.28,-17.07 71.61,-45.48 83.87,-86 8,36.92 10.69,75.62 1.87,112.69 43,-0.76 84.33,18.59 114.67,48.42 30.08,27.96 50.39,64.22 67.87,100.94 -18.08,-4.2 -36.16,-8.15 -54.4,-11.09 10.48,32.67 29.98,61.59 50.5,88.79 31.71,41.73 75.36,74.91 125.81,90.36 -26.24,32.82 -58.8,60.07 -95.47,80.58 -3.7,-1.32 -11.09,-3.9 -14.79,-5.17 -4.76,-2.48 -9.17,-5.47 -13.52,-8.21 11.75,-14.03 30.34,-30.19 27.5,-49.79 -42.54,-19.5 -79.72,-52.37 -98.05,-96.23 16,8.26 34.14,5.57 50.44,-0.61 -20.06,-17.88 -34.44,-41.02 -42.75,-66.55 -9.12,-23.91 -23.25,-46.6 -44.27,-61.69 16.11,-1.87 31.86,-6.23 47.96,-8.66 -27.45,-27.15 -61.03,-48.02 -98.41,-58.2 -25.38,-3.8 -51.21,-2.33 -75.47,6.13 1.62,-20.72 8.36,-40.47 12.36,-60.73 -29.17,16.51 -54.24,40.06 -72.07,68.48 -0.15,-27.91 2.89,-55.87 -0.76,-83.62 -2.43,-21.07 -9.42,-41.23 -15.4,-61.44 20.71,15.3 34.69,37.33 42.49,61.59z"/>
   </g>
   <g>
    <path class="fil3" d="M335.59 116.69c21.78,15.14 45.79,27 67.36,42.39 21.68,26.18 52.07,42.49 77.79,64.12 21.73,16.71 41.68,35.66 62.5,53.49 8.26,-15.3 14.43,-31.61 22.94,-46.75 1.01,-0.25 3.09,-0.76 4.15,-1.06 13.57,11.65 24.46,25.98 36.87,38.85 22.23,-20.36 48.57,-37.93 79.21,-41.73 35.25,-3.85 72.88,-4.71 105.91,10.38 16.76,7.45 30.74,19.65 44.77,31.4 12,-12.87 22.59,-27.3 36.47,-38.34 1.11,0.15 3.29,0.35 4.41,0.51 8.1,15.3 14.49,31.45 23.1,46.6 25.27,-21.78 49.74,-44.62 76.58,-64.58 25.48,-20.11 53.13,-37.63 76.48,-60.37 15.85,-12.36 34.09,-21.27 50.9,-32.31 -19.95,26.44 -44.27,49.38 -61.54,77.84 -17.37,26.03 -30.84,54.45 -41.58,83.77 -8.71,-2.94 -17.52,-5.22 -26.29,-7.5 26.54,24.67 54.4,48.42 75.72,78.05 18.03,22.99 28.41,50.6 38.24,77.8 5.12,-11.09 10.28,-22.23 15.4,-33.38 30.34,5.52 58.45,18.49 86.66,30.54 8.15,4.96 13.27,13.42 20.16,20.16 -31.2,-4.36 -63.06,-3.8 -93.75,3.14 -6.99,1.82 -13.88,3.95 -20.67,6.03 38.49,30.54 77.85,60.02 115.27,92.03 4.31,3.85 5.98,9.68 8.61,14.74 -24.92,7.5 -49.13,18.79 -68.53,36.31 -4.81,6.08 -9.83,12.31 -12.05,19.8 -2.28,9.57 8.21,13.98 14.08,19.25 38.04,26.69 81.29,47 127.33,54.95 23.1,4.61 46.55,-1.06 69.9,1.32 -1.77,1.98 -5.27,5.93 -6.99,7.9 -59.71,45.08 -124.39,86.76 -198.24,103.78 -9.37,-5.32 -19.09,-10.18 -27.55,-16.81 3.7,1.27 11.09,3.85 14.79,5.17 36.67,-20.51 69.24,-47.76 95.47,-80.58 -50.45,-15.45 -94.1,-48.62 -125.81,-90.36 -20.51,-27.2 -40.01,-56.12 -50.5,-88.79 18.23,2.94 36.31,6.89 54.4,11.09 -17.47,-36.72 -37.78,-72.98 -67.87,-100.94 -30.34,-29.83 -71.67,-49.18 -114.67,-48.42 8.81,-37.07 6.13,-75.77 -1.87,-112.69 -12.26,40.52 -46.6,68.93 -83.87,86 -7.8,-24.26 -21.78,-46.29 -42.49,-61.59 5.98,20.21 12.97,40.37 15.4,61.44 3.65,27.75 0.61,55.71 0.76,83.62 -25.37,39.15 -37.33,85.24 -42.04,131.28l-5.12 -4.86c-7.24,-11.95 -4.71,-26.44 -3.14,-39.51 7.09,-45.63 29.73,-87.87 31.25,-134.57 1.11,-36.77 1.52,-76.53 -18.54,-108.94 3.95,45.48 -2.48,90.86 -14.48,134.67 -14.69,53.84 -20.41,110.87 -10.38,166.08 1.77,12.51 5.52,27.1 -3.24,38.04 -11.14,16.66 -39.3,16.71 -50.5,0 -9.78,-12.31 -4.36,-28.77 -2.74,-42.75 7.75,-43.76 5.22,-88.84 -4.2,-132.04 -6.79,-35.5 -18.34,-70.05 -21.78,-106.11 -2.23,-21.07 1.87,-41.94 3.14,-62.9 -21.93,33.38 -22.64,75.47 -20.87,114.01 1.93,58.45 36.42,110.77 32.72,169.87 -1.82,1.37 -5.52,4.05 -7.4,5.42l-3.24 2.43c-3.14,-50.34 -19.95,-99.42 -48.22,-141.11l6.48 5.32c-1.01,-28.82 -2.89,-57.99 1.82,-86.61 3.14,-18.08 9.88,-35.25 14.74,-52.88 -20.56,15.4 -34.8,37.23 -42.24,61.64 -37.48,-16.61 -71.21,-45.28 -84.18,-85.29 -8.21,36.62 -10.59,75.26 -1.72,112.03 -43.05,-0.86 -84.28,18.74 -114.67,48.37 -29.93,28.01 -50.45,64.17 -67.77,100.89 17.98,-4.26 36.11,-8.15 54.4,-11.09 -30.74,79.92 -92.58,153.46 -176.61,179.24 19.4,22.39 39.61,44.62 64.73,60.73 10.64,6.79 21.22,13.78 31.25,21.63 -3.29,2.53 -9.93,7.65 -13.22,10.23 -73.64,-17.78 -138.42,-58.8 -198.09,-104.03 -1.82,-1.52 -5.52,-4.66 -7.34,-6.18 28.57,-6.18 58.19,1.22 86.56,-6.28 43.25,-10.69 83.92,-31.4 119.33,-58.25 13.22,-8.61 -0.15,-24.16 -6.53,-32.97 -19.4,-16.92 -43,-28.77 -67.77,-35.4 2.13,-5.12 2.99,-11.34 7.75,-14.94 25.58,-19.4 48.32,-42.29 74.81,-60.57 14.23,-9.83 28.06,-20.36 40.97,-31.91 -6.99,-2.03 -13.88,-4.1 -20.77,-5.87 -30.44,-8.56 -62.09,-3.54 -92.89,-7.14 6.18,-5.57 12.26,-11.65 19.25,-16.31 28.57,-12.1 57.08,-25.73 88.08,-30.24 4.1,11.8 8.31,23.6 12.61,35.4 11.19,-28.82 21.88,-58.45 41.48,-82.86 20.41,-28.82 48.17,-50.95 73.44,-75.21 -8.76,2.28 -17.42,4.61 -25.88,7.55 -20.97,-63.06 -62.25,-115.98 -106.61,-164.25z"/>
    <path class="fil3" d="M361.07 262.66c3.9,12.36 5.82,25.22 7.55,38.04 5.12,-4.61 10.38,-9.07 15.8,-13.47 -4.41,6.03 -8.66,12.1 -12.81,18.23 -1.88,0.4 -5.62,1.21 -7.5,1.62 -1.06,-14.84 -2.28,-29.58 -3.04,-44.42z"/>
    <path class="fil3" d="M1075.46 300.65c1.52,-12.81 3.65,-25.63 7.6,-37.99 -0.81,14.79 -2.08,29.53 -3.04,44.27 -1.87,-0.41 -5.57,-1.17 -7.45,-1.57 -4.36,-6.08 -8.61,-12.16 -12.97,-18.13 5.32,4.35 10.59,8.81 15.85,13.42z"/>
   </g>
   <g>
    <path class="fil4" d="M961.5 201.38c31.25,-15.85 59.92,-37.13 92.64,-49.79 -23.35,22.74 -51,40.27 -76.48,60.37 -26.84,19.95 -51.31,42.8 -76.58,64.58 -8.61,-15.14 -14.99,-31.3 -23.1,-46.6 -1.11,-0.15 -3.29,-0.35 -4.41,-0.51 -13.88,11.04 -24.46,25.47 -36.47,38.34 -14.03,-11.75 -28.01,-23.96 -44.77,-31.4 -33.02,-15.09 -70.65,-14.23 -105.91,-10.38 -30.64,3.8 -56.98,21.37 -79.21,41.73 -12.41,-12.87 -23.3,-27.2 -36.87,-38.85 -1.06,0.3 -3.14,0.81 -4.15,1.06 -8.51,15.14 -14.69,31.45 -22.94,46.75 -20.82,-17.83 -40.77,-36.77 -62.5,-53.49 -25.73,-21.63 -56.12,-37.94 -77.79,-64.12 16.06,4.66 29.78,14.49 44.27,22.54 29.22,16.46 58.65,32.62 87.57,49.64 4.36,-15.95 3.44,-32.57 3.7,-48.88 19.5,7.14 36.92,18.49 52.93,31.7 4.61,4.91 11.65,0.96 17.27,0.1 52.07,-14.74 107.32,-23.35 161.21,-13.98 27.3,1.77 53.13,13.02 80.02,15.9 17.02,-13.62 34.69,-26.79 55.92,-33.33 0.1,14.69 0.1,29.43 0.1,44.11 21.07,-1.06 37.13,-16.92 55.56,-25.53z"/>
    <path class="fil4" d="M442.21 280.94c8.46,-2.94 17.12,-5.27 25.88,-7.55 -25.27,24.26 -53.03,46.39 -73.44,75.21 -19.6,24.41 -30.29,54.04 -41.48,82.86 -4.31,-11.8 -8.51,-23.6 -12.61,-35.4 -31,4.51 -59.51,18.13 -88.08,30.24 22.08,-26.64 54.9,-41.58 87.16,-51.96 20.67,-43.1 61.99,-70.96 102.56,-93.39z"/>
    <path class="fil4" d="M975.63 273.4c8.76,2.28 17.58,4.56 26.29,7.5 40.67,22.49 82,50.65 102.66,93.85 32.47,9.67 64.98,25.17 87.06,51.66 -28.21,-12.05 -56.32,-25.02 -86.66,-30.54 -5.12,11.14 -10.28,22.29 -15.4,33.38 -9.82,-27.2 -20.21,-54.8 -38.24,-77.8 -21.32,-29.63 -49.18,-53.38 -75.72,-78.05z"/>
    <path class="fil4" d="M650.32 405.34c-1.77,-38.54 -1.06,-80.63 20.87,-114.01 -1.27,20.97 -5.37,41.84 -3.14,62.9 3.44,36.06 14.99,70.6 21.78,106.11 9.42,43.2 11.95,88.28 4.2,132.04 -1.62,13.98 -7.04,30.44 2.74,42.75 11.19,16.71 39.35,16.66 50.5,0 8.76,-10.94 5.01,-25.53 3.24,-38.04 -10.03,-55.21 -4.31,-112.24 10.38,-166.08 12,-43.81 18.44,-89.19 14.48,-134.67 20.06,32.41 19.65,72.17 18.54,108.94 -1.52,46.7 -24.16,88.94 -31.25,134.57 -1.57,13.07 -4.1,27.55 3.14,39.51 -8.2,18.74 2.58,38.44 5.77,57.03 -13.67,37.43 -75.87,42.24 -94.81,7.04 -3.8,-19.15 5.47,-38.14 5.72,-57.33 -1.72,-1.37 -5.12,-4.1 -6.84,-5.47 1.87,-1.37 5.57,-4.05 7.4,-5.42 3.7,-59.11 -30.79,-111.43 -32.72,-169.87z"/>
    <path class="fil4" d="M326.12 449.75c6.89,1.77 13.78,3.85 20.77,5.87 -12.92,11.55 -26.74,22.08 -40.97,31.91 -26.49,18.28 -49.23,41.18 -74.81,60.57 21.12,-40.92 55.86,-74.45 95.02,-98.36z"/>
    <path class="fil4" d="M1097.39 455.73c6.79,-2.08 13.67,-4.2 20.67,-6.03 38.85,24.01 73.49,57.18 94.61,98.05 -37.43,-32.01 -76.78,-61.49 -115.27,-92.03z"/>
    <g>
     <path class="fil4" d="M494.88 466.42c29.83,10.48 60.12,22.64 83.32,44.93 21.02,20.31 43.61,40.92 54.75,68.63 -45.33,37.38 -99.83,62.65 -156.81,76.02 36.26,-12.26 68.53,-33.17 95.52,-60.27 -11.24,-6.84 -24.31,-4.81 -36.52,-7.09 -21.98,-8.71 -37.68,-29.02 -41.89,-52.17 -8.31,-23.05 -0.46,-46.75 1.62,-70.05zm19.45 23.2l0 0c-5.57,24.46 -9.12,55 10.79,74.1 17.27,18.89 46.04,20.56 69.18,12.97 4.05,-2.23 12.71,-1.52 12,-8.36 -18.94,-28.72 -43.76,-54.04 -73.9,-71.11l0.4 -1.87c-6.18,-1.87 -12.56,-3.8 -18.49,-5.72z"/>
    </g>
    <g>
     <path class="fil4" d="M813.46 572.83c31,-49.74 78.66,-90.26 135.74,-106.36 0.41,15.09 4.86,29.73 5.62,44.77 -2.03,22.69 -7.04,47.56 -24.77,63.41 -15.4,14.84 -37.43,19.3 -57.94,20.92 27.1,26.94 59.46,47.96 95.73,60.32 -50.6,-12 -99.27,-32.87 -141.26,-63.82 -5.93,-5.27 -18.44,-9.17 -13.12,-19.25zm97.65 -77.44l0 0 0.4 2.13c-30.19,16.71 -54.95,42.09 -73.54,70.86 -1.11,7.14 7.8,6.13 12.36,8.2 21.63,6.94 48.12,7.09 65.39,-9.78 22.89,-18.49 20.56,-51.66 13.73,-77.29 -6.28,2.03 -12.21,4.05 -18.33,5.87z"/>
    </g>
    <path class="fil4" d="M291.12 598.46c6.38,8.81 19.75,24.36 6.53,32.97 -35.4,26.84 -76.07,47.56 -119.33,58.25 -28.36,7.5 -57.99,0.1 -86.56,6.28l-1.57 0.2c-0.35,-2.18 -1.01,-6.53 -1.37,-8.71 75.77,1.11 152.96,-30.79 202.29,-88.99z"/>
    <path class="fil4" d="M1140.69 618.61c2.23,-7.5 7.24,-13.73 12.05,-19.8 42.8,49.28 105.2,80.08 169.82,87.17 11.65,1.97 25.63,-1.98 35.15,7.09 -1.47,0.25 -4.31,0.81 -5.72,1.06 -23.35,-2.38 -46.8,3.29 -69.9,-1.32 -46.04,-7.95 -89.29,-28.26 -127.33,-54.95 -5.87,-5.27 -16.36,-9.67 -14.08,-19.25z"/>
    <path class="fil4" d="M99.12 702.13c59.66,45.23 124.44,86.25 198.09,104.03 -2.48,24.31 5.37,47.61 12.1,70.6 -62.8,-27.2 -119.23,-68.68 -166.94,-117.55 -15.65,-17.93 -33.38,-35.05 -43.25,-57.08z"/>
    <path class="fil4" d="M1146.77 805.81c73.84,-17.02 138.52,-58.7 198.24,-103.78 -10.84,24.21 -30.74,42.65 -48.17,62.09 -46.39,47.86 -102.71,85.04 -162.33,114.26 6.33,-23.75 15.14,-47.51 12.26,-72.58z"/>
   </g>
   <g>
    <path class="fil5" d="M514.33 489.62c5.93,1.92 12.31,3.85 18.49,5.72l-0.4 1.87c-2.99,14.18 -6.08,29.58 0.4,43.31 10.59,23.25 35.96,37.99 61.49,36.16 -23.15,7.6 -51.91,5.93 -69.18,-12.97 -19.91,-19.09 -16.36,-49.63 -10.79,-74.1z"/>
    <path class="fil5" d="M911.11 495.39c6.13,-1.82 12.05,-3.85 18.33,-5.87 6.84,25.63 9.17,58.8 -13.73,77.29 -17.27,16.86 -43.76,16.71 -65.39,9.78 25.37,1.87 50.29,-13.22 60.88,-36.16 6.23,-13.68 3.19,-28.87 0.3,-42.9l-0.4 -2.13z"/>
   </g>
   <g>
    <path class="fil6" d="M532.82 540.52c-6.48,-13.73 -3.39,-29.12 -0.4,-43.31 30.14,17.07 54.95,42.39 73.9,71.11 0.71,6.84 -7.95,6.13 -12,8.36 -25.53,1.82 -50.9,-12.92 -61.49,-36.16z"/>
    <path class="fil6" d="M837.97 568.37c18.59,-28.77 43.36,-54.14 73.54,-70.86 2.89,14.03 5.93,29.22 -0.3,42.9 -10.59,22.94 -35.5,38.04 -60.88,36.16 -4.56,-2.08 -13.47,-1.06 -12.36,-8.2z"/>
   </g>
   <g>
    <path class="fil7" d="M600.63 655.64c10.69,-9.77 20.56,-20.77 33.93,-27.05 4.15,26.84 0.05,54.29 4.41,80.99 -14.38,28.06 -37.99,49.69 -56.17,75.16 -12.36,17.22 -16.16,38.54 -22.49,58.35 -19.75,-30.19 -39.05,-60.62 -62.05,-88.53 32.72,-34.39 67.72,-66.5 102.36,-98.92z"/>
    <path class="fil7" d="M809.46 629.15c12.76,4.56 21.48,15.3 31.25,24.11 35.61,33.12 71.26,66.15 104.99,101.19 -23.15,28.36 -42.59,59.41 -62.7,89.9 -4.81,-19.3 -8.91,-39.4 -19.65,-56.42 -18.13,-26.79 -43.35,-48.57 -58.3,-77.54 5.32,-26.59 0.35,-54.29 4.41,-81.24z"/>
    <path class="fil7" d="M657.92 748.48c33.78,-33.63 94.05,-33.43 127.94,0 -20.36,-3.75 -40.47,-9.42 -61.28,-9.52 -22.69,-0.61 -44.62,5.47 -66.65,9.52z"/>
    <path class="fil7" d="M442.97 741.49c6.99,-4.61 15.35,0.15 20.66,5.22 46.85,41.94 78,97.85 103.88,154.37 8.81,19.8 15.8,40.62 18.64,62.2 -22.99,-38.59 -41.94,-79.92 -71.16,-114.51 13.32,33.43 22.59,68.27 32.06,102.92 3.39,12.15 3.54,24.87 3.95,37.48 -14.74,-47.15 -41.84,-88.89 -62.75,-133.26 9.12,50.9 27.5,101.19 25.27,153.46 -10.94,-42.39 -29.83,-82.2 -51.56,-119.99 10.64,46.09 23.55,92.59 21.93,140.35 -11.5,-56.22 -41.18,-105.86 -68.88,-155.24 9.88,5.37 20,10.28 30.14,15.35 -2.63,-18.69 -5.82,-37.28 -8.71,-55.92 17.32,15.25 29.98,34.64 44.06,52.72 -3.19,-23.55 -14.13,-44.87 -21.02,-67.36 12.76,5.42 25.53,10.99 38.44,16.26 -6.38,-27.15 -22.49,-51.76 -44.11,-69.13 -32.31,9.57 -62.75,26.89 -89.04,47.96 -5.98,-5.67 -11.29,-11.9 -15.9,-18.64 31.71,-17.37 62.45,-36.62 94.1,-54.24z"/>
    <path class="fil7" d="M983.03 744.32c6.94,-7.55 17.27,-4.21 24.67,0.76 29.22,17.17 58.5,34.29 87.82,51.46 -4.31,4.86 -8.61,9.72 -12.92,14.43 -31.1,-15.55 -60.42,-34.74 -93.34,-46.29 -19.9,19.75 -36.77,43.15 -43.3,70.81 12.86,-5.47 25.68,-11.09 38.64,-16.46 -7.24,22.44 -16.16,44.42 -21.48,67.51 14.38,-17.78 27.05,-37.18 44.52,-52.27 -2.99,18.99 -6.33,37.89 -9.22,56.88 12.56,-8.1 25.32,-16.01 37.38,-24.92 -32.47,50.5 -62.9,103.93 -75.31,163.39 -2.28,-47.66 11.04,-93.95 21.63,-139.89 -21.88,38.95 -44.11,79.31 -50.95,123.94 -3.65,-52.27 13.02,-103.68 25.12,-154.02 -24.92,40.32 -45.33,83.42 -63.76,127.08 2.38,-47.2 22.39,-90.96 33.88,-136.24 -26.34,35.1 -46.49,74.1 -67.67,112.29 2.23,-34.54 19.5,-65.74 34.49,-96.23 23.4,-44.87 51.51,-88.53 89.8,-122.21z"/>
    <path class="fil7" d="M320.4 834.98c7.24,1.77 15.9,1.57 20.87,8.31 28.52,30.14 50.5,66.1 68.83,103.22 -16.61,-27.96 -33.93,-56.02 -57.89,-78.3 -4.41,-5.12 -11.29,-5.77 -17.22,-7.5 0.45,14.03 3.7,27.81 8.2,41.08 -11.8,-20.51 -21.93,-42.8 -22.79,-66.8z"/>
    <path class="fil7" d="M1068.47 890.09c12.71,-23.2 28.82,-47.05 53.33,-59.11 4.81,27.55 -12.51,51.71 -21.93,76.28 4.76,-15.14 8.56,-30.64 9.27,-46.55 -18.08,1.32 -27.3,20.31 -40.67,29.38z"/>
    <path class="fil7" d="M622.97 917.08c-4.41,-18.79 -2.03,-38.14 0.96,-56.93 3.75,20.26 5.37,41.89 16.61,59.71 10.08,3.95 17.22,-9.52 26.84,-7.19 3.39,4.36 6.74,8.86 9.88,13.52 -7.5,5.17 -14.94,10.28 -22.33,15.4 18.79,9.67 37.02,23.4 59.21,23.35 24.97,2.73 49.33,-6.84 69.44,-21.07 2.94,-9.42 -12,-11.85 -16.66,-17.83 4.15,-5.77 8.36,-11.55 12.66,-17.32 7.04,5.57 14.18,11.09 21.37,16.61 8.15,-18.84 22.84,-42.39 12.87,-61.99 2.94,0.2 5.92,0.46 9.01,0.81 -0.76,21.42 3.44,43.81 -5.06,64.22 -13.62,38.44 -52.22,67.41 -93.4,67.06 -46.6,2.33 -91.77,-32.82 -101.4,-78.35z"/>
   </g>
  </g>
 </g>
</svg>
