<?xml version="1.0" encoding="UTF-8"?>
<!DOCTYPE svg PUBLIC "-//W3C//DTD SVG 1.1//EN" "http://www.w3.org/Graphics/SVG/1.1/DTD/svg11.dtd">
<!-- Creator: CorelDRAW 2018 (64-Bit) -->
<svg xmlns="http://www.w3.org/2000/svg" xml:space="preserve" width="7.55194in" height="8.23831in" version="1.1" style="shape-rendering:geometricPrecision; text-rendering:geometricPrecision; image-rendering:optimizeQuality; fill-rule:evenodd; clip-rule:evenodd"
viewBox="0 0 5957.09 6498.5"
 xmlns:xlink="http://www.w3.org/1999/xlink">
 <defs>
  <style type="text/css">
   <![CDATA[
    .str0 {stroke:#2B2A29;stroke-width:5.47;stroke-miterlimit:2.61313}
    .fil5 {fill:none}
    .fil6 {fill:#C79933}
    .fil7 {fill:#FBEB58}
    .fil1 {fill:#132815;fill-rule:nonzero}
    .fil4 {fill:#47813A;fill-rule:nonzero}
    .fil2 {fill:#63AB45;fill-rule:nonzero}
    .fil3 {fill:#A3CD39;fill-rule:nonzero}
    .fil0 {fill:#F6F5F5;fill-rule:nonzero}
   ]]>
  </style>
 </defs>
 <g id="Layer_x0020_1">
  <metadata id="CorelCorpID_0Corel-Layer"/>
  <g id="_1127094208">
   <g>
    <g>
     <g>
      <path class="fil0" d="M2644.87 110.65c290.95,-112.13 616.17,-151.58 918.03,-59.18 275.13,76.83 526.12,233.34 719.74,442.8 21.03,34 62.3,31.14 96.56,36.85 231.78,22.32 459.4,84.36 671.73,179.09 376.09,151.06 667.56,477.05 803.31,856 150.8,405.17 140.16,876 -60.99,1262.46 -143.79,282.39 -398.15,505.87 -695.6,615.14 -21.81,11.94 -89.55,18.69 -62.82,56.59 111.35,144.83 210.5,299 325.48,441.24 -154.17,-7.27 -308.6,-32.7 -462.78,-14.27 -215.69,10.64 -426.45,69.56 -625.27,151.58 -350.66,153.66 -631.23,447.99 -777.62,800.98 -102.78,349.63 -150.8,717.93 -305.75,1050.15 -89.02,191.82 -241.12,350.92 -422.29,458.37 -52.17,36.85 -105.89,72.41 -157.81,110.05 52.17,-316.66 18.69,-642.4 -95,-941.92 -121.21,-301.86 -329.37,-565.3 -595.41,-752.18 -57.88,-35.82 -111.6,-81.51 -178.57,-99.93 -76.31,266.04 -160.41,543.76 -115.51,822.78 -47.76,7.27 -95.25,15.05 -143.01,22.58 32.19,148.73 64.63,297.71 107.72,443.84 -19.47,-16.09 -39.2,-31.92 -58.92,-47.5 -199.6,-152.09 -416.07,-278.5 -626.04,-415.28 -184.29,-165.08 -226.33,-423.59 -300.31,-648.36 -20.24,-49.05 -27.77,-123.02 -91.88,-132.63 -148.21,-44.65 -280.32,-141.45 -365.45,-270.97 -146.65,-214.39 -171.83,-491.07 -125.1,-741.28 42.05,-252.81 164.55,-484.85 313.54,-690.67 84.36,-128.74 184.55,-246.06 282.66,-364.41 130.56,-158.59 221.4,-348.32 269.16,-547.66 -57.36,-58.66 -74.23,-140.16 -107.97,-211.8 -83.32,-112.13 -197.27,-195.44 -302.12,-286.03 156.25,-55.55 311.2,-121.73 478.35,-136.27 131.07,-24.4 265.01,-10.9 396.6,-27.78 203.49,-561.67 601.9,-1075.06 1163.57,-1309.96 42.83,-18.94 85.91,-36.6 129.78,-52.43zm-184.02 212.31l0 0c-462.53,232.56 -797.87,667.83 -973.84,1148.26 -16.1,63.33 -71.64,103.56 -126.14,133.15 -216.21,2.07 -437.09,3.11 -644.47,73.45 50.35,51.39 104.34,99.41 148.46,156.26 48.54,62.55 55.54,146.65 103.04,209.71 15.31,28.81 48.28,50.35 52.43,83.84 -61.52,218.8 -146.91,435.01 -292.52,612.54 -171.57,204.01 -338.45,414.51 -463.04,651.22 -119.14,234.64 -170.01,507.17 -122.77,767.23 39.45,203.23 176.24,393.22 374.54,465.38 42.05,18.7 92.15,21.81 129.52,49.32 136,253.84 133.15,584.52 358.69,787.48 -2.59,-23.88 -8.04,-71.64 -10.64,-95.51 82.8,159.88 248.65,234.89 392.19,327.81 -31.15,-117.83 -48.79,-241.12 -20.51,-361.3 33.22,42.05 70.34,81.75 121.47,101.49 -0.26,-311.2 81.5,-616.7 187.66,-907.14 249.17,113.68 475.24,280.32 653.04,489.25 288.88,340.8 438.9,792.41 426.18,1237.55 168.19,-112.13 295.11,-279.02 366.49,-467.19 119.4,-312.24 163.78,-646.55 268.63,-963.2 127.19,-310.42 355.07,-578.8 642.65,-752.19 320.03,-193.37 698.72,-279.54 1070.92,-270.71 -72.93,-100.97 -146.65,-201.41 -226.07,-297.45 -345.72,46.72 -706.76,-90.33 -932.31,-356.63 188.43,154.96 421.25,262.67 668.35,267.08 426.44,5.19 852.63,-233.6 1058.19,-609.95 355.59,-644.46 112.39,-1558.87 -537.27,-1917.83 -271.49,-142.75 -574.38,-228.41 -881.44,-241.9 -227.63,-273.57 -554.93,-469.27 -910.51,-512.88 -305.5,-38.41 -609.69,59.44 -880.92,192.85z"/>
     </g>
     <path class="fil0" d="M2588.02 1257.35c148.72,-278.23 450.32,-512.61 781.51,-456.03 -217.24,96.82 -428.52,208.94 -619.03,352.48 -52.43,36.6 -98.63,86.43 -162.48,103.56z"/>
     <g>
      <path class="fil0" d="M4545.31 1454.09c195.18,21.03 382.58,118.36 500.41,277.2 161.44,217.24 224.25,497.82 204.53,765.16 -15.06,203.23 -92.15,410.09 -246.05,548.95 -101.74,95.51 -235.67,148.21 -371.17,173.9 -189.47,-196.48 -395.56,-385.7 -645.77,-501.71 261.63,-57.88 540.65,-226.85 580.62,-514.7 -101.49,39.71 -206.87,0.78 -292.52,-55.8 160.4,-195.44 253.84,-441.25 269.94,-693.01zm-66.71 640.06l0 0c72.15,-30.11 144.05,-61.52 218.29,-87.2 0.52,130.81 5.71,268.63 -51.65,389.85 -68.53,156.25 -204.79,266.56 -348.32,351.18 135.49,97.85 260.59,209.72 377.39,329.37 168.45,-40.49 314.06,-161.18 379.98,-322.11 108.49,-262.67 86.95,-571.79 -36.34,-825.64 -71.38,-149.76 -201.93,-266.82 -357.92,-322.36 -30.11,172.34 -97.85,334.31 -181.43,486.92z"/>
     </g>
     <g>
      <path class="fil0" d="M3499.57 1832c201.42,-139.89 419.18,-259.03 654.07,-331.96 51.65,162.74 39.46,341.57 -33.47,495.75 26.73,33.48 53.21,67.22 79.16,101.48 -98.88,-60.47 -188.17,-138.08 -296.92,-181.17 -127.7,-52.69 -266.04,-71.38 -402.83,-84.1zm364.94 -68.52l0 0c60.74,21.54 120.69,46.2 179.61,72.68 6.49,-54.77 11.16,-109.79 12.46,-165.08 -65.93,26.74 -130.56,56.59 -192.07,92.4z"/>
     </g>
     <path class="fil0" d="M1901.76 2740.44c73.71,-121.99 197.78,-202.2 327.3,-255.14 -40.75,139.12 -165.33,294.07 -327.3,255.14z"/>
     <path class="fil0" d="M864.85 3006.74c96.03,-65.67 181.43,-144.57 267.6,-222.18 -36.34,146.13 -98.37,291.22 -79.43,444.87 242.16,106.42 459.67,315.36 491.08,589.44 63.59,-30.63 115.5,-78.91 144.83,-143.53 122.24,75.53 131.07,226.85 107.71,354.29 45.16,-43.6 72.41,-99.93 100.44,-154.69 10.9,92.66 -7,185.84 -43.08,271.49 -24.66,76.83 -118.88,88.77 -166.11,147.95 -193.37,207.64 -269.16,495.74 -310.43,769.31 -37.89,-71.11 -75.79,-142.23 -119.91,-209.71 -42.57,164.03 -74.23,335.86 -47.5,505.34 -161.18,-154.69 -198.3,-389.32 -192.59,-602.94 -30.88,76.57 -58.14,154.69 -84.88,233.08 -31.66,-139.9 -77.86,-277.73 -143.53,-405.69 -49.57,-112.38 -197.78,-82.02 -281.36,-156.25 64.11,-36.34 133.41,-86.69 211.53,-69.3 229.96,51.39 477.06,55.55 700.54,-26.47 79.68,-29.59 172.6,-97.6 149.76,-195.19 -27.25,-116.29 -129.78,-194.15 -218.29,-265.52 43.09,-4.16 85.91,-9.09 128.74,-15.06 -182.72,-70.34 -383.62,2.07 -531.31,115.75 -115.24,73.46 -210.75,199.86 -357.66,204.79 -104.09,4.15 -185.06,-98.38 -174.68,-198.3 7.53,-69.3 -34.78,-143.27 -7.79,-207.9 121.74,-45.68 263.97,29.07 381.28,-36.59 76.05,-41.27 66.19,-210.24 -42.82,-174.94 -117.84,55.8 -236.45,131.07 -372.46,121.46 -6.75,-34 -23.88,-69.3 -7.27,-103.04 43.61,-114.73 97.6,-227.37 175.2,-322.88 86.69,-106.94 212.31,-169.23 322.36,-247.61z"/>
     <path class="fil0" d="M338.74 4132.41c-65.67,-90.58 -74.75,-224.51 -24.66,-323.4 16.61,106.94 16.87,215.69 24.66,323.4z"/>
     <path class="fil0" d="M1228.48 3947.88c60.21,-14.27 101.22,44.38 143.27,77.08 -131.85,79.42 -276.43,135.49 -424.62,175.46 166.11,-9.09 327.29,-59.18 481.72,-118.36 22.84,34.79 69.3,94.22 10.65,121.99 -128.74,79.43 -287.33,81.76 -433.98,87.73 -87.99,-8.56 -186.1,1.3 -264.22,-46.2 170.52,-85.65 295.37,-252.81 487.18,-297.71z"/>
     <path class="fil0" d="M354.83 4188.74c39.97,25.43 79.94,50.61 121.47,73.45 -19.73,15.57 -39.72,31.15 -59.44,46.72 -23.88,-38.41 -44.9,-78.39 -62.03,-120.17z"/>
    </g>
    <g>
     <g>
      <path class="fil1" d="M2460.84 322.96c271.23,-133.41 575.43,-231.26 880.92,-192.85 355.58,43.61 682.88,239.31 910.51,512.88 307.05,13.49 609.95,99.15 881.44,241.9 649.67,358.96 892.86,1273.37 537.27,1917.83 -205.56,376.36 -631.75,615.15 -1058.19,609.95 -247.1,-4.42 -479.92,-112.13 -668.35,-267.08 225.55,266.3 586.58,403.35 932.31,356.63 79.43,96.04 153.14,196.48 226.07,297.45 -372.2,-8.82 -750.88,77.35 -1070.92,270.71 -287.59,173.39 -515.47,441.76 -642.65,752.19 -104.86,316.66 -149.24,650.96 -268.63,963.2 -71.38,188.17 -198.3,355.07 -366.49,467.19 12.71,-445.14 -137.3,-896.76 -426.18,-1237.55 -177.8,-208.93 -403.87,-375.57 -653.04,-489.25 -106.16,290.44 -187.92,595.93 -187.66,907.14 -51.13,-19.73 -88.25,-59.44 -121.47,-101.49 -28.29,120.18 -10.65,243.46 20.51,361.3 -143.54,-92.92 -309.39,-167.93 -392.19,-327.81 2.6,23.87 8.05,71.63 10.64,95.51 -225.55,-202.97 -222.69,-533.64 -358.69,-787.48 -37.38,-27.51 -87.47,-30.62 -129.52,-49.32 -198.3,-72.15 -335.09,-262.14 -374.54,-465.38 -47.24,-260.07 3.63,-532.6 122.77,-767.23 124.58,-236.71 291.47,-447.21 463.04,-651.22 145.61,-177.53 231,-393.74 292.52,-612.54 -4.15,-33.48 -37.12,-55.02 -52.43,-83.84 -47.5,-63.06 -54.5,-147.16 -103.04,-209.71 -44.12,-56.84 -98.11,-104.87 -148.46,-156.26 207.38,-70.34 428.26,-71.38 644.47,-73.45 54.5,-29.59 110.05,-69.82 126.14,-133.15 175.97,-480.43 511.32,-915.7 973.84,-1148.26zm517.28 -7.79l0 0c-195.18,44.9 -384.65,118.36 -555.18,223.74 -319.77,194.92 -560.11,500.16 -714.81,837.83 81.24,-53.21 175.2,-91.88 245.8,-158.85 50.61,-19.98 98.38,-45.94 145.1,-73.45 -36.61,76.83 -77.87,151.32 -117.32,226.33 97.59,-34.78 197,-64.37 298.23,-87.21 15.32,-30.63 30.37,-61.26 45.68,-91.63 50.87,2.6 101.74,4.67 152.88,5.72 -73.98,-43.35 -159.88,-62.82 -230.74,-111.87 45.42,-0.78 90.84,0.52 136.27,2.08 60.74,-85.39 119.91,-173.38 197.51,-245.02 37.89,4.15 76.05,7.52 114.2,10.64 -61.52,-34.52 -127.7,-58.92 -193.11,-84.35 53.47,-4.93 107.46,-6.49 160.66,-15.31 105.38,-75.27 204.53,-187.4 348.32,-160.41 -48.54,-18.95 -96.81,-38.41 -144.57,-58.4 120.7,7.79 233.86,-31.66 346.5,-68 26.99,9.6 53.99,19.2 80.98,28.8 -20.51,-24.91 -41.01,-49.31 -61.77,-73.71 91.88,43.09 193.37,15.31 290.7,22.06 105.64,3.12 208.68,27.52 311.73,48.54 -249.96,-159.88 -563.23,-256.44 -857.05,-177.54zm-390.1 942.17l0 0c63.85,-17.13 110.05,-66.96 162.48,-103.56 190.51,-143.54 401.79,-255.66 619.03,-352.48 -331.19,-56.58 -632.79,177.8 -781.51,456.03zm1296.99 -421.51l0 0c-333,52.7 -649.92,192.07 -927.12,382.33 31.66,-2.86 94.99,-8.57 126.66,-11.43 -143.79,98.38 -288.36,195.44 -432.15,293.82l-9.34 -1.56c-5.71,7.78 -17.13,23.1 -22.84,30.88 153.4,-21.8 308.62,-7 458.63,29.59 20.76,-13.76 41.53,-27.78 62.3,-41.53 44.64,6.49 89.02,12.2 133.67,17.14 -72.68,-49.84 -155.99,-82.02 -226.85,-135.23 73.19,5.19 146.39,14.27 219.07,25.18 93.44,-59.44 187.39,-118.1 286.03,-168.19 54.25,10.38 108.75,19.47 163.52,25.69 -60.48,-46.72 -133.93,-73.97 -191.82,-124.58 61.26,5.2 122.25,15.83 183.77,17.91 97.33,-21.54 185.58,-74.23 284.73,-90.59 51.65,7.27 102,21.03 153.14,31.41 -54.25,-35.04 -112.13,-65.93 -158.85,-111.35 77.61,9.86 154.17,38.93 233.6,28.81 92.92,-10.9 187.92,-25.7 279.28,4.67 -17.65,-19.99 -52.95,-60.22 -70.6,-80.2 67.23,29.58 134.19,64.11 209.2,66.45 232.04,18.94 453.18,100.71 659.26,205.56 -55.28,-78.91 -139.64,-129.78 -219.06,-181.42 -359.74,-199.08 -786.45,-293.04 -1194.2,-213.36zm-2269.01 1012.78l0 0c-8.57,-84.35 13.24,-166.12 43.08,-243.98 -153.14,97.07 -301.86,213.61 -390.63,375.06 -99.93,183.5 -131.6,394.78 -226.59,580.62 -57.1,121.99 -138.6,229.44 -219.06,336.38 168.97,-90.84 351.18,-195.19 450.58,-364.93 32.45,45.95 -2.85,96.03 -14.54,142.5 -48.27,140.94 -67.74,290.44 -60.74,439.17 185.06,121.73 329.12,298.75 420.22,500.16 5.97,-167.41 -37.38,-331.97 -89.28,-489.52 376.87,148.72 815.77,53.47 1149.56,-157.03 -110.31,-15.57 -239.83,15.57 -331.96,-62.03 154.43,-34.78 266.3,-161.7 325.22,-302.64 104.6,-239.83 123.8,-539.87 -27.52,-764.38 76.83,-50.1 160.15,-89.8 233.6,-144.83 -249.43,-21.03 -496.01,36.34 -740.77,75.79 45.95,-116.02 145.35,-193.89 226.34,-283.69 26.99,-10.64 49.31,-30.11 72.93,-46.72 -313.8,19.72 -619.04,167.15 -820.45,410.09zm2929.31 -394.52l0 0c-16.1,251.76 -109.54,497.57 -269.94,693.01 85.65,56.58 191.03,95.51 292.52,55.8 -39.97,287.84 -319,456.81 -580.62,514.7 250.21,116.02 456.3,305.23 645.77,501.71 135.49,-25.69 269.42,-78.38 371.17,-173.9 153.91,-138.86 231,-345.72 246.05,-548.95 19.72,-267.35 -43.09,-547.92 -204.53,-765.16 -117.83,-158.84 -305.24,-256.18 -500.41,-277.2zm-1045.75 377.9l0 0c136.79,12.72 275.13,31.41 402.83,84.1 108.75,43.09 198.04,120.7 296.92,181.17 -25.95,-34.26 -52.43,-68 -79.16,-101.48 72.93,-154.18 85.13,-333.01 33.47,-495.75 -234.89,72.93 -452.66,192.07 -654.07,331.96zm-2551.92 -107.19l0 0c10.38,22.84 28.29,51.65 57.1,35.3 53.73,19.98 106.16,43.34 156.51,70.59 23.62,-31.92 46.46,-64.37 68.52,-97.59 5.2,-1.82 15.58,-5.45 20.77,-7.27 -100.71,-10.65 -202.19,-7.53 -302.9,-1.04zm2228.26 283.43l0 0c59.7,116.28 104.6,239.05 135.49,365.97 15.05,-27.77 30.37,-55.55 45.43,-83.32 63.59,73.45 137.56,143.27 234.11,169.49 -48.27,-69.3 -107.19,-130.29 -152.61,-201.42 297.18,-28.55 569.2,231.52 867.95,109.01 -32.19,-33.22 -76.57,-48.28 -117.06,-68.26 -156.51,-72.41 -280.83,-201.67 -444.87,-259.29 -182.21,-65.41 -379.47,-47.76 -568.42,-32.19zm-2311.06 998.5l0 0c-110.05,78.38 -235.67,140.67 -322.36,247.61 -77.61,95.51 -131.6,208.15 -175.2,322.88 -16.61,33.74 0.52,69.04 7.27,103.04 136.01,9.61 254.62,-65.66 372.46,-121.46 109.01,-35.3 118.87,133.67 42.82,174.94 -117.31,65.66 -259.55,-9.09 -381.28,36.59 -26.99,64.63 15.32,138.6 7.79,207.9 -10.38,99.93 70.59,202.45 174.68,198.3 146.91,-4.93 242.42,-131.34 357.66,-204.79 147.69,-113.68 348.58,-186.1 531.31,-115.75 -42.83,5.97 -85.65,10.9 -128.74,15.06 88.51,71.37 191.04,149.24 218.29,265.52 22.84,97.59 -70.08,165.59 -149.76,195.19 -223.48,82.02 -470.57,77.86 -700.54,26.47 -78.13,-17.39 -147.43,32.96 -211.53,69.3 83.57,74.24 231.78,43.87 281.36,156.25 65.66,127.96 111.86,265.78 143.53,405.69 26.74,-78.39 53.99,-156.51 84.88,-233.08 -5.71,213.61 31.41,448.25 192.59,602.94 -26.73,-169.48 4.93,-341.31 47.5,-505.34 44.12,67.48 82.02,138.6 119.91,209.71 41.27,-273.57 117.06,-561.67 310.43,-769.31 47.23,-59.18 141.45,-71.12 166.11,-147.95 36.08,-85.65 53.99,-178.83 43.08,-271.49 -28.03,54.76 -55.28,111.09 -100.44,154.69 23.36,-127.44 14.53,-278.76 -107.71,-354.29 -29.34,64.63 -81.24,112.91 -144.83,143.53 -31.41,-274.09 -248.91,-483.03 -491.08,-589.44 -18.94,-153.65 43.09,-298.75 79.43,-444.87 -86.17,77.61 -171.57,156.51 -267.6,222.18zm2383.99 5.19l0 0c-140.42,334.05 -376.87,644.99 -701.05,816.55 2.33,8.05 7,24.14 9.34,32.19 75.79,-39.19 154.69,-71.64 236.19,-96.3 227.62,335.09 286.03,751.92 293.03,1148.26 7.01,157.55 -20.76,313.8 -19.2,471.35 56.32,-203.75 91.36,-412.95 160.4,-613.06 56.59,-144.32 136.27,-278.77 227.63,-404.13 -58.4,-212.57 -134.45,-419.69 -195.19,-631.23 144.05,133.15 221.4,319.51 310.69,490.55 114.98,-122.25 249.69,-221.66 385.95,-318.22 -159.89,-348.05 -388.29,-677.43 -707.8,-895.98zm-2910.1 1120.49l0 0c-7.79,-107.71 -8.05,-216.46 -24.66,-323.4 -50.09,98.89 -41.01,232.82 24.66,323.4zm889.74 -184.54l0 0c-191.81,44.9 -316.65,212.05 -487.18,297.71 78.12,47.49 176.23,37.63 264.22,46.2 146.65,-5.97 305.24,-8.3 433.98,-87.73 58.65,-27.77 12.2,-87.21 -10.65,-121.99 -154.43,59.18 -315.61,109.27 -481.72,118.36 148.2,-39.97 292.77,-96.04 424.62,-175.46 -42.05,-32.7 -83.06,-91.36 -143.27,-77.08zm-873.65 240.87l0 0c17.13,41.78 38.16,81.76 62.03,120.17 19.72,-15.57 39.71,-31.15 59.44,-46.72 -41.53,-22.84 -81.5,-48.02 -121.47,-73.45z"/>
     </g>
     <path class="fil1" d="M4478.6 2094.15c83.58,-152.61 151.32,-314.58 181.43,-486.92 155.99,55.54 286.55,172.6 357.92,322.36 123.29,253.85 144.83,562.97 36.34,825.64 -65.92,160.93 -211.53,281.62 -379.98,322.11 -116.8,-119.65 -241.9,-231.52 -377.39,-329.37 143.53,-84.62 279.79,-194.93 348.32,-351.18 57.36,-121.21 52.16,-259.03 51.65,-389.85 -74.24,25.69 -146.13,57.1 -218.29,87.2z"/>
     <path class="fil1" d="M3864.5 1763.48c61.52,-35.82 126.14,-65.66 192.07,-92.4 -1.3,55.29 -5.97,110.31 -12.46,165.08 -58.92,-26.47 -118.87,-51.13 -179.61,-72.68z"/>
     <g>
      <path class="fil1" d="M1956.79 2463.23c173.13,-191.81 455.78,-231.52 699.24,-189.73 -92.15,40.23 -185.59,77.86 -276.17,121.47 0.52,141.72 -39.97,297.19 -161.18,383.35 -130.04,97.6 -302.12,83.58 -454.74,71.38 120.43,139.11 316.91,156.51 488.74,154.95 -175.2,103.3 -401.79,63.33 -562.45,-49.57 -47.5,-39.45 -111.6,-27.77 -168.19,-32.7 15.31,-12.97 45.94,-38.41 61.26,-51.39 157.55,-102.78 252.8,-268.89 373.49,-407.76zm-55.03 277.21l0 0c161.97,38.93 286.55,-116.02 327.3,-255.14 -129.52,52.94 -253.59,133.15 -327.3,255.14z"/>
     </g>
    </g>
    <g>
     <path class="fil2" d="M2978.13 315.18c293.82,-78.9 607.1,17.65 857.05,177.54 -103.05,-21.02 -206.09,-45.42 -311.73,-48.54 -97.33,-6.75 -198.82,21.03 -290.7,-22.06 20.76,24.4 41.27,48.79 61.77,73.71 -26.99,-9.6 -53.99,-19.2 -80.98,-28.8 -112.64,36.34 -225.81,75.79 -346.5,68 47.76,19.99 96.04,39.46 144.57,58.4 -143.79,-26.99 -242.94,85.13 -348.32,160.41 -53.21,8.82 -107.19,10.38 -160.66,15.31 65.41,25.43 131.6,49.83 193.11,84.35 -38.16,-3.11 -76.31,-6.49 -114.2,-10.64 -77.61,71.64 -136.78,159.63 -197.51,245.02 -45.43,-1.56 -90.85,-2.86 -136.27,-2.08 70.86,49.05 156.76,68.52 230.74,111.87 -51.13,-1.05 -102.01,-3.12 -152.88,-5.72 -15.31,30.37 -30.36,61 -45.68,91.63 -101.22,22.84 -200.64,52.43 -298.23,87.21 39.45,-75.01 80.72,-149.5 117.32,-226.33 -46.72,27.51 -94.48,53.47 -145.1,73.45 143.53,-311.46 401.27,-565.31 697.42,-734.01 142.75,-85.65 307.05,-116.28 465.38,-159.37 -46.2,-3.89 -92.4,-7.53 -138.61,-9.34z"/>
     <path class="fil2" d="M3885.01 835.84c407.75,-79.68 834.46,14.28 1194.2,213.36 79.42,51.65 163.78,102.52 219.06,181.42 -206.08,-104.86 -427.22,-186.62 -659.26,-205.56 -75.01,-2.34 -141.97,-36.86 -209.2,-66.45 17.65,19.98 52.95,60.21 70.6,80.2 -91.36,-30.37 -186.36,-15.58 -279.28,-4.67 -79.43,10.12 -155.99,-18.95 -233.6,-28.81 46.72,45.42 104.6,76.3 158.85,111.35 -51.14,-10.38 -101.49,-24.14 -153.14,-31.41 -99.15,16.36 -187.4,69.04 -284.73,90.59 -61.52,-2.08 -122.51,-12.71 -183.77,-17.91 57.88,50.61 131.34,77.86 191.82,124.58 -54.77,-6.22 -109.27,-15.31 -163.52,-25.69 -98.63,50.1 -192.59,108.75 -286.03,168.19 -72.68,-10.9 -145.87,-19.98 -219.07,-25.18 70.86,53.21 154.17,85.39 226.85,135.23 -44.64,-4.94 -89.02,-10.65 -133.67,-17.14 -20.76,13.76 -41.53,27.77 -62.3,41.53 -150.01,-36.6 -305.23,-51.39 -458.63,-29.59 5.71,-7.78 17.14,-23.1 22.84,-30.88l9.34 1.56c47.24,6.75 95.26,17.38 143.27,11.42 92.66,-50.88 162.74,-133.15 249.43,-193.11 327.56,-236.97 708.84,-419.17 1115.56,-456.29l-1.82 -38.93c-91.37,3.38 -182.73,5.2 -273.83,12.2z"/>
     <g>
      <path class="fil2" d="M1639.36 2156.45c163.78,-289.41 402.82,-559.85 724.15,-671.21 -80.98,89.81 -180.39,167.68 -226.34,283.69 244.76,-39.45 491.34,-96.82 740.77,-75.79 -73.45,55.03 -156.77,94.74 -233.6,144.83 151.32,224.51 132.12,524.55 27.52,764.38 -58.92,140.94 -170.79,267.86 -325.22,302.64 92.14,77.61 221.65,46.46 331.96,62.03 -333.78,210.49 -772.69,305.75 -1149.56,157.03 51.91,157.55 95.25,322.11 89.28,489.52 -91.1,-201.41 -235.16,-378.43 -420.22,-500.16 -7.01,-148.72 12.46,-298.23 60.74,-439.17 11.68,-46.46 46.98,-96.55 14.54,-142.5 78.38,-161.44 176.5,-311.99 255.66,-472.9 36.85,32.44 73.45,64.89 110.31,97.6zm387.51 113.16l0 0c-141.2,69.3 -211.02,217.24 -278.76,350.14 -43.86,91.1 -118.87,161.7 -164.81,251.24 -15.32,12.98 -45.95,38.42 -61.26,51.39 56.59,4.94 120.69,-6.75 168.19,32.7 160.66,112.91 387.25,152.88 562.45,49.57 -171.83,1.56 -368.31,-15.84 -488.74,-154.95 152.61,12.2 324.7,26.22 454.74,-71.38 121.21,-86.17 161.7,-241.64 161.18,-383.35 90.58,-43.61 184.02,-81.24 276.17,-121.47l19.72 2.85c-5.19,-6.75 -15.57,-19.98 -20.76,-26.74 -205.57,-41 -433.2,-84.61 -628.12,19.99z"/>
     </g>
     <path class="fil2" d="M3175.91 2008.24c188.95,-15.58 386.21,-33.22 568.42,32.19 164.04,57.62 288.36,186.88 444.87,259.29 40.49,19.98 84.88,35.04 117.06,68.26 -298.75,122.51 -570.76,-137.56 -867.95,-109.01 45.42,71.12 104.34,132.11 152.61,201.42 -96.55,-26.21 -170.52,-96.04 -234.11,-169.49 -15.05,27.77 -30.37,55.54 -45.43,83.32 -30.88,-126.92 -75.79,-249.69 -135.49,-365.97z"/>
    </g>
    <g>
     <path class="fil3" d="M2422.95 538.92c170.53,-105.38 360,-178.84 555.18,-223.74 46.2,1.82 92.4,5.45 138.61,9.34 -158.33,43.09 -322.63,73.71 -465.38,159.37 -296.15,168.7 -553.89,422.55 -697.42,734.01 -70.6,66.97 -164.55,105.64 -245.8,158.85 154.7,-337.68 395.04,-642.91 714.81,-837.83z"/>
     <path class="fil3" d="M2957.89 1218.16c277.2,-190.25 594.12,-329.63 927.12,-382.33 91.1,-7 182.46,-8.82 273.83,-12.2l1.82 38.93c-406.72,37.12 -788,219.32 -1115.56,456.29 -86.69,59.96 -156.77,142.23 -249.43,193.11 -48.02,5.97 -96.04,-4.67 -143.27,-11.42 143.79,-98.38 288.36,-195.44 432.15,-293.82 -31.67,2.85 -94.99,8.57 -126.66,11.43z"/>
     <path class="fil3" d="M1616 1848.61c201.41,-242.94 506.64,-390.37 820.45,-410.09 -23.62,16.61 -45.94,36.08 -72.93,46.72 -321.33,111.36 -560.38,381.81 -724.15,671.21 -36.86,-32.7 -73.46,-65.15 -110.31,-97.6 -79.17,160.92 -177.28,311.47 -255.66,472.9 -99.41,169.75 -281.61,274.09 -450.58,364.93 80.46,-106.94 161.96,-214.39 219.06,-336.38 95,-185.84 126.67,-397.12 226.59,-580.62 88.77,-161.44 237.49,-277.98 390.63,-375.06 -29.85,77.86 -51.65,159.63 -43.08,243.98z"/>
     <path class="fil3" d="M1004.75 1760.11c73.71,-17.65 150.02,-17.65 225.03,-26.99 -22.06,33.22 -44.9,65.66 -68.52,97.59 -50.35,-27.25 -102.78,-50.61 -156.51,-70.59z"/>
    </g>
    <g>
     <path class="fil4" d="M947.65 1724.81c100.71,-6.49 202.19,-9.61 302.9,1.04 -5.19,1.82 -15.57,5.45 -20.77,7.27 -75.01,9.34 -151.32,9.34 -225.03,26.99 -28.8,16.35 -46.72,-12.46 -57.1,-35.3z"/>
     <path class="fil4" d="M2026.87 2269.61c194.92,-104.6 422.56,-60.99 628.12,-19.99 5.19,6.75 15.57,19.99 20.76,26.74l-19.72 -2.85c-243.46,-41.79 -526.12,-2.07 -699.24,189.73 -120.69,138.87 -215.95,304.97 -373.49,407.76 45.94,-89.54 120.95,-160.14 164.81,-251.24 67.74,-132.9 137.56,-280.84 278.76,-350.14z"/>
     <path class="fil4" d="M3248.84 3011.93c319.51,218.55 547.91,547.92 707.8,895.98 -136.27,96.55 -270.97,195.96 -385.95,318.22 -89.29,-171.05 -166.64,-357.41 -310.69,-490.55 60.74,211.53 136.78,418.66 195.19,631.23 -91.37,125.36 -171.05,259.81 -227.63,404.13 -69.04,200.11 -104.08,409.31 -160.4,613.06 -1.56,-157.55 26.21,-313.8 19.2,-471.35 -7,-396.34 -65.41,-813.18 -293.03,-1148.26 -81.51,24.66 -160.41,57.11 -236.19,96.3 -2.34,-8.05 -7.01,-24.14 -9.34,-32.19 324.18,-171.56 560.63,-482.51 701.05,-816.55z"/>
    </g>
   </g>
   <path class="fil5 str0" d="M2191.64 2501.45c-43.45,107.55 -113.23,188.5 -209.35,242.86"/>
   <path class="fil6" d="M2191.64 2501.45c-43.45,107.55 -113.23,188.5 -209.35,242.86 122.06,-18.13 213.07,-143.98 246.77,-259.01 -12.54,5.12 -25.02,10.51 -37.42,16.16z"/>
   <path class="fil7" d="M1982.29 2744.31c96.12,-54.36 165.9,-135.31 209.35,-242.86 -115.65,52.71 -223.3,128.8 -289.88,238.99 28.05,6.74 54.97,7.67 80.53,3.87z"/>
  </g>
 </g>
</svg>
