<?xml version="1.0" encoding="UTF-8"?>
<!DOCTYPE svg PUBLIC "-//W3C//DTD SVG 1.1//EN" "http://www.w3.org/Graphics/SVG/1.1/DTD/svg11.dtd">
<!-- Creator: CorelDRAW 2018 (64-Bit) -->
<svg xmlns="http://www.w3.org/2000/svg" xml:space="preserve" width="0.269606in" height="0.321571in" version="1.1" style="shape-rendering:geometricPrecision; text-rendering:geometricPrecision; image-rendering:optimizeQuality; fill-rule:evenodd; clip-rule:evenodd"
viewBox="0 0 1.36 1.62"
 xmlns:xlink="http://www.w3.org/1999/xlink">
 <defs>
  <style type="text/css">
   <![CDATA[
    .str0 {stroke:#2B2A29;stroke-width:0;stroke-miterlimit:2.61313}
    .fil14 {fill:none}
    .fil15 {fill:#C79933}
    .fil16 {fill:#FBEB58}
    .fil0 {fill:white}
    .fil12 {fill:#006738;fill-rule:nonzero}
    .fil9 {fill:#006837;fill-rule:nonzero}
    .fil10 {fill:#006935;fill-rule:nonzero}
    .fil7 {fill:#006A37;fill-rule:nonzero}
    .fil2 {fill:#012814;fill-rule:nonzero}
    .fil11 {fill:#026737;fill-rule:nonzero}
    .fil8 {fill:#026837;fill-rule:nonzero}
    .fil5 {fill:#032713;fill-rule:nonzero}
    .fil4 {fill:#105F39;fill-rule:nonzero}
    .fil3 {fill:#22B574;fill-rule:nonzero}
    .fil13 {fill:#2FB57E;fill-rule:nonzero}
    .fil6 {fill:#43A879;fill-rule:nonzero}
    .fil1 {fill:white;fill-rule:nonzero}
   ]]>
  </style>
 </defs>
 <g id="Layer_x0020_1">
  <metadata id="CorelCorpID_0Corel-Layer"/>
  <g id="_988824176">
   <path class="fil0" d="M0.75 0.29c0.02,-0.01 0.03,-0.03 0.05,-0.04 -0.02,-0.01 -0.03,-0.01 -0.05,-0.02 -0.01,-0 -0.02,-0 -0.03,-0.01 -0,-0 -0.03,-0.01 -0.03,-0 -0,0.01 -0,0.04 0,0.04 0,0.01 0.02,0.02 0.03,0.03 0.01,0 0.02,0.01 0.03,0z"/>
   <path class="fil1" d="M0.96 0.05c0.03,-0.02 0.06,-0.04 0.1,-0.05 0.02,-0.01 0.05,0 0.06,0.01 0.03,0.02 0.05,0.05 0.08,0.06 0.03,0.01 0.06,0.01 0.09,0.01 0.01,-0 0.02,0 0.02,0.01 0.03,0.05 0.04,0.11 0.02,0.17 -0.01,0.02 0.01,0.04 0.01,0.05 0.01,0.03 0,0.07 -0,0.1 -0.01,0.02 -0.04,0.03 -0.05,0.05 -0.01,0.03 -0.03,0.05 -0.05,0.07 -0.01,-0 -0.02,-0.01 -0.03,-0.01 -0.01,0 -0.03,0 -0.04,0 -0.01,0.01 -0.01,0.01 -0.02,0.02 -0,-0 -0.01,-0 -0.02,-0 -0,0.01 -0,0.02 -0.01,0.03 -0.01,0.01 -0.03,0 -0.04,0.01 -0.01,0.02 -0.01,0.03 -0.02,0.05 0.01,0.01 0.03,0.02 0.03,0.03 0.01,0 0.02,-0 0.03,0 0.01,0.01 0.01,0.01 0.01,0.02 0.02,0 0.03,0.02 0.05,0.03 0.01,0.01 0.02,0.02 0.03,0.03 0,0.01 0,0.03 0,0.04 0.01,0.01 0.03,0.03 0.03,0.04 0,0.03 -0.01,0.07 -0.02,0.1 -0.01,0.02 -0.03,0.05 -0.06,0.06 -0.03,0.02 -0.06,0.02 -0.09,0.04 0,0.01 0.02,0.03 0.01,0.04 -0.04,0.08 -0.09,0.15 -0.14,0.22 -0.05,0.06 -0.1,0.12 -0.15,0.18 -0.06,0.06 -0.12,0.1 -0.19,0.14 -0.02,0.01 -0.04,-0.01 -0.05,-0.02 -0.07,-0.05 -0.13,-0.1 -0.2,-0.15 -0.11,-0.09 -0.21,-0.18 -0.29,-0.29 -0.03,-0.04 -0.06,-0.08 -0.08,-0.13 0,-0 0.01,-0.01 0.01,-0.02 0.04,-0.03 0.08,-0.05 0.12,-0.08 -0.04,-0.13 -0.03,-0.28 -0,-0.41 0.03,-0.11 0.08,-0.21 0.15,-0.29 0.06,-0.06 0.13,-0.1 0.21,-0.12 0.02,-0 0.03,-0 0.05,-0.02 0.02,-0.02 0.05,-0.04 0.07,-0.05 0.04,-0.02 0.08,-0.02 0.12,-0.01 0.04,0.01 0.08,0.03 0.13,0.04 0.04,0.01 0.07,-0.01 0.1,-0.03zm0.1 -0.03l0 0c-0.04,0.01 -0.07,0.04 -0.1,0.06 -0.03,0.01 -0.06,0.03 -0.09,0.03 -0.06,-0.01 -0.12,-0.04 -0.18,-0.05 -0.06,-0 -0.1,0.05 -0.15,0.08 -0.07,0.01 -0.14,0.04 -0.2,0.09 -0.1,0.08 -0.16,0.2 -0.19,0.32 -0.03,0.14 -0.04,0.29 0.02,0.43 -0,0.01 -0,0.02 -0,0.02 -0.01,-0 -0.01,-0 -0.02,-0 -0.01,-0.01 -0.01,-0.02 -0.02,-0.03 -0.03,0.02 -0.07,0.04 -0.1,0.06 0.06,0.11 0.15,0.2 0.24,0.29 0.11,0.1 0.23,0.19 0.35,0.27 0.1,-0.06 0.19,-0.14 0.27,-0.23 0.08,-0.09 0.15,-0.2 0.2,-0.31 -0.02,-0.01 -0.04,-0.01 -0.06,-0.02 -0.03,-0.01 -0.05,-0 -0.08,-0.01 0.01,-0 0.01,-0.01 0.02,-0.01 0.04,-0 0.08,0 0.11,-0 0,-0 0,-0.01 0,-0.01 0.03,-0.01 0.06,-0.02 0.09,-0.03 0.05,-0.03 0.08,-0.08 0.07,-0.14 -0.01,-0.02 -0.02,-0.02 -0.04,-0.03 0,-0.02 0,-0.03 0,-0.05 -0.01,0.01 -0.01,0.01 -0.02,0.02 -0,-0.01 -0,-0.03 -0.01,-0.04 -0,0 -0.01,0.01 -0.02,0.02 -0,-0.01 -0.01,-0.02 -0.01,-0.04 -0.01,0 -0.02,0 -0.03,0.01 -0,-0.01 -0.01,-0.02 -0.01,-0.04 -0.01,0 -0.02,0.01 -0.04,0.01 -0,-0.01 -0,-0.03 -0,-0.04 -0.01,0 -0.02,0 -0.03,0 0,-0.04 0.01,-0.08 0.04,-0.11 0.01,-0.01 0.02,-0 0.03,-0 0,-0.01 0.01,-0.03 0.01,-0.04 0.01,-0 0.02,0 0.03,-0 0.01,-0.01 0.01,-0.02 0.02,-0.03 0.01,0 0.01,0.01 0.02,0.01 0.01,-0 0.02,-0.01 0.03,-0.01 0,0.01 0.01,0.01 0.01,0.02 0.01,-0.02 0.03,-0.04 0.04,-0.06 0.01,-0.02 0.04,-0.03 0.04,-0.05 0.01,-0.03 0.01,-0.06 -0,-0.09 -0.01,-0.01 -0.02,-0.02 -0.01,-0.04 0.02,-0.05 0.01,-0.11 -0.01,-0.16 -0.03,0 -0.07,0 -0.1,-0.01 -0.04,-0.01 -0.06,-0.04 -0.09,-0.06 -0.01,-0.01 -0.03,-0.01 -0.04,-0.01z"/>
   <path class="fil2" d="M1.06 0.03c0.01,-0.01 0.03,-0 0.04,0.01 0.03,0.02 0.05,0.05 0.09,0.06 0.03,0.01 0.07,0.01 0.1,0.01 0.02,0.05 0.03,0.11 0.01,0.16 -0.01,0.01 0.01,0.03 0.01,0.04 0.01,0.03 0.01,0.06 0,0.09 -0,0.02 -0.03,0.03 -0.04,0.05 -0.01,0.02 -0.02,0.04 -0.04,0.06 -0,-0.01 -0.01,-0.01 -0.01,-0.02 -0.01,0.01 -0.02,0.01 -0.03,0.01 -0.01,-0 -0.01,-0.01 -0.02,-0.01 -0.01,0.01 -0.01,0.02 -0.02,0.03 -0.01,0 -0.02,0 -0.03,0 -0,0.01 -0.01,0.03 -0.01,0.04 -0.01,-0 -0.03,-0.01 -0.03,0 -0.03,0.03 -0.03,0.07 -0.04,0.11 0.01,-0 0.02,-0 0.03,-0 0,0.01 0,0.03 0,0.04 0.01,-0 0.02,-0.01 0.04,-0.01 0,0.01 0.01,0.02 0.01,0.04 0.01,-0 0.02,-0 0.03,-0.01 0,0.01 0.01,0.02 0.01,0.04 0,-0 0.01,-0.01 0.02,-0.02 0,0.01 0.01,0.03 0.01,0.04 0.01,-0.01 0.01,-0.01 0.02,-0.02 -0,0.02 -0,0.03 -0,0.05 0.01,0.01 0.03,0.02 0.04,0.03 0,0.05 -0.02,0.11 -0.07,0.14 -0.03,0.01 -0.06,0.02 -0.09,0.03 -0.05,0.01 -0.11,0.01 -0.16,-0 -0.02,-0.01 -0.04,-0.02 -0.07,-0.03 0.03,0.02 0.06,0.04 0.09,0.05 0.02,0.01 0.05,0.01 0.08,0.01 0.02,0 0.04,0.01 0.06,0.02 -0.05,0.11 -0.12,0.21 -0.2,0.31 -0.08,0.09 -0.17,0.17 -0.27,0.23 -0.12,-0.08 -0.24,-0.17 -0.35,-0.27 -0.09,-0.09 -0.18,-0.18 -0.24,-0.29 0.04,-0.02 0.07,-0.04 0.1,-0.06 0.01,0.01 0.01,0.02 0.02,0.03 0.03,0.04 0.06,0.08 0.09,0.12 -0.03,-0.04 -0.06,-0.09 -0.08,-0.14 -0.06,-0.14 -0.05,-0.29 -0.02,-0.43 0.03,-0.12 0.09,-0.24 0.19,-0.32 0.06,-0.05 0.13,-0.07 0.2,-0.09 0.04,-0.03 0.09,-0.08 0.15,-0.08 0.06,0.01 0.12,0.04 0.18,0.05 0.03,0 0.06,-0.01 0.09,-0.03 0.03,-0.02 0.07,-0.04 0.1,-0.06zm-0.03 0.06l0 0c-0.05,0.03 -0.1,0.06 -0.15,0.08 -0.01,0 -0.02,0 -0.04,0 -0.03,-0.01 -0.07,-0.02 -0.1,-0.04 -0.02,-0.01 -0.04,-0.02 -0.06,-0.02 -0.02,0.01 -0.04,0.03 -0.06,0.05 -0.03,0.02 -0.04,0.06 -0.04,0.09 -0.01,-0.01 -0.02,-0.01 -0.03,-0.02 -0.01,0.02 -0.01,0.05 0,0.07 -0.03,-0 -0.05,-0.03 -0.06,-0.05 -0.05,0.02 -0.09,0.05 -0.12,0.09 -0.07,0.07 -0.12,0.18 -0.12,0.28 -0,0.09 0.01,0.18 0.03,0.26 0.02,0.07 0.06,0.13 0.11,0.18 -0.03,-0.08 -0.06,-0.17 -0.06,-0.26 -0.01,-0.12 0.01,-0.25 0.08,-0.35 -0.01,0.07 -0.03,0.15 -0.03,0.22 -0,0.05 0.03,0.1 0.07,0.12 0.05,0.03 0.11,0.04 0.17,0.04 -0.01,-0.02 -0.03,-0.05 -0.04,-0.08 0.09,0.07 0.19,0.15 0.29,0.2 0.05,0.03 0.12,0.03 0.18,0.03 0.01,0 0.03,-0.01 0.04,-0.01 0.04,-0 0.07,-0.04 0.09,-0.07 -0.05,0.01 -0.11,0.01 -0.16,0 -0.07,-0.02 -0.12,-0.06 -0.18,-0.1 -0.06,-0.05 -0.11,-0.1 -0.16,-0.16 0.04,0.1 0.12,0.17 0.2,0.24 -0.01,-0 -0.02,-0.01 -0.03,-0.01 -0.1,-0.07 -0.19,-0.15 -0.25,-0.26 -0.01,0.01 -0.02,0.03 -0.02,0.04 -0,0 -0,0 -0.01,0 -0.01,-0.03 -0.01,-0.06 -0,-0.09 0.01,-0.03 0.04,-0.05 0.08,-0.06 0,0 0.01,0 0.01,0 -0,0.01 -0.01,0.01 -0.01,0.02 0.01,0.01 0.02,0.01 0.03,0.01 0.04,-0 0.08,-0.01 0.12,-0.03 0.06,-0.03 0.12,-0.06 0.17,-0.1 0.02,-0.01 0.03,-0.02 0.05,-0.03 0.02,-0.01 0.05,-0.02 0.07,-0.03 0.07,-0.01 0.13,0 0.2,0.02 -0,-0.02 0,-0.04 -0.01,-0.06 -0.01,-0.01 -0.03,-0.01 -0.04,-0.02 0.01,-0 0.02,-0.01 0.03,-0.01 0.01,-0.04 0.01,-0.08 -0,-0.11 -0,-0 -0.01,-0 -0.01,-0.01 -0.02,-0 -0.04,-0.01 -0.06,0 -0.04,-0.02 -0.07,-0.04 -0.1,-0.07 -0.01,-0.01 -0.02,-0.02 -0.03,-0.02 -0.01,0 -0.03,0.01 -0.04,0.02zm0.02 0.32l0 0c-0.07,0.03 -0.12,0.08 -0.19,0.11 -0.05,0.03 -0.11,0.04 -0.16,0.05 0.02,0.02 0.05,0.04 0.08,0.06 0.01,-0.02 0.01,-0.04 0.02,-0.05 0.01,0.01 0.03,0.01 0.04,0.02 0.01,-0.02 0.01,-0.03 0.02,-0.05 0.02,0.01 0.03,0.01 0.05,0.02 0.01,-0.02 0.02,-0.03 0.02,-0.05 0.01,0.01 0.03,0.01 0.04,0.02 0.01,-0.02 0.01,-0.03 0.02,-0.05 0.01,0.01 0.03,0.02 0.05,0.02 0.01,-0.02 0.02,-0.04 0.02,-0.06 0.01,0.01 0.03,0.03 0.04,0.04 0.01,-0.02 0.03,-0.04 0.04,-0.06 0.01,0.01 0.02,0.03 0.03,0.04 0.01,-0.01 0.03,-0.02 0.04,-0.04 0.01,0.02 0.02,0.03 0.03,0.04 0.01,-0.02 0.02,-0.04 0.03,-0.07 -0.07,-0.02 -0.15,-0.02 -0.21,0.01zm-0.06 0.43l0 0c0.07,0.02 0.14,0.02 0.21,-0.01 -0,-0.01 -0,-0.02 -0,-0.04 -0.01,0.01 -0.01,0.02 -0.02,0.03 -0.01,-0.01 -0.01,-0.02 -0.02,-0.03 -0.01,0.01 -0.01,0.02 -0.02,0.03 -0.01,-0.01 -0.01,-0.02 -0.02,-0.03 -0.01,0.01 -0.02,0.02 -0.03,0.03 -0,-0.01 -0.01,-0.02 -0.02,-0.04 -0.01,0.01 -0.03,0.02 -0.04,0.02 0,-0.01 0,-0.03 0,-0.04 -0.02,0.01 -0.03,0.01 -0.05,0.02 0,-0.02 0,-0.03 0,-0.05 -0.02,0 -0.03,0.01 -0.05,0.02 0,-0.02 0,-0.03 0,-0.05 -0.02,0 -0.03,0.01 -0.05,0.01 0,-0.02 0,-0.03 0,-0.05 -0.02,0.01 -0.04,0.01 -0.05,0.02 -0.02,-0.01 -0.04,-0.03 -0.06,-0.04 0.06,0.07 0.13,0.14 0.22,0.18zm-0.57 0l0 0c0,0.11 0.05,0.21 0.09,0.31 0.02,0.04 0.04,0.09 0.07,0.12 0.03,0.06 0.07,0.11 0.12,0.16 0.08,-0.07 0.15,-0.16 0.17,-0.27 -0,-0.01 0.01,-0.03 -0.01,-0.03 -0.08,-0.04 -0.17,-0.03 -0.26,-0.03 0.06,-0.04 0.12,-0.05 0.19,-0.05 -0,-0.01 -0,-0.01 -0.01,-0.02 -0.01,-0.02 -0.03,-0.05 -0.05,-0.05 -0.04,-0.01 -0.08,-0.01 -0.13,-0.01 0.03,-0.01 0.06,-0.02 0.1,-0.02 -0.05,-0.05 -0.13,-0.04 -0.19,-0.05 -0.04,-0 -0.07,-0.03 -0.09,-0.05zm-0.15 0.16l0 0c0,0.03 0.01,0.06 0.02,0.09 0.03,0.09 0.07,0.17 0.14,0.23 0.04,0.03 0.09,0.07 0.14,0.09 -0.02,-0.02 -0.04,-0.04 -0.06,-0.06 -0.1,-0.11 -0.18,-0.22 -0.25,-0.35z"/>
   <path class="fil2" d="M0.67 0.17c0.01,-0.01 0.02,-0.01 0.03,-0 0.02,0.01 0.04,0.03 0.07,0.04 0.02,0.01 0.05,0.01 0.08,0.02 -0.02,0.04 -0.05,0.08 -0.09,0.11 -0.02,0 -0.04,0 -0.06,-0 -0.02,-0 -0.03,-0.02 -0.04,-0.03 0.01,0 0.01,0 0.02,0 -0.01,-0.02 -0.02,-0.05 -0.02,-0.08 -0.01,0.01 -0.02,0.02 -0.02,0.03 0,-0.03 0.02,-0.05 0.04,-0.08zm0.12 0.08c-0.02,-0.01 -0.03,-0.01 -0.05,-0.02 -0.01,-0 -0.02,-0 -0.03,-0.01 -0,-0 -0.03,-0.01 -0.03,-0 -0,0.01 -0,0.04 0,0.04 0,0.01 0.02,0.02 0.03,0.03 0.01,0 0.02,0.01 0.03,0 0.02,-0.01 0.03,-0.03 0.05,-0.04z"/>
   <path class="fil3" d="M1.04 0.09c0.01,-0.01 0.02,-0.02 0.04,-0.02 0.01,0 0.02,0.01 0.03,0.02 0.03,0.03 0.07,0.05 0.1,0.07 0.02,-0.01 0.04,-0 0.06,-0 -0.02,-0 -0.04,0 -0.05,0 0.02,0 0.04,0 0.06,0 0.01,0.04 0.01,0.08 0,0.11 -0.01,0 -0.02,0.01 -0.03,0.01 0.01,0.01 0.03,0.01 0.04,0.02 0.02,0.01 0.01,0.04 0.01,0.06 -0.06,-0.02 -0.13,-0.03 -0.2,-0.02 -0.03,0.01 -0.05,0.02 -0.07,0.03 -0.1,0.03 -0.17,0.1 -0.27,0.13 -0.02,0.01 -0.04,0.01 -0.06,0.01 -0,-0.01 -0,-0.02 -0,-0.03 -0.01,0 -0.03,0.01 -0.04,0.01 -0.03,0.01 -0.06,0.03 -0.08,0.06 -0.01,0.03 -0,0.06 0,0.09 0,-0 0,-0 0.01,-0 0.01,-0 0.01,-0.01 0.02,-0.01 0.07,0.11 0.17,0.2 0.29,0.26 0.02,0.01 0.05,0.02 0.08,0.03 -0.03,-0.01 -0.06,-0.03 -0.08,-0.04 -0.08,-0.06 -0.16,-0.14 -0.2,-0.24 0.05,0.06 0.1,0.11 0.16,0.16 0.05,0.04 0.11,0.09 0.18,0.1 0.05,0.01 0.11,0 0.16,-0 -0.01,0.04 -0.05,0.07 -0.09,0.07 -0.04,0 -0.08,0 -0.12,-0.01 -0.07,-0.02 -0.13,-0.05 -0.18,-0.09 -0.08,-0.05 -0.15,-0.11 -0.22,-0.17 0,0.02 0,0.05 0,0.07 -0.04,-0.02 -0.08,-0.04 -0.1,-0.07 -0.03,-0.05 -0.03,-0.11 -0.03,-0.17 0,-0.05 0.01,-0.09 0.02,-0.14 -0.07,0.05 -0.1,0.13 -0.13,0.21 -0,-0.07 0.02,-0.15 0.06,-0.2 0.02,-0.03 0.05,-0.06 0.09,-0.08 0.01,-0.01 0.02,-0 0.04,0 0.02,0.01 0.04,0.01 0.06,0 -0,-0 -0.01,-0.01 -0.01,-0.02 0,0 0.01,0 0.01,0 0.01,0.01 0.02,0.01 0.03,0.02 -0.01,-0.02 -0.01,-0.05 -0.01,-0.07 0,-0.03 0.01,-0.06 0.02,-0.09 0.01,-0.02 0.03,-0.04 0.06,-0.05 0.02,0 0.04,0.01 0.06,0.02 0.03,0.02 0.07,0.03 0.1,0.04 0.01,0 0.02,0 0.04,-0 0.06,-0.01 0.11,-0.04 0.15,-0.08zm-0.05 0.06l0 0c0.01,-0 0.03,-0.01 0.04,-0.01 0,0 0.01,0.01 0.01,0.01 -0.02,0.02 -0.04,0.02 -0.06,0.02 0.03,0.02 0.07,0.03 0.1,0.01 0.02,-0.01 0.04,-0.04 0.03,-0.06 -0.01,-0.01 -0.02,-0.01 -0.03,-0.02 -0.04,-0.01 -0.07,0.02 -0.09,0.05zm-0.31 0.01l0 0c-0.05,0.02 -0.06,0.08 -0.05,0.12 0.01,0.02 0.03,0.03 0.04,0.05 -0.01,0 -0.02,0.01 -0.03,0.01 0.04,0.01 0.09,0.01 0.13,-0.02 0.04,-0.02 0.07,-0.06 0.09,-0.11 -0.03,-0 -0.05,-0 -0.08,-0.02 -0.02,-0.01 -0.05,-0.03 -0.07,-0.04 -0.01,-0.01 -0.03,-0 -0.03,0zm-0.18 0.44l0 0c0.01,0.03 0.03,0.06 0.06,0.06 -0.01,-0.01 -0.03,-0.03 -0.03,-0.04 -0.01,-0.04 -0,-0.08 0.01,-0.12 -0.03,0.02 -0.05,0.06 -0.04,0.1z"/>
   <path class="fil3" d="M0.58 1.27c-0.05,-0.11 -0.1,-0.23 -0.12,-0.35 0.02,0.02 0.04,0.05 0.07,0.05 0.06,0.01 0.11,0 0.17,0 0.03,0 0.05,0.02 0.07,0.04 0,0.01 0,0.01 0.01,0.02 -0.07,0 -0.13,0.02 -0.19,0.05 0.09,-0 0.18,-0.01 0.26,0.03 0.01,0 0.01,0.02 0.01,0.03 -0.01,0.11 -0.08,0.21 -0.17,0.27 -0.05,-0.05 -0.09,-0.1 -0.12,-0.16z"/>
   <path class="fil4" d="M0.98 0.16c0.02,-0.03 0.05,-0.06 0.09,-0.05 -0.02,0.01 -0.04,0.02 -0.05,0.03 0.01,0.01 0.03,0.01 0.03,0.02 -0,0.02 -0.03,0.02 -0.05,0.03 0.02,0 0.05,0 0.07,0 -0.03,0.02 -0.07,0.01 -0.1,-0.01 0.02,-0.01 0.05,-0.01 0.06,-0.02 -0,-0 -0.01,-0.01 -0.01,-0.01 -0.01,0 -0.03,0.01 -0.04,0.01z"/>
   <path class="fil5" d="M1.02 0.13c0.02,-0.01 0.04,-0.02 0.05,-0.03 0.01,0.01 0.02,0.01 0.03,0.02 0.01,0.02 -0,0.05 -0.03,0.06 -0.02,0 -0.05,-0 -0.07,-0 0.02,-0.01 0.04,-0.01 0.05,-0.03 -0,-0.02 -0.02,-0.02 -0.03,-0.02z"/>
   <path class="fil6" d="M1.22 0.16c0.02,-0 0.04,-0 0.05,-0 0,0 0.01,0 0.01,0.01 -0.02,0 -0.04,-0 -0.06,-0z"/>
   <path class="fil7" d="M0.6 0.25c0,-0.03 0.01,-0.07 0.04,-0.09 -0.01,0.03 -0.02,0.06 -0.02,0.09 -0,0.02 0,0.05 0.01,0.07 -0.01,-0.01 -0.02,-0.01 -0.03,-0.02 -0,-0 -0.01,-0 -0.01,-0 -0,-0 -0.01,-0 -0.01,-0 -0.01,-0.02 -0.01,-0.05 -0,-0.07 0.01,0.01 0.02,0.01 0.03,0.02z"/>
   <path class="fil8" d="M0.63 0.29c-0.01,-0.04 -0,-0.1 0.05,-0.12 -0.02,0.02 -0.03,0.05 -0.04,0.08 0.01,-0.01 0.02,-0.02 0.02,-0.03 0,0.03 0.01,0.05 0.02,0.08 -0.01,-0 -0.01,-0 -0.02,-0 0.01,0.01 0.03,0.02 0.04,0.03 0.02,0.01 0.04,0 0.06,0 -0.04,0.03 -0.08,0.03 -0.13,0.02 0.01,-0 0.02,-0.01 0.03,-0.01 -0.02,-0.01 -0.04,-0.02 -0.04,-0.05z"/>
   <path class="fil9" d="M0.39 0.33c0.04,-0.03 0.07,-0.07 0.12,-0.09 0.01,0.02 0.03,0.05 0.06,0.05 0,0 0.01,0 0.01,0 0,0 0.01,0.01 0.01,0.02 -0.02,0 -0.04,0 -0.06,-0 -0.01,-0 -0.02,-0.01 -0.04,-0 -0.04,0.02 -0.07,0.05 -0.09,0.08 -0.04,0.06 -0.07,0.13 -0.06,0.2 0.03,-0.08 0.06,-0.16 0.13,-0.21 -0.01,0.05 -0.02,0.09 -0.02,0.14 -0,0.06 -0,0.12 0.03,0.17 0.02,0.04 0.06,0.06 0.1,0.07 -0,-0.02 -0,-0.05 -0,-0.07 0.07,0.06 0.15,0.12 0.22,0.17 0.06,0.04 0.12,0.08 0.18,0.09 0.04,0.01 0.08,0.01 0.12,0.01 -0.01,0.01 -0.02,0.01 -0.04,0.01 -0.06,0 -0.12,-0 -0.18,-0.03 -0.11,-0.05 -0.2,-0.13 -0.29,-0.2 0.01,0.03 0.02,0.05 0.04,0.08 -0.06,0 -0.12,-0.01 -0.17,-0.04 -0.04,-0.03 -0.07,-0.07 -0.07,-0.12 -0,-0.08 0.02,-0.15 0.03,-0.22 -0.07,0.1 -0.09,0.23 -0.08,0.35 0,0.09 0.03,0.18 0.06,0.26 -0.05,-0.05 -0.08,-0.12 -0.11,-0.18 -0.03,-0.08 -0.04,-0.17 -0.03,-0.26 0,-0.1 0.04,-0.21 0.12,-0.28z"/>
   <path class="fil9" d="M0.76 0.5c0.1,-0.03 0.17,-0.1 0.27,-0.13 -0.01,0.01 -0.03,0.02 -0.05,0.03 -0.05,0.04 -0.11,0.07 -0.17,0.1 -0.04,0.02 -0.08,0.03 -0.12,0.03 -0.01,0 -0.02,-0 -0.03,-0.01 0,-0.01 0.01,-0.01 0.01,-0.02 -0,-0 -0.01,-0 -0.01,-0 0.01,-0 0.03,-0.01 0.04,-0.01 0,0.01 0,0.02 0,0.03 0.02,0 0.04,0 0.06,-0.01z"/>
   <path class="fil9" d="M0.27 1c0.07,0.13 0.16,0.24 0.25,0.35 0.02,0.02 0.04,0.04 0.06,0.06 -0.05,-0.02 -0.1,-0.06 -0.14,-0.09 -0.07,-0.06 -0.11,-0.14 -0.14,-0.23 -0.01,-0.03 -0.02,-0.06 -0.02,-0.09z"/>
   <path class="fil1" d="M1.06 0.41c0.07,-0.03 0.14,-0.03 0.21,-0.01 -0,0.02 -0.01,0.05 -0.03,0.07 -0.01,-0.01 -0.02,-0.03 -0.03,-0.04 -0.01,0.01 -0.03,0.03 -0.04,0.04 -0.01,-0.01 -0.02,-0.03 -0.03,-0.04 -0.01,0.02 -0.02,0.04 -0.04,0.06 -0.02,-0.01 -0.03,-0.03 -0.04,-0.04 -0,0.02 -0.01,0.04 -0.02,0.06 -0.02,-0.01 -0.03,-0.01 -0.05,-0.02 -0.01,0.02 -0.01,0.03 -0.02,0.05 -0.01,-0.01 -0.03,-0.01 -0.04,-0.02 -0.01,0.02 -0.01,0.03 -0.02,0.05 -0.02,-0 -0.04,-0.01 -0.05,-0.02 -0,0.02 -0.01,0.04 -0.02,0.05 -0.02,-0.01 -0.03,-0.01 -0.04,-0.02 -0,0.02 -0.01,0.04 -0.02,0.05 -0.03,-0.02 -0.06,-0.03 -0.08,-0.06 0.06,-0.01 0.11,-0.02 0.16,-0.05 0.07,-0.03 0.12,-0.08 0.19,-0.11z"/>
   <path class="fil10" d="M0.5 0.6c-0.01,-0.04 0.01,-0.08 0.04,-0.1 -0.01,0.04 -0.02,0.08 -0.01,0.12 0,0.02 0.02,0.03 0.03,0.04 -0.03,-0.01 -0.05,-0.03 -0.06,-0.06z"/>
   <path class="fil11" d="M0.59 0.64c0,-0.02 0.01,-0.03 0.02,-0.04 0.05,0.11 0.15,0.2 0.25,0.26 0.01,0.01 0.02,0.01 0.03,0.01 0.03,0.02 0.05,0.03 0.08,0.04 -0.03,-0.01 -0.05,-0.02 -0.08,-0.03 -0.12,-0.05 -0.22,-0.15 -0.29,-0.26 -0.01,0 -0.01,0.01 -0.02,0.01z"/>
   <path class="fil1" d="M0.99 0.84c-0.09,-0.03 -0.16,-0.1 -0.22,-0.18 0.02,0.02 0.04,0.03 0.06,0.04 0.02,-0.01 0.03,-0.02 0.05,-0.02 -0,0.02 -0,0.03 -0,0.05 0.02,-0 0.03,-0.01 0.05,-0.01 -0,0.02 -0,0.03 -0,0.05 0.02,-0.01 0.03,-0.01 0.05,-0.02 -0,0.02 -0,0.03 -0,0.05 0.02,-0.01 0.03,-0.01 0.05,-0.02 0,0.01 0,0.03 -0,0.04 0.01,-0.01 0.03,-0.02 0.04,-0.02 0.01,0.01 0.01,0.02 0.02,0.04 0.01,-0.01 0.02,-0.02 0.03,-0.03 0.01,0.01 0.01,0.02 0.02,0.03 0.01,-0.01 0.01,-0.02 0.02,-0.03 0.01,0.01 0.01,0.02 0.02,0.03 0.01,-0.01 0.01,-0.02 0.02,-0.03 0,0.01 0,0.02 0,0.04 -0.07,0.02 -0.14,0.03 -0.21,0.01z"/>
   <path class="fil12" d="M0.42 0.84c0.03,0.02 0.06,0.05 0.09,0.05 0.06,0.01 0.14,0 0.19,0.05 -0.03,0 -0.07,0.01 -0.1,0.02 0.04,0 0.09,-0.01 0.13,0.01 0.02,0.01 0.04,0.03 0.05,0.05 -0.02,-0.02 -0.05,-0.04 -0.07,-0.04 -0.06,-0 -0.11,0.01 -0.17,-0 -0.03,-0.01 -0.05,-0.03 -0.07,-0.05 0.02,0.12 0.07,0.24 0.12,0.35 -0.03,-0.03 -0.05,-0.08 -0.07,-0.12 -0.04,-0.1 -0.09,-0.2 -0.09,-0.31z"/>
   <path class="fil13" d="M0.17 0.98c0.02,0.05 0.05,0.09 0.08,0.14 -0.04,-0.04 -0.07,-0.08 -0.09,-0.12 0.01,0 0.01,0 0.02,0 0,-0.01 0,-0.02 0,-0.02z"/>
   <path class="fil13" d="M0.85 0.99c0.02,0.01 0.04,0.02 0.07,0.03 0.05,0.02 0.11,0.01 0.16,0 -0,0 -0,0.01 -0,0.01 -0.04,0.01 -0.07,0 -0.11,0 -0.01,0 -0.01,0 -0.02,0.01 -0.03,-0.01 -0.06,-0.03 -0.09,-0.05z"/>
   <path class="fil14 str0" d="M0.71 0.21c-0.01,0.04 0.01,0.07 0.05,0.07"/>
   <path class="fil15" d="M0.77 0.28c-0.04,-0 -0.06,-0.03 -0.05,-0.07 -0.01,-0 -0.02,-0 -0.02,0 -0,0.01 -0,0.04 0,0.04 0,0.01 0.02,0.02 0.03,0.03 0.01,0 0.02,0.01 0.03,0 0,-0 0.01,-0 0.01,-0.01z"/>
   <path class="fil16" d="M0.71 0.21c-0.01,0.04 0.01,0.07 0.05,0.07 0.01,-0.01 0.02,-0.02 0.03,-0.04 -0.02,-0.01 -0.03,-0.01 -0.05,-0.02 -0.01,-0 -0.02,-0 -0.03,-0.01 -0,-0 -0.01,-0 -0.01,-0z"/>
  </g>
 </g>
</svg>
