<?xml version="1.0" encoding="UTF-8"?>
<!DOCTYPE svg PUBLIC "-//W3C//DTD SVG 1.1//EN" "http://www.w3.org/Graphics/SVG/1.1/DTD/svg11.dtd">
<!-- Creator: CorelDRAW 2018 (64-Bit) -->
<svg xmlns="http://www.w3.org/2000/svg" xml:space="preserve" width="1.66331in" height="1.92223in" version="1.1" style="shape-rendering:geometricPrecision; text-rendering:geometricPrecision; image-rendering:optimizeQuality; fill-rule:evenodd; clip-rule:evenodd"
viewBox="0 0 51.2 59.17"
 xmlns:xlink="http://www.w3.org/1999/xlink">
 <defs>
  <style type="text/css">
   <![CDATA[
    .str0 {stroke:white;stroke-width:1.03;stroke-miterlimit:2.61313}
    .str1 {stroke:#2B2A29;stroke-width:0.09;stroke-miterlimit:2.61313}
    .fil0 {fill:none}
    .fil8 {fill:#C79933}
    .fil7 {fill:#FBEB58}
    .fil2 {fill:black;fill-rule:nonzero}
    .fil6 {fill:#C5C5C5;fill-rule:nonzero}
    .fil4 {fill:#F87925;fill-rule:nonzero}
    .fil5 {fill:#FFAA77;fill-rule:nonzero}
    .fil3 {fill:#FFC6A3;fill-rule:nonzero}
    .fil1 {fill:white;fill-rule:nonzero}
   ]]>
  </style>
 </defs>
 <g id="__x0023_Layer_x0020_1">
  <metadata id="CorelCorpID_0Corel-Layer"/>
  <g id="_782198544">
   <g>
    <path class="fil0 str0" d="M49.69 12.8c0.06,0.97 0.36,1.9 0.53,2.86 0.31,1.59 0.51,3.28 -0.05,4.83 -0.56,1.6 -1.83,2.83 -3.19,3.77 1.01,3.04 1.11,6.34 0.47,9.47 -0.59,-0.76 -1.17,-1.53 -1.76,-2.3 0.07,1.14 0.1,2.29 -0.05,3.42 -0.09,0.61 -0.22,1.23 -0.56,1.75 -0.39,-0.38 -0.77,-0.77 -1.16,-1.16 0.03,1.61 -0.17,3.29 -1.06,4.67 -0.49,-0.62 -0.91,-1.28 -1.38,-1.9 -0.36,0.75 -0.84,1.44 -1.46,2 3.02,0.25 6.03,0.5 9.05,0.75 -3.29,-0.01 -6.57,-0.09 -9.86,-0.13 -0.23,0.02 -0.41,0.18 -0.61,0.27 0.01,0.49 -0.03,0.98 -0.11,1.46 2.85,0.57 5.7,1.13 8.55,1.7 1.35,0.28 2.72,0.52 4.07,0.82 -4.25,-0.62 -8.52,-1.2 -12.77,-1.81 -0.16,0.57 -0.38,1.12 -0.66,1.64 2.84,1.26 5.69,2.51 8.53,3.77 -2.98,-1.04 -5.95,-2.12 -8.92,-3.17 -0.51,0.67 -1.25,1.22 -2.11,1.32 -0.89,2.57 -1.8,5.14 -2.68,7.72 -0.36,1.25 -1.26,2.3 -2.36,2.98 -1.36,0.84 -2.99,1.17 -4.58,1.14 -1.69,0.04 -3.43,-0.34 -4.84,-1.3 -0.98,-0.67 -1.78,-1.65 -2.11,-2.8 -0.88,-2.58 -1.8,-5.15 -2.68,-7.74 -0.86,-0.11 -1.6,-0.65 -2.11,-1.33 -2.97,1.06 -5.94,2.13 -8.91,3.17 2.83,-1.27 5.68,-2.51 8.52,-3.78 -0.29,-0.51 -0.51,-1.07 -0.67,-1.64 -3.99,0.56 -7.99,1.12 -11.98,1.68 -0.17,0.02 -0.34,0.03 -0.51,0.04 4.11,-0.8 8.22,-1.63 12.33,-2.44 -0.08,-0.48 -0.12,-0.97 -0.11,-1.46 -0.23,-0.1 -0.43,-0.29 -0.7,-0.27 -2.1,0.03 -4.2,0.06 -6.3,0.09 -1.16,0 -2.32,0.06 -3.48,0.03 3.02,-0.24 6.03,-0.5 9.05,-0.74 -0.63,-0.55 -1.1,-1.26 -1.47,-2 -0.45,0.64 -0.91,1.27 -1.35,1.91 -0.93,-1.36 -1.11,-3.07 -1.08,-4.67 -0.38,0.39 -0.77,0.78 -1.16,1.16 -0.34,-0.52 -0.48,-1.14 -0.56,-1.74 -0.15,-1.14 -0.12,-2.29 -0.06,-3.43 -0.59,0.77 -1.17,1.53 -1.76,2.3 -0.65,-3.13 -0.53,-6.43 0.46,-9.48 -1.3,-0.87 -2.49,-2.02 -3.09,-3.5 -0.41,-0.98 -0.51,-2.05 -0.43,-3.1 0.09,-1.3 0.4,-2.57 0.68,-3.84 0.15,-0.81 0.18,-1.64 0.25,-2.46 0.1,-1.45 0.25,-2.91 0.42,-4.36 -0.01,-1.43 0.03,-2.89 0.51,-4.25 0.28,-0.78 0.76,-1.55 1.52,-1.94 0.78,-0.4 1.72,-0.32 2.52,-0.03 1.3,0.46 2.39,1.34 3.39,2.27 2.15,1.96 4.31,3.92 6.46,5.89 1.95,-0.59 3.99,-0.8 6.01,-0.96 1.02,-0.07 2.04,-0.12 3.06,-0.15 1.83,0.05 3.67,0.15 5.49,0.37 1.32,0.16 2.63,0.37 3.91,0.74 2.26,-2.08 4.53,-4.13 6.8,-6.2 0.93,-0.84 1.97,-1.6 3.17,-2 0.81,-0.27 1.74,-0.31 2.5,0.13 0.77,0.45 1.23,1.28 1.49,2.11 0.39,1.25 0.45,2.57 0.43,3.87 0.01,0.39 0.08,0.77 0.11,1.15 0.18,1.6 0.29,3.21 0.42,4.82z"/>
    <g>
     <path class="fil1" d="M22.71 9.68c0.55,-0.08 1.11,-0.08 1.67,-0.12 1.32,-0.09 2.64,0.05 3.96,0.12 0.43,0.18 0.9,0.25 1.36,0.37 1.94,0.48 3.9,0.92 5.77,1.62 -0.72,0.49 -1.47,0.92 -2.19,1.41 2.68,0.49 5.19,1.69 7.41,3.24 0.81,0.57 1.59,1.19 2.31,1.87 -0.8,0.02 -1.59,0.02 -2.39,0.03 1.07,1.06 1.76,2.43 2.32,3.81 0.83,2.11 1.4,4.31 1.87,6.52 -0.69,-0.49 -1.34,-1.03 -2.03,-1.51 0.47,1.67 0.89,3.38 0.87,5.12 -0.7,-0.34 -1.36,-0.73 -2.06,-1.07 0.55,1.36 0.55,2.86 0.54,4.3 -0.77,-0.91 -1.41,-1.93 -2.19,-2.83 0.28,1.12 0.55,2.39 -0.05,3.46 -0.71,-0.53 -1.35,-1.15 -2.07,-1.66 0,0.15 0.01,0.31 0.03,0.47 -0.52,-0.77 -1.19,-1.43 -1.86,-2.08 0.42,1.65 0.95,3.27 1.22,4.95 0.11,0.75 0.19,1.51 0.13,2.27 -1.41,-0.1 -2.83,-0.23 -4.24,-0.34 -0.12,-0.02 -0.22,0.04 -0.32,0.09 0.02,-1.65 -0.57,-3.23 -1.23,-4.71 -0.67,-1.45 -1.17,-3.01 -1.2,-4.62 -0.04,0.06 -0.07,0.12 -0.1,0.19 -0.31,0.98 -0.66,1.94 -0.86,2.95 -0.15,0.73 -0.26,1.48 -0.16,2.23 -0.51,-0.5 -1.19,-0.77 -1.87,-0.95 -0.69,-0.18 -1.41,-0.29 -2.12,-0.32 -1.19,0.12 -2.49,0.38 -3.36,1.27 0.12,-0.93 -0.07,-1.87 -0.29,-2.77 -0.19,-0.82 -0.48,-1.61 -0.74,-2.41 -0.04,-0.05 -0.07,-0.1 -0.11,-0.15 -0.01,1.51 -0.46,2.98 -1.08,4.35 -0.7,1.56 -1.37,3.22 -1.33,4.96 -0.1,-0.04 -0.2,-0.12 -0.31,-0.1 -1.41,0.12 -2.82,0.23 -4.23,0.35 -0.09,-0.37 -0.04,-0.75 -0.02,-1.12 0.15,-2.09 0.83,-4.09 1.35,-6.11 -0.64,0.62 -1.28,1.25 -1.79,1.99 -0.03,-0.12 -0.05,-0.25 -0.08,-0.37 -0.68,0.55 -1.34,1.12 -2.03,1.66 -0.63,-1.1 -0.33,-2.41 -0.02,-3.55 -0.76,0.98 -1.48,1.98 -2.25,2.96 0.02,-1.46 -0.02,-2.97 0.56,-4.34 -0.69,0.35 -1.37,0.74 -2.07,1.08 -0.03,-1.74 0.42,-3.43 0.85,-5.1 -0.69,0.48 -1.33,1.01 -2.01,1.49 0.36,-1.78 0.82,-3.54 1.4,-5.26 0.63,-1.82 1.41,-3.64 2.75,-5.05 -0.79,-0.02 -1.57,-0.02 -2.36,-0.04 1.56,-1.48 3.37,-2.69 5.29,-3.64 1.4,-0.68 2.89,-1.19 4.42,-1.48 -0.72,-0.48 -1.46,-0.92 -2.18,-1.38 0.16,-0.09 0.33,-0.16 0.51,-0.22 2.04,-0.67 4.13,-1.15 6.21,-1.65 0.14,-0.04 0.27,-0.09 0.41,-0.14zm-11.49 9.01l0 0c-0.06,0.65 -0.04,1.3 0.03,1.95 -0.08,0.39 -0,0.79 0.03,1.18 0.19,1.72 0.61,3.42 1.3,5 0.32,0.7 0.66,1.4 1.13,2.01 1.34,-0.86 2.96,-1.16 4.53,-1.15 0.29,-0 0.51,0.22 0.74,0.37 0.38,0.25 0.69,0.59 1.08,0.84l-0.02 -0.13c0.16,0.26 0.33,0.51 0.48,0.78 0.18,-0.72 0.13,-1.48 -0.03,-2.2 -0.3,-1.27 -1.12,-2.32 -1.92,-3.32 -0.95,-0.22 -1.91,-0.36 -2.85,-0.58 -0.71,-0.16 -1.39,-0.47 -1.98,-0.9 -0.44,-0.33 -0.9,-0.67 -1.22,-1.13 -0.59,-0.82 -0.89,-1.8 -1.29,-2.72zm26.98 3.11l0 0c-0.74,0.7 -1.61,1.3 -2.6,1.57 -1.03,0.27 -2.09,0.41 -3.13,0.65 -0.64,0.81 -1.29,1.63 -1.68,2.59 -0.38,0.92 -0.46,1.94 -0.3,2.91 0.16,-0.17 0.26,-0.39 0.39,-0.58 0.26,-0.09 0.42,-0.32 0.63,-0.48 0.36,-0.29 0.72,-0.58 1.13,-0.77 1.62,-0.06 3.3,0.27 4.69,1.14 0.95,-1.34 1.55,-2.89 1.97,-4.47 0.35,-1.4 0.57,-2.84 0.53,-4.28 0.03,-0.46 0.02,-0.93 -0.02,-1.39 -0.47,1.07 -0.79,2.24 -1.61,3.11z"/>
     <path class="fil1" d="M13.24 23.13c0.57,0.48 1.22,0.85 1.92,1.09l2.34 0.8c0.43,0.27 0.79,0.64 1.07,1.06 -1.31,-0.25 -2.75,-0.42 -4.01,0.13 -0.75,-0.86 -1.17,-1.96 -1.32,-3.08z"/>
     <path class="fil1" d="M35.88 24.22c0.7,-0.24 1.35,-0.62 1.92,-1.09 -0.15,1.12 -0.57,2.22 -1.32,3.08 -1.26,-0.55 -2.69,-0.37 -4,-0.13 0.28,-0.42 0.63,-0.79 1.07,-1.06l2.34 -0.8z"/>
     <path class="fil1" d="M29.97 42.15c1.03,-0.22 1.91,-0.92 2.5,-1.78 0.15,0.21 0.39,0.34 0.65,0.35 1.24,0.02 2.49,0.04 3.73,0.06 -0.18,0.45 -0.41,0.88 -0.63,1.31 -1.2,-0.24 -2.39,-0.47 -3.59,-0.71 -0.28,-0.09 -0.62,0.12 -0.67,0.41 0.01,0.29 0.27,0.51 0.5,0.63 1.06,0.17 2.13,0.3 3.19,0.45 -0.19,0.31 -0.46,0.55 -0.68,0.84 -0.59,-0.24 -1.16,-0.53 -1.75,-0.76 -0.24,0.02 -0.5,0.05 -0.69,0.21 -0.15,0.13 -0.06,0.34 0.05,0.47 0.28,0.43 0.86,0.44 1.28,0.64 -0.37,0.24 -0.82,0.26 -1.24,0.34 -1.77,0.24 -3.64,-0.08 -5.2,-0.96 0.49,-0.1 0.99,-0.16 1.44,-0.39 0.49,-0.23 0.86,-0.65 1.09,-1.13z"/>
     <path class="fil1" d="M17.82 40.73c0.27,0.01 0.53,-0.1 0.7,-0.3 0.26,0.24 0.47,0.53 0.73,0.76 0.52,0.45 1.12,0.85 1.81,0.97 0.16,0.29 0.33,0.59 0.6,0.81 0.55,0.47 1.28,0.63 1.97,0.7 -1.81,1.02 -4.03,1.31 -6.05,0.82 -0.15,-0.03 -0.29,-0.1 -0.41,-0.2 0.43,-0.2 1,-0.21 1.27,-0.65 0.12,-0.14 0.18,-0.38 0.01,-0.49 -0.2,-0.13 -0.46,-0.19 -0.7,-0.17 -0.57,0.23 -1.12,0.5 -1.68,0.74 -0.25,-0.26 -0.52,-0.51 -0.7,-0.83 1.06,-0.15 2.12,-0.29 3.18,-0.45 0.21,-0.11 0.42,-0.3 0.49,-0.54 0.06,-0.29 -0.24,-0.48 -0.48,-0.54 -1.26,0.23 -2.51,0.5 -3.76,0.74 -0.22,-0.42 -0.43,-0.84 -0.61,-1.27 -0.13,-0.01 -0.27,-0.02 -0.4,-0.03 0.19,-0.06 0.39,-0.01 0.59,-0.01 1.15,-0.02 2.29,-0.03 3.44,-0.05z"/>
     <path class="fil1" d="M23.04 46.53c0.74,-0.02 1.42,-0.32 2.09,-0.6 0,0.81 0.01,1.62 0.02,2.43 -0.45,0.38 -1.1,0.33 -1.61,0.1 -0.1,-0.28 -0.27,-0.54 -0.34,-0.83 -0.02,-0.37 -0.1,-0.74 -0.16,-1.11z"/>
     <path class="fil1" d="M25.91 45.93c0.66,0.28 1.34,0.58 2.07,0.59 -0.03,0.38 -0.13,0.74 -0.14,1.12 -0.09,0.29 -0.24,0.56 -0.37,0.84 -0.43,0.15 -0.93,0.26 -1.35,0.03 -0.09,-0.06 -0.25,-0.11 -0.23,-0.24 0,-0.78 0.02,-1.56 0.02,-2.34z"/>
     <path class="fil1" d="M18.14 47.7c0.36,-0.07 0.71,-0.14 1.07,-0.2 0.34,1.33 0.75,2.65 1.4,3.87 0.29,0.56 0.61,1.1 0.92,1.65 0.25,0.47 0.69,0.79 1.14,1.06 1.22,0.71 2.71,0.83 4.08,0.56 0.97,-0.21 1.97,-0.61 2.62,-1.39 0.65,-1.1 1.3,-2.2 1.74,-3.4 0.29,-0.77 0.51,-1.56 0.72,-2.35 0.36,0.06 0.72,0.13 1.07,0.2 -0.49,1.51 -1.05,2.99 -1.71,4.43 -0.45,0.95 -0.94,1.91 -1.7,2.64 -1.04,1.03 -2.51,1.58 -3.96,1.58 -1.48,0.01 -2.97,-0.56 -4.01,-1.62 -0.75,-0.74 -1.23,-1.7 -1.68,-2.65 -0.65,-1.43 -1.22,-2.89 -1.69,-4.39z"/>
     <path class="fil1" d="M23.62 50.21c0.02,-0.1 0.07,-0.2 0.1,-0.29 0.48,0.04 0.95,0.08 1.43,0.12 -0.01,1.05 -0.02,2.1 -0.02,3.15 -0.59,-0.04 -1.21,-0.1 -1.72,-0.43 -0.08,-0.06 -0.18,-0.12 -0.21,-0.22 0.1,-0.78 0.4,-1.54 0.42,-2.33z"/>
     <path class="fil1" d="M25.89 50.04c0.48,-0.04 0.95,-0.09 1.43,-0.12 0.04,0.11 0.09,0.22 0.13,0.33l-0 0.03c-0.05,0.36 0.09,0.71 0.15,1.07 0.07,0.37 0.17,0.74 0.23,1.11 0.05,0.14 -0.1,0.23 -0.19,0.31 -0.51,0.34 -1.14,0.39 -1.73,0.43 -0,-1.05 -0.01,-2.1 -0.02,-3.15z"/>
     <path class="fil2" d="M3.92 0.79c0.78,-0.4 1.72,-0.32 2.52,-0.03 1.3,0.46 2.39,1.34 3.39,2.27 2.15,1.96 4.31,3.92 6.46,5.89 1.95,-0.59 3.99,-0.8 6.01,-0.96 1.02,-0.07 2.04,-0.12 3.06,-0.15 1.83,0.05 3.67,0.15 5.49,0.37 1.32,0.16 2.63,0.37 3.91,0.74 2.26,-2.08 4.53,-4.13 6.8,-6.2 0.93,-0.84 1.97,-1.6 3.17,-2 0.81,-0.27 1.74,-0.31 2.5,0.13 0.77,0.45 1.23,1.28 1.49,2.11 0.39,1.25 0.45,2.57 0.43,3.87 0.01,0.39 0.08,0.77 0.11,1.15 0.18,1.6 0.29,3.21 0.42,4.82 0.06,0.97 0.36,1.9 0.53,2.86 0.31,1.59 0.51,3.28 -0.05,4.83 -0.56,1.6 -1.83,2.83 -3.19,3.77 1.01,3.04 1.11,6.34 0.47,9.47 -0.59,-0.76 -1.17,-1.53 -1.76,-2.3 0.07,1.14 0.1,2.29 -0.05,3.42 -0.09,0.61 -0.22,1.23 -0.56,1.75 -0.39,-0.38 -0.77,-0.77 -1.16,-1.16 0.03,1.61 -0.17,3.29 -1.06,4.67 -0.49,-0.62 -0.91,-1.28 -1.38,-1.9 -0.36,0.75 -0.84,1.44 -1.46,2 3.02,0.25 6.03,0.5 9.05,0.75 -3.29,-0.01 -6.57,-0.09 -9.86,-0.13 -0.23,0.02 -0.41,0.18 -0.61,0.27 0.01,0.49 -0.03,0.98 -0.11,1.46 2.85,0.57 5.7,1.13 8.55,1.7 1.35,0.28 2.72,0.52 4.07,0.82 -4.25,-0.62 -8.52,-1.2 -12.77,-1.81 -0.16,0.57 -0.38,1.12 -0.67,1.64 2.84,1.26 5.69,2.51 8.53,3.77 -2.98,-1.04 -5.95,-2.12 -8.92,-3.17 -0.51,0.67 -1.25,1.22 -2.11,1.32 -0.89,2.57 -1.8,5.14 -2.68,7.72 -0.36,1.25 -1.26,2.3 -2.36,2.98 -1.36,0.84 -2.99,1.17 -4.58,1.14 -1.69,0.04 -3.43,-0.34 -4.84,-1.3 -0.98,-0.67 -1.78,-1.65 -2.11,-2.8 -0.88,-2.58 -1.8,-5.15 -2.68,-7.74 -0.86,-0.11 -1.6,-0.65 -2.11,-1.33 -2.97,1.06 -5.94,2.13 -8.91,3.17 2.83,-1.27 5.68,-2.51 8.52,-3.78 -0.29,-0.51 -0.51,-1.07 -0.67,-1.64 -3.99,0.56 -7.99,1.12 -11.98,1.68 -0.17,0.02 -0.34,0.03 -0.51,0.04 4.11,-0.8 8.22,-1.63 12.33,-2.44 -0.08,-0.48 -0.12,-0.97 -0.11,-1.46 -0.23,-0.1 -0.43,-0.29 -0.7,-0.27 -2.1,0.03 -4.2,0.06 -6.3,0.09 -1.16,0 -2.32,0.06 -3.48,0.03 3.02,-0.24 6.03,-0.5 9.05,-0.74 -0.63,-0.55 -1.1,-1.26 -1.47,-2 -0.45,0.64 -0.91,1.27 -1.35,1.91 -0.93,-1.36 -1.11,-3.07 -1.08,-4.67 -0.38,0.39 -0.77,0.78 -1.16,1.16 -0.34,-0.52 -0.48,-1.14 -0.56,-1.74 -0.15,-1.14 -0.12,-2.29 -0.06,-3.43 -0.59,0.77 -1.17,1.53 -1.76,2.3 -0.65,-3.13 -0.53,-6.43 0.46,-9.48 -1.3,-0.87 -2.49,-2.02 -3.09,-3.5 -0.41,-0.98 -0.51,-2.05 -0.43,-3.1 0.09,-1.3 0.4,-2.57 0.68,-3.84 0.15,-0.81 0.18,-1.64 0.25,-2.46 0.1,-1.45 0.25,-2.91 0.42,-4.36 -0.01,-1.43 0.03,-2.89 0.51,-4.25 0.28,-0.78 0.76,-1.55 1.52,-1.94zm0.77 2.36l0 0 -0.03 -0c-0.62,0.59 -0.76,1.47 -0.89,2.28 -0.24,1.83 -0.32,3.68 -0.54,5.51 -0.11,0.85 -0.18,1.7 -0.39,2.53 -0.28,1.24 -0.5,2.5 -0.52,3.77 -0,0.86 0.09,1.74 0.42,2.54 0.41,1.06 1.29,1.86 2.27,2.41 0.27,-0.44 0.55,-0.87 0.82,-1.31 -0.72,-0.18 -1.45,-0.34 -2.18,-0.53 0.24,-0.66 0.64,-1.24 1.08,-1.78 0.79,-0.98 1.69,-1.86 2.59,-2.73 -0.36,-0.38 -0.65,-0.85 -0.72,-1.38 -0.09,-0.63 0.14,-1.34 0.7,-1.69 0.23,-0.15 0.5,-0.17 0.76,-0.14 -0.09,-2.49 -0.82,-4.94 -1.97,-7.14 -0.08,-0.22 -0.21,-0.42 -0.31,-0.62 1.33,0.8 2.38,2.02 3.03,3.43 0.77,1.64 1.1,3.44 1.4,5.22 0.76,-0.33 1.52,-0.68 2.28,-1.02 -0.68,-0.54 -1.38,-1.07 -2.06,-1.62 0.78,-0.27 1.56,-0.55 2.34,-0.83 0.5,-0.17 0.99,-0.35 1.48,-0.52 -1.93,-1.72 -3.46,-3.86 -5.52,-5.43 -0.78,-0.58 -1.65,-1.1 -2.63,-1.22 -0.48,-0.05 -1.02,-0.04 -1.42,0.26zm37.7 0.89l0 0c-2.12,1.57 -3.66,3.75 -5.62,5.5 0.49,0.17 0.98,0.35 1.47,0.52 0.78,0.28 1.57,0.55 2.35,0.84 -0.69,0.53 -1.37,1.07 -2.06,1.61 0.76,0.34 1.52,0.68 2.28,1.03 0.32,-1.86 0.66,-3.76 1.52,-5.46 0.65,-1.31 1.66,-2.44 2.91,-3.19 -0.1,0.21 -0.23,0.4 -0.31,0.62 -0.32,0.56 -0.56,1.16 -0.8,1.76 -0.67,1.71 -1.11,3.53 -1.16,5.38 0.63,-0.12 1.2,0.37 1.38,0.94 0.29,0.8 -0.05,1.69 -0.64,2.27 0.62,0.6 1.25,1.21 1.83,1.85 0.71,0.8 1.46,1.63 1.83,2.66 -0.73,0.17 -1.45,0.34 -2.17,0.52 0.28,0.43 0.55,0.87 0.82,1.31 0.78,-0.44 1.51,-1.03 1.98,-1.81 0.56,-0.94 0.72,-2.06 0.71,-3.13 -0.02,-1.47 -0.31,-2.91 -0.64,-4.34 -0.3,-1.9 -0.45,-3.81 -0.61,-5.72 -0.08,-0.87 -0.15,-1.75 -0.35,-2.6 -0.13,-0.52 -0.32,-1.07 -0.75,-1.43 -0.39,-0.27 -0.87,-0.3 -1.33,-0.27 -0.98,0.09 -1.86,0.59 -2.64,1.16zm-19.68 5.64l0 0c-0.92,0.03 -1.84,0.16 -2.76,0.27 -2.26,0.3 -4.51,0.75 -6.71,1.35 0.74,0.55 1.49,1.09 2.23,1.65 -3.88,0.93 -7.4,3.21 -9.9,6.31 0.96,-0.02 1.91,-0.05 2.86,-0.07 -1.19,2.16 -2.29,4.39 -3.05,6.75 -0.5,1.57 -0.85,3.22 -0.82,4.87 0.74,-0.56 1.47,-1.13 2.2,-1.7 -0.35,1.36 -0.51,2.77 -0.5,4.18 0.02,0.51 0.03,1.04 0.17,1.53 0.49,-0.53 0.97,-1.06 1.47,-1.57 0.08,1.3 -0.03,2.6 0.14,3.89 0.05,0.36 0.12,0.72 0.29,1.04 0.44,-0.85 0.89,-1.69 1.34,-2.53 0.51,1.48 1.26,3.01 2.65,3.85 -0.16,-1.62 -0.04,-3.39 0.94,-4.75l-0 -0.02c0.51,-0.74 1.16,-1.36 1.79,-1.99 -0.52,2.02 -1.2,4.02 -1.35,6.11 -0.01,0.37 -0.06,0.76 0.02,1.12 1.41,-0.12 2.82,-0.24 4.23,-0.35 0.11,-0.02 0.21,0.06 0.31,0.1 0.2,0.17 0.34,0.45 0.22,0.71 -0.17,0.21 -0.44,0.31 -0.7,0.3 -1.15,0.02 -2.29,0.03 -3.44,0.05 -0.2,0.01 -0.4,-0.04 -0.59,0.01 0.06,0.49 0.19,0.97 0.35,1.43 0.22,-0.04 0.44,-0.09 0.66,-0.13 1.25,-0.24 2.51,-0.51 3.76,-0.74 0.24,0.05 0.54,0.25 0.48,0.54 -0.07,0.24 -0.28,0.42 -0.49,0.54 -1.06,0.16 -2.12,0.3 -3.18,0.45 -0.3,0.04 -0.59,0.08 -0.89,0.13 0.19,0.38 0.42,0.75 0.67,1.1 0.31,-0.12 0.61,-0.26 0.92,-0.4 0.56,-0.24 1.12,-0.5 1.68,-0.74 0.24,-0.02 0.49,0.04 0.7,0.17 0.18,0.12 0.11,0.36 -0.01,0.49 -0.28,0.43 -0.85,0.44 -1.27,0.65 -0.48,0.18 -0.98,0.34 -1.46,0.53 0.74,0.49 1.65,0.6 2.51,0.7 1.86,0.13 3.77,-0.06 5.51,-0.76 0.74,-0.32 1.57,-0.79 1.77,-1.63 0.24,0.84 1.06,1.32 1.81,1.64 1.55,0.62 3.25,0.82 4.92,0.78 0.92,-0.04 1.85,-0.15 2.7,-0.51 0.13,-0.06 0.28,-0.11 0.35,-0.25 -0.47,-0.16 -0.94,-0.33 -1.4,-0.5 -0.43,-0.21 -1,-0.21 -1.28,-0.64 -0.1,-0.13 -0.2,-0.34 -0.05,-0.47 0.19,-0.16 0.45,-0.19 0.69,-0.21 0.59,0.23 1.16,0.52 1.75,0.76 0.3,0.13 0.59,0.28 0.9,0.39 0.24,-0.36 0.47,-0.71 0.66,-1.1 -0.29,-0.04 -0.59,-0.08 -0.88,-0.13 -1.06,-0.15 -2.13,-0.29 -3.19,-0.45 -0.24,-0.13 -0.49,-0.34 -0.5,-0.63 0.04,-0.29 0.39,-0.5 0.67,-0.41 1.2,0.24 2.39,0.48 3.59,0.71 0.22,0.04 0.44,0.09 0.66,0.13 0.16,-0.47 0.28,-0.95 0.35,-1.44 -0.13,-0 -0.26,-0 -0.38,-0 -1.24,-0.02 -2.49,-0.03 -3.73,-0.06 -0.26,-0.01 -0.5,-0.14 -0.65,-0.35 -0.05,-0.26 0.07,-0.51 0.27,-0.67 0.1,-0.04 0.2,-0.11 0.32,-0.09 1.41,0.11 2.82,0.24 4.24,0.34 0.06,-0.76 -0.02,-1.52 -0.13,-2.27 -0.27,-1.68 -0.79,-3.31 -1.22,-4.95 0.67,0.64 1.33,1.3 1.86,2.08 0.9,1.37 1.04,3.08 0.87,4.67 1.18,-0.71 1.91,-1.94 2.4,-3.18 0.1,-0.21 0.13,-0.46 0.28,-0.64 0.42,0.85 0.88,1.67 1.32,2.51 0.18,-0.38 0.25,-0.8 0.3,-1.22 0.14,-1.23 0.05,-2.46 0.12,-3.69 0.54,0.47 0.98,1.05 1.49,1.55 0.08,-0.38 0.13,-0.78 0.15,-1.17 0.05,-1.52 -0.11,-3.06 -0.48,-4.54 0.74,0.56 1.46,1.13 2.2,1.69 0.03,-1.39 -0.22,-2.78 -0.59,-4.11 -0.74,-2.64 -1.95,-5.12 -3.27,-7.51 0.96,0.02 1.91,0.05 2.87,0.07 -0.73,-0.9 -1.55,-1.74 -2.43,-2.49 -2.14,-1.84 -4.72,-3.14 -7.46,-3.83 0.75,-0.54 1.48,-1.09 2.22,-1.63 -3.09,-0.82 -6.26,-1.42 -9.46,-1.62 -1.32,-0.07 -2.64,-0.22 -3.96,-0.12 -0.56,0.03 -1.11,0.04 -1.67,0.12zm-0.28 36.33l0 0c0.27,0.54 0.47,1.11 0.76,1.63 0.08,0.29 0.24,0.55 0.34,0.83 0.51,0.23 1.16,0.28 1.61,-0.1 -0.01,-0.81 -0.02,-1.62 -0.02,-2.43 0,-0.22 -0,-0.43 -0.01,-0.64 -0.86,0.35 -1.75,0.68 -2.68,0.72zm3.49 -0.72l0 0c-0,0.22 -0,0.43 -0.01,0.65 -0,0.78 -0.02,1.56 -0.02,2.34 -0.02,0.14 0.14,0.18 0.23,0.24 0.42,0.24 0.92,0.12 1.35,-0.03 0.13,-0.28 0.28,-0.55 0.37,-0.84 0.29,-0.53 0.5,-1.09 0.76,-1.64 -0.94,-0.04 -1.82,-0.38 -2.68,-0.72zm-5.7 1.53l0 0c0.22,1.71 0.8,3.39 1.68,4.87 -0.09,-0.73 -0.26,-1.44 -0.38,-2.17 -0.14,-0.89 -0.19,-1.8 -0.18,-2.7 -0.38,0 -0.75,-0 -1.13,0zm9.48 0l0 0c0.01,0.9 -0.03,1.81 -0.18,2.71 -0.11,0.71 -0.29,1.42 -0.37,2.14 0.23,-0.31 0.38,-0.67 0.55,-1.01 0.55,-1.22 0.97,-2.5 1.12,-3.83 -0.38,-0 -0.75,-0 -1.13,0zm-12.29 0.15l0 0c0.49,2.09 1.3,4.09 2.12,6.07 0.23,0.51 0.39,1.05 0.73,1.5 0.88,1.21 2.24,2.05 3.7,2.37 1.12,0.23 2.3,0.22 3.41,-0.07 1.35,-0.36 2.59,-1.17 3.42,-2.3 0.33,-0.45 0.5,-0.99 0.72,-1.49 0.82,-1.98 1.63,-3.97 2.12,-6.07 -0.55,0 -1.1,-0.01 -1.65,0.01 -0.1,0.15 -0.1,0.36 -0.16,0.54 -0.21,0.79 -0.43,1.58 -0.72,2.35 -0.44,1.2 -1.1,2.3 -1.74,3.4 -0.65,0.78 -1.65,1.18 -2.62,1.39 -1.37,0.27 -2.86,0.15 -4.08,-0.56 -0.44,-0.27 -0.89,-0.59 -1.14,-1.06 -0.31,-0.55 -0.63,-1.09 -0.92,-1.65 -0.65,-1.22 -1.06,-2.54 -1.4,-3.87 -0.04,-0.18 -0.09,-0.36 -0.14,-0.54 -0.56,0 -1.11,0 -1.67,0zm6.21 3.25l0 0c-0.43,0.88 -0.78,1.81 -1.18,2.71 0.44,0.23 0.85,0.51 1.33,0.64 0.44,0.13 0.91,0.11 1.36,0.05 -0,-0.14 -0,-0.28 -0,-0.42 0,-1.05 0.01,-2.1 0.02,-3.15 -0.48,-0.04 -0.95,-0.08 -1.43,-0.12 -0.04,0.1 -0.08,0.19 -0.1,0.29zm2.27 -0.17l0 0c0.01,1.05 0.02,2.1 0.02,3.15 0,0.14 0,0.28 0,0.42 0.48,0.07 0.97,0.07 1.43,-0.07 0.45,-0.13 0.84,-0.41 1.26,-0.61 -0.38,-0.88 -0.73,-1.79 -1.16,-2.65l0 -0.03c-0.04,-0.11 -0.09,-0.22 -0.13,-0.33 -0.48,0.03 -0.95,0.08 -1.43,0.12z"/>
     <path class="fil2" d="M11.22 18.69c0.4,0.92 0.7,1.9 1.29,2.72 0.32,0.46 0.78,0.8 1.22,1.13 0.59,0.43 1.27,0.74 1.98,0.9 0.95,0.22 1.91,0.36 2.85,0.58 0.8,1 1.62,2.05 1.92,3.32 0.16,0.72 0.21,1.48 0.03,2.2 -0.14,-0.27 -0.32,-0.52 -0.48,-0.78 -0.4,-0.67 -0.87,-1.3 -1.47,-1.8 -1.49,0.09 -3.09,0.15 -4.37,1 -0.76,-0.9 -1.29,-1.97 -1.76,-3.05 -0.58,-1.37 -1,-2.8 -1.18,-4.28 -0.06,-0.65 -0.09,-1.3 -0.03,-1.95zm2.02 4.44l0 0c0.15,1.12 0.57,2.22 1.32,3.08 1.26,-0.55 2.69,-0.38 4.01,-0.13 -0.28,-0.42 -0.64,-0.79 -1.07,-1.06l-2.34 -0.8c-0.7,-0.24 -1.35,-0.62 -1.92,-1.09z"/>
     <path class="fil2" d="M38.21 21.8c0.82,-0.87 1.14,-2.04 1.61,-3.11 0.04,0.46 0.05,0.93 0.02,1.39 -0.11,1.73 -0.61,3.41 -1.3,5 -0.46,1.02 -0.97,2.03 -1.69,2.88 -1.28,-0.86 -2.88,-0.92 -4.37,-1.01 -0.67,0.54 -1.16,1.26 -1.59,1.98 -0.13,0.19 -0.23,0.41 -0.39,0.58 -0.16,-0.98 -0.09,-2 0.3,-2.91 0.39,-0.96 1.04,-1.79 1.68,-2.59 1.04,-0.24 2.1,-0.37 3.13,-0.65 1,-0.26 1.86,-0.87 2.6,-1.57zm-2.33 2.43l0 0 -2.34 0.8c-0.43,0.27 -0.79,0.64 -1.07,1.06 1.31,-0.24 2.74,-0.42 4,0.13 0.75,-0.86 1.17,-1.96 1.32,-3.08 -0.57,0.48 -1.22,0.85 -1.92,1.09z"/>
     <path class="fil2" d="M20.73 31.23c0.01,-0.23 -0.02,-0.46 0.09,-0.67 0.26,0.8 0.55,1.59 0.74,2.41 0.21,0.9 0.4,1.84 0.29,2.77 0.87,-0.89 2.16,-1.15 3.36,-1.27 0.71,0.03 1.43,0.14 2.12,0.32 0.68,0.18 1.36,0.45 1.87,0.95 -0.1,-0.75 0.02,-1.5 0.16,-2.23 0.2,-1.01 0.55,-1.97 0.86,-2.95 0.02,0.04 0.05,0.13 0.07,0.17 0.04,0.61 0.03,1.22 0.1,1.82 0.14,1.68 0.84,3.24 1.4,4.81 0.28,0.86 0.51,1.87 0.04,2.71 -0.48,0.83 -1.45,1.16 -2.33,1.36 -0.06,0.34 -0.29,0.62 -0.58,0.8 -0.74,0.45 -1.61,0.62 -2.45,0.73 -1.31,0.11 -2.67,0.02 -3.9,-0.5 -0.45,-0.19 -0.94,-0.5 -1.02,-1.03 -0.62,-0.14 -1.24,-0.33 -1.75,-0.72 -0.5,-0.36 -0.81,-0.94 -0.84,-1.55 -0.05,-0.87 0.25,-1.7 0.55,-2.5 0.33,-0.82 0.61,-1.65 0.85,-2.49 0.27,-0.96 0.35,-1.96 0.38,-2.95zm2.76 4.44l0 0c-0.75,0.19 -1.46,0.6 -1.91,1.25 -0.16,-0.41 -0.29,-0.84 -0.44,-1.25 -0.17,0.32 -0.34,0.63 -0.47,0.97 -0.32,0.76 -0.52,1.65 -0.21,2.45 0.27,0.68 0.91,1.11 1.56,1.37 -0.02,-0.36 -0.12,-0.77 0.08,-1.11 0.21,-0.27 0.56,-0.05 0.79,0.07 -0.08,0.66 -0.08,1.45 0.47,1.91 0.6,0.48 1.42,0.53 2.16,0.58 0.74,-0.06 1.56,-0.1 2.16,-0.58 0.54,-0.47 0.55,-1.26 0.47,-1.91 0.23,-0.11 0.53,-0.31 0.76,-0.11 0.25,0.33 0.13,0.77 0.11,1.15 0.64,-0.26 1.27,-0.68 1.54,-1.34 0.33,-0.78 0.15,-1.68 -0.17,-2.43 -0.13,-0.36 -0.3,-0.7 -0.5,-1.02 -0.15,0.42 -0.27,0.85 -0.45,1.25 -0.64,-0.92 -1.79,-1.26 -2.85,-1.42 -1.03,-0.18 -2.09,-0.08 -3.1,0.17z"/>
     <path class="fil3" d="M4.69 3.15c0.4,-0.31 0.94,-0.31 1.42,-0.26 0.98,0.12 1.86,0.64 2.63,1.22 2.07,1.57 3.59,3.71 5.52,5.43 -0.49,0.18 -0.99,0.35 -1.48,0.52 -0.28,-0.49 -0.66,-0.91 -1,-1.36 -0.86,-1.07 -1.76,-2.12 -2.73,-3.09 -0.5,-0.49 -0.98,-1 -1.56,-1.39 -0.69,-0.48 -1.5,-0.78 -2.31,-0.97 -0.16,-0.03 -0.33,-0.07 -0.49,-0.1z"/>
     <path class="fil3" d="M42.39 4.03c0.78,-0.57 1.66,-1.07 2.64,-1.16 0.46,-0.04 0.94,-0 1.33,0.27 -0.17,0.04 -0.35,0.08 -0.52,0.12 -0.77,0.18 -1.52,0.46 -2.19,0.88 -0.41,0.26 -0.77,0.6 -1.11,0.93 -1.57,1.53 -3.03,3.19 -4.29,4.98 -0.49,-0.17 -0.98,-0.34 -1.47,-0.52 1.96,-1.74 3.5,-3.92 5.62,-5.5z"/>
     <path class="fil4" d="M4.67 3.14l0.03 0c0.16,0.03 0.33,0.06 0.49,0.1 -0.92,2.04 -1.05,4.32 -1.06,6.53 -0,1.47 -0.31,2.91 -0.64,4.33 -0.2,0.83 -0.22,1.7 -0.23,2.55 0.01,0.89 0.07,1.78 0.28,2.64 0.32,-0.89 0.7,-1.78 1.34,-2.5 0.35,-0.41 0.77,-0.75 1.22,-1.06 -0.23,-0.88 -0.45,-1.83 -0.16,-2.72 0.18,-0.57 0.66,-0.98 1.19,-1.22 -0.04,-2.14 -0.56,-4.24 -1.01,-6.32 1.15,2.2 1.88,4.65 1.97,7.14 -0.26,-0.03 -0.54,-0.01 -0.76,0.14 -0.56,0.34 -0.79,1.06 -0.7,1.69 0.07,0.53 0.36,1 0.72,1.38 -0.9,0.87 -1.8,1.75 -2.59,2.73 -0.43,0.54 -0.84,1.12 -1.08,1.78 0.72,0.18 1.45,0.35 2.18,0.53 -0.28,0.44 -0.55,0.87 -0.82,1.31 -0.98,-0.54 -1.86,-1.35 -2.27,-2.41 -0.33,-0.8 -0.42,-1.68 -0.42,-2.54 0.02,-1.27 0.24,-2.53 0.52,-3.77 0.21,-0.83 0.28,-1.68 0.39,-2.53 0.22,-1.83 0.29,-3.68 0.54,-5.51 0.13,-0.8 0.27,-1.69 0.89,-2.28z"/>
     <path class="fil4" d="M46.36 3.14c0.42,0.36 0.62,0.9 0.75,1.43 0.2,0.85 0.27,1.73 0.35,2.6 0.16,1.91 0.31,3.83 0.61,5.72 0.33,1.42 0.63,2.87 0.64,4.34 0.01,1.08 -0.15,2.2 -0.71,3.13 -0.46,0.78 -1.19,1.37 -1.98,1.81 -0.27,-0.44 -0.54,-0.87 -0.82,-1.31 0.72,-0.19 1.45,-0.35 2.17,-0.52 -0.37,-1.03 -1.11,-1.86 -1.83,-2.66 -0.59,-0.64 -1.21,-1.25 -1.83,-1.85 0.58,-0.58 0.92,-1.47 0.64,-2.27 -0.18,-0.58 -0.75,-1.07 -1.38,-0.94 0.05,-1.84 0.49,-3.66 1.16,-5.38 0.24,-0.6 0.48,-1.2 0.8,-1.76 -0.45,2.09 -0.98,4.18 -1.01,6.32 0.52,0.23 0.99,0.62 1.17,1.17 0.32,0.9 0.09,1.87 -0.13,2.76 0.65,0.46 1.25,1 1.67,1.68 0.39,0.58 0.62,1.23 0.88,1.88 0.23,-0.94 0.29,-1.92 0.28,-2.88 -0.01,-0.74 -0.04,-1.49 -0.21,-2.22 -0.24,-1.08 -0.51,-2.16 -0.6,-3.27 -0.09,-0.87 -0.04,-1.74 -0.09,-2.62 -0.1,-1.72 -0.29,-3.48 -1.05,-5.05 0.17,-0.04 0.35,-0.08 0.52,-0.12z"/>
     <path class="fil4" d="M20.46 39.09c-0.32,-0.8 -0.11,-1.69 0.21,-2.45 -0.02,0.54 -0.01,1.1 0.21,1.61 0.14,0.33 0.5,0.55 0.86,0.49 0.27,-0.11 0.43,-0.45 0.76,-0.4 0.38,0.08 0.75,0.28 0.99,0.59 0.16,0.35 0.15,0.77 0.36,1.1 0.23,0.45 0.72,0.68 1.18,0.8 0.57,0.17 1.19,-0 1.7,-0.29 0.44,-0.27 0.64,-0.78 0.72,-1.27 0.05,-0.52 0.6,-0.78 1.04,-0.91 0.36,-0.12 0.55,0.29 0.84,0.39 0.33,0.04 0.67,-0.15 0.81,-0.45 0.25,-0.49 0.24,-1.06 0.26,-1.6 0.32,0.76 0.5,1.65 0.17,2.43 -0.28,0.66 -0.91,1.07 -1.54,1.34 0.02,-0.38 0.14,-0.82 -0.11,-1.15 -0.23,-0.21 -0.53,-0 -0.76,0.11 0.08,0.65 0.08,1.44 -0.47,1.91 -0.6,0.49 -1.42,0.53 -2.16,0.58 -0.74,-0.05 -1.56,-0.09 -2.16,-0.58 -0.55,-0.47 -0.55,-1.26 -0.47,-1.91 -0.23,-0.12 -0.58,-0.34 -0.79,-0.07 -0.2,0.33 -0.1,0.74 -0.08,1.11 -0.65,-0.26 -1.29,-0.7 -1.56,-1.37z"/>
     <path class="fil5" d="M5.18 3.25c0.82,0.19 1.62,0.49 2.31,0.97 0.58,0.39 1.06,0.91 1.56,1.39 0.98,0.97 1.87,2.01 2.73,3.09 0.34,0.45 0.72,0.87 1,1.36 -0.78,0.28 -1.56,0.55 -2.34,0.83 0.68,0.55 1.37,1.08 2.06,1.62 -0.76,0.34 -1.52,0.69 -2.28,1.02 -0.29,-1.78 -0.62,-3.58 -1.4,-5.22 -0.65,-1.4 -1.7,-2.63 -3.03,-3.43 0.1,0.21 0.24,0.4 0.31,0.62 0.45,2.08 0.98,4.18 1.01,6.32 -0.53,0.24 -1.01,0.65 -1.19,1.22 -0.29,0.89 -0.08,1.84 0.16,2.72 -0.44,0.31 -0.87,0.64 -1.22,1.06 -0.64,0.71 -1.01,1.61 -1.34,2.5 -0.22,-0.86 -0.27,-1.75 -0.28,-2.64 0.01,-0.85 0.02,-1.72 0.23,-2.55 0.33,-1.42 0.64,-2.86 0.64,-4.33 0.01,-2.21 0.15,-4.49 1.06,-6.53z"/>
     <path class="fil5" d="M43.64 4.14c0.67,-0.43 1.42,-0.7 2.19,-0.88 0.77,1.56 0.96,3.33 1.05,5.05 0.05,0.87 -0,1.75 0.09,2.62 0.1,1.11 0.36,2.19 0.6,3.27 0.17,0.73 0.19,1.47 0.21,2.22 0.01,0.97 -0.05,1.94 -0.28,2.88 -0.25,-0.64 -0.49,-1.3 -0.88,-1.88 -0.42,-0.68 -1.02,-1.22 -1.67,-1.68 0.23,-0.89 0.46,-1.86 0.13,-2.76 -0.19,-0.55 -0.66,-0.94 -1.17,-1.17 0.03,-2.15 0.56,-4.24 1.01,-6.32 0.08,-0.22 0.21,-0.41 0.31,-0.62 -1.26,0.75 -2.26,1.88 -2.91,3.19 -0.86,1.7 -1.2,3.6 -1.52,5.46 -0.76,-0.35 -1.52,-0.68 -2.28,-1.03 0.69,-0.54 1.37,-1.08 2.06,-1.61 -0.78,-0.29 -1.57,-0.56 -2.35,-0.84 1.27,-1.79 2.72,-3.45 4.29,-4.98 0.35,-0.34 0.7,-0.67 1.11,-0.93z"/>
     <path class="fil5" d="M23.49 35.68c1.01,-0.25 2.07,-0.35 3.1,-0.17 1.05,0.16 2.21,0.49 2.85,1.42 0.18,-0.4 0.3,-0.83 0.45,-1.25 0.2,0.32 0.37,0.67 0.5,1.02 -0.02,0.54 -0.01,1.11 -0.26,1.6 -0.14,0.3 -0.48,0.49 -0.81,0.45 -0.3,-0.1 -0.48,-0.51 -0.84,-0.39 -0.44,0.14 -0.98,0.39 -1.04,0.91 -0.08,0.49 -0.27,1 -0.72,1.27 -0.5,0.29 -1.12,0.47 -1.7,0.29 -0.47,-0.12 -0.95,-0.35 -1.18,-0.8 -0.21,-0.33 -0.19,-0.75 -0.36,-1.1 -0.24,-0.31 -0.61,-0.51 -0.99,-0.59 -0.32,-0.05 -0.49,0.29 -0.76,0.4 -0.36,0.06 -0.72,-0.17 -0.86,-0.49 -0.22,-0.5 -0.23,-1.07 -0.21,-1.61 0.13,-0.34 0.3,-0.65 0.47,-0.97 0.15,0.42 0.29,0.84 0.44,1.25 0.45,-0.65 1.15,-1.06 1.91,-1.25z"/>
     <path class="fil5" d="M20.22 46.8c0.38,-0 0.75,-0 1.13,-0 -0.02,0.9 0.03,1.81 0.18,2.7 0.11,0.73 0.29,1.44 0.38,2.17 -0.88,-1.48 -1.46,-3.16 -1.68,-4.87z"/>
     <path class="fil5" d="M29.69 46.8c0.38,-0 0.75,-0 1.13,0 -0.15,1.33 -0.57,2.62 -1.12,3.83 -0.17,0.34 -0.32,0.7 -0.55,1.01 0.08,-0.72 0.26,-1.42 0.37,-2.14 0.14,-0.89 0.19,-1.8 0.18,-2.71z"/>
     <path class="fil6" d="M19.95 9.95c0.92,-0.11 1.84,-0.24 2.76,-0.27 -0.14,0.05 -0.27,0.1 -0.41,0.14 -2.08,0.5 -4.18,0.98 -6.21,1.65 -0.18,0.06 -0.34,0.13 -0.51,0.22 0.72,0.47 1.47,0.91 2.18,1.38 -1.53,0.29 -3.02,0.79 -4.42,1.48 -1.93,0.95 -3.73,2.16 -5.29,3.64 0.79,0.02 1.57,0.01 2.36,0.04 -1.34,1.41 -2.12,3.24 -2.75,5.05 -0.58,1.72 -1.04,3.48 -1.4,5.26 0.68,-0.48 1.32,-1.02 2.01,-1.49 -0.43,1.67 -0.88,3.37 -0.85,5.1 0.7,-0.34 1.37,-0.73 2.07,-1.08 -0.58,1.37 -0.54,2.89 -0.56,4.34 0.76,-0.97 1.49,-1.98 2.25,-2.96 -0.31,1.15 -0.61,2.46 0.02,3.55 0.69,-0.54 1.35,-1.11 2.03,-1.66 0.03,0.12 0.05,0.25 0.08,0.37l0 0.02c-0.98,1.37 -1.11,3.13 -0.94,4.75 -1.39,-0.84 -2.14,-2.37 -2.65,-3.85 -0.45,0.84 -0.9,1.68 -1.34,2.53 -0.17,-0.32 -0.24,-0.68 -0.29,-1.04 -0.17,-1.29 -0.06,-2.6 -0.14,-3.89 -0.5,0.51 -0.98,1.05 -1.47,1.57 -0.15,-0.5 -0.16,-1.02 -0.17,-1.53 -0.01,-1.41 0.15,-2.82 0.5,-4.18 -0.73,0.57 -1.47,1.13 -2.2,1.7 -0.03,-1.66 0.32,-3.3 0.82,-4.87 0.75,-2.36 1.85,-4.59 3.05,-6.75 -0.96,0.02 -1.91,0.05 -2.86,0.07 2.5,-3.1 6.02,-5.38 9.9,-6.31 -0.74,-0.55 -1.49,-1.09 -2.23,-1.65 2.2,-0.6 4.44,-1.05 6.71,-1.35z"/>
     <path class="fil6" d="M28.34 9.68c3.2,0.2 6.37,0.79 9.46,1.62 -0.74,0.54 -1.48,1.09 -2.22,1.63 2.73,0.69 5.31,2 7.46,3.83 0.89,0.75 1.7,1.59 2.43,2.49 -0.96,-0.02 -1.91,-0.05 -2.87,-0.07 1.32,2.39 2.53,4.87 3.27,7.51 0.37,1.34 0.62,2.72 0.59,4.11 -0.73,-0.56 -1.46,-1.13 -2.2,-1.69 0.38,1.48 0.54,3.01 0.48,4.54 -0.02,0.39 -0.06,0.79 -0.15,1.17 -0.51,-0.51 -0.95,-1.08 -1.49,-1.55 -0.07,1.23 0.02,2.47 -0.12,3.69 -0.05,0.42 -0.12,0.84 -0.3,1.22 -0.44,-0.84 -0.9,-1.66 -1.32,-2.51 -0.15,0.18 -0.19,0.43 -0.28,0.64 -0.49,1.24 -1.23,2.47 -2.4,3.18 0.16,-1.59 0.03,-3.3 -0.87,-4.67 -0.02,-0.16 -0.02,-0.31 -0.03,-0.47 0.72,0.51 1.36,1.13 2.07,1.66 0.6,-1.07 0.33,-2.34 0.05,-3.46 0.78,0.9 1.42,1.92 2.19,2.83 0.01,-1.44 0.01,-2.94 -0.54,-4.3 0.69,0.34 1.36,0.74 2.06,1.07 0.02,-1.74 -0.4,-3.45 -0.87,-5.12 0.69,0.48 1.34,1.03 2.03,1.51 -0.47,-2.21 -1.04,-4.41 -1.87,-6.52 -0.56,-1.38 -1.25,-2.75 -2.32,-3.81 0.8,-0.01 1.59,-0.01 2.39,-0.03 -0.72,-0.69 -1.5,-1.3 -2.31,-1.87 -2.22,-1.56 -4.73,-2.75 -7.41,-3.24 0.72,-0.49 1.48,-0.91 2.19,-1.41 -1.87,-0.7 -3.83,-1.14 -5.77,-1.62 -0.45,-0.12 -0.92,-0.19 -1.36,-0.37z"/>
     <path class="fil6" d="M38.54 25.08c0.69,-1.58 1.18,-3.27 1.3,-5 0.04,1.44 -0.18,2.88 -0.53,4.28 -0.42,1.58 -1.02,3.13 -1.97,4.47 -1.39,-0.87 -3.07,-1.2 -4.69,-1.14 -0.42,0.19 -0.78,0.49 -1.13,0.77 -0.21,0.16 -0.38,0.39 -0.63,0.48 0.43,-0.73 0.93,-1.45 1.59,-1.98 1.49,0.09 3.08,0.15 4.37,1.01 0.72,-0.86 1.24,-1.87 1.69,-2.88z"/>
     <path class="fil6" d="M11.25 20.64c0.18,1.48 0.6,2.91 1.18,4.28 0.47,1.08 1,2.15 1.76,3.05 1.28,-0.86 2.88,-0.92 4.37,-1 0.6,0.49 1.07,1.13 1.47,1.8l0.02 0.13c-0.38,-0.25 -0.69,-0.59 -1.08,-0.84 -0.23,-0.14 -0.45,-0.37 -0.74,-0.37 -1.57,-0.01 -3.19,0.3 -4.53,1.15 -0.47,-0.61 -0.81,-1.31 -1.13,-2.01 -0.7,-1.58 -1.12,-3.28 -1.3,-5 -0.03,-0.39 -0.11,-0.79 -0.03,-1.18z"/>
     <path class="fil6" d="M30.31 30.37c0.02,1.61 0.53,3.17 1.2,4.62 0.67,1.48 1.25,3.06 1.23,4.71 -0.2,0.17 -0.32,0.41 -0.27,0.67 -0.59,0.85 -1.47,1.56 -2.5,1.78 -0.23,0.48 -0.6,0.9 -1.09,1.13 -0.45,0.24 -0.95,0.3 -1.44,0.39 1.56,0.88 3.43,1.19 5.2,0.96 0.42,-0.08 0.87,-0.1 1.24,-0.34 0.47,0.16 0.93,0.34 1.4,0.5 -0.07,0.14 -0.22,0.19 -0.35,0.25 -0.85,0.36 -1.78,0.47 -2.7,0.51 -1.67,0.04 -3.37,-0.16 -4.92,-0.78 -0.75,-0.32 -1.57,-0.8 -1.81,-1.64 -0.2,0.84 -1.04,1.31 -1.77,1.63 -1.74,0.7 -3.65,0.89 -5.51,0.76 -0.86,-0.09 -1.77,-0.21 -2.51,-0.7 0.48,-0.2 0.97,-0.35 1.46,-0.53 0.12,0.1 0.26,0.17 0.41,0.2 2.02,0.48 4.23,0.2 6.05,-0.82 -0.7,-0.06 -1.43,-0.23 -1.97,-0.7 -0.26,-0.21 -0.44,-0.51 -0.6,-0.81 -0.69,-0.13 -1.29,-0.52 -1.81,-0.97 -0.27,-0.23 -0.47,-0.52 -0.73,-0.76 0.12,-0.26 -0.02,-0.54 -0.22,-0.71 -0.05,-1.74 0.63,-3.39 1.33,-4.96 0.62,-1.37 1.07,-2.84 1.08,-4.35 0.04,0.05 0.07,0.1 0.11,0.15 -0.1,0.21 -0.08,0.45 -0.09,0.67 -0.03,0.99 -0.1,1.99 -0.38,2.95 -0.24,0.84 -0.53,1.68 -0.85,2.49 -0.3,0.8 -0.6,1.63 -0.55,2.5 0.03,0.61 0.35,1.19 0.84,1.55 0.51,0.38 1.13,0.57 1.75,0.72 0.08,0.53 0.57,0.83 1.02,1.03 1.23,0.52 2.59,0.6 3.9,0.5 0.85,-0.11 1.72,-0.28 2.45,-0.73 0.3,-0.17 0.52,-0.45 0.58,-0.8 0.88,-0.2 1.85,-0.54 2.33,-1.36 0.47,-0.84 0.24,-1.85 -0.04,-2.71 -0.56,-1.57 -1.26,-3.13 -1.4,-4.81 -0.07,-0.61 -0.06,-1.22 -0.1,-1.82 -0.02,-0.04 -0.05,-0.13 -0.07,-0.17 0.03,-0.06 0.07,-0.13 0.1,-0.19z"/>
     <path class="fil6" d="M13.8 40.79c0.13,0.01 0.27,0.02 0.4,0.03 0.18,0.44 0.39,0.86 0.61,1.27 -0.22,0.04 -0.44,0.09 -0.66,0.13 -0.16,-0.47 -0.29,-0.94 -0.35,-1.43z"/>
     <path class="fil6" d="M36.86 40.78c0.13,0 0.26,0 0.38,0 -0.07,0.49 -0.19,0.97 -0.35,1.44 -0.22,-0.04 -0.44,-0.09 -0.66,-0.13 0.22,-0.43 0.44,-0.86 0.63,-1.31z"/>
     <path class="fil6" d="M14.48 43.01c0.3,-0.04 0.59,-0.08 0.89,-0.13 0.18,0.32 0.45,0.57 0.7,0.83 -0.31,0.13 -0.61,0.28 -0.92,0.4 -0.24,-0.35 -0.48,-0.71 -0.67,-1.1z"/>
     <path class="fil6" d="M35.68 42.88c0.29,0.04 0.59,0.08 0.88,0.13 -0.19,0.38 -0.43,0.74 -0.66,1.1 -0.31,-0.1 -0.6,-0.25 -0.9,-0.39 0.22,-0.28 0.49,-0.53 0.68,-0.84z"/>
     <path class="fil6" d="M22.43 46c0.94,-0.04 1.82,-0.38 2.68,-0.72 0.01,0.21 0.01,0.43 0.01,0.64 -0.67,0.29 -1.35,0.58 -2.09,0.6 0.07,0.37 0.14,0.73 0.16,1.11 -0.3,-0.52 -0.49,-1.1 -0.76,-1.63z"/>
     <path class="fil6" d="M25.92 45.28c0.86,0.34 1.75,0.68 2.68,0.72 -0.26,0.54 -0.47,1.11 -0.76,1.64 0.01,-0.38 0.11,-0.75 0.14,-1.12 -0.73,-0 -1.41,-0.31 -2.07,-0.59 0,-0.22 0,-0.43 0.01,-0.65z"/>
     <path class="fil6" d="M17.4 46.96c0.56,-0 1.11,0 1.67,-0 0.05,0.18 0.09,0.36 0.14,0.54 -0.36,0.06 -0.71,0.13 -1.07,0.2 0.47,1.49 1.03,2.96 1.69,4.39 0.45,0.94 0.93,1.9 1.68,2.65 1.05,1.05 2.53,1.63 4.01,1.62 1.46,0.01 2.92,-0.55 3.96,-1.58 0.76,-0.74 1.25,-1.7 1.7,-2.64 0.66,-1.44 1.23,-2.92 1.71,-4.43 -0.36,-0.07 -0.72,-0.14 -1.07,-0.2 0.05,-0.18 0.06,-0.39 0.16,-0.54 0.55,-0.02 1.1,-0 1.65,-0.01 -0.49,2.09 -1.3,4.09 -2.12,6.07 -0.23,0.5 -0.39,1.04 -0.72,1.49 -0.82,1.14 -2.07,1.94 -3.42,2.3 -1.11,0.29 -2.29,0.3 -3.41,0.07 -1.46,-0.32 -2.82,-1.15 -3.7,-2.37 -0.34,-0.45 -0.5,-0.99 -0.73,-1.5 -0.82,-1.98 -1.63,-3.97 -2.12,-6.07z"/>
     <path class="fil6" d="M23.62 50.21c-0.02,0.79 -0.33,1.55 -0.42,2.33 0.03,0.1 0.13,0.16 0.21,0.22 0.51,0.33 1.13,0.38 1.72,0.43 0,0.14 0,0.28 0,0.42 -0.45,0.06 -0.92,0.08 -1.36,-0.05 -0.48,-0.13 -0.9,-0.41 -1.33,-0.64 0.4,-0.9 0.75,-1.82 1.18,-2.71z"/>
     <path class="fil6" d="M27.6 51.34c-0.07,-0.35 -0.2,-0.7 -0.15,-1.07 0.43,0.86 0.77,1.77 1.16,2.65 -0.42,0.2 -0.81,0.48 -1.26,0.61 -0.46,0.15 -0.96,0.14 -1.43,0.07 -0,-0.14 -0,-0.28 -0,-0.42 0.59,-0.05 1.22,-0.1 1.73,-0.43 0.1,-0.07 0.25,-0.16 0.19,-0.31 -0.06,-0.37 -0.16,-0.74 -0.23,-1.11z"/>
    </g>
   </g>
   <path class="fil0 str1" d="M14.37 23.88c-0.15,1.1 0.83,1.77 2.95,2.01"/>
   <path class="fil0 str1" d="M36.68 23.88c0.13,0.85 -0.6,1.51 -2.19,1.97"/>
   <path class="fil7" d="M18.57 26.08c-0.28,-0.42 -0.64,-0.79 -1.07,-1.06l-2.34 -0.8c-0.27,-0.09 -0.54,-0.21 -0.8,-0.34 -0.15,1.1 0.83,1.77 2.95,2.01 0.42,0.04 0.84,0.11 1.25,0.19z"/>
   <path class="fil7" d="M33.54 25.02c-0.43,0.27 -0.79,0.64 -1.07,1.06 0.66,-0.12 1.34,-0.23 2.02,-0.23 1.58,-0.46 2.31,-1.11 2.19,-1.97 -0.26,0.13 -0.52,0.25 -0.8,0.34l-2.34 0.8z"/>
   <path class="fil8" d="M36.68 23.88c0.13,0.85 -0.6,1.51 -2.19,1.97 0.68,-0.01 1.36,0.09 1.99,0.36 0.75,-0.86 1.17,-1.96 1.32,-3.08 -0.34,0.29 -0.72,0.54 -1.12,0.75z"/>
   <path class="fil8" d="M17.32 25.89c-2.12,-0.24 -3.1,-0.9 -2.95,-2.01 -0.4,-0.21 -0.78,-0.46 -1.12,-0.75 0.15,1.12 0.57,2.22 1.32,3.08 0.87,-0.38 1.82,-0.41 2.76,-0.32z"/>
  </g>
 </g>
</svg>
