<?xml version="1.0" encoding="UTF-8"?>
<!DOCTYPE svg PUBLIC "-//W3C//DTD SVG 1.1//EN" "http://www.w3.org/Graphics/SVG/1.1/DTD/svg11.dtd">
<!-- Creator: CorelDRAW 2018 (64-Bit) -->
<svg xmlns="http://www.w3.org/2000/svg" xml:space="preserve" width="9.02266in" height="8.23831in" version="1.1" style="shape-rendering:geometricPrecision; text-rendering:geometricPrecision; image-rendering:optimizeQuality; fill-rule:evenodd; clip-rule:evenodd"
viewBox="0 0 9889.33 9029.63"
 xmlns:xlink="http://www.w3.org/1999/xlink">
 <defs>
  <style type="text/css">
   <![CDATA[
    .str0 {stroke:#2B2A29;stroke-width:7.59;stroke-miterlimit:2.61313}
    .fil8 {fill:none}
    .fil5 {fill:#FEFEFE}
    .fil7 {fill:black}
    .fil9 {fill:#C79933}
    .fil6 {fill:#E20513}
    .fil10 {fill:#FBEB58}
    .fil1 {fill:black;fill-rule:nonzero}
    .fil4 {fill:#BC0813;fill-rule:nonzero}
    .fil2 {fill:#DCCFD0;fill-rule:nonzero}
    .fil3 {fill:#E20513;fill-rule:nonzero}
    .fil0 {fill:#E6E6E6;fill-rule:nonzero}
   ]]>
  </style>
 </defs>
 <g id="Layer_x0020_1">
  <metadata id="CorelCorpID_0Corel-Layer"/>
  <g id="_1184470080">
   <g>
    <g>
     <g>
      <g>
       <path class="fil0" d="M5203.51 198.65c154.04,-65.42 307.32,-132.48 461.11,-198.65 -3.64,10.9 -10.78,32.59 -14.42,43.49 -108.54,234.25 -218.08,468.12 -322.86,704.13 -65.18,150.4 -127.84,302.43 -170.21,461.11 237.39,-107.54 489.31,-182.86 747.25,-220.59 271.22,-34.97 549.34,-27.82 816.18,34.72 167.07,41.86 336.4,73.57 503.59,115.18 -4.01,3.26 -12.03,9.78 -16.04,13.04 -228.61,113.18 -463.74,214.82 -686.59,339.53 -265.96,148.02 -500.34,351.07 -687.21,591.08 -14.04,14.29 6.01,28.58 13.78,39.61 91.62,104.4 172.97,218.46 233.5,343.79 186.87,379.27 384.9,757.9 654.5,1086.03 124.21,154.79 264.84,296.29 417.87,422.51 11.53,13.54 27.7,-1 39.6,-5.64 196.4,-103.4 381.52,-231.12 536.31,-391.05 164.56,-166.19 291.28,-372.87 351.56,-599.73 21.06,-82.09 42.11,-164.19 62.04,-246.53 25.06,43.62 46.88,88.86 69.94,133.61 126.21,230.24 167.32,495.58 184.12,754.39 18.55,248.16 -6.64,496.58 -35.6,742.86 105.66,-76.46 191.64,-177.85 271.48,-280.25 309.2,-399.32 454.97,-897.52 535.06,-1389.21 47.25,-323.49 71.81,-650.74 66.05,-977.74 -0.38,-96.01 -4.26,-192.01 -3.76,-287.9 73.07,125.33 150.41,248.29 219.47,376.13 87.86,174.72 159.42,357.21 221.71,542.58 181.24,556.23 256.19,1149.7 198.03,1732.75 -46,484.67 -188,959.32 -410.85,1391.72 -166.44,260.45 -374.87,493.32 -609.63,693.85 -27.7,60.41 -22.43,133.23 -59.66,190.38 -63.55,100.52 -119.07,205.8 -178.35,308.83 -33.34,63.8 -74.07,124.45 -96,193.64 -46.25,138.74 -99.02,275.11 -152.28,411.34 -15.67,36.98 -29.08,76.71 -57.78,106.04 -188.88,178.98 -360.96,376.38 -565.39,538.44 -67.8,50.01 -139.88,94 -208.81,142.51 -67.43,-73.2 -127.72,-152.66 -196.9,-224.1 -102.02,-105.41 -203.92,-211.07 -311.84,-310.46 -193.89,51.51 -392.42,90.49 -592.96,100.89 -268.34,-159.55 -515.88,-352.32 -759.53,-546.96 -66.93,-8.77 -135.12,1.88 -202.17,-8.52 18.05,-40.98 38.1,-81.22 50.63,-124.33 -54.4,-51.14 -108.92,-101.9 -161.69,-154.66 -27.95,-29.08 -65.8,-44.36 -101.14,-61.66 -113.55,-52.39 -225.11,-108.79 -337.53,-163.44 -31.33,-26.95 -35.84,-73.57 -53.77,-109.42 -207.3,-105.16 -413.86,-214.95 -602.36,-351.82 -94,-67.18 -143.51,-174.72 -207.31,-267.09 -49.38,-24.57 -103.15,-38.85 -156.42,-52.52 -97.76,-31.21 -194.14,28.83 -264.71,91.62 -28.07,31.21 -73.07,18.42 -109.92,24.44 -60.91,7.27 -122.2,10.65 -183.49,12.78 44.12,96.01 108.54,182.24 164.94,271.73 140,212.95 296.29,414.23 447.07,619.53 87.99,120.07 178.35,238.39 272.23,353.95 29.08,34.59 34.09,81.47 39.73,124.58 27.69,283.13 0,567.76 -13.91,850.9 -5.14,66.92 -43.87,124.96 -56.02,190.38 513.24,157.92 1047.17,259.57 1585.49,260.57 255.81,1.63 511.74,-16.42 764.42,-55.52 239.39,-36.22 473.77,-101.14 702,-180.86 50.26,-15.42 99.02,-35.35 150.03,-48.13 -80.21,71.94 -167.7,137.74 -264.83,185.37 -463.99,246.53 -967.46,423.26 -1488.48,497.71 -545.71,82.34 -1104.45,59.53 -1645.77,-42.99 -348.05,-69.06 -689.59,-173.09 -1015.33,-314.21 -70.32,-38.1 -147.02,-61.67 -220.09,-93.63 -812.42,-329.38 -1538.36,-885.12 -2037.07,-1609.18 -73.95,-107.79 -144.51,-218.08 -207.93,-332.51 -61.54,-104.78 -119.44,-214.95 -140.62,-335.77 -17.55,-87.36 -28.83,-175.85 -45.37,-263.33 119.44,142.88 238.76,286.27 346.43,438.43 -62.29,-136.49 -137.49,-267.59 -192.89,-407.46 -143.63,-326.75 -245.28,-670.92 -316.47,-1020.23 -154.41,-582.68 -203.92,-1193.31 -141.25,-1792.92 73.44,-708.02 322.86,-1397.36 722.3,-1986.56 88.11,-117.44 209.68,-202.79 314.97,-303.43 -15.55,88.61 -46.88,173.59 -68.68,260.7 8.65,-6.77 16.54,-14.41 23.44,-22.81 101.65,-144.01 211.94,-281.75 328.51,-413.86 139.62,-165.82 300.8,-316.47 489.05,-425.64 85.73,-46.88 176.22,-87.99 272.48,-107.41 33.59,-8.28 66.8,7.02 98.76,15.66 101.15,34.09 202.42,73.19 290.15,135.11 25.32,17.04 48.13,37.48 74.57,52.89 53.64,7.77 109.42,-1.38 162.06,14.66 192.01,51.76 374.5,135.87 541.83,243.15 65.17,-5.01 131.35,-20.18 198.03,-13.29 33.09,32.71 79.33,44.12 121.82,59.66 200.29,62.66 395.31,143 579.68,243.4 140.12,-143.51 291.9,-275.23 449.33,-399.44 180.73,-138.12 370.61,-266.59 578.79,-359.96zm-36.72 125.09l0 0c-185.75,94.88 -357.46,214.32 -521.27,342.92 -159.68,129.47 -313.84,266.33 -455.09,415.86 -108.16,-73.57 -231.12,-120.32 -348.56,-176.35 -126.59,-48.63 -254.93,-92.62 -382.52,-138.37 -61.79,-25.07 -129.09,-9.52 -189.38,11.53 -37.85,-19.3 -73.32,-42.99 -108.92,-65.93 -75.08,-49.88 -158.8,-84.22 -240.26,-121.45 -64.43,-29.95 -132.61,-51.01 -201.42,-68.18 -59.28,-11.66 -121.2,-23.44 -180.48,-5.01 -82.34,-88.36 -194.39,-140.87 -304.82,-184.87 -45.62,-12.16 -92.75,-39.73 -140.75,-23.19 -146.64,39.85 -277.75,123.08 -394.93,217.7 -120.7,96.01 -223.6,211.69 -323.74,328.26 -436.04,499.21 -769.81,1088.28 -970.09,1720.35 -7.77,22.56 -26.2,55.27 3.26,71.69 -6.39,-4.38 -19.05,-13.16 -25.44,-17.55 -3.13,4.14 -9.52,12.16 -12.66,16.17 44.74,-178.73 70.94,-362.6 126.59,-538.81 49.25,-145.27 90.87,-293.54 157.04,-432.53 41.99,-117.94 104.66,-226.61 157.05,-339.91 37.98,-65.92 75.96,-131.85 116.19,-196.4 -96.51,118.81 -172.71,252.05 -252.68,382.02 -97.76,170.33 -183.99,347.17 -259.7,528.41 -33.21,97.38 -76.33,191.39 -105.4,290.27 -51.51,173.72 -103.78,347.81 -133.74,526.91 -40.36,236.39 -73.32,474.77 -76.95,714.91 -13.92,382.4 30.83,764.29 103.02,1139.17 28.07,134.49 71.19,265.21 93.88,400.82 32.59,166.32 88.11,326.75 135.61,489.06 48.63,126.21 90.99,255.18 148.02,377.88 207.43,478.28 493.69,921.96 842.12,1309.5 84.23,99.64 181.61,186.75 270.85,281.75 -43.49,-26.32 -85.22,-55.27 -125.33,-86.36 -442.69,-327.63 -819.82,-743.61 -1100.32,-1217.63 89.99,201.29 206.68,389.41 328.5,572.66 306.32,446.06 699.49,831.6 1148.32,1133.53 334.65,224.48 697.74,406.96 1078.13,540.2 28.45,9.78 48,35.22 76.95,44.49 101.4,36.85 202.04,76.08 303.56,112.67 185.75,54.15 369.99,115.31 561,148.27 296.67,61.16 598.48,100.77 901.66,100.64 158.55,-0.25 317.6,3.76 475.77,-11.15 236.13,-12.53 469.25,-56.65 700.62,-103.65 141.63,-25.82 277.99,-72.44 416.24,-111.55 45.62,-12.66 90.74,-27.32 135.11,-44.24 127.84,-49.13 258.31,-91.87 381.39,-152.53 89.36,-33.34 171.71,-81.34 258.19,-120.82 -172.08,69.56 -343.29,145.02 -525.9,182.99 -440.8,120.45 -904.04,127.34 -1356.88,90.87 -247.66,-21.05 -491.44,-71.44 -734.34,-122.08 -184.75,-44.99 -367.61,-97.51 -549.34,-153.03 22.18,-81.85 61.29,-158.05 85.35,-239.14 9.02,-54.77 5.51,-110.68 10.77,-165.69 12.04,-120.32 4.14,-241.77 17.17,-362.09 -0.38,-83.22 4.51,-166.82 -6.4,-249.54 -6.02,-60.41 5.39,-133.86 -45.37,-178.48 -137.62,-167.83 -262.57,-345.42 -393.18,-518.51 -137.99,-185.37 -274.86,-371.99 -395.55,-569.27 -60.91,-86.11 -105.79,-182.24 -165.19,-269.22 65.3,-19.18 134.23,-12.03 201.04,-22.56 67.05,-4.26 133.98,-10.65 201.04,-16.29 74.45,-61.79 163.19,-117.32 262.33,-121.95 101.27,9.02 199.16,43.99 289.4,88.86 45.49,74.7 90.61,150.41 144.64,219.34 56.28,49.63 117.07,94.62 182.11,132.48 148.52,92.62 301.18,179.48 460.36,252.55 48.5,22.81 40.61,91.87 78.46,123.83 110.17,58.16 225.35,106.16 335.15,165.06 53.52,15.92 93.5,54.27 129.59,95.01 296.42,286.14 626.55,535.56 971.85,759.53 26.07,21.06 60.78,11.78 91.37,9.9 142.63,-17.67 283.51,-46.5 424.26,-75.33 37.47,-6.4 73.69,-26.95 112.05,-23.82 91.12,84.1 181.86,169.08 266.21,260.07 78.21,78.96 155.92,158.92 223.72,247.29 248.91,-151.66 437.17,-378.64 645.72,-578.04 19.93,-18.68 42.87,-35.73 54.52,-61.17 83.72,-177.85 138.24,-367.61 211.56,-549.71 77.33,-136.12 151.4,-273.86 232.12,-408.09 41.11,-62.92 45.12,-140.37 67.05,-210.69 13.16,-18.67 32.21,-32.21 48.76,-47.88 158.67,-134.11 301.18,-286.64 428.77,-450.45 54.9,-78.96 119.69,-151.91 159.8,-240.27 52.02,-94.38 89.74,-195.52 131.6,-294.53 46.88,-105.54 76.33,-217.46 112.55,-326.75 45.87,-136.49 69.69,-278.87 96.88,-419.87 89.49,-485.67 71.94,-987.52 -28.32,-1470.05 -24.44,-150.16 -69.19,-295.54 -112.93,-440.8 -34.47,-130.35 -90.87,-253.18 -137.11,-379.39 -38.73,-87.61 -80.97,-173.59 -124.33,-258.94 -0.88,378.51 -28.07,758.28 -107.78,1129.14 -24.82,144.51 -62.67,286.64 -109.92,425.51 -39.98,144.01 -103.4,279.87 -164.94,415.49 -52.39,95.38 -100.02,194.02 -166.7,280.62 -148.02,223.1 -343.54,415.24 -570.53,557.24 87.36,-401.82 127.97,-819.82 59.29,-1227.78 -23.94,-122.95 -44.87,-248.67 -99.14,-362.59 -16.04,86.98 -57.15,166.32 -92.25,246.66 -34.09,78.09 -85.1,146.64 -131.35,217.58 -197.03,261.82 -465.37,464.74 -759.03,606.99 -14.16,5.51 -28.45,19.31 -44.49,13.42 -414.48,-319.11 -721.68,-755.4 -963.45,-1214.5 -82.6,-148.65 -153.28,-303.44 -233.25,-453.46 -72.57,-116.31 -155.54,-227.1 -254.81,-321.86 155.04,-208.06 337.53,-397.32 548.84,-548.72 212.82,-155.67 453.84,-265.21 690.6,-378.64 -103.65,-27.44 -207.93,-52.77 -313.34,-71.56 -261.07,-48.38 -530.04,-46.75 -791.49,-2.64 -171.96,25.2 -337.02,82.22 -499.96,140.88 -106.53,45.5 -212.44,92.88 -313.59,149.27 11.41,-81.47 32.96,-161.06 51.64,-241.02 109.54,-331.51 263.7,-645.35 408.59,-962.2 -103.78,43.87 -205.67,91.75 -308.95,136.87z"/>
      </g>
     </g>
     <g>
      <g>
       <path class="fil1" d="M5166.78 323.74c103.28,-45.12 205.17,-93 308.95,-136.87 -144.89,316.85 -299.05,630.69 -408.59,962.2 -18.68,79.96 -40.23,159.55 -51.64,241.02 101.15,-56.4 207.06,-103.78 313.59,-149.27 162.94,-58.66 328.01,-115.68 499.96,-140.88 261.45,-44.12 530.42,-45.75 791.49,2.64 105.41,18.8 209.68,44.12 313.34,71.56 -236.76,113.43 -477.78,222.97 -690.6,378.64 -211.31,151.4 -393.8,340.66 -548.84,548.72 99.27,94.75 182.24,205.54 254.81,321.86 79.96,150.03 150.65,304.82 233.25,453.46 241.77,459.1 548.97,895.39 963.45,1214.5 16.04,5.89 30.33,-7.9 44.49,-13.42 293.66,-142.25 562,-345.17 759.03,-606.99 46.25,-70.94 97.26,-139.5 131.35,-217.58 35.1,-80.34 76.21,-159.67 92.25,-246.66 54.27,113.92 75.2,239.64 99.14,362.59 68.68,407.97 28.07,825.96 -59.29,1227.78 226.99,-142.01 422.51,-334.15 570.53,-557.24 66.68,-86.6 114.3,-185.24 166.7,-280.62 61.54,-135.61 124.96,-271.48 164.94,-415.49 47.25,-138.87 85.1,-281 109.92,-425.51 79.71,-370.87 106.91,-750.63 107.78,-1129.14 43.37,85.35 85.6,171.33 124.33,258.94 46.25,126.21 102.65,249.04 137.11,379.39 43.74,145.26 88.49,290.65 112.93,440.8 100.27,482.54 117.81,984.38 28.32,1470.05 -27.19,141 -51.01,283.38 -96.88,419.87 -36.22,109.29 -65.67,221.22 -112.55,326.75 -41.86,99.01 -79.59,200.16 -131.6,294.53 -40.11,88.36 -104.9,161.31 -159.8,240.27 -127.59,163.81 -270.1,316.35 -428.77,450.45 -16.55,15.67 -35.6,29.21 -48.76,47.88 -21.93,70.32 -25.95,147.77 -67.05,210.69 -80.72,134.24 -154.79,271.98 -232.12,408.09 -73.32,182.11 -127.84,371.87 -211.56,549.71 -11.66,25.44 -34.59,42.49 -54.52,61.17 -208.56,199.41 -396.81,426.39 -645.72,578.04 -67.81,-88.36 -145.52,-168.33 -223.72,-247.29 -84.35,-90.99 -175.09,-175.97 -266.21,-260.07 -38.35,-3.13 -74.57,17.42 -112.05,23.82 -140.75,28.83 -281.63,57.66 -424.26,75.33 -30.58,1.88 -65.3,11.15 -91.37,-9.9 -345.3,-223.97 -675.43,-473.39 -971.85,-759.53 -36.1,-40.74 -76.08,-79.09 -129.59,-95.01 -109.8,-58.91 -224.98,-106.91 -335.15,-165.06 -37.85,-31.96 -29.96,-101.02 -78.46,-123.83 -159.18,-73.07 -311.84,-159.93 -460.36,-252.55 -65.05,-37.85 -125.83,-82.84 -182.11,-132.48 -54.02,-68.93 -99.14,-144.64 -144.64,-219.34 -90.24,-44.87 -188.12,-79.84 -289.4,-88.86 -99.14,4.63 -187.88,60.16 -262.33,121.95 -67.05,5.64 -133.98,12.03 -201.04,16.29 -66.8,10.53 -135.74,3.38 -201.04,22.56 59.4,86.99 104.28,183.12 165.19,269.22 120.7,197.28 257.56,383.9 395.55,569.27 130.6,173.09 255.56,350.69 393.18,518.51 50.76,44.62 39.35,118.07 45.37,178.48 10.91,82.72 6.02,166.32 6.4,249.54 -13.04,120.32 -5.14,241.77 -17.17,362.09 -5.26,55.02 -1.75,110.92 -10.77,165.69 -24.07,81.09 -63.17,157.29 -85.35,239.14 181.73,55.52 364.6,108.04 549.34,153.03 242.9,50.63 486.68,101.02 734.34,122.08 452.84,36.47 916.08,29.58 1356.88,-90.87 182.61,-37.97 353.82,-113.42 525.9,-182.99 -86.48,39.48 -168.83,87.48 -258.19,120.82 -123.08,60.66 -253.56,103.4 -381.39,152.53 -44.37,16.92 -89.49,31.58 -135.11,44.24 -138.25,39.11 -274.61,85.73 -416.24,111.55 -231.37,47 -464.49,91.12 -700.62,103.65 -158.17,14.91 -317.22,10.9 -475.77,11.15 -303.18,0.13 -604.99,-39.48 -901.66,-100.64 -191.01,-32.96 -375.25,-94.13 -561,-148.27 -101.52,-36.6 -202.17,-75.83 -303.56,-112.67 -28.95,-9.27 -48.5,-34.72 -76.95,-44.49 -380.4,-133.23 -743.49,-315.72 -1078.13,-540.2 -448.83,-301.93 -842,-687.46 -1148.32,-1133.53 -121.83,-183.24 -238.51,-371.37 -328.5,-572.66 280.5,474.02 657.63,890.01 1100.32,1217.63 40.11,31.09 81.84,60.04 125.33,86.36 -89.23,-95 -186.62,-182.11 -270.85,-281.75 -348.43,-387.54 -634.69,-831.22 -842.12,-1309.5 -57.03,-122.7 -99.39,-251.67 -148.02,-377.88 -47.5,-162.31 -103.02,-322.74 -135.61,-489.06 -22.68,-135.61 -65.8,-266.33 -93.88,-400.82 -72.19,-374.88 -116.94,-756.77 -103.02,-1139.17 3.63,-240.14 36.6,-478.53 76.95,-714.91 29.96,-179.1 82.22,-353.19 133.74,-526.91 29.08,-98.89 72.19,-192.89 105.4,-290.27 75.7,-181.24 161.93,-358.08 259.7,-528.41 79.96,-129.97 156.17,-263.21 252.68,-382.02 -40.23,64.55 -78.21,130.47 -116.19,196.4 -52.39,113.3 -115.06,221.97 -157.05,339.91 -66.17,139 -107.79,287.27 -157.04,432.53 -55.65,176.22 -81.85,360.08 -126.59,538.81 3.13,-4.01 9.52,-12.03 12.66,-16.17 6.39,4.38 19.05,13.16 25.44,17.55 -29.46,-16.42 -11.03,-49.13 -3.26,-71.69 200.28,-632.07 534.05,-1221.14 970.09,-1720.35 100.15,-116.57 203.05,-232.25 323.74,-328.26 117.19,-94.62 248.29,-177.85 394.93,-217.7 48,-16.54 95.13,11.03 140.75,23.19 110.42,44 222.47,96.51 304.82,184.87 59.29,-18.43 121.2,-6.65 180.48,5.01 68.81,17.17 136.99,38.23 201.42,68.18 81.47,37.23 165.19,71.57 240.26,121.45 35.6,22.94 71.07,46.63 108.92,65.93 60.29,-21.05 127.59,-36.6 189.38,-11.53 127.6,45.75 255.93,89.74 382.52,138.37 117.44,56.03 240.39,102.77 348.56,176.35 141.25,-149.53 295.41,-286.39 455.09,-415.86 163.81,-128.6 335.52,-248.04 521.27,-342.92zm-3821.34 856.92l0 0c-27.45,42.36 -70.82,74.45 -92.37,119.94 -9.4,149.65 -4.38,302.18 28.08,448.95 3.88,23.69 7.89,47.5 13.78,70.81 -0.25,3.76 -0.62,11.41 -0.88,15.16 -23.31,-68.81 -69.44,-126.96 -92.37,-195.9 -21.68,-61.54 -50.51,-121.45 -57.15,-187.13 -11.66,9.02 -23.31,17.93 -34.97,26.95l-0.13 3.63c-15.79,24.94 -40.61,48.01 -38.85,80.09 -3.13,108.79 -5.01,218.33 8.02,326.75 4.89,67.3 22.94,132.86 27.57,200.28l6.77 -2.01c0,14.42 -0.25,28.95 -0.63,43.37 -56.53,-118.94 -124.33,-234.13 -155.04,-363.47 -4.39,1.26 -13.16,3.88 -17.55,5.26 -31.46,61.04 -57.28,124.71 -89.11,185.62 -132.48,286.77 -227.49,590.45 -289.15,900.15 -19.93,140.38 -45,280.25 -55.15,421.76 -17.8,162.18 -10.65,325.61 -11.53,488.43 3.14,75.71 -4.76,153.53 18.55,226.86l-3.13 -5.77c1,13.41 2.13,26.95 3.13,40.61 3.76,-16.79 6.39,-34.09 12.78,-49.88 62.92,-148.52 124.96,-297.55 199.04,-440.93 -4.01,84.1 -27.32,165.44 -37.35,248.92 -23.19,168.95 -44.49,338.15 -62.92,507.86 -6.39,127.34 -28.07,254.94 -13.66,382.52 26.95,104.53 60.91,207.31 84.98,312.34 -22.18,-58.29 -54.52,-113.81 -64.3,-175.97l-9.9 0.87c-2.01,-15.66 -4.63,-31.08 -9.15,-46.25 -1.13,119.82 28.83,238.39 67.55,351.19 29.33,91.37 73.2,176.98 107.79,266.21 22.94,54.9 49.01,108.42 74.95,161.94 -1.63,-38.73 -10.27,-76.33 -23.19,-112.55 -10.03,-38.48 -21.31,-76.58 -32.34,-114.68 57.91,125.96 99.14,259.95 165.57,382.4 32.08,54.9 41.11,125.71 93.63,166.7 33.08,48.5 82.22,85.98 106.16,140.75 18.43,39.73 3.76,88.36 31.71,124.59 234.62,394.93 525.03,755.39 851.9,1077.63 82.47,71.94 157.55,152.41 244.03,219.71 268.22,227.86 560.12,430.78 877.09,585.31 43.62,20.3 83.97,51.13 132.61,57.9 42.74,-91.49 100.27,-175.59 139.5,-268.84 23.56,-59.79 52.39,-117.44 75.33,-177.47 40.99,-102.15 63.04,-210.44 91.49,-316.35 -55.52,-90.49 -125.33,-171.08 -182.36,-260.57 -170.83,-240.64 -316.47,-499.08 -435.66,-768.93 -6.77,-16.04 -17.55,-30.95 -18.81,-48.62 -2.63,-36.73 -31.08,-64.05 -41.86,-98.14 -38.6,-89.61 -63.67,-184.12 -94.88,-276.24 -71.31,-214.95 -107.91,-439.3 -134.86,-663.39 -9.15,-112.8 -21.18,-225.61 -18.55,-339.03 -2.88,-136.24 14.04,-271.6 24.19,-407.09l18.67 -16.41c-1,8.15 -3,24.44 -4,32.58 -25.45,28.2 -9.9,69.44 -7.65,103.02 16.67,179.36 68.56,352.94 120.57,524.66 49.38,131.98 98.01,264.58 158.55,392.17 1.26,-45.37 1.76,-90.62 -0.88,-135.74 -0.38,-156.42 65.18,-304.06 154.41,-429.52 1.13,5.51 3.39,16.54 4.51,22.06 -1.75,75.96 -10.53,151.65 -8.9,227.48 3.01,62.29 -0.75,125.71 11.78,187 5.77,45.49 18.18,89.74 32.09,133.35 10.4,-3.13 31.21,-9.4 41.49,-12.53 126.96,-50.13 208.06,-175.22 240.14,-303.31 51.13,-163.68 44.49,-336.52 42.11,-505.72 -17.17,-269.72 -56.15,-537.81 -102.27,-803.9 -143.64,-170.96 -283.89,-345.18 -404.33,-533.55 -8.27,-22.93 -20.3,-44.49 -37.98,-61.41 -127.84,146.27 -307.07,246.03 -497.83,281.63 -3.01,-2.76 -8.9,-8.52 -11.78,-11.41 29.58,-7.15 53.27,-26.57 76.08,-45.62 145.14,-105.4 236.88,-263.32 338.65,-407.21 -96.76,-197.41 -178.23,-402.33 -244.91,-611.76 5.64,3.64 17.05,11.03 22.69,14.79 166.57,261.45 349.31,513.37 555.73,744.99 152.16,164.69 319.48,323.86 527.66,415.24 28.07,-18.8 56.15,-37.48 85.85,-53.65 100.27,-49.51 202.17,-99.51 312.09,-123.2 49.5,-7.27 103.15,-29.33 151.15,-4.01 -179.48,84.48 -324.12,250.42 -362.84,447.32 -57.66,231.74 -18.8,472.38 25.19,702.88 26.07,140.63 75.08,275.49 113.43,412.98 32.21,109.29 79.71,213.32 115.18,321.61 69.31,170.21 137.37,341.54 226.36,502.72 34.84,57.66 96.5,88.62 150.78,124.59 97.26,69.06 199.78,130.22 296.42,200.28 -13.92,-37.1 -22.06,-81.85 -53.02,-108.42 -3.76,-21.18 -2.63,-44.12 -13.54,-63.17 -61.79,-105.53 -101.77,-222.72 -170.45,-324.24 42.74,49.01 83.72,99.52 123.58,150.9 121.2,171.96 241.15,345.18 350.44,525.03 52.64,13.78 105.03,28.58 157.67,42.61 -5.52,-23.56 -10.78,-47.13 -15.04,-70.82 -2.26,-0.12 -6.77,-0.25 -9.02,-0.25 0.75,-53.9 -2.76,-107.66 -3.51,-161.31 -0.12,-18.43 -1.5,-38.47 12.79,-52.39 5.77,45.37 33.21,83.98 48.5,126.46 29.7,77.2 72.32,148.39 122.33,214.07 34.09,54.27 91.74,85.1 140.5,124.08 338.91,227.86 664.27,475.52 975.48,739.85 21.31,-1.25 42.74,-2.26 64.17,-3.63 -9.52,-14.04 -19.93,-27.32 -30.96,-39.73l-7.02 -1.38c-55.9,-81.09 -125.21,-151.28 -187.13,-227.48 -133.86,-146.76 -259.44,-303.31 -415.23,-427.89 -47.76,-56.77 -113.43,-91.62 -179.48,-122.33 -15.67,-74.07 -33.09,-153.16 -3.26,-226.36 168.07,14.54 339.53,-29.7 485.05,-113.92 42.11,-23.57 66.92,-66.81 104.03,-96.01 68.68,-41.99 151.15,-18.05 226.61,-24.82 67.8,20.18 139.87,40.36 186.5,98.01 50.13,54.9 92.37,120.82 101.77,195.9 14.66,66.55 -3.01,133.98 1.5,201.29 8.65,146.27 29.08,294.54 86.48,430.53 20.05,36.97 35.72,79.46 69.18,106.79 78.21,103.02 190.76,169.95 285.89,255.18 77.83,71.94 152.03,147.64 226.86,222.85 18.68,19.05 34.09,42.86 59.41,54.14 106.04,-92.25 213.32,-182.99 316.73,-278.36 61.53,-47.76 113.68,-107.04 179.73,-149.27 90.12,-173.22 178.1,-347.93 272.98,-518.76 -20.55,-34.97 -42.11,-69.44 -64.55,-103.15 -46.62,-105.9 -113.3,-204.54 -142.88,-317.6 35.6,59.53 77.21,115.43 117.57,171.83 49.01,52.02 81.6,119.07 138.75,163.06 10.15,-26.19 22.68,-51.26 36.22,-75.71 -25.57,-26.94 -49.88,-55.14 -77.58,-79.71 -9.9,-22.94 -29.83,-39.35 -44.37,-59.16 -100.14,-128.09 -188,-265.33 -270.6,-405.33 -36.73,-66.42 -83.1,-127.59 -111.3,-198.53 34.84,57.78 81.47,107.53 124.83,159.05 144.89,159.43 293.41,316.22 455.34,458.6 17.42,-46.12 50.38,-83.98 67.8,-129.85 19.93,-50.39 41.49,-100.02 57.28,-151.91 -28.7,-14.66 -57.03,-29.58 -85.48,-44.37 -39.73,-32.84 -88.49,-52.02 -127.22,-85.85 -54.02,-50.64 -112.8,-97.89 -151.41,-162.31 -81.84,-106.66 -129.22,-235.5 -155.91,-366.23 32.21,-15.16 64.17,-30.71 96.51,-45.49 455.96,-241.4 840.87,-621.04 1073.49,-1082.77 24.32,-47.75 42.11,-98.39 65.93,-146.39 50.76,-108.92 79.08,-225.98 112.05,-341.04 27.82,-103.65 46.12,-209.93 51.01,-317.22 6.77,64.05 1.88,128.34 -0.63,192.51 -18.05,232 -46.37,466.38 -126.46,686.21 -31.71,87.73 -60.29,176.97 -104.03,259.69 -200.03,429.4 -507.48,797.25 -836.11,1133.91 57.28,60.04 125.21,109.54 194.89,154.28 24.07,11.28 47.76,34.85 76.21,29.21 25.56,-15.42 46.75,-36.85 68.81,-56.9 172.46,-161.43 319.73,-352.06 422.38,-565.26 131.48,-242.27 228.74,-501.59 307.7,-765.29 52.39,-218.46 106.29,-438.42 119.32,-663.52 1.25,-6.02 3.76,-18.18 5.01,-24.19 6.27,-167.45 20.43,-335.27 5.77,-502.72 -4.14,-299.8 -61.79,-595.21 -124.33,-887.5 -18.43,-64.3 -25.7,-132.35 -53.27,-193.51l0.88 -7.77c-21.94,-66.55 -40.61,-134.11 -56.52,-202.17 -4.26,-12.91 -8.03,-25.82 -11.28,-38.85 -4.77,-11.91 -8.28,-24.19 -10.78,-36.6 -17.67,-53.02 -32.96,-106.66 -51.89,-159.17 2.88,61.66 11.41,123.58 24.82,183.62 21.43,175.22 32.58,351.56 36.85,528.04 -6.64,134.11 -11.41,268.21 -25.57,401.7 -13.04,61.41 -13.04,125.59 -27.82,186.5 -15.54,124.71 -48.76,246.28 -85.61,366.1 -3.88,12.66 -7.64,25.32 -11.28,37.97 -31.71,115.56 -80.21,225.1 -129.97,333.77 -36.35,88.11 -91.24,166.69 -136.11,250.42 -162.43,251.92 -363.1,496.45 -637.46,630.56 -112.05,55.02 -233.62,96.63 -359.84,95.25 -76.45,-1.75 -153.91,3.64 -229.11,-12.53 -97.01,-18.68 -188.5,-57.53 -278.12,-97.89 -38.22,-16.42 -71.81,-43.24 -112.92,-52.14 39.73,-14.54 68.43,-46.38 101.27,-71.57 213.45,-172.59 368.74,-409.72 462.99,-666.03 20.17,-44.12 27.82,-92.37 45.12,-137.49 1.63,77.08 -4.26,154.41 -12.66,231.12l-4.14 -2.38c-12.66,126.97 -52.51,249.67 -97.26,368.48 -38.1,85.36 -83.97,167.2 -132.98,246.66 63.79,40.73 144.51,29.33 216.45,26.57 34.34,-85.85 79.96,-166.95 107.79,-255.43 42.36,-140 85.73,-280.25 106.4,-425.39 41.87,-271.48 44.87,-547.96 25.57,-821.7 -10.15,-53.77 -0.63,-111.42 -26.44,-161.44 -9.78,91.12 -27.2,180.99 -54.4,268.59 -18.55,83.35 -59.04,159.93 -99.77,234.25 -140.5,265.08 -366.1,475.89 -612.01,643.09 -71.95,40.11 -138,91.74 -215.33,121.32l-7.77 6.27c-27.57,11.53 -58.78,20.93 -87.36,6.27 -134.48,-92.37 -266.46,-189.26 -383.65,-303.18 -320.35,-300.68 -557.74,-678.82 -743.99,-1074.25 -14.54,-41.11 -56.4,-58.91 -90.99,-79.84 -56.78,-31.96 -110.8,-68.56 -165.44,-104.03l-1.88 -3.88c-60.41,-33.97 -115.69,-75.7 -172.71,-114.81 -41.99,-24.19 -75.45,-61.91 -122.08,-77.96 78.84,15.42 149.53,58.91 227.99,74.7 68.81,38.98 151.28,51.89 225.98,79.34 -13.67,-28.2 -23.31,-58.53 -39.48,-85.35 -101.4,-58.91 -199.91,-123.08 -298.17,-187.38 -71.19,-52.27 -149.9,-94.5 -215.95,-154.03 -13.79,-13.91 -33.34,-18.05 -50.76,-25.19 27.07,2.13 52.89,12.16 73.69,29.95 41.61,16.67 83.22,35.6 127.72,43.49 1.63,2.26 4.89,6.77 6.52,9.03 91.49,23.81 178.98,61.03 268.21,92 -39.73,-90.87 -105.28,-165.82 -161.43,-246.41 -169.58,-213.7 -368.61,-401.57 -574.16,-579.93l7.4 -6.27c-8.65,1.76 -25.95,5.39 -34.59,7.15 0.13,-18.43 0.38,-36.72 0.75,-55.02 -3.88,1.01 -11.78,3.01 -15.66,4.01 -5.14,-132.1 -9.78,-266.09 14.66,-397.19 26.32,-152.53 60.66,-304.19 112.93,-450.08 15.66,-53.52 46.5,-103.65 46,-160.93l5.77 -3.13c2.13,-6.14 6.27,-18.68 8.28,-24.94 -162.56,101.02 -316.22,215.57 -464.37,336.52 -213.32,174.72 -415.86,361.84 -606.74,560.88 17.8,120.82 43.61,240.27 77.33,357.58 31.46,130.85 86.73,253.81 136.86,378.13 21.94,48.25 42.87,97.26 70.32,142.75 -4.89,-0.5 -14.66,-1.63 -19.55,-2.13 -6.89,-16.29 -17.67,-30.21 -28.7,-43.62 -120.07,-149.53 -205.67,-322.49 -284.26,-496.33 -14.54,-78.33 -48.63,-151.53 -65.8,-229.49 -10.53,-53.02 -35.85,-105.66 -25.57,-160.68 9.15,-16.54 20.68,-31.45 31.46,-46.88l5.77 2.39c27.2,-37.98 56.27,-74.58 86.23,-110.3 -63.29,-25.07 -125.58,-52.77 -190.01,-75.08 -163.81,-44.5 -325.74,-96.13 -487.55,-147.27 -140.38,44.37 -282.01,84.48 -421.88,129.85 -147.52,38.35 -295.92,73.57 -443.44,111.68 23.06,9.15 48.13,2.13 71.82,-1 -32.21,9.65 -82.47,39.48 -97.51,-8.02 33.96,-17.8 57.28,-48.63 84.85,-74.45 106.53,-92.25 228.36,-164.07 351.69,-231.25 44.87,-26.82 99.89,-35.97 139.12,-71.06 -106.53,-29.83 -212.7,-61.41 -320.11,-88.49 -55.64,-11.41 -114.55,-25.69 -170.7,-9.15 -159.68,50.01 -325.87,79.21 -480.66,144.89 -95,30.96 -183.36,78.84 -262.33,140l-18.42 -1.38c30.58,-128.22 121.7,-232.37 227.98,-305.82 21.43,-17.17 52.64,-27.07 60.16,-56.65l12.79 4.64c76.7,-38.6 154.54,-74.57 234.12,-106.91 -67.3,-42.61 -143.26,-76.96 -224.47,-75.33 -306.32,172.21 -559.75,422.76 -784.97,689.47zm4520.08 92.12l0 0c-162.44,29.58 -321.23,77.58 -475.52,135.86 -110.17,49.75 -224.1,93.87 -325.11,161.06 54.14,30.71 104.53,67.55 158.42,98.76l2.5 -2.38c115.56,93.87 242.9,179.73 326.87,305.19 5.39,-0.12 15.92,-0.12 21.31,-0.25 96.75,-138.25 215.7,-259.45 337.02,-376.25 141.5,-133.61 304.44,-241.77 470.38,-342.54 -22.31,-8.27 -46,-8.65 -69.18,-6.52 -149.4,-8.9 -299.05,5.64 -446.69,27.07zm581.93 4908.74l0 0c-49.89,29.71 -84.98,79.59 -104.66,133.48 -12.16,52.39 -12.54,108.41 -0.13,160.93 10.03,44.74 32.71,85.1 50.89,126.96 -50.26,-52.39 -95.38,-111.05 -123.21,-178.48 -14.16,-32.96 -26.19,-66.8 -34.09,-101.64 -73.45,46.5 -161.81,35.6 -244.15,33.21 -25.7,2.63 -61.17,-7.9 -75.58,20.81 -15.17,30.08 -5.77,66.18 7.27,95.5 153.28,105.66 264.46,259.19 372.62,408.09 58.66,-2.5 119.57,-27.82 150.28,-80.47 22.31,-32.08 18.43,-72.82 20.56,-109.8 2.13,4.01 6.52,12.04 8.65,16.04 5.64,3.51 16.92,10.4 22.56,13.92 80.97,36.72 178.23,13.91 250.17,-33.96 -19.05,-64.05 -20.81,-130.85 -31.46,-196.03 -5.26,-37.22 1.38,-76.21 -11.41,-111.93 -12.16,-58.78 -36.6,-116.94 -80.46,-158.92 -46.88,-42.62 -117.94,-61.29 -177.85,-37.73zm37.6 568.39l0 0c1.13,52.77 -3.51,111.42 -45.5,149.27 -17.55,24.69 -55.27,26.57 -68.05,54.27 21.56,11.9 38.98,29.7 53.52,49.75 37.48,49.38 78.08,98.27 99.89,157.3 50.13,-36.85 107.66,-63.29 167.45,-80.21 -6.77,-31.33 -16.8,-61.79 -29.58,-90.99 26.7,27.45 40.36,64.18 64.67,93.5 58.41,-1.25 116.81,-1.38 175.35,-0.13 -0.63,-4.64 -1.63,-13.91 -2.13,-18.55 -27.57,-29.83 -51.64,-63.17 -65.68,-101.27 -6.14,-15.29 -11.91,-30.33 -18.3,-45.12 -8.4,-29.96 -15.54,-60.29 -23.31,-90.24 -0.63,-9.15 -1.88,-27.32 -2.51,-36.47 -31.08,11.03 -62.92,19.05 -94.88,26.57 -43.24,1 -86.48,1.13 -129.72,1.13 -35.22,-12.53 -59.78,-39.6 -81.22,-68.81zm235.51 426.64l0 0c0,29.58 9.02,57.65 21.56,84.35 5.89,17.17 11.28,34.72 19.3,51.26 14.91,2.76 30.08,3.13 45.49,1.25 -7.02,-18.68 -14.42,-37.22 -21.56,-55.52l-5.26 0.38c-8.27,-33.72 -24.94,-68.69 -59.53,-81.72zm816.94 494.32l0 0c33.08,9.78 66.8,18.43 101.89,16.17 5.01,3.51 15.04,10.52 20.05,13.91 -23.19,-32.59 -46,-65.68 -74.07,-94.25 -18.05,19.68 -50.64,32.21 -47.88,64.17z"/>
      </g>
      <path class="fil1" d="M4797.17 917.58c-1.63,4.89 -5.01,14.66 -6.65,19.55 -54.52,70.44 -83.72,156.17 -110.92,239.89 -25.45,94.38 -50.13,190.64 -48.51,289.15 -2.76,1.75 -8.27,5.26 -11.03,7.02 3.88,101.4 -15.17,202.04 -9.9,303.44 0.75,40.61 22.56,76.2 37.72,112.67 -71.44,-15.67 -130.6,-64.93 -176.72,-119.57 -44.24,-59.28 -83.85,-123.58 -104.28,-195.14 -15.79,-54.9 -12.79,-112.68 -10.15,-169.08 15.41,13.79 31.21,27.83 46.62,41.87 68.06,-156.92 175.6,-292.53 289.9,-417.99 33.34,-38.6 77.21,-67.43 103.91,-111.8z"/>
      <path class="fil1" d="M3913.44 2140.22c3.76,4.26 11.4,12.91 15.28,17.17 102.9,190.76 262.33,352.06 454.6,452.83 76.83,49.76 164.94,76.46 250.04,107.67l6.14 19.43c-31.34,-0.88 -62.54,-1.88 -93.75,-3.89 -80.21,-16.54 -160.18,-37.22 -231.75,-78.21 -202.79,-98.14 -359.46,-292.16 -400.56,-515z"/>
      <path class="fil1" d="M6156.93 3782.11c45.87,11.03 84.73,39.35 126.96,59.16 48.01,21.05 73.19,75.45 67.56,126.21 -166.19,-49.63 -341.16,-26.82 -511.62,-27.45 111.93,-29.95 226.74,-48 338.91,-75.83 -6.27,-27.7 -14.16,-54.89 -21.8,-82.09z"/>
      <g>
       <path class="fil1" d="M5792.33 4124.52c51.39,-15.92 101.89,-34.59 154.16,-47.63 44.49,5.14 89.24,-1.13 133.73,2.13 100.77,20.56 190.13,87.74 241.14,176.72 145.89,251.92 344.04,484.05 604.37,622.04 102.02,56.02 217.2,83.47 332.64,92.37 -69.06,85.85 -166.44,140.88 -262.45,191.51 -178.35,88.99 -386.53,100.52 -579.93,61.91 155.79,-31.46 319.85,-49.76 459.1,-132.61 50,-29.58 110.55,-63.55 119.19,-127.09 -79.84,-2.26 -152.66,34.47 -222.35,68.68 -161.43,58.66 -332.39,95.63 -504.85,88.36 -172.08,6.14 -349.68,-43.62 -479.15,-160.43 103.4,37.73 208.18,74.45 318.35,86.99 64.92,13.78 130.22,-3.13 192.26,-21.56 0.63,-11.28 1.25,-22.31 2,-33.46 -147.76,9.02 -315.09,-51.01 -382.39,-191.51 64.67,26.32 127.34,68.18 199.53,66.93 20.8,1.51 33.08,-17.42 48,-28.58 -36.72,-59.4 -79.84,-120.44 -79.96,-193.39 -11.78,-111.05 26.32,-217.33 66.93,-318.48 -109.92,-7.52 -219.96,2.76 -329.88,1.13 94.25,-36.6 191.89,-66.81 292.78,-77.96 -3.26,-23.31 5.26,-55.78 -21.93,-67.3 -90.49,-57.15 -200.91,-39.11 -301.3,-58.79zm493.06 671.8l0 0c42.61,57.78 98.76,113.05 172.34,125.96 36.6,10.4 75.08,6.52 112.55,4.01 19.3,-11.15 42.61,-9.27 64.17,-12.54 1.38,-4.63 4.13,-13.91 5.51,-18.55 -37.47,-18.93 -43.36,-64.05 -63.54,-96.88 -76.33,-127.97 -188.75,-228.99 -304.06,-321.23 -50.51,97.89 -52.9,227.1 13.03,319.22z"/>
      </g>
      <path class="fil1" d="M4818.85 4246.35l11.78 6.52c59.54,187.25 123.84,375 140.51,572.15 183.11,113.55 352.19,251.67 488.93,418.99 9.9,12.16 19.68,24.82 29.46,37.35 -52.02,-47.5 -116.19,-78.58 -175.84,-115.06 -54.65,-28.07 -104.66,-68.56 -166.32,-79.71 -8.27,45.63 -25.44,89.74 -26.44,136.62 -1.13,44.74 -4.14,89.49 -13.79,133.36 -29.08,-100.52 -41.23,-205.92 -38.97,-310.46 -79.59,-34.72 -164.82,-52.89 -249.92,-68.05 6.14,-172.84 33.46,-345.3 20.43,-518.51 -3.14,-71.44 -0.76,-143.51 -19.81,-213.2z"/>
      <path class="fil1" d="M7208.99 4470.32c89.36,-24.94 171.96,-69.69 235.63,-138 -48.38,65.67 -119.19,105.66 -190.26,141.88 -15.17,-1.5 -30.33,-2.76 -45.37,-3.88z"/>
      <path class="fil1" d="M8359.44 4987.83c5.26,0.88 15.67,2.5 20.93,3.38 -23.94,36.6 -71.82,47.13 -108.66,67.18 -70.94,35.97 -152.16,38.6 -229.99,38.85 3.26,-4.39 9.78,-12.91 12.91,-17.17 100.51,10.4 199.53,-18.67 290.53,-58.9 3.5,-8.28 10.77,-24.95 14.28,-33.34z"/>
      <path class="fil1" d="M6358.34 5886.36c37.35,-36.47 94.75,-53.27 145.14,-36.35 36.1,12.79 68.43,33.84 101.02,53.77 -27.95,22.56 -65.05,13.91 -97.89,12.66 -54.9,-5.26 -109.92,-9.65 -165.07,-12.29 4.26,-4.38 12.66,-13.28 16.79,-17.8z"/>
      <path class="fil1" d="M5594.8 6293.2c22.81,-61.04 96.13,-68.43 144.89,-100.77 -36.97,45.12 -80.59,84.85 -114.18,132.61 -10.28,35.22 -13.66,77.46 6.77,110.05 32.84,60.03 75.33,114.43 107.03,175.22 -34.34,-56.4 -94.38,-87.99 -135.36,-138.5 -50.88,-45.37 -37.97,-124.33 -9.15,-178.6z"/>
      <path class="fil1" d="M7416.42 6234.16c37.1,-8.27 97.76,-7.4 112.05,35.72 -4.51,-3.38 -13.79,-9.9 -18.42,-13.28 -30.96,-2.13 -70.07,-12.41 -93.63,14.04 -29.2,32.21 -53.27,72.69 -54.39,117.31 -4.89,55.9 14.16,109.54 24.19,163.81 1.51,12.41 2.01,24.82 3.14,37.6 -18.3,-63.55 -65.55,-118.44 -64.05,-187 -4.76,-66.68 32.71,-136.24 91.11,-168.2z"/>
      <path class="fil1" d="M7466.55 6422.16c43.5,-69.19 155.54,-51.76 198.66,10.4 70.06,81.84 127.46,174.34 174.59,271.1 -47.26,-0.25 -88.12,36.1 -135.24,26.95 27.19,-16.79 51.89,-38.23 70.18,-64.67 -3.88,-3.13 -11.4,-9.52 -15.28,-12.66 -57.66,-30.59 -115.44,-61.29 -175.85,-85.86 -28.45,-9.27 -42.49,-38.72 -52.14,-64.42 -1.88,-5.77 -5.51,-17.3 -7.39,-23.06 -11.91,0.88 -23.69,1.75 -35.48,2.76 -9.15,45.24 3.14,90.11 29.96,127.22 -64.43,-31.34 -102.15,-127.22 -52.02,-187.75z"/>
     </g>
     <g>
      <path class="fil2" d="M1345.45 1180.66c225.23,-266.71 478.65,-517.26 784.97,-689.47 81.22,-1.63 157.17,32.71 224.47,75.33 -79.58,32.34 -157.42,68.31 -234.12,106.91l-12.79 -4.64c-26.44,-9.4 -53.14,-17.8 -79.84,-26.44 -254.56,191.26 -497.45,400.69 -707.9,640.33 -6.64,7.77 -13.41,15.54 -19.93,23.44 -19.05,122.95 -16.92,247.66 -13.03,371.61 3.63,47.51 14.16,94.75 7.64,142.63 -5.89,-23.31 -9.9,-47.13 -13.78,-70.81 -32.46,-146.77 -37.48,-299.3 -28.08,-448.95 21.56,-45.5 64.93,-77.58 92.37,-119.94z"/>
      <path class="fil2" d="M4687.63 859.67c148.15,-120.95 301.81,-235.5 464.37,-336.52 -2.01,6.27 -6.14,18.8 -8.28,24.94l-5.77 3.13c-18.8,8.9 -34.84,22.06 -49.5,36.6 -315.97,273.86 -620.54,562.38 -897.15,876.22 10.53,287.14 94.63,564.26 181.11,836.11l-7.02 -1.13c-27.45,-45.49 -48.38,-94.5 -70.32,-142.75 -50.13,-124.33 -105.4,-247.29 -136.86,-378.13 -33.71,-117.31 -59.53,-236.76 -77.33,-357.58 190.89,-199.03 393.43,-386.16 606.74,-560.88z"/>
      <path class="fil2" d="M2581.25 747.75c56.15,-16.54 115.06,-2.26 170.7,9.15 107.41,27.07 213.58,58.66 320.11,88.49 -39.23,35.1 -94.25,44.24 -139.12,71.06l-11.41 4.76c-107.79,-35.1 -215.58,-72.07 -325.12,-100.02 -194.02,12.28 -383.9,67.43 -563.51,140.13 -66.68,26.69 -135.86,48.88 -197.28,86.86 0.63,-3.88 2,-11.66 2.63,-15.54 78.96,-61.16 167.33,-109.04 262.33,-140 154.79,-65.67 320.98,-94.88 480.66,-144.89z"/>
      <path class="fil2" d="M2965.53 1119.49c139.87,-45.37 281.5,-85.48 421.88,-129.85 161.81,51.14 323.74,102.77 487.55,147.27 64.43,22.31 126.72,50.01 190.01,75.08 -29.96,35.72 -59.03,72.32 -86.23,110.3l-5.77 -2.39c-206.43,-88.48 -416.74,-167.19 -625.55,-249.41 -244.03,82.47 -498.46,128.09 -753.51,159.68 -23.69,3.13 -48.76,10.15 -71.82,1 147.52,-38.1 295.92,-73.32 443.44,-111.68z"/>
      <path class="fil2" d="M5865.53 1272.78c147.64,-21.43 297.29,-35.98 446.69,-27.07 14.91,2.88 29.95,6.02 44.99,9.4 -296.67,-4.88 -585.57,93.88 -847.02,227.48 -97.13,57.15 -200.79,106.66 -284.38,183.49l-2.5 2.38c-53.9,-31.21 -104.28,-68.05 -158.42,-98.76 101.01,-67.18 214.95,-111.3 325.11,-161.06 154.29,-58.28 313.09,-106.28 475.52,-135.86z"/>
      <path class="fil2" d="M1070.59 1563.18c-1.76,-32.09 23.06,-55.15 38.85,-80.09 -0.25,11.91 -0.63,23.94 -0.88,35.98 -11.78,162.56 -15.91,327 1.88,489.18 1.76,27.32 0.63,54.9 -4.26,81.97 -4.64,-67.43 -22.68,-132.98 -27.57,-200.28 -13.04,-108.41 -11.15,-217.96 -8.02,-326.75z"/>
      <path class="fil2" d="M5002.59 1686.25c-1,-23.69 -21.68,-59.66 3.89,-76.7 205.55,178.35 404.58,366.23 574.16,579.93 56.15,80.59 121.7,155.54 161.43,246.41 -89.24,-30.96 -176.72,-68.18 -268.21,-92 -1.63,-2.26 -4.89,-6.77 -6.52,-9.03 -71.19,-109.17 -149.9,-213.57 -237.51,-310.08 -42.11,-45.87 -75.45,-99.02 -120.19,-142.51 -54.65,-53.02 -79.96,-126.71 -107.04,-196.03z"/>
      <path class="fil2" d="M3928.72 2157.39c3.76,3.63 11.16,10.77 14.92,14.28 176.72,238.64 414.36,433.16 689.72,546.21 -85.1,-31.21 -173.22,-57.91 -250.04,-107.67 -192.27,-100.77 -351.69,-262.07 -454.6,-452.83z"/>
      <path class="fil2" d="M9485.08 2366.95c-4.51,-22.43 -4.89,-45.24 -1.76,-67.68 27.57,61.16 34.85,129.22 53.27,193.51 62.54,292.28 120.19,587.7 124.33,887.5 14.66,167.45 0.5,335.27 -5.77,502.72 -1.25,6.02 -3.76,18.18 -5.01,24.19 -13.04,225.1 -66.93,445.06 -119.32,663.52 -78.96,263.7 -176.22,523.02 -307.7,765.29 -102.65,213.2 -249.91,403.83 -422.38,565.26 -22.06,20.06 -43.24,41.49 -68.81,56.9 -28.45,5.64 -52.14,-17.93 -76.21,-29.21 -69.69,-44.74 -137.62,-94.25 -194.89,-154.28 328.63,-336.65 636.07,-704.51 836.11,-1133.91 43.74,-82.72 72.32,-171.96 104.03,-259.69 80.09,-219.84 108.41,-454.22 126.46,-686.21 2.51,-64.17 7.4,-128.47 0.63,-192.51 35.6,-378.26 20.18,-760.91 -42.99,-1135.41z"/>
      <path class="fil2" d="M5532.64 2440.65c98.26,64.3 196.77,128.47 298.17,187.38 16.17,26.82 25.82,57.15 39.48,85.35 -74.7,-27.45 -157.17,-40.36 -225.98,-79.34 -31.21,-67.68 -70.57,-131.35 -111.67,-193.39z"/>
      <path class="fil2" d="M2655.07 2493.54l13.66 9.27c164.06,218.59 339.16,429.77 534.18,621.91 182.61,187.25 385.28,359.21 621.41,475.39 -29.71,16.17 -57.78,34.85 -85.85,53.65 -208.18,-91.37 -375.5,-250.54 -527.66,-415.24 -206.43,-231.62 -389.16,-483.54 -555.73,-744.99z"/>
      <path class="fil2" d="M5712.99 2755.99c54.64,35.47 108.66,72.07 165.44,104.03 34.59,20.93 76.45,38.73 90.99,79.84 186.25,395.43 423.63,773.56 743.99,1074.25 117.19,113.92 249.17,210.81 383.65,303.18 28.58,14.66 59.79,5.26 87.36,-6.27 -19.43,14.54 -35.72,32.71 -46,54.89 -4.13,-9.15 -8.02,-18.3 -11.53,-27.45 -293.79,-137.99 -542.33,-354.2 -769.68,-582.43 -174.47,-188.26 -346.05,-385.41 -457.35,-619.03 -59.78,-128.22 -125.71,-253.43 -186.87,-381.02z"/>
      <path class="fil2" d="M8173.7 3037.49c25.82,50.01 16.29,107.67 26.44,161.44 19.3,273.73 16.29,550.22 -25.57,821.7 -20.67,145.14 -64.04,285.38 -106.4,425.39 -27.83,88.49 -73.45,169.58 -107.79,255.43 -71.95,2.76 -152.66,14.16 -216.45,-26.57 49.01,-79.46 94.88,-161.31 132.98,-246.66 44.74,-118.81 84.6,-241.52 97.26,-368.48l4.14 2.38c3.76,2.13 11.41,6.39 15.16,8.52 30.71,-138 64.17,-275.49 87.86,-414.99 25.44,-123.83 37.22,-250.17 66.18,-373.25 -9.53,7.77 -18.8,15.79 -28.2,23.69 27.19,-87.61 44.62,-177.47 54.4,-268.59z"/>
      <path class="fil2" d="M2972.17 3273.12c17.67,16.92 29.71,38.48 37.98,61.41 -83.97,65.68 -174.47,124.83 -275.86,159.93 -81.34,35.35 -168.2,51.89 -255.43,64.8l-4.51 -4.51c190.76,-35.6 369.99,-135.36 497.83,-281.63z"/>
      <path class="fil2" d="M4287.56 3472.91c2.88,-0.25 8.52,-1 11.41,-1.38 -99.64,74.2 -191.26,160.05 -264.83,260.45 -51.01,74.95 -76.46,164.06 -80.21,254.18 -14.16,101.27 -13.66,205.04 -0.88,306.32 9.02,119.19 33.59,236.38 58.79,352.94 31.71,155.92 86.61,305.69 131.6,458.1 80.84,229.86 163.94,460.11 274.61,677.69 37.48,89.11 135.24,122.45 205.3,180.48 58.78,37.85 116.94,77.08 175.72,115.18 30.96,26.57 39.1,71.32 53.02,108.42 -96.63,-70.07 -199.16,-131.22 -296.42,-200.28 -54.27,-35.97 -115.94,-66.93 -150.78,-124.59 -88.99,-161.18 -157.05,-332.51 -226.36,-502.72 -35.47,-108.29 -82.97,-212.32 -115.18,-321.61 -38.35,-137.49 -87.36,-272.35 -113.43,-412.98 -43.99,-230.5 -82.84,-471.14 -25.19,-702.88 38.72,-196.9 183.36,-362.85 362.84,-447.32z"/>
      <path class="fil2" d="M4825 4234.82c64.17,104.16 101.77,221.22 143.63,335.4 25.07,69.69 40.23,142.13 53.77,214.7 106.78,76.58 204.79,165.31 289.15,266.34 52.39,61.54 113.68,118.57 148.52,192.76 -136.74,-167.32 -305.81,-305.44 -488.93,-418.99 -16.67,-197.15 -80.97,-384.91 -140.51,-572.15l-5.64 -18.05z"/>
      <path class="fil2" d="M2720.87 4572.09c-2.26,-33.59 -17.8,-74.83 7.65,-103.02 31.71,206.8 88.86,409.1 155.04,607.5 28.7,96.01 74.7,185.37 115.56,276.62 2.63,45.12 2.13,90.37 0.88,135.74 -60.54,-127.59 -109.17,-260.2 -158.55,-392.17 -52.01,-171.71 -103.91,-345.3 -120.57,-524.66z"/>
      <path class="fil2" d="M3158.04 4945.72c9.9,54.27 7.14,109.8 9.53,164.69 4.26,126.09 27.32,250.92 66.93,370.62 -10.28,3.13 -31.09,9.4 -41.49,12.53 -13.91,-43.61 -26.32,-87.86 -32.09,-133.35 -12.53,-61.29 -8.77,-124.71 -11.78,-187 -1.63,-75.83 7.15,-151.53 8.9,-227.48z"/>
      <path class="fil2" d="M7939.07 5747.61c168.33,173.72 327.75,358.84 521.01,505.6 31.46,-69.44 71.95,-134.23 103.53,-203.54 28.45,14.79 56.78,29.71 85.48,44.37 -15.79,51.89 -37.35,101.52 -57.28,151.91 -17.42,45.87 -50.38,83.72 -67.8,129.85 -161.94,-142.38 -310.46,-299.18 -455.34,-458.6 -43.37,-51.51 -89.99,-101.27 -124.83,-159.05l-4.76 -10.53z"/>
      <path class="fil2" d="M4738.64 5840.36c127.97,144.89 248.17,296.92 353.82,458.98 27.95,42.36 86.36,33.71 130.22,37.6 2.26,0 6.77,0.13 9.02,0.25 4.26,23.69 9.52,47.26 15.04,70.82 -52.64,-14.04 -105.03,-28.83 -157.67,-42.61 -109.29,-179.86 -229.24,-353.07 -350.44,-525.03z"/>
      <path class="fil2" d="M5231.96 6123.24c0.88,-1.5 2.75,-4.38 3.63,-5.89 34.09,89.49 91.74,167.7 138.37,250.92 37.35,68.93 102.65,114.81 162.06,163.19 300.18,235.75 606.24,463.61 908.93,696.24 31.34,21.3 59.91,52.01 100.02,55.27l7.02 1.38c11.03,12.41 21.43,25.7 30.96,39.73 -21.43,1.38 -42.86,2.38 -64.17,3.63 -311.21,-264.33 -636.57,-511.99 -975.48,-739.85 -48.76,-38.98 -106.41,-69.81 -140.5,-124.08 -50.01,-65.68 -92.63,-136.87 -122.33,-214.07 -15.29,-42.49 -42.74,-81.09 -48.5,-126.46z"/>
      <path class="fil2" d="M2937.95 6138.66c10.78,34.09 39.23,61.41 41.86,98.14 1.26,17.67 12.04,32.58 18.81,48.62 119.19,269.85 264.83,528.29 435.66,768.93 57.03,89.49 126.84,170.08 182.36,260.57 -28.45,105.91 -50.51,214.2 -91.49,316.35 -22.94,60.03 -51.76,117.69 -75.33,177.47 -39.23,93.25 -96.75,177.35 -139.5,268.84 -48.63,-6.77 -88.99,-37.6 -132.61,-57.9 118.07,-219.59 211.31,-452.71 274.86,-693.86 4.13,-14.41 -9.65,-25.94 -14.79,-37.85 -96.26,-152.78 -168.58,-318.73 -242.9,-482.79 -55.52,-139.25 -116.69,-276.24 -167.7,-417.11 -23.19,-54.02 -37.48,-111.68 -65.68,-163.57 -15.04,-26.32 -14.79,-57.53 -23.56,-85.85z"/>
      <path class="fil2" d="M8124.69 6189.04c73.19,96.51 145.26,193.89 223.6,286.39 7.39,-18.05 14.66,-36.23 21.8,-54.28 27.7,24.57 52.02,52.77 77.58,79.71 -13.53,24.44 -26.07,49.51 -36.22,75.71 -57.15,-43.99 -89.74,-111.05 -138.75,-163.06 -40.36,-56.4 -81.97,-112.3 -117.57,-171.83 -9.27,-18.18 -19.93,-35.47 -30.45,-52.64z"/>
      <path class="fil2" d="M7416.42 6270.64c23.57,-26.45 62.67,-16.17 93.63,-14.04 4.63,3.38 13.91,9.9 18.42,13.28 3.38,2.51 10.03,7.52 13.41,10.15 -35.85,2.26 -84.22,-14.66 -108.29,20.81 -56.4,66.67 -38.6,160.68 -34.22,240.14l-13.16 10.78c-10.02,-54.27 -29.08,-107.91 -24.19,-163.81 1.13,-44.62 25.19,-85.1 54.39,-117.31z"/>
      <path class="fil2" d="M7488.61 6482.7c11.78,-1.01 23.57,-1.88 35.48,-2.76 1.88,5.77 5.51,17.3 7.39,23.06 -6.39,1.88 -19.18,5.77 -25.57,7.65 -2.63,40.74 15.29,78.83 24.94,117.82 -3.13,-4.64 -9.28,-13.92 -12.28,-18.55 -26.82,-37.1 -39.11,-81.97 -29.96,-127.22z"/>
      <path class="fil2" d="M8023.79 7101.23c90.99,-180.85 189.13,-358.2 274.23,-541.95 22.43,33.72 43.99,68.18 64.55,103.15 -94.88,170.83 -182.86,345.55 -272.98,518.76 -66.05,42.24 -118.19,101.52 -179.73,149.27 -103.4,95.38 -210.69,186.12 -316.73,278.36 -25.32,-11.28 -40.73,-35.09 -59.41,-54.14 -74.83,-75.2 -149.02,-150.91 -226.86,-222.85 -95.13,-85.23 -207.68,-152.16 -285.89,-255.18 48.38,34.84 95.88,71.19 140.5,110.92 143.38,120.07 288.65,237.88 431.15,359.08 103.4,-103.91 209.06,-205.42 312.96,-308.82 43.24,-41.86 93.13,-80.09 118.19,-136.62z"/>
      <path class="fil2" d="M7759.47 6653.28c3.88,3.13 11.4,9.52 15.28,12.66 -18.3,26.44 -42.99,47.88 -70.18,64.67l-8.65 4.01c19.05,-28.83 42.23,-54.4 63.55,-81.34z"/>
      <path class="fil2" d="M6742.12 7260.9c9.4,-0.63 28.45,-2 37.97,-2.63l5.26 -0.38c7.14,18.3 14.54,36.85 21.56,55.52 -15.42,1.88 -30.58,1.51 -45.49,-1.25 -8.02,-16.54 -13.41,-34.09 -19.3,-51.26z"/>
      <path class="fil2" d="M7537.5 7670.88c-2.76,-31.96 29.83,-44.49 47.88,-64.17 28.07,28.58 50.88,61.66 74.07,94.25 -5.01,-3.39 -15.04,-10.4 -20.05,-13.91 -35.09,2.26 -68.81,-6.39 -101.89,-16.17z"/>
     </g>
     <g>
      <g>
       <path class="fil3" d="M5088.45 587.82c14.66,-14.54 30.71,-27.7 49.5,-36.6 0.5,57.28 -30.33,107.41 -46,160.93 -52.27,145.89 -86.61,297.55 -112.93,450.08 -24.44,131.1 -19.8,265.08 -14.66,397.19 -5.01,43.24 -5.64,103.15 38.22,126.84 27.08,69.31 52.39,143.01 107.04,196.03 44.74,43.49 78.08,96.63 120.19,142.51 87.61,96.51 166.32,200.91 237.51,310.08 -44.49,-7.9 -86.11,-26.82 -127.72,-43.49 -20.81,-17.8 -46.63,-27.82 -73.69,-29.95 17.42,7.15 36.97,11.28 50.76,25.19 66.05,59.54 144.76,101.77 215.95,154.03 41.11,62.04 80.47,125.71 111.67,193.39 -78.46,-15.79 -149.15,-59.28 -227.99,-74.7 46.63,16.04 80.09,53.77 122.08,77.96 57.03,39.11 112.3,80.84 172.71,114.81l1.88 3.88c61.16,127.59 127.09,252.8 186.87,381.02 111.3,233.62 282.88,430.77 457.35,619.03 227.36,228.23 475.89,444.44 769.68,582.43 3.5,9.15 7.39,18.3 11.53,27.45 21.18,35.1 36.1,75.58 66.8,104.03l3.76 0.38c15.04,1.13 30.2,2.38 45.37,3.88l-3.13 1.88c-14.29,3.13 -28.45,5.77 -42.74,7.9 47.63,79.21 109.8,152.41 184.5,207.18l-11.41 14.92c41.11,8.9 74.7,35.72 112.92,52.14 89.62,40.36 181.11,79.21 278.12,97.89 75.2,16.17 152.66,10.78 229.11,12.53 1.89,47.13 12.91,93.25 17.67,140.13 -18.05,65.17 -17.55,142 -68.43,192.76 -48.38,49.01 -107.53,85.35 -163.06,125.33 -55.4,41.87 -125.71,51.76 -190.51,70.94 -83.1,23.82 -171.71,-3.63 -253.93,24.57 52.51,49.76 105.4,103.28 174.46,129.72 36.1,13.92 72.57,27.07 108.29,42.49 48.51,22.31 102.9,22.94 153.79,37.47 -34.09,32.34 -64.67,68.31 -100.52,98.77 -147.39,112.68 -296.92,222.47 -444.44,334.9 -55.39,32.21 -115.06,60.16 -178.23,72.44 -97.89,11.53 -196.65,3.26 -294.79,4.01 -46.63,-57.66 -118.69,-77.83 -186.5,-98.01 -29.58,-13.04 -62.04,-15.29 -93.13,-22.43 -39.48,-25.94 -69.94,-63.17 -104.03,-95.51 83.84,-9.65 164.94,25.32 248.79,13.67 -6.77,-12.91 -12.78,-25.7 -22.68,-36.1 -32.58,-19.93 -64.92,-40.99 -101.02,-53.77 -50.39,-16.92 -107.79,-0.13 -145.14,36.35 -64.3,-43.37 -115.81,-102.14 -167.95,-158.8 -29.21,-35.22 -77.84,-46.12 -105.16,-83.22 -39.35,-51.64 -97.89,-92 -114.81,-157.67 -11.91,-45.87 -33.96,-89.24 -40.98,-136.24 21.93,-43.37 57.4,-77.58 85.98,-116.44 29.58,-36.1 54.4,-77.46 91.74,-106.28 206.05,34.59 417.61,3.26 614.52,-62.04 18.93,-7.27 34.09,-21.3 50.26,-33.08 69.69,-34.22 142.51,-70.94 222.35,-68.68 -8.65,63.54 -69.19,97.51 -119.19,127.09 -139.25,82.85 -303.31,101.15 -459.1,132.61 193.39,38.6 401.57,27.07 579.93,-61.91 96.01,-50.63 193.39,-105.66 262.45,-191.51 -115.44,-8.9 -230.62,-36.35 -332.64,-92.37 -260.32,-138 -458.47,-370.12 -604.37,-622.04 -51.01,-88.98 -140.38,-156.17 -241.14,-176.72 -44.49,-3.26 -89.24,3.01 -133.73,-2.13 -32.96,-2.38 -65.93,1.26 -98.76,-0.38 -21.43,-16.92 -34.09,-41.99 -48.01,-64.8 -33.72,-59.66 -72.07,-117.31 -95.38,-182.23 -27.07,-77.83 -73.7,-147.39 -96.88,-226.73 -73.2,-187.12 -114.68,-386.41 -210.19,-564.76 -78.08,-164.69 -163.18,-329.88 -291.65,-461.74 -54.52,-53.77 -105.03,-113.43 -170.33,-154.66 -46,-28.7 -87.61,-75.33 -147.39,-65.55 46.88,89.86 117.06,181.48 102.9,288.4 -46.5,-1.38 -92.37,-9.65 -138.88,-12.41 -101.64,-4.38 -200.03,-35.97 -293.66,-73.94 -99.89,-49.01 -176.1,-132.61 -261.33,-202.04 -49.38,-43.49 -106.28,-77.21 -155.54,-120.7 -29.83,-25.56 -54.52,-62.04 -97.76,-63.67 -3.76,-3.51 -11.16,-10.65 -14.92,-14.28 -3.88,-4.26 -11.53,-12.91 -15.28,-17.17 41.11,222.84 197.78,416.86 400.56,515 71.57,40.99 151.53,61.66 231.75,78.21 43.12,35.47 123.08,9.52 142.13,72.32 38.98,85.6 90.49,165.32 121.7,254.43 57.15,163.07 129.85,330.01 107.41,507.11 -52.02,44.12 -90.49,100.64 -119.69,161.81 -46.38,65.92 -82.22,139.75 -139.88,197.28 -45.37,55.77 -100.02,107.29 -169.2,131.22 -70.94,27.45 -148.02,22.56 -222.47,29.21 -16.04,144.01 -5.26,289.65 -6.77,434.41 -3.5,138.75 14.79,276.49 31.46,413.86 20.43,105.53 28.83,213.32 58.03,317.22 72.94,243.27 165.69,484.67 311.08,694.73 -12.16,4.88 -24.19,9.65 -36.22,14.66 -70.06,-58.03 -167.82,-91.37 -205.3,-180.48 -110.67,-217.58 -193.76,-447.82 -274.61,-677.69 -44.99,-152.41 -99.89,-302.18 -131.6,-458.1 -25.19,-116.56 -49.76,-233.75 -58.79,-352.94 21.81,-63.8 9.15,-131.35 12.79,-197.03 2.26,-36.97 0.13,-74.07 -11.91,-109.29 3.76,-90.12 29.2,-179.24 80.21,-254.18 73.57,-100.39 165.19,-186.25 264.83,-260.45 -2.88,0.38 -8.52,1.13 -11.41,1.38 -48.01,-25.32 -101.65,-3.26 -151.15,4.01 -109.92,23.69 -211.82,73.69 -312.09,123.2 -236.13,-116.18 -438.8,-288.15 -621.41,-475.39 -195.02,-192.14 -370.11,-403.33 -534.18,-621.91 -8.65,-29.33 -24.32,-56.9 -57.03,-61.54 11.15,78.96 24.69,157.67 23.31,237.76 7.52,150.02 28.45,299.42 31.09,449.57 -21.05,69.94 -48.63,138.12 -80.84,203.8 -32.34,72.06 -70.06,145.89 -135.36,193.64 -17.8,8.65 -12.66,26.19 -4.64,39.85 8.4,-1.63 25.2,-5.01 33.59,-6.64 87.23,-12.91 174.09,-29.46 255.43,-64.8 54.02,65.93 42.74,158.05 55.9,237.39 16.55,84.47 33.22,169.45 34.47,255.81 -48.25,-4.26 -88.86,-32.46 -133.73,-47.88 -75.08,-24.57 -139.25,-71.57 -209.81,-105.66 -70.31,-39.36 -129.47,-95.63 -188,-150.15 -58.03,-54.02 -84.86,-130.47 -133.11,-191.64 -41.36,95.26 -52.64,199.41 -61.66,301.93 -23.56,145.39 -10.4,293.03 -13.91,439.68 14.92,245.9 52.77,491.18 122.45,727.82 42.36,116.56 64.05,240.64 121.45,351.57 37.98,95.25 78.83,189.38 120.19,283.13 28.07,53.27 55.52,106.91 74.95,164.06 80.09,176.47 182.99,341.28 283.89,506.23 38.1,67.68 83.47,131.1 133.36,190.64 52.14,62.16 89.36,134.86 141,197.4 44.74,53.39 72.45,117.81 110.05,175.84 0.76,-6.39 2.38,-19.05 3.13,-25.44 74.32,164.06 146.64,330.01 242.9,482.79 5.14,11.91 18.92,23.44 14.79,37.85 -63.55,241.15 -156.79,474.27 -274.86,693.86 -316.97,-154.54 -608.88,-357.46 -877.09,-585.31 -86.48,-67.3 -161.56,-147.77 -244.03,-219.71 -326.87,-322.24 -617.28,-682.7 -851.9,-1077.63 -27.95,-36.23 -13.28,-84.85 -31.71,-124.59 -23.94,-54.77 -73.07,-92.25 -106.16,-140.75 -11.03,-27.07 -19.3,-55.15 -26.45,-83.35 36.73,24.19 85.23,86.23 129.72,42.11 29.83,-72.19 57.28,-145.51 87.11,-217.7 21.18,-51.01 70.82,-103.78 43.24,-161.94 -25.82,-47.13 -65.8,-84.72 -90.61,-132.48 -27.95,-53.52 -63.04,-102.52 -100.77,-149.4 -75.7,-111.67 -146.14,-227.61 -233.75,-330.38 -31.21,-40.99 -56.4,-85.98 -86.61,-127.59 -54.27,-66.81 -46.88,-158.3 -51.01,-239.02 -0.5,-271.73 -0.63,-543.32 0.5,-815.05 -0.5,-55.4 12.91,-110.42 6.4,-165.94 -0.5,-5.39 -1.38,-16.17 -1.76,-21.56 -27.32,36.35 -50.01,75.83 -67.93,117.57 -36.97,84.72 -80.59,167.07 -108.16,255.68 -16.16,51.76 -31.33,103.9 -53.39,153.53 -23.31,-73.32 -15.41,-151.15 -18.55,-226.86 0.88,-162.81 -6.27,-326.24 11.53,-488.43 10.15,-141.51 35.22,-281.38 55.15,-421.76 61.66,-309.7 156.67,-613.39 289.15,-900.15 31.83,-60.91 57.65,-124.58 89.11,-185.62 4.38,-1.38 13.16,-4.01 17.55,-5.26 30.71,129.34 98.51,244.53 155.04,363.47 0.38,-14.41 0.63,-28.95 0.63,-43.37l-6.77 2.01c4.89,-27.07 6.02,-54.64 4.26,-81.97 13.79,-122.96 -1,-246.66 4.76,-369.87 2,-39.98 -2,-79.71 -6.65,-119.31 0.25,-12.04 0.63,-24.07 0.88,-35.98l0.13 -3.63c11.66,-9.02 23.31,-17.93 34.97,-26.95 6.64,65.68 35.47,125.59 57.15,187.13 22.94,68.93 69.06,127.09 92.37,195.9 0.25,-3.76 0.63,-11.41 0.88,-15.16 6.52,-47.88 -4.01,-95.13 -7.64,-142.63 -3.88,-123.95 -6.02,-248.66 13.03,-371.61 6.52,-7.9 13.29,-15.67 19.93,-23.44 37.1,-6.77 63.8,-38.85 101.9,-43.49 144.01,-27.82 286.77,-71.69 434.79,-70.07 74.45,-7.15 149.65,-18.55 224.35,-6.02 77.58,13.16 158.3,2.13 234,26.7 56.15,16.92 115.18,23.94 168.95,48.51 -76.08,64.17 -174.22,98.01 -242.02,172.34 -71.94,74.82 -142.26,163.43 -151.78,270.6 53.27,-28.45 100.9,-66.3 155.67,-92.25 53.65,-35.1 117.07,-48.38 173.97,-76.58 32.46,-15.41 66.05,-28.45 100.89,-37.48 79.71,-19.93 157.05,-48.88 238.39,-62.54 52.51,-9.53 106.03,-15.04 157.8,-28.7 54.52,-15.29 111.42,-8.28 167.07,-14.54 195.15,-28.08 393.17,-21.43 589.7,-16.04 82.22,6.39 164.06,18.3 246.15,26.07 18.43,130.22 50.01,261.32 112.8,377.76 78.59,173.84 164.19,346.8 284.26,496.33 11.03,13.41 21.81,27.32 28.7,43.62 6.89,15.16 13.41,30.58 20.18,46 41.73,-20.43 22.56,-67.06 20.67,-103.03 -8.77,-130.22 11.16,-259.95 28.83,-388.66 4.14,-27.82 13.41,-54.52 22.43,-80.97 8.27,-0.13 24.94,-0.38 33.21,-0.5 46.12,54.65 105.28,103.91 176.72,119.57 -15.16,-36.47 -36.98,-72.07 -37.72,-112.67 -5.27,-101.4 13.78,-202.04 9.9,-303.44 2.76,-1.76 8.27,-5.26 11.03,-7.02 -1.63,-98.52 23.06,-194.77 48.51,-289.15 27.19,-83.72 56.4,-169.45 110.92,-239.89 43.62,-27.45 65.68,-75.08 96.38,-114.43 48.88,-63.92 106.03,-120.57 163.81,-176.22 17.93,-15.79 28.45,-37.23 37.73,-58.66zm-2367.95 1276.04l0 0c-27.2,9.15 -50.89,26.57 -67.56,49.88 41.11,68.81 92.12,130.47 131.73,199.91 56.65,65.3 95.63,145.39 162.18,202.17 31.33,26.82 57.03,59.66 87.24,87.86 65.05,64.8 140.12,118.19 211.31,175.97 61.67,50.01 125.46,100.14 201.16,126.97 119.19,55.52 238.76,111.8 365.48,148.52 13.28,7.02 44.74,-2.76 31.83,-20.81 -39.6,-66.55 -65.67,-139.75 -93.38,-211.81 -60.78,-110.05 -75.58,-238.26 -129.47,-351.57 -26.07,-117.81 -54.9,-235.88 -64.42,-356.7 -3.63,-29.71 4.51,-62.04 -6.65,-90.12 -38.73,-39.98 -100.27,-37.73 -151.65,-43.49 -100.9,-0.76 -202.04,-9.53 -302.69,0.25 -126.59,19.93 -251.92,47.63 -375.12,82.97zm-1108.72 180.61l0 0c-47.5,73.07 -103.52,140.25 -151.52,213.2 -20.56,28.7 -53.4,46 -72.95,75.58 -13.66,41.24 -2.88,85.35 12.91,124.46 26.32,68.81 28.2,145.51 63.54,211.06 21.56,42.24 23.31,90.99 41.99,134.48 40.48,102.77 45.62,215.08 83.85,318.48 24.82,85.1 37.85,173.34 67.93,256.93 11.28,33.09 16.55,67.93 21.93,102.4 8.27,55.02 29.71,107.16 34.97,162.81 5.77,26.82 3.63,62.41 30.58,78.46 5.26,-71.31 6.27,-143.51 -0.13,-214.7 -16.67,-76.58 -3.88,-155.54 -17.92,-232.5 -20.06,-246.78 -43,-494.7 -107.29,-734.71 -13.91,-51.76 -27.33,-110.42 -0.13,-160.18 33.46,-66.3 54.89,-137.62 78.33,-207.8 12.53,-77.58 28.95,-154.66 38.6,-232.87 5.64,-42.49 19.93,-85.98 5.14,-128.35 -59.03,67.93 -90.36,153.66 -129.85,233.25zm3099.91 137.62l0 0c6.02,10.4 14.66,17.55 25.94,21.68 89.36,35.47 175.85,79.09 256.81,131.1 81.73,64.43 158.55,134.86 231.25,209.44 27.57,26.45 51.89,58.91 88.86,73.07 -5.14,-57.4 -35.72,-109.29 -71.31,-153.16 -60.04,-77.83 -127.22,-156.04 -219.59,-195.52 -97.64,-44.86 -201.04,-98.89 -311.96,-86.61zm1445.24 1600.03l0 0c7.65,27.2 15.54,54.39 21.8,82.09 -112.17,27.82 -226.98,45.87 -338.91,75.83 170.46,0.63 345.43,-22.18 511.62,27.45 5.64,-50.76 -19.55,-105.15 -67.56,-126.21 -42.23,-19.81 -81.09,-48.13 -126.96,-59.16zm-205.3 284.26l0 0c39.48,5.52 79.58,6.14 119.19,0.5 -34.72,-21.56 -84.1,-20.43 -119.19,-0.5z"/>
      </g>
     </g>
     <g>
      <path class="fil4" d="M4191.3 1464.04c276.62,-313.84 581.18,-602.36 897.15,-876.22 -9.28,21.43 -19.8,42.86 -37.73,58.66 -57.78,55.65 -114.93,112.3 -163.81,176.22 -30.71,39.35 -52.77,86.98 -96.38,114.43 1.63,-4.89 5.01,-14.66 6.65,-19.55 -26.7,44.37 -70.57,73.19 -103.91,111.8 -114.3,125.46 -221.84,261.07 -289.9,417.99 -15.41,-14.04 -31.21,-28.07 -46.62,-41.87 -2.63,56.4 -5.64,114.18 10.15,169.08 20.43,71.56 60.04,135.86 104.28,195.14 -8.27,0.13 -24.94,0.38 -33.21,0.5 -9.02,26.44 -18.3,53.14 -22.43,80.97 -17.67,128.72 -37.6,258.44 -28.83,388.66 1.89,35.97 21.06,82.6 -20.67,103.03 -6.77,-15.42 -13.29,-30.84 -20.18,-46 4.89,0.5 14.66,1.63 19.55,2.13l7.02 1.13c-86.48,-271.85 -170.58,-548.97 -181.11,-836.11z"/>
      <path class="fil4" d="M1320.25 1282.68c210.44,-239.64 453.34,-449.07 707.9,-640.33 26.69,8.65 53.39,17.04 79.84,26.44 -7.52,29.58 -38.73,39.48 -60.16,56.65 -106.29,73.44 -197.4,177.6 -227.98,305.82l18.42 1.38c-0.63,3.88 -2,11.66 -2.63,15.54 61.41,-37.98 130.6,-60.16 197.28,-86.86 179.6,-72.69 369.49,-127.85 563.51,-140.13 109.54,27.95 217.33,64.92 325.12,100.02l11.41 -4.76c-123.33,67.18 -245.16,139 -351.69,231.25 -27.57,25.82 -50.88,56.65 -84.85,74.45 15.04,47.5 65.3,17.67 97.51,8.02 255.05,-31.59 509.48,-77.21 753.51,-159.68 208.81,82.22 419.12,160.93 625.55,249.41 -10.78,15.42 -22.31,30.34 -31.46,46.88 -10.28,55.02 15.04,107.66 25.57,160.68 17.17,77.96 51.26,151.16 65.8,229.49 -62.79,-116.44 -94.38,-247.54 -112.8,-377.76 -82.09,-7.77 -163.93,-19.68 -246.15,-26.07 -196.53,-5.39 -394.55,-12.04 -589.7,16.04 -55.65,6.26 -112.55,-0.76 -167.07,14.54 -51.76,13.66 -105.29,19.17 -157.8,28.7 -81.35,13.66 -158.68,42.61 -238.39,62.54 -34.84,9.03 -68.43,22.06 -100.89,37.48 -56.9,28.2 -120.32,41.49 -173.97,76.58 -54.77,25.94 -102.4,63.79 -155.67,92.25 9.52,-107.16 79.84,-195.78 151.78,-270.6 67.8,-74.32 165.94,-108.16 242.02,-172.34 -53.77,-24.57 -112.8,-31.59 -168.95,-48.51 -75.71,-24.57 -156.42,-13.54 -234,-26.7 -74.7,-12.53 -149.9,-1.13 -224.35,6.02 -148.02,-1.63 -290.78,42.24 -434.79,70.07 -38.1,4.63 -64.8,36.72 -101.9,43.49z"/>
      <path class="fil4" d="M6312.22 1245.7c23.19,-2.13 46.88,-1.76 69.18,6.52 -165.94,100.77 -328.88,208.94 -470.38,342.54 -121.33,116.81 -240.27,238.01 -337.02,376.25 -5.39,0.13 -15.92,0.13 -21.31,0.25 -83.97,-125.46 -211.31,-211.31 -326.87,-305.19 83.6,-76.84 187.25,-126.34 284.38,-183.49 261.45,-133.61 550.35,-232.37 847.02,-227.48 -15.04,-3.38 -30.08,-6.52 -44.99,-9.4z"/>
      <path class="fil4" d="M1110.44 2008.24c-17.8,-162.18 -13.66,-326.62 -1.88,-489.18 4.64,39.6 8.65,79.33 6.65,119.31 -5.77,123.21 9.02,246.91 -4.76,369.87z"/>
      <path class="fil4" d="M4964.37 1559.42c3.88,-1 11.78,-3.01 15.66,-4.01 -0.37,18.3 -0.63,36.6 -0.75,55.02 8.65,-1.76 25.94,-5.39 34.59,-7.15l-7.4 6.27c-25.57,17.04 -4.89,53.02 -3.89,76.7 -43.86,-23.69 -43.24,-83.6 -38.22,-126.84z"/>
      <path class="fil4" d="M2720.5 1863.86c123.2,-35.35 248.54,-63.04 375.12,-82.97 100.65,-9.78 201.79,-1.01 302.69,-0.25 51.39,5.76 112.92,3.51 151.65,43.49 11.15,28.07 3.01,60.41 6.65,90.12 9.52,120.82 38.35,238.89 64.42,356.7 53.89,113.3 68.68,241.52 129.47,351.57 27.7,72.07 53.77,145.26 93.38,211.81 12.91,18.05 -18.55,27.82 -31.83,20.81 -126.72,-36.72 -246.28,-93 -365.48,-148.52 -75.7,-26.83 -139.5,-76.96 -201.16,-126.97 -71.19,-57.78 -146.26,-111.17 -211.31,-175.97 -30.21,-28.2 -55.9,-61.04 -87.24,-87.86 -66.55,-56.78 -105.53,-136.87 -162.18,-202.17 -39.61,-69.44 -90.62,-131.1 -131.73,-199.91 16.67,-23.31 40.36,-40.74 67.56,-49.88z"/>
      <path class="fil4" d="M1611.78 2044.47c39.48,-79.59 70.82,-165.32 129.85,-233.25 14.79,42.37 0.5,85.86 -5.14,128.35 -9.65,78.21 -26.07,155.29 -38.6,232.87 -23.44,70.19 -44.87,141.5 -78.33,207.8 -27.2,49.76 -13.79,108.42 0.13,160.18 64.29,240.02 87.23,487.93 107.29,734.71 14.04,76.96 1.25,155.92 17.92,232.5 6.4,71.19 5.39,143.38 0.13,214.7 -26.95,-16.04 -24.82,-51.64 -30.58,-78.46 -5.26,-55.65 -26.7,-107.79 -34.97,-162.81 -5.39,-34.47 -10.65,-69.31 -21.93,-102.4 -30.08,-83.6 -43.11,-171.83 -67.93,-256.93 -38.23,-103.4 -43.37,-215.7 -83.85,-318.48 -18.67,-43.49 -20.43,-92.25 -41.99,-134.48 -35.34,-65.55 -37.22,-142.25 -63.54,-211.06 -15.79,-39.11 -26.57,-83.22 -12.91,-124.46 19.55,-29.58 52.39,-46.88 72.95,-75.58 48,-72.95 104.03,-140.13 151.52,-213.2z"/>
      <g>
       <path class="fil4" d="M3943.64 2171.68c43.23,1.63 67.93,38.11 97.76,63.67 49.26,43.49 106.16,77.21 155.54,120.7 85.23,69.44 161.44,153.03 261.33,202.04 93.63,37.98 192.01,69.56 293.66,73.94 46.5,2.76 92.37,11.03 138.88,12.41 14.16,-106.91 -56.02,-198.53 -102.9,-288.4 59.78,-9.78 101.39,36.85 147.39,65.55 65.3,41.23 115.81,100.89 170.33,154.66 128.47,131.85 213.57,297.04 291.65,461.74 95.5,178.35 136.99,377.63 210.19,564.76 23.19,79.34 69.81,148.9 96.88,226.73 23.31,64.92 61.66,122.58 95.38,182.23 13.91,22.81 26.57,47.88 48.01,64.8 32.83,1.63 65.8,-2.01 98.76,0.38 -52.27,13.04 -102.77,31.71 -154.16,47.63 100.39,19.68 210.81,1.63 301.3,58.79 27.2,11.53 18.68,43.99 21.93,67.3 -100.89,11.15 -198.53,41.36 -292.78,77.96 109.92,1.63 219.97,-8.65 329.88,-1.13 -40.61,101.15 -78.71,207.43 -66.93,318.48 0.13,72.95 43.24,133.99 79.96,193.39 -14.92,11.16 -27.2,30.09 -48,28.58 -72.19,1.26 -134.86,-40.61 -199.53,-66.93 67.3,140.5 234.63,200.53 382.39,191.51 -0.75,11.15 -1.38,22.18 -2,33.46 -62.04,18.43 -127.35,35.34 -192.26,21.56 -110.18,-12.54 -214.95,-49.26 -318.35,-86.99 129.47,116.82 307.07,166.57 479.15,160.43 172.46,7.27 343.42,-29.71 504.85,-88.36 -16.17,11.78 -31.33,25.82 -50.26,33.08 -196.9,65.3 -408.47,96.63 -614.52,62.04 -37.35,28.83 -62.16,70.19 -91.74,106.28 -28.58,38.85 -64.05,73.07 -85.98,116.44 7.02,47 29.08,90.36 40.98,136.24 16.92,65.68 75.46,106.03 114.81,157.67 27.32,37.1 75.95,48 105.16,83.22 52.14,56.65 103.65,115.43 167.95,158.8 -4.13,4.51 -12.54,13.41 -16.79,17.8 55.15,2.63 110.17,7.02 165.07,12.29 32.84,1.25 69.94,9.9 97.89,-12.66 9.9,10.4 15.92,23.19 22.68,36.1 -83.85,11.65 -164.94,-23.31 -248.79,-13.67 34.09,32.34 64.55,69.56 104.03,95.51 31.08,7.15 63.55,9.4 93.13,22.43 -75.46,6.77 -157.92,-17.17 -226.61,24.82 -37.1,29.2 -61.92,72.44 -104.03,96.01 -145.52,84.22 -316.98,128.47 -485.05,113.92 -29.83,73.2 -12.41,152.29 3.26,226.36 66.05,30.71 131.73,65.55 179.48,122.33 155.79,124.58 281.38,281.13 415.23,427.89 61.91,76.21 131.22,146.39 187.13,227.48 -40.11,-3.26 -68.68,-33.96 -100.02,-55.27 -302.68,-232.63 -608.75,-460.49 -908.93,-696.24 -59.41,-48.38 -124.71,-94.25 -162.06,-163.19 -46.63,-83.22 -104.28,-161.44 -138.37,-250.92 -0.88,1.51 -2.76,4.39 -3.63,5.89 -14.29,13.92 -12.91,33.96 -12.79,52.39 0.76,53.65 4.26,107.41 3.51,161.31 -43.87,-3.89 -102.27,4.76 -130.22,-37.6 -105.66,-162.06 -225.85,-314.09 -353.82,-458.98 -39.85,-51.39 -80.84,-101.89 -123.58,-150.9 68.68,101.52 108.66,218.71 170.45,324.24 10.91,19.05 9.78,41.99 13.54,63.17 -58.78,-38.1 -116.94,-77.33 -175.72,-115.18 12.04,-5.01 24.07,-9.78 36.22,-14.66 -145.39,-210.06 -238.14,-451.46 -311.08,-694.73 -29.21,-103.91 -37.6,-211.69 -58.03,-317.22 -16.67,-137.37 -34.97,-275.11 -31.46,-413.86 1.51,-144.76 -9.27,-290.4 6.77,-434.41 74.45,-6.65 151.53,-1.76 222.47,-29.21 69.19,-23.94 123.83,-75.45 169.2,-131.22 57.66,-57.53 93.5,-131.35 139.88,-197.28 29.2,-61.17 67.68,-117.69 119.69,-161.81 22.43,-177.09 -50.26,-344.04 -107.41,-507.11 -31.21,-89.11 -82.72,-168.82 -121.7,-254.43 -19.05,-62.79 -99.01,-36.85 -142.13,-72.32 31.21,2.01 62.41,3.01 93.75,3.89l-6.14 -19.43c-275.36,-113.06 -513,-307.58 -689.72,-546.21zm881.35 2063.14l0 0 5.64 18.05 -11.78 -6.52c19.05,69.69 16.67,141.75 19.81,213.2 13.03,173.22 -14.29,345.68 -20.43,518.51 85.1,15.17 170.33,33.34 249.92,68.05 -2.26,104.53 9.9,209.94 38.97,310.46 9.65,-43.86 12.66,-88.61 13.79,-133.36 1,-46.88 18.17,-90.99 26.44,-136.62 61.66,11.16 111.67,51.64 166.32,79.71 59.66,36.48 123.83,67.56 175.84,115.06 -9.77,-12.54 -19.55,-25.19 -29.46,-37.35 -34.84,-74.2 -96.13,-131.22 -148.52,-192.76 -84.35,-101.02 -182.36,-189.76 -289.15,-266.34 -13.54,-72.57 -28.7,-145.01 -53.77,-214.7 -41.86,-114.18 -79.46,-231.24 -143.63,-335.4zm769.81 2058.38l0 0c-28.83,54.27 -41.74,133.23 9.15,178.6 40.99,50.51 101.02,82.09 135.36,138.5 -31.71,-60.79 -74.2,-115.18 -107.03,-175.22 -20.43,-32.59 -17.05,-74.83 -6.77,-110.05 33.59,-47.75 77.21,-87.49 114.18,-132.61 -48.75,32.34 -122.07,39.73 -144.89,100.77z"/>
      </g>
      <path class="fil4" d="M4711.69 2182.08c110.92,-12.28 214.32,41.74 311.96,86.61 92.37,39.48 159.55,117.69 219.59,195.52 35.6,43.87 66.17,95.76 71.31,153.16 -36.97,-14.16 -61.29,-46.62 -88.86,-73.07 -72.69,-74.57 -149.52,-145.01 -231.25,-209.44 -80.96,-52.01 -167.45,-95.63 -256.81,-131.1 -11.28,-4.13 -19.93,-11.28 -25.94,-21.68z"/>
      <path class="fil4" d="M2611.71 2441.28c32.71,4.63 48.38,32.21 57.03,61.54l-13.66 -9.27c-5.64,-3.76 -17.04,-11.15 -22.69,-14.79 66.68,209.44 148.15,414.36 244.91,611.76 -101.77,143.89 -193.52,301.81 -338.65,407.21 -22.81,19.05 -46.5,38.48 -76.08,45.62 2.88,2.88 8.78,8.65 11.78,11.41l4.51 4.51c-8.39,1.63 -25.19,5.01 -33.59,6.64 -8.02,-13.66 -13.16,-31.21 4.64,-39.85 65.3,-47.76 103.02,-121.58 135.36,-193.64 32.21,-65.68 59.79,-133.86 80.84,-203.8 -2.63,-150.15 -23.57,-299.55 -31.09,-449.57 1.38,-80.09 -12.16,-158.8 -23.31,-237.76z"/>
      <path class="fil4" d="M2734.28 3494.46c101.4,-35.1 191.89,-94.25 275.86,-159.93 120.45,188.38 260.69,362.6 404.33,533.55 46.12,266.09 85.1,534.18 102.27,803.9 2.38,169.2 9.02,342.04 -42.11,505.72 -32.08,128.1 -113.18,253.18 -240.14,303.31 -39.61,-119.69 -62.67,-244.53 -66.93,-370.62 -2.39,-54.89 0.37,-110.42 -9.53,-164.69 -1.13,-5.51 -3.38,-16.54 -4.51,-22.06 -89.23,125.46 -154.79,273.11 -154.41,429.52 -40.86,-91.24 -86.86,-180.61 -115.56,-276.62 -66.18,-198.4 -123.33,-400.69 -155.04,-607.5 1,-8.14 3,-24.44 4,-32.58l-18.67 16.41c-10.15,135.49 -27.07,270.85 -24.19,407.09 -2.63,113.43 9.4,226.23 18.55,339.03 26.94,224.1 63.55,448.45 134.86,663.39 31.21,92.12 56.28,186.63 94.88,276.24 8.77,28.32 8.52,59.53 23.56,85.85 28.2,51.89 42.49,109.55 65.68,163.57 51.01,140.87 112.17,277.87 167.7,417.11 -0.75,6.4 -2.38,19.05 -3.13,25.44 -37.6,-58.03 -65.3,-122.45 -110.05,-175.84 -51.64,-62.54 -88.86,-135.24 -141,-197.4 -49.88,-59.53 -95.25,-122.96 -133.36,-190.64 -100.89,-164.94 -203.79,-329.76 -283.89,-506.23 -19.43,-57.15 -46.88,-110.8 -74.95,-164.06 -41.36,-93.75 -82.22,-187.88 -120.19,-283.13 -57.4,-110.93 -79.09,-235 -121.45,-351.57 -69.69,-236.64 -107.53,-481.91 -122.45,-727.82 3.51,-146.64 -9.65,-294.29 13.91,-439.68 9.03,-102.52 20.31,-206.68 61.66,-301.93 48.25,61.17 75.08,137.62 133.11,191.64 58.53,54.52 117.69,110.79 188,150.15 70.57,34.09 134.74,81.09 209.81,105.66 44.87,15.41 85.48,43.61 133.73,47.88 -1.25,-86.36 -17.92,-171.33 -34.47,-255.81 -13.16,-79.34 -1.88,-171.46 -55.9,-237.39z"/>
      <path class="fil4" d="M725.17 3540.21c6.39,-16.41 12.91,-32.96 19.43,-49.25 6.52,55.52 -6.9,110.55 -6.4,165.94 -1.13,271.73 -1,543.32 -0.5,815.05 4.13,80.72 -3.26,172.21 51.01,239.02 30.21,41.61 55.4,86.61 86.61,127.59 87.61,102.77 158.05,218.71 233.75,330.38 37.73,46.88 72.82,95.88 100.77,149.4 24.82,47.76 64.8,85.35 90.61,132.48 27.58,58.16 -22.05,110.92 -43.24,161.94 -29.83,72.19 -57.28,145.51 -87.11,217.7 -44.49,44.12 -93,-17.93 -129.72,-42.11 7.15,28.2 15.41,56.27 26.45,83.35 -52.52,-40.99 -61.54,-111.8 -93.63,-166.7 -66.43,-122.45 -107.66,-256.43 -165.57,-382.4 -38.35,-109.92 -66.17,-223.22 -111.42,-330.76 -24.07,-105.03 -58.03,-207.81 -84.98,-312.34 -14.41,-127.59 7.27,-255.18 13.66,-382.52 18.43,-169.7 39.73,-338.91 62.92,-507.86 10.03,-83.47 33.34,-164.81 37.35,-248.92z"/>
      <path class="fil4" d="M3953.92 3986.16c12.03,35.22 14.16,72.32 11.91,109.29 -3.63,65.67 9.03,133.23 -12.79,197.03 -12.78,-101.27 -13.28,-205.05 0.88,-306.32z"/>
      <path class="fil4" d="M5951.63 4066.37c35.1,-19.93 84.47,-21.05 119.19,0.5 -39.61,5.64 -79.71,5.01 -119.19,-0.5z"/>
      <g>
       <path class="fil4" d="M8019.41 5008.76c4.88,22.43 8.9,45.24 13.54,67.93 5.39,0.88 16.29,2.5 21.68,3.38 -3.13,4.26 -9.65,12.79 -12.91,17.17 13.91,115.56 56.65,225.98 87.36,338.02 26.69,130.73 74.07,259.57 155.91,366.23 38.61,64.43 97.39,111.67 151.41,162.31 38.73,33.84 87.49,53.02 127.22,85.85 -31.58,69.31 -72.07,134.11 -103.53,203.54 -193.26,-146.76 -352.69,-331.88 -521.01,-505.6l4.76 10.53c28.2,70.94 74.57,132.1 111.3,198.53 82.6,140 170.46,277.24 270.6,405.33 14.54,19.8 34.47,36.22 44.37,59.16 -7.14,18.05 -14.41,36.23 -21.8,54.28 -78.34,-92.5 -150.41,-189.88 -223.6,-286.39 10.52,17.17 21.18,34.47 30.45,52.64 29.58,113.05 96.26,211.69 142.88,317.6 -85.1,183.74 -183.24,361.09 -274.23,541.95 -25.06,56.53 -74.95,94.76 -118.19,136.62 -103.91,103.4 -209.56,204.92 -312.96,308.82 -142.5,-121.2 -287.77,-239.01 -431.15,-359.08 -44.62,-39.73 -92.12,-76.08 -140.5,-110.92 -33.46,-27.32 -49.13,-69.82 -69.18,-106.79 -57.41,-135.99 -77.84,-284.26 -86.48,-430.53 -4.51,-67.3 13.16,-134.73 -1.5,-201.29 -9.4,-75.08 -51.64,-141 -101.77,-195.9 98.14,-0.75 196.9,7.52 294.79,-4.01 63.17,-12.29 122.83,-40.23 178.23,-72.44 147.52,-112.43 297.05,-222.22 444.44,-334.9 35.85,-30.46 66.43,-66.43 100.52,-98.77 -50.89,-14.54 -105.28,-15.16 -153.79,-37.47 -35.72,-15.42 -72.19,-28.58 -108.29,-42.49 -69.06,-26.44 -121.95,-79.96 -174.46,-129.72 82.22,-28.2 170.83,-0.75 253.93,-24.57 64.8,-19.18 135.11,-29.08 190.51,-70.94 55.52,-39.98 114.68,-76.33 163.06,-125.33 50.89,-50.76 50.39,-127.59 68.43,-192.76zm-602.99 1225.4l0 0c-58.4,31.96 -95.88,101.52 -91.11,168.2 -1.51,68.56 45.75,123.45 64.05,187 -1.13,-12.78 -1.63,-25.19 -3.14,-37.6l13.16 -10.78c-4.38,-79.46 -22.18,-173.47 34.22,-240.14 24.07,-35.47 72.44,-18.55 108.29,-20.81 -3.38,-2.63 -10.03,-7.64 -13.41,-10.15 -14.29,-43.12 -74.95,-43.99 -112.05,-35.72zm50.13 188l0 0c-50.13,60.54 -12.41,156.42 52.02,187.75 3,4.63 9.15,13.91 12.28,18.55 -9.65,-38.98 -27.57,-77.08 -24.94,-117.82 6.39,-1.88 19.18,-5.77 25.57,-7.65 9.65,25.7 23.69,55.15 52.14,64.42 60.41,24.57 118.19,55.27 175.85,85.86 -21.31,26.94 -44.5,52.51 -63.55,81.34l8.65 -4.01c47.12,9.15 87.98,-27.19 135.24,-26.95 -47.13,-96.75 -104.53,-189.25 -174.59,-271.1 -43.12,-62.16 -155.17,-79.59 -198.66,-10.4z"/>
      </g>
      <path class="fil4" d="M6720.56 7176.56c34.59,13.03 51.26,48 59.53,81.72 -9.52,0.63 -28.58,2 -37.97,2.63 -12.54,-26.7 -21.56,-54.77 -21.56,-84.35z"/>
     </g>
    </g>
    <path class="fil5" d="M6457.73 4922.28c36.6,10.4 75.08,6.52 112.55,4.01 19.31,-11.15 42.61,-9.27 64.17,-12.54 1.38,-4.64 4.14,-13.91 5.51,-18.55 -37.47,-18.93 -43.36,-64.05 -63.54,-96.88 -76.33,-127.97 -188.76,-228.99 -304.06,-321.23 -50.51,97.89 -52.89,227.1 13.04,319.23 42.61,57.77 98.76,113.05 172.33,125.96z"/>
    <path class="fil5" d="M6625.31 6219.25c-46.88,-42.62 -117.94,-61.29 -177.85,-37.73 -49.88,29.71 -84.98,79.58 -104.65,133.48 -12.16,52.39 -12.54,108.41 -0.13,160.93 10.03,44.74 32.71,85.1 50.88,126.97 -50.25,-52.39 -95.38,-111.05 -123.2,-178.48 -14.16,-32.96 -26.19,-66.8 -34.09,-101.64 -73.44,46.5 -161.81,35.6 -244.15,33.21 -25.69,2.63 -61.16,-7.9 -75.58,20.8 -15.17,30.09 -5.77,66.18 7.27,95.51 153.29,105.66 264.46,259.19 372.62,408.09 58.66,-2.51 119.57,-27.82 150.28,-80.47 22.31,-32.08 18.43,-72.82 20.56,-109.8 2.13,4.01 6.52,12.03 8.65,16.04 5.64,3.51 16.92,10.4 22.56,13.91 80.96,36.72 178.23,13.91 250.16,-33.96 -19.05,-64.05 -20.8,-130.85 -31.46,-196.03 -5.26,-37.22 1.38,-76.2 -11.41,-111.92 -12.16,-58.78 -36.6,-116.94 -80.47,-158.92z"/>
    <path class="fil5" d="M6696 6817.59c-43.24,1.01 -86.48,1.13 -129.72,1.13 -35.22,-12.53 -59.78,-39.6 -81.22,-68.81 1.13,52.77 -3.51,111.42 -45.5,149.27 -17.55,24.69 -55.27,26.57 -68.06,54.27 21.56,11.91 38.98,29.71 53.52,49.76 37.47,49.38 78.08,98.27 99.89,157.3 50.13,-36.85 107.66,-63.29 167.45,-80.21 -6.77,-31.33 -16.8,-61.79 -29.58,-90.99 26.69,27.45 40.36,64.18 64.67,93.5 58.41,-1.25 116.81,-1.38 175.34,-0.13 -0.63,-4.63 -1.63,-13.91 -2.13,-18.55 -27.57,-29.83 -51.64,-63.17 -65.67,-101.27 -6.14,-15.29 -11.91,-30.33 -18.3,-45.12 -8.4,-29.96 -15.54,-60.29 -23.31,-90.24 -0.62,-9.15 -1.88,-27.32 -2.5,-36.47 -31.09,11.03 -62.92,19.05 -94.88,26.57z"/>
    <path class="fil5" d="M8041.72 5097.25c13.91,115.56 56.65,225.98 87.36,338.03 32.21,-15.16 64.17,-30.71 96.51,-45.5 455.97,-241.4 840.87,-621.03 1073.49,-1082.76 24.32,-47.76 42.11,-98.39 65.93,-146.4 50.76,-108.92 79.08,-225.98 112.05,-341.04 27.82,-103.65 46.12,-209.93 51.01,-317.22 35.6,-378.26 20.18,-760.91 -42.99,-1135.41 -4.51,-22.43 -4.89,-45.24 -1.76,-67.68l0.88 -7.77c-21.94,-66.55 -40.61,-134.11 -56.53,-202.17 -4.26,-12.91 -8.02,-25.82 -11.28,-38.85 -4.76,-11.91 -8.27,-24.19 -10.78,-36.6 -17.67,-53.02 -32.96,-106.66 -51.89,-159.17 2.88,61.66 11.41,123.58 24.82,183.62 21.43,175.22 32.58,351.57 36.84,528.04 -6.64,134.11 -11.41,268.21 -25.56,401.7 -13.04,61.41 -13.04,125.58 -27.83,186.5 -15.54,124.71 -48.75,246.28 -85.6,366.1 -3.88,12.66 -7.64,25.32 -11.28,37.98 -31.71,115.56 -80.21,225.1 -129.97,333.77 -36.34,88.11 -91.24,166.7 -136.11,250.42 -162.44,251.92 -363.1,496.45 -637.46,630.56 -112.05,55.02 -233.62,96.63 -359.84,95.25 1.88,47.13 12.91,93.25 17.67,140.12 4.89,22.44 8.89,45.24 13.54,67.93 5.39,0.88 16.29,2.51 21.68,3.38 100.51,10.4 199.53,-18.67 290.52,-58.91 3.51,-8.27 10.78,-24.94 14.29,-33.34 5.26,0.88 15.67,2.51 20.93,3.38 -23.94,36.6 -71.82,47.13 -108.66,67.18 -70.94,35.97 -152.16,38.61 -229.99,38.85z"/>
    <path class="fil5" d="M7482.85 4634.52c213.45,-172.59 368.74,-409.73 462.99,-666.03 20.18,-44.11 27.82,-92.37 45.12,-137.49 1.63,77.08 -4.26,154.41 -12.66,231.12 3.76,2.13 11.41,6.39 15.16,8.52 30.71,-138 64.17,-275.49 87.86,-414.98 25.44,-123.83 37.22,-250.17 66.18,-373.25 -9.53,7.77 -18.8,15.79 -28.2,23.69 -18.55,83.35 -59.04,159.93 -99.77,234.25 -140.5,265.09 -366.1,475.89 -612.01,643.09 -71.95,40.11 -138,91.74 -215.33,121.33l-7.77 6.27c-19.43,14.54 -35.72,32.71 -46,54.89 21.18,35.1 36.1,75.58 66.8,104.03l3.76 0.38c89.36,-24.94 171.96,-69.69 235.63,-137.99 -48.38,65.67 -119.19,105.66 -190.26,141.87l-3.13 1.88c-14.29,3.13 -28.45,5.77 -42.74,7.9 47.63,79.21 109.8,152.41 184.5,207.18l-11.41 14.91c39.73,-14.54 68.43,-46.38 101.27,-71.56z"/>
    <path class="fil6" d="M526.13 3981.14c62.92,-148.52 124.96,-297.54 199.04,-440.93 6.39,-16.42 12.91,-32.96 19.42,-49.26 -0.5,-5.39 -1.38,-16.17 -1.75,-21.56 -27.32,36.35 -50.01,75.83 -67.93,117.57 -36.97,84.73 -80.59,167.07 -108.16,255.68 -16.16,51.76 -31.33,103.91 -53.39,153.53l-3.13 -5.77c1,13.41 2.13,26.95 3.13,40.61 3.76,-16.79 6.39,-34.09 12.78,-49.88z"/>
    <path class="fil7" d="M696.21 4991.84c-22.18,-58.29 -54.52,-113.81 -64.3,-175.97l-9.9 0.88c-2.01,-15.66 -4.63,-31.08 -9.15,-46.25 -1.13,119.82 28.83,238.38 67.55,351.19 29.33,91.37 73.2,176.97 107.79,266.21 22.94,54.9 49.01,108.41 74.95,161.93 -1.63,-38.73 -10.27,-76.33 -23.19,-112.55 -10.03,-38.48 -21.31,-76.58 -32.34,-114.68 -38.35,-109.92 -66.17,-223.22 -111.42,-330.76z"/>
   </g>
   <path class="fil8 str0" d="M6313.49 4510.55c-46.59,189.85 27.78,329.17 223.12,417.94"/>
   <path class="fil9" d="M6536.6 4928.48c-195.34,-88.77 -269.71,-228.08 -223.12,-417.94 -13.63,-11.3 -27.35,-22.43 -41.12,-33.45 -50.51,97.89 -52.89,227.1 13.04,319.23 42.61,57.77 98.76,113.05 172.33,125.96 25.7,7.31 52.32,7.56 78.87,6.21z"/>
   <path class="fil10" d="M6313.49 4510.55c-46.59,189.85 27.78,329.17 223.12,417.94 11.27,-0.58 22.52,-1.45 33.68,-2.19 19.31,-11.15 42.61,-9.27 64.17,-12.54 1.38,-4.64 4.14,-13.91 5.51,-18.55 -37.47,-18.93 -43.36,-64.05 -63.54,-96.88 -67.22,-112.69 -162.42,-204.48 -262.94,-287.78z"/>
  </g>
 </g>
</svg>
