<?xml version="1.0" encoding="UTF-8"?>
<!DOCTYPE svg PUBLIC "-//W3C//DTD SVG 1.1//EN" "http://www.w3.org/Graphics/SVG/1.1/DTD/svg11.dtd">
<!-- Creator: CorelDRAW 2018 (64-Bit) -->
<svg xmlns="http://www.w3.org/2000/svg" xml:space="preserve" width="7.45044in" height="8.33247in" version="1.1" style="shape-rendering:geometricPrecision; text-rendering:geometricPrecision; image-rendering:optimizeQuality; fill-rule:evenodd; clip-rule:evenodd"
viewBox="0 0 1036.42 1159.12"
 xmlns:xlink="http://www.w3.org/1999/xlink">
 <defs>
  <style type="text/css">
   <![CDATA[
    .str0 {stroke:white;stroke-width:10.95;stroke-miterlimit:2.61313}
    .str1 {stroke:#2B2A29;stroke-width:0.96;stroke-miterlimit:2.61313}
    .fil6 {fill:none}
    .fil5 {fill:#FEFEFE}
    .fil8 {fill:#C79933}
    .fil7 {fill:#FBEB58}
    .fil0 {fill:black;fill-rule:nonzero}
    .fil2 {fill:#BE1F1C;fill-rule:nonzero}
    .fil3 {fill:#C8C8C8;fill-rule:nonzero}
    .fil1 {fill:#DE302B;fill-rule:nonzero}
    .fil4 {fill:#E9B023;fill-rule:nonzero}
   ]]>
  </style>
 </defs>
 <g id="Layer_x0020_1">
  <metadata id="CorelCorpID_0Corel-Layer"/>
  <g id="_954156080">
   <path class="fil0" d="M263.78 28.15c6.71,-7.93 13.9,-16.25 23.59,-20.53 11.19,43.75 32.03,87.08 68.13,115.6 12.32,9.85 26.17,17.7 40.72,23.7 15.07,-14.92 23.7,-35.45 25.6,-56.44 2.63,-28.12 -3.51,-56.86 -16.09,-82.1 45.25,0.28 90.76,14.61 126.75,42.28 28.83,21.97 51.48,52.11 64.03,86.14 1.81,-28.46 -4.84,-57.26 -18.72,-82.18 42.96,15.35 81.73,43.33 108.01,80.82 22.49,31.75 36.02,69.95 38.09,108.83 4.42,-22.82 3.68,-46.58 -0.45,-69.41 21.27,35.91 28.49,80.03 21.8,121.15 106.19,50.24 187.86,144.03 233.85,251.1 38,87.82 55.96,184.55 51.06,280.13 -11.02,-29.79 -25.77,-58.08 -42,-85.32 -7.16,-11.16 -13.88,-22.97 -23.67,-32.11 -0.48,103.79 -37.24,208.51 -107.72,285.51 -44.32,48.91 -102.85,85.41 -167.33,100.56 18.72,-35.88 35.31,-73.51 43.67,-113.25 -26.73,38.43 -61.79,70.65 -100.19,97.22 -42.96,29.34 -91.92,50.97 -143.69,58.19 25.23,-20.56 49.84,-44.23 61.96,-75.13 -42.99,31.43 -94.13,49.08 -145.05,62.98 -66.01,17.1 -134.09,26.79 -202.31,27.75 -32.11,0 -64.59,-1.36 -95.77,-9.66 95.57,-63.01 169.63,-154.9 220.12,-256.96 -25.94,11.19 -54.77,16.85 -82.94,13.2 41.66,-26.11 75.72,-66.15 91.19,-113.08 -14.33,15.32 -33.59,25.94 -54.51,28.83 -31.97,4.19 -64.31,-2.78 -94.47,-13.08 30.24,-9.57 48.11,-38.31 60.46,-65.67 7.45,-16.11 14.64,-32.37 22.91,-48.06 -29.39,2.63 -59.86,16.45 -73.68,43.89 -3.62,-29.99 14.41,-59.89 41.74,-72.13 3.6,-2.52 10.08,-2.29 12.29,-6.12 -32.68,3.09 -67.94,7.28 -95.32,27.64 -19.4,13.79 -31.52,36.11 -34.69,59.5 -34.15,-10.96 -70.2,-25.43 -92.35,-55.11 -14.41,-18.69 -14.67,-45.93 -1.27,-65.25 20.5,-30.5 56.58,-46.13 91.5,-53.15 9.66,-20.96 28.21,-36.3 48.31,-46.81 -25.03,-0.68 -50.49,-4.28 -73.12,-15.6 -32.93,-15.94 -57.6,-45.85 -71.02,-79.52 -16.79,-40.95 -20.33,-86.34 -16.06,-130.09 24.58,31.91 64.08,49.42 103.62,52.79 17.25,1.5 35.09,-0.23 51,-7.39 -5.97,-4.73 -13.76,-6.29 -20.3,-10.14 -35.09,-17.76 -59.72,-52.76 -67.43,-91.02 -12.18,-57.88 7.11,-119.19 43.53,-164.73 8.1,39.53 27.89,78.05 60.86,102.34 27.72,21.07 63.91,29.34 98.24,24.86 -49.81,-42.7 -51.68,-124.49 -12.86,-174.98zm190.81 18.01l0 0c3.17,21.55 2.72,43.69 -3.63,64.65 -4.33,16.96 -14.02,31.66 -23.31,46.13 11.3,2.29 22.63,4.5 34.09,5.72 14.3,1.13 28.63,2.24 42.99,2.63 -36.02,12.6 -75.58,15.46 -113.19,9.26 -47.92,-8.27 -93.71,-39.62 -110.33,-86.57 -5.78,7.65 -4.28,18.55 -4.84,27.67 2.58,45.9 36.79,85.04 77.9,102.71 -18.83,15.01 -42.25,23.02 -65.73,27.04 -36.25,5.92 -74.36,2.41 -108.32,-12.01 -21.49,-9.23 -39.67,-24.67 -54.14,-42.87 -0.79,-3.94 -4.02,-6.8 -6.15,-10.05 -1.25,16.23 -1.33,32.71 2.15,48.68 5.66,29.39 24.83,55.84 51.06,70.31 22.94,13.34 49.78,17.1 75.89,18.04 -14.61,31.21 -45.05,51.91 -76.6,63.49 -37.29,13.9 -80.51,14.67 -116.5,-3.51 1.19,6.06 2.72,12.06 4.59,17.95l0.31 0.23c8.52,44.46 46.7,83.17 92.88,86.63 0.71,-10.45 2.46,-20.93 7.76,-30.1 6.88,-11.75 18.01,-20.93 30.98,-25.12 -6.23,8.38 -13,17.87 -11.19,28.94 0.23,7.14 4.96,13.56 11.53,16.23 8.69,2.63 17.81,-0.85 25.15,-5.52 18.8,-13.2 32.03,-32.42 45.39,-50.75 14.44,-21.64 27.84,-43.95 41.35,-66.18 15.43,-25.68 34.52,-49.16 56.72,-69.3 17.93,-16.17 38.2,-29.79 60.32,-39.53 -19.57,2.83 -37.78,10.85 -56.58,16.45 23.62,-17.61 50.07,-31.24 77.88,-40.92 27.58,-9.03 56.44,-15.8 85.66,-14.41 0.2,-35.23 -9.18,-70.51 -27.16,-100.81 14.33,10.11 25.37,23.84 36.36,37.32 -7.22,-18.72 -18.86,-35.28 -31.12,-50.97 -13.25,-15.32 -28.26,-29.79 -46.87,-38.31 -1.81,-1.05 -3.57,-2.09 -5.32,-3.14zm-42.7 246.74l0 0c-44.49,31.63 -74.7,78.72 -100.25,126.04 13.56,-20.08 26.96,-40.72 45.17,-57 30.7,-28.6 74.82,-39.84 115.96,-35 22.29,2.41 42.7,12.49 61.23,24.58 5.44,6.12 11.95,11.16 17.25,17.42 24.58,27.78 38.2,64.08 41.97,100.7 4.73,44.83 -5.41,92.63 -34.49,127.94 25.35,-18.04 44.94,-43.89 55.79,-73.03 -3.96,46.78 -23.48,95.69 -63.52,122.9 45.88,25.46 85.61,62.41 113.1,107.16 22.23,36.79 36.84,79.91 32.57,123.3 0.31,1.39 0.96,4.19 1.27,5.58 17.5,-31.86 23.22,-69.07 19.91,-105 -4.28,-46.87 -21.78,-93.34 -53.35,-128.71 52.13,19.2 90.45,65.3 110.07,116.16 25.51,65.93 27.27,139.75 10.73,208.08 22.37,-29.03 34.86,-64.23 44.69,-99.14 14.22,-55.14 20.73,-114.04 6.97,-169.94 5.72,3.06 9.12,8.84 12.91,13.88 14.81,21.44 21.21,47.04 26.82,72.1 0.14,7.31 0.71,14.64 1.87,21.89 21.95,-66.89 17.81,-139.75 1.05,-207.29 -19.54,-76.04 -56.78,-149.72 -115.99,-202.48 -4.98,-4.73 -11.04,-8.24 -15.55,-13.45 39.84,9.86 77.54,27.55 111.38,50.66 -29.17,-36.9 -65.1,-68.42 -105.06,-93.2 -76.2,-47.38 -167.13,-66.32 -256.08,-65.47 11.07,-11.07 24.78,-18.97 39.42,-24.33 -44.32,-2.27 -89.68,9.49 -125.82,35.65zm-30.5 99.43l0 0c-24.47,23.08 -40.84,52.98 -59.58,80.54 31.43,-22.17 60.49,-52.62 100.39,-58.17 26.11,-3.82 49.53,11.36 67.62,28.49 -5.55,1.3 -11.04,-0.42 -16.54,-0.96 -12.71,-1.22 -25.66,0.25 -37.78,4.19 0.4,28.29 -5.44,58.42 -24.92,80.06 -14.13,16.14 -34.44,24.3 -54.6,29.9 24.92,3.09 50.09,1.16 74.62,-3.88 -15.52,11.89 -33.59,19.99 -52.62,24.3 1.93,4.62 8.84,2.58 12.86,4.08 33.44,4.62 67.91,-2.92 96.42,-20.9 -12.12,19.51 -30.78,34.92 -51.77,44.15 4.39,3 9.91,2.24 14.92,2.6 22.54,0.93 45.93,-4.9 63.77,-19.14 27.75,-21.92 41.29,-58.45 40.64,-93.14 2.04,-39.02 -12.2,-80.62 -42.14,-106.76 -36.5,-32.06 -96.54,-28.15 -131.31,4.64zm-70.57 136.69l0 0c22.31,2.15 47.06,-0.34 64.71,-15.55 13.79,-11.58 19.43,-29.82 20.39,-47.26 -29.42,19.48 -54.97,44.29 -85.1,62.81zm-154.99 35.85l0 0c13.2,0.54 26.39,1.3 39.48,3.26 -41.52,6.17 -84.79,16.57 -117.63,44.26 -13.68,11.24 -25.83,28.88 -20.7,47.41 5.58,17.73 22.99,27.5 38.8,34.86 4.5,-19.6 18.46,-35.17 35.74,-44.77 35,-19.54 75.67,-25.18 115.06,-27.89 25.49,-0.77 51.14,-1.19 76.43,2.52 -18.46,-7.02 -37.97,-10.28 -57.37,-13.54 32.42,-3.96 65.27,-0.4 97.64,2.75 -35.71,-18.83 -77.03,-19.63 -114.63,-32.74 -21.1,-6.8 -42.51,-18.89 -52.02,-39.93 -15.69,3.17 -29.79,12.43 -40.78,23.82zm276.19 79.18l0 0c13.03,18.44 19.43,40.33 25,61.88 0.85,15.94 2.58,31.91 0.42,47.86 -8.86,-23.39 -19.65,-47.4 -37.83,-65.08 6.6,54 -10.05,106.79 -24.69,158.05 -6.23,24.81 -13.82,50.6 -9.18,76.37 3.6,21.07 21.58,37.44 41.83,42.59 16.85,4.7 34.66,1.42 50.89,-4.16 -10.73,-12.6 -19.62,-26.96 -23.62,-43.16 -6.71,-25.32 -0.42,-51.43 8.55,-75.3 1.87,19.74 2.72,40.83 14.36,57.8 20.59,35.74 67.54,54.03 106.51,39.99 23.65,-6.68 45.14,-23.45 56.21,-45.65 12.21,-25.03 10.08,-54.48 1.05,-80.11 -15.24,-43.72 -46.07,-80.37 -81.19,-109.73 -37.3,-29.68 -80.99,-53.32 -128.31,-61.34zm-111.43 41.8l0 0c-25.43,24.16 -35.48,58.79 -52.93,88.27 -3.26,6.03 -8.21,10.82 -13.28,15.32 18.61,0.34 37.47,-7.05 49.76,-21.24 26.96,-29.54 33.1,-71.7 57.74,-102.68 -15.55,1.93 -30.33,9.09 -41.29,20.33z"/>
   <path class="fil1" d="M454.59 46.16c1.76,1.05 3.51,2.1 5.32,3.14 -1.22,6.23 -0.4,12.55 1.56,18.55 8.92,30.75 9.52,64.06 0.28,94.81 -11.47,-1.22 -22.8,-3.43 -34.09,-5.72 9.29,-14.47 18.97,-29.17 23.31,-46.13 6.34,-20.96 6.8,-43.1 3.63,-64.65z"/>
   <path class="fil1" d="M119.95 180.48c2.12,3.26 5.35,6.12 6.15,10.05 0.85,5.3 1.87,10.65 4.76,15.26 10.82,18.72 25.66,35.23 43.55,47.41 36.36,25.63 81.87,34.86 125.71,34.66 20.7,-0.03 40.86,-5.07 61.31,-7.36 -22.2,20.13 -41.29,43.61 -56.72,69.3 -13.51,22.23 -26.9,44.54 -41.35,66.18 -13.37,18.32 -26.59,37.55 -45.39,50.75 -7.33,4.67 -16.45,8.16 -25.15,5.52 -6.57,-2.66 -11.3,-9.09 -11.53,-16.23 -1.81,-11.07 4.96,-20.56 11.19,-28.94 -12.97,4.19 -24.1,13.37 -30.98,25.12 -32.68,-1.3 -63.66,-17.05 -85.89,-40.66 -4.7,-5.49 -8.58,-11.81 -14.75,-15.86l-0.31 -0.23c-1.87,-5.89 -3.4,-11.89 -4.59,-17.95 35.99,18.18 79.21,17.42 116.5,3.51 31.55,-11.58 61.99,-32.28 76.6,-63.49 -26.11,-0.93 -52.96,-4.7 -75.89,-18.04 -26.22,-14.47 -45.39,-40.92 -51.06,-70.31 -3.48,-15.97 -3.4,-32.45 -2.15,-48.68z"/>
   <path class="fil1" d="M381.39 392.33c34.77,-32.79 94.81,-36.7 131.31,-4.64 29.93,26.14 44.18,67.74 42.14,106.76 -7.65,21.63 -16.79,43.84 -34.77,58.99 -2.95,1.87 -6.14,3.2 -9.29,4.67 11.19,-38.31 6.97,-84.62 -20.95,-114.92 -18.1,-17.13 -41.52,-32.31 -67.62,-28.49 -39.9,5.55 -68.95,35.99 -100.39,58.17 18.75,-27.55 35.12,-57.46 59.58,-80.54z"/>
   <path class="fil1" d="M432.02 644.05c47.32,8.01 91.01,31.66 128.31,61.34 35.11,29.37 65.95,66.01 81.19,109.73 9.03,25.63 11.16,55.08 -1.05,80.11 -11.07,22.2 -32.57,38.97 -56.21,45.65 -11.41,-4.64 -23.56,-8.61 -32.71,-17.22 -15.15,-13.71 -26.2,-31.26 -35.31,-49.36 -23.02,-49.81 -32.79,-104.24 -51.6,-155.58 -1.64,-4.76 -4.76,-8.75 -7.62,-12.8 -5.58,-21.55 -11.98,-43.44 -25,-61.88z"/>
   <path class="fil2" d="M461.47 67.86c-1.95,-6 -2.78,-12.32 -1.56,-18.55 18.61,8.52 33.61,23 46.87,38.31 12.26,15.69 23.9,32.26 31.12,50.97 -10.99,-13.48 -22.03,-27.21 -36.36,-37.32 17.98,30.3 27.36,65.59 27.16,100.81 -29.22,-1.39 -58.08,5.38 -85.66,14.41 -27.81,9.68 -54.26,23.31 -77.88,40.92 18.8,-5.61 37.01,-13.62 56.58,-16.45 -22.12,9.74 -42.39,23.36 -60.32,39.53 -20.45,2.29 -40.61,7.33 -61.31,7.36 -43.84,0.2 -89.35,-9.03 -125.71,-34.66 -17.9,-12.18 -32.74,-28.69 -43.55,-47.41 -2.89,-4.62 -3.91,-9.97 -4.76,-15.26 14.47,18.21 32.65,33.64 54.14,42.87 33.95,14.41 72.07,17.93 108.32,12.01 23.48,-4.02 46.9,-12.04 65.73,-27.04 -41.12,-17.67 -75.33,-56.81 -77.9,-102.71 0.57,-9.12 -0.93,-20.02 4.84,-27.67 16.62,46.95 62.41,78.3 110.33,86.57 37.61,6.2 77.17,3.34 113.19,-9.26 -14.36,-0.4 -28.69,-1.5 -42.99,-2.63 9.23,-30.75 8.64,-64.06 -0.28,-94.81z"/>
   <path class="fil2" d="M60.85 395.67c6.17,4.05 10.05,10.37 14.75,15.86 22.23,23.62 53.21,39.36 85.89,40.66 -5.3,9.18 -7.05,19.65 -7.76,30.1 -46.19,-3.46 -84.36,-42.17 -92.88,-86.63z"/>
   <path class="fil2" d="M435.51 446.42c12.12,-3.94 25.06,-5.41 37.78,-4.19 5.49,0.54 10.99,2.27 16.54,0.96 27.92,30.3 32.14,76.6 20.95,114.92 3.14,-1.47 6.34,-2.8 9.29,-4.67 17.98,-15.15 27.13,-37.35 34.77,-58.99 0.65,34.69 -12.88,71.22 -40.64,93.14 -17.84,14.24 -41.23,20.08 -63.77,19.14 -5.01,-0.37 -10.53,0.4 -14.92,-2.6 20.98,-9.23 39.65,-24.64 51.77,-44.15 -28.52,17.98 -62.98,25.51 -96.42,20.9 -4.02,-1.5 -10.93,0.54 -12.86,-4.08 19.03,-4.31 37.1,-12.4 52.62,-24.3 -24.52,5.04 -49.7,6.97 -74.62,3.88 20.16,-5.61 40.47,-13.76 54.6,-29.9 19.48,-21.64 25.32,-51.77 24.92,-80.06z"/>
   <path class="fil2" d="M419.62 688.71c18.18,17.67 28.97,41.68 37.83,65.08 2.15,-15.94 0.42,-31.91 -0.42,-47.86 2.86,4.05 5.97,8.04 7.62,12.8 18.8,51.34 28.57,105.77 51.6,155.58 9.12,18.1 20.16,35.65 35.31,49.36 9.15,8.61 21.3,12.57 32.71,17.22 -38.97,14.05 -85.92,-4.25 -106.51,-39.99 -11.64,-16.96 -12.49,-38.06 -14.36,-57.8 -8.98,23.87 -15.26,49.98 -8.55,75.3 3.99,16.2 12.89,30.56 23.62,43.16 -16.23,5.58 -34.04,8.86 -50.89,4.16 -20.25,-5.15 -38.23,-21.52 -41.83,-42.59 -4.64,-25.77 2.94,-51.57 9.18,-76.37 14.64,-51.26 31.29,-104.04 24.69,-158.05z"/>
   <path class="fil3" d="M534 351.52c5.32,0.99 10.68,2.21 15.52,4.76 54.4,26.11 101.63,66.18 138.96,113.41 43.27,53.58 74.76,116.7 91.52,183.53 0.71,2.52 1.87,4.84 3.45,6.97 8.55,-38.6 5.01,-79.01 -3.77,-117.21 -1.39,-8.44 -6.85,-16.34 -5.52,-25.03 53.78,52.42 84.78,124.54 98.69,197.49 3.51,24.89 8.1,50.38 3.82,75.47 -5.61,-25.06 -12.01,-50.66 -26.82,-72.1 -3.79,-5.04 -7.19,-10.82 -12.91,-13.88 13.76,55.9 7.25,114.8 -6.97,169.94 -9.83,34.92 -22.31,70.12 -44.69,99.14 16.54,-68.33 14.78,-142.16 -10.73,-208.08 -19.63,-50.86 -57.94,-96.96 -110.07,-116.16 31.58,35.37 49.08,81.84 53.35,128.71 3.31,35.94 -2.41,73.15 -19.91,105 -0.31,-1.39 -0.96,-4.19 -1.27,-5.58 4.28,-43.38 -10.34,-86.51 -32.57,-123.3 -27.5,-44.74 -67.23,-81.7 -113.1,-107.16 40.04,-27.21 59.55,-76.12 63.52,-122.9 -10.85,29.14 -30.44,54.99 -55.79,73.03 29.08,-35.31 39.22,-83.11 34.49,-127.94 -3.77,-36.62 -17.39,-72.92 -41.97,-100.7 -5.3,-6.26 -11.81,-11.3 -17.25,-17.42z"/>
   <path class="fil4" d="M155.83 564.87c10.99,-11.38 25.09,-20.64 40.78,-23.82 9.52,21.04 30.92,33.13 52.02,39.93 37.61,13.11 78.92,13.9 114.63,32.74 -32.37,-3.14 -65.22,-6.71 -97.64,-2.75 19.4,3.26 38.91,6.51 57.37,13.54 -25.29,-3.71 -50.94,-3.29 -76.43,-2.52 -39.39,2.72 -80.06,8.35 -115.06,27.89 -17.27,9.6 -31.24,25.17 -35.74,44.77 -15.8,-7.36 -33.22,-17.13 -38.8,-34.86 -5.13,-18.52 7.02,-36.16 20.7,-47.41 32.85,-27.7 76.12,-38.09 117.63,-44.26 -13.08,-1.95 -26.28,-2.72 -39.48,-3.26z"/>
   <path class="fil4" d="M320.59 685.85c10.96,-11.24 25.74,-18.41 41.29,-20.33 -24.64,30.98 -30.78,73.15 -57.74,102.68 -12.29,14.19 -31.15,21.58 -49.76,21.24 5.07,-4.5 10.02,-9.29 13.28,-15.32 17.44,-29.48 27.5,-64.11 52.93,-88.27z"/>
   <path class="fil5" d="M549.52 356.28c54.4,26.11 101.63,66.18 138.96,113.41 43.27,53.58 74.76,116.7 91.52,183.53 0.71,2.52 1.87,4.84 3.45,6.97 8.55,-38.6 5.01,-79.01 -3.77,-117.21 -1.39,-8.44 -6.85,-16.34 -5.52,-25.03 53.78,52.42 84.78,124.54 98.69,197.49 3.51,24.89 8.1,50.38 3.82,75.47 0.14,7.31 0.71,14.64 1.87,21.89 21.95,-66.89 17.81,-139.75 1.05,-207.29 -19.54,-76.04 -56.78,-149.72 -115.99,-202.48 -4.98,-4.73 -11.04,-8.24 -15.55,-13.45 39.84,9.86 77.54,27.55 111.38,50.66 -29.17,-36.9 -65.1,-68.42 -105.06,-93.2 -76.2,-47.38 -167.13,-66.32 -256.08,-65.47 11.07,-11.07 24.78,-18.97 39.42,-24.33 -44.32,-2.27 -89.68,9.49 -125.82,35.65 -44.49,31.63 -74.7,78.72 -100.25,126.04 13.56,-20.08 26.96,-40.72 45.17,-57 30.7,-28.6 74.82,-39.84 115.96,-35 22.29,2.41 42.7,12.49 61.23,24.58 5.32,0.99 10.68,2.21 15.52,4.76z"/>
   <path class="fil5" d="M375.53 513.47c13.79,-11.58 19.43,-29.82 20.39,-47.26 -29.42,19.48 -54.97,44.29 -85.1,62.81 22.31,2.15 47.06,-0.34 64.71,-15.55z"/>
   <path class="fil6 str0" d="M723.45 174.87c21.27,35.91 28.49,80.03 21.8,121.15 106.19,50.24 187.86,144.03 233.85,251.1 38,87.82 55.96,184.55 51.06,280.13 -11.02,-29.79 -25.77,-58.08 -42,-85.32 -7.16,-11.16 -13.88,-22.97 -23.67,-32.11 -0.48,103.79 -37.24,208.51 -107.72,285.51 -44.32,48.91 -102.85,85.41 -167.33,100.56 18.72,-35.88 35.31,-73.51 43.67,-113.25 -26.73,38.43 -61.79,70.65 -100.19,97.22 -42.96,29.34 -91.92,50.97 -143.69,58.19 25.23,-20.56 49.84,-44.23 61.96,-75.13 -42.99,31.43 -94.13,49.08 -145.05,62.98 -66.01,17.1 -134.09,26.79 -202.31,27.75 -32.11,0 -64.59,-1.36 -95.77,-9.66 95.57,-63.01 169.63,-154.9 220.12,-256.96 -25.94,11.19 -54.77,16.85 -82.94,13.2 41.66,-26.11 75.72,-66.15 91.19,-113.08 -14.33,15.32 -33.59,25.94 -54.51,28.83 -31.97,4.19 -64.31,-2.78 -94.47,-13.08 30.24,-9.57 48.11,-38.31 60.46,-65.67 7.45,-16.11 14.64,-32.37 22.91,-48.06 -29.39,2.63 -59.86,16.45 -73.68,43.89 -3.62,-29.99 14.41,-59.89 41.74,-72.13 3.6,-2.52 10.08,-2.29 12.29,-6.12 -32.68,3.09 -67.94,7.28 -95.32,27.64 -19.4,13.79 -31.52,36.11 -34.69,59.5 -34.15,-10.96 -70.2,-25.43 -92.35,-55.11 -14.41,-18.69 -14.67,-45.93 -1.27,-65.25 20.5,-30.5 56.58,-46.13 91.5,-53.15 9.66,-20.96 28.21,-36.3 48.31,-46.81 -25.03,-0.68 -50.49,-4.28 -73.12,-15.6 -32.93,-15.94 -57.6,-45.85 -71.02,-79.52 -16.79,-40.95 -20.33,-86.34 -16.06,-130.09 24.58,31.91 64.08,49.42 103.62,52.79 17.25,1.5 35.09,-0.23 51,-7.39 -5.97,-4.73 -13.76,-6.29 -20.3,-10.14 -35.09,-17.76 -59.72,-52.76 -67.43,-91.02 -12.18,-57.88 7.11,-119.19 43.53,-164.73 8.1,39.53 27.89,78.05 60.86,102.34 27.72,21.07 63.91,29.34 98.24,24.86 -49.81,-42.7 -51.68,-124.49 -12.86,-174.98 6.71,-7.93 13.9,-16.25 23.59,-20.53 11.19,43.75 32.03,87.08 68.13,115.6 12.32,9.85 26.17,17.7 40.72,23.7 15.07,-14.92 23.7,-35.45 25.6,-56.44 2.63,-28.12 -3.51,-56.86 -16.09,-82.1 45.25,0.28 90.76,14.61 126.75,42.28 28.83,21.97 51.48,52.11 64.03,86.14 1.81,-28.46 -4.84,-57.26 -18.72,-82.18 42.96,15.35 81.73,43.33 108.01,80.82 22.49,31.75 36.02,69.95 38.09,108.83 4.42,-22.82 3.68,-46.58 -0.45,-69.41z"/>
   <path class="fil6 str1" d="M386.14 472.96c-4.41,24.77 -21.48,43.52 -51.2,56.25"/>
   <path class="fil7" d="M334.94 529.21c29.72,-12.73 46.79,-31.48 51.2,-56.25 -25.44,18.23 -48.57,39.62 -75.32,56.06 7.88,0.76 16.06,0.94 24.12,0.19z"/>
   <path class="fil8" d="M386.14 472.96c-4.41,24.77 -21.48,43.52 -51.2,56.25 14.78,-1.38 29.17,-5.9 40.59,-15.73 13.79,-11.58 19.43,-29.82 20.39,-47.26 -3.3,2.19 -6.56,4.44 -9.78,6.75z"/>
  </g>
 </g>
</svg>
