<?xml version="1.0" encoding="UTF-8"?>
<!DOCTYPE svg PUBLIC "-//W3C//DTD SVG 1.1//EN" "http://www.w3.org/Graphics/SVG/1.1/DTD/svg11.dtd">
<!-- Creator: CorelDRAW 2018 (64-Bit) -->
<svg xmlns="http://www.w3.org/2000/svg" xml:space="preserve" width="8.19444in" height="8.2383in" version="1.1" style="shape-rendering:geometricPrecision; text-rendering:geometricPrecision; image-rendering:optimizeQuality; fill-rule:evenodd; clip-rule:evenodd"
viewBox="0 0 3138.28 3155.07"
 xmlns:xlink="http://www.w3.org/1999/xlink">
 <defs>
  <style type="text/css">
   <![CDATA[
    .str0 {stroke:#2B2A29;stroke-width:2.65;stroke-miterlimit:2.61313}
    .fil6 {fill:none}
    .fil5 {fill:#FEFEFE}
    .fil8 {fill:#C79933}
    .fil7 {fill:#FBEB58}
    .fil0 {fill:black;fill-rule:nonzero}
    .fil2 {fill:#51187E;fill-rule:nonzero}
    .fil3 {fill:#8834CE;fill-rule:nonzero}
    .fil4 {fill:#FAFBFA;fill-rule:nonzero}
    .fil1 {fill:white;fill-rule:nonzero}
   ]]>
  </style>
 </defs>
 <g id="Layer_x0020_1">
  <metadata id="CorelCorpID_0Corel-Layer"/>
  <g id="_789293856">
   <path class="fil0" d="M1542.11 53.74c80.3,-12.11 164.64,-19.84 243.24,6.16 36.59,12.86 76.61,24.97 101.44,56.91 48.7,-2.4 99.52,9.57 137.15,41.93 36.18,29.34 59.99,70.66 79.76,112.11 3.21,7.87 12.86,9.1 19.36,13.13 81.19,35.02 140.77,110.47 161.98,195.77 3.35,25.86 27.91,37.9 43.84,55.34 45.9,53.15 70.59,122.58 71.48,192.69 38.51,14.57 77.23,32.56 105.41,63.48 44.53,49.73 66.15,117.45 64.37,183.73 -1.98,35.64 13.82,68.47 19.63,103.01 6.64,42.14 2.46,87.15 -18.81,124.83 -12.38,18.74 -4.45,41.45 1.37,60.95 30.78,-2.8 54.24,16.14 78.18,32.01 18.47,-3.62 34.61,-15.87 53.83,-16.48 55.47,-4.38 105.2,31.19 139.88,71.21 31.67,34.27 47.27,82.97 88.31,108.28 24.01,14.16 40.91,37.48 65.87,50.27 17.78,8.62 23.94,29.76 24.35,48.09 -1.1,46.24 -20.52,90.22 -19.56,136.6 0.07,27.77 15.19,51.85 31.88,72.92 18.81,-0.2 37.82,-1.23 55.88,-7.39 11.49,27.56 0.89,62.04 -22.78,79.82 -34.95,31.33 -96.86,32.01 -126.2,-7.39 -4.72,-13.95 -2.53,-29.21 -3.35,-43.64 -25.72,-23.12 -50,-51.92 -52.26,-88.03 -7.8,-42.96 19.01,-91.04 -11.01,-129.01 -14.98,-25.1 -47.27,-13.96 -70.93,-19.7 -49.66,-11.15 -100.96,-29.34 -137.56,-66.21 -2.53,0.07 -7.73,0.14 -10.33,0.14 -13.75,21.68 -35.98,35.29 -54.31,52.6 66.28,13.89 116.28,68.2 140.91,129.14 17.72,42.34 27.5,91.25 63.55,122.85 17.99,14.98 22.71,40.01 42.2,53.7 29.28,23.46 18.54,66.76 4.99,96.17 -24.08,52.33 -57.66,109.58 -35.71,168.82 7.93,30.85 46.51,18.2 69.7,23.26 -0.41,26.4 -8.41,53.77 -29.28,71.34 -25.1,24.01 -62.79,23.46 -94.87,18.4 -27.09,-9.99 -57.32,-37.35 -45.42,-69.15 0.62,-11.01 8.48,-24.42 -0.55,-33.66 -24.35,-28.39 -30.64,-67.99 -24.01,-104.04 3.76,-32.83 25.24,-61.63 23.19,-95.42 0.41,-17.24 -5.68,-33.52 -11.22,-49.52 -26.88,-8.21 -54.86,-13.54 -79.96,-26.54 -22.98,-11.7 -43.3,-27.77 -64.23,-42.55 -18.26,-12.72 -27.77,-33.52 -42.48,-49.52 -10.67,-3.21 -18.26,4.45 -25.24,11.01 -23.8,23.53 -57.59,30.99 -87.96,42.21 53.49,31.87 83.52,90.77 96.79,149.8 9.58,46.86 7.94,98.63 36.6,139.34 15.18,20.25 15.94,47.75 33.93,66.35 23.46,29.14 4.51,67.99 -14.98,93.71 -30.99,43.16 -71.89,87.35 -68.74,144.46 -1.5,32.97 32.56,51.71 61.63,52.94 -0.34,8.35 -0.62,16.76 -0.89,25.17 -14.77,15.87 -28.18,35.64 -50.28,41.66 -47.2,17.3 -105.89,-10.26 -120.53,-58.83 -3.76,-19.56 9.37,-36.53 16.69,-53.63 -33.24,-54.65 -15.73,-123.33 21,-171.41 16.21,-24.63 12.59,-55.27 10.74,-83.11 -25.17,-16.14 -51.03,-31.46 -74.01,-50.68 -38.92,-34.75 -67.51,-79.07 -91.52,-125.04 -31.46,25.1 -71.55,33.72 -111.09,31.26 10.33,19.56 23.74,37.28 35.3,56.16 43.37,79.07 44.53,175.18 21.07,260.61 -23.05,67.99 -62.72,130.31 -113.61,180.86 -8.41,35.09 -4.99,72.03 -14.16,106.98 -18.33,72.23 -56.84,137.76 -100.96,197.07 -33.72,39.06 -71.14,74.97 -109.1,109.85 -88.44,68.2 -187.08,124.77 -293.99,158.56 -95.56,33.31 -200.14,46.45 -300.15,27.5 -35.57,-7.05 -69.02,-22.3 -100.35,-40.29 -5.47,-1.85 -11.15,-13.2 -3.63,-15.53 92.48,-45.08 177.23,-107.19 245.02,-184.82 -67.79,-51.03 -156.43,-71.55 -240.16,-61.63 -39.95,4.1 -78.46,16.76 -118.54,19.84 10.4,-81.95 48.77,-157.32 93.09,-225.93 42.48,-56.57 90.91,-110.06 150.76,-148.71 42.75,-25.04 84.62,-52.53 131.88,-68.54 0.68,-35.77 11.08,-70.66 27.16,-102.47 17.3,-29.48 41.93,-53.76 66.97,-76.61 38.1,-34.95 87.15,-54.17 135.16,-71 -24.01,-20.04 -50.48,-38.72 -61.9,-69.15 -13.82,-1.5 -25.72,7.45 -38.24,11.7 -21.2,9.57 -44.66,10.74 -67.51,11.35 8.89,-23.46 13.2,-48.84 3.21,-72.78 -38.44,0.34 -68.26,33.66 -107.6,30.17 -29.07,-0.48 -42.68,-40.63 -72.16,-35.23 -18.88,12.45 -26.88,35.23 -28.66,56.91 -1.09,1.44 -3.28,4.24 -4.38,5.68 -33.31,-22.78 -61.77,-53.35 -76.61,-91.32 -35.23,4.65 -63.41,29.55 -97.95,37.28 -40.97,16.08 -85.3,15.46 -128.53,12.79 8.41,34.68 13.96,70.45 9.17,106.16 0.27,20.93 -16.07,35.71 -26.74,51.92 8.14,21.62 11.83,47.68 -0.28,68.54 -27.02,39.54 -85.64,52.12 -127.64,30.58 -24.15,-11.49 -34.41,-38.58 -37.48,-63.55 9.92,-10.12 25.03,-6.7 37.69,-9.44 11.77,-1.03 20.25,-10.26 29.82,-16.01 4.93,-29.34 13.54,-60.33 2.46,-89.33 -12.38,-35.84 -31.81,-68.54 -48.43,-102.47 -22.09,3.15 -38.44,18.74 -54.86,32.36 -6.23,41.93 -20.32,82.29 -37.28,121 -53.35,91.86 -130.44,174.36 -230.38,214.92 -30.85,12.45 -61.97,30.23 -96.52,25.65 21.14,-66.21 0.55,-137.83 -40.15,-191.93 -6.7,-3.35 -16.35,-1.92 -19.43,5.68 -22.16,31.74 -32.56,69.5 -42.48,106.43 -11.29,51.92 -5.81,105.48 -6.29,158.14 -41.52,-24.76 -84.13,-49.45 -116.76,-85.84 -39.54,-44.67 -78.46,-91.73 -100.83,-147.68 -25.38,-60.06 -37.9,-126.07 -34.27,-191.25 6.91,-55.75 15.66,-112.93 43.16,-162.86 33.59,-80.65 91.39,-149.46 159.79,-203.02 74.29,-59.44 164.99,-95.15 257.53,-114.37 21.62,-4.38 46.79,-0.75 64.98,-15.53 37.21,-29 72.44,-60.95 113.96,-83.79 74.97,-45.76 161.43,-81.81 250.97,-72.64 25.58,1.44 49.45,14.64 75.11,13.61 39.19,-47.4 89.88,-88.92 151.65,-101.03 25.79,-7.59 48.97,12.65 74.35,11.15 16.01,-8.96 29.35,-22.98 47.4,-28.04 27.16,-8.96 55.61,-0.55 83.18,1.57 17.92,-13.48 35.64,-29.14 58,-34.61 17.58,-3.01 35.5,-1.03 53.22,-0.27 17.92,-16.21 33.59,-39.47 59.92,-41.38 27.63,-3.28 57.18,-3.28 82.77,9.3 22.44,9.65 40.63,27.57 64.57,34.07 20.86,-23.87 36.73,-51.16 51.16,-79.28 21.89,-25.72 60.06,-22.3 89.26,-34.89 21.34,-30.03 42.75,-60.74 53.15,-96.58 4.38,-29.14 37.07,-32.97 58.35,-45.49 2.53,-21 5.06,-42 6.91,-63.07 17.65,-14.43 40.7,-23.19 54.45,-41.72 4.58,-23.94 -4.17,-48.63 1.23,-72.23 10.53,-14.84 26.13,-24.83 40.43,-35.57 0.14,-3.08 0.41,-9.1 0.55,-12.18 -66.15,-35.23 -102.19,-119.63 -74.97,-190.7 -54.31,-31.81 -99.66,-85.16 -104.72,-150 -44.19,-1.03 -90.97,-16.28 -118.75,-52.4 -16.96,-17.24 -19.84,-41.86 -24.69,-64.3 -44.32,-2.19 -88.51,3.56 -132.15,10.6 -21,3.9 -41.52,-3.69 -61.22,-10.06 -23.26,16.69 -34,43.98 -48.77,67.38 -9.85,16.01 -23.67,28.93 -36.73,42.27 0.89,37.28 4.44,75.93 -7.87,111.91 -12.38,38.24 -33.99,74.83 -66.83,98.98 -16.76,13.68 -36.73,22.3 -55.27,33.17 -17.92,8.07 -21.62,29.07 -31.74,43.98 -53.97,86.19 -152.54,144.53 -254.46,147.54 44.67,-61.7 58.55,-141.52 42.55,-215.53 -17.1,-74.49 -40.49,-148.5 -42.2,-225.45 0.96,-58.14 23.19,-119.77 71.96,-154.59 31.53,-26.41 70.38,-41.04 108.14,-56.23 9.23,-53.63 51.44,-95.69 97.75,-120.93 74.35,-38.92 161.22,-53.76 244.13,-42.55zm-154.45 68.27l0 0c-34.61,6.29 -66.55,24.01 -94.12,45.42 -14.91,14.64 -31.67,31.81 -30.17,54.45 -1.57,0.89 -4.65,2.6 -6.22,3.42 34.89,6.7 71.62,10.26 103.01,28.59 22.23,12.72 34.34,35.98 42.89,59.17 7.32,-53.83 -43.57,-90.43 -90.7,-99.87 44.53,-22.71 93.16,-37.14 143.58,-35.91 25.1,2.05 51.51,-0.96 75.38,8.48 -38.24,16.55 -87.28,37.14 -91.8,84.88 -2.26,37.14 -13.41,73.26 -34.06,104.38 4.24,0.21 12.79,0.68 17.03,0.89 26.75,-20.11 32.36,-56.36 57.39,-77.91 18.13,-18.06 43.23,-26.06 63,-41.66 27.43,-20.52 33.04,-57.32 24.08,-88.78 -6.77,-21.14 -3.9,-47.95 -21.07,-64.09 -52.6,-2.19 -109.17,-3.15 -158.21,18.54zm216.01 -19.09l0 0 0.96 0.55c0.55,31.88 14.36,62.11 12.93,94.05 -2.32,10.94 -5.4,21.82 -3.83,33.17 21.75,-31.46 32.97,-71.34 20.11,-108.69 34.68,5.27 61.77,27.7 91.86,43.37 12.93,27.22 35.84,47.81 52.6,72.57l-2.46 -2.87c-9.71,-1.71 -19.36,-3.49 -28.86,-6.09 -28.04,-3.28 -56.02,0.14 -83.31,6.84 -28.39,11.01 -58.96,19.36 -81.61,40.97 74.29,-11.42 150.14,-9.37 223.26,8.41 19.84,-41.45 48.84,-78.59 63.07,-122.71 -45.9,-23.73 -92.89,-47.4 -144.53,-55.4 -39.6,-9.17 -80.17,-2.94 -120.18,-4.17zm316.43 68.68l0 0 -1.85 -0.14c-16.48,47.61 -46.31,89.13 -69.5,133.52 35.09,-30.99 60.4,-70.73 90.84,-105.89 7.52,24.42 24.15,45.96 24.62,72.44 0.68,35.23 -4.03,70.93 -23.39,101.17 -9.92,-6.84 -20.11,-13.06 -30.64,-18.74 -45.01,-10.88 -92.07,16.21 -135.5,-4.11 10.26,20.45 34.34,29.69 55.54,34.06 39.33,6.09 80.24,6.98 116.97,23.94 9.51,1.44 19.02,2.46 28.66,3.56 24.69,-27.09 53.35,-50.55 75.79,-79.69 14.16,-15.66 7.66,-40.08 -6.09,-53.7 -22.92,-48.77 -58.96,-95.01 -110.68,-115.05 -5.95,-2.74 -19.84,-0.55 -14.78,8.62zm-665.14 107.32l0 0c18.33,13.61 35.64,29.48 45.9,50.34 31.88,60.12 36.6,133.52 16.69,198.16 -6.22,23.74 -25.72,42.41 -26.4,67.72 79.14,-60.19 88.44,-177.16 52.46,-263.69 -12.79,-36.8 -52.74,-51.51 -88.65,-52.53zm-81.67 6.98l0 0 5.2 5.27c-49.11,22.91 -93.09,66.83 -96.1,123.6 -0.68,98.63 45.42,189.81 54.45,287.08 3.83,33.79 -4.99,67.99 -24.97,95.56 9.58,-9.1 19.49,-17.92 27.77,-28.32 23.87,-24.69 48.29,-50 63.34,-81.33 28.45,-29.82 29.69,-76.2 27.5,-115.19 -0.82,-28.18 -16.35,-51.85 -31.33,-74.49 20.52,0.55 40.08,7.04 58.14,16.48 24.15,-22.23 26.81,-56.43 32.49,-86.73 5.68,-34.54 -4.65,-70.18 -24.63,-98.5 -20.25,-29.55 -56.64,-44.74 -91.86,-43.44zm827.19 155l0 0c43.09,-5.88 80.58,-31.74 110.88,-61.7 5.61,4.03 11.22,8.07 16.83,12.11 -0.82,28.8 3.9,59.44 -9.58,86.19 -11.83,27.09 -29.55,51.58 -53.49,69.29 -20.39,-34.48 -57.73,-53.29 -92.41,-70.39 -22.51,-10.26 -41.04,-28.46 -66.21,-32.49 10.06,30.71 27.77,60.33 56.02,77.43 36.73,21.75 79.28,31.19 116.42,52.33l0.96 1.98c19.15,1.23 39.6,5.54 57.46,-3.76 25.45,-11.83 47.88,-29.07 71.82,-43.64 8.62,-6.56 22.71,-11.08 21.41,-24.55 0.75,-37.9 -16.96,-75.65 -40.7,-104.45 -16.08,-28.25 -37.07,-56.09 -66.08,-72.03l-0.14 -7.8c-42.13,39.4 -80.3,82.84 -123.19,121.48zm266.98 96.79l0 0 3.08 5.2c-43.57,25.65 -89.81,51.23 -135.64,74.76 41.59,-2.05 80.65,-18.67 118.68,-34.34l13.89 -2.46c-3.83,15.19 -5.95,31.4 -14.5,44.87 -31.12,42.75 -78.87,71.55 -130.03,83.32 -1.5,-15.39 -3.9,-31.12 -11.42,-44.8 -16.28,-35.23 -59.99,-37.35 -88.78,-57.94 0.96,18.74 2.19,38.03 10.6,55.2 14.5,33.59 44.6,55.96 68.61,82.36 2.67,0.48 8,1.37 10.6,1.78 3.15,-5.47 6.15,-11.08 8.89,-16.83 31.26,-0.89 59.78,-15.18 90.5,-19.22 39.47,-7.73 79.82,-4.04 119.64,-1.78 3.76,-18.33 7.11,-37.35 -0.34,-55.2 -7.18,-35.16 -21.34,-68.88 -41.59,-98.5l1.71 -2.67c-7.18,-5.88 -13.95,-13.2 -23.87,-13.75zm-228.81 306.58l0 0c0.48,11.49 0.96,23.05 1.37,34.54 5.68,-1.03 16.9,-3.21 22.5,-4.31l0.75 -5.4c25.38,-6.09 50.62,-13.14 74.76,-23.39 24.08,-3.35 48.36,-4.99 72.37,-8.76 -0.27,-7.87 -0.48,-15.66 -0.61,-23.46 -21.27,-3.9 -42.82,-5.75 -64.23,-8.69 47.67,-14.64 98.09,-27.02 148.16,-19.36 25.92,1.91 49.73,15.73 75.72,16.07 1.03,4.38 3.01,13.06 4.03,17.38 13.34,13.82 27.98,28.11 32.76,47.47 5.54,17.03 6.02,42.34 27.91,46.58 0.41,-17.99 2.6,-36.32 -1.71,-53.97 -9.03,-24.15 -28.8,-41.52 -47.27,-58.48 -108.42,-67.86 -254.25,-38.44 -346.53,43.78zm463.63 16.69l0 0c8.62,36.39 -0.14,74.01 -18.13,106.16 -8.28,9.71 1.37,19.56 5.2,28.73 26.81,-38.78 38.51,-92.55 12.93,-134.89zm-498.24 96.24l0 0c-13.2,6.84 -13.75,21.96 -15.39,34.89 12.93,-3.42 25.99,-6.22 39.2,-8.69 2.74,1.98 8.21,5.95 10.94,7.93 39.06,-16.48 83.86,-16.14 124.83,-7.45 3.21,-3.97 6.57,-7.94 9.92,-11.83 -0.07,-11.01 0,-21.96 0,-32.9 -20.79,-3.56 -41.59,-6.7 -62.45,-9.71 74.97,-32.7 160.2,-16.96 230.92,18.6 27.91,27.84 55.2,57.94 68.33,95.9 11.42,32.15 -7.45,64.57 -3.01,97.13 39.54,-37.76 41.59,-100.28 17.92,-147.2l-1.23 -0.82c-32.35,-56.91 -93.57,-91.32 -156.09,-104.59 -92.69,-18.4 -189.27,13.68 -263.9,68.74zm492.63 57.12l0 0c20.93,66.49 -0.07,141.59 -50.96,188.79 14.77,37.21 21.48,76.95 23.39,116.83 19.08,-33.86 15.53,-75.17 11.42,-112.38 24.35,-36.32 47.2,-77.57 43.91,-122.78 -0.27,-26.06 -12.24,-50.14 -27.77,-70.45zm-572.05 54.65l0 0c-8.48,24.9 -24.83,45.97 -34.47,70.32 2.6,-0.96 7.87,-2.94 10.47,-3.97 59.78,4.31 121.21,6.43 177.71,28.93 13.68,-10.53 22.09,-25.44 24.08,-42.61 -34.34,-12.38 -69.22,-23.12 -103.42,-35.84 68.88,-11.49 142.14,-8 207.26,19.08 62.25,21.48 118.2,68.06 141.73,130.58 9.03,31.53 4.38,64.78 3.35,97.06 -7.93,15.66 -18.33,30.1 -25.24,46.38 -5.27,13.68 8.89,24.01 14.57,34.81 23.19,-20.25 42.07,-45.97 50.75,-75.72 9.99,-44.05 3.35,-90.36 -16.21,-130.85 -21.68,-45.28 -61.97,-77.7 -98.57,-110.61 -1.44,-0.27 -4.17,-0.75 -5.61,-1.03 -100.76,-66.76 -236.67,-75.86 -346.39,-26.54zm-143.44 138.93l0 0c-22.85,41.86 -51.92,80.1 -87.56,111.97 7.46,-1.57 14.77,-3.56 22.37,-4.44 16.35,7.11 34.54,5.27 51.92,5.74 54.17,-1.16 107.12,13.06 158.97,27.22 20.73,-16.9 36.25,-38.72 49.18,-61.9 -27.29,-26.95 -68.81,-27.02 -97.95,-49.52 53.15,-7.52 107.73,-0.75 158.97,14.77 27.16,7.66 51.71,22.16 78.53,30.85 40.15,30.99 82.77,63.41 104.79,110.61 26.2,48.29 21,107.32 1.71,157.05 3.15,16.55 10.4,31.94 16.28,47.67 37.28,-28.45 55.2,-76.82 51.37,-122.85 -5.06,-50.14 -27.84,-97.27 -58.48,-136.53 -100.35,-135.23 -292.9,-191.39 -450.09,-130.65zm-278.53 92.14l0 0c-5.68,15.66 2.53,31.81 6.29,46.92l-0.62 3.21c23.33,-0.48 45.62,-7.45 66.55,-17.37 -8.28,-4.17 -16.62,-8.28 -24.83,-12.31 0.68,-8.89 1.44,-17.72 2.19,-26.54 29.75,-6.02 57.59,6.02 85.85,11.77 2.05,-11.77 -10.74,-15.05 -17.78,-20.59 -22.16,-12.65 -45.56,-27.09 -71.89,-27.22 -23.33,0.68 -38.65,22.03 -45.76,42.14zm-71 -5.75l0 0c-14.23,5.68 -28.11,12.18 -41.11,20.25 8.96,6.71 17.99,13.41 27.09,20.11 12.72,-6.63 26.95,-16.62 42,-10.88 14.23,5.47 17.51,21.75 22.98,34.41 4.99,-23.05 -3.9,-44.67 -16.76,-63.27 -11.42,-0.41 -22.84,-0.55 -34.2,-0.62zm1132.6 18.54l0 0c-61.97,30.37 -93.92,95.7 -123.88,154.25 21.14,-25.38 37.83,-54.38 61.63,-77.57 22.23,-23.26 55.88,-36.32 88.03,-32.08 -23.33,8.21 -38.72,29.27 -53.56,47.95 -20.73,28.86 -41.79,59.85 -47.54,95.69 10.88,3.15 21.34,7.8 32.28,10.94 31.19,-3.28 59.24,-22.44 78.12,-46.92 26.27,-31.67 46.31,-73.05 37.35,-115.12l0.89 -1.37c-17.24,-21.27 -43.23,-50.07 -73.33,-35.78zm100.89 23.6l0 0c1.64,23.94 17.72,42.55 30.78,61.43 16.76,19.15 37.01,34.68 58.83,47.67l2.26 -2.74c19.97,13.75 44.6,13.34 67.85,16.01 -17.58,11.29 -37.14,21.27 -58.55,20.45 -23.6,1.78 -43.71,-12.31 -63.96,-22.16 57.87,51.92 138.03,70.25 213.96,70.59 -3.83,5.54 -7.66,11.01 -11.49,16.55 11.35,18.47 23.94,37.9 23.8,60.54 -0.14,40.97 -16.55,82.83 -2.26,123.12 11.42,29.89 40.43,47.06 66.49,62.79 -5.81,0.75 -17.51,2.26 -23.32,2.94 -3.9,15.66 -2.81,34.68 15.46,40.08 36.8,8.69 74.22,-15.67 92.07,-47.13 -17.92,4.79 -40.01,12.79 -51.71,-7.04 -1.98,1.71 -6.09,5.06 -8.14,6.7 -5.13,-8.55 -9.16,-19.01 -19.49,-22.37 -16.42,-6.63 -26.2,-21.96 -36.25,-35.57 3.35,-20.32 6.98,-40.56 10.19,-60.88l-0.55 -2.67c4.1,-20.04 8.14,-40.22 15.19,-59.44 4.51,-24.69 6.02,-50.14 -0.62,-74.56 -9.78,-4.99 -19.49,-19.01 -31.26,-11.56l-2.94 3.15 0.55 -4.79c-5.61,-1.23 -16.83,-3.63 -22.44,-4.86 1.37,-4.38 4.17,-13.06 5.54,-17.44 -11.56,-6.77 -22.98,-13.54 -34.48,-20.25 -46.1,-38.37 -71.96,-95.28 -118.4,-133.31 -34.27,-24.01 -80.65,-25.51 -117.1,-5.27zm-1421.26 50.55l0 0c-1.3,11.28 -2.94,22.64 -2.05,34.13 1.37,40.49 36.66,66.62 56.16,98.98 12.79,-0.75 25.58,-2.53 37.96,-6.16 -1.57,-24.35 0.07,-49.11 -5.61,-72.98 -8.21,-17.24 -22.3,-34 -42,-37.69 -4.31,-0.96 -13,-2.87 -17.31,-3.9 13.82,-16.76 37.01,-26.54 58.48,-20.45 35.57,10.74 62.11,38.51 95.08,54.31 -25.17,-37.42 -59.92,-71.07 -101.65,-89.13 -34,-14.7 -64.44,15.05 -79.07,42.89zm-202.61 43.71l0 0c4.72,5.06 9.51,10.12 14.3,15.19 18.13,10.4 39.26,3.9 58.89,3.01 13.54,16.01 25.93,32.9 38.37,49.73 17.38,-25.1 12.45,-68.47 -17.99,-81.26 -11.7,-0.14 -23.32,-0.48 -34.95,-1.3 26.33,-18.81 58.35,-31.53 91.18,-27.91 17.78,14.02 16.35,39.61 21.48,59.78 6.43,-22.44 8.83,-47.2 0.55,-69.43 -6.29,-26.27 -39.88,-24.08 -61.02,-22.71 -48.02,3.42 -81.19,41.25 -110.81,74.9zm631.97 -64.98l0 0c-55.54,5.88 -109.1,23.05 -159.72,46.17 -30.58,35.71 -62.79,70.32 -100.35,98.77 5.95,0.34 11.9,0.61 17.92,1.03 25.45,17.24 57.05,20.11 83.79,34.95 45.49,-33.18 101.64,-54.99 158.76,-48.02 19.63,-14.98 36.73,-32.97 52.4,-51.99 -39.88,-31.47 -92.27,-29.21 -140.16,-31.81 58.62,-18.61 121,-23.33 182.15,-23.74 27.16,8.48 55.81,2.74 83.65,4.04 -6.36,1.03 -18.95,3.08 -25.24,4.03 12.11,11.29 29.14,12.38 44.19,17.24 58.01,17.3 112.25,45.9 161.16,81.33 29.14,20.86 54.45,47.61 71.96,78.94 13.95,28.25 13.34,65.53 -7.46,90.43 -23.74,32.15 -60.88,50.75 -98.7,60.88 2.32,10.74 4.72,21.55 6.91,32.36 46.72,-10.4 96.1,-26.06 126.68,-65.39 30.92,-34.2 28.73,-86.32 8.62,-125.38 -32.97,-67.86 -95.97,-114.37 -160.06,-150.55 -94.46,-46.03 -201.85,-67.85 -306.51,-53.29zm-843.19 102.54l0 0c-60.74,12.24 -114.91,46.58 -157.8,90.5 19.29,3.21 38.44,7.39 57.59,11.42 25.31,9.03 48.77,22.03 72.51,34.27 25.72,20.18 50.62,41.45 69.02,68.88 5.88,-27.09 17.85,-52.46 24.63,-79.28 -15.53,-29.89 -53.76,-44.25 -86.12,-47.61 0.48,-16.76 17.17,-22.98 28.45,-31.95 17.78,-5.33 35.91,-9.58 53.83,-14.3 25.65,-1.03 52.26,-4.51 76.82,5.34 7.59,-5.61 14.91,-11.83 19.15,-20.59l7.66 0.55c-51.71,-22.37 -110.54,-28.46 -165.74,-17.24zm100.83 178.25l0 0c-12.45,20.66 -6.09,46.79 -3.01,69.36 12.52,-5.68 25.17,-11.08 37.55,-17.1 24.42,-4.86 47.68,-14.57 72.58,-16.89 8.21,-12.04 14.23,-25.31 16.62,-39.67 -9.23,-4.31 -18.4,-8.62 -27.5,-12.86l-2.6 3.83c-20.72,-0.82 -40.7,4.31 -59.78,11.83 19.43,-40.01 56.98,-66.9 95.42,-86.94 37.83,31.33 50.48,81.26 48.98,128.66 24.01,-60.26 1.78,-125.45 -24.15,-181.06 -76.41,3.83 -130.85,73.67 -154.11,140.84zm655.22 -84.89l0 0c-47.06,10.88 -94.94,31.4 -125.04,70.73 5.88,-11.83 7.52,-25.1 9.51,-37.96 1.64,-0.55 4.93,-1.71 6.57,-2.26 0.21,-3.21 0.55,-9.51 0.75,-12.72 -2.87,-0.68 -8.62,-2.05 -11.49,-2.8 -60.95,-27.7 -135.64,-21.34 -190.64,17.03 -70.52,47.2 -126.06,124.28 -132.08,210.68 18.95,18.88 44.94,29.14 70.52,35.43 66.21,11.42 134.89,-1.64 195.63,-29 -0.14,-2.74 -0.41,-8.28 -0.55,-11.01 -70.59,30.92 -158.9,33.38 -222.99,-13.89 71.34,5.27 144.26,-7.46 205.96,-44.8 4.31,-1.16 12.86,-3.49 17.1,-4.65 8.41,-14.36 17.24,-28.59 28.25,-41.18 -9.44,40.43 6.36,84.61 38.78,110.26 56.77,46.24 131.67,58.69 202.27,67.58 69.36,5.75 139.81,6.98 208.83,-3.21 24.9,-1.57 49.45,-8.35 72.3,-18.13 -0.14,-99.53 -49.46,-202.81 -135.85,-256.92l-2.87 -0.48c-70.45,-40.36 -156.23,-50.07 -234.96,-32.7zm763.71 56.5l0 0c29.34,-13.27 55.82,-33.58 87.9,-40.29 22.16,-6.23 51.92,9.92 45.76,35.64 -11.83,0.41 -23.8,0.89 -35.57,1.23l-2.26 4.1c-23.05,6.29 -40.97,22.92 -57.8,38.99 -21.48,22.37 -43.16,45.01 -59.24,71.76 3.83,1.3 11.42,3.9 15.18,5.2 -9.92,1.98 -19.84,4.1 -29.69,6.29 49.18,21 110.81,8.28 148.84,-29.48 32.01,-30.03 64.71,-70.59 57.52,-117.38 -9.1,-19.29 -22.5,-35.84 -40.08,-48.02 -53.01,-0.75 -93.78,38.72 -130.58,71.96zm205.75 -23.33l0 0c0.89,7.94 1.85,15.87 2.94,23.8 4.65,10.94 6.7,22.57 8.75,34.2l5.13 -4.86c-5.68,24.21 16.9,44.87 31.74,61.56 21.62,20.52 52.88,15.25 80.03,16.01 -25.92,36.94 -82.9,42.07 -116.42,12.18 47.47,63 123.33,95.97 198.09,113.75 -4.58,3.21 -13.68,9.71 -18.27,12.93 3.83,11.29 8.76,22.44 10.81,34.34 11.22,53.42 -33.93,97.81 -31.87,150.82 -5.88,41.11 26.95,71.28 54.52,96.17 -5.95,-0.96 -17.92,-2.87 -23.87,-3.83 -4.1,7.73 -8.55,15.39 -11.22,23.8 1.64,19.56 22.64,30.58 40.63,29.69 24.97,-1.5 52.87,-6.84 67.51,-29.28 2.05,-1.91 6.16,-5.68 8.21,-7.59 -17.37,-2.81 -34.75,-6.91 -49.11,-17.51 -2.87,1.37 -8.76,4.1 -11.63,5.47 6.77,-25.92 -26.68,-32.9 -32.22,-55.06 -6.64,-57.94 29.14,-106.98 52.26,-156.85 10.06,-20.59 16.28,-47.27 6.7,-68.47 -3.01,-19.97 -22.57,-25.79 -39.26,-30.3 0.82,-5.81 1.64,-11.56 2.53,-17.3 -3.76,-3.83 -7.45,-7.66 -11.15,-11.42l-5.27 1.57c-45.35,-49.52 -58.07,-117.86 -94.26,-172.85 -26.06,-41.04 -80.17,-56.23 -125.31,-40.97zm-2299.88 174.36l0 0c-98.77,93.17 -151.51,235.51 -128.05,370.26 14.09,79.69 48.16,157.05 100.96,218.75 -24.15,-48.5 -47.27,-97.88 -59.17,-151.03 -26.13,-104.38 -20.11,-221.96 39.67,-314.17 50.82,-79.28 128.39,-145.97 220.67,-170.12 4.31,0.28 12.86,0.89 17.17,1.23 -12.86,2.39 -26.88,3.15 -38.17,10.26 -17.58,15.73 -30.78,35.43 -46.72,52.67 -0.55,2.12 -1.57,6.43 -2.05,8.55 -23.94,26.54 -33.52,62.59 -42.48,96.38 -9.23,43.5 -17.78,97.95 18.81,131.61 41.79,43.02 106.5,36.87 161.22,38.44 -23.39,31.19 -64.43,42.68 -85.71,75.17l-6.09 -0.27c39.13,37.14 51.1,91.45 59.51,142.62 6.5,-7.93 13.61,-15.66 17.3,-25.38 5.2,-6.16 10.33,-12.31 15.46,-18.47 -0.27,-3.35 -0.68,-9.99 -0.89,-13.27 3.9,-1.16 11.77,-3.42 15.73,-4.58 12.04,-22.3 19.7,-46.51 26.4,-70.86 17.58,28.66 27.22,61.56 27.98,95.21 -24.63,24.83 -41.04,61.83 -75.31,74.35 0.07,1.09 0.14,3.21 0.21,4.31 97.54,-45.08 168.41,-138.65 193.37,-242.21 6.5,-10.67 12.59,-21.62 18.74,-32.49 -37.48,-5.47 -74.49,11.42 -111.5,0.96 1.09,-2.74 3.42,-8.28 4.51,-11.01 49.59,-11.7 96.72,-33.59 139.81,-60.47 19.77,-14.3 41.93,-27.57 55.2,-48.57 59.51,-75.38 40.02,-199.32 -40.56,-251.99 -55.34,-36.19 -124.08,-40.29 -188.31,-36.46 -113.48,6.36 -225.45,51.51 -307.74,130.58zm809.67 -38.78l0 0c-19.01,10.26 -42.13,4.72 -62.86,8.48 -1.57,1.85 -4.72,5.47 -6.23,7.32l-2.53 -1.16c-52.67,32.63 -81.26,104.18 -54.86,162.18 21.14,50.21 79.89,70.59 130.79,69.43 60.88,-3.9 119.77,-35.36 158.49,-82.15 -63.82,27.84 -140.77,26.2 -199.66,-12.86 3.62,20.93 7.87,41.79 11.63,62.73 -35.71,-21.14 -65.25,-54.24 -75.38,-95.15 26.54,0.34 53.77,0.75 78.46,-10.67l1.78 1.64c11.15,-4.58 22.3,-9.1 33.45,-13.68 5.54,-24.15 9.24,-48.77 8.21,-73.6 -7.18,-7.39 -13.27,-16.01 -21.27,-22.5zm1078.91 63.96l0 0c-34.27,15.94 -70.32,32.28 -96.17,60.81 27.5,-17.85 60.12,-25.24 87.96,-41.86 34.89,-9.24 76.54,-14.43 105.2,12.24 1.1,7.73 2.67,15.46 4.58,23.05 -3.56,6.77 -6.98,13.61 -10.33,20.45 -18.2,-14.84 -42.34,-20.31 -64.78,-12.52 -32.76,6.91 -56.16,31.94 -84.89,46.85 0.96,3.42 2.94,10.4 3.9,13.89 -4.99,0.68 -14.91,2.12 -19.9,2.87 11.29,14.09 30.03,17.3 46.58,21.68 48.63,11.76 98.02,-8.48 138.52,-34.27 33.79,-21.21 60.4,-60.6 46.44,-101.71 -8.82,-13.27 -18.06,-28.8 -34.88,-32.35 -42,-7.18 -82.97,8 -122.24,20.86zm205.75 46.1l0 0c1.44,2.46 4.17,7.46 5.54,9.99 32.77,8.96 57.05,35.5 73.12,64.3 9.92,18.06 1.03,39.67 -6.09,57.05 -12.52,-12.79 -19.63,-29.28 -25.99,-45.69 -13.61,-6.09 -27.29,-11.83 -41.18,-17.1 -4.72,4.79 -9.37,9.58 -14.02,14.36 -0.89,-1.78 -2.67,-5.34 -3.56,-7.05 -11.76,3.76 -23.74,6.84 -35.7,9.58 19.63,98.84 97.61,176.75 187.63,216.29 -1.85,1.57 -5.54,4.58 -7.39,6.09 -3.49,1.64 -10.4,4.92 -13.82,6.57 3.83,14.98 6.02,30.3 5.75,45.83 -12.93,56.43 -66.15,96.72 -65.94,157.67 7.18,29.41 20.66,57.18 41.52,79.41 -8.27,-2.46 -16,-8.62 -24.9,-7.25 -5.13,4.92 -10.12,9.99 -14.98,15.19 2.94,10.12 -0.14,24.28 10.46,30.64 26.61,20.59 67.92,19.7 95.56,1.57 3.42,-3.35 6.91,-6.71 10.4,-10.06 -25.58,2.67 -35.71,-25.72 -59.17,-27.5 11.35,-22.71 -20.59,-34.27 -18.26,-56.16 -0.07,-13.61 1.71,-27.16 3.21,-40.63 26.13,-49.11 70.39,-85.57 94.81,-135.64 8,-16.42 0.14,-34.41 -5.06,-50.34 -12.86,-8.83 -26.06,-17.17 -39.74,-24.56 8.35,-3.83 17.3,-6.7 26.06,-9.78 -7.18,-4.58 -14.23,-9.17 -21.27,-13.75 -1.37,-0.61 -3.97,-1.91 -5.27,-2.53 3.69,-12.93 -1.23,-24.35 -9.92,-33.65 -23.74,-57.46 -20.66,-122.99 -51.03,-177.98 -12.66,-24.21 -38.03,-36.87 -58.76,-52.94 -10.67,-0.68 -21.34,-1.37 -32.01,-1.92zm-962.21 34.75l0 0 0 2.67c-26.68,-4.24 -50.41,12.45 -74.42,21.41 -3.49,-0.75 -10.53,-2.26 -14.02,-3.01 24.42,38.78 56.57,73.94 97.82,95.08 50.55,-20.25 102.81,-42.96 139.95,-84.34 -10.88,-4.92 -23.05,-5.61 -31.46,4.04 -24.83,19.22 -52.26,34.95 -80.58,48.43 -8.62,2.39 -17.72,10.81 -26.75,5.75 -14.98,-11.15 -26.88,-25.72 -40.63,-38.24 12.31,4.31 25.92,3.69 37.55,-2.8 1.3,2.4 3.9,7.18 5.2,9.58 4.38,-25.51 8.07,-51.1 10.12,-76.82 -7.73,5.88 -15.25,12.04 -22.78,18.26zm-120.93 136.05l0 0c2.12,0.2 6.5,0.75 8.69,0.96 0.07,-18.95 11.08,-34.54 19.36,-50.68l-29.21 -33.86c-1.3,-3.28 -3.83,-9.92 -5.06,-13.27 -24.28,28.86 -19.22,70.59 6.22,96.86zm559.6 -85.09l0 0c29.34,16.28 60.74,28.66 90.56,44.19 25.99,-4.79 51.99,-9.92 78.25,-13.41 -46.79,-38.58 -111.56,-43.71 -168.81,-30.78zm-209.24 0.21l0 0c10.19,18.74 20.8,38.85 17.51,60.95 -9.17,36.05 17.51,68.27 43.16,90.15 28.87,25.1 71.28,22.57 104.86,9.37 24.28,-42.41 62.38,-73.6 100.83,-102.47 -52.33,13.61 -100.21,41.59 -140.23,77.64 2.67,-27.98 -14.91,-51.85 -34.4,-69.7 -28.46,-24.83 -58.69,-47.61 -91.73,-65.94zm-51.99 22.16l0 0 -32.22 39.54c6.77,21.27 5.61,43.09 -4.03,63.41 8.41,-2.39 16.89,-4.72 25.31,-7.05 39.81,-12.31 68.4,-64.78 37.55,-99.94l1.3 -2.67c-10.33,-9.44 -19.83,-0.68 -27.91,6.7zm-719.18 16.42l0 0c9.51,53.49 51.64,92.48 67.99,143.23 4.03,16.42 2.12,33.52 3.35,50.28 -8.82,18.74 -28.66,31.19 -30.51,53.22 31.33,1.71 46.1,-28.59 61.22,-50.62 15.32,-23.12 9.71,-52.05 9.03,-78.05 -6.36,9.3 -12.66,18.68 -18.27,28.52 -9.71,-58.07 -64.23,-92.75 -81.26,-147 -2.87,0.14 -8.69,0.34 -11.56,0.41zm1080.82 63.34l0 0c-39.6,24.01 -73.94,55.81 -104.72,90.22 52.67,10.4 101.92,35.5 141.46,71.76l1.57 -4.92c50.75,-10.81 86.05,-60.33 94.87,-109.31 24.63,17.37 26.75,50.28 46.79,71.41 -1.57,33.24 4.38,67.85 -7.66,99.8 -8.55,28.52 -26.54,52.67 -43.57,76.61 4.93,20.52 11.63,40.63 18.81,60.54 3.62,-1.16 10.88,-3.56 14.5,-4.79 30.98,-50.96 66.49,-104.04 66.83,-166.08 4.86,-60.6 -15.87,-123.46 -57.53,-168l0 -4.1c-17.03,-19.84 -43.23,-27.36 -67.79,-32.56l4.51 -2.26c-36.87,-0.27 -75.58,2.53 -108.07,21.68zm-373.89 223.88l0 0c-36.46,33.38 -64.37,82.42 -56.43,133.38 9.78,62.45 14.36,125.52 14.91,188.72 -23.74,-38.17 -24.49,-87.76 -53.97,-122.58 -0.34,-4.58 -1.03,-13.89 -1.37,-18.54 -109.03,40.7 -199.19,122.03 -263.96,217.38 -23.74,36.53 -47.33,74.01 -60.19,115.94 17.24,-38.51 48.09,-68.54 77.91,-97.47 44.46,-40.08 94.6,-75.04 150.42,-97.27 -28.11,34.27 -43.23,77.16 -51.03,120.39 6.91,4.1 13.82,8.62 21.21,11.97 -3.83,-1.03 -11.49,-3.15 -15.32,-4.17 -43.57,9.85 -85.91,25.79 -125.79,45.9 19.08,-1.44 38.17,-3.63 56.98,-6.91 78.18,-6.91 159.99,11.22 221.76,61.29 -1.03,-1.78 -3.15,-5.2 -4.24,-6.98 29.96,-33.04 43.44,-77.02 55,-119.22 54.31,31.26 120.66,46.58 181.67,26.33 82.29,-25.79 146.18,-96.45 171.83,-177.91 19.01,-48.29 16.01,-100.96 14.09,-151.71 0,-8.35 -2.05,-16.28 -6.5,-23.26l1.16 -3.69c-4.24,-11.15 -8.48,-22.3 -13.54,-33.11 -1.03,-13.06 -4.04,-27.43 8.27,-36.39 18.47,27.5 42.41,51.03 58.83,79.96 26.4,39.4 39.81,85.91 46.24,132.49 9.71,94.53 -31.94,187.22 -92.68,257.47 -68.81,85.98 -161.84,149.05 -258.7,199.53 -108.48,54.31 -226.41,93.44 -347.75,103.36 57.32,9.17 115.46,1.16 172.24,-7.87 224.5,-41.32 427.24,-190.77 531.76,-393.79 37.62,-72.1 51.64,-157.8 28.11,-236.6 -10.4,-56.7 -36.39,-110.95 -75.93,-153.02 -47.61,-48.98 -115.81,-77.36 -184.21,-75.31 -72.78,-2.19 -145.56,24.56 -200.76,71.69zm-680.12 -38.72l0 0c-12.93,13.34 -30.44,18.74 -48.29,21.48 7.32,4.38 14.64,8.96 22.92,11.77l-0.07 6.77c3.63,-1.09 10.81,-3.21 14.43,-4.31l-1.58 8.82c18.95,-0.34 37.9,-0.07 56.84,0l-3.97 -14.3c4.65,2.53 13.89,7.59 18.47,10.12 -2.67,-4.92 -8,-14.71 -10.74,-19.56l16.69 5.54c-0.89,-10.06 -1.71,-20.04 -2.39,-30.03 -20.86,-3.08 -41.66,1.57 -62.31,3.69z"/>
   <path class="fil0" d="M2746.33 1580.27c31.19,11.56 66.97,9.44 96.45,24.21 9.03,48.22 -10.4,101.85 13.82,147.75 9.85,26.13 38.03,43.16 38.99,72.71 -19.56,-10.46 -31.6,-29.14 -42.07,-47.88 -8.48,-15.53 -26.54,-22.1 -36.25,-36.32 -20.25,-38.37 -26.68,-82.43 -47.95,-120.32 -7.59,-13.48 -15.53,-26.68 -22.98,-40.15z"/>
   <path class="fil0" d="M1831.45 1676.78c6.22,-9.23 11.15,-21.48 24.21,-21.55 43.23,48.57 65.39,112.73 66.49,177.3 -48.91,14.3 -99.66,21.96 -150.62,22.64 -82.7,-11.08 -166.9,-26.95 -240.44,-68.26 -21.07,-11.56 -38.37,-29.07 -49.38,-50.34 70.79,30.03 149.94,25.31 224.49,15.12 48.02,-9.37 100.48,-29.76 125.25,-74.9z"/>
   <path class="fil1" d="M1569.41 7.16c93.98,-14.43 193.92,-8.48 281.34,31.12 28.18,10.81 48.16,39.6 80.44,38.85 70.32,3.69 132.43,47.68 171.76,104.04 17.3,25.86 26.13,60.4 57.59,73.39 81.4,41.25 138.38,120.73 164.37,206.99 5.4,20.86 23.94,33.65 37.48,49.04 46.86,51.1 70.52,118.95 80.03,186.67 52.05,26.54 107.53,59.17 131.47,115.39 21.21,35.09 30.78,75.45 36.73,115.6 3.08,28.59 -2.05,58.28 8.14,85.91 15.53,46.85 17.99,96.92 13,145.83 -5.54,22.02 -14.36,43.43 -14.98,66.55 13.06,5.95 25.79,13.06 39.81,16.9 30.58,-3.83 61.77,-9.44 92.55,-3.35 55.06,13.48 103.35,47.95 138.44,92 23.19,33.72 38.92,76.41 77.09,96.52 22.64,12.11 38.99,32.76 60.6,46.58 18.4,12.59 32.76,31.74 36.12,54.24 13,63.89 -27.5,125.93 -9.78,189.48 14.91,-0.96 29.62,-3.49 43.78,-8.28 11.29,7.53 23.73,14.09 32.97,24.42 14.3,30.23 12.38,65.67 -0.89,95.9 -11.49,35.02 -45.76,55.34 -78.18,68.2 -39.88,9.3 -82.7,5.68 -119.23,-13.48 -5.33,-7.05 -10.6,-13.95 -15.87,-20.93 -3.76,24.01 -6.36,48.43 -14.09,71.68 -13.34,38.44 -35.77,73.46 -45.62,113.21 -4.38,12.72 0.41,25.72 3.15,38.31 20.59,-1.64 41.38,-0.41 60.74,7.73 19.63,42.34 8.96,93.03 -20.45,128.12 -26.13,37.28 -76,43.78 -118.06,42.48 -41.93,0.55 -80.85,-26.68 -99.11,-63.61 -13.54,-24.56 -0.34,-54.72 -13.61,-79.41 -10.81,-23.12 -16.69,-48.16 -18.54,-73.53 -2.12,-42.82 14.84,-82.83 25.65,-123.05 7.8,-25.65 -21.82,-26.4 -38.03,-33.04 -42.14,-16.48 -82.49,-40.01 -113.55,-73.4 -8.48,-11.49 -23.19,-6.09 -35.02,-5.95 8.89,23.87 25.79,43.57 36.53,66.62 29.82,55.13 20.39,121.21 43.03,178.6 9.58,14.43 22.16,27.22 26.95,44.39 8.76,28.32 34.07,50.75 31.6,82.49 0.55,60.54 -45.08,106.57 -77.36,153.29 -15.12,18.13 -12.38,42.41 -13.14,64.3 18.47,4.45 42.48,1.85 54.31,19.9 14.7,45.42 -7.25,96.65 -47.68,120.73 -53.9,35.98 -128.87,21.68 -174.84,-20.59 -30.23,-31.74 -33.86,-78.32 -22.98,-118.95 -9.71,-49.52 -12.31,-103.56 11.56,-149.73 10.81,-26.61 39.6,-48.7 30.44,-80.44 -54.93,-33.65 -105.95,-77.02 -135.3,-135.64 -9.44,-0.2 -18.88,-0.34 -28.32,-0.55 42.68,75.45 50.41,165.74 36.87,250.15 -13.61,73.33 -48.43,141.32 -94.8,199.19 -9.85,12.04 -22.98,21.96 -29.48,36.32 -5.61,25.79 -5.68,52.33 -10.26,78.32 -31.6,149.73 -130.92,277.78 -253.56,365.81 -77.71,61.97 -166.56,110.2 -261.09,140.91 -99.86,37.83 -208.56,54.24 -314.92,41.32 -55.06,-7.32 -107.05,-29.62 -153.97,-58.69 -28.46,-13.2 -30.64,-62.31 -1.91,-76.27 51.1,-28.04 106.43,-50.69 149.73,-90.84 18.61,-17.85 40.43,-31.94 58.76,-50.07 -12.52,-14.77 -34.68,-16.83 -52.12,-23.46 -38.03,-9.57 -77.77,-4.99 -116.56,-5.4 -40.08,-0.96 -77.77,13.82 -116.49,21.27 -22.57,5.2 -45.69,-15.53 -45.28,-38.1 -1.78,-63.27 26.81,-121.55 50.41,-178.53 18.74,-39.74 45.83,-74.83 69.98,-111.36 68.67,-82.63 157.19,-148.71 255.82,-191.32 7.25,-53.08 32.9,-100.76 64.23,-143.3 33.52,-40.08 79.48,-67.03 124.9,-91.59 -31.88,5.54 -63.68,12.93 -96.17,13.48 -27.22,-1.92 -39.95,-29.28 -39.95,-53.49 -23.19,2.12 -45.97,11.08 -69.43,8.34 -14.09,-4.99 -27.57,-11.56 -41.38,-17.03 -1.98,17.79 -9.99,33.52 -23.87,44.94 -13.2,-0.41 -26.61,1.16 -39.53,-1.85 -32.56,-18.67 -60.2,-45.14 -82.63,-75.11 -17.24,-0.2 -32.35,10.6 -48.36,15.6 -33.72,11.42 -68.88,18.06 -103.7,25.51 1.09,36.12 0.82,75.24 -21.69,105.54 -7.66,29.89 5.82,64.5 -11.97,92.14 -38.72,64.02 -128.39,80.85 -192.76,48.7 -40.43,-25.51 -55.47,-76.47 -53.42,-121.96 8.76,-9.51 16.49,-20.32 27.22,-27.64 13.68,-2.26 27.63,-1.03 41.45,-0.82 12.24,-31.94 5.4,-73.81 -23.05,-94.94 -41.52,162.59 -169.36,299.4 -328.74,351.86 -35.36,11.42 -80.51,30.37 -112.86,2.33 -1.71,-21.62 -0.89,-43.3 3.35,-64.57 6.02,-28.18 -1.16,-56.71 -8.96,-83.66 -28.52,62.73 -21.21,133.59 -20.25,200.55 2.12,28.66 -32.08,45.63 -56.77,36.12 -114.92,-63.55 -211.91,-165.74 -254.8,-291.39 -39.33,-117.58 -30.99,-250.42 24.01,-361.71 38.17,-83.79 97.4,-158.01 170.59,-213.89 26.2,-23.6 56.57,-41.45 88.24,-56.77 64.57,-36.46 136.74,-58.55 209.93,-68.88 33.04,-2.8 53.28,-31.74 78.32,-49.66 42.48,-30.37 87.62,-56.98 134.48,-80.17 80.3,-40.43 173.33,-49.39 261.02,-31.6 25.58,-22.64 50.07,-47.33 79.21,-65.6 25.86,-13.2 53.56,-23.33 82.01,-29.55 22.57,-5.2 44.94,2.67 67.31,4.93 20.32,-5.34 38.37,-16.96 58.62,-22.5 25.24,-8.35 52.12,-0.82 77.84,-4.93 16.96,-7.25 31.74,-18.88 49.25,-25.04 18.4,-7.11 38.51,-6.43 57.53,-11.08 20.73,-12.52 39.06,-31.26 64.57,-33.59 49.8,-14.43 99.39,7.39 142.76,30.23 15.05,-19.77 22.37,-44.39 38.72,-63.13 26.95,-29.34 81.88,-11.83 100.55,-50.55 17.72,-25.45 26.47,-55.27 38.24,-83.59 8.35,-20.39 33.38,-22.03 49.73,-33.38 4.51,-16.21 1.5,-33.52 1.5,-50.07 16.42,-19.43 43.71,-28.25 55.54,-51.3 -3.42,-19.43 -7.04,-38.99 -5.68,-58.83 9.3,-9.65 30.85,-22.5 16.96,-37.28 -29,-31.95 -53.9,-71.96 -52.46,-116.69 -2.26,-21.27 7.39,-49.04 -13.06,-63.82 -34.89,-30.85 -70.39,-67.52 -75.65,-116.22 -61.29,-12.66 -122.17,-49.25 -142.55,-111.56 -51.85,-4.24 -102.54,10.81 -154.32,7.87 -7.46,27.02 -27.29,47.13 -42,70.04 -8.76,35.91 -3.08,74.56 -16.42,109.58 -15.8,41.25 -37.14,81.47 -70.66,111.08 -19.36,20.59 -46.45,30.71 -68.54,47.54 -17.1,18.06 -25.45,42.41 -41.79,61.15 -32.35,37.62 -70.59,70.45 -113.41,95.63 -55.61,25.58 -116.62,44.87 -178.53,38.65 -18.13,-4.93 -29.82,-24.97 -27.09,-43.44 -0.82,-21.68 20.04,-33.79 30.51,-50.34 28.66,-43.78 31.47,-99.32 22.03,-149.46 -17.1,-79.21 -42.96,-157.8 -44.26,-239.47 3.35,-47.88 10.67,-99.18 40.77,-138.38 32.35,-52.26 89.06,-82.7 144.67,-104.04 15.46,-32.83 32.76,-65.53 60.81,-89.61 59.65,-51.85 138.04,-77.43 215.67,-85.57 43.09,-7.66 86.8,1.78 130.03,-3.56zm-27.29 46.58l0 0c-82.91,-11.22 -169.77,3.63 -244.13,42.55 -46.31,25.24 -88.51,67.31 -97.75,120.93 -37.76,15.19 -76.61,29.82 -108.14,56.23 -48.77,34.82 -71,96.45 -71.96,154.59 1.71,76.95 25.1,150.96 42.2,225.45 16.01,74.01 2.12,153.84 -42.55,215.53 101.92,-3.01 200.49,-61.36 254.46,-147.54 10.12,-14.91 13.82,-35.91 31.74,-43.98 18.54,-10.88 38.51,-19.49 55.27,-33.17 32.83,-24.15 54.45,-60.74 66.83,-98.98 12.31,-35.98 8.76,-74.63 7.87,-111.91 13.06,-13.34 26.88,-26.27 36.73,-42.27 14.77,-23.39 25.51,-50.69 48.77,-67.38 19.7,6.36 40.22,13.95 61.22,10.06 43.64,-7.05 87.83,-12.79 132.15,-10.6 4.86,22.44 7.73,47.06 24.69,64.3 27.77,36.12 74.56,51.37 118.75,52.4 5.06,64.84 50.41,118.2 104.72,150 -27.22,71.07 8.82,155.48 74.97,190.7 -0.14,3.08 -0.41,9.1 -0.55,12.18 -14.3,10.74 -29.89,20.73 -40.43,35.57 -5.4,23.6 3.35,48.29 -1.23,72.23 -13.75,18.54 -36.8,27.29 -54.45,41.72 -1.85,21.07 -4.38,42.07 -6.91,63.07 -21.27,12.52 -53.97,16.35 -58.35,45.49 -10.4,35.84 -31.81,66.55 -53.15,96.58 -29.21,12.59 -67.38,9.17 -89.26,34.89 -14.43,28.11 -30.3,55.4 -51.16,79.28 -23.94,-6.5 -42.14,-24.42 -64.57,-34.07 -25.58,-12.59 -55.13,-12.59 -82.77,-9.3 -26.33,1.91 -42,25.17 -59.92,41.38 -17.71,-0.75 -35.64,-2.74 -53.22,0.27 -22.36,5.47 -40.08,21.14 -58,34.61 -27.57,-2.12 -56.02,-10.53 -83.18,-1.57 -18.06,5.06 -31.4,19.08 -47.4,28.04 -25.38,1.5 -48.57,-18.74 -74.35,-11.15 -61.77,12.11 -112.45,53.63 -151.65,101.03 -25.65,1.03 -49.52,-12.18 -75.11,-13.61 -89.54,-9.17 -176,26.88 -250.97,72.64 -41.52,22.85 -76.75,54.79 -113.96,83.79 -18.2,14.77 -43.37,11.15 -64.98,15.53 -92.55,19.22 -183.25,54.93 -257.53,114.37 -68.4,53.56 -126.2,122.37 -159.79,203.02 -27.5,49.93 -36.25,107.12 -43.16,162.86 -3.63,65.19 8.89,131.2 34.27,191.25 22.37,55.95 61.29,103.01 100.83,147.68 32.63,36.39 75.24,61.08 116.76,85.84 0.48,-52.67 -4.99,-106.23 6.29,-158.14 9.92,-36.94 20.32,-74.69 42.48,-106.43 3.08,-7.59 12.72,-9.03 19.43,-5.68 40.7,54.1 61.29,125.72 40.15,191.93 34.54,4.58 65.67,-13.2 96.52,-25.65 99.93,-40.56 177.02,-123.06 230.38,-214.92 16.96,-38.72 31.05,-79.07 37.28,-121 16.42,-13.61 32.77,-29.21 54.86,-32.36 16.62,33.93 36.05,66.62 48.43,102.47 11.08,29 2.46,59.99 -2.46,89.33 -9.58,5.75 -18.06,14.98 -29.82,16.01 -12.66,2.74 -27.77,-0.68 -37.69,9.44 3.08,24.97 13.34,52.05 37.48,63.55 42,21.55 100.62,8.96 127.64,-30.58 12.11,-20.86 8.41,-46.92 0.28,-68.54 10.67,-16.21 27.02,-30.99 26.74,-51.92 4.79,-35.71 -0.75,-71.48 -9.17,-106.16 43.23,2.67 87.55,3.29 128.53,-12.79 34.54,-7.73 62.73,-32.63 97.95,-37.28 14.84,37.96 43.3,68.54 76.61,91.32 1.09,-1.44 3.28,-4.24 4.38,-5.68 1.78,-21.68 9.78,-44.46 28.66,-56.91 29.48,-5.4 43.09,34.75 72.16,35.23 39.33,3.49 69.16,-29.82 107.6,-30.17 9.99,23.94 5.68,49.32 -3.21,72.78 22.85,-0.62 46.31,-1.78 67.51,-11.35 12.52,-4.24 24.42,-13.2 38.24,-11.7 11.42,30.44 37.89,49.11 61.9,69.15 -48.02,16.83 -97.06,36.05 -135.16,71 -25.04,22.85 -49.66,47.13 -66.97,76.61 -16.07,31.81 -26.47,66.69 -27.16,102.47 -47.27,16.01 -89.13,43.51 -131.88,68.54 -59.85,38.65 -108.28,92.14 -150.76,148.71 -44.32,68.61 -82.7,143.99 -93.09,225.93 40.08,-3.08 78.59,-15.73 118.54,-19.84 83.72,-9.92 172.37,10.6 240.16,61.63 -67.79,77.64 -152.53,139.74 -245.02,184.82 -7.52,2.33 -1.85,13.68 3.63,15.53 31.33,17.99 64.78,33.24 100.35,40.29 100,18.95 204.59,5.82 300.15,-27.5 106.91,-33.79 205.55,-90.36 293.99,-158.56 37.97,-34.88 75.38,-70.79 109.1,-109.85 44.12,-59.3 82.63,-124.83 100.96,-197.07 9.17,-34.95 5.75,-71.89 14.16,-106.98 50.89,-50.55 90.56,-112.86 113.61,-180.86 23.46,-85.43 22.3,-181.54 -21.07,-260.61 -11.56,-18.88 -24.97,-36.6 -35.3,-56.16 39.54,2.46 79.62,-6.16 111.09,-31.26 24.01,45.97 52.6,90.29 91.52,125.04 22.98,19.22 48.84,34.54 74.01,50.68 1.85,27.84 5.47,58.48 -10.74,83.11 -36.73,48.09 -54.24,116.76 -21,171.41 -7.32,17.1 -20.45,34.06 -16.69,53.63 14.64,48.56 73.33,76.13 120.53,58.83 22.09,-6.02 35.5,-25.79 50.28,-41.66 0.27,-8.41 0.55,-16.83 0.89,-25.17 -29.07,-1.23 -63.14,-19.97 -61.63,-52.94 -3.15,-57.12 37.76,-101.3 68.74,-144.46 19.49,-25.72 38.44,-64.57 14.98,-93.71 -17.99,-18.6 -18.74,-46.1 -33.93,-66.35 -28.66,-40.7 -27.02,-92.48 -36.6,-139.34 -13.27,-59.03 -43.3,-117.92 -96.79,-149.8 30.37,-11.22 64.16,-18.67 87.96,-42.21 6.98,-6.57 14.57,-14.23 25.24,-11.01 14.71,16.01 24.22,36.8 42.48,49.52 20.93,14.77 41.25,30.85 64.23,42.55 25.1,13 53.08,18.33 79.96,26.54 5.54,16.01 11.63,32.29 11.22,49.52 2.05,33.79 -19.43,62.59 -23.19,95.42 -6.63,36.05 -0.34,75.65 24.01,104.04 9.03,9.24 1.16,22.64 0.55,33.66 -11.9,31.81 18.33,59.17 45.42,69.15 32.08,5.06 69.77,5.61 94.87,-18.4 20.86,-17.58 28.86,-44.94 29.28,-71.34 -23.19,-5.06 -61.77,7.59 -69.7,-23.26 -21.96,-59.24 11.63,-116.49 35.71,-168.82 13.54,-29.41 24.28,-72.71 -4.99,-96.17 -19.49,-13.68 -24.21,-38.72 -42.2,-53.7 -36.05,-31.6 -45.83,-80.51 -63.55,-122.85 -24.63,-60.95 -74.63,-115.26 -140.91,-129.14 18.33,-17.31 40.56,-30.92 54.31,-52.6 2.6,0 7.8,-0.07 10.33,-0.14 36.6,36.87 87.9,55.06 137.56,66.21 23.67,5.74 55.95,-5.4 70.93,19.7 30.03,37.96 3.22,86.05 11.01,129.01 2.26,36.12 26.54,64.91 52.26,88.03 0.82,14.43 -1.37,29.69 3.35,43.64 29.34,39.4 91.25,38.72 126.2,7.39 23.67,-17.79 34.27,-52.26 22.78,-79.82 -18.06,6.16 -37.07,7.18 -55.88,7.39 -16.69,-21.07 -31.81,-45.14 -31.88,-72.92 -0.96,-46.38 18.47,-90.36 19.56,-136.6 -0.41,-18.33 -6.57,-39.47 -24.35,-48.09 -24.97,-12.79 -41.86,-36.11 -65.87,-50.27 -41.04,-25.31 -56.64,-74.01 -88.31,-108.28 -34.68,-40.01 -84.41,-75.58 -139.88,-71.21 -19.22,0.62 -35.36,12.86 -53.83,16.48 -23.94,-15.87 -47.4,-34.82 -78.18,-32.01 -5.81,-19.49 -13.75,-42.2 -1.37,-60.95 21.27,-37.69 25.45,-82.7 18.81,-124.83 -5.82,-34.54 -21.62,-67.38 -19.63,-103.01 1.78,-66.28 -19.84,-134 -64.37,-183.73 -28.18,-30.92 -66.9,-48.91 -105.41,-63.48 -0.89,-70.11 -25.58,-139.54 -71.48,-192.69 -15.94,-17.44 -40.49,-29.48 -43.84,-55.34 -21.21,-85.3 -80.78,-160.74 -161.98,-195.77 -6.5,-4.03 -16.14,-5.27 -19.36,-13.13 -19.77,-41.45 -43.57,-82.77 -79.76,-112.11 -37.62,-32.36 -88.44,-44.33 -137.15,-41.93 -24.83,-31.95 -64.85,-44.05 -101.44,-56.91 -78.59,-25.99 -162.94,-18.26 -243.24,-6.16zm1204.22 1526.53l0 0c7.46,13.47 15.39,26.68 22.98,40.15 21.27,37.89 27.7,81.94 47.95,120.32 9.71,14.23 27.77,20.8 36.25,36.32 10.47,18.74 22.5,37.42 42.07,47.88 -0.96,-29.55 -29.14,-46.58 -38.99,-72.71 -24.21,-45.9 -4.79,-99.52 -13.82,-147.75 -29.48,-14.77 -65.26,-12.65 -96.45,-24.21z"/>
   <path class="fil2" d="M1387.66 122.01c49.05,-21.68 105.61,-20.73 158.21,-18.54 17.17,16.14 14.3,42.96 21.07,64.09 8.96,31.46 3.35,68.26 -24.08,88.78 8,-23.67 16.42,-56.57 -11.56,-70.59 -23.87,-9.44 -50.28,-6.43 -75.38,-8.48 32.15,-20.72 69.84,-35.02 93.3,-66.83 -54.17,-9.3 -107.8,6.7 -161.57,11.56z"/>
   <path class="fil2" d="M1868.39 162.5c-14.23,44.12 -43.23,81.26 -63.07,122.71 -4.99,-17.85 -14.5,-33.72 -27.02,-47.27 -16.76,-24.76 -39.67,-45.35 -52.6,-72.57 31.81,9.85 61.77,32.22 96.58,27.02 19.43,-1.64 31.74,-18.67 46.1,-29.89z"/>
   <path class="fil2" d="M1964.22 271.53c29.28,9.71 58.07,20.73 86.6,32.56 -1.37,-6.5 -3.97,-19.49 -5.27,-26.06 13.75,13.61 20.25,38.03 6.09,53.7 -22.44,29.14 -51.1,52.6 -75.79,79.69 -9.64,-1.1 -19.15,-2.12 -28.66,-3.56 -2.12,-11.7 -4.31,-23.46 -6.36,-35.16 19.36,-30.23 24.08,-65.94 23.39,-101.17z"/>
   <path class="fil2" d="M1173.29 285.9c35.23,-1.3 71.62,13.89 91.86,43.44 19.98,28.32 30.3,63.95 24.63,98.5 -5.68,30.3 -8.34,64.5 -32.49,86.73 -18.06,-9.44 -37.62,-15.94 -58.14,-16.48 14.98,22.64 30.51,46.31 31.33,74.49 2.19,38.99 0.96,85.37 -27.5,115.19 12.31,-38.1 29.21,-77.5 21.41,-118.4 -11.56,-50.48 -59.31,-87.01 -60.13,-140.84 -2.05,-44.73 10.74,-88.24 19.43,-131.74 -1.3,-1.37 -3.9,-4.17 -5.2,-5.61l-5.2 -5.27z"/>
   <path class="fil2" d="M2111.35 379.2c4.65,-4.51 9.3,-8.96 14.02,-13.48 5.88,24.35 8.48,49.39 13.61,73.87 25.04,23.87 57.66,38.03 86.73,56.5 -8.89,-33.45 -24.35,-64.43 -35.84,-96.86 23.73,28.8 41.45,66.56 40.7,104.45 1.3,13.47 -12.79,17.99 -21.41,24.55 -23.94,14.57 -46.38,31.81 -71.82,43.64 -17.85,9.3 -38.3,4.99 -57.46,3.76l-0.96 -1.98c-4.58,-9.03 -9.03,-18.06 -13.82,-26.88 23.94,-17.72 41.66,-42.21 53.49,-69.29 13.48,-26.74 8.76,-57.39 9.58,-86.19 -5.61,-4.03 -11.22,-8.07 -16.83,-12.11z"/>
   <path class="fil2" d="M2267.45 537.69c9.92,0.55 16.69,7.87 23.87,13.75l-1.71 2.67c-13.2,18.54 -22.85,41.04 -20.39,64.16 17.17,21 38.78,37.96 58.07,56.98 0.96,-5.68 2.94,-16.96 3.9,-22.64 7.46,17.85 4.1,36.87 0.34,55.2 -39.81,-2.26 -80.17,-5.95 -119.64,1.78 -30.71,4.03 -59.23,18.33 -90.5,19.22 0.41,-4.92 1.09,-14.84 1.5,-19.77 51.16,-11.77 98.91,-40.56 130.03,-83.32 8.55,-13.48 10.67,-29.69 14.5,-44.87l-13.89 2.46c7.87,-3.42 15.66,-6.84 23.67,-10.12 0.82,-9.37 -0.61,-18.26 -4.24,-26.68l-2.46 -3.63 -3.08 -5.2z"/>
   <path class="fil2" d="M2131.81 809.86c3.49,-1.3 10.33,-3.76 13.75,-5.06 21.41,2.94 42.96,4.79 64.23,8.69 0.14,7.8 0.34,15.59 0.61,23.46 -24.01,3.76 -48.29,5.4 -72.37,8.76 -2.12,-11.97 -4.17,-23.94 -6.22,-35.84z"/>
   <path class="fil2" d="M2101.91 933.05c2.33,-0.89 6.91,-2.74 9.17,-3.62 20.86,3.01 41.66,6.16 62.45,9.71 0,10.94 -0.07,21.89 0,32.9 -3.35,3.9 -6.7,7.87 -9.92,11.83 -40.97,-8.69 -85.78,-9.03 -124.83,7.45 -2.74,-1.98 -8.21,-5.95 -10.94,-7.93 1.23,-6.23 2.53,-12.45 4.03,-18.67 2.74,-1.85 8.14,-5.61 10.88,-7.53 -0.62,6.91 -1.16,13.82 -1.71,20.73 20.52,-3.83 45.21,-1.91 60.95,-17.99 8.07,-7.52 2.67,-18.4 -0.07,-26.88z"/>
   <path class="fil2" d="M1952.73 1084.56c66.62,-16.49 136.6,-17.72 204.86,-12.11 38.78,2.33 75.65,15.12 113.41,23.05 1.44,0.27 4.17,0.75 5.61,1.03 36.59,32.9 76.88,65.32 98.57,110.61 -13.61,40.9 -0.75,87.08 -23.87,125.38 1.03,-32.29 5.68,-65.53 -3.35,-97.06 -23.53,-62.52 -79.48,-109.1 -141.73,-130.58 -65.12,-27.09 -138.38,-30.58 -207.26,-19.08 34.2,12.72 69.09,23.46 103.42,35.84 -1.98,17.17 -10.4,32.08 -24.08,42.61 -56.5,-22.5 -117.92,-24.62 -177.71,-28.93 12.65,-8.96 23.67,-20.04 34.13,-31.53 -0.21,9.92 -0.34,19.77 -0.41,29.69 26.33,1.91 52.81,3.35 79.28,3.35 -8,-19.7 -15.73,-46.17 -40.56,-49.52 -9.23,4.1 -17.85,9.23 -26.54,14.3 2.05,-5.68 4.11,-11.36 6.23,-17.03z"/>
   <path class="fil2" d="M1730.9 1301.74c28.66,-15.25 48.98,-40.97 72.23,-62.72 24.83,-3.08 50,-0.21 74.97,-2.05 29.14,22.51 70.66,22.57 97.95,49.52 -12.93,23.19 -28.45,45.01 -49.18,61.9 -51.85,-14.16 -104.79,-28.39 -158.97,-27.22 -17.38,-0.48 -35.57,1.37 -51.92,-5.74l6.29 -0.48c53.9,10.6 126.61,-8.55 141.32,-68.4 -19.63,-4.38 -42.34,-9.92 -60.2,2.67 -19.22,14.57 -34.68,33.38 -52.4,49.66 -4.99,0.75 -15.05,2.12 -20.11,2.87z"/>
   <path class="fil2" d="M1517.01 1313.37c6.91,-12.93 22.37,-15.87 35.23,-19.43 -0.75,8.82 -1.5,17.65 -2.19,26.54 8.21,4.03 16.55,8.14 24.83,12.31 -20.93,9.92 -43.23,16.89 -66.55,17.37l0.62 -3.21c2.19,-11.29 3.83,-22.85 8.07,-33.58z"/>
   <path class="fil2" d="M2590.03 1357.42c4.17,0.34 12.45,0.96 16.55,1.23 -3.69,18.74 -6.7,37.62 -9.78,56.5 -25.17,40.15 -68.06,62.93 -107.87,85.91 5.74,-35.84 26.81,-66.83 47.54,-95.69 14.84,-18.68 30.23,-39.74 53.56,-47.95z"/>
   <path class="fil2" d="M1241.83 1421.1c-0.89,-11.49 0.75,-22.85 2.05,-34.13 -0.41,13.2 0.07,26.33 0.61,39.6 6.98,-7.25 14.02,-14.43 21,-21.61 -4.24,10.74 -8.83,21.34 -13.41,32.01 4.93,10.74 9.99,21.48 15.05,32.28 16.62,-8.55 39.4,-11.63 48.57,-29.75 -4.24,-14.84 -17.44,-25.1 -27.36,-36.25 19.7,3.69 33.79,20.45 42,37.69 5.68,23.87 4.04,48.63 5.61,72.98 -12.38,3.63 -25.17,5.4 -37.96,6.16 -19.5,-32.35 -54.79,-58.48 -56.16,-98.98z"/>
   <path class="fil2" d="M1528.77 1447.5c16.35,-14.98 37.07,-23.87 57.12,-32.69 47.88,2.6 100.28,0.34 140.16,31.81 -15.66,19.01 -32.76,37.01 -52.4,51.99 -57.11,-6.98 -113.27,14.84 -158.76,48.02 -26.75,-14.84 -58.35,-17.72 -83.79,-34.95 24.9,-13.2 50.89,-24.56 74.01,-40.84 -1.5,2.33 -4.45,6.91 -5.95,9.24 -16.48,11.63 -33.79,22.3 -49.11,35.57 19.63,4.79 42.34,17.99 61.22,3.76 32.49,-22.71 65.94,-50.28 78.39,-89.47 -30.71,3.15 -56.43,20.04 -75.11,43.98 4.65,-8.82 9.24,-17.72 14.23,-26.4z"/>
   <path class="fil2" d="M1134.85 1417.34c30.44,12.79 35.36,56.16 17.99,81.26 -12.45,-16.83 -24.83,-33.72 -38.37,-49.73 6.43,-5.95 12.86,-11.83 19.36,-17.65 0.27,-3.49 0.75,-10.46 1.03,-13.89z"/>
   <path class="fil2" d="M2900.65 1475c11.49,6.7 22.92,13.48 34.48,20.25 -1.37,4.38 -4.17,13.06 -5.54,17.44 -24.9,-2.94 -53.08,-0.41 -72.64,-19.29 11.22,-1.03 22.44,-1.91 33.72,-2.74 2.46,-3.9 7.53,-11.77 9.99,-15.66z"/>
   <path class="fil2" d="M782.51 1545.11c15.53,-15.12 34.68,-25.72 55.82,-30.65 -11.29,8.96 -27.98,15.19 -28.45,31.95 32.35,3.35 70.59,17.72 86.12,47.61 -6.77,26.81 -18.74,52.19 -24.63,79.28 -18.4,-27.43 -43.3,-48.7 -69.02,-68.88 5.06,0.48 15.18,1.5 20.18,2.05 -3.97,-18.26 -8.41,-36.46 -13.13,-54.52 -8.96,-2.26 -17.92,-4.52 -26.88,-6.84z"/>
   <path class="fil2" d="M2954.41 1519.19c11.77,-7.46 21.48,6.56 31.26,11.56 -16.07,42.14 -26.95,89.4 -14.57,134l0.55 2.67c-3.21,20.32 -6.84,40.56 -10.19,60.88 -18.88,-33.86 -3.42,-73.19 -6.22,-109.58 1.5,-32.36 -15.12,-64.71 -3.76,-96.38l2.94 -3.15z"/>
   <path class="fil2" d="M1397.03 1651.13c16.9,-26.68 42.75,-48.29 73.53,-56.77 -1.98,12.86 -3.62,26.13 -9.51,37.96 -10.94,19.63 -19.77,40.56 -23.46,62.86 -11.01,12.59 -19.84,26.81 -28.25,41.18 -4.24,1.16 -12.79,3.49 -17.1,4.65 -3.42,-29.55 -11.56,-62.66 4.79,-89.88z"/>
   <path class="fil2" d="M1811.55 1619.33c15.87,10.4 31.67,21.41 44.12,35.91 -13.06,0.07 -17.99,12.31 -24.21,21.55 -24.76,45.15 -77.23,65.53 -125.25,74.9 -74.56,10.19 -153.7,14.91 -224.49,-15.12 -15.8,-36.19 11.56,-68.88 34.88,-93.44 4.79,11.7 6.77,26.81 19.77,32.83 40.29,25.45 90.29,23.67 135.71,17.3 53.28,-6.91 105.82,-30.92 139.47,-73.94z"/>
   <path class="fil2" d="M2387.84 1657.77c16.83,-16.07 34.75,-32.69 57.8,-38.99 -16.42,24.21 -21.14,53.22 -19.91,82.01 -25.58,14.98 -52.74,27.98 -81.94,33.93 -3.76,-1.3 -11.35,-3.9 -15.18,-5.2 16.07,-26.74 37.76,-49.39 59.24,-71.76z"/>
   <path class="fil2" d="M1024.51 1633.14l2.6 -3.83c9.1,4.24 18.26,8.55 27.5,12.86 -2.39,14.36 -8.41,27.63 -16.62,39.67 -24.9,2.33 -48.16,12.04 -72.58,16.89 27.36,-13.68 42.07,-41.73 59.1,-65.6z"/>
   <path class="fil2" d="M2637.43 1661.26l7.32 -3.69c0.96,7.59 2.12,15.19 3.42,22.78 3.01,2.94 9.03,8.75 12.04,11.7 10.81,6.43 22.09,11.97 33.38,17.71 -2.12,3.83 -4.17,7.59 -6.29,11.42l-3.15 4.31c-27.16,-0.75 -58.42,4.52 -80.03,-16.01 19.91,-1.44 30.64,-16.96 30.58,-36.11 0.68,-3.01 2.05,-9.03 2.74,-12.11z"/>
   <path class="fil2" d="M1065.35 1730.34c8,6.5 14.09,15.12 21.27,22.5 1.03,24.83 -2.67,49.46 -8.21,73.6 -11.15,4.58 -22.3,9.1 -33.45,13.68l-1.78 -1.64c-15.67,-15.53 -35.16,-25.92 -54.65,-35.77 22.78,-24.49 53.08,-39.13 82.63,-53.56 -22.37,-6.22 -45.35,-10.74 -68.68,-10.33 20.73,-3.76 43.85,1.78 62.86,-8.48z"/>
   <path class="fil2" d="M2144.26 1794.3c21.75,-2.26 43.57,0.68 64.98,4.38 -6.5,1.43 -19.49,4.31 -25.99,5.74 -8.82,-3.08 -17.58,-6.02 -26.4,-8.89 -6.91,5.95 -13.68,12.04 -20.8,17.72 -27.84,16.62 -60.47,24.01 -87.96,41.86 25.86,-28.52 61.9,-44.87 96.17,-60.81z"/>
   <path class="fil2" d="M317.51 1891.91c8.96,-33.79 18.54,-69.84 42.48,-96.38 -11.15,44.73 -17.79,92.07 -7.05,137.63 8,34.13 22.02,70.38 53.76,89.2 56.64,35.36 128.73,32.9 190.57,13.68 -1.09,2.74 -3.42,8.28 -4.51,11.01 37.01,10.47 74.01,-6.43 111.5,-0.96 -6.16,10.88 -12.24,21.82 -18.74,32.49 -0.07,-10.81 -0.27,-21.62 -0.75,-32.42 -10.6,5.34 -22.5,10.67 -26.13,23.12 -25.72,59.92 -50,121.55 -91.39,172.85 -0.75,-33.65 -10.4,-66.55 -27.98,-95.21 -6.71,24.35 -14.36,48.57 -26.4,70.86 -3.97,1.16 -11.83,3.42 -15.73,4.58 -2.05,-23.53 6.91,-46.72 2.39,-70.04 -2.19,-14.02 -5.68,-27.7 -8.89,-41.52 -24.9,0.48 -47.33,10.19 -65.46,27.09 -3.35,-0.14 -10.06,-0.55 -13.34,-0.75 21.27,-32.49 62.31,-43.98 85.71,-75.17 -54.72,-1.57 -119.43,4.58 -161.22,-38.44 -36.59,-33.66 -28.04,-88.1 -18.81,-131.61z"/>
   <path class="fil2" d="M2775.13 1808.6l5.27 -1.57c3.69,3.76 7.39,7.59 11.15,11.42 -0.89,5.74 -1.71,11.49 -2.53,17.3 16.69,4.51 36.25,10.33 39.26,30.3 -11.97,-8.48 -24.35,-16.48 -36.59,-24.49 -7.87,30.1 -8.14,61.22 -11.49,92 2.53,-29.62 -0.89,-59.37 2.94,-88.92 -20.32,-5.2 -43.16,-7.25 -56.64,-25.45 16.28,-2.94 32.7,-5.74 48.63,-10.6z"/>
   <path class="fil2" d="M2235.51 1868.99c3.35,-6.84 6.77,-13.68 10.33,-20.45 1.57,4.58 4.65,13.68 6.22,18.19 -44.12,38.99 -104.93,51.23 -162.32,50.48 -0.96,-3.49 -2.94,-10.47 -3.9,-13.89 28.73,-14.91 52.12,-39.95 84.89,-46.85 22.44,-7.8 46.58,-2.32 64.78,12.52z"/>
   <path class="fil2" d="M1313.38 1899.23c24.01,-8.96 47.75,-25.65 74.42,-21.41 -0.2,15.73 0.34,31.94 7.46,46.31 -11.63,6.5 -25.24,7.12 -37.55,2.8 -14.36,-9.92 -28.93,-19.49 -44.33,-27.7z"/>
   <path class="fil2" d="M2341.39 1923.31c4.65,-4.79 9.3,-9.58 14.02,-14.36 13.89,5.27 27.57,11.01 41.18,17.1 6.36,16.42 13.48,32.9 25.99,45.69 -6.29,8.82 -13.34,17.1 -20.18,25.51 24.49,28.11 49.32,56.36 77.29,81.12 3.01,-1.3 9.03,-3.83 12.11,-5.13 8.69,9.3 13.61,20.73 9.92,33.65 -60.12,-29.21 -121.07,-61.77 -162.8,-115.74 17.51,-19.43 16.21,-46.79 2.46,-67.85zm27.43 44.8l0 0c-3.97,10.53 -9.78,24.15 2.94,31.4 17.51,5.47 18.81,-16.96 15.8,-28.66 -4.72,-0.68 -14.09,-2.05 -18.74,-2.74z"/>
   <path class="fil2" d="M1962.51 2066.81c16.14,-25.86 40.29,-45.55 67.92,-58 24.56,5.2 50.75,12.72 67.79,32.56l0 4.1c0.62,34.2 13.48,67.31 8.62,101.92 -20.04,-21.14 -22.16,-54.04 -46.79,-71.41 -8.82,48.97 -44.12,98.5 -94.87,109.31 15.39,-37.97 14.77,-81.26 -2.67,-118.48z"/>
   <path class="fil2" d="M1851.36 2242.95c13.89,4.1 27.43,9.44 40.63,15.53 -6.36,0.07 -19.01,0.21 -25.38,0.34 3.01,5.13 6.09,10.26 9.23,15.39 -12.31,8.96 -9.3,23.32 -8.27,36.39 -10.26,-22.16 -21.75,-43.64 -32.42,-65.6 4.1,-0.48 12.18,-1.57 16.21,-2.05z"/>
   <path class="fil2" d="M1879.95 2347.4c4.44,6.98 6.5,14.91 6.5,23.26 1.91,50.75 4.92,103.42 -14.09,151.71 -25.65,81.47 -89.54,152.13 -171.83,177.91 -61.01,20.25 -127.36,4.93 -181.67,-26.33 -11.56,42.2 -25.04,86.19 -55,119.22 -29.14,-47.68 -83.24,-70.32 -133.38,-89.13 -7.39,-3.35 -14.3,-7.87 -21.21,-11.97 55.41,-16.42 117.58,-40.97 143.1,-97.2 12.93,-22.44 12.93,-48.98 11.08,-73.94 -1.98,-23.12 -4.79,-46.1 -5.95,-69.29 29.48,34.82 30.23,84.41 53.97,122.58 1.91,24.49 4.17,48.91 6.56,73.4 12.38,-58.28 20.39,-117.45 23.53,-176.96 2.67,28.04 0.68,56.57 5.47,84.41 30.23,30.3 78.46,37.42 118.13,23.39 104.04,-34.34 189.89,-123.54 214.78,-231.06z"/>
   <path class="fil3" d="M1603.67 102.92c40.02,1.23 80.58,-4.99 120.18,4.17 51.64,8 98.64,31.67 144.53,55.4 -14.36,11.22 -26.68,28.25 -46.1,29.89 -34.82,5.2 -64.78,-17.17 -96.58,-27.02 -30.1,-15.66 -57.19,-38.1 -91.86,-43.37 -9.03,-7.25 -19.02,-13.06 -29.21,-18.54l-0.96 -0.55z"/>
   <path class="fil3" d="M1387.66 122.01c53.76,-4.86 107.39,-20.86 161.57,-11.56 -23.46,31.81 -61.15,46.1 -93.3,66.83 -50.41,-1.23 -99.04,13.2 -143.58,35.91 -16.42,2.39 -32.9,4.51 -48.98,8.69 -1.5,-22.64 15.25,-39.81 30.17,-54.45 27.57,-21.41 59.51,-39.13 94.12,-45.42z"/>
   <path class="fil3" d="M1920.1 171.6c-5.06,-9.17 8.83,-11.36 14.78,-8.62 51.71,20.04 87.76,66.28 110.68,115.05 1.3,6.57 3.9,19.56 5.27,26.06 -28.52,-11.83 -57.32,-22.85 -86.6,-32.56 -0.48,-26.47 -17.1,-48.02 -24.62,-72.44 -1.78,-8.76 -3.35,-17.58 -4.72,-26.41 -4.99,-0.41 -9.92,-0.68 -14.78,-1.09z"/>
   <path class="fil3" d="M1178.49 291.17c1.3,1.43 3.9,4.24 5.2,5.61 -8.69,43.5 -21.48,87.01 -19.43,131.74 0.82,53.83 48.57,90.36 60.13,140.84 7.8,40.9 -9.1,80.3 -21.41,118.4 -15.05,31.33 -39.47,56.64 -63.34,81.33 24.49,-35.43 38.1,-78.53 36.19,-121.75 -1.51,-68.95 -35.78,-130.92 -47.81,-197.82 -9.37,-57.67 14.43,-114.37 50.48,-158.35z"/>
   <path class="fil3" d="M2123.8 327.21c29,15.94 50,43.78 66.08,72.03 11.49,32.42 26.95,63.41 35.84,96.86 -29.07,-18.47 -61.7,-32.63 -86.73,-56.5 -5.13,-24.49 -7.73,-49.52 -13.61,-73.87 -1.23,-12.79 -1.44,-25.65 -1.58,-38.51z"/>
   <path class="fil3" d="M2269.23 618.26c-2.46,-23.12 7.18,-45.62 20.39,-64.16 20.25,29.62 34.4,63.34 41.59,98.5 -0.96,5.68 -2.94,16.96 -3.9,22.64 -19.29,-19.01 -40.9,-35.98 -58.07,-56.98z"/>
   <path class="fil3" d="M2385.17 800.49c18.47,16.96 38.24,34.34 47.27,58.48 4.31,17.65 2.12,35.98 1.71,53.97 -21.89,-4.24 -22.37,-29.55 -27.91,-46.58 -4.79,-19.36 -19.43,-33.65 -32.76,-47.47 -1.03,-4.31 -3.01,-13 -4.03,-17.38 3.97,-0.27 11.83,-0.75 15.73,-1.03z"/>
   <path class="fil3" d="M2066.48 849.67c18.6,-17.65 42.54,-28.45 65.32,-39.81 2.05,11.9 4.1,23.87 6.22,35.84 -24.15,10.26 -49.39,17.31 -74.76,23.39 0.75,-4.86 2.39,-14.57 3.22,-19.43z"/>
   <path class="fil3" d="M2042.75 957.19c19.15,-9.37 39.33,-16.35 59.17,-24.15 2.74,8.48 8.14,19.36 0.07,26.88 -15.73,16.08 -40.43,14.16 -60.95,17.99 0.55,-6.91 1.09,-13.82 1.71,-20.73z"/>
   <path class="fil3" d="M2342.01 948.03c30.17,9.3 55.95,27.84 82.01,45.01l1.23 0.82c23.67,46.93 21.61,109.45 -17.92,147.2 -4.44,-32.56 14.43,-64.98 3.01,-97.13 -13.13,-37.96 -40.43,-68.06 -68.33,-95.9z"/>
   <path class="fil3" d="M1934.74 1103.78c5.81,-6.5 11.76,-13 17.99,-19.22 -2.12,5.68 -4.17,11.35 -6.23,17.03 8.69,-5.06 17.31,-10.19 26.54,-14.3 24.83,3.35 32.56,29.82 40.56,49.52 -26.47,0 -52.94,-1.44 -79.28,-3.35 0.07,-9.92 0.21,-19.77 0.41,-29.69z"/>
   <path class="fil3" d="M2351.31 1332.52c23.12,-38.31 10.26,-84.48 23.87,-125.38 19.56,40.49 26.2,86.8 16.21,130.85 -8.69,29.75 -27.57,55.47 -50.75,75.72 -5.68,-10.81 -19.84,-21.14 -14.57,-34.81 6.91,-16.28 17.3,-30.71 25.24,-46.38z"/>
   <path class="fil3" d="M1803.41 1249.2c17.85,-12.59 40.56,-7.04 60.2,-2.67 -14.71,59.85 -87.42,79 -141.32,68.4l-1.78 -7.25c2.6,-1.51 7.8,-4.52 10.4,-5.95 5.06,-0.75 15.12,-2.12 20.11,-2.87 17.72,-16.28 33.18,-35.09 52.4,-49.66z"/>
   <path class="fil3" d="M2115.6 1282.58c41.45,11.9 80.51,30.99 115.67,55.95 30.64,39.26 53.42,86.39 58.48,136.53 3.83,46.03 -14.09,94.4 -51.37,122.85 -5.88,-15.73 -13.13,-31.12 -16.28,-47.67 19.29,-49.73 24.49,-108.76 -1.71,-157.05 -22.03,-47.2 -64.64,-79.62 -104.79,-110.61z"/>
   <path class="fil3" d="M2564.24 1312.82c30.1,-14.3 56.09,14.5 73.33,35.78l-0.89 1.37c-13.88,21.41 -25.58,44.12 -39.88,65.19 3.08,-18.88 6.09,-37.76 9.78,-56.5 -4.11,-0.28 -12.38,-0.89 -16.55,-1.23 -32.15,-4.24 -65.8,8.82 -88.03,32.08 -23.8,23.19 -40.49,52.19 -61.63,77.57 29.96,-58.55 61.9,-123.88 123.88,-154.25z"/>
   <path class="fil3" d="M2665.14 1336.42c36.46,-20.25 82.83,-18.74 117.1,5.27 46.45,38.03 72.3,94.94 118.4,133.31 -2.46,3.9 -7.53,11.77 -9.99,15.66 -11.28,0.82 -22.5,1.71 -33.72,2.74 -8.69,-12.79 -15.6,-26.68 -22.16,-40.7 -2.46,1.57 -7.46,4.58 -9.92,6.09 -23.26,-2.67 -47.88,-2.26 -67.85,-16.01 33.38,-23.94 5.88,-77.91 -31.53,-73.8 -15.94,1.43 -22.51,16.96 -29.55,28.86 -13.06,-18.88 -29.14,-37.48 -30.78,-61.43zm130.65 76.68l0 0c0.14,11.7 15.32,9.85 23.26,12.04 0.34,-7.8 0.2,-15.6 -0.48,-23.33 -9.17,-8.07 -24.56,-1.03 -22.78,11.29z"/>
   <path class="fil3" d="M1265.5 1404.96c1.37,-1.37 4.1,-4.17 5.54,-5.61 4.31,1.03 13,2.94 17.31,3.9 9.92,11.15 23.12,21.41 27.36,36.25 -9.17,18.13 -31.94,21.2 -48.57,29.75 -5.06,-10.81 -10.12,-21.55 -15.05,-32.28 4.58,-10.67 9.17,-21.27 13.41,-32.01z"/>
   <path class="fil3" d="M1826.46 1399.14c6.29,-0.96 18.88,-3.01 25.24,-4.03 43.71,1.71 84.82,18.74 128.05,23.87 64.09,36.19 127.09,82.7 160.06,150.55 20.11,39.06 22.3,91.18 -8.62,125.38 -30.58,39.33 -79.96,54.99 -126.68,65.39 -2.19,-10.81 -4.58,-21.62 -6.91,-32.36 37.82,-10.12 74.97,-28.73 98.7,-60.88 20.79,-24.9 21.41,-62.18 7.46,-90.43 -17.51,-31.33 -42.82,-58.07 -71.96,-78.94 -48.91,-35.43 -103.15,-64.02 -161.16,-81.33 -15.05,-4.86 -32.08,-5.95 -44.19,-17.24z"/>
   <path class="fil3" d="M1055.57 1445.86c14.57,-10.19 29.34,-20.11 44.32,-29.82 11.63,0.82 23.26,1.16 34.95,1.3 -0.27,3.42 -0.75,10.4 -1.03,13.89 -6.5,5.82 -12.93,11.7 -19.36,17.65 -19.63,0.89 -40.77,7.39 -58.89,-3.01z"/>
   <path class="fil3" d="M1514.55 1473.9c18.67,-23.94 44.39,-40.84 75.11,-43.98 -12.45,39.19 -45.9,66.76 -78.39,89.47 -18.88,14.23 -41.59,1.03 -61.22,-3.76 15.32,-13.27 32.63,-23.94 49.11,-35.57 1.5,-2.33 4.45,-6.91 5.95,-9.24 7.45,-8.21 15.32,-16.01 23.67,-23.33 -4.99,8.69 -9.58,17.58 -14.23,26.4z"/>
   <path class="fil3" d="M729.84 1570.14c60.67,-76.13 165.33,-101.64 258.28,-85.23 -4.24,8.76 -11.56,14.98 -19.15,20.59 -24.56,-9.85 -51.16,-6.36 -76.82,-5.34 -17.92,4.72 -36.05,8.96 -53.83,14.3 -21.14,4.93 -40.29,15.53 -55.82,30.65 8.96,2.32 17.92,4.58 26.88,6.84 4.72,18.06 9.17,36.25 13.13,54.52 -4.99,-0.55 -15.12,-1.57 -20.18,-2.05 -23.74,-12.24 -47.2,-25.24 -72.51,-34.27z"/>
   <path class="fil3" d="M2971.1 1664.75c-12.38,-44.6 -1.5,-91.86 14.57,-134 6.63,24.42 5.13,49.87 0.62,74.56 -7.05,19.22 -11.08,39.4 -15.19,59.44z"/>
   <path class="fil3" d="M2349.8 1618.09c36.8,-33.24 77.57,-72.71 130.58,-71.96 17.58,12.18 30.99,28.73 40.08,48.02 -25.92,39.88 -53.22,81.33 -94.74,106.64 -1.23,-28.8 3.49,-57.8 19.91,-82.01l2.26 -4.1c11.77,-0.34 23.74,-0.82 35.57,-1.23 6.16,-25.72 -23.6,-41.86 -45.76,-35.64 -32.08,6.7 -58.55,27.02 -87.9,40.29z"/>
   <path class="fil3" d="M1301.13 1618.57c48.77,-31.74 106.98,-48.36 165.26,-42 2.87,0.75 8.62,2.12 11.49,2.8 -0.21,3.21 -0.55,9.51 -0.75,12.72 -1.64,0.55 -4.93,1.71 -6.57,2.26 -30.78,8.48 -56.64,30.1 -73.53,56.77 -16.35,27.22 -8.21,60.33 -4.79,89.88 -61.7,37.35 -134.61,50.07 -205.96,44.8 -0.96,-0.62 -2.87,-1.85 -3.83,-2.46 12.31,-41.18 36.46,-77.02 60.67,-111.91 2.26,11.7 2.67,24.42 10.4,34.27 40.22,2.53 81.47,-55.2 47.61,-87.14zm44.94 28.32l0 0c-2.74,17.03 18.06,15.87 29,12.66 0.14,-5.13 0.48,-15.32 0.68,-20.45 -9.85,-0.61 -28.59,-7.45 -29.69,7.8z"/>
   <path class="fil3" d="M1603.54 1593.81c41.79,-12.72 85.3,-23.12 129.28,-18.33 30.3,1.71 58.28,15.12 88.24,18.81l2.87 0.48c86.39,54.11 135.71,157.39 135.85,256.92 -22.85,9.78 -47.4,16.55 -72.3,18.13 -38.85,-2.67 -77.98,-5.06 -115.94,-14.64 50.96,-0.68 101.71,-8.34 150.62,-22.64 -1.09,-64.57 -23.26,-128.73 -66.49,-177.3 -12.45,-14.5 -28.25,-25.51 -44.12,-35.91 -33.65,43.02 -86.19,67.03 -139.47,73.94 -45.42,6.36 -95.42,8.14 -135.71,-17.3 36.53,6.57 79.82,-10.81 92.68,-47.54 5.47,-17.58 -14.43,-25.79 -25.51,-34.61z"/>
   <path class="fil3" d="M2555.56 1594.77c45.14,-15.25 99.25,-0.07 125.31,40.97 36.18,54.99 48.91,123.33 94.26,172.85 -15.94,4.86 -32.35,7.66 -48.63,10.6 -16.76,-29.14 -21,-62.79 -28.66,-94.94 -2.67,-0.75 -7.87,-2.32 -10.53,-3.08 2.12,-3.83 4.17,-7.59 6.29,-11.42 -11.29,-5.74 -22.57,-11.28 -33.38,-17.71 9.23,-9.57 18.47,-21.13 12.38,-35.09 -8.96,-4.86 -18.74,-1.44 -27.84,0.62l-7.32 3.69c-0.68,3.08 -2.05,9.1 -2.74,12.11 -9.03,-19.77 -25.1,-34.34 -46.1,-40.36 -5.47,4.86 -10.88,9.85 -16.21,14.91l-5.13 4.86c-2.05,-11.63 -4.11,-23.26 -8.75,-34.2 -1.1,-7.93 -2.05,-15.87 -2.94,-23.8z"/>
   <path class="fil3" d="M964.73 1644.98c19.09,-7.52 39.06,-12.65 59.78,-11.83 -17.03,23.87 -31.74,51.92 -59.1,65.6 -12.38,6.02 -25.03,11.42 -37.55,17.1 -3.08,-22.57 -9.44,-48.7 3.01,-69.36 -3.01,22.16 -3.69,44.67 -1.3,66.97 13.34,-21.96 23.6,-45.56 35.16,-68.47z"/>
   <path class="fil3" d="M659.52 1693.13c47.06,11.7 97.34,30.92 123.6,74.56 30.03,47.88 24.01,107.39 9.17,159.31 -13.27,21 -35.43,34.27 -55.2,48.57 -43.09,26.88 -90.22,48.77 -139.81,60.47 -61.84,19.22 -133.93,21.68 -190.57,-13.68 -31.74,-18.81 -45.76,-55.06 -53.76,-89.2 -10.74,-45.56 -4.11,-92.89 7.05,-137.63 0.48,-2.12 1.5,-6.43 2.05,-8.55 15.94,-17.24 29.14,-36.94 46.72,-52.67 11.28,-7.11 25.31,-7.87 38.17,-10.26 -4.31,-0.34 -12.86,-0.96 -17.17,-1.23 24.56,-10.4 49.66,-19.01 75.38,-25.86 -11.42,15.6 -30.23,36.66 -13.54,55.68 29.34,37.55 82.56,38.78 125.93,34.06 27.36,-4.24 59.92,-16.55 69.29,-45.35 6.22,-21.27 -14.3,-35.3 -27.29,-48.22zm-212.52 109.03l0 0c2.6,9.3 0.75,24.97 13.95,26.4 15.05,4.31 42.68,2.46 42.68,-17.92 -8.55,-23.39 -38.92,-16.69 -56.64,-8.48z"/>
   <path class="fil3" d="M996.26 1746.14c1.51,-1.85 4.65,-5.47 6.23,-7.32 23.32,-0.41 46.31,4.1 68.68,10.33 -29.55,14.43 -59.85,29.07 -82.63,53.56 19.49,9.85 38.99,20.25 54.65,35.77 -24.69,11.42 -51.92,11.01 -78.46,10.67 -7.25,-38.85 18.06,-71.82 44.05,-97.27 -3.15,-1.44 -9.44,-4.31 -12.52,-5.75z"/>
   <path class="fil3" d="M2144.26 1794.3c39.26,-12.86 80.23,-28.04 122.24,-20.86 16.83,3.56 26.06,19.09 34.88,32.35 -14.98,21.41 -29.48,43.57 -49.32,60.95 -1.57,-4.51 -4.65,-13.61 -6.22,-18.19 -1.92,-7.59 -3.49,-15.32 -4.58,-23.05 -28.66,-26.68 -70.32,-21.48 -105.2,-12.24 7.11,-5.68 13.89,-11.77 20.8,-17.72 8.82,2.87 17.58,5.81 26.4,8.89 6.5,-1.44 19.49,-4.31 25.99,-5.74 -21.41,-3.7 -43.23,-6.64 -64.98,-4.38z"/>
   <path class="fil3" d="M2350.01 1840.4c10.67,0.55 21.34,1.23 32.01,1.92 20.72,16.07 46.1,28.73 58.76,52.94 30.37,54.99 27.29,120.52 51.03,177.98 -3.08,1.3 -9.1,3.83 -12.11,5.13 -27.98,-24.76 -52.81,-53.01 -77.29,-81.12 6.84,-8.41 13.89,-16.69 20.18,-25.51 7.11,-17.37 16.01,-38.99 6.09,-57.05 -16.07,-28.8 -40.36,-55.34 -73.12,-64.3 -1.37,-2.53 -4.1,-7.52 -5.54,-9.99z"/>
   <path class="fil3" d="M2780.19 1933.56c3.35,-30.78 3.62,-61.9 11.49,-92 12.24,8 24.62,16.01 36.59,24.49 9.58,21.21 3.35,47.88 -6.7,68.47 -23.12,49.87 -58.89,98.91 -52.26,156.85 -9.03,-17.1 -16.76,-35.71 -16.49,-55.4 -1.03,-36.32 19.29,-67.99 27.36,-102.4z"/>
   <path class="fil3" d="M1826.46 1926.11c57.25,-12.93 122.03,-7.8 168.81,30.78 -26.26,3.49 -52.26,8.62 -78.25,13.41 -29.83,-15.53 -61.22,-27.91 -90.56,-44.19z"/>
   <path class="fil3" d="M658.63 2069.28c3.63,-12.45 15.53,-17.78 26.13,-23.12 0.48,10.81 0.68,21.62 0.75,32.42 -24.97,103.56 -95.83,197.13 -193.37,242.21 -0.07,-1.09 -0.14,-3.21 -0.21,-4.31 34.27,-12.52 50.69,-49.52 75.31,-74.35 41.38,-51.3 65.67,-112.93 91.39,-172.85z"/>
   <path class="fil3" d="M2106.84 2147.39c4.86,-34.61 -8,-67.72 -8.62,-101.92 41.66,44.53 62.38,107.39 57.53,168 -0.34,62.04 -35.84,115.12 -66.83,166.08 -3.62,1.23 -10.88,3.63 -14.5,4.79 -7.18,-19.9 -13.89,-40.01 -18.81,-60.54 17.03,-23.94 35.02,-48.09 43.57,-76.61 12.04,-31.94 6.09,-66.55 7.66,-99.8z"/>
   <path class="fil3" d="M425.18 2137.88c18.13,-16.9 40.56,-26.61 65.46,-27.09 3.21,13.82 6.7,27.5 8.89,41.52 4.52,23.32 -4.45,46.51 -2.39,70.04 0.21,3.28 0.62,9.92 0.89,13.27 -5.13,6.16 -10.26,12.31 -15.46,18.47 5.13,-22.5 13.2,-47.54 1.91,-69.43 -10.46,-24.76 -36.66,-35.77 -59.3,-46.79z"/>
   <path class="fil3" d="M2489.75 2142.12c3.97,-3.21 8.14,-6.29 12.45,-9.17 13.68,7.39 26.88,15.73 39.74,24.56 5.2,15.94 13.06,33.93 5.06,50.34 -24.42,50.07 -68.68,86.53 -94.81,135.64 2.6,-43.37 24.49,-81.47 43.51,-119.22 13.82,-24.69 10.8,-58.89 -13.34,-76.06 1.85,-1.5 5.54,-4.51 7.39,-6.09z"/>
   <path class="fil3" d="M2801.53 2146.43c2.87,-1.37 8.75,-4.1 11.63,-5.47 14.36,10.6 31.74,14.71 49.11,17.51 -2.05,1.91 -6.16,5.68 -8.21,7.59 -5.4,3.69 -10.88,7.18 -16.48,10.47 -16.28,4.65 -29.69,-9.51 -42.82,-16.69 1.71,-3.35 5.06,-10.06 6.77,-13.41z"/>
   <path class="fil3" d="M1631.65 2282.89c63.96,-40.9 145.49,-59.64 219.71,-39.95 -4.03,0.48 -12.11,1.57 -16.21,2.05 10.67,21.96 22.16,43.43 32.42,65.6 5.06,10.81 9.3,21.96 13.54,33.11l-1.16 3.69c-24.9,107.53 -110.74,196.72 -214.78,231.06 -39.67,14.02 -87.9,6.91 -118.13,-23.39 -4.79,-27.84 -2.8,-56.36 -5.47,-84.41 2.94,-70.8 28.25,-147.2 90.09,-187.76z"/>
   <path class="fil3" d="M1866.61 2258.82c6.36,-0.14 19.02,-0.27 25.38,-0.34 58.69,30.57 102.12,87.62 121.89,150.28 23.53,78.8 9.51,164.51 -28.11,236.6 -104.52,203.02 -307.26,352.48 -531.76,393.79 -56.77,9.03 -114.91,17.03 -172.24,7.87 121.34,-9.92 239.27,-49.04 347.75,-103.36 96.86,-50.48 189.88,-113.55 258.7,-199.53 60.74,-70.25 102.4,-162.94 92.68,-257.47 -6.43,-46.58 -19.84,-93.09 -46.24,-132.49 -16.42,-28.93 -40.36,-52.46 -58.83,-79.96 -3.15,-5.13 -6.22,-10.26 -9.23,-15.39z"/>
   <path class="fil3" d="M2470.33 2468.4c-10.33,-6.84 -4.45,-18.54 -3.08,-28.11 23.46,1.78 33.58,30.17 59.17,27.5 -3.49,3.35 -6.98,6.7 -10.4,10.06l6.02 -7.18c-17.03,-0.89 -35.36,4.31 -51.71,-2.26z"/>
   <path class="fil3" d="M1360.3 2571.69c34.47,-16.69 67.17,-37.21 103.15,-50.75 1.85,24.97 1.85,51.51 -11.08,73.94 -25.51,56.23 -87.69,80.78 -143.1,97.2 7.8,-43.23 22.92,-86.12 51.03,-120.39z"/>
   <path class="fil4" d="M1604.63 103.47c10.19,5.47 20.18,11.29 29.21,18.54 12.86,37.35 1.64,77.23 -20.11,108.69 -1.57,-11.35 1.5,-22.23 3.83,-33.17 1.44,-31.94 -12.38,-62.18 -12.93,-94.05z"/>
   <path class="fil4" d="M1920.1 171.6c4.86,0.41 9.78,0.68 14.78,1.09 1.37,8.83 2.94,17.65 4.72,26.41 -30.44,35.16 -55.75,74.9 -90.84,105.89 23.19,-44.39 53.01,-85.91 69.5,-133.52l1.85 0.14z"/>
   <path class="fil4" d="M1439.51 270.64c4.52,-47.75 53.56,-68.33 91.8,-84.88 27.98,14.02 19.56,46.92 11.56,70.59 -19.77,15.6 -44.87,23.6 -63,41.66 -25.03,21.55 -30.64,57.8 -57.39,77.91 -4.24,-0.21 -12.79,-0.68 -17.03,-0.89 20.66,-31.12 31.81,-67.24 34.06,-104.38z"/>
   <path class="fil4" d="M1263.37 221.87c16.07,-4.17 32.56,-6.29 48.98,-8.69 47.13,9.44 98.02,46.03 90.7,99.87 -8.55,-23.19 -20.66,-46.44 -42.89,-59.17 -31.4,-18.33 -68.13,-21.89 -103.01,-28.59 1.57,-0.82 4.65,-2.53 6.22,-3.42z"/>
   <path class="fil4" d="M1663.66 235.83c27.29,-6.7 55.27,-10.12 83.31,-6.84 9.51,2.6 19.15,4.38 28.86,6.09l2.46 2.87c12.52,13.54 22.03,29.41 27.02,47.27 -73.12,-17.78 -148.98,-19.84 -223.26,-8.41 22.64,-21.62 53.22,-29.96 81.61,-40.97z"/>
   <path class="fil4" d="M1254.96 278.92c35.91,1.03 75.86,15.73 88.65,52.53 35.98,86.53 26.68,203.5 -52.46,263.69 0.68,-25.31 20.18,-43.98 26.4,-67.72 19.9,-64.64 15.18,-138.04 -16.69,-198.16 -10.26,-20.86 -27.57,-36.73 -45.9,-50.34z"/>
   <path class="fil4" d="M1082.38 414.77c3.01,-56.77 46.99,-100.69 96.1,-123.6 -36.05,43.98 -59.85,100.69 -50.48,158.35 12.04,66.9 46.31,128.87 47.81,197.82 1.91,43.23 -11.7,86.32 -36.19,121.75 -8.28,10.4 -18.19,19.22 -27.77,28.32 19.97,-27.57 28.8,-61.77 24.97,-95.56 -9.03,-97.27 -55.13,-188.45 -54.45,-287.08z"/>
   <path class="fil4" d="M2000.47 440.9c42.89,-38.65 81.06,-82.08 123.19,-121.48l0.14 7.8c0.14,12.86 0.34,25.72 1.58,38.51 -4.72,4.52 -9.37,8.96 -14.02,13.48 -30.3,29.96 -67.79,55.82 -110.88,61.7z"/>
   <path class="fil4" d="M1774.68 349.85c43.43,20.31 90.5,-6.77 135.5,4.11 10.53,5.68 20.72,11.9 30.64,18.74 2.05,11.7 4.24,23.46 6.36,35.16 -36.73,-16.96 -77.64,-17.85 -116.97,-23.94 -21.2,-4.38 -45.28,-13.61 -55.54,-34.06z"/>
   <path class="fil4" d="M1906.49 443.91c25.17,4.03 43.71,22.23 66.21,32.49 34.68,17.1 72.03,35.91 92.41,70.39 4.79,8.82 9.23,17.85 13.82,26.88 -37.14,-21.14 -79.69,-30.57 -116.42,-52.33 -28.25,-17.1 -45.96,-46.72 -56.02,-77.43z"/>
   <path class="fil4" d="M2134.88 617.65c45.83,-23.53 92.07,-49.11 135.64,-74.76l2.46 3.63c3.63,8.41 5.06,17.3 4.24,26.68 -8,3.28 -15.8,6.7 -23.67,10.12 -38.03,15.66 -77.09,32.28 -118.68,34.34z"/>
   <path class="fil4" d="M2022.71 606.29c28.8,20.59 72.5,22.71 88.78,57.94 7.53,13.68 9.92,29.41 11.42,44.8 -0.41,4.92 -1.09,14.84 -1.5,19.77 -2.74,5.75 -5.75,11.36 -8.89,16.83 -2.6,-0.41 -7.94,-1.3 -10.6,-1.78 -24.01,-26.4 -54.11,-48.77 -68.61,-82.36 -8.41,-17.17 -9.65,-36.46 -10.6,-55.2z"/>
   <path class="fil4" d="M2038.64 844.26c92.28,-82.22 238.11,-111.63 346.53,-43.78 -3.9,0.27 -11.77,0.75 -15.73,1.03 -25.99,-0.34 -49.8,-14.16 -75.72,-16.07 -50.07,-7.66 -100.48,4.72 -148.16,19.36 -3.42,1.3 -10.26,3.76 -13.75,5.06 -22.78,11.36 -46.72,22.16 -65.32,39.81 -0.82,4.86 -2.46,14.57 -3.22,19.43l-0.75 5.4c-5.61,1.1 -16.83,3.29 -22.5,4.31 -0.41,-11.49 -0.89,-23.05 -1.37,-34.54z"/>
   <path class="fil4" d="M2502.27 860.95c25.58,42.34 13.89,96.11 -12.93,134.89 -3.83,-9.17 -13.48,-19.01 -5.2,-28.73 17.99,-32.15 26.74,-69.77 18.13,-106.16z"/>
   <path class="fil4" d="M2004.03 957.19c74.63,-55.06 171.21,-87.14 263.9,-68.74 62.52,13.27 123.74,47.68 156.09,104.59 -26.06,-17.17 -51.85,-35.71 -82.01,-45.01 -70.73,-35.57 -155.96,-51.3 -230.92,-18.6 -2.26,0.89 -6.84,2.74 -9.17,3.62 -19.83,7.8 -40.01,14.77 -59.17,24.15 -2.74,1.92 -8.14,5.68 -10.88,7.53 -1.5,6.22 -2.8,12.45 -4.03,18.67 -13.2,2.46 -26.27,5.27 -39.2,8.69 1.64,-12.93 2.19,-28.04 15.39,-34.89z"/>
   <path class="fil4" d="M2496.66 1014.31c15.53,20.32 27.5,44.39 27.77,70.45 3.29,45.21 -19.56,86.46 -43.91,122.78 4.1,37.21 7.66,78.53 -11.42,112.38 -1.91,-39.88 -8.62,-79.62 -23.39,-116.83 50.89,-47.2 71.89,-122.3 50.96,-188.79z"/>
   <path class="fil4" d="M1924.62 1068.96c109.72,-49.32 245.63,-40.22 346.39,26.54 -37.76,-7.93 -74.63,-20.73 -113.41,-23.05 -68.27,-5.61 -138.24,-4.38 -204.86,12.11 -6.23,6.22 -12.18,12.72 -17.99,19.22 -10.47,11.49 -21.48,22.57 -34.13,31.53 -2.6,1.03 -7.87,3.01 -10.47,3.97 9.65,-24.35 25.99,-45.42 34.47,-70.32z"/>
   <path class="fil4" d="M1781.18 1207.89c157.19,-60.74 349.74,-4.58 450.09,130.65 -35.16,-24.97 -74.22,-44.05 -115.67,-55.95 -26.81,-8.69 -51.37,-23.19 -78.53,-30.85 -51.23,-15.53 -105.82,-22.3 -158.97,-14.77 -24.97,1.85 -50.14,-1.03 -74.97,2.05 -23.25,21.75 -43.57,47.47 -72.23,62.72 -2.6,1.44 -7.8,4.45 -10.4,5.95l1.78 7.25 -6.29 0.48c-7.59,0.89 -14.91,2.87 -22.37,4.44 35.64,-31.87 64.71,-70.11 87.56,-111.97z"/>
   <path class="fil4" d="M1502.65 1300.03c7.11,-20.11 22.44,-41.45 45.76,-42.14 26.33,0.14 49.73,14.57 71.89,27.22 7.04,5.54 19.83,8.83 17.78,20.59 -28.25,-5.75 -56.09,-17.79 -85.85,-11.77 -12.86,3.56 -28.32,6.5 -35.23,19.43 -4.24,10.74 -5.88,22.3 -8.07,33.58 -3.76,-15.12 -11.97,-31.26 -6.29,-46.92z"/>
   <path class="fil4" d="M1431.64 1294.28c11.36,0.07 22.78,0.21 34.2,0.62 12.86,18.6 21.75,40.22 16.76,63.27 -5.47,-12.66 -8.75,-28.94 -22.98,-34.41 -15.05,-5.74 -29.28,4.24 -42,10.88 -9.1,-6.7 -18.13,-13.41 -27.09,-20.11 13,-8.07 26.88,-14.57 41.11,-20.25z"/>
   <path class="fil4" d="M1243.88 1386.97c14.64,-27.84 45.08,-57.59 79.07,-42.89 41.73,18.06 76.47,51.71 101.65,89.13 -32.97,-15.8 -59.51,-43.57 -95.08,-54.31 -21.48,-6.09 -44.67,3.69 -58.48,20.45 -1.44,1.44 -4.17,4.24 -5.54,5.61 -6.98,7.18 -14.02,14.36 -21,21.61 -0.55,-13.27 -1.03,-26.4 -0.61,-39.6z"/>
   <path class="fil4" d="M1041.27 1430.67c29.62,-33.65 62.79,-71.48 110.81,-74.9 21.14,-1.37 54.72,-3.56 61.02,22.71 8.28,22.23 5.88,46.99 -0.55,69.43 -5.13,-20.18 -3.69,-45.76 -21.48,-59.78 -32.83,-3.62 -64.85,9.1 -91.18,27.91 -14.98,9.71 -29.76,19.63 -44.32,29.82 -4.79,-5.06 -9.58,-10.12 -14.3,-15.19z"/>
   <path class="fil4" d="M2596.8 1415.15c14.3,-21.07 25.99,-43.78 39.88,-65.19 8.96,42.07 -11.08,83.45 -37.35,115.12 -18.88,24.49 -46.92,43.64 -78.12,46.92 -10.94,-3.15 -21.41,-7.8 -32.28,-10.94 39.81,-22.98 82.7,-45.76 107.87,-85.91z"/>
   <path class="fil4" d="M1673.24 1365.69c104.65,-14.57 212.05,7.25 306.51,53.29 -43.23,-5.13 -84.34,-22.16 -128.05,-23.87 -27.84,-1.3 -56.5,4.44 -83.65,-4.04 -61.15,0.41 -123.53,5.13 -182.15,23.74 -20.04,8.82 -40.77,17.72 -57.12,32.69 -8.34,7.32 -16.21,15.12 -23.67,23.33 -23.12,16.28 -49.11,27.63 -74.01,40.84 -6.02,-0.41 -11.97,-0.68 -17.92,-1.03 37.55,-28.46 69.77,-63.07 100.35,-98.77 50.62,-23.12 104.18,-40.29 159.72,-46.17z"/>
   <path class="fil4" d="M2695.92 1397.84c7.04,-11.9 13.61,-27.43 29.55,-28.86 37.42,-4.11 64.91,49.86 31.53,73.8l-2.26 2.74c-21.82,-12.99 -42.07,-28.52 -58.83,-47.67z"/>
   <path class="fil4" d="M2795.79 1413.1c-1.78,-12.31 13.61,-19.36 22.78,-11.29 0.68,7.73 0.82,15.53 0.48,23.33 -7.94,-2.19 -23.12,-0.34 -23.26,-12.04z"/>
   <path class="fil4" d="M2702.35 1457.08c20.25,9.85 40.36,23.94 63.96,22.16 21.41,0.82 40.97,-9.17 58.55,-20.45 2.46,-1.5 7.46,-4.51 9.92,-6.09 6.57,14.02 13.47,27.91 22.16,40.7 19.56,18.88 47.74,16.35 72.64,19.29 5.61,1.23 16.83,3.63 22.44,4.86l-0.55 4.79c-11.36,31.67 5.27,64.02 3.76,96.38 2.8,36.39 -12.66,75.72 6.22,109.58 10.06,13.61 19.84,28.93 36.25,35.57 10.33,3.35 14.37,13.82 19.49,22.37 2.05,-1.64 6.16,-4.99 8.14,-6.7 11.7,19.83 33.79,11.83 51.71,7.04 -17.85,31.46 -55.27,55.82 -92.07,47.13 -18.27,-5.4 -19.36,-24.42 -15.46,-40.08 5.81,-0.68 17.51,-2.19 23.32,-2.94 -26.06,-15.73 -55.06,-32.9 -66.49,-62.79 -14.3,-40.29 2.12,-82.15 2.26,-123.12 0.14,-22.64 -12.45,-42.07 -23.8,-60.54 3.83,-5.54 7.66,-11.01 11.49,-16.55 -75.93,-0.34 -156.09,-18.68 -213.96,-70.59z"/>
   <path class="fil4" d="M830.05 1468.23c55.2,-11.22 114.03,-5.13 165.74,17.24l-7.66 -0.55c-92.96,-16.42 -197.61,9.1 -258.28,85.23 -19.15,-4.03 -38.31,-8.21 -57.59,-11.42 42.89,-43.91 97.06,-78.25 157.8,-90.5z"/>
   <path class="fil4" d="M930.87 1646.48c23.26,-67.17 77.7,-137.01 154.11,-140.84 25.92,55.61 48.15,120.8 24.15,181.06 1.5,-47.4 -11.15,-97.34 -48.98,-128.66 -38.44,20.04 -76,46.92 -95.42,86.94 -11.56,22.91 -21.82,46.51 -35.16,68.47 -2.39,-22.3 -1.71,-44.8 1.3,-66.97z"/>
   <path class="fil4" d="M1586.1 1561.6c78.73,-17.37 164.51,-7.66 234.96,32.7 -29.96,-3.69 -57.94,-17.1 -88.24,-18.81 -43.98,-4.79 -87.49,5.61 -129.28,18.33 11.08,8.82 30.98,17.03 25.51,34.61 -12.86,36.73 -56.16,54.11 -92.68,47.54 -13,-6.02 -14.98,-21.14 -19.77,-32.83 -23.32,24.56 -50.69,57.25 -34.88,93.44 11.01,21.27 28.32,38.78 49.38,50.34 73.53,41.31 157.74,57.18 240.44,68.26 37.96,9.58 77.09,11.97 115.94,14.64 -69.02,10.19 -139.47,8.96 -208.83,3.21 -70.59,-8.89 -145.49,-21.34 -202.27,-67.58 -32.42,-25.65 -48.22,-69.84 -38.78,-110.26 3.69,-22.3 12.52,-43.23 23.46,-62.86 30.1,-39.33 77.98,-59.85 125.04,-70.73z"/>
   <path class="fil4" d="M1275.76 1593.61c55,-38.37 129.69,-44.74 190.64,-17.03 -58.28,-6.36 -116.49,10.26 -165.26,42 33.86,31.94 -7.39,89.68 -47.61,87.14 -7.73,-9.85 -8.14,-22.57 -10.4,-34.27 -24.21,34.88 -48.36,70.73 -60.67,111.91 0.96,0.62 2.87,1.85 3.83,2.46 64.09,47.27 152.4,44.8 222.99,13.89 0.14,2.74 0.41,8.27 0.55,11.01 -60.74,27.36 -129.42,40.43 -195.63,29 -25.58,-6.29 -51.57,-16.55 -70.52,-35.43 6.02,-86.39 61.56,-163.48 132.08,-210.68z"/>
   <path class="fil4" d="M2425.73 1700.79c41.52,-25.31 68.81,-66.76 94.74,-106.64 7.18,46.79 -25.51,87.35 -57.52,117.38 -38.03,37.76 -99.66,50.48 -148.84,29.48 9.85,-2.19 19.77,-4.31 29.69,-6.29 29.21,-5.95 56.36,-18.95 81.94,-33.93z"/>
   <path class="fil4" d="M1346.07 1646.89c1.09,-15.25 19.84,-8.41 29.69,-7.8 -0.21,5.13 -0.55,15.32 -0.68,20.45 -10.94,3.21 -31.74,4.38 -29,-12.66z"/>
   <path class="fil4" d="M255.68 1769.13c82.29,-79.07 194.26,-124.22 307.74,-130.58 64.23,-3.83 132.97,0.27 188.31,36.46 80.58,52.67 100.07,176.62 40.56,251.99 14.84,-51.92 20.86,-111.43 -9.17,-159.31 -26.27,-43.64 -76.54,-62.86 -123.6,-74.56 13,12.93 33.52,26.95 27.29,48.22 -9.37,28.8 -41.93,41.11 -69.29,45.35 -43.37,4.72 -96.58,3.49 -125.93,-34.06 -16.69,-19.02 2.12,-40.08 13.54,-55.68 -25.72,6.84 -50.82,15.46 -75.38,25.86 -92.27,24.15 -169.84,90.84 -220.67,170.12 -59.78,92.21 -65.8,209.79 -39.67,314.17 11.9,53.15 35.02,102.53 59.17,151.03 -52.81,-61.7 -86.87,-139.06 -100.96,-218.75 -23.46,-134.75 29.28,-277.1 128.05,-370.26z"/>
   <path class="fil4" d="M2572.38 1647.92c5.34,-5.06 10.74,-10.06 16.21,-14.91 21,6.02 37.07,20.59 46.1,40.36 0.07,19.15 -10.67,34.68 -30.58,36.11 -14.84,-16.69 -37.42,-37.35 -31.74,-61.56z"/>
   <path class="fil4" d="M2644.75 1657.56c9.1,-2.05 18.88,-5.47 27.84,-0.62 6.09,13.96 -3.15,25.52 -12.38,35.09 -3.01,-2.94 -9.03,-8.76 -12.04,-11.7 -1.3,-7.59 -2.46,-15.19 -3.42,-22.78z"/>
   <path class="fil4" d="M2684.15 1725.49l3.15 -4.31c2.67,0.75 7.87,2.32 10.53,3.08 7.66,32.15 11.9,65.8 28.66,94.94 13.48,18.19 36.32,20.25 56.64,25.45 -3.83,29.55 -0.41,59.3 -2.94,88.92 -8.07,34.41 -28.39,66.08 -27.36,102.4 -0.27,19.7 7.46,38.31 16.49,55.4 5.54,22.16 38.99,29.14 32.22,55.06 -1.71,3.35 -5.06,10.06 -6.77,13.41 13.13,7.18 26.54,21.34 42.82,16.69 5.61,-3.28 11.08,-6.77 16.48,-10.47 -14.64,22.44 -42.55,27.77 -67.51,29.28 -17.99,0.89 -38.99,-10.12 -40.63,-29.69 2.67,-8.41 7.11,-16.08 11.22,-23.8 5.95,0.96 17.92,2.87 23.87,3.83 -27.57,-24.9 -60.4,-55.06 -54.52,-96.17 -2.05,-53.01 43.09,-97.4 31.87,-150.82 -2.05,-11.9 -6.97,-23.05 -10.81,-34.34 4.58,-3.21 13.68,-9.71 18.27,-12.93 -74.76,-17.79 -150.62,-50.75 -198.09,-113.75 33.52,29.89 90.5,24.76 116.42,-12.18z"/>
   <path class="fil4" d="M993.73 1744.98l2.53 1.16c3.08,1.44 9.37,4.31 12.52,5.75 -25.99,25.45 -51.3,58.41 -44.05,97.27 10.13,40.9 39.67,74.01 75.38,95.15 -3.76,-20.93 -8,-41.79 -11.63,-62.73 58.89,39.06 135.85,40.7 199.66,12.86 -38.72,46.79 -97.61,78.25 -158.49,82.15 -50.89,1.16 -109.65,-19.22 -130.79,-69.43 -26.4,-58 2.19,-129.55 54.86,-162.18z"/>
   <path class="fil4" d="M447 1802.17c17.72,-8.21 48.09,-14.91 56.64,8.48 0,20.38 -27.63,22.23 -42.68,17.92 -13.2,-1.44 -11.36,-17.1 -13.95,-26.4z"/>
   <path class="fil4" d="M2252.06 1866.74c19.84,-17.37 34.34,-39.54 49.32,-60.95 13.95,41.11 -12.65,80.51 -46.44,101.71 -40.5,25.79 -89.88,46.03 -138.52,34.27 -16.55,-4.38 -35.3,-7.59 -46.58,-21.68 4.99,-0.75 14.91,-2.19 19.9,-2.87 57.39,0.75 118.2,-11.49 162.32,-50.48z"/>
   <path class="fil4" d="M1387.8 1875.15c7.53,-6.22 15.05,-12.38 22.78,-18.26 -2.05,25.72 -5.74,51.3 -10.12,76.82 -1.3,-2.39 -3.9,-7.18 -5.2,-9.58 -7.11,-14.36 -7.66,-30.57 -7.46,-46.31l0 -2.67z"/>
   <path class="fil4" d="M1299.35 1896.22c3.49,0.75 10.53,2.26 14.02,3.01 15.39,8.21 29.96,17.78 44.33,27.7 13.75,12.52 25.65,27.09 40.63,38.24 9.03,5.06 18.13,-3.35 26.75,-5.75 28.32,-13.47 55.75,-29.21 80.58,-48.43 8.41,-9.65 20.59,-8.96 31.46,-4.04 -37.14,41.38 -89.4,64.09 -139.95,84.34 -41.25,-21.14 -73.4,-56.3 -97.82,-95.08z"/>
   <path class="fil4" d="M2302.13 1925.84c11.97,-2.74 23.94,-5.82 35.7,-9.58 0.89,1.71 2.67,5.27 3.56,7.05 13.75,21.07 15.05,48.43 -2.46,67.85 41.72,53.97 102.67,86.53 162.8,115.74 1.3,0.62 3.9,1.92 5.27,2.53 7.05,4.58 14.09,9.17 21.27,13.75 -8.76,3.08 -17.72,5.95 -26.06,9.78 -4.31,2.87 -8.48,5.95 -12.45,9.17 -90.02,-39.54 -168,-117.45 -187.63,-216.29z"/>
   <path class="fil4" d="M1617.22 1926.32c33.04,18.33 63.27,41.11 91.73,65.94 19.49,17.85 37.07,41.72 34.4,69.7 40.02,-36.05 87.9,-64.02 140.23,-77.64 -38.44,28.87 -76.54,60.06 -100.83,102.47 -33.58,13.2 -75.99,15.73 -104.86,-9.37 -25.65,-21.89 -52.33,-54.11 -43.16,-90.15 3.29,-22.09 -7.32,-42.2 -17.51,-60.95z"/>
   <path class="fil4" d="M846.05 1964.89c2.87,-0.07 8.69,-0.27 11.56,-0.41 17.03,54.24 71.55,88.92 81.26,147 -6.5,15.87 -13.47,31.67 -21.48,46.92 -1.23,-16.76 0.68,-33.86 -3.35,-50.28 -16.35,-50.75 -58.49,-89.74 -67.99,-143.23z"/>
   <path class="fil4" d="M2368.82 1968.11c4.65,0.68 14.02,2.05 18.74,2.74 3.01,11.7 1.71,34.13 -15.8,28.66 -12.72,-7.25 -6.91,-20.86 -2.94,-31.4z"/>
   <path class="fil4" d="M1926.87 2028.24c32.49,-19.15 71.21,-21.96 108.07,-21.68l-4.51 2.26c-27.63,12.45 -51.78,32.15 -67.92,58 17.44,37.21 18.06,80.51 2.67,118.48l-1.57 4.92c-39.54,-36.25 -88.79,-61.36 -141.46,-71.76 30.78,-34.41 65.12,-66.21 104.72,-90.22z"/>
   <path class="fil4" d="M405.75 2136.86l6.09 0.27c3.28,0.21 9.99,0.62 13.34,0.75 22.64,11.01 48.84,22.03 59.3,46.79 11.29,21.89 3.22,46.92 -1.91,69.43 -3.69,9.71 -10.81,17.44 -17.3,25.38 -8.41,-51.16 -20.39,-105.48 -59.51,-142.62z"/>
   <path class="fil4" d="M2468.55 2154.78c3.42,-1.64 10.33,-4.92 13.82,-6.57 24.15,17.17 27.16,51.37 13.34,76.06 -19.02,37.76 -40.91,75.86 -43.51,119.22 -1.5,13.48 -3.28,27.02 -3.21,40.63 -2.33,21.89 29.62,33.45 18.26,56.16 -1.37,9.58 -7.25,21.27 3.08,28.11 16.35,6.57 34.68,1.37 51.71,2.26l-6.02 7.18c-27.63,18.13 -68.95,19.02 -95.56,-1.57 -10.6,-6.36 -7.53,-20.52 -10.46,-30.64 4.86,-5.2 9.85,-10.26 14.98,-15.19 8.89,-1.37 16.62,4.79 24.9,7.25 -20.86,-22.23 -34.34,-50 -41.52,-79.41 -0.21,-60.95 53.01,-101.24 65.94,-157.67 0.27,-15.53 -1.92,-30.85 -5.75,-45.83z"/>
   <path class="fil4" d="M1552.99 2252.11c55.2,-47.13 127.98,-73.88 200.76,-71.69 68.4,-2.05 136.6,26.33 184.21,75.31 39.54,42.07 65.53,96.31 75.93,153.02 -19.77,-62.66 -63.2,-119.7 -121.89,-150.28 -13.2,-6.09 -26.74,-11.42 -40.63,-15.53 -74.22,-19.7 -155.75,-0.96 -219.71,39.95 -61.84,40.56 -87.14,116.97 -90.09,187.76 -3.15,59.51 -11.15,118.68 -23.53,176.96 -2.39,-24.49 -4.65,-48.91 -6.56,-73.4 -0.55,-63.2 -5.13,-126.27 -14.91,-188.72 -7.93,-50.96 19.97,-100 56.43,-133.38z"/>
   <path class="fil4" d="M872.87 2213.4c20.66,-2.12 41.45,-6.77 62.31,-3.69 0.68,9.99 1.5,19.97 2.39,30.03l-16.69 -5.54c2.74,4.86 8.07,14.64 10.74,19.56 -4.58,-2.53 -13.82,-7.59 -18.47,-10.12l3.97 14.3c-18.95,-0.07 -37.9,-0.34 -56.84,0l1.58 -8.82c-3.63,1.09 -10.81,3.21 -14.43,4.31l0.07 -6.77c-8.28,-2.81 -15.59,-7.39 -22.92,-11.77 17.86,-2.74 35.36,-8.14 48.29,-21.48z"/>
   <path class="fil4" d="M1192.17 2650.49c64.78,-95.35 154.93,-176.68 263.96,-217.38 0.34,4.65 1.03,13.95 1.37,18.54 1.16,23.19 3.97,46.17 5.95,69.29 -35.98,13.54 -68.68,34.06 -103.15,50.75 -55.82,22.23 -105.95,57.18 -150.42,97.27 -29.82,28.93 -60.67,58.96 -77.91,97.47 12.86,-41.93 36.46,-79.41 60.19,-115.94z"/>
   <path class="fil4" d="M1189.36 2745.77c39.88,-20.11 82.22,-36.05 125.79,-45.9 3.83,1.03 11.49,3.15 15.32,4.17 50.14,18.81 104.24,41.45 133.38,89.13 1.1,1.78 3.22,5.2 4.24,6.98 -61.77,-50.07 -143.58,-68.2 -221.76,-61.29 -18.81,3.28 -37.9,5.47 -56.98,6.91z"/>
   <path class="fil5" d="M1528.98 2051.42c8.41,-2.39 16.89,-4.72 25.31,-7.05 39.81,-12.31 60.07,-63.43 40.79,-100.38l-1.94 -2.22c-10.33,-9.44 -19.83,-0.68 -27.91,6.7l-32.22 39.54c6.77,21.27 5.61,43.09 -4.03,63.41z"/>
   <path class="fil4" d="M1266.86 2011.2c-25.45,-26.27 -30.51,-67.99 -6.22,-96.86 1.23,3.35 6.16,9.19 7.46,12.47l26.81 34.66c-8.27,16.14 -19.49,38.92 -19.56,57.86 -2.19,-0.2 -7.26,-6.69 -8.49,-8.14z"/>
   <path class="fil6 str0" d="M1573.54 1941.51c21.21,32.17 17.71,65.32 -10.5,99.44"/>
   <path class="fil7" d="M1563.1 2040.88c28.16,-34.1 31.64,-67.22 10.44,-99.37 -2.91,2.02 -5.68,4.57 -8.31,6.97l-32.22 39.54c6.77,21.27 5.61,43.09 -4.03,63.41 8.41,-2.39 16.89,-4.72 25.31,-7.05 0.41,-0.13 0.81,-0.26 1.22,-0.39 2.62,-0.87 5.16,-1.91 7.6,-3.11z"/>
   <path class="fil8" d="M1573.54 1941.51c21.2,32.15 17.72,65.27 -10.44,99.37 29.7,-14.54 45.59,-51.84 37.05,-83.8 -1.2,-4.49 -2.88,-8.88 -5.07,-13.08l-1.94 -2.22c-6.97,-6.37 -13.56,-4.45 -19.6,-0.27z"/>
   <path class="fil6 str0" d="M1268.1 1926.82c-12.58,28.88 -14.03,55.87 -4.36,80.96"/>
   <path class="fil8" d="M1263.73 2007.78c-9.4,-24.4 -8.29,-50.59 3.34,-78.57 0.33,-0.8 0.67,-1.6 1.02,-2.39 -1.3,-3.28 -6.23,-9.12 -7.46,-12.47 -23.25,27.64 -19.6,67.08 3.1,93.43z"/>
   <path class="fil7" d="M1268.1 1926.82c-0.35,0.8 -0.69,1.6 -1.02,2.39 -11.63,27.98 -12.74,54.17 -3.34,78.57 1.01,1.17 2.05,2.31 3.13,3.42 1.22,1.45 6.3,7.93 8.49,8.14 0.07,-18.95 11.28,-41.72 19.56,-57.86l-26.81 -34.66z"/>
  </g>
 </g>
</svg>
