<?xml version="1.0" encoding="UTF-8"?>
<!DOCTYPE svg PUBLIC "-//W3C//DTD SVG 1.1//EN" "http://www.w3.org/Graphics/SVG/1.1/DTD/svg11.dtd">
<!-- Creator: CorelDRAW 2018 (64-Bit) -->
<svg xmlns="http://www.w3.org/2000/svg" xml:space="preserve" width="10.9973in" height="8.36627in" version="1.1" style="shape-rendering:geometricPrecision; text-rendering:geometricPrecision; image-rendering:optimizeQuality; fill-rule:evenodd; clip-rule:evenodd"
viewBox="0 0 3019.4 2297.03"
 xmlns:xlink="http://www.w3.org/1999/xlink">
 <defs>
  <style type="text/css">
   <![CDATA[
    .str0 {stroke:#FEFEFE;stroke-width:21.62;stroke-miterlimit:2.61313}
    .str1 {stroke:#2B2A29;stroke-width:1.9;stroke-miterlimit:2.61313}
    .fil4 {fill:none}
    .fil6 {fill:#C79933}
    .fil3 {fill:#F8FCFB}
    .fil5 {fill:#FBEB58}
    .fil1 {fill:#025761;fill-rule:nonzero}
    .fil0 {fill:#090B08;fill-rule:nonzero}
    .fil2 {fill:#A0A8AA;fill-rule:nonzero}
   ]]>
  </style>
 </defs>
 <g id="Layer_x0020_1">
  <metadata id="CorelCorpID_0Corel-Layer"/>
  <g id="_1008349424">
   <g>
    <g>
     <g>
      <g>
       <g>
        <path class="fil0" d="M882.13 10.6c184.48,36.56 357.14,121.73 506.14,235.35 102.54,78.72 195.89,169.65 276.38,270.79 201.37,8.98 399.83,58.93 585.23,137.17 71.89,32.48 147.97,55.92 216.42,95.71 86.73,50.44 167.92,109.69 247.29,170.88 73.77,58.34 146.68,118.29 212.07,186.1 27.85,27.91 54.68,57.26 75.6,90.82 3.87,8.06 10.16,17.48 5.91,26.67 -6.02,9.41 -16.83,13.93 -26.67,18.07 -38.34,14.03 -78.93,20.11 -119.1,26.19 -62.48,8.6 -125.18,14.68 -188.03,19.57 -12.85,1.99 -26.24,-6.08 -38.55,-0.11 -75.49,30.86 -161.15,38.87 -239.98,16.29 8.76,-4.14 17.58,-8.33 26.35,-12.53 -35.38,-3.28 -70.28,-10.59 -104.1,-21.4 25,-11.88 54.69,-12.91 77.21,-30.17 -35.17,-1.29 -70.49,-5.75 -103.94,-16.94 18.55,-9.95 37.69,-18.71 55.92,-29.2 -31.94,3.93 -66.57,-6.29 -96.09,10 -33.45,14.63 -63.4,36.24 -90.66,60.22 -14.57,11.78 -16.88,31.46 -20,48.66 15,-0.7 29.9,-2.58 44.74,-5.32 -6.08,18.01 -19.95,31.51 -32.58,45.01 24.57,-0.48 49.36,-0.11 73.72,-4.36 -10.65,21.4 -26.56,39.74 -46.19,53.34 21.13,-0.65 41.89,-5.16 62.59,-9.2 -6.67,15.38 -14.95,30 -25,43.45 10.92,-0.32 21.94,-0.48 32.91,-0.11 -16.56,23.28 -38.12,42.26 -62.91,56.3 4.62,10.49 6.51,21.78 6.72,33.23 43.39,30.43 86.68,61.19 127.43,95.17 15.06,13.23 30.49,26.62 41.67,43.55 -86.36,-25.97 -166.1,-69.15 -247.18,-107.7 -17.91,5 -36.56,1.83 -54.2,-2.47 -43.18,-12.85 -81.03,-38.07 -118.67,-62.05 -82.11,-54.15 -162.39,-111.46 -248.47,-159.27 -90.23,-46.14 -188.03,-75.49 -286.81,-96.63 -20.05,-4.09 -40,-9.79 -60.49,-10.49 -14.52,55.6 4.36,113.13 24.68,164.86 14.84,33.93 30.16,68.29 51.73,98.51 55.55,16.88 114.91,29.09 162.49,64.36 -27.58,14.95 -59.74,15.33 -89.96,20.11 -10.05,-3.23 -18.39,-10 -27.58,-14.89 85.06,117.97 189.92,220.3 302.19,312.14 9.36,7.47 18.66,17.15 31.51,17.47 115.55,19.79 229.65,49.04 340.2,88.29 106.79,41.19 211.53,88.4 311.49,144.37 40.6,23.12 81.03,47.48 116.25,78.45 10.97,9.36 20.11,20.81 26.94,33.55 -41.35,-17.05 -83.24,-35.65 -128.46,-38.55 -21.24,-3.44 -42.75,0.16 -64.04,-1.07 -14.03,-14.19 -20.38,-33.71 -31.03,-50.17 -13.5,-26.72 -44.68,-35.33 -70.44,-45.6 -106.19,-33.93 -217.82,-45.54 -328.21,-57.21 3.98,10.16 8.66,20.06 13.44,29.9 -17.74,-0.27 -35.49,-1.08 -53.12,0.75 -38.55,59.68 -49.04,132.27 -49.95,202.01 -69.15,-64.36 -104.1,-156.2 -124.1,-246.48 -7.37,-33.39 -11.94,-67.27 -15.27,-101.2 -228.41,-160.56 -450.97,-330.2 -657.66,-518.13 -90.98,-84.74 -180.13,-172.6 -253.74,-273.26 -1.77,-1.83 -5.38,-5.59 -7.15,-7.47 -184.54,-22.26 -369.4,-44.2 -555.18,-52.7 -88.51,-5.75 -177.23,-2.96 -265.79,-3.06 19.95,-13.5 43.23,-20.48 65.98,-27.48 79.26,-23.66 160.29,-40.38 241.21,-57.21 159.11,-31.83 319.13,-59.04 479.63,-83.07 14.63,-46.08 33.82,-91.52 64.47,-129.43 67.27,-83.45 159.54,-145.34 259.82,-182.12 9.73,-75.49 1.83,-152.87 -14.41,-227.07 -29.47,-129.26 -99.58,-249.65 -201.42,-335.15 -6.83,-5.54 -13.39,-11.45 -19.2,-18.07zm114.21 42.96l0 0c12.69,10.38 28.12,16.08 43.12,22.21 59.47,23.87 114.42,57.21 168.68,90.93 145.61,94.04 279.39,208.79 386.66,345.42 10.16,8.28 25.27,2.15 37.32,2.42 -5.97,-12.2 -14.47,-22.8 -23.82,-32.48 -70.55,-83.13 -151.04,-157.65 -236.8,-224.92 -112.81,-87.91 -240.67,-155.5 -375.15,-203.57zm307.89 512.54l0 0c-140.02,27.26 -285.14,71.57 -389.4,173.84 -23.87,26.4 -50.49,52.21 -64.15,85.71 74.96,-76.08 161.95,-139.75 255.57,-190.88 69.79,-34.79 146.31,-53.77 222.77,-67.16 66.03,-8.23 132.81,-16.78 199.38,-9.36 25.27,2.8 51.84,0.97 75.49,11.94 -49.25,3.49 -99.58,9.03 -145.77,27.32 44.74,-2.64 89.47,-6.67 134.32,-8.93 111.63,3.39 223.68,13.17 332.08,41.46 50.49,8.44 97.16,30.54 146.52,43.23 34.74,11.24 68.66,24.95 101.79,40.17 5.54,3.01 12.74,4.41 16.24,10.22 -16.24,6.18 -34.84,7.1 -48.82,18.28 30.27,3.76 61.67,5 90.28,16.51 25.43,12.53 46.78,31.72 68.18,50.06 25.76,26.19 54.31,49.74 75.55,80.06 16.13,23.12 46.08,6.45 65.97,-1.72 0,12.58 -0.16,25.16 -0.48,37.8 45.6,20.27 90.87,41.19 134.8,64.85 53.5,31.72 109.91,58.23 163.14,90.39 44.9,26.51 93.02,47.43 135.45,77.86 33.55,20.32 68.45,39.95 107.16,48.39 -5.81,-21.67 -25.86,-34.36 -40,-50.33 -124.16,-128.35 -264.44,-240.08 -412.26,-339.93 -35.97,-19.41 -66.24,-48.77 -105.34,-62.27 -59.79,-29.25 -122.65,-51.51 -183.03,-79.47 -166.74,-68.93 -343,-117.33 -523.29,-131.36 -66.14,-7.53 -132.87,-3.93 -199.27,-3.93 -71.3,5.91 -142.87,11.67 -212.87,27.26zm183.46 177.07l0 0c-41.84,36.99 -64.69,91.09 -73.83,145.23 -2.69,23.93 -1.02,48.02 -0.64,72 8.39,-29.09 16.56,-58.39 28.93,-86.14 24.04,-53.34 64.69,-98.08 112.86,-130.88 -22.48,-0.81 -44.9,-0.48 -67.32,-0.21zm118.72 0.38l0 0c-30.49,28.82 -62.27,58.07 -80.66,96.52 -27.48,44.41 -40.17,96.35 -43.98,147.97 19.68,-42.75 37.85,-87.27 68.18,-123.94 39.36,-47.1 88.88,-85.98 144.43,-112.22 -28.77,-6.99 -58.39,-10.05 -87.97,-8.33zm-234.44 12.26l0 0c-22.1,27.48 -34.52,62.53 -38.71,97.32 -4.03,28.18 2.58,56.08 4.52,84.1 1.02,-0.05 3.12,-0.16 4.14,-0.22 -0.91,-48.18 13.98,-96.68 42.16,-135.77 12.74,-18.6 30.16,-33.34 43.29,-51.62 -18.5,1.61 -37.32,1.72 -55.38,6.18zm301.7 67.37l0 0c3.55,0.97 10.7,2.96 14.25,3.93 120.82,13.66 239.49,46.19 351.39,93.67 -62.8,-14.3 -127.97,-2.91 -188.41,16.4 -70.98,23.01 -138.24,56.35 -201.96,94.96 -49.79,29.2 -105.82,44.68 -161.42,58.45 -111.57,13.66 -223.31,28.07 -335.69,34.14 -53.83,0.16 -107.49,6.08 -161.37,3.01 -46.13,-3.82 -92.59,-1.45 -138.57,-7.42 93.61,118.4 197.6,229.17 313.48,326.12 16.18,12.74 31.19,27.58 50.11,36.4 -27.48,-27.1 -49.31,-59.31 -68.82,-92.38 -27.21,-48.66 -48.98,-105.77 -34.52,-162.06 -19.95,10.91 -34.79,28.01 -49.95,44.41 5.75,-21.29 15.81,-42.53 33.82,-56.08 29.63,-23.17 68.5,-28.01 104.8,-30.92 73.13,-2.85 145.23,12.53 216.96,24.25 100.23,19.79 198.47,51.94 289.23,99.04 45.54,23.12 88.08,51.51 130.18,80.28 -21.88,-43.45 -46.78,-85.44 -75.23,-124.91 -23.66,-32.32 -49.09,-64.36 -81.84,-88.02 24.63,7.74 44.9,24.36 64.79,40.17 95.39,82.91 155.61,198.89 254.6,278.1 45.06,36.29 108.45,59.63 164.91,37.48 14.09,-4.36 13.23,-19.52 10.49,-31.08 -15.81,0.27 -32.26,1.56 -47.26,-4.46 -50.33,-18.01 -92.48,-53.45 -127.97,-92.65 -55.71,-64.2 -77,-150.4 -82.92,-233.31 -4.25,-28.98 15.38,-53.39 34.31,-72.8 19.95,-20.38 45.17,-34.04 68.07,-50.65 -33.77,4.57 -66.78,15.59 -97,31.24 5.7,-8.01 16.13,-10.86 22.91,-17.9 26.94,-8.93 50.76,-25.27 77.97,-33.61 72.8,-26.13 153.03,-23.77 226.86,-3.01 86.14,22.69 167.71,60.44 244.71,104.85 51.67,31.08 103.29,64.26 144.53,108.83 7.8,7.64 15.22,16.78 25.86,20.54 18.76,4.25 38.23,1.83 57.21,0.64 66.41,-5.91 132.54,-14.03 198.52,-23.71 6.13,-1.34 12.21,-3.12 18.23,-5.32 -47.53,-8.87 -93.83,-22.37 -139.91,-36.56 -144.7,-58.18 -284.77,-126.84 -426.34,-192.01 -59.41,-29.09 -120.44,-54.79 -183.03,-76.25 -166.26,-56.94 -339.72,-97.75 -515.98,-101.79zm540.12 -6.24l0 0c7.47,30.7 23.39,58.13 40,84.63 27.85,11.78 57.37,18.55 86.41,26.56 -41.3,-37.8 -75.12,-85.98 -126.41,-111.2zm-1331.89 117.43l0 0c14.68,8.17 29.41,16.51 42.91,26.62 -23.12,21.29 -56.67,10.59 -84.85,14.68 -64.2,6.45 -128.94,0.49 -192.98,8.87 -57.85,0.65 -115.17,9.19 -172.92,12.47 -106.3,12.74 -212.71,27.21 -316.92,52.16 71.68,0.11 143.51,-1.24 215.03,4.35 181.96,2.69 361.76,34.25 542.86,48.34 115.61,3.39 231.75,2.69 346.39,-13.93 29.57,-4.62 60.01,-5.22 88.5,-15.27 -53.66,-14.89 -102.32,-42.69 -151.58,-67.8 -78.77,-40.06 -166.04,-62.75 -254.12,-69.04 -20.65,-2.63 -41.62,-6.13 -62.32,-1.45zm1250.8 103.78l0 0c-7.1,3.23 -11.99,9.79 -17.74,14.95 16.62,0.27 33.34,0.11 49.85,-2.26 8.6,-0.54 18.82,-4.46 26.67,-2.26 -0.48,2.74 -1.45,8.28 -1.94,11.02 -9.62,10.86 -20.22,20.76 -32.05,29.09 27.58,2.15 55.71,3.71 82.97,-2.9 1.4,5 3.87,11.72 -1.29,15.59 -10.33,11.94 -23.01,21.45 -35.01,31.62 35.92,3.66 72.64,1.93 107.54,-7.9 -14.95,20.76 -33.5,39.14 -56.03,51.51 45.97,5.81 93.13,3.76 137.97,-8.44 -13.39,22.69 -36.72,37.21 -58.77,50.49 44.47,7.37 89.74,9.2 134.48,3.44 -30.81,18.5 -64.04,32.26 -97.27,45.65 35.17,8.76 71.51,7.26 107.43,6.78 -10.27,8.01 -21.24,15.06 -31.99,22.42 43.77,4.46 87.54,-1.88 129,-16.13 15.7,-2.53 30.81,-7.42 45.81,-12.58 -1.24,-28.01 -22.96,-47.16 -43.23,-63.29 -71.89,-56.57 -154.64,-97.38 -238.58,-132.76 -62.48,-26.19 -128.24,-47.32 -196.42,-49.74 -3.87,5.16 -7.69,10.38 -11.4,15.7zm-861.77 175.18l0 0c6.18,134.75 75.65,258.2 162.49,358 21.02,25.38 43.29,50.01 68.07,71.84 -30.22,-41.73 -62.16,-82.37 -88.61,-126.74 -47.16,-76.03 -88.94,-159.16 -96.79,-249.66 -1.99,-16.56 1.18,-33.07 4.62,-49.2 -16.45,-2.96 -33.07,-5.27 -49.79,-4.25zm684.28 63.88l0 0c10.7,42.53 29.79,83.4 59.09,116.3 33.5,37.16 73.13,70.12 119.91,88.99 9.57,1.93 18.87,8.55 28.87,6.13 17.26,-10.32 29.84,-26.62 42.21,-42.1 -31.89,0.59 -63.82,1.94 -95.6,-1.4 -2.26,-1.13 -6.77,-3.39 -9.03,-4.52 20,-9.03 33.55,-26.94 47.48,-43.12 -20.65,2.47 -41.4,5.54 -62.21,4.03 -17.37,-2.2 -34.79,-1.45 -52.21,-0.91l-0.75 -1.83c7.21,-0.7 14.46,-1.24 21.78,-1.67 19.3,-9.84 35.43,-24.46 46.89,-42.85 -25.27,1.18 -50.54,0.54 -75.49,-3.33 -7.47,-3.6 -16.02,-3.93 -23.98,-5.59 0.65,-1.4 1.83,-4.14 2.47,-5.54 26.56,-8.44 50.11,-25.65 67.37,-47.48 -16.56,0.38 -33.12,0 -49.63,-0.97 -22.69,-3.33 -45.06,-8.23 -67.16,-14.14zm-276.86 544.96l0 0c20.48,18.71 38.87,39.63 59.52,58.23 48.18,41.51 98.51,80.66 151.04,116.47 -8.71,-12.48 -20.76,-21.94 -33.18,-30.44 -59.9,-47.05 -116.14,-99.1 -177.39,-144.26z"/>
       </g>
      </g>
      <g>
       <path class="fil1" d="M996.34 53.56c134.48,48.07 262.34,115.66 375.15,203.57 85.76,67.27 166.26,141.79 236.8,224.92 9.36,9.68 17.85,20.27 23.82,32.48 -12.05,-0.27 -27.16,5.86 -37.32,-2.42 -107.27,-136.63 -241.05,-251.37 -386.66,-345.42 -54.25,-33.71 -109.21,-67.05 -168.68,-90.93 -15,-6.13 -30.43,-11.83 -43.12,-22.21z"/>
       <path class="fil1" d="M1304.23 566.1c70.01,-15.59 141.58,-21.35 212.87,-27.26 66.41,0 133.14,-3.6 199.27,3.93 180.29,14.03 356.55,62.43 523.29,131.36 60.38,27.96 123.24,50.22 183.03,79.47 39.09,13.5 69.36,42.85 105.34,62.27 147.81,99.85 288.1,211.59 412.26,339.93 14.14,15.97 34.2,28.66 40,50.33 -38.71,-8.44 -73.61,-28.07 -107.16,-48.39 -42.42,-30.43 -90.55,-51.35 -135.45,-77.86 -53.23,-32.15 -109.64,-58.66 -163.14,-90.39 -43.93,-23.66 -89.2,-44.58 -134.8,-64.85 0.32,-12.64 0.48,-25.22 0.48,-37.8 -19.89,8.17 -49.84,24.84 -65.97,1.72 -21.24,-30.33 -49.79,-53.88 -75.55,-80.06 -21.4,-18.34 -42.75,-37.53 -68.18,-50.06 -28.61,-11.51 -60.01,-12.74 -90.28,-16.51 13.98,-11.18 32.58,-12.1 48.82,-18.28 -3.49,-5.81 -10.7,-7.2 -16.24,-10.22 -33.12,-15.22 -67.05,-28.93 -101.79,-40.17 -49.36,-12.69 -96.03,-34.79 -146.52,-43.23 -108.4,-28.28 -220.46,-38.07 -332.08,-41.46 -44.84,2.26 -89.58,6.29 -134.32,8.93 46.19,-18.28 96.52,-23.82 145.77,-27.32 -23.66,-10.97 -50.22,-9.14 -75.49,-11.94 -66.57,-7.42 -133.35,1.13 -199.38,9.36 -76.46,13.39 -152.98,32.37 -222.77,67.16 -93.61,51.13 -180.61,114.8 -255.57,190.88 13.66,-33.5 40.27,-59.31 64.15,-85.71 104.26,-102.27 249.39,-146.58 389.4,-173.84z"/>
       <path class="fil1" d="M1487.69 743.17c22.42,-0.27 44.84,-0.59 67.32,0.21 -48.18,32.8 -88.83,77.54 -112.86,130.88 -12.37,27.75 -20.54,57.05 -28.93,86.14 -0.38,-23.98 -2.04,-48.07 0.64,-72 9.14,-54.15 31.99,-108.24 73.83,-145.23z"/>
       <path class="fil1" d="M1606.42 743.54c29.57,-1.72 59.2,1.34 87.97,8.33 -55.54,26.24 -105.06,65.12 -144.43,112.22 -30.33,36.67 -48.5,81.19 -68.18,123.94 3.82,-51.62 16.51,-103.56 43.98,-147.97 18.39,-38.45 50.17,-67.7 80.66,-96.52z"/>
       <path class="fil1" d="M1371.98 755.8c18.07,-4.46 36.89,-4.57 55.38,-6.18 -13.12,18.28 -30.54,33.02 -43.29,51.62 -28.17,39.09 -43.07,87.59 -42.16,135.77 -1.02,0.06 -3.12,0.16 -4.14,0.22 -1.94,-28.01 -8.55,-55.92 -4.52,-84.1 4.19,-34.79 16.62,-69.85 38.71,-97.32z"/>
       <path class="fil1" d="M881.92 934.37c20.7,-4.68 41.67,-1.18 62.32,1.45 88.07,6.29 175.34,28.98 254.12,69.04 49.25,25.11 97.92,52.91 151.58,67.8 -28.5,10.06 -58.93,10.65 -88.5,15.27 -114.64,16.62 -230.78,17.31 -346.39,13.93 -181.1,-14.09 -360.9,-45.65 -542.86,-48.34 -71.51,-5.59 -143.35,-4.25 -215.03,-4.35 104.21,-24.95 210.62,-39.41 316.92,-52.16 57.75,-3.28 115.07,-11.83 172.92,-12.47 64.04,-8.39 128.78,-2.42 192.98,-8.87 28.18,-4.09 61.73,6.61 84.85,-14.68 -13.5,-10.11 -28.23,-18.44 -42.91,-26.62z"/>
       <path class="fil1" d="M1270.94 1213.33c16.72,-1.02 33.34,1.29 49.79,4.25 -3.44,16.13 -6.61,32.64 -4.62,49.2 7.85,90.5 49.63,173.62 96.79,249.66 26.45,44.36 58.39,85.01 88.61,126.74 -24.79,-21.83 -47.05,-46.46 -68.07,-71.84 -86.84,-99.8 -156.31,-223.25 -162.49,-358z"/>
       <path class="fil1" d="M1678.36 1822.17c61.24,45.17 117.49,97.22 177.39,144.26 12.42,8.5 24.46,17.96 33.18,30.44 -52.53,-35.81 -102.86,-74.96 -151.04,-116.47 -20.65,-18.61 -39.04,-39.52 -59.52,-58.23z"/>
      </g>
      <g>
       <path class="fil2" d="M2213.8 816.94c51.3,25.22 85.12,73.4 126.41,111.2 -29.04,-8.01 -58.56,-14.79 -86.41,-26.56 -16.62,-26.51 -32.53,-53.93 -40,-84.63z"/>
       <path class="fil2" d="M1974.47 1035.19c54.04,-34.63 118.67,-52.7 182.87,-51.51 64.31,2.69 125.98,24.52 184.75,49.47 102.65,43.29 197.5,102.32 292.67,159.7 51.46,26.72 110.07,3.23 164.27,0.38 46.08,14.19 92.38,27.69 139.91,36.56 -6.02,2.2 -12.1,3.98 -18.23,5.32 -65.98,9.68 -132.11,17.8 -198.52,23.71 -18.98,1.18 -38.45,3.6 -57.21,-0.64 -10.65,-3.76 -18.07,-12.91 -25.86,-20.54 -41.24,-44.58 -92.86,-77.75 -144.53,-108.83 -77,-44.41 -158.57,-82.16 -244.71,-104.85 -73.83,-20.76 -154.05,-23.12 -226.86,3.01 -27.21,8.33 -51.03,24.68 -77.97,33.61 8.98,-9.36 18.34,-18.5 29.41,-25.38z"/>
       <path class="fil2" d="M2132.72 1038.15c3.71,-5.32 7.53,-10.54 11.4,-15.7 68.18,2.42 133.94,23.55 196.42,49.74 83.93,35.38 166.69,76.19 238.58,132.76 20.27,16.13 41.99,35.27 43.23,63.29 -15,5.16 -30.11,10.05 -45.81,12.58 3.82,-5.97 7.74,-11.88 11.56,-17.85 -25.49,-0.81 -50.92,1.02 -76.3,2.69 19.73,-9.09 45.49,-14.73 55.11,-36.56 5.32,-9.41 -5.32,-17.64 -12.69,-21.29 -13.82,-4.68 -28.71,-3.33 -43.07,-3.92 6.02,-3.28 12.1,-6.51 18.17,-9.73 -19.73,-40.06 -74.1,-40.54 -112.65,-35.81 4.73,-7.04 17.58,-12.85 12.1,-22.69 -12.96,-15.43 -30.92,-27.85 -51.08,-31.29 -13.98,-1.29 -27.58,3.12 -41.08,6.08 1.99,-6.94 4.09,-13.82 5.64,-20.86 -29.79,-19.36 -68.23,-9.79 -95.82,8.82 1.02,-5.54 2.1,-11.08 3.23,-16.56 7.1,-4.46 13.07,-10.38 17.31,-17.64 -22.58,-6.88 -46.3,-6.56 -69.58,-5.32 -1.94,-3.5 -3.92,-6.94 -5.92,-10.27 -7.85,-2.21 -18.07,1.72 -26.67,2.26 -1.24,-3.06 -3.71,-9.19 -5,-12.21 -9.03,-0.27 -18.12,-0.54 -27.1,-0.48z"/>
       <path class="fil2" d="M1151.85 1124.72c112.38,-6.08 224.11,-20.49 335.69,-34.14 49.47,-0.16 100.23,-6.94 148.24,9.25 122.81,36.56 213.25,136.31 282.56,239.38 44.36,68.13 93.45,140.13 169.97,174.75 28.28,13.98 64.52,10.97 86.62,-12.85 2.74,11.56 3.6,26.72 -10.49,31.08 -56.46,22.15 -119.85,-1.18 -164.91,-37.48 -98.99,-79.2 -159.21,-195.19 -254.6,-278.1 -19.89,-15.81 -40.17,-32.42 -64.79,-40.17 32.75,23.66 58.18,55.71 81.84,88.02 28.44,39.47 53.34,81.46 75.23,124.91 -42.1,-28.77 -84.63,-57.16 -130.18,-80.28 -90.76,-47.1 -189,-79.26 -289.23,-99.04 -71.73,-11.72 -143.83,-27.1 -216.96,-24.25 -36.3,2.9 -75.17,7.74 -104.8,30.92 -18.01,13.55 -28.07,34.79 -33.82,56.08 15.16,-16.4 30,-33.5 49.95,-44.41 -14.47,56.3 7.31,113.4 34.52,162.06 19.52,33.07 41.35,65.28 68.82,92.38 -18.93,-8.82 -33.93,-23.66 -50.11,-36.4 -115.88,-96.95 -219.87,-207.71 -313.48,-326.12 45.97,5.97 92.43,3.6 138.57,7.42 53.88,3.07 107.54,-2.85 161.37,-3.01z"/>
       <path class="fil2" d="M1955.22 1277.21c22.1,5.91 44.47,10.81 67.16,14.14 -23.66,1.61 -32.48,27.69 -37.85,47.05 5.7,4.2 13.5,1.29 20.11,1.4 -0.64,1.4 -1.83,4.14 -2.47,5.54 7.96,1.67 16.51,1.99 23.98,5.59 -1.29,16.29 -1.67,33.18 6.83,47.86l0.75 1.83c17.42,-0.54 34.84,-1.29 52.21,0.91 -6.56,13.5 -9.73,28.12 -9.3,43.12 7.96,-1.24 16.02,-2.42 24.03,-4.03 2.26,1.13 6.78,3.39 9.03,4.52 8.34,1.93 16.83,3.23 25.33,4.68 -1.88,7.37 -3.71,14.68 -5.54,22.04 1.18,2.69 3.55,8.01 4.73,10.65 -46.78,-18.87 -86.41,-51.83 -119.91,-88.99 -29.3,-32.91 -48.39,-73.77 -59.09,-116.3z"/>
      </g>
     </g>
     <path class="fil3" d="M1999.69 1404c-55.71,-64.2 -77,-150.4 -82.92,-233.31 -4.25,-28.98 15.38,-53.39 34.31,-72.8 19.95,-20.38 45.17,-34.04 68.07,-50.65 -33.77,4.57 -66.78,15.59 -97,31.24 5.7,-8.01 16.13,-10.86 22.91,-17.9 8.98,-9.36 18.34,-18.5 29.41,-25.38 54.04,-34.63 118.67,-52.7 182.87,-51.51 64.31,2.69 125.98,24.52 184.75,49.47 102.65,43.29 197.5,102.32 292.67,159.7 51.46,26.72 110.07,3.23 164.27,0.38 -144.7,-58.18 -284.77,-126.84 -426.34,-192.01 -59.41,-29.09 -120.44,-54.79 -183.03,-76.25 -166.26,-56.94 -339.72,-97.75 -515.98,-101.79 3.55,0.97 10.7,2.96 14.25,3.93 120.82,13.66 239.49,46.19 351.39,93.67 -62.8,-14.3 -127.97,-2.91 -188.41,16.4 -70.98,23.01 -138.24,56.35 -201.96,94.96 -49.79,29.2 -105.82,44.68 -161.42,58.45 49.47,-0.16 100.23,-6.94 148.24,9.25 122.81,36.56 213.25,136.31 282.56,239.38 44.36,68.13 93.45,140.13 169.97,174.75 28.28,13.98 64.52,10.97 86.62,-12.85 -15.81,0.27 -32.26,1.56 -47.26,-4.46 -50.33,-18.01 -92.48,-53.45 -127.97,-92.65z"/>
     <path class="fil3" d="M2022.38 1291.35c-23.66,1.61 -32.48,27.69 -37.85,47.05 5.7,4.2 13.5,1.29 20.11,1.4 26.56,-8.44 50.11,-25.65 67.37,-47.48 -16.56,0.38 -33.12,0 -49.63,-0.97z"/>
     <path class="fil3" d="M2101.64 1354.26c-25.27,1.18 -50.54,0.54 -75.49,-3.33 -1.29,16.29 -1.67,33.18 6.83,47.86 7.21,-0.7 14.46,-1.24 21.78,-1.67 19.3,-9.84 35.43,-24.46 46.89,-42.85z"/>
     <path class="fil3" d="M2148.15 1397.49c-20.65,2.47 -41.4,5.54 -62.21,4.03 -6.56,13.5 -9.73,28.12 -9.3,43.12 7.96,-1.24 16.02,-2.42 24.03,-4.03 20,-9.03 33.55,-26.94 47.48,-43.12z"/>
     <path class="fil3" d="M2205.31 1446.53c-31.89,0.59 -63.82,1.94 -95.6,-1.4 8.34,1.93 16.83,3.23 25.33,4.68 -1.88,7.37 -3.71,14.68 -5.54,22.04 1.18,2.69 3.55,8.01 4.73,10.65 9.57,1.93 18.87,8.55 28.87,6.13 17.26,-10.32 29.84,-26.62 42.21,-42.1z"/>
     <path class="fil3" d="M2372.1 1267.75c35.17,8.76 71.51,7.26 107.43,6.78 -10.27,8.01 -21.24,15.06 -31.99,22.42 43.77,4.46 87.54,-1.88 129,-16.13 3.82,-5.97 7.74,-11.88 11.56,-17.85 -25.49,-0.81 -50.92,1.02 -76.3,2.69 19.73,-9.09 45.49,-14.73 55.11,-36.56 5.32,-9.41 -5.32,-17.64 -12.69,-21.29 -13.82,-4.68 -28.71,-3.33 -43.07,-3.92 6.02,-3.28 12.1,-6.51 18.17,-9.73 -19.73,-40.06 -74.1,-40.54 -112.65,-35.81 4.73,-7.04 17.58,-12.85 12.1,-22.69 -12.96,-15.43 -30.92,-27.85 -51.08,-31.29 -13.98,-1.29 -27.58,3.12 -41.08,6.08 1.99,-6.94 4.09,-13.82 5.64,-20.86 -29.79,-19.36 -68.23,-9.79 -95.82,8.82 1.02,-5.54 2.1,-11.08 3.23,-16.56 7.1,-4.46 13.07,-10.38 17.31,-17.64 -22.58,-6.88 -46.3,-6.56 -69.58,-5.32 -1.94,-3.5 -3.92,-6.94 -5.92,-10.27 -0.48,2.74 -1.45,8.28 -1.94,11.02 -9.62,10.86 -20.22,20.76 -32.05,29.09 27.58,2.15 55.71,3.71 82.97,-2.9 1.4,5 3.87,11.72 -1.29,15.59 -10.33,11.94 -23.01,21.45 -35.01,31.62 35.92,3.66 72.64,1.93 107.54,-7.9 -14.95,20.76 -33.5,39.14 -56.03,51.51 45.97,5.81 93.13,3.76 137.97,-8.44 -13.39,22.69 -36.72,37.21 -58.77,50.49 44.47,7.37 89.74,9.2 134.48,3.44 -30.81,18.5 -64.04,32.26 -97.27,45.65z"/>
     <path class="fil3" d="M2114.97 1053.1c16.62,0.27 33.34,0.11 49.85,-2.26 -1.24,-3.06 -3.71,-9.19 -5,-12.21 -9.03,-0.27 -18.12,-0.54 -27.1,-0.48 -7.1,3.23 -11.99,9.79 -17.74,14.95z"/>
    </g>
    <path class="fil4 str0" d="M2249.88 653.91c71.89,32.48 147.97,55.92 216.42,95.71 86.73,50.44 167.92,109.69 247.29,170.88 73.77,58.34 146.68,118.29 212.07,186.1 27.85,27.91 54.68,57.27 75.6,90.82 3.87,8.06 10.16,17.48 5.91,26.67 -6.02,9.41 -16.83,13.93 -26.67,18.07 -38.34,14.03 -78.93,20.11 -119.1,26.19 -62.48,8.6 -125.18,14.68 -188.03,19.57 -12.85,1.99 -26.24,-6.08 -38.55,-0.11 -75.49,30.86 -161.15,38.87 -239.98,16.29 8.77,-4.14 17.58,-8.33 26.35,-12.53 -35.38,-3.28 -70.28,-10.59 -104.1,-21.4 25,-11.88 54.69,-12.9 77.21,-30.16 -35.17,-1.29 -70.49,-5.75 -103.94,-16.94 18.55,-9.95 37.69,-18.71 55.92,-29.2 -31.94,3.92 -66.57,-6.29 -96.09,10 -33.44,14.63 -63.39,36.24 -90.66,60.22 -14.57,11.78 -16.88,31.46 -20,48.66 15,-0.7 29.9,-2.58 44.74,-5.32 -6.08,18.01 -19.95,31.51 -32.58,45.01 24.57,-0.48 49.36,-0.11 73.72,-4.36 -10.65,21.4 -26.56,39.74 -46.19,53.34 21.13,-0.65 41.89,-5.16 62.59,-9.2 -6.67,15.38 -14.95,30 -25,43.45 10.92,-0.32 21.94,-0.48 32.91,-0.11 -16.56,23.28 -38.12,42.26 -62.91,56.3 4.62,10.49 6.51,21.78 6.72,33.23 43.39,30.43 86.68,61.19 127.43,95.17 15.06,13.23 30.49,26.62 41.67,43.55 -86.35,-25.97 -166.1,-69.15 -247.18,-107.7 -17.9,5 -36.56,1.83 -54.2,-2.48 -43.18,-12.85 -81.03,-38.07 -118.67,-62.05 -82.11,-54.15 -162.38,-111.46 -248.47,-159.27 -90.23,-46.14 -188.03,-75.49 -286.81,-96.63 -20.06,-4.09 -40,-9.78 -60.49,-10.49 -14.52,55.6 4.36,113.13 24.68,164.86 14.84,33.93 30.17,68.29 51.73,98.51 55.54,16.88 114.91,29.09 162.49,64.36 -27.59,14.95 -59.74,15.33 -89.96,20.11 -10.05,-3.22 -18.39,-10 -27.58,-14.89 85.06,117.97 189.92,220.3 302.19,312.14 9.35,7.47 18.66,17.15 31.51,17.47 115.55,19.79 229.65,49.04 340.2,88.29 106.79,41.19 211.53,88.4 311.49,144.37 40.6,23.12 81.03,47.48 116.25,78.45 10.97,9.36 20.11,20.81 26.94,33.55 -41.35,-17.05 -83.24,-35.65 -128.46,-38.55 -21.24,-3.44 -42.75,0.16 -64.04,-1.07 -14.03,-14.19 -20.38,-33.71 -31.03,-50.17 -13.5,-26.72 -44.68,-35.33 -70.44,-45.6 -106.19,-33.93 -217.82,-45.54 -328.21,-57.21 3.98,10.16 8.66,20.06 13.44,29.9 -17.74,-0.27 -35.49,-1.08 -53.12,0.75 -38.55,59.68 -49.04,132.27 -49.95,202.02 -69.15,-64.36 -104.1,-156.2 -124.1,-246.48 -7.37,-33.39 -11.94,-67.27 -15.27,-101.2 -228.42,-160.56 -450.97,-330.2 -657.66,-518.13 -90.98,-84.74 -180.13,-172.6 -253.74,-273.26 -1.77,-1.83 -5.38,-5.59 -7.15,-7.47 -184.54,-22.26 -369.4,-44.2 -555.18,-52.7 -88.5,-5.75 -177.22,-2.96 -265.79,-3.07 19.95,-13.5 43.23,-20.48 65.98,-27.48 79.26,-23.66 160.29,-40.38 241.21,-57.21 159.11,-31.83 319.13,-59.04 479.63,-83.07 14.63,-46.08 33.82,-91.52 64.47,-129.42 67.27,-83.45 159.54,-145.34 259.82,-182.12 9.73,-75.49 1.83,-152.87 -14.41,-227.07 -29.47,-129.26 -99.58,-249.65 -201.42,-335.15 -6.83,-5.54 -13.39,-11.45 -19.2,-18.07 184.49,36.56 357.14,121.73 506.14,235.35 102.54,78.72 195.89,169.64 276.38,270.79 201.37,8.98 399.83,58.93 585.23,137.17z"/>
   </g>
   <path class="fil4 str1" d="M2232.54 827.58c4.63,40.4 27.8,70.48 69.49,90.23"/>
   <path class="fil5" d="M2232.54 827.58c4.63,40.4 27.8,70.48 69.49,90.23 12.7,3.55 25.49,6.82 38.19,10.32 -36.05,-33 -66.41,-73.92 -107.68,-100.55z"/>
   <path class="fil6" d="M2302.03 917.81c-41.69,-19.75 -64.85,-49.83 -69.49,-90.23 -6,-3.87 -12.23,-7.44 -18.74,-10.64 7.47,30.7 23.39,58.13 40,84.63 15.67,6.63 31.87,11.67 48.22,16.24z"/>
  </g>
 </g>
</svg>
