<?xml version="1.0" encoding="UTF-8"?>
<!DOCTYPE svg PUBLIC "-//W3C//DTD SVG 1.1//EN" "http://www.w3.org/Graphics/SVG/1.1/DTD/svg11.dtd">
<!-- Creator: CorelDRAW 2018 (64-Bit) -->
<svg xmlns="http://www.w3.org/2000/svg" xml:space="preserve" width="0.433232in" height="0.448189in" version="1.1" style="shape-rendering:geometricPrecision; text-rendering:geometricPrecision; image-rendering:optimizeQuality; fill-rule:evenodd; clip-rule:evenodd"
viewBox="0 0 3.36 3.48"
 xmlns:xlink="http://www.w3.org/1999/xlink">
 <defs>
  <style type="text/css">
   <![CDATA[
    .str0 {stroke:#2B2A29;stroke-width:0;stroke-miterlimit:2.61313}
    .fil86 {fill:none}
    .fil87 {fill:#C79933}
    .fil88 {fill:#FBEB58}
    .fil2 {fill:#020202;fill-rule:nonzero}
    .fil32 {fill:#060506;fill-rule:nonzero}
    .fil60 {fill:#0A0505;fill-rule:nonzero}
    .fil7 {fill:#0B0606;fill-rule:nonzero}
    .fil30 {fill:#0E0304;fill-rule:nonzero}
    .fil10 {fill:#0E0404;fill-rule:nonzero}
    .fil52 {fill:#100505;fill-rule:nonzero}
    .fil40 {fill:#120505;fill-rule:nonzero}
    .fil43 {fill:#150506;fill-rule:nonzero}
    .fil24 {fill:#1F0303;fill-rule:nonzero}
    .fil36 {fill:#290101;fill-rule:nonzero}
    .fil65 {fill:#2D030B;fill-rule:nonzero}
    .fil21 {fill:#330B0D;fill-rule:nonzero}
    .fil76 {fill:#373737;fill-rule:nonzero}
    .fil37 {fill:#420F06;fill-rule:nonzero}
    .fil79 {fill:#424242;fill-rule:nonzero}
    .fil77 {fill:#434343;fill-rule:nonzero}
    .fil3 {fill:#444444;fill-rule:nonzero}
    .fil0 {fill:#464646;fill-rule:nonzero}
    .fil12 {fill:#484848;fill-rule:nonzero}
    .fil9 {fill:#4B4B4B;fill-rule:nonzero}
    .fil85 {fill:#4D4D4D;fill-rule:nonzero}
    .fil17 {fill:#505050;fill-rule:nonzero}
    .fil75 {fill:#525252;fill-rule:nonzero}
    .fil4 {fill:#541C0D;fill-rule:nonzero}
    .fil84 {fill:#565656;fill-rule:nonzero}
    .fil49 {fill:#572422;fill-rule:nonzero}
    .fil5 {fill:#585555;fill-rule:nonzero}
    .fil73 {fill:#585858;fill-rule:nonzero}
    .fil72 {fill:#5C5C5C;fill-rule:nonzero}
    .fil78 {fill:#5F5F5F;fill-rule:nonzero}
    .fil16 {fill:#616161;fill-rule:nonzero}
    .fil54 {fill:#621C17;fill-rule:nonzero}
    .fil13 {fill:#626262;fill-rule:nonzero}
    .fil56 {fill:#641F20;fill-rule:nonzero}
    .fil81 {fill:#646464;fill-rule:nonzero}
    .fil83 {fill:#666666;fill-rule:nonzero}
    .fil35 {fill:#671F18;fill-rule:nonzero}
    .fil28 {fill:#691F18;fill-rule:nonzero}
    .fil15 {fill:#6A6A6A;fill-rule:nonzero}
    .fil34 {fill:#6C1E13;fill-rule:nonzero}
    .fil8 {fill:#6C2112;fill-rule:nonzero}
    .fil20 {fill:#6C8083;fill-rule:nonzero}
    .fil23 {fill:#711A14;fill-rule:nonzero}
    .fil82 {fill:#757575;fill-rule:nonzero}
    .fil50 {fill:#771610;fill-rule:nonzero}
    .fil80 {fill:#787878;fill-rule:nonzero}
    .fil59 {fill:#797979;fill-rule:nonzero}
    .fil64 {fill:#797B7B;fill-rule:nonzero}
    .fil11 {fill:#7A797B;fill-rule:nonzero}
    .fil33 {fill:#7A7A7A;fill-rule:nonzero}
    .fil57 {fill:#7B1E0D;fill-rule:nonzero}
    .fil55 {fill:#7B7B7B;fill-rule:nonzero}
    .fil68 {fill:#7C7B7E;fill-rule:nonzero}
    .fil71 {fill:#7C7C7C;fill-rule:nonzero}
    .fil67 {fill:#88586E;fill-rule:nonzero}
    .fil19 {fill:#8F4D49;fill-rule:nonzero}
    .fil61 {fill:#9F462A;fill-rule:nonzero}
    .fil25 {fill:#A17574;fill-rule:nonzero}
    .fil6 {fill:darkgray;fill-rule:nonzero}
    .fil53 {fill:#AC4123;fill-rule:nonzero}
    .fil29 {fill:#AFB0AF;fill-rule:nonzero}
    .fil63 {fill:#AFB7AD;fill-rule:nonzero}
    .fil48 {fill:#B0B0B0;fill-rule:nonzero}
    .fil14 {fill:#B1B1B1;fill-rule:nonzero}
    .fil69 {fill:#B3B1B1;fill-rule:nonzero}
    .fil70 {fill:#B4B4B4;fill-rule:nonzero}
    .fil45 {fill:#B6401F;fill-rule:nonzero}
    .fil38 {fill:#B8B0B3;fill-rule:nonzero}
    .fil26 {fill:#B93D1F;fill-rule:nonzero}
    .fil31 {fill:#B93D1F;fill-rule:nonzero}
    .fil39 {fill:#BA3C1A;fill-rule:nonzero}
    .fil42 {fill:#BA3D1B;fill-rule:nonzero}
    .fil51 {fill:#C03B14;fill-rule:nonzero}
    .fil66 {fill:#D28695;fill-rule:nonzero}
    .fil58 {fill:#D9D9D9;fill-rule:nonzero}
    .fil1 {fill:#F0F0F0;fill-rule:nonzero}
    .fil44 {fill:#F5703D;fill-rule:nonzero}
    .fil74 {fill:#F6F6F6;fill-rule:nonzero}
    .fil47 {fill:#F6F6F7;fill-rule:nonzero}
    .fil41 {fill:#F6F7F5;fill-rule:nonzero}
    .fil46 {fill:#F7F7F7;fill-rule:nonzero}
    .fil27 {fill:#F8F9F8;fill-rule:nonzero}
    .fil22 {fill:#F97037;fill-rule:nonzero}
    .fil62 {fill:#F9F9F9;fill-rule:nonzero}
    .fil18 {fill:#FAFAFA;fill-rule:nonzero}
   ]]>
  </style>
 </defs>
 <g id="Layer_x0020_1">
  <metadata id="CorelCorpID_0Corel-Layer"/>
  <g id="_988846224">
   <g>
    <path class="fil0" d="M2.65 0.01c0.02,-0 0.04,-0.01 0.06,-0.01 0,0.02 0,0.04 0,0.05 -0,-0.01 -0.01,-0.03 -0.01,-0.04 -0.02,0 -0.03,0 -0.05,0z"/>
    <path class="fil1" d="M2.36 0.07c0.1,-0.02 0.2,-0.04 0.3,-0.06 0.02,-0 0.03,-0 0.05,-0 0,0.01 0.01,0.03 0.01,0.04 0.01,0.04 0.02,0.08 0.01,0.12 -0.01,0.08 -0.01,0.17 -0.01,0.25 -0,0.01 -0,0.03 -0,0.04 -0,0.01 -0,0.02 -0,0.02 0.04,-0 0.07,-0.01 0.11,-0.01 0.04,-0 0.07,-0.01 0.11,-0.02 0,-0 0,-0 0.01,-0 0.05,-0.01 0.1,-0.03 0.15,-0.05 0,-0 0,-0 0,-0 0.03,-0.01 0.06,-0.02 0.1,-0.03 -0,0.03 -0.01,0.06 -0.01,0.09 0.04,-0 0.08,-0.01 0.11,-0.02 0,-0 0,-0 0.01,-0 0.01,-0 0.05,-0.02 0.05,0.01 0.05,0.18 0.04,0.37 0.04,0.55 -0.02,0.27 -0.08,0.54 -0.17,0.8 -0.01,0.02 -0.02,0.05 -0.03,0.07 -0.02,-0.05 0.02,-0.09 0.03,-0.14 -0.01,0 -0.02,0.01 -0.03,0.02 0.09,-0.25 0.14,-0.51 0.16,-0.77 0.01,-0.17 0.01,-0.33 -0.03,-0.49 -0.06,0.01 -0.12,0.03 -0.18,0.03 0,-0.03 0.01,-0.06 0.01,-0.08 -0.15,0.06 -0.3,0.09 -0.46,0.09 0.03,-0.16 0.03,-0.32 0.01,-0.47 -0.21,0.03 -0.41,0.08 -0.62,0.13 -0.07,0.02 -0.15,0.04 -0.22,0.08 -0.06,0.03 -0.12,0.08 -0.17,0.13 -0.04,0.04 -0.09,0.02 -0.14,0.03 -0.25,0.05 -0.48,0.18 -0.68,0.34 -0.05,0.04 -0.09,0.08 -0.13,0.13 -0.05,0.05 -0.08,0.11 -0.14,0.15 -0.03,0.02 -0.06,0.04 -0.08,0.07 -0,0.04 0.01,0.08 0.01,0.12 -0.02,0.02 -0.05,0.04 -0.06,0.06 -0.01,0.03 -0,0.07 -0.01,0.1 -0.13,0.12 -0.25,0.25 -0.36,0.39 -0.02,0.03 -0.05,0.07 -0.04,0.11 0.04,0.16 0.09,0.33 0.18,0.46 0.02,0.03 0.05,0.04 0.07,0.05 0.01,0.05 0.02,0.11 0.04,0.16 0.01,0.05 0.06,0.08 0.09,0.11 0.1,0.09 0.23,0.13 0.35,0.19 0.06,-0.1 0.11,-0.21 0.21,-0.28 0.06,-0.04 0.12,-0.08 0.19,-0.1 -0.01,0.18 -0.07,0.35 -0.14,0.5 0.06,0.03 0.12,0.06 0.18,0.08 0.05,-0.05 0.09,-0.1 0.14,-0.15 -0.01,0.07 -0.02,0.13 -0.03,0.2 0.07,0.03 0.15,0.06 0.22,0.1 0.02,-0.02 0.04,-0.04 0.06,-0.06 0,0.03 0,0.06 0,0.09 0.04,0.02 0.09,0.04 0.13,0.05 -0.01,0.01 -0.03,0.02 -0.04,0.03 -0.03,-0.01 -0.06,-0.03 -0.1,-0.04 -0,-0 -0,-0 -0,-0 -0.02,-0.01 -0.04,-0.01 -0.05,-0.02 -0,-0 -0,-0 -0,-0 -0.07,-0.03 -0.14,-0.06 -0.21,-0.09 -0,-0 -0,-0 -0.01,-0l-0.01 -0c-0,-0 -0,-0 -0.01,-0 -0.04,-0.02 -0.09,-0.04 -0.13,-0.06 -0,-0 -0,-0 -0,-0 -0.02,-0.01 -0.04,-0.02 -0.06,-0.03 -0,-0 -0,-0 -0.01,-0l-0.01 -0c-0,-0 -0,-0 -0.01,-0 -0.02,-0.01 -0.03,-0.01 -0.05,-0.02 -0,-0 -0,-0 -0,-0 -0.02,-0.01 -0.04,-0.02 -0.06,-0.03 0.01,-0.03 0.03,-0.06 0.04,-0.09 0,-0 0,-0 0,-0 0.03,-0.07 0.06,-0.15 0.08,-0.23 0,-0 0,-0 0,-0.01 0,-0.01 0.01,-0.03 0.01,-0.03 0.01,-0.03 0.02,-0.07 0.02,-0.1 -0.01,0 -0.02,0.01 -0.02,0.01 -0.06,0.03 -0.11,0.06 -0.15,0.11 -0.07,0.08 -0.12,0.17 -0.16,0.26 -0.03,-0.01 -0.06,-0.03 -0.1,-0.04 -0,-0 -0,-0 -0,-0 -0.01,-0.01 -0.03,-0.01 -0.04,-0.02 -0,-0 -0,-0 -0,-0 -0.05,-0.03 -0.11,-0.05 -0.16,-0.08 -0,-0 -0,-0 -0,-0 -0.06,-0.04 -0.12,-0.09 -0.17,-0.15 -0.03,-0.05 -0.04,-0.12 -0.05,-0.18 -0.04,-0.01 -0.06,-0.05 -0.09,-0.08 -0,-0 -0,-0 -0,-0 -0.03,-0.04 -0.05,-0.08 -0.07,-0.13 -0,-0 -0,-0 -0,-0 -0.02,-0.05 -0.04,-0.1 -0.06,-0.15 -0,-0 -0,-0 -0,-0 -0.02,-0.07 -0.05,-0.15 -0.06,-0.23 0.1,-0.18 0.25,-0.33 0.4,-0.47 0.01,-0.03 0,-0.06 0.01,-0.09 0.01,-0.03 0.03,-0.05 0.06,-0.07 -0.01,-0.04 -0.01,-0.08 -0.01,-0.11 0.02,-0.03 0.04,-0.06 0.08,-0.08 0.05,-0.03 0.09,-0.08 0.12,-0.12 0.1,-0.12 0.23,-0.22 0.36,-0.3 0.1,-0.07 0.21,-0.12 0.33,-0.16 0,-0 0,-0 0,-0 0.02,-0.01 0.04,-0.02 0.07,-0.02 0,-0 0,-0 0,-0 0.06,-0.02 0.13,-0.03 0.19,-0.03 0.02,0 0.04,-0.02 0.06,-0.03 0.03,-0.03 0.07,-0.06 0.1,-0.08 0,-0 0,-0 0,-0 0.05,-0.04 0.11,-0.06 0.17,-0.08 0,-0 0,-0 0,-0 0.13,-0.04 0.27,-0.07 0.41,-0.1 0,-0 0,-0 0.01,-0z"/>
    <path class="fil2" d="M2.05 0.18c0.2,-0.06 0.41,-0.1 0.62,-0.13 0.02,0.16 0.02,0.32 -0.01,0.47 0.16,0 0.31,-0.03 0.46,-0.09 -0,0.03 -0.01,0.06 -0.01,0.08 0.06,-0.01 0.12,-0.03 0.18,-0.03 0.04,0.16 0.04,0.33 0.03,0.49 -0.02,0.26 -0.07,0.52 -0.16,0.77 -0,0 -0.01,0.01 -0.01,0.01 -0.02,-0.02 -0.05,-0.05 -0.07,-0.07 0.01,0.06 0.03,0.11 0.03,0.17 0,0.05 -0.02,0.09 -0.04,0.13 -0.06,0.13 -0.12,0.26 -0.19,0.38 -0.02,-0.04 -0.04,-0.08 -0.06,-0.12 -0.01,0.12 -0.01,0.25 -0.08,0.35 -0.06,0.08 -0.11,0.16 -0.17,0.24 -0.01,-0.07 -0.01,-0.14 -0.02,-0.21 -0.04,0.12 -0.05,0.26 -0.12,0.37 -0.04,0.07 -0.1,0.12 -0.16,0.18 -0.08,0.08 -0.16,0.17 -0.24,0.24 -0.05,-0.02 -0.1,-0.04 -0.16,-0.06 0.01,-0.03 0.01,-0.07 0.01,-0.1 -0.03,0.02 -0.05,0.05 -0.08,0.07 -0.02,-0.01 -0.04,-0.02 -0.06,-0.02 -0.04,-0.02 -0.09,-0.04 -0.13,-0.05 -0,-0.03 0,-0.06 -0,-0.09 -0.02,0.02 -0.04,0.04 -0.06,0.06 -0.07,-0.03 -0.15,-0.06 -0.22,-0.1 0.01,-0.07 0.02,-0.13 0.03,-0.2 -0.05,0.05 -0.09,0.1 -0.14,0.15 -0.06,-0.03 -0.12,-0.05 -0.18,-0.08 0.07,-0.16 0.13,-0.33 0.14,-0.5 -0.07,0.02 -0.13,0.06 -0.19,0.1 -0.1,0.07 -0.15,0.18 -0.21,0.28 -0.12,-0.06 -0.25,-0.1 -0.35,-0.19 -0.04,-0.03 -0.08,-0.06 -0.09,-0.11 -0.02,-0.05 -0.02,-0.11 -0.04,-0.16 -0.03,-0.01 -0.06,-0.02 -0.07,-0.05 0.01,-0.02 0.03,-0.04 0.05,-0.06 0.01,0.01 0.01,0.02 0.02,0.03 0,-0.01 0.01,-0.02 0.02,-0.02 0.04,0.01 0.08,0.02 0.12,0.02 0.04,-0.02 0.08,-0.04 0.12,-0.06 0.11,-0.05 0.21,-0.11 0.32,-0.15 0.06,-0.02 0.12,-0.01 0.18,-0 0.04,0 0.07,0.01 0.11,0.01 -0,-0.02 -0.01,-0.03 -0.01,-0.05 -0.02,-0 -0.04,-0 -0.06,-0.01 -0.05,-0 -0.11,-0 -0.16,-0.01 0.02,-0.01 0.04,-0.01 0.05,-0.01 0.03,-0.01 0.05,-0.01 0.08,-0.01 0.03,-0 0.05,-0.01 0.07,-0.02 -0.04,-0.04 -0.1,-0.07 -0.15,-0.09 0.01,-0.01 0.02,-0.02 0.03,-0.03 0.05,0.01 0.09,0.01 0.14,0.01 0.07,0.02 0.08,0.1 0.1,0.16 0.04,-0.04 0.07,-0.07 0.1,-0.12 0.02,-0.01 0.04,-0.02 0.06,-0.03 -0.01,-0.02 -0.02,-0.04 -0.03,-0.06 0.04,-0.02 0.08,-0.02 0.12,-0.01 -0.01,0.02 -0.02,0.04 -0.03,0.06 -0.05,0.07 -0.1,0.14 -0.16,0.2 -0.01,0.02 -0.04,0.04 -0.03,0.06 0,0.06 0.01,0.13 0.01,0.19 0,0.1 -0,0.2 0.01,0.3 0.1,-0.12 0.16,-0.26 0.21,-0.41 0.02,0.13 0.04,0.25 0.04,0.38 0,0.09 -0.01,0.18 -0,0.28 0.05,-0.06 0.09,-0.14 0.13,-0.21 0.04,-0.07 0.06,-0.14 0.1,-0.21 0.01,0.18 0,0.35 0.01,0.53 0.06,-0.06 0.1,-0.13 0.15,-0.2 0.05,-0.07 0.09,-0.14 0.11,-0.22 0.05,-0.15 0.07,-0.31 0.09,-0.46 0.01,0.04 0.01,0.07 0.02,0.11 0,0.09 0.02,0.19 0.02,0.28 0,0.1 0.01,0.19 0.01,0.29 0.04,-0.03 0.08,-0.08 0.09,-0.13 0.08,-0.22 0.14,-0.45 0.17,-0.69 0.01,-0.11 0.02,-0.22 -0.02,-0.32 -0.01,-0.07 -0.03,-0.13 -0.05,-0.2 0.04,0.06 0.08,0.12 0.12,0.18 0.03,0.07 0.06,0.14 0.09,0.21 0.02,0.06 0.04,0.12 0.06,0.18 0.02,-0.16 0.02,-0.32 -0.03,-0.47l-0 -0.01c0,-0.02 0,-0.04 0,-0.06 0.02,0.05 0.05,0.1 0.08,0.15 0.05,0.08 0.08,0.17 0.13,0.25 0.02,-0.03 0.05,-0.06 0.05,-0.1 -0.01,-0.06 -0.02,-0.11 -0.04,-0.17 -0.04,-0.14 -0.07,-0.28 -0.14,-0.41 -0,-0 -0.01,-0.01 -0.01,-0.02 -0.01,-0.02 -0.01,-0.03 -0.02,-0.05 0.03,-0.02 0.06,-0 0.09,0.01 0.11,0.07 0.2,0.17 0.3,0.24 0,-0.02 0,-0.04 0.01,-0.06 0.01,-0.05 0.02,-0.1 0.02,-0.15 -0,-0.13 0.01,-0.27 -0.06,-0.39 -0,-0.03 -0.01,-0.06 0,-0.08 0.04,-0.03 0.09,-0.05 0.12,-0.1l0.01 -0.01c-0.09,0 -0.19,0.03 -0.28,0.04 -0.05,0 -0.1,0.01 -0.15,0.02 0.04,0.08 0.09,0.16 0.12,0.24 -0,0.01 -0.01,0.02 -0.02,0.02 -0.02,-0 -0.03,-0 -0.05,-0.01 -0.05,-0.05 -0.1,-0.08 -0.15,-0.12 -0.03,-0.02 -0.06,-0.04 -0.09,-0.04 -0.03,0.01 -0.05,0.03 -0.07,0.06 -0.01,0.03 0,0.07 0,0.1 0,0.03 0.02,0.07 -0.02,0.09l-0.01 -0.01c-0.03,-0.02 -0.05,-0.05 -0.08,-0.07 -0.02,-0.02 -0.05,-0.04 -0.08,-0.04 -0.02,0 -0.04,0.02 -0.06,0.02 -0.03,0.02 -0.07,0.03 -0.11,0.02 -0.01,-0.01 -0.02,-0.02 -0.03,-0.03 -0.02,-0.01 -0.05,-0.02 -0.07,-0.03 0.03,-0.03 0.08,-0.04 0.12,-0.05 0.1,-0.03 0.22,-0.04 0.3,-0.11 0.07,-0.06 0.12,-0.16 0.13,-0.25 0.02,-0.1 0.02,-0.21 0.02,-0.32 -0.02,0 -0.03,0 -0.05,0.01 -0.07,0.01 -0.13,0.03 -0.19,0.04 -0.13,-0.01 -0.25,0.03 -0.37,0.07 0.02,-0.03 0.05,-0.06 0.07,-0.09zm-1.41 2.17l0 0c-0.07,0.03 -0.13,0.1 -0.22,0.09 0,0.03 0.01,0.06 0.01,0.09 0.01,0.02 0.03,0.04 0.04,0.05 0,-0.02 0,-0.04 0.01,-0.06 0.04,0.03 0.08,0.06 0.12,0.09 0.02,0.01 0.04,0.02 0.06,0.04 0.02,0.01 0.03,0.02 0.05,0.02 0.04,-0.06 0.08,-0.11 0.12,-0.16 -0.03,-0 -0.05,-0 -0.08,-0.01 0.07,-0.1 0.18,-0.16 0.29,-0.19 -0.09,-0.01 -0.18,0.01 -0.26,0.04 0.02,-0.03 0.05,-0.06 0.07,-0.09 -0.08,0.02 -0.14,0.06 -0.21,0.09z"/>
    <path class="fil3" d="M2.35 0.07c0,-0 0,-0 0.01,-0 -0,0 -0,0 -0.01,0z"/>
    <path class="fil4" d="M2.55 0.17c0.02,-0 0.03,-0 0.05,-0.01 0.01,0.11 0.01,0.21 -0.02,0.32 -0.01,0.09 -0.06,0.19 -0.13,0.25 -0.08,0.08 -0.2,0.08 -0.3,0.11 -0.09,-0.01 -0.18,-0.02 -0.27,-0.01 0,-0.01 0.01,-0.02 0.01,-0.03 0.09,0.01 0.19,0.02 0.28,0 0.12,-0 0.23,-0.07 0.3,-0.16 0.1,-0.13 0.11,-0.31 0.09,-0.46 -0,-0.01 -0,-0.02 -0,-0.03 -0,0 -0.01,0 -0.02,0z"/>
    <path class="fil4" d="M1.23 0.68c0,-0.02 0.01,-0.04 0.01,-0.05 0,0.01 0,0.02 0,0.02 0.01,-0 0.03,-0.01 0.04,-0.01 -0.02,0.04 -0.04,0.08 -0.06,0.12 -0,-0.01 -0,-0.02 -0,-0.02 -0,-0.02 -0,-0.03 -0,-0.05z"/>
    <path class="fil5" d="M1.94 0.17c0,-0 0,-0 0,-0 -0,0 -0,0 -0,0z"/>
    <path class="fil6" d="M2.71 0.43c0,-0.08 0,-0.17 0.01,-0.25 0,0.08 0.01,0.17 -0.01,0.25z"/>
    <path class="fil7" d="M1.83 0.26c0.07,-0.04 0.15,-0.06 0.22,-0.08 -0.02,0.03 -0.04,0.06 -0.07,0.09 0.12,-0.04 0.24,-0.08 0.37,-0.07 -0.15,0.04 -0.3,0.06 -0.44,0.11 -0.15,0.06 -0.26,0.19 -0.37,0.31 -0,-0.01 -0,-0.02 -0,-0.03 0.02,-0.03 0.05,-0.07 0.07,-0.1 -0.04,0 -0.09,0 -0.13,0.01 -0.07,0.02 -0.15,0.05 -0.18,0.12 -0.01,0 -0.03,0.01 -0.04,0.01 -0,-0.01 -0,-0.02 -0,-0.02 -0,-0.01 -0,-0.02 -0,-0.02 -0.09,0.04 -0.16,0.09 -0.24,0.14 -0.03,0.02 -0.06,0.05 -0.08,0.08 -0.02,0.03 -0.07,0.04 -0.1,0.07 -0.09,0.08 -0.14,0.19 -0.24,0.24 -0,0.01 -0,0.02 -0,0.03 0.04,-0.02 0.08,-0.03 0.12,-0.05 -0.03,0.03 -0.07,0.06 -0.11,0.08 0.01,0.03 0.01,0.05 0.02,0.07 0,0 0,0.01 0,0.01 -0.03,0.01 -0.07,0.01 -0.08,0.04 -0.01,0.04 0.01,0.09 -0.03,0.13 -0.09,0.09 -0.19,0.18 -0.27,0.29 -0.01,0.02 -0.03,0.04 -0.04,0.06 -0.01,0.01 -0.01,0.02 -0.02,0.03 -0.01,0.01 -0.02,0.02 -0.03,0.04 0,0.07 0.03,0.13 0.05,0.19 -0.01,-0.05 -0.01,-0.09 -0.02,-0.14 0.06,0 0.13,-0.01 0.18,-0.04 0.01,-0 0.02,-0.01 0.03,-0.01 -0,-0.01 -0.01,-0.03 -0.01,-0.04 0.03,-0.01 0.07,-0.01 0.1,-0.02 -0.07,0.08 -0.13,0.16 -0.2,0.24 -0.03,0.03 -0.02,0.08 -0.02,0.12 0,0.06 0.03,0.12 0.07,0.17 -0,0.01 -0.01,0.02 -0.02,0.02 -0.01,-0.01 -0.01,-0.02 -0.02,-0.03 -0.02,0.02 -0.03,0.04 -0.05,0.06 -0.09,-0.14 -0.15,-0.3 -0.18,-0.46 -0.01,-0.04 0.02,-0.08 0.04,-0.11 0.1,-0.14 0.22,-0.27 0.36,-0.39 0,-0.03 -0,-0.07 0.01,-0.1 0.01,-0.03 0.04,-0.04 0.06,-0.06 -0,-0.04 -0.02,-0.08 -0.01,-0.12 0.02,-0.03 0.05,-0.05 0.08,-0.07 0.06,-0.04 0.09,-0.1 0.14,-0.15 0.04,-0.04 0.09,-0.09 0.13,-0.13 0.2,-0.16 0.43,-0.3 0.68,-0.34 0.04,-0.01 0.1,0 0.14,-0.03 0.05,-0.05 0.1,-0.09 0.17,-0.13z"/>
    <path class="fil8" d="M2.23 0.3c0.09,-0.01 0.17,-0.04 0.26,-0.06 0,0.01 0,0.02 0,0.03 -0,0.05 -0,0.1 -0.01,0.15 0,-0.05 -0,-0.1 -0,-0.14 -0.04,0.01 -0.09,0.02 -0.13,0.03 -0.08,0.02 -0.17,0.03 -0.25,0.06 -0.08,0.03 -0.17,0.05 -0.23,0.11 -0.07,0.06 -0.13,0.12 -0.18,0.18 0.01,0.01 0.02,0.02 0.03,0.02 -0.01,0 -0.03,0 -0.04,0.01 -0.01,-0 -0.03,-0 -0.03,-0 0.04,-0.06 0.08,-0.11 0.13,-0.16 0.05,-0.05 0.1,-0.11 0.18,-0.13 0.09,-0.03 0.19,-0.06 0.28,-0.08z"/>
    <path class="fil9" d="M1.76 0.26c0,-0 0,-0 0,-0 -0,0 -0,0 -0,0z"/>
    <path class="fil9" d="M0.49 2.78c0,0 0,0 0,0 -0,-0 -0,-0 -0,-0z"/>
    <path class="fil10" d="M2.35 0.3c0.04,-0.01 0.08,-0.02 0.13,-0.03 0,0.05 0.01,0.1 0,0.14 -0.02,0.11 -0.07,0.21 -0.15,0.28 -0.07,0.06 -0.16,0.08 -0.24,0.08 -0.06,0 -0.12,0.01 -0.17,-0.02 0.02,-0.01 0.03,-0.02 0.05,-0.03 0.02,-0.02 0.04,-0.03 0.06,-0.05 -0.1,-0.02 -0.21,-0.02 -0.31,-0.01 -0.01,-0.01 -0.02,-0.02 -0.03,-0.02 0.05,-0.07 0.12,-0.13 0.18,-0.18 0.07,-0.06 0.15,-0.08 0.23,-0.11 0.08,-0.03 0.17,-0.04 0.25,-0.06zm-0.3 0.16l0 0c-0.1,0.02 -0.17,0.09 -0.23,0.17 0.08,-0 0.15,0.01 0.23,0.01l0.01 0c0.02,0.01 0.05,0.03 0.07,0.04 -0.04,0.02 -0.08,0.04 -0.12,0.07 0.03,0 0.06,0.01 0.09,-0 0.06,0 0.12,-0.01 0.17,-0.05 0.09,-0.04 0.13,-0.14 0.15,-0.23 0.01,-0.03 0.02,-0.07 0.02,-0.1 -0.13,0.03 -0.26,0.06 -0.39,0.09z"/>
    <path class="fil11" d="M2.05 0.45c0.13,-0.03 0.26,-0.07 0.39,-0.09 -0,0.03 -0,0.07 -0.02,0.1 -0,-0.01 -0,-0.03 -0,-0.04 -0.12,0.02 -0.24,0.05 -0.35,0.08 -0.06,0.01 -0.11,0.06 -0.15,0.1 0.04,0 0.09,0.01 0.13,0.02 -0.08,-0.01 -0.15,-0.02 -0.23,-0.01 0.06,-0.08 0.14,-0.15 0.23,-0.17z"/>
    <path class="fil12" d="M1.41 0.41c0,-0 0,-0 0,-0 -0,0 -0,0 -0,0z"/>
    <path class="fil0" d="M3.07 0.41c0,-0 0,-0 0,-0 -0,0 -0,0 -0,0z"/>
    <path class="fil13" d="M1.34 0.43c0,-0 0,-0 0,-0 -0,0 -0,0 -0,0z"/>
    <path class="fil14" d="M2.06 0.51c0.12,-0.03 0.23,-0.06 0.35,-0.08 0,0.01 0,0.03 0,0.04 -0.02,0.09 -0.06,0.19 -0.15,0.23 0.04,-0.07 0.08,-0.14 0.1,-0.22 -0.1,0.02 -0.2,0.05 -0.29,0.07 -0.03,0.01 -0.06,0.03 -0.08,0.05 0.08,0.03 0.16,0.04 0.22,0.1 -0.01,0.01 -0.03,0.01 -0.04,0.02 -0.02,-0.05 -0.08,-0.06 -0.12,-0.07l-0.01 -0c-0.04,-0.01 -0.09,-0.02 -0.13,-0.02 0.04,-0.05 0.09,-0.09 0.15,-0.1z"/>
    <path class="fil14" d="M0.44 2.48c0.11,-0.01 0.19,-0.09 0.3,-0.13 -0.01,0.02 -0.02,0.05 -0.03,0.07 0.02,-0 0.03,-0 0.05,-0.01 -0.04,0.05 -0.08,0.09 -0.12,0.13 0.03,0.01 0.06,0.01 0.09,0.02 -0.02,0.03 -0.04,0.06 -0.06,0.09 -0.02,-0.01 -0.04,-0.02 -0.06,-0.04 -0.01,-0.05 0.01,-0.09 0.04,-0.13 -0.01,-0 -0.02,-0.01 -0.04,-0.01 -0,-0.01 -0,-0.02 -0,-0.03 -0.05,0.03 -0.11,0.08 -0.17,0.06 0,-0.01 0,-0.03 0,-0.03z"/>
    <path class="fil15" d="M3.27 0.44c0,-0 0,-0 0.01,-0 -0,0 -0,0 -0.01,0z"/>
    <path class="fil16" d="M2.92 0.46c0,-0 0,-0 0.01,-0 -0,0 -0,0 -0.01,0z"/>
    <path class="fil17" d="M2.71 0.49c0,-0.01 0,-0.02 0,-0.02 0.03,0.02 0.07,0.01 0.1,0.01 -0.04,0.01 -0.07,0.01 -0.11,0.01z"/>
    <path class="fil18" d="M2.08 0.55c0.1,-0.02 0.19,-0.05 0.29,-0.07 -0.02,0.08 -0.06,0.15 -0.1,0.22 -0.05,0.04 -0.11,0.05 -0.17,0.05 0.03,-0.01 0.05,-0.02 0.08,-0.03 0.01,-0.01 0.03,-0.01 0.04,-0.02 -0.06,-0.05 -0.14,-0.07 -0.22,-0.1 0.02,-0.02 0.05,-0.04 0.08,-0.05z"/>
    <path class="fil18" d="M2.29 1.29c0.04,0.04 0.08,0.07 0.12,0.11 -0.01,0.01 -0.02,0.03 -0.03,0.04 -0.01,-0.01 -0.02,-0.02 -0.04,-0.03 0.03,0.15 0.08,0.31 0.04,0.46 -0.04,0.14 -0.07,0.29 -0.11,0.43 -0.05,-0.16 -0.07,-0.33 -0.12,-0.49 -0.05,0.2 -0.1,0.39 -0.16,0.58 -0.02,0.06 -0.06,0.1 -0.1,0.14 -0.01,-0.07 -0.01,-0.14 -0.02,-0.21 -0.01,-0.09 -0.03,-0.18 -0.02,-0.27 0.01,-0.08 0.02,-0.16 0.02,-0.24 0,-0.02 0.01,-0.05 0.01,-0.07 0,0.01 0,0.02 0.01,0.04 0.01,0.1 0.03,0.2 0.05,0.3 0.07,-0.08 0.09,-0.18 0.12,-0.28 0.02,-0.1 0.05,-0.2 0.05,-0.3 0.04,0.05 0.06,0.12 0.08,0.18 0.01,0.04 0.03,0.08 0.05,0.12 0,-0.01 0.01,-0.03 0.01,-0.04 0.03,-0.15 0.02,-0.31 0.02,-0.46z"/>
    <path class="fil19" d="M1.47 0.51c0.04,-0.01 0.09,-0.01 0.13,-0.01 -0.02,0.04 -0.04,0.07 -0.07,0.1 -0.01,-0.02 -0.01,-0.05 -0.02,-0.07 -0.02,-0.01 -0.03,-0.01 -0.05,-0.02z"/>
    <path class="fil20" d="M2.05 0.64c0.05,0.01 0.1,0.02 0.12,0.07 -0.03,0.01 -0.05,0.02 -0.08,0.03 -0.03,0.01 -0.06,0 -0.09,0 0.04,-0.03 0.08,-0.05 0.12,-0.07 -0.02,-0.01 -0.05,-0.03 -0.07,-0.04z"/>
    <path class="fil21" d="M3.06 0.69c0.03,-0.01 0.07,-0.03 0.1,-0.04 -0.03,0.05 -0.08,0.06 -0.12,0.1 -0.01,0.03 -0,0.06 -0,0.08 -0.02,-0.03 -0.04,-0.06 -0.05,-0.08 0.02,-0.02 0.05,-0.04 0.07,-0.05z"/>
    <path class="fil22" d="M1.96 0.72c-0.02,0.01 -0.03,0.02 -0.05,0.03 0.05,0.03 0.12,0.02 0.17,0.02 0.09,-0 0.18,-0.03 0.24,-0.08 0.08,-0.07 0.13,-0.17 0.15,-0.28 0.01,-0.05 0.01,-0.1 0.01,-0.15 -0,-0.01 -0,-0.02 -0,-0.03 -0.09,0.01 -0.17,0.04 -0.26,0.06 -0.1,0.02 -0.19,0.05 -0.28,0.08 -0.07,0.02 -0.13,0.08 -0.18,0.13 -0.05,0.05 -0.09,0.1 -0.13,0.16 0.01,0 0.03,0 0.03,0 0.01,-0 0.02,-0.01 0.04,-0.01 0.1,-0.02 0.21,-0.01 0.31,0.01 -0.02,0.02 -0.04,0.03 -0.06,0.05zm-1.09 0.92c0.02,-0 0.04,-0.01 0.06,-0.01 0.06,-0.02 0.13,-0.04 0.19,-0.04 0.03,0.01 0.06,0.03 0.09,0.05 0.03,0.02 0.08,0.02 0.12,0.03 -0.03,-0.07 -0.06,-0.13 -0.08,-0.21 -0.02,-0.07 -0.01,-0.14 -0.03,-0.21 -0,-0 -0,-0.01 -0,-0.02 -0,-0.01 -0,-0.02 -0,-0.03 0.01,0.01 0.02,0.02 0.02,0.03 -0.01,-0.09 0.06,-0.17 0.13,-0.22 0.03,-0.02 0.05,-0.03 0.08,-0.05 0.07,-0.03 0.14,-0.05 0.21,-0.06l0.01 -0c0,0.01 0.01,0.02 0.01,0.03 -0,0.02 -0.01,0.04 -0.01,0.07 -0.1,-0 -0.21,-0.01 -0.29,0.04 -0.05,0.11 -0.02,0.24 -0.01,0.35 0.01,0.02 0.02,0.05 0.03,0.07 -0,-0.02 -0.01,-0.04 -0.01,-0.07 -0.01,-0.1 -0.01,-0.21 0.04,-0.31 0.1,-0.05 0.21,-0.03 0.31,-0.01 -0.01,-0.1 -0.04,-0.2 -0.01,-0.3 -0.18,-0.05 -0.37,-0.07 -0.55,-0.02 -0.01,-0.01 -0.02,-0.02 -0.03,-0.02 -0.01,-0 -0.02,-0.01 -0.02,-0.01 0,-0.01 0.01,-0.02 0.01,-0.02 -0.02,0.01 -0.03,0.01 -0.05,0.02 -0.03,0.02 -0.06,0.04 -0.08,0.07 -0.05,0.04 -0.1,0.07 -0.13,0.12 -0.04,0.04 -0.06,0.11 -0.12,0.12 -0.02,0.02 -0.05,0.05 -0.07,0.08 -0.04,0.01 -0.08,0.03 -0.12,0.05 0,-0.01 0,-0.02 0,-0.03 0.1,-0.06 0.16,-0.17 0.24,-0.24 0.03,-0.03 0.07,-0.03 0.1,-0.07 0.02,-0.03 0.05,-0.06 0.08,-0.08 0.08,-0.05 0.16,-0.1 0.24,-0.14 0,0.01 0,0.02 0,0.02 -0,0.02 -0.01,0.04 -0.01,0.05 -0,0.02 0,0.03 0,0.05 0,0.01 0,0.02 0,0.02 0.02,-0.04 0.04,-0.08 0.06,-0.12 0.04,-0.07 0.11,-0.1 0.18,-0.12 0.02,0.01 0.03,0.01 0.05,0.02 0.01,0.02 0.01,0.05 0.02,0.07 0,0.01 0,0.02 0,0.03 0.11,-0.12 0.22,-0.25 0.37,-0.31 0.14,-0.05 0.3,-0.07 0.44,-0.11 0.07,-0.01 0.13,-0.03 0.19,-0.04 0,-0 0.01,-0 0.02,-0 0,0.01 0,0.02 0,0.03 0.02,0.16 0,0.33 -0.09,0.46 -0.08,0.09 -0.18,0.16 -0.3,0.16 -0.09,0.01 -0.19,0.01 -0.28,-0 -0,0.01 -0.01,0.02 -0.01,0.03 -0.04,0.13 -0.01,0.26 0.03,0.38 0.03,0.05 0.06,0.1 0.1,0.14 -0.01,-0.03 -0.02,-0.06 -0.03,-0.09 -0.02,-0.06 -0.03,-0.13 -0.04,-0.19 0.01,-0 0.02,-0.01 0.02,-0.01 0.08,0.01 0.16,0 0.24,-0 0.03,0 0.06,0.01 0.09,0.01 0.04,-0.05 0.11,-0.04 0.16,-0.05l0.01 0.01c0.01,0.01 0.02,0.01 0.02,0.02 0.01,-0.03 0.03,-0.06 0.06,-0.08 0.02,0.02 0.04,0.04 0.05,0.06 0,-0.03 0,-0.07 0.01,-0.1 0.15,0.1 0.28,0.24 0.38,0.39 0.02,0.03 0.04,0.05 0.06,0.08 -0,-0.02 -0,-0.05 -0,-0.07 0.01,0.01 0.01,0.02 0.02,0.03 -0,0.02 -0.01,0.04 -0.01,0.06 -0.11,-0.07 -0.2,-0.17 -0.3,-0.24 -0.05,-0.04 -0.09,-0.07 -0.14,-0.1 -0,0.08 -0,0.17 -0.01,0.25 -0.05,-0.04 -0.09,-0.08 -0.13,-0.12 -0,-0 -0.01,-0.01 -0.01,-0.01 -0.01,-0.01 -0.03,-0.02 -0.05,-0.03 0,0.06 0.01,0.11 0.01,0.17 -0.05,-0.05 -0.1,-0.09 -0.14,-0.13 -0.03,-0.01 -0.06,-0.03 -0.09,-0.04 0.01,0.09 0.04,0.19 0.05,0.28 0.02,0.1 0.01,0.19 0.01,0.29 -0,0.01 -0.01,0.03 -0.01,0.04 -0.02,-0.04 -0.04,-0.08 -0.05,-0.12 -0.02,-0.06 -0.04,-0.13 -0.08,-0.18 -0,0.1 -0.03,0.2 -0.05,0.3 -0.03,0.1 -0.05,0.2 -0.12,0.28 -0.02,-0.1 -0.04,-0.2 -0.05,-0.3 -0,-0.01 -0,-0.03 -0.01,-0.04 -0,-0.01 -0,-0.01 -0,-0.02 -0.02,-0.07 -0.04,-0.14 -0.07,-0.21 -0.03,0.14 -0.04,0.27 -0.07,0.41 -0.01,0.04 -0.02,0.07 -0.01,0.11 -0.01,0.01 -0.01,0.02 -0.02,0.03 -0.04,-0.16 -0.1,-0.32 -0.15,-0.48 -0.04,-0.11 -0.04,-0.24 -0.08,-0.35 -0.01,0.07 -0.02,0.13 -0.03,0.2 -0.02,0.09 -0.06,0.17 -0.1,0.25 -0.02,0.03 -0.03,0.06 -0.06,0.08 -0.03,0.02 -0.07,0.02 -0.1,0.02 -0.02,-0 -0.03,-0.01 -0.05,-0.01 0.03,0.02 0.06,0.04 0.09,0.06 -0.05,-0.01 -0.09,-0.02 -0.13,-0.04 -0.04,-0.03 -0.07,-0.07 -0.11,-0.09 -0.04,-0.02 -0.09,-0.03 -0.13,-0.04 0.01,-0.01 0.01,-0.02 0.02,-0.02z"/>
    <path class="fil23" d="M2.86 0.73c0.06,-0.02 0.13,-0.04 0.2,-0.04 -0.02,0.02 -0.05,0.04 -0.07,0.05 0.02,0.03 0.04,0.06 0.05,0.08 0.07,0.12 0.06,0.26 0.06,0.39 0,0.05 -0.01,0.1 -0.02,0.15 -0.01,-0.01 -0.01,-0.02 -0.02,-0.03 -0.01,-0.16 -0.04,-0.33 -0.11,-0.48 -0.02,-0.04 -0.05,-0.07 -0.08,-0.11 -0,-0 -0,-0.01 -0,-0.02z"/>
    <path class="fil24" d="M1.1 0.74c0.02,-0.01 0.03,-0.01 0.05,-0.02 -0,0.01 -0.01,0.02 -0.01,0.02 -0.01,0.02 -0.03,0.04 -0.04,0.06 0.03,-0.01 0.06,-0.02 0.09,-0.03 0.18,-0.05 0.37,-0.03 0.55,0.02 -0.02,0.1 0,0.2 0.01,0.3 -0.1,-0.02 -0.21,-0.04 -0.31,0.01 -0.05,0.09 -0.05,0.21 -0.04,0.31 0,0.02 0.01,0.04 0.01,0.07 -0.01,-0.02 -0.02,-0.05 -0.03,-0.07 -0.02,-0.12 -0.04,-0.24 0.01,-0.35 0.09,-0.05 0.2,-0.04 0.29,-0.04 0,-0.02 0.01,-0.04 0.01,-0.07 0,-0.02 0,-0.05 0.01,-0.07 -0.09,-0.01 -0.18,0.01 -0.26,0.01l-0.01 -0.01c0.08,-0.03 0.17,-0.03 0.26,-0.03 0.02,-0 0.03,-0 0.05,-0.01 -0.08,-0.04 -0.18,-0.06 -0.28,-0.07 -0.14,-0.01 -0.28,0.02 -0.41,0.08 0.02,-0.03 0.04,-0.06 0.05,-0.1 -0.02,0.01 -0.05,0.03 -0.07,0.04 0.03,-0.03 0.05,-0.05 0.08,-0.07z"/>
    <path class="fil25" d="M1.09 0.8c0.01,-0.02 0.02,-0.04 0.04,-0.06 0.01,0 0.02,0.01 0.02,0.01 0.01,0.01 0.02,0.02 0.03,0.02 -0.03,0.01 -0.06,0.02 -0.09,0.03z"/>
    <path class="fil26" d="M2.86 0.75c0.03,0.03 0.06,0.06 0.08,0.11 0.07,0.15 0.1,0.31 0.11,0.48 0,0.02 0,0.05 0,0.07 -0.02,-0.03 -0.04,-0.05 -0.06,-0.08 -0.1,-0.15 -0.23,-0.29 -0.38,-0.39 -0,0.03 -0,0.07 -0.01,0.1 -0.02,-0.02 -0.04,-0.04 -0.05,-0.06 -0.03,0.01 -0.05,0.05 -0.06,0.08 -0.01,-0.01 -0.02,-0.01 -0.02,-0.02 0.03,-0.02 0.02,-0.06 0.02,-0.09 0.02,-0.06 0.08,-0.08 0.12,-0.11 0.01,-0 0.02,-0.01 0.03,-0.01 0.05,0.04 0.11,0.08 0.15,0.12 0.03,0.03 0.06,0.07 0.1,0.09 -0.01,-0.04 -0.02,-0.08 -0.03,-0.11 -0.04,-0.08 -0.08,-0.16 -0.12,-0.24 0.05,-0.01 0.1,-0.01 0.15,-0.02 0.09,-0.01 0.18,-0.04 0.28,-0.04l-0.01 0.01c-0.03,0.02 -0.07,0.03 -0.1,0.04 -0.07,0.01 -0.13,0.02 -0.2,0.04 0,0 0,0.01 0,0.02z"/>
    <path class="fil27" d="M1.01 0.81c0.02,-0.01 0.05,-0.03 0.07,-0.04 -0.02,0.03 -0.03,0.06 -0.05,0.1 0.13,-0.06 0.27,-0.09 0.41,-0.08 0.09,0.01 0.19,0.02 0.28,0.07 -0.02,0 -0.03,0 -0.05,0.01 -0.11,-0.03 -0.22,-0.03 -0.33,-0.01 -0.16,0.02 -0.33,0.1 -0.41,0.25 -0.04,0.08 -0.09,0.15 -0.16,0.2 -0.04,0.02 -0.09,0.02 -0.13,0.02 -0.01,-0.01 -0.02,-0.02 -0.03,-0.03 -0.01,-0.02 -0.02,-0.05 -0.02,-0.07 0.04,-0.02 0.08,-0.05 0.11,-0.08 0.02,-0.03 0.05,-0.05 0.07,-0.08 0.06,-0.01 0.08,-0.07 0.12,-0.12 0.03,-0.05 0.08,-0.08 0.13,-0.12z"/>
    <path class="fil28" d="M2.55 0.79c0.03,0 0.06,0.02 0.09,0.04 -0.01,0 -0.02,0.01 -0.03,0.01 -0.05,0.03 -0.11,0.05 -0.12,0.11 -0,-0.03 -0.01,-0.07 -0,-0.1 0.01,-0.03 0.04,-0.05 0.07,-0.06z"/>
    <path class="fil29" d="M1.34 0.83c0.11,-0.01 0.22,-0.01 0.33,0.01 -0.09,0.01 -0.18,0 -0.26,0.03 -0.03,0 -0.06,0.01 -0.09,0.02 -0.15,0 -0.27,0.11 -0.35,0.23 -0.07,0.09 -0.15,0.2 -0.27,0.21 -0.02,-0.01 -0.04,-0.01 -0.05,-0.02 -0.01,-0 -0.02,-0.01 -0.03,-0.02l0.01 -0c0.04,-0.01 0.09,0 0.13,-0.02 0.07,-0.05 0.12,-0.13 0.16,-0.2 0.09,-0.14 0.25,-0.23 0.41,-0.25z"/>
    <path class="fil30" d="M1.88 0.84c0.09,-0.01 0.18,0 0.27,0.01 -0.04,0.01 -0.09,0.02 -0.12,0.05 0.02,0.01 0.05,0.02 0.07,0.03 -0.04,-0 -0.09,-0.01 -0.13,0 -0.01,0.01 -0.02,0.03 -0.02,0.05 -0,0.04 -0,0.07 -0,0.11 0.01,0.06 0.02,0.13 0.04,0.19 0.01,0.03 0.02,0.06 0.03,0.09 -0.04,-0.04 -0.07,-0.09 -0.1,-0.14 -0.05,-0.12 -0.08,-0.26 -0.03,-0.38z"/>
    <path class="fil31" d="M1.42 0.89c0.09,-0 0.18,-0.02 0.26,-0.01 -0,0.02 -0,0.05 -0.01,0.07 -0,-0.01 -0.01,-0.02 -0.01,-0.03l-0.01 0c-0.07,0.01 -0.14,0.03 -0.21,0.06 -0.03,0.01 -0.06,0.03 -0.08,0.05 -0.07,0.05 -0.14,0.12 -0.13,0.22 -0.01,-0.01 -0.02,-0.02 -0.02,-0.03 0,0.01 0,0.02 0,0.03 -0.02,0.02 -0.03,0.04 -0.05,0.07 -0,-0.06 0.01,-0.13 0.03,-0.19 0.02,-0.06 0.06,-0.11 0.09,-0.16 0.04,-0.03 0.09,-0.05 0.13,-0.07z"/>
    <path class="fil32" d="M1.32 0.9c0.03,-0.01 0.06,-0.01 0.09,-0.02l0.01 0.01c-0.05,0.02 -0.09,0.04 -0.13,0.07 -0.08,0.06 -0.15,0.14 -0.16,0.25 -0.01,0.05 -0.01,0.11 -0.02,0.16 -0.01,-0.02 -0.03,-0.05 -0.04,-0.07 -0.01,0.05 -0.02,0.11 -0.03,0.16 -0.07,0.02 -0.14,0.05 -0.21,0.08 -0.06,0.02 -0.11,0.04 -0.16,0.08 -0,-0.01 -0.01,-0.02 -0.02,-0.02 0.04,-0.06 0.08,-0.12 0.09,-0.19 -0.01,-0.01 -0.02,-0.02 -0.04,-0.02 -0.03,-0.02 -0.06,-0.04 -0.08,-0.06 0.01,0 0.02,0 0.02,0 0.02,0.01 0.03,0.01 0.05,0.02 0.05,0.01 0.1,0.02 0.14,-0 0.07,-0.04 0.11,-0.1 0.15,-0.17 0.08,-0.12 0.2,-0.21 0.33,-0.27zm-0.43 0.5l0 0c0.03,0.01 0.07,0.01 0.1,0.01 0.01,-0.04 0.02,-0.08 0.01,-0.12 -0.04,0.04 -0.08,0.07 -0.11,0.11z"/>
    <path class="fil33" d="M0.98 1.13c0.08,-0.12 0.2,-0.22 0.35,-0.23 -0.13,0.06 -0.25,0.15 -0.33,0.27 -0.04,0.06 -0.09,0.13 -0.15,0.17 -0.04,0.02 -0.1,0.01 -0.14,0 0.12,-0.01 0.21,-0.12 0.27,-0.21z"/>
    <path class="fil33" d="M2.7 1.25c0.07,0.13 0.1,0.27 0.14,0.41 0.01,0.06 0.03,0.11 0.04,0.17 0.01,0.04 -0.03,0.07 -0.05,0.1 -0.05,-0.08 -0.09,-0.17 -0.13,-0.25 -0.03,-0.05 -0.05,-0.1 -0.08,-0.15 -0,0.02 -0,0.04 -0,0.06 -0.02,-0.04 -0.03,-0.08 -0.03,-0.13 0.07,0.07 0.11,0.16 0.18,0.22 -0.01,-0.12 -0.03,-0.24 -0.06,-0.36 -0,-0.03 -0.01,-0.05 -0.01,-0.08z"/>
    <path class="fil34" d="M2.3 0.91c0.03,0 0.05,0.03 0.08,0.04 -0.04,0.01 -0.08,0.01 -0.12,0.02 0,0.01 0,0.02 0.01,0.02 -0.01,-0.02 -0.02,-0.04 -0.02,-0.06 0.02,-0.01 0.04,-0.02 0.06,-0.02z"/>
    <path class="fil35" d="M1.97 0.93c0.04,-0.01 0.09,-0 0.13,-0 0.01,0.01 0.02,0.02 0.03,0.03 0.01,0.01 0.02,0.02 0.04,0.03 -0.02,-0 -0.03,-0 -0.05,-0 -0.04,-0 -0.09,-0.01 -0.13,-0.01 -0.02,0 -0.03,0 -0.05,0 0.01,-0.02 0.01,-0.03 0.02,-0.05z"/>
    <path class="fil36" d="M2.14 0.96c0.04,0.01 0.08,0 0.11,-0.02 0.01,0.02 0.02,0.04 0.02,0.06 0.01,0.02 0.01,0.04 0.02,0.06 -0.04,-0.02 -0.08,-0.05 -0.12,-0.08 -0.01,-0.01 -0.02,-0.02 -0.04,-0.03z"/>
    <path class="fil37" d="M2.86 0.93c0.02,0.04 0.03,0.07 0.03,0.11 -0.04,-0.03 -0.07,-0.06 -0.1,-0.09 0.02,0 0.03,0 0.05,0.01 0,-0.01 0.01,-0.02 0.02,-0.02z"/>
    <path class="fil38" d="M1.13 1.21c0.01,-0.1 0.08,-0.19 0.16,-0.25 -0.03,0.05 -0.07,0.1 -0.09,0.16 -0.02,0.06 -0.03,0.12 -0.03,0.19 0.02,-0.02 0.03,-0.04 0.05,-0.07 0,0 0,0.01 0,0.02 -0.02,0.11 -0.01,0.22 0,0.33 -0.05,-0.02 -0.09,-0.06 -0.11,-0.11 -0,0.01 -0,0.03 -0,0.04 -0.05,0 -0.1,0.01 -0.15,0.02 -0.05,0.01 -0.1,0.03 -0.15,0.04 -0.05,0.02 -0.1,0.03 -0.15,0.04 0,-0 0.01,-0.01 0.02,-0.01 0.05,-0.03 0.1,-0.06 0.16,-0.08 0.03,-0 0.06,-0 0.09,-0.02 0.05,-0.02 0.1,-0.03 0.15,-0.05 0,-0.03 0.01,-0.06 0.01,-0.08 0.03,0.03 0.05,0.06 0.08,0.08 -0.01,-0.09 -0.01,-0.18 -0.03,-0.27z"/>
    <path class="fil39" d="M1.99 0.98c0.04,0 0.09,0.01 0.13,0.01 0.02,0 0.03,0 0.05,0 0.04,0.03 0.08,0.05 0.12,0.08 -0.01,-0.02 -0.01,-0.04 -0.02,-0.06 -0,-0.01 -0,-0.02 -0.01,-0.02 0.04,-0.01 0.08,-0.01 0.12,-0.02 0.03,0.02 0.05,0.05 0.08,0.07 -0.06,0.01 -0.12,0.01 -0.16,0.05 -0.03,-0 -0.06,-0.01 -0.09,-0.01 -0.08,0.01 -0.16,0.01 -0.24,0 -0.01,0 -0.02,0.01 -0.02,0.01 -0,-0.04 -0,-0.07 0,-0.11 0.02,-0 0.03,-0 0.05,-0z"/>
    <path class="fil40" d="M2.63 1.08c0.05,0.03 0.09,0.07 0.14,0.1 -0.03,-0.01 -0.06,-0.02 -0.09,-0.01 0,0.02 0.01,0.03 0.02,0.05 -0,-0 -0.01,-0.01 -0.01,-0.02 -0.01,0.08 -0.01,0.17 -0.01,0.25 -0.06,-0.05 -0.11,-0.1 -0.17,-0.15 0.01,0.09 0.02,0.17 0.03,0.26 -0.04,-0.06 -0.08,-0.12 -0.12,-0.18 -0.04,-0.04 -0.08,-0.08 -0.12,-0.11 0.01,0.15 0.02,0.31 -0.02,0.46 -0,-0.1 0,-0.19 -0.01,-0.29 -0.01,-0.09 -0.03,-0.19 -0.05,-0.28 0.03,0.01 0.06,0.02 0.09,0.04 0.05,0.04 0.1,0.09 0.14,0.13 -0.01,-0.06 -0.01,-0.11 -0.01,-0.17 0.02,0.01 0.03,0.02 0.05,0.03 0,0 0.01,0.01 0.01,0.01 0.04,0.04 0.08,0.08 0.13,0.12 0,-0.08 0.01,-0.17 0.01,-0.25z"/>
    <path class="fil41" d="M1.13 1.21c0.01,0.09 0.01,0.18 0.03,0.27 -0.03,-0.03 -0.05,-0.06 -0.08,-0.08 -0,0.03 -0.01,0.06 -0.01,0.08 -0.05,0.01 -0.1,0.02 -0.15,0.05 -0.03,0.01 -0.06,0.02 -0.09,0.02 0.07,-0.03 0.14,-0.06 0.21,-0.08 0.01,-0.05 0.02,-0.11 0.03,-0.16 0.01,0.02 0.03,0.05 0.04,0.07 0,-0.05 0.01,-0.11 0.02,-0.16z"/>
    <path class="fil42" d="M1.45 1.44c0.02,-0.07 0.02,-0.13 0.03,-0.2 0.04,0.11 0.05,0.23 0.08,0.35 -0.01,-0.01 -0.01,-0.01 -0.02,-0.02 -0,0.01 -0.01,0.02 -0.01,0.02 -0.05,0.07 -0.08,0.16 -0.15,0.22 -0.07,0.01 -0.13,-0.01 -0.2,-0.02 0.03,-0 0.07,-0 0.1,-0.02 0.03,-0.02 0.04,-0.05 0.06,-0.08 0.04,-0.08 0.08,-0.16 0.1,-0.25z"/>
    <path class="fil43" d="M1.22 1.26c0.01,0.07 0.01,0.14 0.03,0.21 0.01,0.07 0.05,0.14 0.08,0.21 -0.04,-0 -0.08,-0 -0.12,-0.03 -0.03,-0.01 -0.05,-0.04 -0.09,-0.05 -0.07,-0 -0.13,0.02 -0.19,0.04 -0.02,0 -0.04,0.01 -0.06,0.01 -0.01,0 -0.02,0 -0.02,0 0.01,-0.01 0.03,-0.02 0.04,-0.02 0.06,-0.03 0.13,-0.04 0.2,-0.07 0,-0.01 0.01,-0.02 0.01,-0.03 0,-0.01 0,-0.03 0,-0.04 0.03,0.05 0.07,0.08 0.11,0.11 -0.01,-0.11 -0.02,-0.22 -0,-0.33z"/>
    <path class="fil44" d="M0.58 1.31c0.02,0.03 0.05,0.06 0.08,0.09 -0.03,0.01 -0.05,0.02 -0.08,0.02 0,0.01 0.01,0.03 0.01,0.04 -0.1,0.08 -0.2,0.16 -0.28,0.27 -0.02,0.03 -0.05,0.05 -0.08,0.07 -0.02,-0.01 -0.03,-0.02 -0.05,-0.02 0.01,-0.02 0.03,-0.04 0.04,-0.06 0.08,-0.1 0.18,-0.19 0.27,-0.29 0.04,-0.03 0.02,-0.09 0.03,-0.13 0.02,-0.03 0.05,-0.03 0.08,-0.04 -0,-0 -0,-0.01 -0,-0.01 0.01,0.01 0.02,0.02 0.03,0.03l-0.01 0c-0.01,0 -0.03,0 -0.04,0.01z"/>
    <path class="fil45" d="M0.58 1.31c0.01,-0 0.03,-0 0.04,-0.01 0.01,0 0.02,0.01 0.03,0.02 -0.01,-0 -0.02,-0 -0.02,-0 0.03,0.02 0.06,0.04 0.08,0.06 -0,0.01 -0,0.02 -0.01,0.02 -0.03,0.01 -0.05,0.02 -0.08,0.03 0.01,0.01 0.02,0.02 0.03,0.04 -0.11,0.09 -0.21,0.19 -0.29,0.31 -0.01,0.01 -0.02,0.02 -0.03,0.03 -0.03,0.01 -0.07,0.01 -0.11,0 0.03,-0.02 0.06,-0.04 0.08,-0.07 0.08,-0.11 0.18,-0.19 0.28,-0.27 -0,-0.01 -0.01,-0.03 -0.01,-0.04 0.03,-0.01 0.05,-0.02 0.08,-0.02 -0.03,-0.03 -0.05,-0.06 -0.08,-0.09z"/>
    <path class="fil46" d="M0.85 1.42c0.05,-0.05 0.11,-0.11 0.16,-0.16 0,0.06 -0.01,0.12 -0.02,0.17 -0.05,0 -0.1,-0 -0.14,-0.01z"/>
    <path class="fil47" d="M2.5 1.32c0.06,0.05 0.11,0.1 0.17,0.15 -0,-0.08 -0,-0.17 0.01,-0.25 0,0.01 0.01,0.01 0.01,0.02 0,0 0.01,0.01 0.01,0.02 0,0.03 0.01,0.05 0.01,0.08 -0,0.03 -0.01,0.06 -0.02,0.1 -0,0.04 0,0.07 0,0.11 -0.05,-0.05 -0.09,-0.1 -0.15,-0.14 0.02,0.11 0.06,0.22 0.05,0.34 -0.07,-0.1 -0.14,-0.2 -0.22,-0.29 0.01,-0.01 0.02,-0.03 0.03,-0.04 0.05,0.06 0.09,0.12 0.12,0.18 -0,-0.09 -0.02,-0.17 -0.03,-0.26z"/>
    <path class="fil48" d="M2.72 1.33c0.03,0.12 0.05,0.24 0.06,0.36 -0.07,-0.07 -0.11,-0.16 -0.18,-0.22 0,0.04 0.01,0.09 0.03,0.13l0 0.01c-0,0.08 0,0.15 0,0.23 -0.03,-0.06 -0.06,-0.12 -0.11,-0.15 -0.04,-0.06 -0.08,-0.12 -0.12,-0.18 0.02,0.07 0.04,0.13 0.05,0.2 -0,0.08 0.01,0.16 -0.01,0.24 -0.04,0.16 -0.07,0.33 -0.12,0.49 -0.02,0.08 -0.04,0.15 -0.07,0.23 -0.02,-0.13 -0.03,-0.27 -0.05,-0.4 -0.01,-0.08 -0.01,-0.17 -0.04,-0.25 -0.03,0.12 -0.05,0.23 -0.08,0.35 -0.02,0.09 -0.03,0.18 -0.09,0.25 -0.05,0.06 -0.1,0.12 -0.15,0.18 -0.01,-0.15 -0.01,-0.31 -0.02,-0.46 -0.07,0.13 -0.13,0.27 -0.2,0.39 -0.02,-0.17 -0.04,-0.35 -0.08,-0.51 -0.06,0.1 -0.1,0.21 -0.16,0.3 -0,-0.09 -0.01,-0.18 -0.01,-0.28 -0,-0.05 0.03,-0.09 0.06,-0.13 0.04,-0.05 0.06,-0.11 0.09,-0.17 0.01,-0.02 0.02,-0.04 0.03,-0.06 0.01,-0.03 0.03,-0.06 0.04,-0.09 0,0.01 0.01,0.03 0.01,0.04 -0.03,0.07 -0.01,0.16 -0.02,0.23 -0.02,0.1 0.02,0.2 0.04,0.3 0.02,0.08 0.02,0.17 0.04,0.26 0.03,-0.1 0.05,-0.2 0.06,-0.31 0,0 0.01,0 0.02,0 0.07,-0.16 0.14,-0.31 0.19,-0.48l0 0.01c0,0.08 -0.01,0.16 -0.02,0.24 -0.01,0.09 0.01,0.18 0.02,0.27 0.01,0.07 0.01,0.14 0.02,0.21 0.04,-0.04 0.08,-0.08 0.1,-0.14 0.06,-0.19 0.11,-0.39 0.16,-0.58 0.05,0.16 0.07,0.33 0.12,0.49 0.05,-0.14 0.08,-0.28 0.11,-0.43 0.04,-0.15 -0.01,-0.31 -0.04,-0.46 0.01,0.01 0.02,0.02 0.04,0.03 0.08,0.09 0.15,0.19 0.22,0.29 0.01,-0.12 -0.03,-0.23 -0.05,-0.34 0.06,0.04 0.1,0.09 0.15,0.14 -0,-0.04 -0,-0.07 -0,-0.11 0.01,-0.03 0.01,-0.06 0.02,-0.1z"/>
    <path class="fil48" d="M0.62 1.85c0.02,-0.02 0.03,-0.03 0.05,-0.05 0.03,0.01 0.07,0.03 0.1,0.04 -0,0.02 -0.01,0.04 -0.02,0.05 -0.06,0.08 -0.13,0.15 -0.21,0.21 0.04,-0.08 0.11,-0.15 0.15,-0.23 -0.02,-0.01 -0.05,-0.02 -0.07,-0.02z"/>
    <path class="fil49" d="M0.71 1.38c0.01,0.01 0.02,0.02 0.04,0.02 -0.02,0.07 -0.05,0.14 -0.09,0.19 0,0.01 0.01,0.02 0.02,0.02 -0,0 -0.01,0.01 -0.02,0.01 -0.01,0 -0.02,0.01 -0.03,0.01 -0.01,-0.01 -0.02,-0.03 -0.03,-0.04 0.06,-0.05 0.09,-0.12 0.1,-0.2 0,-0.01 0,-0.02 0.01,-0.02z"/>
    <path class="fil50" d="M0.63 1.43c0.03,-0.01 0.05,-0.02 0.08,-0.03 -0.01,0.07 -0.05,0.15 -0.1,0.2 0.01,0.01 0.02,0.03 0.03,0.04 -0.01,0.01 -0.03,0.02 -0.04,0.03 -0.08,0.02 -0.16,0.06 -0.22,0.11 0.08,-0.12 0.18,-0.22 0.29,-0.31 -0.01,-0.01 -0.02,-0.02 -0.03,-0.04z"/>
    <path class="fil51" d="M1.76 1.93c0.03,-0.14 0.04,-0.27 0.07,-0.41 0.03,0.07 0.05,0.13 0.07,0.21 -0.01,0.01 -0.03,0.01 -0.04,0.02 -0.02,0.07 -0.06,0.13 -0.1,0.19z"/>
    <path class="fil52" d="M1.55 1.57c0.01,0.01 0.01,0.01 0.02,0.02 0.06,0.16 0.11,0.31 0.15,0.48 0.01,-0.01 0.01,-0.02 0.02,-0.03 0.06,-0.08 0.1,-0.17 0.13,-0.26 0,0.01 0.01,0.02 0.01,0.02 -0.04,0.17 -0.12,0.32 -0.19,0.48 -0,-0 -0.01,-0 -0.02,-0 -0,-0.04 -0.01,-0.09 -0.02,-0.13 -0.02,-0.12 -0.06,-0.23 -0.09,-0.35 -0,-0.01 -0.01,-0.03 -0.01,-0.04 -0.01,0.03 -0.03,0.06 -0.04,0.09 -0.04,-0.01 -0.08,-0.01 -0.12,0.01 0.01,0.02 0.02,0.04 0.03,0.06 -0.02,0.01 -0.04,0.02 -0.06,0.03 0.01,-0.02 0.02,-0.03 0.03,-0.05 -0.02,-0.01 -0.03,-0.01 -0.05,-0.02 -0.04,-0.01 -0.07,-0.02 -0.11,-0.03 -0,-0.01 -0.01,-0.02 -0.01,-0.03 0.07,0.01 0.14,0.02 0.22,0.01 0.04,-0.07 0.06,-0.15 0.09,-0.23 0,-0.01 0.01,-0.02 0.01,-0.02z"/>
    <path class="fil53" d="M0.66 1.63c0.05,-0.01 0.1,-0.03 0.15,-0.04 0.05,-0.02 0.1,-0.03 0.15,-0.04 0.05,-0.01 0.1,-0.02 0.15,-0.02 -0,0.01 -0.01,0.02 -0.01,0.03 -0.06,0.03 -0.13,0.04 -0.2,0.07 -0.01,0.01 -0.03,0.01 -0.04,0.02 0.01,-0 0.02,-0 0.02,-0 -0.01,0.01 -0.01,0.02 -0.02,0.02 0.04,0.01 0.09,0.02 0.13,0.04 0.04,0.02 0.07,0.06 0.11,0.09 0.04,0.02 0.09,0.03 0.13,0.04l0.01 0c0.04,0.01 0.07,0.02 0.11,0.03 -0.01,0.03 -0.03,0.06 -0.05,0.08 -0.03,-0.03 -0.07,-0.07 -0.11,-0.08 -0.06,-0.02 -0.12,-0.02 -0.16,-0.07 -0.02,-0.03 -0.04,-0.06 -0.07,-0.07 -0.08,-0.04 -0.18,-0.06 -0.28,-0.06 -0.03,-0 -0.05,-0 -0.08,0 0.01,-0.01 0.03,-0.02 0.04,-0.03 0.01,-0 0.02,-0.01 0.03,-0.01z"/>
    <path class="fil54" d="M1.39 1.81c0.07,-0.06 0.1,-0.15 0.15,-0.22 -0.02,0.08 -0.05,0.16 -0.09,0.23 -0.07,0.01 -0.15,0.01 -0.22,-0.01 0,0.01 0.01,0.02 0.01,0.03l-0.01 -0c-0.03,-0.02 -0.06,-0.04 -0.09,-0.06 0.02,0 0.03,0 0.05,0.01 0.06,0.01 0.13,0.03 0.2,0.02z"/>
    <path class="fil55" d="M2.62 1.6c0.05,0.15 0.05,0.31 0.03,0.47 -0.02,-0.06 -0.04,-0.12 -0.06,-0.18 -0.02,-0.07 -0.06,-0.14 -0.09,-0.21 0.06,0.04 0.08,0.1 0.11,0.15 0,-0.08 -0,-0.15 -0,-0.23z"/>
    <path class="fil56" d="M0.59 1.67c0.03,-0 0.05,-0 0.08,-0 0.04,0.02 0.08,0.04 0.12,0.04 0.08,0.01 0.15,0.06 0.23,0.09 0.04,0.05 0.11,0.05 0.16,0.07 0.05,0.01 0.08,0.05 0.11,0.08 0.03,-0.02 0.04,-0.05 0.05,-0.08 0.02,0.01 0.03,0.01 0.05,0.02 -0.01,0.02 -0.02,0.03 -0.03,0.05 -0.03,0.04 -0.06,0.08 -0.1,0.12 -0.02,-0.06 -0.04,-0.13 -0.1,-0.16 -0.06,-0.03 -0.14,-0.03 -0.19,-0.08 -0.12,-0.1 -0.28,-0.12 -0.42,-0.12 0.02,0.01 0.04,0.01 0.06,0.02 -0.01,-0 -0.03,-0 -0.03,-0 -0.05,0 -0.09,0.02 -0.13,0.06 -0.03,0 -0.07,0.01 -0.1,0.02 -0.01,0 -0.02,0 -0.02,0.01 0.01,-0.01 0.02,-0.02 0.03,-0.03 0.07,-0.05 0.14,-0.09 0.22,-0.11z"/>
    <path class="fil57" d="M0.67 1.67c0.09,-0 0.19,0.02 0.28,0.06 0.03,0.01 0.05,0.04 0.07,0.07 -0.07,-0.04 -0.14,-0.08 -0.23,-0.09 -0.04,-0 -0.08,-0.02 -0.12,-0.04z"/>
    <path class="fil58" d="M3.08 1.69c0.02,0.02 0.05,0.05 0.07,0.07 0,-0 0.01,-0.01 0.01,-0.01 0.01,-0 0.02,-0.01 0.03,-0.02 -0.02,0.04 -0.05,0.09 -0.03,0.14 -0.02,0.09 -0.07,0.17 -0.1,0.25 -0.06,0.12 -0.12,0.24 -0.19,0.36 -0,0 -0,0 -0,0 -0.05,0.09 -0.11,0.17 -0.17,0.25 -0,0 -0,0 -0,0 -0.06,0.09 -0.12,0.17 -0.19,0.25 -0.05,0.05 -0.09,0.1 -0.14,0.15 -0,0 -0,0 -0,0 -0.1,0.11 -0.21,0.22 -0.32,0.33 -0.11,-0.05 -0.22,-0.09 -0.33,-0.14 0.01,-0.01 0.03,-0.02 0.04,-0.03 0.02,0.01 0.04,0.02 0.06,0.02 0.03,-0.02 0.05,-0.05 0.08,-0.07 -0,0.03 -0.01,0.07 -0.01,0.1 0.05,0.02 0.1,0.04 0.16,0.06 0.08,-0.08 0.16,-0.16 0.24,-0.24 0.05,-0.06 0.11,-0.12 0.16,-0.18 0.07,-0.11 0.08,-0.25 0.12,-0.37 0.01,0.07 0.01,0.14 0.02,0.21 0.06,-0.08 0.12,-0.16 0.17,-0.24 0.07,-0.1 0.07,-0.23 0.08,-0.35 0.02,0.04 0.04,0.08 0.06,0.12 0.07,-0.12 0.13,-0.25 0.19,-0.38 0.02,-0.04 0.04,-0.08 0.04,-0.13 -0,-0.06 -0.02,-0.11 -0.03,-0.17z"/>
    <path class="fil59" d="M2.43 1.93c0.02,-0.08 0.01,-0.16 0.01,-0.24 0.04,0.1 0.03,0.22 0.02,0.32 -0.03,0.23 -0.09,0.47 -0.17,0.69 -0.02,0.05 -0.05,0.09 -0.09,0.13 -0,-0.1 -0.01,-0.19 -0.01,-0.29 -0,-0.09 -0.02,-0.19 -0.02,-0.28 -0,-0.04 -0.01,-0.07 -0.02,-0.11 -0.03,0.16 -0.04,0.31 -0.09,0.46 -0.02,0.08 -0.07,0.15 -0.11,0.22 -0.05,0.07 -0.1,0.14 -0.15,0.2 -0.01,-0.18 0,-0.35 -0.01,-0.53 -0.04,0.07 -0.06,0.14 -0.1,0.21 -0.04,0.07 -0.08,0.14 -0.13,0.21 -0,-0.09 0.01,-0.18 0,-0.28 -0,-0.13 -0.02,-0.25 -0.04,-0.38 -0.05,0.14 -0.11,0.29 -0.21,0.41 -0.01,-0.1 -0,-0.2 -0.01,-0.3 -0,-0.06 -0.01,-0.13 -0.01,-0.19 -0,-0.03 0.02,-0.04 0.03,-0.06 0.06,-0.06 0.11,-0.13 0.16,-0.2 -0.02,0.06 -0.05,0.12 -0.09,0.17 -0.02,0.04 -0.06,0.08 -0.06,0.13 0,0.09 0.01,0.18 0.01,0.28 0.07,-0.09 0.1,-0.21 0.16,-0.3 0.05,0.17 0.07,0.34 0.08,0.51 0.08,-0.13 0.13,-0.26 0.2,-0.39 0.01,0.15 0.01,0.31 0.02,0.46 0.05,-0.06 0.1,-0.12 0.15,-0.18 0.06,-0.07 0.07,-0.16 0.09,-0.25 0.03,-0.12 0.05,-0.24 0.08,-0.35 0.02,0.08 0.02,0.17 0.04,0.25 0.02,0.13 0.03,0.27 0.05,0.4 0.03,-0.07 0.05,-0.15 0.07,-0.23 0.05,-0.16 0.09,-0.32 0.12,-0.49z"/>
    <path class="fil59" d="M0.64 2.36c0.07,-0.03 0.14,-0.08 0.21,-0.09 -0.02,0.03 -0.04,0.06 -0.07,0.09 0.08,-0.03 0.17,-0.05 0.26,-0.04 -0.11,0.04 -0.22,0.1 -0.29,0.19 0.03,0 0.05,0.01 0.08,0.01 -0.04,0.06 -0.08,0.11 -0.12,0.16 -0.02,-0.01 -0.03,-0.02 -0.05,-0.02 0.02,-0.03 0.04,-0.06 0.06,-0.09 -0.03,-0.01 -0.06,-0.01 -0.09,-0.02 0.04,-0.04 0.08,-0.09 0.12,-0.13 -0.02,0 -0.03,0 -0.05,0.01 0.01,-0.02 0.02,-0.05 0.03,-0.07 -0.1,0.03 -0.19,0.11 -0.3,0.13 -0,0.01 -0,0.03 -0,0.03 -0,0.01 -0,0.01 -0,0.02 -0.01,-0.03 -0.01,-0.06 -0.01,-0.09 0.08,0.01 0.15,-0.05 0.22,-0.09z"/>
    <path class="fil60" d="M0.56 1.71c0.15,0 0.31,0.02 0.42,0.12 0.06,0.04 0.13,0.04 0.19,0.08 -0.05,-0.01 -0.09,-0.01 -0.14,-0.01 -0.01,0.01 -0.02,0.02 -0.03,0.03 -0.06,-0.02 -0.12,-0.03 -0.19,-0.02 -0.02,0.02 -0.04,0.03 -0.06,0.05 -0.1,0.09 -0.21,0.18 -0.33,0.25 0.03,-0.04 0.07,-0.07 0.11,-0.1 0.08,-0.06 0.15,-0.13 0.21,-0.21 0.04,-0.03 0.08,-0.05 0.13,-0.07 -0.07,-0.03 -0.15,-0.08 -0.21,-0.03 -0.02,0.02 -0.03,0.03 -0.05,0.05 -0.05,0.06 -0.11,0.11 -0.17,0.16 0.02,-0.03 0.03,-0.05 0.05,-0.08 0.06,-0.06 0.1,-0.13 0.14,-0.2 -0.01,-0 -0.02,-0.01 -0.02,-0.01 -0.02,-0.01 -0.04,-0.01 -0.06,-0.02z"/>
    <path class="fil61" d="M1.86 1.74c0.01,-0.01 0.03,-0.01 0.04,-0.02 0,0.01 0,0.01 0,0.02 -0,0.02 -0.01,0.05 -0.01,0.07l-0 -0.01c-0,-0.01 -0.01,-0.02 -0.01,-0.02 -0.03,0.09 -0.07,0.18 -0.13,0.26 -0,-0.04 0,-0.07 0.01,-0.11 0.04,-0.06 0.07,-0.12 0.1,-0.19z"/>
    <path class="fil62" d="M0.46 1.79c0.03,-0.04 0.08,-0.06 0.13,-0.06 -0.03,0.07 -0.07,0.14 -0.08,0.21 -0.02,0.02 -0.03,0.05 -0.05,0.08 0.06,-0.05 0.11,-0.11 0.17,-0.16 0.02,0.01 0.05,0.02 0.07,0.02 -0.04,0.08 -0.11,0.14 -0.15,0.23 -0.04,0.03 -0.07,0.07 -0.11,0.1 0.12,-0.07 0.23,-0.16 0.33,-0.25 0.09,0.01 0.17,0.04 0.24,0.09 -0.02,0 -0.04,0.01 -0.05,0.01 -0.14,0.04 -0.28,0.11 -0.39,0.21 -0.04,0.02 -0.08,0.05 -0.12,0.06 -0.04,0 -0.08,-0.01 -0.12,-0.02 -0.04,-0.05 -0.07,-0.1 -0.07,-0.17 -0,-0.04 -0.01,-0.09 0.02,-0.12 0.06,-0.08 0.13,-0.16 0.2,-0.24z"/>
    <path class="fil62" d="M1.55 2.03c0.01,-0.08 -0.01,-0.16 0.02,-0.23 0.03,0.12 0.08,0.23 0.09,0.35 0.01,0.04 0.02,0.09 0.02,0.13 -0,0.1 -0.03,0.21 -0.06,0.31 -0.01,-0.09 -0.02,-0.17 -0.04,-0.26 -0.02,-0.1 -0.06,-0.2 -0.04,-0.3z"/>
    <path class="fil63" d="M0.58 1.73c0.01,0 0.03,0 0.03,0 0.01,0 0.02,0.01 0.02,0.01 -0.04,0.07 -0.08,0.14 -0.14,0.2 0.02,-0.07 0.05,-0.14 0.08,-0.21z"/>
    <path class="fil64" d="M0.66 1.8c0.07,-0.04 0.15,0.01 0.21,0.03 -0.05,0.01 -0.09,0.03 -0.13,0.07 0.01,-0.02 0.01,-0.04 0.02,-0.05 -0.03,-0.01 -0.07,-0.03 -0.1,-0.04z"/>
    <path class="fil65" d="M0.16 1.82c0.01,-0.01 0.01,-0.02 0.02,-0.03 0.02,0.01 0.03,0.02 0.05,0.02 0.03,0.01 0.07,0.01 0.11,-0 0.01,-0 0.02,-0 0.02,-0.01 0,0.01 0.01,0.03 0.01,0.04 -0.01,0 -0.02,0.01 -0.03,0.01 -0.03,-0.01 -0.06,-0.01 -0.09,-0.01 -0.03,-0.01 -0.06,-0.02 -0.09,-0.03z"/>
    <path class="fil66" d="M0.16 1.82c0.03,0.01 0.06,0.02 0.09,0.03 -0.03,0.03 -0.07,0.04 -0.11,0.03 -0,-0.01 -0.01,-0.02 -0.01,-0.03 0.01,-0.01 0.02,-0.02 0.03,-0.04z"/>
    <path class="fil67" d="M0.18 2.04c-0.03,-0.06 -0.05,-0.12 -0.05,-0.19 0,0.01 0.01,0.02 0.01,0.03 0.04,0 0.08,-0 0.11,-0.03 0.03,0.01 0.06,0.01 0.09,0.01 -0.05,0.03 -0.12,0.05 -0.18,0.04 0.01,0.05 0.01,0.09 0.02,0.14z"/>
    <path class="fil68" d="M0.82 1.9c0.06,-0.02 0.13,-0 0.19,0.02 0.05,0.02 0.11,0.05 0.15,0.09 -0.02,0.01 -0.05,0.01 -0.07,0.02 0,-0 0,-0.01 0.01,-0.02 -0.08,-0.05 -0.17,-0.09 -0.27,-0.1z"/>
    <path class="fil69" d="M0.76 1.96c0.02,-0.02 0.04,-0.03 0.06,-0.05 0.1,0.01 0.19,0.05 0.27,0.1 -0,0 -0,0.01 -0.01,0.02 -0.03,0 -0.05,0.01 -0.08,0.01 -0.07,-0.05 -0.15,-0.08 -0.24,-0.09z"/>
    <path class="fil70" d="M0.56 2.27c0.11,-0.1 0.24,-0.17 0.39,-0.21 0.05,0 0.11,0 0.16,0.01 -0,0.02 -0,0.03 -0.01,0.05 -0.01,0 -0.03,0 -0.04,0 -0.06,-0.01 -0.12,-0.01 -0.18,0 -0.11,0.04 -0.21,0.1 -0.32,0.15z"/>
    <path class="fil71" d="M1.1 2.06c0.02,0 0.04,0 0.06,0.01 0,0.02 0,0.03 0.01,0.05 -0.04,-0 -0.07,-0 -0.11,-0.01 0.01,-0 0.03,-0 0.04,-0 0,-0.02 0,-0.03 0.01,-0.05z"/>
    <path class="fil72" d="M0.06 2.08c0,0 0,0 0,0 -0,-0 -0,-0 -0,-0z"/>
    <path class="fil72" d="M0.11 2.23c0,0 0,0 0,0 -0,-0 -0,-0 -0,-0z"/>
    <path class="fil73" d="M0.19 2.36c0,0 0,0 0,0 -0,-0 -0,-0 -0,-0z"/>
    <path class="fil74" d="M0.44 2.52c0.07,0.01 0.12,-0.03 0.17,-0.06 0,0.01 0,0.02 0,0.03 0.01,0 0.02,0.01 0.04,0.01 -0.03,0.04 -0.05,0.08 -0.04,0.13 -0.04,-0.02 -0.08,-0.05 -0.12,-0.09 -0,0.02 -0,0.04 -0.01,0.06 -0.02,-0.02 -0.03,-0.04 -0.04,-0.05 0,-0 0,-0.01 0,-0.02z"/>
    <path class="fil75" d="M2.86 2.48c0,-0 0,-0 0,-0 -0,0 -0,0 -0,0z"/>
    <path class="fil75" d="M1.32 3.17c0,0 0,0 0.01,0 -0,-0 -0,-0 -0.01,-0z"/>
    <path class="fil76" d="M1.12 2.57c0.01,-0 0.02,-0.01 0.02,-0.01 -0.01,0.03 -0.01,0.07 -0.02,0.1 0,-0.03 0,-0.06 -0,-0.09z"/>
    <path class="fil77" d="M1.11 2.7c0,-0 0,-0 0,-0.01 -0,0 -0,0 -0,0.01z"/>
    <path class="fil78" d="M2.68 2.74c0,-0 0,-0 0,-0 -0,0 -0,0 -0,0z"/>
    <path class="fil78" d="M0.66 2.86c0,0 0,0 0,0 -0,-0 -0,-0 -0,-0z"/>
    <path class="fil79" d="M0.7 2.88c0,0 0,0 0,0 -0,-0 -0,-0 -0,-0z"/>
    <path class="fil0" d="M1.02 2.93c0,-0 0,-0 0,-0 -0,0 -0,0 -0,0z"/>
    <path class="fil80" d="M1.04 3.05c0,0 0,0 0,0 -0,-0 -0,-0 -0,-0z"/>
    <path class="fil81" d="M1.1 3.07c0,0 0,0 0.01,0 -0,-0 -0,-0 -0.01,-0z"/>
    <path class="fil73" d="M1.11 3.08c0,0 0,0 0.01,0 -0,-0 -0,-0 -0.01,-0z"/>
    <path class="fil82" d="M1.17 3.11c0,0 0,0 0,0 -0,-0 -0,-0 -0,-0z"/>
    <path class="fil17" d="M2.35 3.16c0,-0 0,-0 0,-0 -0,0 -0,0 -0,0z"/>
    <path class="fil83" d="M1.31 3.17c0,0 0,0 0.01,0 -0,-0 -0,-0 -0.01,-0z"/>
    <path class="fil84" d="M1.54 3.27c0,0 0,0 0,0 -0,-0 -0,-0 -0,-0z"/>
    <path class="fil85" d="M1.6 3.29c0,0 0,0 0,0 -0,-0 -0,-0 -0,-0z"/>
   </g>
   <path class="fil86 str0" d="M0.98 1.29c0.02,0.07 0,0.11 -0.05,0.13"/>
   <path class="fil87" d="M0.98 1.32c0.01,0.04 -0,0.07 -0.03,0.09 -0.01,0.01 -0.02,0.01 -0.03,0.01 0.02,0 0.05,0 0.07,0 0.01,-0.06 0.02,-0.11 0.02,-0.17 -0.01,0.01 -0.03,0.02 -0.04,0.04 0,0.01 0,0.02 0.01,0.03z"/>
   <path class="fil88" d="M0.98 1.29c-0.04,0.04 -0.08,0.08 -0.12,0.12 0.02,0.01 0.05,0.01 0.07,0.01 0.01,-0 0.02,-0.01 0.03,-0.01 0.03,-0.02 0.04,-0.05 0.03,-0.09 -0,-0.01 -0,-0.02 -0.01,-0.03z"/>
  </g>
 </g>
</svg>
