<?xml version="1.0" encoding="UTF-8"?>
<!DOCTYPE svg PUBLIC "-//W3C//DTD SVG 1.1//EN" "http://www.w3.org/Graphics/SVG/1.1/DTD/svg11.dtd">
<!-- Creator: CorelDRAW 2018 (64-Bit) -->
<svg xmlns="http://www.w3.org/2000/svg" xml:space="preserve" width="7.2707in" height="8.23831in" version="1.1" style="shape-rendering:geometricPrecision; text-rendering:geometricPrecision; image-rendering:optimizeQuality; fill-rule:evenodd; clip-rule:evenodd"
viewBox="0 0 620.66 703.25"
 xmlns:xlink="http://www.w3.org/1999/xlink">
 <defs>
  <style type="text/css">
   <![CDATA[
    .str0 {stroke:#2B2A29;stroke-width:0.59;stroke-miterlimit:2.61313}
    .fil17 {fill:none}
    .fil19 {fill:#C79933}
    .fil18 {fill:#FBEB58}
    .fil7 {fill:#104B7E;fill-rule:nonzero}
    .fil5 {fill:#104B80;fill-rule:nonzero}
    .fil15 {fill:#111B27;fill-rule:nonzero}
    .fil4 {fill:#114A81;fill-rule:nonzero}
    .fil13 {fill:#171B24;fill-rule:nonzero}
    .fil0 {fill:#1C355D;fill-rule:nonzero}
    .fil16 {fill:#1C3C56;fill-rule:nonzero}
    .fil6 {fill:#1F1814;fill-rule:nonzero}
    .fil14 {fill:#201713;fill-rule:nonzero}
    .fil3 {fill:#201813;fill-rule:nonzero}
    .fil2 {fill:#211813;fill-rule:nonzero}
    .fil9 {fill:#46A4DD;fill-rule:nonzero}
    .fil12 {fill:#64A6CC;fill-rule:nonzero}
    .fil1 {fill:#F9FCFD;fill-rule:nonzero}
    .fil11 {fill:#FDF9F7;fill-rule:nonzero}
    .fil10 {fill:#FDFBF9;fill-rule:nonzero}
    .fil8 {fill:#FDFBFF;fill-rule:nonzero}
   ]]>
  </style>
 </defs>
 <g id="Layer_x0020_1">
  <metadata id="CorelCorpID_0Corel-Layer"/>
  <g id="_1011808016">
   <g>
    <g>
     <path class="fil0" d="M319.57 57.37c10.13,-8.38 21.99,-14.2 33.24,-20.91 0.66,13.1 -8.85,24.87 -6.6,38.23 -1.26,4.44 -4.58,8.28 -6.04,12.75 -6.37,-0.72 -12.75,-1.47 -19.12,-2.08 1.08,-8.26 7.96,-13.83 10.44,-21.55 -5.89,1.62 -9.97,6.34 -14.25,10.34 -6.44,6.32 -13.8,12.63 -15.95,21.81 8.03,3.93 17.13,3.86 25.71,5.8 38.93,5.75 77.51,14.3 115.08,25.99 -1.26,0.38 -3.75,1.19 -4.99,1.57 2.72,4.94 5.89,9.66 8.1,14.86 -0.52,0.52 -1.54,1.57 -2.06,2.11 -5.08,-1.08 -9.76,-3.37 -14.62,-5.13 -13.36,-4.98 -27.23,-8.63 -41.23,-11.3 -4.35,-1.01 -8.8,-0.14 -12.31,2.62 3.32,1.47 6.67,3 9.33,5.54 -7.3,1.13 -14.72,0.93 -22.04,0.09 4.87,-0.82 9.76,-1.61 14.69,-2.15 -12.71,-1.97 -25.67,-4.14 -38.54,-2.39 -22.04,3.21 -44.1,10.11 -62.1,23.59 -11.81,8.87 -19.61,24.36 -15.84,39.19 0.79,7 6.22,12.05 8.92,18.28 -0.16,0.33 -0.49,1 -0.65,1.33 -15.81,4.98 -33.15,5.13 -47.92,13.31 -12.87,6.1 -23.94,16.78 -28.78,30.35 -4.24,14.64 1.15,30 8.58,42.67 4.12,9.08 11.65,15.84 17.15,24.01 -5.68,0.63 -10.71,-2.39 -15.74,-4.51 -8.52,-3.89 -17.66,-6.88 -24.87,-13.1 -9.8,-8.3 -15.56,-20.1 -23.07,-30.27 1.33,16.7 8.09,33.86 22.41,43.54 5.55,5.38 14.18,5.33 19.33,11.19 -3.23,-1.26 -6.46,-2.5 -9.68,-3.77 0.94,19.51 5.8,38.93 15.79,55.83 18.79,35.68 54.59,59.87 69.18,98.05 1.47,-19.49 -5.83,-38.09 -10.92,-56.57 8.23,12.96 20.12,22.9 31.3,33.2 23.93,21.04 47.78,44.55 58.09,75.53 0.02,2.39 0.03,4.77 0.07,7.16 6.23,-6.36 12.54,-13.66 13.24,-22.97 6.69,-45.48 -17.41,-87.71 -18.43,-132.64 -0.02,-8.28 1.03,-16.66 3.63,-24.52 2.36,-5.13 6.1,-9.47 9.68,-13.78 6.99,-1.34 12.68,-5.8 18.74,-9.24 -0.93,-0.12 -2.78,-0.37 -3.72,-0.49 4.61,-1.38 9.19,-2.9 13.88,-3.95 0.26,0.02 0.79,0.04 1.05,0.05 0.72,0.89 1.4,1.83 2.1,2.78l0.47 0.66c-4.09,3.56 -6.08,8.66 -6.79,13.92 -3.95,14.37 4.51,28.28 13.2,39.03 12.96,13.85 26.93,26.72 40.36,40.1 19.32,20.64 36.52,45.34 40.05,74.09 0.63,10.46 0.3,20.98 0.14,31.45 0.09,5.27 -2.2,10.11 -4.49,14.72 -3.7,-2.3 -4.8,-6.67 -6.5,-10.39 -3.27,-7.63 -7.39,-15.09 -13.55,-20.77 -1.99,-2.38 -5.41,-4.38 -5.29,-7.86 0.26,-15.75 1.9,-31.89 -2.13,-47.33 -6.13,16.85 -7.35,34.98 -13.34,51.89 -7.56,21.57 -21.71,40.36 -38.56,55.59 -24.61,22.27 -52.85,40.1 -81.68,56.34 -7.26,-4.52 -4.82,-13.95 -6.62,-21.03 -4.37,-15.25 -9.08,-30.49 -16.43,-44.6 -3.2,-4.82 -6.93,-9.27 -9.29,-14.6 -9.47,-15.82 -20.59,-30.58 -31.87,-45.13 -14.29,-14.99 -25.9,-32.19 -39.4,-47.84 -14.13,-17.71 -26.51,-36.94 -36.06,-57.51 -3.82,-10.55 -5.78,-21.64 -8.68,-32.45 -1.87,-6.43 -2.29,-13.13 -2.62,-19.79 -2.1,9.08 -1.34,18.44 -1.33,27.68 0.82,18.77 7.18,36.75 13.94,54.11 16.82,36.8 41.86,68.97 61.49,104.19 3.61,5.97 7.11,12.09 9.24,18.77 -17.38,-10.08 -31.96,-24.08 -48.15,-35.84 -20.59,-16.47 -41.51,-32.92 -58.77,-53.02 -12,-12.7 -20.71,-28.22 -26.81,-44.52 -3.23,-8.35 -3.02,-17.43 -5.03,-26.04 -0.68,11.18 -0.7,22.46 0.14,33.64 2.53,14.22 9.01,27.24 13.94,40.71 -8.78,-7.2 -12.12,-18.48 -16.94,-28.31 -3.91,-10.01 -10.55,-19.04 -11.91,-29.9 -1.08,-8.3 -4.98,-16.05 -4.86,-24.5 -0.03,-14.5 -2.86,-28.96 -1.14,-43.45 1.87,-10.01 4.26,-19.91 6.2,-29.92 -0.56,-1.26 -1.69,-3.81 -2.25,-5.07 -3,6.41 -3.69,13.73 -7.67,19.72 1.15,-12.63 5.96,-24.5 10.16,-36.36 3.51,-10.18 9.19,-19.56 11.49,-30.16 -10.29,8.42 -19.21,18.41 -25.78,29.99 -0.07,-8.17 5.66,-14.37 8.44,-21.62 3.37,-9.45 10.01,-17.15 14.25,-26.18 4.45,-5.82 8.52,-11.88 12.07,-18.27 7.39,-6.32 12.7,-14.6 20.1,-20.91 10.13,-9.13 19.96,-18.58 30.14,-27.65 7.7,-5.99 16.49,-10.37 24.54,-15.86 1.78,-0.77 2.17,-2.72 2.86,-4.3 6.67,-3.58 13.62,-6.64 20.56,-9.71 -27.42,-1.05 -53.84,9.24 -77.32,22.62 3.95,-8.96 12.99,-13.41 20.17,-19.35 9.41,-7.81 19.56,-14.79 30.51,-20.28 16.36,-8.82 33.04,-18.97 52.1,-19.96 3.75,-0.28 2.34,-4.89 2.01,-7.25 7.41,-2.01 15.16,-1.71 22.7,-0.86 -2.71,11.11 -7.72,21.87 -6.39,33.62 8.31,-14.34 16.98,-28.76 28.83,-40.5 4.61,-4.7 8.75,-9.87 13.34,-14.6 7.16,-7.51 16.03,-13.03 23.98,-19.67z"/>
    </g>
    <g>
     <g>
      <path class="fil1" d="M357.59 9.19c11.28,-3.89 22.95,-6.46 34.56,-9.19 -12.75,27.42 -26.21,54.51 -40.03,81.39 47.17,7.82 93.4,20.33 139.39,33.2 -0.16,10.53 -1.96,21.59 2.37,31.61 7.95,20.31 26.72,33.62 45.2,43.66 20.92,11.96 45.16,18.04 63.92,33.71 9.55,8 18.34,19.16 17.6,32.33 0.33,12.66 -8.24,23.16 -17.71,30.53 -12.38,8.85 -27.3,13.43 -42.23,15.61 -21.05,24.68 -48.29,43.24 -77.33,57.25 -9.36,4.3 -18.44,9.27 -27.98,13.12 8.87,-8.49 17.64,-17.12 25.73,-26.37 3.61,-4 7.41,-7.82 11.14,-11.7 -15.54,2.97 -31.33,4.59 -47.12,5.48 -0.77,0.07 -2.32,0.19 -3.11,0.26 -10.29,0.72 -20.61,0.94 -30.93,1.14 -7.06,-0.31 -14.04,0.77 -21.06,0.94 2.97,21.83 19.05,38.56 35.37,51.96 19.66,16.4 41.98,30.32 57.35,51.26 16.61,21.31 25.17,48.74 23.42,75.71 -2.32,38.77 -19.07,74.68 -36.75,108.61 -3.89,6.41 -6.34,13.95 -11.26,19.58 -2.55,-31.51 -2.27,-63.68 -11.51,-94.22 -2.41,1.29 -2.88,4.19 -3.98,6.46 -11.96,28.17 -32.54,51.85 -55.94,71.2 -30.44,25.25 -65.55,43.98 -100.63,61.88 -6.04,2.81 -11.67,6.51 -18.01,8.66 0.51,-18.23 -0.35,-36.89 -6.83,-54.14 -8.54,-24.01 -25.78,-43.47 -43.03,-61.67 -26.53,-27.51 -55.98,-52.18 -80.74,-81.39 -4.45,28.78 1.07,57.62 3.2,86.29 -32.01,-21.6 -56.55,-53.27 -70.92,-89 -15.54,-38.54 -22.49,-80.22 -23.37,-121.62 1.29,-11.56 0.37,-23.33 2.97,-34.74 -17.76,10.76 -33.51,24.35 -49.34,37.69 -0.16,-45.76 11.81,-91.76 35.68,-130.92 11.61,-19.89 26.83,-37.3 42.07,-54.39 -18.98,4.7 -37.93,9.57 -56.94,14.15 13.4,-19.6 28.35,-38.14 45.04,-55.05 33.39,-33.64 74.71,-60.1 120.59,-72.88 25.8,-7.46 52.73,-10.92 79.57,-10.53 22.15,-31.35 55.28,-54.02 91.57,-65.88zm-87.45 73.67l0 0c-34.41,-0.61 -69.06,5.1 -101.02,17.99 -45.9,17.92 -85.82,49.09 -117.61,86.43 -3.46,4.58 -7.65,8.61 -10.37,13.71 20.12,-5.89 40.64,-10.41 61.3,-13.99 -1.97,2.88 -4.89,4.89 -7.48,7.18 -14.97,13.5 -28.19,28.85 -39.96,45.22 -26.34,37.74 -46.07,82.01 -47.15,128.65 15.93,-13.9 33.2,-26.51 52.22,-35.85 -4.52,18.43 -5.97,37.5 -5.64,56.43 1.38,46.68 12.49,93.4 34.02,134.95 10.48,20.43 24.45,39.35 42.84,53.32 -2.29,-28.96 -7.49,-59.15 3.07,-87.22 32.78,43.63 78.5,75.24 111.98,118.24 18.28,23.47 31,52.38 29.97,82.61 19.89,-9.41 39.23,-20.05 58.25,-31.12 27.44,-16.43 53.91,-35.31 74.96,-59.61 15.46,-18.55 28.22,-40.1 33.34,-63.89 0.54,0.05 1.61,0.16 2.15,0.21 17.19,25.57 16.56,57.86 18.56,87.41 3.93,-5.55 6.65,-11.81 9.71,-17.85 13.24,-28.05 24.47,-58.02 24.94,-89.4 0.51,-22.11 -5.8,-44.47 -18.86,-62.42 -19.84,-28.68 -51.35,-45.58 -75.88,-69.54 -9.08,-8.8 -17.01,-19.37 -20.01,-31.86 0.72,-5.26 2.71,-10.36 6.79,-13.92l-0.47 -0.66c2.46,-1.54 4.65,-4.19 7.82,-4.03 32.33,-1.34 64.92,-1.73 96.79,-7.88 5.71,-0.89 11.14,-3.18 16.94,-3.48 -5.68,9.87 -13.94,17.81 -22.02,25.67 21.97,-11.61 41.67,-27.21 59.31,-44.64 3.28,-2.92 5.5,-7.18 9.45,-9.24 16.68,-1.41 33.64,-7.35 45.83,-19.12 8.26,-7.81 11.93,-20.91 6.15,-31.23 -7.32,-13.76 -21.48,-22.15 -35.12,-28.62 -23.6,-10.34 -47.91,-20.49 -67.54,-37.58 -12.54,-10.76 -22.22,-25.62 -24.08,-42.3 -0.93,-5.27 0.24,-10.67 -0.87,-15.91 -1.5,-0.24 -4.52,-0.73 -6.02,-0.96 -44.94,-12.33 -90.07,-24.57 -136.26,-31.09 1.47,-4.47 4.79,-8.31 6.04,-12.75 10.64,-18.18 19.04,-37.57 28.52,-56.36 1.22,-2.55 2.74,-5.05 3.11,-7.91 -42.65,10.81 -82.36,36.15 -107.69,72.43z"/>
     </g>
    </g>
    <g>
     <path class="fil2" d="M270.15 82.85c25.32,-36.27 65.04,-61.62 107.69,-72.43 -0.37,2.86 -1.89,5.36 -3.11,7.91 -9.48,18.79 -17.88,38.18 -28.52,56.36 -2.25,-13.36 7.26,-25.13 6.6,-38.23 -11.25,6.71 -23.11,12.52 -33.24,20.91 -7.95,6.64 -16.82,12.16 -23.98,19.67 -4.59,4.73 -8.73,9.9 -13.34,14.6 -11.86,11.74 -20.52,26.16 -28.83,40.5 -1.33,-11.75 3.68,-22.51 6.39,-33.62 -7.54,-0.86 -15.3,-1.15 -22.7,0.86 -8.56,2.41 -17.57,2.24 -26.13,4.58 -15.72,4.33 -31.17,9.69 -45.83,16.89 -25.13,13.48 -48.41,30.44 -68.78,50.4 9.17,0.63 18.18,-1.55 27.33,-1.75 3.27,0.26 5.97,-1.66 8.61,-3.28 23.47,-13.38 49.9,-23.66 77.32,-22.62 -6.93,3.07 -13.88,6.13 -20.56,9.71 -17.74,8.31 -34.79,18.25 -50.11,30.51 -16.17,11 -29.72,25.2 -43,39.42 -11.16,13.66 -22.15,27.7 -29.88,43.63 -11.58,16.68 -17.34,36.38 -24.12,55.28 8.33,-1.5 15.51,-6.27 22.9,-10.09 3.61,-1.52 3.48,-5.94 4.66,-9.08 1.12,-5.5 4.42,-10.09 7.14,-14.88 6.57,-11.58 15.49,-21.57 25.78,-29.99 -2.31,10.6 -7.98,19.98 -11.49,30.16 -4.21,11.86 -9.01,23.73 -10.16,36.36 -7.46,30.76 -6.64,63 -2.83,94.22 2.04,11.51 4.3,23.23 9.41,33.85 5.76,16.14 12.54,31.91 20.33,47.17 1.45,2.71 3.51,5.01 5.43,7.39 1.08,-9.97 4.14,-19.56 8.59,-28.5 2.62,-4.4 0.02,-8.94 -2.37,-12.7 -4.93,-13.47 -11.4,-26.49 -13.94,-40.71 -0.84,-11.18 -0.82,-22.46 -0.14,-33.64 2.01,8.61 1.8,17.69 5.03,26.04 6.1,16.29 14.81,31.82 26.81,44.52 17.25,20.1 38.18,36.55 58.77,53.02 16.19,11.75 30.77,25.76 48.15,35.84 -2.13,-6.69 -5.62,-12.8 -9.24,-18.77 -19.63,-35.23 -44.68,-67.4 -61.49,-104.19 -6.76,-17.36 -13.12,-35.33 -13.94,-54.11 -0.02,-9.24 -0.77,-18.6 1.33,-27.68 0.33,6.65 0.75,13.36 2.62,19.79 2.9,10.81 4.86,21.9 8.68,32.45 9.55,20.57 21.94,39.8 36.06,57.51 13.5,15.65 25.11,32.85 39.4,47.84 11.28,14.55 22.41,29.31 31.87,45.13 2.36,5.33 6.1,9.78 9.29,14.6 7.35,14.11 12.07,29.36 16.43,44.6 1.8,7.07 -0.65,16.5 6.62,21.03 28.83,-16.24 57.07,-34.07 81.68,-56.34 16.85,-15.23 31,-34.02 38.56,-55.59 5.99,-16.91 7.21,-35.03 13.34,-51.89 4.03,15.44 2.39,31.58 2.13,47.33 -0.12,3.48 3.3,5.48 5.29,7.86 6.17,5.68 10.29,13.13 13.55,20.77 1.69,3.72 2.79,8.09 6.5,10.39 2.29,-4.61 4.58,-9.45 4.49,-14.72 0.16,-10.48 0.49,-20.99 -0.14,-31.45 -3.53,-28.75 -20.73,-53.44 -40.05,-74.09 -13.43,-13.38 -27.4,-26.25 -40.36,-40.1 -8.7,-10.76 -17.15,-24.66 -13.2,-39.03 3,12.49 10.93,23.05 20.01,31.86 24.54,23.96 56.04,40.87 75.88,69.54 13.06,17.95 19.37,40.31 18.86,62.42 -0.47,31.38 -11.7,61.35 -24.94,89.4 -3.06,6.04 -5.78,12.29 -9.71,17.85 -2.01,-29.55 -1.38,-61.84 -18.56,-87.41 -0.54,-0.05 -1.61,-0.16 -2.15,-0.21 -5.12,23.79 -17.88,45.34 -33.34,63.89 -21.05,24.29 -47.52,43.17 -74.96,59.61 -19.02,11.07 -38.35,21.71 -58.25,31.12 1.03,-30.23 -11.68,-59.14 -29.97,-82.61 -33.48,-43 -79.2,-74.61 -111.98,-118.24 -10.57,28.07 -5.36,58.26 -3.07,87.22 -18.39,-13.97 -32.36,-32.89 -42.84,-53.32 -21.53,-41.55 -32.64,-88.27 -34.02,-134.95 -0.33,-18.93 1.12,-38 5.64,-56.43 -19.02,9.34 -36.29,21.95 -52.22,35.85 1.08,-46.63 20.82,-90.9 47.15,-128.65 11.77,-16.36 24.99,-31.72 39.96,-45.22 2.58,-2.29 5.5,-4.3 7.48,-7.18 -20.66,3.58 -41.18,8.1 -61.3,13.99 2.72,-5.1 6.92,-9.13 10.37,-13.71 31.79,-37.34 71.71,-68.51 117.61,-86.43 31.96,-12.89 66.61,-18.6 101.02,-17.99z"/>
    </g>
    <g>
     <g>
      <path class="fil3" d="M317.23 74.15c4.28,-4 8.37,-8.71 14.25,-10.34 -2.48,7.72 -9.36,13.29 -10.44,21.55 6.38,0.61 12.75,1.36 19.12,2.08 46.19,6.51 91.32,18.76 136.26,31.09 1.5,0.23 4.52,0.72 6.02,0.96 1.12,5.24 -0.05,10.64 0.87,15.91 1.87,16.68 11.54,31.54 24.08,42.3 19.63,17.1 43.94,27.24 67.54,37.58 13.64,6.48 27.8,14.86 35.12,28.62 5.78,10.32 2.11,23.42 -6.15,31.23 -12.19,11.77 -29.15,17.71 -45.83,19.12 -3.95,2.06 -6.17,6.32 -9.45,9.24 -17.64,17.43 -37.34,33.03 -59.31,44.64 8.09,-7.86 16.35,-15.81 22.02,-25.67 -5.8,0.3 -11.23,2.59 -16.94,3.48 -31.87,6.15 -64.46,6.53 -96.79,7.88 -3.18,-0.16 -5.36,2.5 -7.82,4.03 -0.7,-0.94 -1.38,-1.89 -2.1,-2.78 -0.26,-0.02 -0.79,-0.04 -1.05,-0.05 -15.86,-0.7 -31.65,1.5 -47.33,3.56 -18.48,2.64 -37.39,7.21 -52.99,17.94 -2.9,-1.1 -5.8,-2.22 -8.68,-3.32 15.44,-18.09 39.59,-25.24 62.28,-28.89 33.45,-5.78 67.54,-5.5 101.3,-8.23 23.05,-1.61 46.33,-3.72 68.51,-10.65 5.43,-1.89 10.72,-4.14 16.01,-6.44 -8.54,-0.82 -17.06,-1.96 -25.64,-2.04 -33.69,-3.18 -66.89,-10.39 -100.7,-12.16 -20.63,-0.73 -41.97,-0.35 -61.37,7.46 -3.72,4.17 -3.41,10.34 -6.48,14.93 -5.31,-12.64 -2.81,-27.14 3.74,-38.82 6.79,-13.45 17.45,-24.35 28.69,-34.14 -9.99,-1.92 -20.19,-1.45 -30.28,-1.94 14.9,-7.67 31.31,-13.47 48.33,-12.59 22.27,-0.65 43.12,8.52 62.91,17.66 -5.45,-6.22 -11.02,-12.35 -16.15,-18.83 33.85,16.87 62.05,44.41 98.68,55.8 17.67,6.04 38.33,5.4 54.19,-5.19 0.94,-0.58 1.9,-1.15 2.86,-1.75 -12.54,-7.53 -27.82,-11.16 -37.72,-22.53 -2.11,-1.97 -1.54,-5.1 -2.04,-7.68 8.3,-5.12 18.58,-3.41 27.8,-5.17 -8.84,-5.8 -19.28,-8.17 -28.59,-13.05 -19.02,-8.87 -37.83,-18.74 -54.05,-32.21 -7.28,-5.83 -13.03,-13.34 -17.95,-21.2 -12.33,3.89 -16.98,19.49 -30.48,21.34 -16.47,0.58 -31.3,-8.31 -44.22,-17.59 -7.35,-4.84 -11.72,-14.51 -21.12,-15.75 -5.73,-1 -11.54,-1.27 -17.33,-1.59 10.57,-8.17 24.57,-7.98 37.2,-6.58 18.88,2.46 36.17,13.8 55.61,12.14 3.84,0.12 6.93,-2.81 8.16,-6.27 -1.08,-4.1 -2.86,-8 -4.45,-11.93 2.86,0.26 5.75,0.52 8.63,0.8 -0.93,-1.83 -1.83,-3.65 -2.72,-5.47 -6.39,-2.32 -12.92,-4.24 -19.18,-6.9 -37.57,-11.68 -76.15,-20.24 -115.08,-25.99 -8.58,-1.94 -17.67,-1.87 -25.71,-5.8 2.15,-9.19 9.5,-15.49 15.95,-21.81zm81.93 85.72l0 0c12.19,9.57 28.15,18.36 44.1,13.69 -15.11,-3.18 -29.66,-8.33 -44.1,-13.69zm-31.09 91.13l0 0c8.87,0.49 17.69,1.61 26.53,2.64 3.39,-3.25 6.55,-6.72 9.64,-10.27 -0.17,3.84 -0.45,7.68 -0.75,11.54 20.57,3.41 41.44,7.49 60.46,16.29 -12.54,-3.56 -25.46,-5.71 -38.35,-7.51 -4.17,-1.19 -6.62,5.95 -10.51,3.44 -0.19,-1 -0.58,-3 -0.79,-4l0.42 -0.63c-19.18,-1.22 -38.41,-1.64 -57.56,-0.17 -2.64,3.23 -5.33,6.39 -8.14,9.48 20.21,-3.79 40.87,-4.02 61.3,-2.44 20.28,1.85 40.38,5.08 60.5,8.09 7.11,0.79 14.13,2.62 21.33,2.03 -7.02,-2.13 -13.57,-5.48 -20.12,-8.73 -26.65,-13.17 -53.55,-26.48 -82.77,-32.96 -7.74,3.25 -14.46,8.28 -21.19,13.2z"/>
     </g>
    </g>
    <g>
     <path class="fil4" d="M210.98 103.95c8.56,-2.34 17.57,-2.17 26.13,-4.58 0.33,2.36 1.75,6.97 -2.01,7.25 -19.05,1 -35.73,11.14 -52.1,19.96 -10.95,5.48 -21.1,12.47 -30.51,20.28 -7.18,5.94 -16.22,10.39 -20.17,19.35 -2.64,1.62 -5.34,3.55 -8.61,3.28 -9.15,0.19 -18.16,2.38 -27.33,1.75 20.36,-19.96 43.64,-36.92 68.78,-50.4 14.65,-7.2 30.11,-12.56 45.83,-16.89z"/>
    </g>
    <g>
     <path class="fil5" d="M437.07 129.33c1.24,-0.38 3.74,-1.19 4.99,-1.57 6.25,2.65 12.78,4.58 19.18,6.9 0.89,1.82 1.8,3.63 2.72,5.47 -2.88,-0.28 -5.76,-0.54 -8.63,-0.8 1.59,3.93 3.37,7.82 4.45,11.93 -1.22,3.46 -4.31,6.39 -8.16,6.27 -19.44,1.66 -36.73,-9.68 -55.61,-12.14 -12.63,-1.4 -26.63,-1.59 -37.2,6.58 5.78,0.31 11.6,0.59 17.33,1.59 9.4,1.24 13.76,10.92 21.12,15.75 12.92,9.27 27.75,18.16 44.22,17.59 13.5,-1.85 18.15,-17.45 30.48,-21.34 4.92,7.86 10.67,15.37 17.95,21.2 16.22,13.47 35.03,23.33 54.05,32.21 9.31,4.87 19.75,7.25 28.59,13.05 -9.22,1.76 -19.51,0.05 -27.8,5.17 0.51,2.58 -0.07,5.71 2.04,7.68 9.9,11.37 25.18,15 37.72,22.53 -0.96,0.59 -1.92,1.17 -2.86,1.75 -17.29,2.74 -35.33,2.64 -51.82,-3.89 -32.01,-13.08 -56.38,-39.03 -87.38,-53.95 -11.4,-5.41 -23.52,-9.83 -36.17,-11.02 4,5.22 7.81,10.58 10.88,16.4 -18.84,-7.35 -39.77,-10.39 -59.66,-5.75 -10.67,1.83 -20.17,7.07 -29.64,12.02 3.37,-6.46 7.11,-12.7 10.39,-19.19 -13.01,5.31 -26.93,10.53 -41.2,7.72 -4.65,-1.31 -9.15,-3.09 -13.88,-4.03 -6.64,-6.76 -8.8,-16.8 -6.67,-25.88 2.55,-5.2 5.48,-10.39 9.41,-14.67 21.05,-18.36 49.01,-26.25 76.3,-28.76 7.32,0.84 14.74,1.05 22.04,-0.09 -2.65,-2.53 -6.01,-4.07 -9.33,-5.54 3.51,-2.76 7.96,-3.63 12.31,-2.62 14.01,2.67 27.87,6.32 41.23,11.3 4.86,1.76 9.54,4.05 14.62,5.13 0.52,-0.54 1.54,-1.59 2.06,-2.11 -2.22,-5.2 -5.38,-9.92 -8.1,-14.86z"/>
     <path class="fil5" d="M80.79 324.62c3.98,-5.99 4.66,-13.31 7.67,-19.72 0.56,1.26 1.69,3.81 2.25,5.07 -1.94,10.01 -4.33,19.91 -6.2,29.92 -1.73,14.5 1.1,28.96 1.14,43.45 -0.12,8.45 3.77,16.21 4.86,24.5 1.36,10.86 8,19.89 11.91,29.9 4.82,9.83 8.16,21.11 16.94,28.31 2.39,3.75 4.99,8.3 2.37,12.7 -4.45,8.94 -7.51,18.53 -8.59,28.5 -1.92,-2.37 -3.98,-4.68 -5.43,-7.39 -7.79,-15.26 -14.57,-31.04 -20.33,-47.17 -0.47,-14.65 -5.12,-28.75 -8.45,-42.91 -0.37,3 -0.73,6.03 -0.96,9.06 -3.81,-31.23 -4.63,-63.47 2.83,-94.22z"/>
    </g>
    <g>
     <path class="fil6" d="M276.28 157.16c18.01,-13.48 40.06,-20.38 62.1,-23.59 12.87,-1.75 25.83,0.42 38.54,2.39 -4.92,0.54 -9.82,1.33 -14.69,2.15 -27.3,2.51 -55.26,10.41 -76.3,28.76 -3.93,4.28 -6.86,9.47 -9.41,14.67 -2.13,9.08 0.03,19.12 6.67,25.88 8.84,8.49 19.21,15.02 28.73,22.67 -19.84,0.37 -39.73,1.62 -59.24,5.4 -14.79,3.18 -30.69,7.72 -40.95,19.56 -9.01,10.58 -6.13,26.27 0.54,37.32 12.85,21.52 32.35,37.93 51.14,54.09 -23.05,-0.3 -46.37,-4.05 -67.61,-13.29 -5.15,-5.87 -13.78,-5.82 -19.33,-11.19 -14.32,-9.68 -21.08,-26.84 -22.41,-43.54 7.51,10.16 13.27,21.97 23.07,30.27 7.21,6.22 16.35,9.2 24.87,13.1 5.03,2.11 10.06,5.13 15.74,4.51 -5.5,-8.17 -13.03,-14.93 -17.15,-24.01 -7.42,-12.66 -12.82,-28.03 -8.58,-42.67 4.84,-13.57 15.91,-24.26 28.78,-30.35 14.77,-8.17 32.12,-8.33 47.92,-13.31 0.16,-0.33 0.49,-1 0.65,-1.33 -2.71,-6.23 -8.14,-11.28 -8.92,-18.28 -3.77,-14.83 4.03,-30.32 15.84,-39.19z"/>
    </g>
    <g>
     <path class="fil7" d="M138.97 183.82c15.32,-12.26 32.36,-22.2 50.11,-30.51 -0.7,1.57 -1.08,3.53 -2.86,4.3 -8.05,5.48 -16.84,9.87 -24.54,15.86 -10.18,9.06 -20.02,18.51 -30.14,27.65 -7.41,6.3 -12.71,14.58 -20.1,20.91 -3.54,6.39 -7.61,12.45 -12.07,18.27 -4.24,9.03 -10.88,16.73 -14.25,26.18 -2.78,7.25 -8.51,13.45 -8.44,21.62 -2.72,4.79 -6.03,9.38 -7.14,14.88 -1.19,3.14 -1.05,7.56 -4.66,9.08 -7.39,3.82 -14.57,8.59 -22.9,10.09 6.78,-18.9 12.54,-38.6 24.12,-55.28 7.74,-15.93 18.72,-29.97 29.88,-43.63 13.27,-14.22 26.83,-28.42 43,-39.42z"/>
    </g>
    <g>
     <path class="fil8" d="M399.16 159.88c14.44,5.36 28.99,10.51 44.1,13.68 -15.95,4.66 -31.91,-4.12 -44.1,-13.68z"/>
    </g>
    <g>
     <path class="fil9" d="M406.3 200.27c12.64,1.19 24.76,5.61 36.17,11.02 31,14.91 55.36,40.87 87.38,53.95 16.49,6.53 34.53,6.64 51.82,3.89 -15.86,10.58 -36.52,11.23 -54.19,5.19 -36.62,-11.39 -64.83,-38.93 -98.68,-55.8 5.13,6.48 10.71,12.61 16.15,18.83 -19.79,-9.13 -40.64,-18.3 -62.91,-17.66 -17.01,-0.87 -33.43,4.92 -48.33,12.59 10.09,0.49 20.29,0.02 30.28,1.94 -11.25,9.8 -21.9,20.7 -28.69,34.14 -6.55,11.68 -9.05,26.18 -3.74,38.82 3.07,-4.59 2.76,-10.76 6.48,-14.93 19.4,-7.81 40.75,-8.19 61.37,-7.46 33.81,1.76 67.01,8.98 100.7,12.16 4.23,1.54 9.29,3.21 9.62,8.49 -22.18,6.93 -45.46,9.05 -68.51,10.65 -33.76,2.72 -67.85,2.44 -101.3,8.23 -22.69,3.65 -46.84,10.79 -62.28,28.89 -5.89,6.58 -8.89,15.09 -10.43,23.65 4.79,-8.07 11.32,-15.07 19.11,-20.33 15.6,-10.72 34.51,-15.3 52.99,-17.94 6.03,0.37 12.42,0.4 17.73,3.72 -1.05,0.33 -3.11,1 -4.14,1.31 -14.98,4.37 -27.7,16.47 -30.74,32.07 -3.77,23.66 2.93,47.22 9.73,69.7 8.14,29.43 20.87,58.87 17.66,90.07 -10.3,-30.98 -34.16,-54.49 -58.09,-75.53 -11.18,-10.3 -23.07,-20.24 -31.3,-33.2 5.08,18.48 12.38,37.08 10.92,56.57 -14.58,-38.18 -50.39,-62.37 -69.18,-98.05 -9.99,-16.91 -14.85,-36.33 -15.79,-55.83 3.21,1.28 6.44,2.52 9.68,3.77 21.24,9.24 44.55,12.99 67.61,13.29 -18.79,-16.15 -38.28,-32.57 -51.14,-54.09 -6.67,-11.06 -9.55,-26.74 -0.54,-37.32 10.27,-11.84 26.16,-16.38 40.95,-19.56 19.51,-3.77 39.4,-5.03 59.24,-5.4 -9.52,-7.65 -19.89,-14.18 -28.73,-22.67 4.73,0.94 9.24,2.72 13.88,4.03 14.27,2.81 28.19,-2.41 41.2,-7.72 -3.28,6.5 -7.02,12.73 -10.39,19.19 9.47,-4.94 18.97,-10.18 29.64,-12.02 19.89,-4.65 40.81,-1.61 59.66,5.75 -3.07,-5.82 -6.88,-11.18 -10.88,-16.4z"/>
    </g>
    <g>
     <path class="fil10" d="M368.07 251c6.72,-4.93 13.45,-9.96 21.19,-13.2 29.22,6.48 56.11,19.79 82.77,32.96 6.55,3.25 13.1,6.6 20.12,8.73 -7.2,0.59 -14.22,-1.24 -21.33,-2.03 -20.12,-3 -40.22,-6.24 -60.5,-8.09 1.33,-2.08 2.65,-4.16 3.98,-6.23 0.21,1 0.59,3 0.79,4 3.89,2.51 6.34,-4.63 10.51,-3.44 12.89,1.8 25.81,3.95 38.35,7.51 -19.02,-8.8 -39.89,-12.89 -60.46,-16.29 0.3,-3.86 0.58,-7.7 0.75,-11.54 -3.09,3.55 -6.25,7.02 -9.64,10.27 -8.84,-1.03 -17.66,-2.15 -26.53,-2.64z"/>
    </g>
    <g>
     <path class="fil11" d="M357.16 262.34c19.16,-1.47 38.39,-1.05 57.56,0.17l-0.42 0.63c-1.33,2.08 -2.66,4.16 -3.98,6.23 -20.43,-1.57 -41.09,-1.34 -61.3,2.44 2.81,-3.09 5.5,-6.25 8.14,-9.48z"/>
    </g>
    <g>
     <path class="fil12" d="M500.12 296.95c8.58,0.09 17.1,1.22 25.64,2.04 -5.29,2.31 -10.58,4.56 -16.01,6.44 -0.33,-5.27 -5.4,-6.95 -9.62,-8.49z"/>
     <path class="fil12" d="M339.32 338.59c15.68,-2.06 31.47,-4.26 47.33,-3.56 -4.7,1.05 -9.27,2.57 -13.88,3.95 -5.24,1.08 -10.51,2.08 -15.72,3.34 -5.31,-3.32 -11.7,-3.35 -17.73,-3.72z"/>
    </g>
    <g>
     <path class="fil13" d="M357.05 342.31c5.2,-1.26 10.48,-2.25 15.72,-3.34 0.94,0.12 2.79,0.37 3.72,0.49 -6.06,3.44 -11.75,7.89 -18.74,9.24 0.14,-0.68 0.42,-2.06 0.56,-2.74 -1.34,-0.58 -4.05,-1.75 -5.4,-2.34 1.03,-0.31 3.09,-0.98 4.14,-1.31z"/>
    </g>
    <g>
     <path class="fil14" d="M322.17 375.68c3.04,-15.6 15.75,-27.7 30.74,-32.07 1.34,0.59 4.05,1.76 5.4,2.34 -0.14,0.68 -0.42,2.06 -0.56,2.74 -3.58,4.31 -7.32,8.64 -9.68,13.78 -2.6,7.86 -3.65,16.24 -3.63,24.52 1.01,44.94 25.11,87.17 18.43,132.64 -0.7,9.31 -7,16.61 -13.24,22.97 -0.03,-2.39 -0.05,-4.77 -0.07,-7.16 3.21,-31.19 -9.52,-60.64 -17.66,-90.07 -6.79,-22.48 -13.5,-46.04 -9.73,-69.7z"/>
    </g>
    <g>
     <path class="fil15" d="M267.23 376.85c1.54,-8.56 4.54,-17.06 10.43,-23.65 2.88,1.1 5.78,2.22 8.68,3.32 -7.79,5.26 -14.32,12.26 -19.11,20.33z"/>
    </g>
    <g>
     <path class="fil16" d="M78.92 409.78c3.34,14.16 7.98,28.26 8.45,42.91 -5.12,-10.62 -7.37,-22.34 -9.41,-33.85 0.23,-3.04 0.59,-6.06 0.96,-9.06z"/>
    </g>
   </g>
   <path class="fil17 str0" d="M403.7 161.56c5.47,4.62 14.18,8.96 26.12,13.02"/>
   <path class="fil18" d="M403.7 161.56c5.47,4.62 14.18,8.96 26.12,13.02 4.42,0.54 8.93,0.3 13.44,-1.02 -13.52,-2.84 -26.6,-7.27 -39.55,-12.01z"/>
   <path class="fil19" d="M429.82 174.58c-11.94,-4.06 -20.64,-8.4 -26.12,-13.02 -1.51,-0.55 -3.01,-1.11 -4.52,-1.66 8.74,6.86 19.41,13.31 30.63,14.69z"/>
  </g>
 </g>
</svg>
