<svg viewBox="0 0 56 56" fill="none" xmlns="http://www.w3.org/2000/svg"><g clip-path="url(#clip0)"><path d="M55.93 37.11L51.17 25c.07 0 .14-.07.28-.07-.07 0-.14 0-.28.07l-1.47-3.78c-.07-.14-.14-.21-.28-.21-.07 0-.14 0-.14.07l-1.47.7-.07-.49c.84-.42 1.75-.77 2.59-1.19-.91.35-1.75.7-2.66 1.05l-.07-.42c-.07-.14-.07-.21-.21-.21-.07 0-.07-.07-.14-.07s-.14 0-.21.07l-.7.35-.49-1.89c0-.07 0-.07-.07-.07-.07-.14-.14-.21-.28-.21-.07 0-.14 0-.21.07l-2.87 1.47-.07-.14c.77-.56 1.47-1.05 2.24-1.61 1.19-.84 2.31-1.61 3.43-2.52-1.19.77-2.38 1.54-3.5 2.38-.7.49-1.47.98-2.17 1.54l-.98-2.73s-.21-.56-.56-.7l1.47-1.68c.91-1.05 1.89-2.17 2.8-3.22-.98.98-1.96 2.03-2.94 3.08-.56.56-1.12 1.19-1.68 1.82-.21 0-.42.14-.7.28v-2.03c0-.42-.14-.84-.35-1.26.14-.28.35-.49.49-.77.77-1.26 1.47-2.52 2.24-3.78-.84 1.26-1.61 2.45-2.45 3.64-.14.21-.28.49-.42.7-.21-.28-.42-.49-.77-.63l-1.89-1.05c-.14-.07-.28-.14-.42-.28.14-.28.21-.56.35-.84.49-1.4.98-2.73 1.47-4.13-.56 1.33-1.12 2.73-1.68 4.06-.07.28-.21.49-.28.77-.35-.28-.7-.63-.98-1.05L33.95 8.2c-.14-.21-.35-.42-.56-.63.14-.98.35-1.89.49-2.87l-.63 2.73c-.42-.28-.91-.49-1.47-.49h-2.45c0-.98-.07-2.03-.14-3.01-.07.98-.07 2.03-.07 3.01-.56-.07-1.12-.21-1.61-.56l-1.89-.98c-.21-.07-.35-.21-.56-.21-.07-.28-.07-.56-.14-.84 0 .28.07.56.14.77-.7-.14-1.4-.07-1.96.28l-1.89 1.05c-.07 0-.14.07-.21.07-.07-.21-.21-.49-.28-.7.07.21.14.49.21.7-.56.28-1.26.42-1.89.42h-2.17c-.84.07-1.68.56-2.17 1.26l-1.05 1.82c-.35.63-.91 1.12-1.54 1.47l-1.89 1.05c-.77.42-1.26 1.26-1.26 2.1v2.03c0 .7-.21 1.4-.56 2.03l-1.05 1.82c-.42.77-.42 1.68 0 2.38l.84 1.4c-.28-.07-.56-.14-.84-.14l.84.21.21.28c.35.63.56 1.33.56 2.03v2.1c0 .28.07.49.14.77h-.42c-.7 0-1.4.07-2.03.07.7.07 1.4.07 2.03.07h.49c.14.35.42.7.77.98L7 31.86h-.14l-6.3 1.4c-.49.14-.7.7-.35 1.12l2.38 2.38c.14.07.21.28.21.42v2.31c0 .49.49.7.91.56l5.25-2.03 1.05-.42 1.68-.63-2.52 3.15c-.21.35 0 .77.42.77l3.15-.14-1.12.77-1.68 1.26c.63-.35 1.19-.77 1.75-1.19l1.33-.91.98-.07c.14 0 .28.07.35.14l1.75 1.89.07.07c.07 0 .14.07.21.07-.21.21-.42.49-.63.7l-1.4 1.61c-.42.56-.91 1.05-1.4 1.61.49-.49.98-.98 1.47-1.54l1.47-1.54c.98-.98 1.96-2.1 2.94-3.15.98-1.05 1.96-2.1 2.87-3.22l.14-.14.77.42.28 1.89-1.68 2.73c-.77 1.26-1.54 2.45-2.31 3.71l-1.12 1.89c-.35.63-.77 1.26-1.12 1.89.42-.63.84-1.26 1.26-1.82L19.11 46c.77-1.26 1.54-2.52 2.38-3.71.49-.84 1.05-1.61 1.54-2.45l.56 3.64c0 .07-.07.14-.07.28-.56 1.54-1.12 2.94-1.61 4.27l-.77 2.03c-.28.7-.49 1.4-.77 2.1.28-.7.56-1.33.84-2.03l.84-2.03c.49-1.33 1.05-2.66 1.54-3.99.07.42.14.84.21 1.19v.07c.21.98.35 1.82.49 2.17.14.42.42.84.63 1.12-.07.21-.07.42-.14.63l-.28 2.17c-.14.77-.28 1.47-.35 2.17.21-.7.35-1.47.49-2.17l.42-2.17c0-.14.07-.35.07-.49.42.42.91.63 1.54.77.07 0 .14 0 .21.07.63.07 1.05-.14 1.26-.14l.98-.21v.35l.07 2.24c0 .77.07 1.47.07 2.24.07-.77.07-1.47.07-2.24l.07-2.24v-.42l2.73-.7c.07.28.07.56.14.84l.42 2.17c.14.7.28 1.47.42 2.17-.07-.77-.21-1.47-.28-2.17l-.35-2.17c-.07-.28-.07-.56-.14-.84l3.36-.84c.07.28.21.56.28.84l.77 2.1.84 2.1c-.21-.7-.42-1.4-.7-2.1l-.7-2.1c-.07-.28-.21-.56-.28-.84l3.22-.77c.7 1.19 1.47 2.45 2.24 3.57-.7-1.26-1.33-2.45-1.96-3.64l4.34-1.12c.42.42.91.91 1.33 1.4-.42-.49-.84-.98-1.19-1.4l9.31-2.52-.63-2.03 2.1-.7c.14-.07.28-.14.35-.28.07-.14.07-.28.07-.42l-.35-1.05 1.05-.77c.14-.28.28-.56.14-.84zm-5.25-12.04s-.07 0 0 0l-1.33-3.29h.07l1.26 3.29zM24.29 41.52l-.07-.56.07.56c.07-.07.14-.14.21-.14v.07c-.14 0-.14.07-.21.07zM49 34.03c-.56-1.4-1.05-2.87-1.54-4.27.56 1.4 1.05 2.8 1.54 4.27zm.56 1.4l-3.36 2.03c-.07 0-.14-.07-.14-.07l3.43-2.1c-.14-.42-.28-.77-.42-1.19.14.49.28.91.49 1.33zm-12.67 7c0-.07-.07-.07-.07-.14l1.82-.49.98-.63.14.14-.98.63-1.89.49zm2.38-4.13c-.35.28-.77.56-1.19.84.42-.28.77-.56 1.19-.84l.63-.56-.63.56zm-1.4.91s0 .07 0 0c-.56.35-1.19.7-1.89.98.63-.28 1.26-.56 1.89-.98zm2.24-1.61l2.1-1.75-2.1 1.75zm-5.18.14l.07.14.14 1.54s0-.07-.07-.07l-.14-1.61zm1.61 4.62c0 .07.07.07.07.14l-2.24.56c0-.07 0-.07-.07-.14l2.24-.56zm3.36-1.26l2.45-1.47c.07 0 .07.07.14.07l-2.45 1.47c-.07 0-.14-.07-.14-.07zm2.66-1.61l3.22-1.89c.07 0 .14.07.14.07l-3.22 1.89c-.07 0-.07-.07-.14-.07zm0-3.85s-.07 0 0 0l2.8-2.31-2.8 2.31zm-8.19 5.11c.28-.07.56-.14.84-.28l-.07-.42s0 .07.07.07l.07.35c-.28.07-.56.21-.91.28l-.77.21.77-.21zm-.28 2.38l-2.52.63v-.14l2.52-.63c-.07.07 0 .14 0 .14zm11.97-10.36l-.49.42.49-.42-1.12-3.01h.07l1.05 3.01zm-19.25 4.55zm-.91 3.5c.07 0 .07 0 .14-.07.14-.07.35-.14.49-.14v.07c-.14.07-.28.07-.49.14-.07.07-.14.07-.21.07 0 0 .07 0 .07-.07zm.84-.28c.28-.07.63-.14.91-.28.49-.14.98-.21 1.47-.35v.07c-.49.07-.91.21-1.4.35-.35.14-.63.21-.98.21 0 .07 0 .07 0 0zm6.58.42l-2.17.56 2.17-.56zm14.07-11.41c0-.07 0-.07 0 0l-1.26-3.36c.49 1.05.84 2.17 1.26 3.36zm-2.59-.07l-1.12-2.8 1.12 2.8zM24.78 41.17c.84-.56 1.82-1.68 2.03-3.5-.21 1.89-1.26 3.01-2.03 3.5 0 .07 0 .07 0 0zm6.16.42l-1.54.42v-.07l1.54-.35zm.35 2.17v.14l-1.89.49v-.14l1.89-.49zm14.84-17.85c-.42-1.12-.84-2.31-1.26-3.5.42 1.19.84 2.38 1.26 3.5zm-2.45.49l-1.19-3.01 1.19 3.01zM26.6 42.64l2.45-.63v.07l-2.38.63c-.14 0-.21.07-.35.14v-.07c.14-.07.21-.14.28-.14zm-.91 3.43c.07-.21.21-.42.35-.56.21-.21.49-.42.77-.49.07-.07.14-.07.21-.14l.21-.07.42-.14 1.33-.35v.14l-1.19.35-.42.14-.21.07c-.07.07-.14.07-.21.07-.28.14-.56.28-.77.49-.21.21-.35.49-.42.77s.07.63.14.91c-.14-.28-.21-.56-.21-.84v-.35zm17.01-1.54l.14.14-4.06 1.05c0-.07-.07-.14-.07-.21l3.99-.98zm.21-.07l4.41-1.12c.07.07.14.07.21.14l-4.48 1.12-.14-.14zm4.55-21.98l-.07.07-.28-1.05s.07 0 .07-.07l.28 1.05zm-.28-1.26c0 .07-.07.07-.07.07v-.07h.07zm-1.12.42l-.07.07-.63-2.17h.07l.63 2.1zm-1.26.56c-.28-.7-.56-1.4-.77-2.17.28.77.49 1.47.77 2.17zm-2.31.98s-.07 0 0 0l-.98-2.45.98 2.45zm-1.05-2.73l-1.12-2.87 1.12 2.87zM21.56 37.39c-.98.98-1.96 2.1-2.94 3.15-.42.49-.91.98-1.33 1.47l3.08-5.32c.28.07.56.21.84.35l.42.28s-.07 0-.07.07zm2.8 6.65l.49-.49c.35-.35.84-.63 1.33-.84v.07c-.49.21-.84.42-1.26.77l-.56.49zm3.57 4.41l-.07.07c-.14.07-.42.14-.84.14-.49 0-1.12-.28-1.54-1.19.42.77.98.98 1.47.98.35.07.7-.07.84-.14l.07-.07 1.26-.35v.21l-1.19.35zm1.4-.42v-.21l2.52-.63c0 .07 0 .14.07.21l-2.59.63zm2.87-.7v-.21l3.08-.77c0 .07.07.14.07.21l-3.15.77zm3.29-1.05l2.94-.7c.07.07.07.14.14.21l-2.94.77c-.07-.14-.07-.21-.14-.28zm19.25-8.4s-.77.42-.42 1.75l-1.89.77-.98.42.49 1.61-4.34 1.12c-.07-.07-.14-.07-.21-.14l4.48-1.12-.49-1.61.98-.42 1.89-.77c-.35-1.26.42-1.75.42-1.75l.7-.56-4.69-11.97h.07l4.83 12.32-.84.35z" fill="#4C5F72"/><path d="M22.96 32.21c.7-.07 2.03-.07 3.01.91-.98-.98-2.31-.98-3.01-.91z" fill="#F0F"/><path d="M24.29 30.81c-.28.07-.63.14-.84.28-.28.14-.56.35-.7.63v.07c.21-.35.49-.56.77-.7.28-.14.56-.21.77-.28.28 0 .56-.07.84-.07 0 0 .07 0 .07-.07-.28 0-.56.07-.91.14zm-1.19 2.73h-.07l1.19 7.49-1.12-7.49zm13.65-14.28c-.07-.7-.21-1.47-.49-2.17-.77-2.38-2.38-4.27-4.34-5.6.77.84 1.47 1.75 1.96 2.73.56 1.05.98 2.24 1.19 3.5.21.98.21 1.96.14 2.94l1.54-1.4z" fill="#0CF"/><path d="M35 19.05v-.28l-.07-.21-.21-.84a12.93 12.93 0 0 0-1.47-3.15c-.63-.98-1.4-1.82-2.24-2.59-.84-.77-1.82-1.33-2.87-1.82l-.77-.21c-.07-.07-.14-.07-.21-.07l-.21-.07-.35-.14-.42-.07c-.14-.07-.28-.07-.42-.07-.28-.07-.56-.14-.84-.14-.28 0-.49-.07-.77-.07-1.47 0-2.94.28-4.48.77-1.61.56-3.01 1.33-4.27 2.31-.77.7-1.4 1.47-1.96 2.38-.63.91-.98 1.96-1.33 3.08-.28 1.05-.42 2.17-.42 3.36 0 .28.07.56.07.84 0 .14 0 .28.07.42l.07.42.07.42.07.21c0 .07.07.14.07.21l.21.84c.35 1.05.84 2.1 1.47 3.08.7.91 1.4 1.82 2.31 2.52.91.77 1.89 1.33 2.94 1.82l.84.28.21.07.21.07.42.14c.28.14.63.21.98.21-.07-.42-.14-.7-.14-.7-.07-.07-.07-.14-.07-.21v-.14c-.21-2.52 1.61-3.43 1.68-3.5l7-3.5c.56-.28 1.05-.63 1.54-.98l3.36-2.94c0-.42-.07-.77-.14-1.19l.07-.56z" fill="#0CF"/><path d="M18.9 32.28c-1.19-.35-2.31-.91-3.29-1.61-.98-.7-1.89-1.54-2.66-2.52-.77-.98-1.33-2.1-1.82-3.22-.42-1.12-.63-2.24-.77-3.43-.14 1.4.07 2.87.56 4.27 1.54 4.62 6.02 7.56 11.06 7.77-.07-.28-.07-.56-.14-.77-1.05-.07-1.96-.21-2.94-.49zm5.46 1.12c-.42.07-.84.07-1.26.07l1.12 7.49c.98-.7 2.31-1.96 1.89-4.97-.28-1.47-1.05-2.24-1.75-2.59zm1.33 4.06s-.21-3.01-1.96-3.43l-.07-.49s2.24 1.05 2.03 3.92z" fill="#0CF"/><path d="M23.1 33.54c.42 0 .84-.07 1.26-.07-.63-.28-1.19-.35-1.33-.35l.07.42z" fill="#0CF"/><path d="M22.19 35.22l-.42-.21c-.28-.14-.63-.28-.98-.35.28.28.49.49.77.7.14.14.28.21.42.28.07.07.21.21.35.28l-.14-.7z" fill="#4C5F72"/><path d="M10.92 35.15l.77-1.05c.49-.7.35-1.68-.35-2.24l-.63-.49c-.35-.28-.84-.35-1.26-.14l-2.73 1.19h-.07l-4.27.98c-.35.07-.49.49-.21.77l1.61 1.68c.07.07.14.21.14.35v1.61c0 .35.35.56.63.42l5.18-2.1c.42-.07.84-.49 1.19-.98zm9.03-.98l-1.75-.49c-1.75-.49-3.57.14-4.69 1.54l-3.08 3.85c-.21.28 0 .7.35.7l3.85-.14-.07-.98 1.54 2.87c.14.14.42.21.56 0l.07-.07 3.64-6.3c.21-.35 0-.91-.42-.98zm-6.58-13.93c0-2.45.98-4.9 2.73-6.79 1.75-1.82 4.2-2.94 6.86-3.08-1.26-.07-2.59.14-3.85.56-1.26.42-2.45 1.19-3.43 2.1-.98.91-1.75 2.03-2.31 3.29-.49 1.26-.84 2.59-.84 3.92s.28 2.66.84 3.92c.56 1.26 1.33 2.38 2.31 3.29.98.91 2.1 1.61 3.43 2.1.84.28 1.75.49 2.66.56 0-.07 0-.07.07-.14a9.928 9.928 0 0 1-5.6-2.94c-1.82-1.82-2.87-4.27-2.87-6.79z" fill="#ADBFCE"/><path d="M19.95 27.8a7.376 7.376 0 0 1-2.73-1.89c-.77-.77-1.4-1.75-1.89-2.73-.42-1.05-.7-2.17-.7-3.29 0-2.31.91-4.55 2.45-6.16-.84.77-1.47 1.75-1.96 2.8-.42 1.05-.7 2.17-.7 3.36-.07 2.31.91 4.62 2.52 6.23 1.47 1.47 3.5 2.38 5.6 2.52l.21-.21c-.91 0-1.89-.21-2.8-.63z" fill="#ADBFCE"/><path d="M24.01 15.41l-.42-.42c-.07-.07-.14-.14-.28-.14h-1.75c-.14 0-.21.07-.28.14l-1.19 1.05H17.5v.07c-.14.07-.21.21-.28.35l-.56 4.2c0 .14 0 .21.07.35.07.07.21.14.28.14h2.38l2.52 2.24c.07.07.14.14.28.14h.7c.14 0 .28-.07.35-.14l.49-.56h.42c.14 0 .28-.07.35-.14l.63-.63h.21c.14 0 .28-.07.35-.14l.56-.63h3.15c.21 0 .42-.21.49-.42l.56-4.2c.14-.21.07-.35 0-.42a.53.53 0 0 0-.28-.14h-2.31l-.91-1.05a.53.53 0 0 0-.28-.14h-1.75c-.14 0-.21.07-.28.14l-.63.35zm2.17 4.76h-.14c-.14 0-.28.07-.35.14l-.56.63h-.21c-.14 0-.28.07-.35.14l-.63.63h-.35c-.14 0-.28.07-.35.14l-.49.56h-.35v.07l-2.52-2.24c-.07-.07-.14-.14-.28-.14h-.63l.42-3.36h.63c.14 0 .21-.07.28-.14l1.19-1.05h1.47l.28.28-1.54 1.68a.53.53 0 0 0-.14.28c0 .07 0 .21.07.35l.35.42c.56.7 1.54.7 2.31.07l.7-.63 1.61 1.75-.42.42zm-1.26-4.48h1.4l.91 1.05c.07.07.21.14.28.14h2.03l-.42 3.36h-1.75l.21-.21c.21-.21.21-.42.07-.63l-1.89-1.96.42-.35-.07-.07c-.14-.14-.35-.28-.49-.28-.21-.07-.42.07-.49.21L23.87 18c-.35.28-.84.28-1.19 0l-.14-.21 2.38-2.1z" fill="#4C5F72"/><path d="M15.82 8.9c.21-.07.35-.14.56-.14h.56c.42.07.84.07 1.26.07h.28c.35 0 .7-.07.98-.14.35-.14.63-.21.91-.35l.42-.14c.35-.21.7-.35 1.05-.63.21-.07.35-.21.49-.28.21-.07.35-.14.56-.14.35-.07.77 0 1.19.14a2.36 2.36 0 0 0-1.19-.35c-.21 0-.42 0-.7.07-.14.07-.21.07-.35.14l-.14.21c-.35.14-.77.35-1.12.49l-.28.14c-.28.14-.49.21-.84.28-.28.07-.56.14-.84.14h-.28c-.42 0-.84 0-1.26.07h-.35c-.14 0-.21 0-.35.07l-.63.21c-.35.14-.7.49-.84.84.21-.28.56-.56.91-.7zM7.98 23.04l.35.7c.14.21.21.42.35.63l.21.35c.07.07.14.21.14.28.21.42.28.91.28 1.33v1.82c0 .14 0 .28.07.42.07.28.21.49.35.77.21.35.49.63.91.77l.35.21c.42.21.91.42 1.33.63-.35-.28-.77-.56-1.19-.84l-.42-.21c-.07-.07-.21-.14-.28-.21-.14-.14-.28-.35-.42-.49a1.13 1.13 0 0 1-.21-.63V26.4c0-.56-.14-1.05-.35-1.54-.07-.14-.14-.21-.21-.35l-.14-.35-.42-.63-.42-.63c-.14-.21-.21-.42-.28-.63-.14-.42-.07-.98.14-1.4-.28.42-.42.91-.35 1.47.07.21.14.42.21.7zm1.47-5.95c.14-.49.21-.98.21-1.47.07-.14.07-.28.07-.35.07-.35.14-.63.28-.91.14-.21.28-.35.42-.49.07-.07.14-.14.28-.21.07-.07.21-.14.28-.21.42-.28.84-.56 1.19-.91-.49.14-.91.35-1.4.49-.14.07-.21.14-.35.14-.14.07-.21.14-.35.21-.21.14-.42.35-.56.63-.14.21-.28.49-.28.77-.07.14-.07.28-.07.42 0 .14.07.28.07.35.07.56.14 1.05.21 1.54zm39.9 4.69l-1.82.84v-.14l-.07.07-.28-1.26-.98.49-.07-.14-.07.07-.63-2.17-.77.35 5.67 15.82c-6.3 3.71-10.01 5.88-11.27 6.58l-7.35 1.82-3.71.84-.42.14h-.28c-.07 0-.14.07-.21.07-.28.14-.56.28-.77.49-.21.21-.42.49-.42.77-.07.28.07.63.14.91-.14-.28-.28-.63-.21-.91.07-.28.21-.63.42-.84.21-.21.49-.35.77-.49.07-.07.14-.07.21-.14-.07.07-.14.07-.21.07-.28.14-.56.28-.77.49-.21.21-.35.49-.42.77s.07.63.14.91c-.14-.28-.21-.56-.21-.91.07-.28.21-.63.42-.84.21-.21.49-.42.77-.49.07-.07.14-.07.21-.14l.21-.07.42-.14 3.64-.98 7.21-1.82 10.78-6.51c-1.82-5.04-3.64-10.15-5.46-15.26l-1.33.7 4.34 11.69c.21.42.07.91-.28 1.19l-6.86 5.6a13.821 13.821 0 0 1-5.25 2.66l-7.7 1.96c-.84.21-1.54.77-1.89 1.47-.07.21-.14.35-.14.63.14.56.28.77.35 1.05 0 .07.07.14.07.14.42 1.05 1.12 1.33 1.61 1.33.35.07.7-.07.84-.14l.07-.07 24.01-6.02-.49-1.61.98-.42 1.89-.77c-.35-1.26.42-1.75.42-1.75l.7-.56-5.95-15.33zm3.71 16.73c-2.1.98-4.27 1.89-6.37 2.87-2.17.98-4.41 1.96-6.58 2.94l-6.09 1.19-3.01.63-1.61.21c-.49.14-1.05.21-1.47.35-.21.07-.35.14-.42.21-.07.07-.07.14-.07.21 0 .07.07.14.14.14.14.07.28.07.49.07.21 0 .35-.07.49-.07.35-.14.7-.21 1.05-.35.35-.14.7-.28.98-.42-.35.14-.7.28-.98.42-.35.14-.7.28-1.05.35-.21.07-.35.14-.56.14-.21 0-.35 0-.56-.07-.14-.07-.21-.14-.21-.28-.07-.14.07-.21.14-.28.14-.14.28-.21.49-.28.49-.14.98-.28 1.47-.35l1.47-.35 3.01-.63c1.96-.42 3.99-.84 6.02-1.26 2.17-.98 4.34-2.03 6.51-3.01 2.1-.98 4.27-1.96 6.44-2.94l-3.64-12.04 4.69 12.25-.77.35z" fill="#ADBFCE"/><path d="M44.1 32.14l.14-.07v-.14l-.49-.84h-.07l-.14.07.56.98zm-5.18-10.08l.14-.07v-.14l-.49-.84h-.07l-.14.07.56.98zm1.12-.63l.14-.07v-.14l-.49-.84h-.07l-.14.07v.07l.56.91z" fill="#ADBFCE"/><path d="M34.37 40.75c.28-.07.56-.14.84-.28l-.28-2.73.07.14v-.14l1.05 2.45c1.12-.49 2.24-1.12 3.22-1.89l6.79-5.53-5.67-15.19-7.77 6.79c-.49.42-1.12.84-1.75 1.19l-7 3.5c-.14.07-1.33.77-1.05 2.59.21-.28.42-.49.7-.63.28-.14.56-.21.84-.28.28-.07.63-.14.91-.14 0 0-.07 0-.07.07h.07c-.21.21-.49.35-.77.49s-.49.28-.77.35c-.28.07-.49.35-.63.49-.07 0-.07.14-.14.21.77-.07 2.24-.07 3.29 1.19.49.56.84 1.4 1.05 2.59.35 2.38-.42 3.92-1.33 4.83.07 0 .07 0 .14-.07.49-.21 1.05-.35 1.61-.49s1.12-.28 1.68-.35c-.07 0-.07.07-.14.07h.14c-.49.28-1.05.49-1.54.77s-1.05.42-1.61.63l-.84.28c-.21.07-.49.21-.7.35-.21.14-.42.35-.63.56.07.35.14.7.14.98l.07.63.49-.49a3.57 3.57 0 0 1 1.82-.98l7.77-1.96zm-.7-6.23c-.35-.98-.7-1.96-.91-2.94-.14-.49-.21-.98-.28-1.54.28.49.42.91.63 1.4.35.91.7 1.96.91 2.94.14.49.21.98.28 1.54-.28-.49-.49-.91-.63-1.4zm8.89-.63l-.14-.28.07-.07-.56-.98-.14.07-.07-.35.35-.21.77 1.26.14-.07.14.28-.56.35zm.77-2.87l.35-.28c.07-.07.14-.07.21-.07l.14.14.63 1.05c.07.07.07.14.07.21 0 .07-.07.14-.14.14l-.35.28c-.07.07-.14.07-.21.07l-.14-.14-.63-1.05c-.07-.07-.07-.14-.07-.21 0 0 .07-.14.14-.14zm-.77.7l.35-.28c.07-.07.14-.07.21-.07l.14.14.63 1.05c.07.07.07.14.07.21 0 .07-.07.14-.14.14l-.42.28c-.07.07-.14.07-.21.07l-.14-.14-.63-1.05c-.07-.07-.07-.14-.07-.21.14 0 .14-.07.21-.14zm-1.82-1.19l.21-.28.14-.14.14-.14.28-.28c.21-.14.21-.28.35-.42-.49-1.75-.84-3.08-1.05-4.06.56 1.33 1.05 2.73 1.54 4.13l.07.14-.14.14c-.14.21-.28.35-.42.49l-.21.28-.14.14-.07.14-.21.28-.14.28c-.07.07-.07.21-.14.28 0 .07-.07.21-.07.28-.14.42-.14.84-.07 1.33.07.42.14.84.35 1.26l.07.21-.14.14-2.1 1.89c-.7.63-1.47 1.26-2.17 1.82.63-.7 1.33-1.4 1.96-2.03l1.89-1.89c-.07-.21-.14-.35-.21-.49-.07-.14-.07-.28-.07-.35-.07-.14-.07-.28-.07-.35-.07-.49-.07-.98.07-1.47.07-.14.07-.28.14-.35.07-.14.14-.21.14-.35l.07-.63zm-1.47-10.22l.35-.28c.07-.07.14-.07.21-.07 0 .14.07.14.07.21l.63 1.05c.07.07.07.14.07.21 0 .07-.07.14-.14.14l-.35.28c-.07.07-.14.07-.21.07l-.14-.14-.56-1.12v-.21s0-.07.07-.14zm-1.12.7l.35-.28c.07-.07.14-.07.21-.07l.14.14.63 1.05c.07.07.07.14.07.21 0 .07-.07.14-.14.14l-.35.28c-.07.07-.14.07-.21.07l-.14-.14-.63-1.05c-.07-.07-.07-.14-.07-.21 0-.07.07-.14.14-.14zm-.56.35l.77 1.26.14-.07.14.28-.49.35-.14-.28.07-.07-.56-.91-.14.07-.07-.35.28-.28zm-5.67 6.3l1.12-1.12c.35-.35.77-.7 1.19-1.05.77-.77 1.54-1.4 2.38-2.1l.21-.14.14.21c.21.21.49.42.77.56.28.14.63.21.91.21.35-.07.7-.14.98-.28s.63-.28.84-.49c-.21.28-.49.49-.77.7-.28.21-.63.35-.98.42s-.77 0-1.12-.14c-.21-.14-.49-.28-.77-.42-.77.77-1.4 1.26-2.17 1.96l-1.26 1.05c-.42.35-.84.7-1.26.98-.63.28-1.12.42-1.68.63.42-.49.91-.7 1.47-.98z" fill="#ADBFCE"/><path d="M43.33 32.84l.14-.07v-.14l-.49-.84h-.07l-.14.07.56.98zm-17.29 3.15c.49 3.08-.84 4.34-1.89 4.97l.07.49c.84-.42 2.31-1.54 2.52-3.78v-.49c0-.35 0-.77-.07-1.19 0-.14-.07-.21-.07-.35-.14-.63-.35-1.26-.7-1.82-.42-.63-1.05-1.12-2.03-1.19-.42-.07-.77-.07-.98 0l.07.42c.42 0 2.66.21 3.08 2.94z" fill="#ADBFCE"/><path d="M25.69 37.46c.21-2.87-2.03-3.92-2.03-3.92l.07.49c1.75.42 1.96 3.43 1.96 3.43z" fill="#ADBFCE"/></g><defs><clipPath id="clip0"><path fill="#fff" transform="translate(0 4)" d="M0 0h56v50.05H0z"/></clipPath></defs></svg>