<?xml version="1.0" encoding="UTF-8"?>
<!DOCTYPE svg PUBLIC "-//W3C//DTD SVG 1.1//EN" "http://www.w3.org/Graphics/SVG/1.1/DTD/svg11.dtd">
<!-- Creator: CorelDRAW 2018 (64-Bit) -->
<svg xmlns="http://www.w3.org/2000/svg" xml:space="preserve" width="0.666665in" height="0.666669in" version="1.1" style="shape-rendering:geometricPrecision; text-rendering:geometricPrecision; image-rendering:optimizeQuality; fill-rule:evenodd; clip-rule:evenodd"
viewBox="0 0 195.91 195.91"
 xmlns:xlink="http://www.w3.org/1999/xlink">
 <defs>
  <style type="text/css">
   <![CDATA[
    .fil1 {fill:#66C3D0;fill-rule:nonzero}
    .fil2 {fill:#00A0E3;fill-rule:nonzero}
    .fil0 {fill:white;fill-rule:nonzero}
   ]]>
  </style>
 </defs>
 <g id="Layer_x0020_1">
  <metadata id="CorelCorpID_0Corel-Layer"/>
  <path class="fil0" d="M87.75 191.83c46.21,0 83.67,-37.46 83.67,-83.67 0,-20.43 -7.32,-39.15 -19.49,-53.68 -0.68,-0.81 13.19,0 13.19,0l22.62 -23.71 -22.62 0 -2.63 -22.6 -23.51 19.93c0,0 0.97,14.67 0,13.91 -14.65,-11.38 -32.68,-17.54 -51.23,-17.51 -46.21,0 -83.67,37.46 -83.67,83.67 0,46.21 37.46,83.67 83.67,83.67z"/>
  <path class="fil1" d="M155.09 157.5l-57.07 -42.82 4.09 -12.64 71.39 12.64 -18.42 42.82zm-21.18 21.24l0 0 -42.37 -59.65 4.75 -4.1 52.77 52.27 -15.15 11.49zm20.28 -142l0 0 21.31 0 -13.34 12.25 -19.31 0 11.35 -12.25z"/>
  <path class="fil2" d="M164.63 50.4c-0.56,0.55 -1.31,0.86 -2.09,0.86l-16.84 0c-1.55,0 -2.82,-1.26 -2.83,-2.81l0.01 -16.54c-0,-0.78 0.31,-1.53 0.87,-2.08l17.34 -17.15 0 20.69 4.35 -0.05 16.47 0.04 -17.28 17.04zm29.39 -23.61l0 0 -27.12 0 -0.07 -24.92c-0,-1.03 -0.84,-1.87 -1.88,-1.87 -0.01,0 -0.01,0 -0.02,0 -0.5,0 -0.97,0.2 -1.32,0.56l-24.95 23.62c-1.6,1.59 -2.49,3.71 -2.49,5.95l-0.01 19.57 -35.46 38.42 -13.97 14.35 8.09 -16.66c-1.52,-0.35 -3.07,-0.53 -4.62,-0.53 -11.49,0 -20.81,9.24 -20.81,20.63 -0,11.39 9.31,20.62 20.81,20.62 11.49,0 20.81,-9.23 20.81,-20.62 0,-3.89 -1.1,-7.51 -2.99,-10.61l34.86 -37.79 21.07 0c2.27,0 4.4,-0.87 6,-2.46l25.4 -25.06c0.54,-0.53 0.71,-1.34 0.41,-2.04 -0.29,-0.71 -0.98,-1.17 -1.74,-1.16l-0 0z"/>
  <polygon class="fil2" points="138.77,47.13 155.09,36.73 145.15,53.06 "/>
  <path class="fil2" d="M167.64 71.81c-0.88,-1.94 -1.84,-3.84 -2.87,-5.71l-7.95 0c7.75,12.66 11.83,27.22 11.8,42.07 0,44.59 -36.28,80.87 -80.87,80.87 -44.59,0 -80.87,-36.28 -80.87,-80.87 0,-44.59 36.28,-80.87 80.87,-80.87 13.61,-0.04 27.01,3.39 38.92,9.97l0 -7.76c-12.09,-6.01 -25.42,-9.13 -38.92,-9.09 -48.39,0 -87.75,39.37 -87.75,87.75 0,48.38 39.37,87.75 87.75,87.75 48.38,0 87.75,-39.37 87.75,-87.75 0,-12.68 -2.64,-24.91 -7.86,-36.35z"/>
  <path class="fil2" d="M89.79 167.34c-31.51,0 -57.14,-25.63 -57.14,-57.14 0,-31.51 25.63,-57.14 57.14,-57.14 10.47,0 20.7,2.86 29.61,8.26l2.04 1.24 -5.16 5.6 -1.36 -0.8c-7.62,-4.47 -16.29,-6.83 -25.13,-6.82 -27.39,0 -49.67,22.28 -49.67,49.67 0,27.39 22.28,49.66 49.67,49.66 27.38,0 49.67,-22.28 49.67,-49.66 0.01,-9.38 -2.65,-18.57 -7.66,-26.5l-0.79 -1.26 5.21 -5.65 1.37 2.09c6.11,9.3 9.35,20.19 9.34,31.32 0,31.5 -25.63,57.14 -57.14,57.14z"/>
 </g>
</svg>
