<?xml version="1.0" encoding="UTF-8"?>
<!DOCTYPE svg PUBLIC "-//W3C//DTD SVG 1.1//EN" "http://www.w3.org/Graphics/SVG/1.1/DTD/svg11.dtd">
<!-- Creator: CorelDRAW 2018 (64-Bit) -->
<svg xmlns="http://www.w3.org/2000/svg" xml:space="preserve" width="0.64726in" height="0.723268in" version="1.1" style="shape-rendering:geometricPrecision; text-rendering:geometricPrecision; image-rendering:optimizeQuality; fill-rule:evenodd; clip-rule:evenodd"
viewBox="0 0 130.46 145.78"
 xmlns:xlink="http://www.w3.org/1999/xlink">
 <defs>
  <style type="text/css">
   <![CDATA[
    .str0 {stroke:white;stroke-width:1.4;stroke-miterlimit:2.61313}
    .fil6 {fill:none}
    .fil4 {fill:#66C3D0}
    .fil5 {fill:white}
    .fil1 {fill:#66C3D0;fill-rule:nonzero}
    .fil3 {fill:#00A0E3;fill-rule:nonzero}
    .fil2 {fill:#99FFFF;fill-rule:nonzero}
    .fil0 {fill:white;fill-rule:nonzero}
   ]]>
  </style>
 </defs>
 <g id="Layer_x0020_1">
  <metadata id="CorelCorpID_0Corel-Layer"/>
  <polygon class="fil0" points="42.96,18.58 67.19,4.05 123.42,37.75 123.42,86.26 130.46,97.71 130.46,127.39 123.42,134.54 114.39,145.78 98.34,145.78 91.5,134.54 81.82,124.35 67.19,131.65 11.23,100.78 11.23,51.76 -0,42.97 -0,18.58 14.55,6.34 29.31,6.34 42.96,18.58 "/>
  <path class="fil1" d="M39.19 115.93l27.99 15.96 15.4 -6.95c-12.07,-44.87 28.39,-51.62 41.93,-39.09l1.46 -39.14 -20.49 -10.15 -66.29 79.37z"/>
  <path class="fil2" d="M36.39 112.14c4.91,-7.12 9.97,-14.13 15.19,-21.02 5.18,-6.91 10.5,-13.72 15.84,-20.5 5.37,-6.76 10.82,-13.46 16.35,-20.09 5.52,-6.65 11.19,-13.17 17.01,-19.57 -4.9,7.12 -9.97,14.13 -15.18,21.02 -5.19,6.9 -10.47,13.73 -15.84,20.5 -5.37,6.76 -10.82,13.46 -16.36,20.09 -5.52,6.65 -11.19,13.17 -17.01,19.57zm8.4 -22.4l0 0c2.31,-3.89 4.85,-7.59 7.48,-11.23 2.63,-3.63 5.34,-7.2 8.14,-10.7 2.81,-3.5 5.69,-6.93 8.66,-10.29 2.97,-3.36 6.03,-6.66 9.32,-9.77 -2.31,3.89 -4.85,7.59 -7.47,11.23 -2.63,3.63 -5.35,7.2 -8.15,10.7 -2.81,3.5 -5.69,6.93 -8.66,10.29 -2.97,3.36 -6.02,6.66 -9.31,9.77z"/>
  <polygon class="fil3" points="67.23,134.54 67.23,134.54 8.4,101.82 8.4,51 13.97,53.03 13.97,99.01 67.19,129.4 81.36,122.09 83.93,125.93 67.23,134.54 "/>
  <polygon class="fil3" points="125.97,89.75 120.49,89.75 120.49,38.56 67.19,5.61 41.76,21.37 39.19,16.94 67.19,0.17 125.97,35.63 "/>
  <polygon class="fil3" points="8.4,89.58 13.97,89.58 13.75,38.62 67.05,5.68 92.43,21.2 94.92,16.9 67,0 8.21,35.46 "/>
  <polygon class="fil3" points="125.99,46.54 120.51,46.54 120.51,97.73 67.21,130.68 41.78,114.92 39.21,119.35 67.21,136.12 125.99,100.66 "/>
  <path class="fil4" d="M120.49 83.07c-15.63,-8.08 -47.17,0.37 -38.71,38.6l38.73 -23.94 0 -7.98 -0.02 0 0 -6.68z"/>
  <g id="_1016882368">
   <g>
    <g>
     <g>
      <g>
       <path class="fil3" d="M40.96 11.24c0.47,-0.62 1.15,-1.19 1.97,-1.2 0.76,0.06 1.2,0.75 1.65,1.27 1.45,1.72 3.62,2.75 5.85,2.93 2.46,0.22 4.87,-0.56 7.15,-1.41 0.72,-0.33 1.57,-0.1 2.13,0.44 2.92,2.55 5.87,5.07 8.79,7.62 0.57,0.44 0.69,1.19 0.66,1.87 -0.03,1.6 0.04,3.2 -0.02,4.79 -0,0.74 -0.5,1.5 -1.25,1.66 -0.57,0.15 -1.17,0.3 -1.6,0.73 -0.6,0.5 -0.81,1.28 -1.05,1.98 -15,0.01 -30,0.01 -45,0 -0.3,-0.75 -0.49,-1.63 -1.2,-2.12 -0.72,-0.61 -1.82,-0.48 -2.46,-1.21 -0.49,-0.53 -0.4,-1.29 -0.42,-1.95 0.03,-1.44 -0.03,-2.88 0.02,-4.32 0,-0.77 0.73,-1.2 1.24,-1.65 2.9,-2.49 5.78,-4.99 8.66,-7.5 0.32,-0.26 0.71,-0.55 1.15,-0.44 2.63,1.15 5.55,2.06 8.44,1.57 2.06,-0.32 4.02,-1.4 5.29,-3.07zm-10.23 11.9l0 0c-1.63,0.13 -2.05,2.66 -0.57,3.32 1.01,0.32 2.11,0.17 3.15,0.1 1.58,-0.32 1.63,-2.94 0.1,-3.36 -0.88,-0.17 -1.79,-0.1 -2.68,-0.06zm10.5 0.01l0 0c-1.61,0.24 -1.92,2.77 -0.38,3.35 1.01,0.21 2.09,0.19 3.11,0.06 1.52,-0.38 1.58,-2.85 0.11,-3.34 -0.92,-0.21 -1.9,-0.14 -2.84,-0.07zm10.2 0.12l0 0c-1.42,0.58 -1.3,2.98 0.25,3.3 1,0.09 2.04,0.16 3.02,-0.07 1.45,-0.52 1.35,-2.99 -0.18,-3.33 -1.02,-0.09 -2.1,-0.21 -3.09,0.1z"/>
      </g>
      <g>
       <path class="fil3" d="M19.88 35.48c15.12,-0.02 30.25,0.01 45.37,-0.01 0.4,2.12 1.05,4.18 1.88,6.17 1.96,5.61 3.09,11.68 2.11,17.6 -0.64,3.97 -2.59,7.75 -5.62,10.41 -1.64,1.46 -3.7,2.31 -5.68,3.21 -2.88,1.21 -5.78,2.4 -8.65,3.64 -1.56,0.75 -3.2,1.4 -4.55,2.5 -0.64,0.5 -0.85,1.44 -1.64,1.75 -0.48,0.26 -1.09,0.13 -1.54,-0.13 -0.53,-0.39 -0.75,-1.07 -1.25,-1.49 -0.86,-0.71 -1.84,-1.25 -2.84,-1.75 -3.91,-2 -8.07,-3.45 -12.1,-5.17 -4.71,-2.16 -8.21,-6.61 -9.45,-11.61 -1.38,-5.84 -0.44,-11.97 1.43,-17.59 0.76,-2.54 2.12,-4.88 2.53,-7.52zm21.05 4.83l0 0c-0.97,2.75 -1.92,5.5 -2.87,8.25 -2.85,-0.02 -5.7,-0.01 -8.55,-0.01 -0.8,-0.03 -1.58,0.56 -1.71,1.35 -0.13,0.8 0.36,1.57 0.99,2.02 2.21,1.64 4.41,3.28 6.62,4.92 -0.82,2.53 -1.63,5.06 -2.47,7.58 -0.2,0.6 -0.38,1.3 -0.08,1.9 0.53,0.83 1.76,1.34 2.61,0.66 2.41,-1.66 4.79,-3.36 7.18,-5.03 2.22,1.58 4.47,3.11 6.69,4.7 0.4,0.27 0.81,0.63 1.33,0.61 1.12,0.02 2.08,-1.2 1.69,-2.28 -0.87,-2.72 -1.78,-5.43 -2.65,-8.15 2.16,-1.62 4.33,-3.23 6.51,-4.83 0.49,-0.36 0.95,-0.84 1.04,-1.46 0.08,-1 -0.73,-2.04 -1.79,-1.99 -2.87,-0.02 -5.74,0 -8.61,-0.01 -0.79,-2.58 -1.67,-5.12 -2.48,-7.69 -0.19,-0.72 -0.71,-1.36 -1.43,-1.58 -0.82,-0.28 -1.78,0.22 -2.03,1.04z"/>
      </g>
      <g>
       <path class="fil3" d="M84.11 44.57c2.06,-1.01 4.42,-0.52 6.62,-0.63 2.04,-0.12 4.17,0.68 5.42,2.33 1.32,1.66 1.63,4.06 0.74,6 0.82,0.8 1.61,1.63 2.43,2.43 2.16,-1 4.92,-0.82 6.75,0.78 1.11,1.01 2.12,2.12 3.21,3.16 1.64,1.56 2.34,4.04 1.63,6.21 -0.55,1.81 -2.04,3.19 -3.79,3.82 0,1.35 0.01,2.7 -0.01,4.05 1.3,0.06 2.62,-0.12 3.9,0.13 1.97,0.41 3.5,2.28 3.52,4.3 0.02,1.47 -0.01,2.94 0.01,4.41 3.26,1.55 6.21,3.8 8.47,6.63 3.39,4.16 5.24,9.55 5.1,14.93 -0.25,7.41 -4.54,14.48 -10.86,18.32 -4.02,2.49 -8.82,3.7 -13.54,3.34 -7.8,-0.49 -15.16,-5.33 -18.67,-12.32 -2.57,-4.86 -3.13,-10.71 -1.72,-16.01 1.67,-6.52 6.47,-12.13 12.62,-14.84 0.1,-1.55 -0.01,-3.11 0.06,-4.67 0.12,-2.09 1.87,-3.93 3.95,-4.16 1.15,-0.09 2.3,-0.01 3.44,-0.04 0,-1.29 0,-2.59 -0.01,-3.88 -1.05,-0.39 -2.1,-0.86 -2.89,-1.67 -0.99,-0.99 -1.98,-1.98 -2.98,-2.97 -1.91,-1.74 -2.19,-4.81 -1.03,-7.05 -0.69,-0.7 -1.38,-1.39 -2.08,-2.07 -2.13,1.54 -4.87,0.9 -7.31,1.04 -2.63,0.17 -5.04,-1.66 -5.97,-4.06 -0.69,0 -1.39,0 -2.08,0 -0.37,1.1 -0.88,2.2 -1.77,2.98 -1.36,1.25 -2.66,2.57 -4.06,3.78 0.13,-1.72 0.17,-3.45 0.14,-5.17 0.63,-0.48 1.27,-0.96 1.83,-1.53 -0.73,-0.05 -1.63,-0.2 -1.93,-0.99 -0.64,-1.05 0.13,-2.49 1.31,-2.7 -0.55,-0.25 -1.14,-0.42 -1.74,-0.49 -0.22,-1.17 -0.47,-2.32 -0.69,-3.49 1.54,-0.1 3.15,0.17 4.4,1.14 1.02,0.7 1.67,1.8 2.14,2.92 0.75,0 1.51,0 2.26,0 0.4,-1.71 1.57,-3.22 3.17,-3.97zm0.41 4.06l0 0c0.54,0.33 1.11,0.75 1.21,1.43 0.17,0.76 -0.34,1.41 -0.85,1.91 0.64,0.45 1.41,0.7 2.2,0.64 1.62,-0.07 3.25,0.15 4.85,-0.16 -0.42,-0.46 -0.92,-0.85 -1.24,-1.39 -0.5,-0.89 0.08,-2.05 0.96,-2.43 0.65,-0.26 1.3,0.11 1.88,0.36 -0.61,-0.71 -1.33,-1.48 -2.34,-1.49 -1.52,-0.03 -3.05,-0.01 -4.57,-0.01 -0.87,-0.04 -1.54,0.56 -2.11,1.15zm17.47 9.04l0 0c0.31,0.4 0.73,0.76 0.84,1.27 0.27,1.08 -0.75,2.27 -1.86,2.12 -0.59,-0.06 -1.03,-0.49 -1.51,-0.79 0.12,0.56 0.23,1.16 0.67,1.58 1,1.03 2.03,2.01 3.02,3.05 0.23,-0.86 1,-1.6 1.93,-1.54 0.85,0.02 1.41,0.76 1.79,1.44 0.46,-0.55 0.71,-1.26 0.58,-1.98 -0.05,-0.85 -0.73,-1.43 -1.28,-2 -0.89,-0.87 -1.76,-1.75 -2.63,-2.63 -0.4,-0.41 -1.02,-0.41 -1.54,-0.53zm-2.22 19.19l0 0c-0.75,1.06 -0.32,2.44 -0.43,3.64 3.82,-0.78 7.84,-1.07 11.65,-0.02 -0.01,-1.04 0.06,-2.07 -0.01,-3.11 -0.06,-0.64 -0.74,-1 -1.33,-0.94 -2.81,-0 -5.62,0.01 -8.43,-0 -0.5,0.01 -1.12,-0.05 -1.44,0.43zm3.37 13.02l0 0c-3.86,0.69 -7.32,3.28 -9.03,6.81 -1.53,3.01 -1.72,6.66 -0.54,9.83 1.12,3.09 3.52,5.69 6.51,7.07 2.75,1.3 5.98,1.53 8.88,0.63 2.74,-0.81 5.16,-2.63 6.76,-4.99 1.71,-2.5 2.47,-5.65 2.04,-8.65 -0.44,-3.48 -2.45,-6.7 -5.34,-8.68 -2.67,-1.88 -6.09,-2.6 -9.29,-2.02z"/>
      </g>
      <path class="fil3" d="M42.4 46.68c0.03,0 0.1,0.01 0.14,0.01 0.59,1.4 1,2.88 1.58,4.29 0.31,0.76 1.2,1.07 1.96,1.09 1.44,0.01 2.87,-0.01 4.31,0.01 -1.28,0.93 -2.58,1.83 -3.86,2.76 -0.6,0.41 -0.71,1.25 -0.5,1.91 0.45,1.44 0.92,2.88 1.38,4.32 -1.2,-0.85 -2.39,-1.72 -3.59,-2.56 -0.57,-0.41 -1.35,-0.61 -1.98,-0.19 -1.37,0.84 -2.62,1.85 -3.95,2.75 0.43,-1.4 0.91,-2.79 1.33,-4.19 0.32,-0.84 -0.11,-1.78 -0.81,-2.28 -1.18,-0.85 -2.36,-1.68 -3.53,-2.53 1.55,-0 3.1,0.02 4.65,-0.02 0.67,-0 1.3,-0.48 1.5,-1.12 0.47,-1.41 0.88,-2.85 1.38,-4.25z"/>
      <path class="fil3" d="M21.1 73.96c2.83,1.99 6.18,2.99 9.36,4.25 -0.64,2.79 -0.28,5.79 1.06,8.32 1.99,3.99 6.25,6.75 10.72,6.85 2.75,0.11 5.5,-0.76 7.71,-2.38 3.96,-2.82 6.06,-8.07 4.88,-12.82 3.14,-1.35 6.33,-2.64 9.37,-4.21 1.47,4.3 1.59,9.06 0.27,13.42 -1.84,6.28 -6.56,11.63 -12.53,14.28 -4.64,2.1 -10,2.52 -14.93,1.27 -4.77,-1.2 -9.1,-4.05 -12.13,-7.92 -2.99,-3.75 -4.74,-8.48 -4.89,-13.27 -0.1,-2.63 0.32,-5.27 1.11,-7.78z"/>
     </g>
    </g>
    <path class="fil5" d="M30.15 26.47c1.01,0.32 2.11,0.17 3.15,0.1 1.58,-0.32 1.63,-2.94 0.1,-3.36 -0.88,-0.17 -1.79,-0.1 -2.68,-0.06 -1.63,0.13 -2.05,2.66 -0.57,3.32z"/>
    <path class="fil5" d="M41.22 23.16c-1.61,0.24 -1.92,2.77 -0.38,3.35 1.01,0.21 2.09,0.19 3.11,0.06 1.52,-0.37 1.58,-2.84 0.11,-3.34 -0.92,-0.21 -1.9,-0.14 -2.84,-0.07z"/>
    <path class="fil5" d="M51.42 23.28c-1.42,0.58 -1.3,2.98 0.25,3.3 1,0.09 2.03,0.16 3.02,-0.07 1.45,-0.52 1.35,-2.99 -0.18,-3.33 -1.02,-0.09 -2.1,-0.21 -3.09,0.1z"/>
    <path class="fil5" d="M55.48 48.55c-2.87,-0.02 -5.74,0 -8.61,-0.01 -0.79,-2.58 -1.67,-5.12 -2.48,-7.69 -0.19,-0.72 -0.71,-1.36 -1.42,-1.58 -0.82,-0.28 -1.78,0.22 -2.03,1.04 -0.97,2.75 -1.92,5.49 -2.87,8.25 -2.85,-0.02 -5.7,-0.01 -8.55,-0.01 -0.8,-0.03 -1.58,0.56 -1.71,1.35 -0.13,0.8 0.36,1.57 0.99,2.02 2.21,1.64 4.41,3.28 6.62,4.92 -0.82,2.53 -1.63,5.06 -2.48,7.58 -0.2,0.6 -0.38,1.3 -0.08,1.9 0.53,0.83 1.76,1.34 2.61,0.66 2.41,-1.66 4.79,-3.36 7.18,-5.03 2.22,1.58 4.47,3.11 6.69,4.7 0.4,0.27 0.81,0.63 1.33,0.61 1.12,0.02 2.08,-1.2 1.69,-2.28 -0.87,-2.72 -1.78,-5.43 -2.64,-8.15 2.16,-1.62 4.34,-3.23 6.51,-4.83 0.49,-0.36 0.95,-0.84 1.04,-1.46 0.08,-1 -0.73,-2.04 -1.79,-1.99zm-12.93 -1.86c0.59,1.4 1,2.87 1.58,4.29 0.3,0.77 1.2,1.07 1.96,1.09 1.44,0.01 2.87,-0.01 4.31,0.01 -1.28,0.93 -2.58,1.83 -3.86,2.76 -0.6,0.41 -0.71,1.25 -0.5,1.91 0.45,1.44 0.92,2.88 1.37,4.32 -1.2,-0.85 -2.39,-1.72 -3.59,-2.56 -0.57,-0.41 -1.35,-0.6 -1.98,-0.19 -1.37,0.84 -2.62,1.85 -3.95,2.75 0.43,-1.4 0.91,-2.79 1.33,-4.19 0.32,-0.84 -0.11,-1.78 -0.81,-2.28 -1.18,-0.85 -2.36,-1.68 -3.53,-2.53 1.55,-0 3.1,0.02 4.65,-0.02 0.67,-0 1.3,-0.49 1.5,-1.13 0.47,-1.41 0.88,-2.85 1.38,-4.25 0.03,0 0.1,0.01 0.14,0.01z"/>
   </g>
   <path class="fil6 str0" d="M65.25 35.46c0.4,2.12 1.05,4.18 1.88,6.17 1.96,5.61 3.09,11.68 2.12,17.59 -0.64,3.97 -2.59,7.75 -5.63,10.41 -1.64,1.46 -3.7,2.31 -5.68,3.21 -2.88,1.21 -5.78,2.4 -8.65,3.64 -1.56,0.75 -3.2,1.4 -4.55,2.5 -0.64,0.5 -0.85,1.44 -1.64,1.75 -0.48,0.26 -1.09,0.13 -1.54,-0.13 -0.53,-0.39 -0.75,-1.07 -1.25,-1.49 -0.86,-0.71 -1.84,-1.26 -2.84,-1.75 -3.91,-2 -8.07,-3.45 -12.1,-5.17 -4.71,-2.16 -8.21,-6.61 -9.45,-11.61 -1.38,-5.84 -0.44,-11.97 1.43,-17.59 0.76,-2.54 2.12,-4.88 2.53,-7.52 15.12,-0.02 30.25,0.01 45.37,-0.01zm-5.55 -22.19c2.92,2.55 5.87,5.07 8.79,7.62 0.57,0.44 0.69,1.19 0.66,1.87 -0.03,1.6 0.04,3.2 -0.02,4.79 -0,0.74 -0.5,1.5 -1.25,1.66 -0.57,0.15 -1.17,0.3 -1.6,0.73 -0.6,0.5 -0.81,1.28 -1.05,1.98 -15,0.01 -30,0.01 -45,0 -0.3,-0.75 -0.49,-1.63 -1.2,-2.12 -0.72,-0.6 -1.82,-0.48 -2.46,-1.21 -0.49,-0.53 -0.41,-1.29 -0.42,-1.95 0.03,-1.44 -0.03,-2.88 0.02,-4.32 0,-0.77 0.73,-1.2 1.24,-1.65 2.9,-2.49 5.78,-4.99 8.66,-7.5 0.32,-0.26 0.71,-0.55 1.15,-0.44 2.63,1.15 5.55,2.06 8.44,1.57 2.06,-0.32 4.02,-1.4 5.29,-3.07 0.47,-0.62 1.15,-1.19 1.97,-1.2 0.76,0.06 1.2,0.75 1.65,1.27 1.45,1.72 3.62,2.75 5.85,2.93 2.46,0.22 4.87,-0.56 7.15,-1.41 0.72,-0.33 1.57,-0.1 2.13,0.44zm24.42 31.3c2.06,-1.01 4.42,-0.51 6.62,-0.63 2.03,-0.12 4.17,0.68 5.42,2.33 1.32,1.66 1.63,4.06 0.74,6 0.82,0.8 1.61,1.63 2.43,2.43 2.16,-1 4.92,-0.82 6.75,0.78 1.11,1.01 2.12,2.13 3.21,3.16 1.64,1.56 2.34,4.04 1.63,6.21 -0.55,1.81 -2.04,3.19 -3.8,3.82 0,1.35 0.01,2.7 -0.01,4.05 1.3,0.06 2.62,-0.12 3.9,0.13 1.97,0.41 3.5,2.28 3.52,4.3 0.02,1.47 -0.01,2.94 0.01,4.41 3.26,1.55 6.2,3.8 8.47,6.63 3.39,4.16 5.24,9.55 5.1,14.93 -0.25,7.42 -4.54,14.48 -10.86,18.32 -4.02,2.49 -8.82,3.7 -13.54,3.34 -7.8,-0.49 -15.16,-5.33 -18.67,-12.32 -2.57,-4.86 -3.13,-10.71 -1.72,-16.01 1.67,-6.52 6.47,-12.13 12.62,-14.84 0.1,-1.55 -0.01,-3.11 0.06,-4.66 0.12,-2.09 1.87,-3.93 3.95,-4.16 1.14,-0.09 2.3,-0.01 3.44,-0.04 0,-1.29 0,-2.59 -0.01,-3.88 -1.05,-0.39 -2.1,-0.86 -2.89,-1.67 -0.99,-0.99 -1.98,-1.99 -2.98,-2.97 -1.91,-1.74 -2.19,-4.81 -1.03,-7.05 -0.69,-0.7 -1.38,-1.39 -2.08,-2.07 -2.13,1.54 -4.87,0.9 -7.31,1.04 -2.63,0.17 -5.04,-1.66 -5.97,-4.06 -0.7,0 -1.39,0 -2.08,0 -0.37,1.1 -0.88,2.2 -1.77,2.98 -1.36,1.25 -2.66,2.57 -4.06,3.78 0.13,-1.72 0.17,-3.45 0.14,-5.17 0.63,-0.48 1.27,-0.96 1.83,-1.52 -0.73,-0.05 -1.63,-0.2 -1.93,-0.99 -0.64,-1.05 0.13,-2.49 1.31,-2.7 -0.55,-0.25 -1.14,-0.42 -1.74,-0.49 -0.22,-1.17 -0.46,-2.32 -0.69,-3.49 1.54,-0.1 3.15,0.17 4.4,1.14 1.02,0.7 1.67,1.8 2.14,2.93 0.75,0 1.51,0 2.26,0 0.4,-1.71 1.57,-3.22 3.17,-3.97zm-53.65 33.64c-0.64,2.79 -0.28,5.79 1.06,8.32 1.99,3.99 6.25,6.75 10.72,6.85 2.75,0.11 5.5,-0.76 7.71,-2.38 3.96,-2.82 6.06,-8.07 4.88,-12.82 3.14,-1.35 6.33,-2.64 9.37,-4.21 1.47,4.31 1.59,9.06 0.27,13.42 -1.84,6.28 -6.56,11.63 -12.53,14.28 -4.64,2.1 -10,2.52 -14.93,1.27 -4.77,-1.2 -9.1,-4.05 -12.13,-7.92 -2.99,-3.75 -4.74,-8.48 -4.89,-13.27 -0.1,-2.63 0.32,-5.27 1.11,-7.78 2.83,1.99 6.18,2.99 9.36,4.25z"/>
  </g>
 </g>
</svg>
