<?xml version="1.0" encoding="UTF-8"?>
<!DOCTYPE svg PUBLIC "-//W3C//DTD SVG 1.1//EN" "http://www.w3.org/Graphics/SVG/1.1/DTD/svg11.dtd">
<!-- Creator: CorelDRAW 2018 (64-Bit) -->
<svg xmlns="http://www.w3.org/2000/svg" xml:space="preserve" width="1.51666in" height="1.47916in" version="1.1" style="shape-rendering:geometricPrecision; text-rendering:geometricPrecision; image-rendering:optimizeQuality; fill-rule:evenodd; clip-rule:evenodd"
viewBox="0 0 3278.49 3197.43"
 xmlns:xlink="http://www.w3.org/1999/xlink">
 <defs>
  <style type="text/css">
   <![CDATA[
    .fil9 {fill:#304558;fill-rule:nonzero}
    .fil1 {fill:#526B8B;fill-rule:nonzero}
    .fil4 {fill:#B2C4D1;fill-rule:nonzero}
    .fil7 {fill:#CEB81C;fill-rule:nonzero}
    .fil0 {fill:#DBE5ED;fill-rule:nonzero}
    .fil8 {fill:#DDC621;fill-rule:nonzero}
    .fil5 {fill:#F8DB00;fill-rule:nonzero}
    .fil6 {fill:white;fill-rule:nonzero}
    .fil2 {fill:white;fill-rule:nonzero;fill-opacity:0.200000}
    .fil3 {fill:#F5FBFF;fill-rule:nonzero;fill-opacity:0.501961}
   ]]>
  </style>
 </defs>
 <g id="__x0023_Layer_x0020_1">
  <metadata id="CorelCorpID_0Corel-Layer"/>
  <g id="_976991520">
   <polygon class="fil0" points="1639.25,0 252.19,777.59 252.19,2416.84 1639.25,3197.43 3026.3,2416.84 3026.3,777.59 "/>
   <polygon class="fil1" points="546.42,954.73 546.42,2143.63 2732.08,2143.63 2732.08,954.73 1639.25,336.26 "/>
   <path class="fil2" d="M2662.7 573.76l296.27 166.08 -1403.86 1411.6 -462.35 0 1569.95 -1577.68zm-771.27 -321.58l71.89 -70.51 510.85 286.38 -1759.63 1759.63 -462.35 -7.03 -1.16 -328.07 1640.4 -1640.4z"/>
   <polygon class="fil0" points="3278.49,2143.63 -0,2143.63 210.16,2900.2 3068.33,2900.2 "/>
   <path class="fil3" d="M2563.95 2143.63l-759.58 759.58 -459.34 -3 756.57 -756.58 462.35 0zm-756.58 0l0 0 -753.56 753.57 -801.61 3 756.58 -756.58 798.6 0z"/>
   <path class="fil4" d="M1110.85 2900.2l150.12 84.07 756.57 0 150.12 -84.07 -1056.8 0zm-858.66 -882.67l0 0 174.13 126.09 -174.13 0 0 -126.09zm2774.11 0l0 0 0 126.09 -168.13 0 168.13 -126.09z"/>
   <path class="fil5" d="M1552.18 1369.05l-150.12 771.57 480.36 0 -156.12 -771.57 -57.05 -96.07 -117.08 96.07zm399.3 -813.62l0 0 -624.47 0 -60.05 174.13 372.29 450.35 369.27 -450.35 -57.04 -174.13zm597.45 792.6l0 0 435.33 -423.33 -966.73 0 -216.17 255.19c-25.13,29.97 -34.09,70.3 -24.02,108.08l123.09 519.39 210.17 -219.16 0 -156.12c-84.07,-3 -138.11,12.01 -162.12,45.03 0,-75.05 36.02,-120.09 111.08,-129.09l489.38 0zm-1816.37 0l0 0 -438.34 -423.33 966.74 0 216.17 255.19c26.18,29.42 36.28,69.81 27.02,108.08l-126.1 519.39 -210.17 -219.16 0 -156.12c84.07,-3 138.11,12.01 162.13,45.03 0,-75.05 -36.03,-120.09 -111.09,-129.09l-486.37 0z"/>
   <path class="fil6" d="M1951.49 555.42l-624.47 0 -60.05 174.13 141.11 -87.07 165.12 75.06 177.13 84.06 150.12 -123.09 51.05 -123.09zm-900.68 495.38l0 0 210.17 45.04 -210.17 39.03 -39.03 210.16 -42.03 -210.16 -213.16 -39.03 210.16 -42.03 45.04 -213.16 39.03 210.16z"/>
   <polygon class="fil7" points="1705.3,1324.01 1789.36,1549.18 1882.43,2143.63 1516.16,2143.63 1681.28,1843.39 "/>
   <path class="fil6" d="M1660.26 1342.02l-63.04 135.1 -168.13 633.48 132.1 -681.52 99.07 -87.07zm171.13 171.14l0 0 -21.01 -216.17c-5.04,-45.2 15.88,-89.36 54.04,-114.09l258.2 -171.13c15.57,-10.1 32.88,-17.23 51.04,-21.02l309.24 -66.05 -462.35 0 -243.19 291.23c-12.56,14.98 -17.04,35.15 -12.01,54.04l66.05 243.19z"/>
   <polygon class="fil8" points="2008.52,732.56 1759.34,798.61 1639.25,1176.9 "/>
   <path class="fil7" d="M1933.47 1345.02l120.09 -114.08c69.94,-65.22 157.75,-108.08 252.19,-123.09l594.45 -102.08 -351.27 339.26 -615.47 0zm-558.42 -282.21l0 0 21.02 120.09c10.73,68.3 5.59,138.16 -15.01,204.16l0 9c-24.02,75.06 -30.02,150.12 -24.02,228.17l18.01 186.14 126.1 -522.4c9.05,-36.85 0.14,-75.81 -24.02,-105.08l-102.08 -120.09z"/>
   <polygon class="fil6" points="297.23,924.7 561.42,1089.83 858.65,996.76 1206.92,996.76 1369.05,1056.81 1257.96,927.71 "/>
   <path class="fil9" d="M715.53 2627.71l162.24 0c52.45,0 80.37,-33.21 80.37,-71.32l0 -121.88c0,-37.73 -27.92,-70.93 -80.37,-70.93l-162.24 0 0 264.13zm164.51 -85.65c0,15.46 -7.54,23.01 -23.77,23.01l-62.25 0 0 -138.86 62.25 0c16.23,0 23.77,7.55 23.77,23.02l0 92.82zm187.54 85.65l87.92 0c52.45,0 79.24,-33.21 79.24,-70.87l0 -122.38c0,-38.05 -26.79,-70.87 -79.24,-70.87l-87.92 0c-52.45,0 -78.86,32.82 -78.86,70.87l0 122.38c0,37.67 26.41,70.87 78.86,70.87zm21.89 -201.12l44.53 0c16.22,0 22.25,7.86 22.25,20.63l0 95.72c0,12.77 -6.03,21.38 -22.25,21.38l-44.53 0c-16.6,0 -22.26,-8.61 -22.26,-21.38l0 -95.72c0,-12.77 5.66,-20.63 22.26,-20.63zm429.02 -63.01l-78.11 0 0 132.44 -1.89 0c-14.33,-23.01 -83.39,-119.99 -86.41,-124.52 -4.53,-6.42 -4.14,-7.92 -20.75,-7.92l-63.01 0 0 264.13 78.48 0 0 -132.06 2.64 0 82.25 119.61c7.17,10.56 10.94,12.45 24.15,12.45l62.64 0 0 -264.13zm220.74 264.13l84.14 0c0,0 -73.2,-233.57 -79.23,-252.43 -3.78,-11.33 -4.91,-11.7 -20.38,-11.7l-87.91 0c-15.47,0 -16.6,0.37 -20,11.7 -6.03,18.86 -79.62,252.43 -79.62,252.43l84.52 0 15.1 -55.09 88.3 0 15.09 55.09zm-63.77 -204.89l9.06 0 23.4 85.66 -55.85 0 23.4 -85.66zm361.48 -59.24l-241.48 0 0 64.14 81.5 0 0 199.99 78.48 0 0 -199.99 81.5 0 0 -64.14zm93.2 264.13l87.92 0c52.45,0 79.24,-33.21 79.24,-70.87l0 -122.38c0,-38.05 -26.79,-70.87 -79.24,-70.87l-87.92 0c-52.45,0 -78.86,32.82 -78.86,70.87l0 122.38c0,37.67 26.41,70.87 78.86,70.87zm21.89 -201.12l44.53 0c16.22,0 22.25,7.86 22.25,20.63l0 95.72c0,12.77 -6.03,21.38 -22.25,21.38l-44.53 0c-16.6,0 -22.26,-8.61 -22.26,-21.38l0 -95.72c0,-12.77 5.66,-20.63 22.26,-20.63zm257.34 120.37l46.41 0 35.47 80.75 81.5 0 -39.62 -91.32c23.77,-11.69 35.85,-34.33 35.85,-60.36l0 -41.89c0,-37.74 -26.41,-70.56 -79.24,-70.56l-158.85 0 0 264.13 78.48 0 0 -80.75zm59.62 -60l-59.62 0 0 -60.75 59.62 0c16.22,0 22.26,8.68 22.26,21.51l0 17.36c0,12.83 -6.04,21.88 -22.26,21.88z"/>
  </g>
 </g>
</svg>
