<?xml version="1.0" encoding="UTF-8"?>
<!DOCTYPE svg PUBLIC "-//W3C//DTD SVG 1.1//EN" "http://www.w3.org/Graphics/SVG/1.1/DTD/svg11.dtd">
<!-- Creator: CorelDRAW 2018 (64-Bit) -->
<svg xmlns="http://www.w3.org/2000/svg" xml:space="preserve" width="1.31977in" height="0.787402in" version="1.1" style="shape-rendering:geometricPrecision; text-rendering:geometricPrecision; image-rendering:optimizeQuality; fill-rule:evenodd; clip-rule:evenodd"
viewBox="0 0 89.05 53.13"
 xmlns:xlink="http://www.w3.org/1999/xlink">
 <defs>
  <style type="text/css">
   <![CDATA[
    .fil0 {fill:#314559}
   ]]>
  </style>
 </defs>
 <g id="Layer_x0020_1">
  <metadata id="CorelCorpID_0Corel-Layer"/>
  <g>
   <path class="fil0" d="M44.52 44.75c-0.01,-0 -0.02,-0 -0.03,-0 -5.4,0 -10.54,-2.35 -14.07,-6.43l10.03 -6.01c1.15,0.79 2.56,1.26 4.08,1.26 3.95,0 7.14,-3.13 7.14,-6.99 0,-0.32 -0.05,-0.63 -0.1,-0.95l10.06 -6.03c0.93,2.15 1.47,4.5 1.47,6.98 0,10.04 -8.31,18.18 -18.57,18.18l-0 0zm40.21 -26.1c2.69,1.73 4.31,4.72 4.31,7.92 0,3.2 -1.63,6.18 -4.32,7.92l-17.95 11.79c-6.61,4.33 -14.36,6.63 -22.26,6.63 -7.9,0 -15.65,-2.31 -22.26,-6.63l-2.44 -1.6 -13.42 8.05c-0.45,0.27 -0.96,0.41 -1.48,0.41 -0.99,0 -1.91,-0.5 -2.44,-1.33 -0.27,-0.44 -0.42,-0.95 -0.42,-1.47 0,-0.98 0.52,-1.89 1.37,-2.38l34.07 -20.43c-0.04,-0.31 -0.1,-0.63 -0.1,-0.95 0,-3.86 3.2,-6.99 7.14,-6.99 1.52,0 2.93,0.48 4.08,1.27l34.04 -20.43c0.45,-0.27 0.96,-0.41 1.49,-0.41 0.99,0 1.91,0.51 2.44,1.34 0.27,0.44 0.42,0.95 0.42,1.46 0,0.98 -0.52,1.89 -1.36,2.38l-11.19 6.71 10.29 6.75zm-80.42 15.84c-2.68,-1.74 -4.31,-4.72 -4.31,-7.92 0,-3.2 1.63,-6.19 4.32,-7.92l17.95 -11.79c6.61,-4.33 14.35,-6.63 22.25,-6.63 6.7,0 13.32,1.67 19.23,4.84l-9.78 5.87c-2.86,-1.66 -6.11,-2.54 -9.42,-2.54 -0.01,0 -0.01,0 -0.01,0 -10.25,0 -18.57,8.13 -18.57,18.17 0,0.39 0.04,0.75 0.06,1.13l-16.74 10.04 -4.96 -3.26 -0.01 0z"/>
  </g>
 </g>
</svg>
