<?xml version="1.0" encoding="UTF-8"?>
<!DOCTYPE svg PUBLIC "-//W3C//DTD SVG 1.1//EN" "http://www.w3.org/Graphics/SVG/1.1/DTD/svg11.dtd">
<!-- Creator: CorelDRAW 2018 (64-Bit) -->
<svg xmlns="http://www.w3.org/2000/svg" xml:space="preserve" width="1.33609in" height="0.787402in" version="1.1" style="shape-rendering:geometricPrecision; text-rendering:geometricPrecision; image-rendering:optimizeQuality; fill-rule:evenodd; clip-rule:evenodd"
viewBox="0 0 91.48 53.91"
 xmlns:xlink="http://www.w3.org/1999/xlink">
 <defs>
  <style type="text/css">
   <![CDATA[
    .fil0 {fill:#314559}
   ]]>
  </style>
 </defs>
 <g id="Layer_x0020_1">
  <metadata id="CorelCorpID_0Corel-Layer"/>
  <g id="_891686176">
   <g>
    <g>
     <path class="fil0" d="M45.74 45.56c-10.54,0 -19.08,-8.33 -19.08,-18.6 0,-10.27 8.54,-18.6 19.08,-18.6 10.53,0 19.08,8.33 19.08,18.6 0,10.27 -8.54,18.6 -19.08,18.6l0.01 0zm41.31 -26.71l-18.44 -12.06c-6.8,-4.43 -14.75,-6.79 -22.87,-6.79 -8.12,0 -16.07,2.36 -22.87,6.79l-18.44 12.06c-2.76,1.77 -4.43,4.83 -4.43,8.11 0,3.28 1.67,6.33 4.43,8.1l18.44 12.07c6.8,4.43 14.75,6.79 22.87,6.79 8.11,0 16.07,-2.36 22.87,-6.79l18.44 -12.07c2.76,-1.77 4.43,-4.83 4.43,-8.11 0,-3.28 -1.67,-6.34 -4.43,-8.1l0.01 -0zm0 0l0 0 0 0z"/>
    </g>
    <path class="fil0" d="M45.74 19.8c-4.05,0 -7.34,3.2 -7.34,7.15 0,3.96 3.29,7.15 7.34,7.15 4.05,0 7.34,-3.2 7.34,-7.15 0,-3.96 -3.28,-7.15 -7.34,-7.15z"/>
   </g>
  </g>
 </g>
</svg>
