<?xml version="1.0" encoding="UTF-8"?>
<!DOCTYPE svg PUBLIC "-//W3C//DTD SVG 1.1//EN" "http://www.w3.org/Graphics/SVG/1.1/DTD/svg11.dtd">
<!-- Creator: CorelDRAW 2018 (64-Bit) -->
<svg xmlns="http://www.w3.org/2000/svg" xml:space="preserve" width="0.84722in" height="0.708315in" version="1.1" style="shape-rendering:geometricPrecision; text-rendering:geometricPrecision; image-rendering:optimizeQuality; fill-rule:evenodd; clip-rule:evenodd"
viewBox="0 0 554.64 463.7"
 xmlns:xlink="http://www.w3.org/1999/xlink">
 <defs>
  <style type="text/css">
   <![CDATA[
    .fil1 {fill:#66C3D0;fill-rule:nonzero}
    .fil2 {fill:#00A0E3;fill-rule:nonzero}
    .fil0 {fill:white;fill-rule:nonzero}
   ]]>
  </style>
 </defs>
 <g id="Layer_x0020_1">
  <metadata id="CorelCorpID_0Corel-Layer"/>
  <polygon class="fil0" points="254.52,9.09 330.32,18.69 393.82,52.24 420,121.76 435.5,191.33 426.09,275.87 393.82,307.89 351.37,398.85 276.23,453.61 245.1,453.61 165.22,398.85 127.75,307.89 91.61,282.64 85.24,191.32 102.77,135.65 102.77,81.83 157.46,27.88 "/>
  <path class="fil1" d="M389.99 244.36c0,9.78 -6.27,18.5 -15.62,21.73l-30.35 10.51c-9.19,2.89 -19.07,2.67 -28.11,-0.64 -2.67,-0.99 -4.03,-3.96 -3.04,-6.63 0.18,-0.48 0.43,-0.94 0.74,-1.35l47.85 -62.74c1.17,-1.53 3.09,-2.3 5,-1.99l3.91 0.62c11.24,1.73 19.56,11.38 19.61,22.76l-0 17.72zm-40.64 52.43l0 0 -2.32 -0.7c1.15,-0.23 2.29,-0.57 3.44,-0.86l-1.13 1.56 0.01 0zm-98.51 -44.1l0 0c-1.62,2.16 -3.89,3.76 -6.47,4.55 -5.45,1.74 -10.6,4.29 -15.3,7.55l-3.92 2.74 48.44 -70.14c2.45,-3.55 6.61,-5.6 10.96,-5.33 3.08,0.18 6.17,0.42 9.23,0.68l-42.93 59.93 0 0.01zm-62.29 25.69l0 0c-1.98,-0.31 -3.95,-0.76 -5.86,-1.35l-33.42 -11.31c-9.54,-3.18 -15.91,-12.17 -15.75,-22.22l0.32 -16.86c0.26,-11.15 8.44,-20.53 19.45,-22.29l60.11 -9.98c10.19,-1.28 26.88,-2.17 37.84,-2.65 4.51,-0.19 7.27,4.8 4.7,8.47l-49.04 70.15c-4.09,5.86 -11.21,9.18 -18.34,8.06zm221.76 -194.09l0 0c0,0 -34.83,-34.41 -60.97,-43.01 -26.12,-8.6 -71.6,-14.46 -95,-13.97 -33.27,0.68 -68.3,1.36 -6.75,6.67 95.8,8.27 82.47,60.35 84.34,72.75l6.49 43.1c1.16,7.79 -5.19,14.75 -13.47,14.75l-41.62 8.77c-25.03,-1.28 -50.12,-0.35 -74.99,2.76l-71.56 9.09c-3.73,0.46 -7.34,1.65 -10.6,3.51l-1.35 0.74c-8.79,5.01 -14.34,14.23 -14.65,24.34l-1.05 39.22c-0.31,12.94 8.01,24.52 20.37,28.36l43.46 13.43c5.97,1.84 12.18,2.77 18.43,2.77 12.28,0.06 24.28,-3.64 34.39,-10.61l10.56 -7.39c10.97,-7.6 24.66,-10.2 37.65,-7.15 -4.25,4.21 -3.01,16.1 -3.01,16.1l7.29 34.64c0.91,4.32 0.27,8.82 -1.79,12.75l-2.91 5.56c-1.26,2.43 -0.31,5.42 2.12,6.68 0.21,0.11 0.42,0.2 0.64,0.28l58.48 -24.09c8.49,3.23 14.9,20.98 14.53,22.04 -17.41,49.58 -78.38,99.17 -78.38,99.17l87.1 -51.65 44.62 -94.68 25.04 -18.95 8.71 -82.64 -26.13 -113.33z"/>
  <path class="fil2" d="M279.59 360.54c-4.3,-3.48 -10.43,-6.09 -15.92,-5.93 -5.51,-0.12 -11.62,2.48 -15.91,5.97 -3.54,2.76 -7.01,5.9 -10.36,10.37 -1.8,2.43 -1.09,6.12 1.51,7.43 3.84,1.93 7.55,2.73 11.23,3.19l13.53 0.29c4.42,0.02 8.12,0.02 13.52,-0.25 3.69,-0.46 7.41,-1.26 11.27,-3.22 2.58,-1.32 3.29,-4.98 1.49,-7.42 -2.95,-3.95 -6.44,-7.46 -10.37,-10.44z"/>
  <path class="fil2" d="M407.97 282.77l11.24 -11.31 8.1 -80.59c-4.04,-10.36 -7.31,-21.01 -9.77,-31.86 -8.08,1.33 -16.94,-11.68 -19.77,-29.08 -2.84,-17.38 1.43,-32.57 10.46,-33.86 -10.05,-27.73 -29.53,-48.73 -58.37,-62.28 -18.44,-8.7 -39.1,-13.81 -61.38,-15.2 -28.36,-1.76 -61.21,-2.9 -92.36,6.15 -46.92,13.59 -71.65,27.25 -83.2,71.34 8.37,8.33 8.37,21.87 5.7,38.85 -1.17,7.49 -5.7,15.56 -12.97,19.58 -2.7,18.15 -8.76,35.1 -10.96,41.22l-0.16 0.45 5.02 83.45 15.56 12c-1.23,-7.28 -1.96,-14.97 -2.19,-20.89 -2.99,-4.8 -4.52,-10.37 -4.4,-16.03l1.04 -39.58c0.29,-10.18 5.84,-19.48 14.66,-24.57l1.35 -0.76c3.27,-1.87 6.88,-3.08 10.62,-3.55l71.55 -9.17c35.2,-4.5 70.82,-4.57 106.04,-0.2l74.29 9.22c4.73,0.6 9.24,2.35 13.13,5.09 7.69,5.45 12.28,14.37 12.28,23.82l0 40.58c0,5.64 -1.65,10.91 -4.46,15.43 -0.19,3.64 -0.55,7.67 -1.06,11.76zm-50.86 88.07l0 0 2.09 -4.73 26.34 -63.39c0.87,-1.9 1.65,-3.47 2.34,-4.87 2.44,-4.96 3.76,-7.61 3.98,-14l-38.23 12.5c-18,5.91 -38.54,2.96 -53.59,-7.65l-10.17 -7.18c-4.23,-2.97 -8.93,-5.21 -13.89,-6.64l6.47 7.71c9.84,11.95 22.67,21.07 37.19,26.43 4.29,1.77 8.86,2.91 13.47,4.09 3.14,0.79 6.3,1.59 9.4,2.59l-2.52 -0.16c-7.17,-0.46 -14.31,-0.93 -21.56,-2.43 -8.08,-1.83 -15.81,-4.94 -22.91,-9.21 -7.22,-4.17 -13.6,-9.77 -19.26,-15.94l-7.88 -8.98c-1.83,-2.16 -4.52,-3.43 -7.36,-3.45 -2.84,0.02 -5.53,1.28 -7.37,3.45l-7.89 8.97c-5.64,6.18 -12.05,11.77 -19.25,15.94 -7.1,4.27 -14.84,7.38 -22.91,9.21 -7.29,1.51 -14.47,1.98 -21.68,2.45l-2.4 0.15c3.09,-0.99 6.24,-1.78 9.37,-2.58 4.64,-1.16 9.22,-2.33 13.52,-4.08 14.53,-5.36 27.36,-14.48 37.19,-26.45l4.85 -5.77c-3.02,1.27 -5.95,2.77 -8.67,4.69l-10.58 7.45c-10.08,7.03 -22.08,10.78 -34.37,10.73 -6.26,-0 -12.48,-0.95 -18.46,-2.81l-41.64 -13c0.74,5.75 2.16,11.37 4.35,16.76l23.47 64.22c3.27,8.13 10.32,25.57 17.53,30.61l62.85 43.94c13.56,9.51 31.7,9.22 44.94,-0.73l59.92 -44.78c4.76,-3.55 10.07,-15.67 13.28,-22.97l0.05 -0.1 0.01 0zm33.71 -95.78l0 0c8.41,-2.75 14.09,-10.62 14.05,-19.47l0 -40.58c0,-6.64 -3.2,-12.87 -8.61,-16.73 -2.74,-1.92 -5.91,-3.14 -9.23,-3.56l-74.3 -9.23c-34.5,-4.27 -69.4,-4.2 -103.88,0.21l-71.56 9.15c-2.63,0.32 -5.16,1.17 -7.46,2.48l-1.35 0.76c-6.19,3.57 -10.09,10.1 -10.28,17.25l-1.05 39.59c-0.24,9.13 5.59,17.32 14.29,20.09l43.46 13.56c15.32,4.77 32.68,2.2 45.32,-6.73l10.58 -7.46c19.19,-13.51 44.79,-13.51 63.98,0l10.18 7.18c12.88,9.08 30.5,11.58 46,6.5l39.85 -13.03 -0.01 0.01zm71.36 -137.71l0 0c-4.87,1.21 -7.85,6.14 -6.63,11.01 0.4,1.62 1.23,3.09 2.42,4.26l23.77 23.6 -47.77 -24.59c2.9,17.02 9.68,33.61 10.06,34.55l0.02 0.03 0.86 2.05 -9.15 91.09 -37.01 36.57 -25.87 61.94 -0.03 0.06c-4.64,10.55 -10.38,23.64 -18.79,29.92l-59.92 44.8c-19.18,14.36 -45.41,14.78 -65.04,1.05l-62.88 -43.95c-10.54,-7.36 -17.79,-23.79 -23.77,-38.61l-18.6 -50.88 -41.01 -31.68 -5.71 -95.01 0.65 -1.74 0.04 -0.13c0.56,-1.54 5.95,-16.3 9.25,-32.71l-21.21 7.35 6.59 -14.66c2.06,-4.58 0.02,-9.96 -4.56,-12.02 -0.62,-0.28 -1.28,-0.49 -1.95,-0.62l-65.94 -13.18 61.88 -8.17c4.98,-0.65 8.49,-5.22 7.84,-10.2 -0.03,-0.21 -0.06,-0.42 -0.11,-0.63l-3.76 -18.43 27.73 7.6c13.29,-49.01 45.77,-72.9 97.78,-87.97 33.78,-9.8 68.4,-8.64 98.2,-6.77 24.45,1.53 47.2,7.17 67.63,16.78 35.2,16.58 54.49,42.83 65.38,77.96l34.1 -15.67 -13.46 23.18c-2.52,4.35 -1.04,9.91 3.31,12.43 1.25,0.72 2.65,1.14 4.09,1.21l76.76 4.05 -65.17 16.13zm58.49 -49.87l0 0 -56.81 16.82 21.14 -16.82 35.67 0z"/>
  <polygon class="fil2" points="481.9,145.48 515.2,163.66 554.64,163.66 532.25,149.55 "/>
 </g>
</svg>
