<?xml version="1.0" encoding="UTF-8"?>
<!DOCTYPE svg PUBLIC "-//W3C//DTD SVG 1.1//EN" "http://www.w3.org/Graphics/SVG/1.1/DTD/svg11.dtd">
<!-- Creator: CorelDRAW 2018 (64-Bit) -->
<svg xmlns="http://www.w3.org/2000/svg" xml:space="preserve" width="0.72222in" height="0.652772in" version="1.1" style="shape-rendering:geometricPrecision; text-rendering:geometricPrecision; image-rendering:optimizeQuality; fill-rule:evenodd; clip-rule:evenodd"
viewBox="0 0 121.05 109.41"
 xmlns:xlink="http://www.w3.org/1999/xlink">
 <defs>
  <style type="text/css">
   <![CDATA[
    .fil1 {fill:#66C3D0;fill-rule:nonzero}
    .fil2 {fill:#00A0E3;fill-rule:nonzero}
    .fil3 {fill:#B2C4D1;fill-rule:nonzero}
    .fil0 {fill:white;fill-rule:nonzero}
   ]]>
  </style>
 </defs>
 <g id="Layer_x0020_1">
  <metadata id="CorelCorpID_0Corel-Layer"/>
  <polygon class="fil0" points="2.27,33.05 7.11,27.8 17.13,27.8 60.52,2.47 104.33,27.8 114.51,27.8 119,33.05 119,86.83 114.51,92.83 84.65,92.83 60.52,106.95 35.73,92.83 7.11,92.83 2.27,88.78 "/>
  <path class="fil1" d="M60.52 2.33l0 14.22c20.71,0.02 37.5,16.59 37.5,37.03 0,20.44 -16.79,37 -37.5,37.03l0 14.14 44.23 -25.61 0 -51.21 -44.23 -25.61z"/>
  <path class="fil2" d="M61.69 25.46c-16.12,0 -29.24,13.12 -29.24,29.24 0,16.12 13.12,29.24 29.24,29.24 16.12,0 29.24,-13.12 29.24,-29.24 0,-16.12 -13.12,-29.24 -29.24,-29.24l-0 -0zm0 60.67l0 0c-17.32,0 -31.43,-14.1 -31.43,-31.43 0,-17.33 14.1,-31.43 31.43,-31.43 17.33,0 31.43,14.1 31.43,31.43 0,17.33 -14.1,31.43 -31.43,31.43z"/>
  <path class="fil3" d="M76.82 62.91l0.03 -0.06 -0.03 0.06zm2.33 -2.38l0 0 0.01 0 -0.01 -0z"/>
  <path class="fil1" d="M44.23 69.83c1.29,0 2.33,-1.04 2.33,-2.33 0,-1.29 -1.04,-2.33 -2.33,-2.33 -1.29,0 -2.33,1.04 -2.33,2.33 0,1.29 1.04,2.33 2.33,2.33zm9.31 6.98l0 0c1.29,0 2.33,-1.04 2.33,-2.33 0,-1.29 -1.04,-2.33 -2.33,-2.33 -1.29,0 -2.33,1.04 -2.33,2.33 0,1.29 1.04,2.33 2.33,2.33zm13.97 0l0 0c1.29,0 2.33,-1.04 2.33,-2.33 0,-1.29 -1.04,-2.33 -2.33,-2.33 -1.29,0 -2.33,1.04 -2.33,2.33 0,1.29 1.04,2.33 2.33,2.33zm9.31 -6.98l0 0c1.29,0 2.33,-1.04 2.33,-2.33 0,-1.29 -1.04,-2.33 -2.33,-2.33 -1.29,0 -2.33,1.04 -2.33,2.33 0,1.29 1.04,2.33 2.33,2.33zm-37.24 -11.64l0 0c1.29,0 2.33,-1.04 2.33,-2.33 0,-1.28 -1.04,-2.33 -2.33,-2.33 -1.29,0 -2.33,1.04 -2.33,2.33 0,1.29 1.04,2.33 2.33,2.33zm4.66 -11.64l0 0c1.29,0 2.33,-1.04 2.33,-2.33 0,-1.29 -1.04,-2.33 -2.33,-2.33 -1.29,0 -2.33,1.04 -2.33,2.33 0,1.29 1.04,2.33 2.33,2.33zm9.31 -6.98l0 0c1.29,0 2.33,-1.04 2.33,-2.33 0,-1.29 -1.04,-2.33 -2.33,-2.33 -1.29,0 -2.33,1.04 -2.33,2.33 0,1.29 1.04,2.33 2.33,2.33z"/>
  <path class="fil2" d="M76.98 53.62c-0.01,-7.84 -6.36,-14.2 -14.21,-14.21 -2.53,0.06 -4.62,-1.95 -4.68,-4.47 -0.06,-2.53 1.95,-4.62 4.47,-4.68 0.07,-0 0.14,-0 0.21,0 12.88,0 23.36,10.48 23.36,23.36 0.06,2.53 -1.95,4.62 -4.47,4.68 -2.53,0.06 -4.62,-1.95 -4.68,-4.47 -0,-0.07 -0,-0.14 0,-0.21zm-53.57 2.25l0 0c-0.24,-2.58 -0.12,-5.2 0.21,-7.8 0.4,-2.6 1.07,-5.16 1.98,-7.63 1.81,-4.97 4.84,-9.48 8.56,-13.26 3.77,-3.73 8.29,-6.74 13.26,-8.56 2.47,-0.91 5.02,-1.58 7.63,-1.99 2.61,-0.3 5.22,-0.44 7.8,-0.21 -5.15,0.51 -10.16,1.7 -14.76,3.82 -9.24,4.22 -16.65,11.63 -20.88,20.87 -2.12,4.6 -3.32,9.61 -3.81,14.76zm74.23 -2.33l0 0c0.24,2.43 0.12,4.9 -0.18,7.35 -0.37,2.45 -1,4.86 -1.86,7.19 -1.7,4.69 -4.55,8.93 -8.06,12.5 -3.55,3.52 -7.81,6.35 -12.49,8.05 -2.33,0.86 -4.73,1.48 -7.18,1.86 -2.45,0.28 -4.92,0.41 -7.35,0.18 4.85,-0.49 9.56,-1.62 13.88,-3.62 8.68,-3.98 15.65,-10.94 19.63,-19.63 1.99,-4.32 3.14,-9.03 3.61,-13.88z"/>
  <path class="fil1" d="M11.64 81.47l6.98 0 0 -53.54 -6.98 0 0 53.54zm101.45 6.98l0 0 -19 0c-1.82,0 -3.3,-1.35 -3.3,-3l0 -0.98c0,-1.66 1.48,-3 3.3,-3l19 0c1.82,0 3.3,1.35 3.3,3l0 0.98c0,1.66 -1.48,3 -3.3,3zm-87.83 0l0 0 -15.05 0c-1.78,0 -3.22,-1.56 -3.22,-3.49 0,-1.93 0,-3.49 3.22,-3.49 11.83,0 16.83,6.98 15.05,6.98l0 0zm35.27 -25.61l0 0c-3.86,0 -6.98,-3.13 -6.98,-6.98 0,-3.86 3.13,-6.98 6.98,-6.98 3.86,0 6.98,3.13 6.98,6.98 0,3.86 -3.13,6.98 -6.98,6.98zm51.21 18.62l0 0 4.66 0 0 -53.54 -4.66 0 0 53.54z"/>
  <polygon class="fil2" points="116.39,87.36 121.05,87.36 121.05,33.45 116.39,33.45 116.39,87.36 "/>
  <path class="fil2" d="M90.79 90.79l13.51 -6.98 8.13 0c2.18,0 3.96,1.57 3.96,3.49 0,1.93 -1.78,3.49 -3.96,3.49l-21.64 0zm-72.16 -11.64l0 0 0 -48.74 41.9 -25.75 41.9 25.75 0 48.74 -41.9 25.61 -41.9 -25.61zm-10 11.64l0 0c-2.18,0 -3.96,-1.57 -3.96,-3.49 0,-1.92 1.78,-3.49 3.96,-3.49l8.13 0 13.51 6.98 -21.64 0zm5.35 -60.52l0 0 0 50.15 -5.62 0c-1.34,0 -2.59,0.41 -3.69,1.06l0 -47.16c0,-2.23 1.66,-4.05 3.69,-4.05l5.62 0zm93.12 48.93l0 0 0 -49.61 5.62 0c2.17,0 3.68,1.78 3.68,3.98l4.66 0c0,-4.64 -3.74,-8.42 -8.34,-8.42l-9.75 0 -42.43 -25.14 -42.43 25.62 -9.75 0c-4.6,0 -8.34,3.29 -8.34,7.94l0 53.7c0,4.64 3.1,8.15 6.96,8.15l29.45 0 24.12 14 24.08 -14 28.11 0c4.6,0 8.34,-4.29 8.34,-8.15 0,-3.86 -3.74,-8.07 -8.34,-8.07l-5.62 0z"/>
 </g>
</svg>
