<?xml version="1.0" encoding="UTF-8"?>
<!DOCTYPE svg PUBLIC "-//W3C//DTD SVG 1.1//EN" "http://www.w3.org/Graphics/SVG/1.1/DTD/svg11.dtd">
<!-- Creator: CorelDRAW 2018 (64-Bit) -->
<svg xmlns="http://www.w3.org/2000/svg" xml:space="preserve" width="0.749996in" height="0.796528in" version="1.1" style="shape-rendering:geometricPrecision; text-rendering:geometricPrecision; image-rendering:optimizeQuality; fill-rule:evenodd; clip-rule:evenodd"
viewBox="0 0 83.7 88.89"
 xmlns:xlink="http://www.w3.org/1999/xlink">
 <defs>
  <style type="text/css">
   <![CDATA[
    .fil1 {fill:#66C3D0;fill-rule:nonzero}
    .fil3 {fill:#00A0E3;fill-rule:nonzero}
    .fil2 {fill:#99FFFF;fill-rule:nonzero}
    .fil0 {fill:white;fill-rule:nonzero}
   ]]>
  </style>
 </defs>
 <g id="Layer_x0020_1">
  <metadata id="CorelCorpID_0Corel-Layer"/>
  <polygon class="fil0" points="33.09,16.39 46.5,8.35 77.63,27.01 77.63,53.87 81.53,60.21 81.53,76.64 77.63,80.6 72.63,86.82 63.75,86.82 59.96,80.6 54.6,74.96 46.5,79 15.52,61.9 15.52,34.77 9.3,29.9 9.3,16.39 17.35,9.62 25.53,9.62 33.09,16.39 "/>
  <path class="fil1" d="M31 70.29l15.5 8.84 8.52 -3.85c-6.68,-24.84 15.72,-28.58 23.21,-21.64l0.81 -21.67 -11.35 -5.62 -36.7 43.94z"/>
  <path class="fil2" d="M29.45 68.2c2.72,-3.94 5.52,-7.82 8.41,-11.64 2.87,-3.83 5.81,-7.6 8.77,-11.35 2.97,-3.74 5.99,-7.45 9.05,-11.12 3.06,-3.68 6.2,-7.29 9.42,-10.83 -2.71,3.94 -5.52,7.82 -8.41,11.64 -2.88,3.82 -5.8,7.6 -8.77,11.35 -2.97,3.74 -5.99,7.45 -9.06,11.12 -3.06,3.68 -6.2,7.29 -9.42,10.83zm4.65 -12.4l0 0c1.28,-2.15 2.69,-4.2 4.14,-6.22 1.46,-2.01 2.96,-3.99 4.51,-5.93 1.55,-1.94 3.15,-3.84 4.79,-5.7 1.65,-1.86 3.34,-3.69 5.16,-5.41 -1.28,2.15 -2.69,4.2 -4.14,6.22 -1.46,2.01 -2.96,3.99 -4.51,5.93 -1.55,1.94 -3.15,3.84 -4.79,5.7 -1.65,1.86 -3.34,3.69 -5.16,5.41z"/>
  <path class="fil3" d="M79.05 55.8l-3.04 0 0 -28.34 -29.51 -18.24 -14.08 8.73 -1.42 -2.45 15.5 -9.29 32.55 19.63 0 29.96zm-32.52 24.8l0 0 -32.58 -18.12 0 -28.14 3.08 1.12 0 25.46 29.47 16.83 7.85 -4.05 1.42 2.13 -9.24 4.76 0 0z"/>
  <path class="fil1" d="M63.55 51.15c7.32,0 10.1,4.32 11.64,5.76 1.54,1.44 0.21,6.36 -1.46,7.19l-5.22 1.44 4.83 0c1.32,0 4.04,0.34 5.08,0.95 1.15,0.68 1.97,1.8 2.28,3.1l0.43 1.72c0,0 4.79,-2.88 1.31,-10.07 -3.48,-7.2 -10.45,-10.07 -10.45,-10.07l-8.43 0zm10.19 34.1l0 0c0,0 0,-3.72 -2.31,-5.93 -1.41,-1.35 9.17,-3.37 9.17,-3.37l-6.86 9.3z"/>
  <path class="fil3" d="M66.54 51.72c-5.16,0.9 -11.3,4.3 -11.23,15.34 0.04,1.09 0.02,1.49 -0,1.81 -0.01,0.1 -0,0.2 0.01,0.31l0.1 1.01c0.15,1.53 0.28,2.97 0.56,4.39 0.39,2 1.31,3.18 2.92,3.72 1.46,0.49 2.52,1.63 3.09,3.29 0.24,0.71 0.48,1.42 0.69,2.13 0.26,0.84 0.73,1.35 1.5,1.61 0.87,0.29 1.75,0.5 2.62,0.6 1.91,0.24 3.69,0.06 5.31,-0.55 0.84,-0.31 1.34,-0.84 1.59,-1.66 0.08,-0.27 0.17,-0.53 0.25,-0.78 0.09,-0.28 0.19,-0.55 0.27,-0.83 0.56,-1.99 1.83,-3.37 3.68,-4 0.86,-0.29 1.46,-0.85 1.85,-1.71 0.36,-0.79 0.62,-1.59 0.8,-2.38 0.45,-2.04 0.52,-4.13 0.59,-6.35 0.02,-0.52 0.03,-1.04 0.05,-1.56 0.04,-0.86 -0.01,-1.72 -0.14,-2.57 -0.75,-4.33 -3.03,-7.72 -6.77,-10.08 -2.58,-1.63 -5.11,-2.2 -7.72,-1.75zm-3.13 36.34l0 0c-1.58,-0.52 -2.69,-1.71 -3.21,-3.44 -0.21,-0.68 -0.43,-1.36 -0.66,-2.03 -0.28,-0.82 -0.74,-1.33 -1.41,-1.55 -2.54,-0.85 -4.12,-2.83 -4.71,-5.87 -0.3,-1.56 -0.68,-6.99 -0.71,-8.03 -0.09,-13.81 8.38,-17.35 13.43,-18.23 3.18,-0.56 6.35,0.15 9.43,2.09 4.43,2.79 7.13,6.84 8.03,12.02 0.17,0.98 -0.01,9.36 -0.53,11.68 -0.23,1.02 -0.56,2.02 -0.99,2.98 -0.7,1.55 -1.88,2.65 -3.42,3.18 -1.03,0.35 -1.65,1.02 -1.96,2.1 -0.09,0.33 -0.46,1.43 -0.53,1.66 -0.5,1.66 -1.61,2.86 -3.22,3.47 -1.46,0.54 -3.01,0.82 -4.57,0.81 -0.62,0 -3.94,-0.49 -4.96,-0.83z"/>
  <path class="fil3" d="M78.64 69.45l-0.15 -0.25c-0.29,-0.46 -0.79,-0.74 -1.34,-0.75l-6.55 -0.26c-0.46,-0.02 -0.85,0.32 -0.86,0.74l-0 1.35c0,0.62 0.28,1.2 0.76,1.58l2.07 1.73c1.16,0.97 2.92,1.07 4.21,0.24l0.91 -0.59c1.33,-0.86 1.74,-2.5 0.94,-3.8zm-20.88 -0.03l0 0 0.15 -0.25c0.28,-0.44 0.78,-0.72 1.34,-0.74l6.54 -0.23c0.46,-0.02 0.85,0.32 0.85,0.75l-0 1.35c0,0.6 -0.28,1.18 -0.77,1.59l-2.08 1.73c-1.17,0.97 -2.92,1.06 -4.2,0.22l-0.9 -0.59c-1.33,-0.87 -1.73,-2.51 -0.92,-3.81zm11.74 12.64l0 0c1.42,0.1 2.13,-0.58 1.64,-1.5 -0.39,-0.72 -0.85,-1.42 -1.25,-2.14 -0.29,-0.52 -0.77,-0.9 -1.66,-0.92 -0.91,-0.02 -1.39,0.38 -1.7,0.88 -0.45,0.74 -0.89,1.5 -1.3,2.27 -0.46,0.84 0.35,1.54 1.72,1.5 0.43,-0.01 0.86,-1.16 1.29,-1.17 0.42,-0.02 0.85,1.1 1.27,1.08l-0 -0zm-48.58 -71.21l0 0c-6.41,0 -11.62,5.21 -11.62,11.62 0,6.41 5.21,11.62 11.62,11.62 6.41,0 11.62,-5.21 11.62,-11.62 0,-6.41 -5.21,-11.62 -11.62,-11.62zm0 26.35l0 0c-8.12,0 -14.72,-6.6 -14.72,-14.72 0,-8.12 6.61,-14.72 14.72,-14.72 8.12,0 14.72,6.6 14.72,14.72 0,8.12 -6.6,14.72 -14.72,14.72z"/>
  <path class="fil3" d="M20.92 0c0.61,2.58 0.75,5.17 0.78,7.75 -0.02,2.59 -0.16,5.17 -0.78,7.75 -0.62,-2.59 -0.75,-5.17 -0.78,-7.75 0.03,-2.58 0.16,-5.17 0.78,-7.75zm0 29.45l0 0c0.61,2.58 0.75,5.17 0.78,7.75 -0.02,2.59 -0.16,5.17 -0.78,7.75 -0.62,-2.58 -0.75,-5.17 -0.78,-7.75 0.03,-2.58 0.16,-5.17 0.78,-7.75zm22.47 -6.97l0 0c-2.58,0.61 -5.17,0.75 -7.75,0.77 -2.58,-0.02 -5.17,-0.16 -7.75,-0.77 2.58,-0.62 5.17,-0.75 7.75,-0.78 2.58,0.03 5.17,0.16 7.75,0.78zm-28.81 0l0 0c-2.43,0.61 -4.86,0.75 -7.29,0.77 -2.43,-0.02 -4.86,-0.16 -7.29,-0.77 2.43,-0.62 4.86,-0.75 7.29,-0.78 2.43,0.03 4.86,0.16 7.29,0.78zm6.34 5.42l0 0c-2.99,0 -5.42,-2.43 -5.42,-5.42 0,-2.99 2.43,-5.43 5.42,-5.43 2.99,0 5.42,2.43 5.42,5.43 0,2.99 -2.43,5.42 -5.42,5.42z"/>
 </g>
</svg>
