<?xml version="1.0" encoding="UTF-8"?>
<!DOCTYPE svg PUBLIC "-//W3C//DTD SVG 1.1//EN" "http://www.w3.org/Graphics/SVG/1.1/DTD/svg11.dtd">
<!-- Creator: CorelDRAW 2018 (64-Bit) -->
<svg xmlns="http://www.w3.org/2000/svg" xml:space="preserve" width="1.11111in" height="0.768244in" version="1.1" style="shape-rendering:geometricPrecision; text-rendering:geometricPrecision; image-rendering:optimizeQuality; fill-rule:evenodd; clip-rule:evenodd"
viewBox="0 0 148.24 102.5"
 xmlns:xlink="http://www.w3.org/1999/xlink">
 <defs>
  <style type="text/css">
   <![CDATA[
    .fil1 {fill:#66C3D0;fill-rule:nonzero}
    .fil2 {fill:#00A0E3;fill-rule:nonzero}
    .fil0 {fill:white;fill-rule:nonzero}
   ]]>
  </style>
 </defs>
 <g id="Layer_x0020_1">
  <metadata id="CorelCorpID_0Corel-Layer"/>
  <g id="_895564240">
   <polygon class="fil0" points="25.2,24.62 55.59,17.12 67.49,17.12 74.12,4.07 81.48,17.12 92.65,17.12 122.79,24.62 122.79,51.05 129.71,45.03 131.69,54.64 143.77,58.68 131.69,66.59 131.69,78.29 122.79,72.48 120.22,78.29 115.69,86.99 74.12,100.39 33.34,87 29.57,82.46 27.29,74.7 18.53,79.85 15.57,68.57 5.04,61.61 15.57,58.69 18.53,46.75 25.2,52.23 25.2,24.62 "/>
   <path class="fil1" d="M74.19 95.55l-0.07 -34.26 21.97 13.77 -4.49 -26.07 20.15 -17.33c0,0 -14.34,-2.94 -26.56,-5.66 -0.45,-1.44 -0.83,-2.43 -1.55,-4.57 9.51,1.75 24.11,4.87 34.49,9.15l0 24.83 -9.53 0 5.84 9.36 -4.84 11.55 8.32 -4.23c0,0 -1.29,10.02 -9.32,12.03l-34.41 11.43 0 0z"/>
   <path class="fil2" d="M125.08 49.61l-3.82 4.25 0 -27.49 -17.96 -4.63c-7.28,-1.88 -14.72,-3.05 -22.23,-3.51l0.24 -3.75c7.72,0.47 15.44,1.69 22.96,3.62l20.81 5.37 0 26.14zm-98.32 4.25l0 0 -3.6 0 0 -30.57 21.52 -5.57c6.53,-1.69 16.38,-2.78 23.08,-3.24l-2.91 3.7c-6.48,0.44 -12.97,1.5 -19.29,3.14l-18.81 4.87 0 27.68 0 0zm47.52 48.64l0 0 -37.32 -11.44c-6.89,-2.42 -11.48,-8.99 -11.48,-16.36l3.74 0c0,5.74 3.57,10.85 8.88,12.72l36.17 11.09 35.96 -11.1c5.23,-1.85 8.78,-6.95 8.78,-12.68l3.96 -1.84c0,8.93 -4.79,15.76 -11.59,18.16l-37.11 11.45z"/>
   <path class="fil1" d="M128.98 44.59l3.04 11.92 -6.95 4.3 3.9 -16.21zm-16.71 28.95l0 0 11.03 -8.96 -1.57 6.82 -9.46 2.14zm29.02 -15.06l0 0 -10.59 6.95 -5.62 -4.23 16.21 -2.72zm-122.76 20.89l0 0 6.04 -14.15 2.99 7.85 -9.03 6.3zm0 -31.48l0 0 9.13 8.27 -3.61 6.95 -5.52 -15.22zm22.76 7.61l0 0 -6.22 9.93 -10.37 -1.45 16.59 -8.48zm32.83 -50.29l0 0 10.68 22.7 -10.68 14.51 0 -37.22zm-24.44 72.16l0 0 24.44 -34.07 0 18.71 -24.44 15.36zm61.5 -44.36l0 0 -18.74 16.21 -18.32 -5.96 37.06 -10.25z"/>
   <path class="fil2" d="M40.16 33.33l16.99 15.42 -3.97 23.89 20.94 -13.02 20.94 13.02 -3.97 -23.89 16.99 -15.42 -23.46 -5.18 -10.5 -20.28 -10.5 20.28 -23.46 5.18 0 0zm59.77 46.66l0 0 -25.81 -16.05 -25.81 16.05 4.96 -29.83 -20.84 -18.92 28.81 -6.36 12.88 -24.89 12.88 24.89 28.81 6.36 -20.84 18.92 4.96 29.83 0 0z"/>
   <path class="fil2" d="M122.24 69.6l7.82 5.37 0.76 -9.88 8.52 -5.9 -9.11 -2.15 -2.15 -8.84 -6.5 8.14 -10.32 0.54 5.46 7.42 -3.86 8.83 9.38 -3.52zm11.05 12.05l0 0 -11.56 -7.93 -15.78 5.91 6.51 -14.88 -8.23 -11.19 15.47 -0.81 10.21 -12.79 3.42 14.03 14.91 3.52 -13.83 9.58 -1.11 14.56 0 -0zm-124.27 -19.57l0 0 8.99 5.23 1.52 9.76 7.4 -5.92 9.66 2.79 -4.55 -8.48 4.88 -7.79 -10.37 0.24 -7.13 -7.61 -1.47 8.95 -8.94 2.82 -0 0zm7.8 21.88l0 0 -2.24 -14.39 -14.58 -8.49 14.63 -4.61 2.33 -14.2 11.2 11.95 15.54 -0.35 -7.36 11.74 7.67 14.3 -16.24 -4.7 -10.95 8.75 0 0z"/>
  </g>
 </g>
</svg>
