<?xml version="1.0" encoding="UTF-8"?>
<!DOCTYPE svg PUBLIC "-//W3C//DTD SVG 1.1//EN" "http://www.w3.org/Graphics/SVG/1.1/DTD/svg11.dtd">
<!-- Creator: CorelDRAW 2018 (64-Bit) -->
<svg xmlns="http://www.w3.org/2000/svg" xml:space="preserve" width="0.972591in" height="1.13469in" version="1.1" style="shape-rendering:geometricPrecision; text-rendering:geometricPrecision; image-rendering:optimizeQuality; fill-rule:evenodd; clip-rule:evenodd"
viewBox="0 0 78.94 92.09"
 xmlns:xlink="http://www.w3.org/1999/xlink">
 <defs>
  <style type="text/css">
   <![CDATA[
    .fil1 {fill:#00A0E3}
    .fil3 {fill:#2295FF}
    .fil2 {fill:#C3E1F2}
    .fil0 {fill:white}
   ]]>
  </style>
 </defs>
 <g id="Layer_x0020_1">
  <metadata id="CorelCorpID_0Corel-Layer"/>
  <polygon class="fil0" points="39.47,92.09 -0,69.04 -0,22.94 39.47,0 78.94,22.94 78.94,69.04 "/>
  <path class="fil1" d="M56.65 29.4c2.49,-4.23 5.53,-7.98 8.7,-11.62 3.22,-3.6 6.58,-7.07 10.49,-10.08 -2.49,4.23 -5.53,7.98 -8.7,11.62 -3.23,3.59 -6.59,7.07 -10.49,10.08zm-46.62 47.46c3.22,-3.59 6.58,-7.07 10.49,-10.08 -2.49,4.23 -5.53,7.99 -8.7,11.63 -3.23,3.59 -6.59,7.07 -10.49,10.08 2.49,-4.23 5.53,-7.98 8.7,-11.62l0 -0z"/>
  <path class="fil1" d="M3.59 67.08l35.88 21.26 35.88 -21.26 0 -42.21 -35.88 -21.1 -35.88 21.1 0 42.21zm35.88 25.02l-39.47 -23.05 0 -46.1 39.47 -22.94 39.47 22.94 0 46.1 -39.47 23.05z"/>
  <path class="fil1" d="M47.76 31.16c2.49,-4.23 5.53,-7.98 8.7,-11.62 3.22,-3.59 6.58,-7.07 10.49,-10.08 -2.49,4.23 -5.53,7.98 -8.7,11.62 -3.23,3.59 -6.59,7.07 -10.49,10.08zm-35.76 53.81c2.49,-4.23 5.53,-7.98 8.7,-11.62 3.22,-3.59 6.58,-7.07 10.49,-10.08 -2.49,4.23 -5.53,7.98 -8.7,11.62 -3.23,3.59 -6.59,7.07 -10.49,10.08z"/>
  <path class="fil2" d="M29.76 28.96c3.43,6.76 3.98,13.38 -6.02,18.46 -10,5.08 -15.03,0.74 -18.46,-6.03 -3.44,-6.76 -2.74,-14.01 6.02,-18.46 9,-5.24 15.03,-0.74 18.46,6.02z"/>
  <path class="fil2" d="M58.83 17.82c2.47,4.85 2.85,9.61 -4.32,13.25 -7.18,3.65 -10.79,0.53 -13.25,-4.32 -2.47,-4.85 -1.97,-10.05 4.32,-13.25 6.46,-3.76 10.79,-0.53 13.25,4.32z"/>
  <path class="fil3" d="M66.87 62.6c0,-5.14 -4.16,-9.3 -9.3,-9.3l0 -3.38c7,0 12.68,5.68 12.68,12.68 0,7 -5.68,12.68 -12.68,12.68 -7,0 -12.68,-5.68 -12.68,-12.68l3.38 0c0,5.14 4.16,9.3 9.3,9.3 5.14,0 9.3,-4.16 9.3,-9.3z"/>
  <polygon class="fil3" points="56.3,63.02 56.73,55.41 59.26,55.41 59.68,63.02 "/>
  <polygon class="fil3" points="59.47,63.07 54.61,65.98 53.34,64.29 57.36,60.43 "/>
  <path class="fil3" d="M50.81 54.14c0,0.93 -0.76,1.69 -1.69,1.69 -0.93,0 -1.69,-0.76 -1.69,-1.69 0,-0.93 0.76,-1.69 1.69,-1.69 0.93,0 1.69,0.76 1.69,1.69z"/>
  <path class="fil3" d="M55.88 51.61c0,0.93 -0.76,1.69 -1.69,1.69 -0.93,0 -1.69,-0.76 -1.69,-1.69 0,-0.93 0.76,-1.69 1.69,-1.69 0.93,0 1.69,0.76 1.69,1.69z"/>
  <path class="fil3" d="M48.27 59.21c0,0.93 -0.76,1.69 -1.69,1.69 -0.93,0 -1.69,-0.76 -1.69,-1.69 0,-0.93 0.76,-1.69 1.69,-1.69 0.93,0 1.69,0.76 1.69,1.69z"/>
  <path class="fil3" d="M24.46 35.28c0,-3.77 -3.05,-6.82 -6.82,-6.82l0 -2.48c5.14,0 9.3,4.16 9.3,9.3 0,5.14 -4.16,9.3 -9.3,9.3 -5.14,0 -9.3,-4.16 -9.3,-9.3l2.48 0c0,3.77 3.05,6.82 6.82,6.82 3.77,0 6.82,-3.05 6.82,-6.82z"/>
  <polygon class="fil3" points="16.71,35.59 17.02,30.01 18.88,30.01 19.19,35.59 "/>
  <polygon class="fil3" points="19.03,35.63 15.47,37.76 14.54,36.52 17.48,33.69 "/>
  <path class="fil3" d="M12.68 29.08c0,0.69 -0.56,1.24 -1.24,1.24 -0.68,0 -1.24,-0.56 -1.24,-1.24 0,-0.68 0.56,-1.24 1.24,-1.24 0.68,0 1.24,0.56 1.24,1.24z"/>
  <path class="fil3" d="M16.4 27.22c0,0.68 -0.56,1.24 -1.24,1.24 -0.68,0 -1.24,-0.56 -1.24,-1.24 0,-0.69 0.56,-1.24 1.24,-1.24 0.68,0 1.24,0.56 1.24,1.24z"/>
  <path class="fil3" d="M10.82 32.8c0,0.68 -0.56,1.24 -1.24,1.24 -0.68,0 -1.24,-0.56 -1.24,-1.24 0,-0.68 0.56,-1.24 1.24,-1.24 0.69,0 1.24,0.56 1.24,1.24z"/>
  <path class="fil3" d="M54.21 22.18c0,-2.23 -1.8,-4.03 -4.03,-4.03l0 -1.47c3.03,0 5.5,2.46 5.5,5.5 0,3.03 -2.46,5.5 -5.5,5.5 -3.04,0 -5.5,-2.46 -5.5,-5.5l1.47 0c0,2.23 1.8,4.03 4.03,4.03 2.23,0 4.03,-1.8 4.03,-4.03z"/>
  <polygon class="fil3" points="49.63,22.36 49.82,19.06 50.92,19.06 51.1,22.36 "/>
  <polygon class="fil3" points="51.01,22.38 48.9,23.64 48.35,22.91 50.09,21.24 "/>
  <path class="fil3" d="M47.25 18.51c0,0.4 -0.33,0.73 -0.73,0.73 -0.4,0 -0.73,-0.33 -0.73,-0.73 0,-0.4 0.33,-0.73 0.73,-0.73 0.4,0 0.73,0.33 0.73,0.73z"/>
  <path class="fil3" d="M49.45 17.41c0,0.4 -0.33,0.73 -0.73,0.73 -0.4,0 -0.73,-0.33 -0.73,-0.73 0,-0.4 0.33,-0.73 0.73,-0.73 0.4,0 0.73,0.33 0.73,0.73z"/>
  <path class="fil3" d="M46.15 20.71c0,0.4 -0.33,0.73 -0.73,0.73 -0.4,0 -0.73,-0.33 -0.73,-0.73 0,-0.4 0.33,-0.73 0.73,-0.73 0.4,0 0.73,0.33 0.73,0.73z"/>
  <path class="fil1" d="M36.95 34.51l3.72 0 -3.39 18.29 -3.82 -0 -3.39 -18.29 3.72 0 0.33 2.35 1.24 9.46 1.27 -9.51 0.33 -2.3 0 0zm5.65 18.29l-0.66 -3.41 3.95 0c0.29,0 0.43,-0.13 0.43,-0.38l0 -3.33c0,-0.25 -0.05,-0.4 -0.15,-0.45 -0.1,-0.05 -0.28,-0.08 -0.53,-0.08l-1.9 0c-0.27,0 -0.53,-0.02 -0.77,-0.06 -0.24,-0.04 -0.47,-0.14 -0.66,-0.29 -0.2,-0.17 -0.36,-0.38 -0.46,-0.63 -0.11,-0.27 -0.16,-0.63 -0.16,-1.09l0 -6.2c0,-0.72 0.2,-1.3 0.59,-1.73 0.4,-0.43 1.03,-0.64 1.89,-0.64l5.06 -0 0.63 3.41 -4.15 0c-0.31,0 -0.46,0.14 -0.46,0.4l0 3.33c0,0.19 0.05,0.31 0.14,0.38 0.09,0.07 0.23,0.1 0.42,0.1l2.31 0c0.59,0 1.04,0.14 1.35,0.42 0.31,0.28 0.47,0.76 0.47,1.45l0 6.03c0,1.01 -0.21,1.72 -0.62,2.14 -0.41,0.42 -1.14,0.63 -2.19,0.63l-4.53 0 0 -0z"/>
 </g>
</svg>
