<?xml version="1.0" encoding="UTF-8"?>
<!DOCTYPE svg PUBLIC "-//W3C//DTD SVG 1.1//EN" "http://www.w3.org/Graphics/SVG/1.1/DTD/svg11.dtd">
<!-- Creator: CorelDRAW 2018 (64-Bit) -->
<svg xmlns="http://www.w3.org/2000/svg" xml:space="preserve" width="0.66574in" height="0.749161in" version="1.1" style="shape-rendering:geometricPrecision; text-rendering:geometricPrecision; image-rendering:optimizeQuality; fill-rule:evenodd; clip-rule:evenodd"
viewBox="0 0 1071.11 1205.32"
 xmlns:xlink="http://www.w3.org/1999/xlink">
 <defs>
  <style type="text/css">
   <![CDATA[
    .fil1 {fill:#66C3D0;fill-rule:nonzero}
    .fil2 {fill:#00A0E3;fill-rule:nonzero}
    .fil0 {fill:white;fill-rule:nonzero}
   ]]>
  </style>
 </defs>
 <g id="Layer_x0020_1">
  <metadata id="CorelCorpID_0Corel-Layer"/>
  <polygon class="fil0" points="293.22,83.33 533.48,19.44 771.41,83.33 834.47,458.2 756.71,675.68 661.53,716.91 661.53,877.66 771.41,910.03 756.71,937.6 834.47,1111.61 533.48,1191.38 254.2,1111.61 308.9,937.6 293.19,910.03 410.24,877.66 410.24,716.91 324.72,675.68 231.12,458.2 "/>
  <path class="fil1" d="M755.16 918.43c17.56,-6.26 27.49,8.87 27.49,1.36 0,-16.72 -49.34,-31.35 -122.9,-39.26l-3.22 -167.03 76.56 -26.48c0,0 114.48,-197.64 107.01,-242.22l-65.2 -389.64c0.45,-1.11 -135.72,-16.98 -135.72,-16.98l4.4 40.58c-12.24,-1.32 -24.5,-2.35 -36.78,-3.08 -28.21,-1.54 -56.48,-1.43 -84.68,0.31 -28.04,1.56 -55.94,5.04 -83.51,10.41 -27.5,4.87 -54.3,13.1 -80.49,21.88 27.26,-5.03 54.48,-9.34 81.92,-10.26 27.28,-1.44 54.63,-0.99 81.85,1.32 27.13,2.19 92.51,13.63 98.47,14.97 16.54,3.83 28.99,17.55 30.82,34.39l-5.16 73.85c-2.65,37.94 0.77,76.06 10.1,112.93l26.93 106.35c2.01,18.59 0.22,37.36 -5.3,55.24l-22.51 73.12c-10.22,33.27 -32.68,61.41 -62.85,78.76 -57.96,33.29 -148.15,86.41 -140.55,90.17 93.63,46.72 114.9,75.01 113.91,156.3 -0.2,15.09 46.89,61.7 50.02,77.37 23.42,116.84 70.25,186.94 70.25,186.94 155.21,-2.25 138.7,-48.96 138.7,-73.5 0,-1.94 -69.54,-167.82 -69.54,-167.82l0 0.03z"/>
  <path class="fil2" d="M262.8 921c0,-35.09 50.33,-51.13 139.71,-61.03l4.92 44.2c-34.55,3.84 -63.13,9.18 -82.5,15.35 -1.47,0.47 -2.93,0.96 -4.38,1.48l21.68 7.71 -73.9 178.31c2.23,1.59 5.05,3.36 8.42,5.19 13.52,7.42 33.56,15.2 57.76,22.21 56.67,16.37 127.53,26.41 199.41,26.41 71.84,0 142.72,-10.03 199.36,-26.41 24.22,-7 44.26,-14.8 57.79,-22.21 3.35,-1.83 6.19,-3.58 8.4,-5.14l-73.88 -178.37 21.68 -7.71c-1.72,-0.61 -3.46,-1.18 -5.21,-1.72 -19.91,-6.26 -49.29,-11.62 -84.71,-15.44l4.81 -44.24c91.33,9.84 142.83,25.97 142.83,61.43 0,14.17 -7.55,24.18 -20.93,32.11l57.98 139.97c3.13,4.85 5.01,10.34 5.01,16.51 0,50.1 -157.63,95.7 -313.15,95.7 -155.52,0 -313.13,-45.58 -313.13,-95.7 0,-6.14 1.85,-11.62 4.96,-16.47l58.03 -140.02c-13.4,-7.94 -20.96,-17.94 -20.96,-32.11l0 -0.02z"/>
  <path class="fil2" d="M678.88 692.45l-289.93 0 0 203.99c0,34.72 59.21,46.37 144.98,46.37 85.73,0 144.95,-11.64 144.95,-46.37l0 -203.99zm-227.34 199.23l0 0c-6.07,-1.12 -12.04,-2.69 -17.88,-4.69l0 -150.05 200.52 0 0 150.08c-4.36,1.56 -10.46,3.19 -17.9,4.67 -21.31,4.21 -50.77,6.64 -82.36,6.64 -31.6,0 -61.07,-2.46 -82.39,-6.64z"/>
  <path class="fil2" d="M536.74 0.13c-0.94,0.03 -1.89,0.07 -2.84,0.11 -26.29,-0.77 -52.61,0.56 -78.7,3.98 -45.05,5.65 -89.61,16.67 -131.49,34.39 -14.48,6.1 -28.45,12.96 -41.85,20.6l-11.26 6.42 0 12.89c0,107.4 -25.14,240 -58.17,361.02 -5.19,19.07 -3.74,39.32 4.11,57.45l82.9 192.62 3.35 7.8 7.73 3.57c14.31,6.47 28.87,12.37 43.64,17.7 11.22,4.02 22.13,7.56 32.56,10.41 18.5,5.03 34.79,7.84 48.72,7.84l196.91 0c13.94,0 30.23,-2.81 48.71,-7.86 10.44,-2.84 21.37,-6.35 32.58,-10.39 14.77,-5.32 29.33,-11.22 43.64,-17.67l7.73 -3.6 86.44 -200.84c7.71,-17.88 9.27,-37.72 4.36,-56.53 -33.12,-126.63 -58.59,-261.76 -58.59,-361.51l0 -12.92 -11.29 -6.41c-13.19,-7.46 -26.79,-14.17 -40.74,-20.09 -42.1,-17.92 -86.92,-29.09 -132.22,-34.81 -25.27,-3.34 -50.75,-4.73 -76.24,-4.16zm70.61 48.27l0 0c41.43,5.25 82.3,15.42 120.27,31.6 8.58,3.64 16.94,7.6 25.05,11.8 2.06,102.9 27.26,234.72 59.89,359.41 2.41,9.23 1.65,18.99 -2.17,27.82l-79.64 185.06 -3.71 1.56c-9.41,4 -18.94,7.73 -28.56,11.19 -9.62,3.49 -19.36,6.61 -29.23,9.34 -14.97,4.09 -27.64,6.26 -36.89,6.26l-196.88 0c-9.25,0 -21.95,-2.17 -36.9,-6.26 -9.86,-2.74 -19.61,-5.85 -29.23,-9.34 -10.89,-3.91 -21.66,-8.17 -32.29,-12.76l-79.44 -184.64c-3.88,-8.92 -4.61,-18.9 -2.06,-28.29 32.67,-119.69 57.7,-249.71 59.62,-359.41 8.42,-4.38 17.1,-8.47 26.01,-12.23 37.76,-15.97 78.39,-26.01 119.62,-31.2 23.79,-3.12 47.79,-4.33 71.77,-3.64l2.69 0 2.9 -0.11c23.12,-0.51 46.23,0.76 69.16,3.79l0.02 0.03z"/>
  <path class="fil2" d="M1035.15 179.92l34.44 138.48c4.6,21.54 -1.46,43.98 -16.27,60.29l-106.81 117.94c-2.08,2.27 -3.7,4.93 -4.76,7.82l-43.75 118.43c-9.05,24.42 -31.1,41.65 -56.98,44.53l-70.03 7.85 -5 -44.2 70.03 -7.84c9.1,-1.03 16.87,-7.11 20.04,-15.68l43.71 -118.3c2.99,-8.27 7.59,-15.87 13.54,-22.39l106.84 -117.94c5.23,-5.77 7.37,-13.63 5.9,-20.54l-34.46 -138.52c-2.2,-10.38 -10.92,-18.11 -21.49,-19.04l-2.73 -0.4 -187.3 -40 9.39 -43.47 186.07 39.71c29.49,3.24 53.65,24.98 59.64,53.27zm-944.46 -52.78l0 0 191.66 -40.22 9.23 43.5 -192.85 40.47 -2.64 0.41c-7.54,0.74 -13.67,6.4 -15.02,13.85l-36.06 146.23c-1.12,5.24 0.36,10.71 3.98,14.68l110.39 121.8c5.27,5.81 9.36,12.61 12.02,19.89l45.83 124.09c2.2,5.94 7.56,10.13 13.85,10.83l74.64 8.38 -5.03 44.2 -74.63 -8.38c-23.06,-2.57 -42.71,-17.93 -50.77,-39.69l-45.85 -124.12c-0.73,-2 -1.84,-3.83 -3.26,-5.41l-110.39 -121.78c-13.3,-14.75 -18.64,-35.03 -14.32,-54.42l36.04 -146.21c5.52,-25.81 26.95,-45.2 53.18,-48.11z"/>
  <path class="fil2" d="M358.11 653.16c29.28,9.45 58.72,16.29 88.05,22.12 29.43,5.37 58.95,9.01 88.46,9.63 29.56,1.43 58.99,-1.55 88.15,-6.57 29.45,-4.6 57.52,-14.82 86.66,-25.18 -24.47,18.19 -51.84,34.9 -82.3,42.9 -30.16,9.13 -61.62,13.24 -93.11,12.18 -62.63,-2.15 -124.87,-20.2 -175.91,-55.08zm340.27 296.82l0 0c-24.29,13.92 -51.82,21.57 -79.15,26.68 -27.48,5.23 -55.42,7.22 -83.28,7.56 -27.86,-0.22 -55.75,-2.01 -83.28,-7.09 -27.35,-4.98 -54.86,-12.44 -79.33,-26.01 27.47,4.24 54.37,6.37 81.48,7.89 27.03,1.28 54.08,2.08 81.11,1.86 27.05,0.04 54.1,-0.7 81.11,-2.19 27.04,-1.7 53.92,-3.96 81.34,-8.72l0 0.02z"/>
 </g>
</svg>
